<svg xmlns="http://www.w3.org/2000/svg" width="32" height="32" viewBox="0 0 32 32">
    <defs>
        <linearGradient id="axtbsdjcka" x1=".283" x2=".693" y1=".073" y2=".944" gradientUnits="objectBoundingBox">
            <stop offset="0" stop-color="#203f57"/>
            <stop offset="1" stop-color="#0b1e2c"/>
        </linearGradient>
    </defs>
    <g>
        <g>
            <path fill="url(#axtbsdjcka)" d="M16 0A16 16 0 1 1 0 16 16 16 0 0 1 16 0z" transform="translate(-426 -962) translate(426 962)"/>
        </g>
        <g>
            <path fill="#3cc8c8" d="M10.167.048a.584.584 0 0 1 .768.767.588.588 0 0 1-.944.185.594.594 0 0 1 .176-.953M5.279.575a.453.453 0 0 1 .6.44.453.453 0 0 1-.651.412.463.463 0 0 1 .051-.852m10.01.861a.457.457 0 0 1-.084-.867c.322-.157.618.138.665.443a.5.5 0 0 1-.58.424m-8.9 1.219a.707.707 0 1 1-.1 1.168.713.713 0 0 1 .1-1.168m7.045.31a.714.714 0 0 1 1.275-.03.749.749 0 0 1-.466 1.036.738.738 0 0 1-.809-1.006m-3.858.976a.878.878 0 0 1 .844-.827.927.927 0 0 1 .724.47.833.833 0 0 1-.39 1.135 1.1 1.1 0 0 1-.621.054.9.9 0 0 1-.558-.832m-7.266.665a.583.583 0 1 1-.094.976.591.591 0 0 1 .094-.976m15.608 0a.581.581 0 1 1 .064 1 .582.582 0 0 1-.064-1m-6.3.82a1.409 1.409 0 1 1-.872 1.83 1.415 1.415 0 0 1 .872-1.83M8.159 5.5A1.409 1.409 0 1 1 7.5 7.4a1.421 1.421 0 0 1 .659-1.9M4.692 6.681a.886.886 0 0 1 .848-.724.935.935 0 0 1 .824.825.879.879 0 0 1-.822.854.827.827 0 0 1-.851-.955m10.242-.632a.831.831 0 1 1-.062 1.438.837.837 0 0 1 .062-1.438M6.75 8.272a1.408 1.408 0 1 1-.907 1.965 1.421 1.421 0 0 1 .907-1.965m6.569 0a1.41 1.41 0 1 1-.831 2.021 1.424 1.424 0 0 1 .831-2.021m-10.467.7a.713.713 0 0 1 .892.9.7.7 0 0 1-1.14.3.713.713 0 0 1 .249-1.2m14.193.753a.8.8 0 0 1 .747-.842.751.751 0 0 1 .679.737.707.707 0 0 1-1.028.624.955.955 0 0 1-.4-.518M.276 9.224a.458.458 0 1 1-.184.7.467.467 0 0 1 .184-.7zm19.864-.008a.454.454 0 0 1 .666.215.447.447 0 0 1-.443.623c-.447.041-.592-.641-.223-.838m-11.679 1.9a1.408 1.408 0 1 1-1.1 1.357 1.425 1.425 0 0 1 1.1-1.357m3.283 0a1.41 1.41 0 1 1-1.031 1.041 1.417 1.417 0 0 1 1.031-1.041m-6.33.525a.831.831 0 1 1-.514 1.371.837.837 0 0 1 .517-1.371m9.628.026a.83.83 0 1 1-.157 1.481.832.832 0 0 1 .157-1.481m2.691 2.7a.579.579 0 0 1 .587-.811.716.716 0 0 1 .49.3c.028.225.074.492-.113.666a.579.579 0 0 1-.964-.154m-15.428-.707a.587.587 0 0 1 .871.588.584.584 0 1 1-.871-.588m7.769.851a.829.829 0 1 1-.154 1.472.838.838 0 0 1 .154-1.472m-3.6.839a.7.7 0 0 1 .987.658.7.7 0 0 1-.777.687.7.7 0 0 1-.209-1.345m7.288.007a.708.708 0 1 1-.083 1.186.714.714 0 0 1 .083-1.186m1.267 3.133a.5.5 0 0 1 .361-.738c.262.053.539.25.484.554a.466.466 0 0 1-.845.185m-10.06-.264c.08-.24.273-.48.556-.417a.461.461 0 0 1 .174.843.494.494 0 0 1-.73-.426m4.854.276a.578.578 0 0 1 .843-.34c.2.086.259.311.311.5-.028.1-.052.2-.076.3a.656.656 0 0 1-.491.289.578.578 0 0 1-.587-.749" transform="translate(-426 -962) translate(431.559 968.531)"/>
        </g>
    </g>
</svg>
