<svg xmlns="http://www.w3.org/2000/svg" width="32" height="32" version="1.1" viewBox="0 0 400 400"><g fill-rule="evenodd" stroke="none"><path d="M195.8 92.57c-1.54.256-3.61.859-4.6 1.339-.99.48-2.087.877-2.438.882-.351.005-.96.364-1.353.799-.393.434-1.075.904-1.516 1.044-1.023.325-6.692 6.048-7.522 7.594-.346.645-.829 1.532-1.074 1.972-.245.44-.727 1.385-1.071 2.1l-1.252 2.6a48.56 48.56 0 0 1-1.073 2.1c-.247.44-.711 1.34-1.032 2-.321.66-.896 1.56-1.277 2-.381.44-.91 1.475-1.174 2.3-.264.825-.629 1.5-.811 1.5-.183 0-.618.84-.968 1.867-.35 1.027-.884 2.152-1.187 2.5-.303.348-.762 1.292-1.021 2.098-.258.805-.705 1.555-.993 1.665-.289.111-.634.751-.769 1.423-.134.672-.61 1.588-1.056 2.035-.447.446-.813.986-.813 1.198 0 .66-1.33 3.214-1.674 3.214-.179 0-.326.264-.326.586 0 .813-1.276 3.414-1.674 3.414-.179 0-.327.315-.327.7-.001.385-.399 1.33-.884 2.1a41.41 41.41 0 0 0-1.59 2.8c-.389.77-.87 1.67-1.068 2-.198.33-.651 1.23-1.006 2s-.805 1.67-1 2c-.195.33-.648 1.23-1.008 2s-1.124 2.21-1.699 3.2c-1.849 3.184-3.645 6.658-3.951 7.642-.164.527-.622 1.419-1.019 1.982-.396.564-.843 1.514-.993 2.111-.15.597-.589 1.255-.974 1.461-.386.207-.809.916-.942 1.577-.132.661-.606 1.568-1.052 2.015-.447.446-.813 1.147-.813 1.556 0 .409-.422 1.367-.938 2.127-.516.76-1.061 1.87-1.21 2.466-.15.596-.628 1.439-1.062 1.873-.435.435-.791 1.015-.791 1.29-.001.275-.393 1.13-.87 1.9s-2.099 3.83-3.603 6.8c-1.505 2.97-2.953 5.76-3.219 6.2l-1.338 2.205c-.47.773-.994 1.853-1.164 2.4-.171.547-.646 1.473-1.057 2.057-.412.584-.748 1.324-.748 1.644 0 .32-.448 1.242-.995 2.049-.547.806-1.105 1.904-1.239 2.439-.135.535-.499 1.184-.81 1.442-.311.259-.919 1.211-1.351 2.117-.432.906-.95 1.917-1.151 2.247-.201.33-1.114 2.175-2.029 4.1-.915 1.925-1.835 3.5-2.044 3.5-.21 0-.381.335-.381.744s-.412 1.354-.915 2.1c-.503.746-1.162 1.986-1.465 2.756-.304.77-.792 1.684-1.086 2.031-.294.348-.534.908-.534 1.245 0 .337-.45 1.275-1 2.086-.55.81-1.004 1.691-1.009 1.956-.005.265-.36.932-.79 1.482-.857 1.097-5.601 10.5-5.601 11.102 0 .206-.344.685-.764 1.065-.42.381-.884 1.174-1.03 1.762-.146.589-.59 1.431-.986 1.871-.397.44-.938 1.475-1.202 2.3-.264.825-.632 1.5-.817 1.5-.185 0-.631.886-.991 1.969-.36 1.083-.902 2.176-1.206 2.428-.304.252-.67.994-.814 1.65-.144.655-.606 1.406-1.026 1.668-.42.263-.765.749-.765 1.081-.001.332-.395 1.234-.874 2.004-4.241 6.806-4.336 21.347-.17 25.951.355.392.645.858.645 1.036 0 1.612 7.571 8.026 10.637 9.012.86.276 1.835.739 2.168 1.028 2.145 1.862 13.775 1.715 16.995-.216.66-.396 1.636-.852 2.168-1.014 5.358-1.628 8.839-5.87 15.181-18.497 1.575-3.135 3.004-5.7 3.177-5.7.172 0 .552-.675.843-1.5.291-.825.748-1.77 1.014-2.1.267-.33.725-1.23 1.017-2 .292-.77.749-1.67 1.015-2 .266-.33.7-1.272.964-2.094.263-.822.648-1.599.853-1.726.389-.24.619-.658 3.887-7.081 1.092-2.146 2.165-4.126 2.384-4.4.22-.275.524-.907.677-1.406.153-.499.957-2.029 1.787-3.4.829-1.371 2.102-3.753 2.827-5.293.726-1.54 2.059-4.124 2.963-5.743 1.706-3.055 5.673-10.619 10.625-20.257 1.583-3.08 3.385-6.5 4.006-7.6.621-1.1 2.429-4.52 4.019-7.6 1.589-3.08 3.394-6.5 4.01-7.6.617-1.1 2.307-4.34 3.757-7.2 1.45-2.86 3.203-6.19 3.896-7.4.692-1.21 2.222-4.135 3.4-6.5 2.623-5.269 4.724-5.941 5.935-1.9.165.55.613 1.45.995 2s.832 1.45 1 2c.168.55.618 1.45 1 2s.833 1.45 1.002 2c.169.55.733 1.509 1.253 2.131.52.622.945 1.379.945 1.682 0 .303.45 1.215 1 2.025.55.811 1 1.711 1 2 0 .29.45 1.19 1 2 .55.811 1 1.726 1 2.035 0 .308.351.937.78 1.398.429.46.889 1.334 1.023 1.942.133.607.582 1.411.997 1.787.415.376.866 1.192 1.003 1.814.137.622.497 1.337.801 1.589.304.252.842 1.331 1.196 2.397.354 1.066.886 2.14 1.183 2.386.296.246.658.922.804 1.504.146.581.703 1.577 1.239 2.214.536.636.974 1.493.974 1.903 0 .41.175.854.389.986.214.132 1.134 1.808 2.044 3.724.911 1.916 1.817 3.753 2.014 4.083.197.33.672 1.224 1.055 1.988.384.763 1.008 1.703 1.388 2.089.379.387.812 1.19.962 1.786.149.596.694 1.706 1.21 2.466.516.76.938 1.695.938 2.078 0 .382.261.911.58 1.176.318.265.79 1.142 1.049 1.949.258.807.794 1.828 1.191 2.268.396.44.84 1.282.986 1.871.146.588.61 1.381 1.03 1.762.42.38.764.87.764 1.088 0 .366 2.056 4.878 2.86 6.279.19.33.655 1.23 1.034 2 .378.77 1.097 1.909 1.597 2.531.5.622.909 1.379.909 1.682 0 .303.45 1.215 1 2.025.55.811 1 1.786 1 2.169 0 .382.261.911.58 1.176.318.265.79 1.142 1.049 1.949.258.807.794 1.828 1.191 2.268.396.44.844 1.295.994 1.9.15.605.413 1.1.584 1.1.171 0 .622.675 1.001 1.5 1.609 3.494 5.054 10.282 5.479 10.794.253.305 1.952 3.524 3.776 7.154 1.823 3.63 3.772 7.143 4.331 7.807.558.663 1.015 1.337 1.015 1.497 0 1.423 6.429 6.14 9.935 7.289.806.264 1.907.768 2.447 1.12.793.516 2.18.639 7.215.639 6.824 0 5.898.23 12.718-3.153 4.994-2.477 9.113-7.541 11.101-13.651 1.576-4.841 1.693-12.632.244-16.196-1.377-3.385-3.408-7.366-3.93-7.703-.258-.167-.686-.977-.951-1.8-.264-.823-.725-1.779-1.025-2.123-.299-.344-.752-1.244-1.006-2s-.676-1.644-.939-1.974c-.262-.33-.717-1.23-1.009-2-.292-.77-.753-1.67-1.024-2-.553-.673-.84-1.22-4.751-9.043-1.526-3.054-3.086-5.886-3.467-6.294-.38-.408-.81-1.217-.956-1.799-.146-.581-.402-1.148-.568-1.26-.408-.275-3.634-6.976-3.634-7.549 0-.25-.162-.455-.36-.455-.199 0-.694-.809-1.1-1.799-.407-.989-.848-1.799-.979-1.8-.132 0-.571-.766-.975-1.701-.405-.935-.943-1.97-1.195-2.3-.253-.33-.699-1.23-.991-2-.292-.77-.742-1.67-1-2-.258-.33-.707-1.23-.999-2-.292-.77-.833-1.76-1.203-2.2-.37-.44-1.883-3.23-3.362-6.2-1.48-2.97-3.113-6.12-3.629-7-.516-.88-2.221-4.159-3.788-7.286-1.567-3.127-3.009-5.784-3.205-5.905-.196-.121-.574-.882-.841-1.692-.268-.81-.812-1.821-1.21-2.249-.398-.427-.834-1.279-.969-1.894s-.474-1.309-.754-1.541c-.279-.232-.755-1.189-1.057-2.127-.302-.938-.695-1.808-.872-1.933-.38-.268-1.224-1.827-5.076-9.373-1.573-3.08-3.377-6.5-4.011-7.6-.633-1.1-2.443-4.52-4.021-7.6-1.578-3.08-3.387-6.5-4.02-7.6-.632-1.1-1.425-2.63-1.762-3.4-.337-.77-.795-1.67-1.018-2-.223-.33-.584-1.005-.804-1.5-.805-1.815-1.279-2.742-2.404-4.7-.632-1.1-2.438-4.52-4.014-7.6-1.575-3.08-3.374-6.5-3.997-7.6-.623-1.1-1.951-3.62-2.952-5.6-2.475-4.898-3.559-6.784-4.357-7.582-.371-.371-.675-.823-.675-1.003 0-.508-4.428-4.815-4.951-4.815-.255 0-1.09-.421-1.856-.935s-2.011-1.146-2.767-1.405c-.756-.258-1.656-.712-2-1.007-1.366-1.172-7.729-1.632-12.226-.883m-1.188 153.642c-6.554 1.061-13.49 5.784-16.23 11.051-.418.805-.908 1.525-1.088 1.6-1.528.638-2.286 6.104-2.404 17.337l-.117 11.2 1.1 3.4c1.354 4.186 3.045 6.906 6.351 10.215 1.53 1.532 5.121 4.185 5.664 4.185.137 0 1.433.585 2.88 1.3l2.632 1.3h12.8l2.632-1.3c1.447-.715 2.743-1.3 2.88-1.3.582 0 4.203-2.717 5.875-4.408 3.729-3.771 5.299-6.327 6.594-10.728 2.164-7.356.819-31.264-1.759-31.264-.189 0-.52-.495-.735-1.1-.532-1.497-7.874-8.9-8.827-8.9-.149 0-.989-.388-1.866-.863-3.479-1.884-10.704-2.645-16.382-1.725" fill="#f9fafb"/><path d="M166 .586c0 .469-.818.609-4.1.7-3.814.106-4.128.177-4.495 1.014-.353.804-.679.9-3.074.9-3.039 0-4.731.497-4.731 1.39 0 .479-.518.61-2.419.61-2.067 0-2.554.146-3.346 1-.859.926-1.196 1-4.591 1-3.54 0-3.677.034-4.044 1-.341.898-.603 1-2.562 1-2.069 0-3.438.64-3.438 1.607 0 .192-.855.404-1.9.471-1.621.104-1.919.254-2.028 1.022-.117.822-.343.901-2.6.906-2.65.007-3.185.199-3.589 1.294-.193.523-.708.7-2.043.7-1.546 0-1.801.12-1.912.9-.106.744-.44.935-1.928 1.1-1.473.164-1.823.359-1.925 1.078-.102.721-.426.9-1.8 1-1.287.094-1.766.33-2.07 1.022-.323.736-.714.9-2.142.9-1.376 0-1.911.208-2.514.974-.422.536-1.258 1.031-1.858 1.1-.671.078-1.243.473-1.486 1.026-.237.54-.746.9-1.272.9-.605 0-.917.279-1.005.9-.107.75-.414.921-1.847 1.024-1.383.1-1.79.31-2.081 1.076-.291.766-.698.976-2.081 1.076-1.433.103-1.74.274-1.847 1.024-.08.564-.405.9-.869.9-.872 0-3.087 2.096-3.277 3.102-.097.508-.64.752-1.996.898-1.519.163-2.246.549-3.936 2.085-1.14 1.037-2.406 1.992-2.813 2.121-.407.129-.848.574-.979.989-.132.415-.636.811-1.121.88-.56.079-.928.453-1.009 1.025-.091.643-.397.9-1.072.9-.665 0-.982.258-1.072.873-.084.576-.527.979-1.299 1.185-.645.171-1.599.723-2.122 1.226-2.323 2.239-2.75 2.591-3.445 2.848-.406.15-.829.621-.941 1.048-.111.426-.589.83-1.062.898-.529.075-.907.458-.984.997a1.13 1.13 0 0 1-1 1 1.133 1.133 0 0 0-1 1 1.13 1.13 0 0 1-1 1 1.133 1.133 0 0 0-1 1 1.13 1.13 0 0 1-1 1c-.554.079-.922.455-1.003 1.025-.092.651-.396.9-1.1.9-.763 0-.972.209-.972.972 0 .704-.249 1.008-.9 1.1-.563.08-.946.449-1.022.987-.068.473-.486.954-.93 1.071-.444.116-.903.578-1.021 1.027-.117.449-.554.924-.969 1.056-.416.132-.862.661-.991 1.176-.129.514-.556 1.019-.949 1.122-.436.114-.857.791-1.08 1.738-.272 1.156-.591 1.584-1.251 1.679-.629.091-.887.402-.887 1.072 0 .675-.257.981-.9 1.072-.544.077-.946.449-1.016.94-.064.447-.514.987-1 1.2-.486.213-.942.793-1.012 1.288-.07.495-.391.9-.712.9-.322 0-.703.315-.848.7-.145.385-.769 1.177-1.387 1.76-.81.764-1.125 1.447-1.125 2.438 0 1.158-.313 1.641-1.972 3.04-1.085.914-2.03 2.068-2.1 2.562-.082.578-.45.946-1.028 1.028-.729.103-.9.382-.9 1.471 0 .956-.288 1.57-1 2.13-.55.432-1 1.157-1 1.61 0 .454-.45 1.275-1 1.825s-1 1.445-1 1.99c0 .722-.243 1.025-.9 1.118-.582.083-.946.45-1.029 1.039-.071.501-.566 1.348-1.1 1.882-.768.767-.971 1.387-.971 2.961 0 1.76-.104 2.005-.9 2.118-.768.109-.918.407-1.022 2.028-.11 1.715-.217 1.9-1.1 1.9-.807 0-.978.198-.978 1.13 0 .689-.391 1.498-1 2.07-.656.617-1 1.373-1 2.2 0 .827-.344 1.583-1 2.2-.821.771-1 1.317-1 3.041 0 1.765-.16 2.227-1 2.888-.804.632-1 1.142-1 2.601 0 1.577-.118 1.831-.9 1.942-.784.112-.916.399-1.021 2.228-.088 1.528-.281 2.1-.71 2.1-.946 0-1.369 1.789-1.369 5.798 0 3.581-.04 3.752-.9 3.874-.818.116-.911.374-1.019 2.845-.107 2.465-.209 2.752-1.1 3.09-.906.345-.981.577-.981 3.037 0 2.328-.126 2.781-1 3.591-.925.857-1 1.199-1 4.546 0 2.95-.111 3.619-.6 3.619-.529 0-.6 4.267-.6 36s.071 36 .6 36c.489 0 .6.669.6 3.618 0 3.326.081 3.699 1 4.618.861.861 1 1.361 1 3.592 0 2.383.079 2.622.981 2.965.891.338.993.625 1.1 3.09.107 2.437.208 2.73.984 2.84.818.117.873.367 1 4.524.122 3.975.22 4.466 1.014 5.077.629.483.913 1.188 1 2.476.102 1.518.262 1.82 1.021 1.928.782.111.9.365.9 1.942 0 1.459.196 1.969 1 2.601.84.661 1 1.123 1 2.888 0 1.724.179 2.27 1 3.041.665.625 1 1.371 1 2.228 0 .852.336 1.607.993 2.23.582.552.996 1.397 1 2.042.006.898.186 1.1.985 1.1.883 0 .99.185 1.1 1.9.104 1.621.254 1.919 1.022 2.028.792.112.9.36.9 2.069 0 1.487.234 2.22 1 3.13.55.654 1 1.568 1 2.031 0 .631.25.842 1 .842.792 0 1 .202 1 .969 0 .533.45 1.504 1 2.158.55.654 1 1.497 1 1.873 0 .377.45 1.039 1 1.471.719.566 1 1.172 1 2.158 0 1.111.154 1.371.813 1.371.446 0 .913.315 1.036.7.509 1.595 1.088 2.356 2.579 3.396 1.333.93 1.572 1.314 1.572 2.531 0 1.061.313 1.747 1.2 2.635.66.66 1.2 1.359 1.2 1.555 0 .195.339.536.754.758.415.222.868.859 1.008 1.414.164.656.532 1.011 1.046 1.011.578 0 .792.27.792 1 0 .8.2 1 1 1 .792 0 1 .202 1 .972 0 .699.249 1.008.887 1.1.658.095.979.522 1.247 1.659.198.841.623 1.631.944 1.754.321.123.752.667.957 1.208.206.542.722 1.075 1.147 1.186.425.112.828.589.896 1.062.076.538.459.907 1.022.987.651.092.9.396.9 1.1 0 .77.208.972 1 .972.8 0 1 .2 1 1 0 .792.202 1 .972 1 .704 0 1.008.249 1.1.9.081.57.449.946 1.003 1.025a1.13 1.13 0 0 1 1 1c.079.554.455.922 1.025 1.003.651.092.9.396.9 1.1 0 .77.208.972 1 .972.8 0 1 .2 1 1 0 .792.202 1 .972 1 .704 0 1.008.249 1.1.9.081.572.449.946 1.009 1.025.485.069.989.465 1.121.88.131.415.628.878 1.103 1.028.476.151 1.19.689 1.589 1.195.398.506 1.215.977 1.815 1.046.779.09 1.128.384 1.219 1.026.092.651.396.9 1.1.9.77 0 .972.208.972 1 0 .772.206 1 .905 1 .554 0 1.058.348 1.3.898.217.493.694.953 1.059 1.022.366.069 1.598 1.006 2.738 2.082 1.784 1.684 2.334 1.974 3.932 2.078 1.392.09 1.892.295 1.991.818.191 1.006 2.406 3.102 3.278 3.102.464 0 .789.336.869.9.106.744.44.935 1.928 1.1 1.474.164 1.823.359 1.925 1.079.106.742.419.898 2 1 1.596.103 1.894.255 2.003 1.021.091.643.397.9 1.072.9s.981.257 1.072.9c.098.688.432.929 1.418 1.025.787.076 1.59.505 2.058 1.1.61.775 1.136.975 2.566.975 1.586 0 1.829.119 2.05 1 .221.878.467 1 2.016 1 1.525 0 1.782.122 1.892.9.106.744.44.935 1.928 1.1 1.488.165 1.822.356 1.928 1.1.111.78.366.9 1.91.9 1.533 0 1.835.14 2.162 1 .355.934.563 1 3.162 1 2.581 0 2.792.065 2.91.9.108.761.409.918 1.941 1.018 1.421.093 1.897.309 2.2 1 .326.744.794.913 2.987 1.082 2.32.178 2.614.297 2.728 1.1.122.864.287.9 4.054.9 3.746 0 3.956.046 4.581 1 .587.896.924 1 3.246 1 2.009 0 2.591.132 2.591.586 0 .978 1.397 1.414 4.53 1.414 2.849 0 2.995.045 3.234 1 .248.987.305 1 4.444 1 3.46 0 4.192.105 4.192.6 0 .529 4.044.6 34 .6 29.607 0 34-.076 34-.586 0-.472.84-.609 4.3-.7 4.115-.109 4.305-.153 4.428-1.014.121-.851.308-.9 3.471-.9 3.089 0 3.403-.076 4.13-1 .669-.851 1.115-1 3-1 2.119 0 3.471-.634 3.471-1.629 0-.204 1.797-.371 3.992-.371 3.906 0 3.998-.021 4.239-.982.224-.892.473-.993 2.708-1.1 2.093-.1 2.519-.25 2.848-1 .303-.691.779-.907 2.2-1 1.532-.1 1.833-.257 1.941-1.018.118-.835.329-.9 2.908-.9 2.563 0 2.816-.077 3.228-.98.365-.802.782-1.002 2.291-1.1 1.565-.102 1.864-.257 1.973-1.02.11-.775.368-.9 1.856-.9 1.5 0 1.762-.13 1.975-.977.204-.816.525-.997 1.943-1.1 1.411-.102 1.72-.275 1.826-1.023.112-.792.36-.9 2.071-.9 1.578 0 2.086-.181 2.703-.967.419-.532 1.287-1.027 1.929-1.1.857-.097 1.203-.373 1.297-1.033.099-.7.389-.9 1.3-.9.983 0 1.172-.161 1.172-1 0-.916.149-1 1.772-1 1.533 0 1.79-.121 1.9-.9.109-.768.407-.918 2.028-1.022 1.715-.11 1.9-.217 1.9-1.1 0-.723.216-.978.831-.978.976 0 3.017-1.912 3.23-3.026.117-.613.583-.818 2.246-.985 1.499-.151 2.39-.494 3.117-1.2 2.335-2.266 2.811-2.662 3.514-2.921.406-.15.832-.631.947-1.07.134-.516.546-.798 1.162-.798.75 0 .953-.213.953-1 0-.792.202-1 .972-1 .698 0 1.008-.249 1.1-.885.094-.647.497-.961 1.499-1.164.754-.154 1.654-.629 2-1.057.346-.428.961-.895 1.367-1.038.406-.143.829-.609.941-1.036.111-.426.589-.83 1.062-.898.538-.076.907-.459.987-1.022.092-.651.396-.9 1.1-.9.77 0 .972-.208.972-1 0-.8.2-1 1-1s1-.2 1-1 .2-1 1-1 1-.2 1-1 .2-1 1-1 1-.2 1-1 .2-1 1-1 1-.2 1-1 .2-1 1-1c.792 0 1-.202 1-.972 0-.704.249-1.008.9-1.1.563-.08.946-.449 1.022-.987.068-.473.472-.951.898-1.062.427-.112.902-.535 1.057-.941.154-.406.684-1.057 1.177-1.448.52-.411.949-1.252 1.021-2 .096-.986.337-1.32 1.025-1.418.651-.092.9-.396.9-1.1 0-.77.208-.972 1-.972s1-.202 1-.972c0-.702.249-1.008.896-1.1.493-.07.955-.437 1.027-.815.072-.378 1.019-1.594 2.104-2.702 1.603-1.637 1.973-2.277 1.973-3.413 0-1.445.579-2.257 2.496-3.5.6-.389 1.231-1.28 1.417-2 .231-.897.605-1.337 1.211-1.426.677-.099.876-.399.876-1.319 0-.757.365-1.529 1-2.118.55-.51 1-1.24 1-1.623s.45-1.051 1-1.483c.719-.566 1-1.172 1-2.158 0-1.196.128-1.371 1-1.371.754 0 1-.21 1-.854 0-.47.45-1.271 1-1.781.835-.774 1-1.293 1-3.146 0-2.1.054-2.219 1-2.219.933 0 1-.133 1-2s.067-2 1-2c.795 0 1-.201 1-.982 0-.54.45-1.432 1-1.982.636-.635 1-1.45 1-2.237 0-.806.349-1.56 1-2.164.819-.759 1-1.302 1-3s.181-2.241 1-3c.79-.732 1-1.317 1-2.781 0-1.711.077-1.854 1-1.854.922 0 1-.144 1-1.842 0-1.489.192-1.994 1-2.629.958-.754 1-.972 1-5.158V256.8h.982c.943 0 .988-.119 1.1-2.9.108-2.661.192-2.911 1.018-3.028.841-.119.9-.322.9-3.1 0-1.635.167-2.972.371-2.972 1.199 0 1.629-1.327 1.629-5.029 0-3.085.109-3.771.6-3.771.529 0 .6-4.267.6-36s-.071-36-.6-36c-.491 0-.6-.688-.6-3.791 0-3.602-.05-3.823-1-4.446-.907-.594-1-.912-1-3.419 0-2.566-.07-2.791-.981-3.137-.891-.338-.993-.625-1.1-3.09-.108-2.471-.201-2.729-1.019-2.845-.865-.123-.9-.284-.9-4.126 0-4.058-.374-5.546-1.393-5.546-.4 0-.601-.615-.686-2.1-.105-1.829-.237-2.116-1.021-2.228-.782-.111-.9-.365-.9-1.942 0-1.459-.196-1.969-1-2.601-.851-.67-1-1.116-1-3 0-1.885-.149-2.331-1-3-.708-.558-1-1.175-1-2.116 0-.896-.324-1.636-.993-2.271-.582-.552-.996-1.397-1-2.042-.006-.898-.186-1.1-.985-1.1-.883 0-.99-.185-1.1-1.9-.104-1.621-.254-1.919-1.022-2.028-.805-.114-.9-.353-.9-2.271 0-1.809-.156-2.265-1-2.93-.61-.479-1-1.193-1-1.829 0-.845-.189-1.042-1-1.042-.807 0-1-.198-1-1.026 0-1.342-.677-2.574-1.414-2.574-.365 0-.586-.394-.586-1.042 0-.636-.39-1.35-1-1.829-.719-.566-1-1.172-1-2.158 0-1.111-.154-1.371-.813-1.371-.446 0-.913-.315-1.036-.7-.509-1.595-1.088-2.356-2.579-3.396-1.378-.961-1.572-1.291-1.572-2.671 0-1.175-.238-1.762-.936-2.312-.516-.405-1.152-1.138-1.415-1.629-.262-.49-.741-.892-1.063-.892-.357 0-.586-.388-.586-.992 0-.725-.269-1.06-1-1.244-.718-.18-1-.521-1-1.207 0-.754-.212-.957-1-.957-.8 0-1-.2-1-1 0-.738-.212-1-.813-1-.831 0-.936-.163-1.372-2.142-.142-.647-.581-1.229-1.011-1.341-.417-.109-.814-.585-.882-1.058-.067-.472-.52-1.034-1.006-1.247-.486-.213-.936-.753-1-1.2-.07-.491-.472-.863-1.016-.94-.651-.092-.9-.396-.9-1.1 0-.77-.208-.972-1-.972-.8 0-1-.2-1-1 0-.792-.202-1-.972-1-.704 0-1.008-.249-1.1-.9-.081-.57-.449-.946-1.003-1.025a1.13 1.13 0 0 1-1-1c-.079-.554-.455-.922-1.025-1.003-.651-.092-.9-.396-.9-1.1 0-.77-.208-.972-1-.972-.8 0-1-.2-1-1 0-.792-.202-1-.972-1-.704 0-1.008-.249-1.1-.9-.081-.572-.449-.946-1.009-1.025-.485-.069-.992-.474-1.127-.9-.135-.426-.4-.775-.588-.775-.189 0-.896-.465-1.572-1.034s-1.724-1.166-2.33-1.327c-.708-.188-1.148-.605-1.23-1.166-.091-.623-.406-.873-1.1-.873-.77 0-.972-.208-.972-1 0-.787-.203-1-.953-1-.615 0-1.027-.282-1.162-.795-.114-.438-.63-.962-1.146-1.165-.517-.203-1.832-1.187-2.924-2.186-1.654-1.514-2.287-1.837-3.796-1.936-1.348-.088-1.846-.297-1.944-.816-.191-1.006-2.406-3.102-3.278-3.102-.464 0-.789-.336-.869-.9-.106-.744-.44-.935-1.928-1.1-1.488-.165-1.822-.356-1.928-1.1-.11-.776-.368-.9-1.872-.9s-1.762-.124-1.872-.9c-.091-.638-.441-.936-1.203-1.024-.753-.087-1.113-.387-1.2-1-.095-.665-.441-.906-1.433-1.002-.853-.082-1.529-.464-1.946-1.1-.524-.801-.969-.974-2.497-.974-1.544 0-1.926-.152-2.254-.9-.292-.665-.792-.933-1.915-1.025-1.181-.098-1.601-.342-1.89-1.1-.305-.804-.645-.975-1.937-.975-1.337 0-1.603-.146-1.817-1-.221-.881-.465-1-2.044-1-.985 0-1.792-.167-1.792-.371 0-1.05-1.35-1.629-3.801-1.629-2.333 0-2.554-.074-2.671-.9-.109-.768-.407-.918-2.028-1.022-1.311-.084-1.9-.297-1.9-.686 0-.858-1.335-1.392-3.479-1.392-1.619 0-1.995-.145-2.326-.9-.363-.827-.697-.909-4.092-1.015-3.313-.103-3.799-.217-4.682-1.1-.804-.805-1.382-.985-3.154-.985-1.806 0-2.27-.151-2.767-.899-.527-.795-.998-.916-4.048-1.041-2.998-.123-3.452-.236-3.452-.858 0-1.018-.771-1.202-5.033-1.202-3.082 0-3.767-.109-3.767-.6 0-.529-4.044-.6-34-.6-29.595 0-34 .076-34 .586m38.375 89.991c.362.328 1.714.721 3.004.872 1.333.157 2.633.563 3.011.941.366.366 1.508.901 2.538 1.19 1.03.288 1.872.652 1.872.808 0 .156.457.492 1.016.746 1.479.675 4.984 4.066 4.984 4.825 0 .356.36.873.8 1.148.44.275.8.759.8 1.076 0 .317.454 1.066 1.01 1.665.555.599 1.124 1.554 1.264 2.121.141.567.566 1.252.945 1.522s.811.975.96 1.568c.149.593.605 1.502 1.013 2.021.408.519.864 1.667 1.013 2.552.15.885.705 2.041 1.234 2.57.528.529.961 1.212.961 1.518 0 .306.36.882.8 1.28.44.398.8 1.042.8 1.431s.46 1.255 1.023 1.923c.562.668 1.124 1.845 1.249 2.614.125.769.565 1.703.978 2.077.412.373.75.986.75 1.362 0 .376.54 1.362 1.2 2.193.66.831 1.2 1.805 1.2 2.166s.355.96.789 1.332c.434.371.908 1.176 1.054 1.789.145.612.527 1.415.847 1.784.32.37.753 1.432.962 2.361.209.93.822 2.216 1.364 2.86.541.643.984 1.386.984 1.65s.355.784.789 1.156c.434.371.908 1.176 1.053 1.789.144.612.586 1.473.981 1.913.395.44.848 1.34 1.008 2 .16.66.609 1.61.997 2.112.388.501.826 1.626.974 2.5.148.873.423 1.588.612 1.588.402 0 3.186 4.094 3.186 4.686 0 .221.42 1.022.934 1.779.514.757 1.052 1.967 1.197 2.688.144.722.624 1.772 1.065 2.333.442.562.804 1.243.804 1.513 0 .27.54 1.17 1.2 2.001.66.831 1.2 1.657 1.2 1.837 0 .18.45.991 1 1.801.55.811 1 1.786 1 2.169 0 .382.269.918.597 1.191.329.272.795 1.239 1.036 2.149.241.909.759 2.013 1.151 2.453.392.44.961 1.284 1.264 1.876.304.591 1.197 2.211 1.986 3.6.789 1.388 1.565 3.05 1.725 3.692.16.643.635 1.606 1.055 2.141.421.535.882 1.598 1.026 2.364.144.765.516 1.489.828 1.608.311.12.92.87 1.353 1.668.433.798.95 1.721 1.148 2.051.198.33.802 1.59 1.341 2.8 1.638 3.673 2.264 4.93 3.286 6.6.538.88 1.357 2.32 1.818 3.2.462.88 1.089 2.05 1.393 2.6.961 1.738 2.993 6.247 2.993 6.643 0 .208.355.683.789 1.055.434.371.906 1.176 1.048 1.789.142.612.48 1.293.75 1.513.685.557 2.909 4.948 3.242 6.4.152.66.589 1.56.972 2 .722.831 1.508 2.208 2.623 4.6.359.77.973 1.76 1.365 2.2.392.44.937 1.52 1.212 2.4.275.88.723 1.87.996 2.2.272.33.61 1.082.75 1.672.14.59.53 1.348.868 1.686.338.338.867 1.22 1.176 1.96.31.74.826 1.564 1.147 1.83.321.267.702.958.848 1.537.145.578.592 1.47.994 1.98.401.51.855 1.597 1.008 2.414.154.817.714 2.002 1.246 2.634.531.632.966 1.377.966 1.656 0 .279.356.83.792 1.224.436.394.906 1.322 1.045 2.062.138.74.421 1.345.628 1.345.531 0 1.535 2.556 1.535 3.907 0 .623.225 1.358.5 1.633.665.665.687 9.555.027 10.898-.259.529-.584 1.804-.72 2.834-.136 1.029-.574 2.289-.972 2.8-.399.51-.86 1.358-1.024 1.883-.165.525-.884 1.719-1.598 2.655-4.169 5.461-7.482 8.324-10.223 8.831-.764.142-1.601.522-1.86.844-.533.665-2.853 1.285-4.93 1.318-.77.012-1.749.287-2.176.61-.988.747-4.969.777-6.035.046-.434-.297-2.046-.654-3.582-.793-1.764-.16-3.164-.527-3.8-.997-.554-.409-1.692-.872-2.529-1.029-.838-.156-1.873-.635-2.3-1.062-.428-.428-.969-.778-1.202-.778-.641 0-4.716-3.979-5.003-4.886-.139-.436-.515-1.09-.837-1.453-1.148-1.296-2.658-3.882-3.013-5.161-.198-.715-.525-1.3-.726-1.3-.48 0-3.197-5.43-3.197-6.391 0-.411-.412-1.256-.916-1.878-.503-.622-1.145-1.581-1.426-2.131-.282-.55-1.038-1.9-1.682-3-.643-1.1-1.456-2.63-1.806-3.4-.35-.77-1.071-2.334-1.603-3.475-.532-1.142-.967-2.267-.967-2.5a.416.416 0 0 0-.404-.425c-.383 0-1.388-1.744-3.146-5.456-.431-.911-.961-1.765-1.177-1.899-.216-.133-.615-1.188-.887-2.344-.272-1.155-.745-2.371-1.052-2.701-1.085-1.168-2.92-4.209-2.927-4.851-.004-.358-.297-.892-.651-1.186-.73-.605-3.356-6.016-3.356-6.914 0-.323-.423-1.096-.939-1.718-.967-1.164-1.63-2.295-3.06-5.214-.453-.926-.994-1.789-1.202-1.917-.207-.129-.579-.991-.825-1.917-.247-.926-.68-1.953-.962-2.283-.282-.33-.752-1.275-1.043-2.1-.291-.825-.684-1.5-.872-1.5-.188 0-.705-.765-1.149-1.7-.444-.935-1.447-2.87-2.228-4.3-.782-1.43-1.588-3.314-1.792-4.187-.204-.873-.644-1.863-.978-2.2-1.105-1.116-3.432-5.033-4.76-8.013a51.054 51.054 0 0 0-1.407-2.854c-.431-.8-.783-1.717-.783-2.038 0-.321-.451-1.107-1.002-1.746-.552-.639-1.11-1.496-1.24-1.903-.131-.408-.67-1.378-1.198-2.156-.528-.778-.96-1.75-.96-2.159 0-.409-.151-.744-.336-.744-.471 0-1.264-1.856-1.264-2.957 0-.505-.358-1.243-.795-1.638-.437-.396-1.013-1.324-1.28-2.062-.267-.739-.614-1.343-.771-1.343-.401 0-3.037-4.793-3.373-6.134-.431-1.717-2.217-1.361-2.77.554-.226.78-.816 1.93-1.311 2.554-.495.623-.9 1.378-.9 1.677 0 .298-.36.767-.8 1.042-.44.275-.8.914-.8 1.421s-.442 1.364-.982 1.904c-.54.54-1.1 1.614-1.245 2.386-.145.771-.576 1.806-.957 2.299-.382.494-.816 1.397-.965 2.007-.149.611-.627 1.466-1.061 1.9-.435.435-.79 1.035-.79 1.335 0 .3-.54 1.224-1.2 2.055-.66.831-1.2 1.821-1.2 2.201 0 .38-.337 1.12-.748 1.645-.411.525-.88 1.557-1.041 2.295-.161.737-.608 1.656-.994 2.042-.386.386-.822 1.182-.969 1.769-.148.588-.624 1.424-1.058 1.858-.435.435-.79.978-.79 1.208 0 .23-.433.851-.961 1.38-.529.529-1.082 1.673-1.229 2.543-.147.869-.704 2.174-1.239 2.898-.534.724-.971 1.608-.971 1.963 0 .356-.353 1.026-.784 1.488-.431.463-.904 1.32-1.05 1.904-.147.584-.604 1.273-1.016 1.53-.413.258-.75.76-.75 1.116 0 .357-.411 1.258-.912 2.004-.502.746-1.142 2.131-1.423 3.077-.28.947-.752 1.814-1.048 1.928-.296.113-.651.806-.788 1.539-.138.732-.526 1.56-.863 1.84-.337.28-.878 1.145-1.204 1.924-.325.779-.945 1.745-1.377 2.148-.432.402-.785 1.076-.785 1.497 0 .976-.824 2.803-1.264 2.803-.185 0-.336.333-.336.74s-.537 1.532-1.193 2.5-1.196 2.004-1.2 2.302c-.004.298-.457 1.077-1.007 1.731-.55.654-1 1.438-1 1.744 0 .305-.339.736-.753.958-.482.258-.849 1.043-1.02 2.186-.147.98-.586 2.2-.974 2.711-.389.51-.942 1.513-1.229 2.228-.286.715-.769 1.3-1.073 1.3-.316 0-.551.412-.551.969 0 .533-.416 1.478-.925 2.1-.509.622-1.244 1.986-1.633 3.031-.39 1.045-.873 1.9-1.075 1.9-.202 0-.367.369-.367.82 0 .979-1.08 3.18-1.56 3.18-.187 0-.445.526-.574 1.169-.129.644-.579 1.499-1 1.9-.422.402-.904 1.181-1.071 1.731-.168.55-.73 1.509-1.25 2.131-.52.622-.945 1.468-.945 1.881 0 .91-.818 2.788-1.214 2.788-.157 0-.39.522-.518 1.16-.128.638-.69 1.654-1.25 2.258-.56.605-1.018 1.41-1.018 1.791s-.272.919-.605 1.195c-.332.276-.952 1.288-1.377 2.249-.425.961-.963 1.747-1.196 1.747-.232 0-.422.251-.422.558 0 .807-4.395 5.442-5.161 5.442-.356 0-.866.351-1.134.78-.271.435-1.156.9-1.996 1.05-.83.148-1.886.612-2.347 1.031-.492.447-1.731.867-3 1.016-1.189.139-2.636.602-3.215 1.029-1.379 1.015-8.193.905-9.406-.152-.407-.356-1.641-.762-2.741-.903-1.1-.142-2.45-.586-3-.988-.55-.402-1.536-.865-2.191-1.028-1.497-.372-4.523-2.367-5.717-3.769-3.684-4.326-5.292-6.44-5.292-6.957 0-.331-.386-1.091-.857-1.691-1.396-1.774-2.93-9.582-2.597-13.218.299-3.259 1.734-8.703 2.432-9.225.313-.233.698-.953.856-1.6.158-.646.71-1.684 1.227-2.306.516-.622.939-1.359.939-1.638 0-.279.356-.83.792-1.224.436-.394.903-1.367 1.038-2.162.134-.795.563-1.898.951-2.453.389-.554.843-1.454 1.009-2 .166-.545.624-1.352 1.018-1.792.393-.44 1.009-1.43 1.369-2.2.359-.77 1.271-2.565 2.026-3.99.755-1.424 1.48-3.077 1.611-3.672.13-.596.52-1.318.866-1.605.346-.287.973-1.244 1.393-2.127 1.512-3.177 2.426-4.791 2.943-5.195.29-.226.734-1.205.988-2.175.254-.97 1.032-2.731 1.729-3.912 2.878-4.881 3.476-6.024 7.335-14.021.769-1.593 1.578-3.008 1.798-3.144.22-.136.75-.992 1.177-1.903a64.215 64.215 0 0 1 1.321-2.656c.299-.55 1.023-2.08 1.609-3.4.586-1.32 1.318-2.85 1.626-3.4.309-.55.934-1.675 1.39-2.5.455-.825.989-1.5 1.187-1.5.198 0 .477-.532.62-1.181.143-.65.596-1.609 1.007-2.132.411-.522.875-1.476 1.032-2.119.31-1.27 2.282-5.167 3.115-6.154.285-.338.744-1.186 1.021-1.885.276-.699.846-1.582 1.266-1.962.419-.38.763-1.018.763-1.417 0-.647 1.84-4.784 2.825-6.35.207-.33.562-1.03.787-1.556.226-.525.855-1.484 1.399-2.13.544-.647.989-1.407.989-1.691 0-.283.349-.959.775-1.501.427-.542.906-1.511 1.066-2.154.513-2.058 4.346-8.942 5.312-9.539.212-.131.508-.795.657-1.476.255-1.161 1.552-4.091 2.813-6.353.306-.55.915-1.765 1.353-2.7.437-.935.962-1.7 1.166-1.7.204 0 .482-.442.618-.983.136-.541.695-1.467 1.243-2.058.549-.592 1.008-1.545 1.022-2.117.014-.573.73-2.302 1.592-3.842.861-1.54 1.837-3.373 2.169-4.073.331-.7.78-1.382.998-1.517.512-.317 3.216-6.007 3.216-6.768 0-.319.45-1.115 1-1.769.55-.654 1.003-1.433 1.007-1.731.008-.561 1.881-3.628 2.945-4.821.333-.373.794-1.363 1.024-2.2.23-.837 1.043-2.691 1.806-4.121.764-1.43 1.684-3.23 2.046-4 1.767-3.762 8.663-10.741 11.433-11.571.917-.275 2.133-.826 2.703-1.224.57-.399 2.104-.839 3.41-.977 1.305-.139 2.599-.439 2.874-.668 1.506-1.249 7.213-1.372 8.527-.183m5.327 154.306c1.265.548 2.63 1.293 3.031 1.656.402.364.901.661 1.11.661.657 0 6.333 4.818 6.87 5.832.282.532.665.968.851.968.187 0 .575.585.863 1.3.289.715.94 1.696 1.449 2.181.508.484.924 1.185.924 1.556s.298.892.661 1.158c1.533 1.121 3.017 22.934 1.782 26.187-.213.56-.503 2.059-.645 3.331-.161 1.44-.531 2.572-.982 3-.397.378-.85 1.281-1.005 2.006-.156.726-.627 1.534-1.047 1.796-.42.263-.764.769-.764 1.125s-.45.986-1 1.399c-.55.413-1 .941-1 1.173 0 1.322-5.77 6.034-7.873 6.428-.701.132-1.577.573-1.947.982-.377.417-1.486.85-2.526.987-1.02.134-2.537.608-3.372 1.053-1.964 1.047-9.303.971-10.541-.108-.408-.356-1.714-.756-2.903-.889-1.247-.14-2.517-.557-3-.986-.461-.408-1.613-.964-2.559-1.233-.947-.27-1.821-.751-1.943-1.068-.122-.318-.446-.578-.719-.578-1.047 0-7.817-8.094-7.817-9.344 0-.302-.359-1.005-.798-1.562-2.921-3.715-3.179-30.748-.326-34.186.237-.285.721-1.037 1.077-1.672 1.894-3.38 6.11-8.436 7.035-8.436.283 0 .747-.281 1.033-.625.734-.884 4.388-3.228 5.579-3.579.55-.162 1.194-.448 1.431-.637 1.925-1.531 15.45-1.443 19.071.124" fill="#1b5bec"/><path d="M197.474 89.982c-.619.199-1.35.55-1.626.778-.275.229-1.569.529-2.874.668-1.306.138-2.84.578-3.41.977-.57.398-1.786.949-2.703 1.224-2.77.83-9.666 7.809-11.433 11.571-.362.77-1.282 2.57-2.046 4-.763 1.43-1.576 3.284-1.806 4.121-.23.837-.691 1.827-1.024 2.2-1.064 1.193-2.937 4.26-2.945 4.821-.004.298-.457 1.077-1.007 1.731-.55.654-1 1.45-1 1.769 0 .761-2.704 6.451-3.216 6.768-.218.135-.667.817-.998 1.517-.332.7-1.308 2.533-2.169 4.073-.862 1.54-1.578 3.269-1.592 3.842-.014.572-.473 1.525-1.022 2.117-.548.591-1.107 1.517-1.243 2.058-.136.541-.414.983-.618.983-.204 0-.729.765-1.166 1.7a55.263 55.263 0 0 1-1.353 2.7c-1.261 2.262-2.558 5.192-2.813 6.353-.149.681-.445 1.345-.657 1.476-.966.597-4.799 7.481-5.312 9.539-.16.643-.639 1.612-1.066 2.154-.426.542-.775 1.218-.775 1.501 0 .284-.445 1.044-.989 1.691-.544.646-1.173 1.605-1.399 2.13-.225.526-.58 1.226-.787 1.556-.985 1.566-2.825 5.703-2.825 6.35 0 .399-.344 1.037-.763 1.417-.42.38-.99 1.263-1.266 1.962-.277.699-.736 1.547-1.021 1.885-.833.987-2.805 4.884-3.115 6.154-.157.643-.621 1.597-1.032 2.119-.411.523-.864 1.482-1.007 2.132-.143.649-.422 1.181-.62 1.181s-.732.675-1.187 1.5c-.456.825-1.081 1.95-1.39 2.5-.308.55-1.04 2.08-1.626 3.4-.586 1.32-1.31 2.85-1.609 3.4-.299.55-.893 1.745-1.321 2.656-.427.911-.957 1.767-1.177 1.903-.22.136-1.029 1.551-1.798 3.144-3.859 7.997-4.457 9.14-7.335 14.021-.697 1.181-1.475 2.942-1.729 3.912-.254.97-.698 1.949-.988 2.175-.517.404-1.431 2.018-2.943 5.195-.42.883-1.047 1.84-1.393 2.127-.346.287-.736 1.009-.866 1.605-.131.595-.856 2.248-1.611 3.672-.755 1.425-1.667 3.22-2.026 3.99-.36.77-.976 1.76-1.369 2.2-.394.44-.852 1.247-1.018 1.792-.166.546-.62 1.446-1.009 2-.388.555-.817 1.658-.951 2.453-.135.795-.602 1.768-1.038 2.162-.436.394-.792.945-.792 1.224s-.423 1.016-.939 1.638c-.517.622-1.069 1.66-1.227 2.306-.158.647-.543 1.367-.856 1.6-.698.522-2.133 5.966-2.432 9.225-.333 3.636 1.201 11.444 2.597 13.218.471.6.857 1.36.857 1.691 0 .517 1.608 2.631 5.292 6.957 1.194 1.402 4.22 3.397 5.717 3.769.655.163 1.641.626 2.191 1.028.55.402 1.9.846 3 .988 1.1.141 2.334.547 2.741.903 1.213 1.057 8.027 1.167 9.406.152.579-.427 2.026-.89 3.215-1.029 1.269-.149 2.508-.569 3-1.016.461-.419 1.517-.883 2.347-1.031.84-.15 1.725-.615 1.996-1.05.268-.429.778-.78 1.134-.78.766 0 5.161-4.635 5.161-5.442 0-.307.19-.558.422-.558.233 0 .771-.786 1.196-1.747.425-.961 1.045-1.973 1.377-2.249.333-.276.605-.814.605-1.195 0-.381.458-1.186 1.018-1.791.56-.604 1.122-1.62 1.25-2.258.128-.638.361-1.16.518-1.16.396 0 1.214-1.878 1.214-2.788 0-.413.425-1.259.945-1.881.52-.622 1.082-1.581 1.25-2.131.167-.55.649-1.329 1.071-1.731.421-.401.871-1.256 1-1.9.129-.643.387-1.169.574-1.169.48 0 1.56-2.201 1.56-3.18 0-.451.165-.82.367-.82.202 0 .685-.855 1.075-1.9.389-1.045 1.124-2.409 1.633-3.031.509-.622.925-1.567.925-2.1 0-.557.235-.969.551-.969.304 0 .787-.585 1.073-1.3.287-.715.84-1.718 1.229-2.228.388-.511.827-1.731.974-2.711.171-1.143.538-1.928 1.02-2.186.414-.222.753-.653.753-.958 0-.306.45-1.09 1-1.744.55-.654 1.003-1.433 1.007-1.731.004-.298.544-1.334 1.2-2.302.656-.968 1.193-2.093 1.193-2.5 0-.407.151-.74.336-.74.44 0 1.264-1.827 1.264-2.803 0-.421.353-1.095.785-1.497.432-.403 1.052-1.369 1.377-2.148.326-.779.867-1.644 1.204-1.924.337-.28.725-1.108.863-1.84.137-.733.492-1.426.788-1.539.296-.114.768-.981 1.048-1.928.281-.946.921-2.331 1.423-3.077.501-.746.912-1.647.912-2.004 0-.356.337-.858.75-1.116.412-.257.869-.946 1.016-1.53.146-.584.619-1.441 1.05-1.904.431-.462.784-1.132.784-1.488 0-.355.437-1.239.971-1.963.535-.724 1.092-2.029 1.239-2.898.147-.87.7-2.014 1.229-2.543.528-.529.961-1.15.961-1.38 0-.23.355-.773.79-1.208.434-.434.91-1.27 1.058-1.858.147-.587.583-1.383.969-1.769.386-.386.833-1.305.994-2.042.161-.738.63-1.77 1.041-2.295.411-.525.748-1.265.748-1.645 0-.38.54-1.37 1.2-2.201.66-.831 1.2-1.755 1.2-2.055 0-.3.355-.9.79-1.335.434-.434.912-1.289 1.061-1.9.149-.61.583-1.513.965-2.007.381-.493.812-1.528.957-2.299.145-.772.705-1.846 1.245-2.386.54-.54.982-1.397.982-1.904 0-.507.36-1.146.8-1.421.44-.275.8-.744.8-1.042 0-.299.405-1.054.9-1.677.495-.624 1.085-1.774 1.311-2.554.553-1.915 2.339-2.271 2.77-.554.336 1.341 2.972 6.134 3.373 6.134.157 0 .504.604.771 1.343.267.738.843 1.666 1.28 2.062.437.395.795 1.133.795 1.638 0 1.101.793 2.957 1.264 2.957.185 0 .336.335.336.744s.432 1.381.96 2.159c.528.778 1.067 1.748 1.198 2.156.13.407.688 1.264 1.24 1.903.551.639 1.002 1.425 1.002 1.746 0 .321.352 1.238.783 2.038a51.054 51.054 0 0 1 1.407 2.854c1.328 2.98 3.655 6.897 4.76 8.013.334.337.774 1.327.978 2.2.204.873 1.01 2.757 1.792 4.187.781 1.43 1.784 3.365 2.228 4.3.444.935.961 1.7 1.149 1.7.188 0 .581.675.872 1.5.291.825.761 1.77 1.043 2.1.282.33.715 1.357.962 2.283.246.926.618 1.788.825 1.917.208.128.749.991 1.202 1.917 1.43 2.919 2.093 4.05 3.06 5.214.516.622.939 1.395.939 1.718 0 .898 2.626 6.309 3.356 6.914.354.294.647.828.651 1.186.007.642 1.842 3.683 2.927 4.851.307.33.78 1.546 1.052 2.701.272 1.156.671 2.211.887 2.344.216.134.746.988 1.177 1.899 1.758 3.712 2.763 5.456 3.146 5.456.222 0 .404.191.404.425 0 .233.435 1.358.967 2.5a491.814 491.814 0 0 1 1.603 3.475c.35.77 1.163 2.3 1.806 3.4.644 1.1 1.4 2.45 1.682 3 .281.55.923 1.509 1.426 2.131.504.622.916 1.467.916 1.878 0 .961 2.717 6.391 3.197 6.391.201 0 .528.585.726 1.3.355 1.279 1.865 3.865 3.013 5.161.322.363.698 1.017.837 1.453.287.907 4.362 4.886 5.003 4.886.233 0 .774.35 1.202.778.427.427 1.462.906 2.3 1.062.837.157 1.975.62 2.529 1.029.636.47 2.036.837 3.8.997 1.536.139 3.148.496 3.582.793 1.066.731 5.047.701 6.035-.046.427-.323 1.406-.598 2.176-.61 2.077-.033 4.397-.653 4.93-1.318.259-.322 1.096-.702 1.86-.844 2.741-.507 6.054-3.37 10.223-8.831.714-.936 1.433-2.13 1.598-2.655.164-.525.625-1.373 1.024-1.883.398-.511.836-1.771.972-2.8.136-1.03.461-2.305.72-2.834.66-1.343.638-10.233-.027-10.898-.275-.275-.5-1.01-.5-1.633 0-1.351-1.004-3.907-1.535-3.907-.207 0-.49-.605-.628-1.345-.139-.74-.609-1.668-1.045-2.062-.436-.394-.792-.945-.792-1.224s-.435-1.024-.966-1.656c-.532-.632-1.092-1.817-1.246-2.634-.153-.817-.607-1.904-1.008-2.414-.402-.51-.849-1.402-.994-1.98-.146-.579-.527-1.27-.848-1.537-.321-.266-.837-1.09-1.147-1.83-.309-.74-.838-1.622-1.176-1.96-.338-.338-.728-1.096-.868-1.686-.14-.59-.478-1.342-.75-1.672-.273-.33-.721-1.32-.996-2.2-.275-.88-.82-1.96-1.212-2.4-.392-.44-1.006-1.43-1.365-2.2-1.115-2.392-1.901-3.769-2.623-4.6-.383-.44-.82-1.34-.972-2-.333-1.452-2.557-5.843-3.242-6.4-.27-.22-.608-.901-.75-1.513-.142-.613-.614-1.418-1.048-1.789-.434-.372-.789-.847-.789-1.055 0-.396-2.032-4.905-2.993-6.643-.304-.55-.931-1.72-1.393-2.6-.461-.88-1.28-2.32-1.818-3.2-1.022-1.67-1.648-2.927-3.286-6.6-.539-1.21-1.143-2.47-1.341-2.8a76.122 76.122 0 0 1-1.148-2.051c-.433-.798-1.042-1.548-1.353-1.668-.312-.119-.684-.843-.828-1.608-.144-.766-.605-1.829-1.026-2.364-.42-.535-.895-1.498-1.055-2.141-.16-.642-.936-2.304-1.725-3.692a139.585 139.585 0 0 1-1.986-3.6c-.303-.592-.872-1.436-1.264-1.876-.392-.44-.91-1.544-1.151-2.453-.241-.91-.707-1.877-1.036-2.149-.328-.273-.597-.809-.597-1.191 0-.383-.45-1.358-1-2.169-.55-.81-1-1.621-1-1.801 0-.18-.54-1.006-1.2-1.837-.66-.831-1.2-1.731-1.2-2.001 0-.27-.362-.951-.804-1.513-.441-.561-.921-1.611-1.065-2.333-.145-.721-.683-1.931-1.197-2.688-.514-.757-.934-1.558-.934-1.779 0-.592-2.784-4.686-3.186-4.686-.189 0-.464-.715-.612-1.588-.148-.874-.586-1.999-.974-2.5-.388-.502-.837-1.452-.997-2.112-.16-.66-.613-1.56-1.008-2-.395-.44-.837-1.301-.981-1.913-.145-.613-.619-1.418-1.053-1.789-.434-.372-.789-.892-.789-1.156 0-.264-.443-1.007-.984-1.65-.542-.644-1.155-1.93-1.364-2.86-.209-.929-.642-1.991-.962-2.361-.32-.369-.702-1.172-.847-1.784-.146-.613-.62-1.418-1.054-1.789-.434-.372-.789-.971-.789-1.332 0-.361-.54-1.335-1.2-2.166-.66-.831-1.2-1.817-1.2-2.193 0-.376-.338-.989-.75-1.362-.413-.374-.853-1.308-.978-2.077-.125-.769-.687-1.946-1.249-2.614-.563-.668-1.023-1.534-1.023-1.923s-.36-1.033-.8-1.431c-.44-.398-.8-.974-.8-1.28 0-.306-.433-.989-.961-1.518-.529-.529-1.084-1.685-1.234-2.57-.149-.885-.605-2.033-1.013-2.552-.408-.519-.864-1.428-1.013-2.021-.149-.593-.581-1.298-.96-1.568s-.804-.955-.945-1.522c-.14-.567-.709-1.522-1.264-2.121-.556-.599-1.01-1.348-1.01-1.665 0-.317-.36-.801-.8-1.076-.44-.275-.8-.792-.8-1.148 0-.759-3.505-4.15-4.984-4.825-.559-.254-1.016-.59-1.016-.746 0-.156-.842-.52-1.872-.808-1.03-.289-2.172-.824-2.538-1.19-.378-.378-1.678-.784-3.011-.941-1.29-.151-2.642-.544-3.004-.872-.795-.719-5.307-1.109-6.901-.595m8.419 1.736c8.227 1.994 14.527 7.238 18.598 15.482.381.77.873 1.67 1.094 2 .221.33 1.055 2.04 1.853 3.8.798 1.76 1.679 3.47 1.957 3.8.502.596 4 7.32 5.202 10 .346.77 1.049 2.12 1.564 3 2.874 4.916 3.985 7.003 5.207 9.782.746 1.696 1.977 4.058 2.736 5.251 1.429 2.242 5.896 11.075 5.896 11.657 0 .181.648 1.27 1.439 2.42.791 1.149 2.245 3.8 3.231 5.89.985 2.09 1.992 4.16 2.237 4.6.245.44 1.385 2.451 2.533 4.47 1.148 2.018 2.741 5.116 3.539 6.884.799 1.768 2.178 4.411 3.066 5.872.888 1.461 2.771 5.058 4.185 7.992 1.415 2.935 2.748 5.445 2.962 5.577.214.133 1.456 2.443 2.759 5.136a224.243 224.243 0 0 0 4.927 9.482c1.407 2.523 2.81 5.217 3.118 5.987.308.77 1.795 3.618 3.305 6.328 1.51 2.711 3.335 6.221 4.055 7.8.721 1.58 2.021 4.042 2.889 5.472.868 1.43 2.797 5.03 4.286 8 1.49 2.97 3.595 7.02 4.677 9 1.083 1.98 2.343 4.574 2.799 5.764.456 1.19 1.236 2.647 1.733 3.237 6.543 7.777 6.656 23.658.223 31.449-.75.908-1.988 2.421-2.751 3.362-5.519 6.803-20.358 9.706-28.693 5.613-.924-.454-1.894-.825-2.155-.825-.595 0-3.96-2.055-5.374-3.281-2.432-2.11-6.986-9.315-10.128-16.026-.697-1.489-2.493-4.909-3.991-7.6-1.498-2.691-2.959-5.478-3.246-6.192-.286-.714-1.944-3.864-3.684-7-1.739-3.136-3.368-6.421-3.62-7.301-.251-.88-.76-1.96-1.131-2.4-.949-1.127-4.45-7.503-5.819-10.6-.633-1.43-1.948-3.95-2.924-5.6-.975-1.65-2.558-4.648-3.517-6.661-.959-2.014-2.748-5.434-3.975-7.6-2.407-4.25-4.955-9.49-4.955-10.19 0-.238-.419-.932-.932-1.541-.512-.609-2.424-4.055-4.249-7.657-1.824-3.603-3.983-7.721-4.797-9.151-1.394-2.448-2.77-5.188-4.219-8.4a32.11 32.11 0 0 0-1.517-2.857c-1.565-2.572-3.26-5.7-4.254-7.85-1.507-3.257-2.381-2.941-4.719 1.707-.886 1.76-2.174 4.1-2.863 5.2a47.452 47.452 0 0 0-2.282 4.2c-1.806 3.861-4.631 9.391-4.904 9.599-.145.11-1.786 3.246-3.646 6.968-1.86 3.722-3.771 7.232-4.245 7.8-.475.568-1.002 1.483-1.171 2.033-.482 1.565-3.707 7.871-5.853 11.443-1.072 1.783-1.949 3.384-1.949 3.558 0 .398-3.202 6.733-4.346 8.599-.473.77-1.613 2.93-2.535 4.8-2.234 4.531-5.963 11.273-6.593 11.918-.277.285-.688 1.185-.912 2-.224.815-1.513 3.462-2.865 5.882-1.352 2.42-2.741 4.985-3.087 5.7-.346.715-.771 1.3-.945 1.3-.175 0-.317.294-.317.654 0 .751-2.601 5.968-4.748 9.523-.805 1.333-2.155 3.942-3 5.799-.845 1.857-2.237 4.531-3.094 5.941-.857 1.411-1.558 2.701-1.558 2.867 0 2.025-6.356 8.261-10.587 10.386-7.978 4.008-16 4.397-22.414 1.088a78.777 78.777 0 0 0-2.999-1.431c-13.307-6-17.371-27.905-7.428-40.027.271-.33.797-1.41 1.169-2.4s1.668-3.6 2.879-5.8c1.211-2.2 3.034-5.71 4.051-7.8 1.016-2.09 2.879-5.6 4.139-7.8 1.26-2.2 2.976-5.53 3.813-7.4.837-1.87 1.73-3.67 1.985-4 .724-.937 4.352-7.642 4.978-9.2.309-.77 1.662-3.38 3.005-5.8a210.25 210.25 0 0 0 4.71-9.116c1.247-2.593 2.611-5.203 3.031-5.8.86-1.219 3.065-5.473 4.709-9.084.601-1.32 1.768-3.519 2.594-4.888.825-1.368 2.607-4.787 3.96-7.598 1.352-2.811 2.69-5.381 2.972-5.712.631-.74 2.464-4.246 4.673-8.94.916-1.946 2.272-4.439 3.013-5.54.741-1.101 1.347-2.103 1.347-2.227 0-.545 4.492-9.46 6.116-12.139.986-1.626 2.281-4.118 2.878-5.538.597-1.421 1.81-3.851 2.696-5.4l2.322-4.063c1.146-2.002 1.43-2.57 3.115-6.217.88-1.903 2.215-4.423 2.967-5.6.752-1.176 1.987-3.488 2.745-5.138 5.693-12.393 12.273-18.861 20.752-20.398 1.353-.246 2.853-.612 3.334-.814 1.176-.493 5.896-.215 8.968.53m-13.262 152.311c-.862.213-1.762.541-2 .73-.237.189-.881.475-1.431.637-1.191.351-4.845 2.695-5.579 3.579-.286.344-.75.625-1.033.625-.925 0-5.141 5.056-7.035 8.436-.356.635-.84 1.387-1.077 1.672-2.853 3.438-2.595 30.471.326 34.186.439.557.798 1.26.798 1.562 0 1.25 6.77 9.344 7.817 9.344.273 0 .597.26.719.578.122.317.996.798 1.943 1.068.946.269 2.098.825 2.559 1.233.483.429 1.753.846 3 .986 1.189.133 2.495.533 2.903.889 1.238 1.079 8.577 1.155 10.541.108.835-.445 2.352-.919 3.372-1.053 1.04-.137 2.149-.57 2.526-.987.37-.409 1.246-.85 1.947-.982 2.103-.394 7.873-5.106 7.873-6.428 0-.232.45-.76 1-1.173.55-.413 1-1.043 1-1.399 0-.356.344-.862.764-1.125.42-.262.891-1.07 1.047-1.796.155-.725.608-1.628 1.005-2.006.451-.428.821-1.56.982-3 .142-1.272.432-2.771.645-3.331 1.235-3.253-.249-25.066-1.782-26.187-.363-.266-.661-.787-.661-1.158 0-.371-.416-1.072-.924-1.556-.509-.485-1.16-1.466-1.449-2.181-.288-.715-.676-1.3-.863-1.3-.186 0-.569-.436-.851-.968-.537-1.014-6.213-5.832-6.87-5.832-.209 0-.708-.297-1.11-.661-2.632-2.382-14.58-3.874-20.102-2.51m16.317 1.685c8.651 3.217 15.846 11.823 17.294 20.686 1.126 6.896.54 21.553-1.001 25-4.4 9.847-10.593 15.136-20.376 17.402-4.826 1.118-11.641.433-15.065-1.516-.44-.25-1.874-.943-3.187-1.541-2.154-.979-5.566-3.897-7.419-6.345-2.866-3.786-4.227-6.397-5.002-9.6-.84-3.475-.823-22.569.024-26.163 2.068-8.772 11.069-17.238 20.184-18.985 3.067-.587 11.834.052 14.548 1.062" fill="#7087ef"/><path d="M198 91.25c-.55.22-2.26.643-3.8.94-9.063 1.749-15.441 7.848-20.837 19.927-.807 1.805-1.707 3.56-2.001 3.899-.293.338-2.053 3.6-3.911 7.248-1.857 3.648-4.175 8.051-5.151 9.785-1.785 3.171-3.9 7.485-3.9 7.954 0 .139-.839 1.635-1.865 3.325-1.026 1.69-3.033 5.502-4.46 8.472-1.427 2.97-2.735 5.492-2.906 5.605-.314.208-5.169 9.687-5.169 10.093 0 .121-.71 1.39-1.579 2.819-1.588 2.614-3.365 6.039-5.438 10.483-.616 1.32-1.344 2.67-1.617 3-.456.549-4.325 8.043-5.371 10.4-.244.55-.963 1.9-1.599 3s-2.484 4.61-4.107 7.8c-1.623 3.19-3.486 6.7-4.141 7.8-.654 1.1-2.405 4.43-3.89 7.4-1.485 2.97-3.219 6.3-3.855 7.4-1.239 2.147-1.214 2.096-3.297 6.6-.763 1.65-2.02 3.99-2.794 5.2-.773 1.21-2.59 4.63-4.038 7.6-1.447 2.97-2.906 5.85-3.241 6.4-1.577 2.584-4.209 7.716-4.657 9.082-.273.835-.893 2.058-1.378 2.718-.484.66-.999 1.47-1.144 1.8-.145.33-.892 1.77-1.659 3.2-5.814 10.829-.818 28.719 9.405 33.679 4.711 2.286 6.161 2.837 9.4 3.572 5.147 1.167 9.809.476 15.8-2.341 6.726-3.162 9.595-6.632 15.634-18.91 1.028-2.09 3.024-5.87 4.435-8.4 1.412-2.53 2.817-5.23 3.123-6 .305-.77 1.723-3.47 3.151-6 1.428-2.53 3.301-6.13 4.164-8 .862-1.87 1.81-3.673 2.107-4.006.297-.334 2.016-3.574 3.819-7.2 1.804-3.627 3.507-6.864 3.786-7.194.509-.603 5.381-10.117 5.381-10.509 0-.115.75-1.443 1.667-2.95.917-1.508 2.784-5.036 4.15-7.84 1.366-2.804 2.68-5.335 2.919-5.624.24-.29 2.085-3.755 4.099-7.702 2.014-3.946 3.808-7.358 3.986-7.582.178-.225 1.851-3.375 3.717-7 9.341-18.145 9.21-17.983 11.127-13.819.513 1.114 2.052 4.04 3.42 6.501 1.367 2.461 3.157 5.881 3.978 7.6.82 1.719 2.59 5.105 3.932 7.525 1.343 2.42 2.698 5.03 3.012 5.8.313.77 1.533 3.11 2.709 5.2 1.176 2.09 2.388 4.25 2.693 4.8.305.55 1.496 2.98 2.646 5.4 1.15 2.42 2.422 4.882 2.825 5.472.404.589 2.145 3.829 3.87 7.2 7.671 14.988 10.015 19.457 11.187 21.328 1.357 2.169 1.735 2.915 2.473 4.894.265.712 1.857 3.772 3.537 6.8 1.681 3.028 3.41 6.316 3.844 7.306.434.99 1.888 3.78 3.23 6.2 1.343 2.42 3.618 6.769 5.056 9.665 4.404 8.866 8.119 13.708 11.966 15.598 7.328 3.598 11.755 4.468 17.975 3.534 2.211-.332 4.419-.865 4.908-1.185.488-.32 1.612-.837 2.499-1.15 14.121-4.982 18.983-24.977 9.594-39.449-.781-1.202-1.419-2.329-1.419-2.504 0-.377-2.62-5.677-4.207-8.509-.616-1.1-2.631-4.955-4.477-8.567-1.847-3.612-3.703-7.052-4.125-7.645-.422-.593-1.403-2.454-2.18-4.136-.777-1.682-2.672-5.306-4.212-8.053-1.539-2.747-2.799-5.097-2.799-5.222 0-.433-2.201-4.79-3.828-7.577-.899-1.54-2.778-5.14-4.176-8-1.397-2.86-2.763-5.47-3.035-5.8-.272-.33-1.926-3.39-3.675-6.8-8.784-17.123-10.567-20.545-11.418-21.914-.508-.817-1.945-3.575-3.194-6.127-1.248-2.553-2.682-5.253-3.186-6-.503-.748-2.114-3.833-3.579-6.857-1.465-3.023-3.279-6.443-4.031-7.6-.753-1.156-1.976-3.452-2.718-5.102-.741-1.65-2.142-4.44-3.112-6.2-.97-1.76-3.282-6.17-5.137-9.8-1.855-3.63-3.598-6.87-3.872-7.2-.275-.33-1.541-2.76-2.813-5.4-2.449-5.081-6.612-11.682-8.497-13.473-3.879-3.685-16.515-7.961-19.729-6.677m6 1.208c1.87.252 3.682.7 4.026.995.344.295 1.244.749 2 1.007.756.259 2.001.891 2.767 1.405s1.601.935 1.856.935c.523 0 4.951 4.307 4.951 4.815 0 .18.304.632.675 1.003.798.798 1.882 2.684 4.357 7.582 1.001 1.98 2.329 4.5 2.952 5.6.623 1.1 2.422 4.52 3.997 7.6 1.576 3.08 3.382 6.5 4.014 7.6 1.125 1.958 1.599 2.885 2.404 4.7.22.495.581 1.17.804 1.5.223.33.681 1.23 1.018 2 .337.77 1.13 2.3 1.762 3.4.633 1.1 2.442 4.52 4.02 7.6 1.578 3.08 3.388 6.5 4.021 7.6.634 1.1 2.438 4.52 4.011 7.6 3.852 7.546 4.696 9.105 5.076 9.373.177.125.57.995.872 1.933.302.938.778 1.895 1.057 2.127.28.232.619.926.754 1.541.135.615.571 1.467.969 1.894.398.428.942 1.439 1.21 2.249.267.81.645 1.571.841 1.692.196.121 1.638 2.778 3.205 5.905 1.567 3.127 3.272 6.406 3.788 7.286.516.88 2.149 4.03 3.629 7 1.479 2.97 2.992 5.76 3.362 6.2.37.44.911 1.43 1.203 2.2.292.77.741 1.67.999 2 .258.33.708 1.23 1 2 .292.77.738 1.67.991 2 .252.33.79 1.365 1.195 2.3.404.935.843 1.701.975 1.701.131.001.572.811.979 1.8.406.99.901 1.799 1.1 1.799.198 0 .36.205.36.455 0 .573 3.226 7.274 3.634 7.549.166.112.422.679.568 1.26.146.582.576 1.391.956 1.799.381.408 1.941 3.24 3.467 6.294 3.911 7.823 4.198 8.37 4.751 9.043.271.33.732 1.23 1.024 2 .292.77.747 1.67 1.009 2 .263.33.685 1.218.939 1.974.254.756.707 1.656 1.006 2 .3.344.761 1.3 1.025 2.123.265.823.693 1.633.951 1.8.522.337 2.553 4.318 3.93 7.703 1.449 3.564 1.332 11.355-.244 16.196-1.988 6.11-6.107 11.174-11.101 13.651-6.82 3.383-5.894 3.153-12.718 3.153-5.035 0-6.422-.123-7.215-.639-.54-.352-1.641-.856-2.447-1.12-3.506-1.149-9.935-5.866-9.935-7.289 0-.16-.457-.834-1.015-1.497-.559-.664-2.508-4.177-4.331-7.807-1.824-3.63-3.523-6.849-3.776-7.154-.425-.512-3.87-7.3-5.479-10.794-.379-.825-.83-1.5-1.001-1.5-.171 0-.434-.495-.584-1.1-.15-.605-.598-1.46-.994-1.9-.397-.44-.933-1.461-1.191-2.268-.259-.807-.731-1.684-1.049-1.949-.319-.265-.58-.794-.58-1.176 0-.383-.45-1.358-1-2.169-.55-.81-1-1.722-1-2.025 0-.303-.409-1.06-.909-1.682-.5-.622-1.219-1.761-1.597-2.531-.379-.77-.844-1.67-1.034-2-.804-1.401-2.86-5.913-2.86-6.279 0-.218-.344-.708-.764-1.088-.42-.381-.884-1.174-1.03-1.762-.146-.589-.59-1.431-.986-1.871-.397-.44-.933-1.461-1.191-2.268-.259-.807-.731-1.684-1.049-1.949-.319-.265-.58-.794-.58-1.176 0-.383-.422-1.318-.938-2.078-.516-.76-1.061-1.87-1.21-2.466-.15-.596-.583-1.399-.962-1.786-.38-.386-1.004-1.326-1.388-2.089a42.078 42.078 0 0 0-1.055-1.988c-.197-.33-1.103-2.167-2.014-4.083-.91-1.916-1.83-3.592-2.044-3.724-.214-.132-.389-.576-.389-.986 0-.41-.438-1.267-.974-1.903-.536-.637-1.093-1.633-1.239-2.214-.146-.582-.508-1.258-.804-1.504-.297-.246-.829-1.32-1.183-2.386-.354-1.066-.892-2.145-1.196-2.397-.304-.252-.664-.967-.801-1.589s-.588-1.438-1.003-1.814c-.415-.376-.864-1.18-.997-1.787-.134-.608-.594-1.482-1.023-1.942-.429-.461-.78-1.09-.78-1.398 0-.309-.45-1.224-1-2.035-.55-.81-1-1.71-1-2 0-.289-.45-1.189-1-2-.55-.81-1-1.722-1-2.025 0-.303-.425-1.06-.945-1.682-.52-.622-1.084-1.581-1.253-2.131-.169-.55-.62-1.45-1.002-2s-.832-1.45-1-2c-.168-.55-.618-1.45-1-2s-.83-1.45-.995-2c-1.211-4.041-3.312-3.369-5.935 1.9-1.178 2.365-2.708 5.29-3.4 6.5-.693 1.21-2.446 4.54-3.896 7.4-1.45 2.86-3.14 6.1-3.757 7.2-.616 1.1-2.421 4.52-4.01 7.6-1.59 3.08-3.398 6.5-4.019 7.6-.621 1.1-2.423 4.52-4.006 7.6-4.952 9.638-8.919 17.202-10.625 20.257a114.122 114.122 0 0 0-2.963 5.743c-.725 1.54-1.998 3.922-2.827 5.293-.83 1.371-1.634 2.901-1.787 3.4-.153.499-.457 1.131-.677 1.406-.219.274-1.292 2.254-2.384 4.4-3.268 6.423-3.498 6.841-3.887 7.081-.205.127-.59.904-.853 1.726-.264.822-.698 1.764-.964 2.094-.266.33-.723 1.23-1.015 2-.292.77-.75 1.67-1.017 2-.266.33-.723 1.275-1.014 2.1-.291.825-.671 1.5-.843 1.5-.173 0-1.602 2.565-3.177 5.7-6.342 12.627-9.823 16.869-15.181 18.497-.532.162-1.508.618-2.168 1.014-3.22 1.931-14.85 2.078-16.995.216-.333-.289-1.308-.752-2.168-1.028-3.066-.986-10.637-7.4-10.637-9.012 0-.178-.29-.644-.645-1.036-4.166-4.604-4.071-19.145.17-25.951.479-.77.873-1.672.874-2.004 0-.332.345-.818.765-1.081.42-.262.882-1.013 1.026-1.668.144-.656.51-1.398.814-1.65.304-.252.846-1.345 1.206-2.428s.806-1.969.991-1.969c.185 0 .553-.675.817-1.5.264-.825.805-1.86 1.202-2.3.396-.44.84-1.282.986-1.871.146-.588.61-1.381 1.03-1.762.42-.38.764-.859.764-1.065 0-.602 4.744-10.005 5.601-11.102.43-.55.785-1.217.79-1.482.005-.265.459-1.146 1.009-1.956.55-.811 1-1.749 1-2.086 0-.337.24-.897.534-1.245.294-.347.782-1.261 1.086-2.031.303-.77.962-2.01 1.465-2.756.503-.746.915-1.691.915-2.1 0-.409.171-.744.381-.744.209 0 1.129-1.575 2.044-3.5s1.828-3.77 2.029-4.1c.201-.33.719-1.341 1.151-2.247.432-.906 1.04-1.858 1.351-2.117.311-.258.675-.907.81-1.442.134-.535.692-1.633 1.239-2.439.547-.807.995-1.729.995-2.049 0-.32.336-1.06.748-1.644.411-.584.886-1.51 1.057-2.057.17-.547.694-1.627 1.164-2.4l1.338-2.205c.266-.44 1.714-3.23 3.219-6.2 1.504-2.97 3.126-6.03 3.603-6.8.477-.77.869-1.625.87-1.9 0-.275.356-.855.791-1.29.434-.434.912-1.277 1.062-1.873.149-.596.694-1.706 1.21-2.466.516-.76.938-1.718.938-2.127 0-.409.366-1.11.813-1.556.446-.447.92-1.354 1.052-2.015.133-.661.556-1.37.942-1.577.385-.206.824-.864.974-1.461.15-.597.597-1.547.993-2.111.397-.563.855-1.455 1.019-1.982.306-.984 2.102-4.458 3.951-7.642.575-.99 1.339-2.43 1.699-3.2.36-.77.813-1.67 1.008-2 .195-.33.645-1.23 1-2s.808-1.67 1.006-2c.198-.33.679-1.23 1.068-2a41.41 41.41 0 0 1 1.59-2.8c.485-.77.883-1.715.884-2.1 0-.385.148-.7.327-.7.398 0 1.674-2.601 1.674-3.414 0-.322.147-.586.326-.586.344 0 1.674-2.554 1.674-3.214 0-.212.366-.752.813-1.198.446-.447.922-1.363 1.056-2.035.135-.672.48-1.312.769-1.423.288-.11.735-.86.993-1.665.259-.806.718-1.75 1.021-2.098.303-.348.837-1.473 1.187-2.5.35-1.027.785-1.867.968-1.867.182 0 .547-.675.811-1.5s.793-1.86 1.174-2.3c.381-.44.956-1.34 1.277-2 .321-.66.785-1.56 1.032-2a48.56 48.56 0 0 0 1.073-2.1l1.252-2.6c.344-.715.826-1.66 1.071-2.1.245-.44.728-1.327 1.074-1.972.83-1.546 6.499-7.269 7.522-7.594.441-.14 1.123-.61 1.516-1.044.393-.435 1.002-.794 1.353-.799.351-.005 1.448-.402 2.438-.882 1.631-.792 5.848-1.724 8.4-1.858.55-.028 2.53.154 4.4.407m-11.707 153.171c-2.647.755-6.616 2.738-7.924 3.959-.361.336-1.288 1.096-2.06 1.687C175.854 256.219 174 261.87 174 276.6c0 12.926.612 16.138 3.916 20.54.596.794 1.354 1.808 1.684 2.252 11.162 15.031 36.024 11.673 44.371-5.992 3.838-8.124 3.345-27.523-.888-34.955-6.263-10.995-18.832-16.227-30.79-12.816m14.707.928c1.32.284 3.117.905 3.994 1.38.877.475 1.717.863 1.866.863.953 0 8.295 7.403 8.827 8.9.215.605.546 1.1.735 1.1 2.578 0 3.923 23.908 1.759 31.264-1.295 4.401-2.865 6.957-6.594 10.728-1.672 1.691-5.293 4.408-5.875 4.408-.137 0-1.433.585-2.88 1.3l-2.632 1.3h-12.8l-2.632-1.3c-1.447-.715-2.743-1.3-2.88-1.3-2.978 0-10.129-8.57-12.015-14.4l-1.1-3.4.117-11.2c.118-11.233.876-16.699 2.404-17.337.18-.075.67-.795 1.088-1.6 4.589-8.822 16.557-13.3 28.618-10.706" fill="#a0acf4"/><path d="M196.2 91.411c-.88.29-1.24.528-.8.528.44 0 1.43-.242 2.2-.539 1.795-.691.705-.683-1.4.011m5.033-.468c.092.078.797.258 1.567.399.985.181 1.222.14.8-.136-.542-.356-2.763-.603-2.367-.263m6.167 1.48c.66.193 3 1.258 5.2 2.367 2.2 1.108 3.64 1.728 3.2 1.376-1.231-.984-8.09-4.171-8.89-4.13-.39.02-.17.194.49.387m-17.224.599c-.764.612-.763.616.024.254.44-.202 1.07-.468 1.4-.59.518-.193.515-.227-.024-.254-.342-.018-.972.248-1.4.59M187.6 94.2c-.55.314-.82.572-.6.572.22 0 .85-.258 1.4-.572.55-.314.82-.572.6-.572-.22 0-.85.258-1.4.572m-3.2 1.962c-.99.739-2.52 2.125-3.4 3.081-1.346 1.462-1.218 1.39.811-.453 1.325-1.204 2.945-2.585 3.6-3.068.654-.483 1.099-.883.989-.89-.11-.007-1.01.592-2 1.33m33.621 2.041c.781.878 2.398 3.071 3.591 4.873 1.194 1.801 2.227 3.219 2.295 3.15.269-.269-4.712-7.293-5.972-8.423l-1.335-1.198 1.421 1.598m-39.81 4.257c-1.012 1.203-3.607 5.94-3.253 5.94.093 0 .832-1.215 1.643-2.7s1.849-3.105 2.307-3.6c.457-.495.726-.9.597-.9s-.711.567-1.294 1.26m47.455 7.702c.487 1.001.943 1.762 1.015 1.691.218-.219-1.041-2.981-1.484-3.255-.228-.141-.017.563.469 1.564m-51.63-.462c-.19.495-.965 2.197-1.724 3.783-.758 1.585-1.219 2.783-1.024 2.663.316-.196 1.268-2.14 2.96-6.046.309-.715.466-1.3.347-1.3-.118 0-.37.405-.559.9m53.607 4.6c.448 1.045 1.045 2.17 1.327 2.5.283.33 1.019 1.546 1.636 2.702.618 1.156 1.188 2.037 1.267 1.958.079-.079-.487-1.205-1.26-2.502-.772-1.297-1.853-3.303-2.403-4.458-1.247-2.619-1.668-2.768-.567-.2m-58.601 5c-1.642 2.939-3.585 7.106-3.383 7.257.078.059 1.253-2.113 2.613-4.825 2.66-5.309 3.03-6.476.77-2.432m66.413 9.7c.925 1.579.945 1.603.945 1.111 0-.232-.371-.847-.824-1.367l-.823-.944.702 1.2m-72.559 2.3c-2.526 4.268-4.305 7.9-3.871 7.9.102 0 .62-.945 1.15-2.1.531-1.155 1.607-3.225 2.392-4.6.784-1.375 1.352-2.5 1.262-2.5-.09 0-.51.585-.933 1.3m75.097 2.3c.89 1.65 2.092 4.039 2.671 5.308.579 1.27 1.131 2.23 1.227 2.134.239-.239-3.747-8.202-4.726-9.442-.434-.55-.061.35.828 2m-81.851 10.73c-2.234 3.781-4.146 7.461-4.134 7.957.004.172.915-1.397 2.023-3.487 1.109-2.09 2.569-4.662 3.244-5.715.675-1.054 1.158-1.985 1.073-2.071-.085-.085-1.078 1.407-2.206 3.316M242 141.855c0 .238.476 1.133 1.058 1.989.581.856 1.659 2.636 2.395 3.956 1.355 2.431 1.894 2.818.695.499-1.171-2.263-4.148-6.889-4.148-6.444m5.478 9.94c.366.767.736 1.324.823 1.237.183-.183-1.031-2.632-1.305-2.632-.101 0 .116.628.482 1.395m-96.399 2.179c-.975 1.651-.826 2.077.178.509.463-.724.766-1.393.672-1.487-.094-.094-.477.346-.85.978M249.124 155c.202.44.468 1.07.59 1.4.193.518.227.515.254-.024.018-.342-.248-.972-.59-1.4-.612-.764-.616-.763-.254.024m1.419 3c.352.55 1.649 2.8 2.883 5 1.233 2.2 2.126 3.64 1.984 3.2-.417-1.291-3.718-7.112-4.651-8.2l-.857-1 .641 1m-102.584 1.677c-2.107 3.937-3.141 6.074-3.004 6.211.089.089.984-1.469 1.989-3.463 1.571-3.113 2.371-5.283 1.015-2.748m-4.906 10.023-.72 1.3.825-1c.731-.887 1.056-1.6.728-1.6-.062 0-.437.585-.833 1.3m114.177.9c.494.88 1.07 1.78 1.28 2 .599.628-.771-1.906-1.514-2.8-.366-.44-.261-.08.234.8m-116.333 2.7c-.565.705-2.15 3.9-1.935 3.9.098 0 .714-.99 1.369-2.2 1.179-2.176 1.344-2.67.566-1.7m59.062 2.221c-.816.095-1.25.566-2 2.175-.528 1.13-1.882 3.728-3.01 5.773-1.128 2.045-1.908 3.629-1.733 3.521.381-.235 2.75-4.428 4.466-7.903 1.818-3.681 2.945-4.087 4.12-1.483.398.882.797 1.53.888 1.439.592-.592-1.767-3.634-2.731-3.522m60.055-.263c-.018.338 3.934 8.215 3.963 7.898.028-.294-2.535-5.751-3.361-7.156-.323-.55-.594-.884-.602-.742m-122.532 4.624c-.598 1.236-1.025 2.308-.95 2.383.075.076.63-.87 1.233-2.1.602-1.231 1.03-2.303.95-2.383-.08-.08-.635.865-1.233 2.1m65.37-.082c.468 1.228 2.396 4.583 2.766 4.811.452.28-1.86-4.112-2.533-4.811-.257-.267-.334-.267-.233 0m-67.358 4.303-.706 1.297.806-.944c.686-.804 1.052-1.662.706-1.653-.055.001-.418.586-.806 1.3M206 185.489c0 .232.371.847.824 1.367l.823.944-.702-1.2c-.925-1.579-.945-1.603-.945-1.111m-72.041.988c-2.107 3.937-3.141 6.074-3.004 6.211.089.089.984-1.469 1.989-3.463 1.571-3.113 2.371-5.283 1.015-2.748m134.5 5.422c1.809 3.568 3.348 6.427 3.422 6.353.177-.177-5.751-11.882-6.291-12.422-.23-.23 1.061 2.501 2.869 6.069m-60.451-2.931c-.012.558 2.249 5.109 4.984 10.032 1.344 2.42 2.685 4.991 2.98 5.713.295.722.62 1.229.722 1.126.186-.186-2.853-6.426-3.553-7.296-.202-.252-1.438-2.592-2.746-5.2-1.309-2.609-2.382-4.577-2.387-4.375m-17.427 2.669c-.352.681-.569 1.308-.482 1.395.087.087.457-.47.823-1.237.822-1.725.537-1.857-.341-.158m-2.262 4.591c-.809 1.415-1.347 2.569-1.195 2.565.306-.007 2.981-4.821 2.787-5.015-.067-.067-.783 1.035-1.592 2.45m-60.825 3.075-.706 1.297.806-.944c.686-.804 1.052-1.662.706-1.653-.055.001-.418.586-.806 1.3m57.517 3.013c-2.231 4.425-2.258 4.484-2.054 4.484.248 0 3.905-7.272 3.739-7.437-.071-.072-.829 1.257-1.685 2.953m87.809-2.109c.341.436 1.395 2.368 2.342 4.293 1.808 3.672 2.532 4.7 1.269 1.8-1.306-2.999-2.923-5.879-3.586-6.39-.588-.453-.591-.427-.025.297m-148.441 4.635c-1.116 2.223-1.965 4.106-1.887 4.184.078.077 1.078-1.741 2.223-4.042 1.144-2.301 1.993-4.184 1.886-4.184-.106 0-1.106 1.819-2.222 4.042m94.223 5.058c1.031 1.925 2.256 3.86 2.722 4.3l.846.8-.64-.8c-.352-.44-1.487-2.375-2.522-4.3-1.034-1.925-1.971-3.5-2.081-3.5-.11 0 .644 1.575 1.675 3.5m-37.566.227c-.853 1.58-1.84 3.23-2.193 3.666-.601.742-.598.758.055.253.733-.568 4.094-6.388 3.837-6.644-.082-.082-.846 1.144-1.699 2.725m96.171-1.552c-.009.475 4.367 8.225 4.645 8.225.114 0-.386-1.035-1.111-2.3-.724-1.265-1.814-3.2-2.422-4.3-.607-1.1-1.108-1.831-1.112-1.625m-155.925 2.652c-.498.865-.825 1.573-.727 1.573.276 0 1.957-2.821 1.784-2.994-.084-.084-.559.556-1.057 1.421m53.831 10.106c-1.477 2.897-2.406 4.907-2.066 4.467.76-.981 5.051-9.436 4.877-9.609-.069-.069-1.334 2.245-2.811 5.142m106.888-3.922c0 .226.237.766.528 1.2.291.434.774 1.419 1.073 2.189.3.77 1.799 3.65 3.331 6.4 1.533 2.75 3.04 5.604 3.35 6.343.31.739.663 1.244.785 1.122.209-.208-1.761-4.049-5.059-9.865-.811-1.43-1.721-3.23-2.021-4-.666-1.706-1.984-3.956-1.987-3.389m-165.36 2.339c-.572 1.21-1.032 2.347-1.021 2.525.011.179.543-.748 1.181-2.06.639-1.312 1.099-2.449 1.022-2.526-.078-.077-.609.85-1.182 2.061m106.226-1.838c.669 1.568 3.271 6.483 3.376 6.378.181-.18-3.029-6.69-3.299-6.69-.116 0-.151.141-.077.312M114.069 225c-.656 1.21-1.026 2.097-.823 1.971.412-.254 2.469-4.171 2.191-4.171-.097 0-.713.99-1.368 2.2m113.528 1.8c.685 1.21 1.953 3.702 2.817 5.538 1.691 3.597 5.523 10.462 5.839 10.462.106 0-.456-1.125-1.249-2.5-.794-1.375-2.699-5.02-4.235-8.1-1.536-3.08-3.158-6.05-3.606-6.6-.447-.55-.252-.01.434 1.2m-56.583 1.835c-.373.569-.609 1.103-.525 1.187.084.085.469-.381.855-1.034.862-1.46.604-1.579-.33-.153m-59.597 1.091c-.422.701-1.534 2.93-2.47 4.954-.937 2.024-2.002 4.184-2.367 4.8-.63 1.062-.629 1.079.021.32.608-.709 4.199-7.92 4.199-8.432 0-.11.392-.731.872-1.379.479-.649.791-1.26.692-1.358-.098-.099-.525.394-.947 1.095m56.653 5.007c-1.171 2.347-1.949 4.087-1.73 3.867.54-.541 4.181-7.813 4.002-7.992-.079-.078-1.101 1.778-2.272 4.125m123.134.7c.005.466 2.346 4.567 2.608 4.567.107 0-.378-1.035-1.079-2.3-1.48-2.672-1.534-2.753-1.529-2.267m-126.272 5.091c-.984 1.477-1.686 2.844-3.084 6.006-1.671 3.778-.782 2.543 1.159-1.609.997-2.134 2.107-4.205 2.467-4.603.36-.397.576-.801.481-.896-.095-.095-.555.401-1.023 1.102m131.867 5.376c1.342 2.695 2.509 4.9 2.595 4.9.381 0-3.868-8.594-4.648-9.4-.212-.22.711 1.805 2.053 4.5m-195.162 2.566a342.098 342.098 0 0 1-4.688 9.134c-1.243 2.31-2.079 4.02-1.857 3.8.89-.886 9.407-17.434 9.12-17.721-.08-.081-1.239 2.074-2.575 4.787m95.879-3.769c1.383.078 3.543.077 4.8-.002 1.256-.079.124-.143-2.516-.142-2.64 0-3.668.065-2.284.144m40.167 1.603c1.361 3.084 5.096 9.588 5.834 10.158.635.491.638.473.042-.265-.859-1.065-4.437-7.524-5.479-9.893-.459-1.045-.925-1.9-1.035-1.9-.11 0 .177.855.638 1.9M191 245.585c-2.087.758-5.8 2.735-5.8 3.087 0 .113.987-.353 2.193-1.033 1.206-.681 3.411-1.585 4.9-2.01 1.489-.425 2.257-.772 1.707-.771-.55 0-1.9.327-3 .727m16.983.216c1.641.531 3.046.903 3.123.827.2-.201-4.741-1.831-5.484-1.81-.342.01.72.452 2.361.983m4.217 1.606c.44.359 1.16.828 1.6 1.044l.8.393-.8-.651c-.44-.359-1.16-.828-1.6-1.044l-.8-.393.8.651m-52.6 3.393c-.449.88-.726 1.6-.616 1.6.11 0 .567-.72 1.016-1.6.449-.88.726-1.6.616-1.6-.11 0-.567.72-1.016 1.6m22.729.009c-2.174 1.863-5.196 5.76-6.57 8.472-1.454 2.87-1.129 2.868.418-.003 2.249-4.173 4.881-7.314 7.84-9.357.54-.373.803-.687.583-.697-.22-.011-1.242.703-2.271 1.585m33.935-.461c.872.631 2.465 2.206 3.542 3.5 2.631 3.163 2.769 3.301 2.203 2.203-.68-1.318-6.182-6.851-6.813-6.851-.284 0 .197.517 1.068 1.148m85.805 5.544c1.674 3.176 2.295 3.691.746.619-.69-1.369-1.414-2.587-1.609-2.707-.195-.121.194.819.863 2.088m-147.74 4.883a141.66 141.66 0 0 1-2.918 5.625c-.796 1.43-1.124 2.195-.729 1.701 1.033-1.294 5.406-9.651 5.25-10.031-.073-.176-.794 1.041-1.603 2.705m69.396-1.207c.475.867.925 1.516.999 1.441.194-.193-1.047-2.514-1.49-2.788-.205-.127.016.479.491 1.347m20.683-.565c-.005.221 1.274 2.741 2.842 5.6 1.567 2.858 3.285 6.097 3.818 7.197 1.74 3.596 3.44 6.792 3.827 7.2.21.22-.446-1.247-1.457-3.26-1.011-2.014-1.838-3.753-1.838-3.865 0-.112-.753-1.524-1.672-3.139a326.824 326.824 0 0 1-3.593-6.536c-1.056-1.98-1.923-3.419-1.927-3.197m59.628.397c0 .22.434 1.21.964 2.2.53.99.964 1.62.964 1.4 0-.22-.434-1.21-.964-2.2-.53-.99-.964-1.62-.964-1.4m-79.186 2.2c-.008.11.235 1.1.541 2.2.336 1.211.559 1.606.564 1 .007-.811-1.054-3.885-1.105-3.2m-130.861 1.873c-.269.84-.71 1.797-.979 2.127-.268.33-.619.87-.779 1.2-.16.33.128.072.639-.574.938-1.183 2.071-3.818 1.771-4.118-.088-.089-.382.525-.652 1.365m79.698 12.927c-.079 11.491.283 14.957 1.767 16.939.717.959.729 1.002-.596-2.339-.508-1.281-.68-3.99-.865-13.6l-.231-12-.075 11M307.79 267c1.132 1.66 2.779 4.976 3.675 7.4.475 1.284.5 1.301.305.2-.289-1.632-3.31-7.623-4.283-8.495-.537-.481-.44-.196.303.895m-81.59 9.571c0 5.924.114 10.244.253 9.6.341-1.584.355-16.32.017-18.571-.148-.99-.27 3.047-.27 8.971m-136.519-5.162c-.479.985-.787 1.791-.684 1.791.271 0 1.887-3.249 1.706-3.43-.084-.084-.544.654-1.022 1.639m58.386 1.157c-.487 1.346-3.214 6.498-4.941 9.334-.435.715-.695 1.3-.576 1.3.583 0 6.397-10.96 6.171-11.636-.077-.231-.371.22-.654 1.002m-60.028 3.026c-.241 1.126-.422 2.444-.401 2.928.02.484.285-.37.589-1.898.303-1.527.484-2.845.401-2.927-.082-.083-.347.771-.589 1.897M312.55 282.2c.001 2.42.066 3.358.146 2.085.08-1.273.079-3.253-.002-4.4-.08-1.147-.145-.105-.144 2.315m-225.213.4c.002 1.76.072 2.43.156 1.489.085-.94.084-2.38-.002-3.2-.086-.819-.155-.049-.154 1.711m170.666 2.435c3.042 6.048 3.899 7.404 1.993 3.156-1.284-2.863-4.344-8.591-4.589-8.591-.076 0 1.093 2.446 2.596 5.435m-117.329 1.657c-.794 1.71-2.089 4.278-2.877 5.708-.788 1.43-1.07 2.15-.627 1.6.961-1.192 5.361-10.002 5.118-10.246-.093-.093-.82 1.229-1.614 2.938m-52.981.508c0 .77.082 1.085.183.7.1-.385.1-1.015 0-1.4-.101-.385-.183-.07-.183.7m137.658 2.388c-.222 1.082-.272 1.887-.112 1.788.333-.206.925-3.345.678-3.593-.09-.089-.345.723-.566 1.805M88.068 289.4c-.006.44.143 1.16.332 1.6.438 1.019.438-.032 0-1.4-.257-.804-.323-.843-.332-.2m223.429.476c-1.327 6.332-7.881 13.833-14.128 16.17-1.185.443-2.244.952-2.355 1.131-1.104 1.786 8.324-3.655 10.076-5.816l2.891-3.557c1.727-2.122 4.161-7.413 3.925-8.533-.082-.391-.253-.137-.409.605M262 292.8c.449.88.906 1.6 1.016 1.6.11 0-.167-.72-.616-1.6-.449-.88-.906-1.6-1.016-1.6-.11 0 .167.72.616 1.6m-173.188-.689c-.13 3.258 8.746 13.018 12.788 14.062.55.142.01-.237-1.2-.842-3.161-1.581-7.893-6.545-9.94-10.428-.899-1.707-1.641-2.963-1.648-2.792m134.863 1.895c-.495 1.079-1.361 2.51-1.923 3.178-.563.669-.872 1.216-.688 1.215.443-.001 2.782-3.483 3.329-4.954.707-1.904.248-1.545-.718.561m39.97 1.594c.593 1.284 4.158 6.141 5.031 6.854.368.3-.489-.998-1.904-2.885-1.415-1.887-2.801-3.777-3.08-4.2-.432-.654-.439-.619-.047.231M136 295.487c0 .232-1.179 2.017-2.619 3.967-1.441 1.95-1.984 2.826-1.207 1.946 2.065-2.337 4.378-5.781 4.082-6.077-.141-.141-.256-.067-.256.164m40.4-.155c0 .151.54 1.02 1.2 1.931.66.912 1.195 1.495 1.189 1.297-.013-.423-2.389-3.633-2.389-3.228m2.8 3.736c0 1.246 6.442 6.943 7.835 6.928.201-.002-.715-.697-2.035-1.545-2.374-1.525-3.855-2.92-5.139-4.84-.363-.544-.661-.788-.661-.543m38.8 2.507c-2.405 2.503-6.282 4.908-9.8 6.079-.595.198-.633.276-.148.306 2.134.131 9.861-5.03 11.973-7.995 1.181-1.659.905-1.439-2.025 1.61m-89 2.282-1.2 1.028 1.3-.729c.715-.401 1.3-.87 1.3-1.042 0-.439-.054-.411-1.4.743m140.6-.812c0 .451 4.117 2.955 4.859 2.955.294 0-.364-.472-1.462-1.049-1.098-.577-2.312-1.324-2.697-1.662-.385-.337-.7-.447-.7-.244m-146.135 3.602c-.625.339-1.05.701-.945.806.104.104.795-.179 1.535-.63 1.558-.95 1.093-1.088-.59-.176m-19.289.766c.428.323 1.058.586 1.4.585.343-.002.108-.272-.522-.6-1.45-.757-1.888-.749-.878.015m86-.035c.428.342 1.058.608 1.4.59.539-.027.542-.061.024-.254-.33-.122-.96-.388-1.4-.59-.787-.362-.788-.358-.024.254m97.924 1.298c.385.1 1.015.1 1.4 0 .385-.101.07-.183-.7-.183s-1.085.082-.7.183m-177.384.596c.879.349 4.388.331 5.684-.03.554-.155-.641-.271-2.684-.261-2.027.011-3.377.141-3 .291m85.826.022c.573.367 5.413.347 6.359-.028.385-.152-.991-.274-3.059-.271-2.067.003-3.552.137-3.3.299" fill="#899cf4"/></g></svg>