<svg id="svg" version="1.1" xmlns="http://www.w3.org/2000/svg" xmlns:xlink="http://www.w3.org/1999/xlink" width="32" height="32" viewBox="0, 0, 400,400"><g id="svgg"><path id="path0" d="M265.001 90.399 C 264.600 90.842,264.345 91.255,264.436 91.316 C 264.526 91.377,264.888 91.645,265.239 91.912 C 266.321 92.733,267.480 91.177,266.468 90.262 C 265.776 89.635,265.684 89.644,265.001 90.399 M152.649 95.946 C 151.353 97.378,151.277 103.186,152.539 104.356 C 154.434 106.113,155.731 104.717,155.404 101.272 C 154.909 96.046,154.054 94.393,152.649 95.946 M258.670 96.070 C 257.724 97.568,257.568 103.297,258.442 104.455 L 259.147 105.390 260.187 104.412 C 261.634 103.053,261.591 96.686,260.129 95.718 C 259.333 95.191,259.206 95.221,258.670 96.070 M208.414 102.774 C 207.645 104.211,207.862 153.226,208.643 154.340 L 209.286 155.258 210.243 154.359 L 211.200 153.461 211.200 128.392 C 211.200 104.615,211.162 103.290,210.469 102.662 C 209.509 101.794,208.921 101.826,208.414 102.774 M158.420 108.363 C 158.163 108.843,158.120 110.441,158.306 112.663 L 158.600 116.200 160.379 117.053 C 162.509 118.076,163.488 119.195,163.825 120.995 C 163.963 121.730,164.524 122.752,165.072 123.266 L 166.068 124.200 166.840 123.248 C 167.500 122.434,167.574 121.915,167.349 119.648 C 166.984 115.982,166.637 115.257,164.903 114.541 C 162.726 113.642,162.064 112.913,161.402 110.683 C 160.597 107.971,159.208 106.890,158.420 108.363 M252.389 108.611 C 250.640 110.474,252.260 118.300,254.029 116.531 C 254.524 116.036,255.300 110.161,254.998 109.199 C 254.577 107.862,253.353 107.586,252.389 108.611 M246.028 121.055 C 244.989 122.377,244.966 124.064,245.975 124.977 C 246.926 125.838,247.508 125.518,248.258 123.722 C 249.332 121.153,247.589 119.070,246.028 121.055 M171.275 127.216 C 169.912 128.485,169.974 134.260,171.364 135.566 L 172.328 136.472 173.164 135.636 C 174.462 134.338,174.400 128.515,173.075 127.270 L 172.150 126.401 171.275 127.216 M240.076 127.319 C 238.767 128.713,238.841 134.324,240.186 135.587 L 241.086 136.433 241.683 135.516 C 242.011 135.012,242.411 133.880,242.571 133.000 C 242.732 132.120,243.198 130.637,243.607 129.704 C 244.390 127.921,244.002 126.800,242.604 126.800 C 242.308 126.800,241.817 126.705,241.514 126.588 C 241.210 126.472,240.563 126.800,240.076 127.319 M109.054 134.313 C 108.943 134.492,108.996 134.870,109.171 135.153 C 109.419 135.554,109.541 135.531,109.727 135.046 C 109.979 134.390,109.398 133.757,109.054 134.313 M177.236 139.964 C 175.036 142.164,176.713 149.731,179.115 148.445 C 180.759 147.566,180.662 141.561,178.979 139.980 L 178.072 139.128 177.236 139.964 M233.643 140.155 C 232.364 141.515,232.391 147.268,233.681 148.171 C 235.324 149.322,236.400 147.713,236.400 144.104 C 236.400 139.877,235.336 138.353,233.643 140.155 M127.270 146.126 L 126.396 147.056 127.298 147.877 C 128.292 148.782,129.010 148.702,129.589 147.620 C 129.877 147.082,129.748 146.703,129.056 146.053 L 128.144 145.196 127.270 146.126 M283.593 146.208 L 282.642 147.220 283.522 148.100 L 284.402 148.980 285.412 147.970 L 286.422 146.960 285.483 146.078 L 284.544 145.196 283.593 146.208 M183.373 152.185 C 182.317 153.797,184.026 158.054,185.343 157.091 C 186.496 156.248,186.642 153.611,185.609 152.300 C 184.542 150.947,184.196 150.929,183.373 152.185 M133.564 152.436 L 132.728 153.272 133.634 154.236 C 134.931 155.616,140.807 155.697,141.752 154.347 C 143.491 151.865,135.906 150.094,133.564 152.436 M227.333 152.444 C 226.605 153.173,226.543 153.489,226.880 154.744 C 227.496 157.042,228.263 157.605,228.822 156.169 C 229.072 155.526,229.426 154.617,229.610 154.149 C 230.317 152.343,228.669 151.109,227.333 152.444 M271.239 152.559 L 270.401 153.450 271.211 154.319 C 271.952 155.115,272.281 155.167,275.110 154.941 C 280.901 154.477,280.921 152.284,275.138 151.881 C 272.341 151.686,272.004 151.744,271.239 152.559 M146.400 158.292 C 144.913 158.858,145.895 161.200,147.619 161.200 C 148.792 161.200,151.740 162.392,152.626 163.225 C 154.123 164.631,155.182 163.517,155.195 160.523 C 155.204 158.357,149.818 156.990,146.400 158.292 M188.300 158.287 C 186.622 158.541,186.973 159.545,189.063 160.469 L 190.926 161.293 191.638 160.350 C 192.290 159.486,192.296 159.348,191.713 158.703 C 191.090 158.016,190.535 157.948,188.300 158.287 M258.621 158.636 C 258.071 159.186,257.955 159.786,258.101 161.315 C 258.339 163.788,258.916 164.169,260.645 162.995 C 261.385 162.493,262.874 161.870,263.954 161.611 C 266.208 161.070,267.766 159.717,267.197 158.794 C 266.600 157.827,259.559 157.698,258.621 158.636 M157.005 164.350 C 155.082 164.762,155.312 165.727,157.578 166.751 C 160.939 168.270,164.250 166.575,161.121 164.937 C 159.312 163.990,158.938 163.937,157.005 164.350 M252.351 165.053 L 251.541 165.914 252.423 166.736 C 253.299 167.551,253.318 167.552,255.298 166.800 C 257.719 165.880,257.840 165.771,257.240 165.049 C 256.412 164.050,253.290 164.053,252.351 165.053 M165.110 169.509 C 162.826 172.151,164.431 174.000,169.008 174.000 C 174.899 174.000,175.365 171.628,169.757 170.191 C 168.021 169.746,166.399 169.255,166.153 169.101 C 165.908 168.946,165.438 169.130,165.110 169.509 M240.891 170.816 C 238.130 171.925,239.653 173.502,243.803 173.830 C 247.642 174.133,249.436 173.086,248.171 171.281 C 247.499 170.321,242.861 170.025,240.891 170.816 M209.047 172.033 C 208.948 172.345,208.767 173.576,208.644 174.769 C 208.366 177.474,208.146 177.689,205.414 177.915 C 203.264 178.094,203.200 178.133,203.200 179.294 L 203.200 180.489 203.908 179.615 C 204.446 178.950,205.199 178.688,207.057 178.519 L 209.499 178.298 209.771 175.291 C 210.022 172.521,209.556 170.423,209.047 172.033 M215.770 195.000 C 215.771 199.840,215.829 201.765,215.899 199.278 C 215.969 196.791,215.969 192.831,215.898 190.478 C 215.828 188.125,215.770 190.160,215.770 195.000 M196.940 194.000 C 196.940 195.870,197.009 196.635,197.093 195.700 C 197.177 194.765,197.177 193.235,197.093 192.300 C 197.009 191.365,196.940 192.130,196.940 194.000 M59.173 202.959 C 59.078 203.053,59.081 204.271,59.179 205.665 L 59.358 208.200 59.615 205.800 C 59.844 203.655,59.660 202.475,59.173 202.959 M203.234 206.257 C 203.197 209.831,203.311 210.000,205.756 210.000 C 207.687 210.000,208.347 210.729,208.835 213.400 C 209.457 216.803,209.600 216.634,209.600 212.495 L 209.600 208.858 207.412 208.584 C 204.850 208.264,204.451 207.880,203.774 205.086 L 203.268 203.000 203.234 206.257 M65.632 214.100 L 65.600 216.000 69.100 215.952 L 72.600 215.905 70.200 215.403 C 66.939 214.722,66.505 214.499,66.053 213.266 C 65.702 212.305,65.660 212.388,65.632 214.100 M77.839 221.938 C 77.417 222.620,78.198 222.795,80.044 222.433 C 81.137 222.218,81.422 222.069,80.800 222.038 C 80.250 222.011,79.415 221.886,78.945 221.760 C 78.475 221.634,77.977 221.714,77.839 221.938 M109.333 228.388 C 122.622 228.632,122.000 228.431,122.000 232.476 L 122.000 234.800 125.200 234.800 L 128.400 234.800 128.400 233.250 C 128.400 230.098,128.774 229.245,130.349 228.808 C 132.140 228.310,278.964 228.273,281.532 228.770 C 283.852 229.218,283.999 229.429,284.274 232.707 C 284.508 235.505,284.522 235.534,285.481 235.169 C 286.015 234.966,287.126 234.800,287.950 234.800 C 290.172 234.800,290.868 234.084,291.229 231.425 C 291.401 230.160,291.659 229.007,291.803 228.863 C 291.948 228.718,298.936 228.505,307.333 228.388 C 315.730 228.272,272.020 228.177,210.200 228.176 C 148.380 228.176,102.990 228.271,109.333 228.388 M134.198 240.803 C 133.841 241.381,134.597 241.551,138.097 241.683 C 140.970 241.792,142.093 241.426,141.306 240.639 C 140.896 240.229,134.461 240.378,134.198 240.803 M340.776 251.300 C 340.741 263.979,340.390 265.126,336.433 265.506 L 334.400 265.702 334.400 268.174 C 334.400 271.548,334.018 271.944,330.600 272.108 C 327.852 272.241,327.865 272.245,331.300 272.322 L 334.800 272.400 334.800 269.627 C 334.800 266.445,334.743 266.493,338.698 266.314 L 341.195 266.200 341.198 254.500 C 341.199 248.065,341.110 242.800,341.000 242.800 C 340.890 242.800,340.789 246.625,340.776 251.300 M149.948 247.172 C 151.529 247.363,152.299 247.682,152.867 248.383 C 153.702 249.414,155.996 249.936,156.006 249.097 C 156.010 248.769,156.146 248.804,156.406 249.200 C 156.756 249.733,156.843 249.733,157.187 249.200 C 157.490 248.731,157.562 248.819,157.514 249.600 C 157.326 252.704,157.569 253.600,158.600 253.600 C 159.548 253.600,159.600 253.483,159.600 251.351 C 159.600 249.491,159.505 249.181,159.051 249.557 C 158.427 250.075,157.303 248.004,157.785 247.224 C 157.965 246.933,156.445 246.818,152.924 246.856 C 149.194 246.897,148.385 246.983,149.948 247.172 M165.712 247.095 C 166.764 247.177,168.384 247.176,169.312 247.092 C 170.240 247.008,169.380 246.941,167.400 246.942 C 165.420 246.943,164.660 247.012,165.712 247.095 M188.930 247.100 C 197.471 247.160,211.331 247.160,219.730 247.100 C 228.128 247.040,221.140 246.990,204.200 246.990 C 187.260 246.990,180.388 247.040,188.930 247.100 M248.200 247.091 C 250.840 247.157,253.270 247.327,253.600 247.469 C 253.930 247.611,254.335 247.698,254.500 247.664 C 254.665 247.629,254.803 247.915,254.806 248.300 C 254.811 248.898,254.869 248.913,255.200 248.400 C 255.413 248.070,255.591 247.995,255.594 248.233 C 255.597 248.472,255.825 248.697,256.100 248.734 C 256.375 248.771,257.230 248.904,258.000 249.030 C 259.196 249.225,259.458 249.123,259.800 248.329 C 260.069 247.704,260.658 247.319,261.600 247.153 C 262.370 247.017,258.590 246.920,253.200 246.939 C 247.810 246.957,245.560 247.026,248.200 247.091 M303.131 249.623 C 302.941 252.980,302.720 253.185,299.300 253.194 L 296.800 253.200 296.877 256.500 C 296.948 259.528,296.966 259.595,297.096 257.309 C 297.273 254.204,297.956 253.600,301.289 253.600 L 303.600 253.600 303.600 250.200 C 303.600 246.071,303.349 245.763,303.131 249.623 M165.417 259.172 C 164.965 259.903,166.099 260.074,169.326 259.760 L 172.600 259.442 170.600 259.156 C 167.693 258.740,165.680 258.747,165.417 259.172 M240.754 264.580 C 240.643 264.691,239.123 265.026,237.376 265.324 L 234.200 265.867 237.548 266.165 C 241.073 266.479,241.979 266.206,241.319 265.027 C 241.119 264.670,240.865 264.469,240.754 264.580 M221.839 271.938 C 221.437 272.587,222.037 272.686,224.600 272.392 C 226.572 272.167,226.715 272.106,225.400 272.053 C 224.520 272.018,223.415 271.886,222.945 271.760 C 222.475 271.634,221.977 271.714,221.839 271.938 M186.112 272.295 C 187.164 272.377,188.784 272.376,189.712 272.292 C 190.640 272.208,189.780 272.141,187.800 272.142 C 185.820 272.143,185.060 272.212,186.112 272.295 M198.900 278.296 C 200.165 278.375,202.235 278.375,203.500 278.296 C 204.765 278.216,203.730 278.151,201.200 278.151 C 198.670 278.151,197.635 278.216,198.900 278.296 M207.100 297.082 C 207.595 297.178,208.405 297.178,208.900 297.082 C 209.395 296.987,208.990 296.909,208.000 296.909 C 207.010 296.909,206.605 296.987,207.100 297.082 M190.690 303.044 C 190.530 303.203,190.398 304.068,190.395 304.967 C 190.383 308.349,190.103 308.633,186.214 309.204 C 185.106 309.367,193.470 309.498,204.800 309.496 C 216.130 309.493,225.008 309.415,224.529 309.322 C 223.190 309.061,222.746 308.244,222.506 305.595 L 222.285 303.161 220.443 303.280 C 218.752 303.390,218.565 303.509,218.174 304.717 C 216.867 308.761,215.492 309.263,206.096 309.122 L 197.911 309.000 196.744 307.602 C 196.103 306.833,195.470 305.528,195.338 304.702 C 195.120 303.340,194.982 303.199,193.849 303.195 C 193.162 303.192,192.235 303.091,191.790 302.971 C 191.344 302.852,190.849 302.884,190.690 303.044 " stroke="none" fill="#dda064" fill-rule="evenodd"></path><path id="path1" d="M0.000 200.000 L 0.000 400.000 200.000 400.000 L 400.000 400.000 400.000 200.000 L 400.000 0.000 200.000 0.000 L 0.000 0.000 0.000 200.000 M211.113 75.424 C 213.596 77.163,213.235 79.804,210.277 81.541 C 209.089 82.238,206.000 79.847,206.000 78.229 C 206.000 76.079,209.391 74.218,211.113 75.424 M268.319 87.049 C 271.776 89.286,271.158 93.910,267.138 95.885 C 265.089 96.891,265.346 96.203,264.563 102.796 C 264.224 105.651,263.013 107.257,260.591 108.062 L 258.600 108.723 258.370 112.662 C 258.052 118.099,257.454 119.266,254.313 120.579 C 252.500 121.336,252.444 121.430,251.722 124.919 C 250.997 128.421,250.409 129.601,248.714 130.954 C 246.415 132.791,246.041 133.270,245.401 135.198 C 244.689 137.342,243.700 138.396,241.400 139.462 L 239.800 140.203 239.595 144.402 C 239.343 149.566,237.897 152.000,235.082 152.000 C 234.051 152.000,233.298 153.383,233.011 155.800 C 232.175 162.841,229.306 164.645,221.937 162.763 C 220.733 162.455,218.000 160.121,218.000 159.400 C 218.000 158.914,220.675 156.276,221.477 155.971 C 222.393 155.622,222.793 154.908,224.257 151.000 C 224.897 149.291,225.279 148.870,226.878 148.104 C 228.638 147.262,228.765 147.094,229.002 145.304 C 229.791 139.337,231.265 136.400,233.471 136.400 C 235.467 136.400,236.000 135.385,236.000 131.585 C 236.000 126.102,236.566 125.094,240.465 123.643 C 241.306 123.330,241.668 122.770,242.188 120.982 C 242.939 118.400,244.231 116.894,245.998 116.540 C 247.550 116.230,247.481 116.380,248.029 112.111 C 248.619 107.508,249.567 105.714,252.066 104.474 C 253.853 103.587,253.943 103.459,254.188 101.474 C 254.975 95.107,255.874 93.373,259.011 92.175 C 260.518 91.599,260.860 91.261,261.195 90.020 C 262.099 86.662,265.518 85.236,268.319 87.049 M148.476 87.900 C 149.136 88.285,150.012 89.254,150.422 90.052 C 151.014 91.205,151.477 91.563,152.665 91.786 C 156.337 92.475,158.400 94.600,158.400 97.694 C 158.400 101.134,159.207 103.442,160.585 103.940 C 162.325 104.569,163.052 105.447,164.121 108.207 C 164.615 109.482,165.285 110.655,165.609 110.814 C 165.934 110.973,166.885 111.396,167.721 111.755 C 169.870 112.676,170.778 114.814,170.797 119.000 C 170.815 122.768,170.998 123.143,173.227 123.972 C 175.949 124.983,176.576 126.192,176.737 130.728 C 176.885 134.888,177.242 135.723,179.071 136.182 C 181.758 136.856,182.874 138.539,183.594 143.000 C 184.147 146.429,184.601 147.600,185.378 147.600 C 186.497 147.600,188.776 150.026,189.265 151.737 C 189.890 153.925,190.274 154.374,192.238 155.216 C 198.679 157.977,195.277 165.375,188.121 164.169 C 182.619 163.241,180.369 160.984,179.785 155.806 C 179.513 153.391,178.758 152.000,177.718 152.000 C 175.102 152.000,173.603 149.199,173.594 144.292 C 173.587 140.330,173.592 140.339,170.686 139.055 C 167.843 137.798,167.346 136.807,166.909 131.537 L 166.600 127.804 165.000 127.063 C 162.888 126.085,161.295 124.545,160.999 123.194 C 160.729 121.964,159.565 120.771,157.836 119.952 C 155.614 118.898,155.015 117.553,154.861 113.272 C 154.721 109.386,154.408 108.400,153.311 108.400 C 150.085 108.400,148.421 105.511,148.409 99.886 C 148.399 95.560,148.692 96.140,144.900 92.941 C 142.808 91.176,142.792 90.714,144.753 88.753 C 146.513 86.993,146.807 86.926,148.476 87.900 M211.638 99.419 C 214.520 100.910,214.397 99.606,214.399 128.641 L 214.400 154.682 213.487 156.041 C 211.456 159.065,207.404 158.875,205.483 155.666 C 204.570 154.141,204.409 104.848,205.308 102.122 C 206.210 99.385,209.147 98.131,211.638 99.419 M112.552 132.816 C 113.780 134.275,113.791 134.368,112.980 136.313 C 110.961 141.152,108.443 141.312,106.416 136.730 C 104.337 132.030,109.253 128.895,112.552 132.816 M305.074 131.580 C 307.563 133.098,307.780 135.389,305.815 139.404 C 303.795 143.534,301.367 142.332,300.017 136.533 C 299.133 132.732,302.138 129.789,305.074 131.580 M130.293 142.671 C 131.376 143.185,131.937 143.864,132.692 145.571 C 133.944 148.401,133.914 148.386,138.200 148.395 C 142.716 148.405,143.981 149.049,145.023 151.866 C 146.110 154.806,146.099 154.800,150.062 154.800 C 155.181 154.800,157.511 156.064,158.203 159.214 C 158.526 160.686,158.645 160.755,161.695 161.246 C 165.227 161.815,167.447 162.896,168.400 164.510 C 169.255 165.959,169.989 166.446,172.758 167.400 C 176.841 168.806,177.850 173.172,174.705 175.819 C 171.596 178.435,161.743 176.584,161.010 173.246 C 160.643 171.576,159.701 170.924,157.200 170.611 C 152.733 170.053,149.600 168.259,149.600 166.260 C 149.600 165.684,146.825 164.000,145.876 164.000 C 144.781 164.000,142.874 162.023,142.298 160.290 L 141.736 158.600 137.347 158.400 C 132.327 158.171,131.154 157.664,130.136 155.280 C 128.900 152.389,129.127 152.624,126.384 151.413 C 123.187 150.003,123.041 144.226,126.164 142.668 C 127.784 141.860,128.584 141.860,130.293 142.671 M287.476 143.013 C 290.883 145.245,289.653 150.725,285.439 152.093 C 284.580 152.372,283.752 152.870,283.598 153.200 C 282.241 156.102,281.790 156.752,280.676 157.411 C 279.735 157.968,278.306 158.224,275.232 158.383 L 271.064 158.600 270.503 160.285 C 269.787 162.442,268.725 163.444,266.007 164.528 C 264.692 165.053,263.639 165.768,263.362 166.326 C 262.040 168.979,260.016 170.056,255.278 170.626 C 252.921 170.909,252.745 171.046,251.484 173.570 C 249.169 178.206,238.949 178.155,236.667 173.496 C 235.112 170.322,237.533 167.877,243.037 167.063 C 247.398 166.418,247.371 166.433,248.373 164.168 C 249.033 162.677,249.497 162.231,251.084 161.567 C 253.992 160.349,254.079 160.279,255.176 158.260 C 256.746 155.372,257.905 154.806,262.251 154.803 C 266.270 154.800,266.271 154.800,267.731 151.945 C 269.134 149.203,270.268 148.622,274.529 148.462 C 278.504 148.312,279.333 147.935,279.791 146.071 C 280.663 142.522,284.436 141.021,287.476 143.013 M212.055 169.861 C 213.386 171.237,213.399 171.285,213.297 174.590 C 213.163 178.914,213.504 179.735,215.949 180.974 C 219.167 182.605,219.444 183.271,219.759 190.143 C 220.329 202.602,219.666 205.425,215.731 207.274 C 213.379 208.380,213.130 208.981,213.447 212.781 C 214.012 219.560,209.086 221.771,205.822 216.202 C 205.243 215.213,204.191 214.112,203.484 213.755 C 200.237 212.115,199.200 210.298,199.200 206.253 C 199.200 202.422,199.077 202.154,196.790 200.995 C 191.332 198.229,191.569 189.528,197.166 187.129 C 199.556 186.104,199.587 186.034,199.594 181.514 C 199.600 177.395,200.825 174.800,202.763 174.800 C 203.588 174.800,205.811 172.536,206.175 171.325 C 207.077 168.325,209.893 167.624,212.055 169.861 M208.382 183.300 C 207.914 183.795,207.284 184.674,206.980 185.252 C 206.332 186.489,204.167 188.400,203.414 188.400 C 201.614 188.400,201.009 189.786,201.131 193.632 C 201.278 198.242,201.407 198.477,204.384 199.562 C 205.848 200.096,207.356 201.012,208.198 201.880 L 209.592 203.314 210.696 200.957 C 212.248 197.643,212.323 184.353,210.796 183.116 C 209.657 182.194,209.407 182.213,208.382 183.300 M173.413 187.405 C 176.425 188.963,176.506 196.795,173.535 199.300 L 172.230 200.400 134.015 200.379 C 91.348 200.357,90.811 200.334,89.168 198.495 C 86.059 195.015,86.179 188.953,89.390 187.306 C 91.379 186.285,171.429 186.380,173.413 187.405 M322.952 187.354 C 325.922 188.595,326.528 191.464,324.990 197.004 C 323.970 200.676,327.092 200.405,286.338 200.366 C 245.552 200.328,246.334 200.369,244.620 198.191 C 243.138 196.308,240.036 193.200,239.639 193.200 C 239.480 193.200,238.959 192.671,238.481 192.024 L 237.611 190.848 238.649 189.615 C 239.980 188.033,240.974 187.499,243.200 187.172 C 247.129 186.594,321.539 186.764,322.952 187.354 M62.600 201.986 C 63.532 203.556,65.627 205.699,67.892 207.400 C 68.771 208.060,69.761 209.069,70.093 209.641 C 70.424 210.214,71.484 211.115,72.448 211.645 C 73.773 212.372,74.505 213.181,75.452 214.961 C 76.998 217.867,77.105 217.927,81.412 218.258 C 85.437 218.567,87.004 219.527,88.147 222.385 C 88.494 223.251,89.132 224.150,89.566 224.382 C 90.114 224.675,126.330 224.803,208.277 224.801 C 337.498 224.797,328.468 224.602,330.533 227.448 C 331.431 228.685,332.715 229.723,334.621 230.754 C 337.087 232.087,337.526 232.509,338.517 234.507 C 339.159 235.799,339.985 236.868,340.460 237.019 C 344.010 238.146,344.301 239.301,344.564 253.324 C 344.830 267.472,344.922 266.998,341.388 269.609 C 340.179 270.502,338.740 271.944,338.192 272.812 C 336.629 275.288,335.169 275.710,329.200 275.409 C 322.351 275.065,320.940 275.065,315.260 275.412 C 304.776 276.051,302.028 274.732,300.210 268.188 C 299.042 263.982,298.836 263.640,297.189 263.197 C 292.376 261.901,291.230 253.490,295.412 250.155 C 297.330 248.626,299.185 246.773,300.338 245.233 C 303.611 240.865,307.871 243.864,307.394 250.200 C 307.050 254.751,306.697 255.415,303.542 257.437 C 300.308 259.510,300.260 260.412,303.306 261.880 C 305.160 262.773,305.485 263.119,307.656 266.500 L 308.875 268.400 312.938 268.413 C 315.172 268.420,318.225 268.584,319.723 268.777 C 325.793 269.560,329.218 268.450,331.117 265.085 C 331.922 263.658,332.795 262.704,333.676 262.286 C 334.411 261.937,335.459 261.175,336.006 260.592 L 337.000 259.533 336.929 250.509 C 336.834 238.476,337.168 239.173,331.156 238.455 C 327.515 238.020,326.324 237.321,325.174 234.946 C 323.650 231.798,323.854 231.839,311.276 232.152 C 296.909 232.510,297.017 232.491,295.154 234.956 C 294.342 236.032,292.765 237.439,291.651 238.082 C 290.537 238.725,288.945 240.062,288.113 241.053 C 286.162 243.376,285.279 243.815,281.400 244.391 C 277.532 244.965,276.742 245.428,275.546 247.822 C 274.317 250.282,273.193 250.800,269.078 250.800 C 265.338 250.800,264.677 251.149,262.871 254.080 C 261.568 256.195,259.890 257.058,256.456 257.381 C 253.117 257.694,251.716 258.205,251.391 259.228 C 250.974 260.544,249.575 261.964,247.681 262.995 C 246.231 263.784,245.530 264.527,244.650 266.207 C 242.974 269.409,241.727 270.046,237.739 269.739 C 233.878 269.441,233.026 269.806,232.003 272.194 C 230.817 274.960,228.925 276.000,225.081 276.000 C 221.435 276.000,220.601 276.343,219.844 278.157 C 219.073 280.002,217.349 281.486,215.116 282.228 C 214.076 282.573,212.344 283.647,211.269 284.614 L 209.313 286.372 208.357 285.347 C 206.712 283.585,204.567 282.769,200.461 282.345 C 195.886 281.871,194.996 281.368,193.556 278.440 C 192.204 275.689,192.050 275.614,187.800 275.605 C 183.519 275.596,182.198 274.983,180.750 272.336 C 180.103 271.154,179.275 270.345,178.153 269.800 C 175.835 268.673,175.176 268.038,174.319 266.105 C 173.341 263.901,172.688 263.600,168.885 263.600 C 165.002 263.600,163.461 262.757,162.085 259.881 C 160.973 257.558,160.165 257.200,156.028 257.200 C 152.450 257.200,151.329 256.604,150.000 254.000 C 148.835 251.716,147.621 250.977,144.120 250.419 C 141.100 249.938,140.936 249.854,139.000 247.791 C 137.782 246.493,136.091 245.234,134.676 244.572 C 132.536 243.570,130.400 241.532,130.400 240.491 C 130.400 239.227,128.301 238.400,125.093 238.400 C 121.392 238.400,119.684 237.627,118.670 235.494 C 117.198 232.396,116.153 231.900,111.332 232.010 C 108.949 232.065,103.244 232.085,98.653 232.055 L 90.306 232.000 88.753 230.447 C 87.899 229.593,87.200 228.553,87.200 228.136 C 87.200 226.067,86.228 225.600,81.924 225.600 C 76.621 225.600,75.364 225.182,73.508 222.805 C 72.103 221.006,71.856 220.866,69.308 220.423 C 67.818 220.165,66.224 219.878,65.765 219.785 C 64.386 219.508,62.831 218.034,61.827 216.054 C 61.280 214.973,60.245 213.768,59.372 213.193 C 56.793 211.496,56.225 210.370,56.000 206.513 C 55.615 199.900,59.698 197.099,62.600 201.986 M136.052 232.368 C 130.292 233.074,131.760 236.715,137.856 236.842 C 141.597 236.921,143.021 237.696,144.406 240.411 C 145.963 243.463,139.881 243.202,209.479 243.197 C 276.625 243.193,273.578 243.294,274.406 241.048 C 275.169 238.978,275.419 238.636,276.838 237.723 C 280.702 235.233,280.998 234.701,279.368 233.170 L 278.336 232.200 208.268 232.153 C 169.731 232.126,137.233 232.223,136.052 232.368 M167.556 251.092 C 164.913 251.303,163.210 253.029,164.307 254.385 C 164.930 255.154,165.612 255.347,168.716 255.634 C 172.531 255.986,174.800 256.798,174.800 257.810 C 174.800 258.135,174.968 258.400,175.173 258.400 C 175.378 258.400,175.670 258.805,175.820 259.300 C 176.262 260.750,177.209 261.567,178.755 261.833 C 182.910 262.549,184.592 263.295,186.400 265.225 C 187.436 266.330,189.186 267.606,190.524 268.231 C 192.704 269.249,194.800 271.271,194.800 272.356 C 194.800 272.620,195.242 273.278,195.782 273.818 L 196.764 274.800 206.408 274.800 C 216.980 274.800,217.296 274.737,218.029 272.503 C 219.261 268.742,220.829 267.784,225.113 268.172 C 228.675 268.495,229.584 268.056,230.732 265.461 C 231.604 263.490,233.339 262.048,236.026 261.061 C 237.031 260.692,239.066 259.593,240.550 258.618 C 242.187 257.543,244.142 256.647,245.524 256.339 C 249.367 255.481,250.407 253.875,248.358 251.960 L 247.115 250.800 208.258 250.872 C 186.886 250.912,168.570 251.011,167.556 251.092 M211.792 294.115 C 212.678 294.617,213.771 295.706,214.257 296.573 C 215.376 298.568,215.708 298.732,219.251 299.048 C 222.981 299.381,224.180 299.993,225.240 302.108 C 226.905 305.430,227.663 305.914,231.699 306.229 C 238.467 306.759,240.240 311.424,234.200 312.810 C 230.324 313.699,184.100 313.326,182.792 312.394 C 179.794 310.259,180.266 307.905,184.083 305.958 C 184.954 305.513,185.966 304.599,186.333 303.925 C 188.430 300.072,189.996 299.171,194.059 299.478 C 197.700 299.753,198.520 299.387,199.651 296.980 C 201.481 293.088,207.479 291.672,211.792 294.115 M202.139 301.388 C 199.432 303.283,201.651 305.592,206.469 305.892 L 209.807 306.101 211.084 304.794 C 212.539 303.306,212.179 301.555,210.316 301.056 C 208.461 300.559,203.006 300.781,202.139 301.388 " stroke="none" fill="#0c131b" fill-rule="evenodd"></path><path id="path2" d="M207.241 76.214 C 205.641 78.037,205.676 78.484,207.577 80.515 C 209.385 82.447,210.460 82.238,212.289 79.598 C 213.451 77.920,211.067 73.600,209.721 74.946 C 209.581 75.086,209.670 75.200,209.919 75.200 C 212.076 75.200,212.479 78.919,210.477 80.345 L 209.353 81.146 207.860 79.778 C 206.216 78.273,206.243 77.958,208.191 75.900 C 208.764 75.295,209.064 74.800,208.858 74.800 C 208.652 74.800,207.924 75.436,207.241 76.214 M264.400 86.441 C 262.824 87.083,261.625 88.422,261.195 90.020 C 260.860 91.261,260.518 91.599,259.011 92.175 C 255.874 93.373,254.975 95.107,254.188 101.474 C 253.943 103.459,253.853 103.587,252.066 104.474 C 249.567 105.714,248.619 107.508,248.029 112.111 C 247.481 116.380,247.550 116.230,245.998 116.540 C 244.231 116.894,242.939 118.400,242.188 120.982 C 241.668 122.770,241.306 123.330,240.465 123.643 C 236.566 125.094,236.000 126.102,236.000 131.585 C 236.000 135.385,235.467 136.400,233.471 136.400 C 231.265 136.400,229.791 139.337,229.002 145.304 C 228.765 147.094,228.638 147.262,226.878 148.104 C 225.279 148.870,224.897 149.291,224.257 151.000 C 222.793 154.908,222.393 155.622,221.477 155.971 C 220.675 156.276,218.000 158.914,218.000 159.400 C 218.000 160.121,220.733 162.455,221.937 162.763 C 229.306 164.645,232.175 162.841,233.011 155.800 C 233.298 153.383,234.051 152.000,235.082 152.000 C 237.897 152.000,239.343 149.566,239.595 144.402 L 239.800 140.203 241.400 139.462 C 243.700 138.396,244.689 137.342,245.401 135.198 C 246.041 133.270,246.415 132.791,248.714 130.954 C 250.409 129.601,250.997 128.421,251.722 124.919 C 252.444 121.430,252.500 121.336,254.313 120.579 C 257.454 119.266,258.052 118.099,258.370 112.662 L 258.600 108.723 260.591 108.062 C 263.013 107.257,264.224 105.651,264.563 102.796 C 265.346 96.203,265.089 96.891,267.138 95.885 C 268.969 94.985,270.802 92.447,270.799 90.815 C 270.792 88.187,266.805 85.461,264.400 86.441 M144.753 88.753 C 142.792 90.714,142.808 91.176,144.900 92.941 C 148.692 96.140,148.399 95.560,148.409 99.886 C 148.421 105.511,150.085 108.400,153.311 108.400 C 154.408 108.400,154.721 109.386,154.861 113.272 C 155.015 117.553,155.614 118.898,157.836 119.952 C 159.565 120.771,160.729 121.964,160.999 123.194 C 161.295 124.545,162.888 126.085,165.000 127.063 L 166.600 127.804 166.909 131.537 C 167.346 136.807,167.843 137.798,170.686 139.055 C 173.592 140.339,173.587 140.330,173.594 144.292 C 173.603 149.199,175.102 152.000,177.718 152.000 C 178.758 152.000,179.513 153.391,179.785 155.806 C 180.369 160.984,182.619 163.241,188.121 164.169 C 195.277 165.375,198.679 157.977,192.238 155.216 C 190.274 154.374,189.890 153.925,189.265 151.737 C 188.776 150.026,186.497 147.600,185.378 147.600 C 184.601 147.600,184.147 146.429,183.594 143.000 C 182.874 138.539,181.758 136.856,179.071 136.182 C 177.242 135.723,176.885 134.888,176.737 130.728 C 176.576 126.192,175.949 124.983,173.227 123.972 C 170.998 123.143,170.815 122.768,170.797 119.000 C 170.778 114.814,169.870 112.676,167.721 111.755 C 166.885 111.396,165.934 110.973,165.609 110.814 C 165.285 110.655,164.615 109.482,164.121 108.207 C 163.052 105.447,162.325 104.569,160.585 103.940 C 159.207 103.442,158.400 101.134,158.400 97.694 C 158.400 94.600,156.337 92.475,152.665 91.786 C 151.477 91.563,151.014 91.205,150.422 90.052 C 149.713 88.672,147.839 87.200,146.791 87.200 C 146.524 87.200,145.607 87.899,144.753 88.753 M267.537 88.960 C 269.333 90.572,269.361 91.061,267.751 92.801 C 266.937 93.681,266.050 94.400,265.780 94.400 C 264.145 94.400,263.462 95.817,263.204 99.746 C 262.909 104.229,262.341 105.319,259.608 106.648 C 257.196 107.822,256.800 108.516,256.798 111.576 C 256.794 116.031,255.101 119.200,252.724 119.200 C 251.819 119.200,250.933 120.423,250.636 122.083 C 250.201 124.510,248.794 127.275,246.943 129.341 C 245.986 130.409,244.888 132.187,244.502 133.292 C 243.631 135.784,241.692 137.998,240.372 138.006 C 238.415 138.018,238.209 138.472,238.065 143.085 C 237.909 148.070,237.187 149.555,234.504 150.420 C 232.302 151.129,232.135 151.355,231.416 154.587 C 231.001 156.451,230.317 158.147,229.554 159.199 L 228.349 160.863 225.274 160.589 C 221.735 160.274,219.242 158.400,222.362 158.400 C 223.538 158.400,224.441 157.004,224.753 154.705 C 225.118 152.020,226.313 150.282,228.358 149.464 C 230.172 148.738,230.601 147.752,230.948 143.510 C 231.252 139.794,232.961 137.600,235.552 137.600 C 237.217 137.600,237.600 136.604,237.601 132.271 C 237.603 127.461,238.192 126.102,240.770 124.965 C 241.989 124.427,242.619 123.800,243.251 122.495 C 244.466 119.986,245.821 118.521,247.416 117.995 C 249.237 117.394,249.455 116.891,249.796 112.505 C 250.091 108.728,251.876 105.600,253.738 105.600 C 254.966 105.600,255.631 104.089,256.046 100.353 C 256.545 95.863,257.480 94.279,260.034 93.591 C 261.392 93.225,261.763 92.887,262.377 91.453 C 263.184 89.572,265.404 87.446,266.134 87.857 C 266.390 88.001,267.022 88.497,267.537 88.960 M147.644 91.316 C 146.973 91.987,145.814 91.306,146.408 90.590 C 146.795 90.124,147.032 90.095,147.470 90.458 C 147.836 90.762,147.897 91.063,147.644 91.316 M154.384 94.254 C 155.990 95.203,156.717 96.693,157.208 100.040 C 157.775 103.902,158.181 104.834,159.723 105.805 C 160.425 106.248,161.569 107.508,162.264 108.605 C 163.579 110.680,164.252 111.418,167.106 113.910 L 168.811 115.400 169.064 119.200 C 169.392 124.141,169.644 124.800,171.204 124.800 C 174.116 124.800,175.200 126.708,175.200 131.834 C 175.200 136.164,175.562 137.082,177.411 137.428 C 180.495 138.007,181.716 139.919,182.205 144.936 C 182.486 147.820,182.695 148.155,185.200 149.735 C 186.061 150.279,187.083 151.525,187.856 152.975 C 188.622 154.411,189.560 155.559,190.256 155.913 C 193.878 157.752,194.550 159.389,192.579 161.571 L 191.157 163.144 189.079 162.534 C 184.400 161.159,182.536 159.284,181.392 154.800 C 180.603 151.709,180.388 151.412,178.247 150.453 C 175.324 149.145,175.026 148.525,174.800 143.268 L 174.600 138.617 173.400 138.261 C 169.623 137.142,168.871 136.047,168.547 131.200 C 168.237 126.570,168.230 126.555,165.566 125.251 C 163.867 124.419,163.166 123.766,162.209 122.123 C 161.544 120.981,160.273 119.522,159.384 118.882 C 156.830 117.040,156.402 116.103,156.387 112.314 C 156.373 108.486,156.094 107.955,153.520 106.851 C 150.488 105.552,149.901 104.311,150.063 99.551 C 150.241 94.327,151.628 92.626,154.384 94.254 M207.159 99.715 C 204.804 101.299,204.819 101.122,204.791 129.041 C 204.763 157.566,204.600 155.959,207.710 157.716 C 209.689 158.833,212.076 158.141,213.487 156.041 L 214.400 154.682 214.399 128.641 C 214.397 103.519,214.369 102.555,213.616 101.319 C 212.100 98.832,209.449 98.174,207.159 99.715 M212.091 102.150 C 212.730 102.935,212.783 104.944,212.791 128.540 L 212.800 154.080 211.440 155.440 C 209.711 157.169,209.135 157.148,207.598 155.300 L 206.351 153.800 206.384 128.617 C 206.420 101.705,206.322 103.055,208.394 100.878 C 209.373 99.850,210.551 100.255,212.091 102.150 M107.778 131.673 C 105.683 133.513,105.422 134.482,106.416 136.730 C 108.076 140.483,109.208 141.056,111.101 139.100 C 114.290 135.805,114.026 132.875,110.368 130.984 C 109.285 130.423,109.165 130.455,107.778 131.673 M301.622 131.843 C 299.294 133.802,299.202 136.242,301.312 140.081 C 303.184 143.487,306.358 141.066,307.080 135.683 C 307.557 132.124,304.142 129.722,301.622 131.843 M111.722 133.683 C 112.515 134.744,111.482 137.804,109.884 139.130 C 108.563 140.226,106.761 135.059,107.862 133.330 C 109.139 131.325,110.022 131.405,111.722 133.683 M304.831 132.769 C 306.218 134.156,306.289 135.196,305.200 138.109 C 303.710 142.091,303.434 142.187,302.069 139.200 C 300.230 135.173,300.194 134.663,301.638 133.018 C 303.146 131.300,303.346 131.285,304.831 132.769 M126.164 142.668 C 123.041 144.226,123.187 150.003,126.384 151.413 C 129.127 152.624,128.900 152.389,130.136 155.280 C 131.154 157.664,132.327 158.171,137.347 158.400 L 141.736 158.600 142.298 160.290 C 142.874 162.023,144.781 164.000,145.876 164.000 C 146.825 164.000,149.600 165.684,149.600 166.260 C 149.600 168.259,152.733 170.053,157.200 170.611 C 159.701 170.924,160.643 171.576,161.010 173.246 C 161.743 176.584,171.596 178.435,174.705 175.819 C 177.850 173.172,176.841 168.806,172.758 167.400 C 169.989 166.446,169.255 165.959,168.400 164.510 C 167.447 162.896,165.227 161.815,161.695 161.246 C 158.645 160.755,158.526 160.686,158.203 159.214 C 157.511 156.064,155.181 154.800,150.062 154.800 C 146.099 154.800,146.110 154.806,145.023 151.866 C 143.981 149.049,142.716 148.405,138.200 148.395 C 133.914 148.386,133.944 148.401,132.692 145.571 C 131.270 142.354,128.903 141.301,126.164 142.668 M282.530 142.565 C 281.148 143.187,280.202 144.397,279.791 146.071 C 279.333 147.935,278.504 148.312,274.529 148.462 C 270.268 148.622,269.134 149.203,267.731 151.945 C 266.271 154.800,266.270 154.800,262.251 154.803 C 257.905 154.806,256.746 155.372,255.176 158.260 C 254.079 160.279,253.992 160.349,251.084 161.567 C 249.497 162.231,249.033 162.677,248.373 164.168 C 247.371 166.433,247.398 166.418,243.037 167.063 C 237.533 167.877,235.112 170.322,236.667 173.496 C 238.949 178.155,249.169 178.206,251.484 173.570 C 252.745 171.046,252.921 170.909,255.278 170.626 C 260.016 170.056,262.040 168.979,263.362 166.326 C 263.639 165.768,264.692 165.053,266.007 164.528 C 268.725 163.444,269.787 162.442,270.503 160.285 L 271.064 158.600 275.232 158.383 C 278.306 158.224,279.735 157.968,280.676 157.411 C 281.790 156.752,282.241 156.102,283.598 153.200 C 283.752 152.870,284.580 152.372,285.439 152.093 C 288.607 151.064,290.242 147.911,289.066 145.096 C 288.020 142.593,285.036 141.437,282.530 142.565 M130.187 145.013 C 130.976 145.803,131.600 146.828,131.600 147.337 C 131.600 149.424,132.382 149.789,137.167 149.935 L 141.600 150.071 142.800 151.527 C 143.460 152.327,144.000 153.391,144.000 153.891 C 144.000 155.852,145.231 156.400,149.638 156.400 C 154.246 156.400,155.433 156.922,156.766 159.534 C 157.788 161.536,158.621 162.176,161.257 162.988 C 162.542 163.383,164.347 164.371,165.445 165.278 C 167.517 166.990,169.341 168.014,171.641 168.757 C 177.395 170.617,175.931 174.935,169.487 175.113 C 164.559 175.249,163.805 174.935,162.290 172.121 C 161.108 169.924,160.798 169.743,155.487 168.168 C 153.715 167.643,152.892 167.127,151.970 165.962 C 151.213 165.006,149.795 163.983,148.150 163.206 C 145.331 161.874,143.600 160.328,143.600 159.142 C 143.600 157.362,142.264 156.800,138.031 156.800 C 133.302 156.800,131.994 156.067,131.070 152.899 C 130.575 151.203,130.396 151.024,128.682 150.525 C 126.905 150.007,124.800 148.027,124.800 146.876 C 124.800 146.224,127.524 143.600,128.200 143.600 C 128.515 143.600,129.409 144.236,130.187 145.013 M286.640 144.960 C 287.388 145.708,288.000 146.629,288.000 147.007 C 288.000 148.089,285.052 150.800,283.876 150.800 C 282.690 150.800,281.600 151.746,281.600 152.775 C 281.600 155.197,278.662 156.800,274.220 156.800 C 270.637 156.800,269.200 157.441,269.200 159.038 C 269.200 160.409,267.462 162.054,264.561 163.431 C 262.928 164.206,261.296 165.292,260.935 165.843 C 260.038 167.211,257.925 168.217,254.420 168.942 C 251.377 169.572,250.936 169.880,250.551 171.641 C 249.940 174.439,248.880 175.000,244.205 175.000 L 239.934 175.000 238.760 173.686 C 236.588 171.254,238.992 169.022,244.258 168.584 C 247.839 168.286,249.600 167.387,249.600 165.860 C 249.600 165.095,252.084 162.943,253.788 162.231 C 254.603 161.890,255.416 161.130,255.818 160.332 C 257.488 157.020,258.566 156.400,262.652 156.400 C 267.381 156.400,268.276 156.067,268.630 154.180 C 268.793 153.311,269.453 152.174,270.265 151.362 L 271.627 150.000 275.764 150.000 C 280.332 150.000,280.381 149.976,281.137 147.329 C 282.118 143.896,284.535 142.855,286.640 144.960 M207.557 169.549 C 205.573 171.533,205.526 172.449,207.491 170.829 C 209.710 169.000,211.371 169.914,212.443 173.555 C 212.900 175.107,213.002 175.214,213.329 174.481 C 213.929 173.136,213.300 171.051,211.896 169.732 C 209.844 167.806,209.322 167.784,207.557 169.549 M89.390 187.306 C 86.179 188.953,86.059 195.015,89.168 198.495 C 90.811 200.334,91.348 200.357,134.015 200.379 L 172.230 200.400 173.535 199.300 C 176.506 196.795,176.425 188.963,173.413 187.405 C 171.429 186.380,91.379 186.285,89.390 187.306 M243.200 187.172 C 240.974 187.499,239.980 188.033,238.649 189.615 L 237.611 190.848 238.481 192.024 C 238.959 192.671,239.480 193.200,239.639 193.200 C 240.036 193.200,243.138 196.308,244.620 198.191 C 246.334 200.369,245.552 200.328,286.338 200.366 C 327.092 200.405,323.970 200.676,324.990 197.004 C 326.528 191.464,325.922 188.595,322.952 187.354 C 321.539 186.764,247.129 186.594,243.200 187.172 M194.753 188.753 L 193.200 190.306 193.200 194.099 C 193.200 198.543,193.653 199.405,196.833 201.017 C 199.031 202.130,199.140 202.385,199.319 206.800 C 199.438 209.736,199.443 209.720,199.521 206.082 C 199.603 202.210,198.821 200.400,197.065 200.400 C 195.578 200.400,193.494 197.184,193.753 195.291 C 193.889 194.300,194.000 192.772,194.000 191.897 C 194.000 190.582,194.270 190.036,195.553 188.753 C 196.407 187.899,196.926 187.200,196.706 187.200 C 196.486 187.200,195.607 187.899,194.753 188.753 M162.686 189.122 C 174.378 189.458,174.111 189.349,173.036 193.323 L 172.342 195.888 169.310 196.144 C 165.402 196.474,96.566 196.395,93.400 196.057 L 91.000 195.800 89.913 193.600 C 88.583 190.909,88.586 190.977,89.738 189.826 L 90.676 188.888 121.838 188.866 C 138.977 188.853,157.359 188.968,162.686 189.122 M322.997 190.015 L 324.011 191.029 323.174 193.815 L 322.336 196.600 287.868 196.498 C 247.518 196.378,247.909 196.403,245.414 193.836 C 244.426 192.819,243.134 191.803,242.543 191.578 C 240.384 190.758,243.479 189.617,249.000 189.198 C 251.200 189.031,268.521 188.918,287.491 188.947 L 321.982 189.000 322.997 190.015 M200.901 193.400 C 200.905 194.280,200.987 194.593,201.083 194.095 C 201.179 193.598,201.175 192.878,201.075 192.495 C 200.975 192.113,200.896 192.520,200.901 193.400 M58.030 200.236 C 57.338 200.819,56.493 201.859,56.154 202.548 C 55.598 203.674,55.723 203.610,57.400 201.903 C 59.773 199.487,60.473 199.760,62.927 204.062 C 63.511 205.086,64.754 206.526,65.689 207.262 C 66.624 207.998,68.118 209.320,69.008 210.200 C 69.898 211.080,71.474 212.287,72.509 212.882 C 73.906 213.685,74.561 214.386,75.046 215.598 C 75.855 217.619,76.858 218.148,81.117 218.797 C 83.148 219.107,84.928 219.636,85.707 220.161 C 86.830 220.917,87.264 221.534,88.407 224.000 C 88.561 224.330,89.026 224.652,89.443 224.715 C 90.157 224.823,90.159 224.804,89.486 224.387 C 89.093 224.143,88.489 223.239,88.144 222.377 C 87.004 219.527,85.434 218.567,81.412 218.258 C 77.105 217.927,76.998 217.867,75.452 214.961 C 74.505 213.181,73.773 212.372,72.448 211.645 C 71.484 211.115,70.424 210.214,70.093 209.641 C 69.761 209.069,68.771 208.060,67.892 207.400 C 65.627 205.699,63.532 203.556,62.600 201.986 C 61.172 199.581,59.547 198.959,58.030 200.236 M218.986 202.083 C 218.764 203.398,218.240 204.216,216.589 205.828 L 214.476 207.890 215.992 207.158 C 218.333 206.027,219.600 204.275,219.600 202.169 C 219.600 199.941,219.354 199.906,218.986 202.083 M56.128 207.200 C 56.128 208.630,56.201 209.215,56.289 208.500 C 56.378 207.785,56.378 206.615,56.289 205.900 C 56.201 205.185,56.128 205.770,56.128 207.200 M56.697 210.600 C 57.220 211.575,58.692 212.942,59.875 213.551 C 60.356 213.799,61.256 214.941,61.875 216.089 C 63.175 218.501,65.173 220.020,66.959 219.954 C 67.800 219.922,67.942 219.845,67.400 219.714 C 65.310 219.210,63.913 218.191,62.920 216.448 C 61.613 214.154,60.426 212.800,59.723 212.800 C 59.428 212.800,58.529 212.125,57.727 211.300 C 56.924 210.475,56.461 210.160,56.697 210.600 M200.000 210.925 C 200.000 210.994,200.585 211.579,201.300 212.225 L 202.600 213.400 201.425 212.100 C 200.330 210.888,200.000 210.616,200.000 210.925 M212.644 213.956 C 212.061 218.345,209.807 219.562,207.120 216.939 L 205.133 215.000 206.007 216.502 C 208.700 221.129,213.600 219.554,213.600 214.062 C 213.600 211.448,212.985 211.380,212.644 213.956 M278.100 224.676 C 278.485 224.776,279.115 224.776,279.500 224.676 C 279.885 224.575,279.570 224.493,278.800 224.493 C 278.030 224.493,277.715 224.575,278.100 224.676 M326.176 225.609 C 327.264 226.034,328.974 227.185,329.976 228.168 C 330.979 229.150,332.320 230.150,332.955 230.388 C 334.513 230.973,334.742 230.639,333.217 230.007 C 332.552 229.731,331.384 228.638,330.621 227.577 C 329.213 225.616,327.571 224.782,325.200 224.821 C 324.452 224.833,324.698 225.032,326.176 225.609 M84.494 225.491 C 85.448 225.591,86.207 225.961,86.594 226.513 C 87.087 227.217,87.200 227.253,87.200 226.703 C 87.200 225.805,85.959 225.184,84.326 225.267 C 83.007 225.334,83.008 225.335,84.494 225.491 M87.570 229.143 C 88.827 231.493,90.169 232.004,94.931 231.946 C 99.793 231.886,99.668 231.778,94.282 231.383 C 91.081 231.148,90.600 231.001,88.960 229.749 C 87.724 228.805,87.287 228.615,87.570 229.143 M117.435 233.600 C 117.876 234.150,118.487 235.101,118.793 235.714 C 119.532 237.191,121.573 238.408,123.247 238.368 L 124.600 238.337 122.840 237.715 C 121.744 237.328,120.242 236.246,118.857 234.847 C 117.634 233.611,116.994 233.050,117.435 233.600 M325.483 235.596 C 326.518 237.239,328.500 238.409,330.194 238.378 C 331.338 238.356,331.308 238.318,329.625 237.636 C 328.649 237.240,327.120 236.305,326.227 235.558 L 324.602 234.200 325.483 235.596 M139.997 237.686 C 140.985 238.189,142.211 239.228,142.721 239.995 C 143.231 240.762,144.183 241.728,144.837 242.142 L 146.026 242.895 145.113 241.375 C 143.454 238.614,141.523 236.985,139.774 236.873 L 138.200 236.772 139.997 237.686 M288.967 239.314 C 288.509 239.581,287.316 240.478,286.317 241.307 C 285.317 242.137,283.532 243.174,282.350 243.612 L 280.200 244.409 282.363 244.182 C 284.826 243.924,286.268 243.274,287.353 241.932 C 287.767 241.419,288.566 240.505,289.128 239.900 C 290.250 238.692,290.220 238.584,288.967 239.314 M234.400 243.209 L 222.200 243.417 238.800 243.441 C 247.930 243.455,254.770 243.410,254.000 243.342 C 250.642 243.046,245.827 243.013,234.400 243.209 M302.185 243.555 C 301.533 243.957,300.640 244.694,300.200 245.193 L 299.400 246.100 300.994 245.250 C 303.981 243.657,306.134 245.005,306.635 248.782 C 306.942 251.094,307.583 250.811,307.594 248.359 C 307.607 245.211,304.286 242.261,302.185 243.555 M165.921 243.499 C 168.188 243.570,171.788 243.570,173.921 243.498 C 176.055 243.426,174.200 243.368,169.800 243.368 C 165.400 243.368,163.655 243.427,165.921 243.499 M136.434 245.394 C 137.003 245.703,138.134 246.769,138.949 247.763 C 139.935 248.968,140.925 249.708,141.915 249.983 C 144.162 250.607,144.868 250.427,142.741 249.772 C 141.535 249.401,140.425 248.674,139.577 247.700 C 138.198 246.116,136.469 244.796,135.800 244.819 C 135.580 244.826,135.865 245.085,136.434 245.394 M276.889 245.068 C 276.608 245.181,276.003 246.022,275.544 246.937 C 275.085 247.852,274.325 249.029,273.855 249.554 C 273.031 250.474,273.029 250.493,273.813 250.087 C 274.260 249.855,275.036 248.843,275.539 247.837 C 276.041 246.832,276.840 245.737,277.315 245.405 C 278.151 244.819,277.934 244.648,276.889 245.068 M191.100 250.700 C 199.295 250.760,212.705 250.760,220.900 250.700 C 229.095 250.639,222.390 250.590,206.000 250.590 C 189.610 250.590,182.905 250.639,191.100 250.700 M337.334 253.200 C 337.334 254.850,337.405 255.525,337.491 254.700 C 337.578 253.875,337.578 252.525,337.491 251.700 C 337.405 250.875,337.334 251.550,337.334 253.200 M148.653 252.032 C 149.122 252.564,149.794 253.569,150.145 254.265 C 151.164 256.281,152.633 257.205,154.754 257.164 L 156.600 257.128 154.749 256.618 C 152.362 255.960,152.172 255.830,150.770 253.895 C 150.123 253.002,149.190 251.999,148.697 251.667 L 147.800 251.064 148.653 252.032 M293.442 252.318 C 291.892 255.317,293.493 261.553,296.143 262.832 L 297.000 263.245 296.170 262.515 C 294.035 260.637,292.715 254.401,293.960 252.075 C 294.217 251.594,294.336 251.200,294.224 251.200 C 294.112 251.200,293.760 251.703,293.442 252.318 M171.800 256.293 C 172.240 256.403,173.095 256.845,173.700 257.274 C 174.305 257.703,174.800 257.867,174.800 257.638 C 174.800 257.097,172.651 255.986,171.720 256.046 C 171.106 256.086,171.118 256.122,171.800 256.293 M237.485 260.388 C 236.212 261.008,234.779 261.617,234.302 261.741 C 233.825 261.866,233.538 262.072,233.665 262.198 C 234.003 262.536,238.217 260.880,239.284 259.991 C 240.484 258.990,240.253 259.041,237.485 260.388 M162.462 260.800 C 163.575 262.596,165.506 263.604,167.759 263.565 L 169.800 263.530 167.092 262.832 C 165.337 262.380,163.937 261.724,163.113 260.967 C 161.925 259.876,161.883 259.865,162.462 260.800 M335.783 260.819 C 335.376 261.269,334.434 261.926,333.691 262.279 C 332.794 262.704,331.928 263.648,331.117 265.085 C 329.218 268.450,325.793 269.560,319.723 268.777 C 318.225 268.584,315.650 268.441,314.000 268.460 L 311.000 268.494 314.600 269.237 C 322.898 270.952,329.751 269.480,332.304 265.435 C 332.866 264.544,333.741 263.489,334.248 263.091 C 335.138 262.391,337.026 260.000,336.689 260.000 C 336.598 260.000,336.191 260.368,335.783 260.819 M344.250 262.800 C 343.792 265.683,343.483 266.390,342.129 267.655 C 339.155 270.435,337.725 271.996,336.895 273.371 C 335.665 275.410,336.704 274.978,338.136 272.856 C 338.760 271.930,340.243 270.455,341.430 269.578 C 344.231 267.508,344.870 266.248,344.719 263.084 L 344.600 260.600 344.250 262.800 M183.400 263.426 C 184.060 263.768,185.303 264.712,186.163 265.524 L 187.726 267.000 186.597 265.476 C 185.497 263.991,183.767 262.798,182.720 262.802 C 182.434 262.804,182.740 263.084,183.400 263.426 M245.060 264.578 C 244.367 265.336,243.194 266.686,242.454 267.578 C 241.586 268.623,240.776 269.200,240.177 269.200 C 239.666 269.200,239.136 269.380,239.000 269.600 C 238.561 270.310,240.859 270.029,242.184 269.210 C 242.887 268.776,243.976 267.471,244.604 266.310 C 245.233 265.150,246.029 263.981,246.373 263.713 C 246.718 263.445,246.847 263.220,246.660 263.213 C 246.473 263.206,245.753 263.820,245.060 264.578 M220.600 268.736 C 219.390 269.476,218.921 270.180,217.848 272.876 C 217.358 274.107,217.353 274.316,217.815 274.139 C 218.120 274.022,218.482 273.571,218.620 273.137 C 219.166 271.416,221.220 269.651,223.422 269.011 C 224.620 268.663,225.600 268.293,225.600 268.189 C 225.600 267.655,221.664 268.086,220.600 268.736 M180.646 272.140 C 182.194 274.953,183.493 275.608,187.400 275.546 L 190.600 275.495 187.048 275.047 L 183.496 274.600 181.537 272.400 L 179.579 270.200 180.646 272.140 M301.787 272.293 C 302.132 273.005,302.942 273.860,303.587 274.193 C 305.301 275.080,305.538 274.935,304.104 273.877 C 303.416 273.369,302.472 272.514,302.006 271.977 L 301.160 271.000 301.787 272.293 M208.300 275.082 C 208.795 275.178,209.605 275.178,210.100 275.082 C 210.595 274.987,210.190 274.909,209.200 274.909 C 208.210 274.909,207.805 274.987,208.300 275.082 M229.065 275.068 C 228.918 275.216,227.583 275.460,226.099 275.611 L 223.400 275.886 225.824 275.943 C 227.677 275.987,231.259 274.905,229.567 274.813 C 229.438 274.806,229.213 274.921,229.065 275.068 M314.400 275.200 C 312.994 275.650,316.842 275.669,319.000 275.223 C 320.478 274.917,320.401 274.892,318.000 274.886 C 316.570 274.883,314.950 275.024,314.400 275.200 M333.400 275.200 L 331.800 275.486 333.200 275.537 C 333.970 275.565,334.870 275.413,335.200 275.200 C 335.855 274.777,335.762 274.777,333.400 275.200 M191.956 275.964 C 192.262 276.158,192.982 277.272,193.556 278.440 C 194.844 281.060,195.971 281.858,198.800 282.155 L 201.000 282.386 198.800 281.543 C 196.203 280.548,194.899 279.475,194.149 277.714 C 193.848 277.007,193.253 276.242,192.827 276.014 C 191.887 275.512,191.177 275.471,191.956 275.964 M212.600 282.865 C 212.160 283.107,211.219 283.853,210.509 284.523 C 209.222 285.735,209.214 285.737,208.309 284.973 C 207.482 284.275,207.488 284.305,208.376 285.310 L 209.352 286.414 210.776 285.067 C 211.559 284.326,212.645 283.423,213.189 283.060 C 214.292 282.324,213.848 282.178,212.600 282.865 M201.687 294.300 C 201.068 294.905,200.963 295.065,201.455 294.655 C 201.946 294.245,202.944 293.768,203.674 293.596 C 204.920 293.301,204.934 293.279,203.906 293.241 C 203.213 293.215,202.400 293.603,201.687 294.300 M189.800 299.944 C 188.365 300.830,187.637 301.666,186.440 303.800 C 185.601 305.295,185.699 305.236,187.934 302.911 C 189.887 300.878,190.632 300.372,191.995 300.154 C 193.123 299.974,193.492 299.778,193.132 299.550 C 192.277 299.008,191.088 299.148,189.800 299.944 M211.619 301.800 C 211.615 302.020,211.780 302.466,211.986 302.791 C 212.242 303.195,212.157 303.606,211.718 304.091 C 211.365 304.481,211.256 304.800,211.476 304.800 C 212.670 304.800,213.238 303.335,212.424 302.357 C 211.985 301.831,211.623 301.580,211.619 301.800 M232.000 306.540 C 232.000 306.617,232.945 307.268,234.100 307.986 L 236.200 309.291 234.654 310.628 C 233.804 311.363,232.364 312.244,231.454 312.585 L 229.800 313.207 232.400 313.002 C 237.075 312.634,239.188 310.072,236.706 307.780 C 235.418 306.591,232.000 305.690,232.000 306.540 " stroke="none" fill="#74747c" fill-rule="evenodd"></path><path id="path3" d="M264.388 88.672 C 263.684 89.264,262.779 90.515,262.377 91.453 C 261.763 92.887,261.392 93.225,260.034 93.591 C 257.480 94.279,256.545 95.863,256.046 100.353 C 255.631 104.089,254.966 105.600,253.738 105.600 C 251.876 105.600,250.091 108.728,249.796 112.505 C 249.455 116.891,249.237 117.394,247.416 117.995 C 245.821 118.521,244.466 119.986,243.251 122.495 C 242.619 123.800,241.989 124.427,240.770 124.965 C 238.192 126.102,237.603 127.461,237.601 132.271 C 237.600 136.604,237.217 137.600,235.552 137.600 C 232.961 137.600,231.252 139.794,230.948 143.510 C 230.601 147.752,230.172 148.738,228.358 149.464 C 226.313 150.282,225.118 152.020,224.753 154.705 C 224.441 157.004,223.538 158.400,222.362 158.400 C 219.242 158.400,221.735 160.274,225.274 160.589 L 228.349 160.863 229.554 159.199 C 230.317 158.147,231.001 156.451,231.416 154.587 C 232.135 151.355,232.302 151.129,234.504 150.420 C 237.187 149.555,237.909 148.070,238.065 143.085 C 238.209 138.472,238.415 138.018,240.372 138.006 C 241.692 137.998,243.631 135.784,244.502 133.292 C 244.888 132.187,245.986 130.409,246.943 129.341 C 248.794 127.275,250.201 124.510,250.636 122.083 C 250.933 120.423,251.819 119.200,252.724 119.200 C 255.101 119.200,256.794 116.031,256.798 111.576 C 256.800 108.516,257.196 107.822,259.608 106.648 C 262.341 105.319,262.909 104.229,263.204 99.746 C 263.462 95.817,264.145 94.400,265.780 94.400 C 266.050 94.400,266.937 93.681,267.751 92.801 C 269.361 91.061,269.333 90.572,267.537 88.960 C 265.992 87.574,265.722 87.549,264.388 88.672 M266.543 91.664 C 266.004 92.258,265.757 92.305,265.239 91.912 C 264.888 91.645,264.526 91.377,264.436 91.316 C 264.345 91.255,264.600 90.842,265.001 90.399 C 265.684 89.644,265.776 89.635,266.468 90.262 C 267.158 90.886,267.163 90.978,266.543 91.664 M146.408 90.590 C 146.002 91.080,146.034 91.238,146.582 91.448 C 147.517 91.807,148.191 91.056,147.470 90.458 C 147.032 90.095,146.795 90.124,146.408 90.590 M151.322 94.565 C 148.298 97.164,149.741 105.232,153.520 106.851 C 156.094 107.955,156.373 108.486,156.387 112.314 C 156.402 116.103,156.830 117.040,159.384 118.882 C 160.273 119.522,161.544 120.981,162.209 122.123 C 163.166 123.766,163.867 124.419,165.566 125.251 C 168.230 126.555,168.237 126.570,168.547 131.200 C 168.871 136.047,169.623 137.142,173.400 138.261 L 174.600 138.617 174.800 143.268 C 175.026 148.525,175.324 149.145,178.247 150.453 C 180.388 151.412,180.603 151.709,181.392 154.800 C 182.536 159.284,184.400 161.159,189.079 162.534 L 191.157 163.144 192.579 161.571 C 194.550 159.389,193.878 157.752,190.256 155.913 C 189.560 155.559,188.622 154.411,187.856 152.975 C 187.083 151.525,186.061 150.279,185.200 149.735 C 182.695 148.155,182.486 147.820,182.205 144.936 C 181.716 139.919,180.495 138.007,177.411 137.428 C 175.562 137.082,175.200 136.164,175.200 131.834 C 175.200 126.708,174.116 124.800,171.204 124.800 C 169.644 124.800,169.392 124.141,169.064 119.200 L 168.811 115.400 167.106 113.910 C 164.252 111.418,163.579 110.680,162.264 108.605 C 161.569 107.508,160.425 106.248,159.723 105.805 C 158.181 104.834,157.775 103.902,157.208 100.040 C 156.425 94.702,153.898 92.351,151.322 94.565 M154.953 97.541 C 156.110 103.718,155.057 106.690,152.539 104.356 C 151.277 103.186,151.353 97.378,152.649 95.946 C 153.492 95.014,154.627 95.800,154.953 97.541 M261.114 99.865 C 261.222 103.262,261.178 103.482,260.187 104.412 L 259.147 105.390 258.442 104.455 C 257.568 103.297,257.724 97.568,258.670 96.070 C 259.922 94.088,260.982 95.734,261.114 99.865 M208.394 100.878 C 206.322 103.055,206.420 101.705,206.384 128.617 L 206.351 153.800 207.598 155.300 C 209.135 157.148,209.711 157.169,211.440 155.440 L 212.800 154.080 212.791 128.540 C 212.781 100.400,212.946 102.277,210.336 100.628 C 209.314 99.982,209.239 99.991,208.394 100.878 M210.469 102.662 C 211.162 103.290,211.200 104.615,211.200 128.392 L 211.200 153.461 210.243 154.359 L 209.286 155.258 208.643 154.340 C 208.069 153.520,208.000 150.747,208.000 128.485 C 208.000 101.013,208.051 100.475,210.469 102.662 M160.106 108.161 C 160.495 108.456,161.078 109.591,161.402 110.683 C 162.064 112.913,162.726 113.642,164.903 114.541 C 166.637 115.257,166.984 115.982,167.349 119.648 C 167.574 121.915,167.500 122.434,166.840 123.248 L 166.068 124.200 165.072 123.266 C 164.524 122.752,163.963 121.730,163.825 120.995 C 163.488 119.195,162.509 118.076,160.379 117.053 L 158.600 116.200 158.306 112.663 C 157.931 108.171,158.441 106.897,160.106 108.161 M254.998 109.199 C 255.300 110.161,254.524 116.036,254.029 116.531 C 252.260 118.300,250.640 110.474,252.389 108.611 C 253.353 107.586,254.577 107.862,254.998 109.199 M248.591 121.570 C 248.860 122.418,247.954 124.934,247.216 125.390 C 246.503 125.831,245.200 124.410,245.200 123.192 C 245.200 120.590,247.873 119.311,248.591 121.570 M174.000 131.470 C 174.000 134.314,173.878 134.922,173.164 135.636 L 172.328 136.472 171.364 135.566 C 169.974 134.260,169.912 128.485,171.275 127.216 L 172.150 126.401 173.075 127.270 C 173.898 128.044,174.000 128.506,174.000 131.470 M242.604 126.800 C 244.002 126.800,244.390 127.921,243.607 129.704 C 243.198 130.637,242.732 132.120,242.571 133.000 C 242.411 133.880,242.011 135.012,241.683 135.516 L 241.086 136.433 240.186 135.587 C 238.133 133.658,239.301 125.739,241.514 126.588 C 241.817 126.705,242.308 126.800,242.604 126.800 M180.136 143.800 C 180.417 147.119,180.260 147.833,179.115 148.445 C 176.713 149.731,175.036 142.164,177.236 139.964 L 178.072 139.128 178.979 139.980 C 179.702 140.659,179.936 141.433,180.136 143.800 M236.011 140.421 C 236.840 141.969,236.485 146.980,235.481 147.924 C 233.750 149.550,232.800 148.266,232.800 144.303 C 232.800 139.989,234.609 137.801,236.011 140.421 M126.213 145.013 C 124.079 147.148,125.127 149.488,128.682 150.525 C 130.396 151.024,130.575 151.203,131.070 152.899 C 131.994 156.067,133.302 156.800,138.031 156.800 C 142.264 156.800,143.600 157.362,143.600 159.142 C 143.600 160.328,145.331 161.874,148.150 163.206 C 149.795 163.983,151.213 165.006,151.970 165.962 C 152.892 167.127,153.715 167.643,155.487 168.168 C 160.798 169.743,161.108 169.924,162.290 172.121 C 163.805 174.935,164.559 175.249,169.487 175.113 C 175.931 174.935,177.395 170.617,171.641 168.757 C 169.341 168.014,167.517 166.990,165.445 165.278 C 164.347 164.371,162.542 163.383,161.257 162.988 C 158.621 162.176,157.788 161.536,156.766 159.534 C 155.433 156.922,154.246 156.400,149.638 156.400 C 145.231 156.400,144.000 155.852,144.000 153.891 C 144.000 153.391,143.460 152.327,142.800 151.527 L 141.600 150.071 137.167 149.935 C 132.382 149.789,131.600 149.424,131.600 147.337 C 131.600 146.333,129.114 143.600,128.200 143.600 C 127.885 143.600,126.991 144.236,126.213 145.013 M282.838 144.629 C 282.131 145.224,281.413 146.365,281.137 147.329 C 280.381 149.976,280.332 150.000,275.764 150.000 L 271.627 150.000 270.265 151.362 C 269.453 152.174,268.793 153.311,268.630 154.180 C 268.276 156.067,267.381 156.400,262.652 156.400 C 258.566 156.400,257.488 157.020,255.818 160.332 C 255.416 161.130,254.603 161.890,253.788 162.231 C 252.084 162.943,249.600 165.095,249.600 165.860 C 249.600 167.387,247.839 168.286,244.258 168.584 C 238.992 169.022,236.588 171.254,238.760 173.686 L 239.934 175.000 244.205 175.000 C 248.880 175.000,249.940 174.439,250.551 171.641 C 250.936 169.880,251.377 169.572,254.420 168.942 C 257.925 168.217,260.038 167.211,260.935 165.843 C 261.296 165.292,262.928 164.206,264.561 163.431 C 267.462 162.054,269.200 160.409,269.200 159.038 C 269.200 157.441,270.637 156.800,274.220 156.800 C 278.662 156.800,281.600 155.197,281.600 152.775 C 281.600 151.746,282.690 150.800,283.876 150.800 C 285.052 150.800,288.000 148.089,288.000 147.007 C 288.000 146.157,285.502 143.600,284.671 143.600 C 284.336 143.600,283.511 144.063,282.838 144.629 M129.589 147.620 C 129.010 148.702,128.292 148.782,127.298 147.877 L 126.396 147.056 127.270 146.126 L 128.144 145.196 129.056 146.053 C 129.748 146.703,129.877 147.082,129.589 147.620 M285.412 147.970 L 284.402 148.980 283.522 148.100 L 282.642 147.220 283.593 146.208 L 284.544 145.196 285.483 146.078 L 286.422 146.960 285.412 147.970 M185.609 152.300 C 186.642 153.611,186.496 156.248,185.343 157.091 C 184.026 158.054,182.317 153.797,183.373 152.185 C 184.196 150.929,184.542 150.947,185.609 152.300 M141.729 152.547 C 143.415 155.120,135.931 156.682,133.634 154.236 L 132.728 153.272 133.564 152.436 C 134.888 151.112,140.842 151.193,141.729 152.547 M229.349 152.449 C 229.748 153.018,229.833 153.577,229.610 154.149 C 229.426 154.617,229.072 155.526,228.822 156.169 C 228.263 157.605,227.496 157.042,226.880 154.744 C 226.271 152.478,228.148 150.733,229.349 152.449 M278.914 152.772 C 280.094 153.893,278.769 154.648,275.110 154.941 C 272.281 155.167,271.952 155.115,271.211 154.319 L 270.401 153.450 271.239 152.559 C 272.293 151.437,277.665 151.586,278.914 152.772 M154.311 158.623 C 154.917 159.047,155.198 159.652,155.195 160.523 C 155.182 163.517,154.123 164.631,152.626 163.225 C 151.740 162.392,148.792 161.200,147.619 161.200 C 146.732 161.200,145.155 159.514,145.518 158.954 C 146.245 157.835,152.832 157.586,154.311 158.623 M191.713 158.703 C 192.296 159.348,192.290 159.486,191.638 160.350 L 190.926 161.293 189.063 160.469 C 186.210 159.207,186.644 158.317,190.238 158.060 C 190.699 158.027,191.362 158.317,191.713 158.703 M267.197 158.794 C 267.766 159.717,266.208 161.070,263.954 161.611 C 262.874 161.870,261.385 162.493,260.645 162.995 C 258.916 164.169,258.339 163.788,258.101 161.315 C 257.810 158.286,258.411 157.894,263.080 158.064 C 265.853 158.164,266.925 158.355,267.197 158.794 M161.121 164.937 C 164.250 166.575,160.939 168.270,157.578 166.751 C 155.312 165.727,155.082 164.762,157.005 164.350 C 158.938 163.937,159.312 163.990,161.121 164.937 M257.240 165.049 C 257.840 165.771,257.719 165.880,255.298 166.800 C 253.318 167.552,253.299 167.551,252.423 166.736 L 251.541 165.914 252.351 165.053 C 253.290 164.053,256.412 164.050,257.240 165.049 M169.757 170.191 C 173.350 171.112,174.193 171.882,173.021 173.177 C 171.865 174.454,166.108 174.393,164.884 173.089 C 163.677 171.804,164.807 168.252,166.153 169.101 C 166.399 169.255,168.021 169.746,169.757 170.191 M248.171 171.281 C 248.741 172.094,248.720 172.234,247.894 173.122 C 246.235 174.904,238.996 173.750,239.736 171.821 C 240.368 170.176,247.096 169.745,248.171 171.281 M89.738 189.826 C 88.586 190.977,88.583 190.909,89.913 193.600 L 91.000 195.800 93.400 196.057 C 96.566 196.395,165.402 196.474,169.310 196.144 L 172.342 195.888 173.036 193.323 C 174.111 189.349,174.378 189.458,162.686 189.122 C 157.359 188.968,138.977 188.853,121.838 188.866 L 90.676 188.888 89.738 189.826 M249.000 189.198 C 243.479 189.617,240.384 190.758,242.543 191.578 C 243.134 191.803,244.426 192.819,245.414 193.836 C 247.909 196.403,247.518 196.378,287.868 196.498 L 322.336 196.600 323.174 193.815 L 324.011 191.029 322.997 190.015 L 321.982 189.000 287.491 188.947 C 268.521 188.918,251.200 189.031,249.000 189.198 " stroke="none" fill="#848484" fill-rule="evenodd"></path><path id="path4" d="M208.178 75.914 C 206.245 77.957,206.218 78.274,207.860 79.778 L 209.353 81.146 210.477 80.345 C 212.310 79.040,212.493 78.322,211.400 76.714 C 210.087 74.782,209.409 74.614,208.178 75.914 M108.988 131.916 C 107.474 132.973,107.122 134.403,107.853 136.530 C 109.132 140.248,109.643 140.267,111.467 136.668 C 112.458 134.713,112.461 134.673,111.722 133.683 C 110.738 132.364,109.496 131.562,108.988 131.916 M301.638 133.018 C 300.194 134.663,300.230 135.173,302.069 139.200 C 303.434 142.187,303.710 142.091,305.200 138.109 C 306.289 135.196,306.218 134.156,304.831 132.769 C 303.346 131.285,303.146 131.300,301.638 133.018 M109.727 135.046 C 109.541 135.531,109.419 135.554,109.171 135.153 C 108.796 134.546,109.100 133.891,109.610 134.206 C 109.805 134.327,109.858 134.705,109.727 135.046 M206.059 172.200 C 204.543 173.630,203.041 174.800,202.721 174.800 C 200.869 174.800,199.600 177.930,199.600 182.497 C 199.600 185.856,199.521 186.005,196.837 187.726 C 194.650 189.128,194.104 190.248,193.830 193.889 L 193.583 197.179 195.038 198.789 C 195.838 199.675,196.750 200.400,197.065 200.400 C 198.813 200.400,199.600 202.209,199.600 206.229 L 199.600 210.094 201.300 211.657 C 202.235 212.517,204.389 214.500,206.087 216.065 C 210.317 219.963,211.836 219.124,212.932 212.280 L 213.493 208.775 216.081 206.288 C 219.650 202.857,220.310 200.003,219.728 190.515 C 219.281 183.218,219.004 182.522,215.922 180.961 C 213.903 179.937,213.200 178.875,213.200 176.845 C 213.200 174.105,210.795 169.600,209.333 169.600 C 209.048 169.600,207.575 170.770,206.059 172.200 M209.771 175.291 L 209.499 178.298 207.057 178.519 C 205.199 178.688,204.446 178.950,203.908 179.615 L 203.200 180.489 203.200 179.294 C 203.200 178.133,203.264 178.094,205.414 177.915 C 208.146 177.689,208.366 177.474,208.644 174.769 C 208.940 171.896,209.123 171.363,209.635 171.875 C 209.891 172.131,209.942 173.406,209.771 175.291 M210.803 183.122 C 211.665 183.820,211.696 184.092,211.747 191.622 L 211.800 199.400 210.667 201.327 L 209.534 203.255 208.170 201.850 C 207.352 201.008,205.826 200.088,204.363 199.554 C 201.541 198.525,201.354 198.225,200.892 193.952 C 200.490 190.240,200.795 189.448,202.951 188.591 C 204.817 187.850,206.228 186.669,207.004 185.200 C 208.361 182.630,209.456 182.031,210.803 183.122 M215.899 199.278 C 215.829 201.765,215.771 199.840,215.770 195.000 C 215.770 190.160,215.828 188.125,215.898 190.478 C 215.969 192.831,215.969 196.791,215.899 199.278 M197.093 195.700 C 197.009 196.635,196.940 195.870,196.940 194.000 C 196.940 192.130,197.009 191.365,197.093 192.300 C 197.177 193.235,197.177 194.765,197.093 195.700 M57.614 201.701 C 56.253 203.107,56.007 203.598,56.185 204.550 C 56.303 205.183,56.400 206.652,56.400 207.816 C 56.400 209.992,58.272 212.800,59.723 212.800 C 60.426 212.800,61.613 214.154,62.920 216.448 C 64.082 218.488,65.062 219.067,69.346 220.245 C 71.767 220.910,72.265 221.221,73.546 222.865 C 75.447 225.303,77.122 225.808,82.140 225.455 C 86.296 225.163,87.069 225.450,87.275 227.360 C 87.646 230.804,90.419 231.494,105.369 231.857 L 116.139 232.119 118.665 234.620 C 121.390 237.319,123.655 238.400,126.582 238.400 C 128.573 238.400,129.758 239.169,130.644 241.037 C 131.474 242.786,133.287 244.190,135.462 244.768 C 136.594 245.069,137.806 245.893,139.269 247.356 C 141.133 249.220,141.727 249.563,143.807 249.977 C 147.199 250.652,149.382 251.831,150.574 253.632 C 152.154 256.020,153.207 256.476,159.284 257.404 C 160.455 257.582,161.003 257.978,161.884 259.279 C 163.512 261.683,164.609 262.317,168.400 263.044 C 173.042 263.934,173.485 264.151,174.208 265.881 C 175.066 267.934,176.144 268.993,178.158 269.763 C 179.243 270.177,180.521 271.180,181.691 272.535 L 183.525 274.659 187.832 275.130 C 192.132 275.599,194.000 276.285,194.000 277.395 C 194.000 279.343,198.279 281.825,202.981 282.605 C 204.668 282.884,207.354 284.101,208.491 285.101 C 209.121 285.654,209.327 285.578,210.790 284.256 C 211.837 283.311,213.223 282.575,214.763 282.146 C 217.398 281.414,219.013 280.146,219.844 278.157 C 220.577 276.402,221.330 276.057,225.307 275.653 C 229.683 275.210,230.784 274.653,231.902 272.313 C 233.030 269.952,233.422 269.757,237.593 269.485 C 241.234 269.247,241.950 268.786,244.543 265.015 C 244.952 264.421,246.122 263.577,247.143 263.140 C 249.338 262.201,250.565 261.133,251.195 259.612 C 251.791 258.173,252.863 257.718,256.456 257.381 C 259.890 257.058,261.568 256.195,262.871 254.080 C 264.669 251.162,265.346 250.800,269.004 250.800 C 272.885 250.800,273.853 250.253,275.412 247.177 C 276.256 245.511,276.640 245.167,278.098 244.771 C 282.655 243.533,284.642 242.697,286.323 241.311 C 287.331 240.480,289.387 239.170,290.894 238.400 C 292.893 237.378,294.037 236.460,295.132 235.000 C 297.023 232.479,296.864 232.507,311.452 232.152 L 322.703 231.878 325.252 234.450 C 327.785 237.007,330.090 238.143,334.472 238.993 C 336.393 239.366,336.652 240.004,337.014 245.266 C 337.838 257.226,337.521 259.632,334.743 262.519 C 333.642 263.664,332.487 265.081,332.176 265.668 C 330.167 269.473,323.219 270.811,314.028 269.163 L 308.657 268.200 307.550 266.400 C 305.609 263.245,305.171 262.779,303.306 261.880 C 300.260 260.412,300.308 259.510,303.542 257.437 C 307.081 255.169,307.504 254.231,306.858 250.078 C 305.908 243.969,303.170 242.778,299.250 246.769 C 298.233 247.805,296.896 248.966,296.281 249.348 C 291.936 252.047,292.866 261.405,297.662 263.245 C 298.778 263.672,299.159 264.400,300.156 268.000 C 301.651 273.400,306.115 276.138,312.283 275.440 C 319.748 274.594,322.227 274.524,324.400 275.097 C 329.204 276.363,335.959 275.307,337.117 273.110 C 337.800 271.811,340.247 269.070,341.000 268.758 C 343.922 267.548,344.723 263.420,344.519 250.620 C 344.346 239.714,344.228 239.270,340.998 237.378 C 339.987 236.785,339.107 235.909,338.886 235.276 C 338.198 233.303,336.457 231.678,334.083 230.797 C 332.678 230.276,331.108 229.275,330.000 228.193 C 326.366 224.647,340.112 225.026,206.844 224.800 C 102.337 224.623,88.655 224.531,88.408 224.000 C 87.257 221.524,86.830 220.917,85.707 220.161 C 84.928 219.636,83.148 219.107,81.117 218.797 C 76.858 218.148,75.855 217.619,75.046 215.598 C 74.561 214.386,73.906 213.685,72.509 212.882 C 71.474 212.287,69.898 211.080,69.008 210.200 C 68.118 209.320,66.624 207.998,65.689 207.262 C 64.754 206.526,63.511 205.086,62.927 204.062 C 60.521 199.844,59.745 199.499,57.614 201.701 M59.615 205.800 L 59.358 208.200 59.179 205.665 C 59.001 203.146,59.108 202.507,59.609 203.093 C 59.753 203.262,59.755 204.480,59.615 205.800 M204.752 207.742 C 205.011 208.055,206.209 208.434,207.412 208.584 L 209.600 208.858 209.600 212.495 C 209.600 216.634,209.457 216.803,208.835 213.400 C 208.347 210.729,207.687 210.000,205.756 210.000 C 203.311 210.000,203.197 209.831,203.234 206.257 L 203.268 203.000 203.774 205.086 C 204.052 206.234,204.492 207.429,204.752 207.742 M67.122 214.617 C 67.495 214.774,68.880 215.128,70.200 215.403 L 72.600 215.905 69.100 215.952 L 65.600 216.000 65.632 214.100 C 65.660 212.388,65.702 212.305,66.053 213.266 C 66.268 213.852,66.749 214.460,67.122 214.617 M80.800 222.038 C 81.422 222.069,81.137 222.218,80.044 222.433 C 78.198 222.795,77.417 222.620,77.839 221.938 C 77.977 221.714,78.475 221.634,78.945 221.760 C 79.415 221.886,80.250 222.011,80.800 222.038 M307.333 228.388 C 298.936 228.505,291.948 228.718,291.803 228.863 C 291.659 229.007,291.401 230.160,291.229 231.425 C 290.868 234.084,290.172 234.800,287.950 234.800 C 287.126 234.800,286.015 234.966,285.481 235.169 C 284.522 235.534,284.508 235.505,284.274 232.707 C 283.999 229.429,283.852 229.218,281.532 228.770 C 278.964 228.273,132.140 228.310,130.349 228.808 C 128.774 229.245,128.400 230.098,128.400 233.250 L 128.400 234.800 125.200 234.800 L 122.000 234.800 122.000 232.476 C 122.000 228.431,122.622 228.632,109.333 228.388 C 102.990 228.271,148.380 228.176,210.200 228.176 C 272.020 228.177,315.730 228.272,307.333 228.388 M279.621 233.436 L 280.856 234.672 279.528 235.764 C 278.798 236.365,277.587 237.249,276.838 237.728 C 275.417 238.637,275.171 238.973,274.399 241.066 C 273.489 243.530,277.223 243.400,209.117 243.349 L 146.835 243.302 145.239 242.351 C 144.362 241.828,143.228 240.770,142.719 240.000 C 141.517 238.182,138.776 236.800,136.369 236.800 C 131.532 236.800,131.257 232.955,136.052 232.368 C 137.233 232.223,169.742 232.126,208.292 232.153 L 278.385 232.200 279.621 233.436 M141.306 240.639 C 142.093 241.426,140.970 241.792,138.097 241.683 C 134.597 241.551,133.841 241.381,134.198 240.803 C 134.461 240.378,140.896 240.229,141.306 240.639 M341.198 254.500 L 341.195 266.200 338.698 266.314 C 334.743 266.493,334.800 266.445,334.800 269.627 L 334.800 272.400 331.300 272.322 C 327.865 272.245,327.852 272.241,330.600 272.108 C 334.018 271.944,334.400 271.548,334.400 268.174 L 334.400 265.702 336.433 265.506 C 340.390 265.126,340.741 263.979,340.776 251.300 C 340.789 246.625,340.890 242.800,341.000 242.800 C 341.110 242.800,341.199 248.065,341.198 254.500 M157.785 247.224 C 157.303 248.004,158.427 250.075,159.051 249.557 C 159.505 249.181,159.600 249.491,159.600 251.351 C 159.600 253.483,159.548 253.600,158.600 253.600 C 157.569 253.600,157.326 252.704,157.514 249.600 C 157.562 248.819,157.490 248.731,157.187 249.200 C 156.843 249.733,156.756 249.733,156.406 249.200 C 156.146 248.804,156.010 248.769,156.006 249.097 C 155.996 249.936,153.702 249.414,152.867 248.383 C 152.299 247.682,151.529 247.363,149.948 247.172 C 148.385 246.983,149.194 246.897,152.924 246.856 C 156.445 246.818,157.965 246.933,157.785 247.224 M169.312 247.092 C 168.384 247.176,166.764 247.177,165.712 247.095 C 164.660 247.012,165.420 246.943,167.400 246.942 C 169.380 246.941,170.240 247.008,169.312 247.092 M219.730 247.100 C 211.331 247.160,197.471 247.160,188.930 247.100 C 180.388 247.040,187.260 246.990,204.200 246.990 C 221.140 246.990,228.128 247.040,219.730 247.100 M261.600 247.153 C 260.658 247.319,260.069 247.704,259.800 248.329 C 259.458 249.123,259.196 249.225,258.000 249.030 C 257.230 248.904,256.375 248.771,256.100 248.734 C 255.825 248.697,255.597 248.472,255.594 248.233 C 255.591 247.995,255.413 248.070,255.200 248.400 C 254.869 248.913,254.811 248.898,254.806 248.300 C 254.803 247.915,254.665 247.629,254.500 247.664 C 254.335 247.698,253.930 247.611,253.600 247.469 C 253.270 247.327,250.840 247.157,248.200 247.091 C 245.560 247.026,247.810 246.957,253.200 246.939 C 258.590 246.920,262.370 247.017,261.600 247.153 M303.600 250.200 L 303.600 253.600 301.289 253.600 C 297.956 253.600,297.273 254.204,297.096 257.309 C 296.966 259.595,296.948 259.528,296.877 256.500 L 296.800 253.200 299.300 253.194 C 302.720 253.185,302.941 252.980,303.131 249.623 C 303.349 245.763,303.600 246.071,303.600 250.200 M238.567 250.667 L 247.334 250.931 248.552 252.020 C 250.689 253.929,249.584 255.247,244.725 256.583 C 243.473 256.927,242.181 257.476,241.853 257.804 C 241.525 258.132,241.137 258.400,240.989 258.400 C 240.842 258.400,240.244 258.910,239.660 259.534 C 239.077 260.158,237.520 261.056,236.200 261.530 C 232.451 262.876,231.862 263.284,230.902 265.204 C 229.733 267.540,228.648 268.399,226.856 268.404 C 223.280 268.415,219.833 270.306,218.788 272.830 C 218.017 274.689,216.489 274.939,206.282 274.870 C 196.136 274.802,195.962 274.762,194.768 272.221 C 193.733 270.019,193.133 269.486,189.966 267.954 C 188.555 267.271,186.647 266.020,185.727 265.173 C 183.920 263.510,182.034 262.580,179.200 261.956 C 177.019 261.476,176.323 260.987,175.468 259.332 C 174.259 256.993,172.956 256.433,166.311 255.400 C 163.966 255.035,163.288 253.728,164.706 252.309 C 165.766 251.250,166.060 251.184,171.208 250.858 C 177.802 250.440,226.473 250.302,238.567 250.667 M170.600 259.156 L 172.600 259.442 169.326 259.760 C 166.099 260.074,164.965 259.903,165.417 259.172 C 165.680 258.747,167.693 258.740,170.600 259.156 M241.290 266.070 C 241.046 266.314,239.623 266.350,237.548 266.165 L 234.200 265.867 237.376 265.324 C 239.123 265.026,240.643 264.691,240.754 264.580 C 240.865 264.469,241.119 264.670,241.319 265.027 C 241.543 265.427,241.532 265.828,241.290 266.070 M225.400 272.053 C 226.715 272.106,226.572 272.167,224.600 272.392 C 222.037 272.686,221.437 272.587,221.839 271.938 C 221.977 271.714,222.475 271.634,222.945 271.760 C 223.415 271.886,224.520 272.018,225.400 272.053 M189.712 272.292 C 188.784 272.376,187.164 272.377,186.112 272.295 C 185.060 272.212,185.820 272.143,187.800 272.142 C 189.780 272.141,190.640 272.208,189.712 272.292 M203.500 278.296 C 202.235 278.375,200.165 278.375,198.900 278.296 C 197.635 278.216,198.670 278.151,201.200 278.151 C 203.730 278.151,204.765 278.216,203.500 278.296 M203.674 293.596 C 202.056 293.979,200.575 295.307,199.560 297.287 C 198.660 299.040,197.762 299.600,195.846 299.600 C 192.229 299.600,190.427 300.366,187.844 303.000 C 186.488 304.383,184.745 305.779,183.970 306.103 C 180.358 307.612,179.839 310.291,182.756 312.368 C 183.905 313.187,184.277 313.200,206.690 313.200 C 231.892 313.200,231.653 313.222,234.657 310.625 L 236.190 309.300 233.595 307.654 C 231.815 306.524,230.553 306.006,229.575 306.004 C 227.932 305.999,226.588 304.799,225.261 302.149 C 224.282 300.194,224.101 300.106,219.224 299.190 C 215.393 298.471,215.211 298.363,213.933 296.055 C 212.579 293.609,208.127 292.542,203.674 293.596 M208.900 297.082 C 208.405 297.178,207.595 297.178,207.100 297.082 C 206.605 296.987,207.010 296.909,208.000 296.909 C 208.990 296.909,209.395 296.987,208.900 297.082 M210.981 301.366 C 215.178 303.120,211.909 306.273,206.292 305.888 C 201.637 305.568,199.490 303.243,202.139 301.388 C 203.255 300.606,209.127 300.591,210.981 301.366 M193.849 303.195 C 194.982 303.199,195.120 303.340,195.338 304.702 C 195.470 305.528,196.103 306.833,196.744 307.602 L 197.911 309.000 206.096 309.122 C 215.492 309.263,216.867 308.761,218.174 304.717 C 218.565 303.509,218.752 303.390,220.443 303.280 L 222.285 303.161 222.506 305.595 C 222.746 308.244,223.190 309.061,224.529 309.322 C 225.008 309.415,216.130 309.493,204.800 309.496 C 193.470 309.498,185.106 309.367,186.214 309.204 C 190.103 308.633,190.383 308.349,190.395 304.967 C 190.401 303.065,190.676 302.672,191.790 302.971 C 192.235 303.091,193.162 303.192,193.849 303.195 " stroke="none" fill="#b47444" fill-rule="evenodd"></path></g></svg>