<svg id="svg" version="1.1" xmlns="http://www.w3.org/2000/svg" xmlns:xlink="http://www.w3.org/1999/xlink" width="32" height="32" viewBox="0, 0, 400,400"><g id="svgg"><path id="path0" d="M192.600 40.602 C 192.160 40.684,188.920 41.041,185.400 41.394 C 178.444 42.092,173.514 42.948,164.600 45.003 C 160.442 45.962,152.931 48.322,150.540 49.421 C 149.846 49.739,149.120 50.000,148.924 50.000 C 148.729 50.000,147.047 50.646,145.185 51.436 C 143.323 52.226,141.440 52.972,141.000 53.093 C 140.560 53.214,139.930 53.532,139.600 53.800 C 139.270 54.068,138.460 54.475,137.800 54.705 C 137.140 54.934,135.790 55.587,134.800 56.154 C 133.810 56.722,132.566 57.376,132.036 57.608 C 131.505 57.840,129.345 59.058,127.236 60.315 C 125.126 61.572,123.220 62.690,123.000 62.800 C 122.432 63.084,117.339 66.540,115.200 68.092 C 107.851 73.427,97.376 83.053,92.233 89.200 C 90.668 91.070,88.910 93.140,88.326 93.800 C 86.894 95.418,85.087 97.977,80.842 104.400 C 76.557 110.885,75.602 112.067,73.000 114.108 C 69.426 116.912,62.028 124.370,60.400 126.812 C 60.070 127.306,59.440 128.181,59.000 128.756 C 57.835 130.277,56.589 132.111,56.254 132.800 C 56.093 133.130,55.528 134.120,54.997 135.000 C 53.599 137.318,51.694 141.287,51.381 142.533 C 51.233 143.124,50.956 143.703,50.767 143.821 C 50.577 143.938,50.220 144.783,49.973 145.700 C 49.070 149.054,47.121 151.181,42.001 154.400 C 37.975 156.931,35.215 159.988,31.522 166.006 C 31.183 166.559,30.777 167.596,30.620 168.310 C 30.463 169.024,30.034 170.191,29.667 170.904 C 28.814 172.561,28.884 191.404,29.785 202.800 C 30.107 206.870,30.481 214.610,30.616 220.000 C 30.750 225.390,31.110 233.130,31.416 237.200 C 31.721 241.270,32.087 249.010,32.228 254.400 C 32.618 269.270,34.792 274.480,43.477 281.359 C 44.755 282.370,46.085 283.469,46.434 283.799 C 46.782 284.130,47.189 284.400,47.337 284.400 C 49.190 284.400,54.800 291.477,54.800 293.815 C 54.800 293.960,55.092 294.736,55.449 295.540 C 56.931 298.878,58.116 301.449,58.518 302.200 C 58.754 302.640,59.176 303.450,59.457 304.000 C 60.451 305.951,78.291 320.618,88.407 327.800 C 89.027 328.240,94.814 332.568,101.267 337.418 C 115.762 348.312,114.873 347.703,118.000 348.884 C 123.667 351.023,136.164 354.401,140.600 354.992 C 141.700 355.138,143.500 355.500,144.600 355.797 C 145.700 356.093,147.896 356.450,149.480 356.590 C 151.065 356.730,152.955 357.015,153.680 357.224 C 154.406 357.432,156.980 357.784,159.400 358.005 C 161.820 358.226,166.050 358.671,168.800 358.993 C 181.133 360.442,219.413 360.555,230.400 359.176 C 232.050 358.969,235.470 358.611,238.000 358.382 C 240.530 358.152,244.040 357.711,245.800 357.403 C 247.560 357.094,249.990 356.732,251.200 356.598 C 253.436 356.351,259.955 355.079,267.400 353.438 C 272.011 352.421,279.482 350.213,281.911 349.149 C 282.852 348.737,283.854 348.400,284.138 348.400 C 284.423 348.400,285.633 347.687,286.828 346.816 C 288.022 345.945,289.954 344.550,291.121 343.716 C 292.287 342.882,293.678 341.840,294.210 341.400 C 294.743 340.960,296.174 339.880,297.390 339.000 C 298.607 338.120,301.086 336.277,302.901 334.906 C 304.715 333.534,306.560 332.145,307.000 331.820 C 307.440 331.494,308.823 330.412,310.073 329.414 C 311.323 328.416,312.448 327.600,312.573 327.600 C 312.698 327.600,313.143 327.285,313.563 326.900 C 313.983 326.515,316.348 324.670,318.819 322.800 C 321.291 320.930,326.032 317.253,329.356 314.628 C 339.009 307.006,340.603 305.399,342.580 301.296 C 343.401 299.593,344.326 297.722,344.636 297.138 C 344.946 296.554,345.200 295.854,345.200 295.582 C 345.200 295.310,345.540 294.348,345.954 293.444 C 346.369 292.540,346.917 291.350,347.170 290.800 C 348.607 287.685,349.356 286.902,353.572 284.100 C 356.404 282.217,361.740 277.350,363.400 275.134 C 364.244 274.007,366.000 271.207,366.000 270.987 C 366.000 270.860,366.376 269.932,366.834 268.924 C 367.510 267.442,367.740 265.785,368.043 260.246 C 368.249 256.481,368.505 253.156,368.612 252.858 C 368.720 252.559,368.981 246.529,369.194 239.458 C 369.406 232.386,369.852 222.370,370.185 217.200 C 370.518 212.030,371.003 202.400,371.263 195.800 C 371.523 189.200,371.807 182.173,371.894 180.184 C 372.050 176.593,370.956 169.392,370.084 168.273 C 369.882 168.013,369.519 167.214,369.278 166.498 C 367.951 162.553,361.390 155.384,357.600 153.740 C 354.716 152.488,350.000 146.388,350.000 143.909 C 350.000 143.363,345.907 135.188,344.547 133.017 C 340.157 126.009,334.639 119.736,328.412 114.671 C 325.126 111.999,324.129 110.899,322.002 107.600 C 321.789 107.270,321.186 106.353,320.661 105.562 C 320.137 104.771,319.639 103.945,319.554 103.727 C 319.292 103.053,315.112 97.267,312.862 94.464 C 305.962 85.869,296.722 76.632,289.849 71.457 C 288.722 70.608,287.710 69.798,287.600 69.657 C 287.490 69.516,287.106 69.220,286.746 69.000 C 284.880 67.857,281.614 65.499,281.188 64.986 C 280.921 64.664,280.537 64.400,280.335 64.400 C 280.133 64.400,279.480 64.064,278.884 63.654 C 273.347 59.842,265.203 55.501,257.400 52.202 C 256.740 51.923,255.340 51.313,254.289 50.847 C 253.238 50.381,252.158 49.999,251.889 49.998 C 251.620 49.996,250.950 49.764,250.400 49.482 C 246.006 47.228,227.819 42.735,220.000 41.973 C 217.910 41.769,215.030 41.412,213.600 41.179 C 211.068 40.768,194.197 40.304,192.600 40.602 M219.000 69.313 C 220.980 69.667,223.770 70.138,225.200 70.360 C 232.078 71.427,242.720 74.209,249.000 76.582 C 250.540 77.164,252.340 77.809,253.000 78.016 C 253.660 78.223,254.830 78.689,255.600 79.050 C 256.370 79.412,257.720 80.027,258.600 80.415 C 262.225 82.017,269.862 85.854,271.104 86.696 C 271.836 87.193,272.563 87.600,272.718 87.601 C 272.873 87.601,274.037 88.321,275.304 89.201 C 276.572 90.080,277.704 90.800,277.821 90.800 C 277.938 90.800,279.009 91.520,280.200 92.400 C 281.391 93.280,282.472 94.000,282.603 94.000 C 285.209 94.000,303.285 111.884,311.509 122.600 C 315.563 127.884,318.084 133.137,318.738 137.667 C 319.236 141.112,320.212 146.342,321.040 150.000 C 321.364 151.430,321.809 154.490,322.029 156.800 C 322.249 159.110,322.590 161.630,322.786 162.400 C 322.983 163.170,323.259 165.420,323.400 167.400 C 323.541 169.380,323.945 173.070,324.299 175.600 C 325.139 181.606,325.300 219.958,324.501 223.761 C 324.228 225.060,323.820 229.020,323.594 232.561 C 323.368 236.103,322.934 240.170,322.630 241.600 C 322.325 243.030,321.951 245.451,321.798 246.980 C 321.644 248.510,321.373 250.145,321.194 250.615 C 321.015 251.085,320.664 253.254,320.413 255.435 C 320.163 257.616,319.758 260.030,319.514 260.800 C 319.269 261.570,318.838 263.370,318.554 264.800 C 318.271 266.230,317.666 268.974,317.209 270.898 C 316.753 272.822,316.047 275.882,315.641 277.698 C 314.215 284.080,312.414 286.591,307.628 288.875 C 298.250 293.349,295.148 294.794,293.200 295.593 C 291.990 296.090,290.280 296.811,289.400 297.196 C 285.830 298.759,279.696 300.948,272.400 303.263 C 270.310 303.926,268.060 304.648,267.400 304.869 C 265.576 305.477,260.821 306.781,258.800 307.228 C 257.810 307.446,255.560 307.960,253.800 308.370 C 246.013 310.184,244.835 310.425,242.000 310.791 C 240.350 311.003,237.740 311.449,236.200 311.782 C 234.660 312.114,232.500 312.396,231.400 312.409 C 230.300 312.421,228.050 312.686,226.400 312.996 C 218.578 314.468,181.840 314.635,175.800 313.226 C 174.920 313.020,172.040 312.654,169.400 312.411 C 166.760 312.169,163.610 311.723,162.400 311.422 C 161.190 311.120,158.949 310.749,157.420 310.596 C 155.890 310.444,154.180 310.144,153.620 309.931 C 153.059 309.717,151.340 309.294,149.800 308.990 C 145.914 308.224,140.757 306.991,137.200 305.978 C 135.550 305.508,133.024 304.808,131.587 304.423 C 130.150 304.037,128.586 303.514,128.113 303.261 C 127.640 303.007,126.926 302.794,126.526 302.786 C 126.127 302.779,125.080 302.425,124.200 302.000 C 123.320 301.575,122.363 301.221,122.074 301.214 C 121.785 301.206,120.705 300.862,119.674 300.449 C 118.643 300.036,116.450 299.193,114.800 298.574 C 113.150 297.955,111.620 297.327,111.400 297.177 C 111.180 297.027,110.280 296.675,109.400 296.395 C 108.520 296.115,107.445 295.642,107.011 295.343 C 106.577 295.044,105.977 294.800,105.677 294.800 C 104.871 294.800,91.221 288.024,89.652 286.845 C 87.175 284.983,85.886 282.110,84.607 275.600 C 84.326 274.170,83.821 271.920,83.484 270.600 C 82.210 265.603,81.865 264.094,81.153 260.400 C 80.750 258.310,80.143 254.620,79.803 252.200 C 79.464 249.780,79.021 247.260,78.818 246.600 C 78.616 245.940,78.255 243.420,78.018 241.000 C 77.780 238.580,77.407 235.340,77.189 233.800 C 75.922 224.832,74.889 197.977,75.543 191.000 C 75.790 188.360,76.175 182.506,76.398 177.990 C 76.621 173.475,76.982 169.161,77.199 168.404 C 77.416 167.647,77.789 164.592,78.027 161.614 C 78.265 158.636,78.639 155.505,78.857 154.656 C 79.076 153.807,79.511 151.557,79.824 149.656 C 80.628 144.772,81.153 141.933,82.016 137.800 C 82.429 135.820,82.875 133.637,83.005 132.948 C 83.202 131.909,84.788 129.195,87.909 124.557 C 88.189 124.141,88.792 123.215,89.249 122.500 C 89.705 121.785,90.241 121.200,90.440 121.200 C 90.638 121.200,90.800 121.000,90.800 120.757 C 90.800 120.513,92.006 118.848,93.479 117.057 C 102.765 105.769,113.162 96.725,125.823 88.921 C 131.358 85.511,142.980 79.600,144.152 79.600 C 144.482 79.600,144.861 79.425,144.994 79.210 C 145.126 78.996,146.082 78.564,147.117 78.251 C 148.153 77.938,149.540 77.394,150.200 77.043 C 150.860 76.692,151.667 76.404,151.992 76.402 C 152.318 76.401,153.488 76.061,154.592 75.646 C 160.454 73.443,171.647 70.718,177.800 69.994 C 179.780 69.761,181.742 69.467,182.161 69.339 C 185.747 68.247,212.926 68.228,219.000 69.313 M136.000 217.942 C 134.376 218.414,134.047 220.187,134.025 228.600 C 133.993 240.482,133.581 240.000,143.775 240.000 C 155.939 240.000,157.594 241.666,157.598 253.920 C 157.600 260.481,157.954 262.366,159.356 263.294 C 159.600 263.456,178.084 263.591,200.430 263.594 L 241.061 263.600 241.897 262.700 C 242.675 261.863,242.743 261.257,242.869 254.000 C 243.087 241.499,244.617 240.000,257.156 240.000 C 264.300 240.000,264.345 239.994,265.569 238.964 L 266.800 237.929 266.800 228.987 C 266.800 220.113,266.793 220.036,265.835 218.922 L 264.871 217.800 256.944 217.668 C 243.891 217.451,244.400 217.100,244.400 226.308 C 244.400 235.375,242.784 238.793,237.559 240.779 C 234.138 242.079,166.481 242.063,163.079 240.761 C 157.759 238.725,156.400 235.880,156.400 226.776 L 156.400 219.739 155.369 218.770 C 154.303 217.767,138.873 217.108,136.000 217.942 " stroke="none" fill="#070707" fill-rule="evenodd"></path><path id="path1" d="M169.200 0.400 C 169.200 0.638,167.685 0.800,165.454 0.800 C 162.314 0.800,161.543 0.929,160.691 1.600 C 159.891 2.229,159.068 2.400,156.833 2.400 C 154.487 2.400,153.873 2.539,153.307 3.200 C 152.792 3.801,152.123 4.001,150.611 4.005 C 148.035 4.012,146.800 4.350,146.800 5.047 C 146.800 5.455,146.186 5.600,144.462 5.600 C 142.632 5.600,141.967 5.774,141.400 6.400 C 140.897 6.956,140.168 7.200,139.013 7.200 C 137.904 7.200,137.065 7.466,136.492 8.000 C 135.941 8.513,135.081 8.800,134.092 8.800 C 133.104 8.800,132.243 9.087,131.692 9.600 C 131.169 10.087,130.281 10.400,129.420 10.400 C 128.440 10.400,127.854 10.645,127.507 11.200 C 127.151 11.770,126.574 12.000,125.504 12.000 C 124.533 12.000,123.716 12.284,123.200 12.800 C 122.757 13.243,121.867 13.600,121.203 13.600 C 120.440 13.600,119.826 13.890,119.507 14.400 C 119.169 14.942,118.574 15.200,117.666 15.200 C 116.662 15.200,116.273 15.401,116.116 16.000 C 115.961 16.592,115.570 16.800,114.615 16.800 C 113.832 16.800,113.039 17.115,112.600 17.600 C 112.202 18.040,111.482 18.400,111.000 18.400 C 110.518 18.400,109.798 18.760,109.400 19.200 C 109.002 19.640,108.282 20.000,107.800 20.000 C 107.318 20.000,106.598 20.360,106.200 20.800 C 105.802 21.240,105.037 21.600,104.501 21.600 C 103.862 21.600,103.453 21.876,103.316 22.400 C 103.157 23.006,102.770 23.200,101.716 23.200 C 100.662 23.200,100.275 23.394,100.116 24.000 C 99.980 24.519,99.570 24.800,98.949 24.800 C 98.423 24.800,97.684 25.160,97.307 25.600 C 96.930 26.040,96.342 26.400,95.999 26.400 C 95.657 26.400,95.117 26.760,94.800 27.200 C 94.483 27.640,93.796 28.000,93.274 28.000 C 92.662 28.000,92.251 28.284,92.116 28.800 C 92.000 29.243,91.570 29.600,91.153 29.600 C 90.739 29.600,90.040 29.960,89.600 30.400 C 89.160 30.840,88.513 31.200,88.163 31.200 C 87.812 31.200,87.431 31.560,87.316 32.000 C 87.200 32.443,86.770 32.800,86.353 32.800 C 85.939 32.800,85.240 33.160,84.800 33.600 C 84.360 34.040,83.713 34.400,83.363 34.400 C 83.012 34.400,82.631 34.760,82.516 35.200 C 82.401 35.640,82.034 36.000,81.700 36.000 C 81.367 36.000,80.803 36.334,80.447 36.743 C 80.091 37.151,79.395 37.613,78.900 37.770 C 78.405 37.926,78.000 38.226,78.000 38.437 C 78.000 38.647,77.550 38.991,77.000 39.200 C 76.450 39.409,76.000 39.855,76.000 40.190 C 76.000 40.533,75.650 40.800,75.200 40.800 C 74.667 40.800,74.400 41.067,74.400 41.600 C 74.400 42.133,74.133 42.400,73.600 42.400 C 73.160 42.400,72.440 42.760,72.000 43.200 C 71.560 43.640,71.030 44.000,70.823 44.000 C 70.615 44.000,70.210 44.327,69.923 44.726 C 69.635 45.126,69.085 45.570,68.700 45.714 C 68.315 45.857,68.000 46.251,68.000 46.587 C 68.000 46.924,67.713 47.200,67.363 47.200 C 67.012 47.200,66.635 47.543,66.526 47.963 C 66.416 48.383,65.983 48.816,65.563 48.926 C 65.143 49.035,64.800 49.391,64.800 49.716 C 64.800 50.041,64.440 50.401,64.000 50.516 C 63.560 50.631,63.200 51.012,63.200 51.363 C 63.200 51.713,62.949 52.000,62.643 52.000 C 61.945 52.000,52.000 61.902,52.000 62.596 C 52.000 62.877,51.640 63.201,51.200 63.316 C 50.760 63.431,50.400 63.791,50.400 64.116 C 50.400 64.441,50.040 64.801,49.600 64.916 C 49.160 65.031,48.800 65.391,48.800 65.716 C 48.800 66.041,48.440 66.401,48.000 66.516 C 47.560 66.631,47.200 67.012,47.200 67.363 C 47.200 67.713,46.926 68.000,46.590 68.000 C 46.255 68.000,45.809 68.450,45.600 69.000 C 45.391 69.550,45.047 70.000,44.837 70.000 C 44.626 70.000,44.326 70.405,44.170 70.900 C 44.013 71.395,43.551 72.091,43.143 72.447 C 42.734 72.803,42.400 73.367,42.400 73.700 C 42.400 74.034,42.040 74.401,41.600 74.516 C 41.160 74.631,40.800 75.012,40.800 75.363 C 40.800 75.713,40.526 76.000,40.190 76.000 C 39.855 76.000,39.409 76.450,39.200 77.000 C 38.991 77.550,38.653 78.000,38.449 78.000 C 38.245 78.000,37.889 78.542,37.658 79.205 C 37.427 79.868,36.959 80.517,36.619 80.648 C 36.279 80.779,36.000 81.205,36.000 81.596 C 36.000 81.987,35.640 82.401,35.200 82.516 C 34.760 82.631,34.400 83.012,34.400 83.363 C 34.400 83.713,34.040 84.360,33.600 84.800 C 33.160 85.240,32.800 85.939,32.800 86.353 C 32.800 86.770,32.443 87.200,32.000 87.316 C 31.560 87.431,31.200 87.812,31.200 88.163 C 31.200 88.513,30.840 89.160,30.400 89.600 C 29.960 90.040,29.600 90.739,29.600 91.153 C 29.600 91.570,29.243 92.000,28.800 92.116 C 28.260 92.257,28.000 92.662,28.000 93.359 C 28.000 93.960,27.665 94.603,27.200 94.893 C 26.760 95.168,26.400 95.669,26.400 96.007 C 26.400 96.346,26.040 96.930,25.600 97.307 C 25.160 97.684,24.800 98.423,24.800 98.949 C 24.800 99.570,24.519 99.980,24.000 100.116 C 23.394 100.275,23.200 100.662,23.200 101.716 C 23.200 102.770,23.006 103.157,22.400 103.316 C 21.794 103.475,21.600 103.862,21.600 104.916 C 21.600 105.970,21.406 106.357,20.800 106.516 C 20.276 106.653,20.000 107.062,20.000 107.701 C 20.000 108.237,19.640 109.002,19.200 109.400 C 18.760 109.798,18.400 110.518,18.400 111.000 C 18.400 111.482,18.040 112.202,17.600 112.600 C 17.115 113.039,16.800 113.832,16.800 114.615 C 16.800 115.570,16.592 115.961,16.000 116.116 C 15.401 116.273,15.200 116.662,15.200 117.666 C 15.200 118.574,14.942 119.169,14.400 119.507 C 13.860 119.845,13.600 120.440,13.600 121.341 C 13.600 122.168,13.295 122.952,12.800 123.400 C 12.282 123.869,12.000 124.632,12.000 125.566 C 12.000 126.574,11.760 127.158,11.200 127.507 C 10.578 127.896,10.400 128.440,10.400 129.957 C 10.400 131.570,10.262 131.943,9.600 132.116 C 8.963 132.283,8.800 132.662,8.800 133.979 C 8.800 135.081,8.533 135.920,8.000 136.492 C 7.413 137.122,7.200 137.904,7.200 139.429 C 7.200 141.170,7.070 141.541,6.400 141.716 C 5.710 141.896,5.600 142.262,5.600 144.363 C 5.600 146.171,5.457 146.800,5.047 146.800 C 4.329 146.800,4.012 148.047,4.005 150.900 C 4.001 152.589,3.853 153.200,3.447 153.200 C 2.698 153.200,2.412 154.464,2.405 157.804 C 2.401 160.171,2.275 160.685,1.600 161.107 C 0.891 161.550,0.800 162.040,0.800 165.403 C 0.800 167.668,0.639 169.200,0.400 169.200 C 0.137 169.200,0.000 179.733,0.000 200.000 C 0.000 220.267,0.137 230.800,0.400 230.800 C 0.637 230.800,0.800 232.256,0.800 234.367 C 0.800 238.273,1.000 239.200,1.843 239.200 C 2.275 239.200,2.400 239.961,2.400 242.604 C 2.400 245.513,2.516 246.107,3.200 246.693 C 3.801 247.208,4.001 247.877,4.005 249.389 C 4.012 251.965,4.350 253.200,5.047 253.200 C 5.457 253.200,5.600 253.829,5.600 255.637 C 5.600 257.738,5.710 258.104,6.400 258.284 C 7.071 258.460,7.200 258.830,7.200 260.585 C 7.200 262.168,7.394 262.852,8.000 263.400 C 8.558 263.905,8.800 264.632,8.800 265.800 C 8.800 266.968,9.042 267.695,9.600 268.200 C 10.135 268.684,10.400 269.432,10.400 270.459 C 10.400 271.560,10.626 272.134,11.200 272.493 C 11.770 272.849,12.000 273.426,12.000 274.496 C 12.000 275.467,12.284 276.284,12.800 276.800 C 13.243 277.243,13.600 278.133,13.600 278.797 C 13.600 279.560,13.890 280.174,14.400 280.493 C 14.942 280.831,15.200 281.426,15.200 282.334 C 15.200 283.338,15.401 283.727,16.000 283.884 C 16.606 284.043,16.800 284.430,16.800 285.484 C 16.800 286.538,16.994 286.925,17.600 287.084 C 18.206 287.243,18.400 287.630,18.400 288.684 C 18.400 289.738,18.594 290.125,19.200 290.284 C 19.806 290.443,20.000 290.830,20.000 291.884 C 20.000 292.938,20.194 293.325,20.800 293.484 C 21.406 293.643,21.600 294.030,21.600 295.084 C 21.600 296.138,21.794 296.525,22.400 296.684 C 23.006 296.843,23.200 297.230,23.200 298.284 C 23.200 299.338,23.394 299.725,24.000 299.884 C 24.519 300.020,24.800 300.430,24.800 301.051 C 24.800 301.577,25.160 302.316,25.600 302.693 C 26.040 303.070,26.400 303.654,26.400 303.993 C 26.400 304.331,26.760 304.832,27.200 305.107 C 27.665 305.397,28.000 306.040,28.000 306.641 C 28.000 307.338,28.260 307.743,28.800 307.884 C 29.243 308.000,29.600 308.430,29.600 308.847 C 29.600 309.261,29.960 309.960,30.400 310.400 C 30.840 310.840,31.200 311.487,31.200 311.837 C 31.200 312.188,31.560 312.569,32.000 312.684 C 32.443 312.800,32.800 313.230,32.800 313.647 C 32.800 314.061,33.160 314.760,33.600 315.200 C 34.040 315.640,34.400 316.287,34.400 316.637 C 34.400 316.988,34.760 317.369,35.200 317.484 C 35.640 317.599,36.000 318.013,36.000 318.404 C 36.000 318.795,36.279 319.221,36.619 319.352 C 36.959 319.483,37.427 320.132,37.658 320.795 C 37.889 321.458,38.245 322.000,38.449 322.000 C 38.653 322.000,38.991 322.450,39.200 323.000 C 39.409 323.550,39.855 324.000,40.190 324.000 C 40.526 324.000,40.800 324.287,40.800 324.637 C 40.800 324.988,41.160 325.369,41.600 325.484 C 42.040 325.599,42.400 326.023,42.400 326.426 C 42.400 327.075,42.879 327.753,44.924 330.000 C 45.224 330.330,45.584 330.915,45.722 331.300 C 45.861 331.685,46.251 332.000,46.587 332.000 C 46.924 332.000,47.200 332.287,47.200 332.637 C 47.200 332.988,47.560 333.369,48.000 333.484 C 48.440 333.599,48.800 333.959,48.800 334.284 C 48.800 334.609,49.160 334.969,49.600 335.084 C 50.040 335.199,50.400 335.559,50.400 335.884 C 50.400 336.209,50.760 336.569,51.200 336.684 C 51.640 336.799,52.000 337.123,52.000 337.404 C 52.000 338.098,61.945 348.000,62.643 348.000 C 62.949 348.000,63.200 348.287,63.200 348.637 C 63.200 348.988,63.560 349.369,64.000 349.484 C 64.440 349.599,64.800 349.959,64.800 350.284 C 64.800 350.609,65.160 350.969,65.600 351.084 C 66.040 351.199,66.400 351.559,66.400 351.884 C 66.400 352.209,66.760 352.569,67.200 352.684 C 67.640 352.799,68.000 353.147,68.000 353.457 C 68.000 353.766,68.450 354.191,69.000 354.400 C 69.550 354.609,70.000 354.953,70.000 355.163 C 70.000 355.374,70.405 355.674,70.900 355.830 C 71.395 355.987,72.091 356.449,72.447 356.857 C 72.803 357.266,73.388 357.600,73.747 357.600 C 74.133 357.600,74.400 357.927,74.400 358.400 C 74.400 358.933,74.667 359.200,75.200 359.200 C 75.650 359.200,76.000 359.467,76.000 359.810 C 76.000 360.145,76.450 360.591,77.000 360.800 C 77.550 361.009,78.000 361.353,78.000 361.563 C 78.000 361.774,78.405 362.074,78.900 362.230 C 79.395 362.387,80.091 362.849,80.447 363.257 C 80.803 363.666,81.367 364.000,81.700 364.000 C 82.034 364.000,82.401 364.360,82.516 364.800 C 82.631 365.240,83.012 365.600,83.363 365.600 C 83.713 365.600,84.360 365.960,84.800 366.400 C 85.240 366.840,85.939 367.200,86.353 367.200 C 86.770 367.200,87.200 367.557,87.316 368.000 C 87.431 368.440,87.812 368.800,88.163 368.800 C 88.513 368.800,89.160 369.160,89.600 369.600 C 90.040 370.040,90.739 370.400,91.153 370.400 C 91.570 370.400,92.000 370.757,92.116 371.200 C 92.234 371.653,92.662 372.000,93.101 372.000 C 93.527 372.000,94.202 372.360,94.600 372.800 C 94.998 373.240,95.616 373.600,95.973 373.600 C 96.330 373.600,96.930 373.960,97.307 374.400 C 97.684 374.840,98.401 375.200,98.900 375.200 C 99.399 375.200,100.032 375.560,100.307 376.000 C 100.619 376.499,101.240 376.800,101.957 376.800 C 102.770 376.800,103.168 377.034,103.316 377.600 C 103.453 378.124,103.862 378.400,104.501 378.400 C 105.037 378.400,105.802 378.760,106.200 379.200 C 106.598 379.640,107.306 380.000,107.774 380.000 C 108.241 380.000,108.883 380.360,109.200 380.800 C 109.517 381.240,110.194 381.600,110.705 381.600 C 111.216 381.600,112.020 381.960,112.492 382.400 C 112.979 382.854,113.904 383.200,114.629 383.200 C 115.570 383.200,115.962 383.411,116.116 384.000 C 116.273 384.599,116.662 384.800,117.666 384.800 C 118.574 384.800,119.169 385.058,119.507 385.600 C 119.845 386.140,120.440 386.400,121.341 386.400 C 122.168 386.400,122.952 386.705,123.400 387.200 C 123.869 387.718,124.632 388.000,125.566 388.000 C 126.574 388.000,127.158 388.240,127.507 388.800 C 127.866 389.374,128.440 389.600,129.541 389.600 C 130.568 389.600,131.316 389.865,131.800 390.400 C 132.256 390.904,133.032 391.200,133.899 391.200 C 134.668 391.200,135.722 391.552,136.291 392.000 C 136.942 392.512,137.914 392.800,138.992 392.800 C 140.168 392.800,140.894 393.041,141.400 393.600 C 141.967 394.226,142.632 394.400,144.462 394.400 C 146.186 394.400,146.800 394.545,146.800 394.953 C 146.800 395.671,148.047 395.988,150.900 395.995 C 152.589 395.999,153.200 396.147,153.200 396.553 C 153.200 397.284,154.454 397.588,157.500 397.595 C 158.875 397.598,160.000 397.751,160.000 397.936 C 160.000 398.695,162.247 399.200,165.619 399.200 C 167.740 399.200,169.200 399.363,169.200 399.600 C 169.200 399.863,179.733 400.000,200.000 400.000 C 220.267 400.000,230.800 399.863,230.800 399.600 C 230.800 399.362,232.315 399.200,234.546 399.200 C 237.686 399.200,238.457 399.071,239.309 398.400 C 240.109 397.771,240.932 397.600,243.167 397.600 C 245.513 397.600,246.127 397.461,246.693 396.800 C 247.208 396.199,247.877 395.999,249.389 395.995 C 251.965 395.988,253.200 395.650,253.200 394.953 C 253.200 394.545,253.814 394.400,255.538 394.400 C 257.368 394.400,258.033 394.226,258.600 393.600 C 259.103 393.044,259.832 392.800,260.987 392.800 C 262.096 392.800,262.935 392.534,263.508 392.000 C 264.059 391.487,264.919 391.200,265.908 391.200 C 266.896 391.200,267.757 390.913,268.308 390.400 C 268.831 389.913,269.719 389.600,270.580 389.600 C 271.560 389.600,272.146 389.355,272.493 388.800 C 272.849 388.230,273.426 388.000,274.496 388.000 C 275.467 388.000,276.284 387.716,276.800 387.200 C 277.243 386.757,278.133 386.400,278.797 386.400 C 279.560 386.400,280.174 386.110,280.493 385.600 C 280.831 385.058,281.426 384.800,282.334 384.800 C 283.338 384.800,283.727 384.599,283.884 384.000 C 284.039 383.408,284.430 383.200,285.385 383.200 C 286.168 383.200,286.961 382.885,287.400 382.400 C 287.798 381.960,288.518 381.600,289.000 381.600 C 289.482 381.600,290.202 381.240,290.600 380.800 C 290.998 380.360,291.718 380.000,292.200 380.000 C 292.682 380.000,293.402 379.640,293.800 379.200 C 294.198 378.760,294.963 378.400,295.499 378.400 C 296.138 378.400,296.547 378.124,296.684 377.600 C 296.843 376.994,297.230 376.800,298.284 376.800 C 299.338 376.800,299.725 376.606,299.884 376.000 C 300.020 375.481,300.430 375.200,301.051 375.200 C 301.577 375.200,302.316 374.840,302.693 374.400 C 303.070 373.960,303.658 373.600,304.001 373.600 C 304.343 373.600,304.883 373.240,305.200 372.800 C 305.517 372.360,306.204 372.000,306.726 372.000 C 307.338 372.000,307.749 371.716,307.884 371.200 C 308.000 370.757,308.430 370.400,308.847 370.400 C 309.261 370.400,309.960 370.040,310.400 369.600 C 310.840 369.160,311.487 368.800,311.837 368.800 C 312.188 368.800,312.569 368.440,312.684 368.000 C 312.800 367.557,313.230 367.200,313.647 367.200 C 314.061 367.200,314.760 366.840,315.200 366.400 C 315.640 365.960,316.287 365.600,316.637 365.600 C 316.988 365.600,317.369 365.240,317.484 364.800 C 317.599 364.360,317.966 364.000,318.300 364.000 C 318.633 364.000,319.197 363.666,319.553 363.257 C 319.909 362.849,320.605 362.387,321.100 362.230 C 321.595 362.074,322.000 361.774,322.000 361.563 C 322.000 361.353,322.450 361.009,323.000 360.800 C 323.550 360.591,324.000 360.145,324.000 359.810 C 324.000 359.467,324.350 359.200,324.800 359.200 C 325.333 359.200,325.600 358.933,325.600 358.400 C 325.600 357.867,325.867 357.600,326.400 357.600 C 326.840 357.600,327.560 357.240,328.000 356.800 C 328.440 356.360,328.970 356.000,329.177 356.000 C 329.385 356.000,329.790 355.673,330.077 355.274 C 330.365 354.874,330.915 354.430,331.300 354.286 C 331.685 354.143,332.000 353.770,332.000 353.459 C 332.000 353.148,332.360 352.799,332.800 352.684 C 333.240 352.569,333.600 352.209,333.600 351.884 C 333.600 351.559,333.960 351.199,334.400 351.084 C 334.840 350.969,335.200 350.609,335.200 350.284 C 335.200 349.959,335.560 349.599,336.000 349.484 C 336.440 349.369,336.800 348.988,336.800 348.637 C 336.800 348.287,337.051 348.000,337.357 348.000 C 338.055 348.000,348.000 338.098,348.000 337.404 C 348.000 337.123,348.360 336.799,348.800 336.684 C 349.240 336.569,349.600 336.209,349.600 335.884 C 349.600 335.559,349.960 335.199,350.400 335.084 C 350.840 334.969,351.200 334.609,351.200 334.284 C 351.200 333.959,351.560 333.599,352.000 333.484 C 352.440 333.369,352.800 332.988,352.800 332.637 C 352.800 332.287,353.074 332.000,353.410 332.000 C 353.745 332.000,354.191 331.550,354.400 331.000 C 354.609 330.450,354.953 330.000,355.163 330.000 C 355.374 330.000,355.674 329.595,355.830 329.100 C 355.987 328.605,356.449 327.909,356.857 327.553 C 357.266 327.197,357.600 326.633,357.600 326.300 C 357.600 325.966,357.960 325.599,358.400 325.484 C 358.840 325.369,359.200 324.988,359.200 324.637 C 359.200 324.287,359.474 324.000,359.810 324.000 C 360.145 324.000,360.591 323.550,360.800 323.000 C 361.009 322.450,361.347 322.000,361.551 322.000 C 361.755 322.000,362.111 321.458,362.342 320.795 C 362.573 320.132,363.041 319.483,363.381 319.352 C 363.721 319.221,364.000 318.795,364.000 318.404 C 364.000 318.013,364.360 317.599,364.800 317.484 C 365.240 317.369,365.600 316.988,365.600 316.637 C 365.600 316.287,365.960 315.640,366.400 315.200 C 366.840 314.760,367.200 314.061,367.200 313.647 C 367.200 313.230,367.557 312.800,368.000 312.684 C 368.440 312.569,368.800 312.188,368.800 311.837 C 368.800 311.487,369.160 310.840,369.600 310.400 C 370.040 309.960,370.400 309.261,370.400 308.847 C 370.400 308.430,370.757 308.000,371.200 307.884 C 371.740 307.743,372.000 307.338,372.000 306.641 C 372.000 306.040,372.335 305.397,372.800 305.107 C 373.240 304.832,373.600 304.331,373.600 303.993 C 373.600 303.654,373.960 303.070,374.400 302.693 C 374.840 302.316,375.200 301.577,375.200 301.051 C 375.200 300.430,375.481 300.020,376.000 299.884 C 376.606 299.725,376.800 299.338,376.800 298.284 C 376.800 297.230,376.994 296.843,377.600 296.684 C 378.206 296.525,378.400 296.138,378.400 295.084 C 378.400 294.030,378.594 293.643,379.200 293.484 C 379.724 293.347,380.000 292.938,380.000 292.299 C 380.000 291.763,380.360 290.998,380.800 290.600 C 381.240 290.202,381.600 289.482,381.600 289.000 C 381.600 288.518,381.960 287.798,382.400 287.400 C 382.885 286.961,383.200 286.168,383.200 285.385 C 383.200 284.430,383.408 284.039,384.000 283.884 C 384.599 283.727,384.800 283.338,384.800 282.334 C 384.800 281.426,385.058 280.831,385.600 280.493 C 386.140 280.155,386.400 279.560,386.400 278.659 C 386.400 277.832,386.705 277.048,387.200 276.600 C 387.718 276.131,388.000 275.368,388.000 274.434 C 388.000 273.426,388.240 272.842,388.800 272.493 C 389.422 272.104,389.600 271.560,389.600 270.043 C 389.600 268.430,389.738 268.057,390.400 267.884 C 391.037 267.717,391.200 267.338,391.200 266.021 C 391.200 264.919,391.467 264.080,392.000 263.508 C 392.587 262.878,392.800 262.096,392.800 260.571 C 392.800 258.830,392.930 258.459,393.600 258.284 C 394.290 258.104,394.400 257.738,394.400 255.637 C 394.400 253.829,394.543 253.200,394.953 253.200 C 395.671 253.200,395.988 251.953,395.995 249.100 C 395.999 247.411,396.147 246.800,396.553 246.800 C 397.302 246.800,397.588 245.536,397.595 242.196 C 397.599 239.829,397.725 239.315,398.400 238.893 C 399.109 238.450,399.200 237.960,399.200 234.597 C 399.200 232.332,399.361 230.800,399.600 230.800 C 399.863 230.800,400.000 220.267,400.000 200.000 C 400.000 179.733,399.863 169.200,399.600 169.200 C 399.363 169.200,399.200 167.744,399.200 165.633 C 399.200 161.727,399.000 160.800,398.157 160.800 C 397.725 160.800,397.600 160.039,397.600 157.396 C 397.600 154.487,397.484 153.893,396.800 153.307 C 396.199 152.792,395.999 152.123,395.995 150.611 C 395.988 148.035,395.650 146.800,394.953 146.800 C 394.543 146.800,394.400 146.171,394.400 144.363 C 394.400 142.262,394.290 141.896,393.600 141.716 C 392.929 141.540,392.800 141.170,392.800 139.415 C 392.800 137.832,392.606 137.148,392.000 136.600 C 391.442 136.095,391.200 135.368,391.200 134.200 C 391.200 133.032,390.958 132.305,390.400 131.800 C 389.865 131.316,389.600 130.568,389.600 129.541 C 389.600 128.440,389.374 127.866,388.800 127.507 C 388.230 127.151,388.000 126.574,388.000 125.504 C 388.000 124.533,387.716 123.716,387.200 123.200 C 386.757 122.757,386.400 121.867,386.400 121.203 C 386.400 120.440,386.110 119.826,385.600 119.507 C 385.058 119.169,384.800 118.574,384.800 117.666 C 384.800 116.662,384.599 116.273,384.000 116.116 C 383.394 115.957,383.200 115.570,383.200 114.516 C 383.200 113.462,383.006 113.075,382.400 112.916 C 381.794 112.757,381.600 112.370,381.600 111.316 C 381.600 110.262,381.406 109.875,380.800 109.716 C 380.194 109.557,380.000 109.170,380.000 108.116 C 380.000 107.062,379.806 106.675,379.200 106.516 C 378.594 106.357,378.400 105.970,378.400 104.916 C 378.400 103.862,378.206 103.475,377.600 103.316 C 376.994 103.157,376.800 102.770,376.800 101.716 C 376.800 100.662,376.606 100.275,376.000 100.116 C 375.481 99.980,375.200 99.570,375.200 98.949 C 375.200 98.423,374.840 97.684,374.400 97.307 C 373.960 96.930,373.600 96.346,373.600 96.007 C 373.600 95.669,373.240 95.168,372.800 94.893 C 372.335 94.603,372.000 93.960,372.000 93.359 C 372.000 92.662,371.740 92.257,371.200 92.116 C 370.757 92.000,370.400 91.570,370.400 91.153 C 370.400 90.739,370.040 90.040,369.600 89.600 C 369.160 89.160,368.800 88.513,368.800 88.163 C 368.800 87.812,368.440 87.431,368.000 87.316 C 367.557 87.200,367.200 86.770,367.200 86.353 C 367.200 85.939,366.840 85.240,366.400 84.800 C 365.960 84.360,365.600 83.713,365.600 83.363 C 365.600 83.012,365.240 82.631,364.800 82.516 C 364.360 82.401,364.000 81.987,364.000 81.596 C 364.000 81.205,363.721 80.779,363.381 80.648 C 363.041 80.517,362.573 79.868,362.342 79.205 C 362.111 78.542,361.755 78.000,361.551 78.000 C 361.347 78.000,361.009 77.550,360.800 77.000 C 360.591 76.450,360.166 76.000,359.857 76.000 C 359.547 76.000,359.199 75.640,359.084 75.200 C 358.969 74.760,358.588 74.400,358.237 74.400 C 357.872 74.400,357.600 74.067,357.600 73.621 C 357.600 72.931,357.132 72.259,355.076 70.000 C 354.776 69.670,354.416 69.085,354.278 68.700 C 354.139 68.315,353.770 68.000,353.459 68.000 C 353.148 68.000,352.799 67.640,352.684 67.200 C 352.569 66.760,352.209 66.400,351.884 66.400 C 351.559 66.400,351.199 66.040,351.084 65.600 C 350.969 65.160,350.609 64.800,350.284 64.800 C 349.959 64.800,349.599 64.440,349.484 64.000 C 349.369 63.560,348.988 63.200,348.637 63.200 C 348.287 63.200,348.000 62.949,348.000 62.643 C 348.000 61.945,338.098 52.000,337.404 52.000 C 337.123 52.000,336.799 51.640,336.684 51.200 C 336.569 50.760,336.209 50.400,335.884 50.400 C 335.559 50.400,335.199 50.040,335.084 49.600 C 334.969 49.160,334.609 48.800,334.284 48.800 C 333.959 48.800,333.599 48.440,333.484 48.000 C 333.369 47.560,332.988 47.200,332.637 47.200 C 332.287 47.200,332.000 46.926,332.000 46.590 C 332.000 46.255,331.550 45.809,331.000 45.600 C 330.450 45.391,330.000 45.047,330.000 44.837 C 330.000 44.626,329.595 44.326,329.100 44.170 C 328.605 44.013,327.909 43.551,327.553 43.143 C 327.197 42.734,326.612 42.400,326.253 42.400 C 325.867 42.400,325.600 42.073,325.600 41.600 C 325.600 41.067,325.333 40.800,324.800 40.800 C 324.350 40.800,324.000 40.533,324.000 40.190 C 324.000 39.855,323.550 39.409,323.000 39.200 C 322.450 38.991,322.000 38.647,322.000 38.437 C 322.000 38.226,321.595 37.926,321.100 37.770 C 320.605 37.613,319.909 37.151,319.553 36.743 C 319.197 36.334,318.633 36.000,318.300 36.000 C 317.966 36.000,317.599 35.640,317.484 35.200 C 317.369 34.760,316.988 34.400,316.637 34.400 C 316.287 34.400,315.640 34.040,315.200 33.600 C 314.760 33.160,314.061 32.800,313.647 32.800 C 313.230 32.800,312.800 32.443,312.684 32.000 C 312.569 31.560,312.188 31.200,311.837 31.200 C 311.487 31.200,310.840 30.840,310.400 30.400 C 309.960 29.960,309.261 29.600,308.847 29.600 C 308.430 29.600,308.000 29.243,307.884 28.800 C 307.766 28.347,307.338 28.000,306.899 28.000 C 306.473 28.000,305.798 27.640,305.400 27.200 C 305.002 26.760,304.384 26.400,304.027 26.400 C 303.670 26.400,303.070 26.040,302.693 25.600 C 302.316 25.160,301.599 24.800,301.100 24.800 C 300.601 24.800,299.968 24.440,299.693 24.000 C 299.381 23.501,298.760 23.200,298.043 23.200 C 297.230 23.200,296.832 22.966,296.684 22.400 C 296.547 21.876,296.138 21.600,295.499 21.600 C 294.963 21.600,294.198 21.240,293.800 20.800 C 293.402 20.360,292.736 20.000,292.321 20.000 C 291.906 20.000,291.180 19.640,290.708 19.200 C 290.236 18.760,289.516 18.400,289.108 18.400 C 288.700 18.400,287.980 18.040,287.508 17.600 C 287.021 17.146,286.096 16.800,285.371 16.800 C 284.430 16.800,284.038 16.589,283.884 16.000 C 283.727 15.401,283.338 15.200,282.334 15.200 C 281.426 15.200,280.831 14.942,280.493 14.400 C 280.155 13.860,279.560 13.600,278.659 13.600 C 277.832 13.600,277.048 13.295,276.600 12.800 C 276.131 12.282,275.368 12.000,274.434 12.000 C 273.426 12.000,272.842 11.760,272.493 11.200 C 272.134 10.626,271.560 10.400,270.459 10.400 C 269.432 10.400,268.684 10.135,268.200 9.600 C 267.744 9.096,266.968 8.800,266.101 8.800 C 265.332 8.800,264.278 8.448,263.709 8.000 C 263.058 7.488,262.086 7.200,261.008 7.200 C 259.832 7.200,259.106 6.959,258.600 6.400 C 258.033 5.774,257.368 5.600,255.538 5.600 C 253.814 5.600,253.200 5.455,253.200 5.047 C 253.200 4.329,251.953 4.012,249.100 4.005 C 247.411 4.001,246.800 3.853,246.800 3.447 C 246.800 2.716,245.546 2.412,242.500 2.405 C 241.125 2.402,240.000 2.249,240.000 2.064 C 240.000 1.305,237.753 0.800,234.381 0.800 C 232.260 0.800,230.800 0.637,230.800 0.400 C 230.800 0.137,220.267 0.000,200.000 0.000 C 179.733 0.000,169.200 0.137,169.200 0.400 M212.200 39.582 C 215.500 39.777,219.730 40.211,221.600 40.545 C 223.470 40.880,226.080 41.345,227.400 41.580 C 234.968 42.923,242.663 45.027,250.800 47.977 C 251.570 48.257,252.920 48.742,253.800 49.056 C 254.680 49.370,255.940 49.875,256.600 50.178 C 257.260 50.482,258.970 51.266,260.400 51.921 C 266.561 54.744,273.356 58.300,276.600 60.399 C 277.260 60.826,278.331 61.474,278.980 61.840 C 279.630 62.205,280.408 62.750,280.709 63.052 C 281.010 63.353,281.408 63.600,281.593 63.600 C 281.777 63.600,282.839 64.320,283.952 65.200 C 285.066 66.080,286.079 66.800,286.204 66.800 C 286.596 66.800,294.837 73.545,298.600 76.946 C 304.547 82.321,317.200 96.620,317.200 97.965 C 317.200 98.182,317.434 98.504,317.719 98.680 C 318.357 99.073,323.600 107.000,323.600 107.571 C 323.600 108.063,328.327 112.834,330.744 114.781 C 334.858 118.096,340.801 124.655,343.807 129.200 C 344.462 130.190,345.098 131.090,345.221 131.200 C 345.692 131.622,349.079 137.904,349.965 140.000 C 350.477 141.210,351.213 142.920,351.601 143.800 C 351.989 144.680,352.415 145.872,352.548 146.449 C 352.897 147.962,356.171 151.116,359.555 153.200 C 362.322 154.903,367.367 159.746,368.495 161.781 C 370.592 165.565,371.327 167.156,372.239 169.885 L 373.280 173.000 373.030 186.800 C 372.892 194.390,372.610 202.040,372.402 203.800 C 372.195 205.560,371.838 213.120,371.609 220.600 C 371.381 228.080,371.007 235.910,370.779 238.000 C 370.550 240.090,370.204 247.050,370.010 253.466 C 369.634 265.878,369.494 266.798,367.249 271.600 C 366.059 274.144,366.267 273.835,363.492 277.200 C 361.448 279.678,355.381 285.165,354.658 285.189 C 354.315 285.200,352.731 286.407,350.728 288.184 C 349.668 289.125,348.699 290.960,346.605 296.000 C 342.984 304.711,341.538 306.716,335.200 311.810 C 333.330 313.313,331.580 314.736,331.310 314.972 C 331.041 315.207,330.411 315.709,329.910 316.087 C 329.410 316.466,327.560 317.916,325.800 319.311 C 324.040 320.707,321.520 322.631,320.200 323.589 C 318.880 324.546,317.530 325.574,317.200 325.872 C 316.357 326.635,311.876 330.079,310.790 330.800 C 310.293 331.130,309.466 331.760,308.952 332.200 C 308.439 332.640,307.367 333.450,306.571 334.000 C 305.774 334.550,304.830 335.315,304.472 335.700 C 304.115 336.085,303.652 336.400,303.445 336.400 C 303.237 336.400,302.782 336.674,302.434 337.009 C 301.754 337.663,299.454 339.421,297.998 340.400 C 297.507 340.730,296.068 341.810,294.800 342.800 C 293.532 343.790,292.092 344.870,291.600 345.200 C 291.109 345.530,289.873 346.445,288.853 347.232 C 287.834 348.020,286.190 349.042,285.200 349.502 C 282.565 350.728,272.308 354.016,271.150 354.006 C 270.793 354.003,269.734 354.270,268.798 354.601 C 267.862 354.931,265.904 355.385,264.448 355.610 C 262.992 355.835,261.350 356.190,260.800 356.401 C 259.904 356.743,258.322 357.027,249.800 358.375 C 247.213 358.784,242.513 359.402,237.400 360.004 C 234.020 360.402,227.178 360.943,216.600 361.648 C 209.204 362.141,181.069 361.846,177.400 361.236 C 176.080 361.017,171.940 360.650,168.200 360.419 C 164.460 360.189,160.770 359.832,160.000 359.625 C 159.230 359.418,156.573 359.052,154.096 358.813 C 151.618 358.573,149.177 358.219,148.672 358.027 C 148.166 357.835,146.143 357.478,144.176 357.235 C 142.209 356.991,139.880 356.532,139.000 356.214 C 138.120 355.895,136.860 355.630,136.200 355.623 C 135.540 355.617,133.830 355.265,132.400 354.842 C 130.970 354.418,128.990 353.862,128.000 353.607 C 123.529 352.451,121.712 351.907,120.540 351.374 C 119.846 351.058,119.036 350.793,118.740 350.784 C 116.946 350.729,110.969 346.824,101.623 339.600 C 100.342 338.610,98.892 337.530,98.400 337.200 C 97.908 336.870,96.402 335.746,95.053 334.703 C 91.942 332.297,92.591 332.789,87.000 328.607 C 84.360 326.633,80.850 323.964,79.200 322.676 C 77.550 321.389,75.693 319.945,75.072 319.468 C 74.452 318.990,73.647 318.285,73.284 317.900 C 72.920 317.515,72.401 317.200,72.131 317.200 C 71.861 317.200,71.496 316.974,71.320 316.698 C 71.144 316.421,70.322 315.690,69.492 315.071 C 68.663 314.453,67.548 313.554,67.015 313.074 C 66.482 312.593,65.270 311.576,64.323 310.814 C 60.543 307.772,58.066 304.908,56.824 302.144 C 56.147 300.635,55.234 298.734,54.796 297.921 C 54.358 297.107,54.000 296.153,54.000 295.800 C 54.000 295.447,53.655 294.493,53.233 293.679 C 52.811 292.866,52.273 291.750,52.036 291.200 C 51.081 288.979,50.142 287.983,47.040 285.897 C 40.663 281.608,34.749 275.123,32.660 270.128 C 31.358 267.014,30.527 257.648,30.004 240.200 C 29.786 232.940,29.431 225.290,29.214 223.200 C 28.997 221.110,28.628 213.190,28.394 205.600 C 28.159 198.010,27.805 190.360,27.605 188.600 C 26.107 175.370,28.251 166.087,34.436 159.022 C 36.381 156.801,39.840 153.724,40.982 153.200 C 44.385 151.638,46.881 149.063,48.349 145.600 C 50.062 141.561,50.307 141.019,52.008 137.485 C 53.369 134.656,56.273 129.835,58.082 127.400 C 61.379 122.962,67.843 116.161,71.053 113.750 C 73.307 112.059,75.832 109.468,76.667 107.991 C 77.693 106.177,78.578 104.812,81.200 101.000 C 81.530 100.520,82.273 99.424,82.850 98.564 C 86.877 92.567,95.085 83.474,103.579 75.600 C 108.037 71.467,117.506 64.324,121.400 62.156 C 122.060 61.789,122.690 61.359,122.800 61.200 C 122.910 61.041,123.540 60.612,124.200 60.246 C 124.860 59.880,126.660 58.869,128.200 57.999 C 130.964 56.439,137.888 52.970,141.000 51.588 C 141.880 51.197,143.430 50.499,144.444 50.038 C 145.458 49.577,146.543 49.200,146.855 49.200 C 147.167 49.200,147.799 48.936,148.259 48.614 C 148.719 48.291,149.795 47.853,150.648 47.641 C 152.326 47.223,155.359 46.211,157.606 45.321 C 158.379 45.014,160.089 44.515,161.406 44.210 C 166.489 43.034,167.904 42.704,171.013 41.964 C 172.780 41.544,174.760 41.197,175.413 41.193 C 176.066 41.189,177.860 40.905,179.400 40.562 C 184.653 39.391,200.821 38.908,212.200 39.582 M192.383 69.983 C 191.384 70.163,188.234 70.433,185.383 70.583 C 182.533 70.734,179.300 71.104,178.200 71.407 C 177.100 71.709,174.760 72.144,173.000 72.372 C 171.240 72.600,169.080 73.052,168.200 73.376 C 167.320 73.700,166.144 73.973,165.586 73.982 C 165.029 73.992,163.548 74.360,162.296 74.800 C 161.044 75.240,159.700 75.601,159.310 75.602 C 158.919 75.604,158.117 75.857,157.527 76.165 C 156.937 76.473,155.857 76.852,155.127 77.008 C 154.397 77.163,153.045 77.630,152.122 78.045 C 151.199 78.460,150.236 78.800,149.982 78.800 C 149.729 78.800,148.954 79.056,148.260 79.370 C 147.567 79.683,145.650 80.513,144.000 81.215 C 140.584 82.668,132.191 86.811,129.800 88.224 C 128.920 88.745,127.570 89.542,126.800 89.996 C 124.059 91.614,121.927 93.086,116.600 97.039 C 108.375 103.142,101.726 109.451,95.154 117.387 C 94.849 117.755,94.285 118.354,93.900 118.717 C 93.515 119.080,93.200 119.530,93.200 119.716 C 93.200 119.902,92.435 121.008,91.500 122.173 C 90.565 123.339,89.579 124.632,89.308 125.046 C 89.038 125.461,88.022 127.001,87.050 128.469 C 85.106 131.406,83.600 135.274,83.600 137.329 C 83.600 138.058,83.244 139.992,82.809 141.627 C 82.375 143.262,82.015 145.147,82.009 145.816 C 82.004 146.485,81.717 148.105,81.372 149.416 C 81.027 150.727,80.576 153.420,80.370 155.400 C 80.164 157.380,79.735 160.800,79.416 163.000 C 78.786 167.347,78.069 174.008,77.586 180.000 C 77.166 185.221,77.187 219.239,77.613 222.200 C 77.803 223.520,78.153 227.120,78.391 230.200 C 78.630 233.280,78.999 237.060,79.213 238.600 C 79.834 243.087,80.404 246.836,80.823 249.200 C 81.037 250.410,81.399 252.750,81.626 254.400 C 82.022 257.273,83.084 262.577,84.029 266.400 C 84.274 267.390,84.659 269.100,84.885 270.200 C 85.111 271.300,85.635 273.355,86.048 274.767 C 86.462 276.179,86.800 277.856,86.800 278.493 C 86.800 280.596,89.811 286.000,90.983 286.000 C 91.143 286.000,91.731 286.360,92.291 286.800 C 92.850 287.240,93.619 287.600,94.000 287.600 C 94.381 287.600,95.150 287.960,95.709 288.400 C 96.269 288.840,96.989 289.200,97.309 289.200 C 97.630 289.200,98.350 289.560,98.909 290.000 C 99.469 290.440,100.189 290.800,100.509 290.800 C 100.830 290.800,101.550 291.160,102.109 291.600 C 102.669 292.040,103.348 292.400,103.619 292.400 C 103.890 292.400,104.897 292.760,105.856 293.200 C 106.815 293.640,108.385 294.360,109.344 294.800 C 110.303 295.240,111.338 295.601,111.644 295.603 C 111.950 295.604,112.740 295.963,113.400 296.400 C 114.060 296.837,114.843 297.196,115.140 297.197 C 115.436 297.199,116.246 297.461,116.940 297.779 C 118.619 298.550,122.618 299.943,124.584 300.441 C 125.456 300.661,126.368 301.007,126.612 301.210 C 126.855 301.412,128.032 301.783,129.227 302.035 C 130.422 302.287,131.600 302.654,131.845 302.850 C 132.090 303.046,133.300 303.394,134.535 303.622 C 135.769 303.850,137.279 304.297,137.890 304.616 C 138.500 304.934,139.389 305.196,139.864 305.198 C 140.340 305.199,141.870 305.558,143.264 305.995 C 144.659 306.432,146.289 306.792,146.886 306.795 C 147.483 306.798,148.808 307.084,149.831 307.431 C 151.580 308.025,154.454 308.585,161.000 309.606 C 162.540 309.846,165.338 310.312,167.218 310.642 C 170.925 311.293,180.538 312.133,192.700 312.868 C 202.497 313.460,224.074 312.275,233.600 310.622 C 235.470 310.298,238.170 309.844,239.600 309.614 C 247.587 308.329,249.494 307.974,250.400 307.606 C 250.950 307.382,252.750 306.939,254.400 306.622 C 258.900 305.756,262.484 304.886,263.391 304.438 C 263.836 304.219,265.190 303.774,266.400 303.449 C 267.610 303.124,269.410 302.641,270.400 302.375 C 271.390 302.109,273.043 301.556,274.074 301.146 C 275.105 300.735,276.231 300.400,276.576 300.400 C 276.921 300.400,277.875 300.040,278.696 299.600 C 279.516 299.160,280.513 298.800,280.910 298.800 C 281.307 298.800,282.338 298.440,283.200 298.000 C 284.062 297.560,285.055 297.200,285.405 297.200 C 285.755 297.200,286.707 296.856,287.521 296.436 C 288.334 296.015,289.990 295.276,291.200 294.794 C 294.108 293.635,295.643 292.934,301.623 290.035 C 304.385 288.696,306.824 287.600,307.041 287.600 C 308.235 287.600,312.697 283.202,313.026 281.701 C 313.159 281.096,313.590 279.430,313.984 278.000 C 314.378 276.570,314.883 274.500,315.106 273.400 C 316.023 268.872,316.837 265.286,317.374 263.400 C 317.688 262.300,318.064 260.332,318.210 259.026 C 318.356 257.720,318.643 256.212,318.848 255.675 C 319.052 255.137,319.402 252.912,319.626 250.731 C 319.850 248.549,320.214 246.288,320.436 245.706 C 320.657 245.123,321.013 242.656,321.226 240.223 C 321.439 237.791,321.881 233.730,322.207 231.200 C 323.076 224.468,324.071 197.848,323.620 193.400 C 323.419 191.420,323.141 186.200,323.001 181.800 C 322.862 177.400,322.495 172.360,322.186 170.600 C 321.877 168.840,321.451 165.240,321.240 162.600 C 320.895 158.296,320.377 154.756,319.191 148.600 C 318.979 147.500,318.618 145.520,318.388 144.200 C 318.159 142.880,317.711 140.630,317.393 139.200 C 317.075 137.770,316.694 135.790,316.546 134.800 C 316.311 133.218,315.142 130.778,313.200 127.814 C 310.826 124.190,309.356 122.154,308.914 121.880 C 308.631 121.704,308.400 121.308,308.400 121.000 C 308.400 120.692,308.159 120.296,307.865 120.120 C 307.570 119.944,307.165 119.508,306.965 119.151 C 305.953 117.351,294.439 105.308,290.948 102.400 C 289.279 101.010,286.937 99.125,286.084 98.486 C 285.581 98.109,284.861 97.514,284.484 97.164 C 284.108 96.814,283.530 96.409,283.200 96.264 C 282.870 96.118,281.520 95.190,280.200 94.200 C 278.880 93.210,277.170 92.036,276.400 91.590 C 275.630 91.145,274.280 90.331,273.400 89.782 C 272.520 89.233,271.530 88.661,271.200 88.511 C 270.870 88.361,270.025 87.849,269.323 87.373 C 268.143 86.573,262.889 83.941,259.600 82.504 C 258.830 82.167,257.480 81.577,256.600 81.193 C 255.720 80.810,254.140 80.114,253.089 79.648 C 252.038 79.181,250.986 78.800,250.750 78.800 C 250.514 78.800,249.754 78.531,249.060 78.203 C 248.367 77.874,246.900 77.354,245.800 77.048 C 244.700 76.741,243.260 76.309,242.600 76.087 C 238.185 74.603,236.092 74.000,235.352 74.000 C 234.886 74.000,233.446 73.666,232.152 73.257 C 230.858 72.849,228.583 72.394,227.096 72.246 C 225.608 72.098,223.898 71.787,223.296 71.554 C 220.505 70.478,196.435 69.255,192.383 69.983 M155.232 216.816 C 157.384 217.914,157.600 218.702,157.600 225.464 C 157.600 233.816,158.298 235.869,162.088 238.665 L 163.355 239.600 200.281 239.600 L 237.207 239.600 238.883 238.386 C 242.440 235.809,242.796 234.762,242.798 226.880 C 242.801 216.078,242.893 216.000,255.600 216.000 C 268.362 216.000,268.000 215.632,268.000 228.610 C 268.000 242.003,268.590 241.311,256.929 241.600 C 245.203 241.891,245.105 241.985,244.781 253.328 C 244.392 266.927,249.190 265.600,200.399 265.600 C 151.738 265.600,156.405 266.746,156.402 254.794 C 156.399 242.558,155.465 241.651,142.847 241.617 C 132.437 241.590,132.399 241.543,132.403 228.720 C 132.406 215.808,132.172 216.042,145.116 216.017 C 152.919 216.001,153.766 216.068,155.232 216.816 " stroke="none" fill="#fbfbfb" fill-rule="evenodd"></path><path id="path2" d="M187.400 39.631 C 184.540 39.800,180.940 40.218,179.400 40.562 C 177.860 40.905,176.066 41.189,175.413 41.193 C 174.760 41.197,172.780 41.544,171.013 41.964 C 167.904 42.704,166.489 43.034,161.406 44.210 C 160.089 44.515,158.379 45.014,157.606 45.321 C 155.359 46.211,152.326 47.223,150.648 47.641 C 149.795 47.853,148.719 48.291,148.259 48.614 C 147.799 48.936,147.167 49.200,146.855 49.200 C 146.543 49.200,145.458 49.577,144.444 50.038 C 143.430 50.499,141.880 51.197,141.000 51.588 C 137.888 52.970,130.964 56.439,128.200 57.999 C 126.660 58.869,124.860 59.880,124.200 60.246 C 123.540 60.612,122.910 61.041,122.800 61.200 C 122.690 61.359,122.060 61.789,121.400 62.156 C 118.221 63.926,111.911 68.547,106.429 73.122 C 98.678 79.589,87.473 91.679,82.850 98.564 C 82.273 99.424,81.530 100.520,81.200 101.000 C 78.578 104.812,77.693 106.177,76.667 107.991 C 75.832 109.468,73.307 112.059,71.053 113.750 C 67.843 116.161,61.379 122.962,58.082 127.400 C 56.273 129.835,53.369 134.656,52.008 137.485 C 50.307 141.019,50.062 141.561,48.349 145.600 C 46.881 149.063,44.385 151.638,40.982 153.200 C 39.840 153.724,36.381 156.801,34.436 159.022 C 28.251 166.087,26.107 175.370,27.605 188.600 C 27.805 190.360,28.159 198.010,28.394 205.600 C 28.628 213.190,28.997 221.110,29.214 223.200 C 29.431 225.290,29.786 232.940,30.004 240.200 C 30.873 269.195,31.536 271.832,40.013 280.000 C 43.678 283.531,44.306 284.058,47.040 285.897 C 50.142 287.983,51.081 288.979,52.036 291.200 C 52.273 291.750,52.811 292.866,53.233 293.679 C 53.655 294.493,54.000 295.447,54.000 295.800 C 54.000 296.153,54.358 297.107,54.796 297.921 C 55.234 298.734,56.147 300.635,56.824 302.144 C 58.066 304.908,60.543 307.772,64.323 310.814 C 65.270 311.576,66.482 312.593,67.015 313.074 C 67.548 313.554,68.663 314.453,69.492 315.071 C 70.322 315.690,71.144 316.421,71.320 316.698 C 71.496 316.974,71.861 317.200,72.131 317.200 C 72.401 317.200,72.920 317.515,73.284 317.900 C 73.647 318.285,74.452 318.990,75.072 319.468 C 75.693 319.945,77.550 321.389,79.200 322.676 C 80.850 323.964,84.360 326.633,87.000 328.607 C 92.591 332.789,91.942 332.297,95.053 334.703 C 96.402 335.746,97.908 336.870,98.400 337.200 C 98.892 337.530,100.342 338.610,101.623 339.600 C 110.969 346.824,116.946 350.729,118.740 350.784 C 119.036 350.793,119.846 351.058,120.540 351.374 C 121.712 351.907,123.529 352.451,128.000 353.607 C 128.990 353.862,130.970 354.418,132.400 354.842 C 133.830 355.265,135.540 355.617,136.200 355.623 C 136.860 355.630,138.120 355.895,139.000 356.214 C 139.880 356.532,142.209 356.991,144.176 357.235 C 146.143 357.478,148.166 357.835,148.672 358.027 C 149.177 358.219,151.618 358.573,154.096 358.813 C 156.573 359.052,159.230 359.418,160.000 359.625 C 160.770 359.832,164.460 360.189,168.200 360.419 C 171.940 360.650,176.080 361.017,177.400 361.236 C 181.069 361.846,209.204 362.141,216.600 361.648 C 227.178 360.943,234.020 360.402,237.400 360.004 C 242.513 359.402,247.213 358.784,249.800 358.375 C 258.322 357.027,259.904 356.743,260.800 356.401 C 261.350 356.190,262.992 355.835,264.448 355.610 C 265.904 355.385,267.862 354.931,268.798 354.601 C 269.734 354.270,270.793 354.003,271.150 354.006 C 272.308 354.016,282.565 350.728,285.200 349.502 C 286.190 349.042,287.834 348.020,288.853 347.232 C 289.873 346.445,291.109 345.530,291.600 345.200 C 292.092 344.870,293.532 343.790,294.800 342.800 C 296.068 341.810,297.507 340.730,297.998 340.400 C 299.454 339.421,301.754 337.663,302.434 337.009 C 302.782 336.674,303.237 336.400,303.445 336.400 C 303.652 336.400,304.115 336.085,304.472 335.700 C 304.830 335.315,305.774 334.550,306.571 334.000 C 307.367 333.450,308.439 332.640,308.952 332.200 C 309.466 331.760,310.293 331.130,310.790 330.800 C 311.876 330.079,316.357 326.635,317.200 325.872 C 317.530 325.574,318.880 324.546,320.200 323.589 C 321.520 322.631,324.040 320.707,325.800 319.311 C 327.560 317.916,329.410 316.466,329.910 316.087 C 330.411 315.709,331.041 315.207,331.310 314.972 C 331.580 314.736,333.330 313.313,335.200 311.810 C 341.538 306.716,342.984 304.711,346.605 296.000 C 348.699 290.960,349.668 289.125,350.728 288.184 C 352.731 286.407,354.315 285.200,354.658 285.189 C 355.381 285.165,361.448 279.678,363.492 277.200 C 366.267 273.835,366.059 274.144,367.249 271.600 C 369.494 266.798,369.634 265.878,370.010 253.466 C 370.204 247.050,370.550 240.090,370.779 238.000 C 371.007 235.910,371.381 228.080,371.609 220.600 C 371.838 213.120,372.195 205.560,372.402 203.800 C 372.610 202.040,372.892 194.390,373.030 186.800 L 373.280 173.000 372.239 169.885 C 371.327 167.156,370.592 165.565,368.495 161.781 C 367.367 159.746,362.322 154.903,359.555 153.200 C 356.171 151.116,352.897 147.962,352.548 146.449 C 352.415 145.872,351.989 144.680,351.601 143.800 C 351.213 142.920,350.477 141.210,349.965 140.000 C 349.079 137.904,345.692 131.622,345.221 131.200 C 345.098 131.090,344.462 130.190,343.807 129.200 C 340.801 124.655,334.858 118.096,330.744 114.781 C 328.327 112.834,323.600 108.063,323.600 107.571 C 323.600 107.000,318.357 99.073,317.719 98.680 C 317.434 98.504,317.200 98.182,317.200 97.965 C 317.200 96.620,304.547 82.321,298.600 76.946 C 294.837 73.545,286.596 66.800,286.204 66.800 C 286.079 66.800,285.066 66.080,283.952 65.200 C 282.839 64.320,281.777 63.600,281.593 63.600 C 281.408 63.600,281.010 63.353,280.709 63.052 C 280.408 62.750,279.630 62.205,278.980 61.840 C 278.331 61.474,277.260 60.826,276.600 60.399 C 273.356 58.300,266.561 54.744,260.400 51.921 C 258.970 51.266,257.260 50.482,256.600 50.178 C 255.940 49.875,254.680 49.370,253.800 49.056 C 252.920 48.742,251.570 48.257,250.800 47.977 C 247.737 46.867,245.272 46.054,242.600 45.274 C 234.957 43.041,233.122 42.595,227.400 41.580 C 226.080 41.345,223.470 40.880,221.600 40.545 C 214.808 39.330,199.463 38.920,187.400 39.631 M214.800 40.385 C 216.230 40.582,218.930 40.949,220.800 41.199 C 226.994 42.029,236.590 44.114,242.000 45.805 C 246.400 47.180,251.049 48.761,253.200 49.612 C 254.410 50.092,256.030 50.724,256.800 51.017 C 257.570 51.310,259.100 51.988,260.200 52.522 C 261.300 53.056,263.280 53.996,264.600 54.610 C 266.904 55.682,273.961 59.642,279.000 62.692 C 286.881 67.462,299.306 77.839,305.960 85.210 C 313.224 93.255,317.110 98.340,322.310 106.600 C 324.685 110.373,325.406 111.193,328.600 113.749 C 334.270 118.287,340.037 124.705,344.461 131.400 C 346.992 135.230,348.855 138.958,351.800 146.088 C 353.022 149.049,354.778 151.049,357.569 152.664 C 369.814 159.749,373.670 169.194,372.402 189.000 C 372.205 192.080,371.849 199.190,371.611 204.800 C 371.372 210.410,370.999 218.420,370.781 222.600 C 370.563 226.780,370.208 234.340,369.992 239.400 C 368.710 269.438,368.730 269.324,363.572 276.000 C 361.012 279.314,358.074 282.004,354.051 284.720 C 349.779 287.603,348.526 289.218,346.384 294.600 C 344.812 298.547,341.794 304.794,341.068 305.600 C 339.089 307.800,331.346 314.273,324.803 319.200 C 324.072 319.750,322.137 321.251,320.503 322.535 C 314.450 327.292,286.637 348.064,285.608 348.596 C 281.177 350.887,261.274 356.118,253.600 357.009 C 252.390 357.149,250.770 357.424,250.000 357.619 C 249.230 357.815,246.080 358.253,243.000 358.593 C 239.920 358.933,237.130 359.297,236.800 359.401 C 230.457 361.402,166.800 361.378,163.556 359.373 C 163.402 359.278,160.784 358.924,157.738 358.587 C 154.692 358.250,151.570 357.815,150.800 357.619 C 150.030 357.424,148.410 357.153,147.200 357.016 C 143.596 356.611,131.005 353.885,126.683 352.573 C 120.319 350.642,117.965 349.821,115.800 348.777 C 111.699 346.800,70.980 315.901,61.938 307.905 C 59.104 305.399,57.415 302.482,54.405 294.893 C 52.180 289.284,51.046 287.773,47.007 285.035 C 35.774 277.422,32.295 271.339,31.629 258.151 C 31.408 253.778,31.044 246.600,30.820 242.200 C 30.596 237.800,30.228 229.790,30.002 224.400 C 29.777 219.010,29.425 211.540,29.219 207.800 C 28.196 189.189,27.895 176.595,28.400 173.601 C 29.857 164.960,34.122 158.719,42.325 153.220 C 46.652 150.319,49.600 146.794,49.600 144.520 C 49.600 143.986,50.066 142.969,52.881 137.349 C 57.232 128.661,64.849 119.469,73.058 113.000 C 75.289 111.242,76.013 110.355,78.608 106.200 C 89.840 88.218,107.140 71.190,124.646 60.885 C 125.501 60.382,126.920 59.543,127.800 59.020 C 128.680 58.498,132.010 56.778,135.200 55.198 C 138.390 53.618,141.302 52.168,141.671 51.977 C 146.530 49.460,162.565 44.351,169.907 42.981 C 171.505 42.683,172.958 42.350,173.135 42.240 C 173.311 42.131,175.783 41.736,178.628 41.363 C 181.473 40.990,184.700 40.556,185.800 40.399 C 188.743 39.978,211.770 39.967,214.800 40.385 M184.400 69.864 C 173.219 71.240,161.157 73.980,153.000 76.997 C 151.460 77.566,149.480 78.274,148.600 78.570 C 146.447 79.293,142.643 80.913,138.811 82.739 C 136.258 83.955,127.865 88.477,126.826 89.196 C 126.262 89.587,124.180 90.958,122.200 92.244 C 119.015 94.314,114.152 97.807,113.600 98.423 C 113.490 98.546,113.021 98.906,112.557 99.223 C 102.857 105.862,84.484 128.165,83.403 134.614 C 82.887 137.688,81.582 144.633,80.999 147.400 C 80.187 151.259,78.922 160.092,78.406 165.509 C 78.169 167.989,77.804 170.922,77.595 172.027 C 76.428 178.182,76.145 214.491,77.180 225.200 C 77.361 227.070,77.718 230.760,77.972 233.400 C 78.470 238.550,78.809 241.082,80.012 248.600 C 80.434 251.240,81.049 255.088,81.377 257.152 C 81.705 259.215,82.348 262.455,82.804 264.352 C 83.791 268.451,84.455 271.280,85.632 276.400 C 87.654 285.193,87.743 285.292,98.215 290.436 C 102.653 292.616,106.507 294.400,106.780 294.400 C 107.053 294.400,107.754 294.668,108.338 294.996 C 109.501 295.648,115.430 298.064,118.600 299.176 C 124.640 301.296,130.911 303.370,133.200 304.003 C 140.947 306.147,142.486 306.551,145.600 307.260 C 152.186 308.761,158.224 309.968,160.400 310.219 C 161.610 310.359,163.680 310.711,165.000 311.001 C 166.320 311.290,168.840 311.644,170.600 311.788 C 172.360 311.931,175.870 312.340,178.400 312.697 C 185.172 313.652,214.887 313.662,222.000 312.712 C 224.750 312.345,228.170 311.941,229.600 311.815 C 231.030 311.689,233.730 311.326,235.600 311.009 C 246.902 309.091,249.275 308.649,251.800 307.996 C 253.340 307.598,255.320 307.157,256.200 307.016 C 257.080 306.876,258.610 306.523,259.600 306.232 C 260.590 305.941,262.750 305.322,264.400 304.855 C 272.981 302.428,283.684 298.806,288.200 296.802 C 290.935 295.588,294.769 294.000,294.965 294.000 C 295.091 294.000,298.534 292.372,302.616 290.382 C 312.523 285.551,313.767 284.167,315.006 276.600 C 315.150 275.720,315.463 274.370,315.702 273.600 C 316.709 270.351,319.478 256.837,319.999 252.629 C 320.241 250.666,320.523 248.924,320.625 248.759 C 320.943 248.245,322.734 234.398,323.000 230.400 C 323.139 228.310,323.511 223.920,323.827 220.644 C 324.501 213.637,324.600 192.773,323.997 184.757 C 323.775 181.811,323.398 176.790,323.159 173.600 C 322.921 170.410,322.568 166.949,322.375 165.909 C 322.182 164.869,321.832 161.989,321.597 159.509 C 321.363 157.029,320.916 153.740,320.605 152.200 C 319.648 147.465,318.458 141.092,318.177 139.200 C 317.703 136.006,316.530 131.772,315.786 130.570 C 302.444 109.018,281.188 90.846,257.600 80.827 C 255.950 80.126,254.240 79.388,253.800 79.187 C 251.258 78.025,240.299 74.526,235.200 73.248 C 220.518 69.568,198.650 68.111,184.400 69.864 M215.200 70.530 C 219.050 70.861,222.693 71.322,223.296 71.554 C 223.898 71.787,225.608 72.098,227.096 72.246 C 228.583 72.394,230.858 72.849,232.152 73.257 C 233.446 73.666,234.886 74.000,235.352 74.000 C 236.092 74.000,238.185 74.603,242.600 76.087 C 243.260 76.309,244.700 76.741,245.800 77.048 C 246.900 77.354,248.367 77.874,249.060 78.203 C 249.754 78.531,250.514 78.800,250.750 78.800 C 250.986 78.800,252.038 79.181,253.089 79.648 C 254.140 80.114,255.720 80.810,256.600 81.193 C 257.480 81.577,258.830 82.167,259.600 82.504 C 262.889 83.941,268.143 86.573,269.323 87.373 C 270.025 87.849,270.870 88.361,271.200 88.511 C 271.530 88.661,272.520 89.233,273.400 89.782 C 274.280 90.331,275.630 91.145,276.400 91.590 C 277.170 92.036,278.880 93.210,280.200 94.200 C 281.520 95.190,282.870 96.118,283.200 96.264 C 283.530 96.409,284.108 96.814,284.484 97.164 C 284.861 97.514,285.581 98.109,286.084 98.486 C 286.937 99.125,289.279 101.010,290.948 102.400 C 294.439 105.308,305.953 117.351,306.965 119.151 C 307.165 119.508,307.570 119.944,307.865 120.120 C 308.159 120.296,308.400 120.692,308.400 121.000 C 308.400 121.308,308.631 121.704,308.914 121.880 C 309.356 122.154,310.826 124.190,313.200 127.814 C 315.142 130.778,316.311 133.218,316.546 134.800 C 316.694 135.790,317.075 137.770,317.393 139.200 C 317.711 140.630,318.159 142.880,318.388 144.200 C 318.618 145.520,318.979 147.500,319.191 148.600 C 320.377 154.756,320.895 158.296,321.240 162.600 C 321.451 165.240,321.877 168.840,322.186 170.600 C 322.495 172.360,322.862 177.400,323.001 181.800 C 323.141 186.200,323.419 191.420,323.620 193.400 C 324.071 197.848,323.076 224.468,322.207 231.200 C 321.881 233.730,321.439 237.791,321.226 240.223 C 321.013 242.656,320.657 245.123,320.436 245.706 C 320.214 246.288,319.850 248.549,319.626 250.731 C 319.402 252.912,319.052 255.137,318.848 255.675 C 318.643 256.212,318.356 257.720,318.210 259.026 C 318.064 260.332,317.688 262.300,317.374 263.400 C 316.837 265.286,316.023 268.872,315.106 273.400 C 314.883 274.500,314.378 276.570,313.984 278.000 C 313.590 279.430,313.159 281.096,313.026 281.701 C 312.697 283.202,308.235 287.600,307.041 287.600 C 306.824 287.600,304.385 288.696,301.623 290.035 C 295.643 292.934,294.108 293.635,291.200 294.794 C 289.990 295.276,288.334 296.015,287.521 296.436 C 286.707 296.856,285.755 297.200,285.405 297.200 C 285.055 297.200,284.062 297.560,283.200 298.000 C 282.338 298.440,281.307 298.800,280.910 298.800 C 280.513 298.800,279.516 299.160,278.696 299.600 C 277.875 300.040,276.921 300.400,276.576 300.400 C 276.231 300.400,275.105 300.735,274.074 301.146 C 273.043 301.556,271.390 302.109,270.400 302.375 C 269.410 302.641,267.610 303.124,266.400 303.449 C 265.190 303.774,263.836 304.219,263.391 304.438 C 262.484 304.886,258.900 305.756,254.400 306.622 C 252.750 306.939,250.950 307.382,250.400 307.606 C 249.494 307.974,247.587 308.329,239.600 309.614 C 238.170 309.844,235.470 310.298,233.600 310.622 C 224.074 312.275,202.497 313.460,192.700 312.868 C 180.538 312.133,170.925 311.293,167.218 310.642 C 165.338 310.312,162.540 309.846,161.000 309.606 C 154.454 308.585,151.580 308.025,149.831 307.431 C 148.808 307.084,147.483 306.798,146.886 306.795 C 146.289 306.792,144.659 306.432,143.264 305.995 C 141.870 305.558,140.340 305.199,139.864 305.198 C 139.389 305.196,138.500 304.934,137.890 304.616 C 137.279 304.297,135.769 303.850,134.535 303.622 C 133.300 303.394,132.090 303.046,131.845 302.850 C 131.600 302.654,130.422 302.287,129.227 302.035 C 128.032 301.783,126.855 301.412,126.612 301.210 C 126.368 301.007,125.456 300.661,124.584 300.441 C 122.618 299.943,118.619 298.550,116.940 297.779 C 116.246 297.461,115.436 297.199,115.140 297.197 C 114.843 297.196,114.060 296.837,113.400 296.400 C 112.740 295.963,111.950 295.604,111.644 295.603 C 111.338 295.601,110.303 295.240,109.344 294.800 C 108.385 294.360,106.815 293.640,105.856 293.200 C 104.897 292.760,103.890 292.400,103.619 292.400 C 103.348 292.400,102.669 292.040,102.109 291.600 C 101.550 291.160,100.830 290.800,100.509 290.800 C 100.189 290.800,99.469 290.440,98.909 290.000 C 98.350 289.560,97.630 289.200,97.309 289.200 C 96.989 289.200,96.269 288.840,95.709 288.400 C 95.150 287.960,94.381 287.600,94.000 287.600 C 93.619 287.600,92.850 287.240,92.291 286.800 C 91.731 286.360,91.143 286.000,90.983 286.000 C 89.811 286.000,86.800 280.596,86.800 278.493 C 86.800 277.856,86.462 276.179,86.048 274.767 C 85.635 273.355,85.111 271.300,84.885 270.200 C 84.659 269.100,84.274 267.390,84.029 266.400 C 83.084 262.577,82.022 257.273,81.626 254.400 C 81.399 252.750,81.037 250.410,80.823 249.200 C 80.404 246.836,79.834 243.087,79.213 238.600 C 78.999 237.060,78.630 233.280,78.391 230.200 C 78.153 227.120,77.803 223.520,77.613 222.200 C 77.187 219.239,77.166 185.221,77.586 180.000 C 78.069 174.008,78.786 167.347,79.416 163.000 C 79.735 160.800,80.164 157.380,80.370 155.400 C 80.576 153.420,81.027 150.727,81.372 149.416 C 81.717 148.105,82.004 146.485,82.009 145.816 C 82.015 145.147,82.375 143.262,82.809 141.627 C 83.244 139.992,83.600 138.058,83.600 137.329 C 83.600 135.274,85.106 131.406,87.050 128.469 C 88.022 127.001,89.038 125.461,89.308 125.046 C 89.579 124.632,90.565 123.339,91.500 122.173 C 92.435 121.008,93.200 119.902,93.200 119.716 C 93.200 119.530,93.515 119.080,93.900 118.717 C 94.285 118.354,94.849 117.755,95.154 117.387 C 101.726 109.451,108.375 103.142,116.600 97.039 C 121.927 93.086,124.059 91.614,126.800 89.996 C 127.570 89.542,128.920 88.745,129.800 88.224 C 132.191 86.811,140.584 82.668,144.000 81.215 C 145.650 80.513,147.567 79.683,148.260 79.370 C 148.954 79.056,149.729 78.800,149.982 78.800 C 150.236 78.800,151.199 78.460,152.122 78.045 C 153.045 77.630,154.397 77.163,155.127 77.008 C 155.857 76.852,156.937 76.473,157.527 76.165 C 158.117 75.857,158.919 75.604,159.310 75.602 C 159.700 75.601,161.044 75.240,162.296 74.800 C 163.548 74.360,165.029 73.992,165.586 73.982 C 166.144 73.973,167.320 73.700,168.200 73.376 C 169.080 73.052,171.240 72.600,173.000 72.372 C 174.760 72.144,177.100 71.709,178.200 71.407 C 179.300 71.104,182.533 70.734,185.383 70.583 C 188.234 70.433,191.384 70.163,192.383 69.983 C 194.923 69.527,206.862 69.813,215.200 70.530 M135.280 216.737 C 132.542 218.198,132.406 218.764,132.403 228.720 C 132.399 241.543,132.437 241.590,142.847 241.617 C 155.465 241.651,156.399 242.558,156.402 254.794 C 156.405 266.746,151.738 265.600,200.399 265.600 C 249.190 265.600,244.392 266.927,244.781 253.328 C 245.105 241.985,245.203 241.891,256.929 241.600 C 268.590 241.311,268.000 242.003,268.000 228.610 C 268.000 215.632,268.362 216.000,255.600 216.000 C 242.893 216.000,242.801 216.078,242.798 226.880 C 242.796 234.762,242.440 235.809,238.883 238.386 L 237.207 239.600 200.281 239.600 L 163.355 239.600 162.088 238.665 C 158.298 235.869,157.600 233.816,157.600 225.464 C 157.600 216.002,157.588 215.992,145.116 216.017 C 137.776 216.031,136.418 216.131,135.280 216.737 M154.040 217.204 C 156.839 217.982,156.976 218.396,157.200 226.741 C 157.422 235.026,157.534 235.439,160.290 238.106 C 162.722 240.460,161.681 240.401,200.597 240.391 C 241.438 240.381,238.449 240.628,241.399 237.027 C 243.288 234.722,243.544 233.365,243.576 225.506 L 243.600 219.613 244.766 218.306 L 245.933 217.000 254.318 216.872 C 268.003 216.662,267.400 216.099,267.400 229.073 L 267.400 238.382 266.292 239.491 L 265.184 240.600 257.292 240.828 C 248.952 241.068,248.486 241.158,246.423 242.910 C 244.109 244.874,243.600 247.040,243.600 254.915 C 243.600 262.439,243.440 263.073,241.316 263.951 C 240.492 264.292,229.601 264.385,199.709 264.306 L 159.218 264.200 158.109 263.092 L 157.000 261.984 156.800 253.892 C 156.500 241.739,155.516 240.800,143.083 240.800 C 132.937 240.800,133.200 241.120,133.200 228.776 C 133.200 216.241,132.520 216.939,144.800 216.857 C 149.090 216.828,153.248 216.984,154.040 217.204 " stroke="none" fill="#a0a0a0" fill-rule="evenodd"></path><path id="path3" d="M188.200 40.407 C 176.791 41.415,165.392 43.767,154.000 47.463 C 152.350 47.998,150.640 48.598,150.200 48.797 C 149.760 48.995,148.140 49.639,146.600 50.228 C 139.847 52.807,128.965 58.226,124.480 61.243 C 123.534 61.879,122.692 62.400,122.609 62.400 C 122.449 62.400,117.783 65.533,114.822 67.629 C 101.622 76.971,86.921 92.843,78.553 106.788 C 76.804 109.703,74.502 112.143,69.732 116.140 C 63.286 121.540,56.611 130.140,52.747 138.021 C 50.574 142.453,49.600 144.613,49.600 145.000 C 49.600 147.119,46.636 150.668,42.846 153.087 C 35.180 157.982,30.177 164.874,28.782 172.462 C 28.081 176.277,28.477 195.160,29.599 211.400 C 29.811 214.480,30.169 222.310,30.393 228.800 C 30.617 235.290,30.900 241.770,31.022 243.200 C 31.144 244.630,31.487 250.480,31.784 256.200 C 32.585 271.638,35.327 276.832,46.757 284.571 C 50.325 286.987,52.319 289.249,53.544 292.272 C 57.685 302.492,59.040 305.024,61.644 307.408 C 69.049 314.186,113.467 347.741,116.807 349.079 C 119.594 350.196,123.628 351.547,126.200 352.225 C 132.441 353.870,134.978 354.492,138.400 355.213 C 143.120 356.207,150.769 357.505,155.000 358.029 C 156.760 358.246,160.090 358.685,162.400 359.004 C 169.873 360.034,187.712 360.935,200.400 360.923 C 231.316 360.893,256.847 357.628,278.800 350.897 C 283.997 349.303,285.927 348.325,290.235 345.097 C 292.416 343.463,297.440 339.704,301.400 336.744 C 305.360 333.784,310.490 329.921,312.800 328.160 C 342.175 305.763,341.344 306.603,346.391 294.200 C 348.594 288.784,349.691 287.397,354.000 284.569 C 357.596 282.209,362.922 277.040,364.890 274.000 C 368.195 268.896,368.567 267.046,369.192 252.600 C 369.430 247.100,369.802 238.910,370.020 234.400 C 370.237 229.890,370.591 222.330,370.808 217.600 C 371.758 196.823,372.056 190.601,372.399 184.422 C 373.220 169.606,368.718 159.564,358.580 153.600 C 355.062 151.531,352.388 148.590,351.252 145.543 C 350.731 144.144,349.876 142.050,349.352 140.888 C 348.829 139.727,348.400 138.701,348.400 138.610 C 348.400 138.300,345.514 133.421,343.662 130.600 C 339.657 124.497,334.175 118.522,328.227 113.776 C 325.919 111.934,324.683 110.523,322.725 107.493 C 310.402 88.427,294.781 72.562,278.536 62.615 C 274.050 59.868,267.819 56.370,265.109 55.076 C 259.926 52.603,256.839 51.200,256.577 51.200 C 256.436 51.200,255.754 50.943,255.060 50.628 C 252.972 49.680,248.771 48.125,245.800 47.199 C 244.260 46.719,242.280 46.086,241.400 45.792 C 239.896 45.289,234.562 44.004,228.200 42.612 C 218.169 40.418,199.635 39.396,188.200 40.407 M213.600 41.179 C 215.030 41.412,217.910 41.769,220.000 41.973 C 227.819 42.735,246.006 47.228,250.400 49.482 C 250.950 49.764,251.620 49.996,251.889 49.998 C 252.158 49.999,253.238 50.381,254.289 50.847 C 255.340 51.313,256.740 51.923,257.400 52.202 C 265.203 55.501,273.347 59.842,278.884 63.654 C 279.480 64.064,280.133 64.400,280.335 64.400 C 280.537 64.400,280.921 64.664,281.188 64.986 C 281.614 65.499,284.880 67.857,286.746 69.000 C 287.106 69.220,287.490 69.516,287.600 69.657 C 287.710 69.798,288.722 70.608,289.849 71.457 C 294.756 75.152,304.516 84.465,308.862 89.600 C 313.220 94.750,319.069 102.478,319.554 103.727 C 319.639 103.945,320.137 104.771,320.661 105.562 C 321.186 106.353,321.789 107.270,322.002 107.600 C 324.129 110.899,325.126 111.999,328.412 114.671 C 334.639 119.736,340.157 126.009,344.547 133.017 C 345.907 135.188,350.000 143.363,350.000 143.909 C 350.000 146.388,354.716 152.488,357.600 153.740 C 361.390 155.384,367.951 162.553,369.278 166.498 C 369.519 167.214,369.882 168.013,370.084 168.273 C 370.956 169.392,372.050 176.593,371.894 180.184 C 371.807 182.173,371.523 189.200,371.263 195.800 C 371.003 202.400,370.518 212.030,370.185 217.200 C 369.852 222.370,369.406 232.386,369.194 239.458 C 368.981 246.529,368.720 252.559,368.612 252.858 C 368.505 253.156,368.249 256.481,368.043 260.246 C 367.740 265.785,367.510 267.442,366.834 268.924 C 366.376 269.932,366.000 270.860,366.000 270.987 C 366.000 271.207,364.244 274.007,363.400 275.134 C 361.740 277.350,356.404 282.217,353.572 284.100 C 349.356 286.902,348.607 287.685,347.170 290.800 C 346.917 291.350,346.369 292.540,345.954 293.444 C 345.540 294.348,345.200 295.310,345.200 295.582 C 345.200 295.854,344.946 296.554,344.636 297.138 C 344.326 297.722,343.401 299.593,342.580 301.296 C 340.603 305.399,339.009 307.006,329.356 314.628 C 326.032 317.253,321.291 320.930,318.819 322.800 C 316.348 324.670,313.983 326.515,313.563 326.900 C 313.143 327.285,312.698 327.600,312.573 327.600 C 312.448 327.600,311.323 328.416,310.073 329.414 C 308.823 330.412,307.440 331.494,307.000 331.820 C 306.560 332.145,304.715 333.534,302.901 334.906 C 301.086 336.277,298.607 338.120,297.390 339.000 C 296.174 339.880,294.743 340.960,294.210 341.400 C 293.678 341.840,292.287 342.882,291.121 343.716 C 289.954 344.550,288.022 345.945,286.828 346.816 C 285.633 347.687,284.423 348.400,284.138 348.400 C 283.854 348.400,282.852 348.737,281.911 349.149 C 279.482 350.213,272.011 352.421,267.400 353.438 C 259.955 355.079,253.436 356.351,251.200 356.598 C 249.990 356.732,247.560 357.094,245.800 357.403 C 244.040 357.711,240.530 358.152,238.000 358.382 C 235.470 358.611,232.050 358.969,230.400 359.176 C 219.413 360.555,181.133 360.442,168.800 358.993 C 166.050 358.671,161.820 358.226,159.400 358.005 C 156.980 357.784,154.406 357.432,153.680 357.224 C 152.955 357.015,151.065 356.730,149.480 356.590 C 147.896 356.450,145.700 356.093,144.600 355.797 C 143.500 355.500,141.700 355.138,140.600 354.992 C 136.164 354.401,123.667 351.023,118.000 348.884 C 114.873 347.703,115.762 348.312,101.267 337.418 C 94.814 332.568,89.027 328.240,88.407 327.800 C 78.291 320.618,60.451 305.951,59.457 304.000 C 59.176 303.450,58.754 302.640,58.518 302.200 C 58.116 301.449,56.931 298.878,55.449 295.540 C 55.092 294.736,54.800 293.960,54.800 293.815 C 54.800 291.477,49.190 284.400,47.337 284.400 C 47.189 284.400,46.782 284.130,46.434 283.799 C 46.085 283.469,44.755 282.370,43.477 281.359 C 34.792 274.480,32.618 269.270,32.228 254.400 C 32.087 249.010,31.721 241.270,31.416 237.200 C 31.110 233.130,30.750 225.390,30.616 220.000 C 30.481 214.610,30.107 206.870,29.785 202.800 C 28.884 191.404,28.814 172.561,29.667 170.904 C 30.034 170.191,30.463 169.024,30.620 168.310 C 30.777 167.596,31.183 166.559,31.522 166.006 C 35.215 159.988,37.975 156.931,42.001 154.400 C 47.121 151.181,49.070 149.054,49.973 145.700 C 50.220 144.783,50.577 143.938,50.767 143.821 C 50.956 143.703,51.233 143.124,51.381 142.533 C 51.694 141.287,53.599 137.318,54.997 135.000 C 55.528 134.120,56.093 133.130,56.254 132.800 C 56.589 132.111,57.835 130.277,59.000 128.756 C 59.440 128.181,60.070 127.306,60.400 126.812 C 62.028 124.370,69.426 116.912,73.000 114.108 C 75.602 112.067,76.557 110.885,80.842 104.400 C 85.087 97.977,86.894 95.418,88.326 93.800 C 88.910 93.140,90.668 91.070,92.233 89.200 C 97.376 83.053,107.851 73.427,115.200 68.092 C 117.339 66.540,122.432 63.084,123.000 62.800 C 123.220 62.690,125.126 61.572,127.236 60.315 C 129.345 59.058,131.505 57.840,132.036 57.608 C 132.566 57.376,133.810 56.722,134.800 56.154 C 135.790 55.587,137.140 54.934,137.800 54.705 C 138.460 54.475,139.270 54.068,139.600 53.800 C 139.930 53.532,140.560 53.214,141.000 53.093 C 141.440 52.972,143.323 52.226,145.185 51.436 C 147.047 50.646,148.729 50.000,148.924 50.000 C 149.120 50.000,149.846 49.739,150.540 49.421 C 152.931 48.322,160.442 45.962,164.600 45.003 C 173.514 42.948,178.444 42.092,185.400 41.394 C 188.920 41.041,192.160 40.684,192.600 40.602 C 194.197 40.304,211.068 40.768,213.600 41.179 M185.761 68.787 C 184.199 68.963,182.579 69.212,182.161 69.339 C 181.742 69.467,179.780 69.761,177.800 69.994 C 171.647 70.718,160.454 73.443,154.592 75.646 C 153.488 76.061,152.318 76.401,151.992 76.402 C 151.667 76.404,150.860 76.692,150.200 77.043 C 149.540 77.394,148.153 77.938,147.117 78.251 C 146.082 78.564,145.126 78.996,144.994 79.210 C 144.861 79.425,144.482 79.600,144.152 79.600 C 142.980 79.600,131.358 85.511,125.823 88.921 C 113.162 96.725,102.765 105.769,93.479 117.057 C 92.006 118.848,90.800 120.513,90.800 120.757 C 90.800 121.000,90.638 121.200,90.440 121.200 C 90.241 121.200,89.705 121.785,89.249 122.500 C 88.792 123.215,88.189 124.141,87.909 124.557 C 84.788 129.195,83.202 131.909,83.005 132.948 C 82.875 133.637,82.429 135.820,82.016 137.800 C 81.153 141.933,80.628 144.772,79.824 149.656 C 79.511 151.557,79.076 153.807,78.857 154.656 C 78.639 155.505,78.265 158.636,78.027 161.614 C 77.789 164.592,77.416 167.647,77.199 168.404 C 76.982 169.161,76.621 173.475,76.398 177.990 C 76.175 182.506,75.790 188.360,75.543 191.000 C 74.889 197.977,75.922 224.832,77.189 233.800 C 77.407 235.340,77.780 238.580,78.018 241.000 C 78.255 243.420,78.616 245.940,78.818 246.600 C 79.021 247.260,79.464 249.780,79.803 252.200 C 80.143 254.620,80.750 258.310,81.153 260.400 C 81.865 264.094,82.210 265.603,83.484 270.600 C 83.821 271.920,84.326 274.170,84.607 275.600 C 85.886 282.110,87.175 284.983,89.652 286.845 C 91.221 288.024,104.871 294.800,105.677 294.800 C 105.977 294.800,106.577 295.044,107.011 295.343 C 107.445 295.642,108.520 296.115,109.400 296.395 C 110.280 296.675,111.180 297.027,111.400 297.177 C 111.620 297.327,113.150 297.955,114.800 298.574 C 116.450 299.193,118.643 300.036,119.674 300.449 C 120.705 300.862,121.785 301.206,122.074 301.214 C 122.363 301.221,123.320 301.575,124.200 302.000 C 125.080 302.425,126.127 302.779,126.526 302.786 C 126.926 302.794,127.640 303.007,128.113 303.261 C 128.586 303.514,130.150 304.037,131.587 304.423 C 133.024 304.808,135.550 305.508,137.200 305.978 C 140.757 306.991,145.914 308.224,149.800 308.990 C 151.340 309.294,153.059 309.717,153.620 309.931 C 154.180 310.144,155.890 310.444,157.420 310.596 C 158.949 310.749,161.190 311.120,162.400 311.422 C 163.610 311.723,166.760 312.169,169.400 312.411 C 172.040 312.654,174.920 313.020,175.800 313.226 C 181.840 314.635,218.578 314.468,226.400 312.996 C 228.050 312.686,230.300 312.421,231.400 312.409 C 232.500 312.396,234.660 312.114,236.200 311.782 C 237.740 311.449,240.350 311.003,242.000 310.791 C 244.835 310.425,246.013 310.184,253.800 308.370 C 255.560 307.960,257.810 307.446,258.800 307.228 C 260.821 306.781,265.576 305.477,267.400 304.869 C 268.060 304.648,270.310 303.926,272.400 303.263 C 279.696 300.948,285.830 298.759,289.400 297.196 C 290.280 296.811,291.990 296.090,293.200 295.593 C 295.148 294.794,298.250 293.349,307.628 288.875 C 312.414 286.591,314.215 284.080,315.641 277.698 C 316.047 275.882,316.753 272.822,317.209 270.898 C 317.666 268.974,318.271 266.230,318.554 264.800 C 318.838 263.370,319.269 261.570,319.514 260.800 C 319.758 260.030,320.163 257.616,320.413 255.435 C 320.664 253.254,321.015 251.085,321.194 250.615 C 321.373 250.145,321.644 248.510,321.798 246.980 C 321.951 245.451,322.325 243.030,322.630 241.600 C 322.934 240.170,323.368 236.103,323.594 232.561 C 323.820 229.020,324.228 225.060,324.501 223.761 C 325.300 219.958,325.139 181.606,324.299 175.600 C 323.945 173.070,323.541 169.380,323.400 167.400 C 323.259 165.420,322.983 163.170,322.786 162.400 C 322.590 161.630,322.249 159.110,322.029 156.800 C 321.809 154.490,321.364 151.430,321.040 150.000 C 320.212 146.342,319.236 141.112,318.738 137.667 C 318.084 133.137,315.563 127.884,311.509 122.600 C 303.285 111.884,285.209 94.000,282.603 94.000 C 282.472 94.000,281.391 93.280,280.200 92.400 C 279.009 91.520,277.938 90.800,277.821 90.800 C 277.704 90.800,276.572 90.080,275.304 89.201 C 274.037 88.321,272.873 87.601,272.718 87.601 C 272.563 87.600,271.836 87.193,271.104 86.696 C 269.862 85.854,262.225 82.017,258.600 80.415 C 257.720 80.027,256.370 79.412,255.600 79.050 C 254.830 78.689,253.660 78.223,253.000 78.016 C 252.340 77.809,250.540 77.164,249.000 76.582 C 242.720 74.209,232.078 71.427,225.200 70.360 C 223.770 70.138,220.980 69.667,219.000 69.313 C 214.944 68.589,190.891 68.208,185.761 68.787 M211.000 69.193 C 222.154 70.192,234.536 72.425,241.000 74.603 C 241.880 74.900,244.040 75.599,245.800 76.157 C 273.094 84.816,297.906 103.319,313.349 126.532 C 316.795 131.712,317.255 132.879,318.416 139.400 C 319.305 144.395,319.766 146.870,320.634 151.304 C 320.967 153.011,321.497 156.701,321.811 159.504 C 322.124 162.307,322.559 165.950,322.776 167.600 C 324.448 180.302,325.223 213.123,324.042 221.246 C 323.805 222.871,323.427 226.900,323.201 230.200 C 322.788 236.229,322.201 240.847,320.812 249.000 C 320.400 251.420,319.949 254.390,319.810 255.600 C 319.672 256.810,319.399 258.430,319.204 259.200 C 319.008 259.970,318.376 262.760,317.799 265.400 C 314.414 280.880,313.659 283.361,311.730 285.341 C 310.458 286.647,295.792 294.400,294.593 294.400 C 294.443 294.400,293.754 294.656,293.060 294.970 C 286.724 297.832,273.244 302.702,267.400 304.238 C 266.300 304.528,264.050 305.150,262.400 305.622 C 258.477 306.744,254.389 307.670,246.800 309.154 C 234.342 311.589,230.915 312.074,218.200 313.201 C 213.297 313.635,187.553 313.643,182.600 313.211 C 174.998 312.549,166.141 311.552,164.800 311.207 C 164.030 311.009,161.960 310.655,160.200 310.420 C 158.440 310.184,155.740 309.709,154.200 309.364 C 152.660 309.018,149.780 308.381,147.800 307.947 C 143.550 307.016,138.739 305.798,135.400 304.807 C 134.080 304.416,131.290 303.594,129.200 302.981 C 127.110 302.369,125.130 301.718,124.800 301.536 C 124.470 301.354,122.580 300.677,120.600 300.032 C 118.620 299.387,115.650 298.293,114.000 297.602 C 112.350 296.910,110.538 296.199,109.973 296.021 C 109.408 295.843,108.598 295.503,108.173 295.265 C 107.748 295.026,106.064 294.264,104.431 293.571 C 89.571 287.262,87.423 285.396,85.585 277.200 C 85.116 275.110,84.377 271.870,83.942 270.000 C 82.143 262.264,81.573 259.575,80.804 255.200 C 80.360 252.670,79.995 250.150,79.992 249.600 C 79.989 249.050,79.714 247.340,79.382 245.800 C 79.050 244.260,78.504 240.300,78.169 237.000 C 77.833 233.700,77.396 229.470,77.196 227.600 C 75.855 215.048,76.104 176.992,77.569 170.600 C 77.771 169.720,78.051 167.560,78.192 165.800 C 78.627 160.382,79.772 152.761,81.586 143.200 C 82.024 140.890,82.647 137.524,82.969 135.720 C 83.291 133.917,83.865 131.937,84.244 131.320 C 94.085 115.311,105.823 103.075,121.712 92.262 C 123.863 90.798,125.704 89.600,125.804 89.600 C 125.903 89.600,126.933 88.996,128.092 88.259 C 149.323 74.746,183.991 66.774,211.000 69.193 M135.492 217.477 C 133.661 217.954,133.200 220.231,133.200 228.800 C 133.200 240.825,132.705 240.288,144.001 240.498 C 151.769 240.642,153.662 241.255,155.785 244.316 L 156.975 246.033 157.137 253.907 C 157.317 262.693,157.479 263.262,160.000 263.991 C 161.905 264.541,238.459 264.546,240.440 263.996 C 243.249 263.215,243.376 262.826,243.603 254.259 C 243.938 241.638,245.265 240.410,258.584 240.391 C 264.288 240.383,265.111 240.297,266.000 239.615 L 267.000 238.847 267.120 229.213 L 267.241 219.579 266.051 218.390 L 264.862 217.200 255.931 217.205 C 243.048 217.213,243.888 216.530,243.600 227.235 C 243.352 236.467,241.897 239.180,236.526 240.427 C 234.277 240.949,166.514 240.902,164.064 240.376 C 158.697 239.225,156.809 235.574,156.804 226.333 C 156.800 218.856,156.751 218.602,155.171 217.785 C 154.076 217.219,137.481 216.959,135.492 217.477 M155.369 218.770 L 156.400 219.739 156.400 226.776 C 156.400 235.880,157.759 238.725,163.079 240.761 C 166.481 242.063,234.138 242.079,237.559 240.779 C 242.784 238.793,244.400 235.375,244.400 226.308 C 244.400 217.100,243.891 217.451,256.944 217.668 L 264.871 217.800 265.835 218.922 C 266.793 220.036,266.800 220.113,266.800 228.987 L 266.800 237.929 265.569 238.964 C 264.345 239.994,264.300 240.000,257.156 240.000 C 244.617 240.000,243.087 241.499,242.869 254.000 C 242.743 261.257,242.675 261.863,241.897 262.700 L 241.061 263.600 200.430 263.594 C 178.084 263.591,159.600 263.456,159.356 263.294 C 157.954 262.366,157.600 260.481,157.598 253.920 C 157.594 241.666,155.939 240.000,143.775 240.000 C 133.581 240.000,133.993 240.482,134.025 228.600 C 134.056 216.893,133.277 217.620,145.669 217.726 C 154.245 217.799,154.348 217.810,155.369 218.770 " stroke="none" fill="#747474" fill-rule="evenodd"></path><path id="path4" d="M188.505 40.287 C 189.114 40.379,190.014 40.377,190.505 40.282 C 190.997 40.187,190.500 40.111,189.400 40.114 C 188.300 40.117,187.897 40.195,188.505 40.287 M210.505 40.287 C 211.114 40.379,212.014 40.377,212.505 40.282 C 212.997 40.187,212.500 40.111,211.400 40.114 C 210.300 40.117,209.897 40.195,210.505 40.287 M196.300 69.098 C 198.555 69.170,202.245 69.170,204.500 69.098 C 206.755 69.027,204.910 68.969,200.400 68.969 C 195.890 68.969,194.045 69.027,196.300 69.098 M186.900 69.476 C 187.285 69.576,187.915 69.576,188.300 69.476 C 188.685 69.375,188.370 69.293,187.600 69.293 C 186.830 69.293,186.515 69.375,186.900 69.476 M212.100 69.476 C 212.485 69.576,213.115 69.576,213.500 69.476 C 213.885 69.375,213.570 69.293,212.800 69.293 C 212.030 69.293,211.715 69.375,212.100 69.476 M296.600 76.400 C 297.459 77.280,298.252 78.000,298.362 78.000 C 298.472 78.000,297.859 77.280,297.000 76.400 C 296.141 75.520,295.348 74.800,295.238 74.800 C 295.128 74.800,295.741 75.520,296.600 76.400 M97.792 82.100 L 93.800 86.200 97.900 82.208 C 100.155 80.012,102.000 78.167,102.000 78.108 C 102.000 77.818,101.501 78.292,97.792 82.100 M302.400 81.800 C 304.260 83.670,305.872 85.200,305.982 85.200 C 306.092 85.200,304.660 83.670,302.800 81.800 C 300.940 79.930,299.328 78.400,299.218 78.400 C 299.108 78.400,300.540 79.930,302.400 81.800 M276.800 90.911 C 276.800 90.987,277.385 91.478,278.100 92.001 C 278.904 92.590,279.184 92.687,278.833 92.255 C 278.300 91.599,276.800 90.607,276.800 90.911 M297.993 108.100 C 300.299 110.465,302.234 112.400,302.293 112.400 C 302.582 112.400,302.094 111.887,298.100 107.993 L 293.800 103.800 297.993 108.100 M68.975 116.500 L 67.800 117.800 69.100 116.625 C 69.815 115.979,70.400 115.394,70.400 115.325 C 70.400 115.016,70.070 115.288,68.975 116.500 M331.800 116.800 C 332.659 117.680,333.452 118.400,333.562 118.400 C 333.672 118.400,333.059 117.680,332.200 116.800 C 331.341 115.920,330.548 115.200,330.438 115.200 C 330.328 115.200,330.941 115.920,331.800 116.800 M63.178 122.300 L 61.800 123.800 63.300 122.422 C 64.696 121.138,64.984 120.800,64.678 120.800 C 64.612 120.800,63.937 121.475,63.178 122.300 M46.175 150.500 L 45.000 151.800 46.300 150.625 C 47.015 149.979,47.600 149.394,47.600 149.325 C 47.600 149.016,47.270 149.288,46.175 150.500 M36.378 157.900 L 35.000 159.400 36.500 158.022 C 37.325 157.263,38.000 156.588,38.000 156.522 C 38.000 156.216,37.662 156.504,36.378 157.900 M362.800 156.525 C 362.800 156.594,363.385 157.179,364.100 157.825 L 365.400 159.000 364.225 157.700 C 363.130 156.488,362.800 156.216,362.800 156.525 M78.493 162.400 C 78.493 163.170,78.575 163.485,78.676 163.100 C 78.776 162.715,78.776 162.085,78.676 161.700 C 78.575 161.315,78.493 161.630,78.493 162.400 M323.293 174.800 C 323.293 175.570,323.375 175.885,323.476 175.500 C 323.576 175.115,323.576 174.485,323.476 174.100 C 323.375 173.715,323.293 174.030,323.293 174.800 M372.493 175.600 C 372.493 176.370,372.575 176.685,372.676 176.300 C 372.776 175.915,372.776 175.285,372.676 174.900 C 372.575 174.515,372.493 174.830,372.493 175.600 M28.101 176.200 C 28.105 177.080,28.187 177.393,28.283 176.895 C 28.379 176.398,28.375 175.678,28.275 175.295 C 28.175 174.913,28.096 175.320,28.101 176.200 M76.914 177.000 C 76.917 178.100,76.995 178.503,77.087 177.895 C 77.179 177.286,77.177 176.386,77.082 175.895 C 76.987 175.403,76.911 175.900,76.914 177.000 M323.714 181.000 C 323.717 182.100,323.795 182.503,323.887 181.895 C 323.979 181.286,323.977 180.386,323.882 179.895 C 323.787 179.403,323.711 179.900,323.714 181.000 M28.120 182.000 C 28.120 183.210,28.195 183.705,28.287 183.100 C 28.378 182.495,28.378 181.505,28.287 180.900 C 28.195 180.295,28.120 180.790,28.120 182.000 M372.528 182.800 C 372.528 184.230,372.601 184.815,372.689 184.100 C 372.778 183.385,372.778 182.215,372.689 181.500 C 372.601 180.785,372.528 181.370,372.528 182.800 M324.114 186.200 C 324.117 187.300,324.195 187.703,324.287 187.095 C 324.379 186.486,324.377 185.586,324.282 185.095 C 324.187 184.603,324.111 185.100,324.114 186.200 M76.531 187.400 C 76.533 188.940,76.605 189.521,76.692 188.691 C 76.779 187.861,76.777 186.601,76.689 185.891 C 76.600 185.181,76.529 185.860,76.531 187.400 M28.531 190.600 C 28.533 192.140,28.605 192.721,28.692 191.891 C 28.779 191.061,28.777 189.801,28.689 189.091 C 28.600 188.381,28.529 189.060,28.531 190.600 M372.120 190.800 C 372.120 192.010,372.195 192.505,372.287 191.900 C 372.378 191.295,372.378 190.305,372.287 189.700 C 372.195 189.095,372.120 189.590,372.120 190.800 M324.565 199.600 C 324.565 203.450,324.625 205.025,324.698 203.100 C 324.771 201.175,324.771 198.025,324.698 196.100 C 324.625 194.175,324.565 195.750,324.565 199.600 M76.160 199.400 C 76.161 202.700,76.222 203.997,76.298 202.282 C 76.373 200.567,76.372 197.867,76.297 196.282 C 76.221 194.697,76.159 196.100,76.160 199.400 M371.720 196.800 C 371.720 198.010,371.795 198.505,371.887 197.900 C 371.978 197.295,371.978 196.305,371.887 195.700 C 371.795 195.095,371.720 195.590,371.720 196.800 M28.924 202.200 C 28.926 203.520,29.001 204.012,29.090 203.293 C 29.179 202.574,29.177 201.494,29.086 200.893 C 28.995 200.292,28.922 200.880,28.924 202.200 M371.328 205.600 C 371.328 207.030,371.401 207.615,371.489 206.900 C 371.578 206.185,371.578 205.015,371.489 204.300 C 371.401 203.585,371.328 204.170,371.328 205.600 M29.314 210.200 C 29.317 211.300,29.395 211.703,29.487 211.095 C 29.579 210.486,29.577 209.586,29.482 209.095 C 29.387 208.603,29.311 209.100,29.314 210.200 M76.537 216.600 C 76.539 218.360,76.609 219.030,76.693 218.089 C 76.778 217.149,76.777 215.709,76.691 214.889 C 76.605 214.070,76.536 214.840,76.537 216.600 M29.720 216.400 C 29.720 217.610,29.795 218.105,29.887 217.500 C 29.978 216.895,29.978 215.905,29.887 215.300 C 29.795 214.695,29.720 215.190,29.720 216.400 M370.928 217.200 C 370.928 218.630,371.001 219.215,371.089 218.500 C 371.178 217.785,371.178 216.615,371.089 215.900 C 371.001 215.185,370.928 215.770,370.928 217.200 M324.114 218.200 C 324.117 219.300,324.195 219.703,324.287 219.095 C 324.379 218.486,324.377 217.586,324.282 217.095 C 324.187 216.603,324.111 217.100,324.114 218.200 M140.922 217.099 C 143.299 217.170,147.079 217.169,149.322 217.098 C 151.565 217.027,149.620 216.969,145.000 216.969 C 140.380 216.970,138.545 217.028,140.922 217.099 M251.322 217.099 C 253.699 217.170,257.479 217.169,259.722 217.098 C 261.965 217.027,260.020 216.969,255.400 216.969 C 250.780 216.970,248.945 217.028,251.322 217.099 M156.964 226.600 C 156.963 230.340,157.023 231.924,157.097 230.120 C 157.171 228.315,157.172 225.255,157.098 223.320 C 157.025 221.384,156.964 222.860,156.964 226.600 M267.369 229.000 C 267.370 233.620,267.428 235.455,267.499 233.078 C 267.570 230.701,267.569 226.921,267.498 224.678 C 267.427 222.435,267.369 224.380,267.369 229.000 M30.128 225.200 C 30.128 226.630,30.201 227.215,30.289 226.500 C 30.378 225.785,30.378 224.615,30.289 223.900 C 30.201 223.185,30.128 223.770,30.128 225.200 M76.893 224.000 C 76.893 224.770,76.975 225.085,77.076 224.700 C 77.176 224.315,77.176 223.685,77.076 223.300 C 76.975 222.915,76.893 223.230,76.893 224.000 M370.514 225.400 C 370.517 226.500,370.595 226.903,370.687 226.295 C 370.779 225.686,370.777 224.786,370.682 224.295 C 370.587 223.803,370.511 224.300,370.514 225.400 M323.293 226.000 C 323.293 226.770,323.375 227.085,323.476 226.700 C 323.576 226.315,323.576 225.685,323.476 225.300 C 323.375 224.915,323.293 225.230,323.293 226.000 M370.120 231.200 C 370.120 232.410,370.195 232.905,370.287 232.300 C 370.378 231.695,370.378 230.705,370.287 230.100 C 370.195 229.495,370.120 229.990,370.120 231.200 M322.901 231.800 C 322.905 232.680,322.987 232.993,323.083 232.495 C 323.179 231.998,323.175 231.278,323.075 230.895 C 322.975 230.513,322.896 230.920,322.901 231.800 M30.528 236.800 C 30.528 238.230,30.601 238.815,30.689 238.100 C 30.778 237.385,30.778 236.215,30.689 235.500 C 30.601 234.785,30.528 235.370,30.528 236.800 M78.093 236.000 C 78.093 236.770,78.175 237.085,78.276 236.700 C 78.376 236.315,78.376 235.685,78.276 235.300 C 78.175 234.915,78.093 235.230,78.093 236.000 M159.600 237.800 C 160.346 238.570,161.047 239.200,161.157 239.200 C 161.267 239.200,160.746 238.570,160.000 237.800 C 159.254 237.030,158.553 236.400,158.443 236.400 C 158.333 236.400,158.854 237.030,159.600 237.800 M369.728 240.000 C 369.728 241.430,369.801 242.015,369.889 241.300 C 369.978 240.585,369.978 239.415,369.889 238.700 C 369.801 237.985,369.728 238.570,369.728 240.000 M139.519 240.698 C 141.344 240.772,144.224 240.772,145.919 240.697 C 147.614 240.622,146.120 240.561,142.600 240.562 C 139.080 240.562,137.694 240.624,139.519 240.698 M182.700 240.700 C 192.435 240.760,208.365 240.760,218.100 240.700 C 227.835 240.640,219.870 240.591,200.400 240.591 C 180.930 240.591,172.965 240.640,182.700 240.700 M254.700 240.698 C 256.515 240.772,259.485 240.772,261.300 240.698 C 263.115 240.623,261.630 240.563,258.000 240.563 C 254.370 240.563,252.885 240.623,254.700 240.698 M30.914 245.000 C 30.917 246.100,30.995 246.503,31.087 245.895 C 31.179 245.286,31.177 244.386,31.082 243.895 C 30.987 243.403,30.911 243.900,30.914 245.000 M156.963 254.800 C 156.963 258.430,157.023 259.915,157.098 258.100 C 157.172 256.285,157.172 253.315,157.098 251.500 C 157.023 249.685,156.963 251.170,156.963 254.800 M31.320 250.800 C 31.320 252.010,31.395 252.505,31.487 251.900 C 31.578 251.295,31.578 250.305,31.487 249.700 C 31.395 249.095,31.320 249.590,31.320 250.800 M369.328 251.600 C 369.328 253.030,369.401 253.615,369.489 252.900 C 369.578 252.185,369.578 251.015,369.489 250.300 C 369.401 249.585,369.328 250.170,369.328 251.600 M31.728 259.600 C 31.728 261.030,31.801 261.615,31.889 260.900 C 31.978 260.185,31.978 259.015,31.889 258.300 C 31.801 257.585,31.728 258.170,31.728 259.600 M368.920 259.600 C 368.920 260.810,368.995 261.305,369.087 260.700 C 369.178 260.095,369.178 259.105,369.087 258.500 C 368.995 257.895,368.920 258.390,368.920 259.600 M39.600 279.000 C 40.346 279.770,41.047 280.400,41.157 280.400 C 41.267 280.400,40.746 279.770,40.000 279.000 C 39.254 278.230,38.553 277.600,38.443 277.600 C 38.333 277.600,38.854 278.230,39.600 279.000 M360.575 279.300 L 359.400 280.600 360.700 279.425 C 361.415 278.779,362.000 278.194,362.000 278.125 C 362.000 277.816,361.670 278.088,360.575 279.300 M59.200 305.325 C 59.200 305.394,59.785 305.979,60.500 306.625 L 61.800 307.800 60.625 306.500 C 59.530 305.288,59.200 305.016,59.200 305.325 M230.500 311.876 C 230.885 311.976,231.515 311.976,231.900 311.876 C 232.285 311.775,231.970 311.693,231.200 311.693 C 230.430 311.693,230.115 311.775,230.500 311.876 M225.700 312.276 C 226.085 312.376,226.715 312.376,227.100 312.276 C 227.485 312.175,227.170 312.093,226.400 312.093 C 225.630 312.093,225.315 312.175,225.700 312.276 M219.700 313.076 C 220.085 313.176,220.715 313.176,221.100 313.076 C 221.485 312.975,221.170 312.893,220.400 312.893 C 219.630 312.893,219.315 312.975,219.700 313.076 M186.307 313.490 C 187.026 313.579,188.106 313.577,188.707 313.486 C 189.308 313.395,188.720 313.322,187.400 313.324 C 186.080 313.326,185.588 313.401,186.307 313.490 M211.900 313.489 C 212.615 313.578,213.785 313.578,214.500 313.489 C 215.215 313.401,214.630 313.328,213.200 313.328 C 211.770 313.328,211.185 313.401,211.900 313.489 M168.305 359.883 C 168.802 359.979,169.522 359.975,169.905 359.875 C 170.287 359.775,169.880 359.696,169.000 359.701 C 168.120 359.705,167.807 359.787,168.305 359.883 M231.105 359.883 C 231.602 359.979,232.322 359.975,232.705 359.875 C 233.087 359.775,232.680 359.696,231.800 359.701 C 230.920 359.705,230.607 359.787,231.105 359.883 M174.700 360.282 C 175.195 360.378,176.005 360.378,176.500 360.282 C 176.995 360.187,176.590 360.109,175.600 360.109 C 174.610 360.109,174.205 360.187,174.700 360.282 M224.105 360.287 C 224.714 360.379,225.614 360.377,226.105 360.282 C 226.597 360.187,226.100 360.111,225.000 360.114 C 223.900 360.117,223.497 360.195,224.105 360.287 M181.705 360.687 C 182.314 360.779,183.214 360.777,183.705 360.682 C 184.197 360.587,183.700 360.511,182.600 360.514 C 181.500 360.517,181.097 360.595,181.705 360.687 M216.900 360.687 C 217.505 360.778,218.495 360.778,219.100 360.687 C 219.705 360.595,219.210 360.520,218.000 360.520 C 216.790 360.520,216.295 360.595,216.900 360.687 M188.512 361.095 C 189.564 361.177,191.184 361.176,192.112 361.092 C 193.040 361.008,192.180 360.941,190.200 360.942 C 188.220 360.943,187.460 361.012,188.512 361.095 M208.713 361.095 C 209.876 361.176,211.676 361.176,212.713 361.093 C 213.751 361.011,212.800 360.945,210.600 360.946 C 208.400 360.947,207.551 361.014,208.713 361.095 " stroke="none" fill="#7c7c7c" fill-rule="evenodd"></path></g></svg>