<svg xmlns="http://www.w3.org/2000/svg" width="32" height="32" viewBox="0 0 400 400"><g fill-rule="evenodd"><path d="M240.37 55.193c-.346.202-2.699.622-5.228.931-2.529.31-5.036.838-5.57 1.173-.535.335-1.777.728-2.762.875-.984.146-2.064.511-2.4.81-.335.299-1.375.747-2.31.996s-1.7.612-1.7.806c0 .195-.608.555-1.352.8-.743.245-1.671.799-2.062 1.231-.39.432-1.042.785-1.448.785-.406 0-.738.178-.738.395 0 .353-1.434 1.434-4.252 3.205-.525.33-1.055.915-1.178 1.3s-.482.7-.797.7c-.315 0-.573.153-.573.341 0 .187-.495.868-1.1 1.513a25.983 25.983 0 0 0-1.9 2.309c-.44.626-1.165 1.61-1.611 2.187-1.702 2.202-2.989 4.317-2.989 4.91 0 .339-.36.942-.8 1.34-.44.398-.8 1.029-.8 1.402 0 .374-.45 1.525-1 2.56-.55 1.034-1 2.283-1 2.775 0 .491-.343 1.566-.762 2.388-.419.822-.889 2.615-1.044 3.985-.155 1.369-.556 3.12-.891 3.89-.452 1.041-.692 3.891-.936 11.123-.445 13.188.613 12.077-11.495 12.077H173.6v21.957l9.033.122c8.403.113 9.072.175 9.6.897.675.925.856 87.948.185 89.009-.369.584-5.218-1.279-5.218-2.004 0-.15-.81-.582-1.8-.96s-1.8-.831-1.8-1.007c0-.175-.81-.523-1.8-.772-.99-.25-1.8-.613-1.8-.808 0-.195-.945-.575-2.1-.845-1.155-.27-2.402-.754-2.77-1.075-.369-.321-1.86-.732-3.315-.912-1.454-.18-2.895-.536-3.201-.791-1.711-1.42-23.994-1.595-27.239-.214-.866.369-2.736.839-4.154 1.046-1.419.207-2.859.622-3.2.922-.342.3-1.251.679-2.021.841-.77.162-2.03.617-2.8 1.011-.77.394-1.85.921-2.4 1.171-2.155.978-4.146 2.101-4.689 2.643-.312.313-.809.569-1.104.569-.294 0-1.41.692-2.48 1.537-1.069.845-2.39 1.77-2.935 2.055-1.223.64-1.243.658-6.392 5.813-4.73 4.736-5.094 5.137-6.168 6.791-.422.651-.915 1.368-1.094 1.594l-1.332 1.668c-.553.692-1.006 1.476-1.006 1.742s-.45 1.019-1 1.673c-.55.654-1 1.461-1 1.795 0 .333-.36 1.063-.8 1.623-.44.559-.8 1.328-.8 1.709s-.345 1.131-.767 1.667c-.422.537-.894 1.686-1.049 2.554-.155.869-.596 2.119-.981 2.779-.385.66-.804 2.135-.93 3.278-.127 1.144-.555 2.674-.952 3.4-1.117 2.048-1.092 24.548.031 26.892.413.863.872 2.573 1.019 3.8.147 1.226.553 2.68.903 3.23.35.55.759 1.701.91 2.557.151.857.526 1.81.834 2.118.309.309.747 1.252.974 2.096.228.845.671 1.749.985 2.01.314.261.683.983.82 1.605.137.622.598 1.448 1.026 1.835.427.386.777.917.777 1.179s.36.802.8 1.2c.44.398.8.967.8 1.265 0 .297.45.932 1 1.41.55.478 1 1.042 1 1.252 0 .355 1.008 1.556 4.765 5.673 1.975 2.164 8.605 7.8 9.176 7.8.252 0 .459.189.459.42 0 .232.634.686 1.409 1.01.775.323 1.765.944 2.2 1.379.435.435.988.791 1.228.791s.894.36 1.454.8c.559.44 1.318.8 1.685.8.368 0 1.279.45 2.024 1 .745.55 1.73 1 2.189 1 .458 0 1.216.268 1.684.596.468.328 1.811.802 2.985 1.054s2.508.703 2.966 1.002c.457.3 1.989.652 3.404.782 1.414.131 3.472.528 4.572.882 2.913.939 15.576.951 18.4.017 1.1-.364 3.13-.765 4.51-.892 1.381-.127 3.001-.479 3.6-.782.6-.304 2.08-.779 3.29-1.056 1.21-.278 2.47-.732 2.8-1.009.33-.278 1.23-.638 2-.802.77-.163 1.829-.633 2.354-1.044.525-.411 1.175-.748 1.446-.748.271 0 .921-.335 1.446-.745.525-.41 1.404-.883 1.954-1.051.55-.168 1.27-.562 1.6-.877.33-.314 1.513-1.146 2.63-1.849 1.116-.703 2.332-1.548 2.703-1.878.37-.33 1.216-1.05 1.88-1.6 4.359-3.612 9.655-9.535 12.462-13.94.372-.583.857-1.267 1.078-1.519.221-.253.673-1.108 1.004-1.9.331-.793.777-1.441.991-1.441.214 0 .505-.532.648-1.181.143-.65.581-1.595.974-2.1.393-.506.835-1.576.983-2.379.147-.803.519-1.668.826-1.923.307-.255.683-1.218.834-2.14.152-.922.592-2.397.979-3.277.386-.88.807-2.785.934-4.232.127-1.448.547-3.428.933-4.4.658-1.657.716-6.513.922-77.083.193-66.351.29-75.359.819-75.694.36-.227 9.966-.383 24-.39 12.87-.007 23.805-.12 24.3-.253l.9-.241v-10.092c0-9.268-.06-10.145-.731-10.753-.664-.6-2.932-.662-24.3-.663-22.985-.002-23.602-.022-24.902-.815l-1.333-.812.213-5.086c.319-7.639 1.038-14.447 1.717-16.265.334-.892.746-2.416.918-3.387.171-.972.576-1.962.898-2.2.323-.239.717-.953.875-1.587.565-2.27 7.581-9.447 9.235-9.447.268 0 .876-.337 1.352-.749.475-.412 1.623-.871 2.55-1.019.928-.149 1.979-.534 2.335-.856.429-.389 2.25-.716 5.41-.972 2.62-.213 5.843-.543 7.163-.735 1.32-.192 3.57-.201 5-.021 1.43.18 4.76.532 7.4.784 2.64.251 5.305.716 5.923 1.034.617.318 2.464.728 4.103.912 1.639.184 3.449.641 4.02 1.015 1.874 1.228 1.954.745 1.954-11.868 0-9.948-.087-11.679-.6-11.927-1.82-.883-3.999-1.301-9.462-1.817-3.334-.315-6.541-.754-7.126-.977-1.339-.508-20.974-.519-21.842-.011M164.4 251.138c.99.464 2.195.848 2.679.853.483.005 1.725.459 2.759 1.009 1.035.55 2.096 1 2.36 1 .263 0 .804.36 1.202.8.398.44.952.8 1.231.8.279 0 1.042.45 1.696 1 .654.55 1.318 1 1.476 1 .328 0 6.025 5.808 7.113 7.251 1.276 1.693 3.069 4.54 3.077 4.886.004.185.367.794.807 1.354.44.559.8 1.31.8 1.669 0 .358.364 1.331.809 2.161.762 1.422 1.014 3.111 2.272 15.214.125 1.204-.027 2.564-.402 3.6-.331.916-.711 2.558-.845 3.65-.133 1.092-.6 2.673-1.038 3.513-.438.839-.796 1.883-.796 2.318 0 .436-.36 1.1-.8 1.477-.44.377-.8.991-.8 1.365s-.45 1.215-1 1.869c-.55.654-1 1.386-1 1.627 0 .242-.36.664-.8.939-.44.275-.8.708-.8.962 0 .642-5.466 6.049-6.421 6.352-.429.136-.779.384-.779.553 0 .438-3.8 2.84-4.494 2.84-.32 0-.908.36-1.306.8-.398.44-1.018.8-1.377.8-.36 0-1.367.371-2.238.825-.872.453-2.935 1.067-4.585 1.363-1.65.297-4.211.761-5.691 1.033-2.038.374-3.347.387-5.4.053-6.045-.984-9.541-1.767-10.109-2.262-.33-.288-1.23-.653-2-.812-.77-.159-1.67-.521-2-.805-.33-.283-1.275-.794-2.1-1.135-.825-.34-1.5-.808-1.5-1.04 0-.231-.261-.42-.579-.42-.99 0-6.575-4.914-8.735-7.684-2.34-3.003-3.086-4.068-3.086-4.408 0-.21-.36-.839-.8-1.399-.44-.559-.8-1.328-.8-1.709s-.354-1.142-.787-1.692c-.432-.55-.91-1.79-1.062-2.754-.152-.965-.563-2.196-.914-2.736-.992-1.529-.939-16.992.063-18.522.385-.587.7-1.497.7-2.022 0-1.27.786-3.474 1.239-3.474.199 0 .361-.245.361-.544 0-.735 2.304-5.055 3.244-6.082.416-.454.756-1.033.756-1.286 0-.253.36-.653.8-.888.44-.235.8-.602.8-.814 0-.422 3.684-4.105 5.387-5.386a32.058 32.058 0 0 0 1.873-1.535c.446-.404 1.424-.992 2.175-1.305.751-.314 1.365-.748 1.365-.965 0-.217.243-.395.54-.395.298 0 1.387-.45 2.422-1 1.034-.55 2.237-1 2.672-1 .435 0 1.461-.297 2.279-.66 3.625-1.608 16.809-1.74 20.087-.202" fill="#f6f6fb"/><path d="M172.4.388c0 .226-2.216.435-5.3.5-5.061.107-5.318.153-5.695 1.012-.373.85-.625.9-4.537.9-3.806 0-4.16.065-4.352.8-.179.683-.546.8-2.513.8-3.416 0-4.803.361-4.803 1.25 0 .658-.325.75-2.637.75-2.281 0-2.666.106-2.842.782-.171.651-.616.802-2.663.9-2.202.106-2.471.212-2.586 1.018-.118.834-.33.9-2.9.9-2.505 0-2.772.077-2.772.8 0 .664-.267.8-1.574.8-2.024 0-3.626.614-3.626 1.39 0 .456-.454.61-1.8.61-1.533 0-1.8.119-1.8.8s-.267.8-1.8.8c-1.653 0-1.8.081-1.8 1 0 .933-.133 1-2 1-1.467 0-2.213.213-2.8.8-.44.44-1.141.8-1.558.8-.417 0-1.182.447-1.7.993s-1.304.996-1.746 1c-.442.004-1.028.367-1.303.807-.345.552-.933.8-1.896.8-1.223 0-1.397.124-1.397 1 0 .919-.147 1-1.8 1-1.533 0-1.8.119-1.8.8 0 .561-.268.802-.9.805-1.692.011-2.7.474-2.7 1.242 0 .537-.287.753-1 .753-.733 0-1 .213-1 .8 0 .617-.267.8-1.167.8-1.688 0-2.433.381-2.433 1.243 0 .472-.281.757-.746.757-.41 0-1.175.335-1.7.745-.525.41-1.359.872-1.854 1.027-.526.165-.9.603-.9 1.055 0 .558-.278.773-1 .773-.718 0-1 .216-1 .765 0 .579-.384.83-1.583 1.032-1.061.179-1.664.521-1.827 1.035-.134.423-.592.768-1.017.768-.497 0-.773.276-.773.772s-.322.818-.9.9c-.578.082-.946.45-1.028 1.028-.093.657-.395.9-1.119.9-.545 0-1.408.45-1.918 1s-1.221 1-1.581 1c-.387 0-.654.326-.654.8 0 .545-.267.8-.837.8-.501 0-.922.321-1.047.8-.115.44-.462.8-.771.8s-.767.45-1.018 1c-.25.55-.787 1-1.191 1-.469 0-.736.29-.736.8 0 .531-.267.8-.792.8-.512 0-.882.354-1.044 1-.157.626-.534 1-1.007 1-.481 0-.757.281-.757.772 0 .496-.322.818-.9.9-.578.082-.946.45-1.028 1.028-.082.578-.404.9-.9.9s-.772.276-.772.772-.322.818-.9.9c-.578.082-.946.45-1.028 1.028-.082.578-.404.9-.9.9-.491 0-.772.276-.772.757 0 .473-.374.85-1 1.007-.646.162-1 .532-1 1.044 0 .525-.269.792-.8.792-.51 0-.8.267-.8.736 0 .404-.45.941-1 1.191-.55.251-1 .709-1 1.018 0 .309-.36.656-.8.771-.479.125-.8.546-.8 1.047 0 .57-.255.837-.8.837-.474 0-.8.267-.8.654 0 .36-.45 1.071-1 1.581s-1 1.373-1 1.918c0 .724-.243 1.026-.9 1.119-.578.082-.946.45-1.028 1.028-.082.578-.404.9-.9.9-.489 0-.772.276-.772.753 0 .415-.34.843-.757.952-.521.136-.843.71-1.035 1.846-.213 1.26-.459 1.649-1.043 1.649-.549 0-.765.282-.765 1 0 .722-.215 1-.773 1-.452 0-.89.374-1.055.9-.155.495-.617 1.329-1.027 1.854-.41.525-.745 1.29-.745 1.7 0 .477-.286.746-.792.746-.733 0-1.38 1.215-1.185 2.226.18.934-.084 1.374-.823 1.374-.587 0-.8.267-.8 1 0 .713-.216 1-.753 1-.768 0-1.231 1.008-1.242 2.7-.003.632-.244.9-.805.9-.681 0-.8.267-.8 1.8 0 1.653-.081 1.8-1 1.8-.748 0-1 .211-1 .837 0 .46-.36 1.294-.8 1.854-.44.559-.8 1.344-.8 1.745 0 .4-.45 1.178-1 1.728s-1 1.368-1 1.818c0 .45-.36 1.178-.8 1.618-.587.587-.8 1.333-.8 2.8 0 1.867-.067 2-1 2-.919 0-1 .147-1 1.8 0 1.533-.119 1.8-.8 1.8s-.8.267-.8 1.8c0 1.346-.154 1.8-.61 1.8-.776 0-1.39 1.602-1.39 3.626 0 1.307-.136 1.574-.8 1.574-.723 0-.8.267-.8 2.772 0 2.57-.066 2.782-.9 2.9-.927.132-.973.289-1.061 3.628-.032 1.22-.188 1.5-.839 1.5-.724 0-.8.267-.8 2.8 0 2.471-.088 2.8-.75 2.8-.889 0-1.25 1.387-1.25 4.803 0 1.967-.117 2.334-.8 2.513-.735.192-.8.546-.8 4.352 0 3.912-.05 4.164-.9 4.537-.856.376-.905.642-1.012 5.495-.065 2.952-.275 5.1-.5 5.1C.141 172 0 182.175 0 200s.141 28 .388 28c.225 0 .435 2.148.5 5.1.107 4.853.156 5.119 1.012 5.495.85.373.9.625.9 4.537 0 3.806.065 4.16.8 4.352.683.179.8.546.8 2.513 0 3.416.361 4.803 1.25 4.803.662 0 .75.329.75 2.8 0 2.533.076 2.8.8 2.8.651 0 .807.28.839 1.5.088 3.339.134 3.496 1.061 3.628.834.118.9.33.9 2.9 0 2.505.077 2.772.8 2.772.664 0 .8.267.8 1.574 0 2.024.614 3.626 1.39 3.626.456 0 .61.454.61 1.8 0 1.533.119 1.8.8 1.8s.8.267.8 1.8c0 1.653.081 1.8 1 1.8.933 0 1 .133 1 2 0 1.467.213 2.213.8 2.8.44.44.8 1.141.8 1.558 0 .417.447 1.182.993 1.7s.996 1.249 1 1.624c.004.375.437 1.112.963 1.638.691.691.9 1.251.754 2.018-.178.93-.074 1.062.843 1.062.972 0 1.047.127 1.047 1.773 0 1.397.163 1.825.768 2.017.514.163.856.766 1.035 1.827.202 1.199.453 1.583 1.032 1.583.549 0 .765.282.765 1 0 .733.213 1 .8 1 .617 0 .8.267.8 1.167 0 1.688.381 2.433 1.243 2.433.486 0 .757.281.757.786 0 .432.36.979.8 1.214.458.245.8.838.8 1.386 0 .955.926 2.214 1.629 2.214.204 0 .371.36.371.8 0 .521.267.8.765.8.584 0 .83.389 1.043 1.649.192 1.136.514 1.71 1.035 1.846.417.109.757.525.757.925 0 .399.341.834.757.966s.849.595.962 1.027c.122.467.547.787 1.044.787.63 0 .837.251.837 1.019 0 .573.438 1.425 1 1.946.55.51 1 1.221 1 1.581 0 .387.326.654.8.654.545 0 .8.267.8.837 0 .488.319.921.763 1.037.42.11.856.557.97.993.114.436.581.89 1.037 1.009.469.123.83.545.83.971 0 .486.283.753.8.753.531 0 .8.267.8.792 0 .512.354.882 1 1.044.626.157 1 .534 1 1.007 0 .481.281.757.772.757.496 0 .818.322.9.9.082.578.45.946 1.028 1.028.578.082.9.404.9.9s.276.772.772.772.818.322.9.9c.082.578.45.946 1.028 1.028.578.082.9.404.9.9 0 .491.276.772.757.772.473 0 .85.374 1.007 1 .162.646.532 1 1.044 1 .525 0 .792.269.792.8 0 .51.267.8.736.8.404 0 .941.45 1.191 1 .251.55.709 1 1.018 1 .309 0 .656.36.771.8.125.479.546.8 1.047.8.554 0 .837.255.837.755 0 .547.386.828 1.395 1.018.778.146 1.581.608 1.814 1.044.231.431.76.783 1.177.783.482 0 .805.328.886.9.082.578.45.946 1.028 1.028.578.082.9.404.9.9s.276.772.773.772c.425 0 .883.345 1.017.768.163.514.766.856 1.827 1.035 1.199.202 1.583.453 1.583 1.032 0 .549.282.765 1 .765.726 0 1 .215 1 .782 0 .578.368.851 1.411 1.046.776.146 1.592.604 1.814 1.019.222.414.757.753 1.189.753.503 0 .786.271.786.753 0 .768 1.008 1.231 2.7 1.242.632.003.9.244.9.805 0 .587.267.8 1 .8.723 0 1 .215 1 .775 0 .613.378.833 1.8 1.046 1.402.21 1.8.437 1.8 1.024 0 .628.303.755 1.8.755 1.653 0 1.8.081 1.8 1s.147 1 1.8 1c1.533 0 1.8.119 1.8.8 0 .603.271.803 1.1.813 1.201.014 2.5.809 2.5 1.531 0 .251.385.456.856.456s1.074.298 1.34.662c.314.43 1.269.727 2.722.848 1.909.158 2.257.311 2.36 1.038.099.693.44.875 1.822.975 1.374.099 1.7.272 1.7.9 0 .654.284.777 1.8.777 1.346 0 1.8.154 1.8.61 0 .77 1.597 1.39 3.579 1.39 1.191 0 1.574.176 1.737.8.182.697.546.8 2.819.8 2.401 0 2.62.072 2.737.9.115.806.384.912 2.586 1.018 2.047.098 2.492.249 2.663.9.176.676.561.782 2.842.782 2.096 0 2.637.125 2.637.61 0 .88 1.68 1.39 4.579 1.39 2.191 0 2.556.106 2.737.8.192.735.546.8 4.352.8 3.912 0 4.164.05 4.537.9.377.859.634.905 5.695 1.012 3.084.065 5.3.274 5.3.5 0 .247 10.017.388 27.6.388 18.133 0 27.6-.137 27.6-.4 0-.245 1.875-.4 4.826-.4 4.861 0 6.374-.336 6.374-1.414 0-.478.783-.586 4.237-.586 3.901 0 4.255-.064 4.447-.8.181-.694.546-.8 2.737-.8 2.899 0 4.579-.51 4.579-1.39 0-.489.558-.61 2.8-.61 2.511 0 2.8-.081 2.8-.781 0-.678.328-.796 2.5-.9 2.245-.107 2.513-.211 2.628-1.019.117-.828.336-.9 2.737-.9 2.273 0 2.637-.103 2.819-.8.163-.624.546-.8 1.737-.8 1.982 0 3.579-.62 3.579-1.39 0-.456.454-.61 1.8-.61 1.533 0 1.8-.119 1.8-.8s.267-.8 1.8-.8c1.653 0 1.8-.081 1.8-1 0-.914.15-1 1.746-1 1.14 0 2.099-.278 2.763-.8.56-.44 1.402-.8 1.872-.8.471 0 1.305-.45 1.855-1s1.309-1 1.686-1 .91-.36 1.185-.8c.345-.552.933-.8 1.896-.8 1.223 0 1.397-.124 1.397-1 0-.916.148-1 1.773-1 1.397 0 1.825-.163 2.017-.768.163-.514.766-.856 1.827-1.035 1.199-.202 1.583-.453 1.583-1.032 0-.549.282-.765 1-.765.733 0 1-.213 1-.8 0-.617.267-.8 1.167-.8 1.688 0 2.433-.381 2.433-1.243 0-.531.285-.757.953-.757.617 0 1.028-.282 1.163-.8.139-.533.546-.8 1.218-.8.998 0 2.266-.911 2.266-1.629 0-.204.36-.371.8-.371.515 0 .8-.267.8-.749 0-.567.397-.812 1.64-1.011 1.165-.186 1.701-.491 1.847-1.051.113-.434.533-.789.933-.789.399 0 .834-.341.966-.757s.595-.849 1.027-.962c.467-.122.787-.547.787-1.044 0-.63.251-.837 1.019-.837.573 0 1.425-.438 1.946-1 .51-.55 1.221-1 1.581-1 .387 0 .654-.326.654-.8 0-.587.267-.8 1-.8.713 0 1-.216 1-.753 0-.426.361-.848.83-.971.456-.119.927-.59 1.046-1.046.123-.469.545-.83.971-.83.477 0 .753-.283.753-.772 0-.496.322-.818.9-.9.578-.082.946-.45 1.028-1.028.082-.578.404-.9.9-.9s.772-.276.772-.772.322-.818.9-.9c.578-.082.946-.45 1.028-1.028.082-.578.404-.9.9-.9s.772-.276.772-.772.322-.818.9-.9c.578-.082.946-.45 1.028-1.028.082-.578.404-.9.9-.9s.772-.276.772-.772.322-.818.9-.9c.578-.082.946-.45 1.028-1.028.082-.578.404-.9.9-.9.489 0 .772-.276.772-.753 0-.426.361-.848.83-.971.456-.119.923-.573 1.037-1.009.114-.436.55-.883.97-.993.444-.116.763-.549.763-1.037 0-.57.255-.837.8-.837.508 0 .8-.267.8-.73 0-.402.45-1.153 1-1.67.55-.517 1-1.358 1-1.87 0-.677.228-.93.837-.93.497 0 .922-.32 1.044-.787.113-.432.546-.895.962-1.027.416-.132.757-.567.757-.966 0-.4.355-.82.789-.933.56-.146.865-.682 1.051-1.847.199-1.243.444-1.64 1.011-1.64.482 0 .749-.285.749-.8 0-.44.167-.8.371-.8.718 0 1.629-1.268 1.629-2.266 0-.672.267-1.079.8-1.218.518-.135.8-.546.8-1.163 0-.668.226-.953.757-.953.862 0 1.243-.745 1.243-2.433 0-.9.183-1.167.8-1.167.587 0 .8-.267.8-1 0-.718.216-1 .765-1 .579 0 .83-.384 1.032-1.583.179-1.061.521-1.664 1.035-1.827.605-.192.768-.62.768-2.017 0-1.625.084-1.773 1-1.773.876 0 1-.174 1-1.397 0-.963.248-1.551.8-1.896.44-.275.803-.861.807-1.303.004-.442.454-1.228 1-1.746s.993-1.308.993-1.756c0-.448.298-1.032.662-1.298.432-.315.728-1.272.85-2.744.17-2.06.271-2.26 1.138-2.26.859 0 .95-.172.95-1.8 0-1.533.119-1.8.8-1.8s.8-.267.8-1.8c0-1.346.154-1.8.61-1.8.77 0 1.39-1.597 1.39-3.579 0-1.191.176-1.574.8-1.737.697-.182.8-.546.8-2.819 0-2.401.072-2.62.9-2.737.808-.115.912-.383 1.019-2.628.104-2.172.222-2.5.9-2.5.7 0 .781-.289.781-2.8 0-2.242.121-2.8.61-2.8.88 0 1.39-1.68 1.39-4.579 0-2.191.106-2.556.8-2.737.735-.192.8-.546.8-4.352 0-3.912.05-4.164.9-4.537.859-.377.905-.634 1.012-5.695.065-3.084.274-5.3.5-5.3.247 0 .388-10.017.388-27.6 0-17.583-.141-27.6-.388-27.6-.226 0-.435-2.216-.5-5.3-.107-5.061-.153-5.318-1.012-5.695-.85-.373-.9-.625-.9-4.537 0-3.806-.065-4.16-.8-4.352-.694-.181-.8-.546-.8-2.737 0-2.899-.51-4.579-1.39-4.579-.489 0-.61-.558-.61-2.8 0-2.511-.081-2.8-.781-2.8-.678 0-.796-.328-.9-2.5-.107-2.245-.211-2.513-1.019-2.628-.828-.117-.9-.336-.9-2.737 0-2.273-.103-2.637-.8-2.819-.624-.163-.8-.546-.8-1.737 0-1.982-.62-3.579-1.39-3.579-.456 0-.61-.454-.61-1.8 0-1.533-.119-1.8-.8-1.8s-.8-.267-.8-1.8c0-1.628-.091-1.8-.95-1.8-.867 0-.968-.2-1.138-2.26-.122-1.472-.418-2.429-.85-2.744-.364-.266-.662-.85-.662-1.298 0-.448-.447-1.238-.993-1.756s-.996-1.304-1-1.746c-.004-.442-.367-1.028-.807-1.303-.552-.345-.8-.933-.8-1.896 0-1.223-.124-1.397-1-1.397-.919 0-1-.147-1-1.8 0-1.497-.127-1.8-.755-1.8-.587 0-.814-.398-1.024-1.8-.213-1.422-.433-1.8-1.046-1.8-.56 0-.775-.277-.775-1 0-.733-.213-1-.8-1-.617 0-.8-.267-.8-1.167 0-1.688-.381-2.433-1.243-2.433-.486 0-.757-.281-.757-.786 0-.432-.36-.979-.8-1.214-.44-.235-.8-.767-.8-1.181 0-1.283-.453-2.019-1.243-2.019-.541 0-.757-.286-.757-1 0-.718-.216-1-.765-1-.584 0-.83-.389-1.043-1.649-.192-1.136-.514-1.71-1.035-1.846-.417-.109-.757-.537-.757-.952 0-.477-.283-.753-.772-.753-.496 0-.818-.322-.9-.9-.082-.578-.45-.946-1.028-1.028-.657-.093-.9-.395-.9-1.119 0-.545-.45-1.408-1-1.918s-1-1.221-1-1.581c0-.387-.326-.654-.8-.654-.587 0-.8-.267-.8-1s-.213-1-.8-1c-.449 0-.8-.267-.8-.609 0-.334-.45-.813-1-1.064-.55-.25-1-.787-1-1.191 0-.469-.29-.736-.8-.736-.531 0-.8-.267-.8-.792 0-.512-.354-.882-1-1.044-.626-.157-1-.534-1-1.007 0-.481-.281-.757-.772-.757-.496 0-.818-.322-.9-.9-.082-.578-.45-.946-1.028-1.028-.578-.082-.9-.404-.9-.9s-.276-.772-.772-.772-.818-.322-.9-.9c-.082-.578-.45-.946-1.028-1.028-.578-.082-.9-.404-.9-.9s-.276-.772-.772-.772-.818-.322-.9-.9c-.082-.578-.45-.946-1.028-1.028-.578-.082-.9-.404-.9-.9 0-.489-.276-.772-.753-.772-.426 0-.848-.361-.971-.83-.119-.456-.59-.927-1.046-1.046-.469-.123-.83-.545-.83-.971 0-.537-.287-.753-1-.753-.733 0-1-.213-1-.8 0-.545-.267-.8-.837-.8-.502 0-.922-.322-1.048-.803-.148-.566-.668-.876-1.762-1.051-1.193-.191-1.553-.431-1.553-1.035 0-.445-.341-.875-.787-.992-.432-.113-.895-.546-1.027-.962-.132-.416-.567-.757-.966-.757-.4 0-.816-.34-.925-.757-.136-.521-.71-.843-1.846-1.035-1.26-.213-1.649-.459-1.649-1.043 0-.498-.279-.765-.8-.765-.44 0-.8-.167-.8-.371 0-.703-1.259-1.629-2.214-1.629-.548 0-1.141-.342-1.386-.8-.235-.44-.782-.8-1.214-.8-.505 0-.786-.271-.786-.757 0-.862-.745-1.243-2.433-1.243-.9 0-1.167-.183-1.167-.8 0-.587-.267-.8-1-.8-.718 0-1-.216-1-.765 0-.579-.384-.83-1.583-1.032-1.061-.179-1.664-.521-1.827-1.035-.192-.605-.62-.768-2.017-.768-1.625 0-1.773-.084-1.773-1 0-.788-.203-1-.957-1-.527 0-1.057-.26-1.179-.578-.122-.318-.876-.701-1.675-.851-.8-.149-1.881-.699-2.403-1.222-.522-.522-1.318-.949-1.768-.949-.45 0-1.178-.36-1.618-.8-.587-.587-1.333-.8-2.8-.8-1.867 0-2-.067-2-1 0-.919-.147-1-1.8-1-1.533 0-1.8-.119-1.8-.8s-.267-.8-1.8-.8c-1.493 0-1.8-.128-1.8-.75 0-.806-1.367-1.25-3.85-1.25-1.083 0-1.35-.158-1.35-.8 0-.724-.267-.8-2.8-.8-2.72 0-2.8-.029-2.8-1 0-.964-.093-1-2.6-1-2.333 0-2.6-.082-2.6-.8 0-.724-.267-.8-2.8-.8-2.471 0-2.8-.088-2.8-.75 0-.889-1.387-1.25-4.803-1.25-1.967 0-2.334-.117-2.513-.8-.192-.735-.546-.8-4.352-.8-3.912 0-4.164-.05-4.537-.9-.377-.859-.634-.905-5.695-1.012-3.084-.065-5.3-.274-5.3-.5C227.6.141 217.583 0 200 0c-17.583 0-27.6.141-27.6.388m97.4 54.148c.988.437 3.129.802 5.597.952 3.669.225 4.088.335 5.1 1.348l1.103 1.102V70.12c0 10.775-.075 12.245-.652 12.723-.92.763-4.915.602-6.591-.266-.757-.392-2.911-.847-4.872-1.028-1.933-.179-4.183-.645-5-1.035-2.412-1.152-21.204-.955-23.47.246-.871.462-2.242.84-3.046.84-.855 0-1.883.332-2.478.8-.56.44-1.29.8-1.623.8-.334 0-1.141.45-1.795 1-.654.55-1.407 1-1.674 1-.62 0-4.799 4.366-4.799 5.014 0 .268-.261.704-.58.969-.318.265-.791 1.142-1.05 1.949-.259.807-.717 1.751-1.019 2.097-.301.346-.656 1.516-.789 2.6s-.591 3.051-1.016 4.371c-.678 2.099-.76 3.378-.66 10.2l.114 7.8 24.6.2c13.53.11 24.825.346 25.1.524.823.532.709 23-.123 24.187l-.622.889h-23.604c-15.589 0-23.868.141-24.382.416-.766.41-.778 1.504-.802 70.9-.026 72.839-.186 82.737-1.365 84.537-.367.56-.765 2.037-.885 3.283-.12 1.245-.536 2.804-.925 3.464-.389.66-.834 1.978-.99 2.928-.155.95-.516 1.817-.801 1.927-.286.11-.714.972-.952 1.916-.238.945-.706 1.944-1.041 2.222-.334.278-.608.829-.608 1.225 0 .396-.45 1.255-1 1.909-.55.654-1 1.29-1 1.413 0 .516-2.827 4.561-4.259 6.095-.473.506-.923 1.098-1 1.317-.498 1.405-9.187 10.048-10.102 10.048-.131 0-.581.315-.999.7-2.359 2.174-3.311 2.9-3.804 2.9-.303 0-.654.27-.781.6-.126.33-.471.6-.765.6-.294 0-1.132.441-1.862.979-.729.539-1.829 1.09-2.444 1.224-.614.135-1.217.505-1.338.821-.122.317-.56.576-.974.576-.414 0-1.56.429-2.547.954-.986.524-2.543 1.08-3.459 1.235-.916.155-1.666.437-1.666.627 0 .466-2.663 1.179-4.411 1.182-.776.001-1.816.286-2.312.633-2.191 1.535-25.563 1.535-27.754 0-.495-.347-1.633-.631-2.527-.631-.895 0-2.34-.367-3.211-.815-.872-.448-2.392-.998-3.379-1.223-.986-.224-2.066-.647-2.4-.94-.333-.293-1.203-.66-1.933-.815-.73-.155-1.417-.518-1.528-.805-.11-.288-.793-.635-1.518-.771-.724-.135-1.64-.603-2.034-1.039-.394-.436-.914-.795-1.155-.798-.241-.003-1.338-.639-2.438-1.411a202 202 0 0 0-3-2.072c-2.082-1.388-5.506-4.397-8.4-7.383-4.314-4.451-5.2-5.48-5.2-6.039 0-.273-.36-.721-.8-.996-.44-.275-.8-.758-.8-1.074 0-.315-.347-.817-.772-1.114-.424-.298-.89-1.014-1.036-1.593-.145-.579-.608-1.364-1.028-1.745-.42-.38-.764-.941-.764-1.246 0-.305-.34-.919-.756-1.365-.415-.446-.864-1.354-.996-2.016-.133-.663-.603-1.665-1.044-2.226-.442-.562-.804-1.513-.804-2.114s-.333-1.521-.739-2.046c-.407-.525-.853-1.81-.993-2.857-.139-1.047-.555-2.362-.922-2.924-.424-.647-.732-2.148-.841-4.097-.095-1.692-.461-3.865-.814-4.829-.933-2.553-.949-12.749-.025-15.247.367-.99.744-3.184.839-4.876.103-1.855.421-3.456.799-4.033.345-.527.749-1.843.897-2.924.149-1.082.585-2.417.969-2.967.384-.55.814-1.719.955-2.599.141-.879.493-1.779.782-2 .288-.22.743-1.145 1.011-2.054.267-.908.755-1.875 1.084-2.149.329-.273.598-.73.598-1.016 0-.286.45-1.055 1-1.709.55-.654 1-1.317 1-1.475 0-.513 2.525-4.198 2.877-4.198.189 0 .516-.455.727-1.01.211-.556.657-1.115.99-1.243.333-.128.606-.418.606-.645 0-.497 7.768-8.302 8.262-8.302.19 0 .57-.36.845-.8.275-.44.759-.8 1.077-.8.317 0 .72-.231.896-.513.404-.648 3.755-3.087 4.241-3.087.2 0 .898-.45 1.552-1s1.515-1 1.915-1c.399 0 .824-.253.942-.562.119-.31.76-.682 1.424-.828.665-.146 1.673-.631 2.241-1.078.568-.446 1.746-.908 2.619-1.025.872-.117 1.586-.351 1.586-.521 0-.405 2.269-1.186 3.447-1.186.511 0 1.626-.363 2.478-.808 1.009-.526 2.722-.893 4.912-1.054 1.85-.136 3.581-.419 3.847-.629 1.391-1.095 13.135-1.181 16.316-.119.88.294 2.921.644 4.535.778 1.615.134 3.685.579 4.6.989.916.41 2.505.866 3.532 1.014 1.027.147 2.069.511 2.315.807.245.296 1.106.662 1.911.813.805.151 1.903.62 2.44 1.042.536.422 1.286.767 1.667.767s1.15.36 1.709.8c.56.44 1.189.8 1.398.8.21 0 1.061.461 1.892 1.025.853.579 1.662.874 1.858.678.193-.193.301-19.252.245-42.925L190.6 146.2l-8.589-.2-8.588-.2-.506-1c-.719-1.423-.734-22.755-.017-23.719.437-.588 1.587-.686 9.1-.777l8.6-.104.243-6.021c.133-3.311.451-6.652.706-7.424.255-.773.62-3.509.812-6.082.217-2.897.573-5.019.937-5.575.323-.494.721-1.972.884-3.285.168-1.345.629-2.81 1.058-3.354.418-.532.76-1.384.76-1.894 0-1.059.784-2.965 1.22-2.965.16 0 .406-.612.546-1.36.14-.748.511-1.572.824-1.832.313-.26.772-1.088 1.021-1.84.248-.752.622-1.368.83-1.368.208 0 .558-.471.776-1.046.464-1.219 1.519-2.626 3.883-5.177.935-1.009 1.7-2.001 1.7-2.206 0-.204.157-.371.349-.371.191 0 1.259-.855 2.372-1.9 2.563-2.406 4.853-4.1 5.543-4.1.295 0 .536-.163.536-.362 0-.457 3.845-2.628 5.272-2.977.59-.144 1.353-.543 1.696-.886.343-.343 1.301-.726 2.128-.851.827-.125 2.044-.542 2.704-.927.66-.385 2.368-.825 3.796-.979 1.428-.154 2.838-.481 3.135-.726 1.588-1.319 32.535-1.455 35.469-.156M149.6 251.788c-.55.308-2.162.687-3.583.841-1.461.16-3.355.693-4.36 1.227-.977.519-2.087.944-2.468.944-.38 0-.909.263-1.176.585-.267.321-.874.706-1.349.854-.475.149-1.373.696-1.995 1.216-.622.52-1.284.945-1.471.945-.188 0-1.186.81-2.22 1.8-1.033.99-2.036 1.8-2.228 1.8-.193 0-.35.201-.35.447s-.702 1.128-1.561 1.961c-.858.833-1.673 1.869-1.81 2.301-.137.432-.605 1.107-1.039 1.5-.435.393-.79.933-.79 1.199s-.382.969-.848 1.562c-.466.593-1.011 1.805-1.211 2.693-.199.889-.606 1.859-.903 2.156-.297.297-.67 1.765-.829 3.261-.159 1.496-.541 3.327-.849 4.069-.721 1.736-.731 7.465-.016 9.501.299.852.676 2.63.836 3.95.161 1.32.636 2.961 1.056 3.647.42.686.764 1.693.764 2.238 0 .545.344 1.302.764 1.682.42.381.885 1.172 1.032 1.759.147.587.52 1.339.829 1.671.308.332 1.689 1.986 3.068 3.677s3.407 3.761 4.507 4.6c1.1.839 2.144 1.751 2.32 2.026.176.275.574.5.884.5.311 0 .887.336 1.28.747.394.411 1.377.96 2.184 1.22.807.261 1.684.735 1.949 1.053.265.319.961.58 1.547.58.587 0 1.78.399 2.651.887 1.503.841 2.04.887 10.385.887 8.345 0 8.882-.046 10.385-.887.871-.488 2.013-.887 2.536-.887.524 0 1.41-.36 1.97-.8.559-.44 1.326-.8 1.705-.8.378 0 1.173-.45 1.766-1 .594-.55 1.424-1 1.845-1 .42 0 .958-.36 1.193-.8.235-.44.615-.8.844-.8.229 0 1.835-1.485 3.571-3.3 4.18-4.372 4.208-4.406 4.995-6.064.375-.79.832-1.436 1.017-1.436.185 0 .453-.618.594-1.374.142-.755.6-1.683 1.019-2.062.418-.378.76-1.212.76-1.852 0-1.238.633-2.726 1.36-3.197.784-.509.417-18.473-.403-19.724-.366-.558-.82-1.844-1.009-2.858-.189-1.013-.595-2.042-.902-2.288-.307-.245-.766-1.104-1.021-1.91-.255-.805-.725-1.565-1.044-1.687-.32-.123-.581-.589-.581-1.035 0-.447-.178-.813-.395-.813-.217 0-.827-.675-1.355-1.5-1.351-2.111-4.217-4.989-6.604-6.631-1.117-.768-2.317-1.683-2.667-2.033-.35-.35-.869-.636-1.154-.636-.284 0-.946-.337-1.471-.748-.525-.411-1.541-.876-2.258-1.033-.717-.156-1.555-.535-1.862-.842-.307-.307-1.88-.761-3.496-1.009-1.616-.248-3.545-.703-4.287-1.01-1.817-.752-8.691-.731-10.051.03" fill="#3333bc"/><path d="M241.305 54.287c.609.092 1.509.09 2-.005.492-.095-.005-.171-1.105-.168-1.1.003-1.503.081-.895.173m16.995.002c.715.089 1.885.089 2.6 0 .715-.088.13-.161-1.3-.161-1.43 0-2.015.073-1.3.161m5.4.387c.385.1 1.015.1 1.4 0 .385-.101.07-.183-.7-.183s-1.085.082-.7.183m-28.3.524c-.504.217-.578.344-.2.344.33 0 .96-.155 1.4-.344.504-.217.578-.344.2-.344-.33 0-.96.155-1.4.344m41.6 1.258c3.356.781 3.174.041 3.411 13.859l.212 12.283.088-11.926c.103-13.857-.189-14.829-4.398-14.631-.56.026-.295.187.687.415M207.787 68.9l-2.387 2.5 2.5-2.387c1.375-1.314 2.5-2.439 2.5-2.5 0-.296-.395.065-2.613 2.387m42.12 10.19c.719.089 1.799.087 2.4-.004s.013-.164-1.307-.162c-1.32.002-1.812.077-1.093.166m4.793-.001c.715.089 1.885.089 2.6 0 .715-.088.13-.161-1.3-.161-1.43 0-2.015.073-1.3.161M231.103 83.7c-.518.495-.663.7-.323.456.341-.244.98-.644 1.42-.888.44-.244.585-.449.322-.456-.262-.007-.901.393-1.419.888m-8.325 9.798c-.904 1.803-.891 1.981.042.585.484-.724.797-1.4.695-1.501-.102-.102-.434.31-.737.916M192.501 105c.004.88.086 1.193.182.695.096-.497.092-1.217-.008-1.6-.1-.382-.179.025-.174.905m27.213 2.8c.003 1.1.081 1.503.173.895.092-.609.09-1.509-.005-2-.095-.492-.171.005-.168 1.105m-27.907 6.407c-.16 2.993-.202 5.532-.092 5.642.11.11.332-2.249.492-5.242.16-2.993.201-5.532.091-5.642-.11-.11-.331 2.249-.491 5.242m27.477 1.431c-.123 6.209-3.004 5.588 25.351 5.462l23.965-.106-24.051-.097c-27.75-.112-24.868.5-25.05-5.32l-.13-4.177-.085 4.238m-45.823 5.462c-.103.165 2.362.253 5.476.196 10.597-.194 11.68-.335 3.187-.416-4.662-.044-8.561.055-8.663.22m-.568 11.938c-.116 13.552-1.202 12.162 9.494 12.162 7.269 0 8.181.074 8.656.7.936 1.233.796 86.379-.143 86.624-.527.138-.477.195.2.23l.9.046v-43.111c0-38.371-.068-43.209-.623-44-.609-.87-.798-.889-8.951-.889-6.449 0-8.428-.12-8.77-.533-.293-.352-.481-4.184-.556-11.3l-.114-10.767-.093 10.838m97.281.362c.001 5.72.057 8.004.125 5.076.069-2.928.068-7.608 0-10.4-.069-2.792-.125-.396-.125 5.324m-1.374 11c-.55.176-11.569.338-24.486.36-23.378.04-23.488.044-23.932.874-.246.459-.359.923-.251 1.03.108.108.313-.172.456-.622.257-.811.48-.819 24.416-.93 18.67-.087 24.271-.226 24.657-.612.553-.553.555-.553-.86-.1m-116.6 78.034c-1.393.167-.664.25 2.4.272 4.487.031 5.196-.135 1.6-.377-1.1-.074-2.9-.027-4 .105m-8.5 1.042c.385.1 1.015.1 1.4 0 .385-.101.07-.183-.7-.183s-1.085.082-.7.183m20.4 0c.385.1 1.015.1 1.4 0 .385-.101.07-.183-.7-.183s-1.085.082-.7.183M138 224.6c-.77.297-1.13.545-.8.552.33.006 1.14-.235 1.8-.538 1.545-.707.826-.717-1-.014m42.6 3.4c.66.437 1.38.795 1.6.796.22 0-.189-.358-.91-.797-1.698-1.036-2.254-1.035-.69.001m-56.8 2.027c-.66.423-.995.77-.744.771.25.001.88-.352 1.4-.785 1.189-.99.903-.984-.656.014m28.913 20.668c1.163.081 2.963.081 4-.002 1.038-.082.087-.148-2.113-.147-2.2.001-3.049.068-1.887.149M146 251.6c-.533.345-.533.388 0 .388.33 0 .87-.175 1.2-.388.533-.345.533-.388 0-.388-.33 0-.87.175-1.2.388m-46.298.5c-.566.715-1.362 2.3-1.156 2.3.096 0 .547-.63 1.001-1.4.826-1.399.902-1.843.155-.9m40.898 1.1c-1.564 1.036-1.008 1.037.69.001.721-.439 1.13-.797.91-.797-.22.001-.94.359-1.6.796m27.31.001c1.698 1.036 2.254 1.035.69-.001-.66-.437-1.38-.795-1.6-.796-.22 0 .189.358.91.797m2.523.92c.092.067.707.437 1.367.824l1.2.702-.944-.823c-.52-.453-1.135-.824-1.367-.824-.232 0-.347.054-.256.121m-42.422 7.668c-1.411 1.424-2.486 2.644-2.389 2.71.098.067 1.334-1.098 2.747-2.589 3.267-3.448 3.022-3.531-.358-.121m55.605 2.856c.018.391 2.384 3.264 2.384 2.895 0-.127-.54-.909-1.2-1.74-.66-.831-1.193-1.35-1.184-1.155M90.891 272.5c-.681 1.884-.587 2.394.135.73.327-.753.54-1.531.475-1.728-.066-.197-.341.252-.61.998m29.087 1.398c-.904 1.803-.891 1.981.042.585.484-.724.797-1.4.695-1.501-.102-.102-.434.31-.737.916M90.093 276.8c0 .77.082 1.085.183.7.1-.385.1-1.015 0-1.4-.101-.385-.183-.07-.183.7m-.4 3.6c0 .77.082 1.085.183.7.1-.385.1-1.015 0-1.4-.101-.385-.183-.07-.183.7m101.221 1c.003 1.1.081 1.503.173.895.092-.609.09-1.509-.005-2-.095-.492-.171.005-.168 1.105m29.232 3.2c.001 2.2.068 3.049.149 1.887.081-1.163.081-2.963-.002-4-.082-1.038-.148-.087-.147 2.113m-102.793 3.2c0 2.64.065 3.668.144 2.284.078-1.383.077-3.543-.002-4.8-.079-1.256-.143-.124-.142 2.516m-28.214-2.18c-.077 1.111-.031 3.136.1 4.5.198 2.056.249 1.71.3-2.02.063-4.654-.157-6.02-.4-2.48m102.154 1.58c0 .77.082 1.085.183.7.1-.385.1-1.015 0-1.4-.101-.385-.183-.07-.183.7m.4 2.8c0 .77.082 1.085.183.7.1-.385.1-1.015 0-1.4-.101-.385-.183-.07-.183.7m28.008 5c.004.88.086 1.193.182.695.096-.497.092-1.217-.008-1.6-.1-.382-.179.025-.174.905m-102.089-.6c0 .33.175.87.388 1.2.345.533.388.533.388 0 0-.33-.175-.87-.388-1.2-.345-.533-.388-.533-.388 0M90.101 299c.004.88.086 1.193.182.695.096-.497.092-1.217-.008-1.6-.1-.382-.179.025-.174.905m128.528 1.229c-.148.586-.191 1.143-.097 1.237.095.094.292-.308.439-.895.148-.586.191-1.143.097-1.237-.095-.094-.292.308-.439.895m-30.75 4.145c-.373.632-.678 1.302-.678 1.488.001.186.371-.267.822-1.007.451-.74.756-1.409.678-1.488-.079-.078-.449.375-.822 1.007m-63.903 4.868c.661 1.013 1.519 2.093 1.905 2.4.696.552-.362-.968-2.195-3.153-.536-.64-.417-.329.29.753m4.879 5.588c2.797 2.708 5.088 4.563 5.328 4.317.079-.081-.497-.597-1.281-1.147-.783-.55-2.612-2.066-4.063-3.37l-2.639-2.369 2.655 2.569m52.126-.73-1.581 1.7 1.7-1.581c1.581-1.471 1.884-1.819 1.581-1.819-.065 0-.83.765-1.7 1.7M174 319.6c-.99.658-1.661 1.197-1.491 1.198.348.002 3.491-2.024 3.491-2.251 0-.255-.158-.172-2 1.053m-3.8 2c-.66.437-1.02.795-.8.795.22 0 .94-.358 1.6-.795.66-.437 1.02-.795.8-.795-.22 0-.94.358-1.6.795m-27.4 1.8c.55.314 1.18.572 1.4.572.22 0-.05-.258-.6-.572-.55-.314-1.18-.572-1.4-.572-.22 0 .05.258.6.572m22.8 0c-.55.314-.82.572-.6.572.22 0 .85-.258 1.4-.572.55-.314.82-.572.6-.572-.22 0-.85.258-1.4.572m-14.5 1.682a5.661 5.661 0 0 0 1.8 0c.495-.095.09-.173-.9-.173s-1.395.078-.9.173m5.2 0a5.661 5.661 0 0 0 1.8 0c.495-.095.09-.173-.9-.173s-1.395.078-.9.173m-53.9 2.376c0 .216.585.921 1.3 1.567l1.3 1.175-1.2-1.398c-.66-.769-1.245-1.474-1.3-1.567-.055-.092-.1.008-.1.223m9.634 10.201c1.737 1.624 2.807 2.49 3.583 2.899.721.379-.962-1.107-3.282-2.899l-1.735-1.34 1.434 1.34m10.71 7.517c.52.453 1.135.824 1.367.824.492 0 .468-.02-1.111-.945l-1.2-.702.944.823m2.089.945c.092.067.707.437 1.367.824l1.2.702-.944-.823c-.52-.453-1.135-.824-1.367-.824-.232 0-.347.054-.256.121M178 348.848c-.77.413-1.13.75-.8.749.33-.001 1.14-.36 1.8-.797 1.492-.988.878-.958-1 .048m-5 1.766c-.66.303-.93.552-.6.554.33.002 1.05-.254 1.6-.568 1.265-.723.589-.713-1 .014" fill="#9494dc"/><path d="M236.535 53.954c-.916.16-1.908.492-2.204.738-.297.245-1.707.572-3.135.726-1.428.154-3.136.594-3.796.979-.66.385-1.877.802-2.704.927-.827.125-1.785.508-2.128.851-.343.343-1.106.742-1.696.886-1.427.349-5.272 2.52-5.272 2.977 0 .199-.241.362-.536.362-.69 0-2.98 1.694-5.543 4.1-1.113 1.045-2.181 1.9-2.372 1.9-.192 0-.349.167-.349.371 0 .205-.765 1.197-1.7 2.206-2.364 2.551-3.419 3.958-3.883 5.177-.218.575-.568 1.046-.776 1.046-.208 0-.582.616-.83 1.368-.249.752-.708 1.58-1.021 1.84-.313.26-.684 1.084-.824 1.832-.14.748-.386 1.36-.546 1.36-.436 0-1.22 1.906-1.22 2.965 0 .51-.342 1.362-.76 1.894-.429.544-.89 2.009-1.058 3.354-.163 1.313-.561 2.791-.884 3.285-.364.556-.72 2.678-.937 5.575-.192 2.573-.557 5.309-.812 6.082-.255.772-.573 4.113-.706 7.424l-.243 6.021-8.6.104c-7.513.091-8.663.189-9.1.777-.717.964-.702 22.296.017 23.719l.506 1 8.588.2 8.589.2.102 42.578c.056 23.673-.052 42.732-.245 42.925-.196.196-1.005-.099-1.858-.678-.831-.564-1.682-1.025-1.892-1.025-.209 0-.838-.36-1.398-.8-.559-.44-1.328-.8-1.709-.8s-1.131-.345-1.667-.767c-.537-.422-1.635-.891-2.44-1.042-.805-.151-1.666-.517-1.911-.813-.246-.296-1.288-.66-2.315-.807-1.027-.148-2.616-.604-3.532-1.014-.915-.41-2.985-.855-4.6-.989-1.614-.134-3.655-.484-4.535-.778-3.181-1.062-14.925-.976-16.316.119-.266.21-1.997.493-3.847.629-2.19.161-3.903.528-4.912 1.054-.852.445-1.967.808-2.478.808-1.178 0-3.447.781-3.447 1.186 0 .17-.714.404-1.586.521-.873.117-2.051.579-2.619 1.025-.568.447-1.576.932-2.241 1.078-.664.146-1.305.518-1.424.828-.118.309-.543.562-.942.562-.4 0-1.261.45-1.915 1-.654.55-1.352 1-1.552 1-.486 0-3.837 2.439-4.241 3.087-.176.282-.579.513-.896.513-.318 0-.802.36-1.077.8-.275.44-.655.8-.845.8-.494 0-8.262 7.805-8.262 8.302 0 .227-.273.517-.606.645-.333.128-.779.687-.99 1.243-.211.555-.538 1.01-.727 1.01-.352 0-2.877 3.685-2.877 4.198 0 .158-.45.821-1 1.475-.55.654-1 1.423-1 1.709 0 .286-.269.743-.598 1.016-.329.274-.817 1.241-1.084 2.149-.268.909-.723 1.834-1.011 2.054-.289.221-.641 1.121-.782 2-.141.88-.571 2.049-.955 2.599-.384.55-.82 1.885-.969 2.967-.148 1.081-.552 2.397-.897 2.924-.378.577-.696 2.178-.799 4.033-.095 1.692-.472 3.886-.839 4.876-.924 2.498-.908 12.694.025 15.247.353.964.719 3.137.814 4.829.109 1.949.417 3.45.841 4.097.367.562.783 1.877.922 2.924.14 1.047.586 2.332.993 2.857.406.525.739 1.445.739 2.046 0 .601.362 1.552.804 2.114.441.561.911 1.563 1.044 2.226.132.662.581 1.57.996 2.016.416.446.756 1.06.756 1.365 0 .305.344.866.764 1.246.42.381.883 1.166 1.028 1.745.146.579.612 1.295 1.036 1.593.425.297.772.799.772 1.114 0 .316.36.799.8 1.074.44.275.8.723.8.996 0 1.247 9.707 10.827 13.6 13.422a202 202 0 0 1 3 2.072c1.1.772 2.197 1.408 2.438 1.411.241.003.761.362 1.155.798.394.436 1.31.904 2.034 1.039.725.136 1.408.483 1.518.771.111.287.798.65 1.528.805.73.155 1.6.522 1.933.815.334.293 1.414.716 2.4.94.987.225 2.507.775 3.379 1.223.871.448 2.316.815 3.211.815.894 0 2.032.284 2.527.631 2.191 1.535 25.563 1.535 27.754 0 .496-.347 1.536-.632 2.312-.633 1.748-.003 4.411-.716 4.411-1.182 0-.19.75-.472 1.666-.627.916-.155 2.473-.711 3.459-1.235.987-.525 2.133-.954 2.547-.954.414 0 .852-.259.974-.576.121-.316.724-.686 1.338-.821.615-.134 1.715-.685 2.444-1.224.73-.538 1.568-.979 1.862-.979.294 0 .639-.27.765-.6.127-.33.478-.6.781-.6.493 0 1.445-.726 3.804-2.9.418-.385.868-.7.999-.7.915 0 9.604-8.643 10.102-10.048.077-.219.527-.811 1-1.317 1.432-1.534 4.259-5.579 4.259-6.095 0-.123.45-.759 1-1.413s1-1.513 1-1.909c0-.396.274-.947.608-1.225.335-.278.803-1.277 1.041-2.222.238-.944.666-1.806.952-1.916.285-.11.646-.977.801-1.927.156-.95.601-2.268.99-2.928.389-.66.805-2.219.925-3.464.12-1.246.518-2.723.885-3.283 1.179-1.8 1.339-11.698 1.365-84.537.024-69.396.036-70.49.802-70.9.514-.275 8.793-.416 24.382-.416h23.604l.622-.889c.832-1.187.946-23.655.123-24.187-.275-.178-11.57-.414-25.1-.524l-24.6-.2-.114-7.8c-.1-6.822-.018-8.101.66-10.2.425-1.32.883-3.287 1.016-4.371.133-1.084.488-2.254.789-2.6.302-.346.76-1.29 1.019-2.097.259-.807.732-1.684 1.05-1.949.319-.265.58-.701.58-.969 0-.648 4.179-5.014 4.799-5.014.267 0 1.02-.45 1.674-1 .654-.55 1.461-1 1.795-1 .333 0 1.063-.36 1.623-.8.595-.468 1.623-.8 2.478-.8.804 0 2.175-.378 3.046-.84 2.266-1.201 21.058-1.398 23.47-.246.817.39 3.067.856 5 1.035 1.961.181 4.115.636 4.872 1.028 1.676.868 5.671 1.029 6.591.266.577-.478.652-1.948.652-12.723V57.938l-1.103-1.102c-1.012-1.013-1.431-1.123-5.1-1.348-2.468-.15-4.609-.515-5.597-.952-1.715-.759-29.463-1.245-33.265-.582m30.865.962c1.32.336 4.02.731 6 .878 4.35.322 6.003.79 6.799 1.926.926 1.322.896 24.481-.032 24.837-1.075.413-2.929.27-4.385-.339-.765-.319-2.867-.783-4.67-1.03s-3.556-.592-3.895-.767c-3.137-1.619-25.391-1.656-27.402-.046-.228.183-1.045.46-1.815.616-4.164.844-12.8 6.755-12.8 8.762 0 .136-.36.607-.8 1.047-.44.44-.8 1.12-.8 1.511 0 .391-.3 1.14-.667 1.664-.367.524-.889 1.869-1.16 2.989-.271 1.12-.777 3.095-1.125 4.389-.939 3.496-1.389 18.266-.577 18.94.446.37 6.449.515 24.839.598 19.233.086 24.358.216 24.77.628.821.82.979 21.585.173 22.681-.575.782-1.117.802-24.762.912l-24.173.112-.475 1.042c-.362.793-.468 18.789-.447 75.288.025 66.934-.035 74.522-.617 77.046a258.14 258.14 0 0 0-1.186 5.47c-.298 1.469-.823 3.215-1.167 3.88-.344.666-.626 1.522-.626 1.904 0 1.765-4.63 10.56-8.844 16.8-1.166 1.728-5.458 6.631-7.093 8.104-4.138 3.729-6.06 5.378-6.954 5.966-6.787 4.462-6.581 4.335-8.565 5.248-.911.419-1.768.943-1.905 1.164-.136.221-.831.529-1.544.683-.712.155-1.925.597-2.695.983-7.798 3.907-26.579 5.815-35.8 3.636-1.76-.415-4.01-.885-5-1.042-.99-.158-1.98-.428-2.2-.6-.22-.173-1.3-.586-2.4-.918-3.655-1.103-9.448-3.83-12.681-5.969-1.254-.83-2.398-1.509-2.542-1.509-.144 0-.76-.405-1.369-.9a48.884 48.884 0 0 0-2.246-1.7c-1.239-.87-5.477-4.631-6.762-6.001-2.49-2.654-5.4-6.178-5.4-6.541 0-.23-.226-.562-.501-.738-.79-.504-3.108-4.014-4.702-7.12-.452-.88-.985-1.87-1.185-2.2-.732-1.209-2.412-5.166-2.412-5.681 0-.292-.347-1.179-.772-1.971-.424-.792-.888-2.139-1.032-2.994-.143-.855-.527-2.262-.854-3.127-2.046-5.416-2.048-25.81-.003-31.018.304-.775.684-2.129.843-3.009.16-.88.639-2.365 1.064-3.3.426-.935.881-2.236 1.012-2.891.131-.655.487-1.397.79-1.649.304-.252.552-.73.552-1.062 0-1.409 6.121-11.111 9.394-14.89 2.229-2.573 9.524-9.608 9.964-9.608.128 0 1.27-.773 2.538-1.717 1.267-.945 2.754-1.937 3.304-2.206.55-.268 1.99-1.108 3.2-1.867 1.21-.758 2.491-1.386 2.846-1.394.355-.009 1.075-.349 1.6-.755.525-.406 1.488-.87 2.14-1.029.652-.16 1.948-.637 2.878-1.061.931-.424 2.034-.771 2.451-.771.418 0 1.755-.342 2.972-.761 7.191-2.474 25.466-2.481 32.228-.011 1.163.424 2.513.773 3 .774.487.002 1.363.252 1.946.557.584.304 1.754.769 2.6 1.033 1.844.575 8.603 3.859 10.435 5.07.743.491 1.649.773 2.104.654 1.027-.269 1.265-85.27.243-86.616-.475-.626-1.387-.7-8.656-.7-6.998 0-8.225-.092-8.856-.662-.833-.754-1.131-20.633-.341-22.712l.39-1.026 8.51-.006c4.681-.003 8.703-.138 8.938-.3.248-.17.635-3.503.919-7.894.596-9.234 1.197-14.949 1.666-15.824.192-.36.527-1.757.744-3.104.217-1.347.66-3.04.984-3.761.325-.721.809-2.031 1.077-2.911.267-.88.612-1.78.765-2 .154-.22.595-1.255.981-2.3s.867-1.9 1.069-1.9c.202 0 .367-.246.367-.548 0-2.086 9.192-13.103 13-15.582.88-.572 2.371-1.588 3.314-2.255.943-.668 1.864-1.215 2.046-1.215.183 0 .761-.335 1.286-.745s1.404-.873 1.954-1.03c.55-.157 1.72-.61 2.6-1.006a35.907 35.907 0 0 1 8.4-2.605c1.54-.279 3.61-.707 4.6-.951 3.167-.779 3.597-.798 16-.677 9.313.091 12.768.264 14.6.73m-119 196.351c-.77.212-2.496.616-3.835.898-1.34.282-2.96.797-3.6 1.143-.641.347-2.031 1.025-3.089 1.508-4.362 1.991-10.912 7.741-13.88 12.184-.735 1.1-1.656 2.477-2.048 3.06-.392.583-.837 1.573-.989 2.2-.151.627-.59 1.77-.974 2.54-3.022 6.056-3.014 19.89.015 26.6.397.88.915 2.05 1.152 2.6.432 1.004 1.332 2.49 3.319 5.48 1.505 2.266 5.449 6.451 7.122 7.559.774.513 2.127 1.442 3.007 2.065 11.611 8.224 29.256 7.679 42.175-1.304 1.515-1.053 7.618-7.394 8.564-8.898 1.77-2.812 3.307-5.808 3.851-7.502.283-.88.683-1.813.888-2.073 1.501-1.896 1.523-20.782.027-22.607-.235-.286-.643-1.328-.907-2.316-.265-.988-.822-2.276-1.239-2.862-.418-.586-.759-1.28-.759-1.541 0-.262-.81-1.541-1.8-2.843s-1.8-2.481-1.8-2.62c0-1.238-7.583-7.353-11.6-9.354a367.965 367.965 0 0 1-3.739-1.885c-.627-.325-2.247-.846-3.6-1.157l-4.061-.937c-2.07-.479-10.388-.436-12.2.062m11.251.491c.742.307 2.671.762 4.287 1.01s3.189.702 3.496 1.009c.307.307 1.145.686 1.862.842.717.157 1.733.622 2.258 1.033.525.411 1.187.748 1.471.748.285 0 .804.286 1.154.636.35.35 1.55 1.265 2.667 2.033 2.387 1.642 5.253 4.52 6.604 6.631.528.825 1.138 1.5 1.355 1.5.217 0 .395.366.395.813 0 .446.261.912.581 1.035.319.122.789.882 1.044 1.687.255.806.714 1.665 1.021 1.91.307.246.713 1.275.902 2.288.189 1.014.643 2.3 1.009 2.858.82 1.251 1.187 19.215.403 19.724-.727.471-1.36 1.959-1.36 3.197 0 .64-.342 1.474-.76 1.852-.419.379-.877 1.307-1.019 2.062-.141.756-.409 1.374-.594 1.374s-.642.646-1.017 1.436c-.787 1.658-.815 1.692-4.995 6.064-1.736 1.815-3.342 3.3-3.571 3.3-.229 0-.609.36-.844.8-.235.44-.773.8-1.193.8-.421 0-1.251.45-1.845 1-.593.55-1.388 1-1.766 1-.379 0-1.146.36-1.705.8-.56.44-1.446.8-1.97.8-.523 0-1.665.399-2.536.887-1.503.841-2.04.887-10.385.887-8.345 0-8.882-.046-10.385-.887-.871-.488-2.064-.887-2.651-.887-.586 0-1.282-.261-1.547-.58-.265-.318-1.142-.792-1.949-1.053-.807-.26-1.79-.809-2.184-1.22-.393-.411-.969-.747-1.28-.747-.31 0-.708-.225-.884-.5-.176-.275-1.22-1.187-2.32-2.026-1.1-.839-3.128-2.909-4.507-4.6-1.379-1.691-2.76-3.345-3.068-3.677-.309-.332-.682-1.084-.829-1.671-.147-.587-.612-1.378-1.032-1.759-.42-.38-.764-1.137-.764-1.682 0-.545-.344-1.552-.764-2.238-.42-.686-.895-2.327-1.056-3.647-.16-1.32-.537-3.098-.836-3.95-.715-2.036-.705-7.765.016-9.501.308-.742.69-2.573.849-4.069.159-1.496.532-2.964.829-3.261.297-.297.704-1.267.903-2.156.2-.888.745-2.1 1.211-2.693.466-.593.848-1.296.848-1.562s.355-.806.79-1.199c.434-.393.902-1.068 1.039-1.5.137-.432.952-1.468 1.81-2.301.859-.833 1.561-1.715 1.561-1.961s.157-.447.35-.447c.192 0 1.195-.81 2.228-1.8 1.034-.99 2.032-1.8 2.22-1.8.187 0 .849-.425 1.471-.945.622-.52 1.52-1.067 1.995-1.216.475-.148 1.082-.533 1.349-.854.267-.322.796-.585 1.176-.585.381 0 1.491-.425 2.468-.944 1.005-.534 2.899-1.067 4.36-1.227 1.421-.154 3.033-.533 3.583-.841 1.36-.761 8.234-.782 10.051-.03" fill="#7b7bd6"/><path d="M241.022 54.411c-1.747.201-3.684.542-4.304.758-.619.215-2.249.514-3.622.662-1.373.148-3.251.607-4.174 1.019-.923.413-1.991.75-2.374.75-.736 0-2.523.773-7.248 3.134-1.595.797-2.9 1.566-2.9 1.709 0 .143-.54.484-1.2.757-.66.273-1.2.626-1.2.784 0 .158-.441.488-.98.734-1.393.635-6.258 5.333-8.295 8.011l-2.031 2.669c-3.134 4.119-7.383 13.759-8.11 18.402-.138.88-.499 2.41-.802 3.4-.591 1.926-1.197 8.432-1.605 17.237-.335 7.213.666 6.527-9.862 6.763l-8.915.2-.106 11.151c-.076 7.893.026 11.312.349 11.7.359.433 2.214.549 8.783.549 8.153 0 8.342.019 8.951.889.555.791.623 5.634.623 44.053v43.163l-1.639-.22c-.902-.12-2.027-.549-2.5-.952-1.805-1.537-13.348-6.533-15.094-6.533-.449 0-1.931-.352-3.292-.782-6.707-2.12-22.915-2.137-29.675-.031-1.32.411-3.112.867-3.981 1.013-.87.147-2.258.612-3.084 1.033-.827.422-1.764.767-2.082.767-.523 0-3.952 1.536-5.453 2.443-.33.2-1.05.581-1.6.848-.898.435-5.45 3.354-9.127 5.851-4.638 3.15-15.284 15.775-17.251 20.458-.231.55-.593 1.27-.805 1.6-1.249 1.947-4.285 9.893-4.661 12.2-.144.88-.442 1.95-.664 2.377-1.968 3.798-1.778 25.374.271 30.823.331.88.615 2.05.632 2.6.016.55.473 1.9 1.014 3s.985 2.383.987 2.851c.002.468.274 1.075.604 1.349.33.274.601.701.601.949.002.497 2.202 4.956 3.381 6.851 1.712 2.753 2.822 4.435 3.299 5 .279.33 1.537 1.86 2.797 3.4 3.612 4.419 10.024 10.238 13.656 12.395.366.218 1.597.983 2.736 1.701 1.138.719 2.873 1.651 3.855 2.072.983.421 1.907.961 2.055 1.199.147.238.572.435.944.437.372.002 1.576.446 2.676.987 1.1.541 2.324.99 2.72.996.396.007 1.233.278 1.861.603 5.617 2.905 21.664 3.846 31.419 1.843 5.758-1.182 12.032-3.037 12.425-3.674.122-.197.508-.359.857-.359 1.191 0 10.142-4.825 12.687-6.838 5.798-4.589 9.986-8.574 12.99-12.362a556.977 556.977 0 0 1 2.485-3.119c.233-.286.636-.916.897-1.4.553-1.031 1.691-2.866 2.654-4.281 1.07-1.573 4.805-10.228 4.805-11.135 0-.45.168-.921.373-1.048s.587-1.263.849-2.524c.262-1.261.854-3.733 1.314-5.493.832-3.179.839-3.698 1.051-78.6.117-41.47.359-75.625.537-75.9.252-.39 5.493-.509 23.8-.54 12.912-.022 23.926-.165 24.476-.318l1-.278.107-10.933c.075-7.732-.027-11.094-.349-11.482-.377-.454-4.649-.549-24.745-.549-28.188 0-25.613.443-25.613-4.409 0-11.462 2.346-23.084 5.387-26.68a98.58 98.58 0 0 0 1.587-2c6.086-7.831 24.364-11.673 39.44-8.291a158.3 158.3 0 0 0 5.867 1.158c1.804.317 4.109.858 5.121 1.202 1.012.344 2.28.514 2.819.379l.979-.246V70.372c0-14.824.857-13.508-9.6-14.742-2.09-.247-4.79-.616-6-.82-3.215-.542-20.073-.825-23.778-.399m21.19.793c.585.223 3.792.662 7.126.977 5.463.516 7.642.934 9.462 1.817.513.248.6 1.979.6 11.927 0 12.613-.08 13.096-1.954 11.868-.571-.374-2.381-.831-4.02-1.015-1.639-.184-3.486-.594-4.103-.912-.618-.318-3.283-.783-5.923-1.034-2.64-.252-5.97-.604-7.4-.784-1.43-.18-3.68-.171-5 .021-1.32.192-4.543.522-7.163.735-3.16.256-4.981.583-5.41.972-.356.322-1.407.707-2.335.856-.927.148-2.075.607-2.55 1.019-.476.412-1.084.749-1.352.749-1.654 0-8.67 7.177-9.235 9.447-.158.634-.552 1.348-.875 1.587-.322.238-.727 1.228-.898 2.2-.172.971-.584 2.495-.918 3.387-.679 1.818-1.398 8.626-1.717 16.265l-.213 5.086 1.333.812c1.3.793 1.917.813 24.902.815 21.368.001 23.636.063 24.3.663.671.608.731 1.485.731 10.753v10.092l-.9.241c-.495.133-11.43.246-24.3.253-14.034.007-23.64.163-24 .39-.529.335-.626 9.343-.819 75.694-.206 70.57-.264 75.426-.922 77.083-.386.972-.806 2.952-.933 4.4-.127 1.447-.548 3.352-.934 4.232-.387.88-.827 2.355-.979 3.277-.151.922-.527 1.885-.834 2.14-.307.255-.679 1.12-.826 1.923-.148.803-.59 1.873-.983 2.379-.393.505-.831 1.45-.974 2.1-.143.649-.434 1.181-.648 1.181-.214 0-.66.648-.991 1.441-.331.792-.783 1.647-1.004 1.9-.221.252-.706.936-1.078 1.519-2.807 4.405-8.103 10.328-12.462 13.94-.664.55-1.51 1.27-1.88 1.6-.371.33-1.587 1.175-2.703 1.878-1.117.703-2.3 1.535-2.63 1.849-.33.315-1.05.709-1.6.877-.55.168-1.429.641-1.954 1.051-.525.41-1.175.745-1.446.745-.271 0-.921.337-1.446.748-.525.411-1.584.881-2.354 1.044-.77.164-1.67.524-2 .802-.33.277-1.59.731-2.8 1.009-1.21.277-2.69.752-3.29 1.056-.599.303-2.219.655-3.6.782-1.38.127-3.41.528-4.51.892-2.824.934-15.487.922-18.4-.017-1.1-.354-3.158-.751-4.572-.882-1.415-.13-2.947-.482-3.404-.782-.458-.299-1.792-.75-2.966-1.002-1.174-.252-2.517-.726-2.985-1.054-.468-.328-1.226-.596-1.684-.596-.459 0-1.444-.45-2.189-1-.745-.55-1.656-1-2.024-1-.367 0-1.126-.36-1.685-.8-.56-.44-1.214-.8-1.454-.8s-.793-.356-1.228-.791c-.435-.435-1.425-1.056-2.2-1.379-.775-.324-1.409-.778-1.409-1.01 0-.231-.207-.42-.459-.42-.571 0-7.201-5.636-9.176-7.8-3.757-4.117-4.765-5.318-4.765-5.673 0-.21-.45-.774-1-1.252s-1-1.113-1-1.41c0-.298-.36-.867-.8-1.265-.44-.398-.8-.938-.8-1.2s-.35-.793-.777-1.179c-.428-.387-.889-1.213-1.026-1.835-.137-.622-.506-1.344-.82-1.605-.314-.261-.757-1.165-.985-2.01-.227-.844-.665-1.787-.974-2.096-.308-.308-.683-1.261-.834-2.118-.151-.856-.56-2.007-.91-2.557-.35-.55-.756-2.004-.903-3.23-.147-1.227-.606-2.937-1.019-3.8-1.123-2.344-1.148-24.844-.031-26.892.397-.726.825-2.256.952-3.4.126-1.143.545-2.618.93-3.278.385-.66.826-1.91.981-2.779.155-.868.627-2.017 1.049-2.554.422-.536.767-1.286.767-1.667s.36-1.15.8-1.709c.44-.56.8-1.29.8-1.623 0-.334.45-1.141 1-1.795.55-.654 1-1.407 1-1.673s.453-1.05 1.006-1.742l1.332-1.668c.179-.226.672-.943 1.094-1.594 1.074-1.654 1.438-2.055 6.168-6.791 5.149-5.155 5.169-5.173 6.392-5.813.545-.285 1.866-1.21 2.935-2.055 1.07-.845 2.186-1.537 2.48-1.537.295 0 .792-.256 1.104-.569.543-.542 2.534-1.665 4.689-2.643.55-.25 1.63-.777 2.4-1.171s2.03-.849 2.8-1.011c.77-.162 1.679-.541 2.021-.841.341-.3 1.781-.715 3.2-.922 1.418-.207 3.288-.677 4.154-1.046 3.245-1.381 25.528-1.206 27.239.214.306.255 1.747.611 3.201.791 1.455.18 2.946.591 3.315.912.368.321 1.615.805 2.77 1.075 1.155.27 2.1.65 2.1.845 0 .195.81.558 1.8.808.99.249 1.8.597 1.8.772 0 .176.81.629 1.8 1.007.99.378 1.8.81 1.8.96 0 .725 4.849 2.588 5.218 2.004.671-1.061.49-88.084-.185-89.009-.528-.722-1.197-.784-9.6-.897l-9.033-.122V122h8.072c12.108 0 11.05 1.111 11.495-12.077.244-7.232.484-10.082.936-11.123.335-.77.736-2.521.891-3.89.155-1.37.625-3.163 1.044-3.985.419-.822.762-1.897.762-2.388 0-.492.45-1.741 1-2.775.55-1.035 1-2.186 1-2.56 0-.373.36-1.004.8-1.402.44-.398.8-1.001.8-1.34 0-.593 1.287-2.708 2.989-4.91A72.566 72.566 0 0 0 205 73.363a25.983 25.983 0 0 1 1.9-2.309c.605-.645 1.1-1.326 1.1-1.513 0-.188.258-.341.573-.341.315 0 .674-.315.797-.7.123-.385.653-.97 1.178-1.3 2.818-1.771 4.252-2.852 4.252-3.205 0-.217.332-.395.738-.395.406 0 1.058-.353 1.448-.785.391-.432 1.319-.986 2.062-1.231.744-.245 1.352-.605 1.352-.8 0-.194.765-.557 1.7-.806.935-.249 1.975-.697 2.31-.996.336-.299 1.416-.664 2.4-.81.985-.147 2.227-.54 2.762-.875.534-.335 3.041-.863 5.57-1.173 2.529-.309 4.882-.729 5.228-.931.868-.508 20.503-.497 21.842.011M147.6 250.369c-.99.172-2.469.608-3.287.971-.818.363-1.844.66-2.279.66-.435 0-1.638.45-2.672 1-1.035.55-2.124 1-2.422 1-.297 0-.54.178-.54.395 0 .217-.614.651-1.365.965-.751.313-1.729.901-2.175 1.305a32.058 32.058 0 0 1-1.873 1.535c-1.703 1.281-5.387 4.964-5.387 5.386 0 .212-.36.579-.8.814-.44.235-.8.635-.8.888s-.34.832-.756 1.286c-.94 1.027-3.244 5.347-3.244 6.082 0 .299-.162.544-.361.544-.453 0-1.239 2.204-1.239 3.474 0 .525-.315 1.435-.7 2.022-1.002 1.53-1.055 16.993-.063 18.522.351.54.762 1.771.914 2.736.152.964.63 2.204 1.062 2.754.433.55.787 1.311.787 1.692s.36 1.15.8 1.709c.44.56.8 1.189.8 1.399 0 .34.746 1.405 3.086 4.408 2.16 2.77 7.745 7.684 8.735 7.684.318 0 .579.189.579.42 0 .232.675.7 1.5 1.04.825.341 1.77.852 2.1 1.135.33.284 1.23.646 2 .805.77.159 1.67.524 2 .812.568.495 4.064 1.278 10.109 2.262 2.053.334 3.362.321 5.4-.053 1.48-.272 4.041-.736 5.691-1.033 1.65-.296 3.713-.91 4.585-1.363.871-.454 1.878-.825 2.238-.825.359 0 .979-.36 1.377-.8.398-.44.986-.8 1.306-.8.694 0 4.494-2.402 4.494-2.84 0-.169.35-.417.779-.553.955-.303 6.421-5.71 6.421-6.352 0-.254.36-.687.8-.962.44-.275.8-.697.8-.939 0-.241.45-.973 1-1.627s1-1.495 1-1.869c0-.374.36-.988.8-1.365.44-.377.8-1.041.8-1.477 0-.435.358-1.479.796-2.318.438-.84.905-2.421 1.038-3.513.134-1.092.514-2.734.845-3.65.375-1.036.527-2.396.402-3.6-1.258-12.103-1.51-13.792-2.272-15.214-.445-.83-.809-1.803-.809-2.161 0-.359-.36-1.11-.8-1.669-.44-.56-.803-1.169-.807-1.354-.008-.346-1.801-3.193-3.077-4.886-1.088-1.443-6.785-7.251-7.113-7.251-.158 0-.822-.45-1.476-1s-1.417-1-1.696-1c-.279 0-.833-.36-1.231-.8-.398-.44-.939-.8-1.202-.8-.264 0-1.325-.45-2.36-1-1.034-.55-2.276-1.004-2.759-1.009-.484-.005-1.689-.389-2.679-.853-1.97-.925-12.985-1.428-16.8-.769m14.8.965c.99.336 2.52.738 3.4.894.88.156 2.23.603 3 .994.77.392 1.85.915 2.4 1.164 1.105.5 2.98 1.625 5.568 3.34 1.785 1.184 6.136 5.381 7.336 7.078 2.618 3.701 5.492 8.846 5.495 9.835 0 .241.276.99.613 1.664.645 1.294 1.601 10.63 1.484 14.497-.198 6.561-3.095 14.528-7.124 19.593-.876 1.101-6.564 6.792-7.414 7.418-2.159 1.589-3.487 2.412-5.838 3.616-1.475.755-2.924 1.373-3.221 1.373-.296 0-1.081.281-1.745.624-3.044 1.574-12.038 2.164-18.409 1.208-3.684-.553-4.745-.893-8.985-2.877-1.122-.525-2.188-.955-2.368-.955-.181 0-.659-.299-1.063-.664a10.903 10.903 0 0 0-1.475-1.1c-11.38-6.698-19.274-24.365-16.458-36.836 1.036-4.588 1.708-6.955 2.386-8.4.412-.88.957-2.05 1.211-2.6 2.436-5.287 9.939-13.366 14.407-15.514.55-.264 1.27-.646 1.6-.848 1.497-.917 5.129-2.416 6.4-2.64.77-.137 1.869-.428 2.443-.648 3.247-1.245 12.946-1.373 16.357-.216" fill="#a4a4e4"/></g></svg>