<svg xmlns="http://www.w3.org/2000/svg" xmlns:xlink="http://www.w3.org/1999/xlink" width="32" height="32" viewBox="0 0 32 32">
  <defs>
    <clipPath id="clip-path">
      <rect id="Rectangle_5585" data-name="Rectangle 5585" width="32" height="32" transform="translate(-806.738 -2462.299) rotate(-90)" fill="none" stroke="#707070" stroke-width="1"/>
    </clipPath>
  </defs>
  <g id="AXS_32x32" transform="translate(806.738 2494.299)">
    <g id="Mask_Group_613" data-name="Mask Group 613" clip-path="url(#clip-path)">
      <g id="Group_23493" data-name="Group 23493" transform="translate(-0.747 -0.374)">
        <g id="Group_23460" data-name="Group 23460" transform="translate(-806.738 -2477.894) rotate(-45)">
          <path id="Path_47691" data-name="Path 47691" d="M.646.668A71.033,71.033,0,0,1,11.377.016,76.432,76.432,0,0,1,22.3,1.221a104.968,104.968,0,0,1,.873,10.593c.138,5.414-.32,11.064-.32,11.064s-5.475.337-10.89.2S1.2,22.325,1.2,22.325A77.541,77.541,0,0,1,.017,11.43,73.413,73.413,0,0,1,.646.668Z" transform="translate(0 0)" fill="#1976d2"/>
          <path id="Path_47692" data-name="Path 47692" d="M0,0,21.657.553l-21.1,21.1Z" transform="translate(0.646 0.668)" fill="#cb21f3" opacity="0.23"/>
          <path id="Path_47693" data-name="Path 47693" d="M0,0,16.844.43l.43,16.844L.43,16.844Z" transform="translate(3.114 3.136)" fill="#2196f3" opacity="0.6"/>
          <path id="Path_47694" data-name="Path 47694" d="M.43,16.844,0,0,16.844.43Z" transform="translate(3.114 3.136)" fill="#f664d4" opacity="0.28"/>
          <path id="Path_47695" data-name="Path 47695" d="M0,2.007l9.625.246L4.874,4.536ZM15.58,0,9.625,2.253l.092,3.609,3.609.092Zm.553,21.657L10.055,19.1l-.092-3.609,3.609.092Z" transform="translate(6.723 1.221)" fill="#b764f6" opacity="0.26"/>
          <path id="Path_47696" data-name="Path 47696" d="M0,0,6.077,2.56l.092,3.609L2.56,6.077Z" transform="translate(0.646 0.668)" fill="#bbdefb" opacity="0.3"/>
          <path id="Path_47698" data-name="Path 47698" d="M1.08,1.08,5.862,0l4.843,1.326-9.38,9.38L0,5.862Z" transform="translate(5.735 5.757)" fill="#e1bbfb" opacity="0.05"/>
          <path id="Path_47699" data-name="Path 47699" d="M3.609.092,1.341,5.445,0,0ZM.246,9.625l1.1-4.18L3.855,9.717Z" transform="translate(16.44 7.083)" fill="#1976d2" opacity="0.38"/>
          <path id="Path_47700" data-name="Path 47700" d="M0,2.284,4.751,0l.092,3.609Z" transform="translate(11.597 3.474)" fill="#2196f3"/>
          <path id="Path_47701" data-name="Path 47701" d="M0,0,2.529,4.874.246,9.625Z" transform="translate(3.206 6.746)" fill="#bbdefb" opacity="0.07"/>
          <path id="Path_47702" data-name="Path 47702" d="M0,0,4.874,2.529.092,3.609Z" transform="translate(6.723 3.228)" fill="#90caf9" opacity="0.07"/>
          <path id="Path_47703" data-name="Path 47703" d="M4.843,1.326,9.717,3.855,9.625.246ZM.092,3.609,0,0,4.843,1.326Z" transform="translate(7.061 16.463)" fill="#1976d2" opacity="0.91"/>
        </g>
        <g id="Group_23494" data-name="Group 23494" transform="translate(-1.938 -1.465)">
          <path id="Path_47705" data-name="Path 47705" d="M9.524,7.727v.132a14.464,14.464,0,0,0,2.651,2.266C14,11.4,15.608,12.352,16,12.216s.668-.751.668-.751A11.991,11.991,0,0,0,17.7,6.182c.075-3.605-.157-4.963-.856-5.121s-1.234.1-2.791,1.061S8.341,5.869,6.589,6.9,3.233,9.1,2.55,8.914,1.78,8.088,1.7,6.886a11.563,11.563,0,0,1,.489-3.9c.3-.645.753-.732,1.461-.286a7.652,7.652,0,0,1,1.074.793L2.393,5.1a1,1,0,0,0-.193.712c.074.367.087.534.342.457S5.461,4.3,5.461,4.3h.231l.892.937h.171a6.8,6.8,0,0,0,1.034-.609c.146-.167.121-.311-.514-.88A30.929,30.929,0,0,0,3.649,1.027C2.307.2,1.232-.793.738,1.019A25.8,25.8,0,0,0,0,7.56c.006,2.37.2,3.417.765,3.63s1.315-.163,2.215-.7S11.044,5.33,12.6,4.322s2.421-1.3,2.665-.917a7.9,7.9,0,0,1,.316,4.2c-.373,1.757-.809,2.468-1.5,2.1a24.085,24.085,0,0,1-2.71-2.11c-.586-.491-.672-.736-1.085-.437S9.524,7.727,9.524,7.727Z" transform="translate(-797.618 -2481.637) rotate(-3)" fill="#464646" opacity="0.29"/>
          <path id="Path_47706" data-name="Path 47706" d="M9.524,8.04v.137a14.669,14.669,0,0,0,2.651,2.358C14,11.862,15.609,12.852,16,12.711s.668-.782.668-.782a12.9,12.9,0,0,0,1.033-5.5c.075-3.752-.158-5.165-.857-5.329s-1.234.1-2.791,1.1S8.34,6.106,6.589,7.179s-3.356,2.3-4.039,2.1-.77-.859-.846-2.11A12.491,12.491,0,0,1,2.192,3.1c.3-.671.753-.762,1.461-.3a7.69,7.69,0,0,1,1.074.825L2.393,5.3a1.063,1.063,0,0,0-.193.741c.074.382.087.556.342.476S5.461,4.478,5.461,4.478h.231l.892.975h.171a6.747,6.747,0,0,0,1.034-.634c.146-.173.121-.324-.514-.916A31.076,31.076,0,0,0,3.648,1.068C2.306.208,1.231-.825.737,1.061A27.887,27.887,0,0,0,0,7.868c.007,2.466.2,3.555.766,3.777s1.315-.17,2.215-.724S11.043,5.546,12.6,4.5s2.421-1.349,2.665-.954a8.529,8.529,0,0,1,.317,4.366c-.373,1.829-.809,2.569-1.5,2.185a24.241,24.241,0,0,1-2.711-2.2c-.586-.511-.672-.766-1.085-.454S9.524,8.04,9.524,8.04Z" transform="translate(-797.617 -2482.379) rotate(-3)" fill="#fff"/>
        </g>
      </g>
    </g>
  </g>
</svg>
