<svg id="svg" version="1.1" xmlns="http://www.w3.org/2000/svg" xmlns:xlink="http://www.w3.org/1999/xlink" width="400" height="400" viewBox="0, 0, 400,400"><g id="svgg"><path id="path0" d="M282.600 20.025 C 251.254 24.300,231.156 47.265,230.986 79.000 C 230.939 87.843,230.730 89.029,228.586 92.608 C 224.784 98.956,219.519 102.233,213.737 101.852 C 176.519 99.396,149.226 105.903,122.840 123.523 C 111.972 130.781,108.953 131.063,101.508 125.516 C 63.653 97.313,12.579 133.277,26.690 178.200 C 31.067 192.134,37.363 198.569,58.600 210.812 C 80.175 223.250,90.599 229.273,90.662 229.337 C 90.695 229.372,89.862 232.010,88.810 235.200 C 73.927 280.311,94.663 329.946,137.195 351.020 C 176.879 370.683,223.234 361.237,253.108 327.400 L 255.580 324.600 257.090 325.436 C 257.921 325.896,267.420 331.367,278.200 337.594 C 300.580 350.522,302.612 351.615,306.771 352.965 C 344.245 365.129,379.465 330.271,367.560 292.800 C 363.574 280.252,354.017 269.646,341.434 263.806 C 333.240 260.002,330.966 257.196,331.060 251.000 C 331.458 224.672,331.388 222.887,329.550 212.400 C 327.755 202.157,324.248 190.639,320.036 181.152 C 315.635 171.240,312.238 165.396,304.484 154.400 C 298.873 146.442,303.468 134.077,314.000 128.797 C 349.333 111.081,356.871 64.063,328.812 36.400 C 316.690 24.449,298.200 17.897,282.600 20.025 M298.731 39.972 C 322.037 46.715,333.426 73.435,322.185 95.000 C 318.364 102.331,313.181 107.328,304.911 111.655 C 293.501 117.625,287.181 125.568,283.952 138.000 C 281.607 147.025,283.597 159.423,288.382 165.600 C 295.924 175.336,302.993 189.044,306.740 201.200 C 311.289 215.958,312.202 225.109,311.570 249.600 C 311.217 263.308,319.016 276.062,330.400 280.393 C 342.219 284.889,349.310 294.031,350.264 306.000 C 351.135 316.935,343.513 329.374,333.600 333.194 C 332.830 333.491,332.020 333.864,331.800 334.023 C 326.755 337.673,309.127 334.598,302.769 328.960 C 302.421 328.652,301.994 328.400,301.819 328.400 C 301.644 328.400,300.166 327.589,298.534 326.598 C 296.901 325.607,294.988 324.553,294.283 324.256 C 293.577 323.958,288.230 320.960,282.400 317.592 C 276.570 314.224,261.810 305.720,249.600 298.693 C 237.390 291.667,227.220 285.782,227.000 285.616 C 226.780 285.451,225.610 284.773,224.400 284.110 C 222.088 282.843,203.515 272.145,115.400 221.331 C 108.140 217.144,98.600 211.649,94.200 209.120 C 89.800 206.591,79.810 200.833,72.000 196.323 C 64.190 191.814,57.106 187.796,56.257 187.396 C 44.807 181.994,39.908 163.363,46.452 150.107 C 53.414 136.004,74.858 129.444,85.941 138.027 C 95.799 145.662,102.410 148.400,110.987 148.400 C 117.574 148.400,125.512 145.736,129.321 142.246 C 139.422 132.995,162.098 123.701,181.400 120.902 C 187.761 119.980,207.320 119.888,209.800 120.768 C 218.390 123.819,233.478 117.303,241.521 107.068 C 247.789 99.094,250.280 91.522,249.898 81.615 C 249.110 61.210,259.248 45.873,277.200 40.311 C 282.941 38.532,293.197 38.371,298.731 39.972 M188.600 142.822 C 169.477 144.593,151.841 152.293,139.790 164.134 C 133.073 170.733,132.242 175.444,136.908 180.466 C 141.287 185.179,146.562 184.536,153.000 178.505 C 166.573 165.789,187.872 159.713,207.400 162.984 C 213.614 164.025,214.884 164.116,216.641 163.643 C 224.130 161.626,226.242 151.530,220.209 146.586 C 216.483 143.533,200.930 141.681,188.600 142.822 M118.200 245.212 C 130.504 252.246,129.381 251.222,128.528 254.626 C 127.500 258.724,127.514 271.365,128.550 275.800 C 137.815 315.438,183.716 330.851,214.490 304.657 L 217.180 302.367 227.787 308.483 C 233.621 311.848,238.395 314.751,238.397 314.936 C 238.420 317.535,223.619 329.410,214.943 333.753 C 154.370 364.075,87.321 308.307,106.070 243.200 C 106.938 240.184,107.473 239.086,107.945 239.352 C 108.085 239.431,112.700 242.068,118.200 245.212 M163.203 271.207 C 174.751 277.870,185.370 283.999,186.800 284.826 C 188.230 285.654,193.000 288.404,197.400 290.938 C 206.629 296.253,206.533 296.122,202.921 298.509 C 175.420 316.681,139.963 298.187,139.826 265.600 C 139.796 258.442,139.967 257.624,141.307 258.503 C 141.802 258.827,151.655 264.543,163.203 271.207 " stroke="none" fill="#a86b06" fill-rule="evenodd"></path><path id="path1" d="M0.000 200.000 L 0.000 400.000 200.000 400.000 L 400.000 400.000 400.000 200.000 L 400.000 0.000 200.000 0.000 L 0.000 0.000 0.000 200.000 M297.400 20.040 C 317.233 22.819,334.900 37.142,342.498 56.600 C 353.281 84.216,340.461 116.765,313.800 129.459 C 303.656 134.289,299.463 147.334,305.542 155.153 C 323.712 178.525,333.511 212.129,331.619 244.585 L 331.094 253.587 332.247 255.893 C 333.458 258.316,336.998 261.419,340.000 262.690 C 343.966 264.369,345.309 265.089,348.800 267.401 C 379.106 287.477,376.672 333.486,344.411 350.355 C 329.023 358.401,308.411 357.407,295.173 347.981 C 294.570 347.551,293.976 347.200,293.852 347.200 C 293.729 347.200,291.686 346.059,289.314 344.664 C 286.941 343.269,282.480 340.677,279.400 338.903 C 276.320 337.129,269.750 333.330,264.800 330.461 L 255.800 325.245 253.600 327.712 C 228.394 355.969,192.252 367.558,156.753 358.766 C 101.599 345.106,69.833 286.010,89.034 232.782 C 90.291 229.295,91.011 230.090,81.800 224.791 C 36.536 198.750,35.445 197.919,28.999 184.600 C 7.022 139.187,61.238 94.235,101.234 124.707 C 108.049 129.899,112.560 130.110,118.890 125.531 C 144.243 107.194,177.975 98.171,210.039 101.150 C 217.041 101.801,218.809 101.452,222.600 98.675 C 228.976 94.003,230.799 89.531,230.700 78.800 C 230.361 41.853,260.923 14.929,297.400 20.040 M280.400 39.960 C 261.725 44.086,250.781 58.377,250.572 78.914 C 250.475 88.327,250.324 89.726,248.914 94.200 C 245.671 104.493,238.352 113.178,228.852 118.006 C 227.503 118.691,226.400 119.285,226.400 119.326 C 226.400 119.367,228.965 119.440,232.100 119.489 C 235.235 119.538,240.175 119.789,243.078 120.047 C 252.215 120.859,257.425 117.920,261.514 109.650 L 263.000 106.643 263.259 96.822 C 263.577 84.723,264.547 80.093,268.587 71.387 C 277.515 52.150,292.491 44.866,312.193 50.178 C 317.264 51.545,317.148 51.191,311.000 46.531 C 302.821 40.333,290.596 37.707,280.400 39.960 M186.400 120.843 C 165.839 123.169,144.859 130.799,131.667 140.750 L 130.771 141.426 133.979 143.813 C 140.667 148.790,144.904 148.914,151.461 144.324 C 168.111 132.669,189.731 123.776,207.800 121.151 C 211.922 120.552,191.563 120.259,186.400 120.843 M65.473 135.626 C 44.083 140.883,36.400 167.504,51.788 183.044 C 56.603 187.907,56.756 187.934,56.509 183.890 C 55.420 166.061,66.637 147.050,82.900 139.162 C 85.182 138.056,85.206 137.942,83.347 137.055 C 78.747 134.862,71.080 134.249,65.473 135.626 M107.082 241.681 C 100.823 258.451,102.730 282.242,111.743 299.851 C 135.740 346.735,198.735 355.997,235.352 318.024 C 236.865 316.455,238.035 315.103,237.952 315.021 C 237.764 314.837,226.545 308.300,223.800 306.776 C 222.700 306.165,220.728 305.019,219.418 304.229 L 217.037 302.794 215.418 304.328 C 188.139 330.198,141.226 317.706,129.647 281.489 C 127.098 273.517,126.360 260.266,128.122 254.116 C 128.844 251.596,130.007 252.576,118.309 245.844 C 106.709 239.168,107.860 239.595,107.082 241.681 M140.250 259.710 C 138.266 267.110,141.913 280.955,148.025 289.226 C 160.786 306.493,188.198 310.304,204.051 297.015 L 205.101 296.135 203.251 295.004 C 202.233 294.382,196.090 290.821,189.600 287.091 C 183.110 283.362,174.290 278.279,170.000 275.797 C 136.447 256.381,140.547 258.599,140.250 259.710 " stroke="none" fill="#faf7f4" fill-rule="evenodd"></path><path id="path2" d="M295.000 49.199 C 280.694 51.341,269.111 64.749,264.592 84.400 C 264.099 86.543,263.823 90.198,263.626 97.200 L 263.349 107.000 262.013 109.696 C 257.669 118.459,252.585 121.204,242.152 120.420 C 230.774 119.565,225.240 119.582,222.119 120.478 C 220.072 121.067,218.165 121.260,214.400 121.260 C 204.147 121.261,186.332 126.043,172.949 132.387 C 170.614 133.494,168.640 134.400,168.562 134.400 C 168.039 134.400,157.025 141.033,153.521 143.459 C 145.059 149.316,141.030 149.560,134.423 144.617 C 130.509 141.689,130.386 141.666,127.803 143.381 C 116.538 150.857,102.598 150.054,90.422 141.225 C 86.079 138.077,85.892 138.041,82.538 139.731 C 67.454 147.327,56.800 164.717,56.800 181.742 C 56.800 187.153,56.988 187.633,59.741 189.241 C 62.997 191.142,83.882 203.189,108.600 217.424 C 119.600 223.759,138.410 234.599,150.400 241.513 C 205.478 273.274,222.358 282.990,224.400 284.110 C 225.610 284.773,226.780 285.451,227.000 285.616 C 227.220 285.782,237.390 291.667,249.600 298.693 C 261.810 305.720,276.570 314.224,282.400 317.592 C 288.230 320.960,293.577 323.958,294.283 324.256 C 294.988 324.553,296.901 325.607,298.534 326.598 C 300.166 327.589,301.644 328.400,301.819 328.400 C 301.994 328.400,302.421 328.652,302.769 328.960 C 309.127 334.598,326.755 337.673,331.800 334.023 C 332.020 333.864,332.830 333.491,333.600 333.194 C 343.513 329.374,351.135 316.935,350.264 306.000 C 349.310 294.031,342.219 284.889,330.400 280.393 C 319.016 276.062,311.217 263.308,311.570 249.600 C 312.202 225.109,311.289 215.958,306.740 201.200 C 302.993 189.044,295.924 175.336,288.382 165.600 C 283.597 159.423,281.607 147.025,283.952 138.000 C 287.181 125.568,293.501 117.625,304.911 111.655 C 324.645 101.331,332.065 79.684,322.536 60.239 C 320.976 57.056,317.887 52.582,316.875 52.040 C 312.844 49.883,300.845 48.324,295.000 49.199 M208.800 143.204 C 217.440 144.312,220.951 145.986,222.812 149.885 C 226.070 156.708,220.549 164.742,213.203 163.869 C 212.211 163.751,209.600 163.353,207.400 162.984 C 187.872 159.713,166.573 165.789,153.000 178.505 C 146.562 184.536,141.287 185.179,136.908 180.466 C 132.242 175.444,133.073 170.733,139.790 164.134 C 156.259 147.951,182.878 139.878,208.800 143.204 " stroke="none" fill="#f7c40a" fill-rule="evenodd"></path><path id="path3" d="M287.500 19.482 C 287.995 19.578,288.805 19.578,289.300 19.482 C 289.795 19.387,289.390 19.309,288.400 19.309 C 287.410 19.309,287.005 19.387,287.500 19.482 M325.600 32.925 C 325.600 32.994,326.185 33.579,326.900 34.225 L 328.200 35.400 327.025 34.100 C 325.930 32.888,325.600 32.616,325.600 32.925 M247.391 36.500 L 244.200 39.800 247.500 36.609 C 250.565 33.646,250.982 33.200,250.691 33.200 C 250.630 33.200,249.145 34.685,247.391 36.500 M330.400 37.725 C 330.400 37.794,330.985 38.379,331.700 39.025 L 333.000 40.200 331.825 38.900 C 330.730 37.688,330.400 37.416,330.400 37.725 M286.500 39.094 C 287.545 39.176,289.255 39.176,290.300 39.094 C 291.345 39.012,290.490 38.944,288.400 38.944 C 286.310 38.944,285.455 39.012,286.500 39.094 M304.433 42.549 C 304.845 42.917,307.200 44.000,307.200 43.821 C 307.200 43.590,304.982 42.400,304.553 42.400 C 304.396 42.400,304.342 42.467,304.433 42.549 M265.585 46.429 L 264.200 47.658 265.700 46.581 C 267.026 45.630,267.457 45.200,267.085 45.200 C 267.022 45.200,266.347 45.753,265.585 46.429 M312.400 47.325 C 312.400 47.394,312.985 47.979,313.700 48.625 L 315.000 49.800 313.825 48.500 C 312.730 47.288,312.400 47.016,312.400 47.325 M261.188 50.300 L 258.600 53.000 261.300 50.412 C 262.785 48.988,264.000 47.773,264.000 47.712 C 264.000 47.417,263.593 47.792,261.188 50.300 M295.000 48.801 C 292.407 49.191,289.464 49.998,289.717 50.250 C 289.825 50.359,290.968 50.129,292.257 49.739 C 295.056 48.893,304.098 48.768,307.600 49.527 C 311.365 50.344,312.382 50.448,310.530 49.827 C 306.957 48.631,299.436 48.133,295.000 48.801 M285.775 51.798 C 278.808 55.430,272.832 62.241,268.587 71.387 C 266.781 75.279,264.996 80.329,265.313 80.647 C 265.421 80.754,265.908 79.528,266.396 77.922 C 269.746 66.895,277.554 56.616,285.890 52.260 C 287.821 51.252,289.188 50.420,288.929 50.413 C 288.670 50.406,287.251 51.029,285.775 51.798 M313.956 50.995 C 317.299 52.111,317.448 52.140,316.906 51.571 C 316.635 51.286,316.095 51.015,315.706 50.969 C 315.318 50.923,314.370 50.778,313.600 50.647 C 312.386 50.441,312.434 50.487,313.956 50.995 M257.944 53.900 C 256.793 55.289,256.306 56.000,256.504 56.000 C 256.614 56.000,257.186 55.370,257.773 54.600 C 258.863 53.171,258.995 52.632,257.944 53.900 M250.148 77.200 C 250.148 79.510,250.214 80.455,250.295 79.300 C 250.376 78.145,250.376 76.255,250.295 75.100 C 250.214 73.945,250.148 74.890,250.148 77.200 M346.101 75.000 C 346.105 75.880,346.187 76.193,346.283 75.695 C 346.379 75.198,346.375 74.478,346.275 74.095 C 346.175 73.713,346.096 74.120,346.101 75.000 M230.534 77.200 C 230.534 78.850,230.605 79.525,230.691 78.700 C 230.778 77.875,230.778 76.525,230.691 75.700 C 230.605 74.875,230.534 75.550,230.534 77.200 M346.101 79.800 C 346.105 80.680,346.187 80.993,346.283 80.495 C 346.379 79.998,346.375 79.278,346.275 78.895 C 346.175 78.513,346.096 78.920,346.101 79.800 M264.204 84.296 C 263.667 86.605,263.420 89.863,263.241 97.022 L 263.000 106.644 261.432 109.822 C 259.498 113.741,256.037 117.348,252.600 119.028 C 249.881 120.356,248.980 120.401,237.938 119.762 C 234.494 119.563,231.759 119.535,231.862 119.700 C 231.964 119.865,233.072 119.999,234.324 119.997 C 235.576 119.996,239.326 120.203,242.657 120.458 C 252.517 121.211,257.746 118.304,262.013 109.696 L 263.349 107.000 263.626 97.200 C 263.824 90.170,264.096 86.572,264.590 84.472 C 264.968 82.861,265.198 81.464,265.101 81.368 C 265.004 81.271,264.601 82.589,264.204 84.296 M250.493 84.000 C 250.493 84.770,250.575 85.085,250.676 84.700 C 250.776 84.315,250.776 83.685,250.676 83.300 C 250.575 82.915,250.493 83.230,250.493 84.000 M250.093 88.000 C 250.093 88.770,250.175 89.085,250.276 88.700 C 250.376 88.315,250.376 87.685,250.276 87.300 C 250.175 86.915,250.093 87.230,250.093 88.000 M222.200 99.035 L 221.000 100.066 222.300 99.206 C 223.015 98.733,223.600 98.268,223.600 98.173 C 223.600 97.873,223.431 97.978,222.200 99.035 M194.900 100.696 C 196.165 100.775,198.235 100.775,199.500 100.696 C 200.765 100.616,199.730 100.551,197.200 100.551 C 194.670 100.551,193.635 100.616,194.900 100.696 M187.105 101.083 C 187.602 101.179,188.322 101.175,188.705 101.075 C 189.087 100.975,188.680 100.896,187.800 100.901 C 186.920 100.905,186.607 100.987,187.105 101.083 M205.905 101.083 C 206.402 101.179,207.122 101.175,207.505 101.075 C 207.887 100.975,207.480 100.896,206.600 100.901 C 205.720 100.905,205.407 100.987,205.905 101.083 M182.900 101.476 C 183.285 101.576,183.915 101.576,184.300 101.476 C 184.685 101.375,184.370 101.293,183.600 101.293 C 182.830 101.293,182.515 101.375,182.900 101.476 M210.500 101.476 C 210.885 101.576,211.515 101.576,211.900 101.476 C 212.285 101.375,211.970 101.293,211.200 101.293 C 210.430 101.293,210.115 101.375,210.500 101.476 M214.100 101.876 C 214.485 101.976,215.115 101.976,215.500 101.876 C 215.885 101.775,215.570 101.693,214.800 101.693 C 214.030 101.693,213.715 101.775,214.100 101.876 M243.385 104.900 C 242.768 105.835,242.520 106.389,242.832 106.131 C 243.433 105.634,244.964 103.200,244.676 103.200 C 244.583 103.200,244.002 103.965,243.385 104.900 M238.575 110.900 L 237.400 112.200 238.700 111.025 C 239.415 110.379,240.000 109.794,240.000 109.725 C 240.000 109.416,239.670 109.688,238.575 110.900 M332.575 114.500 L 331.400 115.800 332.700 114.625 C 333.415 113.979,334.000 113.394,334.000 113.325 C 334.000 113.016,333.670 113.288,332.575 114.500 M71.305 115.087 C 71.914 115.179,72.814 115.177,73.305 115.082 C 73.797 114.987,73.300 114.911,72.200 114.914 C 71.100 114.917,70.697 114.995,71.305 115.087 M329.186 118.300 L 327.000 120.600 329.300 118.414 C 330.565 117.211,331.600 116.176,331.600 116.114 C 331.600 115.817,331.218 116.163,329.186 118.300 M225.759 119.400 C 225.025 119.956,225.029 119.975,225.876 119.987 C 226.812 120.001,227.443 119.397,226.865 119.040 C 226.674 118.922,226.176 119.084,225.759 119.400 M194.917 120.297 C 196.411 120.374,198.751 120.374,200.117 120.296 C 201.482 120.218,200.260 120.155,197.400 120.155 C 194.540 120.156,193.422 120.220,194.917 120.297 M205.300 120.676 C 205.685 120.776,206.315 120.776,206.700 120.676 C 207.085 120.575,206.770 120.493,206.000 120.493 C 205.230 120.493,204.915 120.575,205.300 120.676 M207.960 120.973 C 207.865 121.068,205.810 121.534,203.394 122.008 C 198.676 122.933,188.671 125.604,188.934 125.868 C 189.022 125.955,191.017 125.488,193.367 124.828 C 195.717 124.168,200.371 123.071,203.710 122.391 C 209.801 121.149,210.992 120.800,209.133 120.800 C 208.583 120.800,208.055 120.878,207.960 120.973 M323.962 122.726 C 322.951 123.537,321.601 124.614,320.962 125.121 C 320.323 125.628,320.913 125.295,322.274 124.381 C 324.367 122.976,326.516 121.138,325.962 121.226 C 325.873 121.240,324.973 121.915,323.962 122.726 M43.585 124.429 L 42.200 125.658 43.700 124.581 C 45.026 123.630,45.457 123.200,45.085 123.200 C 45.022 123.200,44.347 123.753,43.585 124.429 M185.800 126.702 C 184.920 127.046,182.130 128.131,179.600 129.115 C 170.376 132.700,160.241 138.178,151.461 144.324 C 146.642 147.697,143.617 148.351,139.291 146.954 C 137.121 146.253,130.923 141.812,131.123 141.101 C 131.191 140.857,130.958 140.903,130.593 141.206 C 130.005 141.694,130.051 141.804,131.071 142.337 C 131.692 142.662,133.354 143.801,134.764 144.868 C 140.942 149.540,145.197 149.220,153.521 143.459 C 157.025 141.033,168.039 134.400,168.562 134.400 C 168.640 134.400,170.614 133.494,172.949 132.387 C 175.284 131.280,179.671 129.464,182.697 128.351 C 185.724 127.238,188.275 126.254,188.367 126.164 C 188.722 125.814,187.325 126.107,185.800 126.702 M316.300 127.829 C 314.805 128.640,314.896 128.978,316.400 128.200 C 317.060 127.859,317.600 127.494,317.600 127.390 C 317.600 127.132,317.557 127.147,316.300 127.829 M308.175 132.900 L 307.000 134.200 308.300 133.025 C 309.015 132.379,309.600 131.794,309.600 131.725 C 309.600 131.416,309.270 131.688,308.175 132.900 M71.305 134.687 C 71.914 134.779,72.814 134.777,73.305 134.682 C 73.797 134.587,73.300 134.511,72.200 134.514 C 71.100 134.517,70.697 134.595,71.305 134.687 M305.000 137.200 C 304.659 137.860,304.469 138.400,304.579 138.400 C 304.689 138.400,305.059 137.860,305.400 137.200 C 305.741 136.540,305.931 136.000,305.821 136.000 C 305.711 136.000,305.341 136.540,305.000 137.200 M84.388 137.584 C 85.110 138.041,85.094 138.056,82.500 139.359 C 79.448 140.891,79.924 140.984,83.125 139.480 C 85.689 138.276,86.176 137.251,84.200 137.219 C 83.980 137.215,84.065 137.380,84.388 137.584 M77.091 142.612 C 66.557 149.678,57.879 163.939,57.016 175.601 C 56.836 178.035,56.860 177.981,57.396 174.755 C 59.493 162.125,66.172 151.186,76.400 143.629 C 80.081 140.909,80.218 140.800,79.962 140.800 C 79.868 140.800,78.576 141.615,77.091 142.612 M302.528 146.800 C 302.528 148.230,302.601 148.815,302.689 148.100 C 302.778 147.385,302.778 146.215,302.689 145.500 C 302.601 144.785,302.528 145.370,302.528 146.800 M43.301 163.400 C 43.305 164.280,43.387 164.593,43.483 164.095 C 43.579 163.598,43.575 162.878,43.475 162.495 C 43.375 162.113,43.296 162.520,43.301 163.400 M56.563 182.680 C 56.629 185.775,56.526 187.086,56.229 186.921 C 55.993 186.790,56.022 186.922,56.293 187.215 C 57.078 188.061,57.122 187.668,56.785 182.800 L 56.467 178.200 56.563 182.680 M51.600 183.400 C 52.795 184.610,53.863 185.600,53.973 185.600 C 54.083 185.600,53.195 184.610,52.000 183.400 C 50.805 182.190,49.737 181.200,49.627 181.200 C 49.517 181.200,50.405 182.190,51.600 183.400 M34.800 194.125 C 34.800 194.194,35.385 194.779,36.100 195.425 L 37.400 196.600 36.225 195.300 C 35.130 194.088,34.800 193.816,34.800 194.125 M40.000 199.400 C 40.746 200.170,41.447 200.800,41.557 200.800 C 41.667 200.800,41.146 200.170,40.400 199.400 C 39.654 198.630,38.953 198.000,38.843 198.000 C 38.733 198.000,39.254 198.630,40.000 199.400 M48.400 205.379 C 48.400 205.489,48.940 205.859,49.600 206.200 C 50.260 206.541,50.800 206.731,50.800 206.621 C 50.800 206.511,50.260 206.141,49.600 205.800 C 48.940 205.459,48.400 205.269,48.400 205.379 M68.400 216.979 C 68.400 217.089,68.940 217.459,69.600 217.800 C 70.260 218.141,70.800 218.331,70.800 218.221 C 70.800 218.111,70.260 217.741,69.600 217.400 C 68.940 217.059,68.400 216.869,68.400 216.979 M71.400 218.696 C 71.620 218.925,72.880 219.701,74.200 220.421 C 75.520 221.141,76.420 221.548,76.200 221.325 C 75.980 221.102,74.720 220.326,73.400 219.600 C 72.080 218.874,71.180 218.467,71.400 218.696 M77.000 221.881 C 77.220 222.108,78.300 222.797,79.400 223.413 C 80.500 224.028,81.220 224.346,81.000 224.119 C 80.780 223.892,79.700 223.203,78.600 222.587 C 77.500 221.972,76.780 221.654,77.000 221.881 M331.293 224.400 C 331.293 225.170,331.375 225.485,331.476 225.100 C 331.576 224.715,331.576 224.085,331.476 223.700 C 331.375 223.315,331.293 223.630,331.293 224.400 M83.600 225.779 C 83.600 225.889,84.140 226.259,84.800 226.600 C 85.460 226.941,86.000 227.131,86.000 227.021 C 86.000 226.911,85.460 226.541,84.800 226.200 C 84.140 225.859,83.600 225.669,83.600 225.779 M86.400 227.379 C 86.400 227.489,86.940 227.859,87.600 228.200 C 88.260 228.541,88.800 228.731,88.800 228.621 C 88.800 228.511,88.260 228.141,87.600 227.800 C 86.940 227.459,86.400 227.269,86.400 227.379 M331.762 235.800 C 331.762 239.320,331.824 240.706,331.898 238.881 C 331.972 237.056,331.972 234.176,331.897 232.481 C 331.822 230.786,331.761 232.280,331.762 235.800 M107.024 240.647 C 106.879 241.223,106.860 241.793,106.981 241.914 C 107.101 242.035,107.203 241.878,107.206 241.567 C 107.219 240.340,107.842 239.890,108.849 240.381 C 109.752 240.821,109.761 240.813,109.024 240.222 C 107.907 239.328,107.324 239.452,107.024 240.647 M110.000 240.979 C 110.000 241.089,110.540 241.459,111.200 241.800 C 111.860 242.141,112.400 242.331,112.400 242.221 C 112.400 242.111,111.860 241.741,111.200 241.400 C 110.540 241.059,110.000 240.869,110.000 240.979 M112.800 242.579 C 112.800 242.689,113.340 243.059,114.000 243.400 C 114.660 243.741,115.200 243.931,115.200 243.821 C 115.200 243.711,114.660 243.341,114.000 243.000 C 113.340 242.659,112.800 242.469,112.800 242.579 M115.600 244.179 C 115.600 244.289,116.140 244.659,116.800 245.000 C 117.460 245.341,118.000 245.531,118.000 245.421 C 118.000 245.311,117.460 244.941,116.800 244.600 C 116.140 244.259,115.600 244.069,115.600 244.179 M118.600 245.881 C 118.820 246.108,119.900 246.797,121.000 247.413 C 122.100 248.028,122.820 248.346,122.600 248.119 C 122.380 247.892,121.300 247.203,120.200 246.587 C 119.100 245.972,118.380 245.654,118.600 245.881 M331.293 246.800 C 331.293 247.570,331.375 247.885,331.476 247.500 C 331.576 247.115,331.576 246.485,331.476 246.100 C 331.375 245.715,331.293 246.030,331.293 246.800 M123.271 248.568 C 123.420 248.737,124.770 249.590,126.271 250.463 C 127.772 251.336,128.730 251.788,128.400 251.467 C 127.759 250.844,122.814 248.049,123.271 248.568 M330.901 251.400 C 330.905 252.280,330.987 252.593,331.083 252.095 C 331.179 251.598,331.175 250.878,331.075 250.495 C 330.975 250.113,330.896 250.520,330.901 251.400 M84.101 254.200 C 84.105 255.080,84.187 255.393,84.283 254.895 C 84.379 254.398,84.375 253.678,84.275 253.295 C 84.175 252.913,84.096 253.320,84.101 254.200 M103.693 256.000 C 103.693 256.770,103.775 257.085,103.876 256.700 C 103.976 256.315,103.976 255.685,103.876 255.300 C 103.775 254.915,103.693 255.230,103.693 256.000 M83.709 259.200 C 83.709 260.190,83.787 260.595,83.882 260.100 C 83.978 259.605,83.978 258.795,83.882 258.300 C 83.787 257.805,83.709 258.210,83.709 259.200 M334.651 259.400 C 336.199 260.856,338.800 262.668,338.800 262.290 C 338.800 262.205,337.945 261.537,336.900 260.805 C 335.855 260.072,334.539 259.097,333.975 258.637 C 333.411 258.177,333.715 258.520,334.651 259.400 M127.320 260.400 C 127.320 261.610,127.395 262.105,127.487 261.500 C 127.578 260.895,127.578 259.905,127.487 259.300 C 127.395 258.695,127.320 259.190,127.320 260.400 M140.143 259.003 C 140.010 259.350,140.013 259.747,140.151 259.884 C 140.288 260.021,140.400 259.829,140.400 259.456 C 140.400 258.833,140.495 258.829,141.600 259.400 C 142.260 259.741,142.800 259.931,142.800 259.821 C 142.800 259.144,140.376 258.398,140.143 259.003 M103.309 260.400 C 103.309 261.390,103.387 261.795,103.482 261.300 C 103.578 260.805,103.578 259.995,103.482 259.500 C 103.387 259.005,103.309 259.410,103.309 260.400 M143.200 260.154 C 143.200 260.253,145.855 261.860,149.100 263.724 C 153.580 266.297,164.365 272.513,168.100 274.674 C 168.265 274.769,168.400 274.764,168.400 274.662 C 168.400 274.468,167.653 274.026,153.600 265.904 C 143.731 260.201,143.200 259.907,143.200 260.154 M139.740 265.200 C 139.740 267.070,139.809 267.835,139.893 266.900 C 139.977 265.965,139.977 264.435,139.893 263.500 C 139.809 262.565,139.740 263.330,139.740 265.200 M127.314 269.800 C 127.317 270.900,127.395 271.303,127.487 270.695 C 127.579 270.086,127.577 269.186,127.482 268.695 C 127.387 268.203,127.311 268.700,127.314 269.800 M103.301 269.800 C 103.305 270.680,103.387 270.993,103.483 270.495 C 103.579 269.998,103.575 269.278,103.475 268.895 C 103.375 268.513,103.296 268.920,103.301 269.800 M83.701 270.600 C 83.705 271.480,83.787 271.793,83.883 271.295 C 83.979 270.798,83.975 270.078,83.875 269.695 C 83.775 269.313,83.696 269.720,83.701 270.600 M84.093 275.600 C 84.093 276.370,84.175 276.685,84.276 276.300 C 84.376 275.915,84.376 275.285,84.276 274.900 C 84.175 274.515,84.093 274.830,84.093 275.600 M170.800 276.179 C 170.800 276.289,171.340 276.659,172.000 277.000 C 172.660 277.341,173.200 277.531,173.200 277.421 C 173.200 277.311,172.660 276.941,172.000 276.600 C 171.340 276.259,170.800 276.069,170.800 276.179 M173.800 277.875 C 174.020 278.098,175.280 278.874,176.600 279.600 C 177.920 280.326,178.820 280.733,178.600 280.504 C 178.380 280.275,177.120 279.499,175.800 278.779 C 174.480 278.059,173.580 277.652,173.800 277.875 M179.400 281.096 C 179.620 281.325,180.880 282.101,182.200 282.821 C 183.520 283.541,184.420 283.948,184.200 283.725 C 183.980 283.502,182.720 282.726,181.400 282.000 C 180.080 281.274,179.180 280.867,179.400 281.096 M130.423 283.726 C 130.389 284.214,132.085 288.048,132.259 287.874 C 132.342 287.792,131.968 286.751,131.428 285.562 C 130.888 284.373,130.436 283.547,130.423 283.726 M184.800 284.141 C 184.800 284.293,187.071 285.654,191.700 288.277 C 191.865 288.371,192.000 288.362,192.000 288.259 C 192.000 288.107,189.729 286.746,185.100 284.123 C 184.935 284.029,184.800 284.038,184.800 284.141 M147.591 289.188 C 148.057 289.841,148.642 290.502,148.891 290.656 C 149.141 290.811,148.841 290.276,148.225 289.468 C 146.888 287.715,146.384 287.492,147.591 289.188 M192.400 288.579 C 192.400 288.689,192.940 289.059,193.600 289.400 C 194.260 289.741,194.800 289.931,194.800 289.821 C 194.800 289.711,194.260 289.341,193.600 289.000 C 192.940 288.659,192.400 288.469,192.400 288.579 M133.525 290.600 C 133.972 291.480,134.633 292.560,134.994 293.000 C 135.355 293.440,135.159 292.900,134.559 291.800 C 133.216 289.338,132.407 288.399,133.525 290.600 M195.200 290.179 C 195.200 290.289,195.740 290.659,196.400 291.000 C 197.060 291.341,197.600 291.531,197.600 291.421 C 197.600 291.311,197.060 290.941,196.400 290.600 C 195.740 290.259,195.200 290.069,195.200 290.179 M151.200 293.400 C 152.395 294.610,153.463 295.600,153.573 295.600 C 153.683 295.600,152.795 294.610,151.600 293.400 C 150.405 292.190,149.337 291.200,149.227 291.200 C 149.117 291.200,150.005 292.190,151.200 293.400 M200.800 293.332 C 200.800 293.455,201.769 294.135,202.953 294.843 L 205.106 296.131 204.053 297.002 C 203.474 297.481,202.137 298.373,201.082 298.985 C 200.027 299.597,199.242 300.176,199.338 300.272 C 199.516 300.449,203.031 298.245,204.748 296.879 L 205.696 296.124 204.148 295.187 C 203.297 294.671,202.195 293.992,201.700 293.678 C 201.205 293.365,200.800 293.209,200.800 293.332 M155.355 296.928 C 156.211 297.679,157.471 298.615,158.155 299.009 C 159.902 300.013,159.414 299.571,156.400 297.419 C 154.542 296.092,154.244 295.952,155.355 296.928 M138.351 297.938 C 139.021 298.785,139.887 299.730,140.274 300.038 C 140.661 300.347,140.190 299.655,139.226 298.500 C 137.206 296.078,136.538 295.649,138.351 297.938 M110.400 297.747 C 110.400 298.180,112.388 302.000,112.613 302.000 C 112.723 302.000,112.339 301.055,111.759 299.900 C 110.643 297.679,110.400 297.294,110.400 297.747 M159.600 299.779 C 159.600 299.889,160.140 300.259,160.800 300.600 C 161.460 300.941,162.000 301.131,162.000 301.021 C 162.000 300.911,161.460 300.541,160.800 300.200 C 160.140 299.859,159.600 299.669,159.600 299.779 M197.200 301.200 C 196.430 301.622,195.944 301.974,196.120 301.983 C 196.544 302.005,198.800 300.832,198.800 300.590 C 198.800 300.328,198.777 300.337,197.200 301.200 M142.200 302.400 C 143.059 303.280,143.852 304.000,143.962 304.000 C 144.072 304.000,143.459 303.280,142.600 302.400 C 141.741 301.520,140.948 300.800,140.838 300.800 C 140.728 300.800,141.341 301.520,142.200 302.400 M163.200 301.800 C 163.750 302.114,164.380 302.372,164.600 302.372 C 164.820 302.372,164.550 302.114,164.000 301.800 C 163.450 301.486,162.820 301.228,162.600 301.228 C 162.380 301.228,162.650 301.486,163.200 301.800 M91.228 303.000 C 91.228 303.220,91.486 303.850,91.800 304.400 C 92.114 304.950,92.372 305.220,92.372 305.000 C 92.372 304.780,92.114 304.150,91.800 303.600 C 91.486 303.050,91.228 302.780,91.228 303.000 M166.600 303.200 C 167.040 303.389,167.670 303.544,168.000 303.544 C 168.378 303.544,168.304 303.417,167.800 303.200 C 167.360 303.011,166.730 302.856,166.400 302.856 C 166.022 302.856,166.096 302.983,166.600 303.200 M214.575 304.900 L 213.400 306.200 214.700 305.025 C 215.415 304.379,216.000 303.794,216.000 303.725 C 216.000 303.416,215.670 303.688,214.575 304.900 M145.000 304.764 C 145.836 305.729,148.800 308.183,148.800 307.910 C 148.800 307.823,147.765 306.872,146.500 305.797 C 145.235 304.721,144.560 304.256,145.000 304.764 M174.705 305.083 C 175.202 305.179,175.922 305.175,176.305 305.075 C 176.687 304.975,176.280 304.896,175.400 304.901 C 174.520 304.905,174.207 304.987,174.705 305.083 M183.505 305.083 C 184.002 305.179,184.722 305.175,185.105 305.075 C 185.487 304.975,185.080 304.896,184.200 304.901 C 183.320 304.905,183.007 304.987,183.505 305.083 M220.800 304.979 C 220.800 305.089,221.340 305.459,222.000 305.800 C 222.660 306.141,223.200 306.331,223.200 306.221 C 223.200 306.111,222.660 305.741,222.000 305.400 C 221.340 305.059,220.800 304.869,220.800 304.979 M370.120 307.600 C 370.120 308.810,370.195 309.305,370.287 308.700 C 370.378 308.095,370.378 307.105,370.287 306.500 C 370.195 305.895,370.120 306.390,370.120 307.600 M116.400 308.400 C 116.870 309.060,117.344 309.600,117.454 309.600 C 117.564 309.600,117.270 309.060,116.800 308.400 C 116.330 307.740,115.856 307.200,115.746 307.200 C 115.636 307.200,115.930 307.740,116.400 308.400 M226.400 308.179 C 226.400 308.289,226.940 308.659,227.600 309.000 C 228.260 309.341,228.800 309.531,228.800 309.421 C 228.800 309.311,228.260 308.941,227.600 308.600 C 226.940 308.259,226.400 308.069,226.400 308.179 M229.200 309.779 C 229.200 309.889,229.740 310.259,230.400 310.600 C 231.060 310.941,231.600 311.131,231.600 311.021 C 231.600 310.911,231.060 310.541,230.400 310.200 C 229.740 309.859,229.200 309.669,229.200 309.779 M118.875 311.897 C 121.869 316.184,133.272 326.818,137.200 328.986 C 138.318 329.603,137.066 328.567,133.931 326.280 C 129.884 323.327,123.495 317.160,120.366 313.188 C 117.555 309.620,116.870 309.027,118.875 311.897 M153.600 310.984 C 153.600 311.094,154.320 311.551,155.200 312.000 C 156.080 312.449,156.800 312.726,156.800 312.616 C 156.800 312.506,156.080 312.049,155.200 311.600 C 154.320 311.151,153.600 310.874,153.600 310.984 M202.400 312.800 C 201.630 313.222,201.144 313.574,201.320 313.583 C 201.744 313.605,204.000 312.432,204.000 312.190 C 204.000 311.928,203.977 311.937,202.400 312.800 M234.000 312.579 C 234.000 312.689,234.540 313.059,235.200 313.400 C 235.860 313.741,236.400 313.931,236.400 313.821 C 236.400 313.711,235.860 313.341,235.200 313.000 C 234.540 312.659,234.000 312.469,234.000 312.579 M234.000 319.400 C 232.361 321.050,231.110 322.400,231.220 322.400 C 231.330 322.400,232.761 321.050,234.400 319.400 C 236.039 317.750,237.290 316.400,237.180 316.400 C 237.070 316.400,235.639 317.750,234.000 319.400 M174.905 317.887 C 175.514 317.979,176.414 317.977,176.905 317.882 C 177.397 317.787,176.900 317.711,175.800 317.714 C 174.700 317.717,174.297 317.795,174.905 317.887 M183.305 317.887 C 183.914 317.979,184.814 317.977,185.305 317.882 C 185.797 317.787,185.300 317.711,184.200 317.714 C 183.100 317.717,182.697 317.795,183.305 317.887 M100.400 319.800 C 101.081 320.790,101.728 321.600,101.838 321.600 C 101.948 321.600,101.481 320.790,100.800 319.800 C 100.119 318.810,99.472 318.000,99.362 318.000 C 99.252 318.000,99.719 318.810,100.400 319.800 M229.375 323.700 L 228.200 325.000 229.500 323.825 C 230.215 323.179,230.800 322.594,230.800 322.525 C 230.800 322.216,230.470 322.488,229.375 323.700 M104.400 325.200 C 105.097 326.080,105.757 326.800,105.867 326.800 C 105.977 326.800,105.497 326.080,104.800 325.200 C 104.103 324.320,103.443 323.600,103.333 323.600 C 103.223 323.600,103.703 324.320,104.400 325.200 M253.914 326.716 C 252.580 328.407,245.210 335.882,241.600 339.204 C 240.765 339.973,241.007 339.845,242.200 338.888 C 244.977 336.661,250.607 331.128,253.375 327.904 C 254.648 326.422,255.878 325.324,256.107 325.466 C 256.349 325.616,256.404 325.530,256.238 325.262 C 255.786 324.530,255.494 324.713,253.914 326.716 M257.000 325.881 C 257.220 326.108,258.300 326.797,259.400 327.413 C 260.500 328.028,261.220 328.346,261.000 328.119 C 260.780 327.892,259.700 327.203,258.600 326.587 C 257.500 325.972,256.780 325.654,257.000 325.881 M224.600 327.435 L 223.400 328.466 224.700 327.606 C 225.415 327.133,226.000 326.668,226.000 326.573 C 226.000 326.273,225.831 326.378,224.600 327.435 M107.400 328.800 C 108.259 329.680,109.052 330.400,109.162 330.400 C 109.272 330.400,108.659 329.680,107.800 328.800 C 106.941 327.920,106.148 327.200,106.038 327.200 C 105.928 327.200,106.541 327.920,107.400 328.800 M261.600 328.579 C 261.600 328.689,262.140 329.059,262.800 329.400 C 263.460 329.741,264.000 329.931,264.000 329.821 C 264.000 329.711,263.460 329.341,262.800 329.000 C 262.140 328.659,261.600 328.469,261.600 328.579 M264.400 330.179 C 264.400 330.289,264.940 330.659,265.600 331.000 C 266.260 331.341,266.800 331.531,266.800 331.421 C 266.800 331.311,266.260 330.941,265.600 330.600 C 264.940 330.259,264.400 330.069,264.400 330.179 M111.400 333.200 C 112.706 334.520,113.865 335.600,113.975 335.600 C 114.085 335.600,113.106 334.520,111.800 333.200 C 110.494 331.880,109.335 330.800,109.225 330.800 C 109.115 330.800,110.094 331.880,111.400 333.200 M141.200 331.379 C 141.200 331.489,141.740 331.859,142.400 332.200 C 143.060 332.541,143.600 332.731,143.600 332.621 C 143.600 332.511,143.060 332.141,142.400 331.800 C 141.740 331.459,141.200 331.269,141.200 331.379 M217.100 332.027 C 216.275 332.463,215.600 332.908,215.600 333.018 C 215.600 333.127,216.320 332.849,217.200 332.400 C 218.080 331.951,218.800 331.497,218.800 331.392 C 218.800 331.130,218.797 331.131,217.100 332.027 M267.200 331.779 C 267.200 331.889,267.740 332.259,268.400 332.600 C 269.060 332.941,269.600 333.131,269.600 333.021 C 269.600 332.911,269.060 332.541,268.400 332.200 C 267.740 331.859,267.200 331.669,267.200 331.779 M270.200 333.496 C 270.420 333.725,271.680 334.501,273.000 335.221 C 274.320 335.941,275.220 336.348,275.000 336.125 C 274.780 335.902,273.520 335.126,272.200 334.400 C 270.880 333.674,269.980 333.267,270.200 333.496 M211.600 334.800 C 210.830 335.222,210.380 335.566,210.600 335.566 C 210.820 335.566,211.630 335.222,212.400 334.800 C 213.170 334.378,213.620 334.034,213.400 334.034 C 213.180 334.034,212.370 334.378,211.600 334.800 M148.800 335.400 C 149.350 335.714,149.980 335.972,150.200 335.972 C 150.420 335.972,150.150 335.714,149.600 335.400 C 149.050 335.086,148.420 334.828,148.200 334.828 C 147.980 334.828,148.250 335.086,148.800 335.400 M115.589 336.940 C 116.353 337.755,118.063 339.244,119.389 340.249 C 121.851 342.115,121.385 341.656,116.800 337.700 C 115.184 336.306,114.726 336.018,115.589 336.940 M151.200 336.333 C 151.530 336.536,152.250 336.824,152.800 336.971 C 153.495 337.157,153.617 337.125,153.200 336.867 C 152.870 336.664,152.150 336.376,151.600 336.229 C 150.905 336.043,150.783 336.075,151.200 336.333 M207.400 336.614 C 206.400 337.096,206.366 337.151,207.200 336.948 C 208.333 336.671,209.607 336.021,209.000 336.030 C 208.780 336.033,208.060 336.296,207.400 336.614 M157.200 338.600 C 157.970 338.897,158.870 339.139,159.200 339.139 C 159.530 339.139,159.170 338.897,158.400 338.600 C 157.630 338.303,156.730 338.061,156.400 338.061 C 156.070 338.061,156.430 338.303,157.200 338.600 M162.400 340.000 C 162.950 340.176,163.760 340.320,164.200 340.320 C 164.833 340.320,164.792 340.254,164.000 340.000 C 163.450 339.824,162.640 339.680,162.200 339.680 C 161.567 339.680,161.608 339.746,162.400 340.000 M238.400 341.649 C 237.006 342.871,237.005 342.872,238.288 342.019 C 238.996 341.548,239.682 340.991,239.812 340.781 C 240.197 340.157,239.877 340.354,238.400 341.649 M282.400 340.579 C 282.400 340.689,282.940 341.059,283.600 341.400 C 284.260 341.741,284.800 341.931,284.800 341.821 C 284.800 341.711,284.260 341.341,283.600 341.000 C 282.940 340.659,282.400 340.469,282.400 340.579 M170.905 341.487 C 171.514 341.579,172.414 341.577,172.905 341.482 C 173.397 341.387,172.900 341.311,171.800 341.314 C 170.700 341.317,170.297 341.395,170.905 341.487 M187.305 341.487 C 187.914 341.579,188.814 341.577,189.305 341.482 C 189.797 341.387,189.300 341.311,188.200 341.314 C 187.100 341.317,186.697 341.395,187.305 341.487 M176.918 341.898 C 178.633 341.973,181.333 341.972,182.918 341.897 C 184.503 341.821,183.100 341.759,179.800 341.760 C 176.500 341.761,175.203 341.822,176.918 341.898 M235.047 343.998 C 233.145 345.437,232.744 345.847,233.800 345.274 C 234.717 344.776,237.101 342.830,236.800 342.826 C 236.690 342.824,235.901 343.351,235.047 343.998 M290.000 344.979 C 290.000 345.089,290.540 345.459,291.200 345.800 C 291.860 346.141,292.400 346.331,292.400 346.221 C 292.400 346.111,291.860 345.741,291.200 345.400 C 290.540 345.059,290.000 344.869,290.000 344.979 M350.400 346.449 C 349.006 347.671,349.005 347.672,350.288 346.819 C 350.996 346.348,351.682 345.791,351.812 345.581 C 352.197 344.957,351.877 345.154,350.400 346.449 M295.600 348.179 C 295.600 348.289,296.140 348.659,296.800 349.000 C 297.460 349.341,298.000 349.531,298.000 349.421 C 298.000 349.311,297.460 348.941,296.800 348.600 C 296.140 348.259,295.600 348.069,295.600 348.179 M132.400 348.979 C 132.400 349.089,132.940 349.459,133.600 349.800 C 134.260 350.141,134.800 350.331,134.800 350.221 C 134.800 350.111,134.260 349.741,133.600 349.400 C 132.940 349.059,132.400 348.869,132.400 348.979 M226.300 349.429 C 224.805 350.240,224.896 350.578,226.400 349.800 C 227.060 349.459,227.600 349.094,227.600 348.990 C 227.600 348.732,227.557 348.747,226.300 349.429 M219.600 352.800 C 218.830 353.222,218.380 353.566,218.600 353.566 C 218.820 353.566,219.630 353.222,220.400 352.800 C 221.170 352.378,221.620 352.034,221.400 352.034 C 221.180 352.034,220.370 352.378,219.600 352.800 M320.100 355.894 C 321.145 355.976,322.855 355.976,323.900 355.894 C 324.945 355.812,324.090 355.744,322.000 355.744 C 319.910 355.744,319.055 355.812,320.100 355.894 M169.300 361.076 C 169.685 361.176,170.315 361.176,170.700 361.076 C 171.085 360.975,170.770 360.893,170.000 360.893 C 169.230 360.893,168.915 360.975,169.300 361.076 M189.300 361.076 C 189.685 361.176,190.315 361.176,190.700 361.076 C 191.085 360.975,190.770 360.893,190.000 360.893 C 189.230 360.893,188.915 360.975,189.300 361.076 M176.100 361.498 C 178.245 361.570,181.755 361.570,183.900 361.498 C 186.045 361.426,184.290 361.367,180.000 361.367 C 175.710 361.367,173.955 361.426,176.100 361.498 " stroke="none" fill="#cbb194" fill-rule="evenodd"></path><path id="path4" d="M328.000 35.325 C 328.000 35.394,328.585 35.979,329.300 36.625 L 330.600 37.800 329.425 36.500 C 328.330 35.288,328.000 35.016,328.000 35.325 M260.987 50.100 L 258.600 52.600 261.100 50.213 C 262.475 48.899,263.600 47.774,263.600 47.713 C 263.600 47.417,263.205 47.778,260.987 50.100 M314.783 49.300 C 316.441 51.066,316.800 51.384,316.800 51.083 C 316.800 51.019,315.945 50.164,314.900 49.183 L 313.000 47.400 314.783 49.300 M340.028 51.800 C 340.028 52.020,340.286 52.650,340.600 53.200 C 340.914 53.750,341.172 54.020,341.172 53.800 C 341.172 53.580,340.914 52.950,340.600 52.400 C 340.286 51.850,340.028 51.580,340.028 51.800 M253.665 60.217 C 252.995 61.688,253.123 62.002,253.847 60.665 C 254.186 60.040,254.388 59.454,254.296 59.363 C 254.205 59.271,253.921 59.656,253.665 60.217 M249.709 77.200 C 249.709 78.190,249.787 78.595,249.882 78.100 C 249.978 77.605,249.978 76.795,249.882 76.300 C 249.787 75.805,249.709 76.210,249.709 77.200 M250.134 84.000 C 250.134 85.650,250.205 86.325,250.291 85.500 C 250.378 84.675,250.378 83.325,250.291 82.500 C 250.205 81.675,250.134 82.350,250.134 84.000 M230.924 83.800 C 230.926 85.120,231.001 85.612,231.090 84.893 C 231.179 84.174,231.177 83.094,231.086 82.493 C 230.995 81.892,230.922 82.480,230.924 83.800 M193.100 101.098 C 195.355 101.170,199.045 101.170,201.300 101.098 C 203.555 101.027,201.710 100.969,197.200 100.969 C 192.690 100.969,190.845 101.027,193.100 101.098 M185.505 101.483 C 186.002 101.579,186.722 101.575,187.105 101.475 C 187.487 101.375,187.080 101.296,186.200 101.301 C 185.320 101.305,185.007 101.387,185.505 101.483 M207.500 101.482 C 207.995 101.578,208.805 101.578,209.300 101.482 C 209.795 101.387,209.390 101.309,208.400 101.309 C 207.410 101.309,207.005 101.387,207.500 101.482 M181.300 101.876 C 181.685 101.976,182.315 101.976,182.700 101.876 C 183.085 101.775,182.770 101.693,182.000 101.693 C 181.230 101.693,180.915 101.775,181.300 101.876 M211.700 101.876 C 212.085 101.976,212.715 101.976,213.100 101.876 C 213.485 101.775,213.170 101.693,212.400 101.693 C 211.630 101.693,211.315 101.775,211.700 101.876 M238.386 110.700 L 236.200 113.000 238.500 110.814 C 240.637 108.782,240.983 108.400,240.686 108.400 C 240.624 108.400,239.589 109.435,238.386 110.700 M142.800 112.200 C 142.250 112.514,141.980 112.772,142.200 112.772 C 142.420 112.772,143.050 112.514,143.600 112.200 C 144.150 111.886,144.420 111.628,144.200 111.628 C 143.980 111.628,143.350 111.886,142.800 112.200 M135.500 115.626 C 134.235 116.279,133.200 116.903,133.200 117.012 C 133.200 117.191,137.960 114.925,138.367 114.553 C 138.890 114.073,137.498 114.594,135.500 115.626 M70.115 115.496 C 71.388 115.576,73.368 115.575,74.515 115.494 C 75.662 115.414,74.620 115.349,72.200 115.350 C 69.780 115.351,68.842 115.416,70.115 115.496 M328.600 118.311 C 327.060 119.794,324.990 121.695,324.000 122.534 C 322.671 123.661,322.828 123.585,324.600 122.246 C 326.764 120.611,332.048 115.590,331.587 115.607 C 331.484 115.610,330.140 116.827,328.600 118.311 M225.600 119.000 C 225.050 119.314,224.780 119.572,225.000 119.572 C 225.220 119.572,225.850 119.314,226.400 119.000 C 226.950 118.686,227.220 118.428,227.000 118.428 C 226.780 118.428,226.150 118.686,225.600 119.000 M50.300 120.427 C 49.475 120.863,48.800 121.308,48.800 121.418 C 48.800 121.596,51.959 120.119,52.367 119.751 C 52.827 119.334,51.625 119.728,50.300 120.427 M93.200 120.184 C 93.200 120.294,93.920 120.751,94.800 121.200 C 95.680 121.649,96.400 121.926,96.400 121.816 C 96.400 121.706,95.680 121.249,94.800 120.800 C 93.920 120.351,93.200 120.074,93.200 120.184 M189.107 120.290 C 189.826 120.379,190.906 120.377,191.507 120.286 C 192.108 120.195,191.520 120.122,190.200 120.124 C 188.880 120.126,188.388 120.201,189.107 120.290 M203.300 120.287 C 203.905 120.378,204.895 120.378,205.500 120.287 C 206.105 120.195,205.610 120.120,204.400 120.120 C 203.190 120.120,202.695 120.195,203.300 120.287 M185.105 120.683 C 185.602 120.779,186.322 120.775,186.705 120.675 C 187.087 120.575,186.680 120.496,185.800 120.501 C 184.920 120.505,184.607 120.587,185.105 120.683 M181.300 121.076 C 181.685 121.176,182.315 121.176,182.700 121.076 C 183.085 120.975,182.770 120.893,182.000 120.893 C 181.230 120.893,180.915 120.975,181.300 121.076 M98.800 123.346 C 98.800 123.456,99.340 123.930,100.000 124.400 C 100.660 124.870,101.200 125.164,101.200 125.054 C 101.200 124.944,100.660 124.470,100.000 124.000 C 99.340 123.530,98.800 123.236,98.800 123.346 M159.800 126.000 C 159.296 126.217,159.222 126.344,159.600 126.344 C 159.930 126.344,160.560 126.189,161.000 126.000 C 161.504 125.783,161.578 125.656,161.200 125.656 C 160.870 125.656,160.240 125.811,159.800 126.000 M37.785 129.700 L 35.800 131.800 37.900 129.815 C 39.055 128.723,40.000 127.778,40.000 127.715 C 40.000 127.417,39.629 127.749,37.785 129.700 M148.400 130.600 C 147.850 130.914,147.580 131.172,147.800 131.172 C 148.020 131.172,148.650 130.914,149.200 130.600 C 149.750 130.286,150.020 130.028,149.800 130.028 C 149.580 130.028,148.950 130.286,148.400 130.600 M142.300 133.627 C 141.475 134.063,140.800 134.508,140.800 134.618 C 140.800 134.727,141.520 134.449,142.400 134.000 C 143.280 133.551,144.000 133.097,144.000 132.992 C 144.000 132.730,143.997 132.731,142.300 133.627 M68.500 134.676 C 68.885 134.776,69.515 134.776,69.900 134.676 C 70.285 134.575,69.970 134.493,69.200 134.493 C 68.430 134.493,68.115 134.575,68.500 134.676 M74.500 134.676 C 74.885 134.776,75.515 134.776,75.900 134.676 C 76.285 134.575,75.970 134.493,75.200 134.493 C 74.430 134.493,74.115 134.575,74.500 134.676 M52.975 141.700 L 51.800 143.000 53.100 141.825 C 54.312 140.730,54.584 140.400,54.275 140.400 C 54.206 140.400,53.621 140.985,52.975 141.700 M50.175 144.500 L 49.000 145.800 50.300 144.625 C 51.512 143.530,51.784 143.200,51.475 143.200 C 51.406 143.200,50.821 143.785,50.175 144.500 M302.101 147.000 C 302.105 147.880,302.187 148.193,302.283 147.695 C 302.379 147.198,302.375 146.478,302.275 146.095 C 302.175 145.713,302.096 146.120,302.101 147.000 M24.146 163.400 C 24.147 165.600,24.214 166.449,24.295 165.287 C 24.376 164.124,24.376 162.324,24.293 161.287 C 24.211 160.249,24.145 161.200,24.146 163.400 M43.293 160.800 C 43.293 161.570,43.375 161.885,43.476 161.500 C 43.576 161.115,43.576 160.485,43.476 160.100 C 43.375 159.715,43.293 160.030,43.293 160.800 M315.800 172.400 C 316.141 173.060,316.511 173.600,316.621 173.600 C 316.731 173.600,316.541 173.060,316.200 172.400 C 315.859 171.740,315.489 171.200,315.379 171.200 C 315.269 171.200,315.459 171.740,315.800 172.400 M51.183 183.300 C 52.164 184.345,53.019 185.200,53.083 185.200 C 53.384 185.200,53.066 184.841,51.300 183.183 L 49.400 181.400 51.183 183.300 M62.000 212.979 C 62.000 213.089,62.540 213.459,63.200 213.800 C 63.860 214.141,64.400 214.331,64.400 214.221 C 64.400 214.111,63.860 213.741,63.200 213.400 C 62.540 213.059,62.000 212.869,62.000 212.979 M330.893 222.400 C 330.893 223.170,330.975 223.485,331.076 223.100 C 331.176 222.715,331.176 222.085,331.076 221.700 C 330.975 221.315,330.893 221.630,330.893 222.400 M331.314 227.400 C 331.317 228.500,331.395 228.903,331.487 228.295 C 331.579 227.686,331.577 226.786,331.482 226.295 C 331.387 225.803,331.311 226.300,331.314 227.400 M331.314 243.800 C 331.317 244.900,331.395 245.303,331.487 244.695 C 331.579 244.086,331.577 243.186,331.482 242.695 C 331.387 242.203,331.311 242.700,331.314 243.800 M330.893 248.800 C 330.893 249.570,330.975 249.885,331.076 249.500 C 331.176 249.115,331.176 248.485,331.076 248.100 C 330.975 247.715,330.893 248.030,330.893 248.800 M84.101 257.000 C 84.105 257.880,84.187 258.193,84.283 257.695 C 84.379 257.198,84.375 256.478,84.275 256.095 C 84.175 255.713,84.096 256.120,84.101 257.000 M103.293 257.600 C 103.293 258.370,103.375 258.685,103.476 258.300 C 103.576 257.915,103.576 257.285,103.476 256.900 C 103.375 256.515,103.293 256.830,103.293 257.600 M83.750 265.000 C 83.751 267.420,83.816 268.358,83.896 267.085 C 83.976 265.812,83.975 263.832,83.894 262.685 C 83.814 261.538,83.749 262.580,83.750 265.000 M102.950 265.000 C 102.951 267.420,103.016 268.358,103.096 267.085 C 103.176 265.812,103.175 263.832,103.094 262.685 C 103.014 261.538,102.949 262.580,102.950 265.000 M127.334 265.200 C 127.334 266.850,127.405 267.525,127.491 266.700 C 127.578 265.875,127.578 264.525,127.491 263.700 C 127.405 262.875,127.334 263.550,127.334 265.200 M84.109 272.800 C 84.109 273.790,84.187 274.195,84.282 273.700 C 84.378 273.205,84.378 272.395,84.282 271.900 C 84.187 271.405,84.109 271.810,84.109 272.800 M103.301 272.600 C 103.305 273.480,103.387 273.793,103.483 273.295 C 103.579 272.798,103.575 272.078,103.475 271.695 C 103.375 271.313,103.296 271.720,103.301 272.600 M355.818 273.618 C 356.908 274.837,357.881 275.776,357.981 275.703 C 358.080 275.631,357.189 274.633,355.999 273.486 L 353.836 271.400 355.818 273.618 M168.200 274.281 C 168.420 274.508,169.500 275.197,170.600 275.813 C 171.700 276.428,172.420 276.746,172.200 276.519 C 171.980 276.292,170.900 275.603,169.800 274.987 C 168.700 274.372,167.980 274.054,168.200 274.281 M172.800 276.979 C 172.800 277.089,173.340 277.459,174.000 277.800 C 174.660 278.141,175.200 278.331,175.200 278.221 C 175.200 278.111,174.660 277.741,174.000 277.400 C 173.340 277.059,172.800 276.869,172.800 276.979 M360.800 279.600 C 361.270 280.260,361.744 280.800,361.854 280.800 C 361.964 280.800,361.670 280.260,361.200 279.600 C 360.730 278.940,360.256 278.400,360.146 278.400 C 360.036 278.400,360.330 278.940,360.800 279.600 M178.400 280.179 C 178.400 280.289,178.940 280.659,179.600 281.000 C 180.260 281.341,180.800 281.531,180.800 281.421 C 180.800 281.311,180.260 280.941,179.600 280.600 C 178.940 280.259,178.400 280.069,178.400 280.179 M181.200 281.779 C 181.200 281.889,181.740 282.259,182.400 282.600 C 183.060 282.941,183.600 283.131,183.600 283.021 C 183.600 282.911,183.060 282.541,182.400 282.200 C 181.740 281.859,181.200 281.669,181.200 281.779 M143.200 282.153 C 143.200 282.582,144.390 284.800,144.621 284.800 C 144.731 284.800,144.523 284.215,144.159 283.500 C 143.417 282.040,143.200 281.736,143.200 282.153 M87.256 290.800 C 87.256 291.130,87.411 291.760,87.600 292.200 C 87.817 292.704,87.944 292.778,87.944 292.400 C 87.944 292.070,87.789 291.440,87.600 291.000 C 87.383 290.496,87.256 290.422,87.256 290.800 M151.183 293.700 C 152.841 295.466,153.200 295.784,153.200 295.483 C 153.200 295.419,152.345 294.564,151.300 293.583 L 149.400 291.800 151.183 293.700 M204.122 297.429 L 203.000 298.458 204.300 297.554 C 205.015 297.057,205.600 296.593,205.600 296.525 C 205.600 296.209,205.158 296.480,204.122 297.429 M142.383 302.100 C 144.041 303.866,144.400 304.184,144.400 303.883 C 144.400 303.819,143.545 302.964,142.500 301.983 L 140.600 300.200 142.383 302.100 M175.700 305.487 C 176.305 305.578,177.295 305.578,177.900 305.487 C 178.505 305.395,178.010 305.320,176.800 305.320 C 175.590 305.320,175.095 305.395,175.700 305.487 M181.700 305.487 C 182.305 305.578,183.295 305.578,183.900 305.487 C 184.505 305.395,184.010 305.320,182.800 305.320 C 181.590 305.320,181.095 305.395,181.700 305.487 M95.400 311.200 C 95.741 311.860,96.111 312.400,96.221 312.400 C 96.331 312.400,96.141 311.860,95.800 311.200 C 95.459 310.540,95.089 310.000,94.979 310.000 C 94.869 310.000,95.059 310.540,95.400 311.200 M159.600 313.800 C 160.150 314.114,160.780 314.372,161.000 314.372 C 161.220 314.372,160.950 314.114,160.400 313.800 C 159.850 313.486,159.220 313.228,159.000 313.228 C 158.780 313.228,159.050 313.486,159.600 313.800 M125.000 319.200 C 126.750 320.960,128.271 322.400,128.381 322.400 C 128.491 322.400,127.150 320.960,125.400 319.200 C 123.650 317.440,122.129 316.000,122.019 316.000 C 121.909 316.000,123.250 317.440,125.000 319.200 M173.300 317.476 C 173.685 317.576,174.315 317.576,174.700 317.476 C 175.085 317.375,174.770 317.293,174.000 317.293 C 173.230 317.293,172.915 317.375,173.300 317.476 M185.300 317.476 C 185.685 317.576,186.315 317.576,186.700 317.476 C 187.085 317.375,186.770 317.293,186.000 317.293 C 185.230 317.293,184.915 317.375,185.300 317.476 M178.700 317.889 C 179.415 317.978,180.585 317.978,181.300 317.889 C 182.015 317.801,181.430 317.728,180.000 317.728 C 178.570 317.728,177.985 317.801,178.700 317.889 M234.185 319.700 L 232.200 321.800 234.300 319.815 C 235.455 318.723,236.400 317.778,236.400 317.715 C 236.400 317.417,236.029 317.749,234.185 319.700 M102.000 321.600 C 102.470 322.260,102.944 322.800,103.054 322.800 C 103.164 322.800,102.870 322.260,102.400 321.600 C 101.930 320.940,101.456 320.400,101.346 320.400 C 101.236 320.400,101.530 320.940,102.000 321.600 M256.000 324.979 C 256.000 325.089,256.540 325.459,257.200 325.800 C 257.860 326.141,258.400 326.331,258.400 326.221 C 258.400 326.111,257.860 325.741,257.200 325.400 C 256.540 325.059,256.000 324.869,256.000 324.979 M107.200 328.200 C 107.946 328.970,108.647 329.600,108.757 329.600 C 108.867 329.600,108.346 328.970,107.600 328.200 C 106.854 327.430,106.153 326.800,106.043 326.800 C 105.933 326.800,106.454 327.430,107.200 328.200 M251.578 329.100 L 250.200 330.600 251.700 329.222 C 253.096 327.938,253.384 327.600,253.078 327.600 C 253.012 327.600,252.337 328.275,251.578 329.100 M111.600 333.000 C 113.017 334.430,114.267 335.600,114.377 335.600 C 114.487 335.600,113.417 334.430,112.000 333.000 C 110.583 331.570,109.333 330.400,109.223 330.400 C 109.113 330.400,110.183 331.570,111.600 333.000 M146.000 334.400 C 146.770 334.822,147.580 335.166,147.800 335.166 C 148.020 335.166,147.570 334.822,146.800 334.400 C 146.030 333.978,145.220 333.634,145.000 333.634 C 144.780 333.634,145.230 333.978,146.000 334.400 M116.200 337.200 C 117.059 338.080,117.852 338.800,117.962 338.800 C 118.072 338.800,117.459 338.080,116.600 337.200 C 115.741 336.320,114.948 335.600,114.838 335.600 C 114.728 335.600,115.341 336.320,116.200 337.200 M243.578 337.100 L 242.200 338.600 243.700 337.222 C 245.096 335.938,245.384 335.600,245.078 335.600 C 245.012 335.600,244.337 336.275,243.578 337.100 M278.800 338.179 C 278.800 338.289,279.340 338.659,280.000 339.000 C 280.660 339.341,281.200 339.531,281.200 339.421 C 281.200 339.311,280.660 338.941,280.000 338.600 C 279.340 338.259,278.800 338.069,278.800 338.179 M240.000 340.054 L 238.200 341.685 239.894 340.413 C 241.368 339.307,242.314 338.374,241.924 338.412 C 241.856 338.419,240.990 339.158,240.000 340.054 M355.781 341.700 L 354.200 343.400 355.900 341.819 C 356.835 340.949,357.600 340.184,357.600 340.119 C 357.600 339.816,357.252 340.119,355.781 341.700 M172.100 341.876 C 172.485 341.976,173.115 341.976,173.500 341.876 C 173.885 341.775,173.570 341.693,172.800 341.693 C 172.030 341.693,171.715 341.775,172.100 341.876 M186.305 341.883 C 186.802 341.979,187.522 341.975,187.905 341.875 C 188.287 341.775,187.880 341.696,187.000 341.701 C 186.120 341.705,185.807 341.787,186.305 341.883 M178.905 342.287 C 179.514 342.379,180.414 342.377,180.905 342.282 C 181.397 342.187,180.900 342.111,179.800 342.114 C 178.700 342.117,178.297 342.195,178.905 342.287 M286.400 342.579 C 286.400 342.689,286.940 343.059,287.600 343.400 C 288.260 343.741,288.800 343.931,288.800 343.821 C 288.800 343.711,288.260 343.341,287.600 343.000 C 286.940 342.659,286.400 342.469,286.400 342.579 M289.200 344.179 C 289.200 344.289,289.740 344.659,290.400 345.000 C 291.060 345.341,291.600 345.531,291.600 345.421 C 291.600 345.311,291.060 344.941,290.400 344.600 C 289.740 344.259,289.200 344.069,289.200 344.179 M292.000 345.779 C 292.000 345.889,292.540 346.259,293.200 346.600 C 293.860 346.941,294.400 347.131,294.400 347.021 C 294.400 346.911,293.860 346.541,293.200 346.200 C 292.540 345.859,292.000 345.669,292.000 345.779 M294.800 347.379 C 294.800 347.489,295.340 347.859,296.000 348.200 C 296.660 348.541,297.200 348.731,297.200 348.621 C 297.200 348.511,296.660 348.141,296.000 347.800 C 295.340 347.459,294.800 347.269,294.800 347.379 M227.900 348.229 C 226.405 349.040,226.496 349.378,228.000 348.600 C 228.660 348.259,229.200 347.894,229.200 347.790 C 229.200 347.532,229.157 347.547,227.900 348.229 M297.600 348.979 C 297.600 349.089,298.140 349.459,298.800 349.800 C 299.460 350.141,300.000 350.331,300.000 350.221 C 300.000 350.111,299.460 349.741,298.800 349.400 C 298.140 349.059,297.600 348.869,297.600 348.979 M345.100 349.429 C 343.605 350.240,343.696 350.578,345.200 349.800 C 345.860 349.459,346.400 349.094,346.400 348.990 C 346.400 348.732,346.357 348.747,345.100 349.429 M222.000 351.400 C 221.450 351.714,221.180 351.972,221.400 351.972 C 221.620 351.972,222.250 351.714,222.800 351.400 C 223.350 351.086,223.620 350.828,223.400 350.828 C 223.180 350.828,222.550 351.086,222.000 351.400 M138.800 352.200 C 139.790 352.730,140.780 353.164,141.000 353.164 C 141.220 353.164,140.590 352.730,139.600 352.200 C 138.610 351.670,137.620 351.236,137.400 351.236 C 137.180 351.236,137.810 351.670,138.800 352.200 M142.400 353.800 C 142.950 354.114,143.580 354.372,143.800 354.372 C 144.020 354.372,143.750 354.114,143.200 353.800 C 142.650 353.486,142.020 353.228,141.800 353.228 C 141.580 353.228,141.850 353.486,142.400 353.800 M316.900 355.476 C 317.285 355.576,317.915 355.576,318.300 355.476 C 318.685 355.375,318.370 355.293,317.600 355.293 C 316.830 355.293,316.515 355.375,316.900 355.476 M325.700 355.476 C 326.085 355.576,326.715 355.576,327.100 355.476 C 327.485 355.375,327.170 355.293,326.400 355.293 C 325.630 355.293,325.315 355.375,325.700 355.476 M167.905 360.683 C 168.402 360.779,169.122 360.775,169.505 360.675 C 169.887 360.575,169.480 360.496,168.600 360.501 C 167.720 360.505,167.407 360.587,167.905 360.683 M190.500 360.676 C 190.885 360.776,191.515 360.776,191.900 360.676 C 192.285 360.575,191.970 360.493,191.200 360.493 C 190.430 360.493,190.115 360.575,190.500 360.676 M172.105 361.087 C 172.714 361.179,173.614 361.177,174.105 361.082 C 174.597 360.987,174.100 360.911,173.000 360.914 C 171.900 360.917,171.497 360.995,172.105 361.087 M185.700 361.087 C 186.305 361.178,187.295 361.178,187.900 361.087 C 188.505 360.995,188.010 360.920,186.800 360.920 C 185.590 360.920,185.095 360.995,185.700 361.087 " stroke="none" fill="#9a8474" fill-rule="evenodd"></path></g></svg>