<svg xmlns="http://www.w3.org/2000/svg" width="400" height="400" version="1.1" viewBox="0 0 400 400"><g fill-rule="evenodd" stroke="none"><path d="M228 41.44c-3.782.621-3.773.618-8.058 2.706-11.178 5.445-14.62 11.884-14.997 28.054-.243 10.42.082 9.799-5.121 9.802-11.088.008-27.671 4.435-40.149 10.719L155.149 95l-1.158-1.4c-.638-.77-1.331-1.85-1.542-2.4-.21-.55-.874-2.35-1.474-4-.601-1.65-1.895-4.71-2.875-6.8-.981-2.09-1.809-4.116-1.841-4.501-.212-2.53-10.663-11.295-14.859-12.462-1.32-.367-2.78-.858-3.245-1.09-1.903-.953-8.907-.263-11.984 1.179-8.374 3.927-14.292 21.65-11.221 33.606.357 1.393.65 3.045.65 3.672 0 .626.256 1.395.568 1.707.313.313.781 1.361 1.041 2.329.753 2.806 1.6 5.195 2.681 7.56 1.981 4.332 2.91 7.249 2.91 9.137 0 2.238.893 5.481 2.245 8.15.811 1.602.956 2.477.962 5.8.021 11.165 2.845 17.554 9.663 21.864 2.167 1.37 2.292 1.541 2.741 3.742.258 1.269 1.536 5.497 2.839 9.397 1.304 3.899 2.546 7.949 2.76 9 3.188 15.607 3.991 13.53-7.888 20.416-14.63 8.481-23.208 18.998-25.526 31.294a197.5 197.5 0 0 1-1.019 5.077c-1.56 6.934 1.668 14.138 9.005 20.093 7.01 5.691 16.091 10.234 22.913 11.463 3.095.558 3.201 1.703.871 9.383-3.636 11.985-.52 17.256 13.234 22.383 14.381 5.36 20.632 9.651 41.964 28.804 2.33 2.092 4.797 4.202 5.483 4.69.686.487 1.457 1.386 1.713 1.997.553 1.317 6.529 5.059 9.894 6.195 5.874 1.983 17.019 1.803 22.428-.362l2.528-1.012 2.818 1.044c3.454 1.281 5.979 1.331 9.98.198 1.646-.466 4.972-.978 7.392-1.137 5.241-.346 5.935-.654 9.52-4.239l2.692-2.692 2.771.457c4.018.664 5.201.576 7.302-.542 2.38-1.267 4.013-1.26 7.406.031 4.182 1.593 9.594 1.305 13.509-.718 1.54-.796 3.88-1.663 5.2-1.926 5.837-1.166 8.162-2.809 10.57-7.475.656-1.272 2.448-3.619 3.981-5.217 5.345-5.569 5.619-14.967.551-18.882-6.52-5.038-8.463-6.577-9.407-7.45-.774-.717-1.457-.985-2.284-.899-.99.104-1.654-.326-4.119-2.67-1.616-1.537-3.798-3.235-4.849-3.775-3.116-1.598-4.643-5.003-4.643-10.354 0-5.13-1.821-11.335-4.412-15.034-.866-1.236-1.999-3.675-2.636-5.673-.968-3.039-1.427-3.837-3.461-6.011-2.157-2.306-2.375-2.71-2.713-5.027-.788-5.409-1.143-7.016-2.126-9.624-1.03-2.732-2.809-5.664-4.073-6.713-2.369-1.967-3.379-5.307-3.562-11.783-.161-5.656-.496-6.91-3.643-13.6l-1.505-3.2 1.898-5.4c4.43-12.608 6.423-26.066 4.691-31.684-.224-.724-.773-3.296-1.222-5.716-1.181-6.377-3.9-19.118-4.866-22.805-.369-1.406-.294-1.879.601-3.8.561-1.207 1.023-2.573 1.025-3.036.002-.462.545-1.542 1.207-2.4 7.52-9.751 7.303-16.586-.917-28.865-3.111-4.649-4.297-8.38-4.46-14.031-.048-1.685-.191-3.333-.318-3.663-.214-.561-1.256-6.862-1.653-10-1.711-13.536-8.879-22.677-18.934-24.147-5.099-.745-4.469-.744-8.921-.013m11.492 6.365c4.873 1.447 9.52 9.912 7.336 13.363-.461.729-2.828-2.857-2.828-4.286 0-1.653-1.138-3.455-2.833-4.488-.896-.547-1.802-1.309-2.013-1.694-.21-.385-.648-.7-.974-.7-.325 0-.903-.167-1.285-.371a9.616 9.616 0 0 0-1.395-.587c-.385-.119-.7-.583-.7-1.029 0-1.02 1.705-1.095 4.692-.208m-6.707 2.381c.386.35.994.52 1.357.381.474-.182.658-.031.658.54 0 .436.289 1.58.643 2.543 1.035 2.82 1.754 7.037 1.995 11.706.123 2.396.391 4.793.593 5.326.203.534.369 1.61.369 2.393 0 1.23.083 1.354.61.917.832-.69 1.273-.137.666.835-.773 1.237 2.155 5.077 4.424 5.803.385.123.7.377.7.565 0 .188.585.467 1.3.619.715.153 1.518.454 1.784.668.266.214 1.03.269 1.699.122.966-.212 1.17-.148.994.313-.269.7.987 1.279 1.551.715.493-.493 1.882 2.032 3.078 5.596.474 1.415 2.007 4.372 3.405 6.572 7.077 11.134 7.372 15.285 1.635 23-1.226 1.65-2.234 3.324-2.238 3.72-.038 3.405-1.994 3.681-3.437.486-.644-1.427-1.306-2.597-1.471-2.6-.165-.003-.3-.186-.3-.406 0-.419-4.129-4.8-4.525-4.8-.125 0-1.135-.87-2.244-1.933-2.706-2.594-4.713-3.689-5.258-2.866-.296.446-.337.34-.162-.419.252-1.095-1.005-2.68-1.758-2.214-.219.135-.636-.088-.926-.496-.29-.408-1.517-1.44-2.727-2.294-1.21-.854-3.978-2.971-6.152-4.705-3.081-2.457-4.037-3.033-4.338-2.612-.29.406-.329.364-.157-.17.129-.4-.072-1.018-.462-1.417-.38-.39-1.051-1.216-1.491-1.836-.44-.62-1.025-1.364-1.3-1.654-.275-.29-.5-.642-.5-.782 0-.141-.426-.828-.946-1.529-.52-.7-1.275-2.038-1.677-2.973-.402-.935-.947-1.7-1.212-1.7s-.58-.675-.7-1.5c-.416-2.841-.757-4.1-1.11-4.1-.195 0-.355-.732-.355-1.626 0-.895-.203-2.007-.452-2.471-.707-1.321-1.101-8.151-.688-11.903.365-3.304.551-3.964 1.889-6.705.521-1.064.546-1.45.141-2.1-.295-.473-.333-.795-.093-.795.221 0 .403.18.403.4 0 .22.2.4.443.4.281 0 .345-.392.175-1.07-.22-.877-.17-.988.28-.614.661.548 1.853-.596 1.598-1.535-.127-.471-.086-.479.22-.044.458.652 2.209-.234 1.925-.974-.101-.265.187-.37.73-.266.496.094 1.509-.215 2.263-.692 1.687-1.066 7.909-.943 9.151.181m-18.917 9.18a.64.64 0 0 1-.846.387c-.475-.182-.514-.407-.178-1.036.503-.938 1.412-.361 1.024.649M127 68.291c.898.508.748.599-2.8 1.692-2.312.712-5.8 2.452-5.8 2.892 0 1.328.858 1.996 1.646 1.283.43-.389.702-.916.605-1.17-.115-.298.16-.398.77-.282.55.105 1.219-.089 1.592-.462.925-.925 8.187-.925 9.598 0 .628.412 1.357.55 2.02.384.673-.169.946-.114.779.157-.253.408 2.052 2.815 2.696 2.815.745 0 4.296 4.855 6.002 8.204 4.199 8.245 4.59 21.383.732 24.596-.305.254-.999 2.068-2.527 6.6-.667 1.98-1.343 3.96-1.501 4.4-.822 2.289-1.612 4.974-1.612 5.479 0 .314-.365 1.326-.81 2.248-.446.923-.919 2.22-1.052 2.884-.133.663-.398 1.303-.59 1.421-.191.118-.348.644-.348 1.168 0 .524-.153 1.048-.341 1.163-.187.116-.656 1.038-1.043 2.05-.386 1.011-1.112 2.281-1.614 2.823-.502.541-1.015 1.385-1.14 1.874-.124.49-.591 2.24-1.037 3.89-.481 1.777-.814 4.26-.818 6.092-.008 3.657-.805 4.316-3.331 2.755-4.398-2.718-6.666-9.125-6.673-18.853-.003-3.136-.155-4.086-.866-5.4-1.384-2.555-2.337-5.462-2.337-7.128 0-1.578.163-1.793 3.766-4.98 1.104-.976 1.276-1.489.634-1.886-.22-.136-.4-.597-.4-1.024 0-.427.18-.776.4-.776.22 0 .4.36.4.8 0 .44.205.8.456.8.311 0 .381-.632.219-2-.217-1.828.172-2.711.66-1.5.111.275.216-.254.233-1.176.018-.922-.148-1.788-.368-1.924-.22-.136-.4-.835-.4-1.552 0-1.435-.839-4.273-2.076-7.023-.439-.976-.896-2.376-1.015-3.11-.119-.734-.373-1.431-.563-1.548-.19-.118-.346-.632-.346-1.142 0-.51-.252-1.136-.559-1.391-.308-.256-.658-1.133-.777-1.949-.12-.817-.407-2.565-.638-3.885-.231-1.32-.308-3.615-.171-5.1.227-2.468.183-2.7-.507-2.7-1.696 0-2.541 2.661-2.796 8.8-.209 5.02-.361 5.841-1.137 6.139-2.848 1.093-2.37-11.777.671-18.024 1.439-2.958 5.628-7.315 7.032-7.315.215 0 .851-.239 1.414-.531 1.131-.587 4.302-.35 5.668.422m-10.314 6.871c-.882 1.493-.865 1.734.171 2.381.782.488.838.463.641-.289-.12-.46.032-1.03.343-1.288.701-.582.733-1.966.045-1.966-.282 0-.822.523-1.2 1.162M242.2 76c.594.656.616.8.124.8-.33 0-.926-.36-1.324-.8-.594-.656-.616-.8-.124-.8.33 0 .926.36 1.324.8m-21.4 17.537c0 .47-.188.412-.8-.245-.44-.472-.8-1.074-.8-1.337 0-.29.316-.193.8.245.44.398.8 1 .8 1.337M120.794 102.7c-.005 1.116-.106 1.346-.394.9-.509-.788-.509-2.4 0-2.4.22 0 .397.675.394 1.5M252.8 123.08c0 .804-.116.964-.453.627-.249-.249-.345-.735-.213-1.08.367-.954.666-.75.666.453m-14.139 1.731c3.927 1.369 2.894 7.589-1.261 7.589-4.146 0-5.308-6.943-1.292-7.719.491-.095 1-.197 1.132-.227.132-.029.772.131 1.421.357m-13.75 7.31c4.696 9.918 18.216 10.772 18.28 1.155.005-.778.174-1.221.409-1.076 1.108.685.092 4.756-1.811 7.25-1.688 2.212-9.707 3.873-11.382 2.356-.552-.499-1.141-.639-1.981-.471-.657.131-1.304.062-1.438-.154-.133-.216-.905-.733-1.715-1.149-4.821-2.475-6.161-6.275-3.15-8.932 1.632-1.44 1.62-1.444 2.788 1.021m-80.911.855c0 .317-.18.688-.4.824-.22.136-.4-.123-.4-.576 0-.453.18-.824.4-.824.22 0 .4.259.4.576m104.328.738c1.078 1.298 1.581 7.919.672 8.829-.33.33-.6.777-.6.993 0 3.17-9.479 4.312-15.368 1.852-2.655-1.11-2.2-2.845.633-2.417 4.87.736 9.122.729 9.407-.015.41-1.067 1.423-2.144 1.799-1.912.546.337.37.956-.271.956-.33 0-.6.18-.6.4 0 .582.436.492 1.269-.262.402-.364.731-.983.731-1.376 0-.393.18-.826.4-.962.22-.136.4-1.677.4-3.424 0-3.218.436-3.978 1.528-2.662m-29.809 4.437c3.611 2.343 8.674 8.028 9.159 10.284.245 1.135-1.449.274-3.683-1.872-3.209-3.082-4.866-4.561-5.859-5.228-.475-.318-1.285-1.198-1.8-1.954-.515-.757-1.251-1.377-1.636-1.378-.806-.003-.941-.639-.2-.938 1.115-.45 2.037-.201 4.019 1.086m-53.794 9.288c-.282.639-1.271 2.202-2.196 3.474-1.721 2.365-3.729 6.221-3.729 7.162 0 .289-.54 1.666-1.2 3.061-.66 1.395-1.2 3.15-1.2 3.9 0 .899-.19 1.364-.557 1.364-.307 0-.676.31-.822.689-.386 1.006-1.007-.101-1.015-1.81-.022-4.682 4.893-16.258 7.251-17.077.361-.126.749-.583.862-1.015.12-.457.547-.787 1.02-.787.448 0 .935-.196 1.083-.435.58-.939 1.012.324.503 1.474m31.715 1.42c2.042.612 1.599 1.14-.964 1.146-1.297.004-3.352.465-5.476 1.23-1.87.673-4.57 1.591-6 2.04-3.729 1.172-5.456 2.143-7.875 4.431-2.435 2.303-2.853 2.32-1.695.07 1.539-2.99 5.662-5.922 9.512-6.764.738-.162 2.154-.653 3.148-1.093 3.103-1.372 6.878-1.8 9.35-1.06m-49.061.333c3.3 1.255 1.325 6.008-2.496 6.008-3.397 0-4.163-3.787-1.139-5.631 1.418-.865 2.152-.941 3.635-.377m5.666 1.414c1.619 1.501 1.381 4.083-.794 8.594-.622 1.291-1.283.943-1.139-.6.062-.66-.056-2.82-.261-4.8-.482-4.647-.051-5.274 2.194-3.194m39.755 15.745c0 .633.27 1.375.6 1.649.63.523.823 1.6.286 1.6-.172 0-.622-.523-1-1.162-.749-1.269-.923-3.238-.286-3.238.22 0 .4.518.4 1.151m-52.747.649c2.005 1.812 3.385 1.814 6.845.01 2.665-1.39 3.868-1.32 2.541.147-.351.388-.639.82-.639.958 0 .74-3.273 3.485-4.156 3.485-.543 0-1.237.25-1.542.555-.719.719-4.119-1.623-4.747-3.27-1.334-3.5-.776-4.119 1.698-1.885m44.94 12.589c.133.214.863.685 1.624 1.046 1.305.619 1.849 1.365.995 1.365-.847 0-3.612-1.715-3.612-2.24 0-.641.635-.75.993-.171m66.987 5.342c4.084 9.031.891 17.505-7.694 20.419-3.422 1.162-7.886.371-7.886-1.397 0-.889 1.33-1.326 2.359-.775.997.534 2.717.546 3.041.022.136-.22 1.002-.403 1.924-.406 1.595-.006 5.082-2.279 5.077-3.311 0-.174.366-.71.815-1.192 2.107-2.262 2.566-11.431.689-13.786-.486-.61-.068-1.853.505-1.499.228.141.755 1.008 1.17 1.925m-76.569 30.846c-1.36 8.753-7.46 12.113-15.376 8.468-1.363-.628-4.835-3.816-4.835-4.439 0-.98 1.27-1.044 2.211-.112 1.622 1.608 2.169 1.942 4.492 2.741 2.486.856 5.296.73 6.129-.274.252-.304.632-.445.843-.315.946.585 3.445-3.093 4.109-6.046.799-3.554 2.979-3.575 2.427-.023m84.076 2.918c-.092.608-.17.205-.173-.895-.003-1.1.073-1.597.168-1.105.095.491.097 1.391.005 2m-12.102.978c.338 1.14.616 2.715.617 3.5.002.785.272 1.943.6 2.573.882 1.69.336 7.354-.938 9.734-.255.477-.464 1.139-.464 1.471 0 1.466-1.637 3.457-2.474 3.009-.58-.31-.73-.668-.545-1.294 1.033-3.482 1.861-12.315 1.531-16.325-.389-4.724.595-6.295 1.673-2.668m-91.965 15.565c1.048 2.028.634 9.29-.626 10.962-.166.22-.425.975-.575 1.678-.15.702-.891 2.087-1.646 3.076-1.712 2.242-1.751 1.984.627 4.122 1.1.989 2 2.131 2 2.537 0 .407.18.851.4.987.6.371.486 2.2-.137 2.2-.296 0-1.151-.536-1.9-1.191-3.61-3.155-4.661-3.545-6.961-2.584-.822.344-1.744.529-2.049.412-.627-.24-.761-1.437-.161-1.437.216 0 .507-.454.646-1.009.139-.555.563-1.23.942-1.5.715-.51 3.62-4.394 3.62-4.841 0-.14.45-1.187 1-2.327s1-2.57 1-3.178c0-.608.247-1.249.548-1.425.315-.184.629-1.256.738-2.52.175-2.039 1.199-5.2 1.683-5.2.116 0 .499.557.851 1.238M275.916 254.1c.433.935 1.016 2.568 1.296 3.629.285 1.083 1.18 2.742 2.038 3.781 2.961 3.583 4.295 11.248 2.196 12.623-1.346.882-1.846-.131-1.846-3.747 0-1.62-.251-2.809-.8-3.786-.44-.783-.8-1.652-.8-1.93s-.733-1.292-1.63-2.253c-1.252-1.343-1.564-1.941-1.346-2.582.405-1.193.52-4.362.175-4.835-.441-.604-.732-2.6-.379-2.6.17 0 .663.765 1.096 1.7m-86.717 20.499c2.101 1.065 4.801 3.236 4.801 3.861 0 .484-8.02-.024-8.685-.55-.374-.295-.336-.612.168-1.381.493-.752.535-1.071.172-1.295-.697-.431-.106-1.634.801-1.634.424 0 1.658.45 2.743.999m-49.999 3.048c0 .88-.194 2.849-.431 4.377-.68 4.386.797 6.811 5.231 8.585 2.485.994 5 2.639 5 3.269 0 .869-.54.824-4.4-.363-8.517-2.619-10.745-8.053-6.716-16.379.865-1.788 1.316-1.613 1.316.511m109.945 6.908c.194.245.456 3.865.582 8.045.233 7.699.838 11.139 2.379 13.526 1.405 2.177 2.581 8.282 1.594 8.271-.165-.002-1.649-1.473-3.298-3.268-1.65-1.796-3.9-3.825-5-4.51-2.775-1.725-14.074-6.611-15.328-6.628-1.744-.023-5.994-2.901-10.308-6.98a205.209 205.209 0 0 0-2.132-1.939c-.934-.84-1.615-1.744-1.513-2.009.419-1.093 5.153-2.271 9.104-2.267 3.121.003 4.151-.156 5.6-.866 3.628-1.777 17.197-2.795 18.32-1.375m39.655 8.325c0 .646-.118.762-.445.435-.245-.245-.324-.641-.177-.88.414-.67.622-.521.622.445m11.103 4.15c-.133.134-.661.11-1.173-.053-.89-.283-.896-.308-.13-.591.798-.294 1.765.183 1.303.644m-1.073 1.48c-.049.478-.598.386-.77-.13-.088-.264.056-.408.32-.32.264.088.467.29.45.45M283.792 304c.502 1.43 1.299 3.644 1.771 4.919.472 1.276.967 3.121 1.102 4.1.134.98.404 1.781.599 1.781.408 0 .728.745 2.58 6 2.281 6.471 1.554 7.995-3.816 7.999-3.378.001-9.446-2.173-10.516-3.769-.502-.749-.126-6.03.429-6.03.274 0 .828-.739 1.233-1.642 1.271-2.84 4.794-4.628 5.826-2.958.136.22.51.4.831.4.728 0 .458-1.359-.832-4.2-2.469-5.434-2.981-9.548-1.16-9.327.883.108 1.175.515 1.953 2.727m25.377-1.819c3.865 2.439 3.54 10.081-.341 8.019-1.575-.838-4.26-4.236-4.566-5.78-.555-2.796 2.104-4.009 4.907-2.239m-16.399-.017c.321.386.336.647.049.824-.558.345-1.219-.095-1.219-.812 0-.734.566-.74 1.17-.012m6.786 2.443c1.489 1.346 3.644 5.143 3.644 6.421 0 .333.36.992.8 1.464 1.143 1.227 1.145 6.463.004 8.701-1.242 2.434-3.181 3.693-5.783 3.755-3.103.074-3.346-.296-2.532-3.855.365-1.591.872-3.883 1.129-5.093.594-2.801.851-3.31 1.915-3.795.854-.389 1.261-2.205.494-2.205-.205 0-.474-.317-.596-.704-.123-.387-.848-1.651-1.611-2.81-2.217-3.366-.511-4.631 2.536-1.879m-30.243 11.933c3.892 3.891 3.133 12.235-1.113 12.245-6.959.017-10.305-8.982-4.492-12.078 3.423-1.824 3.933-1.839 5.605-.167m-49.399 2.16c1.308 1.3 3.286 5.142 3.286 6.383 0 .479.356 1.121.792 1.426 1.985 1.39 2.834 7.819 1.226 9.275-1.773 1.604-8.959 2.254-15.102 1.365-4.205-.608-5.949-2.224-3.434-3.18.595-.226 1.945-1.032 3.001-1.79 1.055-.759 2.108-1.379 2.339-1.379.231 0 1.083-.45 1.892-1 .809-.55 1.779-1 2.155-1 .376 0 .782-.16.903-.355.121-.195.861-.475 1.645-.622 1.723-.323 2.07-1.056 1.404-2.973-.517-1.487-2.384-4.545-2.921-4.783-.497-.221-.337-1.985.2-2.202 1.01-.408 1.531-.241 2.614.835m25.293 5.8c4.283 4.478 3.991 6.611-1.407 10.284-6.494 4.419-14.452 1.27-12.758-5.047.277-1.03 1.709-1.53 2.025-.706.441 1.149 4.571.485 7.037-1.131.587-.385 1.235-.7 1.439-.7.766 0 .785-1.184.035-2.138-2.819-3.582.28-4.063 3.629-.562m9.688-.111c3.07 2.415 2.819 7.319-.451 8.809-1.532.698-1.804-.402-1.035-4.182.088-.431-.033-1.553-.27-2.493-.701-2.782-.059-3.562 1.756-2.134" fill="#585759"/><path d="M186.4 11.647c-8.128.498-22.876 2.629-26.2 3.785-.88.306-2.043.559-2.585.562-1.277.008-11.12 2.789-18.015 5.09-12.848 4.288-22.647 8.817-37.2 17.193-.99.57-2.755 1.686-3.922 2.48a201.847 201.847 0 0 1-4 2.643C81.026 51.997 62.781 68.983 51.38 83.525 41.104 96.633 31.785 112.378 26.006 126.4c-2.604 6.317-5.209 13.494-6.533 18-.55 1.87-1.456 4.93-2.014 6.8-.558 1.87-1.124 4.12-1.259 5-.134.88-.59 2.95-1.012 4.6-5.166 20.185-5.035 66.127.228 79.708.321.83.584 2.007.584 2.617 0 1.805 5.912 21.803 6.821 23.075.157.22.742 1.66 1.299 3.2 3.729 10.311 12.755 27.596 19.03 36.444 5.285 7.453 6.325 8.834 7.147 9.491.505.405 1.204 1.287 1.553 1.962 2.996 5.794 27.447 29.526 36.676 35.598.921.605 3.024 2.072 4.674 3.259 2.824 2.031 13.082 8.355 16.6 10.233.88.47 1.87 1.022 2.2 1.228.973.605 10.011 4.94 12.4 5.947 1.21.51 2.955 1.268 3.878 1.683.923.415 1.849.755 2.058.755.209 0 1.635.534 3.169 1.187 3.221 1.37 4.536 1.825 11.095 3.832 29.56 9.049 60.895 10.699 91.6 4.825 3.684-.705 13.915-3.075 14.309-3.314.17-.104 2.6-.875 5.4-1.716 2.8-.84 6.351-2.006 7.891-2.59 1.54-.585 3.61-1.344 4.6-1.687.99-.343 2.535-.954 3.432-1.359a99.426 99.426 0 0 1 3.625-1.522c5.997-2.363 24.588-12.484 28.943-15.756.55-.413 3.16-2.281 5.8-4.152 2.64-1.87 5.34-3.896 6-4.502.66-.606 1.737-1.436 2.394-1.845.656-.408 1.826-1.313 2.6-2.01.773-.697 2.576-2.309 4.006-3.581 4.426-3.94 15.266-15.017 18.602-19.01 1.746-2.09 3.285-3.89 3.42-4 .136-.11.443-.559.683-.997.24-.439 1.186-1.609 2.103-2.6 1.384-1.497 7.374-9.846 9.061-12.629 2.995-4.944 6.633-11.096 7.317-12.374.47-.88 1.023-1.87 1.228-2.2 1.497-2.414 6.87-14.421 8.412-18.8.426-1.21.954-2.56 1.173-3 .442-.888 3.132-8.916 3.618-10.8.171-.66.955-3.45 1.742-6.2.788-2.75 1.442-5.45 1.454-6 .012-.55.283-1.72.602-2.6.528-1.455.921-3.633 2.778-15.4.704-4.464 1.811-23.129 1.578-26.6-.089-1.32-.35-6.36-.58-11.2-.23-4.84-.679-10.42-.997-12.4-.318-1.98-.772-4.86-1.008-6.4-.786-5.123-3.072-15.122-4.663-20.4-.53-1.76-1.167-3.92-1.414-4.8-.247-.88-.845-2.68-1.329-4-.484-1.32-1.37-3.75-1.968-5.4-1.568-4.321-4.427-11.207-5.769-13.89a680.72 680.72 0 0 1-2.614-5.31c-.803-1.65-1.77-3.54-2.149-4.2-.379-.66-1.662-2.91-2.851-5-3.646-6.406-10.466-16.401-15.425-22.603-9.218-11.528-20.206-22.437-32.431-32.197-10.638-8.493-27.566-18.572-40.773-24.276-8.478-3.662-26.739-9.68-31.4-10.349-.99-.142-2.7-.514-3.8-.827-10.842-3.086-35.533-4.797-53.4-3.701m50.521 29.806c10.029 1.466 16.919 10.185 18.923 23.947 1.707 11.716 1.879 12.077 6.956 14.559 7.381 3.609 20.936 12.852 26.163 17.841 6.353 6.064 7.962 7.664 11.32 11.258 10.247 10.966 19.755 25.908 25.035 39.342.994 2.53 2.292 6.04 2.885 7.8.592 1.76 1.236 3.56 1.43 4 .194.44.526 1.52.737 2.4.212.88.578 2.32.814 3.2 7.431 27.703 5.285 59.392-5.863 86.563-.776 1.89-1.825 4.469-2.333 5.729-.507 1.261-1.268 2.791-1.69 3.4-.422.61-1.884 3.178-3.248 5.708-2.349 4.355-7.456 11.879-12.55 18.487-2.553 3.313-2.879 4.69-1.4 5.926.762.636 5.041 3.985 9.202 7.2 5.068 3.915 4.794 13.313-.551 18.882-1.533 1.598-3.325 3.945-3.981 5.217-2.408 4.666-4.733 6.309-10.57 7.475-1.32.263-3.66 1.13-5.2 1.926-3.915 2.023-9.327 2.311-13.509.718-3.393-1.291-5.026-1.298-7.406-.031-2.101 1.118-3.284 1.206-7.302.542l-2.771-.457-2.692 2.692c-3.585 3.585-4.279 3.893-9.52 4.239-2.42.159-5.746.671-7.392 1.137-4.001 1.133-6.526 1.083-9.98-.198l-2.818-1.044-2.528 1.012c-8.213 3.288-20.175 2.236-28.098-2.471-3.716-2.208-4.199-2.385-7.184-2.629-34.287-2.801-63.571-15.766-86.071-38.108-10.975-10.898-17.624-19.52-24.303-31.515-1.715-3.08-3.254-5.78-3.421-6-2.548-3.366-9.452-25.03-11.6-36.4-1.939-10.264-2.474-29.599-1.09-39.4.388-2.75.779-5.54.869-6.2.09-.66.639-3.36 1.219-6 1.864-8.483 2.544-10.958 4.513-16.424 2.148-5.966 6.05-15.344 6.896-16.576.378-.55 1.081-1.81 1.563-2.8.976-2.007.988-2.027 3.929-6.893 2.037-3.37 3.97-6.145 7.976-11.448a172.674 172.674 0 0 0 2.941-4c.562-.802 2.812-3.325 5-5.606 5.913-6.163 6-6.371 4.729-11.321-3.071-11.956 2.847-29.679 11.221-33.606 3.077-1.442 10.081-2.132 11.984-1.179.465.232 1.925.723 3.245 1.09 3.116.867 8.046 4.4 11.755 8.425l2.804 3.043 3.12-.807c1.717-.444 4.831-1.433 6.921-2.196 2.09-.764 4.07-1.485 4.4-1.603.33-.118 1.86-.513 3.4-.878 1.54-.365 3.43-.839 4.2-1.054 5.906-1.647 19.576-3.568 25.6-3.597 10.073-.049 11.664-.511 12.147-3.529 1.093-6.833 6.502-13.348 14.195-17.095 4.285-2.088 4.276-2.085 8.058-2.706 4.452-.731 3.822-.732 8.921.013" fill="#0753f8"/><path d="M0 199.979v199.177h400V.802H0v199.177M216 10.755c5.128.396 11.274 1.112 12.8 1.492.55.137 2.08.396 3.4.577 1.32.18 3.66.599 5.2.931 1.54.332 3.34.716 4 .854 3.183.662 6.659 1.515 9.2 2.256 6.681 1.95 13.229 4.065 13.58 4.387.209.191.632.348.94.348.307 0 1.126.246 1.82.547.693.301 2.52 1.038 4.06 1.638 3.275 1.276 5.259 2.165 11.065 4.961 2.346 1.13 4.461 2.054 4.7 2.054.239 0 .435.146.435.325 0 .179.855.717 1.9 1.196 2.166.993 5.051 2.578 5.796 3.185.434.353 2.037 1.278 5.304 3.058.44.24.89.527 1 .637.304.306 4.947 3.377 5.382 3.56.21.088.57.316.8.507.23.19 1.138.872 2.018 1.514 10.128 7.395 14.027 10.61 21.725 17.913 5.449 5.169 13.722 14.064 16.281 17.505.654.88 1.287 1.69 1.407 1.8.28.257 3.233 4.154 6.062 8 7.421 10.088 16.659 27.074 21.536 39.6a877.4 877.4 0 0 0 2.432 6.2c2.053 5 6.637 21.69 7.745 28.2.131.77.399 2.3.595 3.4 3.746 20.995 3.751 43.671.016 65.6-.225 1.32-.512 3.03-.638 3.8-.681 4.17-3.436 14.794-5.758 22.2-4.61 14.711-11.288 28.867-20.754 44-1.652 2.64-3.11 4.89-3.241 5-.13.11-1.477 1.91-2.993 4-1.515 2.09-2.863 3.89-2.994 4-.131.11-1.211 1.46-2.4 3-8.403 10.885-22.207 24.211-35.146 33.929-5.705 4.285-13.688 9.657-17.075 11.491-.66.357-2.28 1.271-3.6 2.031-42.379 24.387-94.872 30.455-144.8 16.74-5.043-1.386-12.823-4-16.6-5.578a606.2 606.2 0 0 0-6-2.462c-3.237-1.303-12.872-5.907-13.2-6.307-.11-.134-1.441-.856-2.958-1.604-1.517-.747-3.857-2.045-5.2-2.883a310.772 310.772 0 0 0-4.242-2.596c-14.581-8.696-33.725-25.339-45-39.123-.88-1.076-1.792-2.155-2.026-2.397-.234-.243-1.044-1.268-1.8-2.279s-2.655-3.531-4.221-5.6c-4.08-5.39-8.851-12.686-11.354-17.362-.706-1.32-1.437-2.589-1.624-2.819-.761-.941-5.563-10.732-7.359-15.005a558.229 558.229 0 0 0-2.63-6.176c-.389-.88-1.19-2.95-1.779-4.6-.589-1.65-1.218-3.36-1.397-3.8-.48-1.18-1.437-4.147-2-6.2-.271-.99-.73-2.52-1.019-3.4-.485-1.472-2.202-8.37-2.788-11.2-.136-.66-.514-2.37-.839-3.8-1.185-5.217-2.823-17.613-3.409-25.8-.74-10.35-.034-28.952 1.443-38 .359-2.2.803-4.99.986-6.2.623-4.124 1.27-7.399 1.618-8.2.192-.44.43-1.43.529-2.2.203-1.575 1.689-7.671 2.243-9.2.199-.55.671-2.08 1.049-3.4 1.106-3.864 2.581-8.344 2.994-9.095.211-.382.383-.894.383-1.139s.247-1.012.549-1.706c.303-.693 1.129-2.7 1.836-4.46 2.995-7.45 8.261-18.085 12.348-24.937 1.357-2.276 2.467-4.286 2.467-4.467 0-.181.135-.389.3-.463.424-.188 3.7-5.114 3.7-5.562 0-.204.168-.371.373-.371s.474-.315.598-.7c.123-.385.696-1.24 1.272-1.9.577-.66 1.343-1.649 1.703-2.198 1.215-1.853 6.475-8.715 7.854-10.245.22-.244 1.564-1.774 2.986-3.4 2.456-2.809 11.411-11.865 15.233-15.407 3.185-2.951 8.409-7.222 13.045-10.664a889.817 889.817 0 0 0 4.972-3.722c1.19-.899 2.344-1.709 2.564-1.8.442-.181 5.082-3.243 5.4-3.563.11-.11.56-.397 1-.637a163.601 163.601 0 0 0 7-4.025c3.548-2.157 19.039-9.739 19.9-9.739.192 0 1.075-.35 1.961-.778.886-.428 2.765-1.161 4.175-1.629 2.505-.831 3.118-1.056 5.164-1.897.55-.226 1.81-.673 2.8-.993.99-.319 2.52-.817 3.4-1.105a55.31 55.31 0 0 1 2.8-.834c.66-.17 3-.778 5.2-1.352 11.164-2.912 22.208-4.738 32.994-5.455 3.407-.227 6.287-.509 6.4-.627.278-.29 18.655.181 24.406.625m7.8 41.125c-7.398 2.956-10.109 11.638-7.568 24.239.618 3.065 2.76 9.281 3.543 10.281.259.33.69 1.114.958 1.741.497 1.164 5.648 7.858 6.048 7.86.12 0 .849.555 1.619 1.233s2.75 2.253 4.4 3.499a373.16 373.16 0 0 1 3.4 2.588c.22.177 2.819 2.125 5.774 4.33 8.222 6.132 12.106 9.865 13.652 13.122.977 2.057 1.913 1.831 1.96-.473.008-.385.284-.7.614-.7s.6-.18.6-.4c0-.22.32-.72.711-1.111 3.888-3.888 5.395-12.89 2.046-12.22-4.68.936-10.422-6.957-7.18-9.869 1.011-.907 1.522-3.095.894-3.82-.181-.209-.676-1.439-1.1-2.733-.775-2.364-2.623-4.247-4.17-4.247-1.956 0-8.515-3.369-10.257-5.269-2.737-2.985-4.281-9.314-4.814-19.731-.102-1.98-.352-3.771-.557-3.98-.205-.209-.373-.792-.373-1.297 0-2.986-5.92-4.753-10.2-3.043m-34 14.145c-9.185.653-21.19 2.854-28.2 5.169-1.21.4-3.28 1.051-4.6 1.448-1.32.396-2.85.953-3.4 1.237-.55.284-1.227.517-1.505.519-.278.001-.818.167-1.2.368-.382.202-1.371.661-2.198 1.021-1.211.527-1.434.786-1.148 1.333 1.462 2.795 4.293 9.649 4.642 11.237.344 1.566 1.125 3.117 2.3 4.563l.909 1.119 3.85-1.961c6.623-3.375 13.562-5.99 21.15-7.972 5.567-1.454 12.843-2.6 19.852-3.127l3.651-.275.188-7.252c.103-3.989.114-7.387.025-7.552-.201-.369-8.366-.297-14.316.125M124 73.844c-1.694.751-4.238 3.121-5.085 4.736-.691 1.319-.866 8.278-.229 9.132.2.268.598 1.478.886 2.688.287 1.21.746 2.74 1.02 3.4 1.452 3.49 1.884 4.688 2.818 7.8.561 1.87 1.193 3.953 1.405 4.628.484 1.545.506 7.25.029 7.545-.195.121-.479.713-.631 1.316-.376 1.498-3.653 5.256-4.844 5.555-2.247.563.155 8.527 3.22 10.678 5.475 3.842 5.9 7.311 1.43 11.648-.891.864-1.619 1.704-1.619 1.867 0 1.666 3.824 7.163 4.983 7.163.637 0 1.417-2.631 1.417-4.779 0-2.83 2.688-9.976 5.076-13.496.508-.748.924-1.677.924-2.063 0-.386.148-.873.329-1.082.181-.209.654-1.46 1.05-2.78.396-1.32.878-2.713 1.071-3.095.192-.382.35-1.074.35-1.539 0-.465.248-1.412.551-2.106.303-.693 1.047-2.88 1.655-4.86 1.047-3.412 1.763-5.247 2.577-6.6 2.853-4.748 4.456-14.938 2.827-17.982-.226-.421-.41-1.14-.41-1.597 0-.458-.171-1.144-.381-1.526-.209-.382-.691-1.415-1.071-2.295-2.463-5.71-6.055-9.531-11.348-12.071-1.921-.922-6.219-1.075-8-.285M258.586 80.7c.159.825.423 2.31.586 3.3.558 3.39 1.415 5.403 3.86 9.062 5.122 7.664 7.71 17.002 5.851 21.112-1.658 3.664-2.331 4.868-3.663 6.553-1.787 2.261-2.819 4.145-2.822 5.153-.002.396-.272 1.236-.6 1.866-.745 1.428-.763 3.712-.049 6.392.569 2.14.949 3.845 2.062 9.262.362 1.76.809 3.83.993 4.6.185.77.634 2.93.999 4.8.364 1.87.824 4.12 1.021 5 1.794 8.004.898 17.763-2.681 29.2-1.064 3.401-1.257 3.933-2.288 6.314-1.029 2.376-.821 4.278.871 7.962 2.56 5.577 3.525 9.352 3.03 11.858-.739 3.736 1.056 9.525 3.802 12.266.881.88 1.612 1.739 1.622 1.908.011.169.44.979.954 1.8.513.821 1.065 1.942 1.225 2.492 1.159 3.964 1.841 7.149 1.841 8.591 0 2.365.731 4.203 2.145 5.392 2.568 2.16 3.332 3.459 4.48 7.617.394 1.43 1.297 3.41 2.005 4.4 2.623 3.665 4.035 7.709 4.601 13.173.897 8.667 1.492 10.747 3.369 11.785 2.1 1.161 5.756 3.933 7.153 5.425l1.553 1.657.996-.92c.548-.506 1.679-1.838 2.515-2.959.835-1.121 1.764-2.291 2.064-2.6.944-.971 6.719-9.148 6.719-9.514 0-.192.253-.559.563-.816.31-.257.855-1.045 1.211-1.749.357-.705.822-1.552 1.034-1.882 2.399-3.73 5.374-9.53 8.001-15.6 2.017-4.659 2.197-5.128 3.693-9.6 1.241-3.711 1.767-5.434 3.118-10.2 3.674-12.966 5.122-33.051 3.447-47.8-.666-5.861-.909-7.369-2.059-12.8-.349-1.65-.792-3.81-.983-4.8-.191-.99-.647-2.79-1.013-4a111.7 111.7 0 0 1-.872-3 14.55 14.55 0 0 0-.54-1.6c-.184-.44-.819-2.24-1.413-4-.593-1.76-1.304-3.74-1.58-4.4-.275-.66-1.005-2.46-1.622-4-1.678-4.192-4.659-10.141-6.915-13.8-.475-.77-.988-1.67-1.141-2-.86-1.854-7.991-12.179-10.747-15.56-12.178-14.938-29.361-28.935-43.893-35.755-2.909-1.366-2.85-1.375-2.503.415m-156.039 26.845c-5.535 5.927-7.763 8.687-13.605 16.855-4.621 6.46-10.73 17.813-13.346 24.8-.288.77-.675 1.571-.86 1.78-.185.209-.336.632-.336.94 0 .307-.259 1.126-.575 1.82-.316.693-1.04 2.7-1.608 4.46-1.425 4.418-1.663 5.228-2.413 8.2-.36 1.43-.821 3.23-1.025 4-.203.77-.551 2.39-.774 3.6-.223 1.21-.591 3.1-.817 4.2-1.923 9.363-2.097 29.642-.358 41.8 2.926 20.46 13.215 45.365 24.872 60.2l2.977 3.8c9.228 11.778 23.832 24.793 34.321 30.584 1.1.608 3.25 1.833 4.778 2.724 10.279 5.989 28.646 12.857 39.422 14.741 1.21.212 3.28.571 4.6.798 5.175.892 14.018 1.837 14.35 1.533.193-.176-.6-1.189-1.761-2.25a467.465 467.465 0 0 1-3.007-2.768c-.492-.461-3.03-2.706-5.638-4.988-2.609-2.282-4.834-4.247-4.944-4.367-.528-.577-5.585-4.775-7-5.811-.88-.645-1.78-1.314-2-1.489-6.849-5.425-11.669-8.154-20.238-11.459-8.541-3.294-8.686-3.363-11.485-5.423-6.127-4.51-7.504-10.979-4.18-19.642 1.877-4.894 1.366-7.783-1.378-7.783-2.384 0-10.048-3.164-15.319-6.324-12.453-7.466-17.806-15.733-16.369-25.276.766-5.085 1.209-7.461 1.639-8.79 1.325-4.097 2.101-5.991 3.16-7.716.643-1.048 1.17-1.995 1.17-2.103 0-.308 2.002-2.993 4.183-5.611 4.031-4.837 11.731-10.822 19.263-14.973 2.175-1.199 4.014-2.321 4.087-2.493.074-.173.355-.314.625-.314 1.188 0 2.749-2.301 2.493-3.673-.136-.73-.42-2.407-.631-3.727-.337-2.116-.836-4.427-2.028-9.4-.776-3.234-1.323-5.023-1.647-5.38-.19-.209-.345-.706-.345-1.105s-.168-1.038-.374-1.42c-.757-1.405-2.426-6.784-2.68-8.635-.249-1.816-.387-1.991-2.904-3.648-2.693-1.774-5.242-4.194-5.242-4.978 0-.238-.136-.434-.302-.434-.381 0-2.106-3.729-2.588-5.595-.894-3.46-1.095-4.922-1.347-9.805-.256-4.957-.677-6.795-2.177-9.495-.212-.382-.386-1.136-.386-1.676s-.157-1.079-.348-1.197c-.192-.118-.435-1.614-.54-3.324-.154-2.483-.486-3.737-1.652-6.237-.803-1.721-1.46-3.376-1.46-3.677 0-.301-.149-.639-.332-.752-.182-.113-.762-1.563-1.288-3.223-1.161-3.661-1.094-3.663-4.633.126m133.379 18.59c-2.211 1.485-1.938 3.85.574 4.961 1.461.647 2.924-.015 3.464-1.566.988-2.832-1.617-5.021-4.038-3.395m-92.144 24.847c-1.16 1.159-1.208 1.535-.312 2.43 1.39 1.391 4.53.13 4.53-1.818 0-1.854-2.6-2.231-4.218-.612M232.2 286.269c-1.652.848-2.626 1.042-5.6 1.111-7.234.17-10.388 1.445-8.167 3.302.736.615 2.334 2.04 3.552 3.167 3.591 3.323 4.528 4.009 6.215 4.555 3.2 1.034 7.249 2.545 9.4 3.507 1.21.542 2.74 1.216 3.4 1.498 4.427 1.893 5.404 2.553 8.677 5.869 1.912 1.937 3.552 3.522 3.644 3.522.36 0-.645-3.511-1.601-5.6l-1.375-3c-.797-1.737-1.239-5.506-1.421-12.1l-.19-6.9-7.267.021c-6.996.02-7.342.059-9.267 1.048" fill="#faf9fa"/><path d="M0 .4c0 .366 21.354.41 200 .41 178.646 0 200-.044 200-.41 0-.266-66.933-.4-200-.4S0 .134 0 .4m191.594 9.73c-.113.118-2.993.4-6.4.627-10.786.717-21.83 2.543-32.994 5.455-2.2.574-4.54 1.182-5.2 1.352-.66.17-1.92.545-2.8.834-.88.288-2.41.786-3.4 1.105-.99.32-2.25.767-2.8.993-2.046.841-2.659 1.066-5.164 1.897-1.41.468-3.289 1.201-4.175 1.629-.886.428-1.769.778-1.961.778-.861 0-16.352 7.582-19.9 9.739a163.601 163.601 0 0 1-7 4.025c-.44.24-.89.527-1 .637-.318.32-4.958 3.382-5.4 3.563-.22.091-1.374.901-2.564 1.8-1.19.9-3.428 2.575-4.972 3.722-4.636 3.442-9.86 7.713-13.045 10.664-3.822 3.542-12.777 12.598-15.233 15.407a703.583 703.583 0 0 1-2.986 3.4c-1.379 1.53-6.639 8.392-7.854 10.245-.36.549-1.126 1.538-1.703 2.198-.576.66-1.149 1.515-1.272 1.9-.124.385-.393.7-.598.7a.373.373 0 0 0-.373.371c0 .448-3.276 5.374-3.7 5.562a.553.553 0 0 0-.3.463c0 .181-1.11 2.191-2.467 4.467-4.087 6.852-9.353 17.487-12.348 24.937a230.474 230.474 0 0 1-1.836 4.46c-.302.694-.549 1.461-.549 1.706 0 .245-.172.757-.383 1.139-.413.751-1.888 5.231-2.994 9.095-.378 1.32-.85 2.85-1.049 3.4-.554 1.529-2.04 7.625-2.243 9.2-.099.77-.337 1.76-.529 2.2-.348.801-.995 4.076-1.618 8.2-.183 1.21-.627 4-.986 6.2-1.477 9.048-2.183 27.65-1.443 38 .586 8.187 2.224 20.583 3.409 25.8.325 1.43.703 3.14.839 3.8.586 2.83 2.303 9.728 2.788 11.2.289.88.748 2.41 1.019 3.4.563 2.053 1.52 5.02 2 6.2.179.44.808 2.15 1.397 3.8s1.39 3.72 1.779 4.6c.389.88 1.572 3.659 2.63 6.176 1.796 4.273 6.598 14.064 7.359 15.005.187.23.918 1.499 1.624 2.819 2.503 4.676 7.274 11.972 11.354 17.362 1.566 2.069 3.465 4.589 4.221 5.6.756 1.011 1.566 2.036 1.8 2.279.234.242 1.146 1.321 2.026 2.397 11.275 13.784 30.419 30.427 45 39.123.99.59 2.899 1.759 4.242 2.596 1.343.838 3.683 2.136 5.2 2.883 1.517.748 2.848 1.47 2.958 1.604.328.4 9.963 5.004 13.2 6.307a606.2 606.2 0 0 1 6 2.462c26.502 11.074 63.986 15.528 94.4 11.216 23.963-3.397 47.919-11.398 67-22.378 1.32-.76 2.94-1.674 3.6-2.031 3.387-1.834 11.37-7.206 17.075-11.491 12.939-9.718 26.743-23.044 35.146-33.929 1.189-1.54 2.269-2.89 2.4-3 .131-.11 1.479-1.91 2.994-4 1.516-2.09 2.863-3.89 2.993-4 .292-.245 5.851-9.114 7.272-11.6 2.305-4.033 2.959-5.25 5.909-11 7.162-13.958 14.363-35.075 16.572-48.6.126-.77.413-2.48.638-3.8 3.735-21.929 3.73-44.605-.016-65.6-.196-1.1-.464-2.63-.595-3.4-1.108-6.51-5.692-23.2-7.745-28.2a877.4 877.4 0 0 1-2.432-6.2c-4.877-12.526-14.115-29.512-21.536-39.6-2.829-3.846-5.782-7.743-6.062-8-.12-.11-.753-.92-1.407-1.8-2.559-3.441-10.832-12.336-16.281-17.505-7.698-7.303-11.597-10.518-21.725-17.913a70.264 70.264 0 0 1-2.018-1.514 3.92 3.92 0 0 0-.8-.507c-.435-.183-5.078-3.254-5.382-3.56-.11-.11-.56-.397-1-.637-3.267-1.78-4.87-2.705-5.304-3.058-.745-.607-3.63-2.192-5.796-3.185-1.045-.479-1.9-1.017-1.9-1.196 0-.179-.196-.325-.435-.325s-2.354-.924-4.7-2.054c-5.806-2.796-7.79-3.685-11.065-4.961a157.46 157.46 0 0 1-4.06-1.638c-.694-.301-1.513-.547-1.82-.547-.308 0-.731-.157-.94-.348-.351-.322-6.899-2.437-13.58-4.387-2.541-.741-6.017-1.594-9.2-2.256-.66-.138-2.46-.522-4-.854-1.54-.332-3.88-.751-5.2-.931-1.32-.181-2.85-.44-3.4-.577-4.764-1.185-36.376-2.983-37.206-2.117m27.206 1.809c11.144 1.244 25.52 3.893 30.8 5.675.55.186 3.43 1.081 6.4 1.991 2.97.909 5.967 1.91 6.66 2.224.694.314 1.389.571 1.545.571 1.232 0 12.122 4.581 19.195 8.074 8.004 3.953 23.479 13.222 25.729 15.412.29.283.661.514.824.514.163 0 .645.319 1.072.708.426.39 1.334 1.065 2.016 1.5 1.26.804 1.799 1.243 9.247 7.542 8.962 7.58 17.275 16.076 24.312 24.847.88 1.097 1.935 2.357 2.344 2.799 1.364 1.474 3.856 4.964 3.856 5.399 0 .237.27.534.6.66.33.127.6.466.6.754 0 .289.145.584.323.658.497.205 6.91 10.07 9.317 14.333 1.18 2.09 2.458 4.34 2.839 5 .382.66 1.526 2.91 2.542 5a338.82 338.82 0 0 0 2.575 5.2c.913 1.762 3.982 9.246 5.413 13.2 1.541 4.257 1.608 4.433 2.336 6.114.36.832.655 1.856.655 2.276 0 .42.18.874.4 1.01.22.136.4.655.4 1.152 0 .836.82 3.754 1.588 5.648.178.44.637 2.24 1.019 4 .383 1.76.831 3.56.997 4 .166.44.601 2.51.967 4.6s.83 4.7 1.031 5.8c.423 2.312 1.487 9.873 1.801 12.8 1.211 11.285.615 38.371-.986 44.8-.219.88-.402 2.428-.407 3.44-.006 1.012-.173 2.362-.372 3-.198.638-.66 2.87-1.024 4.96-.365 2.09-.807 4.16-.983 4.6-.491 1.231-1.638 6.3-1.634 7.22.001.451-.14.991-.315 1.2-.175.209-.639 1.46-1.032 2.78-1.56 5.237-2.726 8.833-3.079 9.495-.204.382-.371.894-.371 1.139s-.253 1.012-.561 1.706c-.309.693-1.059 2.602-1.667 4.242-.608 1.641-1.344 3.441-1.636 4-.292.56-.532 1.174-.534 1.364-.002.36-5.315 11.6-5.98 12.654-.209.33-.86 1.5-1.448 2.6-1.326 2.483-3.655 6.443-4.636 7.884-.406.596-.738 1.209-.738 1.362 0 .153-.45.868-1 1.59-.55.721-1 1.409-1 1.53 0 .304-6.945 10.248-7.857 11.25-.409.448-1.37 1.618-2.137 2.6-.767.981-1.577 1.979-1.8 2.218-.223.239-2.026 2.352-4.006 4.696-4.916 5.821-17.632 18.312-23.2 22.791-3.225 2.593-5.757 4.497-9.774 7.346-2.544 1.805-5.076 3.62-5.626 4.033-4.355 3.272-22.946 13.393-28.943 15.756a99.426 99.426 0 0 0-3.625 1.522 49.439 49.439 0 0 1-3.432 1.359c-.99.343-3.06 1.102-4.6 1.687-35.805 13.595-80.495 14.643-119.2 2.795-6.559-2.007-7.874-2.462-11.095-3.832-1.534-.653-2.96-1.187-3.169-1.187-.209 0-1.135-.34-2.058-.755a219.108 219.108 0 0 0-3.878-1.683c-2.389-1.007-11.427-5.342-12.4-5.947-.33-.206-1.32-.758-2.2-1.228-3.508-1.873-13.774-8.2-16.6-10.231-1.65-1.186-3.72-2.63-4.6-3.21-9.268-6.103-30.056-26.191-37.198-35.946-.645-.88-1.449-1.893-1.787-2.252-.338-.358-1.744-2.248-3.124-4.2-1.38-1.951-3.086-4.358-3.792-5.348-5.02-7.049-13.713-23.438-17.504-33-1.133-2.86-2.22-5.56-2.416-6-.704-1.587-2.834-8.075-3.809-11.6-.547-1.98-1.149-3.96-1.338-4.4-.189-.44-.657-2.24-1.039-4-.383-1.76-.839-3.56-1.015-4-.176-.44-.523-2.06-.772-3.6s-.698-3.97-.998-5.4c-.3-1.43-.827-5.03-1.171-8-.345-2.97-.728-6.12-.851-7-1.22-8.726-.642-34.339.993-44 .911-5.382 2.084-12.486 2.278-13.8.114-.77.358-1.76.543-2.2.184-.44.638-2.24 1.007-4 .37-1.76.82-3.56 1.001-4 .757-1.842 1.592-4.805 1.592-5.648 0-.497.16-1.004.356-1.125.195-.121.474-.716.619-1.323.383-1.608 3.676-10.477 5.831-15.704 3.906-9.477 9.853-20.549 16.329-30.4 1.663-2.53 3.132-4.69 3.265-4.8.133-.11.86-1.1 1.617-2.2s1.828-2.554 2.38-3.231c.551-.676 1.543-1.928 2.203-2.781 9.191-11.875 24.147-26.311 36.552-35.281 4.24-3.065 11.67-8.06 13.909-9.35 2.869-1.653 10.694-6.043 11.739-6.587 5.309-2.761 20.625-9.37 21.714-9.37.201 0 .932-.257 1.626-.572 1.122-.509 9.604-3.19 11.66-3.686.44-.106 1.16-.34 1.6-.521.778-.32 7.568-1.947 11.6-2.78 5.193-1.073 11.965-2.043 22.4-3.208 4.173-.466 29.301-.242 34.2.306m6.537 38.866c-14.62 2.994-14.223 30.095.663 45.212 1.21 1.229 6.146 5.193 10.969 8.809 12.055 9.038 11.727 8.775 14.562 11.672 1.632 1.668 2.994 3.557 3.837 5.322l1.306 2.737.732-1.978c.403-1.089 1.603-3.059 2.666-4.379 2.169-2.694 3.549-5.343 3.486-6.696-.032-.693-.149-.574-.5.507-.555 1.71-2.457 4.988-3.499 6.03-.417.417-.759.939-.759 1.159 0 .22-.27.4-.6.4-.33 0-.606.315-.614.7-.047 2.304-.983 2.53-1.96.473-1.546-3.257-5.43-6.99-13.652-13.122a824.989 824.989 0 0 1-5.774-4.33 373.16 373.16 0 0 0-3.4-2.588c-1.65-1.246-3.63-2.821-4.4-3.499-.77-.678-1.499-1.233-1.619-1.233-.4-.002-5.551-6.696-6.048-7.86-.268-.627-.699-1.411-.958-1.741-.783-1-2.925-7.216-3.543-10.281-2.808-13.928 1.184-23.798 10.043-24.823 3.981-.461 7.725 1.297 7.725 3.627 0 .505.168 1.088.373 1.297.205.209.455 2 .557 3.98.533 10.417 2.077 16.746 4.814 19.731 1.742 1.9 8.301 5.269 10.257 5.269 1.547 0 3.395 1.883 4.17 4.247.424 1.294.919 2.524 1.1 2.733.628.725.117 2.913-.894 3.82-3.26 2.928 2.503 10.804 7.216 9.861 1.041-.208 1.13-.116 1.416 1.459.198 1.084.371 1.408.491.914.452-1.878-.704-3.783-2.153-3.548-.864.14-1.347.057-1.347-.234 0-.248-.298-.452-.662-.452-.364 0-1.252-.45-1.974-1-.721-.55-1.438-1-1.593-1-1.836 0-1.61-5.278.292-6.809.737-.594.732-.667-.228-3a115.59 115.59 0 0 1-1.647-4.247c-.719-2.013-.452-1.842-6.749-4.303-6.035-2.359-8.33-4.446-9.79-8.902-.637-1.945-1.633-7.873-1.642-9.769-.05-11.146-3.439-15.646-10.67-14.165M186 65.237c-1.21.189-3.46.523-5 .741-4.378.62-7.38 1.146-10.2 1.786-1.43.325-3.14.705-3.8.845-2.716.577-10.9 3.141-14.6 4.575-6.246 2.421-6.174 2.288-3.898 7.131 1.004 2.137 2.138 4.744 2.52 5.794.381 1.05.78 1.823.885 1.717.261-.261-2.684-7.493-4.359-10.706-.285-.547-.062-.807 1.149-1.333.827-.36 1.816-.819 2.198-1.021.382-.201.922-.367 1.2-.368.278-.002.955-.235 1.505-.519.55-.284 2.08-.841 3.4-1.237a215.95 215.95 0 0 0 4.6-1.448c4.56-1.506 12.076-3.128 20.2-4.359 4.096-.621 15.499-1.312 19.2-1.163l3.2.128-.02 1.5-.1 7.439-.08 5.94-6.018.509c-3.309.281-5.941.586-5.848.679.309.309 11.516-.557 11.849-.915.18-.194.392-3.862.472-8.152l.145-7.8-8.2-.054c-4.51-.03-9.19.101-10.4.291m-60.441 7.536c-8.538 1.668-10.108 11.107-4.164 25.027 2.697 6.317 3.787 12.281 2.84 15.539-.763 2.623-3.61 6.393-4.979 6.592-1.359.197-1.854 1.658-1.304 3.844.803 3.189 3.75 8.952 4.703 9.197 4.058 1.046 4.233 7.52.245 9.061-1.916.74-.649 5.598 2.286 8.763 2.761 2.975 3.495 2.999 3.787.121.654-6.435 2.013-11.297 3.971-14.207 1.486-2.211 2.869-5.493 4.425-10.51 3.356-10.814 4.408-13.802 6.339-18 2.548-5.537 3.292-9.408 2.651-13.777-1.591-10.835-8.431-19.898-16.279-21.571-2.305-.491-2.398-.493-4.521-.079M132 74.129c5.293 2.54 8.885 6.361 11.348 12.071.38.88.862 1.913 1.071 2.295.21.382.381 1.068.381 1.526 0 .457.184 1.176.41 1.597 1.629 3.044.026 13.234-2.827 17.982-.814 1.353-1.53 3.188-2.577 6.6-.608 1.98-1.352 4.167-1.655 4.86-.303.694-.551 1.641-.551 2.106 0 .465-.158 1.157-.35 1.539-.193.382-.675 1.775-1.071 3.095-.396 1.32-.869 2.571-1.05 2.78-.181.209-.329.696-.329 1.082 0 .386-.416 1.315-.924 2.063-2.388 3.52-5.076 10.666-5.076 13.496 0 2.148-.78 4.779-1.417 4.779-1.159 0-4.983-5.497-4.983-7.163 0-.163.728-1.003 1.619-1.867 4.47-4.337 4.045-7.806-1.43-11.648-3.065-2.151-5.467-10.115-3.22-10.678 1.191-.299 4.468-4.057 4.844-5.555.152-.603.436-1.195.631-1.316.477-.295.455-6-.029-7.545-.212-.675-.844-2.758-1.405-4.628-.934-3.112-1.366-4.31-2.818-7.8-.274-.66-.733-2.19-1.02-3.4-.288-1.21-.686-2.42-.886-2.688-.637-.854-.462-7.813.229-9.132 2.391-4.559 8.518-6.643 13.085-4.451m126.267 4.138c-.147.146-.242.821-.213 1.5.042.942.096 1.021.228.333.214-1.107.029-1.119 2.807.185 14.532 6.82 31.715 20.817 43.893 35.755 2.756 3.381 9.887 13.706 10.747 15.56.153.33.666 1.23 1.141 2 2.256 3.659 5.237 9.608 6.915 13.8.617 1.54 1.347 3.34 1.622 4 .276.66.987 2.64 1.58 4.4.594 1.76 1.229 3.56 1.413 4 .183.44.426 1.16.54 1.6.113.44.506 1.79.872 3s.822 3.01 1.013 4c.191.99.634 3.15.983 4.8 1.15 5.431 1.393 6.939 2.059 12.8 1.894 16.679.21 35.401-4.697 52.2-.62 2.123-3.257 9.961-3.768 11.2-3.34 8.103-6.902 15.304-9.794 19.8-.212.33-.677 1.177-1.034 1.882-.356.704-.901 1.492-1.211 1.749-.31.257-.563.624-.563.816 0 .366-5.775 8.543-6.719 9.514-.3.309-1.229 1.479-2.064 2.6-.836 1.121-1.967 2.453-2.515 2.959l-.996.92-1.553-1.657c-1.418-1.515-5.184-4.361-7.153-5.408-.44-.234-1.205-1.217-1.7-2.185-.495-.968-.9-1.466-.9-1.107 0 1.451 1.464 3.191 3.695 4.39 1.262.678 3.447 2.379 4.854 3.78 3.611 3.593 3.383 3.672 8.715-3.038 6.889-8.669 14.303-21.003 17.716-29.474.607-1.508 1.332-3.191 1.611-3.741.717-1.414 3.949-11.115 5.131-15.4.891-3.23 1.261-4.879 2.689-12 3.143-15.666 2.067-41.62-2.399-57.9a220.12 220.12 0 0 1-.748-2.803c-1.401-5.434-5.443-15.852-8.96-23.097-7.118-14.663-19.246-30.446-31.861-41.466a301.813 301.813 0 0 1-2.8-2.474c-7.282-6.559-27.328-19.041-28.576-17.793m.201 3.733c.019 1.65.649 3.356.664 1.8.006-.66-.143-1.56-.332-2-.313-.727-.343-.709-.332.2m-70.068.4-1 .32 1-.007c.55-.004 1.54-.145 2.2-.313l1.2-.305-1.2-.008c-.66-.004-1.65.137-2.2.313m-4.4.748c-.33.179-1.68.559-3 .847-1.32.287-2.215.588-1.989.667.226.08 2.116-.289 4.2-.821 2.168-.553 3.276-.977 2.589-.992-.66-.013-1.47.121-1.8.299m-9.329 2.539c-1.282.433-2.247.87-2.147.971.202.202 5.476-1.428 5.476-1.693 0-.29-.937-.086-3.329.722m84.576.313c-.052.9.946 3.558 1.545 4.113.422.391.455.369.167-.113-.197-.33-.655-1.5-1.018-2.6-.362-1.1-.675-1.73-.694-1.4M169.8 87.414c-.66.303-.93.55-.6.55.33 0 1.14-.247 1.8-.55.66-.302.93-.549.6-.549-.33 0-1.14.247-1.8.549m-3.8 1.451c-.99.445-2.23.978-2.755 1.183-.526.206-.874.456-.774.557.193.192 5.344-1.887 5.797-2.34.466-.465-.415-.232-2.268.6m-13.6 1.451c0 .493 2.217 3.524 2.874 3.929.289.179-.059-.414-.774-1.318-.715-.903-1.3-1.831-1.3-2.061 0-.23-.18-.53-.4-.666-.22-.136-.4-.084-.4.116m109.024.922c.19.309 1.003 1.552 1.806 2.762 1.732 2.613 3.405 5.842 4.453 8.6.544 1.432.702 1.639.555.729-.368-2.272-5.414-11.573-6.715-12.377-.3-.185-.332-.091-.099.286M157.4 92.99c-.88.542-1.471.991-1.312.998.372.016 3.512-1.619 3.512-1.828 0-.361-.687-.102-2.2.83m-55.312 13.59c-7.647 8.078-14.935 17.823-20.353 27.214-.988 1.713-5.653 11.297-6.331 13.006-.392.99-1.024 2.52-1.403 3.4-.379.88-1.283 3.4-2.007 5.6-.725 2.2-1.453 4.36-1.62 4.8-.777 2.054-1.574 5.04-1.574 5.895 0 .52-.148 1.116-.33 1.325-.181.209-.641 2.09-1.023 4.18-.382 2.09-.849 4.43-1.038 5.2-2.243 9.133-2.235 38.925.013 46.228.208.676.385 1.666.393 2.2.013.835.946 4.839 2.788 11.972.256.99.605 2.16.776 2.6.172.44.624 1.79 1.007 3 1.061 3.359 2.72 7.755 3.086 8.18.181.209.328.609.328.889 0 .491 1.696 4.502 2.423 5.731.195.33.645 1.23 1 2 .871 1.893 1.046 2.232 2.579 5l2.324 4.2c6.468 11.699 18.579 25.762 31.692 36.8 4.871 4.1 18.708 13.2 20.072 13.2.246 0 .731.255 1.079.567 1.649 1.48 13.438 6.616 21.431 9.336 9.62 3.274 20.481 5.421 33.9 6.703 3.756.359 3.673-.453-.4-3.917-1.705-1.451-3.55-3.056-4.1-3.569-.55-.512-3.16-2.798-5.8-5.079-2.64-2.281-5.164-4.528-5.609-4.994-.445-.466-1.525-1.358-2.4-1.983l-1.591-1.136 1.4 1.292c1.955 1.806 3.502 3.179 8.944 7.947 2.608 2.286 5.146 4.534 5.638 4.995.492.461 1.845 1.706 3.007 2.768 1.161 1.061 1.954 2.074 1.761 2.25-.332.304-9.175-.641-14.35-1.533-1.32-.227-3.39-.586-4.6-.798-10.776-1.884-29.143-8.752-39.422-14.741a296.227 296.227 0 0 0-4.778-2.724c-10.489-5.791-25.093-18.806-34.321-30.584l-2.977-3.8C80.045 265.365 69.756 240.46 66.83 220c-1.739-12.158-1.565-32.437.358-41.8.226-1.1.594-2.99.817-4.2.223-1.21.571-2.83.774-3.6.204-.77.665-2.57 1.025-4 .75-2.972.988-3.782 2.413-8.2.568-1.76 1.292-3.767 1.608-4.46.316-.694.575-1.513.575-1.82 0-.308.151-.731.336-.94.185-.209.572-1.01.86-1.78 5.103-13.631 16.715-31.389 27.756-42.445 2.538-2.542 2.892-2.726 3.172-1.655.151.576.191.555.23-.12.044-.79-.618-1.78-1.19-1.78-.153 0-1.717 1.521-3.476 3.38m166.358-1.38c.019.33.178 1.05.354 1.6l.32 1 .034-1c.019-.55-.141-1.27-.354-1.6-.345-.533-.384-.533-.354 0m-161.614 1.054c-.017.25.231 1.06.552 1.8.322.74.584 1.076.582.746-.003-.739-1.088-3.177-1.134-2.546m1.996 5.546c0 .22.258.85.572 1.4.314.55.572.82.572.6 0-.22-.258-.85-.572-1.4-.314-.55-.572-.82-.572-.6m160.018.867c-.025.257-.162.797-.305 1.2-.201.569-.147.63.238.275.273-.251.41-.791.305-1.2-.105-.408-.212-.532-.238-.275m-1.142 3.217c-.273.582-.422 1.131-.332 1.221.24.241 1.101-1.487.954-1.914-.069-.201-.349.111-.622.693M110.82 116c-.004.11.251.92.568 1.8.317.88.578 1.24.58.8.003-.665-1.123-3.215-1.148-2.6m155.556 2.446c-.269.502-1.274 1.913-2.233 3.134-.958 1.221-1.735 2.49-1.726 2.82.009.33.324.051.7-.62.376-.671 1.473-2.25 2.439-3.51.966-1.26 1.655-2.392 1.532-2.515-.123-.123-.443.188-.712.691M112 121.91c0 1.343.163 2.543.362 2.667.334.206.126-4.553-.216-4.944-.08-.091-.146.933-.146 2.277m124.4 3.173c-2.567.937-3.179 3.799-1.231 5.748 3.121 3.12 7.651-1.335 4.65-4.573-.539-.582-1.155-1.058-1.367-1.058-.213 0-.626-.076-.919-.168-.293-.093-.803-.07-1.133.051m2.742 1.063c2.49 1.937.209 6.212-2.642 4.95-2.512-1.111-2.785-3.476-.574-4.961 1.293-.868 2.089-.866 3.216.011m22.588.525c-.259.837-.399 1.593-.312 1.681.253.252 1.027-2.029.898-2.646-.064-.306-.328.128-.586.965m-148.897-.366c-.018.278.147.818.367 1.2s.585 1.215.811 1.85c.226.636.503 1.064.615.952.112-.112-.238-1.172-.778-2.355-.54-1.184-.997-1.925-1.015-1.647m147.77 3.287c-.139.435-.066 1.11.16 1.5.337.578.415.432.425-.792.013-1.658-.201-1.918-.585-.708m-145.488 4.544c.173 4.792.369 5.377.424 1.264.027-1.98-.084-3.809-.246-4.064-.163-.255-.243 1.005-.178 2.8m146.141-.936c0 .33.155.96.344 1.4.217.504.344.578.344.2 0-.33-.155-.96-.344-1.4-.217-.504-.344-.578-.344-.2m-36.043 2.3c-.007.275.167.5.387.5s.405.225.412.5c.04 1.731 3.806 4.304 6.274 4.287l1.914-.013-2.003-.693c-2.088-.722-4.542-2.37-6.075-4.081-.493-.55-.902-.775-.909-.5m37.243 3.1c0 .44.155 1.16.344 1.6l.344.8v-.8c0-.44-.155-1.16-.344-1.6l-.344-.8v.8m-146.747 2.6c0 .99.078 1.395.173.9a5.661 5.661 0 0 0 0-1.8c-.095-.495-.173-.09-.173.9m147.537 1.2c-.019.55.141 1.27.354 1.6.494.764.494-.058 0-1.6l-.32-1-.034 1m-147.2 1.6c-.019.55.141 1.27.354 1.6.494.764.494-.058 0-1.6l-.32-1-.034 1m.786 3.067c-.039.57 1.461 4.133 1.74 4.133.11 0-.126-.765-.524-1.7-.398-.935-.828-1.97-.954-2.3-.127-.33-.245-.39-.262-.133m147.602.933c.012.33.177.96.366 1.4l.344.8.022-.8c.012-.44-.153-1.07-.366-1.4-.345-.533-.385-.533-.366 0m-121.265 2.769c-1.422 1.423-1.445 1.791-.187 3.049 1.481 1.482 3.539 1.173 5.109-.765 2.277-2.81-2.281-4.925-4.922-2.284m4.198-.526c.791.303.838 2.289.069 2.927-1.522 1.263-4.636.715-4.636-.817 0-1.441 2.863-2.764 4.567-2.11m118.037 2.157c.388 2.697.902 4.66.942 3.6.021-.55-.227-1.9-.552-3-.421-1.424-.533-1.597-.39-.6M118.8 152c0 .22.159.4.353.4.195 0 .448.36.563.8.115.44.418.8.674.8.266 0 .1-.512-.39-1.2-.898-1.261-1.2-1.463-1.2-.8m2.638 3.248c.419.466 1.966 1.635 3.436 2.597 2.255 1.475 2.7 1.954 2.836 3.052l.162 1.303.064-1.308c.056-1.135-.183-1.48-1.796-2.6a64.022 64.022 0 0 1-3.438-2.592c-1.805-1.488-2.379-1.693-1.264-.452m144.996 2.952c-.012.66.153 1.47.366 1.8.506.782.506-1.024 0-2.2-.295-.687-.347-.63-.366.4m.871 9c-.003 4.4.055 4.953.312 2.986.174-1.328.175-3.758.004-5.4-.282-2.7-.313-2.468-.316 2.414M128.034 163c-.012.44.153 1.07.366 1.4.514.795.514-.204 0-1.4l-.344-.8-.022.8m.798 2.454c-.017.25.231 1.06.552 1.8.322.74.584 1.076.582.746-.003-.739-1.088-3.177-1.134-2.546m137.75 9.928c-.153 1.02-.18 1.953-.06 2.073.12.12.343-.616.496-1.637.153-1.02.18-1.953.06-2.073-.12-.12-.343.616-.496 1.637m-134.57-.182c0 .33.175.87.388 1.2.345.533.388.533.388 0 0-.33-.175-.87-.388-1.2-.345-.533-.388-.533-.388 0m.836 2.8c-.02.33.219 1.41.531 2.4.312.99.566 1.44.564 1-.005-.994-1.046-4.226-1.095-3.4m132.581 3.029c-.148.586-.191 1.143-.097 1.237.095.094.292-.308.439-.895.148-.586.191-1.143.097-1.237-.095-.094-.292.308-.439.895M134.068 183.2c-.006.55.143 1.36.332 1.8l.344.8-.012-.8c-.006-.44-.156-1.25-.332-1.8l-.32-1-.012 1m130.332 1.6c-.589 2.189-.277 2.501.364.364.27-.903.401-1.733.29-1.843-.111-.111-.405.555-.654 1.479M135.004 188c.104.99.303 2.397.442 3.127.261 1.372-1.297 3.673-2.488 3.673-.27 0-.551.137-.625.306-.073.168-2.014 1.354-4.312 2.636-4.114 2.295-9.675 6.037-12.421 8.357-2.166 1.831-6.816 6.419-6.661 6.573.076.076 1.201-.91 2.499-2.191 4.146-4.089 10.324-8.788 14.962-11.379 10.314-5.764 10-5.424 9.067-9.824-.359-1.693-.567-2.268-.463-1.278m126.911 4.21a39.61 39.61 0 0 1-.495 1.59c-.149.44.022.294.38-.324s.581-1.334.495-1.59c-.085-.256-.256-.11-.38.324m-1.358 4.019c-.146.582-.062 1.226.192 1.48.335.335.451.069.451-1.029 0-1.724-.275-1.916-.643-.451m.664 2.396c-.029.582 1.594 3.894 1.804 3.683.094-.093-.27-1.056-.807-2.139-.537-1.083-.985-1.778-.997-1.544m2.019 4.175c-.015.11.411 1.37.946 2.8.535 1.43.971 2.24.969 1.8-.004-.699-1.845-5.123-1.915-4.6m2.01 9.68c-.055 4.676.44 7.754 1.595 9.92.815 1.53 4.367 5.617 4.335 4.989-.01-.214-.741-1.109-1.622-1.989-2.768-2.762-4.477-8.319-3.814-12.4.107-.66.051-2.01-.124-3-.26-1.461-.329-.995-.37 2.48m-157.502 1.62c-1.439 1.636-3.032 3.95-2.847 4.134.1.1.651-.496 1.225-1.326a75.428 75.428 0 0 1 1.892-2.608c1.022-1.324.838-1.46-.27-.2m-4.296 6.447c-1.268 2.164-2.813 6.225-2.491 6.547.131.132.239.027.239-.232 0-.54 1.232-3.387 2.667-6.162 1.233-2.383.953-2.487-.415-.153m-3.179 8.006c-.15.392-.262 1.013-.248 1.38.017.442.156.341.412-.299.212-.531.324-1.152.248-1.38-.076-.227-.261-.093-.412.299m170.927-.394c0 .088.448.943.995 1.9.548.958.998 1.526 1 1.264.005-.498-1.555-3.323-1.835-3.323a.16.16 0 0 0-.16.159M99.514 232.4c-.144.99-.365 2.43-.491 3.2-.173 1.062-.078.933.397-.536.344-1.065.565-2.505.491-3.2-.121-1.137-.161-1.083-.397.536m173.698 0c0 .33.175.87.388 1.2.345.533.388.533.388 0 0-.33-.175-.87-.388-1.2-.345-.533-.388-.533-.388 0m1.263 4.6c.011.44.157 1.34.325 2l.305 1.2.02-1.2c.01-.66-.136-1.56-.325-2l-.344-.8.019.8m.766 6.162c-.029.669.562 1.523 1.938 2.8 1.088 1.011 2.436 2.648 2.995 3.638.559.99 1.019 1.582 1.021 1.316.009-.929-2.1-3.926-3.602-5.116-.832-.66-1.693-1.74-1.912-2.4-.366-1.099-.403-1.119-.44-.238m-176.413.505c-.036.865 1.525 4.513 1.81 4.229.119-.12.022-.551-.218-.957-.239-.406-.689-1.459-.999-2.339-.311-.88-.577-1.3-.593-.933m1.975 4.938c.008 1.307 4.643 6.472 8.343 9.3 4.246 3.245 11.475 7.607 11.901 7.181.085-.085-.847-.661-2.072-1.281-6.488-3.282-13.812-9.207-16.812-13.6-.75-1.097-1.362-1.817-1.36-1.6m183.628 10.522c.709 1.14 1.363 2.073 1.454 2.073.288 0-1.632-3.224-2.2-3.696-.298-.247.037.483.746 1.623M121.8 265.475c.543.533 4.199 1.859 4.446 1.612.109-.108-.577-.468-1.524-.8-.947-.331-2.082-.738-2.522-.904-.525-.197-.663-.166-.4.092m165.468.125c.02 1.039.65 2.746.664 1.8.006-.44-.143-1.16-.332-1.6-.211-.49-.339-.568-.332-.2m-160.03 1.998c.352.205 1.432.472 2.4.594l1.762.222-2-.59c-2.307-.679-3.074-.76-2.162-.226m5.083 1.432c.789.552.874.882.696 2.7-.145 1.484-.103 1.787.15 1.07.838-2.373.314-4.4-1.136-4.4-.423 0-.334.193.29.63m155.793 1.17c.003 1.1.081 1.503.173.895.092-.609.09-1.509-.005-2-.095-.492-.171.005-.168 1.105m.381 4.2c0 .77.137 1.94.305 2.6l.305 1.2v-1.4c0-.77-.137-1.94-.305-2.6l-.305-1.2v1.4m-156.295.8c-.15.473-.183.95-.073 1.06.11.11.323-.187.473-.66.15-.473.183-.95.073-1.06-.11-.11-.323.187-.473.66m-.935 2.617c-.256.561-.452 1.327-.437 1.702.016.374.286-.023.602-.884.653-1.782.536-2.358-.165-.818m-1.013 3.883c-.325 1.211-.266 4.722.095 5.638.159.406.282-.899.272-2.9-.021-4.01-.023-4.023-.367-2.738m105.548 3.119c-.88.147 1.676.293 5.681.324l7.281.057.142 2.5.142 2.5.077-2.513c.053-1.717-.081-2.561-.423-2.667-.975-.303-11.325-.464-12.9-.201m-4.6 1.381c-2.363 1.265-1.519 1.283 1.025.021 1.086-.538 1.705-.98 1.375-.982-.33-.002-1.41.431-2.4.961m-10.6 1.42c-.539.245-.146.285 1.2.121 1.1-.134 2.075-.31 2.167-.392.35-.313-2.606-.075-3.367.271m6.7-.144c.385.1 1.015.1 1.4 0 .385-.101.07-.183-.7-.183s-1.085.082-.7.183m-9.868 1.221-1.168.612 1.568 1.385a317.1 317.1 0 0 1 2.968 2.658c3.662 3.33 6.47 5.399 7.676 5.655.728.154 2.926.894 4.883 1.644 1.958.75 3.634 1.289 3.726 1.197.16-.159-5.559-2.379-8.885-3.447-1.687-.542-2.622-1.227-6.215-4.552-1.218-1.127-2.816-2.551-3.55-3.165-1.482-1.239-1.486-1.193.176-2.059.654-.341.919-.602.589-.58-.33.022-1.126.315-1.768.652m-86.628.422c-.015 2.11 5.446 7.55 9.181 9.146 3.504 1.497 12.579 4.904 12.711 4.772.08-.08-2.518-1.178-5.775-2.439-9.595-3.715-12.458-5.625-14.952-9.972-.639-1.114-1.163-1.792-1.165-1.507m118.036 5.714c.022 1.632.184 3.417.361 3.967.181.562.227-.663.105-2.8-.263-4.6-.521-5.246-.466-1.167m.976 6.951c.105 1.091.39 2.171.633 2.4.319.301.354.139.127-.584a37.76 37.76 0 0 1-.633-2.4c-.259-1.137-.282-1.027-.127.584m-7.216 2.802c3.666 1.779 4.622 2.537 8.717 6.914 2.532 2.706 2.978 2.6 2.113-.5-.307-1.1-.575-1.607-.594-1.126-.02.481.14 1.336.354 1.9.593 1.559.247 1.314-3.513-2.495-1.912-1.936-4.197-3.85-5.077-4.252a310.68 310.68 0 0 1-3.175-1.48c-.866-.411-1.766-.738-2-.728-.234.011 1.195.806 3.175 1.767m-87.859-.381c.957.547 1.814.995 1.904.995.609 0 7.621 4.72 11.155 7.508 2.348 1.853 3.502 2.513 1.827 1.046-2.89-2.534-9.58-7.175-12.864-8.924-3.32-1.77-4.852-2.243-2.022-.625m96.077.854c-.01.253.43 1.243.977 2.2.548.958.989 1.561.982 1.341-.02-.603-1.938-4.07-1.959-3.541M71.3 399.101c-46.293.066-71.3.239-71.3.494 0 .256 69.472.392 200 .391 130.51-.001 200-.137 200-.394 0-.255-25.387-.406-72.5-.432-39.875-.023-97.79-.068-128.7-.1-30.91-.033-88.285-.015-127.5.041" fill="#a5b8da"/><path d="M188.5 11.487a8.899 8.899 0 0 0 2.2 0c.605-.092.11-.167-1.1-.167-1.21 0-1.705.075-1.1.167m21.2 0a8.899 8.899 0 0 0 2.2 0c.605-.092.11-.167-1.1-.167-1.21 0-1.705.075-1.1.167m25.1 36.526c0 .446.315.91.7 1.029a9.616 9.616 0 0 1 1.395.587c.382.204.96.371 1.285.371.326 0 .764.315.974.7.211.385 1.117 1.147 2.013 1.694 1.695 1.033 2.833 2.835 2.833 4.488 0 1.429 2.367 5.015 2.828 4.286 2.184-3.451-2.463-11.916-7.336-13.363-2.987-.887-4.692-.812-4.692.208m-11.166 1.992c-.754.477-1.767.786-2.263.692-.543-.104-.831.001-.73.266.284.74-1.467 1.626-1.925.974-.306-.435-.347-.427-.22.044.255.939-.937 2.083-1.598 1.535-.45-.374-.5-.263-.28.614.17.678.106 1.07-.175 1.07-.243 0-.443-.18-.443-.4 0-.22-.182-.4-.403-.4-.24 0-.202.322.093.795.405.65.38 1.036-.141 2.1-1.338 2.741-1.524 3.401-1.889 6.705-.413 3.752-.019 10.582.688 11.903.249.464.452 1.576.452 2.471 0 .894.16 1.626.355 1.626.353 0 .694 1.259 1.11 4.1.12.825.435 1.5.7 1.5.265 0 .81.765 1.212 1.7.402.935 1.157 2.273 1.677 2.973.52.701.946 1.388.946 1.529 0 .14.225.492.5.782.275.29.86 1.034 1.3 1.654.44.62 1.111 1.446 1.491 1.836.39.399.591 1.017.462 1.417-.172.534-.133.576.157.17.301-.421 1.257.155 4.338 2.612 2.174 1.734 4.942 3.851 6.152 4.705 1.21.854 2.437 1.886 2.727 2.294.29.408.707.631.926.496.753-.466 2.01 1.119 1.758 2.214-.175.759-.134.865.162.419.545-.823 2.552.272 5.258 2.866 1.109 1.063 2.119 1.933 2.244 1.933.396 0 4.525 4.381 4.525 4.8 0 .22.135.403.3.406.165.003.827 1.173 1.471 2.6 1.443 3.195 3.399 2.919 3.437-.486.004-.396 1.012-2.07 2.238-3.72 5.737-7.715 5.442-11.866-1.635-23-1.398-2.2-2.931-5.157-3.405-6.572-1.196-3.564-2.585-6.089-3.078-5.596-.564.564-1.82-.015-1.551-.715.176-.461-.028-.525-.994-.313-.669.147-1.433.092-1.699-.122s-1.069-.515-1.784-.668c-.715-.152-1.3-.431-1.3-.619s-.315-.442-.7-.565c-2.269-.726-5.197-4.566-4.424-5.803.607-.972.166-1.525-.666-.835-.527.437-.61.313-.61-.917 0-.783-.166-1.859-.369-2.393-.202-.533-.47-2.93-.593-5.326-.241-4.669-.96-8.886-1.995-11.706-.354-.963-.643-2.107-.643-2.543 0-.571-.184-.722-.658-.54-.363.139-.971-.031-1.357-.381-1.242-1.124-7.464-1.247-9.151-.181m8.566 1.553c2.018 1.145 3.78 7.353 3.807 13.412.009 1.896 1.005 7.824 1.642 9.769 1.46 4.456 3.755 6.543 9.79 8.902 6.297 2.461 6.03 2.29 6.749 4.303a115.59 115.59 0 0 0 1.647 4.247c.96 2.333.965 2.406.228 3-1.902 1.531-2.128 6.809-.292 6.809.155 0 .872.45 1.593 1 .722.55 1.61 1 1.974 1 .364 0 .662.204.662.452 0 .29.481.375 1.333.236 3.955-.641 3.145 8.041-1.261 13.512-1.063 1.32-2.263 3.29-2.666 4.379l-.732 1.978-1.306-2.737c-.843-1.765-2.205-3.654-3.837-5.322-2.835-2.897-2.507-2.634-14.562-11.672-13.123-9.839-16.564-13.83-19.852-23.026-3.048-8.527-3.184-19.001-.319-24.588 2.79-5.441 10.675-8.336 15.402-5.654m-19.356 7.159c-.336.629-.297.854.178 1.036.737.283 1.26-.831.668-1.423-.288-.288-.548-.169-.846.387M201.2 64.36l-2.6.206 3 .217 3 .217.237 2 .237 2 .063-1.867c.072-2.142-.223-3.167-.88-3.056-.251.042-1.627.17-3.057.283m-79.868 3.509c-.563.292-1.199.531-1.414.531-1.404 0-5.593 4.357-7.032 7.315-3.041 6.247-3.519 19.117-.671 18.024.776-.298.928-1.119 1.137-6.139.255-6.139 1.1-8.8 2.796-8.8.69 0 .734.232.507 2.7-.137 1.485-.06 3.78.171 5.1.231 1.32.518 3.068.638 3.885.119.816.469 1.693.777 1.949.307.255.559.881.559 1.391s.156 1.024.346 1.142c.19.117.444.814.563 1.548.119.734.576 2.134 1.015 3.11 1.237 2.75 2.076 5.588 2.076 7.023 0 .717.18 1.416.4 1.552.22.136.386 1.002.368 1.924-.017.922-.122 1.451-.233 1.176-.488-1.211-.877-.328-.66 1.5.162 1.368.092 2-.219 2-.251 0-.456-.36-.456-.8 0-.44-.18-.8-.4-.8-.22 0-.4.349-.4.776 0 .427.18.888.4 1.024.642.397.47.91-.634 1.886-3.603 3.187-3.766 3.402-3.766 4.98 0 1.666.953 4.573 2.337 7.128.711 1.314.863 2.264.866 5.4.007 9.728 2.275 16.135 6.673 18.853 2.526 1.561 3.323.902 3.331-2.755.004-1.832.337-4.315.818-6.092.446-1.65.913-3.4 1.037-3.89.125-.489.638-1.333 1.14-1.874.502-.542 1.228-1.812 1.614-2.823.387-1.012.856-1.934 1.043-2.05.188-.115.341-.639.341-1.163s.157-1.05.348-1.168c.192-.118.457-.758.59-1.421.133-.664.606-1.961 1.052-2.884.445-.922.81-1.934.81-2.248 0-.505.79-3.19 1.612-5.479.158-.44.834-2.42 1.501-4.4 1.528-4.532 2.222-6.346 2.527-6.6 3.858-3.213 3.467-16.351-.732-24.596-1.706-3.349-5.257-8.204-6.002-8.204-.644 0-2.949-2.407-2.696-2.815.167-.271-.106-.326-.779-.157-.663.166-1.392.028-2.02-.384-1.411-.925-8.673-.925-9.598 0-.373.373-1.042.567-1.592.462-.61-.116-.885-.016-.77.282.097.254-.175.781-.605 1.17-.788.713-1.646.045-1.646-1.283 0-.44 3.488-2.18 5.8-2.892 3.548-1.093 3.698-1.184 2.8-1.692-1.366-.772-4.537-1.009-5.668-.422m83.156 7.207c-.103 6.655.25 6.2-5.08 6.541l-4.008.258 4.024.062c5.637.088 5.427.357 5.276-6.74l-.124-5.797-.088 5.676m-74.408-2.224c7.848 1.673 14.688 10.736 16.279 21.571.641 4.369-.103 8.24-2.651 13.777-1.931 4.198-2.983 7.186-6.339 18-1.556 5.017-2.939 8.299-4.425 10.51-1.958 2.91-3.317 7.772-3.971 14.207-.292 2.878-1.026 2.854-3.787-.121-2.935-3.165-4.202-8.023-2.286-8.763 3.988-1.541 3.813-8.015-.245-9.061-.953-.245-3.9-6.008-4.703-9.197-.55-2.186-.055-3.647 1.304-3.844 1.369-.199 4.216-3.969 4.979-6.592.947-3.258-.143-9.222-2.84-15.539-6.398-14.982-4.144-24.374 6.085-25.354.264-.025 1.434.157 2.6.406m-11.68 1.899c0 .413-.251.96-.559 1.215-.311.258-.463.828-.343 1.288.197.752.141.777-.641.289-1.036-.647-1.053-.888-.171-2.381.777-1.315 1.714-1.539 1.714-.411m29.192-.22c-1.801.6-1.763 1.034.516 5.869.984 2.09 2.199 4.929 2.698 6.31.5 1.38.996 2.421 1.103 2.314.26-.26-1.181-3.935-3.42-8.719-1.885-4.03-1.845-5.505.149-5.505.283 0 .626-.18.762-.4.304-.492-.007-.47-1.808.131M241 76c.398.44.994.8 1.324.8.492 0 .47-.144-.124-.8-.398-.44-.994-.8-1.324-.8-.492 0-.47.144.124.8m16.809 1.949c-.159.938-.181 1.813-.049 1.945.132.131.24-.142.24-.607 0-.466.272-.999.604-1.185.52-.291.527-.444.048-1.098-.513-.702-.577-.631-.843.945m.242 3.851c-.009.66.234 2.1.54 3.2.712 2.566.724 1.14.017-2-.352-1.564-.546-1.982-.557-1.2M190 82.448c-.99.199-2.839.565-4.11.814-1.27.248-2.224.537-2.12.642.105.104 1.684-.104 3.51-.464 1.826-.359 4.4-.809 5.72-.998 2.241-.322 2.281-.345.6-.35-.99-.004-2.61.157-3.6.356m-9 1.952-.8.344h.8c.44 0 1.16-.155 1.6-.344l.8-.344h-.8c-.44 0-1.16.155-1.6.344m-7.6 2.179c-2.64.921-5.497 1.978-6.349 2.348-.852.37-1.594.673-1.65.673-.428 0-4.661 2.074-4.52 2.214.099.099 1.067-.242 2.15-.758 2.651-1.263 8.727-3.538 13.369-5.005 2.09-.661 3.35-1.189 2.8-1.174-.55.015-3.16.781-5.8 1.702m85.812 1.021c0 .33.175.87.388 1.2.345.533.388.533.388 0 0-.33-.175-.87-.388-1.2-.345-.533-.388-.533-.388 0M152 90.031c0 .781 2.341 4.371 3.02 4.632.518.199 5.59-2.186 5.289-2.487-.094-.094-1.225.368-2.514 1.027l-2.343 1.198-.912-.858c-.502-.471-1.279-1.596-1.726-2.5-.447-.904-.814-1.359-.814-1.012m108-.292c0 .076 1.003 1.637 2.229 3.469 2.444 3.651 4.177 6.919 4.981 9.392.287.88.594 1.383.683 1.118.251-.747-2.701-6.733-5.236-10.618-1.997-3.059-2.657-3.894-2.657-3.361m-40.8 2.216c0 .263.36.865.8 1.337.612.657.8.715.8.245 0-.337-.36-.939-.8-1.337-.484-.438-.8-.535-.8-.245M120.006 102.1c.003.495.181 1.17.394 1.5.288.446.389.216.394-.9.003-.825-.174-1.5-.394-1.5-.22 0-.397.405-.394.9m-15.037 1.011c-.623.958-.628 1.023-.039.54.803-.658 1.87-.001 1.87 1.152 0 .709 1.155 3.692 1.184 3.059.13-2.795-2.051-6.232-3.015-4.751m163.229 2.489c.659 4.933.666 5.49.086 7.4-.333 1.1-.74 2.36-.904 2.8-.201.539-.166.67.108.4 1.521-1.5 2.093-6.65 1.11-10-.433-1.475-.538-1.632-.4-.6m-159.396 5.055c-.003.584 2.899 6.977 3.084 6.793.076-.077-.356-1.289-.96-2.694-1.435-3.337-2.12-4.661-2.124-4.099m156.869 8.041a67.028 67.028 0 0 1-2.463 3.463c-.664.858-1.187 1.938-1.162 2.4.045.807.055.808.241.041.106-.44.94-1.786 1.853-2.991 2.056-2.714 3.153-4.45 2.944-4.658-.088-.088-.724.697-1.413 1.745M112.287 120.6c.124 1.54.29 2.875.369 2.967.303.35.071-4.206-.253-4.967-.206-.484-.252.308-.116 2m139.847 2.027c-.132.345-.036.831.213 1.08.337.337.453.177.453-.627 0-1.203-.299-1.407-.666-.453M112.841 124.8c-.007.55.245 1.45.559 2 .724 1.266.727 1.043.021-1.2-.403-1.277-.571-1.51-.58-.8m123.267-.119c-2.552.493-3.374 4.515-1.339 6.55 3.284 3.283 8.138-.817 5.752-4.858-.579-.98-2.49-2.098-3.281-1.919-.132.03-.641.132-1.132.227m2.344.519c.212 0 .828.476 1.367 1.058 3.001 3.238-1.529 7.693-4.65 4.573-2.261-2.262-.456-6.69 2.364-5.799.293.092.706.168.919.168m22.409 2.606c-.779 1.78-.869 2.372-.531 3.47.224.728.906 3.651 1.515 6.494.61 2.844 1.179 4.959 1.265 4.7.086-.259-.107-1.595-.429-2.97a209.96 209.96 0 0 1-1.077-4.9c-.269-1.32-.658-2.862-.865-3.426-.283-.774-.171-1.498.456-2.962.456-1.065.779-2.075.718-2.244-.062-.169-.536.658-1.052 1.838m-146.843.245c-.01.138.295.948.677 1.8.442.987.778 3.072.926 5.749l.232 4.2.056-4.2c.049-3.734-.052-4.4-.909-6-.53-.99-.972-1.687-.982-1.549m108.105 3.049c-3.011 2.657-1.671 6.457 3.15 8.932.81.416 1.582.933 1.715 1.149.134.216.781.285 1.438.154.84-.168 1.429-.028 1.981.471 1.675 1.517 9.694-.144 11.382-2.356 1.903-2.494 2.919-6.565 1.811-7.25-.235-.145-.404.298-.409 1.076-.064 9.617-13.584 8.763-18.28-1.155-1.168-2.465-1.156-2.461-2.788-1.021m-78.923 2.124c0 .453.18.712.4.576.22-.136.4-.507.4-.824 0-.317-.18-.576-.4-.576-.22 0-.4.371-.4.824m103.6 3.152c0 1.747-.18 3.288-.4 3.424-.22.136-.4.569-.4.962s-.329 1.012-.731 1.376c-.833.754-1.269.844-1.269.262 0-.22.27-.4.6-.4.641 0 .817-.619.271-.956-.376-.232-1.389.845-1.799 1.912-.285.744-4.537.751-9.407.015-2.833-.428-3.288 1.307-.633 2.417 5.889 2.46 15.368 1.318 15.368-1.852 0-.216.27-.663.6-.993 1.432-1.432.036-9.343-1.649-9.343-.422 0-.551.745-.551 3.176m-18.194 1.818c.873.657 2.489 1.506 3.591 1.887l2.003.693-1.914.013c-2.468.017-6.234-2.556-6.274-4.287-.007-.275-.192-.5-.412-.5-.22 0-.394-.225-.387-.5.007-.275.416-.05.909.5.493.55 1.611 1.537 2.484 2.194m-14.106-1.129c-.741.299-.606.935.2.938.385.001 1.121.621 1.636 1.378.515.756 1.325 1.636 1.8 1.954.993.667 2.65 2.146 5.859 5.228 3.745 3.597 4.778 3.141 2.083-.922-3.434-5.179-9.275-9.505-11.578-8.576m-98.413 4.535c-.004.77.137 1.85.313 2.4.448 1.399.448-.839 0-2.6l-.305-1.2-.008 1.4m147.113 2.233c.001.488 1.206 6.05 1.641 7.567.301 1.051.32 1.002.155-.4-.413-3.519-1.797-9.043-1.796-7.167m-146.385 1.863c-.023 1.089 1.98 5.805 2.712 6.384.549.433.536.327-.075-.629-.404-.631-1.159-2.341-1.678-3.8-.519-1.458-.951-2.338-.959-1.955m47.407.269c-.148.239-.635.435-1.083.435-.473 0-.9.33-1.02.787-.113.432-.501.889-.862 1.015-2.358.819-7.273 12.395-7.251 17.077.008 1.709.629 2.816 1.015 1.81.146-.379.515-.689.822-.689.367 0 .557-.465.557-1.364 0-.75.54-2.505 1.2-3.9.66-1.395 1.2-2.772 1.2-3.061 0-.941 2.008-4.797 3.729-7.162 2.067-2.842 2.842-4.502 2.335-5.009-.232-.232-.476-.209-.642.061m26.526 2.842c-1.018.172-2.664.672-3.658 1.112-.994.44-2.41.931-3.148 1.093-3.85.842-7.973 3.774-9.512 6.764-1.158 2.25-.74 2.233 1.695-.07 2.419-2.288 4.146-3.259 7.875-4.431 1.43-.449 4.13-1.367 6-2.04 2.124-.765 4.179-1.226 5.476-1.23 2.563-.006 3.006-.534.964-1.146-1.695-.508-2.928-.519-5.692-.052m-47.186.907c-.746.503-1.416 1.222-1.488 1.598-.092.477.232.321 1.066-.514 2.676-2.675 7.255-.589 4.951 2.255-1.655 2.044-3.697 2.254-5.294.544-.909-.973-1.083-1.047-.911-.388.74 2.827 5.723 2.466 6.953-.503 1.241-2.997-2.295-5.002-5.277-2.992m7.101.186c-.102.165-.017 1.92.188 3.9.205 1.98.323 4.14.261 4.8-.144 1.543.517 1.891 1.139.6 2.175-4.511 2.413-7.093.794-8.594-1.079-.999-2.029-1.281-2.382-.706m-30.224 3.532c1.063 1.579 7.561 6.545 7.561 5.78 0-.213-1.035-1.041-2.3-1.84-1.265-.799-3.092-2.2-4.061-3.113-.968-.912-1.508-1.284-1.2-.827m144.829.368c.006.44.156 1.25.332 1.8l.32 1 .012-1c.006-.55-.143-1.36-.332-1.8l-.344-.8.012.8m.976 4.6.527 4.8.332 3-.116-3c-.063-1.65-.3-3.81-.527-4.8l-.411-1.8.195 1.8m-250.777-.133c-.147.146-.256.641-.242 1.1.024.766.057.756.409-.125.392-.979.31-1.453-.167-.975M128.075 161c-.01.66.136 1.56.325 2l.344.8-.019-.8c-.011-.44-.157-1.34-.325-2l-.305-1.2-.02 1.2m.741 3.254c-.009.25.247 1.06.568 1.8.322.74.592 1.142.6.892.009-.25-.247-1.06-.568-1.8-.322-.74-.592-1.142-.6-.892M192 166.238c0 1.084 1.143 3.362 1.686 3.362.537 0 .344-1.077-.286-1.6-.33-.274-.6-1.016-.6-1.649s-.18-1.151-.4-1.151c-.22 0-.4.467-.4 1.038m-54.279.462c.635 3.164 4.129 6.707 5.381 5.455.305-.305.999-.555 1.542-.555.883 0 4.156-2.745 4.156-3.485 0-.138.288-.57.639-.958 1.327-1.467.124-1.537-2.541-.147-3.46 1.804-4.84 1.802-6.845-.01-1.902-1.718-2.636-1.812-2.332-.3M130 167.808c0 .578 2.555 7.771 2.706 7.619.198-.198-2.277-7.827-2.539-7.827-.092 0-.167.094-.167.208M266.865 170c-.096 2.645-.932 7.449-2.047 11.764-.926 3.583-1.048 4.828-.238 2.436 1.432-4.228 2.747-11.719 2.528-14.4l-.164-2-.079 2.2m-134.028 6.4c-.014.33.23 1.41.542 2.4.389 1.232.566 1.485.564.8-.004-1.096-1.067-4.171-1.106-3.2M184 179.76c0 .525 2.765 2.24 3.612 2.24.854 0 .31-.746-.995-1.365-.761-.361-1.491-.832-1.624-1.046-.358-.579-.993-.47-.993.171m-49.932 1.64c.006.44.156 1.25.332 1.8l.32 1 .012-1c.006-.55-.143-1.36-.332-1.8l-.344-.8.012.8m116.084 1.98c-.133.346-.064.853.153 1.125 1.877 2.355 1.418 11.524-.689 13.786-.449.482-.815 1.018-.815 1.192.005 1.032-3.482 3.305-5.077 3.311-.922.003-1.788.186-1.924.406-.324.524-2.044.512-3.041-.022-1.029-.551-2.359-.114-2.359.775 0 1.768 4.464 2.559 7.886 1.397 8.585-2.914 11.778-11.388 7.694-20.419-.872-1.928-1.484-2.447-1.828-1.551m-115.096 2.943c.257 2.418.864 4.787.892 3.477.009-.44-.238-1.88-.55-3.2l-.567-2.4.225 2.123M388.54 187.6c0 1.87.069 2.635.153 1.7.084-.935.084-2.465 0-3.4s-.153-.17-.153 1.7m-377.212.8c0 1.43.073 2.015.161 1.3.089-.715.089-1.885 0-2.6-.088-.715-.161-.13-.161 1.3m251.555-.11a398.092 398.092 0 0 0-1.916 5.51l-1.085 3.2 1.989 4.4c1.819 4.024 2.632 6.246 3.072 8.4.124.605.175.548.211-.237.056-1.266-1.097-4.697-2.787-8.287-.692-1.472-1.435-3.054-1.649-3.517-.41-.885-.386-.976 2.091-7.889.696-1.941 1.184-3.61 1.085-3.709-.099-.099-.554.859-1.011 2.129m-126.829 3.321c-.109 2.032-.682 2.477-9.654 7.491-10.262 5.734-23.655 19.265-23.594 23.836.004.254.679-.757 1.5-2.248 4.351-7.893 11.769-14.959 21.816-20.784 9.247-5.361 10.537-6.425 10.163-8.383-.169-.887-.178-.884-.231.088M335.32 194c0 1.21.075 1.705.167 1.1a8.899 8.899 0 0 0 0-2.2c-.092-.605-.167-.11-.167 1.1m-270.792 1.2c0 1.43.073 2.015.161 1.3.089-.715.089-1.885 0-2.6-.088-.715-.161-.13-.161 1.3m.012 8.8c0 1.87.069 2.635.153 1.7.084-.935.084-2.465 0-3.4s-.153-.17-.153 1.7m270.774 2.2c.003 1.1.081 1.503.173.895.092-.609.09-1.509-.005-2-.095-.492-.171.005-.168 1.105M11.34 212.4c0 1.87.069 2.635.153 1.7.084-.935.084-2.465 0-3.4s-.153-.17-.153 1.7m377.197.6c.002 1.76.072 2.43.156 1.489.085-.94.084-2.38-.002-3.2-.086-.819-.155-.049-.154 1.711m-214.655.631c-.345.533-.749 1.509-.898 2.169-.664 2.953-3.163 6.631-4.109 6.046-.211-.13-.591.011-.843.315-.833 1.004-3.643 1.13-6.129.274-2.323-.799-2.87-1.133-4.492-2.741-.941-.932-2.211-.868-2.211.112 0 .623 3.472 3.811 4.835 4.439 7.916 3.645 14.016.285 15.376-8.468.349-2.244-.602-3.579-1.529-2.146m85.432 4.169c.003 1.1.081 1.503.173.895.092-.609.09-1.509-.005-2-.095-.492-.171.005-.168 1.105m-13.56.841c-.144.572-.163 2.237-.042 3.7.33 4.01-.498 12.843-1.531 16.325-.185.626-.035.984.545 1.294.837.448 2.474-1.543 2.474-3.009 0-.332.209-.994.464-1.471 1.274-2.38 1.82-8.044.938-9.734-.328-.63-.598-1.788-.6-2.573-.005-3.412-1.681-6.79-2.248-4.532m19.452-.008c.003.642.19 1.437.415 1.767.293.43.333.146.141-1-.332-1.984-.564-2.304-.556-.767m.81 2.875c-.02.65 1.665 3.329 2.563 4.075 1.329 1.102 3.109 4.103 4.24 7.145 1.165 3.133 1.657 3.271.574.161-.979-2.809-2.581-5.589-4.379-7.597-.932-1.041-1.984-2.432-2.338-3.092-.354-.66-.651-.971-.66-.692m-164.77 4.931c-.245.704-.437 1.569-.427 1.921.011.352.293-.142.628-1.099.335-.956.527-1.82.427-1.92-.1-.1-.382.394-.628 1.098m-.957 3.561a8.054 8.054 0 0 0-.247 2c.026.861.084.814.416-.34.212-.736.323-1.636.248-2-.098-.466-.22-.367-.417.34m-1.019 5.687c-.651 2.587-.588 6.673.137 8.763.966 2.789 1.003 2.873 1.179 2.698.091-.092-.183-1.226-.61-2.52-.857-2.597-.999-6.008-.348-8.352.232-.838.353-1.733.267-1.99-.085-.256-.366.375-.625 1.401m54.447-.187c-.353.825-.727 2.49-.831 3.7-.109 1.264-.423 2.336-.738 2.52-.301.176-.548.817-.548 1.425 0 .608-.45 2.038-1 3.178-.55 1.14-1 2.187-1 2.327 0 .447-2.905 4.331-3.62 4.841-.379.27-.803.945-.942 1.5-.139.555-.43 1.009-.646 1.009-.6 0-.466 1.197.161 1.437.305.117 1.227-.068 2.049-.412 2.3-.961 3.351-.571 6.961 2.584.749.655 1.604 1.191 1.9 1.191.623 0 .737-1.829.137-2.2-.22-.136-.4-.58-.4-.987 0-.406-.9-1.548-2-2.537-2.378-2.138-2.339-1.88-.627-4.122.755-.989 1.496-2.374 1.646-3.076.15-.703.409-1.458.575-1.678 1.26-1.672 1.674-8.934.626-10.962-.814-1.573-.925-1.555-1.703.262m120.552 2.5c.138 1.21.38 3.01.538 4l.286 1.8.036-1.6c.02-.88-.222-2.68-.538-4l-.574-2.4.252 2.2m-259.041 3.076c-.015.482.152.988.372 1.124.473.292.473-.099 0-1.2-.331-.771-.345-.769-.372.076m259.972 3.188c0 .129 1.043 1.349 2.318 2.712 2.009 2.147 2.468 2.95 3.443 6.01.619 1.943 1.735 4.381 2.481 5.419 1.932 2.689 3.009 5.295 3.799 9.195.379 1.87.705 2.916.724 2.325.099-3.058-1.358-7.275-3.982-11.525-1.018-1.65-2.081-3.81-2.36-4.8-.994-3.518-1.849-5.029-4.122-7.285-1.265-1.257-2.301-2.18-2.301-2.051m-174.376 3.501c-.318 4.922 17.685 17.418 28.936 20.084 4.253 1.009 4.125.757 3.247 6.351-.147.934-.064.845.371-.4 1.31-3.74.757-5.491-1.883-5.967-11.017-1.985-24.577-10.83-30.171-19.679-.263-.415-.488-.59-.5-.389m173.885 5.735c.109.605.33 1.28.49 1.5.345.473.23 3.642-.175 4.835-.218.641.094 1.239 1.346 2.582.897.961 1.63 1.975 1.63 2.253s.36 1.147.8 1.93c.549.977.8 2.166.8 3.786 0 3.616.5 4.629 1.846 3.747 2.099-1.375.765-9.04-2.196-12.623-.858-1.039-1.753-2.698-2.038-3.781-.972-3.683-3.032-7.164-2.503-4.229m-197.23 5.6c.288.794 1.321 2.397 1.321 2.05 0-.348-1.237-2.75-1.417-2.75-.087 0-.044.315.096.7M288.093 274c-.009 1.21.23 3.1.531 4.2l.547 2-.231-1.8c-.127-.99-.366-2.88-.531-4.2l-.3-2.4-.016 2.2m-102.664.268c-.141.367-.039.802.226.966.363.224.321.543-.172 1.295-.946 1.444-.344 1.722 4.417 2.036 4.557.302 4.809.14 2.685-1.724-2.938-2.58-6.642-3.912-7.156-2.573m-53.785 3.787c-.464 1.375-.832 2.87-.817 3.323.015.452.455-.613.977-2.368 1.139-3.822 1.029-4.476-.16-.955m6.24-.919c-4.029 8.326-1.801 13.76 6.716 16.379 3.86 1.187 4.4 1.232 4.4.363 0-.63-2.515-2.275-5-3.269-4.434-1.774-5.911-4.199-5.231-8.585.836-5.386.433-7.611-.885-4.888m151.329 3.51c-.025.866 1.541 2.405 3.434 3.373 1.054.54 3.24 2.249 4.859 3.798 3.177 3.042 5.694 3.783 5.694 1.677 0-.767-.045-.777-.731-.156-1.22 1.104-2.048.773-4.72-1.885-1.407-1.401-3.637-3.121-4.954-3.823-1.317-.703-2.395-1.412-2.395-1.577 0-.498-1.174-1.888-1.187-1.407M130.514 284.2c.003 1.1.081 1.503.173.895.092-.609.09-1.509-.005-2-.095-.492-.171.005-.168 1.105m104.086.36c-1.1.275-2.799.892-3.775 1.37-1.449.71-2.479.869-5.6.866-3.951-.004-8.685 1.174-9.104 2.267-.102.265.579 1.169 1.513 2.009.933.84 1.893 1.713 2.132 1.939 4.314 4.079 8.564 6.957 10.308 6.98 1.254.017 12.553 4.903 15.328 6.628 1.1.685 3.35 2.714 5 4.51 2.959 3.221 3.598 3.719 3.598 2.804 0-.256-.098-.368-.218-.248s-1.245-.88-2.5-2.222c-1.255-1.341-2.912-3.045-3.682-3.785-2.155-2.071-14.586-7.707-19.124-8.671-1.206-.256-4.014-2.325-7.676-5.655-.77-.701-2.107-1.898-2.97-2.661l-1.571-1.387 1.371-.612c2.73-1.221 4.155-1.492 7.843-1.492 3.196 0 4.042-.146 5.699-.986 2.702-1.369 6.126-1.775 12.428-1.473l5.4.259.092 5.6c.051 3.08.243 6.5.427 7.6.212 1.264.27-.796.158-5.6-.097-4.18-.336-7.8-.53-8.045-.506-.637-12.001-.633-14.547.005m-103.783 3.04c-.043 4.597 4.869 8.502 16.569 13.175 4.188 1.673 8.79 3.7 10.228 4.505 3.587 2.007 15.859 10.959 17.777 12.967.445.466 2.969 2.713 5.609 4.994 2.64 2.281 5.25 4.567 5.8 5.079.55.513 2.395 2.118 4.1 3.569 1.792 1.524 3.1 2.947 3.1 3.374 0 .405.275.737.61.737.889 0-.228-2.058-1.608-2.962-.572-.375-2.982-2.427-5.357-4.56-18.345-16.482-27.022-22.874-36.045-26.552-1.43-.583-4.13-1.633-6-2.333-8.888-3.327-12.371-6.044-14.079-10.985-.482-1.392-.698-1.701-.704-1.008m157.361 4.835c-.147.239-.068.635.177.88.327.327.445.211.445-.435 0-.966-.208-1.115-.622-.445m10.422 3.951c-.766.283-.76.308.13.591 1.022.325 1.632.01 1.043-.538-.205-.192-.733-.215-1.173-.053m-.54 1.994c.088.264.29.467.45.45.478-.049.386-.598-.13-.77-.264-.088-.408.056-.32.32m-47.854 3.595c.112.756.677 2.376 1.255 3.6.577 1.224 1.372 3.305 1.766 4.625.394 1.32.729 2.027.745 1.571.035-1.026-1.104-4.464-1.874-5.657-.314-.487-.915-1.927-1.333-3.2-.488-1.482-.689-1.82-.559-.939m30.592.898c-.002 1.871.767 4.572 2.201 7.727 1.29 2.841 1.56 4.2.832 4.2-.321 0-.695-.18-.831-.4-1.032-1.67-4.555.118-5.826 2.958-.405.903-.959 1.642-1.233 1.642-.555 0-.931 5.281-.429 6.03 1.07 1.596 7.138 3.77 10.516 3.769 5.37-.004 6.097-1.528 3.816-7.999-1.852-5.255-2.172-6-2.58-6-.195 0-.465-.801-.599-1.781-.135-.979-.63-2.824-1.102-4.1a375.073 375.073 0 0 1-1.771-4.919c-1.203-3.421-2.991-4.093-2.994-1.127m24.096-.729c-1.253 1.239-.828 3.101 1.274 5.583 3.971 4.687 7.115 3.144 5.22-2.563-1.113-3.352-4.544-4.948-6.494-3.02m-13.294.032c0 .717.661 1.157 1.219.812.287-.177.272-.438-.049-.824-.604-.728-1.17-.722-1.17.012m4.259 1.614c-.124.324.398 1.538 1.161 2.696.763 1.159 1.488 2.423 1.611 2.81.122.387.391.704.596.704.767 0 .36 1.816-.494 2.205-1.064.485-1.321.994-1.915 3.795-.257 1.21-.764 3.502-1.129 5.093-.814 3.559-.571 3.929 2.532 3.855 2.602-.062 4.541-1.321 5.783-3.755 1.141-2.238 1.139-7.474-.004-8.701-.44-.472-.8-1.131-.8-1.464 0-3.525-6.359-9.795-7.341-7.238M266.2 315.543c-8.209 2.697-6.613 13.263 2 13.242 4.246-.01 5.005-8.354 1.113-12.245-1.36-1.361-1.688-1.466-3.113-.997m-48.9 2.322c-.537.217-.697 1.981-.2 2.202.537.238 2.404 3.296 2.921 4.783.666 1.917.319 2.65-1.404 2.973-.784.147-1.524.427-1.645.622s-.527.355-.903.355-1.346.45-2.155 1c-.809.55-1.661 1-1.892 1-.231 0-1.284.62-2.339 1.379-1.056.758-2.406 1.564-3.001 1.79-2.515.956-.771 2.572 3.434 3.18 6.143.889 13.329.239 15.102-1.365 1.608-1.456.759-7.885-1.226-9.275-.436-.305-.792-.947-.792-1.426 0-1.241-1.978-5.083-3.286-6.383-1.083-1.076-1.604-1.243-2.614-.835m23.5 5.172c0 .57.35 1.482.778 2.025.75.954.731 2.138-.035 2.138-.204 0-.852.315-1.439.7-2.466 1.616-6.596 2.28-7.037 1.131-.316-.824-1.748-.324-2.025.706-1.694 6.317 6.264 9.466 12.758 5.047 5.398-3.673 5.69-5.806 1.407-10.284-2.697-2.82-4.407-3.387-4.407-1.463m12.142 1.17c-.128.334-.04 1.377.197 2.316.237.94.358 2.062.27 2.493-.415 2.042-.51 3.697-.237 4.139.814 1.317 4.028-1.969 4.028-4.119 0-2.836-3.5-6.805-4.258-4.829m-104.651 75.682c.71.088 1.97.09 2.8.003.83-.087.249-.159-1.291-.161-1.54-.002-2.219.069-1.509.158m99.809.002c.825.087 2.175.087 3 0 .825-.086.15-.157-1.5-.157s-2.325.071-1.5.157" fill="#8c8b9b"/></g></svg>