<svg xmlns="http://www.w3.org/2000/svg" width="32" height="32" viewBox="0 0 400 400"><g fill-rule="evenodd"><path d="M117.4 70.389c-1.54.16-3.34.477-4 .706-10.37 3.594-16.74 8.883-21.084 17.505-4.105 8.148-3.995 6.12-3.841 71l.13 54.6.917 3.2c1.577 5.505 2.351 7.337 4.344 10.294 1.836 2.723 7.248 8.457 8.534 9.041.33.15 1.892 1.126 3.47 2.169 1.579 1.043 3.118 1.896 3.42 1.896.303 0 .721.156.93.348.209.191 2.09.652 4.18 1.024s4.555.845 5.477 1.052c.923.207 4.362.376 7.642.376h5.965l.255-2.7c.141-1.485.257-12.798.258-25.14.002-12.342.161-22.962.353-23.6.193-.638.574-2.15.847-3.36s.767-2.83 1.098-3.6c1.255-2.92 2.646-5.6 2.906-5.6.149 0 .461-.417.693-.928.42-.921 2.695-3.767 4.859-6.078 3.603-3.848 10.137-7.446 16.4-9.03 2.957-.747 4.616-.769 48.055-.627 46.262.152 48.415.225 52.992 1.812 1.32.457 2.699.836 3.064.841.926.014 7.8 2.262 9.736 3.184 3.957 1.885 5.373 2.215 5.975 1.393 1.172-1.604 1.295-21.106.169-26.967-1.157-6.025-2.126-9.86-2.996-11.86-.301-.694-.548-1.551-.548-1.906s-.158-.957-.351-1.339c-.193-.382-.577-1.415-.853-2.295-.657-2.093-5.902-12.895-6.416-13.212-.219-.136-.928-1.296-1.575-2.578-1.943-3.85-8.444-11.45-15.263-17.844-10.151-9.52-25.695-17.414-40.142-20.389-1.76-.362-3.74-.855-4.4-1.095-1.385-.504-86.527-.777-91.2-.293M281.621 175.9c-.229.825-.418 1.733-.419 2.018-.002.535-1.799 6.464-2.389 7.882-1.89 4.547-3.176 7.774-3.427 8.6-.166.55-.747 1.703-1.289 2.563a75.873 75.873 0 0 0-1.99 3.4 346.2 346.2 0 0 1-1.456 2.637c-.656 1.16-4.717 7.164-5.006 7.4-.135.11-1.23 1.37-2.435 2.8-5.286 6.276-10.491 11.016-17.41 15.854-5.454 3.814-5.274 3.711-14.6 8.346-3.578 1.779-11.618 4.382-18 5.828-5.953 1.35-10.861 1.519-44.82 1.546-24.187.02-31.935.141-32.3.506-.744.744-.666 58.814.086 63.72 1.176 7.678 5.004 15.022 10.226 19.622.986.868 2.144 1.892 2.573 2.276.429.383 1.423 1.034 2.208 1.446.785.411 2.466 1.312 3.736 2.002 1.27.69 2.593 1.254 2.94 1.254.346 0 1.197.251 1.891.558.693.307 2.555.757 4.137 1 3.872.595 83.794.621 88.323.029 5.418-.708 10.76-1.625 11.6-1.992.44-.192 2.51-.886 4.6-1.542 4.655-1.461 8.816-2.947 9.544-3.409.299-.19 2.394-1.286 4.656-2.435 4.417-2.244 11.764-7.004 14.45-9.361.908-.796 2.691-2.348 3.963-3.448 1.272-1.1 2.87-2.608 3.55-3.352.68-.744 1.757-1.914 2.392-2.6 1.023-1.106 3.535-4.142 4.34-5.244.162-.222.921-1.214 1.686-2.204.765-.99 1.875-2.61 2.468-3.6.592-.99 1.768-2.921 2.614-4.29.845-1.37 1.537-2.692 1.537-2.939 0-.247.702-1.917 1.561-3.71.858-1.794 1.861-3.981 2.227-4.861l1.039-2.5.746-1.8c.934-2.251 2.923-12.4 4.069-20.762.805-5.871-.437-19.474-2.459-26.938-.238-.88-.613-2.41-.832-3.4-.219-.99-.554-2.16-.746-2.6-.191-.44-.727-1.859-1.191-3.154-.464-1.294-1.22-3.184-1.682-4.2-2.69-5.922-3.691-7.931-4.31-8.646-.38-.44-1.285-1.876-2.012-3.192-.726-1.316-2.061-3.368-2.965-4.561-.905-1.194-2.238-2.961-2.963-3.928-2.749-3.666-10.768-11.257-15.682-14.844a669.765 669.765 0 0 1-6.06-4.459c-.583-.446-1.393-.932-1.8-1.081-.407-.149-1.169-.601-1.694-1.003-1.61-1.235-2.744-.965-3.225.768" fill="#05bfd2"/><path d="M0 200v200h400V0H0v200M203.2 68.647c2.31.339 5.55.708 7.2.82 1.65.111 3.198.366 3.44.567.242.2 1.278.449 2.303.553 1.025.103 2.21.374 2.634.601.424.226 1.312.412 1.973.412.662 0 1.306.166 1.431.369.126.204 1.171.676 2.324 1.05 1.152.373 2.266.837 2.475 1.03.209.193.781.351 1.271.351.491 0 1.162.27 1.492.6.33.33.9.6 1.267.6.728 0 3.109 1.218 3.323 1.7.074.165.414.3.757.3s1.764.72 3.157 1.6c1.393.88 2.737 1.6 2.985 1.6.249 0 .987.45 1.641 1s1.425 1 1.715 1c.289 0 .627.262.749.581.123.32.997 1.079 1.943 1.687 1.98 1.273 5.821 4.291 8.057 6.33.845.771 1.709 1.402 1.919 1.402.504 0 2.34 1.993 2.357 2.558.031 1.018 1.56 2.305 2.415 2.033.724-.23.812-.147.588.559-.197.621.218 1.416 1.66 3.178 1.058 1.292 2.194 2.768 2.524 3.28.33.512 1.181 1.592 1.892 2.4.71.809 1.916 2.713 2.679 4.231.763 1.519 1.756 3.301 2.206 3.961.45.66.819 1.515.82 1.9.002.385.15.7.329.7.485 0 1.828 2.892 1.718 3.7-.064.475.176.7.749.7.747 0 .813.16.581 1.4-.155.822-.102 1.4.127 1.4.214 0 .707 1.035 1.096 2.3.388 1.265.863 2.471 1.054 2.68.192.209.349.938.349 1.62 0 .682.164 1.411.365 1.62.433.451 1.174 4.398 1.611 8.58.173 1.65.551 3.72.84 4.6.467 1.42.647 14.921.276 20.6-.075 1.138.039 1.378.608 1.282.385-.064.7.071.7.3 0 .23-.259.418-.576.418-.844 0-1.166.747-.609 1.418.398.479.328.582-.395.582-1.002 0-1.015 1.099-.02 1.642.33.18 2.083 1.234 3.896 2.343 1.812 1.108 3.404 2.015 3.537 2.015.336 0 6.492 4.521 8.011 5.884a100.66 100.66 0 0 0 2.452 2.116 57.987 57.987 0 0 1 6.704 6.574c1.1 1.277 2.496 2.885 3.102 3.574.606.688 1.203 1.567 1.327 1.952.124.385.368.7.542.7.314 0 2.227 2.751 5.52 7.937 1.818 2.863 4.109 7.344 4.109 8.038 0 .234.135.426.3.426.348.002.858 1.306 3.973 10.151.765 2.173 1.544 4.783 1.73 5.8.186 1.016.638 3.018 1.005 4.448 1.533 5.979 1.11 31.693-.59 35.8-.182.44-.606 1.97-.942 3.4-.665 2.832-1.093 4.149-2.532 7.8-.521 1.32-.946 2.608-.945 2.863 0 .254-.533 1.604-1.187 3-1.173 2.507-1.507 3.119-4.622 8.466l-1.99 3.416c-.729 1.252-3.581 5.053-3.893 5.188-.169.074-.307.319-.307.546 0 .937-7.825 9.246-12.683 13.469-1.779 1.545-1.835 1.652-.876 1.652 1.328 0 1.625.329 1.131 1.253-.485.906-2.772 1.055-2.772.18 0-.311.225-.657.5-.768.328-.132.283-.213-.13-.233-.347-.018-1.053.418-1.57.968-.517.55-1.052 1-1.19 1-.138 0-1.96 1.125-4.049 2.5-2.089 1.375-5.23 3.204-6.98 4.064-1.749.86-3.451 1.716-3.781 1.901-.33.185-1.006.512-1.501.727-1.979.855-4.706 2.109-4.831 2.221-.073.065.058.475.291.911.534.997-.262 1.843-1.172 1.246-.506-.332-.491-.459.107-.917.381-.293.585-.641.453-.773-.29-.289-2.583.106-3.147.542-.22.17-1.75.613-3.4.984s-3.63.904-4.4 1.184c-2.244.815-5.09 1.41-6.751 1.41-.847 0-2.509.188-3.694.417-6.587 1.275-90.585.468-92.135-.885-.209-.183-.715-.332-1.124-.332-1.076 0-7.42-3.095-9.296-4.535-.88-.676-2.845-2.317-4.367-3.647-1.685-1.473-2.831-2.223-2.933-1.918-.233.7-.9.626-.9-.1 0-.33.174-.6.387-.6.537 0 .063-1.201-.946-2.4-.462-.55-1.037-1.36-1.277-1.8l-1.421-2.6c-1.467-2.682-2.683-6.374-3.53-10.72-.262-1.344-.413-13.294-.413-32.667 0-34.115.162-31.813-2.243-31.813-1.991 0-2.734 1.82-.934 2.29.508.133.738.434.602.788-.12.315.049 1.092.378 1.727.994 1.923.573 6.833-.475 5.534-1.407-1.745-2.554-4.774-2.61-6.89-.077-2.926-.042-2.907-5.918-3.201-6.927-.346-10-.683-10-1.096 0-.194-.315-.353-.7-.354-.385-.002-1.216-.272-1.846-.6-.63-.329-1.553-.598-2.051-.598-.498 0-1.129-.27-1.403-.6-.274-.33-.66-.6-.858-.6-.367 0-3.58-1.991-3.942-2.442-.11-.138-.6-.375-1.09-.528-.489-.153-1.474-.897-2.188-1.654-1.423-1.509-1.922-1.704-1.922-.752 0 .347-.193.504-.435.354-.313-.193-.313-.39 0-.703.719-.719.5-1.227-.962-2.223-.765-.521-1.295-1.104-1.176-1.295.118-.191-.083-.234-.447-.094-.498.191-.62.067-.493-.505.096-.433-.402-1.554-1.16-2.613-.731-1.02-1.441-2.415-1.578-3.1s-.407-1.245-.599-1.245-.35-.272-.35-.605c0-.333-.158-.918-.351-1.3-1.05-2.076-1.649-3.852-1.649-4.885 0-.64-.18-1.274-.4-1.41-.59-.365-.547-116.757.044-119.294.886-3.802 1.638-6.106 1.993-6.106.2 0 .363-.428.363-.951 0-.523.27-1.175.6-1.449.33-.274.6-.749.6-1.057 0-.307.45-1.272 1-2.143.55-.871 1-1.691 1-1.821 0-.622 7.992-8.579 8.618-8.579.131 0 .49-.225.797-.5 1.246-1.118 1.765-1.5 2.037-1.5.157 0 .582-.269.944-.597 1.306-1.181 5.668-2.446 12.404-3.595 4.85-.828 79.932-.794 85.6.039M90.106 82.239c.32.321-.099 1.361-.549 1.361-.196 0-.357-.36-.357-.8 0-.78.424-1.042.906-.561M87.6 86.805c0 .476-.769 1.906-1.546 2.877-.465.582-.628.601-1.1.129-.733-.733-.708-1.811.043-1.811.328 0 .821-.36 1.096-.8.522-.836 1.507-1.094 1.507-.395M270.8 101c0 .33-.18.6-.4.6-.22 0-.4-.27-.4-.6 0-.33.18-.6.4-.6.22 0 .4.27.4.6m-108 64.025c-.77.291-1.715.54-2.1.552-.385.013-.7.282-.7.598 0 .433-.344.519-1.4.348-.909-.148-1.4-.069-1.4.225 0 .248.18.452.4.452.22 0 .4.186.4.414 0 .265-.252.284-.7.054-.385-.198-.97-.281-1.3-.185-.845.247-2.49.946-3.2 1.359-.33.192-1.23.693-2 1.112-.77.42-1.969 1.367-2.666 2.104-.696.738-2.271 2.307-3.5 3.487-1.228 1.18-2.234 2.326-2.234 2.547 0 .222-.559 1.039-1.243 1.818-.683.778-1.421 1.927-1.639 2.552-.218.626-.559 1.138-.757 1.138-.199 0-.361.418-.361.929 0 .889-.88 3.987-1.611 5.671-1.018 2.345-1.656 49.929-.694 51.764.707 1.349-.171 1.309 32.501 1.487 30.15.165 29.318.193 42.004-1.44 4.293-.553 8.65-1.651 12-3.024a42.58 42.58 0 0 1 2.8-.995c1.738-.545 4.535-1.701 6.332-2.616.623-.317 1.295-.576 1.493-.576.199 0 1.537-.72 2.975-1.6 1.438-.88 2.716-1.6 2.84-1.6 1.075 0 11.562-7.91 16.36-12.34 4.175-3.855 9.756-10.637 9.206-11.188-.137-.137-.395-.013-.573.275-.636 1.029-2.241.371-2.153-.882.143-2.023 2.819-3.428 2.981-1.565.121 1.39.16 1.501.547 1.544.391.044 4.192-5.592 4.192-6.216 0-.182.251-.538.557-.792.509-.422 4.643-8.463 4.643-9.03 0-.133.63-1.589 1.4-3.233.77-1.645 1.4-3.233 1.4-3.53 0-.296.372-1.687.828-3.091 2-6.168 2.172-9.152.529-9.152-.526 0-.957-.147-.957-.326 0-.518-2.726-1.677-3.367-1.431-.32.122-1.743-.332-3.164-1.01-1.421-.678-2.828-1.233-3.126-1.233-.664-.001-4.196-1.32-4.591-1.715-.157-.157-.978-.285-1.824-.285-.846 0-1.851-.166-2.233-.369-3.105-1.65-92.733-2.581-96.895-1.006m12.4 2.575c0 .22-.27.4-.6.4-.33 0-.6-.18-.6-.4 0-.22.27-.4.6-.4.33 0 .6.18.6.4m98 3.776c0 .317-.144.666-.319.774-.512.316-1.41-.417-1.109-.905.397-.642 1.428-.547 1.428.131m3.381 1.088c.561.256 1.021.751 1.024 1.1.003.35.119 1.057.256 1.571.235.877.152.928-1.305.815-1.778-.138-2.218-.565-1.897-1.843.159-.633.015-.981-.487-1.173-.669-.257-.665-.293.057-.576 1.078-.422 1.206-.416 2.352.106m25.384 4.236c.676.385 1.231.835 1.232 1 .005.519-1.114.326-1.74-.3-.33-.33-.893-.6-1.252-.6s-.541-.18-.405-.4c.346-.56.753-.504 2.165.3M297.2 179c0 .33-.158.6-.351.6-.193 0-.575-.27-.849-.6-.416-.501-.358-.6.351-.6.488 0 .849.255.849.6m-20.2 3.185c0 1.96-.139 2.41-.9 2.915l-.9.598v-2.569c0-2.489.492-3.698 1.385-3.401.228.076.415 1.182.415 2.457m21.4-1.785c.485.314.428.389-.3.394-.495.003-.9-.174-.9-.394 0-.501.424-.501 1.2 0m8.458 4.1c.677.4.883.4 1.028 0 .332-.917 2.641-.629 2.398.3-.136.52-.012.8.353.8.31 0 .577-.315.595-.7.019-.441.18-.293.433.4.9 2.466-.84 4.23-2.465 2.5-.517-.55-1.1-1-1.296-1-.65 0-3.1-2.082-2.876-2.445.301-.487.83-.445 1.83.145m5.142 8.447c0 .892-.439 1.013-1.165.32-.931-.89-.634-1.802.405-1.246.418.224.76.641.76.926m-45.852-.204c.585.646.597.805.089 1.226-.662.549-2.472-.865-2.028-1.584.375-.606 1.206-.453 1.939.358m-1.748 3.024c0 1.176-.517 1.833-1.443 1.833-1.106 0-1.261-.838-.328-1.771.782-.783 1.771-.817 1.771-.062m6.235.931c-.43.43-.658-.172-.356-.941.283-.721.304-.722.445-.026.08.403.041.838-.089.967m45.537 1.657c.121.195-.049.577-.376.849-.496.411-.596.351-.596-.355 0-.858.568-1.147.972-.494m-48.052 2.605c.421 1.263-.1 2.087-1.081 1.71-.872-.334-1.294-2.263-.593-2.706.813-.515 1.259-.25 1.674.996m-1.428 2.116c.078.234-.136.532-.475.662-.432.166-.617-.009-.617-.584 0-.823.824-.882 1.092-.078m64.432 6.028c.159 1.077-1.436 2.079-1.969 1.237-.482-.761-.443-.996.291-1.73.811-.811 1.516-.603 1.678.493m-70.178 1.5c.115.299-.321 1.21-.969 2.025-.647.814-1.177 1.627-1.177 1.805 0 .482-1.828 2.366-2.295 2.366-.511 0-.992-2.907-.635-3.838.675-1.76 2.979-2.865 3.465-1.662.111.275.216.011.233-.587.033-1.137.956-1.209 1.378-.109m-7.446 4.991c1.137.012-.468 2.359-2 2.922-.774.285-.918.901-.3 1.283.829.512.34.802-1.434.849-1.698.046-1.812-.013-1.554-.8.153-.467.367-1.524.475-2.348.209-1.594 1.679-2.463 3.513-2.079.44.092 1.025.17 1.3.173m74.647 5.505c.132.385.41 1.086.618 1.559.322.73.234.886-.593 1.044-.909.174-.972.073-.972-1.558 0-1.767.507-2.327.947-1.045m-86.187 7.4c-1.162 1.111-1.379 1.195-1.491.578-.185-1.022.654-1.878 1.84-1.878 1.011 0 1.011.001-.349 1.3m-9.578 4.274c1.143.735-.279 2.511-1.758 2.194-1.447-.309-1.257-.139-1.556-1.39-.266-1.113 1.984-1.659 3.314-.804M226 236.413c0 .226-.27.516-.6.642-.801.308-1.915-.146-1.602-.652.328-.53 2.202-.522 2.202.01m-127.953 2.829c-.807.866-.847.872-.847.113 0-1.011.833-1.882 1.327-1.388.222.222.033.724-.48 1.275m233.079 31.868c-.069.6-.306 1.051-.526 1.002-.493-.107-.752-1.94-.403-2.846.384-.997 1.094.412.929 1.844m-2.726 18.489c0 .161-.36.751-.8 1.31-.44.56-.8 1.214-.8 1.454s-.158.437-.351.437c-.765 0-1.152-1.105-1.143-3.268l.008-2.268 1.543 1.021c.849.562 1.543 1.153 1.543 1.314m-3.43 4.534c-.14.367-.416.667-.613.667-.418 0-.483-1.341-.084-1.74.45-.45.973.355.697 1.073m-6.17 5.667c0 .33-.18.6-.4.6-.22 0-.4-.27-.4-.6 0-.33.18-.6.4-.6.22 0 .4.27.4.6m-1.12 2.28c-.373.373-.48.267-.48-.48s.107-.853.48-.48.373.587 0 .96m-.88 1.344c0 .588-.854.789-1.33.313-.362-.362.535-1.381.975-1.109.195.121.355.479.355.796m-187.13 8.613c-.259.414-.47 1.025-.47 1.358 0 .333-.27.605-.6.605-.877 0-.803-3.184.1-4.311l.7-.873.37 1.234c.253.846.222 1.471-.1 1.987m181.902-1.867c.93.99.84 1.83-.196 1.83-.317 0-.576-.292-.576-.649 0-.523-.113-.555-.582-.166-.62.515-1.418.253-1.418-.465 0-.415 1.153-1.481 1.63-1.507.127-.007.641.424 1.142.957m5.228 4.216c0 1.214-.942 2.07-1.9 1.727-1.095-.393-.06-2.913 1.196-2.913.514 0 .704.321.704 1.186m-181.536 3.442c.589 1.639.593 1.852.039 2.065-1.14.437-2.377-2.686-1.436-3.626.512-.513.744-.254 1.397 1.561m169.635-.565c-.143.547-.071.767.196.602.543-.336.928.651.514 1.32-.174.282-.562.426-.863.321-.3-.105-.932-.049-1.405.126-1.488.549-2.537-.532-1.561-1.61 1.643-1.816 3.515-2.271 3.119-.759m7.763 1.354c.13.34.129.725-.003.857-.346.346-1.492-.697-1.231-1.119.341-.553.973-.418 1.234.262m-8.735 6.286c.108.944-.017 1.097-.9 1.097-1.04 0-1.264-.516-.777-1.787.39-1.014 1.534-.543 1.677.69m-8.942-.528c.127.207-.085.553-.473.77-.388.217-.562.538-.387.713.175.176.478.061.673-.254.288-.466.541-.371 1.359.512.662.714 1.414 1.084 2.204 1.084 1.315 0 2.051.87 1.74 2.057-.397 1.517-2.471.959-3.231-.87-.525-1.263-.839-1.571-1.449-1.417-.429.108-.969.041-1.2-.148-.232-.19-.871-.408-1.421-.484-.55-.076-1-.369-1-.651 0-.952 2.716-2.07 3.185-1.312M137.174 326.4c.175 0 1.251.759 2.39 1.686 2.465 2.004 2.637 3.253.568 4.118-1.894.792-2.542.119-2.818-2.921-.156-1.718-.393-2.483-.77-2.483-.613 0-.68-.397-.248-1.467.266-.657.31-.64.428.167.072.495.275.9.45.9m152.142 1.6c.115.44.164.8.109.8-.056 0-.427-.36-.825-.8-.609-.673-.626-.8-.109-.8.339 0 .71.36.825.8m-5.516 3.6c-.136.22-.507.4-.824.4-.317 0-.576-.18-.576-.4 0-.22.371-.4.824-.4.453 0 .712.18.576.4m12.076 3.02c.085.26-.399.358-1.269.257-.774-.091-1.407-.336-1.407-.546 0-.514 2.502-.243 2.676.289m-34.906 6.931c.119.194-.301.455-.935.582-.79.158-1.134.456-1.094.949.078.956-1.442 1.16-2.295.307-.764-.764-.515-1.389.554-1.389.414 0 .864-.18 1-.4.305-.493 2.472-.531 2.77-.049" fill="#fbfbfb"/><path d="M117.159 68.818c-14.761 1.619-27.957 14.852-29.917 30.003-.598 4.628-.622 112.41-.025 115.806.522 2.969 1.465 6.29 2.378 8.373.385.88.837 2.05 1.004 2.6.838 2.762 6.253 9.084 10.401 12.142 7.603 5.606 13.264 7.144 25.731 6.991 5.3-.065 6.599.028 6.894.493.209.331.365 13.559.369 31.174.006 26.088.098 31.039.627 33.575.631 3.023 1.922 7.336 2.522 8.425 2.313 4.201 3.067 5.467 3.529 5.929.301.301.794 1.025 1.097 1.609 1.558 3.01 10.457 9.449 15.231 11.021 1.1.363 2.36.819 2.8 1.015 2.445 1.086 7.889 1.226 47.677 1.23 42.438.004 45.965-.108 52.323-1.652 1.76-.427 3.92-.941 4.8-1.141 3.163-.719 10.455-3.245 13.2-4.572a235.22 235.22 0 0 1 4.4-2.076c9.701-4.38 24.899-16.832 30.168-24.717 1.856-2.777 2.245-3.32 2.961-4.131.43-.487.982-1.239 1.227-1.671a482.07 482.07 0 0 1 2.037-3.515c4.319-7.402 4.973-8.87 8.041-18.069 3.662-10.978 5.124-31.498 2.953-41.46-.479-2.2-1.033-4.934-1.231-6.076-.307-1.775-1.372-5.151-3.569-11.324-1.81-5.087-8.882-17.714-11.843-21.145-.557-.647-3.643-4.41-5.914-7.212-.643-.793-2.263-2.384-3.6-3.535-1.336-1.15-2.882-2.5-3.435-3-2.07-1.87-8.992-6.915-10.76-7.843-1.009-.529-2.112-1.204-2.45-1.498-.338-.295-1.483-.921-2.544-1.39l-1.929-.854.238-2.461c.131-1.354.409-3.812.619-5.462.494-3.886.501-12.6.013-16.3-.21-1.595-.539-4.115-.73-5.6-.192-1.485-.54-3.42-.774-4.3-.235-.88-.733-3.04-1.108-4.8-.375-1.76-1.017-3.909-1.426-4.775-.409-.866-.744-1.736-.744-1.932 0-1.011-2.279-6.114-5.937-13.293-.994-1.95-3.344-5.522-4.339-6.595-.508-.548-.924-1.209-.924-1.468 0-.258-.135-.53-.3-.604-.165-.073-1.109-1.196-2.097-2.496-5.813-7.643-12.3-13.541-22.374-20.342-2.994-2.022-10.728-5.921-14.429-7.275-1.65-.604-3.63-1.381-4.4-1.727-1.552-.699-5.029-1.533-12-2.879-1.21-.234-3.19-.638-4.4-.899-2.626-.564-85.117-.837-90.041-.297m81.841.42c9.594.744 12.413 1.185 19.378 3.026 5.678 1.501 14.427 4.987 18.422 7.339l3.6 2.119c19.936 11.734 35.265 32.744 40.186 55.078.364 1.65.755 3.36.87 3.8.245.941.668 4.448 1.386 11.505.429 4.216.426 5.852-.013 9.4a294.822 294.822 0 0 0-.783 6.978c-.344 3.67-.681 3.92-3.542 2.626-3.34-1.51-4.923-2.159-6.504-2.666l-3.952-1.268c-1.404-.45-3.294-.983-4.2-1.184-.906-.2-2.908-.651-4.448-1-6.098-1.385-8.896-1.478-49.552-1.65-49.071-.208-47.002-.36-56.568 4.139-7.696 3.619-14.83 12.479-17.352 21.55-.859 3.09-.885 3.826-1.023 29.07l-.143 25.9h-8.427c-22.786 0-37.021-11.873-38.364-32-.492-7.382-.458-106.477.039-111.718 1.621-17.096 14.311-29.266 32.39-31.063 4.628-.46 72.636-.444 78.6.019m57.208 95.699c1.765.337 3.712.804 4.326 1.038.615.234 1.61.425 2.212.425.602 0 1.265.148 1.474.329.209.181 1.46.653 2.78 1.048 1.32.395 3.57 1.119 5 1.61 1.43.49 3.299 1.119 4.154 1.398 4.545 1.48 4.69 1.892 2.963 8.415a197.99 197.99 0 0 0-1.203 4.771c-.225.974-.838 2.539-1.362 3.477-.523.938-.952 1.897-.952 2.131 0 1.619-8.433 16.588-10.741 19.066-.4.429-1.287 1.553-1.972 2.498-4.3 5.937-15.644 15.802-23.087 20.078-1.32.759-2.76 1.598-3.2 1.866-1.696 1.031-5.756 2.913-6.285 2.913-.305 0-.726.148-.935.328-.209.181-1.64.825-3.18 1.432-1.54.607-3.113 1.269-3.495 1.472-.382.202-1.012.369-1.4.37-.388.002-1.221.272-1.851.6-.63.329-1.563.598-2.074.598-.51 0-1.388.175-1.949.388-.562.214-2.239.498-3.727.631-1.487.133-3.064.389-3.504.568-2.66 1.083-63.158 1.837-70.4.878l-2-.265-.123-23c-.132-24.744.039-27.872 1.817-33.167.934-2.781 2.677-6.383 3.307-6.833.154-.11.739-.933 1.3-1.83.915-1.462 1.857-2.455 5.958-6.28 3.891-3.631 11.686-6.966 17.541-7.506 6.751-.623 87.019-.132 90.608.553m32.168 11.588c7.796 4.84 15.8 11.709 20.826 17.875 3.357 4.117 5.345 6.758 6.101 8.1.464.825.991 1.5 1.171 1.5.179 0 .326.172.326.382 0 .211.569 1.336 1.264 2.5 3.993 6.688 8.066 16.779 9.491 23.518 3.155 14.919 3.255 24.338.414 39-.81 4.183-1.715 7.569-2.563 9.6-.276.66-1.011 2.55-1.633 4.2-1.772 4.696-8.122 16.653-9.347 17.6-.142.11-1.539 1.91-3.103 4-10.481 14.005-26.622 24.899-44.723 30.185-1.98.578-4.14 1.211-4.8 1.407-5.864 1.739-7.932 1.808-54 1.808-46.658 0-46.411.009-50.198-1.804-10.817-5.179-16.455-10.594-20.014-19.226-2.605-6.317-2.541-5.333-2.689-40.87l-.134-32.3h34.551c20.155 0 35.453-.159 36.717-.382 1.192-.21 3.967-.678 6.167-1.04 12.022-1.977 27.613-9.076 37.035-16.862 6.334-5.234 8.017-6.754 10.185-9.193 3.689-4.152 7.489-8.921 8.702-10.923.6-.99 1.313-2.153 1.584-2.585 5.073-8.065 9.123-17.728 10.903-26.015.378-1.76.75-3.425.827-3.7.186-.67 2.084.212 6.94 3.225" fill="#95e6ed"/><path d="M120.4 69.219c-18.079 1.797-30.769 13.967-32.39 31.063-.497 5.241-.531 104.336-.039 111.718 1.343 20.127 15.578 32 38.366 32h8.428l.134 32.3c.148 35.537.084 34.553 2.689 40.87 3.559 8.632 9.197 14.047 20.014 19.226 3.787 1.813 3.54 1.804 50.198 1.804 46.068 0 48.136-.069 54-1.808.66-.196 2.82-.829 4.8-1.407 18.101-5.286 34.242-16.18 44.723-30.185 1.564-2.09 2.961-3.89 3.103-4 1.225-.947 7.575-12.904 9.347-17.6.622-1.65 1.357-3.54 1.633-4.2 1.342-3.213 2.802-9.842 3.966-18.006 1.679-11.776-.198-28.391-4.449-39.394-2.502-6.476-4.508-10.781-6.859-14.718-.695-1.164-1.264-2.289-1.264-2.5 0-.21-.147-.382-.326-.382-.18 0-.707-.675-1.171-1.5-.756-1.342-2.744-3.983-6.101-8.1-6.994-8.58-27.016-23.795-27.766-21.1-.077.275-.449 1.94-.827 3.7-1.78 8.287-5.83 17.95-10.903 26.015-.271.432-.984 1.595-1.584 2.585-1.213 2.002-5.013 6.771-8.702 10.923-2.168 2.439-3.851 3.959-10.185 9.193-9.422 7.786-25.013 14.885-37.035 16.862-2.2.362-4.975.83-6.167 1.04-1.264.223-16.562.382-36.719.382h-34.552l.143-25.9c.138-25.244.164-25.98 1.023-29.07 2.522-9.071 9.656-17.931 17.352-21.55 9.566-4.499 7.497-4.347 56.568-4.139 40.656.172 43.454.265 49.552 1.65 1.54.349 3.542.8 4.448 1 .906.201 2.796.734 4.2 1.184l3.952 1.268c1.581.507 3.164 1.156 6.504 2.666 2.861 1.294 3.198 1.044 3.542-2.626.138-1.476.49-4.616.783-6.978.439-3.548.442-5.184.013-9.4-.718-7.057-1.141-10.564-1.386-11.505-.115-.44-.506-2.15-.87-3.8-4.921-22.334-20.25-43.344-40.186-55.078l-3.6-2.119c-3.995-2.352-12.744-5.838-18.422-7.339-12-3.173-16.703-3.439-59.778-3.386-19.36.023-36.55.177-38.2.341m88.2 1.463c.66.24 2.64.733 4.4 1.095 14.447 2.975 29.991 10.869 40.142 20.389 6.819 6.394 13.32 13.994 15.263 17.844.647 1.282 1.356 2.442 1.575 2.578.514.317 5.759 11.119 6.416 13.212.276.88.66 1.913.853 2.295.193.382.351.984.351 1.339s.247 1.212.548 1.906c.87 2 1.839 5.835 2.996 11.86 1.126 5.861 1.003 25.363-.169 26.967-.602.822-2.018.492-5.975-1.393-1.936-.922-8.81-3.17-9.736-3.184-.365-.005-1.744-.384-3.064-.841-4.577-1.587-6.73-1.66-52.992-1.812-43.439-.142-45.098-.12-48.055.627-6.263 1.584-12.797 5.182-16.4 9.03-2.164 2.311-4.439 5.157-4.859 6.078-.232.511-.544.928-.693.928-.26 0-1.651 2.68-2.906 5.6-.331.77-.825 2.39-1.098 3.6-.273 1.21-.654 2.722-.847 3.36-.192.638-.351 11.258-.353 23.6-.001 12.342-.117 23.655-.258 25.14l-.255 2.7h-5.965c-3.28 0-6.719-.169-7.642-.376-.922-.207-3.387-.68-5.477-1.052-2.09-.372-3.971-.833-4.18-1.024-.209-.192-.627-.348-.93-.348-.302 0-1.841-.853-3.42-1.896-1.578-1.043-3.14-2.019-3.47-2.169-1.286-.584-6.698-6.318-8.534-9.041-1.993-2.957-2.767-4.789-4.344-10.294l-.917-3.2-.13-54.6c-.154-64.88-.264-62.852 3.841-71 4.344-8.622 10.714-13.911 21.084-17.505.66-.229 2.46-.546 4-.706 4.673-.484 89.815-.211 91.2.293m76.246 104.45c.525.402 1.287.854 1.694 1.003.407.149 1.217.635 1.8 1.081.583.445 3.31 2.452 6.06 4.459 4.914 3.587 12.933 11.178 15.682 14.844.725.967 2.058 2.734 2.963 3.928.904 1.193 2.239 3.245 2.965 4.561.727 1.316 1.632 2.752 2.012 3.192.619.715 1.62 2.724 4.31 8.646.462 1.016 1.218 2.906 1.682 4.2.464 1.295 1 2.714 1.191 3.154.192.44.527 1.61.746 2.6.219.99.594 2.52.832 3.4 2.022 7.464 3.264 21.067 2.459 26.938-1.146 8.362-3.135 18.511-4.069 20.762l-.746 1.8-1.039 2.5c-.366.88-1.369 3.067-2.227 4.861-.859 1.793-1.561 3.463-1.561 3.71 0 .247-.692 1.569-1.537 2.939-.846 1.369-2.022 3.3-2.614 4.29-.593.99-1.703 2.61-2.468 3.6-.765.99-1.524 1.982-1.686 2.204-.805 1.102-3.317 4.138-4.34 5.244-.635.686-1.712 1.856-2.392 2.6-.68.744-2.278 2.252-3.55 3.352a955.802 955.802 0 0 0-3.963 3.448c-2.686 2.357-10.033 7.117-14.45 9.361-2.262 1.149-4.357 2.245-4.656 2.435-.728.462-4.889 1.948-9.544 3.409-2.09.656-4.16 1.35-4.6 1.542-.84.367-6.182 1.284-11.6 1.992-4.529.592-84.451.566-88.323-.029-1.582-.243-3.444-.693-4.137-1-.694-.307-1.545-.558-1.891-.558-.347 0-1.67-.564-2.94-1.254-1.27-.69-2.951-1.591-3.736-2.002-.785-.412-1.779-1.063-2.208-1.446a587.574 587.574 0 0 0-2.573-2.276c-5.222-4.6-9.05-11.944-10.226-19.622-.752-4.906-.83-62.976-.086-63.72.365-.365 8.113-.486 32.3-.506 33.959-.027 38.867-.196 44.82-1.546 6.382-1.446 14.422-4.049 18-5.828 9.326-4.635 9.146-4.532 14.6-8.346 6.919-4.838 12.124-9.578 17.41-15.854 1.205-1.43 2.3-2.69 2.435-2.8.289-.236 4.35-6.24 5.006-7.4a346.2 346.2 0 0 0 1.456-2.637 75.873 75.873 0 0 1 1.99-3.4c.542-.86 1.123-2.013 1.289-2.563.251-.826 1.537-4.053 3.427-8.6.59-1.418 2.387-7.347 2.389-7.882.013-3.077 1.642-4.322 3.644-2.786" fill="#58c6d1"/><path d="M140.33 68.3c11.072.059 29.072.059 40 0 10.929-.059 1.87-.108-20.13-.108s-30.941.049-19.87.108m-22.23.376c.385.1 1.015.1 1.4 0 .385-.101.07-.183-.7-.183s-1.085.082-.7.183m83 .006a5.661 5.661 0 0 0 1.8 0c.495-.095.09-.173-.9-.173s-1.395.078-.9.173M110 70.2c-1.306.747-.849.755.854.016.74-.322 1.076-.585.746-.586-.33-.001-1.05.256-1.6.57m102.2-.189c3.392.929 3.3.919 2.054.226-.63-.35-1.62-.619-2.2-.596-1.039.04-1.037.045.146.37m4.6.962c.77.311 1.67.574 2 .584 1.052.032-.413-.633-2-.908l-1.4-.242 1.4.566m-110.2.435c-1.42.683-2.559 1.402-3.312 2.092-.3.275-.712.5-.917.5-.204 0-.371.183-.371.406 0 .224 1.144-.316 2.543-1.2 1.399-.883 2.738-1.606 2.977-1.606.238 0 .544-.18.68-.4.337-.545-.171-.479-1.6.208m113.4.347c0 .085.53.232 1.179.327.648.095 1.088.026.976-.154-.198-.321-2.155-.478-2.155-.173m-119.8 3.921-.8.828.878-.454c.924-.478 1.596-1.267 1.046-1.226-.178.013-.684.396-1.124.852m-2.656 2.311c-.519.432-.801.792-.627.8.174.007.703-.347 1.175-.787 1.107-1.031.687-1.042-.548-.013m-3.711 4.047c-.604.678-1.019 1.313-.922 1.411.098.097.662-.458 1.254-1.234 1.327-1.74 1.146-1.836-.332-.177m147.367-1.08c0 .085.495.473 1.1.862l1.1.708-.762-.862c-.674-.763-1.438-1.139-1.438-.708M89.2 82.8c0 .44.161.8.357.8.45 0 .869-1.04.549-1.361-.482-.481-.906-.219-.906.561m156 1c.517.55 1.006 1 1.088 1 .333 0-1.316-1.976-1.658-1.987-.203-.007.053.437.57.987M91.623 85.451c-.471.798-.8 1.619-.731 1.824.068.206.523-.447 1.011-1.45 1.063-2.187.91-2.391-.28-.374m156.577.425c.22.206 1.39 1.146 2.6 2.088l2.2 1.712-1.8-1.659c-.99-.913-2.16-1.852-2.6-2.087-.44-.236-.62-.259-.4-.054M86.093 87.2c-.275.44-.768.8-1.096.8-.751 0-.776 1.078-.043 1.811.601.601 1.062.234 2.146-1.706.95-1.7.015-2.541-1.007-.905m167.522 3.019c.283.34 1.07.994 1.749 1.453.996.672.93.552-.337-.619-1.635-1.511-2.298-1.903-1.412-.834M258 94.2c1.446 1.492 1.6 1.594 1.6 1.058 0-.546-1.913-2.458-2.459-2.458-.274 0 .113.63.859 1.4M87.076 97.61c-.146.545-.248 1.53-.227 2.19.031.957.11.836.393-.6.387-1.967.26-3.183-.166-1.59m174.605-.069c-.414.263-.394.433.1.843.34.283.619.417.619.298s.109-.501.243-.849c.264-.689-.142-.812-.962-.292m2.355 3.659c2.128 2.732 2.581 3.223 2.034 2.2-.235-.44-1.174-1.61-2.087-2.6l-1.659-1.8 1.712 2.2M270 101c0 .33.18.6.4.6.22 0 .4-.27.4-.6 0-.33-.18-.6-.4-.6-.22 0-.4.27-.4.6m-2.794 4.499c.004.165.562.931 1.241 1.701s1.5 1.912 1.823 2.537c.324.626.68 1.046.791.935.112-.111-.118-.713-.511-1.337-.893-1.42-3.352-4.241-3.344-3.836m7.994 13.016c0 .57.955 2.285 1.273 2.285.19 0 .036-.495-.343-1.1-.898-1.436-.93-1.477-.93-1.185m1.757 4.118c.134.348.243.718.243.823 0 .105.18.08.4-.056.637-.394.463-1.4-.243-1.4-.422 0-.559.218-.4.633M278.23 126c.14.77.415 1.571.612 1.78.56.595.433-.324-.254-1.834l-.613-1.346.255 1.4m2.198 7.076c.09 1.039.716 1.92.744 1.048.015-.482-.152-.988-.372-1.124-.22-.136-.387-.102-.372.076m.865 3.324c0 .77.082 1.085.183.7.1-.385.1-1.015 0-1.4-.101-.385-.183-.07-.183.7m.551 2.6c.329 1.471.558 1.79.55.767-.003-.422-.189-1.037-.412-1.367-.297-.438-.334-.276-.138.6m1.465 9.4c0 .99.078 1.395.173.9a5.661 5.661 0 0 0 0-1.8c-.095-.495-.173-.09-.173.9m.437 7.8c.001 2.2.068 3.049.149 1.887.081-1.163.081-2.963-.002-4-.082-1.038-.148-.087-.147 2.113m-.432 8c.003 1.1.081 1.503.173.895.092-.609.09-1.509-.005-2-.095-.492-.171.005-.168 1.105m-96.814.1c9.845.059 25.955.059 35.8 0 9.845-.06 1.79-.108-17.9-.108-19.69 0-27.745.048-17.9.108m-23.5.297c-.22.074-1.462.453-2.76.842-1.826.548-2.188.776-1.6 1.007 1.135.445 1.36.41 1.36-.211 0-.341.596-.665 1.508-.819.83-.141 1.775-.424 2.1-.63.569-.359.223-.467-.608-.189m89.4.223c2.443.435 4.33.42 2.6-.02-.66-.168-1.92-.304-2.8-.303l-1.6.003 1.8.32m4.5.656c.385.1 1.015.1 1.4 0 .385-.101.07-.183-.7-.183s-1.085.082-.7.183m-100.925 1.595c-.863.513-.878.559-.132.406.464-.095 1.139-.007 1.5.195.789.441.862.076.132-.655-.434-.433-.696-.424-1.5.054m126.696.558c-.539 2.014-.328 3.171.578 3.171.698 0 .763-.104.366-.582-.557-.671-.235-1.418.609-1.418.317 0 .576-.199.576-.443 0-.243-.277-.336-.615-.206-.398.152-.729-.069-.935-.628-.317-.856-.322-.855-.579.106M174 167.6c0 .22.27.4.6.4.33 0 .6-.18.6-.4 0-.22-.27-.4-.6-.4-.33 0-.6.18-.6.4m97.4 1.969c1.32.667 2.67 1.202 3 1.189.33-.013-.3-.434-1.4-.935-3.117-1.422-4.274-1.605-1.6-.254m.372 1.676c-.301.488.597 1.221 1.109.905.175-.108.319-.457.319-.774 0-.678-1.031-.773-1.428-.131m5.971.555c.33.33.827.6 1.105.6.283 0 .164-.258-.272-.587-1.018-.771-1.6-.78-.833-.013m-3.514.558c-.722.283-.726.319-.057.576.502.192.646.54.487 1.173-.321 1.278.119 1.705 1.897 1.843 1.457.113 1.54.062 1.305-.815-.137-.514-.253-1.221-.256-1.571-.003-.349-.463-.844-1.024-1.1-1.146-.522-1.274-.528-2.352-.106m-128.614 1.658c-.762.651-1.235 1.184-1.053 1.184.183 0 .947-.54 1.699-1.2.752-.66 1.226-1.193 1.053-1.184-.173.009-.937.549-1.699 1.2M299.8 176.4c-.136.22.046.4.405.4.359 0 .922.27 1.252.6.626.626 1.745.819 1.74.3-.007-.829-2.984-1.968-3.397-1.3M296 179c.274.33.656.6.849.6.193 0 .351-.27.351-.6 0-.345-.361-.6-.849-.6-.709 0-.767.099-.351.6m-20.315 1.075c-.279.279-.485 1.574-.485 3.054v2.569l.9-.598c.761-.505.9-.955.9-2.915 0-2.334-.419-3.006-1.315-2.11m21.515.325c0 .22.405.397.9.394.728-.005.785-.08.3-.394-.776-.501-1.2-.501-1.2 0m7.828 3.955c-.224.363 2.226 2.445 2.876 2.445.196 0 .779.45 1.296 1 1.625 1.73 3.365-.034 2.465-2.5-.253-.693-.414-.841-.433-.4-.018.385-.285.7-.595.7-.365 0-.489-.28-.353-.8.243-.929-2.066-1.217-2.398-.3-.145.4-.351.4-1.028 0-1-.59-1.529-.632-1.83-.145m-167.761 3.112c-.471 1.473-.772 2.761-.671 2.863.102.101.265-.066.364-.373 1.212-3.787 1.494-4.836 1.342-4.989-.099-.099-.565 1.026-1.035 2.499m173.042 4.64c-.192.552 1.094 1.957 1.458 1.593.469-.469.214-1.282-.527-1.679-.549-.293-.808-.27-.931.086M136.093 193.2c0 .77.082 1.085.183.7.1-.385.1-1.015 0-1.4-.101-.385-.183-.07-.183.7m128.116-.815c-.444.719 1.366 2.133 2.028 1.584.508-.421.496-.58-.089-1.226-.733-.811-1.564-.964-1.939-.358m-1.58 3.444c-.933.933-.778 1.771.328 1.771.926 0 1.443-.657 1.443-1.833 0-.755-.989-.721-1.771.062m7.65-.072c-.164.417-.204.852-.088.967.364.365.685-.233.533-.993-.141-.696-.162-.695-.445.026m44.921 3.092c0 .706.1.766.596.355.602-.5.473-1.204-.22-1.204-.207 0-.376.382-.376.849m-48.754 1.115c-.701.443-.279 2.372.593 2.706.981.377 1.502-.447 1.081-1.71-.415-1.246-.861-1.511-1.674-.996m-.846 3.19c0 .575.185.75.617.584.683-.262.599-.999-.142-1.246-.264-.088-.475.206-.475.662m-3.171 2.611c-.988 1.19-.728 2.824.471 2.962.647.074 1.1-.067 1.1-.343 0-.258.258-.37.574-.249.428.164.542-.055.446-.857a75.515 75.515 0 0 1-.174-1.578c-.063-.682-1.837-.634-2.417.065m67.017 2.846c-.734.734-.773.969-.291 1.73.533.842 2.128-.16 1.969-1.237-.162-1.096-.867-1.304-1.678-.493m-69.878 2.102c-.017.598-.122.862-.233.587-.937-2.323-3.941 1.068-3.484 3.932.224 1.398 1.349 2.337 1.349 1.125 0-.254.293-.33.688-.179.378.146.565.142.416-.008-.335-.334.689-2.387 1.936-3.881.954-1.143.927-2.062-.071-2.446-.402-.154-.578.101-.601.87M86.8 214.51c0 .793.169 1.547.376 1.675.225.139.283-.376.144-1.276-.31-2.009-.52-2.17-.52-.399m163.342 1.118c-1.062.315-1.289.607-1.455 1.873-.108.824-.322 1.881-.475 2.348-.258.787-.144.846 1.554.8 1.774-.047 2.263-.337 1.434-.849-.618-.382-.474-.998.3-1.283 1.532-.563 3.137-2.91 2-2.922-.275-.003-.86-.081-1.3-.173-.44-.093-1.366 0-2.058.206M87.632 218.2c-.002.44.254 1.25.568 1.8.73 1.278.734 1.004.012-1-.317-.88-.578-1.24-.58-.8m239.568 3.945c0 1.631.063 1.732.972 1.558.827-.158.915-.314.593-1.044a24.475 24.475 0 0 1-.618-1.559c-.44-1.282-.947-.722-.947 1.045m-86.382 5.633c-1.204 1.451-.251 2.053 1.142.722 1.36-1.299 1.36-1.3.349-1.3-.556 0-1.227.26-1.491.578M93.2 231.443c0 .416.218.559.621.404.341-.131.528-.089.415.094-.112.182.373.755 1.08 1.272 1.005.736 1.154.774.684.176-2.125-2.705-2.8-3.175-2.8-1.946m135.787 1.669c.117.304.213.772.213 1.038 0 .648 3.128 1.49 3.471.935.145-.234.056-.287-.209-.123-.599.37-.586.027.038-.98.662-1.067-.139-1.611-2.213-1.503-1.104.058-1.455.228-1.3.633m-132.51 2.114c-.293.468-.318.825-.069.979.216.133.392-.038.392-.381 0-.897.628-.768 1.471.302.767.974 2.865 2.491 3.08 2.228.07-.085-.895-.989-2.144-2.01-2.105-1.721-2.303-1.802-2.73-1.118m127.321 1.177c-.313.506.801.96 1.602.652.33-.126.6-.416.6-.642 0-.532-1.874-.54-2.202-.01M97.68 238.08c-.264.264-.48.838-.48 1.275 0 .759.04.753.847-.113.888-.953.536-2.065-.367-1.162m6.944 2.507c.427.323.956.588 1.176.588.22 0 .051-.265-.376-.588-.428-.323-.957-.587-1.177-.587-.22 0-.051.264.377.587m2.237 1.231c.363.371.879.602 1.145.513.267-.089-.031-.392-.661-.675-1.072-.48-1.103-.47-.484.162m28.745.058c-.003.482.186.995.421 1.14.655.405.69.082.112-1.016-.506-.959-.527-.964-.533-.124M124.8 244.8l-5.4.236 4.251.082c4.887.094 4.978.153 5.083 3.27.068 2.024 1.239 5.071 2.594 6.751 1.048 1.299 1.469-3.611.475-5.534-.329-.635-.498-1.412-.378-1.727.136-.354-.094-.655-.602-.788-1.194-.312-1.134-2.174.077-2.408 1.052-.202 1.394-.209-6.1.118m205.397 24.466c-.349.906-.09 2.739.403 2.846.554.122.739-1.935.252-2.802-.365-.651-.42-.655-.655-.044m-4.891 20.266c-.009 2.163.378 3.268 1.143 3.268.193 0 .351-.197.351-.437s.36-.894.8-1.454c1.067-1.356 1.042-1.443-.743-2.624l-1.543-1.021-.008 2.268m-1.033 3.528c-.399.399-.334 1.74.084 1.74.523 0 .926-1.277.529-1.674-.186-.186-.462-.216-.613-.066M318 299.8c0 .33.18.6.4.6.22 0 .4-.27.4-.6 0-.33-.18-.6-.4-.6-.22 0-.4.27-.4.6m-.8 1.8c0 .747.107.853.48.48s.373-.587 0-.96-.48-.267-.48.48m-1.551 1.341c-.486.586-.21 1.059.618 1.059.596 0 .73-1.031.178-1.372-.195-.121-.553.02-.796.313M128.7 309.689c-.903 1.127-.977 4.311-.1 4.311.33 0 .6-.272.6-.605 0-.333.211-.944.47-1.358.322-.516.353-1.141.1-1.987l-.37-1.234-.7.873m180.8.068c-.385.292-.7.726-.7.963 0 .718.798.98 1.418.465.469-.389.582-.357.582.166 0 .727 1.008.883 1.418.219.245-.396-1.264-2.386-1.788-2.357-.126.007-.545.252-.93.544m5.396 4.238c-.987 1.58-.288 2.704 1.204 1.937.968-.498.965-2.732-.004-2.732-.387 0-.927.358-1.2.795m-181.029 2.272c-.941.94.296 4.063 1.436 3.626.554-.213.55-.426-.039-2.065-.653-1.815-.885-2.074-1.397-1.561m169.708.387c-2.671 1.349-2.875 3.953-.234 2.978.473-.175 1.105-.231 1.405-.126.301.105.689-.039.863-.321.414-.669.029-1.656-.514-1.32-.267.165-.339-.055-.196-.602.289-1.102-.045-1.255-1.324-.609m7.853 1.701c-.261.422.885 1.465 1.231 1.119.333-.333-.149-1.474-.623-1.474-.214 0-.487.16-.608.355M297.8 320.4c.136.22.057.4-.176.4-.233 0-.424.27-.424.6 0 .905 2.273.785 2.772-.147.22-.411.286-.861.147-1-.424-.425-2.587-.287-2.319.147m4.45 3.813c-.487 1.271-.263 1.787.777 1.787.883 0 1.008-.153.9-1.097-.143-1.233-1.287-1.704-1.677-.69m-9.45.413c-.55.301-1 .778-1 1.061 0 .282.45.575 1 .651.55.076 1.189.294 1.421.484.231.189.771.256 1.2.148.61-.154.924.154 1.449 1.417.76 1.829 2.834 2.387 3.231.87.311-1.187-.425-2.057-1.74-2.057-.79 0-1.542-.37-2.204-1.084-.818-.883-1.071-.978-1.359-.512-.195.315-.498.43-.673.254-.175-.175-.001-.496.387-.713.741-.414.579-1.173-.236-1.106-.262.022-.926.286-1.476.587m-156.504.707c-.432 1.07-.365 1.467.248 1.467.377 0 .614.765.77 2.483.276 3.04.924 3.713 2.818 2.921 2.069-.865 1.897-2.114-.568-4.118-1.139-.927-2.215-1.686-2.39-1.686-.175 0-.378-.405-.45-.9-.118-.807-.162-.824-.428-.167m4.904 2.067c0 .33.161.6.357.6.197 0 .461-.27.588-.6.14-.365 0-.6-.358-.6a.595.595 0 0 0-.587.6m147.4.6c.398.44.769.8.825.8.055 0 .006-.36-.109-.8-.115-.44-.486-.8-.825-.8-.517 0-.5.127.109.8m-6.2 3.6c0 .22.259.4.576.4.317 0 .688-.18.824-.4.136-.22-.123-.4-.576-.4-.453 0-.824.18-.824.4m-9.053 2.467c.111.367-.056.766-.372.887-.737.283-.739.897-.004 1.179.982.378 1.428-.627.768-1.734-.327-.55-.503-.699-.392-.332m19.853.264c0 .21.633.455 1.407.546.87.101 1.354.003 1.269-.257-.174-.532-2.676-.803-2.676-.289m-123.3 5.164c1.155.081 3.045.081 4.2 0 1.155-.081.21-.147-2.1-.147s-3.255.066-2.1.147m71.2-.002c.935.084 2.465.084 3.4 0s.17-.153-1.7-.153c-1.87 0-2.635.069-1.7.153m17.1 2.107c-.136.22-.586.4-1 .4-1.069 0-1.318.625-.554 1.389.853.853 2.373.649 2.295-.307-.04-.493.304-.791 1.094-.949.634-.127 1.054-.388.935-.582-.298-.482-2.465-.444-2.77.049" fill="#f7faec"/></g></svg>