<svg xmlns="http://www.w3.org/2000/svg" width="32" height="32" viewBox="0 0 400 400"><g fill-rule="evenodd"><path d="M161.6 39.6c-.824.264-.859.326-.2.354.44.019 1.07-.141 1.4-.354.701-.453.214-.453-1.2 0m67.008.789c-3.193 10.318-4.755 20.175-3.258 20.566.599.157.694.422.474 1.32l-.492 2.021c-.135.56-.013.959.326 1.062.298.092 2.861.725 5.694 1.407 5.437 1.309 13.939 4.154 18.176 6.084 1.39.633 2.635 1.151 2.765 1.151.733 0 11.499 5.779 16.173 8.68 16.634 10.328 33.849 27.07 42.606 41.435 4.53 7.432 5.889 9.803 7.839 13.685 4.594 9.143 8.313 19.331 10.488 28.732 1.196 5.171.866 4.812 3.696 4.026.653-.181.97-.047 1.171.497.714 1.931 3.018 1.801 12.834-.727 9.428-2.428 8.666-1.509 7.088-8.543-1.257-5.603-2.515-9.352-2.559-7.62-.016.641.231 2.081.55 3.2 2.687 9.453 2.697 9.377-1.379 10.437-15.958 4.149-14.546 4.535-16.816-4.602-12.617-50.789-55.45-92.217-106.884-103.377-1.511-.327-1.46-1.605.346-8.723a809.78 809.78 0 0 0 2.037-8.177c.524-2.198.71-2.492 1.654-2.614.794-.102.633-.187-.638-.334-1.297-.15-1.747-.051-1.891.414m7.425.977c.092.091 1.877.64 3.967 1.22 5.423 1.503 5.512 1.523 4.8 1.072-1.03-.652-9.287-2.811-8.767-2.292m-87.173 1.498c-1.398.433-2.468.862-2.379.951.09.089 1.503-.265 3.141-.787 1.638-.522 2.708-.95 2.378-.951-.33-.001-1.743.353-3.14.787m15.974.606c-.06.83 1.602 7.897 2.091 8.888.593 1.203.623 6.251.041 6.835-.239.24-3.479 1.229-7.2 2.198-16.757 4.365-31.661 11.494-46.594 22.288-8.181 5.913-8.39 6.228-5.972 8.982 2.12 2.415.974 3.402-1.519 1.309-2.83-2.376-3.049-2.267-10.494 5.199-9.591 9.617-17.13 19.412-23.269 30.231-5.121 9.025-7.395 14.443-13.347 31.8-1.169 3.41-2.136 5.795-2.148 5.3-.013-.495-.212-.9-.442-.9-.712 0-2.355-2.15-2.368-3.1-.015-1.066.702-1.2 1.07-.2.608 1.648 2.117 1.743 2.117.133 0-1.775-.39-2.433-1.443-2.433-.685 0-.957-.224-.957-.786 0-.949-1.266-1.707-2.271-1.359-.683.237-.682.216.02-.332 1.365-1.065 1.044-5.523-.398-5.523-.251 0-.654-.785-.895-1.744-.585-2.324-1.009-2.595-4.273-2.736l-2.783-.12.129-1.6c.084-1.034.423-1.829.959-2.246.714-.556.793-.918.569-2.608-.224-1.688-.063-2.431 1.152-5.311 1.503-3.565 1.712-4.924.266-1.734C42.687 143.139 36.8 162.539 36.8 167.1v1.114l10.1 2.712c11.487 3.083 10.542 2.92 10.816 1.874.168-.644.548-.801 1.947-.806 2.448-.009 2.527-.116 3.517-4.794 4.899-23.143 18.704-47.29 37.571-65.718l5.649-5.518 3.802 3.197c2.091 1.758 4.182 3.463 4.647 3.788.82.575.674.763-4.932 6.322-4.482 4.443-4.694 4.692-.948 1.109 2.657-2.541 5.821-5.513 7.031-6.606 1.21-1.092 2.029-1.848 1.82-1.68-.74.596-1.299.286-2.515-1.394-.677-.935-2.232-2.85-3.456-4.257-2.504-2.876-2.503-2.893.351-5.103 15.203-11.776 34.333-21.18 50.8-24.972 4.992-1.149 5.017-1.167 4.503-3.191-.334-1.314-.29-1.729.246-2.321.359-.396.557-.816.441-.933-.117-.117-.024-.708.207-1.314.341-.899.125-2.216-1.177-7.155-1.837-6.968-2.337-8.642-2.386-7.984m83.206 1.503c.329.329 8.084 3.037 8.242 2.878.167-.167-.737-.529-5.22-2.095-2.724-.951-3.353-1.114-3.022-.783m-110.768 1.886c-1.171.45-2.06.886-1.976.97.15.15 4.348-1.346 4.671-1.664.353-.35-.652-.091-2.695.694M258.8 49.056c9.818 4.659 16.737 8.225 21.111 10.88 2.921 1.773 5.213 3.064 5.092 2.869-.96-1.553-22.842-13.198-26.603-14.158-.631-.161-.483-.01.4.409m-127.6.344c-.55.314-.82.572-.6.572.22 0 .85-.258 1.4-.572.55-.314.82-.572.6-.572-.22 0-.85.258-1.4.572m-3.2 1.4c-.77.422-1.22.766-1 .766.22 0 1.03-.344 1.8-.766.77-.422 1.22-.766 1-.766-.22 0-1.03.344-1.8.766m-13.2 3.645C104.28 60.524 97.718 65.472 97.22 67.7c-.414 1.848-.506 1.855 2.499-.176 6.798-4.591 9.645-6.408 13.681-8.73 4.001-2.303 6.584-4.006 4.249-2.802-.768.397-1.017.387-1.294-.051-.674-1.064-.331-1.807 1.245-2.693.88-.495 1.6-.978 1.6-1.074 0-.273.026-.287-4.4 2.271m6.4-.445c-1.21.639-2.087 1.171-1.949 1.181.339.026 2.712-1.034 3.949-1.763 1.794-1.058.257-.61-2 .582m164.4 9.304c0 .108 1.37 1.143 3.045 2.301 10.446 7.222 24.746 20.275 31.544 28.795 11.982 15.015 19.933 28.408 26.192 44.116 1.906 4.784 2.551 5.626.972 1.269-9.813-27.079-31.309-54.821-56.753-73.245-3.398-2.46-5-3.497-5-3.236m-96.9 11.385c.715.089 1.885.089 2.6 0 .715-.088.13-.161-1.3-.161-1.43 0-2.015.073-1.3.161m13.2 0c.715.089 1.885.089 2.6 0 .715-.088.13-.161-1.3-.161-1.43 0-2.015.073-1.3.161m-18.6.387c.385.1 1.015.1 1.4 0 .385-.101.07-.183-.7-.183s-1.085.082-.7.183m25.005.007c.497.096 1.217.092 1.6-.008.382-.1-.025-.179-.905-.174-.88.004-1.193.086-.695.182m-32.705.823c-2.09.34-3.619.68-3.398.756.221.077 2.561-.203 5.2-.621 2.639-.418 4.168-.759 3.398-.757-.77.002-3.11.282-5.2.622m36.1-.43c.385.1 1.015.1 1.4 0 .385-.101.07-.183-.7-.183s-1.085.082-.7.183m4.9.744c1.54.292 3.16.52 3.6.508.44-.013-.37-.264-1.8-.557-1.43-.294-3.05-.522-3.6-.507-.55.014.26.264 1.8.556m-55.2 2.98c-.504.217-.578.344-.2.344.33 0 .96-.155 1.4-.344.504-.217.578-.344.2-.344-.33 0-.96.155-1.4.344m70.978.628c1.638.522 3.05.877 3.138.789.18-.179-5.2-1.839-5.759-1.777-.196.021.983.466 2.621.988m-74.178.358c-1.545.707-.826.717 1 .014.77-.297 1.13-.545.8-.552-.33-.006-1.14.235-1.8.538m83.265 2.77c1.136.532 2.486 1.073 3 1.202.514.129.035-.189-1.065-.707-1.1-.517-2.45-1.058-3-1.202-.55-.144-.071.174 1.065.707M75.429 85.882C72.314 88.776 63.2 99.43 63.2 100.178c0 .122.559.222 1.243.222 1.59 0 1.585.012-2.592 6.333-5.583 8.446-13.91 23.341-13.357 23.894.078.078 1.357-2.264 2.843-5.205 4.683-9.267 10.038-17.825 16.389-26.193 3.165-4.17 4.452-5.732 9.371-11.368 2.888-3.309 2.942-3.465 1.203-3.45-.933.008-1.744.423-2.871 1.471m173.171.067c.22.22 1.3.783 2.4 1.251 1.1.468 1.82.671 1.6.451-.22-.22-1.3-.783-2.4-1.251-1.1-.468-1.82-.671-1.6-.451m-107.9 1.278c-.825.436-1.5.881-1.5.991 0 .178 3.159-1.299 3.567-1.667.46-.417-.742-.023-2.067.676m114.9 2.115c0 .094 1.845 1.262 4.1 2.596a537.025 537.025 0 0 1 5.5 3.287c1.359.837 1.371.837.4.023-1.559-1.306-10-6.292-10-5.906m-127.707 5.272c-.821.558-1.493 1.101-1.493 1.206 0 .105.72-.285 1.6-.867 1.397-.925 1.87-1.353 1.493-1.353-.059 0-.779.456-1.6 1.014M266.8 96.149c0 .103 1.305 1.129 2.9 2.282 1.595 1.152 3.755 2.803 4.8 3.669 1.045.866 1.9 1.47 1.9 1.342 0-.28-5.316-4.533-7.815-6.252-.982-.676-1.785-1.144-1.785-1.041m14.076 11.408c2.352 2.238 5.772 5.644 7.6 7.569 1.828 1.925 2.787 2.864 2.132 2.087-2.218-2.628-9.193-9.657-11.608-11.697-1.32-1.116-.476-.197 1.876 2.041m-123.913.765c-5.346 1.87-7.249 5.294-7.549 13.586L149.23 127l-5.915.242c-6.575.269-7.711.531-10.264 2.364-1.644 1.181-3.851 4.409-3.851 5.633 0 .291.345-.146.766-.972 2.718-5.331 5.776-6.667 15.264-6.667h4.683l.144-5.912c.196-8.043 1.927-11.224 7.053-12.961 2.468-.836 48.654-.954 53.843-.137 21.518 3.385 37.317 14.798 46.529 33.61 1.185 2.42 2.04 3.95 1.901 3.4-3.859-15.222-22.049-30.89-42.183-36.333l-5.4-1.459-26.4-.1c-24.441-.091-26.551-.046-28.437.614m15.566 1.978c6.781.061 17.761.061 24.4 0 6.639-.062 1.091-.112-12.329-.112s-18.852.05-12.071.112m-17.954 2.6-1.175 1.3 1.3-1.175c1.212-1.095 1.484-1.425 1.175-1.425-.069 0-.654.585-1.3 1.3m139.472 8.8c1.153 1.485 2.167 2.7 2.252 2.7.261 0-1.34-2.107-2.887-3.8-.808-.884-.525-.392.635 1.1m3.569 4.863c1.779 2.477 2.49 2.916.841.519-.697-1.013-1.479-1.972-1.737-2.132-.259-.159.145.566.896 1.613m-105.716.932c1.155.081 3.045.081 4.2 0 1.155-.081.21-.147-2.1-.147s-3.255.066-2.1.147m-51.2 2.394c.715.089 1.885.089 2.6 0 .715-.088.13-.161-1.3-.161-1.43 0-2.015.073-1.3.161m44.622.01c2.377.071 6.157.07 8.4-.001 2.243-.071.298-.129-4.322-.129-4.62.001-6.455.059-4.078.13m17.743.001c-.1.165.41.983 1.134 1.817l1.315 1.517 1.543-1.057c.849-.581 1.959-1.219 2.467-1.416.508-.198.813-.54.676-.76-.284-.461-6.86-.554-7.135-.101m-3.648.852c1.591.723 3.783 2.893 3.783 3.745 0 .24.111.326.246.191.864-.865-3.35-4.71-5.13-4.679-.284.005.211.339 1.101.743m9.383-.605c0 .208-3.26 2.341-3.337 2.183-.035-.072-.499-.625-1.033-1.23l-.969-1.1h2.669c1.469 0 2.67.066 2.67.147m91.949.853c.216.44.685 1.16 1.044 1.6l.651.8-.393-.8c-.216-.44-.685-1.16-1.044-1.6l-.651-.8.393.8m-166.821 1.3c-1.523 1.594-2.334 2.912-2.319 3.774.005.289.336-.196.737-1.077.401-.882 1.393-2.187 2.205-2.9.812-.714 1.327-1.297 1.144-1.297-.183 0-.978.675-1.767 1.5m77.146-.314c-1.431.456-3.732 2.202-4.299 3.261-.24.447.281.097 1.158-.78 3.219-3.219 7.559-3.103 14.031.376 1.63.876 2.759 1.347 2.51 1.046-1.956-2.356-10.471-4.837-13.4-3.903m93.774 5.814c.705 1.32 1.452 2.58 1.66 2.8.585.619-1.56-3.496-2.293-4.4-.357-.44-.073.28.633 1.6m-176.206-.1c-.114.935-.314 13.76-.445 28.5-.143 16.008-.391 26.953-.618 27.18-.239.24-.379.055-.379-.5 0-.53-.248-.88-.624-.88-.343 0-.512-.18-.376-.4.136-.22-.122-.4-.573-.4-.451 0-1.045-.36-1.32-.8-.275-.44-.738-.8-1.03-.8-.357 0-.444-.275-.264-.839.226-.715.141-.8-.574-.574-.507.162-.839.092-.839-.176 0-.243-.457-.931-1.015-1.527-3.96-4.227-5.43-5.684-5.739-5.684-.195 0-.675-.495-1.068-1.1-.393-.605-1.031-1.327-1.419-1.604-.387-.276-.762-.906-.832-1.4-.085-.597-.36-.857-.827-.778-.385.064-.7-.071-.7-.3 0-1.002-1.721-2.111-3.241-2.09-1.093.015-1.708-.205-2.09-.75-.297-.425-1.105-.885-1.796-1.023-.69-.138-1.461-.5-1.713-.803-.252-.304-.781-.552-1.176-.552-1.147 0-1.984-.44-1.984-1.043 0-.309-.4-.56-.9-.563-1.764-.012-2.043-.519-1.762-3.203l.26-2.487-1.585-1.585c-.871-.871-1.771-1.469-1.999-1.328-.227.141-.414.007-.414-.298 0-.72-1.562-2.125-2.655-2.389-1.342-.323-5.645 12.141-7.56 21.896l-.549 2.8.218-2.471c.201-2.278.139-2.54-.789-3.347-.554-.482-1.222-1.395-1.484-2.029-.263-.634-.622-1.153-.799-1.153-.176 0-.537-.675-.803-1.5s-.657-1.719-.869-1.986c-.212-.268-.277-1.258-.146-2.2.429-3.077-.461-.268-1.512 4.774-3.602 17.269-3.604 38.912-.003 38.912 2.69 0 4.926 1.383 5.172 3.2.134.99.401 2.34.593 3 .192.66.728 3.246 1.191 5.747.973 5.246 4.085 15.169 6.668 21.253 32.751 77.168 131.616 96.896 191.163 38.146 5.971-5.892 14.474-16.156 15.807-19.081.25-.549.811-1.09 1.246-1.204.435-.114.685-.379.556-.589-.265-.428.849-1.511 1.197-1.163.123.122.033.577-.199 1.011-.313.585-.296.783.068.771 2.488-.086 3.089.125 3.089 1.085 0 1.572.657 1.535 1.415-.08.387-.823.882-1.612 1.101-1.755 1.023-.665 6.063-10.753 8.73-17.472 6.699-16.879 9.751-36.587 8.372-54.069-.505-6.407-1.562-13.641-1.548-10.6.011 2.255-.038 2.47-.421 1.865-.28-.441-.663-.424-2.208.1-1.028.349-2.241.635-2.697.635-.791 0-.815.14-.544 3.2.198 2.239.151 3.2-.158 3.2-.243 0-.442-.447-.442-.993 0-.936-.247-.823-4.3 1.959-13.15 9.027-28.975 17.237-43.221 22.422l-3.721 1.355-.379-.998c-.208-.548-.379-1.077-.379-1.175 0-.469-3.456-8.216-4.477-10.034l-1.159-2.065 1.271-2.066c2.478-4.028 6.811-16.776 6.75-19.859-.008-.41-.622 1.594-1.365 4.454-1.638 6.306-2.574 8.862-5.037 13.749l-1.89 3.749 2.123 4.517c5.335 11.356 7.593 22.612 6.391 31.859-3.604 27.703-21.339 47.14-48.683 53.354l-4.276.972h-25.752c-29.41 0-28.692.069-31.732-3.058-2.335-2.403-3.017-4.677-3.32-11.074l-.244-5.133-4.6-.013c-7.935-.022-11.53-1.318-14.001-5.049-2.078-3.137-2.018-1.023-1.905-67.039.058-34.229.072-62.234.031-62.234-.042 0-.169.765-.283 1.7m97.758-.394c0 .088.765.768 1.7 1.511.935.743 1.446 1.035 1.136.648-.585-.728-2.836-2.442-2.836-2.159M86.4 140c-.449.88-.726 1.6-.616 1.6.11 0 .567-.72 1.016-1.6.449-.88.726-1.6.616-1.6-.11 0-.567.72-1.016 1.6m262.207 4.1c1.217 4.199 2.78 8.74 2.891 8.405.159-.476-2.635-9.305-2.945-9.305-.114 0-.089.405.054.9m-39.589 1.78c.961 2.171 1.382 2.914 1.382 2.436 0-.423-1.993-4.716-2.19-4.716-.11 0 .254 1.026.808 2.28m-225.546-.061c-.94 1.97-.808 2.305.175.443.446-.846.74-1.608.654-1.695-.087-.086-.46.477-.829 1.252m118.983 1.227c-2.378 2.035-3.167 2.134-17.122 2.144-6.857.006-12.752.119-13.1.253-.659.252-.982 22.596-.379 26.237l.244 1.481 13.451.119 13.451.12 2.337 1.184c1.285.651 2.763 1.729 3.284 2.394l.947 1.21 1.316-1.259c2.325-2.225 4.55-3.113 8.19-3.269 2.408-.103 3.429-.315 3.86-.8.958-1.078 2.673-5.549 2.827-7.369.079-.93.065-1.331-.031-.891-.379 1.739-1.104 3.713-2.241 6.1l-1.19 2.5h-2.686c-3.52 0-6.036.795-8.244 2.604l-1.797 1.472-1.744-1.607c-2.744-2.53-3.281-2.612-18.128-2.769l-13.3-.14V150h12.327c13.582 0 14.948-.182 18.007-2.398l1.665-1.206 1.457 1.614c.909 1.006 2.925 2.367 5.35 3.613 4.761 2.445 7.413 4.889 9.1 8.385 1.46 3.026 1.744 2.611.34-.497-1.687-3.732-4.594-6.136-11.991-9.917-1.166-.596-2.329-1.594-2.905-2.494-1.177-1.839-1.209-1.84-3.295-.054m57.419.554c.146.55.958 3.7 1.805 7s1.441 5.19 1.32 4.2c-.309-2.547-1.987-9.137-2.749-10.8-.363-.793-.527-.966-.376-.4m51.922 4.7c.155.385.651 1.649 1.101 2.808.451 1.16.892 2.036.979 1.949.198-.198-1.885-5.457-2.161-5.457-.11 0-.074.315.081.7m-232.75 4.346c-.354 1.039-.574 1.959-.49 2.044.085.084.444-.697.798-1.736.354-1.039.574-1.959.49-2.044-.085-.084-.444.697-.798 1.736M263.4 168.217c0 4.144.114 7.005.253 6.358.347-1.613.364-10.421.024-12.334-.152-.857-.277 1.832-.277 5.976m51.849-6.817c-.003.757 2.688 10.399 2.72 9.744.017-.361-.407-2.341-.943-4.4-.957-3.676-1.774-6.133-1.777-5.344M56 170.6c0 .622-.227 1-.6 1s-.6-.378-.6-1 .227-1 .6-1 .6.378.6 1m94.994 23.472c-.371.967-.025 9.336.382 9.226.211-.058.329-1.888.269-4.2l-.106-4.098 1.331 1.24c.731.681 1.743 1.514 2.247 1.849l.918.611-2.018 1.449c-1.109.797-2.017 1.634-2.017 1.86 0 .225.916-.315 2.036-1.2s2.29-1.609 2.6-1.609c1.104 0 .536-.766-1.336-1.799-1.045-.576-2.391-1.692-2.992-2.479-.793-1.038-1.153-1.271-1.314-.85m53.655 1.309c-.354.54-1.454 1.457-2.446 2.038-1.788 1.048-2.306 1.781-1.259 1.781.299 0 1.361.72 2.361 1.6 1 .88 1.946 1.6 2.103 1.6.157 0 .984-.72 1.838-1.6.854-.88 1.823-1.6 2.154-1.6 1.083 0 .628-1.117-.82-2.013-.782-.482-1.702-1.307-2.046-1.832-.787-1.201-1.083-1.197-1.885.026m2.921 1.452 1.77 1.6-1.967 1.731-1.967 1.731-1.803-1.434a115.267 115.267 0 0 0-1.956-1.534c-.178-.116 3.652-3.695 3.953-3.695.11.001.997.721 1.97 1.601m21.93.67c-1.671 1.037-1.427 1.473 1.536 2.746.277.119.447-.478.464-1.631.031-2.008-.28-2.181-2-1.115m1.14 1.991c-.708.708-1.434-.838-.75-1.599.701-.779.712-.775.84.294.072.596.031 1.183-.09 1.305m-15.54.788a5.661 5.661 0 0 0 1.8 0c.495-.095.09-.173-.9-.173s-1.395.078-.9.173m-25.382.416c1.715.075 4.415.074 6-.001 1.585-.076.182-.138-3.118-.137-3.3.001-4.597.062-2.882.138m14.948 15.857c-2.136 3.26-5.151 3.835-20.166 3.84l-12.5.005v27.2h12.527c13.915 0 15.529.22 18.086 2.465l1.401 1.231 1.693-1.812c1.237-1.325 2.824-2.342 5.893-3.779 10.023-4.695 13.071-13.171 8.255-22.956L218.6 220.2l-3.4-.235c-3.926-.271-6.584-1.281-8.228-3.126-1.327-1.489-1.502-1.511-2.306-.284m2.9 1.455c2.222 1.873 3.279 2.234 7.67 2.617 3.044.266 4.894 1.376 3.919 2.352-.85.849-24.936 1.426-26.355.631-.11-.062-.56-.16-1-.219-.44-.059-1.34-.209-2-.332-.66-.123-2.475-.316-4.034-.428-3.013-.218-4.166-.509-4.166-1.051 0-.184-.368-.263-.818-.177-.45.087-1.125.032-1.5-.122-.375-.155 4.088-.371 9.918-.481 11.704-.221 12.088-.298 14.824-2.956.757-.735 1.434-1.361 1.504-1.39.071-.03.988.671 2.038 1.556M59.5 225.807c-.825.303-1.5.381-1.5.172 0-.658-1.283-.426-7.625 1.376a951.937 951.937 0 0 1-9.508 2.653c-3.984 1.073-4.021 1.139-3.116 5.572 9.036 44.26 43.722 87.976 86.231 108.684 13.279 6.468 35.152 13.854 39.292 13.267 1.807-.256 5.608-13.355 6.035-20.795l.198-3.464-1.453-.261c-48.657-8.722-94.008-52.789-104.85-101.881-1.453-6.581-1.214-6.237-3.704-5.323m277.582.045c-.139.138-1.654.287-3.367.33l-3.115.079-.532 2.37c-11.707 52.097-53.834 93.903-105.168 104.368-2.566.523-1.811 7.837 2.173 21.049l1.04 3.448 1.843-.117c1.014-.063 4.573-.84 7.908-1.726 41.701-11.069 77.885-38.898 99.407-76.453 3.706-6.467 8.32-16.191 10.252-21.61.665-1.864 1.482-4.031 1.816-4.814 1.645-3.852 5.302-17.503 5.523-20.615l.138-1.942-2.8-.727c-1.54-.401-5.371-1.44-8.513-2.31-6.11-1.692-6.221-1.714-6.605-1.33m-1.882 2.751c0 2.502-3.925 15.769-6.685 22.597-9.72 24.047-26.725 46.484-46.115 60.848-17.2 12.74-45.83 25.786-56.933 25.942-2.053.028.063-1.023 3.698-1.839 28.935-6.489 60.532-26.7 77.851-49.797.431-.575 1.855-2.465 3.164-4.2 9.825-13.023 19.199-32.887 22.82-48.356.566-2.419 1.125-4.713 1.242-5.098.26-.857.958-.928.958-.097m-130.553 37.17c-1.42 1.863-1.463 1.827 2.153 1.827 1.867 0 3.2-.167 3.2-.4 0-.22-.232-.4-.515-.4-.283 0-1.138-.533-1.9-1.184-1.738-1.485-1.682-1.488-2.938.157M97.8 300.034c18.686 18.019 42.927 31.292 66.387 36.348 4.296.925 4.413.97 4.055 1.55-.567.917-14.505-2.927-24.042-6.632-20.506-7.964-45.683-25.992-56.121-40.183-2.618-3.56-2.002-3.228 2.021 1.089 2.035 2.184 5.5 5.707 7.7 7.828" fill="#126587"/><path d="M235.066 17.742c-1.246 2.718-2.266 5.039-2.266 5.157 0 .449 1.321.698 1.761.333.297-.246 1.165-.172 2.449.209l5.39 1.6c14.479 4.302 30.234 10.376 37 14.266.44.253 1.643.917 2.674 1.476 5.05 2.741 13.316 7.95 18.966 11.954 1.253.888 1.805 1.069 2.34.77.576-.322.662-.26.482.35-.162.55.313 1.154 1.823 2.322l2.042 1.58 1.737-1.918c2.05-2.266 2.175-2.158.517.445l-1.22 1.914 1.52 1.294c2.04 1.738 2.033 1.74 5.15-1.743l2.729-3.049-1.416-1.251a750.187 750.187 0 0 0-3.65-3.195c-1.234-1.075-2.146-2.175-2.037-2.46.109-.283.007-.633-.225-.776-.257-.159-.33-.019-.185.359.324.843-.1.78-1.511-.224-.677-.483-1.096-1.081-.976-1.394.119-.312-.172-.734-.675-.977-.853-.412-.857-.405-.109.194.462.369.568.622.264.622-.54 0-2.305-1.231-3.771-2.63-.478-.456-1.195-.95-1.594-1.097-.399-.147-.629-.425-.51-.617s-.151-.681-.599-1.087c-.617-.558-.889-.616-1.121-.241-.231.372-.574.286-1.38-.348-.59-.464-.978-.997-.863-1.183.206-.333-1.312-1.032-1.902-.876-.165.043-.3-.191-.3-.521s-.191-.6-.424-.6c-.233 0-.295.208-.138.462.177.286.11.353-.176.176-.254-.157-.465-.59-.468-.962-.005-.584-.061-.595-.407-.076-.342.511-.538.452-1.319-.4-.505-.55-1.175-1.059-1.489-1.132-.314-.073-.683-.313-.82-.534-.137-.221-.363-.387-.504-.368-.942.126-1.224.002-.721-.316.429-.273.41-.386-.1-.582-.349-.133-.634-.074-.634.132 0 .206-.285.265-.634.132-.481-.185-.513-.318-.131-.554.323-.199-.094-.471-1.166-.759-.918-.248-1.669-.634-1.669-.858 0-.225-.18-.297-.4-.161-.22.136-.4.062-.4-.164s-.3-.296-.666-.155c-.486.186-.576.111-.334-.281.242-.391.152-.467-.33-.282-.363.139-.641.125-.618-.032.117-.782-.106-1.021-.452-.486-.322.498-.39.464-.4-.2-.01-.664-.078-.698-.4-.2-.329.509-.389.49-.394-.124-.003-.398-.186-.612-.406-.476-.22.136-.4.062-.4-.164s-.3-.296-.666-.155c-.478.183-.575.109-.344-.265.215-.348.139-.459-.231-.336-.303.101-.791-.055-1.084-.348-.293-.293-.87-.532-1.284-.532-.413 0-.895-.253-1.071-.562-.176-.309-.68-.624-1.12-.7-.44-.076-.89-.244-1-.373-.11-.13-1.55-.744-3.2-1.366-1.65-.622-3.36-1.355-3.8-1.628-.44-.274-2.32-.973-4.177-1.553-1.858-.579-3.928-1.3-4.6-1.601-2.755-1.232-10.289-3.265-13.432-3.625-1.198-.137-2.289-.427-2.424-.646-.135-.218-.858-.491-1.606-.607-.749-.116-1.421-.375-1.494-.575-.327-.892-.878-.053-3.001 4.578m-78.078-.542c.575 1.951 2.376 5.709 2.523 5.266.284-.852-1.094-4.727-1.955-5.496-.861-.769-.862-.769-.568.23m5.607 19.12c-.217.192-1.865.654-3.662 1.027-12.887 2.675-32.409 10.236-42.033 16.28-.932.585-1.128 1.394-.558 2.293.33.519 2.306-.025 2.867-.789.277-.377 7.909-3.969 13.191-6.209 9.389-3.982 27.76-9.567 30.938-9.406.875.044 1.083-.085.9-.562-.131-.341-.238-.84-.238-1.11 0-.838-.98-1.9-1.405-1.524m66.755.666c-.658 1.716-.341 2.815.85 2.947 18.582 2.061 49.575 17.158 70.2 34.195 26.82 22.154 50.717 62.384 54.656 92.011.254 1.913.273 1.935 1.488 1.692 1.964-.393 1.971-.57.271-7.522-13.206-54.008-51.374-97.34-102.615-116.496-9.656-3.61-24.518-7.693-24.85-6.827m87.307 20.808c-.802 1.206-1.457 2.286-1.457 2.4 0 .404 3.848.198 4.275-.229 1.117-1.117.85.575-.32 2.031-2.074 2.581-1.081 2.241 1.236-.423l2.116-2.433-1.737-1.77c-2.199-2.241-2.355-2.225-4.113.424M167.6 61c-.37.446-.394 1.006-.094 2.188.51 2.012.481 2.032-4.506 3.18-16.467 3.792-35.597 13.196-50.8 24.972-2.854 2.21-2.855 2.227-.351 5.103 1.224 1.407 2.779 3.322 3.456 4.257 1.632 2.254 1.027 2.528 11.095-5.039 8.66-6.508 27.037-14.656 39.968-17.719 89.755-21.263 170.139 55.673 152.185 145.658-2.477 12.413-11.649 35.867-14.837 37.941-.219.143-.714.932-1.101 1.755-.758 1.615-1.415 1.652-1.415.08 0-.96-.601-1.171-3.089-1.085-.364.012-.381-.186-.068-.771.232-.434.322-.889.199-1.011-.348-.348-1.462.735-1.197 1.163.129.21-.121.475-.556.589-.435.114-.996.655-1.246 1.204-1.333 2.925-9.836 13.189-15.807 19.081-59.547 58.75-158.412 39.022-191.163-38.146-2.583-6.084-5.695-16.007-6.668-21.253-.463-2.501-.999-5.087-1.191-5.747-.192-.66-.459-2.01-.593-3-.246-1.817-2.482-3.2-5.172-3.2-3.534 0-3.639-20.603-.194-38 4.764-24.057 17.607-46.967 36.449-65.018 4.713-4.515 4.802-4.633 3.96-5.222-.473-.331-2.571-2.041-4.662-3.799l-3.802-3.197-5.649 5.518C81.884 119.91 68.079 144.057 63.18 167.2c-.987 4.661-1.076 4.785-3.456 4.794-1.547.006-2.521.542-1.975 1.088.125.126 1.151.046 2.278-.177 1.804-.357 7.042.428 7.775 1.164.072.072-.155 2.201-.503 4.731-1.213 8.824-.869 36.985.54 44.074.251 1.267-1.374 1.92-4.788 1.924-1.654.002-1.876.09-1.469.58.263.318.988 2.883 1.61 5.7 7.56 34.23 31.264 66.326 63.134 85.484 11.805 7.096 31.467 14.819 41.911 16.462l1.636.258.507-2.387c.767-3.616.356-3.454 6.662-2.625 8.021 1.054 31.194 1.048 38.889-.009 2.932-.403 5.419-.644 5.528-.536.372.373 1.451 4.879 1.741 7.275l.291 2.4.054-2.068c.053-1.997.1-2.078 1.355-2.333 50.738-10.343 94.351-53.276 104.865-103.232.321-1.522.692-3.052.826-3.4.194-.505-.378-.814-2.802-1.518-2.937-.854-3.037-.923-2.838-1.967 1.98-10.383 1.988-37.004.014-47.529-.237-1.26-.19-1.315 1.495-1.749.957-.246 2.668-.708 3.802-1.026 1.133-.318 2.542-.578 3.129-.578.804 0 1.033-.173.926-.7-.148-.731-.945-.824-2.771-.325l-1.053.288-1.094-4.731c-2.175-9.401-5.894-19.589-10.488-28.732-1.95-3.882-3.309-6.253-7.839-13.685-8.757-14.365-25.972-31.107-42.606-41.435-4.674-2.901-15.44-8.68-16.173-8.68-.13 0-1.375-.518-2.765-1.151-4.237-1.93-12.739-4.775-18.176-6.084-2.833-.682-5.391-1.313-5.684-1.402-.384-.117-.449-.524-.233-1.463.523-2.28.425-2.891-.484-3.021-.77-.11-.952.3-1.951 4.4-1.488 6.103-.883 5.788-8.2 4.28-5.892-1.215-33.527-.78-40.2.632-3.483.737-3.367.861-4.851-5.225-1.147-4.701-1.302-4.987-2.149-3.966M62.149 101.5c-12.595 17.296-21.699 37.001-26.985 58.409-1.819 7.366-1.813 7.501.349 7.934 1.21.242 1.287.188 1.294-.893.02-3.56 4.35-18.656 8.182-28.526 3.637-9.37 9.949-21.233 16.862-31.691 4.221-6.387 4.2-6.333 2.467-6.333-1.031 0-1.565.271-2.169 1.1m95.722 7.102c-5.949 1.635-7.843 5.032-7.861 14.098l-.01 4.9h-4.667c-10.276 0-14.734 2.449-16.106 8.85-.698 3.253-.553 124.097.151 126.071 2.037 5.712 6.117 7.776 15.422 7.801l4.6.013.244 5.133c.303 6.397.985 8.671 3.32 11.074 3.04 3.127 2.322 3.058 31.732 3.058h25.752l4.276-.972c27.344-6.214 45.079-25.651 48.683-53.354 1.202-9.247-1.056-20.503-6.391-31.859l-2.123-4.517 1.994-3.949c4.543-8.997 6.49-17.057 6.461-26.749l-.02-7.2-1.806-7.006c-6.46-25.071-24.298-41.156-50.322-45.375-5.182-.84-50.282-.855-53.329-.017m57.656 2.913c39.523 10.321 57.021 50.966 37.021 85.996l-.748 1.311 1.565 2.889c10.91 20.141 9.893 41.205-2.914 60.357-5.573 8.335-16.113 16.937-18.197 14.852-.095-.094-1.957.646-4.138 1.646-4.482 2.055-11.382 4.405-15.442 5.26-2.208.465-7.675.574-28.769.574-23.503 0-26.112.064-26.762.652-1.692 1.531-4.747-3.77-4.74-8.225.006-4.05.505-7.294 1.158-7.534.971-.357 1.226-.934 1.233-2.793l.006-1.7h-8.253c-11.199 0-12.547-.826-12.547-7.689 0-5.764-.37-8.107-1.349-8.537l-.851-.374-.218-27.6c-.435-54.994-.268-84.645.484-86 2.276-4.102 5.351-5.136 14.234-4.784l6.1.241v-6.641c0-13.822-1.132-13.369 33.2-13.264l25 .076 4.927 1.287m148.273 6.251c-.66.236-1.438.655-1.729.932-.29.276-.881.502-1.312.502-.431 0-.888.27-1.014.6-.127.33-.481.6-.788.6-.306 0-.557.36-.557.8 0 .44.115.8.255.8.499 0 6.888-3.185 7.11-3.544.443-.717-.736-1.131-1.965-.69m-1.3 3.48c-3.16 1.539-3.749 2.139-2.925 2.974 2.062 2.091 12.315 34.487 12.115 38.28-.032.605.07 1.099.226 1.098 1.363-.011 3.864-1.208 5.728-2.743 1.239-1.02 2.543-2.035 2.896-2.255.539-.335.578-.683.239-2.146-.222-.96-.31-2.13-.195-2.6.115-.47.105-.628-.022-.352-.396.864-.962.112-.962-1.277 0-.73-.294-2.024-.654-2.876-.359-.852-.881-2.449-1.16-3.549-.279-1.1-1.165-3.8-1.971-6-.805-2.2-1.609-4.456-1.787-5.013-.41-1.289-2.058-4.983-3.84-8.611-.764-1.553-1.388-3.038-1.388-3.3s-.168-.476-.374-.476-.602-.63-.88-1.4c-.635-1.755-.972-1.738-5.046.246M166.8 128.2c0 3.78.124 4.035.974 2 .585-1.399 1.426-1.896 1.426-.842 0 .469 2.359.549 14.7.5l14.7-.058 1.772 1c3.217 1.816 5.389 9.2 2.705 9.2-1.17 0-3.574 3.203-3.039 4.048 1.483 2.341-.789 2.753-15.146 2.747-12.996-.006-14.287-.11-13.901-1.116.326-.85-.487-1.266-2.491-1.273l-1.7-.006.004 4.3c.006 5.714.294 7.42 1.213 7.18.933-.244 1.183 1.091 1.183 6.32 0 4.971-.295 6.647-1.211 6.887-.789.206-1.189 2.343-1.189 6.345 0 2.637.371 3.366 1.204 2.364.733-.884 1.128-.728 1.269.504l.127 1.1 14.6.2c15.82.217 15.948.234 18.316 2.519 1.505 1.451 2.658 4.782 2.264 6.543-.507 2.27-.626 2.463-1.671 2.725-.584.147-1.725.792-2.536 1.434-.811.643-1.902 1.339-2.424 1.548-.803.322-.653.384.975.406 2.208.029 2.189.568-.052 1.504-1.225.512-3.155.549-13.451.259-6.612-.186-11.031-.382-9.821-.435 1.999-.088 7.673-.542 16.2-1.296 1.843-.163-4.194-.309-14.237-.345-19.859-.071-19.914-.079-21.856-3.492l-.894-1.57-.006-22.5-.007-22.5H146v6.351c0 5.107.115 6.447.589 6.84 1.273 1.056 1.455 5.718 1.597 40.809.134 33.233.031 36.141-1.286 36.328l-.9.128.014 8.872.015 8.872.9-1.1c.88-1.074 6.251-1.759 6.28-.8.005.165.375.75.822 1.3l.813 1-.134-2.881c-.108-2.318-.309-3.066-1.031-3.835l-.898-.955-.09-18.965-.091-18.964 1-1.966c.608-1.195 1.681-2.449 2.739-3.2l1.738-1.234 19.862-.299c22.333-.337 22.023-.368 24.613 2.499 3.413 3.777 2.138 11.019-2.352 13.364-3.018 1.576-25.759 1.362-25.491-.24.114-.678-4.398-1.391-6.724-1.063l-.985.139-.105 16.6c-.111 17.774-.092 18.084 1.045 17.054.959-.867 1.18-.826 1.332.246l.128.9 14.666.2 14.667.2 1.733 1.205c5.108 3.552 4.611 11.664-.887 14.495-1.666.857-2.156.897-10.364.844-4.738-.031-7.674-.171-6.525-.31 2.085-.254 3.331-.946 2.75-1.527-.168-.169-4.431-.369-9.473-.445l-9.167-.138v2.638c0 2.829.023 2.868 1.285 2.193.667-.357.904-.318 1.194.2.325.58 2.4.645 20.696.645h20.336l3.373-.978c14.638-4.242 25.904-15.459 29.551-29.422 1.629-6.234 1.572-6.091 2.343-5.89 1.501.393 1.284-8.309-.366-14.696-1.372-5.31-2.556-4.692-1.432.749.341 1.652.6 3.416.575 3.92-.025.504-.266-.253-.537-1.683-1.053-5.562-3.303-10.735-7.395-17.004-3.452-5.287-3.385-8.614.287-14.302 9.253-14.33 10.418-26.834 3.749-40.232-4.746-9.535-11.199-16.024-20.175-20.286-4.831-2.295-3.815-2.393 3.113-.301 2.092.632-.5-1.11-3.712-2.495-6.993-3.014-6.484-2.965-30.985-2.973l-21.9-.007v3.4m33.4-2.167 1.6.508-1.6.355c-4.394.977-17.885.424-14.383-.59 3.801-1.1 11.328-1.243 14.383-.273m10 3.968c.137.22-.168.562-.676.76-.508.197-1.618.835-2.467 1.416l-1.543 1.057-1.315-1.517c-.724-.834-1.234-1.652-1.134-1.817.275-.453 6.851-.36 7.135.101m9.84 3.458c10.053 4.837 16.785 13.023 20.025 24.348 1.733 6.059 1.029 16.786-1.102 16.791-.836.002-1.565 1.257-3.162 5.44-4.314 11.304-7.829 14.362-16.506 14.362-6.279 0-6.583-.081-9.186-2.457-.93-.849-1.97-1.543-2.31-1.543-3.177 0-.689-7.73 3.065-9.523 2.121-1.012 9.848-1.38 10.887-.518.522.433.838.047 2.234-2.73 2.705-5.38 2.925-6.796 1.75-11.267-3.625-13.787-4.965-15.973-11.916-19.44-3.318-1.655-4.889-3.018-5.221-4.533-.179-.812-.548-1.159-1.42-1.333-1.097-.22-1.178-.361-1.178-2.059 0-6.704 6.384-9.222 14.04-5.538M205.75 147.1c.576.9 1.739 1.898 2.905 2.494 10.702 5.47 13.131 8.578 13.137 16.806.003 4.183-.1 4.836-1.134 7.2-1.666 3.807-1.791 3.898-5.584 4.06-3.64.156-5.865 1.044-8.19 3.269l-1.316 1.259-.947-1.21c-.521-.665-1.999-1.743-3.284-2.394L199 177.4l-13.451-.12-13.451-.119-.244-1.481c-.603-3.641-.28-25.985.379-26.237.348-.134 6.243-.247 13.1-.253 13.955-.01 14.744-.109 17.122-2.144 2.086-1.786 2.118-1.785 3.295.054M16 160.564c0 .21 3.806 2.636 4.135 2.636.146 0 .265-.27.265-.6 0-.33-.083-.6-.185-.6s-1.092-.357-2.2-.794c-1.108-.437-2.015-.726-2.015-.642m5.692 2.711c.199.598 1.108.927 1.108.401 0-.215-.285-.5-.633-.633-.39-.15-.573-.061-.475.232m213.7 23.025c-1.144 2.777-4.992 7.825-4.992 6.549 0-1.088 1.21-3.22 3.156-5.558 2.407-2.892 2.681-3.04 1.836-.991M155.3 197.401c2.139 1.181 2.338 1.602.925 1.957-.536.134-1.876 1.123-2.979 2.197-2.484 2.42-2.446 2.466-2.446-2.955 0-5.15.139-5.474 1.557-3.614.574.752 1.898 1.839 2.943 2.415m51.234-2.046c.344.525 1.264 1.35 2.046 1.832 1.448.896 1.903 2.013.82 2.013-.331 0-1.3.72-2.154 1.6-.854.88-1.681 1.6-1.838 1.6-.157 0-1.103-.72-2.103-1.6-1-.88-2.062-1.6-2.361-1.6-1.047 0-.529-.733 1.259-1.781.992-.581 2.092-1.498 2.446-2.038.802-1.223 1.098-1.227 1.885-.026m15.006.645c2.765 0 3.699.121 3.382.438-.674.674-12.329.325-13.003-.389-.439-.467-.035-.513 2.641-.3 1.739.138 4.88.251 6.98.251m9.96 2.618c-.017 1.153-.187 1.75-.464 1.631-2.963-1.273-3.207-1.709-1.536-2.746 1.72-1.066 2.031-.893 2 1.115m-5.435 2.24c5.102 1.108 11.38 10.914 13.978 21.833 1.184 4.977.964 12.651-.367 12.84-.509.072-.985.342-1.059.6-1.305 4.561-2.908 9.266-3.669 10.769-.529 1.045-.898 1.9-.821 1.9.214 0 2.889-3.972 4.041-6 1.245-2.191 1.267-2.048.19 1.234-2.244 6.84-8.179 13.75-14.358 16.717-1.16.557-1.444.619-.8.175 1.112-.768 5.906-5.487 6.817-6.71.645-.868.149-.531-3.762 2.556-1.07.844-3.652 2.411-5.738 3.482-4.079 2.094-3.416 1.987-10.914 1.747-1.915-.061-3.074-1.279-3.645-3.832-1.046-4.676 1.302-8.028 7.105-10.142 8.778-3.197 13.768-13.377 11.114-22.672-.183-.641-.032-.9.627-1.072 1.047-.274.95-.729-1.098-5.174-2.033-4.414-2.026-4.41-7.146-4.246-2.978.095-4.345.29-4.46.637-.629 1.89-4.488-1.283-5.32-4.374-1.43-5.312 1.228-9.905 6.22-10.747 2.093-.353 10.682-.038 13.065.479m-19.093 15.981c1.644 1.845 4.302 2.855 8.228 3.126l3.4.235 1.255 2.549c4.816 9.785 1.768 18.261-8.255 22.956-3.069 1.437-4.656 2.454-5.893 3.779l-1.693 1.812-1.401-1.231c-2.557-2.245-4.171-2.465-18.086-2.465H172v-27.2l12.5-.005c15.015-.005 18.03-.58 20.166-3.84.804-1.227.979-1.205 2.306.284m-149.293 8.907c.388.416.798.45 1.716.141 1.777-.598 1.732-.687-.344-.687-1.573 0-1.799.09-1.372.546m283.954.816c.308.301 8.034 2.304 8.209 2.129.095-.095-1.6-.65-3.768-1.232-3.863-1.038-4.775-1.222-4.441-.897m13.26 5.364c-.169 3.018-3.864 16.893-5.554 20.85-.334.783-1.151 2.95-1.816 4.814-1.932 5.419-6.546 15.143-10.252 21.61-21.522 37.555-57.706 65.384-99.407 76.453-3.335.886-6.902 1.663-7.926 1.727l-1.861.118-.669-2.385c-.368-1.312-.743-2.311-.833-2.221-.217.217 1.141 5.134 2.792 10.108.73 2.2 1.64 5.305 2.023 6.9.383 1.595.869 2.9 1.08 2.9.211 0 .286-.315.166-.7-.762-2.442-2.531-11.144-2.307-11.349.149-.136 2.971-.899 6.271-1.694 58.049-13.982 104.807-60.652 119.819-119.59 1.46-5.735 1.769-6.561 2.332-6.241 1.642.932 10.907 2.689 11.129 2.11.12-.314.152-.62.069-.681-.29-.215-7.379-2.256-9.449-2.721-1.155-.259-2.1-.612-2.1-.784 0-.256-2.48-1.144-3.2-1.146-.11 0-.248.864-.307 1.922M35.84 231.01c-1.078.296-2.068.7-2.2.898-.132.198-1.32.648-2.64 1.001-8.254 2.207-9 2.476-9 3.234 0 .537.199.684.7.517 3.455-1.151 10.413-3.053 10.857-2.967.36.069 1.219 2.59 2.429 7.128C51.703 299.767 98.46 345.69 156.712 359.393c7.023 1.652 6.401.75 4.929 7.155-2.152 9.361-1.436 8.104 1.337-2.348.35-1.32.806-2.7 1.012-3.068.501-.889 2.098-7.178 1.878-7.397-.094-.095-.296.331-.447.946-.838 3.406-1.212 3.456-9.757 1.311C100.903 342.243 56.722 299.745 40.276 245c-3.219-10.719-3.66-13.591-2.176-14.188 1.336-.536-.016-.418-2.26.198m335.607 4.011c-.136.354-.247 1.176-.247 1.826 0 4.412-6.964 26.18-11.663 36.455-17.96 39.276-52.332 72.927-91.937 90.009C256.017 368.307 237.91 374 233.603 374c-2.017 0-1.289 3.602 1.179 5.832.989.893 1.624 1.877 1.793 2.776.196 1.046.463 1.392 1.072 1.392 1.103 0 9.439-1.936 10.278-2.388.371-.199 3.015-1.017 5.875-1.817 2.86-.801 5.74-1.704 6.4-2.007.66-.303 3-1.216 5.2-2.028s4.09-1.587 4.2-1.723c.11-.135 1.73-.858 3.6-1.607s3.67-1.569 4-1.823c.33-.253 2.127-1.136 3.993-1.961 1.866-.824 3.486-1.622 3.6-1.773.114-.15 1.737-1.06 3.607-2.022 1.87-.963 3.49-1.873 3.6-2.024.11-.151 1.46-.968 3-1.816 1.54-.848 2.89-1.673 3-1.833.11-.159 1.325-.949 2.7-1.753 1.375-.805 2.5-1.635 2.5-1.844 0-.21.225-.39.5-.401.275-.011 1.58-.819 2.9-1.794 1.32-.975 3.435-2.503 4.7-3.395 1.265-.891 2.3-1.765 2.3-1.942 0-.176.405-.506.9-.732.495-.226 1.62-1.049 2.5-1.828l5.373-4.752c5.355-4.735 12.72-12.198 17.11-17.337 5.398-6.319 6.421-7.55 7.423-8.937 3.926-5.43 4.694-6.521 4.694-6.662 0-.088.434-.628.963-1.199.53-.572 1.239-1.621 1.576-2.331.337-.71 1.029-1.778 1.537-2.374.508-.596 1.464-2.121 2.124-3.39.66-1.269 1.335-2.407 1.499-2.53.523-.39 3.735-6.358 7.092-13.177 1.787-3.63 3.533-7.14 3.879-7.8.615-1.175 2.788-6.817 3.234-8.4.124-.44.355-.89.513-1 .424-.295 2.791-7.884 3.049-9.774.246-1.801.517-2.374.565-1.193.017.422.252.047.524-.833.313-1.017.351-1.696.104-1.864-.23-.156-.118-.534.276-.928.785-.786.871-1.179.165-.755-.287.173-.244-.014.1-.438.33-.406.544-1.07.475-1.476-.069-.407.049-.739.262-.739.214 0 .294-.36.179-.8-.122-.467-.012-.8.264-.8.285 0 .377-.306.231-.766-.134-.422-.053-.884.179-1.028.233-.144.319-.429.193-.634-.127-.204-.104-.576.05-.825 1.442-2.334-1.822-6.561-5.822-7.54a77.607 77.607 0 0 1-2.464-.637.742.742 0 0 0-.9.451m-355.082 2.1c-2.08 1.034-4.353 2.115-5.051 2.403-1.291.532-1.328.727-.503 2.676.186.44 1.007 3.545 1.823 6.9.816 3.355 1.637 6.1 1.825 6.1.187 0 .341.247.341.549 0 .804 3.219 10.772 3.65 11.303.202.248 1 2.221 1.773 4.385.773 2.163 1.538 4.03 1.699 4.148.161.118.987 1.835 1.835 3.815s1.673 3.69 1.833 3.8c.161.11 1.043 1.73 1.962 3.6 2.131 4.337 5.232 10.014 5.681 10.4.128.11.913 1.37 1.744 2.8.831 1.43 1.626 2.69 1.767 2.8.141.11 1.097 1.46 2.125 3 2.745 4.115 5.196 7.544 5.716 8 .251.22.972 1.173 1.602 2.117.63.945 1.345 1.845 1.589 2 .244.156.733.733 1.087 1.283 3.159 4.909 23.163 24.65 28.293 27.921.574.366 1.269.968 1.544 1.339.275.371 1.175 1.078 2 1.571.825.493 1.95 1.298 2.5 1.789 1.32 1.179 8.701 6.18 9.121 6.18.181 0 .711.357 1.18.794.816.76 1.859 1.413 4.881 3.055.76.413 1.639.987 1.953 1.276.315.288 1.403.941 2.418 1.449 1.016.509 4.367 2.225 7.447 3.813 5.614 2.896 10.793 5.209 11.667 5.212.256 0 .526.177.6.392.073.216 1.933 1.031 4.133 1.811 2.2.781 4.562 1.683 5.249 2.004.687.32 3.477 1.217 6.2 1.993 2.723.775 5.311 1.59 5.751 1.811 2.462 1.235 11.585 2.825 12.081 2.105.27-.393 1.133-1.348 1.917-2.122.975-.963 1.61-2.099 2.009-3.6.94-3.531 1.092-3.352-3.707-4.349-18.682-3.878-43.688-14.529-59.3-25.258-23.22-15.957-43.348-36.964-54.601-56.986-.618-1.1-1.787-3.08-2.597-4.4-7.247-11.812-18.802-42.563-18.802-50.039 0-1.916-.277-1.906-4.435.16m204.421 25.45c-1.7 1.655-7.181 2.631-9.386 1.67-1.109-.483-.88-.537 3-.701 2.89-.122 4.574-.385 5.4-.843 1.492-.827 1.737-.858.986-.126m-13.201 3.045c.762.651 1.617 1.184 1.9 1.184.283 0 .515.18.515.4 0 .233-1.333.4-3.2.4-3.616 0-3.573.036-2.153-1.827 1.256-1.645 1.2-1.642 2.938-.157m-38.884 76.251c-.384 1.688-.63 3.137-.547 3.22.224.225 1.547-5.385 1.384-5.872-.076-.23-.453.963-.837 2.652M223.293 340c0 .77.082 1.085.183.7.1-.385.1-1.015 0-1.4-.101-.385-.183-.07-.183.7" fill="#41391f"/><path d="M158 40.768c-11.23 2.706-25.348 7.814-34.506 12.486-2.116 1.08-1.664 1.362.616.385 1.002-.43 2.198-.684 2.656-.564.478.125.834.027.834-.228 0-.246.27-.447.6-.447.33 0 .6.201.6.447 0 .245.344.356.765.246.514-.134.829.042.958.535.157.599.456.693 1.608.506 1.368-.222 1.424-.182 1.687 1.222.15.799.432 1.551.627 1.672s.355.554.355.962c0 .409.171.803.379.877.903.317.66 6.51-.296 7.536-.497.534-.878 1.246-.847 1.584.193 2.096.004 2.305-3.636 4.035-1.98.941-3.6 1.843-3.6 2.005 0 .162-.521.476-1.158.698-3.086 1.076-18.208 11.736-20.742 14.622-1.975 2.25-3.365 2.8-4.923 1.95-.94-.513-1.323-.569-1.455-.211-.118.319-.409.365-.851.134-.963-.503-5.978-2.02-6.679-2.02-.326 0-.592-.18-.592-.4 0-.22-.509-.4-1.13-.4-.692 0-1.499-.392-2.082-1.013-.523-.556-1.901-1.288-3.062-1.626-1.161-.337-2.217-.785-2.346-.994-.13-.209-.448-.263-.708-.12-.259.144 1.142-1.381 3.114-3.387 3.689-3.753 3.835-4.151 1.715-4.675-1.005-.248-1.553.184-6.4 5.048-2.916 2.926-4.662 4.746-3.882 4.044 1.317-1.185 3.987-1.841 3.978-.977-.002.165-1.127 1.587-2.5 3.161-4.919 5.636-6.206 7.198-9.371 11.368-11.279 14.861-22.952 36.75-22.266 41.754.226 1.652.147 2.011-.569 2.569-.539.419-.878 1.212-.962 2.248l-.129 1.6 2.783.12c3.264.141 3.688.412 4.273 2.736.241.959.644 1.744.895 1.744 1.442 0 1.763 4.458.398 5.523-.702.548-.703.569-.02.332 1.005-.348 2.271.41 2.271 1.359 0 .562.272.786.957.786 1.053 0 1.443.658 1.443 2.433 0 1.61-1.509 1.515-2.117-.133-.368-1-1.085-.866-1.07.2.013.95 1.656 3.1 2.368 3.1.23 0 .429.405.442.9.012.495.979-1.89 2.148-5.3 5.952-17.357 8.226-22.775 13.347-31.8 6.139-10.819 13.678-20.614 23.269-30.231 7.445-7.466 7.664-7.575 10.494-5.199 2.493 2.093 3.639 1.106 1.519-1.309-2.418-2.754-2.209-3.069 5.972-8.982 14.933-10.794 29.837-17.923 46.594-22.288 3.721-.969 6.961-1.958 7.2-2.198.585-.586.551-5.637-.046-6.835-.731-1.466-1.83-7.056-1.494-7.6.201-.325.128-.377-.222-.16-.392.242-.47.06-.317-.739.111-.582.026-1.059-.189-1.059s-.297-.36-.182-.8c.115-.44.067-.8-.107-.8s-.41-.36-.525-.8c-.258-.988-.257-.988-5.884.368m71.499 2.085a797.266 797.266 0 0 1-2.053 8.247c-1.806 7.118-1.857 8.396-.346 8.723 51.434 11.16 94.267 52.588 106.884 103.377 2.077 8.361 2.147 8.411 9.321 6.548 11.842-3.073 10.899-2.744 10.847-3.789-.052-1.023-1.022-5.247-1.973-8.594-.319-1.119-.579-2.446-.579-2.949 0-1.288-2.473-8.874-4.895-15.016-6.488-16.45-14.259-29.639-26.516-45-11.603-14.542-31.916-30.69-50.482-40.13-11.857-6.03-30.156-12.67-37.805-13.718l-1.797-.246-.606 2.547M115.087 57.797c-5.378 3.1-8.2 4.886-15.368 9.727-1.364.922-2.56 1.676-2.657 1.676-.42 0 .532-2.934 1.202-3.708.967-1.116-3.804 2.57-6.511 5.031-1.938 1.762-2.078 2.004-1.67 2.9.613 1.346 1.117 1.241 3.58-.748 5.134-4.144 13.77-10.066 18.975-13.012 6.729-3.809 9.123-5.245 8.752-5.254-.225-.005-3.062 1.52-6.303 3.388M188 74.825c-49.103 3.263-91.965 35.515-108.528 81.663-2.869 7.992-3.734 11.945-2.974 13.588.337.728.735 1.729.884 2.224.15.495.418.9.596.9.179 0 .54.519.803 1.153.262.634.93 1.547 1.484 2.029.928.807.99 1.069.789 3.347l-.218 2.471.549-2.8c1.915-9.755 6.218-22.219 7.56-21.896 1.093.264 2.655 1.669 2.655 2.389 0 .305.187.439.414.298.228-.141 1.128.457 1.999 1.328l1.585 1.585-.26 2.487c-.281 2.684-.002 3.191 1.762 3.203.5.003.9.254.9.563 0 .603.837 1.043 1.984 1.043.395 0 .924.248 1.176.552.252.303 1.023.665 1.713.803.691.138 1.499.598 1.796 1.023.382.545.997.765 2.09.75 1.52-.021 3.241 1.088 3.241 2.09 0 .229.315.364.7.3.467-.079.742.181.827.778.07.494.445 1.124.832 1.4.388.277 1.026.999 1.419 1.604.393.605.873 1.1 1.068 1.1.309 0 1.779 1.457 5.739 5.684.558.596 1.015 1.284 1.015 1.527 0 .268.332.338.839.176.715-.226.8-.141.574.574-.18.564-.093.839.264.839.292 0 .755.36 1.03.8.275.44.869.8 1.32.8.451 0 .709.18.573.4-.136.22.033.4.376.4.376 0 .624.35.624.88 0 .557.14.74.381.499.228-.228.478-11.25.625-27.58.256-28.392.345-29.803 2.086-33.063 2.124-3.976 4.938-5.163 13.023-5.494l5.915-.242.184-5.092c.3-8.295 2.212-11.733 7.549-13.578 2.878-.995 50.199-1.1 55.348-.123 30.217 5.732 50.446 28.68 51.598 58.534.356 9.245-3.019 22.824-7.474 30.064l-1.271 2.066 1.159 2.065c1.021 1.818 4.477 9.565 4.477 10.034 0 .098.171.627.379 1.175l.379.998 3.721-1.355c14.246-5.185 30.071-13.395 43.221-22.422 4.053-2.782 4.3-2.895 4.3-1.959 0 .546.199.993.442.993.309 0 .356-.961.158-3.2-.271-3.06-.247-3.2.544-3.2.456 0 1.669-.286 2.697-.635 1.42-.482 1.94-.519 2.164-.157 1.256 2.032.145-5.225-2.173-14.191C301.859 109.855 247.468 70.873 188 74.825m22.2 8.371c26.072 3.031 51.42 15.287 68.8 33.266l4 4.138-3.8-3.624c-7.699-7.342-12.692-11.193-22.8-17.581-15.669-9.902-38.804-16.195-59.542-16.195-34.447 0-65.128 13.963-89.209 40.6-1.392 1.54-2.046 2.17-1.451 1.4 2.754-3.571 5.127-6.164 9.773-10.685 4.386-4.268 4.941-4.951 4.389-5.4-.348-.283-1.481-1.444-2.518-2.579l-1.885-2.065.903-.841.903-.842 2.156 2.106c1.185 1.158 2.273 2.41 2.418 2.781.228.584.542.477 2.333-.8 7.782-5.544 9.703-6.875 9.921-6.875.136 0 1.234-.631 2.44-1.403 6.175-3.949 17.074-8.648 26.569-11.454 8.537-2.523 12.35-3.19 25.8-4.51 2.709-.267 16.994.12 20.8.563m-5.77 47.904c.534.605.998 1.158 1.033 1.23.077.158 3.337-1.975 3.337-2.183 0-.081-1.201-.147-2.67-.147h-2.669l.969 1.1m8.675 1.183c.497.096 1.217.092 1.6-.008.382-.1-.025-.179-.905-.174-.88.004-1.193.086-.695.182m-10.47 15.348c-2.895 2.177-4.345 2.369-17.908 2.369H172.4v26.76l13.3.14c14.847.157 15.384.239 18.128 2.769l1.744 1.607 1.797-1.472c2.208-1.81 4.724-2.604 8.248-2.604h2.689l1.095-2.3c4.896-10.288 2.204-17.936-8.195-23.277-2.423-1.245-4.441-2.607-5.348-3.611-.801-.887-1.501-1.6-1.557-1.585-.056.015-.805.557-1.666 1.204M54.8 170.6c0 .622.227 1 .6 1s.6-.378.6-1-.227-1-.6-1-.6.378-.6 1m96.812 28.222c.009 2.731.124 3.586.415 3.087.221-.38 1.22-1.253 2.219-1.941l1.816-1.249-.931-.62c-.512-.341-1.516-1.168-2.231-1.838l-1.3-1.218.012 3.779m51.835-1.793c-1.075.989-1.885 1.843-1.8 1.898.084.056.964.746 1.956 1.534l1.803 1.434 1.967-1.731 1.967-1.731-1.77-1.6c-2.154-1.947-1.774-1.966-4.123.196m26.443.866c-.638.71-.647.843-.09 1.305.799.663 1.093.344.93-1.011-.128-1.069-.139-1.073-.84-.294m-25.866 19.949c-2.736 2.658-3.12 2.735-14.824 2.956-5.83.11-10.293.326-9.918.481.375.154 1.05.209 1.5.122.45-.086.818-.007.818.177 0 .542 1.153.833 4.166 1.051 1.559.112 3.374.305 4.034.428.66.123 1.56.273 2 .332.44.059.89.157 1 .219 1.419.795 25.505.218 26.355-.631.975-.976-.875-2.086-3.919-2.352-4.391-.383-5.448-.744-7.67-2.617-1.05-.885-1.967-1.586-2.038-1.556-.07.029-.747.655-1.504 1.39M334.242 228.7c-.117.385-.676 2.679-1.242 5.098-3.621 15.469-12.995 35.333-22.82 48.356a2671.652 2671.652 0 0 0-3.164 4.2c-17.319 23.097-48.916 43.308-77.851 49.797-3.635.816-5.751 1.867-3.698 1.839 11.103-.156 39.733-13.202 56.933-25.942 19.39-14.364 36.395-36.801 46.115-60.848 2.76-6.828 6.685-20.095 6.685-22.597 0-.831-.698-.76-.958.097M86.4 288.535c0 1.651 13.235 15.269 20.217 20.803 15.069 11.942 31.064 20.459 48.183 25.655 6.6 2.003 13.137 3.433 13.442 2.939.358-.58.241-.625-4.055-1.55-26.934-5.805-52.582-21.098-74.087-44.176-2.035-2.184-3.7-3.836-3.7-3.671" fill="#6bcff8"/><path d="M181 1.85c-11.705 1.141-14.457 1.462-14.798 1.729-.221.173-2.154.541-4.295.818-4.44.575-4.297.466-5.507 4.203-.499 1.54-1.078 3.017-1.288 3.282-.209.266-.279.648-.154.851.125.202-.444.475-1.265.606-.821.132-2.663.591-4.093 1.021-1.43.43-4.653 1.351-7.162 2.046-2.51.696-4.85 1.414-5.2 1.596-.351.183-2.078.817-3.838 1.411-8.98 3.029-11.521 4.896-9.787 7.187.167.22.265 1.975.218 3.9-.047 1.925-.022 3.5.055 3.5.078 0 2.16-.796 4.628-1.769 8.219-3.24 24.359-7.937 29.876-8.695 2.436-.335 1.295 1.143-1.271 1.646-1.386.271-2.699.633-2.919.803-.22.171-1.084.434-1.921.585-1.681.303-2.25 1.144-1.542 2.278.255.407.463 1.464.463 2.347 0 1.16.166 1.605.6 1.605.848 0 .751 1.193-.1 1.232-.418.018-.499.112-.2.233.824.332.607 2.676-.3 3.242-.44.275-.8.746-.8 1.046 0 .301-.495.646-1.1.768-1.544.31-3.446 1.066-3.229 1.283.1.1 2.614-.52 5.587-1.377 2.972-.858 6.56-1.781 7.973-2.051 1.413-.27 2.781-.657 3.041-.859.647-.505 1.161.556 1.694 3.493.238 1.315.797 3.65 1.242 5.19 1.9 6.58 3.178 12.317 2.947 13.235-.268 1.07 2.034 10.934 2.787 11.937.409.545.759.547 3.258.019 6.883-1.457 34.285-1.837 40.6-.564 4.829.973 5.809 1.087 6.194.72.659-.627 3.065-9.998 3.171-12.347.073-1.64 3.701-17.453 4.826-21.04.265-.846 15.395 3.333 24.809 6.853 47.114 17.613 84.021 56.516 99.36 104.733 2.139 6.726 4.96 18.296 4.557 18.692-.175.171-4.456 1.419-9.515 2.773-5.059 1.355-9.317 2.537-9.463 2.627-.145.089-1.611-.046-3.258-.302-2.528-.394-3.358-.366-5.337.174-1.289.352-3.127.843-4.084 1.091-1.684.437-1.732.492-1.495 1.752 1.862 9.929 1.984 34.741.225 46.024-.446 2.861-.853 2.443 3.724 3.817 3.523 1.058 4.001 1.109 6.74.725 3.216-.451 1.675-.765 18.313 3.726 2.292.619 4.272 1.283 4.4 1.475.128.193 1.133.564 2.233.826 2.14.508 9.101 2.526 9.349 2.709 1.949 1.44-8.492.107-11.198-1.429-.563-.32-.872.506-2.332 6.241-15.012 58.938-61.77 105.608-119.819 119.59-3.3.795-6.122 1.558-6.271 1.694-.224.205 1.545 8.907 2.307 11.349.12.385.045.7-.166.7-.211 0-.697-1.305-1.08-2.9-.383-1.595-1.298-4.7-2.033-6.9-2.909-8.702-6.157-22.357-6.159-25.896-.001-1.817-.17-3.934-.375-4.704-.204-.77-.57-2.165-.813-3.1-.791-3.05-1.011-1.814-.927 5.2l.082 6.9-1.682.244c-.926.135-1.908.16-2.183.058-1.035-.388-.255-12.6.858-13.433.243-.182-.533-.217-1.725-.078-11.751 1.377-29.196 1.369-39.738-.017l-1.904-.25.423 1.114c.233.613.533 3.78.667 7.038.159 3.868.395 5.927.681 5.932.465.008 9.01.987 12.538 1.436 1.155.147 2.1.324 2.1.393 0 2.16-1.131 2.505-9.269 2.824l-6.669.263-1.085 3.038c-.597 1.671-2.398 6.368-4.002 10.438-1.604 4.07-4.094 10.46-5.533 14.2-1.439 3.74-2.622 6.641-2.629 6.446-.014-.369 5.546-21.934 8.416-32.646l1.662-6.2-.388-6.4c-.214-3.52-.239-6.805-.056-7.3.196-.53.179-.9-.041-.9-.207 0-.551.675-.766 1.5-1.569 6.013-1.709 6.838-1.505 8.854.208 2.049-4.203 21.14-5.36 23.203-.198.354-.647 1.723-.997 3.043-2.773 10.452-3.489 11.709-1.337 2.348 1.472-6.405 2.094-5.503-4.929-7.155C98.46 345.69 51.703 299.767 35.986 240.821c-1.21-4.538-2.069-7.059-2.429-7.128-.444-.086-7.402 1.816-10.857 2.967-.501.167-.7.02-.7-.517 0-.758.746-1.027 9-3.234 1.32-.353 2.509-.805 2.642-1.005.133-.2 2.563-.96 5.4-1.69a647.038 647.038 0 0 0 11.158-3.008c4.144-1.162 7.608-1.846 11.2-2.212 6.358-.649 6.707-.765 6.433-2.145-1.737-8.764-1.734-38.958.004-47.714.27-1.363-.999-1.887-2.322-.961-.491.344-1.538.626-2.327.626-.788 0-3.388.359-5.777.798l-4.344.798-11.234-2.769c-21.411-5.277-28.743-6.418-29.466-4.584-1.387 3.518-2.478 13.693-3.21 29.934-.4 8.853-.57 10.485-1.159 11.117-.781.838-.899.2-1.431-7.694-.404-6.005 1.039-27.075 2.458-35.892.199-1.234.081-1.374-2.651-3.124-3.352-2.149-3.177-2.227-3.823 1.721-3.21 19.613-3.347 48.107-.327 67.695.913 5.924.588 5.405 4.127 6.584 3.579 1.192 2.456 1.441 9.822-2.185 4.475-2.203 4.616-2.199 4.655.125.016.922.191 2.036.391 2.476.262.579.3.399.136-.654-.252-1.613.488-2.555.834-1.062.116.504.492 2.176.835 3.716 10.443 46.919 46.254 92.108 91.376 115.303 12.93 6.647 33.516 14.156 42.503 15.503 2.31.347 3.129.842 2.297 1.388-.487.32-.431.395.3.4 1.712.012.508 5.087-1.686 7.112-1.627 1.502-3.361 4.828-2.727 5.232.226.144.836 1.587 1.355 3.207.656 2.044 1.192 3.04 1.751 3.252 1.185.45 11.665 1.913 17.207 2.401 2.64.233 5.61.538 6.6.677 3.012.424 26.935.58 27.8.181.44-.203 3.453-.568 6.695-.811 7.534-.566 17.971-2.03 18.558-2.603.249-.243.77-1.432 1.159-2.642.388-1.21.9-2.326 1.138-2.48.591-.383.552-3.619-.046-3.819-.263-.087-.594-.773-.734-1.522-.163-.868-.814-1.867-1.788-2.747-1.991-1.799-3.223-5.832-1.782-5.832.33 0 .6-.24.6-.533 0-.34 1.265-.831 3.5-1.357 64.949-15.308 118.177-68.502 132.293-132.21.712-3.212 1.233-3.897 1.52-2 .111.732.189.498.233-.7.131-3.564 3.499-3.323 7.884.565 3.081 2.732 3.611 2.834 7.841 1.521l3.495-1.086.38-1.8c.208-.99.591-3.51.85-5.6.258-2.09.625-4.16.814-4.6 1.901-4.423 1.908-49.871.008-54.4-.184-.44-.647-3.05-1.028-5.8-.85-6.131-.769-5.922-2.429-6.234-.748-.14-1.361-.382-1.361-.537 0-.482-4.377-1.69-5.189-1.432-.833.264-1.197-.646-2.028-5.075-.46-2.449-2.309-9.264-2.909-10.722-.136-.33-.814-2.4-1.506-4.6-.692-2.2-1.37-4.18-1.507-4.4-.137-.22-.267-.49-.288-.6-.022-.11-.267-.74-.544-1.4-.277-.66-1.037-2.633-1.688-4.384-.651-1.752-1.335-3.372-1.521-3.6-.186-.229-.928-1.856-1.649-3.616-.722-1.76-1.519-3.47-1.771-3.8-.253-.33-1.223-2.217-2.156-4.192-.933-1.976-1.823-3.686-1.979-3.8-.156-.115-.894-1.378-1.639-2.808-.746-1.43-1.776-3.109-2.291-3.731-.514-.622-.935-1.298-.935-1.502 0-.312-2.363-3.977-7.111-11.03-1.534-2.279-5.175-7.081-6.159-8.122-.511-.541-1.495-1.759-2.185-2.706-.69-.948-1.725-2.093-2.3-2.545-.575-.452-1.045-1.018-1.045-1.258 0-1.383-15.163-15.969-24.154-23.234-1.955-1.58-3.616-2.782-3.692-2.672-.076.11-.424-.207-.773-.705-.349-.498-1.325-1.258-2.171-1.69-.845-.431-1.598-.923-1.673-1.094-.293-.664-5.573-4.124-6.26-4.102-.396.013 1.65 1.571 2.077 1.582.195.005.766.414 1.269.909 1.367 1.344 3.246 2.7 3.74 2.7.24 0 .437.174.437.386 0 .212.646.824 1.437 1.361 1.297.882 3.152 2.431 7.307 6.104l1.416 1.251-2.729 3.049c-3.117 3.483-3.11 3.481-5.15 1.743l-1.52-1.294 1.22-1.914c1.658-2.603 1.533-2.711-.517-.445l-1.737 1.918-2.042-1.58c-1.51-1.168-1.985-1.772-1.823-2.322.18-.61.094-.672-.482-.35-.535.299-1.087.118-2.34-.77-5.65-4.004-13.916-9.213-18.966-11.954a196.594 196.594 0 0 1-2.674-1.473c-3.285-1.875-15.168-7.08-19.97-8.748-4.947-1.718-3.803-.868 1.419 1.054 14.32 5.272 33.559 16.286 46.351 26.537 23.461 18.801 43.939 45.735 53.96 70.973.726 1.83 1.397 3.251 1.489 3.158.22-.219-2.58-7.568-3.072-8.064-.832-.839-.23-1.437 3.015-2.993 4.123-1.978 4.317-1.987 4.954-.227.278.77.674 1.4.88 1.4.206 0 .374.214.374.476s.624 1.747 1.388 3.3c1.782 3.628 3.43 7.322 3.84 8.611.178.557.982 2.813 1.787 5.013.806 2.2 1.692 4.9 1.971 6 .279 1.1.801 2.697 1.16 3.549.36.852.654 2.121.654 2.82 0 .699.161 1.442.358 1.651.829.88 1.249 4.358.577 4.78-.351.22-1.652 1.235-2.891 2.255-1.897 1.561-4.37 2.734-5.787 2.743-.189.001-.252-.403-.141-.898.112-.495-.036-1.62-.328-2.5l-.531-1.6.223 2.1c.149 1.406.076 2.1-.221 2.1-.448 0-.515-.199-1.275-3.8-8.917-42.273-38.533-84.706-76.184-109.155-17.104-11.107-40.419-21.172-56.261-24.289-1.297-.255-2.455-.62-2.572-.81-.577-.934.562-.955 4.277-.079 4.45 1.05 5.81.997 2.091-.081-1.284-.372-3.14-.915-4.125-1.206-1.151-.34-1.953-.393-2.249-.148-.44.365-1.761.116-1.761-.333 0-.596 4.579-10.099 4.866-10.099.543 0 .391-.727-.613-2.926-.522-1.141-1.074-2.651-1.228-3.356-.321-1.468-.442-1.519-5.025-2.124-1.87-.247-3.76-.615-4.2-.817-2.71-1.248-37.141-2.551-45.6-1.727m18.6 7.35c0 .22-.315.401-.7.402-4.223.012-17.751 1.578-24.7 2.859l-4.4.811-2.24 2.192-2.24 2.192 1.936 9.472c2.011 9.843 2.314 12.472 1.438 12.472-.612 0-1.64-2.77-3.117-8.4-.606-2.31-1.762-6.696-2.568-9.748-2.363-8.94-2.034-9.641 4.892-10.449C183.567 9.176 199.6 8.264 199.6 9.2m-40.56 10.678c.891 3.066.498 3.439-.718.68-1.675-3.801-1.833-4.541-.766-3.588.474.424 1.142 1.733 1.484 2.908m84.76 5.907c1.166.552 10.738 3.41 10.896 3.253.199-.2-8.114-2.85-10.096-3.219-.66-.123-1.02-.138-.8-.034m48.813 9.83c.722.797 1.39 1.031 1.384.485-.002-.165-.474-.518-1.049-.785-1.022-.475-1.03-.468-.335.3m5.933 3.818c.631.554 1.258.896 1.394.76.281-.281-1.527-1.777-2.14-1.771-.22.002.116.457.746 1.011M140.6 42.227c-3.822 1.363-5.038 1.868-4.88 2.026.165.165 6.691-2.131 7.036-2.476.309-.309-.505-.139-2.156.45m-10.8 4.354c-1.54.743-2.62 1.359-2.4 1.369.22.01 1.66-.589 3.2-1.331 1.54-.743 2.62-1.359 2.4-1.369-.22-.01-1.66.589-3.2 1.331m-7.5 3.446c-.825.436-1.5.881-1.5.991 0 .178 3.159-1.299 3.567-1.667.46-.417-.742-.023-2.067.676m198.47 7.343 1.737 1.77-2.116 2.433c-2.317 2.664-3.31 3.004-1.236.423 1.17-1.456 1.437-3.148.32-2.031-.427.427-4.275.633-4.275.229 0-.548 2.971-4.594 3.373-4.594.253 0 1.242.796 2.197 1.77M53.615 92.213c-13.788 17.352-25.229 41.366-30.798 64.648-.632 2.642-1.254 4.909-1.383 5.038-1.931 1.931 2.163-14.026 6.799-26.499 3.512-9.45 6.453-15.839 12.334-26.8 1.629-3.035 1.169-2.68-.767.592-.66 1.116-2.235 3.645-3.5 5.622-1.265 1.976-2.3 3.771-2.3 3.989 0 .218-.444.397-.987.397-.75 0-.927.157-.737.655.174.452.077.593-.312.455-.31-.109-.528-.543-.485-.965.06-.571-.674-1.187-2.874-2.413l-2.955-1.646-2.789 5.657c-1.534 3.111-3.179 6.735-3.655 8.052-.476 1.317-1.009 2.577-1.184 2.8-.383.487-2.821 7.689-2.824 8.344-.002.253-.26.954-.574 1.556-.314.602-1.231 3.752-2.037 7-.807 3.248-1.621 6.265-1.81 6.705-.72 1.681-.608 2.751.338 3.228 1.239.624 1.94 1.622 2.69 3.828.545 1.606.829 1.91 2.112 2.263 3.548.973 17.661 4.674 24.083 6.314 3.85.983 7.6 1.982 8.333 2.219 1.147.372 6.005.153 5.6-.252-.074-.074-4.544-1.334-9.933-2.801-5.39-1.467-9.967-2.827-10.171-3.024-.493-.474 2.472-12.427 5.025-20.262 6.036-18.525 17.491-39.306 29.203-52.981 2.31-2.697 2.579-3.383.42-1.068-1.331 1.427-1.596 1.559-2.104 1.052-.319-.319-1.255-.69-2.081-.824-.825-.133-1.758-.501-2.074-.816-.324-.325-1.003-.491-1.566-.384-.71.136-1.144-.05-1.519-.651-.289-.463-.73-.841-.98-.841s-.679-.27-.953-.6c-.789-.951-1.051-.775-3.585 2.413M154.899 112.9c-2.195 2.268-2.499 3.566-2.499 10.687V130l-4.3.079c-3.487.065-3.751.106-1.398.218 2.563.122 2.978.253 3.546 1.121.552.841.952.982 2.798.982h2.154v-11.272l-1.2-1.053c-1.835-1.611-1.317-4.472 1.299-7.175.692-.715 1.168-1.3 1.058-1.3-.11 0-.766.585-1.458 1.3m60.501-.954c.44.193 1.43.464 2.2.604.961.174 1.149.144.6-.096-.44-.193-1.43-.464-2.2-.604-.961-.174-1.149-.144-.6.096m-36.6 2.439c1.65.149 2.704.303 2.343.343-.362.04-.771.368-.91.729-.362.945.15 1.273.635.407.372-.664.492-.609 1.327.603.505.733.839 1.466.741 1.628-.097.162.192.691.644 1.175.451.485.82 1.308.82 1.829 0 .522.16.849.356.728.196-.121.65.228 1.009.776l.653.997-3.709.053c-2.04.029-6.499.164-9.909.3l-6.2.247-.115 3.965c-.064 2.18.039 4.119.228 4.308.677.677 3.477-.236 3.613-1.179.123-.845.312-.877 6-.995l5.874-.122-6.5-.089c-5.472-.074-6.5-.183-6.5-.688 0-1.09-.831-.624-1.426.8-.85 2.035-.974 1.78-.974-2v-3.4l21.9.007c24.501.008 23.992-.041 30.985 2.973 3.212 1.385 5.804 3.127 3.712 2.495-6.928-2.092-7.944-1.994-3.113.301 8.976 4.262 15.429 10.751 20.175 20.286 6.669 13.398 5.504 25.902-3.749 40.232-3.672 5.688-3.739 9.015-.287 14.302 4.092 6.269 6.342 11.442 7.395 17.004.271 1.43.512 2.187.537 1.683.025-.504-.234-2.268-.575-3.92-1.124-5.441.06-6.059 1.432-.749 1.65 6.387 1.867 15.089.366 14.696-.771-.201-.714-.344-2.343 5.89-3.529 13.514-14.122 24.41-28.235 29.045-1.54.505-2.373.927-1.851.937 1.44.027.359 1.1-1.696 1.684-2.106.597-2.736 1.134-1.333 1.134.594 0 1.08.18 1.08.4 0 .262-7.668.384-22.3.353-18.017-.039-28.553-.467-17.5-.711 1.32-.03 3.155-.317 4.078-.638 2.45-.854 8.407-1.144 14.122-.688 3.222.257 5.854.263 7.4.017 1.32-.21 3.48-.527 4.8-.703 1.478-.197-4.239-.342-14.88-.375-15.449-.049-17.319-.123-17.641-.7-.29-.518-.527-.557-1.194-.2-1.262.675-1.285.636-1.285-2.193v-2.638l9.167.138c5.042.076 9.305.276 9.473.445.581.581-.665 1.273-2.75 1.527-1.149.139 1.787.279 6.525.31 8.208.053 8.698.013 10.364-.844 5.498-2.831 5.995-10.943.887-14.495l-1.733-1.205-14.667-.2-14.666-.2-.128-.9c-.152-1.072-.373-1.113-1.332-.246-1.137 1.03-1.156.72-1.045-17.054l.105-16.6.985-.139c2.326-.328 6.838.385 6.724 1.063-.268 1.602 22.473 1.816 25.491.24 3.344-1.746 5.321-7.364 3.857-10.964-.252-.62-.416-.752-.432-.347-.014.36-.385.748-.825.863-.624.163-.8.547-.802 1.747-.004 2.405-.685 4.279-2.021 5.56l-1.229 1.177-16.074.2-16.074.2-.122 2.127-.122 2.127-1.278-.275c-.703-.151-3.168-.864-5.478-1.583l-4.2-1.308-.113-4.166c-.158-5.852 1.228-7.759 6.346-8.727 1.192-.226 2.227-.587 2.3-.803.188-.553 1.412-.487 2.007.108.949.95 16.049.686 17.167-.3.498-.44 1.668-.911 2.6-1.047.931-.136-4.905-.226-12.968-.2l-14.662.047-1.738 1.234c-1.058.751-2.131 2.005-2.739 3.2l-1 1.966.091 18.964.09 18.965.898.955c.722.769.923 1.517 1.031 3.835l.134 2.881-.813-1c-.447-.55-.817-1.135-.822-1.3-.029-.959-5.4-.274-6.28.8l-.9 1.1-.015-8.872-.014-8.872.9-.128c1.317-.187 1.42-3.095 1.286-36.328-.142-35.091-.324-39.753-1.597-40.809-.474-.393-.589-1.733-.589-6.84V144.4h8.8l.007 22.5.006 22.5.894 1.57c1.942 3.413 1.997 3.421 21.856 3.492 10.043.036 16.08.182 14.237.345-8.527.754-14.201 1.208-16.2 1.296-1.21.053 3.209.249 9.821.435 10.296.29 12.226.253 13.451-.259 2.241-.936 2.26-1.475.052-1.504-1.628-.022-1.778-.084-.975-.406.522-.209 1.613-.905 2.424-1.548.811-.642 1.96-1.289 2.554-1.438.734-.185 1.155-.61 1.314-1.327.128-.581.319-1.372.424-1.758.36-1.326-.985-4.864-2.349-6.179-2.368-2.285-2.496-2.302-18.316-2.519l-14.6-.2-.127-1.1c-.141-1.232-.536-1.388-1.269-.504-.833 1.002-1.204.273-1.204-2.364 0-4.002.4-6.139 1.189-6.345.916-.24 1.211-1.916 1.211-6.887 0-5.335-.242-6.566-1.24-6.305-.609.159-.77-.03-.81-.948-.037-.845-.135-.673-.37.653-.387 2.17-.486 22.317-.123 24.962l.257 1.873 15.883-.058c17.555-.064 17.074-.129 18.436 2.507 1.458 2.822.462 6.826-2.017 8.108-2.059 1.064-39.344.893-41.12-.19-3.019-1.841-2.893-.699-2.895-26.102L155.2 144h-9.6v34.2c0 29.749-.076 34.2-.585 34.2-.663 0-3.475-1.052-7.668-2.867-3.657-1.585-3.347 1.88-3.347-37.36v-32.515l-1-.787c-.55-.432-1.015-1.21-1.034-1.729-.031-.836-.078-.807-.423.258-.541 1.673-.005 110.22.548 110.9.224.275.629.5.901.5.591 0 1.008 3.436 1.008 8.311 0 6.863 1.348 7.689 12.547 7.689h8.253l-.006 1.7c-.007 1.859-.262 2.436-1.233 2.793-.653.24-1.152 3.484-1.158 7.534-.007 4.455 3.048 9.756 4.74 8.225.65-.588 3.259-.652 26.762-.652 21.094 0 26.561-.109 28.769-.574 4.06-.855 10.96-3.205 15.442-5.26 2.181-1 4.043-1.74 4.138-1.646.573.574 4.127-.722 6.371-2.323 13.2-9.419 22.283-27.925 22.115-45.06-.039-3.99-.158-5.507-.34-4.337-.154.99-.308 1.53-.342 1.2-.035-.33-.327-1.107-.65-1.726-.531-1.017-1.222-4.518-1.141-5.774.018-.275.067-.905.108-1.4l.076-.9.383.958c.8 2 .793.389-.011-2.475-1.078-3.843-3.468-9.698-5.458-13.372l-1.565-2.889.748-1.311c14.608-25.586 8.916-57.9-13.097-74.356-1.327-.992-1.262-.893.333.506 2.528 2.215 6.216 6.025 6.216 6.42 0 .348-3.216-1.38-5-2.685-2.026-1.483-2.512-1.693-1.8-.78.744.955-.369.288-4.079-2.443-4.623-3.402-12.123-6.764-20.121-9.019-3.086-.87-3.844-.905-21.2-.971-9.9-.038-16.65.053-15 .202m48.686 1.827c2.027.96 4.637 2.35 5.8 3.09 3.015 1.916 3.48 2.127 2.114.96-1.302-1.113-10.43-5.883-11.155-5.829-.245.018 1.214.819 3.241 1.779m138.279 2.244c-.222.359-6.611 3.544-7.11 3.544-.14 0-.255-.36-.255-.8 0-.44.251-.8.557-.8.307 0 .661-.27.788-.6.126-.33.583-.6 1.014-.6.431 0 1.022-.226 1.312-.502 1.351-1.284 4.464-1.488 3.694-.242M190.8 125.442c-.77.087-2.48.378-3.8.647l-2.4.488 1.8.282c2.42.379 11.804.371 13.8-.012l1.6-.306-1.6-.508c-1.67-.53-6.987-.865-9.4-.591m172.123 7.758c.403 1.54 2.809 8.002 2.934 7.877.244-.244-1.017-4.089-2.074-6.328-.559-1.182-.946-1.879-.86-1.549M196.8 134.697c.77.374 1.638.91 1.929 1.191.29.282.695.512.9.512.204 0 .386.585.405 1.3l.035 1.3.359-1.2c.621-2.074-1.19-3.814-3.944-3.791-1.057.009-1.05.026.316.688m6.406.533c-.003.347-.456 1.053-1.006 1.57-.606.57-1 1.382-1 2.063 0 .779-.53 1.676-1.731 2.93l-1.732 1.807-5.868.05c-3.228.028-6.049.095-6.269.15-.22.055-4.63.122-9.8.15l-9.4.05.074 2.3.074 2.3.147-2.1.147-2.1 1.679.006c1.984.007 2.795.425 2.47 1.273-.386 1.006.905 1.11 13.901 1.116 14.357.006 16.629-.406 15.146-2.747-.535-.845 1.869-4.048 3.039-4.048 1.009 0 1.387-3.463.523-4.8-.34-.526-.389-.523-.394.03m3.208 1.144c-.952 1.779-.52 4.425.764 4.682.872.174 1.241.521 1.42 1.333.332 1.515 1.903 2.878 5.221 4.533 6.951 3.467 8.291 5.653 11.916 19.44 1.176 4.472.956 5.886-1.754 11.275-1.468 2.921-1.697 3.188-2.305 2.695-.521-.423-1.637-.494-4.876-.312-2.31.129-3.64.268-2.956.308.684.039 1.907.522 2.718 1.072 3.485 2.365 5.745 1.162 8.267-4.4 3.553-7.835 3.736-14.444.576-20.811-1.034-2.084-2.036-3.789-2.227-3.789-.402 0-2.417-2.094-2.212-2.299.075-.076 1.055.771 2.177 1.881 1.122 1.11 2.209 2.018 2.415 2.018.206 0 .435.143.509.317.073.174.814.733 1.647 1.241 1.208.738 1.465 1.098 1.274 1.783-.191.682-.154.735.18.259.284-.406.422-.438.426-.1.003.275.444.5.979.5.574 0 1.066.287 1.199.7.27.836 2.37 2.1 3.489 2.1 1.17 0 1.865.89 2.064 2.646.096.855.11.204.03-1.446s-.236-3.54-.347-4.2c-.111-.66.066-.3.394.8 3.134 10.515-3.5 30.519-11.486 34.635-2.202 1.135-10.936 1.117-13.298-.027-2.877-1.392-4.282-4.98-2.935-7.494.748-1.397 1.618-4.914 1.215-4.914-.555 0-2.556 1.803-3.228 2.907-1.528 2.514-1.447 6.693.129 6.693.34 0 1.38.694 2.31 1.543 2.603 2.376 2.907 2.457 9.186 2.457 8.677 0 12.192-3.058 16.506-14.362 1.597-4.183 2.326-5.438 3.162-5.44 2.126-.005 2.833-10.707 1.11-16.798-1.908-6.745-6.697-14.762-10.762-18.015-1.56-1.248-1.717-1.314-.855-.357 2.556 2.837 3.907 6.929 1.641 4.971-3.01-2.601-10.315-7.037-13.26-8.053-3.155-1.088-8.085-.094-7.743 1.563.052.25.168 1.048.258 1.773.266 2.133 1.468 4.229 2.724 4.75.632.261 1.071.555.974.651-.925.925-4.25-3.301-4.25-5.401 0-.4-.444-1.328-.987-2.064-.542-.736-.892-1.491-.776-1.678.116-.187.116-.34.001-.34-.116 0-.396.348-.624.774m160.814 8.991c-.045.588 2.495 9.446 2.661 9.279.083-.083-.211-1.567-.653-3.298-.838-3.273-1.959-6.614-2.008-5.981M20.215 162c.102 0 .185.27.185.6 0 .838-.267.769-2.465-.642-2.457-1.577-2.439-1.745.08-.752 1.108.437 2.098.794 2.2.794m228.217 5.1c.056 1.375-.019 2.62-.165 2.767-.147.146-.253.731-.235 1.3l.031 1.033.402-1.1c.253-.693.694-1.1 1.192-1.1.435 0 .678.181.541.403-.394.638.859 1.619 2.188 1.712.667.047 1.213.31 1.213.585.001.308.559.5 1.457.5h1.455l-.226 2.1c-.14 1.297-.099 1.781.107 1.266.291-.728.844-4.731 1.377-9.966.09-.88.091.579.004 3.243-.274 8.287-1.952 14.38-6.407 23.254l-2.86 5.697 1.6 2.703c2.016 3.404 4.142 7.931 5.308 11.299.496 1.432 1.025 2.905 1.175 3.273.342.839-.296 1.192-5.745 3.17-4.645 1.685-4.669 1.685-5.059-.144-.627-2.937-3.587-9.586-6.198-13.926-3.471-5.768-3.682-7.482-1.386-11.289 1.518-2.518 1.645-3.097.927-4.246-.585-.938.364-2.58 2.053-3.549 3.075-1.765 5.962-10.47 6.328-19.085.242-5.688.689-5.639.923.1M22.8 163.676c0 .526-.909.197-1.108-.401-.098-.293.085-.382.475-.232.348.133.633.418.633.633m359.942 1.226c1.011.483 1.073.696 1.396 4.815.528 6.74-.241 7.434-1.948 1.755-1.404-4.676-2.976-6.012-5.683-4.831-3.299 1.439-17.512 6.254-27.907 9.454l-5.2 1.601-.079 7.852c-.097 9.732-2.309 30.398-3.161 29.545-.064-.064.069-3.081.296-6.704.548-8.767-.028-22.788-1.355-32.961-.104-.794 7.922-3.063 31.099-8.794 3.96-.98 7.65-1.968 8.2-2.197 1.12-.467 2.759-.291 4.342.465m-149.186 22.389c-1.946 2.338-3.156 4.47-3.156 5.558 0 1.276 3.848-3.772 4.992-6.549.845-2.049.571-1.901-1.836.991m-21.637 8.758c.674.714 12.329 1.063 13.003.389.317-.317-.617-.438-3.382-.438-2.1 0-5.241-.113-6.98-.251-2.676-.213-3.08-.167-2.641.3m11.393 4.639c2.454.37 9.266 9.287 11.888 15.562 1.375 3.29 2.485 6.95 2.108 6.95-.12 0-2.381.369-5.024.82-5.382.918-5.67.887-6.055-.646-1.62-6.455-4.12-8.974-8.91-8.975-5.161-.002-8.112-1.852-8.118-5.09 0-.534-.441-1.171-1.101-1.591-.605-.385-1.232-.884-1.394-1.109-.45-.627-.356 2.994.123 4.719.817 2.942 4.666 5.989 5.271 4.172.115-.347 1.482-.542 4.46-.637 5.12-.164 5.113-.168 7.146 4.246 2.048 4.445 2.145 4.9 1.098 5.174-.659.172-.81.431-.627 1.072 2.654 9.294-2.325 19.454-11.114 22.679-2.508.92-5.439 2.694-5.454 3.302-.005.184.537-.124 1.203-.685 1.072-.902 3.93-2.042 4.27-1.703.456.457-5.24 5.419-5.743 5.002-.327-.272-.453-.79-.305-1.257.148-.468.093-.695-.136-.553-2.882 1.78-.695 9.753 2.705 9.861 7.498.24 6.835.347 10.914-1.747 2.086-1.071 4.668-2.638 5.738-3.482 3.911-3.087 4.407-3.424 3.762-2.556-.911 1.223-5.705 5.942-6.817 6.71-.644.444-.36.382.8-.175 6.179-2.967 12.114-9.877 14.358-16.717 1.077-3.282 1.055-3.425-.19-1.234-1.152 2.028-3.827 6-4.041 6-.077 0 .292-.855.821-1.9.761-1.503 2.364-6.208 3.669-10.769.074-.258.55-.528 1.059-.6.898-.127.927-.262 1.037-4.84.343-14.342-9.053-30.676-17.39-30.231l-1.123.06 1.112.168M9.739 230.921c.16 1.224.108 1.832-.144 1.676-.217-.134-.395-1.074-.395-2.087 0-2.278.207-2.12.539.411m358.447 17.165c-3.531 12.979-10.041 28.12-18.002 41.868-.431.744-1.783 2.904-3.005 4.8-2.868 4.45-2.865 4.446-2.605 4.446.658 0 7.929-11.859 11.281-18.4 5.83-11.377 14.797-35.481 13.632-36.646-.1-.1-.686 1.669-1.301 3.932M22.955 246.6c.51 2.285 2.373 8.205 2.533 8.045.186-.186-2.258-8.747-2.582-9.045-.12-.11-.098.34.049 1m168.945 4.476c-.385.1-1.015.1-1.4 0-.385-.101-.07-.183.7-.183s1.085.082.7.183m-39.385 2.418c-1.147.081-3.127.082-4.4.002-1.273-.08-.335-.145 2.085-.146 2.42-.001 3.462.064 2.315.144m37.411.005c-4.11.065-10.95.065-15.2.001-4.249-.065-.886-.118 7.474-.119 8.36 0 11.837.053 7.726.118M26 256.513c0 .421 2.752 7.873 3.175 8.6.73 1.252.442.247-1.181-4.129-1.468-3.958-1.994-5.137-1.994-4.471m193.8 6.184c-.826.458-2.51.721-5.4.843-3.88.164-4.109.218-3 .701 2.205.961 7.686-.015 9.386-1.67.751-.732.506-.701-.986.126m-190.2 3.381c0 .357 2.242 5.671 2.925 6.933 1.131 2.091.723.739-.923-3.056-1.475-3.399-2.002-4.421-2.002-3.877m3.987 9.289c.56 1.472 2.801 5.833 2.998 5.833.222 0-.794-2.442-2.037-4.9-1.018-2.012-1.577-2.556-.961-.933m3.956 7.875c.47 1.245 2.841 5.158 3.126 5.158.231 0-2.591-5.201-3.148-5.8-.209-.226-.2.055.022.642m4.472 7.858c10.877 19.37 36.956 46.777 53.947 56.696 1.243.725-.021-.527-1.644-1.629-12.806-8.698-27.509-22.145-36.499-33.382-5.819-7.273-12.48-16.727-15.56-22.085-.601-1.045-1.192-1.9-1.314-1.9-.122 0 .36 1.035 1.07 2.3m298.925 12.8c-1.722 2.365-4.27 5.74-5.663 7.5-1.476 1.865-1.833 2.449-.857 1.4 2.259-2.427 10.291-13.2 9.842-13.2-.105 0-1.6 1.935-3.322 4.3m-9.762 12.4-1.378 1.5 1.5-1.378c1.396-1.284 1.684-1.622 1.378-1.622-.066 0-.741.675-1.5 1.5m-3.393 3.8-1.985 2.1 2.1-1.985c1.951-1.844 2.283-2.215 1.985-2.215-.063 0-1.008.945-2.1 2.1m-4.132 4.1c-1.729 1.97-1.576 2.31.227.507.814-.814 1.378-1.582 1.253-1.707-.124-.125-.79.415-1.48 1.2m-5.406 5.452L315 332.905l3.5-3.137c1.925-1.726 3.5-3.19 3.5-3.253 0-.468-.931.31-3.753 3.137m-5.647 4.978c-.88.77-3.471 2.879-5.758 4.685-5.091 4.022-6.273 5.04-4.442 3.827 1.894-1.256 10.895-8.493 11.563-9.298.83-1 .384-.743-1.363.786m-18.336 13.762c-4.834 3.212-6.044 4.12-4.264 3.199 2.396-1.24 10.022-6.576 9.1-6.368-.055.012-2.231 1.438-4.836 3.169m-196.569.479c1.218 1.034 4.305 2.865 4.305 2.553 0-.19-3.541-2.533-4.8-3.176-.33-.168-.107.112.495.623m5.434 3.418c1.068.872 5.671 3.456 5.671 3.184 0-.163-5.215-3.331-6.2-3.766-.22-.097.018.165.529.582m182.671 1.399c-1.54.921-6.31 3.434-10.6 5.584-4.29 2.151-7.639 3.915-7.443 3.919 1.065.026 18.147-8.792 20.443-10.552 1.405-1.077.482-.674-2.4 1.049m-175.8 2.5c0 .11 1.08.746 2.4 1.412 1.32.666 2.4 1.122 2.4 1.012 0-.11-1.08-.746-2.4-1.412-1.32-.666-2.4-1.122-2.4-1.012m9.4 4.832c2.42 1.183 4.58 2.142 4.8 2.132.507-.024-8.26-4.295-8.8-4.288-.22.003 1.58.974 4 2.156m144.286 3.466c-1.603.67-2.836 1.298-2.739 1.394.19.191 6.253-2.25 6.253-2.517 0-.291-.555-.114-3.514 1.123m-136.286.063c1.1.517 2.45 1.053 3 1.192.55.138.1-.172-1-.69-1.1-.517-2.45-1.053-3-1.192-.55-.138-.1.172 1 .69m7.438 2.806c.309.331 7.183 2.654 7.737 2.615.234-.017-1.074-.549-2.905-1.183-4.404-1.524-5.115-1.735-4.832-1.432M252.8 368.6c-2.09.735-3.609 1.351-3.375 1.369.496.036 7.402-2.263 7.704-2.565.394-.394-.561-.13-4.329 1.196m-12.116 3.489c-2.594.666-4.636 1.292-4.538 1.39.204.205 7.945-1.618 9.454-2.226 1.799-.724-.113-.399-4.916.836m-93.444-.716c.309.309 6.818 1.902 7.006 1.715.1-.101-1.348-.566-3.217-1.035-3.48-.873-4.092-.983-3.789-.68" fill="#f5cf2c"/><path d="M147.328 7.014c-4.44 1.177-8.885 2.511-9.878 2.963-.993.453-1.998.823-2.233.823-.767 0-8.562 2.659-10.817 3.69-1.21.553-3.607 1.591-5.326 2.306-3.531 1.469-16.956 8.208-17.874 8.972-.33.275-1.41.909-2.4 1.409-3.019 1.524-6.419 3.726-17.244 11.168-1.234.849-2.584 1.843-3 2.21-.416.366-2.294 1.877-4.173 3.356-4.274 3.363-7.426 5.99-8.757 7.298-.564.555-2.462 2.355-4.217 4-4.154 3.894-13.766 14.412-17.355 18.991-1.552 1.98-3.16 3.96-3.573 4.4-.414.44-1.404 1.79-2.2 3-.797 1.21-2.405 3.55-3.575 5.2-8.123 11.46-19.331 33.628-22.864 45.221-1.276 4.188-1.277 4.067.041 4.679 2.631 1.222 3.978.726 4.891-1.8.457-1.265 1.014-2.619 1.237-3.009.224-.39.779-1.74 1.234-3 .455-1.26 2.082-4.837 3.616-7.948l2.789-5.657 2.955 1.646c2.2 1.226 2.934 1.842 2.874 2.413-.043.422.175.856.485.965.389.138.486-.003.312-.455-.19-.498-.013-.655.737-.655.543 0 .987-.179.987-.397 0-.218 1.035-2.013 2.3-3.989 1.265-1.977 2.84-4.506 3.5-5.622 1.936-3.272 2.396-3.627.767-.592-5.881 10.961-8.822 17.35-12.334 26.8-4.636 12.473-8.73 28.43-6.799 26.499.129-.129.751-2.396 1.383-5.038 5.056-21.135 14.523-42.038 26.914-59.425 5.332-7.481 6.397-8.601 7.356-7.736.427.385.944.7 1.148.7.205 0 .609.378.898.841.375.601.809.787 1.519.651.563-.107 1.242.059 1.566.384.316.315 1.249.683 2.074.816.826.134 1.735.478 2.021.764.427.427 2.123-1.104 9.447-8.526 8.456-8.569 8.987-9.03 10.083-8.759 2.184.54 2.051.916-1.657 4.689-1.972 2.006-3.373 3.531-3.114 3.387.26-.143.578-.089.708.12.129.209 1.185.657 2.346.994 1.161.338 2.539 1.07 3.062 1.626.583.621 1.39 1.013 2.082 1.013.621 0 1.13.18 1.13.4 0 .22.266.4.592.4.701 0 5.716 1.517 6.679 2.02.442.231.733.185.851-.134.132-.358.515-.302 1.455.211 1.558.85 2.948.3 4.923-1.95 2.534-2.886 17.656-13.546 20.742-14.622.637-.222 1.158-.536 1.158-.698 0-.162 1.62-1.064 3.6-2.005 3.64-1.73 3.829-1.939 3.636-4.035-.031-.338.35-1.05.847-1.584.956-1.026 1.199-7.219.296-7.536-.208-.074-.379-.468-.379-.877 0-.408-.16-.841-.355-.962-.195-.121-.477-.873-.627-1.672-.263-1.404-.319-1.444-1.687-1.222-1.152.187-1.451.093-1.608-.506-.129-.493-.444-.669-.958-.535-.421.11-.765-.001-.765-.246 0-.246-.27-.447-.6-.447-.33 0-.6.201-.6.447 0 .252-.354.354-.814.233-2.813-.735-21.998 10.615-33.123 19.595-2.459 1.986-2.967 2.093-3.575.758-.515-1.13.758-2.474 6.712-7.09 13.445-10.423 30-19.445 44.4-24.197 2.31-.762 4.771-1.649 5.468-1.97.698-.321 1.823-.694 2.5-.83.678-.135 1.232-.492 1.232-.793 0-.3.36-.771.8-1.046.907-.566 1.124-2.91.3-3.242-.299-.121-.218-.215.2-.233.851-.039.948-1.232.1-1.232-.434 0-.6-.445-.6-1.605 0-.883-.208-1.94-.463-2.347-.708-1.134-.139-1.975 1.542-2.278.837-.151 1.701-.414 1.921-.585.22-.17 1.533-.532 2.919-.803 2.566-.503 3.707-1.981 1.271-1.646-5.517.758-21.657 5.455-29.876 8.695-2.468.973-4.55 1.769-4.628 1.769-.077 0-.102-1.575-.055-3.5.047-1.925-.051-3.68-.218-3.9-1.734-2.291.807-4.158 9.787-7.187 1.76-.594 3.487-1.228 3.838-1.411.35-.182 2.69-.9 5.2-1.596a439.224 439.224 0 0 0 7.162-2.046c1.43-.43 3.272-.889 4.093-1.021.821-.131 1.39-.404 1.265-.606-.125-.203-.055-.585.154-.851.21-.265.789-1.742 1.288-3.282s1.085-3.025 1.302-3.3c.75-.947-2.133-.471-10.374 1.714M187.2 9.227c-5.736.303-10.163.711-19.299 1.776-6.926.808-7.255 1.509-4.892 10.449.806 3.052 1.962 7.438 2.568 9.748 1.477 5.63 2.505 8.4 3.117 8.4.876 0 .573-2.629-1.438-12.472l-1.936-9.472 2.24-2.192 2.24-2.192 4.4-.811c6.949-1.281 20.477-2.847 24.7-2.859.385-.001.7-.182.7-.402 0-.449-3.554-.441-12.4.027m47.368 14.825c-.413.668.229 1.043 2.571 1.504 38.9 7.653 82.271 37.686 106.352 73.644 12.07 18.023 24.039 45.724 26.315 60.903.296 1.969.802 3.023 1.241 2.583.455-.454-.509-5.062-2.653-12.686-10.169-36.153-31.331-67.916-61.194-91.847-12.788-10.247-30.258-20.283-46-26.424-9.662-3.769-26.116-8.512-26.632-7.677M189.4 82.633c-13.45 1.32-17.263 1.987-25.8 4.51-9.495 2.806-20.394 7.505-26.569 11.454-1.206.772-2.304 1.403-2.44 1.403-.218 0-2.139 1.331-9.921 6.875-1.791 1.277-2.105 1.384-2.333.8-.145-.371-1.233-1.623-2.418-2.781l-2.156-2.106-.903.842-.903.841 1.885 2.065c1.037 1.135 2.17 2.296 2.518 2.579.552.449-.003 1.132-4.389 5.4-4.646 4.521-7.019 7.114-9.773 10.685-.595.77.059.14 1.451-1.4 33.203-36.727 81.586-49.85 126.751-34.38 8.59 2.942 16.666 6.604 22 9.975 10.108 6.388 15.101 10.239 22.8 17.581l3.8 3.624-4-4.138c-17.38-17.979-42.728-30.235-68.8-33.266-3.806-.443-18.091-.83-20.8-.563m-31.6 28.525c-4.193 1.942-6.25 6.767-3.8 8.917l1.2 1.053V132.4h-2.085c-1.745 0-2.218-.164-2.9-1.006-1.244-1.535-10.98-1.703-13.951-.241-3.751 1.847-5.493 5.965-3.264 7.718l1 .787v32.515c0 39.24-.31 35.775 3.347 37.36 4.193 1.815 7.005 2.867 7.668 2.867.509 0 .585-4.451.585-34.2V144h9.6l.001 22.7c.002 25.403-.124 24.261 2.895 26.102 1.776 1.083 39.061 1.254 41.12.19 2.479-1.282 3.475-5.286 2.017-8.108-1.362-2.637-.88-2.571-18.451-2.507l-15.899.058-.266-2.317c-.146-1.275-.209-9.923-.141-19.218l.124-16.9 9.3-.05c5.115-.027 9.48-.095 9.7-.15.22-.055 3.041-.122 6.269-.15l5.868-.05 1.732-1.807c1.201-1.254 1.731-2.151 1.731-2.93 0-.681.394-1.493 1-2.063 1.975-1.855-.061-5.369-3.696-6.378-3.701-1.028-28.016-.23-28.184.925-.131.893-2.957 1.776-3.607 1.126-.189-.189-.292-2.128-.228-4.308l.115-3.965 6.2-.247c3.41-.136 7.869-.271 9.909-.3l3.709-.053-.653-.997c-.359-.548-.813-.897-1.009-.776-.196.121-.356-.206-.356-.728 0-.521-.369-1.344-.82-1.829-.452-.484-.741-1.013-.644-1.175.098-.162-.236-.895-.741-1.628-.835-1.212-.955-1.267-1.327-.603-.485.866-.997.538-.635-.407.139-.361.548-.689.91-.729.361-.04-.693-.194-2.343-.343-1.65-.149 5.1-.24 15-.202 17.356.066 18.114.101 21.2.971 7.998 2.255 15.498 5.617 20.121 9.019 3.71 2.731 4.823 3.398 4.079 2.443-.712-.913-.226-.703 1.8.78 1.754 1.284 5.001 3.035 4.997 2.696-.002-.161-.857-1.193-1.9-2.294-7.571-7.99-19.16-13.916-32.823-16.784-4.845-1.017-51.236-.892-53.474.144m52.4 21.837c-3.006 1.412-3.726 2.808-2.384 4.627.541.733.984 1.66.984 2.06 0 2.1 3.325 6.326 4.25 5.401.097-.096-.342-.39-.974-.651-1.256-.521-2.458-2.617-2.724-4.75a33.376 33.376 0 0 0-.258-1.773c-.342-1.657 4.588-2.651 7.743-1.563 2.945 1.016 10.25 5.452 13.26 8.053 1.856 1.604 1.872 1.138.082-2.424-3.014-5.999-14.926-11.353-19.979-8.98m-11.223 1.705c1.646.817 1.944 1.454 1.451 3.1l-.359 1.2-.035-1.3c-.019-.715-.201-1.3-.405-1.3-.205 0-.61-.23-.9-.512-.291-.281-1.159-.817-1.929-1.191-1.366-.662-1.373-.679-.316-.688.596-.005 1.717.306 2.493.691m22.504 16.29c.396.544 1.021 1.092 1.39 1.218 3.291 1.117 5.717 12.771 3.978 19.107-2.681 9.769-5.983 13.006-10.287 10.085-2.5-1.696-5.762-1.148-5.762.969 0 .654-.436 2.008-.968 3.009-1.507 2.835-.254 6.359 2.786 7.83 2.362 1.144 11.096 1.162 13.298.027 7.986-4.116 14.62-24.12 11.486-34.635-.328-1.1-.505-1.46-.394-.8.111.66.267 2.55.347 4.2.08 1.65.066 2.301-.03 1.446-.199-1.756-.894-2.646-2.064-2.646-1.119 0-3.219-1.264-3.489-2.1-.133-.413-.625-.7-1.199-.7-.535 0-.976-.225-.979-.5-.004-.338-.142-.306-.426.1-.334.476-.371.423-.18-.259.191-.685-.066-1.045-1.274-1.783-.833-.508-1.574-1.067-1.647-1.241-.074-.174-.303-.317-.509-.317-.206 0-1.285-.9-2.396-2-2.217-2.193-2.79-2.538-1.681-1.01M7.8 158.165c-5.292 2.071-5.516 2.686-1.813 4.971 3.439 2.122 3.25 1.791 2.796 4.893-2.441 16.668-2.958 44.398-.785 42.065.589-.632.759-2.264 1.159-11.117.732-16.241 1.823-26.416 3.21-29.934.723-1.834 8.055-.693 29.466 4.584l11.234 2.769 4.344-.798c2.389-.439 4.994-.798 5.79-.798.795 0 1.795-.255 2.222-.567.954-.698-.512-1.222-3.223-1.154-.88.022-4.3.094-7.6.16l-6 .121-7.8-2.058c-18.809-4.963-23.49-6.201-24.884-6.584-1.213-.333-1.568-.673-1.948-1.863-.642-2.01-1.929-4.055-2.552-4.055-.285 0-.742-.27-1.016-.6-.569-.685-.926-.69-2.6-.035M247.509 167c-.366 8.615-3.253 17.32-6.328 19.085-1.689.969-2.638 2.611-2.053 3.549.718 1.149.591 1.728-.927 4.246-2.296 3.807-2.085 5.521 1.386 11.289 2.611 4.34 5.571 10.989 6.198 13.926.39 1.829.414 1.829 5.059.144 5.449-1.978 6.087-2.331 5.745-3.17-.15-.368-.679-1.841-1.175-3.273-1.166-3.368-3.292-7.895-5.308-11.299l-1.6-2.703 2.86-5.697c4.455-8.874 6.133-14.967 6.407-23.254.087-2.664.086-4.123-.004-3.243-.533 5.235-1.086 9.238-1.377 9.966-.206.515-.247.031-.107-1.266l.226-2.1h-1.455c-.898 0-1.456-.192-1.457-.5 0-.275-.546-.538-1.213-.585-1.329-.093-2.582-1.074-2.188-1.712.137-.222-.106-.403-.541-.403-.498 0-.939.407-1.192 1.1l-.402 1.1-.031-1.033c-.018-.569.088-1.154.235-1.3.321-.321.177-4.637-.229-6.867-.213-1.173-.354-.104-.529 4m130.891-2.563c-.55.229-4.24 1.217-8.2 2.197-23.177 5.731-31.203 8-31.099 8.794 1.327 10.173 1.903 24.194 1.355 32.961-.227 3.623-.36 6.64-.296 6.704.852.853 3.064-19.813 3.161-29.545l.079-7.852 5.2-1.601c10.395-3.2 24.608-8.015 27.907-9.454 2.707-1.181 4.279.155 5.683 4.831 1.707 5.679 2.476 4.985 1.948-1.755-.323-4.119-.385-4.332-1.396-4.815-1.583-.756-3.222-.932-4.342-.465m-167.536 37.006c-3.657 1.822-5.098 4.965-2.861 6.238.783.446 1.198.999 1.198 1.6.006 3.266 2.94 5.116 8.118 5.118 4.79.001 7.29 2.52 8.91 8.975.385 1.533.673 1.564 6.055.646 2.643-.451 4.904-.82 5.024-.82.121 0-.008-.855-.286-1.9-2.189-8.223-10.224-19.999-14.08-20.636-4.105-.679-9.904-.304-12.078.779m-25.157-.3c-.932.141-2.102.617-2.6 1.057-1.118.986-16.218 1.25-17.167.3-.595-.595-1.819-.661-2.007-.108-.073.216-1.108.577-2.3.803-5.118.968-6.504 2.875-6.346 8.727l.113 4.166 4.2 1.308c2.31.719 4.775 1.432 5.478 1.583l1.278.275.122-2.127.122-2.127 16.074-.2 16.074-.2 1.229-1.177c1.336-1.281 2.017-3.155 2.021-5.56.002-1.2.178-1.584.802-1.747 1.589-.416.678-2.307-2-4.152-1.468-1.011-10.577-1.506-15.093-.821m72.652 16.357-.092 1.4c-.066 1.023.596 4.895.905 5.29.176.226.511.95.743 1.61l.422 1.2.031-1.633c.061-3.157-1.831-10.568-2.009-7.867M9.2 230.51c0 1.013.178 1.953.395 2.087.252.156.304-.452.144-1.676-.332-2.531-.539-2.689-.539-.411m360.193 9.39c-4.834 21.817-16.286 46.231-30.724 65.5-25.054 33.436-61.244 57.206-101.569 66.71-2.049.483-3.5 1.028-3.5 1.315 0 .545-.239.589 7.6-1.393 38.866-9.825 74.695-34.147 99.041-67.232 14.286-19.414 28.047-49.398 30.428-66.3.417-2.956-.544-1.901-1.276 1.4m-347.988-2.308c-.862 1.394 5.134 20.58 9.858 31.545 6.891 15.993 14.701 28.831 26.556 43.648 15.339 19.172 38.588 37.147 62.381 48.229 12.18 5.673 37.995 14.124 39.265 12.854.459-.459-.561-.962-2.562-1.262-8.987-1.347-29.573-8.856-42.503-15.503-45.419-23.348-80.996-68.442-91.544-116.033-.831-3.748-1.014-4.186-1.451-3.478m189.73 11.767c-2.966 1.059-4.936 3.412-3.804 4.543.409.41.888.135 2.488-1.427 3.892-3.8 4.01-4.079 1.316-3.116m-20.635 1.717c.385.1 1.015.1 1.4 0 .385-.101.07-.183-.7-.183s-1.085.082-.7.183m-42.385 2.42c1.273.08 3.253.079 4.4-.002 1.147-.08.105-.145-2.315-.144-2.42.001-3.358.066-2.085.146m26.611.004c4.25.064 11.09.064 15.2-.001 4.111-.065.634-.118-7.726-.118-8.36.001-11.723.054-7.474.119m31.675 16.942c-2.969.179-6.299.547-7.4.817-1.255.308-3.717.426-6.601.316-8.613-.328-14.872-.115-16.8.572-.99.353-2.88.665-4.2.695-11.053.244-.517.672 17.5.711 14.632.031 22.3-.091 22.3-.353 0-.22-.486-.4-1.08-.4-1.403 0-.773-.537 1.333-1.134.908-.259 1.875-.739 2.149-1.068.564-.68 1.264-.665-7.201-.156m-34.756 58.065c-.182.491-.156 3.773.058 7.293l.388 6.4-1.662 6.2c-2.87 10.712-8.43 32.277-8.416 32.646.007.195 1.19-2.706 2.629-6.446 1.439-3.74 3.929-10.13 5.533-14.2 1.604-4.07 3.405-8.767 4.002-10.438l1.085-3.038 6.669-.263c8.138-.319 9.269-.664 9.269-2.824 0-.069-.945-.246-2.1-.393-3.78-.481-12.089-1.428-12.6-1.436-.362-.006-.505-1.028-.518-3.708-.02-4.361-.556-9.447-1.04-9.885-.952-.86-2.966-.804-3.297.092m48.555-.688c-.22.061-.867.213-1.438.338-1.216.266-1.963 4.111-1.963 10.1.001 3.625.065 3.707 2.667 3.438l1.666-.173.049-6.728c.047-6.421-.067-7.229-.981-6.975" fill="#f1f4ca"/></g></svg>