<svg xmlns="http://www.w3.org/2000/svg" id="Group_5539" width="32" height="32" data-name="Group 5539" viewBox="0 0 32 32">
    <defs>
        <style>
            .cls-1{fill:url(#linear-gradient)}.cls-2{fill:#fff;stroke:rgba(0,0,0,0)}
        </style>
        <linearGradient id="linear-gradient" x1="1.199" x2="0" y1="1.143" gradientUnits="objectBoundingBox">
            <stop offset="0" stop-color="#fd3f2f"/>
            <stop offset="1" stop-color="#face15"/>
        </linearGradient>
    </defs>
    <path id="Rectangle_3" d="M16 0A16 16 0 1 1 0 16 16 16 0 0 1 16 0z" class="cls-1" data-name="Rectangle 3"/>
    <path id="Shape" d="M6.556 19l-1.49-.41.608-2.69a52.074 52.074 0 0 1-1.188-.34l-.611 2.707-1.49-.41.615-2.74-.255-.073L2.6 15c-.2-.057-.427-.123-.658-.187L0 14.28l.74-1.88.032.009c.641.187 1.013.291 1.049.291a.623.623 0 0 0 .179.02.558.558 0 0 0 .507-.417l.975-4.316.1.027h.013l.027.008.02.005a1.112 1.112 0 0 0-.155-.055l.7-3.081a.867.867 0 0 0-.695-.957c0-.021-.783-.222-1.082-.3l.4-1.758 2.056.567v.009c.315.086.644.169.952.247L6.417 0l1.49.41-.6 2.651.084.021.1.025c.335.085.681.173 1.014.265L9.1.738l1.491.41-.611 2.7c2.272.864 3.222 2.067 2.989 3.785a2.563 2.563 0 0 1-1.9 2.417c1.521.874 1.956 2.143 1.37 3.992a3.137 3.137 0 0 1-3.309 2.459 9.686 9.686 0 0 1-1.949-.236L6.556 19zm-.767-9.049l-.818 3.624.227.065.064.018a9.467 9.467 0 0 0 2.464.463c1.036 0 1.653-.407 1.834-1.209a1.6 1.6 0 0 0-.16-1.192c-.59-1.016-2.313-1.444-3.239-1.674-.16-.039-.278-.069-.371-.095zM6.907 5l-.743 3.292.245.071a7.36 7.36 0 0 0 1.985.375 1.45 1.45 0 0 0 1.627-1.129 1.517 1.517 0 0 0-.146-1.131c-.506-.868-1.908-1.211-2.662-1.4-.119-.029-.222-.054-.307-.078z" class="cls-2" transform="translate(9 6)"/>
</svg>
