<svg xmlns="http://www.w3.org/2000/svg" width="32" height="32" viewBox="0 0 32 32">
    <defs>
        <style>
            .cls-1{fill:url(#linear-gradient)}.cls-2{fill:#fff;stroke:rgba(0,0,0,0)}
        </style>
        <linearGradient id="linear-gradient" x1="1.323" x2="-.332" y1="1.382" y2="-.271" gradientUnits="objectBoundingBox">
            <stop offset="0" stop-color="#3d8331"/>
            <stop offset="1" stop-color="#73ea5e"/>
        </linearGradient>
    </defs>
    <g id="Group_5558" data-name="Group 5558" transform="translate(-440 -1122)">
        <rect id="Rectangle_3" width="32" height="32" class="cls-1" data-name="Rectangle 3" rx="16" transform="translate(440 1122)"/>
        <path id="Shape" d="M7.263 19.8l-1.651-.427.675-2.808c-.464-.12-.895-.236-1.316-.355l-.676 2.821-1.652-.431.684-2.851-.283-.076-.166-.045a151.64 151.64 0 0 1-.729-.2L0 14.882l.82-1.964.036.01c.71.2 1.122.3 1.162.3a.731.731 0 0 0 .2.028.608.608 0 0 0 .561-.434l1.081-4.5.107.028h.015l.03.008.023.006a1.283 1.283 0 0 0-.172-.058L4.63 5.1a.908.908 0 0 0-.77-1c0-.022-.867-.231-1.2-.31l.44-1.83 2.278.591v.009c.349.089.713.177 1.055.258L7.108 0l1.651.428L8.1 3.19l.093.022.107.026c.371.089.755.18 1.123.276l.654-2.745 1.652.428-.676 2.819c2.517.9 3.569 2.154 3.311 3.945a2.713 2.713 0 0 1-2.109 2.519c1.685.911 2.167 2.234 1.517 4.16a3.454 3.454 0 0 1-3.666 2.56 11.376 11.376 0 0 1-2.16-.246L7.263 19.8zm-.85-9.431l-.906 3.777.251.067.07.019a11.075 11.075 0 0 0 2.73.483c1.148 0 1.832-.424 2.032-1.26a1.584 1.584 0 0 0-.178-1.243c-.653-1.059-2.562-1.505-3.588-1.745a12.048 12.048 0 0 1-.411-.1zm1.238-5.153l-.822 3.426c.078.02.169.045.271.074a8.609 8.609 0 0 0 2.2.391c1.008 0 1.615-.4 1.8-1.177a1.5 1.5 0 0 0-.162-1.178c-.561-.9-2.114-1.262-2.949-1.454-.132-.03-.246-.057-.34-.081z" class="cls-2" transform="rotate(-30 2336.085 -263.048)"/>
    </g>
</svg>
