<svg xmlns="http://www.w3.org/2000/svg" width="32" height="32" version="1.1" viewBox="0 0 400 400"><g fill-rule="evenodd" stroke="none"><path d="M187.6 32.837c-7.373.819-13.617 1.666-16.2 2.198l-6.8 1.4c-2.2.452-5.17 1.164-6.6 1.582-5.068 1.482-9.016 2.719-10.2 3.195-.66.265-1.74.626-2.4.801-2.325.618-6.661 2.372-10.8 4.368-2.302 1.111-4.302 2.019-4.446 2.019-.705 0-11.364 5.767-15.154 8.199-1.1.705-2.84 1.805-3.866 2.442-11.357 7.053-23.793 17.83-34.374 29.789-5.958 6.734-8.637 10.221-13.707 17.842a510.288 510.288 0 0 1-3.052 4.548c-.388.56-1.188 1.91-1.778 3-.59 1.089-1.536 2.79-2.104 3.78-1.939 3.383-5.612 11.02-8.755 18.2-3.58 8.182-9.102 28.465-10.181 37.4-.172 1.43-.493 4.04-.713 5.8-1.795 14.381-1.536 29.375.758 43.8.437 2.75.895 5.72 1.017 6.6.121.88.549 2.77.949 4.2.401 1.43.842 3.32.981 4.2.489 3.095 4.753 16.763 5.485 17.58.187.209.34.628.34.932 0 .732 1.807 5.335 3.175 8.088a72.975 72.975 0 0 1 2.037 4.579c.52 1.309 1.81 3.882 2.867 5.718 1.056 1.837 1.921 3.439 1.921 3.561 0 .122 1.013 1.958 2.251 4.082 5.024 8.615 12.552 18.912 18.249 24.963.825.877 1.5 1.709 1.5 1.851 0 .338 10.663 10.842 12.147 11.966.631.478 2.04 1.682 3.131 2.675 1.091.993 2.138 1.805 2.326 1.805.188 0 .453.351.59.78.136.428.553.877.926.997.374.12 1.22.688 1.88 1.263 1.852 1.612 6.055 4.56 6.502 4.56.22 0 .634.282.92.627.628.756 5.739 4.158 7.281 4.845.607.271 1.687.929 2.4 1.464.713.534 2.377 1.541 3.697 2.238l4.6 2.43c4.921 2.602 6.257 3.196 7.194 3.196.594 0 1.873.451 2.843 1.002a69.29 69.29 0 0 0 3.446 1.811c.926.445 1.792.985 1.924 1.198.132.214.759.389 1.393.389s1.264.18 1.4.4c.136.22.755.4 1.375.4s1.351.27 1.625.6c.274.33.881.598 1.349.596.956-.004 6.683 1.829 8.313 2.662.584.298 1.853.542 2.82.542.967 0 1.929.163 2.138.362.209.2 1.82.483 3.58.629 3.509.292 7.185 1.052 8.503 1.757 1.182.633 2.611.567 6.595-.304 1.902-.415 3.54-.672 3.642-.571.101.102 1.018-.098 2.036-.444 1.072-.364 3.193-.629 5.038-.629 1.752 0 3.186-.157 3.186-.348 0-.192 1.08-.471 2.4-.62 2.561-.29 3.314-1.187 1.4-1.668-1.262-.316-1.406-1.964-.2-2.28.617-.161 1.2-1.412.7-1.502-.055-.01-1.09-.116-2.3-.235-4.813-.475-2.767-.948 4.22-.975 7.146-.028 9.846-.341 7.759-.899-.539-.144-2.05-.265-3.359-.268-4.57-.01-1.606-.702 4.661-1.088 3.454-.213 6.514-.573 6.8-.8.296-.236 2.054-.365 4.088-.302 2.897.091 3.838-.031 4.994-.651.784-.42 1.931-.764 2.549-.764.618 0 2.943-.45 5.166-1 2.222-.55 4.558-1 5.19-1 .631 0 2.179-.413 3.44-.918 1.261-.506 3.462-1.249 4.892-1.653 5.089-1.436 8.645-2.713 11.861-4.26 1.793-.863 3.482-1.569 3.752-1.569.271 0 2.335-.9 4.587-2s4.368-2 4.702-2c.526 0 3.3-1.653 6.71-3.998.557-.383 1.817-1.103 2.8-1.6 2.505-1.266 8.388-5.206 8.388-5.617 0-.188.437-.576.972-.863.534-.287 2.365-1.663 4.068-3.058 1.703-1.395 3.471-2.681 3.928-2.858.458-.177 2.468-1.916 4.468-3.864s4.07-3.913 4.6-4.367c.53-.454 1.91-1.804 3.066-3 3.254-3.368 3.791-3.96 6.897-7.599 1.209-1.417 2.694-3.053 3.3-3.636.605-.584 1.101-1.279 1.101-1.546 0-.474.381-.993 3.617-4.921.873-1.06 2.101-2.95 2.729-4.2.628-1.25 1.797-3.236 2.598-4.413.801-1.177 1.456-2.381 1.456-2.676 0-.294.54-1.126 1.2-1.848.66-.723 1.2-1.595 1.2-1.939 0-.343.621-1.588 1.381-2.767.759-1.179 1.499-2.702 1.644-3.386.145-.684.483-1.514.751-1.844 1.093-1.348 2.371-3.959 3.229-6.6.952-2.93 1.731-4.892 3.033-7.643.428-.904 1.209-3.514 1.735-5.8 1.326-5.761 2.203-9.179 2.658-10.361.212-.552.56-2.352.772-4 .212-1.648.566-3.986.787-5.196.221-1.21.593-4.63.827-7.6.234-2.97.63-5.978.879-6.685.427-1.209.138-11.761-.773-28.215l-.238-4.3h1.41c1.335 0 1.434-.095 1.858-1.777.702-2.79.591-12.006-.153-12.623-.345-.286-.6-1.158-.6-2.049 0-1.112.17-1.551.6-1.551.33 0 .6-.291.6-.647 0-.464-.242-.583-.858-.422-.612.16-.734.101-.427-.206.671-.671 1.752-.04 1.67.974-.152 1.862.032 2.701.591 2.701.818 0 1.044.51 1.426 3.212.185 1.311.608 2.655.939 2.986.732.732 1.187.781.954.102-.095-.275-.028-1.01.148-1.633.448-1.587-.378-7.984-1.083-8.387-1.064-.608-1.846-2.697-1.566-4.187.179-.958.1-1.511-.247-1.726-.71-.438-.781-5.967-.077-5.967.301 0 .609.802.768 2 .276 2.082.479 2.323 1.282 1.52 1.549-1.549.157-5.92-1.886-5.92-.882 0-.896-.068-.619-3.025.269-2.864.239-3.036-.566-3.246-.5-.131-.849-.544-.849-1.004 0-.43-.259-1.041-.576-1.358-.317-.317-.7-1.429-.852-2.472-.429-2.948-1.121-4.032-2.417-3.784l-1.079.206.271-2.308c.245-2.078.171-2.441-.738-3.632-.555-.728-1.009-1.516-1.009-1.75 0-.235-.157-.427-.35-.427-.193 0-.464-.569-.603-1.264-.139-.696-.597-1.506-1.018-1.801-.421-.295-.883-1.068-1.026-1.719-.238-1.084-.924-2.258-5.173-8.85-.792-1.228-2.248-3.076-3.235-4.107-.987-1.03-1.795-2.046-1.795-2.258 0-.212-.45-.499-1-.637-.821-.206-1-.494-1-1.607 0-.747-.138-1.357-.306-1.357-.169 0-.918-.945-1.664-2.1-1.548-2.394-1.935-2.818-11.1-12.158-3.702-3.772-8.53-8.304-10.73-10.071-2.2-1.767-4.9-4.015-6-4.996C299.873 64.555 287.432 56 286.86 56c-.155 0-1.536-.781-3.07-1.736-1.535-.955-4.86-2.772-7.39-4.04-2.53-1.267-4.87-2.443-5.2-2.614-10.312-5.346-31.808-11.732-45.8-13.607-11.356-1.521-29.551-2.083-37.8-1.166M207.731 50.4c12.517 1.029 15.004 1.268 16.869 1.62 9.969 1.88 14.795 2.916 15.714 3.373.597.296 1.986.719 3.086.94 2.115.423 10.674 3.382 13.933 4.816 1.063.468 2.104.851 2.313.851.21 0 1.23.428 2.267.951 1.038.523 3.017 1.284 4.399 1.692 3.149.93 3.108 1.405-.317 3.665C263.059 70.246 255.614 74 254.707 74c-.798 0-2.355 1.612-3.152 3.263-2.182 4.525-3.466 7.467-4.249 9.737-.386 1.12-.59 1.832-1.725 6-.468 1.719-1.089 5.784-1.452 9.5-.217 2.217-1.146 3.168-1.901 1.945-.121-.195-.851-.473-1.624-.618l-1.404-.263V88.831c0-16.467.174-15.513-2.921-16.062-.924-.164-3.209-.656-5.079-1.092-6.843-1.598-16.109-2.95-19.2-2.802l-2.6.125-.213 13.8c-.245 15.847-.039 14.154-1.687 13.846-1.223-.228-9.073-.316-11.7-.131l-1.2.085-.2-13.8-.2-13.8-2.77-.12c-1.524-.066-4.044.094-5.6.355-5.009.84-6.781 1.129-9.23 1.505-1.32.203-3.91.75-5.755 1.215-1.845.465-3.666.845-4.046.845-.38 0-1.146.358-1.703.796l-1.012.796-.04 11.304c-.022 6.217-.041 12.794-.042 14.614l-.002 3.31-1.208.242c-.665.133-1.306.398-1.424.59-.966 1.564-2.169.272-2.189-2.352-.031-3.951-2.516-15.174-3.605-16.28-.206-.209-.374-.694-.374-1.077 0-.659-3.083-7.517-3.571-7.943-.126-.11-.427-.56-.669-1-.241-.44-.871-1.015-1.4-1.279-.528-.263-2.67-1.299-4.76-2.301-7.98-3.827-11.855-6.62-9.186-6.62.202 0 2.936-1.145 6.076-2.544 3.141-1.399 6.225-2.667 6.854-2.819.629-.151 1.889-.609 2.8-1.018 3.979-1.785 12.749-4.27 19.856-5.625 2.53-.482 4.78-1.019 5-1.192.415-.328 1.432-.468 8.8-1.208 11.195-1.126 16.46-1.309 22.731-.794m-80.96 11.385c.623.322 1.228.835 1.345 1.139.464 1.209 8.74 6.239 16.965 10.311 2.916 1.443 4.974 2.709 5.112 3.143.127.4.585 1.136 1.019 1.636.997 1.149 1.046 2.468.088 2.35-1.276-.158-2.1.478-2.1 1.623 0 .696-.354 1.367-.964 1.825-.785.589-.924.971-.748 2.056.139.851.054 1.332-.236 1.332-.248 0-.431.135-.405.3.133.837-.104 1.253-.605 1.061-.415-.16-.594.252-.702 1.612-.08 1.005-.028 1.827.117 1.827.144 0 .34.855.434 1.9.195 2.154-.277 3.175-1.137 2.461-.424-.351-.629-.216-.947.622-.546 1.434-.514 1.848.181 2.373.323.244.63 1.119.681 1.944.052.825.193 1.501.313 1.503 1.039.015 1.803 8.789.818 9.397-.22.136-.4.957-.4 1.824 0 .867.18 1.576.4 1.576.22 0 .4.45.4 1 0 .622.227 1 .6 1 .499 0 .6.778.6 4.6 0 4.787.06 4.619-1.7 4.76-.275.022-.459-.23-.408-.56.051-.33-.388-.824-.976-1.098-1.342-.626-3.277.781-2.448 1.78.318.383.586.424.875.135.758-.758 1.15-.434.969.801-.226 1.542.02 1.704 2.945 1.931 2.072.161.611 4.051-1.521 4.051-1.475 0-1.957.883-1.534 2.809.328 1.495.624 1.494 1.735-.009.488-.66 1.152-1.2 1.475-1.2.323 0 .588-.157.588-.348 0-.192 1.125-.468 2.5-.613 1.375-.146 3.86-.465 5.523-.709 3.647-.537 7.957.278 10.616 2.005.901.586 2.536 1.647 3.633 2.358 1.856 1.204 2.928 2.621 2.928 3.872 0 .29.341.96.757 1.49.684.869.736 1.475.543 6.241-.309 7.628-1.35 9.105-5.066 7.195-1.119-.574-2.537-1.151-3.152-1.28-.616-.13-1.885-.995-2.822-1.923-3.387-3.356-4.896-4.288-6.939-4.288-1.439 0-3.526-1.389-4.532-3.018-.667-1.079-1.316-1.513-2.992-2-1.177-.342-2.613-.994-3.19-1.448-1.81-1.424-1.764 1.745.052 3.561 1.367 1.367 1.336 4.514-.059 6.018-1.212 1.307-1.386 3.588-.3 3.937 2.946.947 3.7 1.788 3.7 4.126 0 1.191-.582 1.624-2.184 1.624-2.509 0-2.353 2.434.187 2.92 1.813.347 3.171 1.5 3.188 2.705.014.958 2.026 2.676 3.917 3.343 2.212.78 3.664 1.858 3.679 2.732.007.385.166.7.353.7.187 0 1.132.537 2.1 1.193.968.656 2.042 1.196 2.387 1.2.345.004 1.335.637 2.2 1.407.865.77 1.733 1.4 1.928 1.4.196 0 1.816.721 3.6 1.603 4.711 2.327 5.489 2.866 5.971 4.139.215.568.526.681 1.32.482 1.3-.326 4.618.742 5.569 1.793.68.751.678.783-.053.795-.709.011-.714.041-.062.42 1.492.869.805 1.566-1.6 1.622-1.265.03-1.892.133-1.394.229 1.622.312.502.917-1.697.917-2.675 0-3.946-.385-2.78-.842.547-.214.305-.302-.829-.302-1.139 0-1.377.088-.827.303 2.295.899-5.849 1.414-8.573.543-1.557-.498-18.086-1.143-18.751-.732-.673.416.634 2.7 2.191 3.83 1.455 1.056 1.51 1.451.535 3.841-.855 2.099-.314 2.709 2.146 2.42 1.804-.212 2.46-.079 4.592.929l2.488 1.176-.231 1.517a46.96 46.96 0 0 1-.611 3.117c-.208.88-.542 3.736-.741 6.346-.34 4.461-.449 4.888-1.814 7.099-1.59 2.576-1.582 2.635.634 4.637.84.759 1.641 1.736 1.779 2.171.2.632.546.767 1.717.669 1.644-.137 2.245-2.357 1.274-4.703-.357-.862-.297-1.414.313-2.845.417-.976.983-2.981 1.26-4.455.382-2.038.925-3.281 2.261-5.178.967-1.374 1.758-2.678 1.758-2.899 0-.221.519-.95 1.153-1.622.633-.671 1.68-1.785 2.325-2.476.756-.81 2.017-1.512 3.547-1.976 1.306-.396 2.659-.956 3.006-1.244.348-.288.782-.524.965-.524.184 0 1.222-.57 2.307-1.266 1.085-.697 3.116-1.666 4.513-2.154 1.397-.488 3.315-1.244 4.262-1.68.947-.437 2.712-.99 3.922-1.23 9.622-1.911 8.606-1.846 14.194-.902 2.818.476 5.862 1.189 6.765 1.586.902.396 2.271.948 3.041 1.227 2.564.928 6.595 2.564 7 2.84.22.15 1.48.862 2.8 1.581 11.598 6.322 16.129 13.737 16.183 26.488l.017 3.89 1.3-.242c1.533-.286 3.443-1.37 4.526-2.568.426-.47 1.494-1.22 2.374-1.666.88-.447 2.191-1.327 2.914-1.958.723-.63 1.468-1.146 1.657-1.146.575 0 .87-1.269.421-1.809-.232-.28-.764-.419-1.183-.309-1.013.265-5.075-1.685-5.616-2.696-.236-.44-.616-3.002-.845-5.693a421.3 421.3 0 0 0-.619-6.76c-.278-2.567.826-3.308 5.054-3.395 1.659-.033 3.303-.078 3.653-.1 1.059-.064 1.559-1.764 1.195-4.066-.18-1.143-.235-2.459-.122-2.925.469-1.922.368-1.908 11.459-1.661 13.443.299 13.486.306 14.141 2.619 1.742 6.15 1.797 6.195 5.479 4.401l2.704-1.318 3.215.455c2.911.412 4.231.716 8.693 2.005 3.793 1.095 6.399 2.216 8.4 3.612 1.21.844 2.56 1.647 3 1.783 2.797.87 9.184 8.63 8.925 10.845-.176 1.511.004 1.705.845.912 1.033-.975.076 3.324-2.203 9.9-3.733 10.772-4.365 12.475-4.841 13.048-.252.304-1.356 2.352-2.453 4.552-1.098 2.2-2.662 5.08-3.478 6.4-.815 1.32-1.864 3.03-2.33 3.8-1.123 1.852-5.129 7.746-5.439 8-.134.11-1.211 1.46-2.395 3-5.54 7.21-15.605 16.906-24.791 23.883a849.608 849.608 0 0 0-3.44 2.621c-.438.341-6.136 4.103-8.999 5.941-3.249 2.086-7.686 4.48-15.501 8.364-4.235 2.104-7.7 4.009-7.7 4.232 0 .223-.18.295-.4.159-.258-.16-.4 1.453-.4 4.548 0 6.155-.31 6.394-10.69 8.239-1.71.304-3.926.738-4.924.965-.998.227-4.264.617-7.259.866-6.802.567-7.127.448-7.127-2.604 0-3.325-.05-3.346-7.991-3.301l-6.809.039v2.35c0 3.924-.171 4.054-4.943 3.739-7.997-.527-23.162-3.411-24.413-4.642-.564-.556-1.078-4.45-.808-6.131.318-1.989-.129-4.933-.751-4.942-1.077-.015-18.129-8.524-19.685-9.823-.22-.184-1.345-.912-2.501-1.618-6.089-3.723-8.242-5.145-11.896-7.854C116.538 283.692 96 262.049 96 258.032c0-.204-.418-.879-.929-1.501-.949-1.157-2.879-4.593-6.363-11.331-1.9-3.675-3.334-7.053-4.584-10.8-.33-.99-.956-2.725-1.391-3.856-1.738-4.522-3.198-10.879-2.383-10.375.571.353.572.006.002-1.059-.548-1.024-.019-5.445 1.666-13.91 2.433-12.221 2.765-13.417 7.021-25.3 2.539-7.089 5.796-13.414 11.615-22.557 3.518-5.527 4.461-7.467 1.746-3.592-.88 1.257-1.6 2.374-1.6 2.484 0 .11-.45.685-1 1.278-.55.594-1 1.219-1 1.391 0 .171-.466 1.05-1.035 1.952-.569.902-1.714 2.923-2.544 4.492a350.658 350.658 0 0 1-2.284 4.252c-.426.77-1.39 2.84-2.143 4.6-.753 1.76-1.509 3.26-1.681 3.333-.172.074-.313.441-.313.816 0 .971-1.485 3.76-1.763 3.311-.229-.371.515-2.852 1.292-4.307.221-.414.607-1.774.858-3.022.251-1.248.717-2.485 1.035-2.749.318-.264.578-.889.578-1.388 0-.5.242-1.001.537-1.114 2.113-.811 1.985-4.45-.237-6.754-.763-.791-.96-1.734-.275-1.31.234.144.756-.037 1.16-.403.445-.402.833-.508.982-.267a.476.476 0 0 1-.16.65c-.74.457-.423 1.661.58 2.197 1.024.548 2.565-.573 2.6-1.893.007-.275.176-.5.375-.5.436 0 .083-3.242-.413-3.78-.602-.655-.381-2.707.351-3.268.615-.471.627-.591.1-.982-.504-.374-.482-.407.133-.208.403.131.898.238 1.1.238.202 0 .367.345.367.767 0 2.621 1.183 2.619 2.543-.004 1.216-2.344 1.336-3.792.397-4.829-.362-.401-.694-1.225-.737-1.831-.134-1.9-.192-2.103-.603-2.103-.22 0-.403.405-.406.9-.009 1.354-.619 2.139-1.264 1.626-.291-.232-1.205-.543-2.03-.692-.825-.149-1.5-.442-1.5-.652 0-.21-.9-.382-2-.382-1.511 0-2-.147-2-.6 0-.486-.644-.6-3.4-.6-3.36 0-3.4-.012-3.4-1 0-.8-.2-1-1-1s-1 .2-1 1c0 .622-.227 1-.6 1-.33 0-.6.27-.6.6 0 .454-.492.6-2.027.6-1.891 0-2.009-.058-1.754-.859.238-.75.153-.826-.673-.605-.521.139-1.261.256-1.646.259-.385.003-.7.275-.7.605 0 .479-.592.6-2.928.6h-2.929l.18-3.5c.099-1.925.364-3.617.588-3.76.223-.143.307-.872.186-1.62-.154-.947-.008-1.643.481-2.291l.702-.931.316.951.317.951.168-1.08c.093-.594-.013-1.419-.234-1.832-.288-.539-.239-1.068.175-1.866.318-.612.578-1.363.578-1.668 0-.305.184-.554.41-.554.225 0 .567-.414.76-.921.192-.506 1.178-2.321 2.19-4.033 1.012-1.712 1.84-3.179 1.84-3.261 0-.082.453-.832 1.007-1.667.554-.835 1.229-1.861 1.5-2.281.813-1.258 6.642-9.166 7.498-10.171.437-.514.795-1.099.795-1.3 0-.201.136-.366.302-.366.166 0 1.555-1.53 3.086-3.4 1.531-1.87 2.925-3.4 3.098-3.4.173 0 .314-.187.314-.415 0-.395 4.923-5.239 9.579-9.426a314.763 314.763 0 0 0 4.6-4.24c2.442-2.3 3.472-2.256 2.214.095-.252.47-.39.923-.306 1.006.083.083 1.031-1.597 2.106-3.734 3.484-6.926 8.465-14.544 12.153-18.586 1.178-1.291.999-1.253 2.425-.515m39.838 13.406c-.782.863-1.509.734-1.149-.204.124-.323.594-.587 1.045-.587.79 0 .794.028.104.791M144 77.381c-.55.308-1.338.666-1.75.796-1.811.57.779 5.667 3.201 6.3.775.203.824.09.646-1.492-.157-1.394-.036-1.845.655-2.437 1.127-.964 1.069-1.592-.252-2.755-1.295-1.139-1.222-1.127-2.5-.412m156.759 10.794c2.082 1.314 9.248 8.373 11.241 11.074.77 1.044 2.75 3.457 4.4 5.362 1.65 1.906 3.313 4.071 3.696 4.812.383.741 1.24 1.749 1.904 2.24.671.496 1.83 2.152 2.607 3.724.769 1.558 2.274 3.913 3.343 5.235 1.07 1.321 2.694 3.996 3.611 5.942.916 1.947 2.29 4.269 3.052 5.16.763.891 1.387 1.993 1.387 2.45 0 1.335 1.774 5.819 3.385 8.557l1.49 2.532-.285 4.568-.286 4.569h-1.924c-1.691 0-1.94.109-2.052.9l-.128.9-9.877.107-9.878.107-.122 1.666c-.122 1.652-1.883 2.956-2.545 1.885-.353-.572-4.418-.44-4.916.16-.321.387-.241.94.305 2.1 2.008 4.27 2.433 5.264 2.433 5.701 0 .261.281.474.624.474.343 0 .506.19.362.423-.384.62.079 2.099.983 3.141.434.501.984 1.929 1.221 3.173.609 3.2 1.203 5.295 1.851 6.525.658 1.25.715 1.938.159 1.938-.22 0-.4-.373-.4-.829 0-.455-.27-1.098-.6-1.428-.33-.33-.6-1.037-.6-1.572 0-.534-.18-.971-.4-.971-.22 0-.4-.255-.4-.568 0-.312-.258-1.077-.573-1.7a134.304 134.304 0 0 1-1.67-3.532 151.117 151.117 0 0 0-1.827-3.854c-.402-.8-.73-1.751-.73-2.113 0-.362-.27-.762-.6-.888-.33-.127-.605-.436-.61-.688-.006-.251-.636-1.439-1.4-2.638-.765-1.2-1.39-2.589-1.39-3.086 0-.498-.357-1.096-.793-1.329-1.003-.537-5.335-7.073-5.023-7.578.312-.505.933-5.824 1.451-12.426.589-7.498.14-21.242-.901-27.593a488.113 488.113 0 0 1-1.135-7.207c-.173-1.21-.614-3.28-.98-4.6-.366-1.32-.758-2.85-.872-3.4-.114-.55-.369-1.36-.567-1.8-.198-.44-.831-2.24-1.406-4-.576-1.76-1.273-3.74-1.549-4.4-.73-1.744-1.425-3.977-1.425-4.577 0-.286 1.485 1.002 3.3 2.861 1.815 1.86 4.091 3.881 5.059 4.491m-147.022-4.151c.626 1.322 1.027 2.694.891 3.047-.294.766-.565.576-.731-.513-.067-.437-.521-1.471-1.009-2.299-.891-1.51-1.148-2.667-.588-2.649.165.005.812 1.091 1.437 2.414M280.674 85.3c.675 1.375 1.444 3.177 1.709 4.004.265.827.647 1.401.849 1.276.203-.125.368.267.368.87 0 1.841 1.273 5.875 1.665 5.276.215-.327.324.23.289 1.474-.072 2.573 1.293 10.772 1.687 10.134.342-.553.456 3.661.516 19.066.048 12.087.078 11.982-2.654 9.276-3.515-3.481-6.755-6.238-7.204-6.129-.274.067-.356.044-.182-.051.174-.096.108-.424-.146-.73-.254-.307-.666-.44-.916-.297-.25.142-.323.114-.162-.064.385-.426-1.223-1.805-2.105-1.805-.38 0-.914-.27-1.188-.6-.386-.465-.389-.6-.011-.6.268 0-.267-.63-1.189-1.4-.922-.77-1.939-1.4-2.261-1.4-.323 0-.488-.16-.367-.355.3-.485-3.86-3.644-4.809-3.651-.639-.005-.666-.069-.163-.394.485-.314.428-.389-.3-.394-.495-.003-.855-.158-.8-.345.055-.186-.485-.888-1.2-1.56s-1.3-1.6-1.3-2.061c0-.462-.18-.84-.4-.84-.22 0-.4-.349-.4-.776 0-.871.778-1.565.838-.748.081 1.099 1.1-5.166 1.13-6.943.036-2.078.357-3.226.823-2.938.372.229 1.609-4.015 1.609-5.521 0-.591.178-1.074.396-1.074.218 0 .928-1.173 1.578-2.606.815-1.799 1.559-2.82 2.404-3.3.673-.382 1.139-.917 1.037-1.19-.11-.291.262-.593.899-.731 1.683-.365 2.884-1.052 2.611-1.495-.137-.221-.085-.3.115-.177.2.124 1.353-.653 2.562-1.725 2.856-2.534 3.188-2.497 4.672.524m-171.409.917c-.256.561-.458 1.237-.449 1.502.008.264.281-.131.606-.88.683-1.574.539-2.149-.157-.622m34.159 2.383c-.159.44-.454 1.213-.657 1.719-.466 1.166-.476 2.881-.016 2.881.7 0 1.326-1.105.808-1.425-.356-.22-.318-.416.146-.755.478-.35.553-.786.317-1.839-.262-1.17-.354-1.258-.598-.581m-36.159 3.217c-.256.561-.452 1.327-.437 1.702.016.374.286-.023.602-.884.653-1.782.536-2.358-.165-.818m-.973 2.825c-.161.16-.281.756-.267 1.325l.026 1.033.386-.966c.416-1.04.33-1.867-.145-1.392m41.185 2.036c-.87.228-.831 2.794.04 2.616.406-.083.419.078.062.746-.251.468-.385 1.461-.298 2.206.087.744.015 1.354-.161 1.354s-.32-.81-.32-1.8-.135-1.801-.3-1.801c-.965-.004-.281-3.441.692-3.475.629-.022.737.036.285.154m-42.213 2.466c-.255.852-.452 1.888-.438 2.302.015.415.288-.218.607-1.406.668-2.482.528-3.222-.169-.896m52.296.556c-.031 1.652-.108 1.887-.36 1.1-.464-1.45-.464-3.2 0-3.2.221 0 .382.94.36 2.1m-53.382 4.078c-.151.803-.184 1.549-.074 1.659.11.11.323-.456.474-1.259.15-.803.184-1.55.074-1.66-.11-.11-.324.457-.474 1.26m-.89 4.909c-.269 1.299-.471 3.07-.449 3.937.025 1.023.235.313.599-2.024.651-4.184.559-5.349-.15-1.913m-1.031 8.813c-.325 1.966-.254 21.228.083 22.424.143.508.26-4.667.26-11.5S102.579 116 102.552 116c-.026 0-.159.675-.295 1.5m38.477 5.569c-.844.224-1.244 1.216-.64 1.589.252.156.529.072.616-.187.086-.259.412-.471.723-.471.312 0 .567-.27.567-.6 0-.613-.102-.639-1.266-.331m108.816 12.522c6.98 1.323 8.603 4.442 3.95 7.588-1.375.93-3.76 2.58-5.3 3.667-1.54 1.088-4.783 3.298-7.207 4.913-2.424 1.614-4.643 3.22-4.932 3.567-.708.854-3.059 1.592-4.059 1.275-3.829-1.216-2.855-13.228 1.371-16.903 4.069-3.538 5.129-3.897 13.072-4.428.575-.039 1.973.106 3.105.321m-153.283.676c-.414.413-.314 2.456.133 2.733.242.149.4-.396.4-1.376 0-1.658-.066-1.825-.533-1.357m.711 6.168c-.147.239-.068.635.177.88.327.327.445.211.445-.435 0-.966-.208-1.115-.622-.445M354 143c0 .33-.18.6-.4.6-.22 0-.4-.27-.4-.6 0-.33.18-.6.4-.6.22 0 .4.27.4.6m-251.135 1.8c-.016 1.21.22 3.1.526 4.2l.555 2 .008-1.6c.005-.88-.231-2.77-.525-4.2l-.534-2.6-.03 2.2m199.535 3.623c0 1.236.964 3.989 1.352 3.86 1.166-.388.648-4.283-.57-4.283-.43 0-.782.19-.782.423m56.032 5.428c.017 1.072.122 1.723.234 1.447.111-.277.367-.401.568-.277.623.385.402-2.093-.234-2.621-.52-.432-.596-.238-.568 1.451m-80.61 4.334c.538.581.978 1.238.978 1.459 0 .222.176.295.39.162.622-.384.031 7.225-.806 10.394-.407 1.54-.647 3.253-.533 3.806.202.984-1.057 3.054-1.555 2.557-.297-.298-.804 1.339-.545 1.758.112.181-.145.858-.571 1.504-.426.646-.776.918-.777.605-.002-.314-.633.315-1.403 1.398s-1.4 2.195-1.4 2.471c0 .275-.135.465-.3.422-.165-.044-.75.052-1.3.214-2.667.782-8.781 2.264-10.2 2.473-.44.064-2.916.498-5.501.963-2.586.465-5.466.931-6.4 1.037-7.78.877-15.595 1.383-21.432 1.387-7.567.005-8.18-.23-4.841-1.863 8.276-4.048 11.815-5.888 12.052-6.265.153-.244.391-.331.529-.193.138.137 1.335-.363 2.66-1.112 1.325-.749 2.571-1.362 2.768-1.362.197 0 .583-.36.858-.8.275-.44.744-.8 1.043-.8 1.003 0 3.26-1.283 2.999-1.706-.149-.241-.066-.299.196-.137.523.323 3.4-1.492 3-1.892-.145-.146.101-.265.548-.265.447 0 1.271-.36 1.83-.8.56-.44 1.12-.8 1.246-.8.81 0 13.045-8.654 13.045-9.227 0-.205.225-.328.5-.273.275.055.455-.125.4-.4-.055-.275.035-.469.2-.43.452.105 2.5-.955 2.5-1.295 0-.163.585-.671 1.3-1.129.715-.459 2.02-1.393 2.9-2.075 1.978-1.535 4.075-1.455 5.622.214m33.378.015c0 .55.18 1 .4 1 .22 0 .4-.45.4-1s-.18-1-.4-1c-.22 0-.4.45-.4 1m-169.6.951c0 1.289 1.179 1.966 1.843 1.057.758-1.036.705-1.275-.343-1.556-1.357-.364-1.5-.316-1.5.499m216.8 13.606c0 1.665.166 2.421.567 2.575.757.291.914-.325.719-2.832-.243-3.122-1.286-2.913-1.286.257M85.833 186.7c-.66 2.867-1.618 5.7-1.927 5.7-.371 0-.082-2.157.588-4.4.231-.77.478-1.625.55-1.9.279-1.067 1.04-.488.789.6m-2.233 7.98c0 1.393-.117 1.763-.45 1.43-.276-.276-.347-1.002-.182-1.88.37-1.975.632-1.789.632.45m-1.164 5.613c-.326.56-.414.325-.424-1.126-.007-1.009.123-1.971.288-2.138.472-.479.595 2.476.136 3.264m-.954 4.207c-.095.495-.173.09-.173-.9s.078-1.395.173-.9a5.661 5.661 0 0 1 0 1.8m241.315 3.166c-.268 1.134-.316.974-.322-1.066-.005-1.822.071-2.143.316-1.334.177.587.18 1.667.006 2.4m-242.353 3.148c-.355.89-.396.824-.419-.681-.034-2.266.53-3.664.694-1.719.065.777-.058 1.857-.275 2.4M200.2 349.6c.155.251-.729.4-2.376.4-1.483 0-2.624-.174-2.624-.4 0-.222 1.059-.4 2.376-.4 1.307 0 2.488.18 2.624.4m-8.433 5.457c.329.858.241.912-1.067.661-.605-.116-1.1-.46-1.1-.765 0-.785 1.86-.695 2.167.104m-28.462.425c-.491.095-1.391.097-2 .005-.608-.092-.205-.17.895-.173 1.1-.003 1.597.073 1.105.168M187 362.371l-1.6.275 1.811.309c2.2.376 4.589.191 4.589-.355 0-.484-2.599-.608-4.8-.229" fill="#df411c"/><path d="M124.297 62.653a44.816 44.816 0 0 1-1.397 1.572c-.275.285-.5.633-.5.775 0 .141-.699 1.099-1.554 2.128-1.875 2.258-4.995 7.249-6.923 11.072-2.938 5.83-3.448 6.95-3.713 8.153-.149.681-.438 1.341-.641 1.466-.203.126-.369.58-.369 1.01 0 .43-.164 1.094-.365 1.476-.858 1.636-2.613 8.089-3.995 14.695-2.253 10.763-2.526 27.646-.686 42.4.54 4.325.398 5.193-1.171 7.156-1.14 1.425-1.4 1.788-2.058 2.866-1.986 3.258-4.476 7.568-5.531 9.578a589.43 589.43 0 0 1-1.691 3.2c-.816 1.519-3.303 6.951-3.303 7.215 0 .145-.253.831-.561 1.525-1.727 3.877-4.58 13.113-6.011 19.46-2.457 10.895-3.694 19.553-2.984 20.889.982 1.847 6.479 10.491 7.009 11.021.301.301.547.68.547.843 0 .163.315.646.7 1.073.385.427 1.51 1.856 2.499 3.176.989 1.319 1.9 2.488 2.023 2.598.123.11.493.594.822 1.076 2.452 3.594 14.201 16.2 18.756 20.125.55.473 1.63 1.435 2.4 2.136 6.438 5.864 22.305 17.463 23.889 17.463.137 0 .532.245.88.544.565.488 5.545 3.225 9.831 5.404 2.05 1.042 5.947 2.765 8 3.538.88.331 2.14.832 2.8 1.113.66.282 1.589.629 2.064.772 1.863.561 1.864.569 1.803 16.945-.062 16.752-.112 16.357 2.174 16.937 9.013 2.287 18.04 3.747 23.159 3.747h3.6l-.155-14.642c-.115-10.856-.035-14.717.311-14.931.603-.372 15.089-.37 15.692.003.337.208.418 4.199.306 14.927L209.8 327.8l2.264.119c3.962.208 18.35-2.131 24.736-4.021l1.8-.533.104-16.217.105-16.218.895-.417a61.294 61.294 0 0 1 2.696-1.119c.99-.386 2.75-1.127 3.911-1.648 1.161-.52 2.249-.946 2.418-.946.353 0 9.337-4.537 12.166-6.144 5.514-3.132 13.477-8.526 20.391-13.813 6.164-4.713 20.01-18.476 25.353-25.2.419-.526 1.228-1.516 1.798-2.2.571-.684 2.091-2.683 3.378-4.443 1.287-1.76 2.485-3.26 2.663-3.333a.568.568 0 0 0 .322-.483c0-.296 2.501-4.141 3.503-5.384.666-.827 2.873-4.494 3.923-6.52.56-1.081.599-1.508.212-2.356-.655-1.438-7.288-7.692-9.563-9.015-5.699-3.317-7.07-3.983-10.126-4.916-1.842-.562-3.889-1.191-4.549-1.396-5.197-1.618-8.786-1.267-11.746 1.15l-1.747 1.426-.692-.855c-.38-.469-1.01-2.173-1.399-3.786-1.18-4.892.061-4.53-16.772-4.896l-8.756-.19.307 2.877c.169 1.582.329 3.597.356 4.477l.049 1.6-4.861.112c-5.884.136-6.058.25-5.393 3.561.25 1.243.462 3.625.471 5.294.039 6.632.486 7.359 4.702 7.633l3.081.2.12 1.641.12 1.641-6.414 4.359c-9.567 6.501-9.472 6.468-8.854 3.125 2.127-11.503-1.921-21.215-11.331-27.192-1.71-1.086-3.678-2.34-4.375-2.788-4.732-3.043-18.31-7.333-23.337-7.373-3.785-.03-15.225 3.059-19.703 5.321-11.429 5.771-18.232 12.082-19.099 17.719-.131.851-.414 1.889-.629 2.307-.215.418-.381 3.469-.37 6.78.011 3.311-.064 6.157-.167 6.323-.168.273-5.297-2.801-6.412-3.842-.248-.231-.856-.691-1.352-1.021-.496-.33-1.602-1.174-2.458-1.876-.856-.702-1.913-1.389-2.348-1.527-2.388-.758-.492-3.527 2.295-3.353 4.022.252 3.939.411 4.522-8.618.24-3.726.523-6.915.629-7.086.741-1.199-1.489-1.94-5.837-1.94h-4.4v-1.776c0-.977.18-1.888.4-2.024.22-.136.4-1.109.4-2.162 0-2.674-.72-3.23-4.231-3.269-1.523-.017-3.489-.251-4.369-.521l-1.6-.492 1-.571 1-.572-1.6-.207c-1.209-.156-1.586-.377-1.544-.906.034-.432-.225-.7-.677-.7-.402 0-.843-.18-.979-.4-.136-.22-1.002-.427-1.924-.46-1.195-.043-1.36-.108-.576-.227.611-.092 1.1-.421 1.1-.74 0-.675 1.637-.776 2.273-.14.31.31.669.285 1.27-.09.66-.413.94-.42 1.327-.033.27.27 1.062.49 1.761.49.699 0 1.495.27 1.769.6.274.33.98.6 1.569.6s1.242.17 1.451.377c.209.207 1.135.275 2.059.15 2.596-.351 1.268-1.327-1.805-1.327-1.335 0-2.886-.263-3.528-.598-.63-.328-1.641-.598-2.246-.6-.605-.001-1.1-.182-1.1-.402 0-.22-.557-.4-1.238-.4-1.703 0-5.562-2.255-5.562-3.249 0-.17-.405-.748-.9-1.284-1.045-1.132-4.3-7.523-4.3-8.443 0-.343-.161-.624-.358-.624-.197 0-.459-.675-.583-1.5l-.689-4.597c-1.005-6.72.546-10.144 4.552-10.052 1.786.041 2.423.251 3.338 1.1 1.097 1.017 2.14 1.375 2.14.735 0-.172.54-.632 1.2-1.022 1.595-.943 1.665-2.376.107-2.193-.786.093-1.131-.067-1.229-.571-.103-.528.13-.7.949-.7.596 0 1.343.315 1.659.7.315.385.463.48.327.212-.148-.294.127-.582.689-.723 2.01-.505 2.206-4.989.218-4.989-.377 0-1.189-.63-1.803-1.4-.614-.77-1.477-1.414-1.917-1.432-.44-.017-.575-.122-.3-.233.275-.111.5-.547.5-.968 0-.422.249-.767.554-.767 1.47 0 1.846-1.747 1.846-8.586 0-6.102.056-6.614.72-6.614 1.049 0 1.68-.797 1.68-2.123 0-1.008-.121-1.133-.903-.937-1.285.323-2.196-.298-1.561-1.063.386-.465.361-.631-.126-.818-.335-.129-.61-.06-.61.154 0 .213-.315.382-.7.375-.667-.012-.667-.032 0-.42.385-.224.7-.673.7-.998 0-.324.45-.761 1-.97.55-.209 1-.565 1-.79 0-.638-1.198-.482-1.455.19-.127.33-.481.6-.788.6-.306 0-.557.151-.557.336 0 .184-.422.528-.938.763s-1.976 1.389-3.246 2.564-2.828 2.47-3.462 2.876c-.635.407-1.154.902-1.154 1.1 0 .199-.187.361-.416.361-.228 0-1.107.675-1.954 1.5-8.256 8.05-8.195 8.006-8.773 6.443-.866-2.341-.369-19.569.823-28.543.233-1.76.562-4.28.73-5.6.168-1.32.605-3.57.971-5 .366-1.43.767-3.23.89-4s.362-1.58.53-1.8c.169-.22.44-1.024.604-1.787.163-.763.439-1.663.612-2 .831-1.615 1.583-3.597 1.583-4.173 0-.352.18-.64.4-.64.22 0 .4-.32.4-.711 0-2.313 1.575-2.905 3.304-1.241.713.686 2.106 1.901 3.096 2.7.99.798 1.89 1.544 2 1.656.465.474 3.611 2.396 3.922 2.396.562 0 2.078 1.807 2.078 2.477 0 .344.27.849.6 1.123.33.274.6.926.6 1.449s.18.951.4.951c.22 0 .4.345.4.767 0 1.045.409 2.033.843 2.033.196 0 .357-.27.357-.6 0-.33.18-.6.4-.6.629 0 .467-1.089-.2-1.345-.338-.13-.6-.725-.6-1.366 0-.625-.264-1.485-.587-1.913-.713-.942-.768-2.198-.156-3.541.373-.818.326-1.201-.253-2.085-.654-.998-.658-1.121-.057-1.561 1.879-1.373.038-6.627-2.073-5.917-.414.139-.328-.032.226-.445 1.678-1.253.793-3.522-1.787-4.583-1.585-.653-2.11-1.964-1.086-2.714.854-.624 2.173-.703 2.173-.13 0 .22.17.4.377.4s.308-.356.225-.792c-.084-.435.017-.896.225-1.025.375-.232-3.376-2.983-4.067-2.983-.198 0-.36-.18-.36-.4 0-.22-.27-.4-.6-.4-.33 0-.6-.168-.6-.373s-.357-.486-.793-.625c-.436-.138-1.651-1.05-2.699-2.027-2.219-2.067-2.603-2.139-3.811-.722m8.643 6.334c.124.323.073.681-.112.796-.185.114-.431-.15-.545-.587-.239-.915.318-1.092.657-.209m4.798 2.03c-.13.34-.17.66-.087.713.082.052.927.775 1.878 1.607 1.462 1.28 1.824 1.434 2.35.998.683-.568 2.845-.486 3.602.136.264.217.804.311 1.2.208.565-.146.526-.196-.181-.233-.495-.025-.9-.226-.9-.446s-.45-.4-1-.4c-.622 0-1-.227-1-.6 0-.342-.36-.6-.838-.6-.927 0-3.162-1.192-3.162-1.686 0-.584-1.623-.319-1.862.303m11.068 5.283c.015.711.699 1.378.968.943.15-.244.162-.623.026-.843-.288-.467-1.003-.538-.994-.1M134 81.647c0 .194-.45.353-1 .353-.941 0-1.279-.387-.777-.89.322-.322 1.777.118 1.777.537m2.7 2.269c.966.993 1.161 1.684.476 1.684-.233 0-.309.225-.17.5.139.275-.005.185-.32-.2-.774-.944-1.375-.881-1.711.179l-.279.88-.712-.88c-.392-.483-.988-.879-1.325-.879-.872 0-1.146-.63-.505-1.162.576-.478 1.846-.2 1.846.405 0 .196.18.357.4.357.22 0 .4-.45.4-1s-.191-1-.424-1c-.233 0-.307-.189-.164-.419.283-.459.945-.05 2.488 1.535m1.3 6.108c0 .453-.18.712-.4.576-.22-.136-.4-.507-.4-.824 0-.317.18-.576.4-.576.22 0 .4.371.4.824m2.4 10.109c0 .807.18 1.467.4 1.467.22 0 .413.495.428 1.1.016.605.183 1.46.372 1.9.583 1.357.463-2.184-.132-3.893-.731-2.098-1.068-2.279-1.068-.574m2 7.667c0 1.13.155 1.751.4 1.6.22-.136.4-.856.4-1.6 0-.744-.18-1.464-.4-1.6-.245-.151-.4.47-.4 1.6m1.014 4.3c-.111.495-.043 1.53.151 2.3.331 1.311.356 1.253.394-.9.042-2.373-.192-2.976-.545-1.4m-.982 4.8c-.018.385-.225.7-.461.7-.919 0-1.68 1.186-1.162 1.811.677.816 1.266.737 1.116-.15-.069-.406.117-1.03.413-1.386.296-.357.445-.879.331-1.162-.129-.322-.218-.253-.237.187m-3.713 3.069c-.632.738-.605.767.646.7 1.028-.054 1.266-.217 1.123-.769-.237-.917-.949-.889-1.769.069m-3.596 7.661c-.079.237-.314.43-.523.43-.209 0-.444-.193-.523-.43-.079-.236.156-.43.523-.43s.602.194.523.43m19.51 7.997c-1.742.191-3.353.533-3.58.76-.227.227-.793.413-1.258.413-1.064 0-2.995 1.975-2.995 3.063 0 1.051 1.473 2.637 3.449 3.714 2.174 1.185 6.114 3.738 9.351 6.057 12.393 8.882 13.621 8.906 13.678.259.038-5.842-1.483-8.878-5.826-11.63-4.34-2.748-6.932-3.282-12.819-2.636m83.567 1.522c-2.508 1.195-6.2 4.42-6.2 5.416 0 .318-.229.816-.509 1.106-.554.575-1.491 4.677-1.491 6.525 0 1.066.423 2.737 1.243 4.904.584 1.546 2.468 1.188 5.508-1.048 2.519-1.852 12.956-9.004 14.378-9.852.369-.22.761-.511.871-.646.11-.136.943-.623 1.851-1.083 1.72-.872 2.149-1.489 2.149-3.092 0-3.085-12.674-4.672-17.8-2.23m-103 21.251c0 .22-.27.4-.6.4-.976 0-.688.703.6 1.464.66.39 1.2.85 1.2 1.022 0 .173.276.314.613.314.336 0 .716.27.842.6.127.33.466.6.754.6.289 0 .592.204.675.453.221.661 1.916.021 1.916-.723 0-.458-.257-.552-1-.366-.55.138-1 .095-1-.095 0-.91-1.574-2.069-2.809-2.069-1.249 0-1.282-.037-.652-.732.364-.403.542-.853.395-1-.399-.399-.934-.324-.934.132m5.821 5.566c-.28.452 2.514 2.232 2.899 1.847.153-.153-.036-.509-.421-.79-.384-.281-.699-.716-.699-.967 0-.542-1.454-.616-1.779-.09m-1.788 25.347c.092.062.482.354.867.649.599.459.7.442.7-.113 0-.399-.334-.649-.867-.649-.476 0-.791.051-.7.113m2.731 1.118c-.411.26-.265.358.536.363 1.194.007 1.41-.19.564-.514-.295-.113-.79-.045-1.1.151m-1.064 2.245c.385.1 1.015.1 1.4 0 .385-.101.07-.183-.7-.183s-1.085.082-.7.183m-10.065 7.599c.25.25.173 1.298-.218 2.956-1.075 4.564-.938 5.169 1.175 5.169 1.966 0 1.882.126 2.417-3.6.57-3.97.71-4.436 1.448-4.83.422-.226 1.707-.357 2.855-.29l2.088.12-.164 2.2a89.921 89.921 0 0 0-.2 4.4l-.036 2.2 4.8-.108c5.914-.132 5.934-.122 5.572 3.074-.364 3.221-.812 3.634-3.939 3.634-4.204 0-4.033-.612-4.033 14.427 0 14.774-.197 14.039 3.853 14.373 2.688.222 3.136.824 3.779 5.082.321 2.128-.284 2.334-5.775 1.972-5.099-.337-4.97-.468-4.253 4.308.324 2.159.49 4.085.369 4.281-.342.555-4.818.433-5.254-.143-.507-.667-1.319-4.426-1.319-6.102 0-1.62-.881-2.6-2.329-2.592-1.783.01-2.016.381-1.629 2.594 1.146 6.554.995 6.968-2.325 6.369-2.312-.418-2.811-.819-3.058-2.46-.125-.83-.379-2.545-.565-3.81-.42-2.875-.49-2.937-3.894-3.428-8.713-1.257-12.92-4.265-14.796-10.581-1.483-4.996.296-9.04 4.901-11.138l1.717-.782-1.65-1.957c-1.616-1.917-1.65-2.02-1.639-4.947.024-6.153 3.369-9.423 11.567-11.308 3.273-.752 3.301-.769 3.531-2.158.127-.77.397-1.922.6-2.56.203-.638.369-1.673.369-2.3 0-2.355 4.28-3.82 6.035-2.065m137.596.182c.252.471.614 2.095.804 3.608.437 3.482.887 4.337 2.279 4.329 2.009-.011 2.095-.277 1.409-4.346-.733-4.35-.687-4.432 2.528-4.442 2.728-.008 2.782.081 4.146 6.894.415 2.071.561 2.3 1.47 2.3 1.158 0 5.194 1.048 6.228 1.617.382.211.889.383 1.126.383.238 0 1.095.495 1.906 1.1 5.437 4.059 6.454 10.071 2.424 14.323l-1.159 1.224 1.956.854c3.862 1.686 5.659 5.456 4.871 10.219-1.091 6.6-6.717 10.913-15.307 11.735-3.042.292-3.144.424-3.903 5.088-.635 3.905-1.06 4.438-3.649 4.575-3.104.164-3.324-.192-2.564-4.163.802-4.19.781-4.424-.43-4.728-2.157-.541-3.366 1.326-3.366 5.199 0 2.906-.876 3.774-3.81 3.774-3.017 0-2.954.156-2.124-5.298.585-3.839.835-3.644-4.562-3.546-5.889.107-6.319-.148-5.398-3.203.357-1.184.707-2.513.776-2.953.106-.665.532-.839 2.523-1.032 4.088-.395 4.06-.347 4.39-7.407.158-3.357.154-9.212-.009-13.012-.348-8.14-.436-8.313-4.242-8.336-3.355-.019-4.02-.71-3.866-4.014L253 208.6l4.8-.037c2.64-.02 5.049-.065 5.354-.1.431-.049.492-.487.273-1.963-1.072-7.237-1.181-6.9 2.239-6.9 1.948 0 2.377.133 2.765.857m-64.031 5.337c5.782 1.114 11.062 2.681 13.932 4.134.808.409 2.151 1.075 2.986 1.48 3.928 1.908 4.568 3.961 2.57 8.237a584.854 584.854 0 0 0-2.288 4.955c-5.759 12.706-6.503 13.86-10.035 15.563-4.155 2.004-3.877 4.888.696 7.223.847.432 2.487 1.377 3.647 2.1 1.159.723 2.191 1.314 2.293 1.314.102 0 1.403.747 2.892 1.66 3.095 1.898 3.603 2.187 11.707 6.666.99.547 1.89 1.116 2 1.264.11.147.47.384.8.526.33.142 1.5.801 2.6 1.464 1.1.664 2.405 1.385 2.9 1.603 3.016 1.33-.45 1.488-5.9.268-1.43-.32-4.76-1.053-7.4-1.628-2.64-.576-5.52-1.206-6.4-1.4-.88-.194-3.04-.658-4.8-1.03-1.76-.373-3.83-.822-4.6-.999-6.37-1.464-8.126-1.762-10.4-1.764-1.43-.001-3.95.328-5.6.732-1.65.403-3.72.87-4.6 1.038-.88.168-2.95.618-4.6 1-1.65.382-3.72.836-4.6 1.008-2.523.494-7.204 1.493-12.2 2.605-6.19 1.378-8.556 1.656-8.33.977.136-.407 9.224-5.99 9.751-5.99.068 0 2.522-1.412 5.452-3.138s6.587-3.821 8.127-4.656c1.54-.834 2.89-1.627 3-1.762.203-.248 1.368-.92 4.405-2.541 3.434-1.833 3.187-4.822-.539-6.514-3.627-1.646-2.991-.697-8.964-13.389-.984-2.09-2.351-4.97-3.037-6.4-1.426-2.969-1.616-5.3-.562-6.908.67-1.023 7.574-4.692 8.829-4.692.294 0 .663-.129.821-.286.374-.374 3.625-1.302 9.247-2.639 3.143-.748 2.766-.743 6.2-.081m-78.8 9.977c-9.809 2.183-7.947 9.946 2.4 10.007l3.8.022.249-4.8c.325-6.256-.139-6.632-6.449-5.229m145.6 4.153c0 6.272 0 6.272 4.652 5.971 6.438-.417 9.395-3.271 7.349-7.093-1.01-1.887-5.913-3.601-10.301-3.602h-1.7v4.724m-149.343 12.512c-6.333 1.515-6.855 8.233-.769 9.908 1.051.29 2.434.691 3.072.891 1.8.566 7.725.465 7.9-.135.079-.275.054-2.84-.058-5.7l-.202-5.2-4.2-.066c-2.31-.037-4.894.1-5.743.302m149.943-.037c-.167.272-.397 2.903-.509 5.848l-.204 5.353h2.724c9.414 0 15.024-4.024 12.014-8.617-1.47-2.244-12.93-4.355-14.025-2.584" fill="#f9eede"/><path d="M0 200v200h400V0H0v200M211.756 31.406c5.744.334 11.074.768 11.844.966.77.198 2.84.564 4.6.813 8.335 1.183 20.542 4.065 25.2 5.95 1.1.445 3.246 1.191 4.769 1.657 1.524.466 3.734 1.289 4.912 1.828 1.179.539 2.237.98 2.353.98.402 0 8.882 3.896 12.366 5.682 1.974 1.011 6.754 3.677 10.8 6.022 2.79 1.617 13.772 9.118 14.911 10.184.757.709 1.878 1.609 2.49 2 .613.392 2.362 1.882 3.886 3.312 1.525 1.43 3.569 3.26 4.543 4.067 3.933 3.258 14.468 14.143 16.347 16.89.317.463.68.933.805 1.043.556.486 3.588 4.333 4.459 5.658.527.802 2.503 3.772 4.391 6.6 1.887 2.828 3.924 5.952 4.527 6.942 2.533 4.164 5.041 8.467 5.041 8.65 0 .108 1.28 2.825 2.843 6.039 1.564 3.214 3.203 6.937 3.642 8.274.439 1.338 1.168 3.153 1.62 4.034.84 1.638 3.072 8.516 4.146 12.776.329 1.304.772 2.697.985 3.094.212.397.54 1.489.728 2.427.188.938.714 3.416 1.168 5.506 3.926 18.076 4.84 44.285 2.079 59.6-.218 1.21-.582 3.73-.809 5.6-.227 1.87-.59 3.85-.808 4.4-.218.55-.742 2.53-1.165 4.4-.881 3.896-2.735 10.725-3.05 11.234-.117.19-.574 1.724-1.016 3.41-.441 1.686-1.154 3.754-1.583 4.595-.429.841-.78 1.817-.78 2.169 0 .353-.72 2.17-1.6 4.04-.88 1.87-1.6 3.475-1.6 3.568 0 .312-6.019 12.35-7.719 15.437-4.524 8.219-9.069 14.811-16.22 23.529-6.65 8.107-15.231 16.698-22.496 22.523-1.851 1.483-3.815 3.128-4.365 3.653-.55.526-1.723 1.401-2.606 1.945-.883.543-1.861 1.296-2.173 1.672-.312.376-1.25 1.031-2.083 1.457-.834.425-2.106 1.288-2.827 1.918-.721.629-2.292 1.639-3.49 2.244-1.198.605-3.57 1.971-5.269 3.036-1.7 1.066-3.96 2.34-5.021 2.833-1.062.492-3.059 1.58-4.438 2.416-1.379.837-2.738 1.521-3.02 1.521-.282 0-.684.158-.893.35-.209.193-1.91.989-3.78 1.77-10.74 4.483-24.363 8.837-31 9.908-1.32.213-3.39.66-4.6.992-1.21.333-3.64.767-5.4.965-1.76.197-4.01.54-5 .761-7.082 1.582-30.01 1.513-42-.125-7.326-1.001-19.242-3.226-20.4-3.809-.33-.166-1.32-.414-2.2-.551-1.821-.282-12.422-3.637-13.53-4.281-.402-.234-1.932-.793-3.4-1.244-8.871-2.721-30.812-14.853-39.01-21.569-1.105-.905-6.163-4.823-7.26-5.624-4.655-3.396-18.072-17.029-23.44-23.816-4.401-5.564-10.36-13.636-10.36-14.033 0-.238-.418-.941-.93-1.563-1.112-1.354-7.777-13.34-9.303-16.733a594.36 594.36 0 0 0-2.761-5.998c-.925-1.98-2.006-4.59-2.403-5.8-.958-2.919-2.587-7.601-2.992-8.6-.474-1.17-2.002-6.428-2.674-9.2l-.921-3.8c-2.718-11.191-4.829-28.168-4.801-38.6.024-8.882 1.93-28.33 3.175-32.4.202-.66.486-2.1.632-3.2.479-3.627 3.67-14.948 5.696-20.214.209-.543.6-1.706.868-2.586 1.068-3.493 3.758-9.769 7.032-16.4.76-1.54 1.382-2.944 1.382-3.12 0-.176 1.579-2.966 3.508-6.2s3.774-6.42 4.1-7.08c.326-.66.903-1.545 1.284-1.966.38-.422 1.188-1.502 1.795-2.4.607-.899 2.096-2.984 3.309-4.634 1.212-1.65 2.334-3.18 2.494-3.4.702-.971 5.788-6.884 6.606-7.681.497-.484.904-.982.904-1.107 0-.124.766-.987 1.702-1.919A76.557 76.557 0 0 0 81.431 82c1.004-1.145 3.802-3.812 11.13-10.607 2.09-1.939 11.236-8.937 14.439-11.048 5.686-3.749 9.791-6.345 10.032-6.345.113 0 1.167-.614 2.341-1.365 1.707-1.093 12.788-6.645 16.427-8.232 2.736-1.193 3.936-1.65 6.8-2.589 1.76-.578 3.56-1.208 4-1.401.44-.194 1.88-.654 3.2-1.022 1.32-.369 2.76-.817 3.2-.995 1.67-.677 4.982-1.596 5.752-1.596.44 0 .906-.17 1.034-.377s1.083-.494 2.123-.636c1.858-.256 2.905-.501 5.691-1.333.77-.23 2.84-.602 4.6-.827 1.76-.225 5.036-.69 7.28-1.032 3.731-.57 15.843-1.622 20.076-1.744.966-.028 6.456.222 12.2.555M123.52 85.915A132.968 132.968 0 0 0 121.809 90c-.387.99-.848 2.16-1.023 2.6-1.021 2.562-2.964 12.459-3.652 18.6-.528 4.703-.901 25.603-.458 25.591.178-.005 1.747-1.355 3.486-3s3.238-2.991 3.331-2.991c.093 0 .672-.495 1.287-1.1.615-.605 2.063-1.9 3.218-2.877 1.155-.978 2.303-1.971 2.551-2.206.248-.236 1.26-1.056 2.25-1.823 2.659-2.061 3.232-2.529 3.95-3.225.358-.347 1.371-1.157 2.251-1.8 2.746-2.006 2.707-1.925 2.468-5.083-.242-3.207-.659-5.408-1.648-8.686-.365-1.21-.76-2.65-.878-3.2-.118-.55-.469-1.567-.778-2.26-.31-.694-.564-1.461-.564-1.706 0-.245-.167-.757-.371-1.139-.205-.382-.741-1.51-1.193-2.506-.638-1.408-1.335-2.12-3.126-3.2-1.268-.764-3.476-2.389-4.908-3.612-1.431-1.222-2.799-2.34-3.039-2.484-.262-.158-.838.65-1.443 2.022m154.208-1.549c-2.111 1.967-7.467 6.034-7.946 6.034-1.385 0-3.77 4.932-5.898 12.2-2.712 9.261-2.846 12.469-.596 14.328 2.704 2.234 7.439 6.127 9.333 7.672 1.078.88 2.595 2.163 3.37 2.851.775.688 2.116 1.858 2.981 2.6.864.742 2.918 2.581 4.563 4.086 3.899 3.567 3.901 3.563 3.748-6.137-.303-19.176-2.379-31.661-6.894-41.459-1.345-2.92-1.62-3.144-2.661-2.175M127.87 158.008c-6.816 2.045.509 26 8.229 26.912.936.111 2.871.494 4.301.851 4.355 1.088 12.27 2.478 17.2 3.02 1.87.206 5.02.559 7 .785 4.248.484 16.067.563 16.348.109.107-.173-.378-.546-1.077-.829a31.258 31.258 0 0 1-2.271-1.035c-.55-.287-4.06-2.096-7.8-4.02-10.184-5.24-25.522-14.466-27-16.241-.11-.132-.967-.721-1.905-1.308-.938-.588-2.018-1.322-2.4-1.631-6.047-4.897-9.018-7.108-9.39-6.987-.058.019-.614.187-1.235.374m145.28.294c-2.337 1.553-3.453 2.363-5.638 4.09-3.199 2.527-4.028 3.149-8.112 6.082-3.305 2.374-12.384 8.2-13.8 8.855-.33.153-1.14.604-1.8 1.003-2.297 1.388-8.441 4.632-14.707 7.766-3.469 1.735-6.204 3.323-6.077 3.528.299.484 10.451.457 15.484-.04 7.951-.787 11.385-1.208 14.7-1.806 1.87-.336 4.39-.779 5.6-.982 1.21-.204 3.37-.663 4.8-1.02 1.43-.358 3.283-.744 4.118-.858 7.206-.985 14.601-24.594 8.437-26.937-1.388-.528-1.796-.484-3.005.319m-147.312 43.969c-.351 1.029-.641 2.334-.644 2.9-.006 1.019-.726 3.402-1.297 4.29-.162.253-1.414.59-2.78.749-1.367.158-2.762.423-3.101.587-.339.164-1.432.661-2.429 1.103-6.466 2.87-8.181 9.759-3.49 14.026 1.762 1.603 1.704 1.774-1.02 3.026-7.625 3.503-6.395 14.575 2.028 18.262 1.042.456 2.255.99 2.695 1.187.44.196 1.61.451 2.6.565 5.826.674 5.642.557 6.365 4.034.275 1.32.689 3.165.919 4.1l.42 1.7h1.948c2.219 0 2.218.003 1.348-3.335-.33-1.267-.6-3.015-.6-3.885V250h2.573c2.108 0 2.609.126 2.772.7.241.851.949 4.555 1.256 6.571.231 1.517.755 1.813 3.291 1.861 1.279.024 1.365-.347.681-2.97-.335-1.288-.556-3.156-.491-4.152l.118-1.81 5.344-.112c5.316-.111 5.342-.116 5.062-1a20.249 20.249 0 0 1-.494-2.088c-.318-1.793-.706-2.073-3.27-2.363-4.007-.454-3.842.182-3.842-14.82 0-15.798.007-15.817 5.728-15.817h2.072l.067-1.6c.036-.88.081-1.915.1-2.3.029-.624-.55-.722-5.367-.9-6.077-.225-6.213-.318-5.266-3.582.227-.78.534-2.273.684-3.318l.273-1.9h-2.006c-2.207 0-2.877.871-2.891 3.76-.003.682-.248 2.05-.544 3.04l-.538 1.8h-2.551c-3.079 0-3.188-.224-2.141-4.426.89-3.574.693-4.174-1.37-4.174-1.518 0-1.598.068-2.212 1.871m137.538-.971c.534 1.789 1.131 6.644.893 7.265-.206.536-1.069.635-5.508.635h-5.264l.275 2.077c.361 2.719.365 2.723 2.572 2.723 5.048 0 5.655 1.773 5.619 16.4-.033 13.307-.242 14-4.21 14-2.354 0-2.999.722-3.549 3.974l-.27 1.602 5.133.112 5.133.112-.01 2.4c-.006 1.32-.096 3.3-.2 4.4-.186 1.957-.165 2.003.958 2.131 2.866.328 2.983.149 3.801-5.789.386-2.802.921-3.342 3.313-3.342 2.582 0 2.983 2.404 1.317 7.9-.26.858-.168.9 1.942.9h2.214l.46-1.9c.253-1.045.617-2.885.81-4.089.377-2.357 1.107-3.211 2.747-3.211 14.297 0 22.457-15.807 10.79-20.902-2.309-1.008-2.341-1.162-.586-2.818 1.82-1.717 2.244-2.663 2.244-5.004 0-6.146-4.071-9.838-12.208-11.072-2.273-.344-2.667-.693-3.005-2.663-1.168-6.796-1.138-6.741-3.656-6.741-1.99 0-2.018.018-1.813 1.1 1.463 7.709 1.465 7.7-1.491 7.7-2.411 0-3.027-.535-3.027-2.627 0-.594-.172-1.731-.382-2.527a57.486 57.486 0 0 1-.607-2.546c-.214-1.042-.344-1.1-2.465-1.1-2.135 0-2.227.042-1.97.9m-66.176 5.573c-.77.215-2.39.664-3.6.998-13.095 3.616-15.875 6.163-13.055 11.963.74 1.521 1.753 3.666 2.25 4.766.497 1.1 1.644 3.53 2.548 5.4.903 1.87 1.736 3.67 1.85 4 1.057 3.064 2.017 3.916 7.207 6.397.423.202.635 1.059.717 2.906l.118 2.62-4.918 2.877a915.026 915.026 0 0 0-7.177 4.238c-1.243.749-2.365 1.362-2.493 1.362-.127 0-1.216.63-2.42 1.4-1.204.77-2.272 1.4-2.374 1.4-.103 0-2.169 1.17-4.593 2.6-2.424 1.43-4.599 2.6-4.833 2.6-.235 0-.427.18-.427.4 0 .22-.27.4-.6.4-.33 0-.6.18-.6.4 0 .479.099.478 2.4-.039a918.4 918.4 0 0 1 3.4-.757c.88-.194 2.95-.654 4.6-1.023 1.65-.369 3.9-.814 5-.989 1.1-.175 3.17-.612 4.6-.972 1.43-.36 3.5-.822 4.6-1.027 1.1-.205 3.17-.65 4.6-.99 6.816-1.618 8.95-1.616 15.6.016 1.43.351 3.41.786 4.4.967.99.18 3.06.634 4.6 1.007 1.54.373 3.61.824 4.6 1.001.99.177 3.15.622 4.8.988 1.65.367 3.81.831 4.8 1.032.99.201 2.52.545 3.4.766 2.648.664 3.637.312 1.697-.603-1.45-.685-5.613-3.033-6.697-3.777-.55-.378-2.08-1.282-3.4-2.009-5.625-3.098-11.103-6.245-18.697-10.741-1.948-1.153-1.337-6.45.744-6.45.479 0 2.88-1.214 3.968-2.007.448-.326 1.285-1.583 1.86-2.793.574-1.21 1.944-4.09 3.042-6.4 7.082-14.894 7.089-14.395-.232-17.848-2.044-.963-3.912-1.752-4.152-1.752-.24 0-1.808-.432-3.485-.96-6.023-1.896-10.242-2.319-13.648-1.367m-63.899 8.227c.575 1.163-.439 10.616-1.223 11.399-.957.958-6.985.492-10.178-.785-4.584-1.835-4.342-7.634.416-9.966 1.904-.933 10.591-1.445 10.985-.648m146.872.45c7.063 2.682 5.648 9.879-2.14 10.884-6.685.863-7.233.644-7.233-2.89 0-1.094-.204-3.227-.454-4.738-.249-1.512-.345-3.031-.212-3.377.371-.967 7.397-.883 10.039.121m40.273 9.33c-.025.374-.282.824-.57 1-.288.176-2.372 2.9-4.631 6.053-2.26 3.154-4.499 6.198-4.977 6.766-.477.568-1.588 1.874-2.468 2.901a301.01 301.01 0 0 0-2.565 3.034c-2.576 3.111-3.668 4.305-7.934 8.673-2.528 2.588-5.97 5.918-7.649 7.4-1.678 1.481-3.142 2.797-3.252 2.923-2.905 3.347-19.527 14.803-28 19.3-4.162 2.208-4.631 2.441-7.8 3.874-4.497 2.033-5.695 2.542-9.099 3.86-1.569.608-1.939.948-2.13 1.958-.327 1.732-.033 18.051.331 18.415.167.166 3.607-1.35 7.645-3.368 4.039-2.018 7.475-3.669 7.636-3.669.161 0 .861-.405 1.554-.9a28.58 28.58 0 0 1 2.661-1.643c1.306-.693 6.407-4.048 13.002-8.554 2.813-1.921 7.254-5.424 8-6.309.22-.261 1.12-.996 2-1.634 2.792-2.024 12.28-11.801 15.683-16.16 1.803-2.31 3.794-4.83 4.425-5.6 4.613-5.632 12.378-19.706 14.897-27 3.07-8.889 3.628-10.717 3.463-11.338-.159-.601-.179-.599-.222.018M86 230.6c0 .33.18.6.4.6.22 0 .4.44.4.977 0 .538.346 1.573.768 2.3.422.728.969 2.088 1.215 3.023.492 1.867 1.014 2.17 1.438.835.254-.801.304-.813.673-.153.289.516.248.811-.147 1.066-.459.295-.454.412.027.722.454.292.474.491.092.951-.35.421-.37.879-.075 1.656.225.591.409 1.486.409 1.989 0 .503.582 1.706 1.294 2.674.712.968 1.604 2.438 1.983 3.266.379.828.967 1.613 1.306 1.743.362.139.617.721.617 1.407 0 .909.306 1.352 1.368 1.978 1.059.625 1.427 1.155 1.628 2.342.325 1.924 3.085 6.212 5.236 8.135.996.891 1.819 2.081 2.11 3.053.262.876.968 1.96 1.568 2.408.599.448 1.27 1.009 1.49 1.246.502.541 6.695 7.003 8.131 8.484a26.686 26.686 0 0 0 2.214 2c.63.494 1.71 1.505 2.4 2.247 1.294 1.389 4.461 3.926 7.006 5.609.797.527 2.169 1.571 3.049 2.32 1.887 1.606 1.382 1.245 6.455 4.622 2.23 1.485 4.283 2.7 4.562 2.7.279 0 1.064.415 1.745.922 1.501 1.118 4.289 2.742 8.038 4.683 1.54.797 3.16 1.645 3.6 1.885 2.677 1.459 6.424 2.784 6.694 2.365.162-.25.297-4.632.3-9.736l.006-9.281-1.3-.574c-.715-.316-3.19-1.349-5.5-2.296-11.212-4.595-23.857-12.136-36.086-21.521-3.758-2.884-11.5-10.019-16.481-15.187-5.222-5.421-6.025-6.286-7.833-8.452-.99-1.186-2.295-2.657-2.9-3.269-.605-.612-1.1-1.22-1.1-1.352 0-.362-2.076-3.058-3.1-4.027-.495-.469-.9-1.056-.9-1.306s-.177-.454-.392-.454c-.216 0-.506-.45-.644-1s-.411-1-.607-1c-.197 0-.357-.27-.357-.6 0-.33-.18-.6-.4-.6-.22 0-.4.27-.4.6m45.978.902c.812.657.871 1.079.944 6.7L133 244.2l-4.223.113c-9.769.261-15.746-4.62-12.036-9.83 2.116-2.971 12.693-5.041 15.237-2.981m148.601.092c4.836.792 6.678 2.421 6.678 5.907 0 4.24-3.629 6.347-11.661 6.769-5.602.295-5.916.111-5.232-3.075.24-1.119.436-3.61.436-5.535 0-2.189.18-3.68.48-3.98.587-.587 5.938-.636 9.299-.086M194.8 298.733c-.613.205-.536 20.971.08 21.587.335.335 2.507.48 7.2.48h6.72v-22.2H202c-3.74 0-6.98.06-7.2.133" fill="#050405"/><path d="M190.68 31.437c-3.916.294-8.956.815-11.2 1.158-2.244.342-5.52.807-7.28 1.032-1.76.225-3.83.597-4.6.827-2.786.832-3.833 1.077-5.691 1.333-1.04.142-1.995.429-2.123.636-.128.207-.594.377-1.034.377-.77 0-4.082.919-5.752 1.596-.44.178-1.88.626-3.2.995-1.32.368-2.76.828-3.2 1.022-.44.193-2.24.823-4 1.401-2.864.939-4.064 1.396-6.8 2.589-3.639 1.587-14.72 7.139-16.427 8.232-1.174.751-2.228 1.365-2.341 1.365-.241 0-4.346 2.596-10.032 6.345-3.203 2.111-12.349 9.109-14.439 11.048-7.328 6.795-10.126 9.462-11.13 10.607a76.557 76.557 0 0 1-2.929 3.093c-.936.932-1.702 1.795-1.702 1.919 0 .125-.407.623-.904 1.107-.818.797-5.904 6.71-6.606 7.681-.16.22-1.282 1.75-2.494 3.4-1.213 1.65-2.702 3.735-3.309 4.634-.607.898-1.415 1.978-1.795 2.4-.381.421-.958 1.306-1.284 1.966-.326.66-2.171 3.846-4.1 7.08-1.929 3.234-3.508 6.024-3.508 6.2 0 .176-.622 1.58-1.382 3.12-3.274 6.631-5.964 12.907-7.032 16.4-.268.88-.659 2.043-.868 2.586-2.026 5.266-5.217 16.587-5.696 20.214-.146 1.1-.43 2.54-.632 3.2-1.245 4.07-3.151 23.518-3.175 32.4-.028 10.432 2.083 27.409 4.801 38.6l.921 3.8c.672 2.772 2.2 8.03 2.674 9.2.405.999 2.034 5.681 2.992 8.6.397 1.21 1.478 3.82 2.403 5.8a594.36 594.36 0 0 1 2.761 5.998c1.526 3.393 8.191 15.379 9.303 16.733.512.622.93 1.325.93 1.563 0 .397 5.959 8.469 10.36 14.033 5.368 6.787 18.785 20.42 23.44 23.816 1.097.801 6.155 4.719 7.26 5.624 8.198 6.716 30.139 18.848 39.01 21.569 1.468.451 2.998 1.01 3.4 1.244 1.108.644 11.709 3.999 13.53 4.281.88.137 1.87.385 2.2.551 1.158.583 13.074 2.808 20.4 3.809 11.99 1.638 34.918 1.707 42 .125.99-.221 3.24-.564 5-.761 1.76-.198 4.19-.632 5.4-.965 1.21-.332 3.28-.779 4.6-.992 6.637-1.071 20.26-5.425 31-9.908 1.87-.781 3.571-1.577 3.78-1.77.209-.192.611-.35.893-.35.282 0 1.641-.684 3.02-1.521 1.379-.836 3.376-1.924 4.438-2.416 1.061-.493 3.321-1.767 5.021-2.833 1.699-1.065 4.071-2.431 5.269-3.036 1.198-.605 2.769-1.615 3.49-2.244.721-.63 1.993-1.493 2.827-1.918.833-.426 1.771-1.081 2.083-1.457.312-.376 1.29-1.129 2.173-1.672.883-.544 2.056-1.419 2.606-1.945.55-.525 2.514-2.17 4.365-3.653 14.647-11.743 29.657-29.597 38.716-46.052 1.7-3.087 7.719-15.125 7.719-15.437 0-.093.72-1.698 1.6-3.568.88-1.87 1.6-3.687 1.6-4.04 0-.352.351-1.328.78-2.169.429-.841 1.142-2.909 1.583-4.595.442-1.686.899-3.22 1.016-3.41.315-.509 2.169-7.338 3.05-11.234.423-1.87.947-3.85 1.165-4.4.218-.55.581-2.53.808-4.4.227-1.87.591-4.39.809-5.6 2.761-15.315 1.847-41.524-2.079-59.6-.454-2.09-.98-4.568-1.168-5.506-.188-.938-.516-2.03-.728-2.427-.213-.397-.656-1.79-.985-3.094-1.074-4.26-3.306-11.138-4.146-12.776-.452-.881-1.181-2.696-1.62-4.034-.439-1.337-2.078-5.06-3.642-8.274-1.563-3.214-2.843-5.931-2.843-6.039 0-.183-2.508-4.486-5.041-8.65-.603-.99-2.64-4.114-4.527-6.942a1818.699 1818.699 0 0 1-4.391-6.6c-.871-1.325-3.903-5.172-4.459-5.658-.125-.11-.488-.58-.805-1.043-1.879-2.747-12.414-13.632-16.347-16.89-.974-.807-3.018-2.637-4.543-4.067-1.524-1.43-3.273-2.92-3.886-3.312-.612-.391-1.733-1.291-2.49-2-1.139-1.066-12.121-8.567-14.911-10.184-4.046-2.345-8.826-5.011-10.8-6.022-3.484-1.786-11.964-5.682-12.366-5.682-.116 0-1.174-.441-2.353-.98-1.178-.539-3.388-1.362-4.912-1.828-1.523-.466-3.669-1.212-4.769-1.657-4.658-1.885-16.865-4.767-25.2-5.95-1.76-.249-3.83-.615-4.6-.813-1.459-.375-20.98-1.61-24.044-1.521-.966.028-4.96.291-8.876.586m25.52 1.555c19.204 1.864 34.484 5.733 51.4 13.015 1.65.711 3.27 1.432 3.6 1.603.33.171 2.67 1.347 5.2 2.614 2.53 1.268 5.855 3.085 7.39 4.04 1.534.955 2.915 1.736 3.07 1.736.572 0 13.013 8.555 14.94 10.275 1.1.981 3.8 3.229 6 4.996 2.2 1.767 7.028 6.299 10.73 10.071 9.165 9.34 9.552 9.764 11.1 12.158.746 1.155 1.495 2.1 1.664 2.1.168 0 .306.61.306 1.357 0 1.113.179 1.401 1 1.607.55.138 1 .425 1 .637 0 .212.808 1.228 1.795 2.258.987 1.031 2.443 2.879 3.235 4.107 4.249 6.592 4.935 7.766 5.173 8.85.143.651.605 1.424 1.026 1.719.421.295.879 1.105 1.018 1.801.139.695.41 1.264.603 1.264s.35.192.35.427c0 .234.454 1.022 1.009 1.75.909 1.191.983 1.554.738 3.632l-.271 2.308 1.079-.206c1.296-.248 1.988.836 2.417 3.784.152 1.043.535 2.155.852 2.472.317.317.576.928.576 1.358 0 .46.349.873.849 1.004.805.21.835.382.566 3.246-.277 2.957-.263 3.025.619 3.025 2.043 0 3.435 4.371 1.886 5.92-.803.803-1.006.562-1.282-1.52-.159-1.198-.467-2-.768-2-.704 0-.633 5.529.077 5.967.347.215.426.768.247 1.726-.28 1.49.502 3.579 1.566 4.187.705.403 1.531 6.8 1.083 8.387-.176.623-.243 1.358-.148 1.633.233.679-.222.63-.954-.102-.331-.331-.754-1.675-.939-2.986-.382-2.702-.608-3.212-1.426-3.212-.559 0-.743-.839-.591-2.701.082-1.014-.999-1.645-1.67-.974-.307.307-.185.366.427.206.616-.161.858-.042.858.422 0 .356-.27.647-.6.647-.43 0-.6.439-.6 1.551 0 .891.255 1.763.6 2.049.744.617.855 9.833.153 12.623-.424 1.682-.523 1.777-1.858 1.777h-1.41l.238 4.3c.911 16.454 1.2 27.006.773 28.215-.249.707-.645 3.715-.879 6.685-.234 2.97-.606 6.39-.827 7.6a123.13 123.13 0 0 0-.787 5.196c-.212 1.648-.56 3.448-.772 4-.455 1.182-1.332 4.6-2.658 10.361-.526 2.286-1.307 4.896-1.735 5.8-1.302 2.751-2.081 4.713-3.033 7.643-.858 2.641-2.136 5.252-3.229 6.6-.268.33-.606 1.16-.751 1.844-.145.684-.885 2.207-1.644 3.386-.76 1.179-1.381 2.424-1.381 2.767 0 .344-.54 1.216-1.2 1.939-.66.722-1.2 1.554-1.2 1.848 0 .295-.655 1.499-1.456 2.676-.801 1.177-1.97 3.163-2.598 4.413-.628 1.25-1.856 3.14-2.729 4.2-3.236 3.928-3.617 4.447-3.617 4.921 0 .267-.496.962-1.101 1.546-.606.583-2.091 2.219-3.3 3.636-3.106 3.639-3.643 4.231-6.897 7.599-1.156 1.196-2.536 2.546-3.066 3-.53.454-2.6 2.419-4.6 4.367-2 1.948-4.01 3.687-4.468 3.864-.457.177-2.225 1.463-3.928 2.858-1.703 1.395-3.534 2.771-4.068 3.058-.535.287-.972.675-.972.863 0 .411-5.883 4.351-8.388 5.617-.983.497-2.243 1.217-2.8 1.6-3.41 2.345-6.184 3.998-6.71 3.998-.334 0-2.45.9-4.702 2s-4.316 2-4.587 2c-.27 0-1.959.706-3.752 1.569-3.216 1.547-6.772 2.824-11.861 4.26-1.43.404-3.631 1.147-4.892 1.653-1.261.505-2.809.918-3.44.918-.632 0-2.968.45-5.19 1-2.223.55-4.548 1-5.166 1-.618 0-1.765.344-2.549.764-1.156.62-2.097.742-4.994.651-2.034-.063-3.792.066-4.088.302-.286.227-3.346.587-6.8.8-6.267.386-9.231 1.078-4.661 1.088 1.309.003 2.82.124 3.359.268 2.087.558-.613.871-7.759.899-6.987.027-9.033.5-4.22.975 1.21.119 2.245.225 2.3.235.5.09-.083 1.341-.7 1.502-1.206.316-1.062 1.964.2 2.28 1.914.481 1.161 1.378-1.4 1.668-1.32.149-2.4.428-2.4.62 0 .191-1.434.348-3.186.348-1.845 0-3.966.265-5.038.629-1.018.346-1.935.546-2.036.444-.102-.101-1.74.156-3.642.571-3.984.871-5.413.937-6.595.304-1.318-.705-4.994-1.465-8.503-1.757-1.76-.146-3.371-.429-3.58-.629-.209-.199-1.171-.362-2.138-.362-.967 0-2.236-.244-2.82-.542-1.63-.833-7.357-2.666-8.313-2.662-.468.002-1.075-.266-1.349-.596-.274-.33-1.005-.6-1.625-.6-.62 0-1.239-.18-1.375-.4-.136-.22-.766-.4-1.4-.4-.634 0-1.261-.175-1.393-.389-.132-.213-.998-.753-1.924-1.198a69.29 69.29 0 0 1-3.446-1.811c-.97-.551-2.249-1.002-2.843-1.002-.937 0-2.273-.594-7.194-3.196l-4.6-2.43c-1.32-.697-2.984-1.704-3.697-2.238-.713-.535-1.793-1.193-2.4-1.464-1.542-.687-6.653-4.089-7.281-4.845-.286-.345-.7-.627-.92-.627-.447 0-4.65-2.948-6.502-4.56-.66-.575-1.506-1.143-1.88-1.263-.373-.12-.79-.569-.926-.997-.137-.429-.402-.78-.59-.78-.188 0-1.235-.812-2.326-1.805-1.091-.993-2.5-2.197-3.131-2.675C88.663 320.396 78 309.892 78 309.554c0-.142-.675-.974-1.5-1.851-5.697-6.051-13.225-16.348-18.249-24.963-1.238-2.124-2.251-3.96-2.251-4.082 0-.122-.865-1.724-1.921-3.561-1.057-1.836-2.347-4.409-2.867-5.718a72.975 72.975 0 0 0-2.037-4.579c-1.368-2.753-3.175-7.356-3.175-8.088 0-.304-.153-.723-.34-.932-.732-.817-4.996-14.485-5.485-17.58-.139-.88-.58-2.77-.981-4.2-.4-1.43-.828-3.32-.949-4.2-.122-.88-.58-3.85-1.017-6.6-2.294-14.425-2.553-29.419-.758-43.8.22-1.76.541-4.37.713-5.8 1.079-8.935 6.601-29.218 10.181-37.4 3.143-7.18 6.816-14.817 8.755-18.2.568-.99 1.514-2.691 2.104-3.78.59-1.09 1.39-2.44 1.778-3 .388-.561 1.761-2.608 3.052-4.548 5.07-7.621 7.749-11.108 13.707-17.842 10.581-11.959 23.017-22.736 34.374-29.789A387.714 387.714 0 0 0 115 56.599c3.79-2.432 14.449-8.199 15.154-8.199.144 0 2.144-.908 4.446-2.019 4.139-1.996 8.475-3.75 10.8-4.368a25.01 25.01 0 0 0 2.4-.801c1.184-.476 5.132-1.713 10.2-3.195 1.43-.418 4.4-1.13 6.6-1.582l6.8-1.4c2.583-.532 8.827-1.379 16.2-2.198 5.102-.567 22.112-.475 28.6.155M194 50.438c-4.206.287-10.318.851-15.4 1.423-1.1.124-2.18.367-2.4.541-.22.173-2.47.71-5 1.192-7.107 1.355-15.877 3.84-19.856 5.625-.911.409-2.171.867-2.8 1.018-.629.152-3.713 1.42-6.854 2.819-3.14 1.399-5.874 2.544-6.076 2.544-2.669 0 1.206 2.793 9.186 6.62a605.073 605.073 0 0 1 4.76 2.301c.529.264 1.159.839 1.4 1.279.242.44.543.89.669 1 .488.426 3.571 7.284 3.571 7.943 0 .383.168.868.374 1.077 1.089 1.106 3.574 12.329 3.605 16.28.02 2.624 1.223 3.916 2.189 2.352.118-.192.759-.457 1.424-.59l1.208-.242.002-3.31c.001-1.82.02-8.397.042-14.614l.04-11.304 1.012-.796c.557-.438 1.323-.796 1.703-.796.38 0 2.201-.38 4.046-.845 1.845-.465 4.435-1.012 5.755-1.215 2.449-.376 4.221-.665 9.23-1.505 1.556-.261 4.076-.421 5.6-.355l2.77.12.2 13.8.2 13.8 1.2-.085c2.627-.185 10.477-.097 11.7.131 1.648.308 1.442 2.001 1.687-13.846L209.4 69l2.6-.125c3.091-.148 12.357 1.204 19.2 2.802 1.87.436 4.155.928 5.079 1.092 3.095.549 2.921-.405 2.921 16.062v14.733l1.404.263c.773.145 1.503.423 1.624.618.755 1.223 1.684.272 1.901-1.945.363-3.716.984-7.781 1.452-9.5 1.135-4.168 1.339-4.88 1.725-6 .783-2.27 2.067-5.212 4.249-9.737.797-1.651 2.354-3.263 3.152-3.263.907 0 8.352-3.754 11.288-5.692 3.425-2.26 3.466-2.735.317-3.665-1.382-.408-3.361-1.169-4.399-1.692-1.037-.523-2.057-.951-2.267-.951-.209 0-1.25-.383-2.313-.851-3.259-1.434-11.818-4.393-13.933-4.816-1.1-.221-2.489-.644-3.086-.94-.919-.457-5.745-1.493-15.714-3.373-1.1-.208-4.25-.567-7-.798-16.335-1.376-15.375-1.344-23.6-.784m98.4 30.385c0 .6.695 2.833 1.425 4.577.276.66.973 2.64 1.549 4.4.575 1.76 1.208 3.56 1.406 4 .198.44.453 1.25.567 1.8.114.55.506 2.08.872 3.4.366 1.32.807 3.39.98 4.6.173 1.21.683 4.453 1.135 7.207 1.041 6.351 1.49 20.095.901 27.593-.518 6.602-1.139 11.921-1.451 12.426-.312.505 4.02 7.041 5.023 7.578.436.233.793.831.793 1.329 0 .497.625 1.886 1.39 3.086.764 1.199 1.394 2.387 1.4 2.638.005.252.28.561.61.688.33.126.6.526.6.888s.328 1.313.73 2.113c.401.799 1.223 2.534 1.827 3.854.604 1.32 1.355 2.91 1.67 3.532.315.623.573 1.388.573 1.7 0 .313.18.568.4.568.22 0 .4.437.4.971 0 .535.27 1.242.6 1.572.33.33.6.973.6 1.428 0 .456.18.829.4.829.556 0 .499-.688-.159-1.938-.648-1.23-1.242-3.325-1.851-6.525-.237-1.244-.787-2.672-1.221-3.173-.904-1.042-1.367-2.521-.983-3.141.144-.233-.019-.423-.362-.423-.343 0-.624-.213-.624-.474 0-.437-.425-1.431-2.433-5.701-.546-1.16-.626-1.713-.305-2.1.498-.6 4.563-.732 4.916-.16.662 1.071 2.423-.233 2.545-1.885l.122-1.666 9.878-.107 9.877-.107.128-.9c.112-.791.361-.9 2.052-.9h1.924l.286-4.569.285-4.568-1.49-2.532c-1.611-2.738-3.385-7.222-3.385-8.557 0-.457-.624-1.559-1.387-2.45-.762-.891-2.136-3.213-3.052-5.16-.917-1.946-2.541-4.621-3.611-5.942-1.069-1.322-2.574-3.677-3.343-5.235-.777-1.572-1.936-3.228-2.607-3.724-.664-.491-1.521-1.499-1.904-2.24-.383-.741-2.046-2.906-3.696-4.812-1.65-1.905-3.63-4.318-4.4-5.362-1.993-2.701-9.159-9.76-11.241-11.074-.968-.61-3.244-2.631-5.059-4.491-1.815-1.859-3.3-3.147-3.3-2.861m-184.221 2.696a314.763 314.763 0 0 1-4.6 4.24C98.923 91.946 94 96.79 94 97.185c0 .228-.141.415-.314.415-.173 0-1.567 1.53-3.098 3.4-1.531 1.87-2.92 3.4-3.086 3.4-.166 0-.302.165-.302.366 0 .201-.358.786-.795 1.3-.856 1.005-6.685 8.913-7.498 10.171-.271.42-.946 1.446-1.5 2.281-.554.835-1.007 1.585-1.007 1.667 0 .082-.828 1.549-1.84 3.261-1.012 1.712-1.998 3.527-2.19 4.033-.193.507-.535.921-.76.921-.226 0-.41.249-.41.554 0 .305-.26 1.056-.578 1.668-.414.798-.463 1.327-.175 1.866.221.413.327 1.238.234 1.832l-.168 1.08-.317-.951-.316-.951-.702.931c-.489.648-.635 1.344-.481 2.291.121.748.037 1.477-.186 1.62-.224.143-.489 1.835-.588 3.76l-.18 3.5h2.929c2.336 0 2.928-.121 2.928-.6 0-.33.315-.602.7-.605.385-.003 1.125-.12 1.646-.259.826-.221.911-.145.673.605-.255.801-.137.859 1.754.859 1.535 0 2.027-.146 2.027-.6 0-.33.27-.6.6-.6.373 0 .6-.378.6-1 0-.8.2-1 1-1s1 .2 1 1c0 .988.04 1 3.4 1 2.756 0 3.4.114 3.4.6 0 .453.489.6 2 .6 1.1 0 2 .172 2 .382 0 .21.675.503 1.5.652.825.149 1.739.46 2.03.692.645.513 1.255-.272 1.264-1.626.003-.495.186-.9.406-.9.411 0 .469.203.603 2.103.043.606.375 1.43.737 1.831.939 1.037.819 2.485-.397 4.829-1.36 2.623-2.543 2.625-2.543.004 0-.422-.165-.767-.367-.767-.202 0-.697-.107-1.1-.238-.615-.199-.637-.166-.133.208.527.391.515.511-.1.982-.732.561-.953 2.613-.351 3.268.496.538.849 3.78.413 3.78-.199 0-.368.225-.375.5-.035 1.32-1.576 2.441-2.6 1.893-1.003-.536-1.32-1.74-.58-2.197a.476.476 0 0 0 .16-.65c-.149-.241-.537-.135-.982.267-.404.366-.926.547-1.16.403-.685-.424-.488.519.275 1.31 2.222 2.304 2.35 5.943.237 6.754-.295.113-.537.614-.537 1.114 0 .499-.26 1.124-.578 1.388-.318.264-.784 1.501-1.035 2.749-.251 1.248-.637 2.608-.858 3.022-.777 1.455-1.521 3.936-1.292 4.307.278.449 1.763-2.34 1.763-3.311 0-.375.141-.742.313-.816.172-.073.928-1.573 1.681-3.333.753-1.76 1.717-3.83 2.143-4.6.426-.77 1.454-2.684 2.284-4.252.83-1.569 1.975-3.59 2.544-4.492.569-.902 1.035-1.781 1.035-1.952 0-.172.422-.768.939-1.325.516-.557 1.011-1.185 1.1-1.396.088-.21.829-1.373 1.646-2.583 1.394-2.067 1.459-2.297 1.066-3.8-1.257-4.808-1.797-27.486-.862-36.2.548-5.103 2.068-13.187 2.882-15.326.236-.619.429-1.644.429-2.276 0-.633.159-1.249.354-1.369.195-.121.447-.716.561-1.324.208-1.105 1.953-6.021 3.26-9.181 1.211-2.931.653-3.1-1.996-.605m15.642.304c-2.412 3.682-7.323 21.872-6.539 24.222.098.296.395-.899.66-2.654.264-1.755.645-3.911.846-4.791 1.002-4.4 1.724-7.278 2.005-8l1.012-2.6c.385-.99 1.178-2.854 1.761-4.142l1.062-2.341 2.995 2.541c1.647 1.398 4.029 3.167 5.293 3.931 1.783 1.077 2.483 1.795 3.12 3.2.452.996.988 2.124 1.193 2.506.204.382.371.894.371 1.139s.254 1.012.564 1.706c.309.693.66 1.71.778 2.26.118.55.513 1.99.878 3.2.989 3.278 1.406 5.479 1.648 8.686.239 3.158.278 3.077-2.468 5.083-.88.643-1.893 1.453-2.251 1.8-.718.696-1.291 1.164-3.95 3.225-.99.767-2.002 1.587-2.25 1.823-.248.235-1.396 1.228-2.551 2.206-1.155.977-2.603 2.272-3.218 2.877-.615.605-1.194 1.1-1.287 1.1-.093 0-1.592 1.346-3.331 2.991-1.739 1.645-3.31 2.995-3.49 3-.309.008-.099-18.65.283-25.191.162-2.775.147-2.85-.204-1-.475 2.509-.953 27.4-.526 27.4.173 0 1.588-1.218 3.145-2.706a173.998 173.998 0 0 1 5.23-4.783c1.32-1.143 3.12-2.717 4-3.499.88-.781 4.357-3.624 7.727-6.316l6.127-4.896-.25-2.8c-.449-5.046-2.965-14.157-5.424-19.642-.987-2.203-1.342-2.58-3.637-3.869-1.399-.785-3.803-2.603-5.343-4.041-3.231-3.017-3.101-2.964-3.979-1.625M276 84.798c-2.025 1.816-4.46 3.597-7.342 5.372-1.642 1.011-3.235 4.794-6.245 14.83-.692 2.306-1.699 9.404-1.466 10.332.129.515 1.364 1.82 2.744 2.901 3.06 2.397 11.519 9.407 13.696 11.35 3.025 2.699 6.419 5.823 7.716 7.1 2.662 2.622 2.681 2.573 2.828-7.283.272-18.177-2.362-34.194-7.251-44.1-1.493-3.024-1.827-3.06-4.68-.502m4.389 1.743c4.515 9.798 6.591 22.283 6.894 41.459.153 9.7.151 9.704-3.748 6.137a259.064 259.064 0 0 0-4.563-4.086 282.397 282.397 0 0 1-2.981-2.6 131.763 131.763 0 0 0-3.37-2.851 2708.101 2708.101 0 0 1-9.333-7.672c-1.907-1.576-2.041-4.901-.432-10.728 2.775-10.049 5.296-15.8 6.926-15.8.479 0 5.835-4.067 7.946-6.034 1.041-.969 1.316-.745 2.661 2.175M96.8 137.624c0 .98-.158 1.525-.4 1.376-.677-.419-.448-3 .267-3 .073 0 .133.731.133 1.624m.8 5.256c0 .646-.118.762-.445.435-.245-.245-.324-.641-.177-.88.414-.67.622-.521.622.445m255.6.12c0 .33.18.6.4.6.22 0 .4-.27.4-.6 0-.33-.18-.6-.4-.6-.22 0-.4.27-.4.6m-48.981 6.36c.559 2.982-.653 4.116-1.367 1.279-.607-2.411-.579-2.639.33-2.639.572 0 .85.364 1.037 1.36m55.381 4.713c0 .646-.165 1.072-.366.948-.201-.124-.457 0-.568.277-.112.276-.217-.375-.234-1.447-.028-1.689.048-1.883.568-1.451.33.274.6 1.027.6 1.673m-86.8 3.372a37.921 37.921 0 0 0-2.219 1.727c-.67.565-1.66 1.35-2.2 1.744-.539.394-3.051 2.257-5.581 4.14-4.279 3.186-10.945 7.744-11.324 7.744-.091 0-1.55.913-3.242 2.029-1.692 1.115-4.102 2.569-5.355 3.229a116.103 116.103 0 0 0-3.679 2.024c-1.161.683-10.112 5.189-17.574 8.848-3.337 1.636-2.727 1.87 4.841 1.865 13.664-.01 28.028-1.883 42.533-5.546 5.277-1.333 11.867-17.751 10.043-25.021-.676-2.692-4.153-4.242-6.243-2.783m-146.65.697c-3.916 3.368-.122 18.888 6.238 25.512.982 1.023 3.127 1.797 7.412 2.676 6.211 1.275 8.271 1.663 10.8 2.038 1.54.228 4.51.682 6.6 1.008 13.742 2.146 30.555 1.86 24.9-.422-2.699-1.09-13.701-6.445-17.5-8.518-4.486-2.449-6.875-3.822-8.866-5.095-1.152-.738-2.269-1.341-2.481-1.341-.213 0-.446-.141-.52-.313-.073-.172-1.39-1.102-2.927-2.066-3.631-2.277-13.444-9.266-16.006-11.4-4.001-3.332-5.667-3.785-7.65-2.079M312 158.2c0 .55-.18 1-.4 1-.22 0-.4-.45-.4-1s.18-1 .4-1c.22 0 .4.45.4 1m-181.919-.1c.708.407 4.353 3.232 8.414 6.521.382.309 1.462 1.043 2.4 1.631.938.587 1.795 1.176 1.905 1.308 1.478 1.775 16.816 11.001 27 16.241 3.74 1.924 7.25 3.733 7.8 4.02.55.287 1.572.753 2.271 1.035.699.283 1.184.656 1.077.829-.281.454-12.1.375-16.348-.109-1.98-.226-5.13-.579-7-.785-4.93-.542-12.845-1.932-17.2-3.02-1.43-.357-3.365-.74-4.301-.851-7.72-.912-15.045-24.867-8.229-26.912.621-.187 1.177-.355 1.235-.374.058-.019.497.191.976.466m146.074-.117c6.164 2.343-1.231 25.952-8.437 26.937-.835.114-2.688.5-4.118.858-1.43.357-3.59.816-4.8 1.02-1.21.203-3.73.646-5.6.982-3.315.598-6.749 1.019-14.7 1.806-5.033.497-15.185.524-15.484.04-.127-.205 2.608-1.793 6.077-3.528 6.266-3.134 12.41-6.378 14.707-7.766.66-.399 1.47-.85 1.8-1.003 1.416-.655 10.495-6.481 13.8-8.855 4.084-2.933 4.913-3.555 8.112-6.082 5.82-4.599 6.812-5.105 8.643-4.409m83.531 14.517c.195 2.507.038 3.123-.719 2.832-.803-.308-.808-4.932-.006-4.932.39 0 .612.642.725 2.1M85.044 186.1c-.072.275-.319 1.13-.55 1.9-.67 2.243-.959 4.4-.588 4.4.309 0 1.267-2.833 1.927-5.7.251-1.088-.51-1.667-.789-.6m-2.076 8.13c-.165.878-.094 1.604.182 1.88.333.333.45-.037.45-1.43 0-2.239-.262-2.425-.632-.45m-.668 2.799c-.165.167-.295 1.129-.288 2.138.01 1.451.098 1.686.424 1.126.459-.788.336-3.743-.136-3.264m54.8 3.253a5.661 5.661 0 0 0 1.8 0c.495-.095.09-.173-.9-.173s-1.395.078-.9.173m128.292.004c1.096.091 2.145.379 2.331.64.235.329.289.291.176-.126-.117-.433-.766-.611-2.33-.64l-2.169-.04 1.992.166M81.309 203.6c0 .99.078 1.395.173.9a5.661 5.661 0 0 0 0-1.8c-.095-.495-.173-.09-.173.9m241.166 3c.006 2.04.054 2.2.322 1.066.174-.733.171-1.813-.006-2.4-.245-.809-.321-.488-.316 1.334m-197.629-.933c-.025.367-.15.997-.276 1.4-.218.695-.207.696.227.02.251-.391.376-1.021.276-1.4-.162-.619-.185-.621-.227-.02m76.059.62c.609.092 1.509.09 2-.005.492-.095-.005-.171-1.105-.168-1.1.003-1.503.081-.895.173M80.3 207.733c-.165.403-.289 1.483-.275 2.4.023 1.505.064 1.571.419.681.217-.543.34-1.623.275-2.4-.09-1.074-.191-1.238-.419-.681m43.48 1.428c-.209.199-.74.448-1.18.554-.759.182-.756.195.051.239.468.025 1.075-.224 1.349-.554.543-.654.391-.819-.22-.239m129.867 3.29c-.026.578.178 1.235.453 1.46.552.453 5.231.855 4.781.412-.154-.152-1.27-.332-2.479-.4-2.081-.116-2.211-.187-2.452-1.323-.246-1.155-.257-1.161-.303-.149m37.952 1.75 1.749 1.999c.192.22.163.04-.065-.4s-1.015-1.34-1.749-1.999l-1.334-1.199 1.399 1.599m-21.441 1.165c-.12.312-.153 1.077-.074 1.7.118.925.18.821.341-.566.202-1.749.113-2.125-.267-1.134M141.709 220.4c0 .99.078 1.395.173.9a5.661 5.661 0 0 0 0-1.8c-.095-.495-.173-.09-.173.9m152.405.2c.003 1.1.081 1.503.173.895.092-.609.09-1.509-.005-2-.095-.492-.171.005-.168 1.105m-161.186 1c0 1.43.073 2.015.161 1.3.089-.715.089-1.885 0-2.6-.088-.715-.161-.13-.161 1.3m190.256-1.887c-.338.268-1.165 1.387-1.838 2.487-.672 1.1-1.891 3.08-2.709 4.4-.818 1.32-1.106 1.95-.64 1.4l1.524-1.799c.374-.44.801-1.07.951-1.4.97-2.144.073 1.729-1.299 5.604-.895 2.527-1.974 5.675-2.397 6.995-1.798 5.609-10.196 20.585-14.468 25.8-.631.77-2.622 3.29-4.425 5.6-3.403 4.359-12.891 14.136-15.683 16.16-.88.638-1.78 1.373-2 1.634-.746.885-5.187 4.388-8 6.309-6.595 4.506-11.696 7.861-13.002 8.554a28.58 28.58 0 0 0-2.661 1.643c-.693.495-1.403.9-1.577.9-.174 0-3.296 1.504-6.938 3.342-8.174 4.125-8.308 4.172-8.537 2.975-.097-.504-.201-.073-.231.959-.029 1.032.126 1.988.346 2.124.22.136.4.064.4-.159s3.465-2.128 7.7-4.232c7.815-3.884 12.252-6.278 15.501-8.364 2.863-1.838 8.561-5.6 8.999-5.941.22-.172 1.768-1.351 3.44-2.621 9.186-6.977 19.251-16.673 24.791-23.883 1.184-1.54 2.261-2.89 2.395-3 .31-.254 4.316-6.148 5.439-8 .466-.77 1.515-2.48 2.33-3.8.816-1.32 2.38-4.2 3.478-6.4 1.097-2.2 2.201-4.248 2.453-4.552 1.438-1.733 8.334-23.312 7.426-23.235-.084.007-.429.232-.768.5M80.116 221.3c.297 1.898 1.705 6.872 2.617 9.244a109.897 109.897 0 0 1 1.391 3.856c1.25 3.747 2.684 7.125 4.584 10.8 3.484 6.738 5.414 10.174 6.363 11.331.511.622.929 1.297.929 1.501 0 4.017 20.538 25.66 33.403 35.199 3.654 2.709 5.807 4.131 11.896 7.854 1.156.706 2.281 1.434 2.501 1.618.971.811 9.803 5.406 15.4 8.013 4.913 2.289 4.384 2.178 4.826 1.015.407-1.07.15-1.858-.348-1.064-.254.405-4.06-.95-6.678-2.377-.44-.24-2.06-1.088-3.6-1.885-3.749-1.941-6.537-3.565-8.038-4.683-.681-.507-1.466-.922-1.745-.922-.279 0-2.332-1.215-4.562-2.7-5.073-3.377-4.568-3.016-6.455-4.622-.88-.749-2.252-1.793-3.049-2.32-2.545-1.683-5.712-4.22-7.006-5.609-.69-.742-1.77-1.753-2.4-2.247a26.686 26.686 0 0 1-2.214-2 1911.775 1911.775 0 0 1-8.131-8.484c-.22-.237-.891-.798-1.49-1.246-.6-.448-1.306-1.532-1.568-2.408-.291-.972-1.114-2.162-2.11-3.053-2.151-1.923-4.911-6.211-5.236-8.135-.201-1.187-.569-1.717-1.628-2.342-1.062-.626-1.368-1.069-1.368-1.978 0-.686-.255-1.268-.617-1.407-.339-.13-.927-.915-1.306-1.743-.379-.828-1.271-2.298-1.983-3.266-.712-.968-1.294-2.171-1.294-2.674 0-.503-.184-1.398-.409-1.989-.295-.777-.275-1.235.075-1.656.382-.46.362-.659-.092-.951-.481-.31-.486-.427-.027-.722.395-.255.436-.55.147-1.066-.369-.66-.419-.648-.673.153-.424 1.335-.946 1.032-1.438-.835-.246-.935-.81-2.324-1.253-3.088-.559-.961-.744-1.821-.605-2.8.111-.776.113-1.187.005-.912-.274.697-.93.626-.93-.1 0-.33.225-.606.5-.613.275-.008.103-.345-.383-.751-.486-.405-.8-.82-.698-.922.102-.102-.175-.512-.617-.912-.441-.399-.802-.872-.802-1.05 0-.44-3.605-6.352-3.874-6.352-.117 0-.122.585-.01 1.3m181.593 1.1c0 .99.078 1.395.173.9a5.661 5.661 0 0 0 0-1.8c-.095-.495-.173-.09-.173.9m-152.481-.2c0 .22.258.85.572 1.4.314.55.572.82.572.6 0-.22-.258-.85-.572-1.4-.314-.55-.572-.82-.572-.6m2.772 4c.746.77 1.447 1.4 1.557 1.4.11 0-.411-.63-1.157-1.4-.746-.77-1.447-1.4-1.557-1.4-.11 0 .411.63 1.157 1.4m18 .6-1.8.28 1.676.06c.922.033 1.788-.12 1.924-.34.136-.22.192-.373.124-.34-.068.033-.934.186-1.924.34m186 3.6c-.47.66-.764 1.2-.654 1.2.11 0 .584-.54 1.054-1.2.47-.66.764-1.2.654-1.2-.11 0-.584.54-1.054 1.2m-189.7.693c.935.084 2.465.084 3.4 0s.17-.153-1.7-.153c-1.87 0-2.635.069-1.7.153m5.57.512c.259.333.544 1.323.633 2.2l.163 1.595.067-1.651c.047-1.156-.143-1.816-.633-2.2-.611-.479-.64-.472-.23.056m-44.264.266c.012.613.749 1.507 1.02 1.236.148-.148-.022-.56-.378-.917-.357-.356-.645-.499-.642-.319m1.194 1.854c0 .417 1.552 2.061 1.744 1.846.083-.094-.275-.617-.796-1.163-.521-.545-.948-.852-.948-.683m223.007 2.501c-.598.785-1.025 1.49-.947 1.567.077.077.647-.565 1.266-1.426 1.408-1.959 1.153-2.071-.319-.141M261.72 237.6c0 1.21.075 1.705.167 1.1a8.899 8.899 0 0 0 0-2.2c-.092-.605-.167-.11-.167 1.1m-170.12-.4c.47.66.944 1.2 1.054 1.2.11 0-.184-.54-.654-1.2-.47-.66-.944-1.2-1.054-1.2-.11 0 .184.54.654 1.2m41.328 1.2c0 1.43.073 2.015.161 1.3.089-.715.089-1.885 0-2.6-.088-.715-.161-.13-.161 1.3m8.786 1.8c.003 1.1.081 1.503.173.895.092-.609.09-1.509-.005-2-.095-.492-.171.005-.168 1.105M92.8 239.053c0 .288 1.613 1.747 1.931 1.747.115 0-.214-.45-.731-1-.973-1.036-1.2-1.177-1.2-.747m168.493 2.547c0 .77.082 1.085.183.7.1-.385.1-1.015 0-1.4-.101-.385-.183-.07-.183.7m-165.812.587c.396.544.885.994 1.089 1 .203.007-.053-.437-.57-.987-1.199-1.277-1.443-1.282-.519-.013m200.158.837c-.462.783-.659 1.312-.437 1.175.434-.268 1.732-2.599 1.448-2.599-.094 0-.549.641-1.011 1.424m-20.734 1.263c.609.092 1.509.09 2-.005.492-.095-.005-.171-1.105-.168-1.1.003-1.503.081-.895.173m-128.507.41c.77.092 1.67.379 2 .636.524.407.531.377.053-.233-.365-.465-1.036-.679-2-.636l-1.451.064 1.398.169m153.588 5.603-2.186 2.3 2.3-2.186c2.137-2.032 2.483-2.414 2.186-2.414-.062 0-1.097 1.035-2.3 2.3m-181.553-1.356c.092.079.707.264 1.367.412.876.196 1.038.159.6-.138-.54-.365-2.368-.62-1.967-.274m162.467.932c.385.1 1.015.1 1.4 0 .385-.101.07-.183-.7-.183s-1.085.082-.7.183m-24.788.419c1.052.082 2.672.081 3.6-.003.928-.084.068-.151-1.912-.15-1.98.001-2.74.07-1.688.153m7.314 7.143c-.293 1.169.33 2.175 1.323 2.137.426-.017.328-.155-.281-.399-.785-.315-.89-.563-.668-1.575.322-1.468-.01-1.613-.374-.163m27.959 1.445-1.985 2.083 1.856-1.583c1.551-1.323 2.632-2.583 2.216-2.583-.056 0-.995.937-2.087 2.083m-17.28.204c.609.092 1.509.09 2-.005.492-.095-.005-.171-1.105-.168-1.1.003-1.503.081-.895.173M205.3 298.676c.385.1 1.015.1 1.4 0 .385-.101.07-.183-.7-.183s-1.085.082-.7.183m3.593 11.424-.093 10.7h-6.72c-4.693 0-6.865-.145-7.2-.48-.373-.373-.48-.24-.48.6 0 1.237-.361 1.188 9.089 1.247l5.289.033.23-1.6c.126-.88.173-6.01.103-11.4l-.126-9.8-.092 10.7M195.2 349.6c0 .226 1.141.4 2.624.4 1.647 0 2.531-.149 2.376-.4-.136-.22-1.317-.4-2.624-.4-1.317 0-2.376.178-2.376.4m-5.6 5.353c0 .305.495.649 1.1.765 1.308.251 1.396.197 1.067-.661-.307-.799-2.167-.889-2.167-.104m-28.295.534c.609.092 1.509.09 2-.005.492-.095-.005-.171-1.105-.168-1.1.003-1.503.081-.895.173M191.8 362.6c0 .546-2.389.731-4.589.355l-1.811-.309 1.6-.275c2.201-.379 4.8-.255 4.8.229" fill="#7b1411"/><path d="M127.466 62.812c.624.667 1.584 1.503 2.134 1.858.55.354.126-.191-.942-1.213-2.189-2.093-2.914-2.486-1.192-.645m-6.232 3.341-.965 1.247 1.144-1.088c.63-.598 1.064-1.159.966-1.247-.099-.088-.614.402-1.145 1.088M134 67.404c0 .117.819.733 1.821 1.368 1.001.635 1.642 1.265 1.424 1.4-.218.135-.327.601-.243 1.036.083.436-.018.792-.225.792-.207 0-.377-.18-.377-.4 0-.573-1.319-.494-2.173.13-1.024.75-.499 2.061 1.086 2.714 2.58 1.061 3.465 3.33 1.787 4.583-.554.413-.64.584-.226.445 2.111-.71 3.952 4.544 2.073 5.917-.601.44-.597.563.057 1.561.579.884.626 1.267.253 2.085-.612 1.343-.557 2.599.156 3.541.323.428.587 1.288.587 1.913 0 .641.262 1.236.6 1.366.667.256.829 1.345.2 1.345-.22 0-.4.27-.4.6 0 .33-.161.6-.357.6-.434 0-.843-.988-.843-2.033 0-.422-.18-.767-.4-.767-.22 0-.4-.428-.4-.951 0-.523-.27-1.175-.6-1.449-.33-.274-.6-.805-.6-1.179 0-.657-1.555-2.421-2.134-2.421-.27 0-3.447-1.969-3.866-2.396-.11-.112-1.01-.858-2-1.656-.99-.799-2.383-2.014-3.096-2.7-1.729-1.664-3.304-1.072-3.304 1.241 0 .391-.18.711-.4.711-.22 0-.4.288-.4.64 0 .576-.752 2.558-1.583 4.173-.173.337-.449 1.237-.612 2-.164.763-.435 1.567-.604 1.787-.168.22-.407 1.03-.53 1.8-.123.77-.524 2.57-.89 4-.366 1.43-.803 3.68-.971 5-.168 1.32-.497 3.84-.73 5.6-1.192 8.974-1.689 26.202-.823 28.543.578 1.563.517 1.607 8.773-6.443.847-.825 1.726-1.5 1.954-1.5.229 0 .416-.162.416-.361 0-.198.519-.693 1.154-1.1.634-.406 2.192-1.701 3.462-2.876 1.27-1.175 2.73-2.329 3.246-2.564.516-.235.938-.579.938-.763 0-.185.251-.336.557-.336.307 0 .661-.27.788-.6.257-.672 1.455-.828 1.455-.19 0 .225-.45.581-1 .79-.55.209-1 .646-1 .97 0 .325-.315.774-.7.998-.667.388-.667.408 0 .42.385.007.7-.162.7-.375 0-.214.275-.283.61-.154.487.187.512.353.126.818-.635.765.276 1.386 1.561 1.063.782-.196.903-.071.903.937 0 1.326-.631 2.123-1.68 2.123-.664 0-.72.512-.72 6.614 0 6.839-.376 8.586-1.846 8.586-.305 0-.554.345-.554.767 0 .421-.225.857-.5.968-.275.111-.14.216.3.233.44.018 1.303.662 1.917 1.432.614.77 1.426 1.4 1.803 1.4 1.988 0 1.792 4.484-.218 4.989-.562.141-.837.429-.689.723.136.268-.012.173-.327-.212-.316-.385-1.063-.7-1.659-.7-.819 0-1.052.172-.949.7.098.504.443.664 1.229.571 1.558-.183 1.488 1.25-.107 2.193-.66.39-1.2.85-1.2 1.022 0 .64-1.043.282-2.14-.735-.915-.849-1.552-1.059-3.338-1.1-4.006-.092-5.557 3.332-4.552 10.052l.689 4.597c.124.825.386 1.5.583 1.5.197 0 .358.281.358.624 0 .92 3.255 7.311 4.3 8.443.495.536.9 1.114.9 1.284 0 .994 3.859 3.249 5.562 3.249.681 0 1.238.18 1.238.4 0 .22.495.401 1.1.402.605.002 1.616.272 2.246.6.642.335 2.193.598 3.528.598 3.073 0 4.401.976 1.805 1.327-.924.125-1.85.057-2.059-.15-.209-.207-.862-.377-1.451-.377-.589 0-1.295-.27-1.569-.6-.274-.33-1.07-.6-1.769-.6-.699 0-1.491-.22-1.761-.49-.387-.387-.667-.38-1.327.033-.601.375-.96.4-1.27.09-.636-.636-2.273-.535-2.273.14 0 .319-.489.648-1.1.74-.784.119-.619.184.576.227.922.033 1.788.24 1.924.46.136.22.577.4.979.4.452 0 .711.268.677.7-.042.529.335.75 1.544.906l1.6.207-1 .572-1 .571 1.6.492c.88.27 2.877.504 4.438.521 3.462.038 4.162.6 4.162 3.339 0 1.015-.18 1.956-.4 2.092-.22.136-.4 1.047-.4 2.024v1.776h4.4c4.348 0 6.578.741 5.837 1.94-.106.171-.389 3.36-.629 7.086-.583 9.029-.5 8.87-4.522 8.618-2.787-.174-4.683 2.595-2.295 3.353.435.138 1.492.825 2.348 1.527.856.702 1.962 1.546 2.458 1.876.496.33 1.104.79 1.352 1.021 1.115 1.041 6.244 4.115 6.412 3.842.103-.166.178-3.012.167-6.323-.011-3.311.155-6.362.37-6.78.215-.418.498-1.456.629-2.307.867-5.637 7.67-11.948 19.099-17.719 4.478-2.262 15.918-5.351 19.703-5.321 5.027.04 18.605 4.33 23.337 7.373.697.448 2.665 1.702 4.375 2.788 9.41 5.977 13.458 15.689 11.331 27.192-.618 3.343-.713 3.376 8.854-3.125l6.414-4.359-.12-1.641-.12-1.641-3.081-.2c-4.216-.274-4.663-1.001-4.702-7.633-.009-1.669-.221-4.051-.471-5.294-.369-1.839-.351-2.393.1-2.967.509-.648.494-.659-.179-.129-.583.458-.693.951-.535 2.4.11 1.003.387 4.025.616 6.716.229 2.691.609 5.253.845 5.693.541 1.011 4.603 2.961 5.616 2.696.419-.11.951.029 1.183.309.449.54.154 1.809-.421 1.809-.189 0-.934.516-1.657 1.146-.723.631-2.034 1.511-2.914 1.958-.88.446-1.948 1.196-2.374 1.666-1.083 1.198-2.993 2.282-4.526 2.568l-1.3.242-.017-3.89c-.054-12.751-4.585-20.166-16.183-26.488-1.32-.719-2.58-1.431-2.8-1.581-.405-.276-4.436-1.912-7-2.84a60.563 60.563 0 0 1-3.041-1.227c-.903-.397-3.947-1.11-6.765-1.586-5.588-.944-4.572-1.009-14.194.902-1.21.24-2.975.793-3.922 1.23-.947.436-2.865 1.192-4.262 1.68-1.397.488-3.428 1.457-4.513 2.154-1.085.696-2.123 1.266-2.307 1.266-.183 0-.617.236-.965.524-.347.288-1.7.848-3.006 1.244-1.53.464-2.791 1.166-3.547 1.976-.645.691-1.692 1.805-2.325 2.476-.634.672-1.153 1.401-1.153 1.622 0 .221-.791 1.525-1.758 2.899-1.336 1.897-1.879 3.14-2.261 5.178-.277 1.474-.843 3.479-1.26 4.455-.61 1.431-.67 1.983-.313 2.845.971 2.346.37 4.566-1.274 4.703-1.171.098-1.517-.037-1.717-.669-.138-.435-.939-1.412-1.779-2.171-2.216-2.002-2.224-2.061-.634-4.637 1.365-2.211 1.474-2.638 1.814-7.099.199-2.61.533-5.466.741-6.346.209-.88.484-2.283.611-3.117l.231-1.517-2.488-1.176c-2.132-1.008-2.788-1.141-4.592-.929-2.46.289-3.001-.321-2.146-2.42.975-2.39.92-2.785-.535-3.841-1.557-1.13-2.864-3.414-2.191-3.83.665-.411 17.194.234 18.751.732 1.574.504 8.05.562 8.83.08.909-.563-.955-.923-7.109-1.376-3.256-.239-7.631-.703-9.721-1.029-2.09-.327-5.06-.781-6.6-1.009-1.54-.228-4.15-.688-5.8-1.021-12.168-2.459-11.934-2.344-15.037-7.347-6.375-10.277-7.103-22.8-1.327-22.8 1.36 0 2.523.655 5.364 3.021 2.562 2.134 12.375 9.123 16.006 11.4 1.537.964 2.854 1.894 2.927 2.066.074.172.307.313.52.313.212 0 1.329.603 2.481 1.341 7.214 4.614 20.266 11.203 20.266 10.23 0-.472-.618-1.107-1.817-1.868-1.261-.801-7.239-3.703-7.628-3.703-.195 0-1.063-.63-1.928-1.4-.865-.77-1.855-1.403-2.2-1.407-.345-.004-1.419-.544-2.387-1.2-.968-.656-1.913-1.193-2.1-1.193-.187 0-.346-.315-.353-.7-.015-.874-1.467-1.952-3.679-2.732-1.891-.667-3.903-2.385-3.917-3.343-.017-1.205-1.375-2.358-3.188-2.705-2.54-.486-2.696-2.92-.187-2.92 1.602 0 2.184-.433 2.184-1.624 0-2.338-.754-3.179-3.7-4.126-1.086-.349-.912-2.63.3-3.937 1.395-1.504 1.426-4.651.059-6.018-1.816-1.816-1.862-4.985-.052-3.561.577.454 2.013 1.106 3.19 1.448 1.676.487 2.325.921 2.992 2 1.006 1.629 3.093 3.018 4.532 3.018 2.043 0 3.552.932 6.939 4.288.937.928 2.206 1.793 2.822 1.923.615.129 2.033.706 3.152 1.28 3.716 1.91 4.757.433 5.066-7.195.193-4.766.141-5.372-.543-6.241-.416-.53-.757-1.2-.757-1.49 0-1.251-1.072-2.668-2.928-3.872-1.097-.711-2.732-1.772-3.633-2.358-2.659-1.727-6.969-2.542-10.616-2.005-1.663.244-4.148.563-5.523.709-1.375.145-2.5.421-2.5.613 0 .191-.265.348-.588.348-.323 0-.987.54-1.475 1.2-1.111 1.503-1.407 1.504-1.735.009-.423-1.926.059-2.809 1.534-2.809 2.132 0 3.593-3.89 1.521-4.051-2.925-.227-3.171-.389-2.945-1.931.181-1.235-.211-1.559-.969-.801-.289.289-.557.248-.875-.135-.829-.999 1.106-2.406 2.448-1.78.588.274 1.027.768.976 1.098-.051.33.133.582.408.56 1.76-.141 1.7.027 1.7-4.76 0-3.822-.101-4.6-.6-4.6-.373 0-.6-.378-.6-1 0-.55-.18-1-.4-1-.22 0-.4-.709-.4-1.576 0-.867.18-1.688.4-1.824.985-.608.221-9.382-.818-9.397-.12-.002-.261-.678-.313-1.503-.051-.825-.358-1.7-.681-1.944-.695-.525-.727-.939-.181-2.373.318-.838.523-.973.947-.622.86.714 1.332-.307 1.137-2.461-.094-1.045-.29-1.9-.434-1.9-.145 0-.197-.822-.117-1.827.108-1.36.287-1.772.702-1.612.501.192.738-.224.605-1.061-.026-.165.157-.3.405-.3.29 0 .375-.481.236-1.332-.176-1.085-.037-1.467.748-2.056.61-.458.964-1.129.964-1.825 0-1.145.824-1.781 2.1-1.623.958.118.909-1.201-.088-2.35-.434-.5-.883-1.209-1-1.575-.307-.969-2.326-2.039-3.344-1.773-.48.126-1.096.044-1.37-.181-.765-.628-2.926-.725-3.605-.162-.507.42-.909.253-2.425-1.01-2.016-1.678-2.276-2.388-1.042-2.844.784-.29.768-.335-.3-.878a48.682 48.682 0 0 1-2.626-1.487c-.825-.503-1.5-.818-1.5-.7m-1.717 1.792c.114.437.36.701.545.587.394-.244.037-1.383-.433-1.383-.176 0-.226.358-.112.796m7.317 1.574c0 .388 2.705 1.858 2.956 1.607.104-.104-.519-.576-1.384-1.049-.864-.474-1.572-.725-1.572-.558m4 2.25c0 .347.389.58.967.58.531 0 1.035.207 1.12.46.084.253.382.384.663.29.28-.093-.224-.561-1.12-1.04-1.29-.688-1.63-.749-1.63-.29m21.86 1.967c-.36.938.367 1.067 1.149.204.69-.763.686-.791-.104-.791-.451 0-.921.264-1.045.587M149.8 76.4c.136.22.124.599-.026.843-.269.435-.953-.232-.968-.943-.009-.438.706-.367.994.1m-3.3 1.393c1.321 1.163 1.379 1.791.252 2.755-.691.592-.812 1.043-.655 2.437.178 1.582.129 1.695-.646 1.492-2.422-.633-5.012-5.73-3.201-6.3.412-.13 1.2-.488 1.75-.796 1.278-.715 1.205-.727 2.5.412M113 79.2c-.341.66-.531 1.2-.421 1.2.11 0 .48-.54.821-1.2.341-.66.531-1.2.421-1.2-.11 0-.48.54-.821 1.2m-2.106 4.322c-3.066 6.387-5.91 16.784-7.571 27.678-1 6.558-1.001 28.617-.002 33.544 1.074 5.292.937 7.084-.732 9.561-.775 1.152-1.254 2.095-1.064 2.095.191 0 .553-.405.805-.9s.85-1.387 1.328-1.981c1.042-1.295 1.055-3.206.064-9.519-1.39-8.861-.788-29.897 1.118-39 1.382-6.606 3.137-13.059 3.995-14.695a3.768 3.768 0 0 0 .365-1.476c0-.43.166-.884.369-1.01.203-.125.494-.796.646-1.489.153-.694.71-2.076 1.24-3.071.529-.995.913-1.955.853-2.134-.059-.178-.696.9-1.414 2.397m21.329-2.412c-.502.503-.164.89.777.89.55 0 1-.159 1-.353 0-.419-1.455-.859-1.777-.537M152 82.177c0 .318.4 1.254.888 2.082.488.828.942 1.862 1.009 2.299.166 1.089.437 1.279.731.513.136-.353-.265-1.725-.891-3.047-1.109-2.345-1.737-3.013-1.737-1.847m-17.788.204c-.143.23-.069.419.164.419s.424.45.424 1-.18 1-.4 1c-.22 0-.4-.161-.4-.357 0-.605-1.27-.883-1.846-.405-.641.532-.367 1.162.505 1.162.337 0 .933.396 1.325.879l.712.88.279-.88c.336-1.06.937-1.123 1.711-.179.315.385.459.475.32.2-.139-.275-.063-.5.17-.5.685 0 .49-.691-.476-1.684-1.543-1.585-2.205-1.994-2.488-1.535m-6.412 3.067c1.54 1.438 3.944 3.256 5.343 4.041 2.295 1.289 2.65 1.666 3.637 3.869 2.459 5.485 4.975 14.596 5.424 19.642l.25 2.8-6.127 4.896c-3.37 2.692-6.847 5.535-7.727 6.316-.88.782-2.68 2.356-4 3.499a173.998 173.998 0 0 0-5.23 4.783c-1.557 1.488-2.952 2.706-3.1 2.706-.556 0-.277-20.532.353-26 1.417-12.313 4.365-23.853 7.198-28.177.878-1.339.748-1.392 3.979 1.625m15.905 5.572c-.464.339-.502.535-.146.755.518.32-.108 1.425-.808 1.425-.46 0-.45-1.715.016-2.881.203-.506.498-1.279.657-1.719.244-.677.336-.589.598.581.236 1.053.161 1.489-.317 1.839m126.352-2.664c-.412.261-.427.415-.061.641.265.164.771.007 1.128-.35.733-.733-.037-.943-1.067-.291M137.2 89.776c0 .317.18.688.4.824.22.136.4-.123.4-.576 0-.453-.18-.824-.4-.824-.22 0-.4.259-.4.576M264.428 97.1c.025.975.067 1.009.372.3.469-1.093.469-1.4 0-1.4-.22 0-.387.495-.372 1.1m-118.236 1.178c.004.946.143 1.72.308 1.721.165 0 .3.811.3 1.801 0 .99.144 1.8.32 1.8.176 0 .248-.61.161-1.354-.087-.745.047-1.738.298-2.206.357-.668.344-.829-.062-.746-.871.178-.91-2.388-.04-2.616.452-.118.344-.176-.285-.154-.917.032-1.008.191-1 1.754M285.098 96.9c-.103.275-.045.86.129 1.3.258.651.322.559.345-.5.029-1.352-.152-1.658-.474-.8M156.84 98.7c.086 2.385.678 3.207.72 1 .022-1.16-.139-2.1-.36-2.1-.22 0-.382.495-.36 1.1m-15.372 2.007c.595 1.709.715 5.25.132 3.893-.189-.44-.356-1.295-.372-1.9-.015-.605-.208-1.1-.428-1.1s-.4-.66-.4-1.467c0-1.705.337-1.524 1.068.574m120.832 2.226c-.494 1.207-.377 3.041.138 2.157.227-.391.357-1.201.288-1.8-.105-.91-.175-.969-.426-.357M143.2 107.8c0 .744-.18 1.464-.4 1.6-.245.151-.4-.47-.4-1.6 0-1.13.155-1.751.4-1.6.22.136.4.856.4 1.6m144.12 2.2c0 1.21.075 1.705.167 1.1a8.899 8.899 0 0 0 0-2.2c-.092-.605-.167-.11-.167 1.1m-143.361 3.5c-.038 2.153-.063 2.211-.394.9-.33-1.312-.187-3.2.243-3.2.105 0 .174 1.035.151 2.3m116.308-1.233c-.415.415-.314 1.733.133 1.733.22 0 .4-.45.4-1 0-1.047-.092-1.174-.533-.733m-117.929 5.608c-.296.356-.482.98-.413 1.386.15.887-.439.966-1.116.15-.518-.625.243-1.811 1.162-1.811.236 0 .443-.315.461-.7.019-.44.108-.509.237-.187.114.283-.035.805-.331 1.162m-1.85 2.025c.143.552-.095.715-1.123.769-1.251.067-1.278.038-.646-.7.82-.958 1.532-.986 1.769-.069m1.512 3.5c0 .33-.255.6-.567.6-.311 0-.637.212-.723.471-.087.259-.364.343-.616.187-.604-.373-.204-1.365.64-1.589 1.164-.308 1.266-.282 1.266.331m131.2 3.6c.274.33.759.6 1.078.6.497 0 .494-.085-.021-.6-.33-.33-.815-.6-1.077-.6-.361 0-.356.146.02.6m-139.123.63c.079.237.314.43.523.43.209 0 .444-.193.523-.43.079-.236-.156-.43-.523-.43s-.602.194-.523.43M164 136.323c6.89 3.154 9.323 6.713 9.278 13.57-.057 8.647-1.285 8.623-13.678-.259-3.237-2.319-7.177-4.872-9.351-6.057-1.976-1.077-3.449-2.663-3.449-3.714 0-1.088 1.931-3.063 2.995-3.063.465 0 1.031-.186 1.258-.413 1.19-1.19 10.388-1.236 12.947-.064m79.6-.854c-4.837.347-6.601 1.076-10.227 4.229-4.226 3.675-5.2 15.687-1.371 16.903 1.001.317 3.351-.421 4.061-1.277.289-.349 2.329-1.833 4.532-3.298 7.035-4.68 9.162-6.143 11.052-7.601 1.015-.784 2.185-1.653 2.6-1.931.414-.278.123-.208-.647.156s-1.49.772-1.6.906c-.11.134-.502.424-.871.644-1.422.848-11.859 8-14.378 9.852-3.04 2.236-4.924 2.594-5.508 1.048-.82-2.167-1.243-3.838-1.243-4.904 0-1.848.937-5.95 1.491-6.525.28-.29.509-.788.509-1.106 0-1.039 3.742-4.246 6.357-5.449 3.397-1.562 11.743-1.572 14.812-.018.974.493 1.854.812 1.957.709.622-.622-6.441-2.687-8.681-2.537-.575.038-1.855.128-2.845.199m-107.466 22.799c.147.147-.031.597-.395 1-.63.695-.597.732.652.732 1.235 0 2.809 1.159 2.809 2.069 0 .19.45.233 1 .095.743-.186 1-.092 1 .366 0 .744-1.695 1.384-1.916.723-.083-.249-.386-.453-.675-.453-.288 0-.627-.27-.754-.6-.126-.33-.506-.6-.842-.6-.337 0-.613-.141-.613-.314 0-.172-.54-.632-1.2-1.022-1.288-.761-1.576-1.464-.6-1.464.33 0 .6-.18.6-.4 0-.456.535-.531.934-.132m6.966.384c1.048.281 1.101.52.343 1.556-.664.909-1.843.232-1.843-1.057 0-.815.143-.863 1.5-.499m-45.44 3.449c-1.93 3.195-5.768 10.635-6.963 13.499-1.678 4.018-1.729 4.191-1.141 3.827.195-.121.478-.709.628-1.306.242-.963 2.392-5.811 3.498-7.889.225-.422 1.093-2.065 1.929-3.652.835-1.586 1.956-3.581 2.491-4.432 1.31-2.087 1.965-3.348 1.739-3.348-.103 0-1.085 1.486-2.181 3.301m181.633-1.301c0 .77.082 1.085.183.7.1-.385.1-1.015 0-1.4-.101-.385-.183-.07-.183.7M142.8 164.056c0 .251.315.686.699.967.385.281.574.637.421.79-.385.385-3.179-1.395-2.899-1.847.325-.526 1.779-.452 1.779.09m134.278 10.049a48.07 48.07 0 0 1-.504 1.895l-.29 1 .858-.961c.886-.993 1.124-2.227.504-2.611-.195-.12-.451.184-.568.677m-1.878 4.438c0 .325-.201.657-.446.739-.245.082-.38.47-.3.862.118.577.282.483.852-.487.446-.759.557-1.295.3-1.453-.223-.138-.406.014-.406.339M88.491 181.3c-.681 1.884-.587 2.394.135.73.327-.753.54-1.531.475-1.728-.066-.197-.341.252-.61.998m-1.991 5.57c-.698 1.935-.597 2.826.13 1.151.329-.759.547-1.64.484-1.959-.063-.318-.339.045-.614.808m90.738-.584c-.776.307 3.85 2.477 5.324 2.498 1.125.015 1.14-.009.46-.76-1.13-1.248-4.479-2.255-5.784-1.738m-36.438 3.563c0 .555-.101.572-.7.113a33.323 33.323 0 0 0-.867-.649c-.091-.062.224-.113.7-.113.533 0 .867.25.867.649m-55.783 2.056c-.399 1.262-.977 3.465-1.285 4.895-1.438 6.68-2.912 14.528-3.345 17.81l-.476 3.611 1.228 2.589c1.655 3.491 2.853 5.555 4.311 7.426.671.86 1.558 2.149 1.971 2.864.413.715.893 1.3 1.065 1.3.173 0 .314.227.314.504s.411.952.913 1.5 1.443 1.716 2.092 2.596c6.922 9.39 20.379 23.043 30.223 30.662l3.742 2.9c1.303 1.011 2.484 1.838 2.624 1.838.141 0 .604.315 1.031.7.814.736 5.289 3.781 5.975 4.067.22.091 1.66.977 3.2 1.967 4.518 2.905 18.974 10.066 20.322 10.066.285 0 .689.156.898.347.209.191 1.235.666 2.28 1.055 1.191.443 1.9.947 1.899 1.352-.047 24.038.364 32.046 1.644 32.046.228 0 .13-.284-.217-.631-.555-.555-.623-2.498-.566-16.184.068-16.452.068-16.453-1.796-17.014a24.63 24.63 0 0 1-2.064-.772c-.66-.281-1.92-.782-2.8-1.113-2.053-.773-5.95-2.496-8-3.538-4.286-2.179-9.266-4.916-9.831-5.404-.348-.299-.743-.544-.88-.544-1.584 0-17.451-11.599-23.889-17.463-.77-.701-1.85-1.663-2.4-2.136-4.555-3.925-16.304-16.531-18.756-20.125-.329-.482-.699-.966-.822-1.076-.123-.11-1.034-1.279-2.023-2.598-.989-1.32-2.114-2.749-2.499-3.176-.385-.427-.7-.91-.7-1.073 0-.163-.246-.542-.547-.843-.53-.53-6.027-9.174-7.009-11.021-.867-1.632 1.608-16.414 4.528-27.046.841-3.061.584-3.307-.355-.338m58.583-1.262c0 .086-.495.154-1.1.151-.801-.005-.947-.103-.536-.363.509-.323 1.636-.177 1.636.212m31.829.515c-.715.28-.72.322-.067.572 1.023.392 4.953.331 5.208-.081.435-.705-3.61-1.091-5.141-.491m-33.129 1.518c-.385.1-1.015.1-1.4 0-.385-.101-.07-.183.7-.183s1.085.082.7.183m117.7 1.726c1.43.168 5.93.341 10 .386 11.053.122 11.243.164 12.1 2.612.68 1.944.693 1.956.464.407-.503-3.407-.468-3.399-14.964-3.581-5.965-.075-9.121-.002-7.6.176m-3.258 1.286c-.125.598-.081 2.004.096 3.125.356 2.255-.147 3.948-1.202 4.046-.35.033-1.716.019-3.036-.029-1.32-.049-2.85.096-3.4.322-.752.31.191.391 3.8.33l4.8-.082-.066-1.8c-.125-3.418-.744-7.106-.992-5.912m-131.096 4.666c-.466.466-.846 1.358-.846 1.986 0 .627-.166 1.662-.369 2.3-.203.638-.473 1.79-.6 2.56-.23 1.389-.258 1.406-3.531 2.158-8.198 1.885-11.543 5.155-11.567 11.308-.011 2.927.023 3.03 1.639 4.947l1.65 1.957-1.717.782c-4.605 2.098-6.384 6.142-4.901 11.138 1.876 6.316 6.083 9.324 14.796 10.581 3.404.491 3.474.553 3.894 3.428.186 1.265.44 2.98.565 3.81.247 1.641.746 2.042 3.058 2.46 3.32.599 3.471.185 2.325-6.369-.387-2.213-.154-2.584 1.629-2.594 1.448-.008 2.329.972 2.329 2.592 0 1.676.812 5.435 1.319 6.102.436.576 4.912.698 5.254.143.121-.196-.045-2.122-.369-4.281-.717-4.776-.846-4.645 4.253-4.308 5.491.362 6.096.156 5.775-1.972-.643-4.258-1.091-4.86-3.779-5.082-4.05-.334-3.853.401-3.853-14.373 0-15.039-.171-14.427 4.033-14.427 3.127 0 3.575-.413 3.939-3.634.362-3.196.342-3.206-5.572-3.074l-4.8.108.036-2.2c.019-1.21.109-3.19.2-4.4l.164-2.2-2.088-.12c-1.148-.067-2.433.064-2.855.29-.738.394-.878.86-1.448 4.83-.535 3.726-.451 3.6-2.417 3.6-2.113 0-2.25-.605-1.175-5.169.714-3.029.566-3.273-2.147-3.534-1.636-.157-2.123-.044-2.824.657m137.303-.343c-.259.259-.299 1.19-.108 2.5l.586 3.989c.219 1.476.158 1.914-.273 1.963-.305.035-2.714.08-5.354.1l-4.8.037-.122 2.599c-.154 3.304.511 3.995 3.866 4.014 3.806.023 3.894.196 4.242 8.336.163 3.8.167 9.655.009 13.012-.33 7.06-.302 7.012-4.39 7.407-1.991.193-2.417.367-2.523 1.032-.069.44-.419 1.769-.776 2.953-.921 3.055-.491 3.31 5.398 3.203 5.397-.098 5.147-.293 4.562 3.546-.83 5.454-.893 5.298 2.124 5.298 2.934 0 3.81-.868 3.81-3.774 0-3.873 1.209-5.74 3.366-5.199 1.211.304 1.232.538.43 4.728-.76 3.971-.54 4.327 2.564 4.163 2.589-.137 3.014-.67 3.649-4.575.759-4.664.861-4.796 3.903-5.088 8.59-.822 14.216-5.135 15.307-11.735.788-4.763-1.009-8.533-4.871-10.219l-1.956-.854 1.159-1.224c4.03-4.252 3.013-10.264-2.424-14.323-.811-.605-1.668-1.1-1.906-1.1-.237 0-.744-.172-1.126-.383-1.034-.569-5.07-1.617-6.228-1.617-.909 0-1.055-.229-1.47-2.3-1.364-6.813-1.418-6.902-4.146-6.894-3.215.01-3.261.092-2.528 4.442.686 4.069.6 4.335-1.409 4.346-1.392.008-1.842-.847-2.279-4.329-.516-4.107-.802-4.465-3.569-4.465-1.268 0-2.491.185-2.717.411m19.867.102c-.021.949.985 3.317 1.56 3.672.254.157 1.209-.33 2.141-1.09 2.803-2.288 8.309-2.794 11.546-1.061.376.201 1.011.353 1.411.338 1.454-.057-2.418-1.162-5.659-1.616l-3.328-.465-2.654 1.293c-2.989 1.456-3.623 1.388-4.434-.478-.338-.777-.574-1.017-.583-.593m-142.937.547c.139.364-.054 2.26-.428 4.214-.872 4.546-1.137 4.326 5.228 4.326h5.431l-.268 2.285c-.295 2.502-.602 2.888-2.079 2.606-1.558-.298-4.46.692-5.16 1.76-.772 1.179-1.282 14.947-.823 22.214.362 5.736.739 6.335 3.987 6.335 2.463 0 2.689.208 3.401 3.124.67 2.744.759 2.696-4.74 2.559-6.041-.15-6.028-.162-5.1 4.679.898 4.687.97 4.438-1.279 4.438-2.274 0-2.657-.359-2.99-2.8-.856-6.26-.936-6.4-3.656-6.4-2.709 0-2.891.44-1.966 4.744.878 4.088.765 4.362-1.681 4.079-2.119-.245-1.939.043-2.891-4.623-.924-4.532-.409-4.014-4.759-4.785-11.101-1.969-17.021-9.351-13.481-16.81.588-1.239 2.647-3.405 3.237-3.405.51 0 3.338-1.354 3.338-1.599 0-.134-.645-.864-1.434-1.623-6.305-6.06-1.068-14.441 10.111-16.18 2.146-.333 2.284-.537 3.075-4.535.906-4.583 1.094-4.863 3.262-4.863 2.107 0 2.244.608 1.167 5.177-.799 3.388-.672 3.623 1.957 3.623 2.871 0 2.957-.154 4.06-7.271.254-1.646.55-1.852 2.715-1.897 1.057-.022 1.588.167 1.766.628m128.212 1.14c.165.88.493 2.674.727 3.986.541 3.023.886 3.414 3.011 3.414 2.162 0 2.526-.577 2.096-3.318-.18-1.145-.44-2.847-.578-3.782l-.251-1.7h2.244c2.127 0 2.257.058 2.471 1.1.124.605.382 1.73.574 2.5.191.77.469 2.167.618 3.105.301 1.905.768 2.274 3.397 2.681 10.247 1.586 15.651 10.35 9.791 15.878-1.812 1.709-1.757 2.088.429 2.923 7.884 3.01 6.754 14.839-1.805 18.912-2.19 1.042-3.108 1.293-8.103 2.219-3.286.609-3.405.722-3.884 3.696-.867 5.389-1.138 5.786-3.948 5.786h-1.768l.206-1.3c.113-.715.405-2.538.65-4.052.526-3.261.229-3.854-1.917-3.835-2.234.019-2.734.651-3.207 4.05-.632 4.545-.873 4.981-2.912 5.259-2.29.312-2.981-.314-2.412-2.181 1.858-6.096 1.195-7.144-4.332-6.853-5.121.271-5.669.045-5.178-2.134.768-3.401 1.086-3.754 3.394-3.754 3.798 0 4.59-2.506 4.595-14.531.004-12.677-.789-15.129-4.98-15.395-3.017-.193-3.224-.375-3.578-3.163l-.266-2.088 5.513-.112L264.2 209l-.112-2.2c-.061-1.21-.302-3.046-.535-4.081-.556-2.47-.298-2.783 2.178-2.639 2.058.12 2.059.121 2.36 1.72m35.309 1.339c1.76.604 4.55 1.896 6.2 2.87a298.09 298.09 0 0 0 4.091 2.381c.6.336 2.85 2.308 5 4.383 2.212 2.134 3.399 3.09 2.734 2.2-1.584-2.12-6.631-6.904-7.625-7.228-.44-.143-1.925-1.03-3.3-1.971-1.375-.941-3.064-1.834-3.754-1.986-.689-.151-1.994-.612-2.9-1.023-.905-.411-2.096-.743-2.646-.737-.555.006.425.501 2.2 1.111m-105.2 2.736c-5.622 1.337-8.873 2.265-9.247 2.639-.158.157-.527.286-.821.286-1.255 0-8.159 3.669-8.829 4.692-1.054 1.608-.864 3.939.562 6.908.686 1.43 2.053 4.31 3.037 6.4 5.973 12.692 5.337 11.743 8.964 13.389 3.726 1.692 3.973 4.681.539 6.514-3.037 1.621-4.202 2.293-4.405 2.541-.11.135-1.46.928-3 1.762-1.54.835-5.197 2.93-8.127 4.656-2.93 1.726-5.384 3.138-5.452 3.138-.527 0-9.615 5.583-9.751 5.99-.226.679 2.14.401 8.33-.977 4.996-1.112 9.677-2.111 12.2-2.605.88-.172 2.95-.626 4.6-1.008 1.65-.382 3.72-.832 4.6-1 .88-.168 2.95-.635 4.6-1.038 1.65-.404 4.17-.733 5.6-.732 2.274.002 4.03.3 10.4 1.764.77.177 2.84.626 4.6.999 1.76.372 3.92.836 4.8 1.03.88.194 3.76.824 6.4 1.4 2.64.575 5.97 1.308 7.4 1.628 5.45 1.22 8.916 1.062 5.9-.268-.495-.218-1.8-.939-2.9-1.603-1.1-.663-2.27-1.322-2.6-1.464-.33-.142-.69-.379-.8-.526-.11-.148-1.01-.717-2-1.264-8.104-4.479-8.612-4.768-11.707-6.666-1.489-.913-2.79-1.66-2.892-1.66-.102 0-1.134-.591-2.293-1.314-1.16-.723-2.8-1.668-3.647-2.1-4.573-2.335-4.851-5.219-.696-7.223 3.532-1.703 4.276-2.857 10.035-15.563.499-1.1 1.528-3.33 2.288-4.955 1.998-4.276 1.358-6.329-2.57-8.237a237.708 237.708 0 0 1-2.986-1.48c-2.87-1.453-8.15-3.02-13.932-4.134-3.434-.662-3.057-.667-6.2.081m7.521.766c3.352.746 8.669 2.359 10.679 3.239 8.785 3.848 9.23 4.702 5.997 11.52-.939 1.98-2.601 5.49-3.694 7.8-4.457 9.426-4.107 8.928-7.189 10.234-3.146 1.334-3.574 1.863-3.434 4.249l.12 2.056 3 1.782c1.65.981 3.72 2.179 4.6 2.663.88.484 3.979 2.261 6.887 3.948 2.908 1.688 5.473 3.068 5.7 3.068.227 0 .413.18.413.4 0 .22.157.4.35.4.407 0 9.267 5.07 9.83 5.625.8.789-2.225.379-8.98-1.217-.77-.182-2.75-.616-4.4-.965-1.65-.349-4.98-1.071-7.4-1.605-2.42-.533-5.48-1.185-6.8-1.449a79.742 79.742 0 0 1-4.6-1.084c-3.879-1.066-6.734-.858-14.8 1.081-.77.186-2.84.639-4.6 1.007-1.76.369-3.83.821-4.6 1.004-.77.184-2.84.624-4.6.978l-5.4 1.086c-1.21.243-3.088.689-4.173.991-2.32.645-4.227.712-4.227.148 0-.22.154-.4.343-.4.188 0 1.853-.869 3.7-1.932 1.846-1.062 4.167-2.392 5.157-2.955.99-.564 3.42-1.973 5.4-3.131 4.659-2.727 7.866-4.565 10.6-6.076 5.254-2.903 5.4-3.058 5.4-5.721V241l-2.515-1.264c-3.848-1.933-3.333-1.137-10.174-15.736a697.081 697.081 0 0 0-2.352-4.975c-2.159-4.481.36-7.098 9.646-10.022 1.867-.588 3.708-1.234 4.09-1.436.382-.202 1.102-.375 1.6-.385.498-.009 1.805-.267 2.905-.573 2.661-.739 4.087-.733 7.521.032m-82.521 8.945c-5.835 2.279-5.946 8.837-.176 10.358 3.114.82 8.358 1.017 9.036.339.629-.629 1.433-10.286.924-11.109-.415-.671-7.809-.36-9.784.412m147.455-.508c-.272.272.025 8.681.366 10.378.487 2.42 10.374 1.056 12.569-1.734 1.527-1.941.799-5.534-1.438-7.1-2.001-1.402-10.498-2.543-11.497-1.544M131.9 215.7c.247.31.304 2.326.149 5.3l-.249 4.8-3.8-.022c-7.181-.042-10.806-3.714-7.546-7.643 1.686-2.032 10.307-3.866 11.446-2.435m145.665.119c4.491.937 6.035 2.302 6.035 5.334 0 3.008-2.251 4.386-7.748 4.742-4.652.301-4.652.301-4.652-5.971V215.2h1.7c.935.001 3.034.279 4.665.619m44.429 3.826a20.658 20.658 0 0 1-.911 1.761c-1.153 1.923-2.482 4.025-2.78 4.394-1.002 1.243-3.503 5.088-3.503 5.384a.568.568 0 0 1-.322.483c-.178.073-1.376 1.573-2.663 3.333-1.287 1.76-2.807 3.759-3.378 4.443-.57.684-1.379 1.674-1.798 2.2-5.343 6.724-19.189 20.487-25.353 25.2-6.914 5.287-14.877 10.681-20.391 13.813-2.829 1.607-11.813 6.144-12.166 6.144-.169 0-1.257.426-2.418.946a103.375 103.375 0 0 1-3.911 1.648c-.99.386-2.205.891-2.7 1.121l-.9.42.095 16.033.096 16.032.11-15.8.111-15.8 5.294-2.152c5.172-2.102 11.078-4.91 15.494-7.367 1.21-.674 2.582-1.424 3.048-1.668.467-.245 1.817-1.088 3-1.875a918.31 918.31 0 0 1 5.722-3.757c10.237-6.668 22.554-17.699 32.835-29.409 7.597-8.651 19.008-25.292 18.021-26.279-.112-.112-.396.226-.632.752M122.6 231.66c-7.036 1.302-9.106 7.686-3.47 10.702 3.046 1.63 11.94 2.674 13.386 1.572.802-.612.288-11.165-.595-12.23-.493-.593-6.207-.621-9.321-.044m149.3-.184c-1.215.317-2.015 12.241-.851 12.687 1.841.707 10.318-.476 13.017-1.817 4.31-2.14 4.196-7.7-.199-9.723-2.216-1.02-9.707-1.738-11.967-1.147M132.002 237.4c.112 2.86.137 5.425.058 5.7-.175.6-6.1.701-7.9.135-.638-.2-2.021-.601-3.072-.891-4.673-1.286-5.79-6.576-1.877-8.887 1.788-1.056 3.928-1.394 8.389-1.323l4.2.066.202 5.2m151.272-4.283c2.474 1.099 3.288 2.366 3.024 4.707-.428 3.806-4.689 5.776-12.487 5.776h-2.724l.204-5.353c.112-2.945.342-5.576.509-5.848.523-.845 9.173-.303 11.474.718M193.98 298.18c-.441.441-.44 19.658 0 25.42.196 2.56.312-.898.355-10.601l.065-14.4 7.178-.014 7.178-.014.237.944c.13.519.206 6.972.168 14.34-.038 7.368.09 13.556.285 13.75.205.205.417-5.849.505-14.419.132-12.988.077-14.8-.462-15.007-1.054-.405-15.104-.404-15.509.001m-27.547 25.964c.092.079.707.264 1.367.412.876.196 1.038.159.6-.138-.54-.365-2.368-.62-1.967-.274M235 324.4c-.504.217-.578.344-.2.344.33 0 .96-.155 1.4-.344.504-.217.578-.344.2-.344-.33 0-.96.155-1.4.344m-65.367.556c.702.657 14.431 3.11 16.737 2.991 1.106-.058-.44-.341-5.97-1.093-1.87-.254-4.84-.818-6.6-1.253-3.054-.755-4.528-.983-4.167-.645m61.167.356c-.99.234-1.53.484-1.2.554.33.071 1.5-.124 2.6-.433 2.329-.654 1.246-.748-1.4-.121m-12 2.116-3 .525 3-.204c1.65-.112 3.63-.353 4.4-.535l1.4-.332-1.4.011c-.77.006-2.75.247-4.4.535m-27.6.572-2.6.262 2.476.069c1.362.038 2.588-.111 2.724-.331.136-.22.192-.369.124-.331-.068.038-1.294.187-2.724.331m20.105.287c.609.092 1.509.09 2-.005.492-.095-.005-.171-1.105-.168-1.1.003-1.503.081-.895.173" fill="#848484"/></g></svg>