<svg xmlns="http://www.w3.org/2000/svg" id="Group_5555" width="32" height="32" data-name="Group 5555" viewBox="0 0 32 32">
    <defs>
        <style>
            .cls-1{fill:url(#linear-gradient)}.cls-2{fill:#fff}
        </style>
        <linearGradient id="linear-gradient" x2="1" y2="1" gradientUnits="objectBoundingBox">
            <stop offset="0" stop-color="#8f69f5"/>
            <stop offset="1" stop-color="#6a3a93"/>
        </linearGradient>
    </defs>
    <path id="Rectangle_3" d="M16 0A16 16 0 1 1 0 16 16 16 0 0 1 16 0z" class="cls-1" data-name="Rectangle 3"/>
    <g id="btt-bittorrent" transform="translate(6.83 6.434)">
        <path id="Path_3462" d="M18.677 7.483a9.449 9.449 0 0 0-.555-1.783 9.62 9.62 0 0 0-.876-1.616 9.608 9.608 0 0 0-2.56-2.56A9.951 9.951 0 0 0 13.07.65a9.449 9.449 0 0 0-1.781-.555A9.173 9.173 0 0 0 7.483.1 9.449 9.449 0 0 0 5.7.659a9.62 9.62 0 0 0-1.616.876A9.608 9.608 0 0 0 1.526 4.1 9.951 9.951 0 0 0 .65 5.711a9.449 9.449 0 0 0-.555 1.782 9.446 9.446 0 0 0 0 3.816A9.449 9.449 0 0 0 .65 13.09a9.62 9.62 0 0 0 .876 1.616 9.608 9.608 0 0 0 2.56 2.56 9.951 9.951 0 0 0 1.616.876 9.449 9.449 0 0 0 1.781.555 9.446 9.446 0 0 0 3.816 0 9.449 9.449 0 0 0 1.781-.555 9.62 9.62 0 0 0 1.616-.876 9.608 9.608 0 0 0 2.56-2.56 9.951 9.951 0 0 0 .876-1.616 9.449 9.449 0 0 0 .555-1.781 9.612 9.612 0 0 0 .194-1.909 10.418 10.418 0 0 0-.2-1.918zm-9.286 10.2a8.293 8.293 0 1 1 8.293-8.293 8.294 8.294 0 0 1-8.293 8.293z" class="cls-2" data-name="Path 3462"/>
        <path id="Path_3463" d="M35.533 50.823h.224a.474.474 0 0 0 .117-.01h.01a.4.4 0 0 0 .107-.01h.029a.269.269 0 0 0 .088-.01h.029c.029 0 .058-.01.1-.01h.019c.039 0 .078-.01.117-.01a.414.414 0 0 0 .107-.019h.02c.029 0 .058-.01.088-.01h.012c.039-.01.068-.01.107-.019a1.512 1.512 0 0 0 .224-.049h.019c.029-.01.068-.01.1-.019h.01l.224-.058a8.7 8.7 0 0 1-2.171-.2 6.822 6.822 0 0 1-2.959-1.373 6 6 0 0 1-2.161-4.663 5.666 5.666 0 0 1 1.334-3.621 5.78 5.78 0 0 1 4.3-2.044h.224V37.4H35.6a7.3 7.3 0 0 0-1.46.175 7 7 0 0 0-1.4.477 7.173 7.173 0 0 0-1.285.779 6.851 6.851 0 0 0-1.12 1.069 6.625 6.625 0 0 0-.808 1.2 6.845 6.845 0 0 0-.535 1.295 7.076 7.076 0 0 0-.263 1.353l-.029.428v.253a7.3 7.3 0 0 0 .175 1.46 7 7 0 0 0 .477 1.4 6.024 6.024 0 0 0 1.334 1.918 7.529 7.529 0 0 0 4.672 1.616z" class="cls-2" data-name="Path 3463" transform="translate(-25.997 -33.85)"/>
        <path id="Path_3464" d="M52.978 65a9.9 9.9 0 0 1-1.431-.156 5.465 5.465 0 0 1-4.361-3.436 4.237 4.237 0 0 1 2.648-5.422 4.142 4.142 0 0 1 1.324-.214 4.464 4.464 0 0 1 1.674.331l.545-1.158a8.802 8.802 0 0 0-.5-.185 5.734 5.734 0 0 0-1.723-.263 5.5 5.5 0 0 0-3.641 1.392 5.609 5.609 0 0 0-.73.788 5.371 5.371 0 0 0-.555.905 5.31 5.31 0 0 0-.37.993 5.545 5.545 0 0 0 .117 3.241 5.382 5.382 0 0 0 1.168 1.937 6.267 6.267 0 0 0 1.7 1.265 7.634 7.634 0 0 0 2.472.691 15.568 15.568 0 0 0 1.82.1c.4-.146.565-.214.779-.3.185-.088.37-.175.555-.282s.214-.127.526-.331a.54.54 0 0 0 .078-.058 7.773 7.773 0 0 1-2.095.162z" class="cls-2" data-name="Path 3464" transform="translate(-41.319 -49.285)"/>
        <path id="Path_3465" d="M70.56 78.637c-.3.019-.73.049-1.217.049a9.315 9.315 0 0 1-2.833-.38 3.672 3.672 0 0 1-2.726-3.144 2.667 2.667 0 0 1 4.994-1.3l1.158-.574a3.763 3.763 0 0 0-.691-.925 3.941 3.941 0 0 0-6.405 4.371 4.755 4.755 0 0 0 .847 1.256 5.946 5.946 0 0 0 2.424 1.538 9.76 9.76 0 0 0 3.456.311 6.071 6.071 0 0 0 1.061-.156A7.3 7.3 0 0 0 71.8 78.52c-.292.029-.847.088-1.236.117z" class="cls-2" data-name="Path 3465" transform="translate(-56.506 -64.36)"/>
    </g>
</svg>
