<svg id="svg" version="1.1" xmlns="http://www.w3.org/2000/svg" xmlns:xlink="http://www.w3.org/1999/xlink" width="400" height="400" viewBox="0, 0, 400,400"><g id="svgg"><path id="path0" d="M170.489 158.093 C 169.768 158.592,168.831 159.576,168.407 160.281 C 167.982 160.985,167.119 161.828,166.488 162.155 C 165.364 162.736,163.347 164.844,161.848 167.005 C 161.434 167.601,160.534 168.422,159.848 168.829 C 159.162 169.237,157.880 170.639,157.000 171.945 C 155.523 174.138,155.155 174.420,152.200 175.622 C 149.293 176.806,148.670 177.273,145.400 180.724 C 140.474 185.923,135.209 191.180,131.100 195.000 C 127.791 198.077,127.642 198.292,127.206 200.600 C 126.222 205.815,125.619 206.864,122.939 208.021 C 121.606 208.596,121.220 209.002,120.990 210.069 C 120.457 212.544,119.709 213.493,117.709 214.233 C 115.229 215.149,114.903 215.421,114.592 216.837 C 114.219 218.537,112.607 220.271,110.887 220.825 C 108.786 221.502,108.400 221.912,108.400 223.468 C 108.400 225.173,106.913 226.672,104.851 227.044 C 102.920 227.394,101.200 228.294,101.200 228.956 C 101.200 229.853,99.609 231.579,98.049 232.375 C 95.933 233.454,95.581 234.415,95.917 238.192 L 96.200 241.385 98.364 242.419 C 100.231 243.311,100.670 243.750,101.564 245.626 C 102.392 247.364,102.943 247.965,104.310 248.621 C 106.543 249.694,107.454 250.645,108.119 252.600 C 108.559 253.892,109.041 254.393,110.621 255.200 C 111.743 255.773,112.960 256.797,113.474 257.600 C 115.476 260.725,115.400 260.673,118.591 261.148 C 122.779 261.770,124.163 262.430,125.252 264.323 C 126.535 266.552,127.206 266.850,131.769 267.219 C 138.576 267.769,140.741 268.466,143.384 270.959 C 145.465 272.921,146.613 273.199,153.800 273.474 C 161.125 273.755,163.175 274.378,164.407 276.696 C 165.797 279.313,167.203 279.937,174.521 281.182 C 179.098 281.961,180.710 282.550,183.207 284.359 C 188.980 288.541,203.181 288.477,207.909 284.248 C 209.858 282.504,212.578 281.649,218.096 281.045 C 223.150 280.492,223.983 280.168,225.136 278.305 C 227.236 274.912,227.286 274.895,236.400 274.426 C 246.450 273.909,247.322 273.719,249.326 271.612 C 250.413 270.470,252.508 269.183,256.288 267.335 C 262.288 264.402,263.925 263.184,264.965 260.878 C 265.644 259.373,265.771 259.298,268.460 258.817 C 271.561 258.263,272.000 257.768,272.000 254.830 L 272.000 253.311 274.055 253.068 C 276.083 252.828,277.417 252.069,277.519 251.098 C 277.857 247.851,278.159 246.800,278.752 246.798 C 279.608 246.795,282.057 246.089,282.746 245.647 C 283.046 245.454,283.502 244.246,283.759 242.963 C 284.260 240.466,284.655 240.147,287.400 240.027 C 288.931 239.960,289.986 238.556,290.337 236.120 C 290.620 234.149,290.937 233.861,293.396 233.339 C 295.652 232.860,296.163 231.636,296.334 226.300 L 296.471 222.000 295.335 221.999 C 293.375 221.996,291.717 220.675,291.413 218.874 C 291.124 217.165,289.999 215.868,288.400 215.399 C 286.399 214.812,284.800 212.509,284.800 210.213 C 284.800 209.385,284.607 209.200,283.746 209.200 C 280.460 209.200,278.816 207.884,278.250 204.800 C 278.038 203.644,277.715 203.283,276.401 202.732 C 275.252 202.249,274.501 201.532,273.704 200.156 C 272.333 197.787,253.065 178.425,250.829 177.168 C 249.280 176.297,247.200 173.855,247.200 172.905 C 247.200 172.442,246.724 172.245,244.554 171.810 C 242.830 171.464,241.752 170.338,241.417 168.531 C 241.085 166.743,240.188 165.600,239.118 165.600 C 237.191 165.600,234.800 163.293,234.800 161.434 C 234.800 160.562,233.703 160.097,230.901 159.780 L 228.442 159.501 226.341 161.339 C 225.185 162.350,223.375 163.488,222.318 163.868 C 221.210 164.267,219.482 165.415,218.239 166.580 C 217.053 167.691,215.479 169.158,214.741 169.841 C 214.003 170.523,212.738 171.818,211.929 172.718 C 210.932 173.826,209.900 174.502,208.729 174.812 C 207.517 175.134,206.451 175.852,205.165 177.212 L 203.330 179.152 201.411 177.788 C 200.356 177.038,198.416 176.013,197.101 175.512 C 195.056 174.732,194.490 174.279,193.198 172.385 C 192.366 171.167,190.895 169.670,189.927 169.059 C 188.960 168.447,187.655 167.194,187.027 166.274 C 186.399 165.353,184.971 163.970,183.855 163.199 C 182.738 162.428,181.427 161.091,180.943 160.226 C 179.351 157.389,173.294 156.153,170.489 158.093 " stroke="none" fill="#f69511" fill-rule="evenodd"></path><path id="path1" d="M169.191 1.700 C 169.168 6.104,165.681 7.215,160.843 4.360 L 159.469 3.550 160.061 4.475 C 161.963 7.449,166.440 8.141,168.765 5.820 C 170.370 4.217,171.156 0.000,169.850 0.000 C 169.353 0.000,169.198 0.402,169.191 1.700 M230.086 2.229 C 230.537 7.665,237.345 9.157,240.339 4.475 L 240.931 3.550 239.557 4.360 C 234.719 7.215,231.232 6.104,231.209 1.700 C 231.202 0.402,231.047 0.000,230.550 0.000 C 230.007 0.000,229.931 0.363,230.086 2.229 M144.000 4.081 C 144.000 4.303,143.721 4.378,143.379 4.247 C 143.038 4.116,142.856 4.167,142.975 4.359 C 143.094 4.552,142.921 4.934,142.591 5.208 C 142.134 5.587,142.099 5.837,142.444 6.253 C 142.740 6.610,142.753 6.800,142.480 6.800 C 142.012 6.800,142.072 9.005,142.554 9.489 C 143.642 10.581,147.002 11.162,147.616 10.363 C 148.260 9.525,148.331 4.940,147.708 4.379 C 147.177 3.900,144.000 3.645,144.000 4.081 M254.278 3.893 C 252.522 4.075,252.391 4.299,252.264 7.326 C 252.113 10.937,255.209 12.136,257.846 9.489 C 258.328 9.005,258.388 6.800,257.920 6.800 C 257.647 6.800,257.660 6.610,257.956 6.253 C 258.301 5.837,258.266 5.587,257.809 5.208 C 257.479 4.934,257.306 4.552,257.425 4.359 C 257.544 4.167,257.362 4.116,257.021 4.247 C 256.679 4.378,256.400 4.286,256.400 4.043 C 256.400 3.799,256.265 3.630,256.100 3.667 C 255.935 3.704,255.115 3.806,254.278 3.893 M123.207 9.980 C 123.638 10.233,123.847 11.149,123.929 13.144 C 124.085 16.944,123.375 17.512,119.574 16.625 C 116.392 15.882,116.101 16.083,118.872 17.110 C 122.473 18.444,122.527 18.448,123.723 17.495 C 125.673 15.939,125.501 9.586,123.510 9.612 C 122.788 9.622,122.726 9.698,123.207 9.980 M275.626 9.976 C 273.325 11.431,276.041 18.932,278.585 18.149 C 283.335 16.686,284.782 15.702,280.826 16.625 C 277.025 17.512,276.315 16.944,276.471 13.144 C 276.553 11.149,276.762 10.233,277.193 9.980 C 277.691 9.688,277.656 9.623,277.000 9.618 C 276.560 9.615,275.942 9.776,275.626 9.976 M109.817 16.600 C 111.362 20.294,110.316 23.371,107.623 23.052 L 105.800 22.836 107.738 23.500 C 109.608 24.141,109.693 24.137,110.138 23.382 C 111.185 21.609,111.069 17.255,109.948 16.227 C 109.600 15.908,109.567 16.001,109.817 16.600 M290.073 16.666 C 289.279 18.156,289.362 22.252,290.209 23.371 C 290.769 24.111,290.870 24.116,292.696 23.483 L 294.600 22.824 292.886 23.049 C 291.813 23.191,290.953 23.093,290.586 22.789 C 289.885 22.207,289.780 18.358,290.432 17.139 C 290.670 16.695,290.775 16.241,290.665 16.131 C 290.555 16.021,290.289 16.262,290.073 16.666 M94.400 22.960 C 94.400 23.165,94.282 23.215,94.137 23.070 C 93.992 22.925,93.632 23.007,93.337 23.252 C 92.932 23.588,92.797 23.563,92.788 23.149 C 92.752 21.542,91.625 24.608,91.436 26.826 L 91.314 28.252 94.099 28.970 C 97.794 29.921,99.232 27.712,97.818 23.257 C 97.564 22.457,94.400 22.182,94.400 22.960 M302.582 23.257 C 302.107 24.754,302.329 28.501,302.929 29.101 C 304.142 30.313,309.040 28.575,309.040 26.932 C 309.040 26.199,308.906 25.600,308.743 25.600 C 308.580 25.600,308.508 25.280,308.583 24.889 C 308.658 24.498,308.468 23.834,308.160 23.413 C 307.819 22.947,307.600 22.853,307.600 23.173 C 307.600 23.567,307.466 23.587,307.063 23.252 C 306.768 23.007,306.408 22.925,306.263 23.070 C 306.118 23.215,306.000 23.165,306.000 22.960 C 306.000 22.182,302.836 22.457,302.582 23.257 M81.000 29.662 C 80.060 30.176,79.200 31.181,79.200 31.765 C 79.200 31.992,79.493 31.760,79.851 31.248 C 80.210 30.737,81.065 30.074,81.751 29.775 C 82.438 29.476,82.730 29.230,82.400 29.228 C 82.070 29.226,81.440 29.421,81.000 29.662 M318.649 29.775 C 319.335 30.074,320.213 30.742,320.598 31.259 C 321.090 31.920,321.224 31.982,321.049 31.467 C 320.912 31.064,320.800 30.664,320.800 30.578 C 320.800 30.305,318.463 29.199,317.920 29.216 C 317.634 29.224,317.962 29.476,318.649 29.775 M84.872 32.253 C 84.795 34.860,84.499 35.180,82.143 35.195 C 81.104 35.201,80.821 35.866,80.525 38.995 C 80.303 41.344,80.251 41.433,78.286 42.800 C 76.515 44.032,76.173 44.511,75.424 46.800 C 74.493 49.646,73.420 50.524,70.278 51.009 C 68.761 51.244,68.046 51.791,66.681 53.762 C 65.832 54.989,62.631 55.228,60.679 54.211 C 58.545 53.097,54.371 54.104,54.089 55.800 C 53.668 58.334,53.702 59.704,54.211 60.679 C 55.228 62.631,54.989 65.832,53.762 66.681 C 51.791 68.046,51.244 68.761,51.009 70.278 C 50.524 73.420,49.646 74.493,46.800 75.424 C 44.511 76.173,44.032 76.515,42.800 78.286 C 41.433 80.251,41.344 80.303,38.995 80.525 C 35.866 80.821,35.201 81.104,35.195 82.143 C 35.180 84.499,34.860 84.795,32.253 84.872 C 29.874 84.942,29.859 84.949,31.773 85.097 C 34.181 85.283,35.600 84.966,35.600 84.241 C 35.600 83.299,36.776 82.669,39.126 82.352 C 41.471 82.035,41.887 81.719,44.600 78.202 C 45.040 77.632,46.176 76.900,47.125 76.576 C 49.949 75.611,51.112 74.507,51.801 72.138 C 52.140 70.970,52.639 69.838,52.909 69.621 C 55.437 67.596,56.396 66.620,56.595 65.875 C 57.473 62.580,57.720 62.142,59.136 61.383 C 59.941 60.952,60.952 59.941,61.383 59.136 C 62.142 57.720,62.580 57.473,65.875 56.595 C 66.620 56.396,67.596 55.437,69.621 52.909 C 69.838 52.639,70.970 52.140,72.138 51.801 C 74.507 51.112,75.611 49.949,76.576 47.125 C 76.900 46.176,77.632 45.040,78.202 44.600 C 81.719 41.887,82.035 41.471,82.352 39.126 C 82.669 36.776,83.299 35.600,84.241 35.600 C 84.966 35.600,85.283 34.181,85.097 31.773 C 84.949 29.859,84.942 29.874,84.872 32.253 M315.277 32.067 C 315.191 34.614,315.446 35.600,316.194 35.600 C 317.101 35.600,317.735 36.804,318.048 39.126 C 318.366 41.471,318.645 41.841,322.188 44.600 C 322.753 45.040,323.565 46.368,323.992 47.551 C 325.015 50.386,325.680 51.050,328.242 51.795 C 329.421 52.138,330.562 52.639,330.779 52.909 C 332.804 55.437,333.780 56.396,334.525 56.595 C 337.820 57.473,338.258 57.720,339.017 59.136 C 339.448 59.941,340.459 60.952,341.264 61.383 C 342.680 62.142,342.927 62.580,343.805 65.875 C 344.004 66.620,344.963 67.596,347.491 69.621 C 347.761 69.838,348.260 70.970,348.599 72.138 C 349.288 74.507,350.451 75.611,353.275 76.576 C 354.224 76.900,355.360 77.632,355.800 78.202 C 358.513 81.719,358.929 82.035,361.274 82.352 C 363.624 82.669,364.800 83.299,364.800 84.241 C 364.800 84.966,366.219 85.283,368.627 85.097 C 370.541 84.949,370.526 84.942,368.147 84.872 C 365.537 84.795,365.220 84.500,365.205 82.127 C 365.199 81.119,364.596 80.867,361.247 80.477 C 358.952 80.210,358.821 80.130,357.534 78.234 C 356.358 76.500,355.892 76.167,353.600 75.421 C 350.754 74.493,349.877 73.422,349.391 70.278 C 349.156 68.761,348.609 68.046,346.638 66.681 C 345.411 65.832,345.172 62.631,346.189 60.679 C 346.698 59.704,346.732 58.334,346.311 55.800 C 346.026 54.084,341.851 53.137,339.576 54.272 C 337.337 55.389,334.355 54.836,333.231 53.095 C 332.280 51.622,331.639 51.301,328.249 50.598 C 326.711 50.279,324.800 48.317,324.800 47.057 C 324.800 45.225,324.051 44.040,322.064 42.725 C 320.139 41.451,320.095 41.376,319.874 39.008 C 319.580 35.867,319.298 35.201,318.257 35.195 C 315.945 35.180,315.644 34.860,315.495 32.258 L 315.354 29.800 315.277 32.067 M60.800 47.600 C 60.800 47.846,60.592 47.919,60.338 47.762 C 60.052 47.585,59.985 47.652,60.162 47.938 C 60.319 48.192,60.302 48.400,60.124 48.400 C 59.946 48.400,59.770 49.255,59.732 50.300 L 59.665 52.200 60.028 50.400 C 60.227 49.410,60.673 48.392,61.019 48.138 C 61.426 47.840,61.498 47.584,61.224 47.415 C 60.991 47.271,60.800 47.354,60.800 47.600 M339.098 47.435 C 338.941 47.592,339.082 47.919,339.411 48.160 C 339.740 48.402,340.173 49.410,340.372 50.400 L 340.735 52.200 340.668 50.300 C 340.630 49.255,340.454 48.400,340.276 48.400 C 340.098 48.400,340.081 48.192,340.238 47.938 C 340.407 47.665,340.349 47.584,340.096 47.741 C 339.861 47.886,339.604 47.813,339.526 47.577 C 339.447 47.342,339.255 47.278,339.098 47.435 M201.249 49.411 C 199.827 50.223,179.477 69.943,174.664 75.173 C 173.969 75.928,170.958 78.988,167.972 81.973 C 164.502 85.442,162.253 88.034,161.736 89.159 L 160.927 90.918 161.859 94.159 C 162.749 97.255,162.923 97.525,165.760 100.200 C 167.393 101.740,169.039 103.561,169.419 104.246 C 169.798 104.931,170.662 105.819,171.338 106.218 C 173.046 107.227,174.798 109.093,174.809 109.914 C 174.822 110.899,175.944 112.150,177.897 113.357 C 178.830 113.934,180.035 115.105,180.575 115.960 C 181.512 117.445,183.521 119.200,184.283 119.200 C 184.942 119.200,187.294 121.924,187.020 122.368 C 186.280 123.565,184.248 124.101,181.440 123.840 C 178.263 123.545,174.807 124.449,174.791 125.579 C 174.763 127.556,173.222 129.601,171.027 130.571 C 169.254 131.355,168.672 131.857,168.122 133.076 C 167.223 135.065,166.035 136.400,165.161 136.400 C 164.076 136.400,162.153 138.236,161.483 139.910 C 161.126 140.801,160.409 141.661,159.739 142.001 C 157.560 143.106,156.594 144.070,155.600 146.129 C 154.817 147.751,154.230 148.378,152.896 149.019 C 150.756 150.046,150.046 150.756,149.019 152.896 C 148.364 154.258,147.727 154.841,145.841 155.800 C 143.929 156.772,143.273 157.379,142.381 159.000 C 141.570 160.473,140.949 161.095,140.027 161.361 C 138.603 161.773,136.400 164.070,136.400 165.144 C 136.400 166.030,135.079 167.217,133.099 168.111 C 131.920 168.643,131.362 169.283,130.499 171.094 C 129.499 173.192,129.205 173.477,127.233 174.260 C 125.230 175.056,125.007 175.278,124.292 177.196 C 123.566 179.141,123.358 179.342,120.962 180.417 C 118.619 181.468,118.320 181.747,117.356 183.783 C 116.582 185.419,115.892 186.234,114.733 186.886 C 110.928 189.024,110.906 195.423,114.693 198.402 C 116.333 199.692,118.781 203.459,118.295 203.945 C 118.062 204.178,117.464 205.580,116.965 207.061 C 116.100 209.633,115.984 209.775,114.380 210.249 C 112.255 210.876,110.512 212.534,109.928 214.483 C 109.678 215.318,109.294 216.000,109.074 216.000 C 107.876 216.000,105.980 218.146,105.393 220.166 C 104.650 222.720,103.926 223.449,101.800 223.785 C 96.563 224.610,95.188 224.950,94.641 225.554 C 93.771 226.516,91.600 230.674,91.600 231.379 C 91.600 231.705,91.058 232.589,90.396 233.343 L 89.192 234.715 89.644 237.751 C 89.921 239.614,90.386 241.123,90.848 241.655 C 91.261 242.132,91.600 242.903,91.600 243.369 C 91.600 244.387,93.901 247.241,97.658 250.882 C 102.859 255.923,99.449 258.100,89.400 256.152 C 87.640 255.811,85.732 255.441,85.161 255.329 C 83.950 255.094,81.858 257.624,80.637 260.800 C 80.257 261.790,79.406 263.280,78.746 264.110 C 76.254 267.246,75.887 268.707,75.462 277.163 L 75.071 284.927 76.436 286.165 C 77.535 287.162,78.514 287.545,81.470 288.137 C 84.386 288.721,85.454 289.135,86.670 290.151 C 88.782 291.917,90.913 292.726,94.200 293.010 C 103.691 293.831,104.523 294.106,107.323 297.363 C 109.217 299.566,109.279 299.600,111.407 299.600 C 119.315 299.600,123.715 300.725,125.326 303.160 C 125.855 303.960,126.988 304.967,127.844 305.400 C 131.506 307.250,134.028 308.960,133.916 309.520 C 133.656 310.829,129.754 312.455,125.502 313.025 C 119.942 313.770,115.200 315.501,115.200 316.786 C 115.200 317.776,110.245 319.600,107.556 319.600 C 103.737 319.600,101.223 320.232,98.742 321.815 C 93.875 324.919,93.744 324.952,85.468 325.128 L 77.936 325.287 76.732 326.544 L 75.528 327.800 75.388 334.800 C 75.310 338.650,75.425 342.957,75.642 344.370 C 76.343 348.926,71.051 350.442,68.648 346.374 C 67.743 344.841,66.545 344.072,64.137 343.478 C 62.564 343.090,62.075 342.751,61.537 341.672 C 60.710 340.017,59.629 338.800,58.984 338.800 C 58.307 338.800,57.352 337.250,56.827 335.300 C 56.429 333.822,55.797 333.093,52.909 330.779 C 52.639 330.562,52.138 329.421,51.795 328.242 C 51.050 325.680,50.386 325.015,47.551 323.992 C 46.368 323.565,45.040 322.753,44.600 322.188 C 41.841 318.645,41.471 318.366,39.126 318.048 C 36.776 317.731,35.600 317.101,35.600 316.159 C 35.600 315.434,34.181 315.117,31.773 315.303 C 29.859 315.451,29.874 315.458,32.253 315.528 C 34.860 315.605,35.180 315.901,35.195 318.257 C 35.201 319.298,35.867 319.580,39.008 319.874 C 41.376 320.095,41.451 320.139,42.725 322.064 C 44.040 324.051,45.225 324.800,47.057 324.800 C 48.317 324.800,50.279 326.711,50.598 328.249 C 51.301 331.639,51.622 332.280,53.095 333.231 C 54.836 334.355,55.389 337.337,54.272 339.576 C 53.791 340.540,53.718 342.498,54.086 344.600 C 54.179 345.133,55.326 346.163,56.033 346.348 C 57.646 346.770,59.754 346.721,60.528 346.245 C 62.572 344.985,65.806 345.395,67.057 347.073 C 68.518 349.033,68.589 349.078,70.761 349.403 C 74.054 349.897,76.000 351.879,76.000 354.738 C 76.000 355.718,77.016 356.674,79.400 357.939 L 81.400 359.000 81.522 361.364 C 81.634 363.548,82.169 365.015,82.900 365.146 C 83.065 365.176,83.567 365.200,84.015 365.200 C 84.769 365.200,84.825 365.425,84.761 368.200 C 84.722 369.850,84.525 371.200,84.322 371.200 C 84.119 371.200,84.064 371.020,84.200 370.800 C 84.336 370.580,84.167 370.400,83.824 370.400 C 83.481 370.400,83.200 370.683,83.200 371.028 C 83.200 371.450,83.495 371.614,84.100 371.528 C 84.928 371.410,85.016 371.143,85.200 368.200 C 85.447 364.248,87.853 360.800,90.364 360.800 C 90.650 360.800,91.541 360.300,92.342 359.689 C 94.646 357.933,96.513 357.257,100.286 356.810 C 107.159 355.996,109.369 355.330,111.483 353.435 C 114.216 350.985,115.332 350.543,119.501 350.260 C 125.501 349.852,128.207 349.001,130.155 346.907 C 132.479 344.408,133.999 343.753,138.200 343.440 C 143.337 343.056,148.307 341.759,149.866 340.393 C 151.448 339.008,152.568 338.653,158.792 337.569 C 164.893 336.506,166.179 336.069,168.576 334.239 C 170.452 332.807,173.017 331.876,176.400 331.401 C 183.425 330.414,184.775 329.966,186.293 328.113 C 189.820 323.808,200.743 323.367,204.890 327.362 C 207.985 330.343,208.758 330.706,212.600 330.984 C 219.602 331.491,222.239 332.269,223.924 334.325 C 225.792 336.605,227.008 337.098,232.088 337.637 C 236.336 338.087,240.356 339.457,241.323 340.785 C 242.129 341.893,246.900 343.200,250.136 343.200 C 254.129 343.200,256.844 344.072,258.705 345.951 C 260.672 347.938,263.943 349.155,269.200 349.855 C 274.197 350.521,276.332 351.270,278.550 353.134 C 281.103 355.281,283.337 356.092,287.725 356.465 C 291.753 356.808,294.474 357.681,297.163 359.492 C 299.977 361.387,303.036 361.992,305.784 361.195 C 311.048 359.669,311.144 359.510,312.414 350.200 C 312.981 346.047,314.284 342.756,315.741 341.802 C 318.715 339.853,319.354 329.342,316.643 326.955 C 315.355 325.821,310.471 325.109,306.347 325.453 C 300.263 325.960,295.017 324.809,292.519 322.420 C 290.820 320.795,290.294 320.626,283.778 319.606 C 278.080 318.715,274.800 317.471,274.800 316.203 C 274.800 314.287,268.528 312.404,262.134 312.401 C 259.378 312.400,259.204 312.342,257.590 310.881 L 255.912 309.362 257.364 308.254 C 258.163 307.645,260.050 306.727,261.558 306.214 C 264.946 305.062,265.834 304.601,267.571 303.091 C 269.487 301.426,271.106 300.822,276.498 299.758 C 283.759 298.327,284.203 298.163,285.581 296.423 C 287.531 293.962,289.546 293.200,294.102 293.200 C 297.920 293.200,304.400 291.680,304.400 290.785 C 304.400 289.890,309.490 288.043,312.661 287.787 C 315.429 287.563,316.124 287.355,317.261 286.406 L 318.600 285.288 318.465 281.557 C 318.316 277.436,317.837 276.114,315.790 274.171 C 313.348 271.855,312.075 268.042,311.961 262.701 C 311.869 258.423,311.014 257.508,306.475 256.832 C 303.401 256.375,302.987 256.129,302.552 254.495 C 302.245 253.342,302.830 252.650,305.006 251.597 C 306.535 250.857,306.863 250.452,307.692 248.277 C 308.543 246.046,308.824 245.711,310.523 244.902 C 313.765 243.358,314.076 242.463,313.894 235.200 C 313.653 225.637,313.395 225.328,303.357 222.590 C 303.113 222.523,302.805 221.958,302.672 221.334 C 302.216 219.188,300.850 217.552,298.785 216.680 C 297.206 216.013,296.722 215.574,296.363 214.489 C 295.787 212.741,293.931 210.634,292.416 210.007 C 291.653 209.690,290.801 208.757,290.032 207.396 C 289.069 205.689,288.420 205.073,286.695 204.229 C 285.063 203.430,284.440 202.867,284.076 201.859 C 283.438 200.096,282.117 198.919,279.781 198.032 L 277.850 197.299 277.002 194.150 C 275.887 190.013,274.720 187.830,273.311 187.246 C 271.739 186.595,269.742 184.776,269.418 183.700 C 269.148 182.806,266.879 180.800,266.137 180.800 C 265.582 180.800,263.797 178.809,263.087 177.399 C 262.022 175.285,260.457 174.480,254.400 172.930 C 253.266 172.640,252.907 172.290,252.511 171.089 C 251.723 168.697,250.829 167.653,248.751 166.700 C 247.201 165.988,246.702 165.514,246.338 164.402 C 245.638 162.265,244.845 161.260,243.012 160.186 C 242.091 159.646,240.763 158.490,240.061 157.616 C 239.219 156.569,238.276 155.896,237.292 155.641 C 236.471 155.428,234.547 154.942,233.016 154.560 C 230.997 154.056,229.940 153.546,229.169 152.702 L 228.107 151.538 227.353 152.469 C 224.991 155.388,221.672 155.878,219.934 153.566 C 218.822 152.088,217.424 150.691,215.188 148.828 C 214.283 148.073,213.192 146.768,212.763 145.927 C 212.334 145.087,211.312 143.973,210.492 143.452 C 206.699 141.042,206.620 135.821,210.338 133.400 C 211.351 132.740,212.905 131.164,213.790 129.897 C 215.212 127.864,215.775 127.427,218.600 126.160 C 223.646 123.899,223.754 123.835,224.261 122.790 C 224.525 122.246,225.323 120.396,226.033 118.680 C 227.188 115.892,227.553 115.408,229.457 114.145 C 230.681 113.332,232.129 111.896,232.859 110.770 C 233.716 109.447,234.700 108.532,235.886 107.958 C 236.990 107.424,238.218 106.329,239.192 105.011 C 240.044 103.858,241.459 102.346,242.336 101.651 C 243.213 100.956,244.569 99.426,245.349 98.251 C 246.129 97.075,247.204 95.827,247.738 95.477 C 250.697 93.538,250.839 90.002,248.025 88.322 C 245.891 87.047,244.810 85.971,243.919 84.233 C 243.130 82.694,240.608 80.000,239.956 80.000 C 239.774 80.000,238.989 79.006,238.212 77.791 C 237.405 76.530,236.327 75.393,235.699 75.141 C 233.195 74.137,232.612 73.725,231.531 72.200 C 230.907 71.320,229.645 70.054,228.727 69.386 C 227.696 68.637,226.529 67.210,225.678 65.659 C 224.784 64.031,223.770 62.812,222.796 62.198 C 221.970 61.676,220.611 60.415,219.776 59.396 C 218.941 58.377,217.614 57.214,216.829 56.811 C 215.068 55.908,213.939 54.696,212.868 52.561 C 211.769 50.369,210.764 49.792,206.740 49.038 C 202.625 48.266,203.335 48.218,201.249 49.411 M48.400 60.124 C 48.400 60.302,48.192 60.319,47.938 60.162 C 47.652 59.985,47.585 60.052,47.762 60.338 C 47.919 60.592,47.846 60.800,47.600 60.800 C 47.354 60.800,47.271 60.991,47.415 61.224 C 47.584 61.498,47.840 61.426,48.138 61.019 C 48.392 60.673,49.410 60.227,50.400 60.028 L 52.200 59.665 50.300 59.732 C 49.255 59.770,48.400 59.946,48.400 60.124 M350.000 60.028 C 350.990 60.227,352.008 60.673,352.262 61.019 C 352.560 61.426,352.816 61.498,352.985 61.224 C 353.129 60.991,353.046 60.800,352.800 60.800 C 352.554 60.800,352.481 60.592,352.638 60.338 C 352.815 60.052,352.748 59.985,352.462 60.162 C 352.208 60.319,352.000 60.302,352.000 60.124 C 352.000 59.946,351.145 59.770,350.100 59.732 L 348.200 59.665 350.000 60.028 M30.892 79.468 C 30.308 79.703,29.192 81.707,29.216 82.480 C 29.224 82.766,29.476 82.438,29.775 81.751 C 30.074 81.065,30.737 80.210,31.248 79.851 C 32.140 79.227,31.963 79.037,30.892 79.468 M369.152 79.851 C 369.663 80.210,370.326 81.065,370.625 81.751 C 370.924 82.438,371.176 82.766,371.184 82.480 C 371.210 81.623,370.076 79.715,369.382 79.448 C 368.271 79.022,368.185 79.174,369.152 79.851 M25.423 91.510 C 25.341 91.593,25.032 91.699,24.737 91.746 C 23.884 91.881,22.524 92.774,23.149 92.788 C 23.563 92.797,23.588 92.932,23.252 93.337 C 23.007 93.632,22.925 93.992,23.070 94.137 C 23.215 94.282,23.165 94.400,22.960 94.400 C 22.182 94.400,22.457 97.564,23.257 97.818 C 27.700 99.228,29.921 97.793,28.976 94.122 C 28.298 91.491,26.652 90.281,25.423 91.510 M371.430 94.099 C 370.479 97.794,372.688 99.232,377.143 97.818 C 377.943 97.564,378.218 94.400,377.440 94.400 C 377.235 94.400,377.185 94.282,377.330 94.137 C 377.475 93.992,377.393 93.632,377.148 93.337 C 376.812 92.932,376.837 92.797,377.251 92.788 C 378.858 92.752,375.792 91.625,373.574 91.436 L 372.148 91.314 371.430 94.099 M23.052 107.623 C 23.371 110.316,20.294 111.362,16.600 109.817 C 16.001 109.567,15.908 109.600,16.227 109.948 C 17.255 111.069,21.609 111.185,23.382 110.138 C 24.137 109.693,24.141 109.608,23.500 107.738 L 22.836 105.800 23.052 107.623 M376.787 107.848 C 376.310 109.549,376.330 109.731,377.035 110.148 C 378.791 111.186,383.150 111.064,384.173 109.948 C 384.492 109.600,384.399 109.567,383.800 109.817 C 380.158 111.341,377.003 110.310,377.391 107.723 C 377.729 105.466,377.436 105.527,376.787 107.848 M16.235 117.800 C 16.370 118.460,16.653 119.690,16.864 120.533 C 17.538 123.219,16.604 124.071,13.144 123.929 C 11.149 123.847,10.233 123.638,9.980 123.207 C 9.698 122.726,9.622 122.788,9.612 123.510 C 9.593 124.911,10.961 125.172,16.473 124.818 C 17.804 124.732,18.375 122.454,17.619 120.254 C 16.640 117.411,15.878 116.060,16.235 117.800 M383.290 118.872 C 381.956 122.473,381.952 122.527,382.905 123.723 C 384.461 125.673,390.814 125.501,390.788 123.510 C 390.778 122.788,390.702 122.726,390.420 123.207 C 390.167 123.638,389.251 123.847,387.256 123.929 C 383.456 124.085,382.888 123.375,383.775 119.574 C 384.518 116.392,384.317 116.101,383.290 118.872 M187.700 126.762 C 188.923 127.227,193.992 132.459,194.880 134.173 C 195.297 134.978,196.566 136.116,198.158 137.114 C 199.586 138.010,201.170 139.384,201.678 140.167 C 202.185 140.949,202.738 141.592,202.906 141.595 C 203.074 141.598,203.704 142.145,204.306 142.811 C 219.475 159.591,220.121 160.025,225.927 157.336 C 231.299 154.848,238.353 158.256,243.768 165.954 C 244.467 166.947,245.839 168.321,246.819 169.008 C 247.799 169.695,249.250 171.234,250.046 172.428 C 251.396 174.456,251.708 174.679,254.769 175.790 C 256.627 176.465,258.443 177.418,258.960 177.990 C 263.033 182.496,269.337 188.681,270.882 189.686 C 272.883 190.989,274.068 192.938,274.773 196.083 C 275.047 197.307,275.577 198.145,276.618 199.000 C 277.422 199.660,279.555 201.640,281.359 203.400 C 283.164 205.160,285.265 207.033,286.028 207.562 C 286.792 208.091,287.844 209.199,288.365 210.025 C 288.887 210.850,289.722 211.744,290.221 212.011 C 290.719 212.278,292.054 213.739,293.188 215.258 C 294.321 216.777,295.950 218.463,296.807 219.005 C 297.665 219.546,299.108 220.992,300.014 222.219 C 300.920 223.445,301.962 224.550,302.331 224.673 C 309.853 227.197,312.097 230.391,311.612 237.888 L 311.400 241.176 308.909 242.986 C 307.402 244.081,306.106 245.409,305.627 246.348 C 304.883 247.806,303.895 248.785,301.398 250.539 C 300.819 250.946,299.791 252.439,299.114 253.857 C 297.711 256.794,297.658 256.832,293.600 257.777 C 291.191 258.339,290.285 258.775,289.000 259.991 C 286.720 262.151,285.989 262.432,281.241 262.984 C 276.705 263.510,274.392 264.340,271.864 266.349 C 269.807 267.984,266.932 268.998,262.654 269.598 C 258.336 270.204,254.925 271.488,252.797 273.310 C 250.544 275.239,246.799 276.000,239.568 276.000 C 232.804 276.000,228.893 276.739,227.514 278.278 C 224.311 281.852,223.183 282.400,219.028 282.400 C 215.388 282.400,212.631 283.339,209.574 285.620 C 203.996 289.781,187.432 289.879,181.707 285.785 C 178.748 283.670,177.716 283.307,171.553 282.213 L 165.800 281.192 164.135 279.347 C 161.151 276.040,161.044 276.006,153.744 276.003 C 149.629 276.001,146.076 275.775,143.944 275.380 C 139.410 274.539,139.318 274.504,137.626 272.976 C 135.772 271.301,134.937 270.984,130.312 270.198 C 125.226 269.334,124.369 269.011,121.751 266.979 C 120.498 266.006,118.467 264.850,117.236 264.409 C 113.888 263.210,113.102 262.714,112.146 261.190 C 111.173 259.641,110.273 258.678,108.418 257.204 C 107.729 256.656,106.533 255.290,105.761 254.170 C 104.990 253.049,103.468 251.453,102.379 250.623 C 101.291 249.793,100.400 248.964,100.400 248.781 C 100.400 248.597,98.780 246.796,96.800 244.778 L 93.200 241.109 93.200 237.616 C 93.200 231.877,96.136 228.130,102.485 225.765 C 105.734 224.555,105.826 224.484,107.117 222.165 C 107.841 220.864,109.210 219.080,110.160 218.200 C 111.110 217.320,112.189 216.101,112.558 215.492 C 112.927 214.883,113.987 213.845,114.914 213.187 C 117.441 211.392,118.369 210.429,119.263 208.676 C 119.709 207.802,120.889 206.215,121.885 205.150 L 123.696 203.215 121.449 200.281 C 120.213 198.667,118.909 196.487,118.551 195.436 C 118.193 194.386,117.296 192.922,116.558 192.184 L 115.216 190.842 116.761 189.974 C 118.240 189.143,120.000 186.723,120.000 185.520 C 120.000 184.750,121.912 183.041,123.452 182.435 C 124.311 182.097,124.940 181.421,125.452 180.283 C 126.544 177.862,127.675 176.689,129.944 175.626 C 131.530 174.883,132.089 174.359,132.565 173.171 C 133.156 171.693,133.574 171.289,136.374 169.485 C 137.130 168.998,138.222 167.790,138.800 166.800 C 139.378 165.810,140.470 164.602,141.226 164.115 C 143.968 162.348,144.304 162.016,145.131 160.257 C 145.786 158.865,146.246 158.410,147.215 158.197 C 148.837 157.840,151.043 155.884,151.387 154.496 C 151.754 153.020,153.054 151.696,154.433 151.393 C 155.825 151.087,157.831 148.879,158.186 147.262 C 158.386 146.351,158.868 145.868,160.198 145.243 C 161.907 144.439,162.302 144.035,164.115 141.230 C 164.602 140.476,165.772 139.452,166.716 138.955 C 168.478 138.025,169.963 136.561,169.987 135.731 C 170.008 134.976,172.014 132.800,172.688 132.800 C 173.394 132.800,175.999 130.183,176.001 129.472 C 176.002 129.212,176.360 128.415,176.796 127.700 L 177.588 126.400 182.168 126.400 C 184.687 126.400,187.176 126.563,187.700 126.762 M5.208 142.591 C 4.934 142.921,4.552 143.094,4.359 142.975 C 4.167 142.856,4.116 143.038,4.247 143.379 C 4.378 143.721,4.303 144.000,4.081 144.000 C 3.645 144.000,3.900 147.177,4.379 147.708 C 4.940 148.331,9.525 148.260,10.363 147.616 C 11.162 147.002,10.581 143.642,9.489 142.554 C 9.005 142.072,6.800 142.012,6.800 142.480 C 6.800 142.753,6.610 142.740,6.253 142.444 C 5.837 142.099,5.587 142.134,5.208 142.591 M390.888 142.527 C 389.686 144.087,389.219 146.990,390.066 147.639 C 390.925 148.298,395.451 148.344,396.030 147.700 C 396.503 147.173,396.751 144.000,396.319 144.000 C 396.097 144.000,396.022 143.721,396.153 143.379 C 396.284 143.038,396.233 142.856,396.041 142.975 C 395.848 143.094,395.466 142.921,395.192 142.591 C 394.813 142.134,394.563 142.099,394.147 142.444 C 393.839 142.700,393.600 142.729,393.600 142.510 C 393.600 141.951,391.321 141.966,390.888 142.527 M4.360 160.843 C 7.215 165.681,6.104 169.168,1.700 169.191 C 0.402 169.198,0.000 169.353,0.000 169.850 C 0.000 171.156,4.217 170.370,5.820 168.765 C 8.141 166.440,7.449 161.963,4.475 160.061 L 3.550 159.469 4.360 160.843 M395.510 160.385 C 391.328 163.675,392.855 169.815,397.977 170.307 C 399.659 170.469,400.000 170.392,400.000 169.851 C 400.000 169.367,399.615 169.198,398.500 169.191 C 394.330 169.166,393.247 165.576,396.001 160.908 C 396.901 159.383,396.851 159.330,395.510 160.385 M0.000 230.550 C 0.000 231.047,0.402 231.202,1.700 231.209 C 6.104 231.232,7.215 234.719,4.360 239.557 L 3.550 240.931 4.475 240.339 C 7.449 238.437,8.141 233.960,5.820 231.635 C 4.217 230.030,0.000 229.244,0.000 230.550 M396.200 230.384 C 392.362 231.982,392.197 237.955,395.925 240.339 L 396.850 240.931 396.040 239.557 C 393.246 234.822,394.304 231.234,398.500 231.209 C 399.563 231.203,400.000 231.025,400.000 230.600 C 400.000 229.930,397.615 229.795,396.200 230.384 M5.400 252.400 C 4.142 252.618,3.120 255.820,4.106 256.455 C 4.324 256.596,4.362 256.938,4.189 257.217 C 3.998 257.527,4.038 257.624,4.293 257.466 C 4.522 257.325,4.934 257.479,5.208 257.809 C 5.587 258.266,5.837 258.301,6.253 257.956 C 6.610 257.660,6.800 257.647,6.800 257.920 C 6.800 258.388,9.005 258.328,9.489 257.846 C 9.660 257.675,10.110 256.605,10.489 255.468 C 11.451 252.581,9.867 251.626,5.400 252.400 M390.066 252.761 C 389.219 253.410,389.686 256.313,390.888 257.873 C 391.321 258.434,393.600 258.449,393.600 257.890 C 393.600 257.671,393.839 257.700,394.147 257.956 C 394.563 258.301,394.813 258.266,395.192 257.809 C 395.466 257.479,395.848 257.306,396.041 257.425 C 396.233 257.544,396.284 257.362,396.153 257.021 C 396.022 256.679,396.097 256.400,396.319 256.400 C 396.751 256.400,396.503 253.227,396.030 252.700 C 395.451 252.056,390.925 252.102,390.066 252.761 M104.350 258.939 C 105.189 259.951,103.513 261.009,102.626 260.028 C 102.238 259.601,102.040 259.059,102.184 258.825 C 102.553 258.229,103.815 258.295,104.350 258.939 M10.775 275.135 C 10.010 275.381,9.611 276.025,9.618 277.000 C 9.623 277.656,9.688 277.691,9.980 277.193 C 10.233 276.762,11.149 276.553,13.144 276.471 C 16.944 276.315,17.512 277.025,16.625 280.826 C 15.702 284.782,16.686 283.335,18.149 278.585 C 18.850 276.309,14.073 274.074,10.775 275.135 M383.148 276.389 C 381.921 277.878,381.920 277.828,383.290 281.528 C 384.317 284.299,384.518 284.008,383.775 280.826 C 382.888 277.025,383.456 276.315,387.256 276.471 C 389.251 276.553,390.167 276.762,390.420 277.193 C 390.712 277.691,390.777 277.656,390.782 277.000 C 390.801 274.440,385.130 273.986,383.148 276.389 M17.652 289.698 C 16.985 289.871,16.311 290.220,16.154 290.474 C 15.952 290.801,16.092 290.836,16.634 290.592 C 20.171 289.004,23.370 290.093,23.052 292.777 L 22.836 294.600 23.500 292.662 C 24.387 290.074,21.618 288.671,17.652 289.698 M379.600 289.593 C 376.477 289.952,376.113 290.366,376.900 292.662 L 377.564 294.600 377.348 292.777 C 377.029 290.084,380.106 289.038,383.800 290.583 C 384.399 290.833,384.492 290.800,384.173 290.452 C 383.510 289.728,381.577 289.365,379.600 289.593 M25.200 302.312 C 22.629 302.600,22.500 302.701,22.544 304.395 C 22.568 305.278,22.755 306.000,22.960 306.000 C 23.165 306.000,23.215 306.118,23.070 306.263 C 22.925 306.408,23.007 306.768,23.252 307.063 C 23.587 307.466,23.567 307.600,23.173 307.600 C 22.853 307.600,22.947 307.819,23.413 308.160 C 23.834 308.468,24.498 308.658,24.889 308.583 C 25.280 308.508,25.600 308.580,25.600 308.743 C 25.600 308.906,26.199 309.040,26.932 309.040 C 28.243 309.040,28.275 308.996,28.969 306.305 C 29.893 302.715,29.100 301.875,25.200 302.312 M372.930 302.323 C 370.865 302.523,370.624 303.169,371.435 306.318 C 372.166 309.158,373.224 309.835,375.100 308.665 C 375.375 308.493,375.737 308.437,375.904 308.541 C 376.072 308.644,376.556 308.475,376.981 308.165 C 377.447 307.823,377.545 307.600,377.227 307.600 C 376.833 307.600,376.813 307.466,377.148 307.063 C 377.393 306.768,377.475 306.408,377.330 306.263 C 377.185 306.118,377.235 306.000,377.440 306.000 C 378.303 306.000,377.933 302.797,377.049 302.619 C 375.404 302.289,374.187 302.201,372.930 302.323 M365.300 315.465 C 365.025 315.576,364.800 315.900,364.800 316.184 C 364.800 317.101,363.604 317.733,361.274 318.048 C 358.929 318.366,358.559 318.645,355.800 322.188 C 355.360 322.753,354.032 323.565,352.849 323.992 C 350.014 325.015,349.350 325.680,348.605 328.242 C 348.262 329.421,347.761 330.562,347.491 330.779 C 344.963 332.804,344.004 333.780,343.805 334.525 C 342.927 337.820,342.680 338.258,341.264 339.017 C 340.459 339.448,339.448 340.459,339.017 341.264 C 338.258 342.680,337.820 342.927,334.525 343.805 C 333.780 344.004,332.804 344.963,330.779 347.491 C 330.562 347.761,329.403 348.268,328.201 348.617 C 325.738 349.333,324.631 350.458,323.969 352.915 C 323.549 354.476,322.755 355.403,319.883 357.690 C 318.738 358.601,318.474 359.117,318.270 360.840 C 318.003 363.095,317.111 364.800,316.198 364.800 C 315.436 364.800,315.113 366.178,315.303 368.627 C 315.448 370.504,315.459 370.478,315.528 368.100 C 315.576 366.426,315.765 365.589,316.100 365.567 C 319.369 365.352,319.520 365.197,319.842 361.738 L 320.106 358.893 322.150 357.546 C 324.015 356.318,324.236 356.008,324.675 354.000 C 325.199 351.604,326.440 350.169,328.319 349.785 C 331.610 349.112,332.284 348.771,333.231 347.305 C 334.355 345.564,337.337 345.011,339.576 346.128 C 340.540 346.609,342.498 346.682,344.600 346.314 C 346.319 346.014,347.263 341.851,346.128 339.576 C 345.011 337.337,345.564 334.355,347.305 333.231 C 348.778 332.280,349.099 331.639,349.802 328.249 C 350.121 326.711,352.083 324.800,353.343 324.800 C 355.199 324.800,356.420 324.022,357.639 322.060 C 358.838 320.132,358.877 320.109,361.330 319.879 C 364.535 319.580,365.199 319.302,365.205 318.257 C 365.220 315.945,365.540 315.644,368.142 315.495 L 370.600 315.354 368.200 315.309 C 366.880 315.284,365.575 315.354,365.300 315.465 M29.216 317.920 C 29.190 318.777,30.324 320.685,31.018 320.952 C 32.129 321.378,32.215 321.226,31.248 320.549 C 30.737 320.190,30.074 319.335,29.775 318.649 C 29.476 317.962,29.224 317.634,29.216 317.920 M370.800 318.164 C 370.800 318.548,370.274 319.388,369.631 320.031 C 368.400 321.261,368.386 321.450,369.571 320.815 C 370.367 320.390,371.454 318.120,371.054 317.721 C 370.914 317.581,370.800 317.781,370.800 318.164 M47.415 339.176 C 47.271 339.409,47.354 339.600,47.600 339.600 C 47.846 339.600,47.919 339.808,47.762 340.062 C 47.585 340.348,47.652 340.415,47.938 340.238 C 48.192 340.081,48.400 340.098,48.400 340.276 C 48.400 340.454,49.255 340.630,50.300 340.668 L 52.200 340.735 50.400 340.372 C 49.410 340.173,48.392 339.727,48.138 339.381 C 47.840 338.974,47.584 338.902,47.415 339.176 M352.181 339.436 C 351.972 339.757,350.990 340.181,350.000 340.378 L 348.200 340.735 350.100 340.668 C 351.145 340.630,352.000 340.454,352.000 340.276 C 352.000 340.098,352.208 340.081,352.462 340.238 C 352.735 340.407,352.816 340.349,352.659 340.096 C 352.514 339.861,352.612 339.596,352.878 339.507 C 353.176 339.408,353.208 339.252,352.961 339.100 C 352.742 338.964,352.391 339.116,352.181 339.436 M59.732 350.100 C 59.770 351.145,59.946 352.000,60.124 352.000 C 60.302 352.000,60.319 352.208,60.162 352.462 C 59.985 352.748,60.052 352.815,60.338 352.638 C 60.592 352.481,60.800 352.554,60.800 352.800 C 60.800 353.046,60.991 353.129,61.224 352.985 C 61.498 352.816,61.426 352.560,61.019 352.262 C 60.673 352.008,60.227 350.990,60.028 350.000 L 59.665 348.200 59.732 350.100 M340.279 350.086 C 340.155 351.013,339.760 351.986,339.403 352.248 C 338.985 352.553,338.904 352.817,339.176 352.985 C 339.409 353.129,339.600 353.046,339.600 352.800 C 339.600 352.554,339.808 352.481,340.062 352.638 C 340.348 352.815,340.415 352.748,340.238 352.462 C 340.081 352.208,340.098 352.000,340.276 352.000 C 340.454 352.000,340.652 351.190,340.716 350.200 C 340.862 347.928,340.579 347.854,340.279 350.086 M79.874 353.371 C 79.211 355.394,77.379 354.304,77.787 352.130 L 78.075 350.600 79.035 351.800 C 79.563 352.460,79.941 353.167,79.874 353.371 M79.034 367.800 C 79.185 368.460,79.347 369.360,79.395 369.800 C 79.451 370.321,79.725 370.556,80.181 370.473 C 80.647 370.389,80.779 370.510,80.578 370.835 C 80.381 371.154,80.443 371.221,80.756 371.027 C 81.019 370.864,81.481 370.935,81.782 371.185 C 82.158 371.497,82.410 371.508,82.588 371.219 C 82.731 370.989,82.702 370.794,82.524 370.786 C 82.346 370.778,82.650 370.501,83.200 370.169 C 84.199 369.568,84.199 369.567,83.250 369.826 C 82.639 369.993,82.391 369.937,82.556 369.670 C 82.698 369.442,82.602 369.125,82.345 368.966 C 82.052 368.785,81.984 368.850,82.162 369.138 C 82.586 369.824,81.969 369.697,81.007 368.900 C 80.542 368.515,80.660 368.688,81.269 369.284 C 81.878 369.880,82.212 370.469,82.012 370.593 C 81.544 370.882,80.073 369.347,79.334 367.800 L 78.760 366.600 79.034 367.800 M320.464 369.246 C 320.186 369.692,319.383 370.307,318.679 370.612 C 317.976 370.918,317.634 371.176,317.920 371.184 C 318.790 371.211,320.687 370.071,320.961 369.358 C 321.338 368.375,321.049 368.310,320.464 369.246 M93.557 371.521 C 91.324 372.133,91.314 372.143,91.436 373.568 C 91.625 375.791,92.752 378.861,92.788 377.251 C 92.797 376.837,92.932 376.812,93.337 377.148 C 93.632 377.393,93.992 377.475,94.137 377.330 C 94.282 377.185,94.400 377.235,94.400 377.440 C 94.400 377.645,95.115 377.832,95.989 377.855 C 97.850 377.904,98.057 377.536,98.057 374.170 C 98.057 370.695,97.585 370.417,93.557 371.521 M302.661 371.532 C 301.957 372.311,301.916 375.543,302.590 377.248 C 302.869 377.955,306.000 378.131,306.000 377.440 C 306.000 377.235,306.118 377.185,306.263 377.330 C 306.408 377.475,306.768 377.393,307.063 377.148 C 307.466 376.813,307.600 376.833,307.600 377.227 C 307.600 377.545,307.823 377.447,308.165 376.981 C 308.475 376.556,308.644 376.072,308.541 375.904 C 308.437 375.737,308.493 375.375,308.665 375.100 C 309.728 373.396,309.121 372.110,307.034 371.640 C 305.915 371.388,304.633 371.085,304.184 370.967 C 303.672 370.831,303.106 371.041,302.661 371.532 M107.200 377.027 L 105.800 377.592 107.514 377.359 C 108.597 377.211,109.443 377.304,109.814 377.611 C 110.515 378.193,110.620 382.042,109.968 383.261 C 109.730 383.705,109.625 384.159,109.735 384.269 C 110.238 384.772,110.896 382.439,110.849 380.323 C 110.764 376.575,110.007 375.892,107.200 377.027 M290.098 377.191 C 289.139 378.728,289.662 385.271,290.665 384.269 C 290.775 384.159,290.670 383.705,290.432 383.261 C 289.780 382.042,289.885 378.193,290.586 377.611 C 290.957 377.304,291.803 377.211,292.886 377.359 L 294.600 377.592 293.200 377.027 C 291.263 376.244,290.670 376.275,290.098 377.191 M121.600 382.287 C 121.270 382.409,120.043 382.863,118.872 383.294 C 116.099 384.316,116.393 384.517,119.574 383.775 C 123.375 382.888,124.085 383.456,123.929 387.256 C 123.847 389.251,123.638 390.167,123.207 390.420 C 122.726 390.702,122.788 390.778,123.510 390.788 C 125.501 390.814,125.672 384.463,123.723 382.902 C 122.527 381.946,122.521 381.944,121.600 382.287 M276.432 383.117 C 274.050 385.106,274.471 390.801,277.000 390.782 C 277.656 390.777,277.691 390.712,277.193 390.420 C 276.762 390.167,276.553 389.251,276.471 387.256 C 276.315 383.456,277.025 382.888,280.826 383.775 C 284.008 384.518,284.299 384.317,281.528 383.290 C 277.824 381.918,277.866 381.920,276.432 383.117 M144.794 389.950 C 143.801 390.307,142.778 390.738,142.521 390.907 C 141.963 391.273,141.953 393.600,142.510 393.600 C 142.729 393.600,142.700 393.839,142.444 394.147 C 142.099 394.563,142.134 394.813,142.591 395.192 C 142.921 395.466,143.094 395.848,142.975 396.041 C 142.856 396.233,143.038 396.284,143.379 396.153 C 143.721 396.022,144.000 396.097,144.000 396.319 C 144.000 396.756,147.177 396.500,147.708 396.021 C 148.307 395.482,148.290 391.040,147.686 390.100 C 147.030 389.078,147.192 389.087,144.794 389.950 M252.727 390.080 C 252.111 391.038,252.084 395.474,252.692 396.021 C 253.223 396.500,256.400 396.756,256.400 396.319 C 256.400 396.097,256.679 396.022,257.021 396.153 C 257.362 396.284,257.544 396.233,257.425 396.041 C 257.306 395.848,257.479 395.466,257.809 395.192 C 258.266 394.813,258.301 394.563,257.956 394.147 C 257.700 393.839,257.671 393.600,257.890 393.600 C 259.636 393.600,258.061 390.671,256.000 390.085 C 255.230 389.866,254.312 389.568,253.959 389.423 C 253.538 389.250,253.116 389.475,252.727 390.080 M162.826 393.877 C 161.631 394.495,160.386 395.416,160.061 395.925 L 159.469 396.850 160.843 396.040 C 165.578 393.246,169.166 394.304,169.191 398.500 C 169.198 399.615,169.367 400.000,169.851 400.000 C 171.123 400.000,170.348 396.161,168.755 394.571 C 166.843 392.662,165.487 392.503,162.826 393.877 M233.400 393.184 C 230.936 394.210,228.514 400.000,230.549 400.000 C 231.033 400.000,231.202 399.615,231.209 398.500 C 231.234 394.304,234.822 393.246,239.557 396.040 L 240.931 396.850 240.339 395.925 C 239.149 394.064,235.114 392.470,233.400 393.184 " stroke="none" fill="#692b1d" fill-rule="evenodd"></path><path id="path2" d="M170.316 2.213 C 169.868 7.612,163.185 9.212,160.188 4.638 L 159.508 3.600 152.054 3.667 C 147.954 3.704,145.285 3.806,146.122 3.893 C 147.878 4.075,148.009 4.299,148.136 7.326 C 148.287 10.937,145.191 12.136,142.554 9.489 C 142.072 9.005,142.012 6.800,142.480 6.800 C 142.753 6.800,142.740 6.610,142.444 6.253 C 142.099 5.837,142.134 5.587,142.591 5.208 C 142.921 4.934,143.094 4.552,142.975 4.359 C 142.856 4.167,143.038 4.116,143.379 4.247 C 143.721 4.378,144.000 4.280,144.000 4.030 C 144.000 3.709,142.667 3.607,139.500 3.687 L 135.000 3.800 134.882 6.700 L 134.765 9.600 129.592 9.600 L 124.420 9.600 124.738 10.500 C 125.488 12.623,124.919 16.540,123.723 17.495 C 122.499 18.471,122.387 18.459,118.569 16.957 C 116.765 16.247,115.358 16.000,113.116 16.000 L 110.094 16.000 110.562 17.360 C 111.084 18.878,110.849 22.178,110.134 23.390 C 109.672 24.173,109.644 24.172,106.906 23.290 C 103.047 22.047,97.417 21.995,97.802 23.205 C 99.204 27.624,97.790 29.957,94.283 29.007 C 87.517 27.176,78.342 28.528,78.425 31.344 L 78.451 32.200 78.804 31.323 C 79.340 29.992,80.952 29.140,83.075 29.066 L 84.988 29.000 85.128 31.337 C 85.295 34.117,84.986 35.600,84.241 35.600 C 83.299 35.600,82.669 36.776,82.352 39.126 C 82.035 41.471,81.719 41.887,78.202 44.600 C 77.632 45.040,76.900 46.176,76.576 47.125 C 75.611 49.949,74.507 51.112,72.138 51.801 C 70.970 52.140,69.838 52.639,69.621 52.909 C 67.596 55.437,66.620 56.396,65.875 56.595 C 62.580 57.473,62.142 57.720,61.383 59.136 C 60.952 59.941,59.941 60.952,59.136 61.383 C 57.720 62.142,57.473 62.580,56.595 65.875 C 56.396 66.620,55.437 67.596,52.909 69.621 C 52.639 69.838,52.140 70.970,51.801 72.138 C 51.112 74.507,49.949 75.611,47.125 76.576 C 46.176 76.900,45.040 77.632,44.600 78.202 C 41.887 81.719,41.471 82.035,39.126 82.352 C 36.776 82.669,35.600 83.299,35.600 84.241 C 35.600 84.986,34.117 85.295,31.337 85.128 L 29.000 84.988 29.066 83.075 C 29.140 80.952,29.992 79.340,31.323 78.804 L 32.200 78.451 31.344 78.425 C 28.528 78.342,27.176 87.517,29.007 94.283 C 29.957 97.790,27.624 99.204,23.205 97.802 C 21.995 97.417,22.047 103.047,23.290 106.906 C 24.172 109.644,24.173 109.672,23.390 110.134 C 22.178 110.849,18.878 111.084,17.360 110.562 L 16.000 110.094 16.000 113.116 C 16.000 115.358,16.247 116.765,16.957 118.569 C 18.459 122.387,18.471 122.499,17.495 123.723 C 16.540 124.919,12.623 125.488,10.500 124.738 L 9.600 124.420 9.600 129.592 L 9.600 134.765 6.700 134.882 L 3.800 135.000 3.687 139.500 C 3.607 142.667,3.709 144.000,4.030 144.000 C 4.280 144.000,4.378 143.721,4.247 143.379 C 4.116 143.038,4.167 142.856,4.359 142.975 C 4.552 143.094,4.934 142.921,5.208 142.591 C 5.587 142.134,5.837 142.099,6.253 142.444 C 6.610 142.740,6.800 142.753,6.800 142.480 C 6.800 142.012,9.005 142.072,9.489 142.554 C 12.136 145.191,10.937 148.287,7.326 148.136 C 4.299 148.009,4.075 147.878,3.893 146.122 C 3.806 145.285,3.704 147.954,3.667 152.054 L 3.600 159.508 4.638 160.188 C 9.212 163.185,7.612 169.868,2.213 170.316 L 0.000 170.499 0.000 200.200 L 0.000 229.901 2.213 230.084 C 7.612 230.532,9.212 237.215,4.638 240.212 L 3.600 240.892 3.667 248.346 C 3.704 252.446,3.806 255.115,3.893 254.278 C 4.075 252.522,4.299 252.391,7.326 252.264 C 10.937 252.113,12.136 255.209,9.489 257.846 C 9.005 258.328,6.800 258.388,6.800 257.920 C 6.800 257.647,6.610 257.660,6.253 257.956 C 5.837 258.301,5.587 258.266,5.208 257.809 C 4.934 257.479,4.552 257.306,4.359 257.425 C 4.167 257.544,4.116 257.362,4.247 257.021 C 4.378 256.679,4.280 256.400,4.030 256.400 C 3.709 256.400,3.607 257.733,3.687 260.900 L 3.800 265.400 6.700 265.518 L 9.600 265.635 9.606 270.918 C 9.610 274.242,9.747 275.987,9.976 275.626 C 10.815 274.299,16.038 274.909,17.311 276.482 L 18.434 277.869 17.350 280.635 C 16.557 282.657,16.223 284.330,16.105 286.862 L 15.945 290.325 17.333 289.847 C 18.874 289.318,22.169 289.545,23.390 290.266 C 24.173 290.728,24.172 290.756,23.290 293.494 C 22.047 297.353,21.995 302.983,23.205 302.598 C 27.624 301.196,29.957 302.610,29.007 306.117 C 27.176 312.883,28.528 322.058,31.344 321.975 L 32.200 321.949 31.323 321.596 C 29.992 321.060,29.140 319.448,29.066 317.325 L 29.000 315.412 31.337 315.272 C 34.117 315.105,35.600 315.414,35.600 316.159 C 35.600 317.101,36.776 317.731,39.126 318.048 C 41.471 318.366,41.841 318.645,44.600 322.188 C 45.040 322.753,46.368 323.565,47.551 323.992 C 50.386 325.015,51.050 325.680,51.795 328.242 C 52.138 329.421,52.639 330.562,52.909 330.779 C 55.797 333.093,56.429 333.822,56.827 335.300 C 57.352 337.250,58.307 338.800,58.984 338.800 C 59.629 338.800,60.710 340.017,61.537 341.672 C 62.075 342.751,62.564 343.090,64.137 343.478 C 66.545 344.072,67.743 344.841,68.648 346.374 C 71.051 350.442,76.343 348.926,75.642 344.370 C 75.425 342.957,75.310 338.650,75.388 334.800 L 75.528 327.800 76.732 326.544 L 77.936 325.287 85.468 325.128 C 93.744 324.952,93.875 324.919,98.742 321.815 C 101.223 320.232,103.737 319.600,107.556 319.600 C 110.245 319.600,115.200 317.776,115.200 316.786 C 115.200 315.501,119.942 313.770,125.502 313.025 C 129.754 312.455,133.656 310.829,133.916 309.520 C 134.028 308.960,131.506 307.250,127.844 305.400 C 126.988 304.967,125.855 303.960,125.326 303.160 C 123.715 300.725,119.315 299.600,111.407 299.600 C 109.279 299.600,109.217 299.566,107.323 297.363 C 104.523 294.106,103.691 293.831,94.200 293.010 C 90.913 292.726,88.782 291.917,86.670 290.151 C 85.454 289.135,84.386 288.721,81.470 288.137 C 78.514 287.545,77.535 287.162,76.436 286.165 L 75.071 284.927 75.462 277.163 C 75.887 268.707,76.254 267.246,78.746 264.110 C 79.406 263.280,80.257 261.790,80.637 260.800 C 81.858 257.624,83.950 255.094,85.161 255.329 C 85.732 255.441,87.640 255.811,89.400 256.152 C 99.449 258.100,102.859 255.923,97.658 250.882 C 93.901 247.241,91.600 244.387,91.600 243.369 C 91.600 242.903,91.261 242.132,90.848 241.655 C 90.386 241.123,89.921 239.614,89.644 237.751 L 89.192 234.715 90.396 233.343 C 91.058 232.589,91.600 231.705,91.600 231.379 C 91.600 230.674,93.771 226.516,94.641 225.554 C 95.188 224.950,96.563 224.610,101.800 223.785 C 103.926 223.449,104.650 222.720,105.393 220.166 C 105.980 218.146,107.876 216.000,109.074 216.000 C 109.294 216.000,109.678 215.318,109.928 214.483 C 110.512 212.534,112.255 210.876,114.380 210.249 C 115.984 209.775,116.100 209.633,116.965 207.061 C 117.464 205.580,118.062 204.178,118.295 203.945 C 118.781 203.459,116.333 199.692,114.693 198.402 C 110.906 195.423,110.928 189.024,114.733 186.886 C 115.892 186.234,116.582 185.419,117.356 183.783 C 118.320 181.747,118.619 181.468,120.962 180.417 C 123.358 179.342,123.566 179.141,124.292 177.196 C 125.007 175.278,125.230 175.056,127.233 174.260 C 129.205 173.477,129.499 173.192,130.499 171.094 C 131.362 169.283,131.920 168.643,133.099 168.111 C 135.079 167.217,136.400 166.030,136.400 165.144 C 136.400 164.070,138.603 161.773,140.027 161.361 C 140.949 161.095,141.570 160.473,142.381 159.000 C 143.273 157.379,143.929 156.772,145.841 155.800 C 147.727 154.841,148.364 154.258,149.019 152.896 C 150.046 150.756,150.756 150.046,152.896 149.019 C 154.230 148.378,154.817 147.751,155.600 146.129 C 156.594 144.070,157.560 143.106,159.739 142.001 C 160.409 141.661,161.126 140.801,161.483 139.910 C 162.153 138.236,164.076 136.400,165.161 136.400 C 166.035 136.400,167.223 135.065,168.122 133.076 C 168.672 131.857,169.254 131.355,171.027 130.571 C 173.222 129.601,174.763 127.556,174.791 125.579 C 174.807 124.449,178.263 123.545,181.440 123.840 C 184.248 124.101,186.280 123.565,187.020 122.368 C 187.294 121.924,184.942 119.200,184.283 119.200 C 183.521 119.200,181.512 117.445,180.575 115.960 C 180.035 115.105,178.830 113.934,177.897 113.357 C 175.944 112.150,174.822 110.899,174.809 109.914 C 174.798 109.093,173.046 107.227,171.338 106.218 C 170.662 105.819,169.798 104.931,169.419 104.246 C 169.039 103.561,167.393 101.740,165.760 100.200 C 162.923 97.525,162.749 97.255,161.859 94.159 L 160.927 90.918 161.736 89.159 C 162.253 88.034,164.502 85.442,167.972 81.973 C 170.958 78.988,173.968 75.928,174.661 75.173 C 179.873 69.501,200.113 49.959,201.518 49.242 C 204.843 47.545,211.299 49.433,212.868 52.561 C 213.939 54.696,215.068 55.908,216.829 56.811 C 217.614 57.214,218.941 58.377,219.776 59.396 C 220.611 60.415,221.970 61.676,222.796 62.198 C 223.770 62.812,224.784 64.031,225.678 65.659 C 226.529 67.210,227.696 68.637,228.727 69.386 C 229.645 70.054,230.907 71.320,231.531 72.200 C 232.612 73.725,233.195 74.137,235.699 75.141 C 236.327 75.393,237.405 76.530,238.212 77.791 C 238.989 79.006,239.774 80.000,239.956 80.000 C 240.608 80.000,243.130 82.694,243.919 84.233 C 244.810 85.971,245.891 87.047,248.025 88.322 C 250.839 90.002,250.697 93.538,247.738 95.477 C 247.204 95.827,246.129 97.075,245.349 98.251 C 244.569 99.426,243.213 100.956,242.336 101.651 C 241.459 102.346,240.044 103.858,239.192 105.011 C 238.218 106.329,236.990 107.424,235.886 107.958 C 234.700 108.532,233.716 109.447,232.859 110.770 C 232.129 111.896,230.681 113.332,229.457 114.145 C 227.553 115.408,227.188 115.892,226.033 118.680 C 225.323 120.396,224.525 122.246,224.261 122.790 C 223.754 123.835,223.646 123.899,218.600 126.160 C 215.775 127.427,215.212 127.864,213.790 129.897 C 212.905 131.164,211.351 132.740,210.338 133.400 C 206.620 135.821,206.699 141.042,210.492 143.452 C 211.312 143.973,212.334 145.087,212.763 145.927 C 213.192 146.768,214.283 148.073,215.188 148.828 C 217.424 150.691,218.822 152.088,219.934 153.566 C 221.672 155.878,224.991 155.388,227.353 152.469 L 228.107 151.538 229.169 152.702 C 229.940 153.546,230.997 154.056,233.016 154.560 C 234.547 154.942,236.471 155.428,237.292 155.641 C 238.276 155.896,239.219 156.569,240.061 157.616 C 240.763 158.490,242.091 159.646,243.012 160.186 C 244.845 161.260,245.638 162.265,246.338 164.402 C 246.702 165.514,247.201 165.988,248.751 166.700 C 250.829 167.653,251.723 168.697,252.511 171.089 C 252.907 172.290,253.266 172.640,254.400 172.930 C 260.457 174.480,262.022 175.285,263.087 177.399 C 263.797 178.809,265.582 180.800,266.137 180.800 C 266.879 180.800,269.148 182.806,269.418 183.700 C 269.742 184.776,271.739 186.595,273.311 187.246 C 274.720 187.830,275.887 190.013,277.002 194.150 L 277.850 197.299 279.781 198.032 C 282.117 198.919,283.438 200.096,284.076 201.859 C 284.440 202.867,285.063 203.430,286.695 204.229 C 288.420 205.073,289.069 205.689,290.032 207.396 C 290.801 208.757,291.653 209.690,292.416 210.007 C 293.931 210.634,295.787 212.741,296.363 214.489 C 296.722 215.574,297.206 216.013,298.785 216.680 C 300.850 217.552,302.216 219.188,302.672 221.334 C 302.805 221.958,303.113 222.523,303.357 222.590 C 313.395 225.328,313.653 225.637,313.894 235.200 C 314.076 242.463,313.765 243.358,310.523 244.902 C 308.824 245.711,308.543 246.046,307.692 248.277 C 306.863 250.452,306.535 250.857,305.006 251.597 C 302.830 252.650,302.245 253.342,302.552 254.495 C 302.987 256.129,303.401 256.375,306.475 256.832 C 311.014 257.508,311.869 258.423,311.961 262.701 C 312.075 268.042,313.348 271.855,315.790 274.171 C 317.837 276.114,318.316 277.436,318.465 281.557 L 318.600 285.288 317.261 286.406 C 316.124 287.355,315.429 287.563,312.661 287.787 C 309.490 288.043,304.400 289.890,304.400 290.785 C 304.400 291.680,297.920 293.200,294.102 293.200 C 289.546 293.200,287.531 293.962,285.581 296.423 C 284.203 298.163,283.759 298.327,276.498 299.758 C 271.106 300.822,269.487 301.426,267.571 303.091 C 265.834 304.601,264.946 305.062,261.558 306.214 C 260.050 306.727,258.163 307.645,257.364 308.254 L 255.912 309.362 257.590 310.881 C 259.204 312.342,259.378 312.400,262.134 312.401 C 268.528 312.404,274.800 314.287,274.800 316.203 C 274.800 317.471,278.080 318.715,283.778 319.606 C 290.294 320.626,290.820 320.795,292.519 322.420 C 295.017 324.809,300.263 325.960,306.347 325.453 C 310.471 325.109,315.355 325.821,316.643 326.955 C 319.354 329.342,318.715 339.853,315.741 341.802 C 314.284 342.756,312.981 346.047,312.414 350.200 C 311.144 359.510,311.048 359.669,305.784 361.195 C 303.036 361.992,299.977 361.387,297.163 359.492 C 294.474 357.681,291.753 356.808,287.725 356.465 C 283.337 356.092,281.103 355.281,278.550 353.134 C 276.332 351.270,274.197 350.521,269.200 349.855 C 263.943 349.155,260.672 347.938,258.705 345.951 C 256.844 344.072,254.129 343.200,250.136 343.200 C 246.900 343.200,242.129 341.893,241.323 340.785 C 240.356 339.457,236.336 338.087,232.088 337.637 C 227.008 337.098,225.792 336.605,223.924 334.325 C 222.239 332.269,219.602 331.491,212.600 330.984 C 208.758 330.706,207.985 330.343,204.890 327.362 C 200.743 323.367,189.820 323.808,186.293 328.113 C 184.775 329.966,183.425 330.414,176.400 331.401 C 173.017 331.876,170.452 332.807,168.576 334.239 C 166.179 336.069,164.893 336.506,158.792 337.569 C 152.568 338.653,151.448 339.008,149.866 340.393 C 148.307 341.759,143.337 343.056,138.200 343.440 C 133.999 343.753,132.479 344.408,130.155 346.907 C 128.207 349.001,125.501 349.852,119.501 350.260 C 115.332 350.543,114.216 350.985,111.483 353.435 C 109.369 355.330,107.159 355.996,100.286 356.810 C 96.513 357.257,94.646 357.933,92.342 359.689 C 91.541 360.300,90.650 360.800,90.364 360.800 C 87.853 360.800,85.447 364.248,85.200 368.200 C 85.005 371.313,84.971 371.403,83.930 371.524 C 81.798 371.770,79.586 370.854,78.987 369.477 C 78.543 368.457,78.428 368.372,78.416 369.056 C 78.364 371.876,87.518 373.224,94.283 371.393 C 97.790 370.443,99.204 372.776,97.802 377.195 C 97.417 378.405,103.047 378.353,106.906 377.110 C 109.644 376.228,109.672 376.227,110.134 377.010 C 110.849 378.222,111.084 381.522,110.562 383.040 L 110.094 384.400 113.116 384.400 C 115.358 384.400,116.765 384.153,118.569 383.443 C 122.387 381.941,122.499 381.929,123.723 382.905 C 124.919 383.860,125.488 387.777,124.738 389.900 L 124.420 390.800 129.592 390.800 L 134.765 390.800 134.882 393.700 L 135.000 396.600 139.500 396.713 C 142.667 396.793,144.000 396.691,144.000 396.370 C 144.000 396.120,143.721 396.022,143.379 396.153 C 143.038 396.284,142.856 396.233,142.975 396.041 C 143.094 395.848,142.921 395.466,142.591 395.192 C 142.134 394.813,142.099 394.563,142.444 394.147 C 142.700 393.839,142.729 393.600,142.510 393.600 C 141.951 393.600,141.966 391.321,142.527 390.888 C 145.807 388.360,148.362 389.378,148.151 393.127 C 147.981 396.144,147.872 396.325,146.122 396.507 C 145.285 396.594,147.954 396.696,152.054 396.733 L 159.508 396.800 160.188 395.762 C 163.112 391.299,169.807 392.765,170.307 397.977 L 170.502 400.000 200.200 400.000 L 229.898 400.000 230.093 397.977 C 230.593 392.765,237.288 391.299,240.212 395.762 L 240.892 396.800 248.346 396.733 C 252.446 396.696,255.115 396.594,254.278 396.507 C 252.528 396.325,252.419 396.144,252.249 393.127 C 252.038 389.378,254.593 388.360,257.873 390.888 C 258.434 391.321,258.449 393.600,257.890 393.600 C 257.671 393.600,257.700 393.839,257.956 394.147 C 258.301 394.563,258.266 394.813,257.809 395.192 C 257.479 395.466,257.306 395.848,257.425 396.041 C 257.544 396.233,257.362 396.284,257.021 396.153 C 256.679 396.022,256.400 396.120,256.400 396.370 C 256.400 396.691,257.733 396.793,260.900 396.713 L 265.400 396.600 265.518 393.700 L 265.635 390.800 270.918 390.794 C 274.242 390.790,275.987 390.653,275.626 390.424 C 274.299 389.585,274.909 384.362,276.482 383.089 L 277.869 381.966 280.635 383.050 C 282.657 383.843,284.330 384.177,286.862 384.295 L 290.325 384.455 289.847 383.067 C 289.318 381.526,289.545 378.231,290.266 377.010 C 290.728 376.227,290.756 376.228,293.494 377.110 C 297.140 378.284,303.047 378.407,302.608 377.300 C 300.853 372.878,302.284 370.436,306.056 371.417 C 312.930 373.204,322.057 371.850,321.975 369.056 L 321.949 368.200 321.596 369.077 C 321.060 370.408,319.448 371.260,317.325 371.334 L 315.412 371.400 315.272 369.063 C 315.103 366.239,315.415 364.800,316.198 364.800 C 317.111 364.800,318.003 363.095,318.270 360.840 C 318.474 359.117,318.738 358.601,319.883 357.690 C 322.755 355.403,323.549 354.476,323.969 352.915 C 324.631 350.458,325.738 349.333,328.201 348.617 C 329.403 348.268,330.562 347.761,330.779 347.491 C 332.804 344.963,333.780 344.004,334.525 343.805 C 337.820 342.927,338.258 342.680,339.017 341.264 C 339.448 340.459,340.459 339.448,341.264 339.017 C 342.680 338.258,342.927 337.820,343.805 334.525 C 344.004 333.780,344.963 332.804,347.491 330.779 C 347.761 330.562,348.262 329.421,348.605 328.242 C 349.350 325.680,350.014 325.015,352.849 323.992 C 354.032 323.565,355.360 322.753,355.800 322.188 C 358.559 318.645,358.929 318.366,361.274 318.048 C 363.624 317.731,364.800 317.101,364.800 316.159 C 364.800 315.414,366.283 315.105,369.063 315.272 L 371.400 315.412 371.334 317.325 C 371.260 319.448,370.408 321.060,369.077 321.596 L 368.200 321.949 369.056 321.975 C 371.872 322.058,373.224 312.883,371.393 306.117 C 370.443 302.610,372.776 301.196,377.195 302.598 C 378.405 302.983,378.353 297.353,377.110 293.494 C 376.228 290.756,376.227 290.728,377.010 290.266 C 378.231 289.545,381.526 289.318,383.067 289.847 L 384.455 290.325 384.295 286.862 C 384.177 284.330,383.843 282.657,383.050 280.635 L 381.966 277.869 383.089 276.482 C 384.362 274.909,389.585 274.299,390.424 275.626 C 390.653 275.987,390.790 274.242,390.794 270.918 L 390.800 265.635 393.700 265.518 L 396.600 265.400 396.713 260.900 C 396.793 257.733,396.691 256.400,396.370 256.400 C 396.120 256.400,396.022 256.679,396.153 257.021 C 396.284 257.362,396.233 257.544,396.041 257.425 C 395.848 257.306,395.466 257.479,395.192 257.809 C 394.813 258.266,394.563 258.301,394.147 257.956 C 393.839 257.700,393.600 257.671,393.600 257.890 C 393.600 258.449,391.321 258.434,390.888 257.873 C 388.360 254.593,389.378 252.038,393.127 252.249 C 396.144 252.419,396.325 252.528,396.507 254.278 C 396.594 255.115,396.696 252.446,396.733 248.346 L 396.800 240.892 395.762 240.212 C 391.299 237.288,392.765 230.593,397.977 230.093 L 400.000 229.898 400.000 200.200 L 400.000 170.502 397.977 170.307 C 392.765 169.807,391.299 163.112,395.762 160.188 L 396.800 159.508 396.733 152.054 C 396.696 147.954,396.594 145.285,396.507 146.122 C 396.325 147.872,396.144 147.981,393.127 148.151 C 389.378 148.362,388.360 145.807,390.888 142.527 C 391.321 141.966,393.600 141.951,393.600 142.510 C 393.600 142.729,393.839 142.700,394.147 142.444 C 394.563 142.099,394.813 142.134,395.192 142.591 C 395.466 142.921,395.848 143.094,396.041 142.975 C 396.233 142.856,396.284 143.038,396.153 143.379 C 396.022 143.721,396.120 144.000,396.370 144.000 C 396.691 144.000,396.793 142.667,396.713 139.500 L 396.600 135.000 393.700 134.882 L 390.800 134.765 390.800 129.592 L 390.800 124.420 389.900 124.738 C 387.777 125.488,383.860 124.919,382.905 123.723 C 381.929 122.499,381.941 122.387,383.443 118.569 C 384.153 116.765,384.400 115.358,384.400 113.116 L 384.400 110.094 383.040 110.562 C 381.522 111.084,378.222 110.849,377.010 110.134 C 376.227 109.672,376.228 109.644,377.110 106.906 C 378.353 103.047,378.405 97.417,377.195 97.802 C 372.776 99.204,370.443 97.790,371.393 94.283 C 373.224 87.517,371.872 78.342,369.056 78.425 L 368.200 78.451 369.077 78.804 C 370.408 79.340,371.260 80.952,371.334 83.075 L 371.400 84.988 369.063 85.128 C 366.283 85.295,364.800 84.986,364.800 84.241 C 364.800 83.299,363.624 82.669,361.274 82.352 C 358.929 82.035,358.513 81.719,355.800 78.202 C 355.360 77.632,354.224 76.900,353.275 76.576 C 350.451 75.611,349.288 74.507,348.599 72.138 C 348.260 70.970,347.761 69.838,347.491 69.621 C 344.963 67.596,344.004 66.620,343.805 65.875 C 342.927 62.580,342.680 62.142,341.264 61.383 C 340.459 60.952,339.448 59.941,339.017 59.136 C 338.258 57.720,337.820 57.473,334.525 56.595 C 333.780 56.396,332.804 55.437,330.779 52.909 C 330.562 52.639,329.421 52.138,328.242 51.795 C 325.680 51.050,325.015 50.386,323.992 47.551 C 323.565 46.368,322.753 45.040,322.188 44.600 C 318.645 41.841,318.366 41.471,318.048 39.126 C 317.731 36.776,317.101 35.600,316.159 35.600 C 315.414 35.600,315.105 34.117,315.272 31.337 L 315.412 29.000 317.325 29.066 C 319.448 29.140,321.060 29.992,321.596 31.323 L 321.949 32.200 321.975 31.344 C 322.058 28.528,312.883 27.176,306.117 29.007 C 302.610 29.957,301.196 27.624,302.598 23.205 C 302.983 21.995,297.353 22.047,293.494 23.290 C 290.756 24.172,290.728 24.173,290.266 23.390 C 289.545 22.169,289.318 18.874,289.847 17.333 L 290.325 15.945 286.862 16.105 C 284.330 16.223,282.657 16.557,280.635 17.350 L 277.869 18.434 276.482 17.311 C 274.909 16.038,274.299 10.815,275.626 9.976 C 275.987 9.747,274.242 9.610,270.918 9.606 L 265.635 9.600 265.518 6.700 L 265.400 3.800 260.900 3.687 C 257.733 3.607,256.400 3.709,256.400 4.030 C 256.400 4.280,256.679 4.378,257.021 4.247 C 257.362 4.116,257.544 4.167,257.425 4.359 C 257.306 4.552,257.479 4.934,257.809 5.208 C 258.266 5.587,258.301 5.837,257.956 6.253 C 257.660 6.610,257.647 6.800,257.920 6.800 C 258.388 6.800,258.328 9.005,257.846 9.489 C 255.209 12.136,252.113 10.937,252.264 7.326 C 252.391 4.299,252.522 4.075,254.278 3.893 C 255.115 3.806,252.446 3.704,248.346 3.667 L 240.892 3.600 240.212 4.638 C 237.215 9.212,230.532 7.612,230.084 2.213 L 229.901 0.000 200.200 0.000 L 170.499 0.000 170.316 2.213 M116.629 10.229 C 116.283 10.574,116.011 11.159,116.025 11.529 C 116.043 12.004,116.157 11.935,116.416 11.291 C 116.617 10.790,117.190 10.217,117.691 10.016 C 118.335 9.757,118.404 9.643,117.929 9.625 C 117.559 9.611,116.974 9.883,116.629 10.229 M282.709 10.016 C 283.210 10.217,283.783 10.790,283.984 11.291 C 284.243 11.935,284.357 12.004,284.375 11.529 C 284.407 10.664,283.336 9.593,282.471 9.625 C 281.996 9.643,282.065 9.757,282.709 10.016 M91.467 22.667 C 91.320 22.813,91.200 23.563,91.200 24.333 C 91.200 25.650,91.558 25.915,91.746 24.737 C 91.881 23.884,92.774 22.524,92.788 23.149 C 92.797 23.563,92.932 23.588,93.337 23.252 C 93.632 23.007,93.992 22.925,94.137 23.070 C 94.282 23.215,94.400 23.123,94.400 22.867 C 94.400 22.374,91.928 22.206,91.467 22.667 M306.000 22.843 C 306.000 23.112,306.118 23.215,306.263 23.070 C 306.408 22.925,306.768 23.007,307.063 23.252 C 307.466 23.587,307.600 23.567,307.600 23.173 C 307.600 22.853,307.819 22.947,308.160 23.413 C 308.468 23.834,308.658 24.498,308.583 24.889 C 308.508 25.280,308.626 25.600,308.847 25.600 C 309.068 25.600,309.192 24.925,309.124 24.100 C 308.998 22.580,306.000 21.373,306.000 22.843 M59.784 47.627 C 59.639 47.861,59.616 48.149,59.733 48.267 C 60.020 48.553,60.800 48.048,60.800 47.576 C 60.800 47.065,60.109 47.099,59.784 47.627 M339.675 47.625 C 339.771 47.914,340.086 48.229,340.375 48.325 C 340.675 48.425,340.825 48.275,340.725 47.975 C 340.629 47.686,340.314 47.371,340.025 47.275 C 339.725 47.175,339.575 47.325,339.675 47.625 M53.867 53.867 C 53.720 54.013,53.614 54.778,53.632 55.567 C 53.649 56.355,53.752 56.779,53.862 56.510 C 53.971 56.241,54.047 55.925,54.030 55.810 C 53.984 55.486,55.372 54.113,55.619 54.237 C 55.740 54.298,56.100 54.182,56.419 53.980 C 56.835 53.716,56.594 53.611,55.567 53.606 C 54.778 53.603,54.013 53.720,53.867 53.867 M343.890 53.846 C 344.160 53.964,344.475 54.047,344.590 54.030 C 344.914 53.984,346.287 55.372,346.163 55.619 C 346.102 55.740,346.226 56.100,346.438 56.419 C 346.710 56.830,346.790 56.533,346.711 55.400 C 346.602 53.835,346.565 53.798,345.000 53.716 C 344.120 53.670,343.620 53.728,343.890 53.846 M47.384 60.027 C 47.239 60.261,47.216 60.549,47.333 60.667 C 47.620 60.953,48.400 60.448,48.400 59.976 C 48.400 59.465,47.709 59.499,47.384 60.027 M352.075 60.025 C 352.171 60.314,352.486 60.629,352.775 60.725 C 353.075 60.825,353.225 60.675,353.125 60.375 C 353.029 60.086,352.714 59.771,352.425 59.675 C 352.125 59.575,351.975 59.725,352.075 60.025 M22.667 91.467 C 22.206 91.928,22.374 94.400,22.867 94.400 C 23.123 94.400,23.215 94.282,23.070 94.137 C 22.925 93.992,23.007 93.632,23.252 93.337 C 23.588 92.932,23.563 92.797,23.149 92.788 C 22.524 92.774,23.884 91.881,24.737 91.746 C 25.915 91.558,25.650 91.200,24.333 91.200 C 23.563 91.200,22.813 91.320,22.667 91.467 M374.867 91.400 C 375.010 91.543,375.368 91.699,375.663 91.746 C 376.516 91.881,377.876 92.774,377.251 92.788 C 376.837 92.797,376.812 92.932,377.148 93.337 C 377.393 93.632,377.475 93.992,377.330 94.137 C 377.185 94.282,377.288 94.400,377.557 94.400 C 379.103 94.400,377.805 91.400,376.203 91.270 C 375.325 91.199,374.724 91.257,374.867 91.400 M10.229 116.629 C 9.883 116.974,9.611 117.559,9.625 117.929 C 9.643 118.404,9.757 118.335,10.016 117.691 C 10.217 117.190,10.790 116.617,11.291 116.416 C 11.935 116.157,12.004 116.043,11.529 116.025 C 11.159 116.011,10.574 116.283,10.229 116.629 M389.109 116.416 C 389.610 116.617,390.183 117.190,390.384 117.691 C 390.643 118.335,390.757 118.404,390.775 117.929 C 390.807 117.064,389.736 115.993,388.871 116.025 C 388.396 116.043,388.465 116.157,389.109 116.416 M102.184 258.825 C 102.040 259.059,102.238 259.601,102.626 260.028 C 103.513 261.009,105.189 259.951,104.350 258.939 C 103.815 258.295,102.553 258.229,102.184 258.825 M9.625 282.471 C 9.593 283.336,10.664 284.407,11.529 284.375 C 12.004 284.357,11.935 284.243,11.291 283.984 C 10.790 283.783,10.217 283.210,10.016 282.709 C 9.757 282.065,9.643 281.996,9.625 282.471 M390.284 282.799 C 390.169 283.238,389.653 283.767,389.138 283.974 C 388.492 284.232,388.409 284.357,388.871 284.375 C 389.683 284.405,390.800 283.361,390.800 282.571 C 390.800 281.748,390.528 281.869,390.284 282.799 M22.476 307.500 C 22.595 308.942,25.600 310.238,25.600 308.847 C 25.600 308.626,25.280 308.508,24.889 308.583 C 24.498 308.658,23.834 308.468,23.413 308.160 C 22.947 307.819,22.853 307.600,23.173 307.600 C 23.567 307.600,23.587 307.466,23.252 307.063 C 23.007 306.768,22.925 306.408,23.070 306.263 C 23.215 306.118,23.112 306.000,22.843 306.000 C 22.520 306.000,22.394 306.514,22.476 307.500 M377.330 306.263 C 377.475 306.408,377.393 306.768,377.148 307.063 C 376.813 307.466,376.833 307.600,377.227 307.600 C 377.549 307.600,377.458 307.816,376.993 308.156 C 376.575 308.461,376.019 308.629,375.757 308.528 C 375.495 308.428,375.155 308.550,375.000 308.799 C 374.805 309.115,375.189 309.215,376.260 309.127 C 377.814 308.999,379.058 306.000,377.557 306.000 C 377.288 306.000,377.185 306.118,377.330 306.263 M47.275 340.025 C 47.371 340.314,47.686 340.629,47.975 340.725 C 48.275 340.825,48.425 340.675,48.325 340.375 C 48.229 340.086,47.914 339.771,47.625 339.675 C 47.325 339.575,47.175 339.725,47.275 340.025 M352.184 340.027 C 352.039 340.261,352.016 340.549,352.133 340.667 C 352.420 340.953,353.200 340.448,353.200 339.976 C 353.200 339.465,352.509 339.499,352.184 340.027 M53.716 345.000 C 53.798 346.565,53.835 346.602,55.400 346.711 C 56.533 346.790,56.830 346.710,56.419 346.438 C 56.100 346.226,55.740 346.102,55.619 346.163 C 55.372 346.287,53.984 344.914,54.030 344.590 C 54.047 344.475,53.964 344.160,53.846 343.890 C 53.728 343.620,53.670 344.120,53.716 345.000 M346.460 343.900 C 346.427 344.175,346.400 344.490,346.400 344.600 C 346.400 344.940,345.013 346.280,344.781 346.163 C 344.660 346.102,344.300 346.218,343.981 346.420 C 343.568 346.682,343.837 346.790,344.913 346.794 C 346.584 346.801,346.958 346.324,346.690 344.534 C 346.596 343.910,346.493 343.625,346.460 343.900 M77.787 352.130 C 77.449 353.931,78.025 354.832,79.087 354.162 C 80.094 353.527,80.085 353.111,79.035 351.800 L 78.075 350.600 77.787 352.130 M59.675 352.425 C 59.771 352.714,60.086 353.029,60.375 353.125 C 60.675 353.225,60.825 353.075,60.725 352.775 C 60.629 352.486,60.314 352.171,60.025 352.075 C 59.725 351.975,59.575 352.125,59.675 352.425 M339.784 352.427 C 339.639 352.661,339.616 352.949,339.733 353.067 C 340.020 353.353,340.800 352.848,340.800 352.376 C 340.800 351.865,340.109 351.899,339.784 352.427 M91.270 376.203 C 91.400 377.805,94.400 379.103,94.400 377.557 C 94.400 377.288,94.282 377.185,94.137 377.330 C 93.992 377.475,93.632 377.393,93.337 377.148 C 92.932 376.812,92.797 376.837,92.788 377.251 C 92.774 377.876,91.881 376.516,91.746 375.663 C 91.534 374.337,91.153 374.770,91.270 376.203 M308.676 375.100 C 308.498 375.375,308.437 375.737,308.541 375.904 C 308.644 376.072,308.475 376.556,308.165 376.981 C 307.823 377.447,307.600 377.545,307.600 377.227 C 307.600 376.833,307.466 376.813,307.063 377.148 C 306.768 377.393,306.408 377.475,306.263 377.330 C 306.118 377.185,306.000 377.277,306.000 377.533 C 306.000 378.216,308.777 378.125,309.042 377.434 C 309.381 376.551,309.060 374.507,308.676 375.100 M116.025 388.871 C 115.993 389.736,117.064 390.807,117.929 390.775 C 118.404 390.757,118.335 390.643,117.691 390.384 C 117.190 390.183,116.617 389.610,116.416 389.109 C 116.157 388.465,116.043 388.396,116.025 388.871 M283.884 389.199 C 283.769 389.638,283.253 390.167,282.738 390.374 C 282.092 390.632,282.009 390.757,282.471 390.775 C 283.283 390.805,284.400 389.761,284.400 388.971 C 284.400 388.148,284.128 388.269,283.884 389.199 " stroke="none" fill="#0c1314" fill-rule="evenodd"></path><path id="path3" d="M176.796 127.700 C 176.360 128.415,176.002 129.212,176.001 129.472 C 175.999 130.183,173.394 132.800,172.688 132.800 C 172.014 132.800,170.008 134.976,169.987 135.731 C 169.963 136.561,168.478 138.025,166.716 138.955 C 165.772 139.452,164.602 140.476,164.115 141.230 C 162.302 144.035,161.907 144.439,160.198 145.243 C 158.868 145.868,158.386 146.351,158.186 147.262 C 157.831 148.879,155.825 151.087,154.433 151.393 C 153.054 151.696,151.754 153.020,151.387 154.496 C 151.043 155.884,148.837 157.840,147.215 158.197 C 146.246 158.410,145.786 158.865,145.131 160.257 C 144.304 162.016,143.968 162.348,141.226 164.115 C 140.470 164.602,139.378 165.810,138.800 166.800 C 138.222 167.790,137.130 168.998,136.374 169.485 C 133.574 171.289,133.156 171.693,132.565 173.171 C 132.089 174.359,131.530 174.883,129.944 175.626 C 127.675 176.689,126.544 177.862,125.452 180.283 C 124.940 181.421,124.311 182.097,123.452 182.435 C 121.912 183.041,120.000 184.750,120.000 185.520 C 120.000 186.723,118.240 189.143,116.761 189.974 L 115.216 190.842 116.558 192.184 C 117.296 192.922,118.193 194.386,118.551 195.436 C 118.909 196.487,120.213 198.667,121.449 200.281 L 123.696 203.215 121.885 205.150 C 120.889 206.215,119.709 207.802,119.263 208.676 C 118.369 210.429,117.441 211.392,114.914 213.187 C 113.987 213.845,112.927 214.883,112.558 215.492 C 112.189 216.101,111.110 217.320,110.160 218.200 C 109.210 219.080,107.841 220.864,107.117 222.165 C 105.826 224.484,105.734 224.555,102.485 225.765 C 96.136 228.130,93.200 231.877,93.200 237.616 L 93.200 241.109 96.800 244.778 C 98.780 246.796,100.400 248.597,100.400 248.781 C 100.400 248.964,101.291 249.793,102.379 250.623 C 103.468 251.453,104.990 253.049,105.761 254.170 C 106.533 255.290,107.729 256.656,108.418 257.204 C 110.273 258.678,111.173 259.641,112.146 261.190 C 113.102 262.714,113.888 263.210,117.236 264.409 C 118.467 264.850,120.498 266.006,121.751 266.979 C 124.369 269.011,125.226 269.334,130.312 270.198 C 134.937 270.984,135.772 271.301,137.626 272.976 C 139.318 274.504,139.410 274.539,143.944 275.380 C 146.076 275.775,149.629 276.001,153.744 276.003 C 161.044 276.006,161.151 276.040,164.135 279.347 L 165.800 281.192 171.553 282.213 C 177.716 283.307,178.748 283.670,181.707 285.785 C 187.432 289.879,203.996 289.781,209.574 285.620 C 212.631 283.339,215.388 282.400,219.028 282.400 C 223.183 282.400,224.311 281.852,227.514 278.278 C 228.893 276.739,232.804 276.000,239.568 276.000 C 246.799 276.000,250.544 275.239,252.797 273.310 C 254.925 271.488,258.336 270.204,262.654 269.598 C 266.932 268.998,269.807 267.984,271.864 266.349 C 274.392 264.340,276.705 263.510,281.241 262.984 C 285.989 262.432,286.720 262.151,289.000 259.991 C 290.285 258.775,291.191 258.339,293.600 257.777 C 297.658 256.832,297.711 256.794,299.114 253.857 C 299.791 252.439,300.819 250.946,301.398 250.539 C 303.895 248.785,304.883 247.806,305.627 246.348 C 306.106 245.409,307.402 244.081,308.909 242.986 L 311.400 241.176 311.612 237.888 C 312.097 230.391,309.853 227.197,302.331 224.673 C 301.962 224.550,300.920 223.445,300.014 222.219 C 299.108 220.992,297.665 219.546,296.807 219.005 C 295.950 218.463,294.321 216.777,293.188 215.258 C 292.054 213.739,290.719 212.278,290.221 212.011 C 289.722 211.744,288.887 210.850,288.365 210.025 C 287.844 209.199,286.792 208.091,286.028 207.562 C 285.265 207.033,283.164 205.160,281.359 203.400 C 279.555 201.640,277.422 199.660,276.618 199.000 C 275.577 198.145,275.047 197.307,274.773 196.083 C 274.068 192.938,272.883 190.989,270.882 189.686 C 269.337 188.681,263.033 182.496,258.960 177.990 C 258.443 177.418,256.627 176.465,254.769 175.790 C 251.708 174.679,251.396 174.456,250.046 172.428 C 249.250 171.234,247.799 169.695,246.819 169.008 C 245.839 168.321,244.467 166.947,243.768 165.954 C 238.353 158.256,231.299 154.848,225.927 157.336 C 220.121 160.025,219.475 159.591,204.306 142.811 C 203.704 142.145,203.074 141.598,202.906 141.595 C 202.738 141.592,202.185 140.949,201.678 140.167 C 201.170 139.384,199.586 138.010,198.158 137.114 C 196.566 136.116,195.297 134.978,194.880 134.173 C 193.992 132.459,188.923 127.227,187.700 126.762 C 187.176 126.563,184.687 126.400,182.168 126.400 L 177.588 126.400 176.796 127.700 M179.031 158.115 C 179.597 158.411,180.458 159.362,180.943 160.226 C 181.427 161.091,182.738 162.428,183.855 163.199 C 184.971 163.970,186.399 165.353,187.027 166.274 C 187.655 167.194,188.960 168.447,189.927 169.059 C 190.895 169.670,192.366 171.167,193.198 172.385 C 194.490 174.279,195.056 174.732,197.101 175.512 C 198.416 176.013,200.356 177.038,201.411 177.788 L 203.330 179.152 205.165 177.212 C 206.451 175.852,207.517 175.134,208.729 174.812 C 209.900 174.502,210.932 173.826,211.929 172.718 C 212.738 171.818,214.003 170.523,214.741 169.841 C 215.479 169.158,217.053 167.691,218.239 166.580 C 219.482 165.415,221.210 164.267,222.318 163.868 C 223.375 163.488,225.185 162.350,226.341 161.339 L 228.442 159.501 230.901 159.780 C 233.703 160.097,234.800 160.562,234.800 161.434 C 234.800 163.293,237.191 165.600,239.118 165.600 C 240.188 165.600,241.085 166.743,241.417 168.531 C 241.752 170.338,242.830 171.464,244.554 171.810 C 246.724 172.245,247.200 172.442,247.200 172.905 C 247.200 173.855,249.280 176.297,250.829 177.168 C 253.065 178.425,272.333 197.787,273.704 200.156 C 274.501 201.532,275.252 202.249,276.401 202.732 C 277.715 203.283,278.038 203.644,278.250 204.800 C 278.816 207.884,280.460 209.200,283.746 209.200 C 284.607 209.200,284.800 209.385,284.800 210.213 C 284.800 212.509,286.399 214.812,288.400 215.399 C 289.999 215.868,291.124 217.165,291.413 218.874 C 291.717 220.675,293.375 221.996,295.335 221.999 L 296.471 222.000 296.334 226.300 C 296.163 231.636,295.652 232.860,293.396 233.339 C 290.937 233.861,290.620 234.149,290.337 236.120 C 289.986 238.556,288.931 239.960,287.400 240.027 C 284.655 240.147,284.260 240.466,283.759 242.963 C 283.502 244.246,283.046 245.454,282.746 245.647 C 282.057 246.089,279.608 246.795,278.752 246.798 C 278.159 246.800,277.857 247.851,277.519 251.098 C 277.417 252.069,276.083 252.828,274.055 253.068 L 272.000 253.311 272.000 254.830 C 272.000 257.768,271.561 258.263,268.460 258.817 C 265.771 259.298,265.644 259.373,264.965 260.878 C 263.925 263.184,262.288 264.402,256.288 267.335 C 252.508 269.183,250.413 270.470,249.326 271.612 C 247.322 273.719,246.450 273.909,236.400 274.426 C 227.286 274.895,227.236 274.912,225.136 278.305 C 223.983 280.168,223.150 280.492,218.096 281.045 C 212.578 281.649,209.858 282.504,207.909 284.248 C 203.181 288.477,188.980 288.541,183.207 284.359 C 180.710 282.550,179.098 281.961,174.521 281.182 C 167.203 279.937,165.797 279.313,164.407 276.696 C 163.175 274.378,161.125 273.755,153.800 273.474 C 146.613 273.199,145.465 272.921,143.384 270.959 C 140.741 268.466,138.576 267.769,131.769 267.219 C 127.206 266.850,126.535 266.552,125.252 264.323 C 124.163 262.430,122.779 261.770,118.591 261.148 C 115.400 260.673,115.476 260.725,113.474 257.600 C 112.960 256.797,111.743 255.773,110.621 255.200 C 109.041 254.393,108.559 253.892,108.119 252.600 C 107.454 250.645,106.543 249.694,104.310 248.621 C 102.943 247.965,102.392 247.364,101.564 245.626 C 100.670 243.750,100.231 243.311,98.364 242.419 L 96.200 241.385 95.917 238.192 C 95.581 234.415,95.933 233.454,98.049 232.375 C 99.609 231.579,101.200 229.853,101.200 228.956 C 101.200 228.294,102.920 227.394,104.851 227.044 C 106.913 226.672,108.400 225.173,108.400 223.468 C 108.400 221.912,108.786 221.502,110.887 220.825 C 112.607 220.271,114.219 218.537,114.592 216.837 C 114.903 215.421,115.229 215.149,117.709 214.233 C 119.709 213.493,120.457 212.544,120.990 210.069 C 121.220 209.002,121.606 208.596,122.939 208.021 C 125.619 206.864,126.222 205.815,127.206 200.600 C 127.642 198.292,127.791 198.077,131.100 195.000 C 135.209 191.180,140.474 185.923,145.400 180.724 C 148.670 177.273,149.293 176.806,152.200 175.622 C 155.155 174.420,155.523 174.138,157.000 171.945 C 157.880 170.639,159.162 169.237,159.848 168.829 C 160.534 168.422,161.434 167.601,161.848 167.005 C 163.347 164.844,165.364 162.736,166.488 162.155 C 167.119 161.828,167.982 160.985,168.407 160.281 C 170.183 157.331,175.476 156.252,179.031 158.115 " stroke="none" fill="#c23e0c" fill-rule="evenodd"></path><path id="path4" d="M159.600 1.791 C 159.600 3.830,160.095 4.305,163.618 5.644 C 166.694 6.813,169.174 5.058,169.191 1.700 L 169.200 0.000 164.400 0.000 L 159.600 0.000 159.600 1.791 M231.209 1.700 C 231.226 5.058,233.706 6.813,236.782 5.644 C 240.305 4.305,240.800 3.830,240.800 1.791 L 240.800 0.000 236.000 0.000 L 231.200 0.000 231.209 1.700 M118.400 10.070 C 118.400 10.277,118.212 10.331,117.982 10.189 C 117.403 9.831,116.318 10.810,116.569 11.464 C 116.682 11.759,116.621 12.000,116.434 12.000 C 116.246 12.000,116.092 12.873,116.092 13.940 L 116.092 15.879 119.121 16.537 C 123.464 17.479,124.089 17.038,123.929 13.140 C 123.846 11.123,123.642 10.238,123.207 10.007 C 122.359 9.559,118.400 9.610,118.400 10.070 M277.183 10.001 C 276.762 10.237,276.552 11.162,276.471 13.144 C 276.311 17.037,276.937 17.479,281.279 16.537 L 284.308 15.879 284.308 13.940 C 284.308 12.873,284.138 12.000,283.930 12.000 C 283.723 12.000,283.669 11.812,283.811 11.582 C 284.169 11.003,283.190 9.918,282.536 10.169 C 282.241 10.282,282.000 10.224,282.000 10.040 C 282.000 9.602,277.956 9.569,277.183 10.001 M106.463 16.398 C 104.752 16.803,104.417 17.160,103.978 19.051 C 103.259 22.151,103.304 22.219,106.413 22.775 C 109.968 23.410,110.400 23.128,110.400 20.170 C 110.400 16.313,109.692 15.635,106.463 16.398 M290.479 16.985 C 289.792 18.493,289.861 22.187,290.587 22.790 C 291.050 23.173,291.783 23.169,294.029 22.767 L 296.884 22.257 296.628 20.324 C 296.184 16.982,295.896 16.673,292.779 16.206 C 291.083 15.952,290.926 16.004,290.479 16.985 M83.200 29.389 C 84.107 29.974,84.118 30.011,83.320 29.796 C 82.301 29.521,80.226 30.480,79.632 31.500 C 79.408 31.885,79.219 32.009,79.212 31.776 C 79.195 31.189,80.045 30.184,81.000 29.662 C 81.440 29.421,81.585 29.219,81.322 29.212 C 80.218 29.184,78.748 31.020,78.521 32.710 C 78.245 34.768,78.298 34.731,75.560 34.841 C 72.581 34.962,72.568 34.982,72.440 39.683 L 72.400 41.166 69.300 41.283 L 66.200 41.400 66.082 44.300 C 65.974 46.976,65.897 47.203,65.082 47.233 C 60.852 47.391,60.128 48.107,59.880 52.381 C 59.734 54.897,65.136 55.993,66.681 53.762 C 68.046 51.791,68.761 51.244,70.278 51.009 C 73.420 50.524,74.493 49.646,75.424 46.800 C 76.173 44.511,76.515 44.032,78.286 42.800 C 80.251 41.433,80.303 41.344,80.525 38.995 C 80.821 35.866,81.104 35.201,82.143 35.195 C 84.573 35.179,84.800 34.902,84.800 31.953 C 84.800 29.843,84.667 29.200,84.233 29.200 C 83.921 29.200,83.336 29.098,82.933 28.972 C 82.502 28.839,82.613 29.011,83.200 29.389 M316.500 29.082 C 315.672 29.242,315.600 29.473,315.600 31.981 C 315.600 34.899,315.832 35.179,318.257 35.195 C 319.298 35.201,319.580 35.867,319.874 39.008 C 320.095 41.376,320.139 41.451,322.064 42.725 C 324.051 44.040,324.800 45.225,324.800 47.057 C 324.800 48.317,326.711 50.279,328.249 50.598 C 331.639 51.301,332.280 51.622,333.231 53.095 C 335.015 55.858,340.689 55.303,340.520 52.381 C 340.272 48.107,339.548 47.391,335.318 47.233 C 334.503 47.203,334.426 46.976,334.318 44.300 L 334.200 41.400 331.100 41.283 L 328.000 41.166 327.960 39.683 C 327.832 34.990,327.848 35.015,324.891 34.884 C 322.146 34.762,322.155 34.769,321.879 32.710 C 321.652 31.020,320.182 29.184,319.078 29.212 C 318.815 29.219,318.960 29.421,319.400 29.662 C 320.355 30.184,321.205 31.189,321.188 31.776 C 321.181 32.009,320.992 31.885,320.768 31.500 C 320.174 30.480,318.099 29.521,317.080 29.796 C 316.295 30.008,316.308 29.968,317.200 29.431 C 318.214 28.820,318.116 28.771,316.500 29.082 M50.400 60.069 C 48.566 60.397,47.640 61.179,47.550 62.476 C 47.523 62.874,47.455 63.380,47.400 63.600 C 47.345 63.820,47.278 64.442,47.250 64.982 C 47.202 65.919,47.065 65.970,44.300 66.082 L 41.400 66.200 41.283 69.300 L 41.166 72.400 39.683 72.440 C 34.982 72.568,34.962 72.581,34.841 75.560 C 34.731 78.298,34.768 78.245,32.710 78.521 C 31.020 78.748,29.184 80.218,29.212 81.322 C 29.219 81.585,29.421 81.440,29.662 81.000 C 30.184 80.045,31.189 79.195,31.776 79.212 C 32.009 79.219,31.885 79.408,31.500 79.632 C 30.480 80.226,29.521 82.301,29.796 83.320 C 30.011 84.118,29.974 84.107,29.389 83.200 C 29.011 82.613,28.839 82.502,28.972 82.933 C 29.098 83.336,29.200 83.921,29.200 84.233 C 29.200 84.667,29.843 84.800,31.953 84.800 C 34.902 84.800,35.179 84.573,35.195 82.143 C 35.201 81.104,35.866 80.821,38.995 80.525 C 41.344 80.303,41.433 80.251,42.800 78.286 C 44.032 76.515,44.511 76.173,46.800 75.424 C 49.646 74.493,50.524 73.420,51.009 70.278 C 51.244 68.761,51.791 68.046,53.762 66.681 C 54.656 66.062,54.799 65.674,54.794 63.881 C 54.783 60.088,54.018 59.423,50.400 60.069 M346.358 60.251 C 345.231 61.608,345.387 65.809,346.595 66.649 C 348.615 68.052,349.155 68.753,349.391 70.278 C 349.877 73.422,350.754 74.493,353.600 75.421 C 355.892 76.167,356.358 76.500,357.534 78.234 C 358.821 80.130,358.952 80.210,361.247 80.477 C 364.596 80.867,365.199 81.119,365.205 82.127 C 365.221 84.574,365.495 84.800,368.447 84.800 C 370.557 84.800,371.200 84.667,371.200 84.233 C 371.200 83.921,371.302 83.336,371.428 82.933 C 371.561 82.502,371.389 82.613,371.011 83.200 C 370.426 84.107,370.389 84.118,370.604 83.320 C 370.879 82.301,369.920 80.226,368.900 79.632 C 368.515 79.408,368.391 79.219,368.624 79.212 C 369.211 79.195,370.216 80.045,370.738 81.000 C 370.979 81.440,371.181 81.585,371.188 81.322 C 371.216 80.218,369.380 78.748,367.690 78.521 C 365.632 78.245,365.669 78.298,365.559 75.560 C 365.438 72.581,365.418 72.568,360.717 72.440 L 359.234 72.400 359.117 69.300 L 359.000 66.200 356.100 66.082 C 353.424 65.974,353.197 65.897,353.167 65.082 C 353.050 61.948,352.391 60.541,350.903 60.248 C 347.750 59.628,346.874 59.629,346.358 60.251 M18.863 103.998 C 17.152 104.403,16.817 104.760,16.378 106.651 C 15.662 109.740,16.329 110.400,20.170 110.400 C 23.128 110.400,23.410 109.968,22.775 106.413 C 22.220 103.312,22.095 103.234,18.863 103.998 M377.633 106.371 C 376.989 109.972,377.265 110.400,380.230 110.400 C 383.678 110.400,384.524 109.819,384.201 107.669 C 383.728 104.512,383.419 104.216,380.141 103.781 L 378.143 103.516 377.633 106.371 M12.000 116.470 C 12.000 116.677,11.812 116.731,11.582 116.589 C 11.003 116.231,9.918 117.210,10.169 117.864 C 10.282 118.159,10.221 118.400,10.034 118.400 C 9.601 118.400,9.579 122.397,10.007 123.207 C 10.238 123.642,11.123 123.846,13.140 123.929 C 17.038 124.089,17.479 123.464,16.537 119.121 L 15.879 116.092 13.940 116.092 C 12.873 116.092,12.000 116.262,12.000 116.470 M383.863 119.121 C 382.921 123.464,383.362 124.089,387.260 123.929 C 389.277 123.846,390.162 123.642,390.393 123.207 C 390.841 122.359,390.790 118.400,390.330 118.400 C 390.123 118.400,390.069 118.212,390.211 117.982 C 390.569 117.403,389.590 116.318,388.936 116.569 C 388.641 116.682,388.400 116.621,388.400 116.434 C 388.400 116.246,387.527 116.092,386.460 116.092 L 384.521 116.092 383.863 119.121 M0.000 164.400 L 0.000 169.200 1.700 169.191 C 5.058 169.174,6.813 166.694,5.644 163.618 C 4.305 160.095,3.830 159.600,1.791 159.600 L 0.000 159.600 0.000 164.400 M396.181 160.572 C 393.190 165.138,394.273 169.166,398.500 169.191 L 400.000 169.200 400.000 164.400 L 400.000 159.600 398.409 159.600 C 397.166 159.600,396.679 159.812,396.181 160.572 M0.000 236.000 L 0.000 240.800 1.791 240.800 C 3.830 240.800,4.305 240.305,5.644 236.782 C 6.813 233.706,5.058 231.226,1.700 231.209 L 0.000 231.200 0.000 236.000 M396.150 231.909 C 394.170 233.519,393.889 234.500,394.756 236.782 C 396.060 240.212,396.594 240.800,398.409 240.800 L 400.000 240.800 400.000 236.000 L 400.000 231.200 398.500 231.209 C 397.675 231.214,396.618 231.529,396.150 231.909 M10.007 277.193 C 9.559 278.041,9.610 282.000,10.070 282.000 C 10.277 282.000,10.331 282.188,10.189 282.418 C 9.831 282.997,10.810 284.082,11.464 283.831 C 11.759 283.718,12.000 283.779,12.000 283.966 C 12.000 284.154,12.873 284.308,13.940 284.308 L 15.879 284.308 16.537 281.279 C 17.479 276.936,17.038 276.311,13.140 276.471 C 11.123 276.554,10.238 276.758,10.007 277.193 M383.827 277.303 C 383.265 278.161,383.268 278.536,383.863 281.279 L 384.521 284.308 386.460 284.308 C 387.527 284.308,388.400 284.154,388.400 283.966 C 388.400 283.779,388.641 283.718,388.936 283.831 C 389.590 284.082,390.569 282.997,390.211 282.418 C 390.069 282.188,390.123 282.000,390.330 282.000 C 390.790 282.000,390.841 278.041,390.393 277.193 C 389.790 276.054,384.588 276.141,383.827 277.303 M16.866 290.503 C 16.021 290.910,15.958 291.126,16.206 292.776 C 16.673 295.896,16.981 296.184,20.324 296.628 L 22.257 296.884 22.767 294.029 C 23.418 290.387,23.149 289.990,20.051 290.027 C 18.813 290.042,17.380 290.256,16.866 290.503 M377.610 290.587 C 377.227 291.050,377.231 291.783,377.633 294.029 L 378.143 296.884 380.141 296.619 C 383.419 296.184,383.728 295.888,384.201 292.731 C 384.570 290.271,379.296 288.556,377.610 290.587 M29.200 316.167 C 29.200 316.479,29.098 317.064,28.972 317.467 C 28.839 317.898,29.011 317.787,29.389 317.200 C 29.974 316.293,30.011 316.282,29.796 317.080 C 29.521 318.099,30.480 320.174,31.500 320.768 C 31.885 320.992,32.009 321.181,31.776 321.188 C 31.189 321.205,30.184 320.355,29.662 319.400 C 29.421 318.960,29.219 318.815,29.212 319.078 C 29.184 320.182,31.020 321.652,32.710 321.879 C 34.769 322.155,34.762 322.146,34.884 324.891 C 35.015 327.848,34.990 327.832,39.683 327.960 L 41.166 328.000 41.283 331.100 L 41.400 334.200 44.300 334.318 C 46.976 334.426,47.203 334.503,47.233 335.318 C 47.391 339.548,48.107 340.272,52.381 340.520 C 55.303 340.689,55.858 335.015,53.095 333.231 C 51.622 332.280,51.301 331.639,50.598 328.249 C 50.279 326.711,48.317 324.800,47.057 324.800 C 45.225 324.800,44.040 324.051,42.725 322.064 C 41.451 320.139,41.376 320.095,39.008 319.874 C 35.867 319.580,35.201 319.298,35.195 318.257 C 35.179 315.827,34.902 315.600,31.953 315.600 C 29.843 315.600,29.200 315.733,29.200 316.167 M365.452 316.500 C 365.319 316.995,365.208 317.786,365.205 318.257 C 365.199 319.302,364.535 319.580,361.330 319.879 C 358.877 320.109,358.838 320.132,357.639 322.060 C 356.420 324.022,355.199 324.800,353.343 324.800 C 352.083 324.800,350.121 326.711,349.802 328.249 C 349.099 331.639,348.778 332.280,347.305 333.231 C 344.542 335.015,345.097 340.689,348.019 340.520 C 352.293 340.272,353.009 339.548,353.167 335.318 C 353.197 334.503,353.424 334.426,356.100 334.318 L 359.000 334.200 359.117 331.100 L 359.234 328.000 360.717 327.960 C 365.410 327.832,365.385 327.848,365.516 324.891 C 365.638 322.146,365.631 322.155,367.690 321.879 C 369.380 321.652,371.216 320.182,371.188 319.078 C 371.181 318.815,370.979 318.960,370.738 319.400 C 370.216 320.355,369.211 321.205,368.624 321.188 C 368.391 321.181,368.515 320.992,368.900 320.768 C 369.920 320.174,370.879 318.099,370.604 317.080 C 370.389 316.282,370.426 316.293,371.011 317.200 C 371.389 317.787,371.561 317.898,371.428 317.467 C 371.302 317.064,371.200 316.479,371.200 316.167 C 371.200 315.075,365.749 315.391,365.452 316.500 M60.400 346.285 C 59.602 346.844,59.580 347.504,60.248 350.903 C 60.541 352.391,61.948 353.050,65.082 353.167 C 65.897 353.197,65.974 353.424,66.082 356.100 L 66.200 359.000 69.300 359.117 L 72.400 359.234 72.440 360.717 C 72.568 365.418,72.581 365.438,75.560 365.559 C 78.298 365.669,78.245 365.632,78.521 367.690 C 78.748 369.382,80.222 371.221,81.322 371.184 C 81.585 371.175,81.324 370.909,80.742 370.593 C 80.161 370.277,79.486 369.448,79.242 368.750 C 78.632 366.998,78.715 366.336,79.361 367.800 C 80.161 369.613,81.439 370.563,83.018 370.518 C 83.777 370.497,84.298 370.641,84.176 370.840 C 84.053 371.038,84.119 371.200,84.322 371.200 C 84.525 371.200,84.722 369.850,84.761 368.200 C 84.825 365.425,84.769 365.200,84.015 365.200 C 83.567 365.200,83.065 365.176,82.900 365.146 C 82.169 365.015,81.634 363.548,81.522 361.364 L 81.400 359.000 79.400 357.939 C 77.016 356.674,76.000 355.718,76.000 354.738 C 76.000 351.879,74.054 349.897,70.761 349.403 C 68.590 349.078,68.518 349.032,67.062 347.080 C 65.816 345.409,62.257 344.984,60.400 346.285 M333.913 346.300 C 333.578 346.685,333.097 347.399,332.845 347.886 C 332.421 348.705,331.303 349.174,328.319 349.785 C 326.440 350.169,325.199 351.604,324.675 354.000 C 324.236 356.008,324.015 356.318,322.150 357.546 L 320.106 358.893 319.842 361.738 C 319.520 365.197,319.369 365.352,316.100 365.567 C 315.336 365.617,315.402 371.200,316.167 371.200 C 316.479 371.200,317.064 371.302,317.467 371.428 C 317.898 371.561,317.787 371.389,317.200 371.011 C 316.293 370.426,316.282 370.389,317.080 370.604 C 318.099 370.879,320.174 369.920,320.768 368.900 C 320.992 368.515,321.181 368.391,321.188 368.624 C 321.205 369.211,320.355 370.216,319.400 370.738 C 318.960 370.979,318.815 371.181,319.078 371.188 C 320.182 371.216,321.652 369.380,321.879 367.690 C 322.155 365.631,322.146 365.638,324.891 365.516 C 327.848 365.385,327.832 365.410,327.960 360.717 L 328.000 359.234 331.100 359.117 L 334.200 359.000 334.318 356.100 C 334.426 353.424,334.503 353.197,335.318 353.167 C 339.548 353.009,340.272 352.293,340.520 348.019 C 340.651 345.765,335.540 344.436,333.913 346.300 M82.149 369.600 C 82.313 369.600,82.319 369.392,82.162 369.138 C 81.984 368.850,82.052 368.785,82.345 368.966 C 82.602 369.125,82.698 369.442,82.556 369.670 C 82.391 369.938,82.639 369.992,83.250 369.824 C 84.048 369.604,84.089 369.631,83.505 369.998 C 82.686 370.512,81.761 370.111,80.598 368.737 L 79.806 367.800 80.829 368.700 C 81.391 369.195,81.986 369.600,82.149 369.600 M105.657 377.716 L 103.514 378.127 103.780 380.133 C 104.216 383.419,104.510 383.728,107.669 384.201 C 109.814 384.523,110.400 383.678,110.400 380.261 C 110.400 377.115,109.977 376.888,105.657 377.716 M290.480 377.680 C 289.860 378.300,289.859 382.054,290.479 383.415 C 290.926 384.396,291.083 384.448,292.779 384.194 C 295.895 383.727,296.184 383.417,296.627 380.082 L 296.883 378.154 294.295 377.677 C 291.109 377.090,291.070 377.090,290.480 377.680 M118.746 383.901 L 116.092 384.501 116.092 386.451 C 116.092 387.523,116.262 388.400,116.470 388.400 C 116.677 388.400,116.731 388.588,116.589 388.818 C 116.231 389.397,117.210 390.482,117.864 390.231 C 118.159 390.118,118.400 390.179,118.400 390.366 C 118.400 390.799,122.397 390.821,123.207 390.393 C 124.318 389.805,124.260 384.627,123.133 383.838 C 122.092 383.109,122.262 383.107,118.746 383.901 M277.278 383.823 C 276.141 384.628,276.074 389.801,277.193 390.393 C 278.003 390.821,282.000 390.799,282.000 390.366 C 282.000 390.179,282.241 390.118,282.536 390.231 C 283.190 390.482,284.169 389.397,283.811 388.818 C 283.669 388.588,283.723 388.400,283.930 388.400 C 284.138 388.400,284.308 387.519,284.308 386.443 L 284.308 384.486 282.054 384.037 C 280.814 383.790,279.440 383.494,279.000 383.379 C 278.560 383.264,277.785 383.464,277.278 383.823 M163.090 394.969 C 159.983 396.247,159.600 396.628,159.600 398.449 L 159.600 400.000 164.400 400.000 L 169.200 400.000 169.187 398.500 C 169.158 394.991,166.616 393.519,163.090 394.969 M233.494 394.738 C 231.839 395.824,231.227 396.835,231.213 398.500 L 231.200 400.000 236.023 400.000 L 240.846 400.000 240.723 398.300 C 240.605 396.673,240.505 396.554,238.400 395.530 C 235.262 394.005,234.738 393.920,233.494 394.738 " stroke="none" fill="#747474" fill-rule="evenodd"></path></g></svg>