<svg id="svg" version="1.1" xmlns="http://www.w3.org/2000/svg" xmlns:xlink="http://www.w3.org/1999/xlink" width="32" height="32" viewBox="0, 0, 400,400"><g id="svgg"><path id="path0" d="M185.667 7.098 C 178.720 7.418,170.849 8.192,166.417 8.993 C 165.958 9.075,164.946 9.231,164.167 9.337 C 161.048 9.766,159.417 10.059,155.667 10.867 C 153.512 11.331,151.225 11.808,150.583 11.926 C 149.348 12.154,146.663 12.844,143.808 13.667 C 142.860 13.941,141.971 14.164,141.833 14.164 C 141.531 14.163,134.676 16.284,132.000 17.207 C 127.705 18.687,124.988 19.656,124.467 19.893 C 123.314 20.418,121.459 21.167,121.310 21.167 C 121.225 21.167,120.277 21.550,119.203 22.020 C 118.129 22.489,116.500 23.192,115.583 23.584 C 111.189 25.459,101.486 30.329,98.395 32.211 C 97.833 32.553,97.330 32.833,97.278 32.833 C 97.226 32.833,96.186 33.432,94.967 34.164 C 89.425 37.491,85.748 39.882,81.035 43.222 C 80.367 43.696,79.579 44.248,79.285 44.449 C 78.159 45.218,73.062 49.161,69.523 52.000 C 67.656 53.499,63.439 57.214,60.445 60.000 C 58.679 61.643,51.938 68.428,50.320 70.192 C 47.042 73.763,44.862 76.215,44.521 76.714 C 44.382 76.917,43.833 77.570,43.301 78.164 C 42.769 78.759,42.333 79.340,42.333 79.456 C 42.333 79.572,42.263 79.667,42.177 79.667 C 42.039 79.667,38.317 84.261,37.676 85.222 C 37.543 85.421,37.051 86.071,36.583 86.667 C 36.114 87.263,35.592 87.975,35.423 88.250 C 35.254 88.525,34.614 89.425,34.002 90.250 C 32.896 91.741,28.167 98.773,28.167 98.927 C 28.167 98.971,27.785 99.584,27.319 100.288 C 26.853 100.992,26.288 101.909,26.065 102.326 C 25.842 102.742,25.361 103.554,24.996 104.129 C 24.631 104.704,24.123 105.566,23.867 106.045 C 23.610 106.525,23.089 107.442,22.709 108.083 C 20.867 111.194,15.534 121.895,14.528 124.500 C 14.334 125.004,13.826 126.279,13.401 127.333 C 12.272 130.129,10.097 136.349,8.915 140.167 C 8.588 141.221,8.168 142.557,7.980 143.137 C 7.792 143.716,7.424 145.028,7.161 146.053 C 6.898 147.078,6.278 149.492,5.783 151.417 C 5.288 153.342,4.764 155.517,4.617 156.250 C 4.471 156.983,4.086 158.783,3.762 160.250 C 3.240 162.614,2.865 164.732,2.331 168.333 C 2.243 168.929,2.022 170.354,1.841 171.500 C 0.327 181.076,0.083 185.098,0.083 200.500 C 0.083 215.256,0.287 218.273,2.089 230.167 C 2.891 235.467,3.181 237.108,3.854 240.167 C 4.227 241.862,4.712 244.131,4.933 245.207 C 5.153 246.283,5.680 248.421,6.104 249.957 C 6.527 251.493,6.981 253.200,7.112 253.750 C 7.427 255.076,9.549 261.979,10.288 264.083 C 10.610 265.000,11.269 266.875,11.752 268.250 C 12.607 270.680,13.741 273.609,14.949 276.500 C 15.275 277.279,15.834 278.629,16.192 279.500 C 17.794 283.397,22.261 292.447,25.159 297.667 C 26.973 300.933,30.722 307.136,32.161 309.250 C 32.535 309.800,33.239 310.850,33.724 311.583 C 34.524 312.792,35.839 314.703,37.295 316.773 C 38.424 318.377,41.079 321.942,41.624 322.583 C 42.252 323.324,43.217 324.542,44.041 325.637 C 44.339 326.033,44.883 326.710,45.250 327.142 C 45.617 327.574,46.254 328.332,46.667 328.827 C 47.738 330.111,50.836 333.670,51.332 334.185 C 51.562 334.424,52.387 335.322,53.167 336.180 C 54.998 338.198,62.002 345.194,63.916 346.917 C 64.730 347.650,65.589 348.435,65.824 348.662 C 66.058 348.889,66.775 349.521,67.417 350.067 C 68.058 350.613,68.711 351.190,68.868 351.349 C 69.406 351.895,73.212 355.084,73.897 355.563 C 74.275 355.827,74.890 356.323,75.264 356.666 C 75.639 357.009,76.164 357.428,76.431 357.597 C 76.698 357.766,77.274 358.220,77.710 358.605 C 78.147 358.990,78.822 359.518,79.210 359.779 C 79.599 360.041,80.507 360.703,81.229 361.252 C 81.951 361.801,82.663 362.325,82.812 362.417 C 82.961 362.508,83.760 363.071,84.586 363.667 C 85.413 364.262,86.211 364.825,86.361 364.917 C 86.510 365.008,88.084 366.043,89.858 367.217 C 93.032 369.316,97.264 372.000,97.401 372.000 C 97.439 372.000,98.336 372.525,99.393 373.167 C 100.451 373.808,101.363 374.333,101.421 374.333 C 101.478 374.333,102.063 374.649,102.721 375.035 C 106.013 376.966,119.557 383.667,120.169 383.667 C 120.264 383.667,121.147 384.030,122.130 384.473 C 123.112 384.917,124.367 385.449,124.917 385.656 C 125.467 385.863,127.004 386.468,128.333 387.000 C 129.662 387.533,131.141 388.083,131.618 388.223 C 132.095 388.363,133.520 388.853,134.785 389.313 C 137.367 390.251,145.175 392.675,146.833 393.054 C 147.429 393.190,149.154 393.641,150.667 394.055 C 152.179 394.469,154.054 394.935,154.833 395.090 C 155.612 395.244,157.375 395.622,158.750 395.929 C 161.741 396.596,166.819 397.521,169.583 397.903 C 184.110 399.908,183.733 399.882,199.000 399.931 C 212.066 399.973,213.037 399.944,219.167 399.325 C 222.252 399.014,223.910 398.802,230.167 397.922 C 233.666 397.430,236.213 396.977,239.750 396.220 C 241.675 395.808,243.813 395.368,244.500 395.242 C 245.792 395.005,247.576 394.564,251.167 393.592 C 252.313 393.282,253.737 392.903,254.333 392.751 C 257.727 391.884,268.578 388.261,272.417 386.713 C 273.333 386.343,274.533 385.869,275.083 385.660 C 275.633 385.450,276.896 384.916,277.890 384.473 C 278.884 384.029,279.767 383.667,279.852 383.667 C 280.429 383.667,291.252 378.110,292.833 377.002 C 293.063 376.842,293.410 376.661,293.606 376.600 C 293.802 376.539,294.702 376.021,295.606 375.448 C 296.510 374.875,297.494 374.306,297.792 374.183 C 298.090 374.060,298.333 373.894,298.333 373.813 C 298.333 373.733,298.401 373.667,298.483 373.667 C 298.640 373.667,301.764 371.741,303.312 370.691 C 303.804 370.357,304.613 369.821,305.109 369.500 C 306.572 368.553,309.334 366.656,310.500 365.798 C 313.728 363.421,317.260 360.771,317.333 360.673 C 317.379 360.611,317.829 360.256,318.333 359.883 C 318.837 359.511,319.438 359.039,319.667 358.833 C 319.896 358.628,320.608 358.041,321.250 357.530 C 321.892 357.019,322.454 356.552,322.500 356.491 C 322.546 356.430,323.071 355.982,323.667 355.495 C 324.262 355.008,325.127 354.266,325.588 353.846 C 326.049 353.427,327.019 352.558,327.744 351.917 C 330.810 349.201,337.594 342.553,340.257 339.655 C 340.895 338.960,341.869 337.910,342.422 337.321 C 342.974 336.732,343.553 336.069,343.707 335.847 C 343.861 335.625,344.278 335.137,344.634 334.763 C 344.989 334.389,345.641 333.633,346.083 333.083 C 346.525 332.533,347.193 331.737,347.568 331.314 C 349.046 329.646,351.663 326.345,353.478 323.859 C 353.902 323.277,354.463 322.564,354.723 322.275 C 354.983 321.986,355.298 321.554,355.423 321.315 C 355.549 321.076,356.123 320.240,356.701 319.459 C 358.950 316.414,364.080 308.634,364.846 307.107 C 364.990 306.819,365.609 305.778,366.221 304.793 C 366.833 303.809,367.333 302.953,367.333 302.891 C 367.333 302.830,367.737 302.097,368.230 301.264 C 370.244 297.864,375.164 288.000,376.803 284.078 C 377.070 283.439,377.668 282.017,378.132 280.917 C 378.596 279.817,379.210 278.317,379.496 277.583 C 379.783 276.850,380.086 276.100,380.170 275.917 C 380.537 275.117,381.333 272.973,381.333 272.786 C 381.333 272.673,381.749 271.498,382.258 270.176 C 382.766 268.854,383.321 267.280,383.490 266.678 C 383.659 266.076,384.258 264.121,384.822 262.333 C 385.385 260.546,385.946 258.633,386.068 258.083 C 386.190 257.533,386.704 255.546,387.210 253.667 C 387.716 251.787,388.283 249.463,388.469 248.500 C 388.655 247.537,388.998 245.925,389.231 244.917 C 389.740 242.710,390.415 239.080,390.655 237.250 C 390.751 236.517,390.902 235.467,390.990 234.917 C 392.763 223.829,393.083 219.171,393.083 204.500 C 393.083 192.543,392.955 189.709,392.072 182.167 C 391.703 179.007,391.518 177.691,390.841 173.417 C 390.754 172.867,390.593 171.779,390.483 171.000 C 390.303 169.718,389.930 167.857,388.343 160.333 C 388.063 159.004,387.417 156.379,386.908 154.500 C 386.398 152.621,385.866 150.633,385.723 150.083 C 384.900 146.899,381.254 136.162,379.837 132.750 C 379.456 131.833,379.030 130.746,378.889 130.333 C 378.612 129.520,378.532 129.329,377.529 127.083 C 377.160 126.258,376.677 125.133,376.455 124.583 C 374.706 120.250,367.688 106.654,365.641 103.632 C 365.287 103.109,364.918 102.472,364.820 102.216 C 364.723 101.961,364.474 101.526,364.267 101.251 C 364.060 100.975,363.412 99.962,362.826 99.000 C 362.240 98.037,361.496 96.882,361.172 96.433 C 360.848 95.984,360.283 95.142,359.917 94.563 C 359.012 93.134,356.554 89.579,356.282 89.305 C 356.161 89.183,355.795 88.671,355.468 88.167 C 355.141 87.662,354.732 87.100,354.559 86.917 C 354.386 86.733,353.837 86.021,353.340 85.333 C 352.504 84.178,349.226 80.023,349.000 79.833 C 348.945 79.787,348.720 79.487,348.498 79.167 C 348.277 78.846,347.713 78.171,347.246 77.667 C 346.778 77.162,346.250 76.553,346.073 76.312 C 344.186 73.751,333.874 63.007,329.500 59.045 C 326.684 56.495,326.104 55.981,324.833 54.917 C 324.068 54.275,323.061 53.406,322.596 52.987 C 322.130 52.567,321.594 52.117,321.403 51.987 C 321.212 51.856,320.724 51.472,320.319 51.133 C 319.450 50.404,318.465 49.610,317.571 48.917 C 317.216 48.642,316.547 48.117,316.084 47.750 C 315.621 47.383,314.869 46.823,314.412 46.505 C 313.956 46.187,313.433 45.786,313.250 45.614 C 313.067 45.441,312.504 45.035,312.000 44.711 C 311.496 44.387,311.046 44.066,311.000 43.997 C 310.915 43.869,307.094 41.210,305.583 40.227 C 305.125 39.929,304.451 39.475,304.086 39.218 C 303.720 38.960,302.520 38.199,301.419 37.526 C 300.318 36.853,299.304 36.205,299.167 36.087 C 299.029 35.968,298.504 35.648,298.000 35.375 C 297.496 35.103,296.279 34.400,295.295 33.815 C 294.312 33.229,293.037 32.479,292.462 32.147 C 290.483 31.006,284.959 28.126,282.274 26.836 C 276.854 24.231,275.742 23.710,275.333 23.586 C 275.104 23.516,274.027 23.053,272.939 22.558 C 271.851 22.062,270.538 21.513,270.022 21.337 C 269.506 21.161,268.071 20.599,266.833 20.087 C 265.596 19.575,264.226 19.049,263.789 18.919 C 263.352 18.789,262.040 18.328,260.872 17.894 C 259.705 17.460,257.850 16.828,256.750 16.490 C 255.650 16.152,253.887 15.599,252.833 15.261 C 251.779 14.923,250.242 14.471,249.417 14.256 C 248.592 14.042,246.679 13.527,245.167 13.113 C 243.654 12.698,241.517 12.171,240.417 11.940 C 239.317 11.710,237.029 11.224,235.333 10.859 C 228.520 9.395,219.723 8.170,209.500 7.260 C 208.379 7.161,187.410 7.018,185.667 7.098 M211.745 90.003 C 211.743 90.597,211.638 92.133,211.513 93.417 C 210.022 108.760,214.841 127.726,225.660 149.083 C 229.269 156.207,229.531 156.900,229.831 160.118 C 230.543 167.753,225.923 174.936,216.943 180.155 C 211.891 183.091,209.582 183.636,212.117 181.295 C 216.812 176.959,218.583 173.453,218.583 168.500 C 218.583 164.230,217.989 162.964,213.986 158.704 C 212.756 157.395,210.862 155.370,209.778 154.204 C 200.343 144.060,195.694 131.504,197.438 120.871 C 197.780 118.787,197.812 118.796,195.845 120.415 C 183.571 130.520,174.981 142.141,172.008 152.658 C 168.651 164.536,172.162 176.300,180.958 182.654 C 183.561 184.534,182.110 184.747,178.702 182.985 C 168.938 177.937,163.157 169.562,161.401 157.917 C 158.162 136.441,174.821 112.180,207.154 91.287 C 211.506 88.475,211.752 88.406,211.745 90.003 M196.356 173.091 C 198.014 174.264,197.975 173.988,198.108 185.338 L 198.219 194.759 199.734 194.629 C 204.234 194.244,208.592 193.427,216.000 191.580 C 226.443 188.977,229.881 188.578,232.173 189.704 C 234.463 190.828,234.250 184.325,234.250 253.250 L 234.250 312.417 233.882 313.583 C 232.210 318.883,228.726 320.469,217.917 320.848 C 211.066 321.088,170.191 320.950,168.167 320.680 C 161.713 319.818,158.307 317.671,157.173 313.750 C 156.445 311.235,156.429 192.912,157.157 191.083 C 158.094 188.725,160.633 188.524,167.426 190.269 C 169.438 190.786,172.508 191.576,174.250 192.024 C 180.601 193.661,185.579 194.598,188.699 194.747 L 190.647 194.839 190.699 185.045 C 190.756 174.136,190.700 174.666,191.922 173.471 C 193.063 172.355,195.072 172.183,196.356 173.091 " stroke="none" fill="#042bab" fill-rule="evenodd"></path><path id="path1" d="M210.073 89.687 C 193.558 99.506,177.514 114.261,169.324 127.162 C 155.405 149.088,160.026 173.928,179.763 183.277 C 182.419 184.535,182.687 184.238,180.441 182.527 C 171.343 175.598,168.149 163.128,172.316 150.800 C 175.690 140.820,183.863 130.128,195.583 120.361 C 197.527 118.741,198.112 118.479,197.948 119.304 C 195.478 131.653,200.219 143.992,212.240 156.500 C 217.123 161.580,218.275 163.258,218.765 166.000 C 219.685 171.152,217.995 175.600,213.269 180.460 C 212.176 181.585,211.330 182.552,211.388 182.611 C 211.711 182.933,218.140 179.358,220.583 177.497 C 226.639 172.885,229.586 167.689,229.564 161.667 C 229.548 157.269,229.610 157.453,225.007 148.250 C 214.078 126.403,209.694 108.185,211.416 91.782 C 211.751 88.590,211.798 88.662,210.073 89.687 M193.353 172.851 C 192.481 173.114,192.025 173.481,191.535 174.315 L 191.083 175.083 191.000 185.000 L 190.917 194.917 188.750 194.899 C 185.406 194.872,180.090 193.844,171.515 191.566 C 163.717 189.494,163.694 189.489,161.736 189.386 C 157.689 189.174,157.203 189.807,156.988 195.579 C 156.545 207.439,156.861 311.869,157.344 313.583 C 158.413 317.372,161.498 319.430,167.630 320.444 C 169.649 320.778,209.223 320.971,218.000 320.689 C 228.586 320.350,232.288 318.581,233.789 313.148 C 234.159 311.811,234.248 196.279,233.882 193.019 C 233.346 188.243,230.113 188.147,213.560 192.419 C 208.829 193.640,198.919 195.260,198.101 194.947 C 197.889 194.865,197.846 193.510,197.792 185.134 C 197.748 178.307,197.672 175.247,197.535 174.846 C 197.005 173.294,195.020 172.348,193.353 172.851 " stroke="none" fill="#fbfbfb" fill-rule="evenodd"></path><path id="path2" d="M211.233 97.833 C 211.233 99.162,211.259 99.706,211.290 99.042 C 211.322 98.377,211.322 97.290,211.290 96.625 C 211.259 95.960,211.233 96.504,211.233 97.833 M185.240 108.208 L 184.750 108.750 185.292 108.260 C 185.797 107.804,185.910 107.667,185.781 107.667 C 185.752 107.667,185.509 107.910,185.240 108.208 M178.573 114.875 L 178.083 115.417 178.625 114.927 C 179.130 114.471,179.243 114.333,179.115 114.333 C 179.086 114.333,178.842 114.577,178.573 114.875 M189.491 125.958 L 188.917 126.583 189.542 126.009 C 190.123 125.474,190.243 125.333,190.116 125.333 C 190.088 125.333,189.807 125.615,189.491 125.958 M186.740 128.708 L 186.250 129.250 186.792 128.760 C 187.297 128.304,187.410 128.167,187.281 128.167 C 187.252 128.167,187.009 128.410,186.740 128.708 M161.052 152.583 C 161.053 153.133,161.084 153.338,161.121 153.039 C 161.158 152.739,161.157 152.289,161.119 152.039 C 161.081 151.788,161.051 152.033,161.052 152.583 M209.167 153.552 C 209.167 153.581,209.410 153.825,209.708 154.094 L 210.250 154.583 209.760 154.042 C 209.304 153.537,209.167 153.423,209.167 153.552 M213.250 157.833 C 213.701 158.292,214.108 158.667,214.154 158.667 C 214.200 158.667,213.868 158.292,213.417 157.833 C 212.965 157.375,212.558 157.000,212.513 157.000 C 212.467 157.000,212.799 157.375,213.250 157.833 M170.553 161.500 C 170.553 162.096,170.584 162.340,170.621 162.042 C 170.658 161.744,170.658 161.256,170.621 160.958 C 170.584 160.660,170.553 160.904,170.553 161.500 M223.577 175.042 L 222.750 175.917 223.625 175.090 C 224.438 174.321,224.576 174.167,224.452 174.167 C 224.426 174.167,224.032 174.560,223.577 175.042 M170.667 177.250 C 171.165 177.754,171.609 178.167,171.655 178.167 C 171.701 178.167,171.331 177.754,170.833 177.250 C 170.335 176.746,169.891 176.333,169.845 176.333 C 169.799 176.333,170.169 176.746,170.667 177.250 M197.898 178.750 C 197.898 179.942,197.925 180.407,197.957 179.785 C 197.989 179.162,197.989 178.187,197.957 177.618 C 197.924 177.049,197.898 177.558,197.898 178.750 M211.824 181.625 L 211.250 182.250 211.875 181.676 C 212.219 181.360,212.500 181.078,212.500 181.051 C 212.500 180.923,212.359 181.043,211.824 181.625 M232.667 190.052 C 232.667 190.081,232.910 190.325,233.208 190.594 L 233.750 191.083 233.260 190.542 C 232.804 190.037,232.667 189.923,232.667 190.052 M234.249 252.667 C 234.249 278.563,234.268 289.156,234.292 276.208 C 234.315 263.260,234.315 242.073,234.292 229.125 C 234.268 216.177,234.249 226.771,234.249 252.667 M179.050 320.958 C 179.856 320.988,181.131 320.988,181.883 320.957 C 182.635 320.926,181.975 320.901,180.417 320.902 C 178.858 320.902,178.243 320.927,179.050 320.958 M207.875 320.957 C 208.677 320.988,209.990 320.988,210.792 320.957 C 211.594 320.927,210.938 320.902,209.333 320.902 C 207.729 320.902,207.073 320.927,207.875 320.957 " stroke="none" fill="#5472c7" fill-rule="evenodd"></path><path id="path3" d="M211.375 93.750 C 211.377 94.117,211.411 94.247,211.451 94.040 C 211.491 93.832,211.490 93.532,211.448 93.373 C 211.406 93.214,211.374 93.383,211.375 93.750 M211.383 102.333 C 211.383 102.837,211.415 103.044,211.453 102.792 C 211.491 102.540,211.491 102.127,211.453 101.875 C 211.415 101.623,211.383 101.829,211.383 102.333 M211.705 106.667 C 211.705 106.987,211.740 107.119,211.782 106.958 C 211.823 106.798,211.823 106.535,211.782 106.375 C 211.740 106.215,211.705 106.346,211.705 106.667 M186.324 107.125 L 185.750 107.750 186.375 107.176 C 186.957 106.641,187.077 106.500,186.949 106.500 C 186.922 106.500,186.640 106.781,186.324 107.125 M181.831 111.458 L 179.083 114.250 181.875 111.502 C 184.469 108.949,184.742 108.667,184.623 108.667 C 184.599 108.667,183.343 109.923,181.831 111.458 M192.906 122.875 L 192.417 123.417 192.958 122.927 C 193.463 122.471,193.577 122.333,193.448 122.333 C 193.419 122.333,193.175 122.577,192.906 122.875 M190.994 124.625 L 190.083 125.583 191.042 124.672 C 191.932 123.826,192.076 123.667,191.953 123.667 C 191.927 123.667,191.495 124.098,190.994 124.625 M197.058 125.333 C 197.058 126.112,197.087 126.431,197.122 126.042 C 197.157 125.652,197.157 125.015,197.122 124.625 C 197.087 124.235,197.058 124.554,197.058 125.333 M188.077 127.375 L 187.250 128.250 188.125 127.423 C 188.606 126.968,189.000 126.574,189.000 126.548 C 189.000 126.424,188.846 126.562,188.077 127.375 M185.667 129.917 C 185.262 130.329,184.968 130.667,185.014 130.667 C 185.060 130.667,185.428 130.329,185.833 129.917 C 186.238 129.504,186.532 129.167,186.486 129.167 C 186.440 129.167,186.072 129.504,185.667 129.917 M161.042 151.083 C 161.044 151.450,161.078 151.580,161.118 151.373 C 161.158 151.166,161.156 150.866,161.115 150.706 C 161.073 150.547,161.040 150.717,161.042 151.083 M161.042 154.083 C 161.044 154.450,161.078 154.580,161.118 154.373 C 161.158 154.166,161.156 153.866,161.115 153.706 C 161.073 153.547,161.040 153.717,161.042 154.083 M211.250 155.833 C 211.887 156.475,212.445 157.000,212.491 157.000 C 212.537 157.000,212.053 156.475,211.417 155.833 C 210.780 155.192,210.221 154.667,210.176 154.667 C 210.130 154.667,210.613 155.192,211.250 155.833 M214.493 159.208 C 215.184 159.944,215.333 160.077,215.333 159.951 C 215.333 159.925,214.977 159.568,214.542 159.160 L 213.750 158.417 214.493 159.208 M229.881 161.917 C 229.882 162.375,229.915 162.543,229.953 162.289 C 229.991 162.036,229.990 161.661,229.951 161.456 C 229.911 161.251,229.880 161.458,229.881 161.917 M218.728 168.583 C 218.728 169.500,218.756 169.854,218.790 169.369 C 218.824 168.885,218.823 168.135,218.789 167.703 C 218.755 167.270,218.727 167.667,218.728 168.583 M197.872 176.167 C 197.872 176.487,197.906 176.619,197.948 176.458 C 197.990 176.298,197.990 176.035,197.948 175.875 C 197.906 175.715,197.872 175.846,197.872 176.167 M222.240 176.375 L 221.750 176.917 222.292 176.427 C 222.797 175.971,222.910 175.833,222.781 175.833 C 222.752 175.833,222.509 176.077,222.240 176.375 M190.745 185.583 C 190.745 190.717,190.766 192.841,190.792 190.304 C 190.817 187.766,190.817 183.566,190.792 180.970 C 190.766 178.374,190.745 180.450,190.745 185.583 M171.667 178.219 C 171.667 178.248,171.910 178.491,172.208 178.760 L 172.750 179.250 172.260 178.708 C 171.804 178.203,171.667 178.090,171.667 178.219 M214.073 179.375 L 213.583 179.917 214.125 179.427 C 214.630 178.971,214.743 178.833,214.615 178.833 C 214.586 178.833,214.342 179.077,214.073 179.375 M178.167 180.417 C 178.665 180.921,179.109 181.333,179.155 181.333 C 179.201 181.333,178.831 180.921,178.333 180.417 C 177.835 179.912,177.391 179.500,177.345 179.500 C 177.299 179.500,177.669 179.912,178.167 180.417 M198.076 187.917 C 198.076 191.767,198.098 193.318,198.125 191.364 C 198.152 189.410,198.151 186.260,198.125 184.364 C 198.098 182.468,198.076 184.067,198.076 187.917 M234.050 194.000 C 234.050 194.504,234.081 194.710,234.119 194.458 C 234.158 194.206,234.158 193.794,234.119 193.542 C 234.081 193.290,234.050 193.496,234.050 194.000 M198.542 194.782 C 198.702 194.823,198.965 194.823,199.125 194.782 C 199.285 194.740,199.154 194.705,198.833 194.705 C 198.512 194.705,198.381 194.740,198.542 194.782 M156.748 229.417 C 156.748 246.833,156.768 253.934,156.792 245.195 C 156.816 236.457,156.816 222.207,156.792 213.528 C 156.768 204.850,156.748 212.000,156.748 229.417 M234.236 202.583 C 234.236 204.325,234.261 205.015,234.291 204.116 C 234.321 203.218,234.321 201.793,234.291 200.950 C 234.261 200.107,234.236 200.842,234.236 202.583 M156.557 269.083 C 156.558 269.817,156.587 270.096,156.622 269.704 C 156.657 269.312,156.657 268.712,156.621 268.371 C 156.585 268.029,156.557 268.350,156.557 269.083 M156.746 292.250 C 156.746 299.950,156.767 303.076,156.792 299.196 C 156.817 295.316,156.817 289.016,156.792 285.196 C 156.767 281.376,156.746 284.550,156.746 292.250 M234.239 303.583 C 234.239 305.783,234.262 306.660,234.291 305.532 C 234.320 304.404,234.320 302.604,234.291 301.532 C 234.262 300.460,234.238 301.383,234.239 303.583 M234.039 312.333 C 234.039 312.654,234.073 312.785,234.115 312.625 C 234.157 312.465,234.157 312.202,234.115 312.042 C 234.073 311.881,234.039 312.012,234.039 312.333 M231.575 317.375 L 230.917 318.083 231.625 317.425 C 232.284 316.812,232.410 316.667,232.284 316.667 C 232.257 316.667,231.938 316.985,231.575 317.375 M169.375 320.782 C 169.535 320.823,169.798 320.823,169.958 320.782 C 170.119 320.740,169.987 320.705,169.667 320.705 C 169.346 320.705,169.215 320.740,169.375 320.782 M220.627 320.785 C 220.834 320.824,221.134 320.823,221.294 320.781 C 221.453 320.739,221.283 320.707,220.917 320.709 C 220.550 320.711,220.420 320.745,220.627 320.785 M175.125 320.956 C 175.606 320.990,176.394 320.990,176.875 320.956 C 177.356 320.923,176.963 320.895,176.000 320.895 C 175.037 320.895,174.644 320.923,175.125 320.956 M213.042 320.956 C 213.569 320.990,214.431 320.990,214.958 320.956 C 215.485 320.923,215.054 320.896,214.000 320.896 C 212.946 320.896,212.515 320.923,213.042 320.956 " stroke="none" fill="#2c52ba" fill-rule="evenodd"></path><path id="path4" d="M211.539 90.667 C 211.539 90.987,211.573 91.119,211.615 90.958 C 211.657 90.798,211.657 90.535,211.615 90.375 C 211.573 90.215,211.539 90.346,211.539 90.667 M211.220 94.500 C 211.220 95.096,211.250 95.340,211.287 95.042 C 211.324 94.744,211.324 94.256,211.287 93.958 C 211.250 93.660,211.220 93.904,211.220 94.500 M198.327 97.512 L 197.750 98.024 198.375 97.576 C 198.927 97.179,199.107 97.000,198.952 97.000 C 198.926 97.000,198.644 97.230,198.327 97.512 M211.225 101.500 C 211.225 102.279,211.254 102.598,211.289 102.208 C 211.324 101.819,211.324 101.181,211.289 100.792 C 211.254 100.402,211.225 100.721,211.225 101.500 M211.379 104.667 C 211.379 105.079,211.411 105.248,211.451 105.042 C 211.491 104.835,211.491 104.498,211.451 104.292 C 211.411 104.085,211.379 104.254,211.379 104.667 M189.073 104.875 L 188.583 105.417 189.125 104.927 C 189.630 104.471,189.743 104.333,189.615 104.333 C 189.586 104.333,189.342 104.577,189.073 104.875 M187.740 106.042 L 187.250 106.583 187.792 106.094 C 188.297 105.638,188.410 105.500,188.281 105.500 C 188.252 105.500,188.009 105.744,187.740 106.042 M211.542 106.583 C 211.544 106.950,211.578 107.080,211.618 106.873 C 211.658 106.666,211.656 106.366,211.615 106.206 C 211.573 106.047,211.540 106.217,211.542 106.583 M186.167 107.417 C 185.762 107.829,185.468 108.167,185.514 108.167 C 185.560 108.167,185.928 107.829,186.333 107.417 C 186.738 107.004,187.032 106.667,186.986 106.667 C 186.940 106.667,186.572 107.004,186.167 107.417 M181.915 111.542 L 179.083 114.417 181.958 111.585 C 184.629 108.955,184.909 108.667,184.790 108.667 C 184.766 108.667,183.472 109.960,181.915 111.542 M178.075 115.542 L 177.417 116.250 178.125 115.591 C 178.784 114.978,178.910 114.833,178.784 114.833 C 178.757 114.833,178.438 115.152,178.075 115.542 M176.740 117.042 L 176.250 117.583 176.792 117.094 C 177.297 116.638,177.410 116.500,177.281 116.500 C 177.252 116.500,177.009 116.744,176.740 117.042 M174.000 120.333 C 173.710 120.700,173.509 121.000,173.555 121.000 C 173.601 121.000,173.876 120.700,174.167 120.333 C 174.457 119.967,174.657 119.667,174.611 119.667 C 174.566 119.667,174.290 119.967,174.000 120.333 M193.075 122.542 L 192.417 123.250 193.125 122.591 C 193.784 121.978,193.910 121.833,193.784 121.833 C 193.757 121.833,193.438 122.152,193.075 122.542 M197.372 122.333 C 197.372 122.654,197.406 122.785,197.448 122.625 C 197.490 122.465,197.490 122.202,197.448 122.042 C 197.406 121.881,197.372 122.013,197.372 122.333 M172.333 122.500 C 172.138 122.775,172.015 123.000,172.061 123.000 C 172.106 123.000,172.304 122.775,172.500 122.500 C 172.696 122.225,172.819 122.000,172.773 122.000 C 172.727 122.000,172.529 122.225,172.333 122.500 M171.500 123.667 C 171.304 123.942,171.181 124.167,171.227 124.167 C 171.273 124.167,171.471 123.942,171.667 123.667 C 171.862 123.392,171.985 123.167,171.939 123.167 C 171.894 123.167,171.696 123.392,171.500 123.667 M197.231 125.417 C 197.232 126.608,197.258 127.074,197.290 126.451 C 197.323 125.829,197.322 124.854,197.290 124.285 C 197.257 123.716,197.231 124.225,197.231 125.417 M190.994 124.458 L 190.083 125.417 191.042 124.506 C 191.932 123.659,192.076 123.500,191.953 123.500 C 191.927 123.500,191.495 123.931,190.994 124.458 M188.080 127.208 L 186.250 129.083 188.125 127.253 C 189.867 125.553,190.076 125.333,189.955 125.333 C 189.931 125.333,189.087 126.177,188.080 127.208 M169.564 126.542 C 168.990 127.515,168.952 127.598,169.245 127.250 C 169.583 126.847,169.875 126.333,169.766 126.333 C 169.722 126.333,169.631 126.427,169.564 126.542 M197.372 128.500 C 197.372 128.821,197.406 128.952,197.448 128.792 C 197.490 128.631,197.490 128.369,197.448 128.208 C 197.406 128.048,197.372 128.179,197.372 128.500 M185.410 130.042 L 184.583 130.917 185.458 130.090 C 185.940 129.635,186.333 129.241,186.333 129.215 C 186.333 129.090,186.179 129.229,185.410 130.042 M167.583 129.833 C 167.441 130.108,167.362 130.333,167.408 130.333 C 167.454 130.333,167.608 130.108,167.750 129.833 C 167.892 129.558,167.971 129.333,167.925 129.333 C 167.879 129.333,167.726 129.558,167.583 129.833 M183.906 131.708 L 183.417 132.250 183.958 131.760 C 184.463 131.304,184.577 131.167,184.448 131.167 C 184.419 131.167,184.175 131.410,183.906 131.708 M166.158 132.517 C 165.876 133.076,165.672 133.561,165.706 133.595 C 165.740 133.628,166.006 133.171,166.299 132.578 C 166.591 131.985,166.795 131.500,166.751 131.500 C 166.707 131.500,166.440 131.958,166.158 132.517 M165.027 134.924 C 164.748 135.537,164.801 135.667,165.103 135.110 C 165.244 134.850,165.328 134.606,165.290 134.568 C 165.252 134.530,165.134 134.690,165.027 134.924 M221.845 141.917 C 221.845 142.008,221.952 142.271,222.083 142.500 C 222.214 142.729,222.322 142.842,222.322 142.750 C 222.322 142.658,222.214 142.396,222.083 142.167 C 221.952 141.938,221.845 141.825,221.845 141.917 M174.027 146.424 C 173.748 147.037,173.801 147.167,174.103 146.610 C 174.244 146.350,174.328 146.106,174.290 146.068 C 174.252 146.030,174.134 146.190,174.027 146.424 M225.083 148.500 C 225.316 148.958,225.543 149.333,225.589 149.333 C 225.635 149.333,225.482 148.958,225.250 148.500 C 225.018 148.042,224.790 147.667,224.744 147.667 C 224.699 147.667,224.851 148.042,225.083 148.500 M161.372 148.333 C 161.372 148.654,161.406 148.785,161.448 148.625 C 161.490 148.465,161.490 148.202,161.448 148.042 C 161.406 147.881,161.372 148.012,161.372 148.333 M161.220 150.667 C 161.220 151.262,161.250 151.506,161.287 151.208 C 161.324 150.910,161.324 150.423,161.287 150.125 C 161.250 149.827,161.220 150.071,161.220 150.667 M209.167 153.417 C 209.478 153.737,209.770 154.000,209.815 154.000 C 209.861 154.000,209.644 153.737,209.333 153.417 C 209.022 153.096,208.730 152.833,208.685 152.833 C 208.639 152.833,208.856 153.096,209.167 153.417 M161.220 154.500 C 161.220 155.096,161.250 155.340,161.287 155.042 C 161.324 154.744,161.324 154.256,161.287 153.958 C 161.250 153.660,161.220 153.904,161.220 154.500 M212.000 156.417 C 213.051 157.471,213.949 158.333,213.995 158.333 C 214.040 158.333,213.218 157.471,212.167 156.417 C 211.115 155.362,210.218 154.500,210.172 154.500 C 210.126 154.500,210.949 155.362,212.000 156.417 M229.539 159.167 C 229.539 159.487,229.573 159.619,229.615 159.458 C 229.657 159.298,229.657 159.035,229.615 158.875 C 229.573 158.715,229.539 158.846,229.539 159.167 M170.550 159.667 C 170.550 160.171,170.581 160.377,170.619 160.125 C 170.658 159.873,170.658 159.460,170.619 159.208 C 170.581 158.956,170.550 159.162,170.550 159.667 M215.167 159.750 C 215.478 160.071,215.770 160.333,215.815 160.333 C 215.861 160.333,215.644 160.071,215.333 159.750 C 215.022 159.429,214.730 159.167,214.685 159.167 C 214.639 159.167,214.856 159.429,215.167 159.750 M229.728 161.917 C 229.728 162.833,229.756 163.187,229.790 162.703 C 229.824 162.218,229.823 161.468,229.789 161.036 C 229.755 160.604,229.727 161.000,229.728 161.917 M170.548 163.250 C 170.549 163.708,170.581 163.876,170.620 163.623 C 170.658 163.369,170.657 162.994,170.617 162.789 C 170.578 162.584,170.546 162.792,170.548 163.250 M217.700 163.246 C 217.900 163.657,218.091 163.964,218.126 163.929 C 218.202 163.854,217.528 162.500,217.415 162.500 C 217.373 162.500,217.501 162.836,217.700 163.246 M218.894 168.583 C 218.895 169.500,218.923 169.854,218.956 169.369 C 218.990 168.885,218.990 168.135,218.956 167.703 C 218.921 167.270,218.894 167.667,218.894 168.583 M227.867 169.087 C 227.668 169.497,227.539 169.833,227.582 169.833 C 227.695 169.833,228.368 168.480,228.293 168.404 C 228.258 168.369,228.066 168.677,227.867 169.087 M165.750 170.667 C 165.892 170.942,166.046 171.167,166.092 171.167 C 166.138 171.167,166.059 170.942,165.917 170.667 C 165.774 170.392,165.621 170.167,165.575 170.167 C 165.529 170.167,165.608 170.392,165.750 170.667 M166.312 171.583 C 166.402 171.767,166.598 172.067,166.747 172.250 L 167.018 172.583 166.855 172.250 C 166.765 172.067,166.569 171.767,166.420 171.583 L 166.148 171.250 166.312 171.583 M196.844 173.763 C 197.159 174.137,197.450 174.415,197.492 174.382 C 197.533 174.349,197.275 174.043,196.919 173.703 L 196.271 173.083 196.844 173.763 M223.497 174.958 L 221.917 176.583 223.542 175.003 C 225.051 173.536,225.242 173.333,225.122 173.333 C 225.097 173.333,224.366 174.065,223.497 174.958 M191.398 174.255 C 191.246 174.487,191.152 174.707,191.189 174.744 C 191.226 174.781,191.383 174.592,191.537 174.323 C 191.881 173.723,191.779 173.674,191.398 174.255 M217.367 174.754 C 217.168 175.164,217.039 175.500,217.082 175.500 C 217.195 175.500,217.868 174.146,217.793 174.071 C 217.758 174.036,217.566 174.343,217.367 174.754 M170.830 177.208 C 171.791 178.194,172.597 179.000,172.622 179.000 C 172.742 179.000,172.539 178.786,170.875 177.164 L 169.083 175.417 170.830 177.208 M197.709 176.083 C 197.711 176.450,197.745 176.580,197.785 176.373 C 197.824 176.166,197.823 175.866,197.781 175.706 C 197.739 175.547,197.707 175.717,197.709 176.083 M216.564 176.208 C 215.990 177.182,215.952 177.265,216.245 176.917 C 216.583 176.513,216.875 176.000,216.766 176.000 C 216.722 176.000,216.631 176.094,216.564 176.208 M190.833 185.533 C 190.787 190.731,190.807 194.927,190.876 194.857 C 190.946 194.787,190.983 190.535,190.960 185.407 L 190.917 176.083 190.833 185.533 M214.240 179.375 L 213.750 179.917 214.292 179.427 C 214.797 178.971,214.910 178.833,214.781 178.833 C 214.752 178.833,214.509 179.077,214.240 179.375 M176.833 179.213 C 176.833 179.238,177.415 179.819,178.125 180.504 L 179.417 181.750 178.171 180.458 C 177.014 179.259,176.833 179.091,176.833 179.213 M212.088 181.496 C 211.546 182.043,211.136 182.514,211.176 182.542 C 211.217 182.571,211.694 182.122,212.236 181.547 C 213.488 180.217,213.387 180.182,212.088 181.496 M197.914 187.875 L 197.917 194.917 198.583 194.931 L 199.250 194.945 198.627 194.880 L 198.004 194.814 197.957 187.824 L 197.911 180.833 197.914 187.875 M213.833 181.583 C 213.237 181.895,212.808 182.154,212.880 182.159 C 213.057 182.170,215.000 181.182,215.000 181.081 C 215.000 180.969,215.039 180.952,213.833 181.583 M175.833 181.241 C 175.833 181.287,176.058 181.441,176.333 181.583 C 176.608 181.726,176.833 181.804,176.833 181.759 C 176.833 181.713,176.608 181.559,176.333 181.417 C 176.058 181.274,175.833 181.196,175.833 181.241 M160.542 189.288 C 160.885 189.324,161.448 189.324,161.792 189.288 C 162.135 189.252,161.854 189.223,161.167 189.223 C 160.479 189.223,160.198 189.252,160.542 189.288 M228.208 189.288 C 228.552 189.324,229.115 189.324,229.458 189.288 C 229.802 189.252,229.521 189.223,228.833 189.223 C 228.146 189.223,227.865 189.252,228.208 189.288 M232.183 189.875 C 232.223 189.898,232.591 190.217,233.003 190.583 L 233.750 191.250 233.091 190.542 C 232.729 190.152,232.360 189.833,232.272 189.833 C 232.183 189.833,232.144 189.852,232.183 189.875 M157.039 192.333 C 157.039 192.654,157.073 192.785,157.115 192.625 C 157.157 192.465,157.157 192.202,157.115 192.042 C 157.073 191.881,157.039 192.012,157.039 192.333 M233.879 193.167 C 233.879 193.579,233.911 193.748,233.951 193.542 C 233.991 193.335,233.991 192.998,233.951 192.792 C 233.911 192.585,233.879 192.754,233.879 193.167 M156.898 195.917 C 156.898 197.108,156.925 197.574,156.957 196.951 C 156.989 196.329,156.989 195.354,156.957 194.785 C 156.924 194.216,156.898 194.725,156.898 195.917 M187.958 194.955 C 188.348 194.990,188.985 194.990,189.375 194.955 C 189.765 194.920,189.446 194.892,188.667 194.892 C 187.887 194.892,187.569 194.920,187.958 194.955 M234.074 200.333 C 234.074 203.221,234.097 204.402,234.125 202.958 C 234.152 201.515,234.152 199.152,234.125 197.708 C 234.097 196.265,234.074 197.446,234.074 200.333 M156.737 264.667 C 156.737 266.546,156.761 267.315,156.791 266.375 C 156.821 265.435,156.821 263.898,156.791 262.958 C 156.761 262.019,156.737 262.787,156.737 264.667 M156.739 274.000 C 156.739 276.246,156.762 277.165,156.791 276.042 C 156.820 274.919,156.820 273.081,156.791 271.958 C 156.762 270.835,156.739 271.754,156.739 274.000 M234.075 305.667 C 234.075 309.012,234.098 310.381,234.125 308.708 C 234.152 307.035,234.152 304.298,234.125 302.625 C 234.098 300.952,234.075 302.321,234.075 305.667 M156.899 308.250 C 156.899 309.533,156.926 310.036,156.957 309.368 C 156.989 308.699,156.989 307.649,156.957 307.034 C 156.925 306.420,156.899 306.967,156.899 308.250 M157.042 312.083 C 157.044 312.450,157.078 312.580,157.118 312.373 C 157.158 312.166,157.156 311.866,157.115 311.706 C 157.073 311.547,157.040 311.717,157.042 312.083 M231.409 317.375 L 230.750 318.083 231.458 317.425 C 232.117 316.812,232.243 316.667,232.117 316.667 C 232.090 316.667,231.771 316.985,231.409 317.375 M171.465 320.790 C 172.041 320.823,172.941 320.823,173.465 320.790 C 173.988 320.757,173.517 320.730,172.417 320.730 C 171.317 320.731,170.888 320.758,171.465 320.790 M216.875 320.790 C 217.494 320.822,218.506 320.822,219.125 320.790 C 219.744 320.758,219.237 320.732,218.000 320.732 C 216.762 320.732,216.256 320.758,216.875 320.790 M188.958 320.958 C 192.190 320.984,197.477 320.984,200.708 320.958 C 203.940 320.933,201.296 320.912,194.833 320.912 C 188.371 320.912,185.727 320.933,188.958 320.958 " stroke="none" fill="#848cd4" fill-rule="evenodd"></path></g></svg>