<svg id="svg" version="1.1" xmlns="http://www.w3.org/2000/svg" xmlns:xlink="http://www.w3.org/1999/xlink" width="32" height="32" viewBox="0, 0, 400,400"><g id="svgg"><path id="path0" d="M216.000 89.646 C 208.563 89.942,204.684 90.568,202.800 91.778 C 200.033 93.556,198.666 94.069,194.664 94.838 C 188.907 95.943,187.139 96.608,185.570 98.258 C 184.173 99.726,180.777 101.589,179.484 101.596 C 178.105 101.604,175.720 103.144,175.221 104.350 C 174.559 105.946,173.908 106.476,170.524 108.170 C 168.408 109.228,167.087 110.253,165.529 112.045 C 164.363 113.385,162.766 114.809,161.978 115.211 C 160.251 116.092,159.590 116.837,158.800 118.795 C 158.470 119.612,157.796 120.802,157.303 121.440 C 156.810 122.078,156.031 123.095,155.574 123.700 C 155.116 124.305,154.420 124.800,154.026 124.800 C 153.527 124.800,152.985 125.560,152.244 127.300 C 150.470 131.466,149.795 132.483,148.218 133.366 C 146.838 134.139,146.640 134.472,145.949 137.192 C 144.688 142.157,142.351 144.642,137.442 146.238 C 135.964 146.719,134.936 147.424,133.719 148.794 C 132.464 150.206,131.552 150.820,130.119 151.217 C 127.404 151.969,126.023 152.905,125.037 154.663 C 124.446 155.716,123.375 156.654,121.590 157.683 C 119.333 158.984,111.200 166.437,111.200 167.205 C 111.200 167.348,110.791 167.684,110.290 167.952 C 109.781 168.224,108.712 169.797,107.864 171.519 C 106.593 174.102,106.088 174.726,104.743 175.379 C 102.986 176.233,102.364 177.191,101.637 180.160 C 100.989 182.810,100.392 183.867,98.285 186.093 C 96.376 188.110,96.012 189.125,94.598 196.400 C 94.234 198.270,93.567 200.430,93.114 201.200 C 92.662 201.970,91.984 203.140,91.609 203.800 C 90.106 206.445,89.800 209.996,89.800 224.800 C 89.800 240.956,89.919 241.912,92.619 247.400 C 93.996 250.200,94.566 252.001,95.183 255.504 C 96.088 260.640,96.387 261.361,98.266 262.939 C 99.934 264.338,100.931 266.240,101.978 270.016 C 102.904 273.358,102.736 273.118,104.918 274.216 C 106.615 275.069,106.903 275.452,108.441 278.900 C 108.907 279.945,109.532 280.800,109.831 280.800 C 110.517 280.800,113.200 283.456,113.200 284.135 C 113.200 284.765,115.667 287.200,116.306 287.200 C 116.943 287.200,119.600 289.900,119.600 290.548 C 119.600 290.835,120.635 291.580,121.900 292.204 C 124.795 293.633,125.499 294.235,126.445 296.090 C 127.104 297.381,127.512 297.662,129.503 298.198 C 132.634 299.041,135.854 300.742,137.194 302.261 C 138.699 303.966,139.512 304.346,143.115 305.029 C 148.051 305.964,150.462 306.771,152.600 308.204 C 158.407 312.095,193.858 312.298,199.675 308.472 C 201.783 307.086,204.118 306.210,207.800 305.422 C 213.790 304.142,215.487 303.483,216.473 302.059 C 217.536 300.522,218.456 299.947,221.775 298.746 C 223.437 298.144,224.622 297.368,225.721 296.160 C 227.891 293.776,231.077 291.714,233.075 291.401 C 234.525 291.173,234.785 290.977,235.013 289.939 C 235.386 288.242,237.319 286.199,239.304 285.405 C 241.243 284.629,241.585 284.227,241.594 282.717 C 241.598 281.924,242.414 280.763,244.636 278.387 C 246.812 276.060,248.051 274.310,249.008 272.210 C 249.752 270.577,250.807 268.953,251.390 268.540 C 251.966 268.133,252.796 267.530,253.233 267.200 C 253.716 266.836,254.258 265.612,254.613 264.087 C 255.899 258.551,259.489 254.939,264.503 254.137 C 265.741 253.939,266.256 253.578,267.014 252.378 C 268.180 250.531,269.183 249.803,271.720 248.960 C 273.012 248.531,274.241 247.707,275.338 246.534 C 277.609 244.108,280.753 241.764,282.198 241.420 C 283.741 241.054,284.327 240.548,284.964 239.032 C 285.560 237.614,287.784 235.323,288.911 234.965 C 290.110 234.584,291.111 233.385,291.547 231.809 C 292.124 229.718,294.691 226.037,296.189 225.154 C 297.583 224.331,298.463 222.828,299.206 220.000 C 299.544 218.713,300.222 217.687,301.584 216.400 C 303.616 214.481,304.492 212.297,305.593 206.406 C 306.112 203.626,308.070 198.868,308.977 198.182 C 312.186 195.752,311.722 157.865,308.426 153.236 C 306.982 151.208,306.086 148.759,305.414 145.000 C 304.578 140.325,303.789 138.216,302.578 137.422 C 301.084 136.443,299.533 133.726,298.571 130.400 C 297.816 127.791,297.521 127.296,296.309 126.600 C 294.075 125.318,293.604 124.791,292.303 122.123 C 291.626 120.736,290.837 119.600,290.550 119.600 C 289.878 119.600,287.200 116.934,287.200 116.265 C 287.200 115.635,284.733 113.200,284.094 113.200 C 283.445 113.200,280.800 110.494,280.800 109.831 C 280.800 109.532,279.945 108.907,278.900 108.441 C 275.547 106.945,275.117 106.629,274.251 105.012 C 273.146 102.951,272.646 102.583,270.218 102.038 C 267.171 101.354,264.279 99.865,262.972 98.306 C 261.359 96.384,260.659 96.091,255.504 95.183 C 251.993 94.565,250.206 93.999,247.400 92.615 C 241.643 89.777,233.087 88.968,216.000 89.646 M237.397 106.187 C 239.130 106.518,241.157 107.230,242.218 107.880 C 245.388 109.821,245.902 110.020,249.270 110.612 C 255.093 111.636,257.266 112.702,258.229 115.008 C 258.673 116.071,259.104 116.381,260.684 116.775 C 263.410 117.455,265.789 118.957,268.732 121.856 C 270.139 123.243,271.938 124.697,272.730 125.089 C 273.527 125.482,274.534 126.448,274.985 127.252 C 276.041 129.134,278.314 132.120,278.970 132.487 C 280.181 133.165,282.776 137.163,283.393 139.301 C 283.835 140.830,284.350 141.753,284.929 142.050 C 287.514 143.378,288.647 145.458,289.587 150.600 C 290.381 154.940,290.917 156.579,292.084 158.230 C 293.778 160.629,294.381 163.433,294.785 170.800 C 295.527 184.298,294.141 194.140,291.180 196.400 C 291.036 196.510,290.417 198.850,289.805 201.600 C 288.521 207.373,288.398 207.660,286.294 209.800 C 285.429 210.680,284.017 212.871,283.156 214.668 C 281.707 217.694,280.917 218.634,278.258 220.494 C 277.713 220.875,277.049 221.865,276.784 222.694 C 275.877 225.526,273.638 227.193,270.720 227.210 C 269.774 227.215,268.292 227.383,267.426 227.584 C 264.068 228.363,262.002 225.237,261.995 219.365 C 261.990 215.192,261.133 205.181,260.322 199.839 C 259.933 197.271,259.624 196.445,258.677 195.439 C 257.017 193.676,255.610 190.444,255.017 187.030 C 254.450 183.763,253.851 182.667,252.025 181.557 C 250.778 180.798,247.956 175.729,247.418 173.281 C 247.237 172.460,246.795 172.014,245.804 171.656 C 244.028 171.014,242.491 169.152,241.894 166.921 C 241.465 165.315,241.204 165.036,239.282 164.127 C 237.425 163.248,237.005 162.822,236.064 160.858 C 235.044 158.731,234.883 158.587,233.283 158.372 C 231.187 158.091,229.788 157.081,228.634 155.019 C 228.052 153.979,227.347 153.325,226.575 153.108 C 223.561 152.263,218.649 149.394,218.026 148.114 C 217.277 146.574,217.260 146.566,212.200 145.393 C 207.462 144.295,205.860 143.642,204.061 142.075 C 201.881 140.177,192.115 138.800,180.830 138.800 C 176.162 138.800,174.285 138.158,171.968 135.767 L 170.699 134.458 171.515 133.129 C 171.964 132.398,172.522 130.755,172.756 129.478 C 173.384 126.046,174.198 124.933,176.784 123.965 C 179.478 122.958,179.851 122.660,180.832 120.737 C 181.470 119.487,182.210 118.922,185.054 117.511 C 186.951 116.570,189.283 115.033,190.237 114.096 C 192.300 112.068,192.628 111.931,198.664 110.577 C 201.825 109.868,203.768 109.208,204.633 108.548 C 208.659 105.477,226.841 104.167,237.397 106.187 M194.141 155.606 C 197.597 156.198,199.056 156.809,201.105 158.521 C 202.274 159.497,203.436 160.021,205.205 160.369 C 209.167 161.149,212.258 162.672,213.283 164.352 C 214.410 166.199,215.015 166.649,217.066 167.171 C 219.167 167.705,221.021 169.247,221.648 170.983 C 221.988 171.921,222.446 172.389,223.168 172.534 C 224.683 172.837,227.549 175.645,227.843 177.114 C 228.030 178.050,228.361 178.416,229.185 178.597 C 230.765 178.944,232.600 181.081,233.376 183.476 C 233.931 185.189,234.345 185.726,235.745 186.547 C 237.281 187.447,237.782 188.123,239.193 191.200 C 239.344 191.530,239.803 193.060,240.212 194.600 C 240.717 196.499,241.305 197.722,242.040 198.400 C 245.133 201.254,247.121 217.160,246.058 230.552 C 244.887 245.303,244.157 245.805,224.000 245.744 C 208.133 245.696,202.731 244.883,199.456 242.049 C 198.105 240.879,197.106 240.407,195.185 240.029 C 191.767 239.357,188.660 237.917,187.753 236.585 C 186.484 234.722,184.757 233.200,183.912 233.200 C 182.339 233.200,180.071 231.529,179.110 229.661 C 178.421 228.322,177.856 227.762,176.958 227.529 C 175.460 227.141,173.464 225.013,172.849 223.149 C 172.507 222.113,172.038 221.630,171.015 221.260 C 169.283 220.633,167.709 218.790,167.372 216.990 C 167.229 216.228,166.637 215.157,166.056 214.610 C 165.475 214.064,164.369 213.017,163.598 212.283 C 162.197 210.952,160.787 207.498,160.162 203.866 C 160.017 203.022,159.466 201.865,158.939 201.296 C 155.412 197.491,154.243 188.767,154.850 170.800 C 155.231 159.543,156.422 157.222,162.689 155.527 C 165.862 154.669,189.013 154.727,194.141 155.606 M136.708 174.364 C 138.306 175.732,138.800 177.620,138.800 182.365 C 138.800 193.245,140.169 202.575,142.086 204.759 C 143.603 206.486,144.641 208.912,145.228 212.093 C 145.998 216.273,146.662 217.729,148.106 218.410 C 149.448 219.043,152.453 224.295,153.021 227.000 C 153.209 227.896,153.690 228.403,154.916 229.000 C 156.908 229.970,158.037 231.437,158.359 233.474 C 158.564 234.774,158.846 235.119,160.260 235.800 C 162.552 236.905,163.580 237.914,164.438 239.900 C 164.907 240.987,165.429 241.601,165.886 241.604 C 167.817 241.614,170.681 243.502,171.578 245.355 C 172.069 246.370,172.728 247.200,173.042 247.200 C 174.822 247.200,181.173 250.773,182.153 252.326 C 183.273 254.100,183.274 254.101,187.709 255.003 C 191.560 255.787,193.866 256.756,195.687 258.355 C 197.826 260.233,214.347 262.577,219.982 261.802 C 224.931 261.122,230.318 264.995,228.600 268.000 C 228.286 268.550,228.022 269.681,228.014 270.513 C 227.985 273.609,225.905 276.292,223.000 276.979 C 221.654 277.297,220.400 278.276,220.400 279.008 C 220.400 280.097,218.574 281.681,215.869 282.939 C 214.205 283.713,212.244 285.031,211.200 286.075 C 209.270 288.005,207.961 288.571,202.297 289.927 C 200.177 290.435,198.123 291.224,197.097 291.925 C 190.468 296.450,162.921 296.648,156.480 292.217 C 154.965 291.175,153.420 290.605,150.055 289.847 C 143.849 288.450,141.600 287.211,141.600 285.193 C 141.600 284.777,140.828 284.327,139.320 283.862 C 136.393 282.961,132.675 280.702,131.734 279.253 C 130.760 277.752,128.552 275.910,126.703 275.057 C 125.688 274.588,125.122 274.018,124.944 273.283 C 124.640 272.032,122.765 269.512,120.935 267.895 C 119.146 266.316,117.395 263.388,116.631 260.700 C 116.135 258.954,115.798 258.400,115.230 258.400 C 113.236 258.400,111.665 255.257,110.584 249.107 C 109.841 244.881,109.692 244.453,108.392 242.799 C 103.831 237.000,104.302 210.958,109.065 205.546 C 109.382 205.186,110.080 202.690,110.616 199.999 C 111.762 194.251,112.834 191.992,114.664 191.467 C 115.649 191.185,115.981 190.828,116.164 189.852 C 116.783 186.566,119.551 182.070,121.620 180.993 C 122.549 180.509,124.800 176.696,124.800 175.606 C 124.800 174.919,128.013 173.621,129.800 173.586 C 130.680 173.568,132.120 173.415,133.000 173.246 C 134.677 172.924,135.216 173.086,136.708 174.364 " stroke="none" fill="#fcfbf9" fill-rule="evenodd"></path><path id="path1" d="M0.000 200.000 L 0.000 400.000 200.000 400.000 L 400.000 400.000 400.000 200.000 L 400.000 0.000 200.000 0.000 L 0.000 0.000 0.000 200.000 M231.541 84.802 C 248.447 86.117,255.491 87.633,257.536 90.399 C 258.207 91.306,258.743 91.600,259.728 91.600 C 263.046 91.600,268.700 93.911,269.998 95.797 C 270.925 97.145,271.629 97.693,272.910 98.065 C 275.173 98.722,277.049 99.924,279.208 102.100 C 280.194 103.093,282.088 104.604,283.417 105.459 C 286.508 107.446,292.728 113.658,295.093 117.121 C 296.100 118.594,297.265 120.041,297.681 120.336 C 299.236 121.437,301.618 124.940,302.220 127.009 C 302.751 128.837,303.093 129.296,304.566 130.159 C 305.541 130.730,306.478 131.654,306.722 132.285 C 307.471 134.221,308.369 137.731,308.605 139.646 C 308.795 141.183,309.096 141.704,310.403 142.754 C 312.584 144.507,313.331 147.207,314.587 157.877 C 315.151 162.675,315.904 167.820,316.259 169.310 C 316.986 172.366,316.861 181.172,316.044 184.400 C 315.793 185.390,315.146 189.890,314.605 194.400 C 313.310 205.192,312.835 207.006,310.833 208.800 C 309.234 210.233,308.924 210.995,307.987 215.800 C 307.337 219.128,306.545 220.645,304.935 221.640 C 303.913 222.272,303.190 223.285,302.147 225.546 C 301.372 227.226,300.470 229.168,300.141 229.863 C 299.795 230.596,299.010 231.346,298.272 231.650 C 296.641 232.321,295.846 233.290,294.759 235.932 C 294.015 237.740,293.603 238.196,292.055 238.932 C 290.631 239.609,289.958 240.284,289.004 241.992 C 288.042 243.715,287.439 244.316,286.190 244.797 C 283.666 245.768,282.811 246.483,282.003 248.298 C 281.575 249.258,280.845 250.152,280.323 250.354 C 276.806 251.719,275.659 252.425,273.327 254.655 C 270.874 257.002,270.500 257.211,267.651 257.834 C 264.551 258.511,263.200 259.260,263.200 260.302 C 263.200 261.050,260.654 263.600,259.908 263.600 C 259.138 263.600,258.511 264.982,258.190 267.385 C 257.805 270.271,255.847 273.935,254.355 274.562 C 253.001 275.132,251.231 277.709,251.212 279.140 C 251.199 280.170,248.826 282.800,247.910 282.800 C 247.067 282.800,245.765 284.393,245.223 286.087 C 244.741 287.590,242.786 289.600,241.805 289.600 C 241.157 289.600,239.200 291.850,239.200 292.595 C 239.200 293.301,236.920 295.200,236.069 295.201 C 234.840 295.204,232.909 296.710,232.150 298.258 C 231.382 299.825,231.062 300.047,227.126 301.749 C 225.834 302.308,224.106 303.502,223.126 304.515 C 220.921 306.793,219.691 307.400,215.778 308.143 C 211.612 308.934,211.320 309.065,209.700 310.858 C 207.829 312.929,205.869 313.404,192.600 315.005 C 189.520 315.376,186.370 315.929,185.600 316.234 C 181.727 317.765,173.897 317.942,168.559 316.618 C 166.382 316.078,161.720 315.259,158.200 314.797 C 146.776 313.298,144.733 312.708,142.515 310.267 C 141.507 309.159,140.815 308.796,139.315 308.588 C 134.350 307.901,131.223 306.551,130.201 304.654 C 129.410 303.185,128.992 302.908,125.902 301.810 C 124.728 301.393,123.127 300.292,121.702 298.924 C 120.436 297.707,118.284 295.936,116.921 294.987 C 113.421 292.553,107.390 286.394,105.157 282.973 C 104.117 281.380,103.002 279.925,102.678 279.738 C 101.377 278.989,99.217 275.862,98.237 273.307 C 97.368 271.042,96.940 270.453,95.616 269.698 C 93.905 268.722,92.459 265.253,91.673 260.241 C 91.397 258.485,91.070 257.862,89.872 256.810 C 85.757 253.197,83.550 227.083,85.780 208.400 C 87.195 196.547,87.992 193.715,90.391 192.006 C 91.294 191.364,91.600 190.830,91.600 189.898 C 91.600 186.173,93.843 180.761,95.935 179.441 C 97.001 178.768,97.585 178.028,97.912 176.936 C 98.633 174.529,100.736 170.903,101.925 170.018 C 103.866 168.572,104.814 167.429,105.805 165.344 C 106.489 163.905,107.389 162.852,108.808 161.833 C 109.922 161.032,111.319 159.573,111.913 158.590 C 112.683 157.316,113.568 156.519,114.996 155.816 C 117.378 154.644,118.386 153.776,119.214 152.185 C 119.793 151.072,122.075 149.582,126.200 147.621 C 127.080 147.203,128.390 146.132,129.112 145.243 C 130.025 144.117,130.938 143.484,132.112 143.163 C 135.782 142.157,137.835 141.131,138.318 140.059 C 138.581 139.477,139.382 138.622,140.098 138.160 C 141.067 137.535,141.538 136.819,141.938 135.360 C 143.306 130.374,143.635 129.699,145.618 127.822 C 146.983 126.530,148.103 124.899,149.190 122.622 C 150.454 119.972,151.042 119.176,152.108 118.671 C 153.821 117.858,154.739 116.825,155.991 114.303 C 156.714 112.845,157.453 112.026,158.600 111.407 C 159.522 110.909,160.747 109.716,161.490 108.591 C 162.743 106.696,164.033 105.643,165.138 105.614 C 166.069 105.590,168.006 103.975,169.006 102.390 C 169.900 100.974,176.368 97.200,177.900 97.200 C 178.146 97.200,178.450 96.872,178.578 96.470 C 179.245 94.369,183.599 92.391,189.744 91.397 C 190.803 91.226,191.352 90.905,191.490 90.378 C 192.396 86.912,216.149 83.606,231.541 84.802 M218.600 112.275 C 217.074 112.409,210.129 113.285,205.000 113.989 C 199.623 114.728,197.330 115.565,196.262 117.179 C 195.718 118.000,194.761 118.862,194.136 119.093 C 193.511 119.324,192.134 119.822,191.075 120.200 C 190.016 120.577,188.396 121.451,187.475 122.143 C 184.913 124.066,182.787 125.393,180.073 126.763 C 177.499 128.063,177.316 128.322,178.032 129.660 C 178.719 130.943,181.030 131.654,186.287 132.201 C 190.456 132.635,191.349 132.854,192.336 133.685 C 193.296 134.492,194.650 134.850,200.247 135.775 C 208.126 137.078,210.901 137.996,212.708 139.897 C 213.750 140.994,214.556 141.387,216.673 141.829 C 220.823 142.698,224.249 144.464,224.926 146.085 C 225.334 147.062,225.965 147.631,227.244 148.174 C 231.946 150.171,232.260 150.385,233.236 152.255 C 233.979 153.678,234.543 154.216,235.696 154.602 C 238.026 155.382,239.039 156.215,239.950 158.097 C 240.572 159.381,241.159 159.969,242.195 160.344 C 243.797 160.923,245.280 162.709,245.984 164.909 C 246.354 166.061,246.811 166.561,247.919 167.024 C 250.027 167.905,250.737 168.693,251.383 170.868 C 252.124 173.361,252.804 174.304,254.459 175.130 C 255.949 175.874,257.290 178.254,258.032 181.469 C 259.065 185.944,259.175 186.195,260.411 186.892 C 262.186 187.894,263.121 190.388,264.471 197.722 C 265.355 202.523,265.879 204.426,266.574 205.358 C 268.374 207.773,268.589 208.542,268.819 213.400 C 269.090 219.101,270.366 222.758,272.096 222.794 C 272.259 222.797,273.121 221.315,274.012 219.500 C 274.902 217.685,276.160 215.480,276.806 214.600 C 279.348 211.137,280.089 209.829,280.578 207.947 C 281.125 205.837,282.012 204.621,283.605 203.797 C 284.705 203.229,285.784 200.006,286.417 195.400 C 288.647 179.175,288.576 172.169,286.025 156.400 C 285.385 152.447,284.809 150.932,283.763 150.456 C 282.645 149.946,280.631 146.127,279.801 142.941 C 279.203 140.645,278.273 139.200,277.392 139.200 C 276.298 139.200,274.900 137.589,274.653 136.044 C 274.370 134.269,272.817 132.180,271.482 131.775 C 270.363 131.436,268.800 130.020,268.800 129.344 C 268.800 128.175,266.348 126.058,264.218 125.388 C 262.462 124.836,261.964 124.475,261.548 123.455 C 260.883 121.821,260.254 121.361,257.621 120.579 C 254.400 119.622,251.048 117.811,250.458 116.708 C 249.695 115.283,247.740 114.727,239.400 113.566 C 230.256 112.293,223.305 111.861,218.600 112.275 M167.892 159.073 C 165.730 159.230,165.520 159.338,164.565 160.782 C 164.004 161.629,162.486 163.065,161.192 163.973 L 158.840 165.623 158.720 171.712 C 158.562 179.714,159.014 187.116,159.711 187.953 C 161.222 189.770,162.567 193.399,163.602 198.450 C 164.849 204.540,165.116 205.200,167.004 206.857 C 168.454 208.130,170.410 211.597,171.235 214.354 C 171.643 215.719,172.043 216.226,173.042 216.643 C 174.622 217.304,175.853 218.817,176.462 220.848 C 177.032 222.752,177.640 223.288,180.284 224.215 C 182.064 224.840,182.503 225.210,183.300 226.759 C 184.137 228.385,184.499 228.667,186.816 229.496 C 189.878 230.592,193.437 232.857,193.776 233.926 C 194.111 234.978,196.271 235.807,201.213 236.778 C 206.178 237.754,208.060 238.263,208.372 238.716 C 208.497 238.898,209.500 239.570,210.600 240.209 L 212.600 241.371 223.821 241.517 L 235.041 241.664 237.503 239.232 C 238.858 237.894,240.231 236.800,240.556 236.800 C 242.431 236.800,242.235 209.182,240.356 208.586 C 239.077 208.180,236.400 201.001,236.400 197.977 C 236.400 196.540,234.706 193.361,233.435 192.411 C 231.685 191.103,230.405 189.093,229.610 186.400 C 229.024 184.415,228.767 184.095,226.980 183.122 C 225.310 182.212,224.897 181.745,224.341 180.140 C 223.627 178.073,222.272 176.400,221.312 176.400 C 219.935 176.400,217.628 174.652,217.029 173.155 C 216.519 171.880,216.147 171.563,214.711 171.179 C 211.893 170.424,208.841 168.743,207.405 167.153 C 205.531 165.078,205.159 164.928,198.579 163.596 C 195.372 162.946,192.265 162.158,191.674 161.844 C 186.379 159.032,186.385 159.034,178.000 158.968 C 173.710 158.934,169.162 158.982,167.892 159.073 M126.500 181.696 C 125.565 183.233,124.800 184.830,124.800 185.246 C 124.800 185.661,124.110 186.676,123.267 187.500 C 121.220 189.502,120.583 190.597,120.001 193.115 C 119.637 194.695,119.032 195.759,117.616 197.315 C 115.374 199.781,114.695 201.663,113.817 207.857 C 111.657 223.091,111.722 227.538,114.363 245.000 C 114.836 248.124,115.432 249.616,116.601 250.600 C 117.852 251.653,119.436 254.599,120.418 257.701 C 121.322 260.554,121.740 261.157,123.407 262.013 C 124.237 262.439,124.782 263.165,125.200 264.399 C 125.548 265.427,126.504 266.851,127.476 267.786 C 130.095 270.309,130.765 270.985,132.590 272.958 C 133.720 274.179,134.624 274.800,135.272 274.800 C 136.387 274.800,137.727 275.912,138.565 277.532 C 139.202 278.765,140.931 279.772,143.506 280.411 C 144.517 280.662,146.065 281.563,147.306 282.622 C 150.748 285.561,150.285 285.427,165.400 287.868 C 176.465 289.655,178.003 289.575,197.600 286.193 C 203.043 285.254,203.837 284.943,204.753 283.391 C 205.241 282.563,206.186 281.740,207.087 281.358 C 211.658 279.418,214.399 277.918,216.061 276.447 C 217.085 275.541,218.097 274.800,218.311 274.800 C 218.817 274.800,222.461 273.209,223.079 272.718 C 223.446 272.426,223.410 272.029,222.927 271.017 C 222.198 269.487,219.953 268.963,212.678 268.626 C 208.986 268.454,208.645 268.364,206.851 267.075 C 205.171 265.868,204.243 265.579,198.973 264.622 C 190.901 263.156,189.355 262.615,187.285 260.533 C 185.592 258.829,185.166 258.632,182.383 258.264 C 179.802 257.923,175.750 255.723,175.064 254.290 C 174.342 252.784,173.397 252.134,170.810 251.366 C 168.692 250.737,167.900 250.016,167.024 247.919 C 166.562 246.813,166.058 246.351,164.909 245.978 C 162.642 245.243,161.328 244.158,160.539 242.371 C 160.009 241.169,159.412 240.577,158.178 240.031 C 156.329 239.214,155.043 237.655,154.510 235.585 C 154.226 234.483,153.787 234.025,152.363 233.345 C 150.238 232.330,149.864 231.910,149.203 229.800 C 148.367 227.128,147.178 225.336,145.856 224.753 C 144.285 224.061,142.706 220.918,141.849 216.777 C 141.455 214.872,141.001 213.720,140.544 213.465 C 138.147 212.123,137.334 210.008,135.798 201.111 C 134.959 196.256,134.560 194.868,133.527 193.205 C 132.421 191.426,132.244 190.729,132.025 187.294 C 131.750 182.995,130.976 180.861,129.251 179.643 L 128.200 178.901 126.500 181.696 " stroke="none" fill="#fccc5c" fill-rule="evenodd"></path><path id="path2" d="M214.600 86.242 C 213.940 86.337,211.150 86.683,208.400 87.011 C 202.424 87.722,198.306 88.637,196.400 89.676 C 195.630 90.096,194.550 90.682,194.000 90.979 C 193.450 91.275,190.754 92.212,188.008 93.059 C 183.860 94.340,182.704 94.877,181.166 96.237 C 180.148 97.137,177.928 98.559,176.231 99.398 C 174.534 100.236,172.031 101.930,170.667 103.161 C 169.304 104.392,167.105 106.087,165.780 106.926 C 164.455 107.766,163.018 108.988,162.586 109.643 C 162.153 110.298,160.856 111.551,159.702 112.428 C 158.521 113.326,157.231 114.756,156.748 115.702 C 156.277 116.626,154.857 118.376,153.594 119.591 C 151.474 121.630,150.837 122.555,148.600 126.840 C 148.160 127.683,147.053 129.088,146.140 129.963 C 145.052 131.005,144.239 132.278,143.781 133.656 C 141.692 139.945,140.976 140.766,135.162 143.534 C 132.671 144.720,130.664 145.948,130.293 146.514 C 129.946 147.044,128.669 147.947,127.455 148.522 C 124.799 149.780,121.902 151.845,120.000 153.839 C 119.230 154.646,117.478 156.061,116.106 156.985 C 114.734 157.908,113.069 159.413,112.406 160.328 C 111.743 161.243,110.600 162.386,109.866 162.867 C 109.132 163.348,107.798 164.925,106.901 166.371 C 106.004 167.817,104.083 170.349,102.631 171.997 C 101.180 173.645,99.692 175.805,99.324 176.797 C 98.554 178.877,97.348 180.770,96.311 181.526 C 95.006 182.478,93.808 185.456,91.696 193.000 C 91.573 193.440,90.959 194.717,90.333 195.838 C 84.523 206.231,84.749 245.123,90.670 253.993 C 91.182 254.759,91.603 255.659,91.606 255.993 C 91.628 258.427,94.854 266.137,96.628 268.000 C 97.362 268.770,98.530 270.660,99.224 272.200 C 99.985 273.890,101.150 275.634,102.163 276.600 C 103.087 277.480,104.718 279.550,105.789 281.200 C 108.264 285.013,115.245 291.977,119.410 294.788 C 121.175 295.979,123.155 297.627,123.810 298.449 C 124.617 299.463,125.921 300.351,127.860 301.209 C 129.434 301.904,131.234 303.021,131.860 303.691 C 133.269 305.196,136.913 306.904,140.995 307.974 C 142.697 308.419,144.916 309.332,145.927 310.001 C 155.636 316.432,198.563 316.192,207.586 309.656 C 208.540 308.965,209.615 308.400,209.976 308.400 C 212.070 308.400,218.569 305.861,220.137 304.431 C 221.052 303.597,223.550 301.975,225.689 300.828 C 228.175 299.495,230.002 298.208,230.752 297.261 C 231.397 296.446,233.075 295.107,234.481 294.285 C 235.886 293.463,237.590 292.069,238.267 291.188 C 238.945 290.307,240.235 289.053,241.135 288.401 C 242.035 287.749,243.076 286.717,243.450 286.108 C 245.329 283.039,246.221 281.929,247.387 281.208 C 248.091 280.773,249.164 279.475,249.783 278.310 C 251.193 275.655,253.643 272.000,254.013 272.000 C 254.494 272.000,256.294 269.019,256.931 267.167 C 258.982 261.211,261.304 258.887,267.924 256.166 C 268.872 255.776,270.222 254.889,270.924 254.194 C 271.626 253.499,273.910 251.920,276.000 250.686 C 278.113 249.437,280.310 247.793,280.949 246.981 C 281.581 246.178,282.881 245.024,283.839 244.416 C 286.071 243.001,292.752 236.287,294.005 234.200 C 294.534 233.320,295.895 231.610,297.031 230.400 C 298.168 229.190,299.944 226.580,300.978 224.600 C 302.013 222.620,303.370 220.550,303.993 220.000 C 305.648 218.539,308.400 211.796,308.400 209.200 C 308.400 208.837,309.018 207.672,309.772 206.611 C 316.299 197.431,316.219 155.766,309.655 145.422 C 308.965 144.334,308.400 143.152,308.400 142.797 C 308.400 140.437,305.585 133.947,303.629 131.800 C 302.828 130.920,301.669 129.030,301.053 127.600 C 300.312 125.878,299.431 124.598,298.444 123.810 C 297.625 123.155,295.979 121.175,294.788 119.410 C 291.977 115.245,285.013 108.264,281.200 105.789 C 279.550 104.718,277.479 103.080,276.597 102.148 C 275.639 101.135,273.925 99.974,272.336 99.261 C 270.874 98.605,268.986 97.448,268.139 96.689 C 266.124 94.882,265.027 94.361,260.000 92.818 C 257.690 92.110,255.350 91.278,254.800 90.970 C 250.980 88.833,247.437 87.847,239.800 86.796 C 236.579 86.352,216.835 85.918,214.600 86.242 M233.707 87.619 C 241.186 88.117,247.151 89.182,250.075 90.541 C 251.244 91.084,254.690 92.358,257.734 93.372 C 264.015 95.463,265.045 95.937,266.950 97.610 C 267.699 98.267,269.654 99.417,271.296 100.165 C 273.199 101.033,274.707 102.043,275.460 102.956 C 276.542 104.269,282.077 108.400,282.754 108.400 C 283.347 108.400,291.850 117.514,293.200 119.596 C 293.970 120.784,295.704 122.877,297.052 124.249 C 298.704 125.928,299.715 127.357,300.147 128.626 C 300.736 130.354,302.103 132.511,303.548 133.991 C 304.359 134.822,305.668 137.931,307.173 142.600 C 307.882 144.800,308.992 147.680,309.639 149.000 C 314.543 158.995,314.402 194.892,309.424 203.800 C 308.932 204.680,307.736 207.891,306.765 210.936 C 305.272 215.618,304.729 216.790,303.243 218.535 C 302.277 219.670,301.176 221.323,300.797 222.208 C 299.762 224.621,297.466 228.023,295.806 229.600 C 294.996 230.370,293.639 232.183,292.790 233.629 C 291.893 235.158,290.602 236.706,289.706 237.327 C 288.858 237.914,287.725 239.090,287.188 239.940 C 286.589 240.888,285.303 242.008,283.858 242.842 C 282.563 243.589,280.791 245.007,279.920 245.993 C 278.474 247.630,277.420 248.371,273.158 250.752 C 272.364 251.195,270.779 252.357,269.635 253.333 C 268.491 254.310,266.710 255.428,265.678 255.820 C 260.365 257.832,258.254 260.085,255.977 266.171 C 255.535 267.352,254.492 269.101,253.659 270.059 C 251.841 272.150,249.512 275.721,248.827 277.467 C 248.554 278.163,247.478 279.452,246.436 280.330 C 245.395 281.209,243.840 283.030,242.982 284.377 C 242.124 285.724,240.836 287.172,240.121 287.594 C 239.405 288.016,238.321 289.070,237.710 289.935 C 237.036 290.891,235.440 292.194,233.646 293.255 C 232.021 294.215,230.246 295.584,229.701 296.297 C 229.117 297.061,227.124 298.448,224.855 299.670 C 222.735 300.811,220.162 302.446,219.138 303.303 C 217.682 304.521,216.027 305.279,211.538 306.782 C 208.382 307.839,205.170 309.073,204.400 309.523 C 195.915 314.485,159.849 314.670,149.200 309.806 C 147.550 309.052,144.040 307.687,141.400 306.772 C 136.335 305.017,134.816 304.350,133.938 303.495 C 132.620 302.212,130.446 300.850,128.643 300.177 C 127.375 299.705,125.816 298.593,124.220 297.024 C 122.865 295.691,120.784 293.970,119.596 293.200 C 117.514 291.850,108.400 283.347,108.400 282.754 C 108.400 282.080,104.272 276.544,102.967 275.468 C 102.062 274.722,100.990 273.118,100.015 271.049 C 99.173 269.262,97.998 267.260,97.404 266.600 C 95.855 264.878,95.428 263.927,93.238 257.320 C 92.158 254.064,90.881 250.525,90.399 249.455 C 86.554 240.920,86.553 208.295,90.398 199.745 C 90.879 198.675,92.265 194.830,93.480 191.200 C 95.191 186.085,95.980 184.285,96.989 183.200 C 98.416 181.665,99.201 180.351,100.353 177.570 C 100.770 176.564,102.071 174.700,103.244 173.428 C 106.104 170.327,107.144 168.920,108.056 166.917 C 108.507 165.926,109.520 164.733,110.516 164.017 C 111.448 163.348,112.983 161.811,113.928 160.601 C 114.874 159.390,115.829 158.400,116.051 158.400 C 116.617 158.400,119.487 156.334,121.438 154.521 C 124.306 151.857,125.131 151.246,127.491 150.046 C 128.761 149.401,130.520 148.218,131.400 147.418 C 132.280 146.618,134.620 145.166,136.600 144.191 C 141.632 141.712,142.418 140.833,144.414 135.467 C 144.898 134.167,146.061 132.258,147.041 131.154 C 148.009 130.064,149.269 128.247,149.843 127.115 C 150.417 125.983,151.137 124.806,151.443 124.500 C 151.749 124.194,152.000 123.760,152.000 123.537 C 152.000 123.314,153.073 122.075,154.384 120.784 C 155.695 119.493,157.207 117.574,157.743 116.518 C 158.351 115.324,159.407 114.117,160.542 113.320 C 161.545 112.617,162.911 111.288,163.577 110.368 C 164.339 109.317,165.516 108.358,166.744 107.789 C 167.820 107.291,169.681 106.010,170.880 104.942 C 174.753 101.492,175.293 101.108,177.956 99.900 C 179.398 99.246,181.353 98.029,182.301 97.195 C 183.694 95.968,185.379 95.207,191.112 93.214 C 195.010 91.859,199.189 90.384,200.397 89.937 C 206.342 87.739,220.600 86.746,233.707 87.619 M217.800 108.107 C 213.643 108.397,209.513 109.254,208.578 110.022 C 208.346 110.212,205.504 111.003,202.263 111.778 C 195.662 113.357,195.328 113.492,192.785 115.600 C 191.787 116.427,189.627 117.780,187.987 118.607 C 186.346 119.433,183.876 121.142,182.498 122.405 C 181.119 123.668,179.468 124.806,178.829 124.934 C 176.676 125.365,174.800 127.438,174.800 129.386 C 174.800 135.474,175.518 136.119,182.382 136.191 C 186.772 136.237,194.788 137.261,201.239 138.600 C 202.871 138.938,205.862 140.029,207.900 141.029 C 209.935 142.026,213.134 143.355,215.009 143.981 C 216.884 144.607,219.063 145.632,219.851 146.259 C 222.766 148.581,225.053 150.083,227.039 150.980 C 228.273 151.538,229.679 152.620,230.597 153.719 C 231.432 154.718,232.989 156.011,234.057 156.592 C 235.124 157.173,236.493 158.194,237.099 158.861 C 238.183 160.055,239.690 161.563,241.544 163.311 C 242.063 163.800,243.074 165.111,243.790 166.224 C 244.507 167.337,245.863 168.858,246.804 169.603 C 247.803 170.394,248.850 171.716,249.320 172.779 C 250.127 174.606,252.818 178.517,253.600 179.000 C 254.237 179.394,256.216 183.529,256.951 186.000 C 257.310 187.210,258.054 189.010,258.603 190.000 C 261.188 194.658,261.688 196.122,262.609 201.716 C 263.123 204.842,263.950 209.110,264.447 211.200 C 265.048 213.732,265.358 216.319,265.375 218.951 C 265.405 223.668,265.946 224.369,269.901 224.821 C 273.119 225.188,273.745 224.843,275.161 221.922 C 275.833 220.535,277.267 218.458,278.346 217.307 C 279.453 216.126,281.015 213.769,281.927 211.902 C 282.817 210.081,284.025 208.143,284.611 207.596 C 286.256 206.061,287.046 204.172,288.562 198.151 C 289.331 195.098,290.264 191.993,290.634 191.252 C 293.079 186.352,292.830 169.617,290.186 161.200 C 289.598 159.330,288.776 156.317,288.359 154.504 C 287.292 149.870,286.302 147.468,284.473 145.074 C 283.601 143.933,282.304 141.830,281.590 140.400 C 280.876 138.970,279.675 137.217,278.921 136.504 C 277.725 135.372,274.800 131.428,274.800 130.946 C 274.800 130.436,268.945 124.964,267.682 124.293 C 266.867 123.860,265.281 122.642,264.158 121.585 C 263.035 120.529,260.938 119.090,259.497 118.388 C 258.056 117.685,256.033 116.413,255.002 115.561 C 253.281 114.139,247.966 112.000,246.154 112.000 C 245.822 112.000,243.139 111.198,240.192 110.219 C 234.082 108.188,226.667 107.488,217.800 108.107 M233.800 110.403 C 239.661 111.813,244.955 113.042,246.712 113.401 C 249.220 113.913,252.976 115.614,254.184 116.784 C 254.853 117.431,256.622 118.515,258.115 119.191 C 259.690 119.905,261.831 121.342,263.212 122.611 C 264.522 123.815,265.851 124.800,266.166 124.800 C 267.159 124.800,274.213 132.061,275.423 134.329 C 276.048 135.501,277.073 136.825,277.702 137.272 C 279.050 138.232,280.397 140.281,281.370 142.850 C 281.755 143.867,282.750 145.522,283.581 146.528 C 285.382 148.708,286.514 152.117,288.584 161.600 C 289.377 165.230,290.315 169.442,290.670 170.960 C 291.397 174.068,291.231 182.835,290.405 184.994 C 290.154 185.651,289.709 187.271,289.417 188.594 C 286.319 202.609,285.533 205.180,284.112 205.940 C 283.692 206.165,282.376 208.166,281.187 210.388 C 279.998 212.609,278.166 215.455,277.116 216.713 C 276.066 217.971,275.028 219.630,274.808 220.400 C 274.018 223.175,272.753 224.233,270.893 223.675 C 267.961 222.797,267.682 222.320,267.230 217.400 C 266.997 214.857,266.412 211.734,265.845 210.000 C 265.306 208.350,264.404 204.480,263.842 201.400 C 262.486 193.980,261.856 191.997,260.143 189.752 C 259.333 188.691,258.390 186.762,257.980 185.329 C 256.878 181.476,255.502 178.810,253.476 176.600 C 252.467 175.500,251.069 173.462,250.369 172.072 C 249.483 170.313,248.631 169.251,247.570 168.581 C 246.731 168.051,245.541 166.759,244.926 165.709 C 243.460 163.208,236.995 156.720,234.907 155.655 C 234.006 155.195,232.590 153.990,231.760 152.978 C 230.821 151.832,229.336 150.676,227.826 149.916 C 226.492 149.244,224.131 147.676,222.579 146.430 C 220.225 144.540,219.029 143.923,215.349 142.703 C 212.924 141.898,210.013 140.617,208.881 139.855 C 206.595 138.316,203.958 137.605,196.044 136.392 C 193.270 135.967,189.560 135.243,187.800 134.785 C 185.227 134.114,183.960 134.001,181.332 134.209 C 177.574 134.505,177.649 134.563,176.605 130.556 C 175.875 127.752,176.302 127.097,179.932 125.454 C 181.179 124.889,182.946 123.746,183.859 122.914 C 184.771 122.081,187.106 120.590,189.049 119.600 C 190.991 118.610,193.235 117.216,194.036 116.502 C 195.945 114.800,197.249 114.292,203.000 113.006 C 209.397 111.575,212.211 110.874,214.536 110.131 C 219.236 108.628,226.870 108.737,233.800 110.403 M164.056 157.587 C 163.097 158.034,162.099 158.400,161.837 158.400 C 155.781 158.400,154.359 185.958,159.825 197.400 C 160.560 198.940,161.551 201.550,162.025 203.200 C 163.085 206.884,163.502 207.710,165.549 210.188 C 166.438 211.263,167.734 213.235,168.430 214.571 C 169.158 215.967,170.781 218.052,172.248 219.474 C 173.703 220.884,174.800 222.290,174.800 222.745 C 174.800 223.572,175.617 224.310,178.381 225.982 C 179.274 226.522,180.468 227.632,181.034 228.449 C 181.701 229.412,183.046 230.450,184.859 231.403 C 186.397 232.211,188.544 233.663,189.632 234.628 C 192.060 236.784,192.988 237.272,196.800 238.395 C 198.450 238.880,200.790 239.774,202.000 240.380 C 212.113 245.448,239.236 245.349,241.884 240.235 C 245.757 232.758,245.070 209.849,240.720 201.408 C 240.042 200.092,238.986 197.535,238.375 195.725 C 237.268 192.450,235.678 189.707,234.026 188.219 C 233.549 187.790,232.506 186.196,231.708 184.678 C 230.717 182.792,229.768 181.593,228.715 180.896 C 227.866 180.335,226.513 178.808,225.708 177.503 C 224.613 175.730,223.860 174.977,222.723 174.523 C 221.864 174.179,220.482 173.053,219.544 171.933 C 218.434 170.607,216.994 169.503,215.187 168.594 C 213.703 167.846,211.645 166.504,210.613 165.612 C 208.264 163.578,207.337 163.103,203.600 162.016 C 201.950 161.536,199.250 160.544,197.600 159.812 C 191.035 156.899,168.709 155.419,164.056 157.587 M192.440 159.385 C 195.490 160.922,198.111 161.891,201.765 162.834 C 205.718 163.853,207.669 164.837,210.141 167.055 C 211.209 168.013,212.994 169.112,214.107 169.498 C 216.113 170.194,217.932 171.671,219.319 173.732 C 219.714 174.319,220.347 174.800,220.726 174.800 C 221.985 174.800,224.314 176.728,224.787 178.161 C 225.069 179.016,226.183 180.366,227.721 181.716 C 229.333 183.131,230.395 184.436,230.757 185.446 C 231.401 187.244,233.468 190.400,234.002 190.400 C 234.682 190.400,236.507 194.046,237.647 197.682 C 238.271 199.674,239.355 202.315,240.054 203.552 C 244.175 210.835,244.240 236.084,240.149 240.049 C 236.255 243.824,213.460 243.794,205.170 240.004 C 203.284 239.142,200.314 238.047,198.570 237.570 C 194.622 236.492,192.596 235.482,190.800 233.695 C 190.030 232.929,188.115 231.698,186.544 230.959 C 184.443 229.971,183.234 229.074,181.968 227.561 C 180.958 226.356,179.556 225.210,178.577 224.790 C 176.811 224.033,175.429 222.453,174.985 220.683 C 174.823 220.037,173.932 219.052,172.730 218.188 C 171.451 217.269,170.536 216.232,170.164 215.280 C 169.077 212.498,168.200 211.033,166.348 208.909 C 164.983 207.344,164.261 206.023,163.606 203.892 C 163.117 202.302,162.352 199.830,161.906 198.400 C 161.460 196.970,160.499 194.630,159.771 193.200 C 158.005 189.735,156.994 168.828,158.363 164.070 C 158.383 163.998,159.677 162.703,161.237 161.191 C 164.673 157.862,163.587 158.048,178.840 158.190 L 190.279 158.297 192.440 159.385 M127.584 176.113 C 126.649 176.852,124.800 179.411,124.800 179.966 C 124.800 180.589,122.672 183.740,120.912 185.723 C 120.169 186.560,119.023 188.371,118.366 189.748 C 117.708 191.124,116.436 193.139,115.538 194.225 C 113.592 196.579,113.424 196.986,112.157 202.400 C 111.617 204.710,110.511 208.580,109.700 211.000 L 108.226 215.400 108.243 224.800 L 108.260 234.200 109.713 238.400 C 110.512 240.710,111.618 244.528,112.170 246.883 C 113.417 252.197,113.892 253.336,115.805 255.600 C 116.641 256.590,117.853 258.556,118.497 259.968 C 119.175 261.452,120.487 263.357,121.606 264.483 C 122.671 265.553,123.910 267.188,124.359 268.115 C 125.260 269.975,128.996 273.766,132.400 276.273 C 133.610 277.165,135.273 278.534,136.095 279.316 C 136.918 280.098,138.582 281.206,139.793 281.779 C 141.004 282.352,142.998 283.639,144.226 284.638 C 146.673 286.631,147.927 287.161,153.618 288.604 C 155.718 289.137,158.238 289.927,159.218 290.360 C 166.159 293.429,185.766 293.688,192.221 290.796 C 193.113 290.397,196.193 289.445,199.064 288.681 C 204.933 287.120,206.803 286.344,208.103 284.932 C 208.597 284.396,210.587 283.150,212.526 282.162 C 214.743 281.033,216.862 279.569,218.235 278.218 C 219.523 276.950,221.283 275.710,222.529 275.194 C 225.684 273.886,226.143 272.323,224.786 267.505 C 224.194 265.403,223.234 265.001,218.800 264.996 C 216.472 264.993,213.373 264.655,210.800 264.123 C 208.490 263.645,204.718 262.955,202.418 262.589 C 197.264 261.769,193.671 260.686,192.167 259.501 C 190.990 258.574,189.808 258.063,186.000 256.836 C 182.922 255.844,180.660 254.621,178.210 252.625 C 177.051 251.681,175.058 250.398,173.782 249.774 C 172.442 249.118,170.602 247.727,169.430 246.484 C 168.314 245.298,166.770 243.989,166.000 243.574 C 164.213 242.609,163.213 241.726,162.060 240.094 C 161.552 239.376,160.631 238.526,160.013 238.207 C 159.395 237.887,158.072 236.385,157.073 234.869 C 156.074 233.353,154.549 231.552,153.684 230.867 C 152.695 230.083,151.659 228.675,150.894 227.073 C 150.225 225.672,148.863 223.527,147.868 222.305 C 145.739 219.691,144.653 217.666,143.563 214.276 C 143.124 212.914,142.332 210.990,141.801 210.000 C 139.094 204.954,138.922 204.310,136.591 190.418 C 135.974 186.742,135.586 182.993,135.635 181.168 C 135.745 176.987,135.417 176.584,131.457 176.033 C 127.808 175.526,128.340 175.515,127.584 176.113 M131.819 178.007 C 132.835 178.393,133.594 180.417,133.598 182.748 C 133.599 183.490,134.131 186.370,134.781 189.148 C 135.430 191.927,136.327 196.362,136.774 199.004 C 137.847 205.347,138.622 207.893,140.022 209.664 C 140.659 210.469,141.795 212.915,142.546 215.099 C 144.282 220.145,144.892 221.303,146.999 223.563 C 147.942 224.573,149.267 226.577,149.945 228.015 C 150.864 229.964,151.634 230.952,152.970 231.893 C 153.979 232.605,155.139 233.896,155.626 234.851 C 156.701 236.958,163.413 243.684,165.506 244.752 C 166.359 245.187,167.736 246.372,168.566 247.385 C 169.457 248.472,171.002 249.699,172.338 250.379 C 173.582 251.012,175.571 252.366,176.758 253.387 C 179.603 255.834,184.846 258.351,187.183 258.390 C 187.503 258.396,188.763 259.095,189.983 259.943 C 192.763 261.879,194.735 262.515,202.000 263.824 C 205.190 264.399,209.330 265.296,211.200 265.818 C 213.070 266.340,216.305 266.873,218.389 267.002 C 222.687 267.269,223.214 267.562,224.246 270.264 L 224.920 272.031 223.779 273.222 C 223.152 273.877,221.964 274.594,221.141 274.816 C 220.308 275.040,218.702 276.079,217.522 277.157 C 216.355 278.222,213.780 279.909,211.800 280.906 C 209.820 281.903,207.750 283.204,207.200 283.798 C 205.669 285.451,203.876 286.187,198.000 287.572 C 195.030 288.271,190.710 289.479,188.400 290.255 L 184.200 291.666 175.600 291.508 C 168.412 291.376,166.737 291.232,165.400 290.631 C 163.638 289.838,159.912 288.753,155.000 287.603 C 149.923 286.413,147.126 285.288,145.606 283.824 C 144.833 283.079,142.960 281.890,141.445 281.180 C 139.930 280.471,138.034 279.240,137.232 278.445 C 135.477 276.706,132.994 274.800,132.484 274.800 C 131.793 274.800,125.243 267.676,124.668 266.300 C 124.353 265.548,123.292 264.137,122.311 263.166 C 121.188 262.056,119.929 260.137,118.921 258.000 C 118.038 256.130,116.856 254.179,116.293 253.663 C 115.180 252.644,113.713 248.434,112.578 243.000 C 112.210 241.240,111.578 238.450,111.174 236.800 C 108.694 226.681,108.601 221.878,110.735 214.200 C 111.464 211.576,112.694 206.314,112.978 204.600 C 113.628 200.687,115.173 196.576,116.440 195.388 C 117.138 194.735,118.207 193.120,118.816 191.800 C 119.426 190.480,120.850 188.148,121.982 186.618 C 123.114 185.088,124.495 182.928,125.052 181.818 C 127.389 177.154,128.270 176.658,131.819 178.007 " stroke="none" fill="#fcda9c" fill-rule="evenodd"></path><path id="path3" d="M214.200 87.647 C 208.221 88.101,203.037 88.961,200.397 89.937 C 199.189 90.384,195.010 91.859,191.112 93.214 C 185.379 95.207,183.694 95.968,182.301 97.195 C 181.353 98.029,179.398 99.246,177.956 99.900 C 175.293 101.108,174.753 101.492,170.880 104.942 C 169.681 106.010,167.820 107.291,166.744 107.789 C 165.516 108.358,164.339 109.317,163.577 110.368 C 162.911 111.288,161.545 112.617,160.542 113.320 C 159.407 114.117,158.351 115.324,157.743 116.518 C 157.207 117.574,155.695 119.493,154.384 120.784 C 153.073 122.075,152.000 123.314,152.000 123.537 C 152.000 123.760,151.749 124.194,151.443 124.500 C 151.137 124.806,150.417 125.983,149.843 127.115 C 149.269 128.247,148.009 130.064,147.041 131.154 C 146.061 132.258,144.898 134.167,144.414 135.467 C 142.418 140.833,141.632 141.712,136.600 144.191 C 134.620 145.166,132.280 146.618,131.400 147.418 C 130.520 148.218,128.761 149.401,127.491 150.046 C 125.131 151.246,124.306 151.857,121.438 154.521 C 119.487 156.334,116.617 158.400,116.051 158.400 C 115.829 158.400,114.874 159.390,113.928 160.601 C 112.983 161.811,111.448 163.348,110.516 164.017 C 109.520 164.733,108.507 165.926,108.056 166.917 C 107.144 168.920,106.104 170.327,103.244 173.428 C 102.071 174.700,100.770 176.564,100.353 177.570 C 99.201 180.351,98.416 181.665,96.989 183.200 C 95.980 184.285,95.191 186.085,93.480 191.200 C 92.265 194.830,90.879 198.675,90.398 199.745 C 86.553 208.295,86.554 240.920,90.399 249.455 C 90.881 250.525,92.158 254.064,93.238 257.320 C 95.428 263.927,95.855 264.878,97.404 266.600 C 97.998 267.260,99.173 269.262,100.015 271.049 C 100.990 273.118,102.062 274.722,102.967 275.468 C 104.272 276.544,108.400 282.080,108.400 282.754 C 108.400 283.347,117.514 291.850,119.596 293.200 C 120.784 293.970,122.865 295.691,124.220 297.024 C 125.816 298.593,127.375 299.705,128.643 300.177 C 130.446 300.850,132.620 302.212,133.938 303.495 C 134.816 304.350,136.335 305.017,141.400 306.772 C 144.040 307.687,147.550 309.052,149.200 309.806 C 159.849 314.670,195.915 314.485,204.400 309.523 C 205.170 309.073,208.382 307.839,211.538 306.782 C 216.027 305.279,217.682 304.521,219.138 303.303 C 220.162 302.446,222.735 300.811,224.855 299.670 C 227.124 298.448,229.117 297.061,229.701 296.297 C 230.246 295.584,232.021 294.215,233.646 293.255 C 235.440 292.194,237.036 290.891,237.710 289.935 C 238.321 289.070,239.405 288.016,240.121 287.594 C 240.836 287.172,242.124 285.724,242.982 284.377 C 243.840 283.030,245.395 281.209,246.436 280.330 C 247.478 279.452,248.554 278.163,248.827 277.467 C 249.512 275.721,251.841 272.150,253.659 270.059 C 254.492 269.101,255.535 267.352,255.977 266.171 C 258.254 260.085,260.365 257.832,265.678 255.820 C 266.710 255.428,268.491 254.310,269.635 253.333 C 270.779 252.357,272.364 251.195,273.158 250.752 C 277.420 248.371,278.474 247.630,279.920 245.993 C 280.791 245.007,282.563 243.589,283.858 242.842 C 285.303 242.008,286.589 240.888,287.188 239.940 C 287.725 239.090,288.858 237.914,289.706 237.327 C 290.602 236.706,291.893 235.158,292.790 233.629 C 293.639 232.183,294.996 230.370,295.806 229.600 C 297.466 228.023,299.762 224.621,300.797 222.208 C 301.176 221.323,302.277 219.670,303.243 218.535 C 304.729 216.790,305.272 215.618,306.765 210.936 C 307.736 207.891,308.932 204.680,309.424 203.800 C 314.402 194.892,314.543 158.995,309.639 149.000 C 308.992 147.680,307.882 144.800,307.173 142.600 C 305.668 137.931,304.359 134.822,303.548 133.991 C 302.103 132.511,300.736 130.354,300.147 128.626 C 299.715 127.357,298.704 125.928,297.052 124.249 C 295.704 122.877,293.970 120.784,293.200 119.596 C 291.850 117.514,283.347 108.400,282.754 108.400 C 282.077 108.400,276.542 104.269,275.460 102.956 C 274.707 102.043,273.199 101.033,271.296 100.165 C 269.654 99.417,267.699 98.267,266.950 97.610 C 265.045 95.937,264.015 95.463,257.734 93.372 C 254.690 92.358,251.244 91.084,250.075 90.541 C 244.437 87.920,228.034 86.596,214.200 87.647 M242.000 90.365 C 242.990 90.626,245.420 91.639,247.400 92.615 C 250.206 93.999,251.993 94.565,255.504 95.183 C 260.659 96.091,261.359 96.384,262.972 98.306 C 264.279 99.865,267.171 101.354,270.218 102.038 C 272.646 102.583,273.146 102.951,274.251 105.012 C 275.117 106.629,275.547 106.945,278.900 108.441 C 279.945 108.907,280.800 109.532,280.800 109.831 C 280.800 110.494,283.445 113.200,284.094 113.200 C 284.733 113.200,287.200 115.635,287.200 116.265 C 287.200 116.934,289.878 119.600,290.550 119.600 C 290.837 119.600,291.626 120.736,292.303 122.123 C 293.604 124.791,294.075 125.318,296.309 126.600 C 297.521 127.296,297.816 127.791,298.571 130.400 C 299.533 133.726,301.084 136.443,302.578 137.422 C 303.789 138.216,304.578 140.325,305.414 145.000 C 306.086 148.759,306.982 151.208,308.426 153.236 C 311.722 157.865,312.186 195.752,308.977 198.182 C 308.070 198.868,306.112 203.626,305.593 206.406 C 304.492 212.297,303.616 214.481,301.584 216.400 C 300.222 217.687,299.544 218.713,299.206 220.000 C 298.463 222.828,297.583 224.331,296.189 225.154 C 294.691 226.037,292.124 229.718,291.547 231.809 C 291.111 233.385,290.110 234.584,288.911 234.965 C 287.784 235.323,285.560 237.614,284.964 239.032 C 284.327 240.548,283.741 241.054,282.198 241.420 C 280.753 241.764,277.609 244.108,275.338 246.534 C 274.241 247.707,273.012 248.531,271.720 248.960 C 269.183 249.803,268.180 250.531,267.014 252.378 C 266.256 253.578,265.741 253.939,264.503 254.137 C 259.489 254.939,255.899 258.551,254.613 264.087 C 254.258 265.612,253.716 266.836,253.233 267.200 C 252.796 267.530,251.966 268.133,251.390 268.540 C 250.807 268.953,249.752 270.577,249.008 272.210 C 248.051 274.310,246.812 276.060,244.636 278.387 C 242.414 280.763,241.598 281.924,241.594 282.717 C 241.585 284.227,241.243 284.629,239.304 285.405 C 237.319 286.199,235.386 288.242,235.013 289.939 C 234.785 290.977,234.525 291.173,233.075 291.401 C 231.077 291.714,227.891 293.776,225.721 296.160 C 224.622 297.368,223.437 298.144,221.775 298.746 C 218.456 299.947,217.536 300.522,216.473 302.059 C 215.487 303.483,213.790 304.142,207.800 305.422 C 204.118 306.210,201.783 307.086,199.675 308.472 C 193.858 312.298,158.407 312.095,152.600 308.204 C 150.462 306.771,148.051 305.964,143.115 305.029 C 139.512 304.346,138.699 303.966,137.194 302.261 C 135.854 300.742,132.634 299.041,129.503 298.198 C 127.512 297.662,127.104 297.381,126.445 296.090 C 125.499 294.235,124.795 293.633,121.900 292.204 C 120.635 291.580,119.600 290.835,119.600 290.548 C 119.600 289.900,116.943 287.200,116.306 287.200 C 115.667 287.200,113.200 284.765,113.200 284.135 C 113.200 283.456,110.517 280.800,109.831 280.800 C 109.532 280.800,108.907 279.945,108.441 278.900 C 106.903 275.452,106.615 275.069,104.918 274.216 C 102.736 273.118,102.904 273.358,101.978 270.016 C 100.931 266.240,99.934 264.338,98.266 262.939 C 96.387 261.361,96.088 260.640,95.183 255.504 C 94.566 252.001,93.996 250.200,92.619 247.400 C 89.919 241.912,89.800 240.956,89.800 224.800 C 89.800 209.996,90.106 206.445,91.609 203.800 C 91.984 203.140,92.662 201.970,93.114 201.200 C 93.567 200.430,94.234 198.270,94.598 196.400 C 96.012 189.125,96.376 188.110,98.285 186.093 C 100.392 183.867,100.989 182.810,101.637 180.160 C 102.364 177.191,102.986 176.233,104.743 175.379 C 106.088 174.726,106.593 174.102,107.864 171.519 C 108.712 169.797,109.781 168.224,110.290 167.952 C 110.791 167.684,111.200 167.348,111.200 167.205 C 111.200 166.437,119.333 158.984,121.590 157.683 C 123.375 156.654,124.446 155.716,125.037 154.663 C 126.023 152.905,127.404 151.969,130.119 151.217 C 131.552 150.820,132.464 150.206,133.719 148.794 C 134.936 147.424,135.964 146.719,137.442 146.238 C 142.351 144.642,144.688 142.157,145.949 137.192 C 146.640 134.472,146.838 134.139,148.218 133.366 C 149.795 132.483,150.470 131.466,152.244 127.300 C 152.985 125.560,153.527 124.800,154.026 124.800 C 154.420 124.800,155.116 124.305,155.574 123.700 C 156.031 123.095,156.810 122.078,157.303 121.440 C 157.796 120.802,158.470 119.612,158.800 118.795 C 159.590 116.837,160.251 116.092,161.978 115.211 C 162.766 114.809,164.363 113.385,165.529 112.045 C 167.087 110.253,168.408 109.228,170.524 108.170 C 173.908 106.476,174.559 105.946,175.221 104.350 C 175.720 103.144,178.105 101.604,179.484 101.596 C 180.777 101.589,184.173 99.726,185.570 98.258 C 187.139 96.608,188.907 95.943,194.664 94.838 C 198.666 94.069,200.033 93.556,202.800 91.778 C 206.256 89.558,235.011 88.522,242.000 90.365 M214.733 105.612 C 210.111 106.000,206.657 107.004,204.633 108.548 C 203.768 109.208,201.825 109.868,198.664 110.577 C 192.628 111.931,192.300 112.068,190.237 114.096 C 189.283 115.033,186.951 116.570,185.054 117.511 C 182.210 118.922,181.470 119.487,180.832 120.737 C 179.851 122.660,179.478 122.958,176.784 123.965 C 174.198 124.933,173.384 126.046,172.756 129.478 C 172.522 130.755,171.964 132.398,171.515 133.129 L 170.699 134.458 171.968 135.767 C 174.285 138.158,176.162 138.800,180.830 138.800 C 192.115 138.800,201.881 140.177,204.061 142.075 C 205.860 143.642,207.462 144.295,212.200 145.393 C 217.260 146.566,217.277 146.574,218.026 148.114 C 218.649 149.394,223.561 152.263,226.575 153.108 C 227.347 153.325,228.052 153.979,228.634 155.019 C 229.788 157.081,231.187 158.091,233.283 158.372 C 234.883 158.587,235.044 158.731,236.064 160.858 C 237.005 162.822,237.425 163.248,239.282 164.127 C 241.204 165.036,241.465 165.315,241.894 166.921 C 242.491 169.152,244.028 171.014,245.804 171.656 C 246.795 172.014,247.237 172.460,247.418 173.281 C 247.956 175.729,250.778 180.798,252.025 181.557 C 253.851 182.667,254.450 183.763,255.017 187.030 C 255.610 190.444,257.017 193.676,258.677 195.439 C 259.624 196.445,259.933 197.271,260.322 199.839 C 261.133 205.181,261.990 215.192,261.995 219.365 C 262.002 225.237,264.068 228.363,267.426 227.584 C 268.292 227.383,269.774 227.215,270.720 227.210 C 273.638 227.193,275.877 225.526,276.784 222.694 C 277.049 221.865,277.713 220.875,278.258 220.494 C 280.917 218.634,281.707 217.694,283.156 214.668 C 284.017 212.871,285.429 210.680,286.294 209.800 C 288.398 207.660,288.521 207.373,289.805 201.600 C 290.417 198.850,291.036 196.510,291.180 196.400 C 294.141 194.140,295.527 184.298,294.785 170.800 C 294.381 163.433,293.778 160.629,292.084 158.230 C 290.917 156.579,290.381 154.940,289.587 150.600 C 288.647 145.458,287.514 143.378,284.929 142.050 C 284.350 141.753,283.835 140.830,283.393 139.301 C 282.776 137.163,280.181 133.165,278.970 132.487 C 278.314 132.120,276.041 129.134,274.985 127.252 C 274.534 126.448,273.527 125.482,272.730 125.089 C 271.938 124.697,270.139 123.243,268.732 121.856 C 265.789 118.957,263.410 117.455,260.684 116.775 C 259.104 116.381,258.673 116.071,258.229 115.008 C 257.266 112.702,255.093 111.636,249.270 110.612 C 245.902 110.020,245.388 109.821,242.218 107.880 C 238.790 105.781,225.641 104.696,214.733 105.612 M240.192 110.219 C 243.139 111.198,245.822 112.000,246.154 112.000 C 247.966 112.000,253.281 114.139,255.002 115.561 C 256.033 116.413,258.056 117.685,259.497 118.388 C 260.938 119.090,263.035 120.529,264.158 121.585 C 265.281 122.642,266.867 123.860,267.682 124.293 C 268.945 124.964,274.800 130.436,274.800 130.946 C 274.800 131.428,277.725 135.372,278.921 136.504 C 279.675 137.217,280.876 138.970,281.590 140.400 C 282.304 141.830,283.601 143.933,284.473 145.074 C 286.302 147.468,287.292 149.870,288.359 154.504 C 288.776 156.317,289.598 159.330,290.186 161.200 C 292.830 169.617,293.079 186.352,290.634 191.252 C 290.264 191.993,289.331 195.098,288.562 198.151 C 287.046 204.172,286.256 206.061,284.611 207.596 C 284.025 208.143,282.817 210.081,281.927 211.902 C 281.015 213.769,279.453 216.126,278.346 217.307 C 277.267 218.458,275.833 220.535,275.161 221.922 C 273.745 224.843,273.119 225.188,269.901 224.821 C 265.946 224.369,265.405 223.668,265.375 218.951 C 265.358 216.319,265.048 213.732,264.447 211.200 C 263.950 209.110,263.123 204.842,262.609 201.716 C 261.688 196.122,261.188 194.658,258.603 190.000 C 258.054 189.010,257.310 187.210,256.951 186.000 C 256.216 183.529,254.237 179.394,253.600 179.000 C 252.818 178.517,250.127 174.606,249.320 172.779 C 248.850 171.716,247.803 170.394,246.804 169.603 C 245.863 168.858,244.507 167.337,243.790 166.224 C 243.074 165.111,242.063 163.800,241.544 163.311 C 239.690 161.563,238.183 160.055,237.099 158.861 C 236.493 158.194,235.124 157.173,234.057 156.592 C 232.989 156.011,231.432 154.718,230.597 153.719 C 229.679 152.620,228.273 151.538,227.039 150.980 C 225.053 150.083,222.766 148.581,219.851 146.259 C 219.063 145.632,216.884 144.607,215.009 143.981 C 213.134 143.355,209.935 142.026,207.900 141.029 C 205.862 140.029,202.871 138.938,201.239 138.600 C 194.788 137.261,186.772 136.237,182.382 136.191 C 175.518 136.119,174.800 135.474,174.800 129.386 C 174.800 127.438,176.676 125.365,178.829 124.934 C 179.468 124.806,181.119 123.668,182.498 122.405 C 183.876 121.142,186.346 119.433,187.987 118.607 C 189.627 117.780,191.787 116.427,192.785 115.600 C 195.328 113.492,195.662 113.357,202.263 111.778 C 205.504 111.003,208.346 110.212,208.578 110.022 C 212.130 107.106,231.186 107.225,240.192 110.219 M162.689 155.527 C 156.422 157.222,155.231 159.543,154.850 170.800 C 154.243 188.767,155.412 197.491,158.939 201.296 C 159.466 201.865,160.017 203.022,160.162 203.866 C 160.787 207.498,162.197 210.952,163.598 212.283 C 164.369 213.017,165.475 214.064,166.056 214.610 C 166.637 215.157,167.229 216.228,167.372 216.990 C 167.709 218.790,169.283 220.633,171.015 221.260 C 172.038 221.630,172.507 222.113,172.849 223.149 C 173.464 225.013,175.460 227.141,176.958 227.529 C 177.856 227.762,178.421 228.322,179.110 229.661 C 180.071 231.529,182.339 233.200,183.912 233.200 C 184.757 233.200,186.484 234.722,187.753 236.585 C 188.660 237.917,191.767 239.357,195.185 240.029 C 197.106 240.407,198.105 240.879,199.456 242.049 C 202.731 244.883,208.133 245.696,224.000 245.744 C 244.157 245.805,244.887 245.303,246.058 230.552 C 247.121 217.160,245.133 201.254,242.040 198.400 C 241.305 197.722,240.717 196.499,240.212 194.600 C 239.803 193.060,239.344 191.530,239.193 191.200 C 237.782 188.123,237.281 187.447,235.745 186.547 C 234.345 185.726,233.931 185.189,233.376 183.476 C 232.600 181.081,230.765 178.944,229.185 178.597 C 228.361 178.416,228.030 178.050,227.843 177.114 C 227.549 175.645,224.683 172.837,223.168 172.534 C 222.446 172.389,221.988 171.921,221.648 170.983 C 221.021 169.247,219.167 167.705,217.066 167.171 C 215.015 166.649,214.410 166.199,213.283 164.352 C 212.258 162.672,209.167 161.149,205.205 160.369 C 203.436 160.021,202.274 159.497,201.105 158.521 C 197.608 155.599,194.948 155.183,178.400 154.965 C 166.710 154.811,165.127 154.867,162.689 155.527 M191.600 157.768 C 193.250 158.160,195.950 159.080,197.600 159.812 C 199.250 160.544,201.950 161.536,203.600 162.016 C 207.337 163.103,208.264 163.578,210.613 165.612 C 211.645 166.504,213.703 167.846,215.187 168.594 C 216.994 169.503,218.434 170.607,219.544 171.933 C 220.482 173.053,221.864 174.179,222.723 174.523 C 223.860 174.977,224.613 175.730,225.708 177.503 C 226.513 178.808,227.866 180.335,228.715 180.896 C 229.768 181.593,230.717 182.792,231.708 184.678 C 232.506 186.196,233.549 187.790,234.026 188.219 C 235.678 189.707,237.268 192.450,238.375 195.725 C 238.986 197.535,240.042 200.092,240.720 201.408 C 245.070 209.849,245.757 232.758,241.884 240.235 C 239.236 245.349,212.113 245.448,202.000 240.380 C 200.790 239.774,198.450 238.880,196.800 238.395 C 192.988 237.272,192.060 236.784,189.632 234.628 C 188.544 233.663,186.397 232.211,184.859 231.403 C 183.046 230.450,181.701 229.412,181.034 228.449 C 180.468 227.632,179.274 226.522,178.381 225.982 C 175.617 224.310,174.800 223.572,174.800 222.745 C 174.800 222.290,173.703 220.884,172.248 219.474 C 170.781 218.052,169.158 215.967,168.430 214.571 C 167.734 213.235,166.438 211.263,165.549 210.188 C 163.502 207.710,163.085 206.884,162.025 203.200 C 161.551 201.550,160.560 198.940,159.825 197.400 C 154.359 185.958,155.781 158.400,161.837 158.400 C 162.099 158.400,163.097 158.034,164.056 157.587 C 166.463 156.466,186.680 156.598,191.600 157.768 M133.000 173.246 C 132.120 173.415,130.680 173.568,129.800 173.586 C 128.013 173.621,124.800 174.919,124.800 175.606 C 124.800 176.696,122.549 180.509,121.620 180.993 C 119.551 182.070,116.783 186.566,116.164 189.852 C 115.981 190.828,115.649 191.185,114.664 191.467 C 112.834 191.992,111.762 194.251,110.616 199.999 C 110.080 202.690,109.382 205.186,109.065 205.546 C 104.302 210.958,103.831 237.000,108.392 242.799 C 109.692 244.453,109.841 244.881,110.584 249.107 C 111.665 255.257,113.236 258.400,115.230 258.400 C 115.798 258.400,116.135 258.954,116.631 260.700 C 117.395 263.388,119.146 266.316,120.935 267.895 C 122.765 269.512,124.640 272.032,124.944 273.283 C 125.122 274.018,125.688 274.588,126.703 275.057 C 128.552 275.910,130.760 277.752,131.734 279.253 C 132.675 280.702,136.393 282.961,139.320 283.862 C 140.828 284.327,141.600 284.777,141.600 285.193 C 141.600 287.211,143.849 288.450,150.055 289.847 C 153.420 290.605,154.965 291.175,156.480 292.217 C 162.921 296.648,190.468 296.450,197.097 291.925 C 198.123 291.224,200.177 290.435,202.297 289.927 C 207.961 288.571,209.270 288.005,211.200 286.075 C 212.244 285.031,214.205 283.713,215.869 282.939 C 218.574 281.681,220.400 280.097,220.400 279.008 C 220.400 278.276,221.654 277.297,223.000 276.979 C 225.905 276.292,227.985 273.609,228.014 270.513 C 228.022 269.681,228.286 268.550,228.600 268.000 C 230.318 264.995,224.931 261.122,219.982 261.802 C 214.347 262.577,197.826 260.233,195.687 258.355 C 193.866 256.756,191.560 255.787,187.709 255.003 C 183.274 254.101,183.273 254.100,182.153 252.326 C 181.173 250.773,174.822 247.200,173.042 247.200 C 172.728 247.200,172.069 246.370,171.578 245.355 C 170.681 243.502,167.817 241.614,165.886 241.604 C 165.429 241.601,164.907 240.987,164.438 239.900 C 163.580 237.914,162.552 236.905,160.260 235.800 C 158.846 235.119,158.564 234.774,158.359 233.474 C 158.037 231.437,156.908 229.970,154.916 229.000 C 153.690 228.403,153.209 227.896,153.021 227.000 C 152.453 224.295,149.448 219.043,148.106 218.410 C 146.662 217.729,145.998 216.273,145.228 212.093 C 144.641 208.912,143.603 206.486,142.086 204.759 C 140.169 202.575,138.800 193.245,138.800 182.365 C 138.800 177.620,138.306 175.732,136.708 174.364 C 135.216 173.086,134.677 172.924,133.000 173.246 M131.457 176.033 C 135.417 176.584,135.745 176.987,135.635 181.168 C 135.586 182.993,135.974 186.742,136.591 190.418 C 138.922 204.310,139.094 204.954,141.801 210.000 C 142.332 210.990,143.124 212.914,143.563 214.276 C 144.653 217.666,145.739 219.691,147.868 222.305 C 148.863 223.527,150.225 225.672,150.894 227.073 C 151.659 228.675,152.695 230.083,153.684 230.867 C 154.549 231.552,156.074 233.353,157.073 234.869 C 158.072 236.385,159.395 237.887,160.013 238.207 C 160.631 238.526,161.552 239.376,162.060 240.094 C 163.213 241.726,164.213 242.609,166.000 243.574 C 166.770 243.989,168.314 245.298,169.430 246.484 C 170.602 247.727,172.442 249.118,173.782 249.774 C 175.058 250.398,177.051 251.681,178.210 252.625 C 180.660 254.621,182.922 255.844,186.000 256.836 C 189.808 258.063,190.990 258.574,192.167 259.501 C 193.671 260.686,197.264 261.769,202.418 262.589 C 204.718 262.955,208.490 263.645,210.800 264.123 C 213.373 264.655,216.472 264.993,218.800 264.996 C 223.234 265.001,224.194 265.403,224.786 267.505 C 226.143 272.323,225.684 273.886,222.529 275.194 C 221.283 275.710,219.523 276.950,218.235 278.218 C 216.862 279.569,214.743 281.033,212.526 282.162 C 210.587 283.150,208.597 284.396,208.103 284.932 C 206.803 286.344,204.933 287.120,199.064 288.681 C 196.193 289.445,193.113 290.397,192.221 290.796 C 185.766 293.688,166.159 293.429,159.218 290.360 C 158.238 289.927,155.718 289.137,153.618 288.604 C 147.927 287.161,146.673 286.631,144.226 284.638 C 142.998 283.639,141.004 282.352,139.793 281.779 C 138.582 281.206,136.918 280.098,136.095 279.316 C 135.273 278.534,133.610 277.165,132.400 276.273 C 128.996 273.766,125.260 269.975,124.359 268.115 C 123.910 267.188,122.671 265.553,121.606 264.483 C 120.487 263.357,119.175 261.452,118.497 259.968 C 117.853 258.556,116.641 256.590,115.805 255.600 C 113.892 253.336,113.417 252.197,112.170 246.883 C 111.618 244.528,110.512 240.710,109.713 238.400 L 108.260 234.200 108.243 224.800 L 108.226 215.400 109.700 211.000 C 110.511 208.580,111.617 204.710,112.157 202.400 C 113.424 196.986,113.592 196.579,115.538 194.225 C 116.436 193.139,117.708 191.124,118.366 189.748 C 119.023 188.371,120.169 186.560,120.912 185.723 C 122.672 183.740,124.800 180.589,124.800 179.966 C 124.800 179.215,127.573 175.738,128.271 175.613 C 128.310 175.606,129.744 175.795,131.457 176.033 " stroke="none" fill="#fce6c1" fill-rule="evenodd"></path><path id="path4" d="M217.000 84.825 C 201.852 85.884,192.111 88.004,191.490 90.378 C 191.352 90.905,190.803 91.226,189.744 91.397 C 183.599 92.391,179.245 94.369,178.578 96.470 C 178.450 96.872,178.146 97.200,177.900 97.200 C 176.368 97.200,169.900 100.974,169.006 102.390 C 168.006 103.975,166.069 105.590,165.138 105.614 C 164.033 105.643,162.743 106.696,161.490 108.591 C 160.747 109.716,159.522 110.909,158.600 111.407 C 157.453 112.026,156.714 112.845,155.991 114.303 C 154.739 116.825,153.821 117.858,152.108 118.671 C 151.042 119.176,150.454 119.972,149.190 122.622 C 148.103 124.899,146.983 126.530,145.618 127.822 C 143.635 129.699,143.306 130.374,141.938 135.360 C 141.538 136.819,141.067 137.535,140.098 138.160 C 139.382 138.622,138.581 139.477,138.318 140.059 C 137.835 141.131,135.782 142.157,132.112 143.163 C 130.938 143.484,130.025 144.117,129.112 145.243 C 128.390 146.132,127.080 147.203,126.200 147.621 C 122.075 149.582,119.793 151.072,119.214 152.185 C 118.386 153.776,117.378 154.644,114.996 155.816 C 113.568 156.519,112.683 157.316,111.913 158.590 C 111.319 159.573,109.922 161.032,108.808 161.833 C 107.389 162.852,106.489 163.905,105.805 165.344 C 104.814 167.429,103.866 168.572,101.925 170.018 C 100.736 170.903,98.633 174.529,97.912 176.936 C 97.585 178.028,97.001 178.768,95.935 179.441 C 93.843 180.761,91.600 186.173,91.600 189.898 C 91.600 190.830,91.294 191.364,90.391 192.006 C 83.421 196.969,82.991 250.768,89.872 256.810 C 91.070 257.862,91.397 258.485,91.673 260.241 C 92.459 265.253,93.905 268.722,95.616 269.698 C 96.940 270.453,97.368 271.042,98.237 273.307 C 99.217 275.862,101.377 278.989,102.678 279.738 C 103.002 279.925,104.117 281.380,105.157 282.973 C 107.390 286.394,113.421 292.553,116.921 294.987 C 118.284 295.936,120.436 297.707,121.702 298.924 C 123.127 300.292,124.728 301.393,125.902 301.810 C 128.992 302.908,129.410 303.185,130.201 304.654 C 131.223 306.551,134.350 307.901,139.315 308.588 C 140.815 308.796,141.507 309.159,142.515 310.267 C 144.733 312.708,146.776 313.298,158.200 314.797 C 161.720 315.259,166.382 316.078,168.559 316.618 C 173.897 317.942,181.727 317.765,185.600 316.234 C 186.370 315.929,189.520 315.376,192.600 315.005 C 205.869 313.404,207.829 312.929,209.700 310.858 C 211.320 309.065,211.612 308.934,215.778 308.143 C 219.691 307.400,220.921 306.793,223.126 304.515 C 224.106 303.502,225.834 302.308,227.126 301.749 C 231.062 300.047,231.382 299.825,232.150 298.258 C 232.909 296.710,234.840 295.204,236.069 295.201 C 236.920 295.200,239.200 293.301,239.200 292.595 C 239.200 291.850,241.157 289.600,241.805 289.600 C 242.786 289.600,244.741 287.590,245.223 286.087 C 245.765 284.393,247.067 282.800,247.910 282.800 C 248.826 282.800,251.199 280.170,251.212 279.140 C 251.231 277.709,253.001 275.132,254.355 274.562 C 255.847 273.935,257.805 270.271,258.190 267.385 C 258.511 264.982,259.138 263.600,259.908 263.600 C 260.654 263.600,263.200 261.050,263.200 260.302 C 263.200 259.260,264.551 258.511,267.651 257.834 C 270.500 257.211,270.874 257.002,273.327 254.655 C 275.659 252.425,276.806 251.719,280.323 250.354 C 280.845 250.152,281.575 249.258,282.003 248.298 C 282.811 246.483,283.666 245.768,286.190 244.797 C 287.439 244.316,288.042 243.715,289.004 241.992 C 289.958 240.284,290.631 239.609,292.055 238.932 C 293.603 238.196,294.015 237.740,294.759 235.932 C 295.846 233.290,296.641 232.321,298.272 231.650 C 299.010 231.346,299.795 230.596,300.141 229.863 C 300.470 229.168,301.372 227.226,302.147 225.546 C 303.190 223.285,303.913 222.272,304.935 221.640 C 306.545 220.645,307.337 219.128,307.987 215.800 C 308.924 210.995,309.234 210.233,310.833 208.800 C 312.835 207.006,313.310 205.192,314.605 194.400 C 315.146 189.890,315.793 185.390,316.044 184.400 C 316.861 181.172,316.986 172.366,316.259 169.310 C 315.904 167.820,315.151 162.675,314.587 157.877 C 313.331 147.207,312.584 144.507,310.403 142.754 C 309.096 141.704,308.795 141.183,308.605 139.646 C 308.369 137.731,307.471 134.221,306.722 132.285 C 306.478 131.654,305.541 130.730,304.566 130.159 C 303.093 129.296,302.751 128.837,302.220 127.009 C 301.618 124.940,299.236 121.437,297.681 120.336 C 297.265 120.041,296.100 118.594,295.093 117.121 C 292.728 113.658,286.508 107.446,283.417 105.459 C 282.088 104.604,280.194 103.093,279.208 102.100 C 277.049 99.924,275.173 98.722,272.910 98.065 C 271.629 97.693,270.925 97.145,269.998 95.797 C 268.700 93.911,263.046 91.600,259.728 91.600 C 258.743 91.600,258.207 91.306,257.536 90.399 C 255.790 88.038,253.307 87.282,243.141 86.016 C 230.557 84.449,225.611 84.223,217.000 84.825 M239.800 86.796 C 247.437 87.847,250.980 88.833,254.800 90.970 C 255.350 91.278,257.690 92.110,260.000 92.818 C 265.027 94.361,266.124 94.882,268.139 96.689 C 268.986 97.448,270.874 98.605,272.336 99.261 C 273.925 99.974,275.639 101.135,276.597 102.148 C 277.479 103.080,279.550 104.718,281.200 105.789 C 285.013 108.264,291.977 115.245,294.788 119.410 C 295.979 121.175,297.625 123.155,298.444 123.810 C 299.431 124.598,300.312 125.878,301.053 127.600 C 301.669 129.030,302.828 130.920,303.629 131.800 C 305.585 133.947,308.400 140.437,308.400 142.797 C 308.400 143.152,308.965 144.334,309.655 145.422 C 316.219 155.766,316.299 197.431,309.772 206.611 C 309.018 207.672,308.400 208.837,308.400 209.200 C 308.400 211.796,305.648 218.539,303.993 220.000 C 303.370 220.550,302.013 222.620,300.978 224.600 C 299.944 226.580,298.168 229.190,297.031 230.400 C 295.895 231.610,294.534 233.320,294.005 234.200 C 292.752 236.287,286.071 243.001,283.839 244.416 C 282.881 245.024,281.581 246.178,280.949 246.981 C 280.310 247.793,278.113 249.437,276.000 250.686 C 273.910 251.920,271.626 253.499,270.924 254.194 C 270.222 254.889,268.872 255.776,267.924 256.166 C 261.304 258.887,258.982 261.211,256.931 267.167 C 256.294 269.019,254.494 272.000,254.013 272.000 C 253.643 272.000,251.193 275.655,249.783 278.310 C 249.164 279.475,248.091 280.773,247.387 281.208 C 246.221 281.929,245.329 283.039,243.450 286.108 C 243.076 286.717,242.035 287.749,241.135 288.401 C 240.235 289.053,238.945 290.307,238.267 291.188 C 237.590 292.069,235.886 293.463,234.481 294.285 C 233.075 295.107,231.397 296.446,230.752 297.261 C 230.002 298.208,228.175 299.495,225.689 300.828 C 223.550 301.975,221.052 303.597,220.137 304.431 C 218.569 305.861,212.070 308.400,209.976 308.400 C 209.615 308.400,208.540 308.965,207.586 309.656 C 198.563 316.192,155.636 316.432,145.927 310.001 C 144.916 309.332,142.697 308.419,140.995 307.974 C 136.913 306.904,133.269 305.196,131.860 303.691 C 131.234 303.021,129.434 301.904,127.860 301.209 C 125.921 300.351,124.617 299.463,123.810 298.449 C 123.155 297.627,121.175 295.979,119.410 294.788 C 115.245 291.977,108.264 285.013,105.789 281.200 C 104.718 279.550,103.087 277.480,102.163 276.600 C 101.150 275.634,99.985 273.890,99.224 272.200 C 98.530 270.660,97.362 268.770,96.628 268.000 C 94.854 266.137,91.628 258.427,91.606 255.993 C 91.603 255.659,91.182 254.759,90.670 253.993 C 84.749 245.123,84.523 206.231,90.333 195.838 C 90.959 194.717,91.573 193.440,91.696 193.000 C 93.808 185.456,95.006 182.478,96.311 181.526 C 97.348 180.770,98.554 178.877,99.324 176.797 C 99.692 175.805,101.180 173.645,102.631 171.997 C 104.083 170.349,106.004 167.817,106.901 166.371 C 107.798 164.925,109.132 163.348,109.866 162.867 C 110.600 162.386,111.743 161.243,112.406 160.328 C 113.069 159.413,114.734 157.908,116.106 156.985 C 117.478 156.061,119.230 154.646,120.000 153.839 C 121.902 151.845,124.799 149.780,127.455 148.522 C 128.669 147.947,129.946 147.044,130.293 146.514 C 130.664 145.948,132.671 144.720,135.162 143.534 C 140.976 140.766,141.692 139.945,143.781 133.656 C 144.239 132.278,145.052 131.005,146.140 129.963 C 147.053 129.088,148.160 127.683,148.600 126.840 C 150.837 122.555,151.474 121.630,153.594 119.591 C 154.857 118.376,156.277 116.626,156.748 115.702 C 157.231 114.756,158.521 113.326,159.702 112.428 C 160.856 111.551,162.153 110.298,162.586 109.643 C 163.018 108.988,164.455 107.766,165.780 106.926 C 167.105 106.087,169.304 104.392,170.667 103.161 C 172.031 101.930,174.534 100.236,176.231 99.398 C 177.928 98.559,180.148 97.137,181.166 96.237 C 182.704 94.877,183.860 94.340,188.008 93.059 C 190.754 92.212,193.450 91.275,194.000 90.979 C 194.550 90.682,195.630 90.096,196.400 89.676 C 198.306 88.637,202.424 87.722,208.400 87.011 C 211.150 86.683,213.940 86.337,214.600 86.242 C 216.835 85.918,236.579 86.352,239.800 86.796 M219.336 109.249 C 217.761 109.394,215.601 109.790,214.536 110.131 C 212.211 110.874,209.397 111.575,203.000 113.006 C 197.249 114.292,195.945 114.800,194.036 116.502 C 193.235 117.216,190.991 118.610,189.049 119.600 C 187.106 120.590,184.771 122.081,183.859 122.914 C 182.946 123.746,181.179 124.889,179.932 125.454 C 176.302 127.097,175.875 127.752,176.605 130.556 C 177.649 134.563,177.574 134.505,181.332 134.209 C 183.960 134.001,185.227 134.114,187.800 134.785 C 189.560 135.243,193.270 135.967,196.044 136.392 C 203.958 137.605,206.595 138.316,208.881 139.855 C 210.013 140.617,212.924 141.898,215.349 142.703 C 219.029 143.923,220.225 144.540,222.579 146.430 C 224.131 147.676,226.492 149.244,227.826 149.916 C 229.336 150.676,230.821 151.832,231.760 152.978 C 232.590 153.990,234.006 155.195,234.907 155.655 C 236.995 156.720,243.460 163.208,244.926 165.709 C 245.541 166.759,246.731 168.051,247.570 168.581 C 248.631 169.251,249.483 170.313,250.369 172.072 C 251.069 173.462,252.467 175.500,253.476 176.600 C 255.502 178.810,256.878 181.476,257.980 185.329 C 258.390 186.762,259.333 188.691,260.143 189.752 C 261.856 191.997,262.486 193.980,263.842 201.400 C 264.404 204.480,265.306 208.350,265.845 210.000 C 266.412 211.734,266.997 214.857,267.230 217.400 C 267.682 222.320,267.961 222.797,270.893 223.675 C 272.753 224.233,274.018 223.175,274.808 220.400 C 275.028 219.630,276.066 217.971,277.116 216.713 C 278.166 215.455,279.998 212.609,281.187 210.388 C 282.376 208.166,283.692 206.165,284.112 205.940 C 285.533 205.180,286.319 202.609,289.417 188.594 C 289.709 187.271,290.154 185.651,290.405 184.994 C 291.231 182.835,291.397 174.068,290.670 170.960 C 290.315 169.442,289.377 165.230,288.584 161.600 C 286.514 152.117,285.382 148.708,283.581 146.528 C 282.750 145.522,281.755 143.867,281.370 142.850 C 280.397 140.281,279.050 138.232,277.702 137.272 C 277.073 136.825,276.048 135.501,275.423 134.329 C 274.213 132.061,267.159 124.800,266.166 124.800 C 265.851 124.800,264.522 123.815,263.212 122.611 C 261.831 121.342,259.690 119.905,258.115 119.191 C 256.622 118.515,254.853 117.431,254.184 116.784 C 252.976 115.614,249.220 113.913,246.712 113.401 C 244.955 113.042,239.661 111.813,233.800 110.403 C 228.712 109.179,224.101 108.811,219.336 109.249 M231.000 112.596 C 245.163 114.063,249.537 114.988,250.458 116.708 C 251.048 117.811,254.400 119.622,257.621 120.579 C 260.254 121.361,260.883 121.821,261.548 123.455 C 261.964 124.475,262.462 124.836,264.218 125.388 C 266.348 126.058,268.800 128.175,268.800 129.344 C 268.800 130.020,270.363 131.436,271.482 131.775 C 272.817 132.180,274.370 134.269,274.653 136.044 C 274.900 137.589,276.298 139.200,277.392 139.200 C 278.273 139.200,279.203 140.645,279.801 142.941 C 280.631 146.127,282.645 149.946,283.763 150.456 C 285.076 151.054,285.551 152.786,286.819 161.600 C 288.150 170.850,288.353 180.633,287.370 188.200 C 286.249 196.831,286.096 197.768,285.350 200.538 C 284.781 202.650,284.382 203.396,283.605 203.797 C 282.012 204.621,281.125 205.837,280.578 207.947 C 280.089 209.829,279.348 211.137,276.806 214.600 C 276.160 215.480,274.902 217.685,274.012 219.500 C 273.121 221.315,272.259 222.797,272.096 222.794 C 270.366 222.758,269.090 219.101,268.819 213.400 C 268.589 208.542,268.374 207.773,266.574 205.358 C 265.879 204.426,265.355 202.523,264.471 197.722 C 263.121 190.388,262.186 187.894,260.411 186.892 C 259.175 186.195,259.065 185.944,258.032 181.469 C 257.290 178.254,255.949 175.874,254.459 175.130 C 252.804 174.304,252.124 173.361,251.383 170.868 C 250.737 168.693,250.027 167.905,247.919 167.024 C 246.811 166.561,246.354 166.061,245.984 164.909 C 245.280 162.709,243.797 160.923,242.195 160.344 C 241.159 159.969,240.572 159.381,239.950 158.097 C 239.039 156.215,238.026 155.382,235.696 154.602 C 234.543 154.216,233.979 153.678,233.236 152.255 C 232.260 150.385,231.946 150.171,227.244 148.174 C 225.965 147.631,225.334 147.062,224.926 146.085 C 224.249 144.464,220.823 142.698,216.673 141.829 C 214.556 141.387,213.750 140.994,212.708 139.897 C 210.901 137.996,208.126 137.078,200.247 135.775 C 194.650 134.850,193.296 134.492,192.336 133.685 C 191.349 132.854,190.456 132.635,186.287 132.201 C 181.030 131.654,178.719 130.943,178.032 129.660 C 177.316 128.322,177.499 128.063,180.073 126.763 C 182.787 125.393,184.913 124.066,187.475 122.143 C 188.396 121.451,190.016 120.577,191.075 120.200 C 192.134 119.822,193.511 119.324,194.136 119.093 C 194.761 118.862,195.718 118.000,196.262 117.179 C 197.330 115.565,199.623 114.728,205.000 113.989 C 220.656 111.839,222.656 111.731,231.000 112.596 M165.737 158.263 C 164.333 158.414,158.717 162.837,158.363 164.070 C 156.994 168.828,158.005 189.735,159.771 193.200 C 160.499 194.630,161.460 196.970,161.906 198.400 C 162.352 199.830,163.117 202.302,163.606 203.892 C 164.261 206.023,164.983 207.344,166.348 208.909 C 168.200 211.033,169.077 212.498,170.164 215.280 C 170.536 216.232,171.451 217.269,172.730 218.188 C 173.932 219.052,174.823 220.037,174.985 220.683 C 175.429 222.453,176.811 224.033,178.577 224.790 C 179.556 225.210,180.958 226.356,181.968 227.561 C 183.234 229.074,184.443 229.971,186.544 230.959 C 188.115 231.698,190.030 232.929,190.800 233.695 C 192.596 235.482,194.622 236.492,198.570 237.570 C 200.314 238.047,203.284 239.142,205.170 240.004 C 213.460 243.794,236.255 243.824,240.149 240.049 C 244.240 236.084,244.175 210.835,240.054 203.552 C 239.355 202.315,238.271 199.674,237.647 197.682 C 236.507 194.046,234.682 190.400,234.002 190.400 C 233.468 190.400,231.401 187.244,230.757 185.446 C 230.395 184.436,229.333 183.131,227.721 181.716 C 226.183 180.366,225.069 179.016,224.787 178.161 C 224.314 176.728,221.985 174.800,220.726 174.800 C 220.347 174.800,219.714 174.319,219.319 173.732 C 217.932 171.671,216.113 170.194,214.107 169.498 C 212.994 169.112,211.209 168.013,210.141 167.055 C 207.669 164.837,205.718 163.853,201.765 162.834 C 198.111 161.891,195.490 160.922,192.440 159.385 L 190.279 158.297 178.840 158.190 C 172.548 158.131,166.652 158.164,165.737 158.263 M188.200 160.151 C 189.520 160.769,191.083 161.531,191.674 161.844 C 192.265 162.158,195.372 162.946,198.579 163.596 C 205.159 164.928,205.531 165.078,207.405 167.153 C 208.841 168.743,211.893 170.424,214.711 171.179 C 216.147 171.563,216.519 171.880,217.029 173.155 C 217.628 174.652,219.935 176.400,221.312 176.400 C 222.272 176.400,223.627 178.073,224.341 180.140 C 224.897 181.745,225.310 182.212,226.980 183.122 C 228.767 184.095,229.024 184.415,229.610 186.400 C 230.405 189.093,231.685 191.103,233.435 192.411 C 234.706 193.361,236.400 196.540,236.400 197.977 C 236.400 201.001,239.077 208.180,240.356 208.586 C 241.482 208.943,241.742 211.992,241.708 224.460 C 241.679 235.477,241.555 236.800,240.556 236.800 C 240.231 236.800,238.858 237.894,237.503 239.232 L 235.041 241.664 223.821 241.517 L 212.600 241.371 210.600 240.209 C 209.500 239.570,208.497 238.898,208.372 238.716 C 208.060 238.263,206.178 237.754,201.213 236.778 C 196.271 235.807,194.111 234.978,193.776 233.926 C 193.437 232.857,189.878 230.592,186.816 229.496 C 184.499 228.667,184.137 228.385,183.300 226.759 C 182.503 225.210,182.064 224.840,180.284 224.215 C 177.640 223.288,177.032 222.752,176.462 220.848 C 175.853 218.817,174.622 217.304,173.042 216.643 C 172.043 216.226,171.643 215.719,171.235 214.354 C 170.410 211.597,168.454 208.130,167.004 206.857 C 165.116 205.200,164.849 204.540,163.602 198.450 C 162.567 193.399,161.222 189.770,159.711 187.953 C 159.014 187.116,158.562 179.714,158.720 171.712 L 158.840 165.623 161.192 163.973 C 162.486 163.065,164.004 161.629,164.565 160.782 C 165.795 158.923,166.149 158.875,178.000 158.968 C 185.649 159.028,185.846 159.051,188.200 160.151 M127.079 178.464 C 126.520 179.199,125.608 180.708,125.052 181.818 C 124.495 182.928,123.114 185.088,121.982 186.618 C 120.850 188.148,119.426 190.480,118.816 191.800 C 118.207 193.120,117.138 194.735,116.440 195.388 C 115.173 196.576,113.628 200.687,112.978 204.600 C 112.694 206.314,111.464 211.576,110.735 214.200 C 108.601 221.878,108.694 226.681,111.174 236.800 C 111.578 238.450,112.210 241.240,112.578 243.000 C 113.713 248.434,115.180 252.644,116.293 253.663 C 116.856 254.179,118.038 256.130,118.921 258.000 C 119.929 260.137,121.188 262.056,122.311 263.166 C 123.292 264.137,124.353 265.548,124.668 266.300 C 125.243 267.676,131.793 274.800,132.484 274.800 C 132.994 274.800,135.477 276.706,137.232 278.445 C 138.034 279.240,139.930 280.471,141.445 281.180 C 142.960 281.890,144.833 283.079,145.606 283.824 C 147.126 285.288,149.923 286.413,155.000 287.603 C 159.912 288.753,163.638 289.838,165.400 290.631 C 166.737 291.232,168.412 291.376,175.600 291.508 L 184.200 291.666 188.400 290.255 C 190.710 289.479,195.030 288.271,198.000 287.572 C 203.876 286.187,205.669 285.451,207.200 283.798 C 207.750 283.204,209.820 281.903,211.800 280.906 C 213.780 279.909,216.355 278.222,217.522 277.157 C 218.702 276.079,220.308 275.040,221.141 274.816 C 221.964 274.594,223.152 273.877,223.779 273.222 L 224.920 272.031 224.246 270.264 C 223.214 267.562,222.687 267.269,218.389 267.002 C 216.305 266.873,213.070 266.340,211.200 265.818 C 209.330 265.296,205.190 264.399,202.000 263.824 C 194.735 262.515,192.763 261.879,189.983 259.943 C 188.763 259.095,187.503 258.396,187.183 258.390 C 184.846 258.351,179.603 255.834,176.758 253.387 C 175.571 252.366,173.582 251.012,172.338 250.379 C 171.002 249.699,169.457 248.472,168.566 247.385 C 167.736 246.372,166.359 245.187,165.506 244.752 C 163.413 243.684,156.701 236.958,155.626 234.851 C 155.139 233.896,153.979 232.605,152.970 231.893 C 151.634 230.952,150.864 229.964,149.945 228.015 C 149.267 226.577,147.942 224.573,146.999 223.563 C 144.892 221.303,144.282 220.145,142.546 215.099 C 141.795 212.915,140.659 210.469,140.022 209.664 C 138.622 207.893,137.847 205.347,136.774 199.004 C 136.327 196.362,135.430 191.927,134.781 189.148 C 134.131 186.370,133.599 183.490,133.598 182.748 C 133.592 179.116,132.736 177.999,129.490 177.391 C 128.239 177.156,127.990 177.267,127.079 178.464 M131.039 181.892 C 131.519 182.874,131.863 184.759,132.025 187.294 C 132.244 190.729,132.421 191.426,133.527 193.205 C 134.560 194.868,134.959 196.256,135.798 201.111 C 137.334 210.008,138.147 212.123,140.544 213.465 C 141.001 213.720,141.455 214.872,141.849 216.777 C 142.706 220.918,144.285 224.061,145.856 224.753 C 147.178 225.336,148.367 227.128,149.203 229.800 C 149.864 231.910,150.238 232.330,152.363 233.345 C 153.787 234.025,154.226 234.483,154.510 235.585 C 155.043 237.655,156.329 239.214,158.178 240.031 C 159.412 240.577,160.009 241.169,160.539 242.371 C 161.328 244.158,162.642 245.243,164.909 245.978 C 166.058 246.351,166.562 246.813,167.024 247.919 C 167.900 250.016,168.692 250.737,170.810 251.366 C 173.397 252.134,174.342 252.784,175.064 254.290 C 175.750 255.723,179.802 257.923,182.383 258.264 C 185.166 258.632,185.592 258.829,187.285 260.533 C 189.355 262.615,190.901 263.156,198.973 264.622 C 204.243 265.579,205.171 265.868,206.851 267.075 C 208.645 268.364,208.986 268.454,212.678 268.626 C 219.953 268.963,222.198 269.487,222.927 271.017 C 223.410 272.029,223.446 272.426,223.079 272.718 C 222.461 273.209,218.817 274.800,218.311 274.800 C 218.097 274.800,217.085 275.541,216.061 276.447 C 214.399 277.918,211.658 279.418,207.087 281.358 C 206.186 281.740,205.241 282.563,204.753 283.391 C 203.837 284.943,203.043 285.254,197.600 286.193 C 178.003 289.575,176.465 289.655,165.400 287.868 C 150.285 285.427,150.748 285.561,147.306 282.622 C 146.065 281.563,144.517 280.662,143.506 280.411 C 140.931 279.772,139.202 278.765,138.565 277.532 C 137.727 275.912,136.387 274.800,135.272 274.800 C 134.624 274.800,133.720 274.179,132.590 272.958 C 130.765 270.985,130.095 270.309,127.476 267.786 C 126.504 266.851,125.548 265.427,125.200 264.399 C 124.782 263.165,124.237 262.439,123.407 262.013 C 121.740 261.157,121.322 260.554,120.418 257.701 C 119.436 254.599,117.852 251.653,116.601 250.600 C 115.028 249.276,114.857 248.623,113.403 238.400 C 111.008 221.563,112.971 202.422,117.616 197.315 C 119.032 195.759,119.637 194.695,120.001 193.115 C 120.583 190.597,121.220 189.502,123.267 187.500 C 124.110 186.676,124.800 185.661,124.800 185.246 C 124.800 184.830,125.565 183.233,126.500 181.696 L 128.200 178.901 129.251 179.643 C 129.829 180.050,130.633 181.063,131.039 181.892 " stroke="none" fill="#fcd484" fill-rule="evenodd"></path></g></svg>