<svg id="svg" version="1.1" xmlns="http://www.w3.org/2000/svg" xmlns:xlink="http://www.w3.org/1999/xlink" width="400" height="400" viewBox="0, 0, 400,400"><g id="svgg"><path id="path0" d="M101.775 91.950 C 100.551 92.697,97.107 96.440,97.387 96.720 C 97.761 97.095,100.544 95.354,101.580 94.097 C 102.490 92.994,103.411 91.193,103.063 91.201 C 103.028 91.202,102.449 91.539,101.775 91.950 M297.373 92.257 C 297.970 94.684,299.563 96.188,302.021 96.645 L 303.400 96.901 301.000 94.421 C 297.896 91.215,296.982 90.669,297.373 92.257 M117.517 104.300 C 117.421 104.685,117.295 106.080,117.237 107.400 C 117.132 109.812,116.719 110.800,115.813 110.800 C 115.012 110.800,114.000 109.411,114.000 108.313 C 114.000 105.990,111.320 104.713,107.822 105.369 C 103.956 106.095,103.953 113.473,107.820 114.447 C 109.917 114.975,110.069 115.157,110.607 117.792 C 111.143 120.414,112.004 120.868,116.136 120.710 C 119.744 120.573,120.145 120.266,120.547 117.338 C 120.908 114.703,121.286 114.400,124.216 114.400 C 127.313 114.400,128.000 114.156,128.000 113.057 C 128.000 112.245,127.813 112.200,124.414 112.200 C 119.619 112.200,119.400 111.981,119.400 107.186 C 119.400 103.792,119.354 103.600,118.547 103.600 C 118.068 103.600,117.616 103.907,117.517 104.300 M288.124 105.386 C 287.099 105.832,286.798 106.243,286.598 107.471 C 286.199 109.921,285.707 110.760,284.514 111.025 C 280.459 111.924,280.000 112.451,280.000 116.200 C 280.000 120.358,280.607 120.889,285.305 120.845 C 288.757 120.813,289.251 120.424,289.800 117.303 L 290.200 115.030 292.548 114.561 C 293.839 114.303,295.052 113.846,295.242 113.546 C 295.745 112.752,295.819 107.917,295.354 106.312 C 294.955 104.939,290.473 104.365,288.124 105.386 M292.500 107.747 C 293.921 108.970,293.894 110.205,292.414 111.587 C 289.660 114.160,286.541 110.597,289.211 107.928 C 290.584 106.555,291.082 106.528,292.500 107.747 M110.838 108.027 C 112.349 109.103,112.435 110.897,111.020 111.824 C 109.634 112.732,108.722 112.417,107.809 110.718 L 107.018 109.245 107.979 108.223 C 109.140 106.986,109.356 106.971,110.838 108.027 M117.945 113.744 C 119.774 116.002,116.899 119.743,114.528 118.189 C 112.299 116.729,112.285 113.860,114.505 113.285 C 115.997 112.898,117.412 113.087,117.945 113.744 M286.971 113.829 C 288.317 115.174,286.596 118.800,284.613 118.800 C 283.626 118.800,282.000 116.962,282.000 115.847 C 282.000 113.806,285.520 112.377,286.971 113.829 M130.768 117.100 C 130.751 117.705,130.691 119.100,130.635 120.200 C 130.424 124.371,131.613 125.453,135.908 125.000 C 138.218 124.756,140.798 123.419,140.801 122.464 C 140.801 122.319,139.347 122.259,137.569 122.331 L 134.337 122.463 134.469 119.231 L 134.600 115.998 132.700 115.999 C 130.902 116.000,130.798 116.059,130.768 117.100 M135.200 116.353 C 135.200 116.548,135.560 116.801,136.000 116.916 C 136.520 117.052,136.800 116.928,136.800 116.563 C 136.800 116.253,136.440 116.000,136.000 116.000 C 135.560 116.000,135.200 116.159,135.200 116.353 M137.704 117.067 C 137.931 117.567,138.307 117.858,138.539 117.714 C 138.818 117.542,138.790 117.397,138.459 117.286 C 138.096 117.165,138.139 116.986,138.613 116.640 C 139.188 116.219,139.147 116.160,138.280 116.160 C 137.396 116.160,137.334 116.257,137.704 117.067 M267.135 119.104 C 267.331 123.417,266.909 123.797,262.848 122.956 C 259.475 122.258,259.218 122.339,260.479 123.703 C 262.539 125.929,268.035 126.486,269.579 124.626 C 270.212 123.862,270.569 120.124,270.227 117.842 C 269.956 116.035,269.923 116.000,268.473 116.000 L 266.994 116.000 267.135 119.104 M140.132 118.234 C 139.957 118.690,139.806 118.734,139.594 118.391 C 139.418 118.106,139.205 118.069,139.063 118.299 C 138.932 118.510,139.233 118.869,139.733 119.096 C 140.538 119.463,140.640 119.402,140.640 118.555 C 140.640 117.446,140.474 117.341,140.132 118.234 M139.884 120.800 C 139.999 121.240,140.252 121.600,140.447 121.600 C 140.641 121.600,140.800 121.240,140.800 120.800 C 140.800 120.360,140.547 120.000,140.237 120.000 C 139.872 120.000,139.748 120.280,139.884 120.800 M149.517 131.500 C 149.351 135.901,151.178 139.218,153.754 139.191 C 155.404 139.174,157.881 137.721,158.551 136.377 C 159.403 134.670,159.318 134.628,156.136 135.182 C 152.740 135.773,152.543 135.562,152.664 131.443 L 152.753 128.400 151.193 128.400 L 149.634 128.400 149.517 131.500 M248.311 131.500 C 248.549 135.772,248.097 136.201,244.215 135.389 C 241.042 134.725,241.084 134.715,241.721 135.991 C 244.408 141.381,251.195 138.761,251.199 132.333 C 251.200 128.841,251.002 128.400,249.426 128.400 L 248.139 128.400 248.311 131.500 M264.428 130.290 C 261.763 131.670,260.850 134.158,261.727 137.651 C 262.186 139.480,265.124 140.144,267.804 139.024 C 271.576 137.448,271.984 130.017,268.300 129.995 C 267.805 129.992,267.040 129.897,266.600 129.784 C 266.160 129.671,265.183 129.899,264.428 130.290 M116.500 130.265 C 116.225 130.376,116.000 131.037,115.999 131.733 L 115.998 133.000 119.020 132.868 C 123.969 132.651,124.597 133.417,123.210 137.979 C 122.003 141.946,123.906 141.348,125.781 137.172 C 126.824 134.847,126.873 134.117,126.162 131.561 C 125.801 130.262,118.825 129.327,116.500 130.265 M130.912 130.408 C 130.413 130.609,129.915 131.255,129.775 131.883 C 129.638 132.497,129.442 133.310,129.339 133.689 C 128.806 135.660,131.466 138.948,133.800 139.204 C 137.032 139.559,138.286 138.886,138.820 136.511 C 139.840 131.970,135.450 128.582,130.912 130.408 M275.600 130.696 C 273.050 131.688,273.364 137.520,276.090 139.814 C 277.722 141.188,278.062 141.047,277.331 139.300 C 274.960 133.633,275.759 132.246,281.265 132.472 C 284.396 132.600,285.935 131.475,283.767 130.643 C 282.974 130.338,276.410 130.382,275.600 130.696 M268.417 133.631 C 269.292 135.267,266.399 138.106,264.845 137.135 C 263.102 136.047,262.937 134.509,264.401 132.999 C 265.856 131.498,267.406 131.742,268.417 133.631 M136.048 133.186 C 137.981 135.120,135.777 138.210,133.568 136.662 C 131.625 135.302,131.435 134.503,132.743 133.195 C 134.230 131.708,134.569 131.708,136.048 133.186 M263.902 149.502 C 262.325 150.480,261.600 152.314,261.600 155.328 C 261.600 158.942,261.749 159.200,263.843 159.200 C 265.580 159.200,265.959 158.919,265.221 158.180 C 265.012 157.971,264.680 156.770,264.483 155.511 C 263.959 152.167,264.794 151.452,268.974 151.663 L 272.000 151.816 272.000 150.551 C 272.000 148.985,271.554 148.797,267.867 148.811 C 265.880 148.818,264.663 149.030,263.902 149.502 M129.300 149.514 C 128.555 149.631,128.400 149.910,128.400 151.131 L 128.400 152.606 131.519 152.464 C 135.566 152.281,135.827 152.546,135.248 156.263 C 134.762 159.383,134.824 159.529,136.301 158.768 C 137.747 158.023,137.901 157.770,138.413 155.325 C 139.358 150.804,135.739 148.497,129.300 149.514 M179.956 154.700 C 179.932 155.305,179.911 156.790,179.910 158.000 C 179.905 164.203,180.156 164.800,182.769 164.800 C 185.045 164.800,186.558 165.482,187.384 166.880 C 189.750 170.886,193.601 172.539,196.119 170.629 C 196.978 169.978,197.096 160.956,196.256 160.178 C 195.218 159.216,191.222 159.464,190.373 160.543 C 189.389 161.794,185.612 162.716,184.167 162.058 C 182.427 161.265,181.898 159.893,182.064 156.603 L 182.216 153.600 181.108 153.600 C 180.177 153.600,179.993 153.775,179.956 154.700 M218.330 156.787 C 218.451 159.752,218.389 160.047,217.448 160.988 C 215.922 162.514,211.338 162.150,209.912 160.390 C 209.332 159.674,208.862 159.558,206.912 159.648 C 203.962 159.785,203.732 160.035,203.639 163.205 L 203.563 165.830 205.172 166.539 C 209.314 168.367,209.671 171.385,206.167 174.959 C 202.812 178.380,203.082 178.583,207.817 176.202 C 212.587 173.803,212.858 173.369,212.525 168.655 L 212.282 165.209 213.840 164.558 C 215.800 163.738,216.920 164.260,218.224 166.600 C 220.299 170.325,224.097 170.577,226.955 167.180 C 228.409 165.452,226.509 162.710,223.101 161.619 C 220.925 160.922,220.400 159.929,220.400 156.511 C 220.400 153.602,220.399 153.600,219.300 153.599 L 218.200 153.598 218.330 156.787 M163.000 157.648 C 159.914 158.916,159.844 158.966,159.107 160.445 C 158.232 162.197,157.991 166.553,158.728 167.280 C 159.353 167.896,161.200 166.074,161.200 164.840 C 161.200 163.778,162.497 162.797,164.250 162.531 C 168.121 161.945,169.795 159.805,167.772 158.029 C 166.132 156.589,165.667 156.552,163.000 157.648 M223.864 164.953 L 224.972 165.907 223.590 166.748 L 222.207 167.589 221.228 166.610 C 219.349 164.731,221.809 163.186,223.864 164.953 M233.051 173.719 C 230.452 176.475,230.584 179.592,233.379 181.423 C 237.330 184.012,240.708 177.908,237.243 174.443 C 235.066 172.266,234.511 172.170,233.051 173.719 M235.557 178.652 C 234.438 180.000,233.166 178.758,234.024 177.155 L 234.510 176.248 235.261 177.176 C 235.837 177.887,235.906 178.231,235.557 178.652 M154.100 179.865 C 153.825 179.976,153.600 180.458,153.600 180.936 C 153.600 181.769,153.737 181.800,156.789 181.661 C 159.918 181.519,160.002 181.540,161.244 182.783 C 163.240 184.779,162.388 190.800,160.110 190.800 C 159.424 190.800,159.479 195.499,160.174 196.256 C 160.914 197.064,173.039 196.996,173.351 196.183 C 174.911 192.119,173.505 189.735,168.740 188.358 C 165.120 187.312,164.888 187.054,164.386 183.501 C 164.198 182.172,163.869 180.909,163.654 180.694 C 162.818 179.858,155.658 179.236,154.100 179.865 M226.345 187.933 C 225.173 188.980,222.117 196.250,222.632 196.765 C 223.001 197.134,224.787 195.015,225.958 192.818 C 227.661 189.623,227.849 189.507,230.442 190.054 C 231.629 190.304,234.445 190.619,236.701 190.754 L 240.801 191.000 240.801 189.543 C 240.800 187.846,240.548 187.742,236.200 187.646 C 234.660 187.612,232.320 187.409,231.000 187.195 C 227.723 186.664,227.774 186.656,226.345 187.933 M239.777 193.767 C 239.350 194.079,239.136 194.469,239.301 194.634 C 239.465 194.799,239.600 194.689,239.600 194.390 C 239.600 194.019,239.764 194.072,240.120 194.558 C 240.596 195.209,240.640 195.182,240.640 194.235 C 240.640 193.666,240.620 193.200,240.596 193.200 C 240.573 193.200,240.204 193.455,239.777 193.767 M237.643 195.920 C 237.319 196.525,237.419 196.640,238.263 196.640 C 239.143 196.640,239.187 196.580,238.613 196.160 C 238.111 195.793,238.080 195.632,238.479 195.472 C 238.849 195.324,238.859 195.254,238.514 195.232 C 238.247 195.214,237.855 195.524,237.643 195.920 M235.200 196.400 C 235.200 196.620,235.571 196.800,236.024 196.800 C 236.477 196.800,236.736 196.620,236.600 196.400 C 236.464 196.180,236.093 196.000,235.776 196.000 C 235.459 196.000,235.200 196.180,235.200 196.400 M160.152 204.200 C 159.822 204.575,159.363 211.163,159.662 211.231 C 159.738 211.249,161.420 211.417,163.400 211.606 C 165.380 211.795,168.162 212.216,169.582 212.542 C 173.574 213.459,174.634 212.617,176.978 206.661 C 177.571 205.155,177.976 203.843,177.878 203.745 C 177.555 203.421,175.183 205.673,174.542 206.912 C 172.414 211.028,169.926 210.388,166.682 204.890 C 165.870 203.514,161.192 203.019,160.152 204.200 M227.849 204.217 C 226.358 208.103,227.706 210.625,232.115 212.198 C 234.909 213.194,235.998 214.612,235.999 217.256 C 236.000 219.685,236.909 220.347,240.652 220.647 C 245.122 221.005,246.800 220.659,246.800 219.382 C 246.800 218.420,246.733 218.400,243.569 218.400 C 238.350 218.400,237.196 216.667,238.853 211.319 C 239.071 210.615,239.610 209.924,240.052 209.784 C 240.950 209.498,241.087 205.082,240.226 204.145 C 239.486 203.339,228.160 203.405,227.849 204.217 M164.108 218.281 C 160.783 218.923,160.855 223.775,164.243 227.475 L 165.597 228.953 166.799 227.801 C 168.229 226.431,169.600 223.752,169.600 222.328 C 169.600 220.687,166.724 217.815,165.320 218.054 C 165.144 218.084,164.599 218.186,164.108 218.281 M166.587 221.585 C 167.268 222.339,167.266 222.420,166.519 223.599 L 165.741 224.828 164.996 223.445 C 163.882 221.376,165.104 219.947,166.587 221.585 M193.400 223.626 C 191.860 224.269,190.384 224.797,190.120 224.798 C 188.398 224.806,187.495 227.475,187.291 233.166 C 187.013 240.877,186.984 240.800,190.254 240.800 C 192.721 240.800,192.879 240.746,192.678 239.977 C 192.502 239.305,192.566 239.240,193.027 239.622 C 193.337 239.880,193.515 240.214,193.421 240.365 C 193.328 240.516,193.682 240.640,194.208 240.640 C 194.805 240.640,195.050 240.482,194.858 240.220 C 194.033 239.092,195.092 238.033,196.220 238.858 C 196.482 239.050,196.640 238.805,196.640 238.208 C 196.640 237.682,196.516 237.328,196.365 237.421 C 196.214 237.515,195.880 237.337,195.622 237.027 C 195.240 236.566,195.305 236.502,195.977 236.678 C 196.678 236.861,196.800 236.708,196.800 235.647 L 196.800 234.400 193.834 234.400 L 190.868 234.400 190.590 231.432 C 190.243 227.723,190.110 228.006,193.170 225.937 C 195.495 224.366,197.429 222.357,196.549 222.428 C 196.357 222.444,194.940 222.983,193.400 223.626 M204.283 227.769 C 203.413 228.429,203.291 239.441,204.145 240.226 C 205.054 241.062,209.498 240.953,209.772 240.088 C 210.371 238.201,215.659 237.401,217.434 238.928 C 218.554 239.892,218.600 240.069,218.600 243.366 C 218.600 246.610,218.647 246.800,219.457 246.800 C 220.591 246.800,220.800 246.124,220.800 242.465 C 220.800 237.308,220.176 236.043,217.600 235.975 C 213.935 235.879,213.205 235.313,212.012 231.639 C 211.412 229.790,210.589 228.035,210.184 227.739 C 209.228 227.040,205.217 227.061,204.283 227.769 M175.178 232.332 C 172.171 234.245,172.056 234.577,173.837 236.209 C 176.819 238.940,180.693 238.910,181.848 236.147 C 183.306 232.657,178.757 230.054,175.178 232.332 M239.631 233.436 C 238.954 234.005,238.400 234.823,238.400 235.254 C 238.400 236.331,236.637 238.000,235.499 238.000 C 234.943 238.000,233.969 238.609,233.101 239.500 L 231.640 241.000 233.150 242.264 L 234.660 243.527 237.230 242.542 C 241.351 240.961,240.938 241.377,242.536 237.200 L 243.531 234.600 242.341 233.500 C 240.903 232.171,241.127 232.176,239.631 233.436 M178.594 234.810 C 178.473 235.005,178.095 235.058,177.754 234.927 C 177.269 234.741,177.246 234.619,177.647 234.371 C 178.254 233.996,178.909 234.300,178.594 234.810 M194.933 239.467 C 194.933 239.760,195.173 240.000,195.467 240.000 C 195.760 240.000,196.000 239.760,196.000 239.467 C 196.000 239.173,195.760 238.933,195.467 238.933 C 195.173 238.933,194.933 239.173,194.933 239.467 M135.503 243.983 C 136.312 248.008,135.854 248.506,131.512 248.328 L 128.398 248.200 128.399 249.457 C 128.400 250.993,128.860 251.200,132.271 251.200 C 136.121 251.200,139.144 248.701,138.633 245.939 C 138.538 245.423,138.443 244.460,138.424 243.800 C 138.373 242.112,137.941 241.605,136.331 241.344 L 134.927 241.116 135.503 243.983 M264.523 241.604 C 262.466 242.433,261.238 246.393,262.431 248.354 C 263.489 250.095,265.138 250.800,268.147 250.800 C 271.637 250.800,272.000 250.616,272.000 248.844 L 272.000 247.373 268.700 247.386 L 265.400 247.400 265.544 244.300 C 265.623 242.595,265.623 241.211,265.544 241.225 C 265.465 241.239,265.005 241.410,264.523 241.604 M122.552 260.200 C 122.723 260.640,123.159 262.116,123.520 263.481 L 124.176 265.961 123.188 267.017 C 122.257 268.011,122.020 268.064,119.100 267.933 L 116.000 267.794 116.000 268.854 C 116.000 271.434,124.500 271.055,125.589 268.427 C 126.584 266.026,125.271 261.380,123.220 260.040 C 122.283 259.428,122.254 259.436,122.552 260.200 M276.427 260.972 C 274.932 262.515,274.249 265.114,274.661 267.693 C 274.980 269.688,276.416 270.403,280.087 270.395 C 283.920 270.386,284.400 270.170,284.401 268.453 L 284.402 267.000 281.101 267.122 C 276.805 267.281,276.493 266.910,277.434 262.770 C 278.207 259.371,278.123 259.222,276.427 260.972 M245.000 261.156 C 243.210 261.982,241.829 263.349,241.419 264.700 C 241.094 265.770,241.091 265.770,244.391 264.848 L 246.982 264.123 247.722 265.065 C 248.348 265.861,248.428 266.470,248.236 269.003 L 248.010 272.000 249.358 272.000 C 252.440 272.000,251.756 264.285,248.426 261.483 C 246.908 260.206,247.033 260.218,245.000 261.156 M132.896 261.578 C 128.527 264.309,129.186 270.450,133.857 270.520 C 137.383 270.573,139.535 268.053,139.041 264.448 C 138.604 261.262,135.627 259.871,132.896 261.578 M263.122 261.257 C 261.139 261.983,260.606 266.224,262.195 268.649 C 263.688 270.928,268.502 271.437,269.801 269.454 C 272.585 265.205,267.934 259.497,263.122 261.257 M151.677 262.270 C 148.384 263.893,147.448 272.000,150.554 272.000 L 151.816 272.000 151.663 268.974 C 151.451 264.783,152.169 263.950,155.511 264.507 C 156.770 264.717,157.971 265.049,158.180 265.244 C 159.309 266.301,159.692 263.349,158.571 262.229 C 157.716 261.373,153.445 261.399,151.677 262.270 M136.799 264.938 C 137.373 265.945,137.339 266.047,135.975 267.412 L 134.552 268.835 133.500 268.007 C 131.795 266.666,131.730 265.717,133.237 264.162 C 134.716 262.636,135.597 262.828,136.799 264.938 M267.873 264.743 C 269.848 267.010,266.538 269.662,264.427 267.503 C 262.897 265.938,262.894 265.444,264.410 263.929 C 265.739 262.600,266.073 262.679,267.873 264.743 M119.386 273.981 C 117.321 274.818,116.611 280.211,118.339 281.939 C 121.488 285.088,126.400 282.814,126.400 278.207 C 126.400 274.218,123.344 272.376,119.386 273.981 M132.600 274.412 C 130.676 275.009,130.400 275.745,130.400 280.276 L 130.400 284.400 131.600 284.400 L 132.800 284.400 132.800 281.126 C 132.800 278.355,132.928 277.715,133.636 276.961 L 134.473 276.071 136.936 276.781 C 138.291 277.171,139.715 277.625,140.100 277.788 C 141.100 278.213,140.973 277.467,139.810 276.085 C 139.233 275.399,138.273 274.813,137.510 274.680 C 136.789 274.554,135.660 274.359,135.000 274.246 C 134.340 274.132,133.260 274.207,132.600 274.412 M263.710 274.768 C 260.177 275.663,258.440 278.194,261.677 277.729 C 262.845 277.562,264.430 277.419,265.200 277.412 L 266.600 277.400 266.600 280.901 L 266.600 284.401 268.092 284.401 C 269.931 284.400,270.148 283.792,269.940 279.215 C 269.746 274.941,267.987 273.685,263.710 274.768 M123.818 276.182 C 125.579 277.943,124.588 280.900,122.237 280.900 C 119.677 280.900,118.603 277.816,120.572 276.122 C 121.937 274.949,122.597 274.961,123.818 276.182 M272.399 287.100 L 272.398 288.200 275.398 288.068 C 279.829 287.874,280.918 289.004,280.730 293.601 C 280.606 296.647,280.641 296.802,281.457 296.801 C 282.615 296.800,282.742 296.301,282.644 292.161 C 282.512 286.580,281.884 286.000,275.974 286.000 L 272.400 286.000 272.399 287.100 M100.164 306.262 C 102.985 309.056,103.701 309.173,102.654 306.668 C 101.975 305.043,100.734 304.114,98.779 303.768 C 97.400 303.523,97.400 303.524,100.164 306.262 M300.960 304.730 C 299.542 305.758,297.200 308.406,297.200 308.981 C 297.200 309.618,300.455 307.442,301.487 306.115 C 303.730 303.231,303.579 302.833,300.960 304.730 " stroke="none" fill="#54544c" fill-rule="evenodd"></path><path id="path1" d="M298.800 85.567 C 298.800 86.144,298.544 86.400,297.967 86.400 C 296.929 86.400,297.162 87.362,298.233 87.497 C 298.974 87.590,298.973 87.582,298.221 87.264 C 297.476 86.948,297.480 86.925,298.321 86.705 C 298.808 86.577,299.213 86.146,299.228 85.737 C 299.254 85.061,299.287 85.066,299.625 85.800 C 299.970 86.550,299.987 86.552,299.897 85.833 C 299.762 84.762,298.800 84.529,298.800 85.567 M300.800 85.151 C 300.800 85.676,301.834 86.433,302.137 86.130 C 302.282 85.985,302.400 86.246,302.400 86.710 C 302.400 87.699,301.636 88.306,301.226 87.642 C 301.028 87.321,300.730 87.414,300.246 87.949 C 299.743 88.504,299.688 88.763,300.046 88.882 C 300.797 89.132,300.070 90.000,299.110 90.000 C 298.646 90.000,298.385 89.882,298.530 89.737 C 298.833 89.434,298.076 88.400,297.551 88.400 C 297.358 88.400,297.200 88.591,297.200 88.824 C 297.200 89.057,297.368 89.144,297.572 89.017 C 297.777 88.891,298.059 88.971,298.198 89.196 C 298.337 89.421,298.169 89.714,297.825 89.846 C 297.481 89.978,297.200 90.257,297.200 90.466 C 297.200 90.676,297.403 90.722,297.652 90.568 C 297.915 90.405,298.034 90.499,297.936 90.792 C 297.712 91.464,302.722 96.235,303.483 96.073 C 303.824 96.001,303.967 96.130,303.817 96.373 C 303.671 96.608,303.724 96.800,303.934 96.800 C 304.143 96.800,304.422 96.519,304.554 96.175 C 304.686 95.831,304.979 95.663,305.204 95.802 C 305.429 95.941,305.509 96.223,305.383 96.428 C 305.256 96.632,305.343 96.800,305.576 96.800 C 305.809 96.800,306.000 96.642,306.000 96.449 C 306.000 95.924,304.966 95.167,304.663 95.470 C 304.518 95.615,304.400 95.354,304.400 94.890 C 304.400 93.901,305.164 93.294,305.574 93.958 C 305.771 94.277,306.085 94.170,306.591 93.609 C 306.994 93.164,307.127 92.800,306.887 92.800 C 306.646 92.800,306.475 92.466,306.506 92.059 C 306.544 91.553,306.790 91.377,307.281 91.505 C 307.768 91.633,308.000 91.471,308.000 91.004 C 308.000 90.555,308.210 90.395,308.600 90.545 C 308.930 90.671,309.200 90.601,309.200 90.387 C 309.200 90.174,308.671 90.000,308.024 90.000 C 306.811 90.000,305.874 89.175,306.754 88.882 C 307.112 88.763,307.057 88.504,306.554 87.949 C 306.070 87.414,305.772 87.321,305.574 87.642 C 305.164 88.306,304.400 87.699,304.400 86.710 C 304.400 86.246,304.518 85.985,304.663 86.130 C 304.966 86.433,306.000 85.676,306.000 85.151 C 306.000 84.958,305.809 84.800,305.576 84.800 C 305.343 84.800,305.256 84.968,305.383 85.172 C 305.509 85.377,305.429 85.659,305.204 85.798 C 304.979 85.937,304.686 85.769,304.554 85.425 C 304.422 85.081,304.143 84.800,303.934 84.800 C 303.724 84.800,303.664 84.980,303.800 85.200 C 303.936 85.420,303.756 85.600,303.400 85.600 C 303.044 85.600,302.864 85.420,303.000 85.200 C 303.136 84.980,303.076 84.800,302.866 84.800 C 302.657 84.800,302.378 85.081,302.246 85.425 C 302.114 85.769,301.821 85.937,301.596 85.798 C 301.371 85.659,301.291 85.377,301.417 85.172 C 301.544 84.968,301.457 84.800,301.224 84.800 C 300.991 84.800,300.800 84.958,300.800 85.151 M307.067 85.067 C 306.920 85.213,306.813 85.618,306.828 85.967 C 306.849 86.432,306.947 86.388,307.200 85.800 C 307.501 85.100,307.547 85.089,307.572 85.713 C 307.587 86.104,307.885 86.535,308.234 86.668 C 308.748 86.866,308.767 86.982,308.334 87.286 C 307.902 87.589,307.910 87.631,308.375 87.505 C 309.188 87.286,309.395 86.400,308.633 86.400 C 308.267 86.400,308.000 86.063,308.000 85.600 C 308.000 84.803,307.574 84.560,307.067 85.067 M299.600 87.200 C 299.123 87.677,298.843 88.177,298.978 88.311 C 299.112 88.446,299.612 88.166,300.089 87.689 C 300.566 87.212,300.846 86.712,300.711 86.578 C 300.577 86.443,300.077 86.723,299.600 87.200 M306.000 86.751 C 306.000 87.135,307.338 88.400,307.746 88.400 C 307.901 88.400,307.847 88.061,307.625 87.647 C 307.202 86.856,306.000 86.193,306.000 86.751 M97.700 91.465 C 97.375 91.596,97.201 92.532,97.203 94.133 L 97.205 96.600 98.878 94.648 C 99.798 93.575,101.102 92.361,101.775 91.950 L 103.000 91.203 100.600 91.233 C 99.280 91.250,97.975 91.354,97.700 91.465 M306.662 93.931 C 306.298 94.334,306.000 94.790,306.000 94.946 C 306.000 95.429,307.493 94.456,307.740 93.811 C 308.061 92.976,307.467 93.042,306.662 93.931 M308.334 94.314 C 308.767 94.618,308.748 94.734,308.234 94.932 C 307.885 95.065,307.587 95.496,307.572 95.887 C 307.547 96.515,307.500 96.504,307.175 95.800 C 306.830 95.050,306.813 95.048,306.903 95.767 C 307.038 96.838,308.000 97.071,308.000 96.033 C 308.000 95.540,308.258 95.200,308.633 95.200 C 309.395 95.200,309.188 94.314,308.375 94.095 C 307.910 93.969,307.902 94.011,308.334 94.314 M119.368 104.584 C 118.909 106.415,119.377 110.749,120.114 111.486 C 121.620 112.991,128.149 112.657,127.926 111.086 C 127.812 110.283,127.520 110.181,124.800 110.000 L 121.800 109.800 121.600 106.800 C 121.380 103.496,119.988 102.114,119.368 104.584 M289.211 107.928 C 286.541 110.597,289.660 114.160,292.414 111.587 C 293.894 110.205,293.921 108.970,292.500 107.747 C 291.082 106.528,290.584 106.555,289.211 107.928 M107.979 108.223 L 107.018 109.245 107.809 110.718 C 109.086 113.096,112.000 112.609,112.000 110.018 C 112.000 107.750,109.479 106.625,107.979 108.223 M291.440 109.840 C 291.246 110.345,291.054 110.414,290.734 110.094 C 290.492 109.852,290.414 109.342,290.560 108.960 C 290.754 108.455,290.946 108.386,291.266 108.706 C 291.508 108.948,291.586 109.458,291.440 109.840 M114.505 113.285 C 112.285 113.860,112.299 116.729,114.528 118.189 C 116.899 119.743,119.774 116.002,117.945 113.744 C 117.412 113.087,115.997 112.898,114.505 113.285 M283.054 114.029 C 281.720 115.078,281.693 116.529,282.982 117.818 C 284.261 119.097,285.005 119.057,286.431 117.631 C 289.226 114.836,286.171 111.577,283.054 114.029 M134.673 116.261 C 134.523 116.411,134.400 117.853,134.400 119.467 L 134.400 122.400 137.376 122.400 C 139.013 122.400,140.464 122.220,140.600 122.000 C 140.736 121.780,140.678 121.600,140.470 121.600 C 140.263 121.600,139.999 121.240,139.884 120.800 C 139.758 120.318,139.872 120.000,140.171 120.000 C 140.444 120.000,140.667 119.738,140.667 119.418 C 140.667 119.097,140.533 118.918,140.369 119.019 C 139.874 119.325,138.787 118.745,139.052 118.315 C 139.205 118.069,139.432 118.124,139.644 118.457 C 139.918 118.890,139.989 118.893,139.994 118.476 C 139.997 118.188,140.171 118.058,140.379 118.187 C 140.729 118.403,140.626 116.893,140.267 116.533 C 139.907 116.174,138.397 116.071,138.613 116.421 C 138.742 116.629,138.612 116.803,138.324 116.806 C 137.907 116.811,137.910 116.882,138.343 117.156 C 138.676 117.368,138.731 117.595,138.485 117.748 C 138.055 118.013,137.475 116.926,137.781 116.431 C 137.882 116.267,137.703 116.133,137.382 116.133 C 137.062 116.133,136.800 116.368,136.800 116.654 C 136.800 117.197,135.600 116.953,135.173 116.323 C 135.048 116.139,134.823 116.111,134.673 116.261 M260.229 116.629 C 259.577 117.281,259.285 122.400,259.900 122.400 C 260.065 122.400,261.454 122.662,262.987 122.983 C 266.676 123.755,267.200 123.356,267.200 119.771 C 267.200 116.018,267.183 116.000,263.786 116.000 C 261.657 116.000,260.686 116.172,260.229 116.629 M152.763 129.079 C 152.424 135.741,152.457 135.796,156.334 135.156 L 159.251 134.674 159.167 132.237 C 159.044 128.675,158.914 128.536,155.619 128.440 C 153.151 128.368,152.795 128.447,152.763 129.079 M241.614 129.174 C 241.386 129.599,241.200 131.021,241.200 132.334 L 241.200 134.720 243.300 135.183 C 244.455 135.438,245.780 135.723,246.244 135.816 C 248.042 136.180,249.181 131.923,248.094 128.900 C 247.769 127.995,242.117 128.234,241.614 129.174 M264.401 132.999 C 262.346 135.119,264.258 138.571,266.628 137.019 C 269.104 135.396,269.193 133.438,266.847 132.224 C 265.763 131.663,265.666 131.694,264.401 132.999 M132.743 133.195 C 131.435 134.503,131.625 135.302,133.568 136.662 C 135.777 138.210,137.981 135.120,136.048 133.186 C 134.569 131.708,134.230 131.708,132.743 133.195 M276.875 133.398 C 275.537 134.524,275.531 134.375,277.090 138.689 C 277.733 140.470,279.031 141.310,279.644 140.343 C 279.897 139.943,279.989 139.932,279.994 140.300 C 280.003 141.082,281.199 140.886,281.212 140.100 C 281.224 139.433,281.244 139.433,281.632 140.100 C 282.179 141.040,282.800 140.987,282.800 140.000 C 282.800 139.467,283.067 139.200,283.600 139.200 C 284.587 139.200,284.640 138.579,283.700 138.032 C 283.033 137.644,283.033 137.624,283.700 137.612 C 284.486 137.599,284.682 136.403,283.900 136.394 C 283.534 136.389,283.524 136.309,283.862 136.094 C 284.116 135.932,284.296 135.080,284.262 134.200 L 284.200 132.600 281.150 132.484 C 278.368 132.378,277.991 132.459,276.875 133.398 M116.267 133.067 C 116.120 133.213,116.000 134.730,116.000 136.438 C 116.000 140.401,116.348 140.800,119.812 140.800 L 122.366 140.800 123.183 138.057 C 124.211 134.607,124.204 134.188,123.111 133.423 C 122.206 132.789,116.824 132.509,116.267 133.067 M264.953 152.425 C 264.055 153.322,264.211 156.333,265.257 158.300 C 265.790 159.303,269.669 159.619,271.226 158.786 C 272.277 158.224,272.398 152.238,271.367 151.843 C 269.772 151.231,265.785 151.593,264.953 152.425 M128.900 152.665 C 128.002 153.027,128.237 158.285,129.174 158.786 C 130.972 159.748,134.717 159.303,134.947 158.100 C 135.978 152.707,135.814 152.387,132.051 152.432 C 130.593 152.449,129.175 152.554,128.900 152.665 M182.243 154.233 C 181.038 157.373,182.787 162.421,185.069 162.390 C 187.525 162.357,190.800 160.956,190.800 159.938 C 190.800 159.752,189.360 159.600,187.600 159.600 L 184.400 159.600 184.400 156.600 C 184.400 153.582,183.058 152.109,182.243 154.233 M216.284 153.850 C 216.128 154.006,216.000 155.363,216.000 156.867 L 216.000 159.600 212.800 159.600 C 209.474 159.600,208.922 159.938,210.528 160.989 C 214.716 163.734,218.499 161.748,218.317 156.901 C 218.202 153.842,217.438 152.696,216.284 153.850 M220.986 164.815 C 220.266 165.611,220.272 165.654,221.228 166.610 L 222.207 167.589 223.590 166.748 L 224.972 165.907 223.864 164.953 C 222.508 163.788,221.941 163.760,220.986 164.815 M203.600 171.761 L 203.600 177.577 206.205 174.920 C 209.838 171.215,209.148 167.701,204.500 166.231 L 203.600 165.946 203.600 171.761 M234.024 177.155 C 233.166 178.758,234.438 180.000,235.557 178.652 C 235.906 178.231,235.837 177.887,235.261 177.176 L 234.510 176.248 234.024 177.155 M154.061 181.954 C 152.499 182.944,153.762 183.798,156.962 183.918 L 160.116 184.036 159.878 187.418 C 159.692 190.044,159.755 190.800,160.157 190.800 C 162.360 190.800,163.216 184.754,161.286 182.825 C 160.019 181.558,155.538 181.018,154.061 181.954 M227.525 190.294 C 227.190 190.683,226.404 191.960,225.777 193.133 C 225.150 194.306,224.132 195.691,223.516 196.209 C 222.498 197.066,222.400 197.377,222.450 199.601 C 222.530 203.115,222.730 203.235,228.381 203.173 C 234.537 203.106,234.282 203.314,234.368 198.276 C 234.385 197.218,234.565 196.455,234.766 196.579 C 234.967 196.703,235.203 196.591,235.290 196.331 C 235.393 196.022,235.719 195.972,236.224 196.188 C 237.547 196.755,237.899 196.736,237.848 196.100 C 237.822 195.762,238.070 195.408,238.400 195.313 C 238.933 195.158,238.933 195.186,238.400 195.563 C 237.959 195.875,237.939 195.989,238.324 195.994 C 238.612 195.997,238.742 196.171,238.613 196.379 C 238.397 196.729,239.907 196.626,240.267 196.267 C 240.626 195.907,240.729 194.397,240.379 194.613 C 240.171 194.742,239.997 194.612,239.994 194.324 C 239.989 193.939,239.875 193.959,239.563 194.400 C 239.186 194.933,239.158 194.933,239.313 194.400 C 239.408 194.070,239.762 193.822,240.100 193.848 C 240.757 193.900,240.801 193.359,240.218 192.424 C 239.985 192.051,240.025 191.792,240.332 191.689 C 241.642 191.253,239.988 190.800,237.076 190.798 C 235.274 190.797,233.170 190.633,232.400 190.434 C 229.142 189.594,228.154 189.565,227.525 190.294 M167.600 198.000 C 167.600 198.533,167.333 198.800,166.800 198.800 C 165.900 198.800,165.715 199.516,166.533 199.830 C 166.827 199.942,167.067 200.294,167.067 200.611 C 167.067 201.046,166.936 201.079,166.533 200.745 C 166.128 200.408,166.000 200.450,166.000 200.918 C 166.000 201.256,166.225 201.638,166.500 201.767 C 166.900 201.953,166.900 202.047,166.500 202.233 C 166.225 202.362,166.000 202.642,166.000 202.857 C 166.000 203.072,166.225 203.112,166.500 202.947 C 166.898 202.707,166.898 202.772,166.499 203.266 C 165.954 203.939,166.956 205.788,169.141 208.140 C 171.389 210.560,172.824 210.233,174.542 206.912 C 174.888 206.243,175.729 205.226,176.412 204.652 C 177.138 204.040,177.533 203.415,177.364 203.142 C 177.185 202.852,177.251 202.784,177.538 202.962 C 177.792 203.119,178.000 203.072,178.000 202.857 C 178.000 202.642,177.775 202.362,177.500 202.233 C 177.100 202.047,177.100 201.953,177.500 201.767 C 177.775 201.638,178.000 201.256,178.000 200.918 C 178.000 200.450,177.872 200.408,177.467 200.745 C 177.064 201.079,176.933 201.046,176.933 200.611 C 176.933 200.294,177.173 199.942,177.467 199.830 C 178.285 199.516,178.100 198.800,177.200 198.800 C 176.667 198.800,176.400 198.533,176.400 198.000 C 176.400 197.065,175.679 196.928,175.345 197.800 C 175.218 198.130,174.959 198.400,174.770 198.400 C 174.580 198.400,174.529 198.130,174.655 197.800 C 174.932 197.079,174.167 196.986,173.833 197.700 C 173.647 198.100,173.553 198.100,173.367 197.700 C 173.238 197.425,172.958 197.200,172.743 197.200 C 172.528 197.200,172.445 197.350,172.559 197.533 C 172.672 197.717,172.511 197.867,172.200 197.867 C 171.889 197.867,171.728 197.717,171.841 197.533 C 171.955 197.350,171.872 197.200,171.657 197.200 C 171.442 197.200,171.162 197.425,171.033 197.700 C 170.847 198.100,170.753 198.100,170.567 197.700 C 170.438 197.425,170.056 197.200,169.718 197.200 C 169.250 197.200,169.208 197.328,169.545 197.733 C 169.879 198.136,169.846 198.267,169.411 198.267 C 169.094 198.267,168.742 198.027,168.630 197.733 C 168.316 196.915,167.600 197.100,167.600 198.000 M168.250 199.013 C 168.126 199.336,167.614 199.589,167.113 199.575 L 166.200 199.549 167.100 199.188 C 167.595 198.989,168.014 198.505,168.032 198.113 C 168.051 197.672,168.142 197.596,168.269 197.913 C 168.383 198.195,168.374 198.690,168.250 199.013 M177.030 199.263 C 177.681 199.536,177.645 199.572,176.800 199.493 C 176.055 199.424,175.776 199.145,175.707 198.400 C 175.628 197.555,175.664 197.519,175.937 198.170 C 176.114 198.594,176.606 199.086,177.030 199.263 M239.725 209.914 C 239.093 210.316,238.571 211.781,238.229 214.105 C 237.773 217.210,239.260 218.400,243.596 218.400 L 246.853 218.400 246.727 217.300 C 246.603 216.225,246.533 216.197,243.700 216.082 L 240.800 215.965 240.800 212.782 C 240.800 209.653,240.672 209.312,239.725 209.914 M164.775 221.431 C 164.338 221.957,164.375 222.291,164.996 223.445 L 165.741 224.828 166.519 223.599 C 167.640 221.829,166.067 219.874,164.775 221.431 M196.089 223.565 C 195.612 224.210,194.138 225.407,192.811 226.225 C 190.152 227.867,190.133 227.920,190.661 232.312 L 190.914 234.425 196.465 234.376 C 203.436 234.315,203.105 234.607,203.173 228.452 C 203.236 222.694,203.134 222.528,199.501 222.449 C 197.121 222.397,196.899 222.470,196.089 223.565 M177.647 234.371 C 177.246 234.619,177.269 234.741,177.754 234.927 C 178.095 235.058,178.473 235.005,178.594 234.810 C 178.909 234.300,178.254 233.996,177.647 234.371 M195.825 237.228 C 196.661 238.151,196.667 238.153,196.667 237.429 C 196.667 237.115,196.320 236.768,195.897 236.657 C 195.160 236.464,195.157 236.490,195.825 237.228 M213.400 238.262 C 212.960 238.355,212.208 238.514,211.728 238.616 C 210.765 238.820,209.600 239.831,209.600 240.461 C 209.600 240.712,210.856 240.815,212.900 240.733 L 216.200 240.600 216.400 243.596 C 216.745 248.759,218.810 248.109,218.676 242.880 C 218.571 238.788,217.081 237.484,213.400 238.262 M194.760 238.580 C 194.739 238.591,194.677 239.079,194.624 239.665 C 194.481 241.242,196.265 240.939,196.574 239.334 C 196.696 238.704,195.500 238.207,194.760 238.580 M196.000 239.467 C 196.000 239.760,195.760 240.000,195.467 240.000 C 195.173 240.000,194.933 239.760,194.933 239.467 C 194.933 239.173,195.173 238.933,195.467 238.933 C 195.760 238.933,196.000 239.173,196.000 239.467 M192.667 239.933 C 192.772 240.337,193.116 240.667,193.431 240.667 C 193.894 240.667,193.877 240.527,193.340 239.933 C 192.975 239.530,192.631 239.200,192.575 239.200 C 192.520 239.200,192.561 239.530,192.667 239.933 M129.079 241.693 C 128.478 242.132,128.381 242.706,128.481 245.209 L 128.600 248.200 131.624 248.315 C 135.808 248.475,136.280 247.970,135.533 244.133 L 135.000 241.400 132.398 241.284 C 130.715 241.209,129.543 241.353,129.079 241.693 M265.496 244.106 C 265.380 245.698,265.374 247.147,265.483 247.326 C 265.678 247.650,270.568 247.634,271.474 247.306 C 272.079 247.087,272.065 243.991,271.457 243.223 C 271.113 242.789,271.115 242.715,271.465 242.925 C 271.961 243.222,271.969 242.235,271.474 241.741 C 271.319 241.586,269.958 241.403,268.449 241.335 L 265.707 241.212 265.496 244.106 M116.629 260.229 C 115.717 261.140,115.720 267.407,116.633 267.757 C 118.352 268.417,122.254 268.007,123.130 267.074 C 124.202 265.934,124.206 265.551,123.184 262.242 L 122.368 259.600 119.812 259.600 C 118.023 259.600,117.069 259.788,116.629 260.229 M277.463 262.607 C 276.518 266.907,276.796 267.261,281.000 267.113 L 284.200 267.000 284.316 263.945 C 284.465 260.030,284.100 259.600,280.633 259.600 L 278.123 259.600 277.463 262.607 M133.237 264.162 C 131.730 265.717,131.795 266.666,133.500 268.007 L 134.552 268.835 135.975 267.412 C 137.339 266.047,137.373 265.945,136.799 264.938 C 135.597 262.828,134.716 262.636,133.237 264.162 M264.410 263.929 C 262.894 265.444,262.897 265.938,264.427 267.503 C 266.538 269.662,269.848 267.010,267.873 264.743 C 266.073 262.679,265.739 262.600,264.410 263.929 M152.416 264.983 C 151.594 265.858,151.240 269.797,151.843 271.367 C 152.238 272.398,158.224 272.277,158.786 271.226 C 159.621 269.666,159.304 265.788,158.300 265.281 C 156.154 264.199,153.289 264.054,152.416 264.983 M244.094 264.908 L 241.200 265.685 241.200 268.069 C 241.200 271.722,241.470 272.000,245.014 272.000 C 247.121 272.000,248.008 271.853,248.028 271.500 C 248.044 271.225,248.144 269.872,248.251 268.493 C 248.409 266.470,248.305 265.806,247.717 265.058 L 246.988 264.131 244.094 264.908 M120.572 276.122 C 118.603 277.816,119.677 280.900,122.237 280.900 C 124.588 280.900,125.579 277.943,123.818 276.182 C 122.597 274.961,121.937 274.949,120.572 276.122 M133.631 276.967 C 132.929 277.714,132.800 278.361,132.800 281.126 L 132.800 284.400 136.171 284.400 C 140.427 284.400,140.800 284.094,140.800 280.605 L 140.800 278.066 139.100 277.449 C 135.312 276.074,134.534 276.006,133.631 276.967 M122.640 278.640 C 122.446 279.145,122.254 279.214,121.934 278.894 C 121.692 278.652,121.614 278.142,121.760 277.760 C 121.954 277.255,122.146 277.186,122.466 277.506 C 122.708 277.748,122.786 278.258,122.640 278.640 M263.800 277.391 C 263.580 277.471,262.545 277.652,261.500 277.793 L 259.600 278.049 259.600 280.596 C 259.600 284.068,260.045 284.468,263.745 284.317 L 266.600 284.200 266.600 280.800 L 266.600 277.400 265.400 277.322 C 264.740 277.280,264.020 277.310,263.800 277.391 M272.545 288.600 C 272.023 289.960,272.691 290.361,275.681 290.482 L 278.600 290.600 278.800 293.600 C 278.978 296.267,279.089 296.600,279.800 296.600 C 281.308 296.600,281.187 290.725,279.648 289.186 C 278.253 287.791,273.021 287.359,272.545 288.600 M97.319 304.942 C 97.681 307.222,98.514 308.216,100.539 308.783 C 103.322 309.562,103.256 309.214,100.051 306.200 L 97.074 303.400 97.319 304.942 M303.400 303.906 C 303.180 304.068,302.334 305.029,301.520 306.043 C 300.705 307.057,299.496 308.112,298.833 308.386 C 297.470 308.951,296.819 310.313,297.657 310.844 C 298.057 311.097,298.068 311.189,297.700 311.194 C 296.918 311.203,297.114 312.399,297.900 312.412 C 298.567 312.424,298.567 312.444,297.900 312.832 C 296.951 313.385,297.016 314.000,298.024 314.000 C 298.576 314.000,298.748 313.835,298.547 313.500 C 298.343 313.160,298.463 313.176,298.923 313.549 C 299.656 314.143,299.851 314.602,299.200 314.200 C 298.980 314.064,298.800 314.323,298.800 314.776 C 298.800 315.784,299.415 315.849,299.968 314.900 C 300.356 314.233,300.376 314.233,300.388 314.900 C 300.401 315.686,301.597 315.882,301.606 315.100 C 301.611 314.743,301.696 314.729,301.906 315.053 C 302.068 315.301,302.740 315.505,303.400 315.505 C 304.060 315.505,304.732 315.301,304.894 315.053 C 305.104 314.729,305.189 314.743,305.194 315.100 C 305.203 315.882,306.399 315.686,306.412 314.900 C 306.424 314.233,306.444 314.233,306.832 314.900 C 307.385 315.849,308.000 315.784,308.000 314.776 C 308.000 314.224,307.835 314.052,307.500 314.253 C 307.160 314.457,307.176 314.337,307.549 313.877 C 307.851 313.505,308.301 313.203,308.549 313.206 C 308.797 313.209,308.730 313.387,308.400 313.600 C 307.887 313.931,307.902 313.989,308.500 313.994 C 309.315 314.001,309.401 313.561,308.720 312.880 C 308.347 312.507,308.347 312.400,308.720 312.400 C 308.984 312.400,309.200 312.130,309.200 311.800 C 309.200 311.470,308.975 311.197,308.700 311.194 C 308.316 311.189,308.312 311.117,308.682 310.882 C 309.257 310.516,309.213 308.723,308.619 308.306 C 308.345 308.114,308.373 308.010,308.700 308.006 C 308.975 308.003,309.200 307.730,309.200 307.400 C 309.200 307.070,308.984 306.800,308.720 306.800 C 308.347 306.800,308.347 306.693,308.720 306.320 C 309.401 305.639,309.315 305.199,308.500 305.206 C 307.902 305.211,307.887 305.269,308.400 305.600 C 308.730 305.813,308.797 305.991,308.549 305.994 C 308.301 305.997,307.851 305.695,307.549 305.323 C 307.176 304.863,307.160 304.743,307.500 304.947 C 307.835 305.148,308.000 304.976,308.000 304.424 C 308.000 303.416,307.385 303.351,306.832 304.300 C 306.444 304.967,306.424 304.967,306.412 304.300 C 306.398 303.500,305.369 303.347,305.065 304.100 C 304.904 304.500,304.857 304.500,304.832 304.100 C 304.797 303.550,304.027 303.446,303.400 303.906 " stroke="none" fill="#bcbcbc" fill-rule="evenodd"></path><path id="path2" d="M78.591 78.915 C 78.496 79.182,78.459 81.920,78.509 85.000 L 78.600 90.600 84.600 90.600 L 90.600 90.600 90.600 84.600 L 90.600 78.600 84.682 78.515 C 80.345 78.454,78.717 78.560,78.591 78.915 M309.780 78.909 C 309.668 79.200,309.627 81.950,309.688 85.019 L 309.800 90.600 315.800 90.600 L 321.800 90.600 321.800 84.600 L 321.800 78.600 315.892 78.489 C 311.276 78.403,309.939 78.495,309.780 78.909 M91.309 85.492 C 91.180 85.830,91.295 86.461,91.566 86.895 C 91.837 87.329,91.881 87.574,91.664 87.440 C 91.416 87.286,91.270 88.531,91.270 90.800 C 91.270 93.069,91.416 94.314,91.664 94.160 C 91.881 94.026,91.837 94.271,91.566 94.705 C 90.630 96.205,91.298 96.685,94.366 96.716 L 97.200 96.746 97.200 94.216 C 97.200 91.283,97.299 91.200,100.813 91.200 L 103.160 91.200 103.080 88.100 L 103.000 85.000 97.272 84.939 C 92.455 84.888,91.507 84.976,91.309 85.492 M297.467 85.067 C 296.916 85.617,297.229 86.400,298.000 86.400 C 298.533 86.400,298.800 86.133,298.800 85.600 C 298.800 84.829,298.017 84.516,297.467 85.067 M299.200 85.800 C 298.991 86.350,298.540 86.800,298.197 86.800 C 297.164 86.800,297.008 87.990,297.954 88.653 C 298.427 88.984,298.710 89.422,298.583 89.627 C 298.456 89.832,298.713 90.000,299.153 90.000 C 300.081 90.000,300.779 89.126,300.046 88.882 C 299.688 88.763,299.743 88.504,300.246 87.949 C 300.730 87.414,301.028 87.321,301.226 87.642 C 301.628 88.292,302.400 87.708,302.400 86.753 C 302.400 86.313,302.226 86.060,302.013 86.192 C 301.800 86.323,301.397 86.064,301.117 85.616 C 300.429 84.514,299.661 84.588,299.200 85.800 M301.417 85.172 C 301.144 85.614,301.775 86.092,302.144 85.722 C 302.525 85.342,302.454 84.800,302.024 84.800 C 301.817 84.800,301.544 84.968,301.417 85.172 M304.460 85.180 C 304.548 85.444,304.750 85.647,304.910 85.630 C 305.388 85.581,305.296 85.032,304.780 84.860 C 304.516 84.772,304.372 84.916,304.460 85.180 M305.683 85.616 C 305.403 86.064,305.000 86.323,304.787 86.192 C 304.574 86.060,304.400 86.313,304.400 86.753 C 304.400 87.708,305.172 88.292,305.574 87.642 C 305.772 87.321,306.070 87.414,306.554 87.949 C 307.057 88.504,307.112 88.763,306.754 88.882 C 305.874 89.175,306.811 90.000,308.024 90.000 C 309.280 90.000,309.495 89.655,308.720 88.880 C 308.347 88.507,308.347 88.400,308.720 88.400 C 309.426 88.400,309.305 87.215,308.569 86.933 C 308.223 86.800,307.777 86.265,307.579 85.745 C 307.138 84.584,306.361 84.531,305.683 85.616 M308.000 85.567 C 308.000 86.058,308.258 86.400,308.629 86.400 C 309.002 86.400,309.206 86.128,309.129 85.733 C 308.935 84.730,308.000 84.592,308.000 85.567 M300.089 87.689 C 299.612 88.166,299.112 88.446,298.978 88.311 C 298.843 88.177,299.123 87.677,299.600 87.200 C 300.077 86.723,300.577 86.443,300.711 86.578 C 300.846 86.712,300.566 87.212,300.089 87.689 M307.625 87.647 C 307.847 88.061,307.901 88.400,307.746 88.400 C 307.338 88.400,306.000 87.135,306.000 86.751 C 306.000 86.193,307.202 86.856,307.625 87.647 M297.388 89.220 C 297.007 89.835,297.528 90.232,298.042 89.718 C 298.329 89.431,298.336 89.207,298.062 89.039 C 297.839 88.900,297.535 88.982,297.388 89.220 M308.000 91.013 C 308.000 91.471,307.765 91.632,307.281 91.505 C 306.790 91.377,306.544 91.553,306.506 92.059 C 306.475 92.466,306.646 92.800,306.887 92.800 C 307.127 92.800,306.994 93.164,306.591 93.609 C 306.085 94.170,305.771 94.277,305.574 93.958 C 305.172 93.308,304.400 93.892,304.400 94.847 C 304.400 95.287,304.568 95.544,304.773 95.417 C 304.978 95.290,305.416 95.573,305.747 96.046 C 306.402 96.981,307.600 96.840,307.600 95.827 C 307.600 95.497,307.960 95.035,308.400 94.800 C 309.252 94.344,309.503 93.200,308.751 93.200 C 308.431 93.200,308.424 93.053,308.728 92.686 C 309.255 92.051,309.093 90.698,308.465 90.488 C 308.209 90.403,308.000 90.639,308.000 91.013 M307.740 93.811 C 307.493 94.456,306.000 95.429,306.000 94.946 C 306.000 94.538,307.265 93.200,307.649 93.200 C 307.828 93.200,307.869 93.475,307.740 93.811 M308.000 96.033 C 308.000 97.008,308.935 96.870,309.129 95.867 C 309.206 95.472,309.002 95.200,308.629 95.200 C 308.258 95.200,308.000 95.542,308.000 96.033 M304.588 96.020 C 304.207 96.635,304.728 97.032,305.242 96.518 C 305.529 96.231,305.536 96.007,305.262 95.839 C 305.039 95.700,304.735 95.782,304.588 96.020 M121.600 106.685 L 121.800 109.800 124.915 110.000 L 128.030 110.200 127.915 107.000 L 127.800 103.800 124.600 103.685 L 121.400 103.570 121.600 106.685 M290.560 108.960 C 290.414 109.342,290.492 109.852,290.734 110.094 C 291.054 110.414,291.246 110.345,291.440 109.840 C 291.586 109.458,291.508 108.948,291.266 108.706 C 290.946 108.386,290.754 108.455,290.560 108.960 M282.800 140.029 C 282.800 140.602,283.015 140.817,283.495 140.725 C 284.538 140.524,284.654 139.200,283.629 139.200 C 283.057 139.200,282.800 139.457,282.800 140.029 M184.400 156.620 L 184.400 159.600 187.572 159.600 L 190.744 159.600 190.672 156.700 L 190.600 153.800 187.500 153.720 L 184.400 153.640 184.400 156.620 M209.844 153.943 C 209.762 154.085,209.671 155.415,209.642 156.900 L 209.590 159.600 212.764 159.600 L 215.937 159.600 216.068 156.597 L 216.200 153.594 213.097 153.641 C 211.390 153.666,209.926 153.802,209.844 153.943 M197.391 166.547 C 197.309 166.796,197.278 169.430,197.321 172.400 L 197.400 177.800 200.500 177.880 L 203.600 177.960 203.600 172.013 L 203.600 166.067 200.570 166.080 C 198.676 166.088,197.483 166.263,197.391 166.547 M153.685 187.200 L 153.800 190.600 156.645 190.716 L 159.490 190.833 159.741 189.316 C 159.878 188.482,159.993 186.959,159.996 185.930 L 160.000 184.061 156.785 183.930 L 153.570 183.800 153.685 187.200 M166.267 197.467 C 165.716 198.017,166.029 198.800,166.800 198.800 C 167.333 198.800,167.600 198.533,167.600 198.000 C 167.600 197.229,166.817 196.916,166.267 197.467 M168.000 198.200 C 167.791 198.750,167.356 199.200,167.034 199.200 C 166.139 199.200,165.836 200.007,166.486 200.657 C 166.994 201.165,167.067 201.160,167.067 200.619 C 167.067 200.279,166.872 199.982,166.633 199.960 C 166.395 199.938,166.643 199.797,167.185 199.646 C 167.760 199.485,168.285 198.960,168.446 198.385 C 168.597 197.843,168.738 197.595,168.760 197.833 C 168.782 198.072,169.067 198.267,169.394 198.267 C 169.843 198.267,169.880 198.137,169.545 197.733 C 168.888 196.942,168.425 197.081,168.000 198.200 M174.655 197.800 C 174.529 198.130,174.599 198.400,174.813 198.400 C 175.026 198.400,175.218 198.175,175.240 197.900 C 175.262 197.625,175.403 197.843,175.554 198.385 C 175.715 198.960,176.240 199.485,176.815 199.646 C 177.357 199.797,177.605 199.938,177.367 199.960 C 177.128 199.982,176.933 200.279,176.933 200.619 C 176.933 201.160,177.006 201.165,177.514 200.657 C 178.164 200.007,177.861 199.200,176.966 199.200 C 176.644 199.200,176.209 198.750,176.000 198.200 C 175.572 197.074,174.999 196.904,174.655 197.800 M176.400 197.971 C 176.400 198.543,176.657 198.800,177.229 198.800 C 178.254 198.800,178.138 197.476,177.095 197.275 C 176.615 197.183,176.400 197.398,176.400 197.971 M240.800 212.756 L 240.800 215.937 243.814 216.068 L 246.829 216.200 246.714 213.000 L 246.600 209.800 243.700 209.687 L 240.800 209.574 240.800 212.756 M211.483 240.686 L 209.566 240.845 209.683 243.723 L 209.800 246.600 213.200 246.715 L 216.600 246.830 216.400 243.715 L 216.200 240.600 214.800 240.563 C 214.030 240.543,212.537 240.598,211.483 240.686 M121.760 277.760 C 121.614 278.142,121.692 278.652,121.934 278.894 C 122.254 279.214,122.446 279.145,122.640 278.640 C 122.786 278.258,122.708 277.748,122.466 277.506 C 122.146 277.186,121.954 277.255,121.760 277.760 M272.485 293.400 L 272.600 296.600 275.800 296.715 L 279.000 296.830 278.800 293.715 L 278.600 290.600 275.485 290.400 L 272.370 290.200 272.485 293.400 M91.375 304.120 C 91.265 304.406,91.226 307.061,91.288 310.020 L 91.400 315.400 97.200 315.400 L 103.000 315.400 103.115 312.398 L 103.230 309.396 101.115 308.901 C 98.674 308.330,97.699 307.360,97.346 305.152 L 97.098 303.600 94.336 303.600 C 92.439 303.600,91.512 303.763,91.375 304.120 M308.000 304.390 C 308.000 304.945,307.823 305.158,307.500 304.993 C 307.225 304.853,307.397 305.090,307.883 305.520 C 308.369 305.949,308.654 306.413,308.516 306.550 C 308.379 306.688,308.477 306.800,308.733 306.800 C 309.435 306.800,309.294 306.095,308.500 305.632 C 307.841 305.248,307.843 305.224,308.529 305.212 C 308.992 305.204,309.211 304.956,309.129 304.533 C 308.932 303.514,308.000 303.396,308.000 304.390 M308.516 312.650 C 308.654 312.787,308.369 313.251,307.883 313.680 C 307.397 314.110,307.225 314.347,307.500 314.207 C 307.823 314.042,308.000 314.255,308.000 314.810 C 308.000 315.804,308.932 315.686,309.129 314.667 C 309.211 314.244,308.992 313.996,308.529 313.988 C 307.843 313.976,307.841 313.952,308.500 313.568 C 309.294 313.105,309.435 312.400,308.733 312.400 C 308.477 312.400,308.379 312.512,308.516 312.650 M298.600 313.600 C 298.736 313.820,298.463 314.000,297.994 314.000 C 297.399 314.000,297.182 314.210,297.275 314.695 C 297.479 315.755,298.800 315.851,298.800 314.806 C 298.800 314.230,298.962 314.050,299.300 314.253 C 299.640 314.457,299.624 314.337,299.251 313.877 C 298.657 313.144,298.198 312.949,298.600 313.600 " stroke="none" fill="#d9d6d4" fill-rule="evenodd"></path><path id="path3" d="M102.832 92.033 C 102.788 92.902,100.462 95.450,99.000 96.230 L 97.800 96.869 99.000 96.608 C 101.365 96.092,103.676 93.386,103.053 91.863 C 102.947 91.605,102.849 91.680,102.832 92.033 M294.340 91.900 C 294.306 92.065,294.261 92.650,294.240 93.200 C 294.208 94.006,293.994 94.200,293.135 94.200 C 292.549 94.200,291.919 94.350,291.735 94.533 C 291.551 94.717,291.646 94.807,291.947 94.733 C 292.717 94.546,292.860 95.927,292.113 96.345 C 291.661 96.598,291.624 96.768,291.975 96.985 C 292.238 97.147,292.547 97.187,292.661 97.073 C 292.930 96.804,295.275 97.620,295.822 98.173 C 296.442 98.799,296.808 99.928,297.045 101.945 C 297.263 103.795,300.989 108.400,302.269 108.400 C 302.561 108.400,302.800 108.590,302.800 108.821 C 302.800 109.272,306.728 109.139,307.499 108.662 C 307.737 108.515,307.999 108.596,308.080 108.841 C 308.174 109.123,308.426 109.050,308.764 108.644 C 309.134 108.197,309.156 108.000,308.835 108.000 C 308.522 108.000,308.490 107.773,308.735 107.300 C 309.197 106.409,309.210 100.417,308.752 99.532 C 308.525 99.094,308.577 98.795,308.903 98.664 C 309.281 98.511,309.275 98.456,308.876 98.432 C 308.588 98.414,308.456 98.232,308.583 98.028 C 308.709 97.823,308.630 97.542,308.407 97.404 C 308.183 97.266,308.000 97.354,308.000 97.600 C 308.000 97.846,307.790 97.917,307.533 97.759 C 307.277 97.600,306.062 97.402,304.833 97.318 C 301.296 97.077,297.600 94.868,297.600 92.995 C 297.600 92.152,296.532 91.479,296.271 92.158 C 296.016 92.824,294.549 92.720,294.700 92.047 C 294.755 91.801,294.710 91.600,294.600 91.600 C 294.490 91.600,294.373 91.735,294.340 91.900 M292.400 93.049 C 292.400 93.580,292.509 93.608,293.000 93.200 C 293.330 92.926,293.600 92.634,293.600 92.551 C 293.600 92.468,293.330 92.400,293.000 92.400 C 292.670 92.400,292.400 92.692,292.400 93.049 M295.642 93.718 C 295.128 94.232,294.607 93.835,294.988 93.220 C 295.135 92.982,295.439 92.900,295.662 93.039 C 295.936 93.207,295.929 93.431,295.642 93.718 M294.000 95.133 C 294.000 95.654,293.524 96.001,293.138 95.761 C 292.724 95.506,293.081 94.800,293.624 94.800 C 293.831 94.800,294.000 94.950,294.000 95.133 M117.067 103.867 C 116.920 104.013,116.800 105.327,116.800 106.787 C 116.800 109.597,116.274 110.726,115.330 109.942 C 115.038 109.700,114.800 108.748,114.800 107.827 C 114.800 104.923,114.279 104.600,109.600 104.600 C 104.399 104.600,104.400 104.599,104.400 110.462 C 104.400 115.391,104.537 115.600,107.774 115.600 L 109.600 115.600 109.650 117.800 C 109.739 121.726,109.556 121.600,115.147 121.600 C 120.837 121.600,121.034 121.487,121.319 118.068 C 121.573 115.017,121.186 115.352,124.800 115.062 C 126.450 114.930,127.845 114.817,127.900 114.811 C 127.955 114.805,128.000 114.662,128.000 114.492 C 128.000 114.050,121.896 114.409,121.308 114.885 C 121.038 115.105,120.700 116.162,120.558 117.235 C 120.156 120.266,119.766 120.572,116.136 120.710 C 112.004 120.868,111.143 120.414,110.607 117.792 C 110.069 115.157,109.917 114.975,107.820 114.447 C 103.953 113.473,103.956 106.095,107.822 105.369 C 111.364 104.705,114.000 105.991,114.000 108.382 C 114.000 108.984,114.329 109.774,114.731 110.138 C 116.365 111.617,117.036 110.724,117.313 106.700 C 117.532 103.519,117.523 103.411,117.067 103.867 M287.476 104.264 C 286.191 104.486,286.009 104.826,285.656 107.661 C 285.370 109.954,285.040 110.252,282.400 110.592 C 279.444 110.972,279.416 111.021,279.267 116.109 C 279.099 121.873,278.862 121.658,285.256 121.513 L 290.200 121.400 290.562 118.555 L 290.923 115.711 293.562 115.355 L 296.200 115.000 296.313 110.033 C 296.376 107.251,296.258 104.898,296.044 104.684 C 295.626 104.266,289.272 103.954,287.476 104.264 M293.677 105.215 C 295.517 105.726,295.764 106.478,295.636 111.200 C 295.570 113.670,295.246 114.022,292.548 114.561 L 290.200 115.030 289.800 117.303 C 289.251 120.424,288.757 120.813,285.305 120.845 C 280.607 120.889,280.000 120.358,280.000 116.200 C 280.000 112.451,280.459 111.924,284.514 111.025 C 285.707 110.760,286.199 109.921,286.598 107.471 C 286.981 105.120,289.940 104.177,293.677 105.215 M129.680 116.480 C 129.372 116.788,129.200 118.364,129.200 120.880 C 129.200 126.237,129.917 126.856,135.600 126.410 C 137.182 126.286,139.890 124.953,140.366 124.064 C 141.066 122.755,140.876 122.665,139.628 123.715 C 138.844 124.375,137.718 124.793,136.220 124.980 C 131.416 125.580,130.396 124.509,130.669 119.148 C 130.827 116.053,130.632 115.528,129.680 116.480 M270.200 119.938 C 270.200 124.385,269.945 124.945,267.595 125.649 C 265.681 126.222,261.851 125.184,260.500 123.727 C 259.787 122.957,259.600 122.893,259.600 123.417 C 259.600 125.548,263.738 127.189,268.118 126.796 C 271.117 126.526,271.222 126.317,271.101 120.833 C 270.974 115.109,270.200 114.339,270.200 119.938 M148.667 128.667 C 148.040 129.293,148.419 135.802,149.179 137.477 C 150.153 139.623,152.582 140.993,154.752 140.621 C 158.411 139.993,158.364 140.020,158.816 138.340 C 159.375 136.264,159.119 134.931,158.466 136.518 C 157.987 137.682,155.356 139.175,153.754 139.191 C 151.172 139.218,149.470 136.178,149.568 131.718 C 149.635 128.696,149.407 127.926,148.667 128.667 M251.120 131.700 C 251.256 135.443,250.614 136.995,248.363 138.364 C 246.531 139.478,242.849 138.164,241.678 135.978 C 241.180 135.049,241.167 135.071,241.423 136.400 C 242.279 140.852,249.251 141.356,251.439 137.124 C 252.563 134.952,252.468 128.400,251.313 128.400 C 251.141 128.400,251.054 129.885,251.120 131.700 M116.500 129.243 C 115.635 130.137,115.906 130.203,119.822 130.061 C 123.861 129.913,125.830 130.374,126.157 131.543 C 126.876 134.120,126.831 134.861,125.814 137.096 C 125.237 138.363,124.368 139.711,123.883 140.091 C 122.666 141.044,123.508 140.975,125.124 139.990 C 127.362 138.625,128.855 131.095,127.214 129.454 C 126.557 128.797,117.112 128.611,116.500 129.243 M129.200 129.592 C 128.534 130.012,128.338 135.261,128.911 137.312 C 129.588 139.738,137.073 141.270,138.971 139.371 C 139.792 138.551,139.832 133.329,139.032 131.415 C 138.223 129.478,131.385 128.210,129.200 129.592 M262.742 129.807 C 261.019 130.743,259.932 137.608,261.192 139.600 C 262.357 141.444,270.114 139.983,271.049 137.744 C 271.738 136.096,271.788 130.348,271.120 129.680 C 270.423 128.983,264.083 129.078,262.742 129.807 M268.300 129.995 C 271.984 130.017,271.576 137.448,267.804 139.024 C 263.792 140.700,261.529 139.252,261.436 134.949 C 261.378 132.245,264.402 129.221,266.600 129.784 C 267.040 129.897,267.805 129.992,268.300 129.995 M274.400 129.871 C 271.230 131.037,272.819 139.585,276.400 140.626 C 277.345 140.901,277.332 140.860,276.159 139.873 C 273.892 137.965,273.099 133.514,274.648 131.400 C 275.175 130.681,275.697 130.600,279.817 130.600 C 282.694 130.600,284.351 130.451,284.267 130.200 C 284.127 129.777,275.444 129.487,274.400 129.871 M136.841 130.915 C 139.220 132.516,139.767 137.211,137.746 138.689 C 136.569 139.550,133.688 139.472,131.865 138.530 C 130.623 137.888,129.030 134.834,129.339 133.689 C 129.442 133.310,129.638 132.497,129.775 131.883 C 130.229 129.844,134.400 129.272,136.841 130.915 M263.302 148.047 C 261.572 148.547,260.971 149.627,260.472 153.135 C 260.098 155.766,259.890 156.237,258.466 157.675 L 256.877 159.280 257.600 161.140 C 257.997 162.163,258.544 163.591,258.815 164.313 C 259.328 165.681,261.404 166.066,263.268 165.139 C 263.635 164.956,263.995 164.947,264.068 165.120 C 264.140 165.292,264.515 165.111,264.900 164.717 C 265.285 164.323,265.414 164.000,265.186 164.000 C 264.925 164.000,264.901 163.741,265.121 163.300 C 265.314 162.915,265.507 161.835,265.552 160.900 L 265.632 159.200 263.859 159.200 C 261.747 159.200,261.600 158.947,261.600 155.328 C 261.600 150.196,263.341 148.613,268.717 148.857 C 272.064 149.009,272.365 148.925,271.520 148.080 C 270.949 147.509,265.243 147.486,263.302 148.047 M128.667 148.667 C 127.977 149.356,128.636 149.528,131.500 149.406 C 137.669 149.142,139.699 151.564,137.949 157.100 C 137.723 157.815,137.310 158.400,137.031 158.400 C 136.271 158.400,134.888 160.078,135.478 160.284 C 135.740 160.376,135.859 160.701,135.742 161.007 C 135.625 161.312,135.675 161.795,135.853 162.081 C 136.032 162.366,136.214 162.841,136.259 163.137 C 136.360 163.804,136.579 164.030,137.263 164.170 C 137.559 164.230,138.106 164.412,138.481 164.575 C 138.855 164.738,139.335 164.764,139.547 164.633 C 139.758 164.502,140.015 164.621,140.116 164.898 C 140.518 165.996,141.115 164.492,141.374 161.726 C 141.616 159.149,141.564 158.809,140.879 158.442 C 140.248 158.104,140.078 157.438,139.902 154.614 C 139.669 150.882,139.030 149.420,137.353 148.782 C 136.219 148.351,129.077 148.256,128.667 148.667 M179.233 154.338 C 179.016 154.743,178.859 157.460,178.883 160.375 C 178.932 166.197,178.872 166.067,181.563 166.211 C 182.354 166.254,183.360 166.315,183.800 166.347 C 184.273 166.382,184.957 167.031,185.474 167.937 C 185.954 168.778,187.275 170.577,188.408 171.934 L 190.469 174.400 192.935 174.394 C 195.995 174.386,196.405 174.131,196.683 172.058 C 196.894 170.485,196.416 169.804,195.800 170.800 C 195.664 171.020,194.504 171.200,193.223 171.200 C 190.714 171.200,189.331 170.177,187.384 166.880 C 186.558 165.482,185.045 164.800,182.769 164.800 C 180.059 164.800,179.839 164.186,179.934 156.900 C 179.979 153.455,179.887 153.117,179.233 154.338 M220.400 156.431 C 220.400 159.935,220.912 160.918,223.101 161.619 C 226.509 162.710,228.409 165.452,226.955 167.180 C 224.097 170.577,220.299 170.325,218.224 166.600 C 216.920 164.260,215.800 163.738,213.839 164.558 L 212.281 165.209 212.530 168.714 C 212.855 173.294,212.514 173.837,207.800 176.243 C 204.040 178.162,204.530 178.303,209.491 176.727 C 213.469 175.464,214.125 174.402,213.930 169.543 C 213.779 165.778,213.805 165.635,214.710 165.223 C 215.812 164.721,217.200 165.284,217.200 166.234 C 217.200 168.511,219.807 170.521,222.685 170.464 C 224.503 170.427,228.000 169.115,228.000 168.469 C 228.000 168.262,228.356 168.000,228.790 167.887 C 231.803 167.099,228.962 162.630,224.400 160.981 C 221.351 159.878,221.410 159.955,221.280 156.958 C 221.111 153.084,220.400 152.658,220.400 156.431 M163.765 156.161 C 161.881 157.035,160.261 158.400,161.107 158.400 C 161.330 158.400,162.297 158.044,163.256 157.609 C 165.603 156.544,166.137 156.594,167.772 158.029 C 169.795 159.805,168.121 161.945,164.250 162.531 C 162.497 162.797,161.200 163.778,161.200 164.840 C 161.200 166.074,159.353 167.896,158.728 167.280 C 158.116 166.676,158.170 162.657,158.813 160.965 C 159.437 159.323,159.006 159.386,158.000 161.083 C 155.697 164.969,155.738 166.311,158.243 168.957 L 159.338 170.114 160.769 168.505 C 161.556 167.621,162.563 166.290,163.006 165.548 C 163.575 164.595,164.337 164.024,165.606 163.600 C 170.933 161.819,171.686 158.289,167.225 156.013 C 165.734 155.252,165.724 155.253,163.765 156.161 M235.491 159.489 C 236.201 159.577,237.461 159.579,238.291 159.492 C 239.121 159.405,238.540 159.333,237.000 159.331 C 235.460 159.329,234.781 159.400,235.491 159.489 M233.373 170.164 C 230.808 171.961,229.383 178.440,231.056 180.695 C 232.688 182.893,237.402 183.573,239.112 181.857 C 239.969 180.998,240.034 175.933,239.208 174.400 C 238.248 172.617,236.625 170.758,235.520 170.172 C 234.208 169.477,234.352 169.478,233.373 170.164 M237.243 174.443 C 240.708 177.908,237.330 184.012,233.379 181.423 C 230.584 179.592,230.452 176.475,233.051 173.719 C 234.511 172.170,235.066 172.266,237.243 174.443 M154.300 179.066 C 152.845 179.466,153.679 179.875,155.579 179.692 C 161.614 179.112,163.904 180.094,164.381 183.466 C 164.889 187.057,165.114 187.310,168.740 188.358 C 173.602 189.763,173.708 189.880,173.537 193.651 C 173.439 195.817,173.536 196.800,173.848 196.800 C 174.917 196.800,175.287 195.582,175.134 192.564 C 174.930 188.531,174.061 187.675,169.058 186.578 C 165.210 185.734,165.428 185.981,165.036 182.031 C 164.918 180.837,164.662 179.702,164.467 179.507 C 164.084 179.124,155.450 178.750,154.300 179.066 M226.070 186.474 C 224.792 187.127,223.649 189.532,223.001 192.932 C 222.269 196.773,222.500 196.714,223.809 192.725 C 225.545 187.439,226.679 186.553,230.919 187.171 C 235.452 187.830,240.862 187.987,240.686 187.452 C 240.600 187.191,239.111 186.895,237.168 186.753 C 235.316 186.617,232.270 186.391,230.400 186.252 C 228.096 186.080,226.700 186.152,226.070 186.474 M226.212 204.142 C 225.653 204.550,225.447 205.288,225.372 207.137 C 225.212 211.114,226.984 213.083,231.800 214.282 C 233.340 214.665,234.651 215.005,234.714 215.037 C 234.777 215.068,234.927 216.333,235.048 217.847 C 235.170 219.361,235.418 220.756,235.601 220.947 C 236.022 221.386,244.361 221.797,245.755 221.447 C 247.916 220.905,246.650 220.599,242.144 220.576 C 236.834 220.548,236.001 220.098,235.999 217.256 C 235.998 214.612,234.909 213.194,232.115 212.198 C 227.630 210.599,227.496 210.434,227.662 206.764 C 227.812 203.470,227.616 203.115,226.212 204.142 M177.428 205.432 C 176.358 209.696,173.398 213.421,171.416 212.999 C 170.967 212.904,169.430 212.562,168.000 212.240 C 164.498 211.452,159.598 211.167,159.606 211.753 C 159.622 212.884,160.396 213.275,162.845 213.388 C 164.250 213.452,167.292 213.641,169.604 213.808 C 175.525 214.233,176.537 213.255,177.782 205.900 C 178.070 204.198,177.820 203.868,177.428 205.432 M161.337 218.227 C 159.770 219.794,160.098 223.243,162.216 227.452 C 164.556 232.102,167.405 232.985,168.504 229.400 C 168.706 228.740,169.106 227.660,169.391 227.000 C 171.903 221.199,169.875 217.200,164.421 217.200 C 162.746 217.200,162.173 217.391,161.337 218.227 M166.785 218.592 C 170.341 220.431,170.347 224.401,166.799 227.801 L 165.597 228.953 164.243 227.475 C 161.584 224.572,160.865 221.442,162.408 219.481 C 163.107 218.592,163.610 218.346,165.320 218.054 C 165.496 218.025,166.155 218.266,166.785 218.592 M194.400 222.677 C 190.853 223.272,187.793 224.660,187.206 225.940 C 186.089 228.378,185.228 238.557,186.014 240.026 C 187.104 242.063,187.400 240.834,187.400 234.267 L 187.400 227.737 188.520 226.269 C 189.137 225.461,189.842 224.800,190.089 224.800 C 190.537 224.800,195.652 222.846,195.967 222.554 C 196.140 222.393,196.043 222.401,194.400 222.677 M204.229 225.829 C 203.883 226.174,203.600 226.804,203.600 227.229 C 203.600 228.049,204.188 228.267,204.600 227.600 C 204.968 227.004,209.328 227.113,210.184 227.739 C 210.589 228.035,211.412 229.790,212.012 231.639 C 213.211 235.329,213.946 235.891,217.671 235.969 C 220.302 236.024,221.034 237.892,220.736 243.792 C 220.592 246.654,220.826 247.551,221.357 246.167 C 221.830 244.935,221.621 236.581,221.100 235.893 C 220.759 235.443,219.899 235.205,218.400 235.146 C 214.906 235.009,214.918 235.019,214.422 232.062 C 213.780 228.232,213.297 227.291,211.410 226.185 C 209.365 224.986,205.274 224.783,204.229 225.829 M175.931 230.392 C 175.342 230.569,174.082 231.116,173.131 231.607 C 172.179 232.098,171.142 232.625,170.827 232.777 C 166.405 234.911,174.349 240.317,180.542 239.388 C 182.753 239.056,183.125 238.660,183.450 236.288 C 183.996 232.306,179.992 229.166,175.931 230.392 M238.794 231.867 C 238.096 232.454,237.086 233.631,236.548 234.482 C 236.010 235.334,235.082 236.216,234.485 236.441 C 231.170 237.693,229.642 240.583,231.259 242.545 C 233.763 245.583,235.994 245.631,239.312 242.717 C 241.216 241.045,240.877 241.046,236.600 242.729 L 234.600 243.516 233.113 242.227 L 231.626 240.937 233.130 239.469 C 233.961 238.657,235.037 238.000,235.535 238.000 C 236.627 238.000,238.400 236.322,238.400 235.288 C 238.400 234.604,239.522 233.300,240.660 232.661 C 240.913 232.518,241.664 232.880,242.330 233.463 L 243.539 234.525 242.724 236.562 C 242.276 237.683,241.761 239.099,241.580 239.710 L 241.250 240.819 242.389 239.910 C 244.072 238.565,245.748 235.024,245.192 233.986 C 243.772 231.331,240.656 230.299,238.794 231.867 M180.257 232.216 C 183.988 235.062,181.561 239.282,176.913 238.030 C 174.631 237.416,172.127 235.013,172.850 234.132 C 175.015 231.497,178.225 230.667,180.257 232.216 M135.500 235.683 C 135.115 236.078,134.991 236.400,135.224 236.400 C 135.457 236.400,135.519 236.607,135.362 236.861 C 135.206 237.114,135.011 238.171,134.929 239.208 L 134.780 241.095 136.383 241.351 C 137.614 241.548,138.031 241.816,138.177 242.504 C 139.502 248.745,137.412 251.440,131.478 251.140 C 129.495 251.040,128.443 251.130,128.530 251.392 C 128.604 251.616,130.228 251.852,132.139 251.916 C 137.712 252.101,139.051 250.996,139.791 245.600 C 139.973 244.280,140.414 243.415,141.447 242.354 L 142.856 240.909 142.228 239.406 C 141.883 238.579,141.597 237.429,141.594 236.851 C 141.583 234.942,138.921 234.089,136.891 235.344 C 136.658 235.487,136.408 235.461,136.334 235.286 C 136.260 235.110,135.885 235.289,135.500 235.683 M262.499 241.482 C 259.382 242.083,259.923 249.662,263.200 251.299 C 265.651 252.524,272.000 252.176,272.000 250.817 C 272.000 250.694,270.586 250.658,268.857 250.737 C 265.234 250.901,263.615 250.301,262.431 248.354 C 261.238 246.393,262.466 242.433,264.523 241.604 C 265.529 241.199,264.342 241.128,262.499 241.482 M157.780 258.647 C 156.683 259.778,155.932 260.129,153.711 260.552 C 150.238 261.214,149.458 261.649,148.636 263.380 C 147.864 265.008,147.867 271.625,148.641 271.881 C 148.946 271.982,149.024 271.125,148.893 269.091 C 148.558 263.869,150.569 261.600,155.532 261.600 C 158.370 261.600,159.200 262.198,159.200 264.245 C 159.200 265.695,161.245 266.145,163.268 265.139 C 163.635 264.956,163.995 264.947,164.068 265.120 C 164.140 265.292,164.515 265.111,164.900 264.717 C 165.285 264.322,165.414 264.000,165.186 264.000 C 164.925 264.000,164.901 263.741,165.121 263.300 C 165.655 262.232,165.687 259.301,165.169 258.981 C 164.916 258.825,163.454 258.374,161.918 257.979 L 159.127 257.261 157.780 258.647 M245.979 258.600 C 245.441 258.903,244.460 259.405,243.800 259.714 C 242.151 260.486,241.730 261.109,241.444 263.200 C 241.278 264.406,241.315 264.736,241.555 264.200 C 244.575 257.448,251.678 261.222,251.102 269.273 C 250.964 271.206,251.039 271.987,251.352 271.884 C 252.976 271.347,251.836 262.699,249.894 260.821 C 246.866 257.892,247.049 257.996,245.979 258.600 M123.730 260.500 C 125.740 262.357,126.578 266.523,125.399 268.802 C 124.669 270.214,123.262 270.551,119.001 270.336 C 117.072 270.239,116.043 270.330,116.130 270.592 C 116.421 271.471,125.086 271.314,125.987 270.413 C 127.768 268.632,126.684 261.885,124.354 260.253 C 122.993 259.299,122.599 259.455,123.730 260.500 M276.174 260.223 C 273.466 261.560,272.375 270.230,274.818 271.006 C 276.183 271.439,282.941 271.553,283.684 271.155 C 285.105 270.394,284.340 270.147,281.095 270.317 C 276.590 270.553,275.016 269.912,274.661 267.693 C 274.248 265.110,274.932 262.515,276.433 260.966 C 277.922 259.430,277.901 259.371,276.174 260.223 M132.933 260.422 C 129.704 261.400,127.774 268.346,130.089 270.661 C 130.778 271.349,136.348 271.470,137.558 270.823 C 139.713 269.669,140.886 262.682,139.200 261.046 C 138.435 260.304,134.588 259.921,132.933 260.422 M261.728 260.377 C 260.254 261.013,259.972 266.544,261.268 269.389 C 262.112 271.241,268.798 272.295,270.539 270.851 C 272.202 269.470,271.107 262.344,269.021 260.977 C 267.815 260.187,263.074 259.797,261.728 260.377 M138.095 261.923 C 139.161 262.980,139.430 265.994,138.612 267.718 C 136.542 272.080,130.518 271.523,130.122 266.933 C 129.732 262.414,135.152 259.008,138.095 261.923 M267.606 261.545 C 271.618 263.690,271.528 270.002,267.478 270.609 C 263.123 271.262,260.133 267.445,261.576 263.072 C 262.305 260.863,265.036 260.171,267.606 261.545 M118.800 273.070 C 116.959 273.450,116.800 273.856,116.800 278.173 C 116.800 283.666,116.765 283.629,121.966 283.635 C 124.460 283.638,126.296 283.464,126.560 283.200 C 127.186 282.574,127.147 274.187,126.515 273.555 C 126.008 273.048,120.563 272.706,118.800 273.070 M130.400 274.000 C 129.510 274.890,129.165 283.684,130.000 284.200 C 130.257 284.359,130.400 282.995,130.400 280.397 C 130.400 278.170,130.582 276.007,130.805 275.591 C 131.915 273.516,137.983 273.914,139.897 276.188 C 140.869 277.343,140.903 277.353,140.611 276.400 C 139.726 273.504,132.576 271.824,130.400 274.000 M264.200 273.445 C 262.249 273.915,260.457 274.957,260.046 275.859 C 259.393 277.292,259.502 277.918,260.224 276.887 C 261.237 275.440,263.178 274.668,265.886 274.632 C 269.526 274.585,269.800 274.976,269.800 280.214 C 269.800 282.516,269.899 284.400,270.020 284.400 C 271.495 284.400,271.814 275.480,270.385 274.186 C 269.570 273.448,265.972 273.017,264.200 273.445 M124.771 274.185 C 127.577 275.636,127.040 281.981,124.042 282.789 C 119.309 284.063,117.220 282.196,117.567 277.000 C 117.771 273.927,121.474 272.480,124.771 274.185 M272.621 285.567 C 272.436 285.866,273.469 286.000,275.950 286.000 C 282.045 286.000,282.584 286.540,282.594 292.662 C 282.597 294.896,282.735 296.640,282.900 296.538 C 283.480 296.179,283.244 287.014,282.633 286.176 C 281.968 285.266,273.139 284.728,272.621 285.567 M95.226 295.369 C 94.951 295.700,94.914 296.023,95.135 296.160 C 95.341 296.287,95.718 296.139,95.974 295.831 C 96.249 295.500,96.286 295.177,96.065 295.040 C 95.859 294.913,95.482 295.061,95.226 295.369 M96.000 296.007 L 95.000 297.039 95.920 297.819 C 96.426 298.249,96.912 299.180,96.999 299.888 C 97.087 300.596,97.347 301.527,97.576 301.956 C 97.883 302.529,97.862 302.780,97.497 302.902 C 97.224 302.993,97.924 303.375,99.053 303.751 C 101.365 304.519,102.049 305.144,102.940 307.301 C 103.531 308.732,104.096 308.962,105.600 308.382 C 105.710 308.340,105.935 308.327,106.100 308.353 C 106.265 308.379,106.403 308.175,106.406 307.900 C 106.410 307.568,106.540 307.602,106.792 308.000 C 107.123 308.524,107.262 308.509,107.886 307.886 C 108.509 307.262,108.524 307.123,108.000 306.792 C 107.565 306.517,107.544 306.411,107.924 306.406 C 108.212 306.403,108.344 306.232,108.217 306.028 C 108.091 305.823,108.146 305.557,108.339 305.437 C 108.968 305.049,108.622 303.499,107.805 303.043 C 106.366 302.241,104.162 299.824,103.599 298.431 C 103.295 297.678,102.976 297.272,102.891 297.528 C 102.779 297.863,102.518 297.877,101.956 297.576 C 101.527 297.347,100.686 297.083,100.088 296.990 C 97.734 296.625,97.463 296.509,97.363 295.830 C 97.218 294.837,97.122 294.850,96.000 296.007 M95.040 297.935 C 94.913 298.141,95.061 298.518,95.369 298.774 C 95.700 299.049,96.023 299.086,96.160 298.865 C 96.287 298.659,96.139 298.282,95.831 298.026 C 95.500 297.751,95.177 297.714,95.040 297.935 M300.600 304.161 C 299.122 304.813,298.189 305.830,297.626 307.401 C 297.208 308.567,297.230 308.558,298.458 307.074 C 299.152 306.234,300.365 305.109,301.153 304.574 C 302.719 303.509,302.481 303.331,300.600 304.161 " stroke="none" fill="#44443c" fill-rule="evenodd"></path><path id="path4" d="M103.037 92.543 C 102.451 95.665,100.475 96.774,94.800 97.166 L 91.400 97.400 91.400 103.200 L 91.400 109.000 94.283 109.117 L 97.167 109.234 97.283 112.317 L 97.400 115.400 100.483 115.517 L 103.567 115.633 103.683 118.717 L 103.800 121.800 106.683 121.917 L 109.566 122.034 109.683 124.917 L 109.800 127.800 112.900 127.917 C 115.736 128.024,116.000 128.105,116.000 128.866 C 116.000 129.560,116.099 129.616,116.600 129.200 C 117.334 128.591,126.575 128.815,127.218 129.458 C 127.902 130.142,127.808 136.001,127.085 137.691 C 126.437 139.208,124.391 140.796,123.082 140.799 C 122.448 140.800,122.379 141.135,122.482 143.700 L 122.600 146.600 125.500 146.718 C 128.188 146.826,128.400 146.899,128.399 147.718 C 128.398 148.576,128.505 148.597,132.308 148.475 C 138.602 148.275,139.554 149.044,139.902 154.614 C 140.078 157.438,140.248 158.104,140.879 158.442 C 141.564 158.809,141.616 159.149,141.374 161.726 C 141.115 164.492,140.518 165.996,140.116 164.898 C 140.015 164.621,139.758 164.502,139.547 164.633 C 139.335 164.764,138.855 164.738,138.481 164.575 C 138.106 164.412,137.559 164.230,137.263 164.170 C 136.588 164.032,136.368 163.812,136.230 163.137 C 136.170 162.841,135.988 162.294,135.825 161.919 C 135.662 161.545,135.646 161.050,135.788 160.819 C 135.931 160.589,135.837 160.400,135.581 160.400 C 135.324 160.400,135.218 160.130,135.345 159.800 C 135.471 159.470,135.393 159.200,135.171 159.200 C 134.923 159.200,134.812 160.401,134.883 162.300 L 135.000 165.400 138.083 165.517 L 141.167 165.633 141.283 168.717 L 141.400 171.800 144.283 171.917 L 147.166 172.034 147.283 174.917 L 147.400 177.800 150.500 177.917 C 152.591 177.996,153.600 178.191,153.601 178.517 C 153.601 178.868,155.022 179.008,158.808 179.028 C 164.721 179.059,164.743 179.070,165.036 182.031 C 165.428 185.981,165.210 185.734,169.058 186.578 C 174.061 187.675,174.930 188.531,175.134 192.564 C 175.238 194.629,175.126 195.808,174.784 196.219 C 174.338 196.757,174.845 196.813,179.240 196.713 L 184.200 196.600 184.317 193.717 L 184.434 190.833 187.517 190.717 L 190.600 190.600 190.717 187.517 L 190.833 184.434 193.717 184.317 L 196.600 184.200 196.675 178.400 C 196.716 175.210,196.644 172.870,196.515 173.200 C 196.129 174.185,195.523 174.387,192.935 174.394 L 190.469 174.400 188.408 171.934 C 187.275 170.577,185.954 168.778,185.474 167.937 C 184.957 167.031,184.273 166.382,183.800 166.347 C 183.360 166.315,182.354 166.254,181.563 166.211 C 178.872 166.067,178.932 166.197,178.883 160.375 C 178.859 157.460,179.016 154.743,179.233 154.338 C 179.556 153.735,179.482 153.600,178.831 153.600 C 178.113 153.600,178.022 153.291,177.917 150.500 L 177.800 147.400 174.917 147.283 L 172.034 147.166 171.917 144.283 L 171.800 141.400 168.717 141.283 L 165.633 141.167 165.517 138.083 L 165.400 135.000 162.300 134.883 L 159.200 134.766 159.198 135.883 C 159.193 138.247,158.442 139.929,157.289 140.157 C 153.676 140.873,153.291 140.863,151.618 140.009 C 149.129 138.739,148.306 136.638,148.472 131.978 C 148.596 128.514,148.571 128.398,147.718 128.399 C 146.899 128.400,146.826 128.188,146.718 125.500 L 146.600 122.600 143.794 122.484 C 140.991 122.369,140.987 122.370,140.525 123.593 C 139.786 125.551,137.056 126.546,132.700 126.444 C 129.664 126.374,129.200 125.636,129.200 120.880 C 129.200 118.364,129.372 116.788,129.680 116.480 C 130.053 116.107,129.920 116.000,129.080 116.000 C 128.396 116.000,128.000 115.784,128.000 115.412 C 128.000 114.923,127.471 114.864,124.900 115.064 C 121.170 115.354,121.573 115.015,121.319 118.068 C 121.034 121.487,120.837 121.600,115.147 121.600 C 109.556 121.600,109.739 121.726,109.650 117.800 L 109.600 115.600 107.774 115.600 C 104.537 115.600,104.400 115.391,104.400 110.462 C 104.400 104.599,104.399 104.600,109.600 104.600 C 114.279 104.600,114.800 104.923,114.800 107.827 C 114.800 109.669,115.599 110.767,116.311 109.905 C 117.100 108.951,117.105 103.598,116.317 103.599 C 115.741 103.600,115.615 103.111,115.517 100.500 L 115.400 97.400 112.317 97.283 L 109.234 97.167 109.117 94.283 L 109.000 91.400 106.148 91.283 L 103.295 91.167 103.037 92.543 M291.467 91.467 C 291.320 91.613,291.200 92.956,291.200 94.450 L 291.200 97.166 288.100 97.283 L 285.000 97.400 284.883 100.483 L 284.767 103.567 281.683 103.683 L 278.600 103.800 278.483 106.683 L 278.366 109.566 275.483 109.683 L 272.600 109.800 272.483 112.900 C 272.385 115.511,272.259 116.000,271.683 115.999 C 271.072 115.999,271.011 116.491,271.107 120.699 C 271.234 126.314,271.131 126.524,268.118 126.799 C 263.677 127.205,260.190 125.852,259.729 123.543 L 259.493 122.367 256.647 122.484 L 253.800 122.600 253.682 125.500 C 253.570 128.273,253.522 128.400,252.592 128.400 C 251.744 128.400,251.664 128.517,251.968 129.317 C 252.529 130.790,252.201 135.652,251.442 137.119 C 249.284 141.291,242.382 140.825,241.440 136.443 L 241.080 134.769 238.040 134.884 L 235.000 135.000 234.883 138.083 L 234.767 141.167 231.683 141.283 L 228.600 141.400 228.483 144.283 L 228.366 147.166 225.483 147.283 L 222.600 147.400 222.483 150.500 C 222.385 153.111,222.259 153.600,221.683 153.599 C 221.081 153.599,221.024 153.961,221.200 156.658 C 221.417 159.975,221.342 159.875,224.400 160.981 C 228.962 162.630,231.803 167.099,228.790 167.887 C 228.356 168.000,228.000 168.262,228.000 168.469 C 228.000 169.115,224.503 170.427,222.685 170.464 C 219.807 170.521,217.200 168.511,217.200 166.234 C 217.200 165.284,215.812 164.721,214.710 165.223 C 213.805 165.635,213.779 165.778,213.930 169.543 C 214.152 175.067,212.457 176.686,205.246 177.839 L 203.568 178.107 203.684 181.154 L 203.800 184.200 206.683 184.317 L 209.567 184.434 209.683 187.517 L 209.800 190.600 212.883 190.717 L 215.966 190.833 216.083 193.717 L 216.200 196.600 219.261 196.716 L 222.322 196.832 222.797 193.916 C 224.001 186.525,225.178 185.648,232.932 186.360 C 241.673 187.162,240.800 187.231,240.800 185.737 L 240.800 184.435 243.700 184.318 L 246.600 184.200 246.717 181.117 L 246.833 178.033 249.917 177.917 L 253.000 177.800 253.117 174.917 L 253.234 172.034 256.117 171.917 L 259.000 171.800 259.117 168.675 C 259.228 165.729,258.525 162.589,257.167 159.960 C 256.926 159.494,257.271 158.882,258.446 157.696 C 259.893 156.234,260.097 155.774,260.472 153.135 C 260.985 149.533,261.560 148.560,263.496 148.022 C 265.579 147.444,270.922 147.482,271.520 148.080 C 271.893 148.453,272.000 148.368,272.000 147.698 C 272.000 146.904,272.233 146.826,274.900 146.718 L 277.800 146.600 277.917 143.748 L 278.033 140.895 276.671 140.640 C 274.256 140.187,272.849 137.609,272.818 133.576 C 272.789 129.937,273.019 129.800,279.167 129.800 C 284.296 129.800,284.399 129.783,284.400 128.917 C 284.400 128.092,284.605 128.026,287.500 127.917 L 290.600 127.800 290.717 124.917 L 290.834 122.034 293.717 121.917 L 296.600 121.800 296.717 118.717 L 296.833 115.633 299.917 115.517 L 303.000 115.400 303.121 112.812 C 303.263 109.790,302.992 108.400,302.261 108.400 C 301.060 108.400,297.065 103.595,296.995 102.066 C 296.916 100.326,296.466 98.808,295.847 98.192 C 295.276 97.622,292.934 96.800,292.661 97.073 C 292.547 97.187,292.238 97.147,291.975 96.985 C 291.624 96.768,291.661 96.598,292.113 96.345 C 292.860 95.927,292.717 94.546,291.947 94.733 C 291.646 94.807,291.551 94.717,291.735 94.533 C 291.919 94.350,292.549 94.200,293.135 94.200 C 294.022 94.200,294.200 94.022,294.200 93.135 C 294.200 92.549,294.350 91.919,294.533 91.735 C 294.717 91.551,294.807 91.646,294.733 91.947 C 294.554 92.680,295.991 92.890,296.267 92.171 C 296.386 91.859,296.645 91.704,296.842 91.826 C 297.039 91.948,297.200 91.857,297.200 91.624 C 297.200 91.160,291.918 91.015,291.467 91.467 M293.600 92.551 C 293.600 92.634,293.330 92.926,293.000 93.200 C 292.509 93.608,292.400 93.580,292.400 93.049 C 292.400 92.692,292.670 92.400,293.000 92.400 C 293.330 92.400,293.600 92.468,293.600 92.551 M294.988 93.220 C 294.607 93.835,295.128 94.232,295.642 93.718 C 295.929 93.431,295.936 93.207,295.662 93.039 C 295.439 92.900,295.135 92.982,294.988 93.220 M293.017 95.172 C 292.744 95.614,293.375 96.092,293.744 95.722 C 294.125 95.342,294.054 94.800,293.624 94.800 C 293.417 94.800,293.144 94.968,293.017 95.172 M296.044 104.684 C 296.258 104.898,296.376 107.251,296.313 110.033 L 296.200 115.000 293.562 115.355 L 290.923 115.711 290.562 118.555 L 290.200 121.400 285.256 121.513 C 278.862 121.658,279.099 121.873,279.267 116.109 C 279.416 111.021,279.444 110.972,282.400 110.592 C 285.040 110.252,285.370 109.954,285.656 107.661 C 286.009 104.826,286.191 104.486,287.476 104.264 C 289.272 103.954,295.626 104.266,296.044 104.684 M136.932 129.630 C 139.394 130.314,140.889 137.454,138.971 139.371 C 137.073 141.270,129.588 139.738,128.911 137.312 C 128.338 135.261,128.534 130.012,129.200 129.592 C 130.012 129.078,135.036 129.103,136.932 129.630 M271.120 129.680 C 271.788 130.348,271.738 136.096,271.049 137.744 C 270.114 139.983,262.357 141.444,261.192 139.600 C 259.932 137.608,261.019 130.743,262.742 129.807 C 264.083 129.078,270.423 128.983,271.120 129.680 M169.580 158.168 C 171.005 160.474,169.726 162.222,165.606 163.600 C 164.337 164.024,163.575 164.595,163.006 165.548 C 162.563 166.290,161.556 167.621,160.769 168.505 L 159.338 170.114 158.243 168.957 C 155.239 165.784,156.089 161.918,160.602 158.220 C 164.739 154.830,167.507 154.814,169.580 158.168 M238.291 159.492 C 237.461 159.579,236.201 159.577,235.491 159.489 C 234.781 159.400,235.460 159.329,237.000 159.331 C 238.540 159.333,239.121 159.405,238.291 159.492 M264.584 164.827 C 264.439 165.061,264.416 165.349,264.533 165.467 C 264.820 165.753,265.600 165.248,265.600 164.776 C 265.600 164.265,264.909 164.299,264.584 164.827 M235.520 170.172 C 236.625 170.758,238.248 172.617,239.208 174.400 C 240.034 175.933,239.969 180.998,239.112 181.857 C 238.227 182.745,234.187 183.041,232.839 182.317 C 229.992 180.787,229.424 176.940,231.454 172.929 C 233.011 169.851,233.845 169.285,235.520 170.172 M177.824 205.484 C 176.751 213.050,175.579 214.237,169.604 213.808 C 167.292 213.641,164.250 213.452,162.845 213.388 C 161.260 213.315,160.162 213.067,159.951 212.735 C 159.738 212.398,159.610 212.897,159.606 214.082 L 159.600 215.965 156.700 216.082 L 153.800 216.200 153.683 219.283 L 153.567 222.367 150.483 222.483 L 147.400 222.600 147.283 225.483 L 147.166 228.366 144.283 228.483 L 141.400 228.600 141.434 233.043 C 141.458 236.246,141.659 237.965,142.155 239.204 L 142.843 240.923 141.441 242.361 C 140.414 243.415,139.972 244.282,139.791 245.600 C 139.045 251.037,137.694 252.132,131.980 251.928 C 128.514 251.804,128.398 251.829,128.399 252.682 C 128.400 253.501,128.188 253.574,125.500 253.682 L 122.600 253.800 122.496 256.600 L 122.391 259.400 123.696 260.000 C 125.635 260.892,126.800 263.476,126.800 266.885 C 126.800 270.997,126.383 271.281,120.575 271.124 C 116.477 271.013,115.999 271.071,115.999 271.683 C 116.000 272.259,115.511 272.385,112.900 272.483 L 109.800 272.600 109.683 275.483 L 109.566 278.366 106.683 278.483 L 103.800 278.600 103.683 281.683 L 103.567 284.767 100.483 284.883 L 97.400 285.000 97.283 288.083 L 97.167 291.166 94.283 291.283 L 91.400 291.400 91.289 297.108 C 91.204 301.466,91.299 302.856,91.689 302.983 C 92.659 303.300,97.961 303.423,97.481 303.118 C 97.109 302.881,97.108 302.811,97.480 302.806 C 97.832 302.802,97.802 302.423,97.367 301.382 C 97.041 300.603,96.882 299.791,97.014 299.578 C 97.145 299.365,96.746 298.698,96.126 298.096 L 95.000 297.000 96.100 295.926 C 96.705 295.335,97.223 295.020,97.250 295.226 C 97.278 295.431,97.323 295.808,97.350 296.062 C 97.398 296.509,97.751 296.628,100.102 296.992 C 100.708 297.086,101.511 297.334,101.885 297.544 C 102.378 297.820,102.718 297.742,103.113 297.263 C 103.413 296.898,103.554 296.812,103.425 297.070 C 102.885 298.151,105.551 301.786,107.805 303.043 C 108.622 303.499,108.968 305.049,108.339 305.437 C 108.146 305.557,108.091 305.823,108.217 306.028 C 108.344 306.232,108.212 306.403,107.924 306.406 C 107.544 306.411,107.565 306.517,108.000 306.792 C 108.524 307.123,108.509 307.262,107.886 307.886 C 107.262 308.509,107.123 308.524,106.792 308.000 C 106.517 307.565,106.411 307.544,106.406 307.924 C 106.403 308.212,106.232 308.344,106.028 308.217 C 105.823 308.091,105.552 308.154,105.426 308.358 C 105.300 308.562,104.747 308.680,104.198 308.620 C 103.649 308.559,103.200 308.673,103.200 308.873 C 103.200 309.072,104.505 309.182,106.100 309.118 L 109.000 309.000 109.117 306.117 L 109.234 303.233 112.317 303.117 L 115.400 303.000 115.517 299.917 L 115.633 296.833 118.717 296.717 L 121.800 296.600 121.917 293.717 L 122.034 290.834 124.917 290.717 L 127.800 290.600 127.917 287.500 C 128.026 284.604,128.092 284.400,128.917 284.401 C 129.785 284.402,129.798 284.322,129.677 279.624 C 129.525 273.721,129.836 273.199,133.500 273.202 C 137.954 273.207,140.194 274.295,140.640 276.671 L 140.895 278.033 143.748 277.917 L 146.600 277.800 146.718 274.900 C 146.816 272.479,146.948 272.000,147.518 272.001 C 148.120 272.002,148.185 271.580,148.072 268.420 C 147.867 262.685,148.714 261.505,153.711 260.552 C 155.932 260.129,156.683 259.778,157.780 258.647 L 159.127 257.261 162.063 258.101 C 163.941 258.638,166.226 258.952,168.400 258.970 L 171.800 259.000 171.917 256.117 L 172.034 253.234 174.917 253.117 L 177.800 253.000 177.917 249.917 L 178.033 246.833 181.117 246.717 L 184.200 246.600 184.318 243.700 C 184.431 240.907,184.472 240.800,185.432 240.800 C 186.293 240.800,186.372 240.695,186.014 240.026 C 185.228 238.557,186.089 228.378,187.206 225.940 C 187.847 224.543,190.923 223.240,195.116 222.590 L 196.832 222.324 196.716 219.262 L 196.600 216.200 193.717 216.083 L 190.833 215.966 190.717 212.883 L 190.600 209.800 187.517 209.683 L 184.434 209.567 184.317 206.683 L 184.200 203.800 181.148 203.684 L 178.096 203.568 177.824 205.484 M216.267 203.867 C 216.120 204.013,216.000 205.356,216.000 206.850 L 216.000 209.566 212.900 209.683 L 209.800 209.800 209.683 212.883 L 209.567 215.966 206.683 216.083 L 203.800 216.200 203.688 221.341 C 203.585 226.056,203.629 226.429,204.216 225.841 C 205.274 224.783,209.351 224.978,211.410 226.185 C 213.297 227.291,213.780 228.232,214.422 232.062 C 214.918 235.019,214.906 235.009,218.400 235.146 C 221.543 235.269,221.675 235.548,221.525 241.701 C 221.432 245.489,221.524 246.801,221.883 246.801 C 222.209 246.800,222.404 247.808,222.483 249.900 L 222.600 253.000 225.483 253.117 L 228.366 253.234 228.483 256.117 L 228.600 259.000 231.683 259.117 L 234.767 259.233 234.883 262.317 L 235.000 265.400 238.052 265.516 L 241.104 265.632 241.376 263.456 C 241.655 261.224,242.212 260.407,244.001 259.611 C 244.550 259.366,245.441 258.914,245.979 258.606 C 246.851 258.109,247.049 258.131,247.779 258.808 C 251.736 262.477,252.128 263.407,251.928 268.648 C 251.805 271.879,251.832 272.002,252.682 272.001 C 253.501 272.000,253.574 272.212,253.682 274.900 L 253.800 277.800 256.700 277.918 C 259.061 278.013,259.600 277.924,259.600 277.436 C 259.600 274.141,267.629 271.697,270.357 274.162 C 271.353 275.062,271.648 282.992,270.720 283.920 C 270.347 284.293,270.480 284.400,271.320 284.400 C 271.917 284.400,272.400 284.624,272.401 284.900 C 272.401 285.272,273.634 285.400,277.233 285.400 C 283.444 285.400,283.283 285.222,283.120 291.901 C 283.002 296.725,283.014 296.801,283.883 296.801 C 284.708 296.800,284.774 297.004,284.883 299.900 L 285.000 303.000 288.083 303.117 L 291.166 303.233 291.283 306.117 L 291.400 309.000 294.265 309.117 L 297.129 309.234 297.392 308.036 C 298.059 304.998,300.436 303.610,305.600 303.242 L 309.000 303.000 309.000 297.200 L 309.000 291.400 306.117 291.283 L 303.233 291.166 303.117 288.083 L 303.000 285.000 299.917 284.883 L 296.833 284.767 296.717 281.683 L 296.600 278.600 293.717 278.483 L 290.834 278.366 290.717 275.483 L 290.600 272.600 287.500 272.483 C 284.709 272.378,284.400 272.287,284.400 271.569 C 284.400 270.927,284.261 270.846,283.684 271.155 C 282.941 271.553,276.183 271.439,274.818 271.006 C 272.164 270.163,273.510 261.427,276.497 260.109 L 278.032 259.432 277.916 256.616 L 277.800 253.800 274.900 253.682 L 272.000 253.565 272.000 252.302 C 272.000 251.321,271.893 251.147,271.520 251.520 C 270.748 252.292,264.876 252.137,263.200 251.299 C 261.164 250.282,260.296 248.362,260.571 245.482 C 260.886 242.169,261.253 241.674,263.623 241.359 L 265.632 241.093 265.516 238.046 L 265.400 235.000 262.317 234.883 L 259.233 234.767 259.117 231.683 L 259.000 228.600 256.117 228.483 L 253.234 228.366 253.117 225.483 L 253.000 222.600 249.900 222.483 C 247.810 222.404,246.800 222.209,246.799 221.883 C 246.798 221.530,245.355 221.400,241.419 221.400 C 235.197 221.400,235.340 221.479,235.048 217.847 C 234.927 216.333,234.777 215.068,234.714 215.037 C 234.651 215.005,233.340 214.665,231.800 214.282 C 226.984 213.083,225.212 211.114,225.372 207.137 C 225.447 205.288,225.653 204.550,226.212 204.142 C 226.849 203.676,226.223 203.600,221.743 203.600 C 218.878 203.600,216.413 203.720,216.267 203.867 M167.809 217.831 C 170.589 219.150,171.216 222.786,169.391 227.000 C 169.106 227.660,168.706 228.740,168.504 229.400 C 167.405 232.985,164.556 232.102,162.216 227.452 C 158.395 219.858,161.354 214.768,167.809 217.831 M180.376 230.788 C 184.638 232.962,184.750 238.757,180.542 239.388 C 174.349 240.317,166.405 234.911,170.827 232.777 C 171.142 232.625,172.179 232.098,173.131 231.607 C 176.574 229.831,178.150 229.652,180.376 230.788 M243.119 231.987 C 246.469 234.414,245.814 236.951,240.655 241.539 C 236.008 245.672,234.012 245.885,231.259 242.545 C 229.642 240.583,231.170 237.693,234.485 236.441 C 235.082 236.216,236.010 235.334,236.548 234.482 C 238.852 230.832,240.606 230.167,243.119 231.987 M134.984 235.227 C 134.839 235.461,134.816 235.749,134.933 235.867 C 135.220 236.153,136.000 235.648,136.000 235.176 C 136.000 234.665,135.309 234.699,134.984 235.227 M139.200 261.046 C 140.886 262.682,139.713 269.669,137.558 270.823 C 136.348 271.470,130.778 271.349,130.089 270.661 C 128.693 269.265,129.044 263.922,130.657 262.005 C 132.314 260.036,137.553 259.448,139.200 261.046 M269.021 260.977 C 271.107 262.344,272.202 269.470,270.539 270.851 C 268.798 272.295,262.112 271.241,261.268 269.389 C 259.972 266.544,260.254 261.013,261.728 260.377 C 263.074 259.797,267.815 260.187,269.021 260.977 M164.584 264.827 C 164.439 265.061,164.416 265.349,164.533 265.467 C 164.820 265.753,165.600 265.248,165.600 264.776 C 165.600 264.265,164.909 264.299,164.584 264.827 M126.515 273.555 C 127.147 274.187,127.186 282.574,126.560 283.200 C 125.776 283.984,117.908 283.762,117.306 282.938 C 116.612 281.990,116.607 274.256,117.300 273.687 C 118.457 272.737,125.594 272.634,126.515 273.555 M95.974 295.831 C 95.718 296.139,95.341 296.287,95.135 296.160 C 94.914 296.023,94.951 295.700,95.226 295.369 C 95.482 295.061,95.859 294.913,96.065 295.040 C 96.286 295.177,96.249 295.500,95.974 295.831 M96.160 298.865 C 96.023 299.086,95.700 299.049,95.369 298.774 C 95.061 298.518,94.913 298.141,95.040 297.935 C 95.177 297.714,95.500 297.751,95.831 298.026 C 96.139 298.282,96.287 298.659,96.160 298.865 " stroke="none" fill="#2c2121" fill-rule="evenodd"></path></g></svg>