<svg xmlns="http://www.w3.org/2000/svg" width="32" height="32" version="1.1" viewBox="0 0 400 400"><g fill-rule="evenodd" stroke="none"><path d="M119.054 141.1c-1.389 1.265-3.17 2.791-3.958 3.391-.787.6-1.945 1.856-2.572 2.79-.627.934-1.74 2.102-2.473 2.596-.732.494-1.808 1.561-2.391 2.371-1.379 1.918-3.562 4.099-5.357 5.352-.788.55-1.831 1.644-2.319 2.431-.488.786-1.674 1.928-2.635 2.536-.962.609-2.154 1.657-2.649 2.33-.495.673-2.25 2.609-3.9 4.303s-3.409 3.635-3.91 4.314c-.768 1.044-1.388 1.338-4 1.894-6.369 1.356-6.005 1.029-7.309 6.582-.69 2.937-1.108 3.942-1.91 4.586-.565.453-2.387 2.115-4.049 3.693a522.974 522.974 0 0 1-5.121 4.8c-2.007 1.847-2.125 2.071-2.706 5.131l-.608 3.2 1.707 1.514a95.713 95.713 0 0 0 2.906 2.475c.66.529 2.892 2.604 4.961 4.611l3.761 3.649.875 3.382c1.115 4.308 1.94 5.238 4.951 5.578 4.072.46 4.397.679 9.855 6.657 2.842 3.111 5.994 6.251 7.005 6.978 1.011.726 2.069 1.733 2.352 2.238.283.505 1.492 1.728 2.686 2.718s3.411 3.24 4.926 5c4.23 4.912 11.421 11.659 13.664 12.818 1.597.826 2.708.164 3.869-2.306.62-1.318 1.314-2.013 2.841-2.844 1.528-.832 2.292-1.596 3.127-3.131.834-1.532 1.622-2.322 3.21-3.219 1.57-.885 2.378-1.689 3.178-3.16.736-1.351 1.684-2.347 3.009-3.163 1.187-.731 2.391-1.931 3.115-3.11.694-1.127 1.837-2.287 2.772-2.813 1.675-.941 3.002-2.361 4.11-4.397.367-.674 1.379-1.588 2.25-2.033 1.649-.841 3.012-2.276 4.154-4.374.37-.679 1.278-1.487 2.019-1.796 1.401-.586 2.835-2.098 3.977-4.197.367-.674 1.379-1.588 2.25-2.033 1.647-.84 3.012-2.277 4.15-4.367.367-.674 1.357-1.579 2.2-2.011 1.834-.94 3.127-2.261 3.703-3.781.232-.614.991-1.424 1.685-1.8.695-.375 1.867-1.197 2.604-1.824 2.581-2.197 1.532-9.859-1.35-9.859-.679 0-2.909-1.997-2.909-2.605 0-.892-2.006-2.982-3.683-3.837-.871-.445-1.883-1.359-2.25-2.033-1.138-2.09-2.503-3.527-4.15-4.367-.871-.445-1.883-1.359-2.25-2.033-1.126-2.069-2.472-3.494-4.325-4.58-1.116-.654-2.074-1.628-2.583-2.625-.445-.872-1.36-1.886-2.034-2.253-2.07-1.127-3.609-2.569-4.168-3.909-.532-1.272-1.523-2.206-4.116-3.881-.748-.482-1.678-1.476-2.067-2.209-.921-1.734-1.963-2.868-2.636-2.868-.695 0-3.738-3.036-3.738-3.73 0-.687-1.543-2.127-3.252-3.035-.741-.394-1.746-1.328-2.233-2.076-1.822-2.796-2.241-3.244-4.12-4.4-1.217-.749-2.078-1.62-2.338-2.368-1.235-3.542-2.652-3.76-5.803-.891m183.252 23.316c-1.107 1.415-.914 2.65.615 3.918 1.467 1.218 2.854-2.355 1.53-3.941l-1.098-1.315-1.047 1.338m12.67 6.176c-.745 1.384-.745 1.433.011 2.835l.768 1.428.714-.928c.913-1.186.911-2.245-.005-3.635l-.73-1.107-.758 1.407m-125.345 44.239c-.677.677-1.231 1.451-1.231 1.721 0 .617-2.477 3.048-3.106 3.048-.661 0-3.294 2.712-3.294 3.393 0 .613-2.39 2.607-3.124 2.607-.571 0-3.276 2.685-3.276 3.252 0 .867-1.686 2.751-3.033 3.391-.931.441-1.823 1.398-2.696 2.892-.894 1.53-1.864 2.559-3.087 3.274-.981.574-2.578 2.088-3.548 3.365-1.01 1.327-2.328 2.556-3.081 2.87-.9.377-1.733 1.26-2.636 2.796-.946 1.611-1.828 2.524-3.119 3.229-1.797.981-3.594 2.755-3.598 3.553-.003.622-2.384 2.711-4.08 3.579-.948.486-1.792 1.368-2.355 2.463-.495.962-1.76 2.367-2.9 3.221-1.112.833-2.482 2.299-3.045 3.258-.676 1.153-1.695 2.119-3.009 2.854-4.605 2.574-4.764 2.318 11.282 18.167 7.428 7.337 13.822 13.677 14.209 14.088 2.006 2.132 5.813 5.99 9.542 9.669l4.177 4.121.756 3.279c.984 4.271 1.915 5.338 4.975 5.702 3.276.389 4.322 1.021 7.559 4.561 2.563 2.804 3.022 3.145 3.826 2.839.502-.191 1.953-.477 3.223-.636 2.436-.304 3.213-.883 6.475-4.821 1.132-1.368 1.47-1.522 4-1.825 3.887-.465 4.706-.903 5.94-3.17 1.054-1.936 1.433-2.305 4.197-4.086.756-.487 1.846-1.695 2.423-2.685.576-.99 1.639-2.16 2.361-2.6 3.292-2.004 3.637-2.531 4.151-6.338.458-3.387.545-3.593 2.014-4.8 1.736-1.428 4.381-3.987 5.896-5.706.56-.636 1.863-1.786 2.894-2.556 1.031-.77 2.234-1.989 2.673-2.708.438-.72 1.386-1.665 2.106-2.101.719-.436 1.758-1.438 2.308-2.227 1.875-2.691 3.156-4.02 4.995-5.182 1.01-.639 2.378-2.005 3.039-3.035.661-1.03 1.779-2.147 2.484-2.483 2.775-1.319 2.745-5.064-.04-5.064-.651 0-3.678-3.07-3.678-3.73 0-.689-1.545-2.129-3.252-3.032-.741-.393-1.708-1.31-2.148-2.038-1.021-1.692-2.908-3.579-4.6-4.6-.728-.44-1.633-1.383-2.01-2.096-1.02-1.929-1.507-2.409-3.6-3.548-1.402-.763-2.197-1.57-3-3.045-.605-1.112-1.627-2.297-2.291-2.659-1.814-.986-3.499-2.458-3.499-3.057 0-.892-2.006-2.982-3.683-3.837-.871-.445-1.883-1.359-2.25-2.033-1.138-2.09-2.503-3.527-4.15-4.367-.871-.445-1.883-1.359-2.25-2.033-1.126-2.069-2.472-3.494-4.325-4.58-1.116-.654-2.074-1.628-2.583-2.625-.445-.872-1.364-1.886-2.043-2.253-1.883-1.018-3.848-2.816-4.142-3.792-1.003-3.325-7.107-4.481-9.743-1.844m93.702 17.402c-1.307 2.855-1.095 8.528.356 9.544 2.601 1.822 4.175-5.182 2.155-9.593-1.233-2.693-1.255-2.693-2.511.049m13.054 2.801c-1.697 4.463-1.728 11.003-.06 12.671 2.03 2.029 3.411-4.673 2.056-9.973-.948-3.705-1.387-4.299-1.996-2.698" fill="#fcfcfc"/><path d="M159.714 1.8c.003 1.1.081 1.503.173.895.092-.609.09-1.509-.005-2-.095-.492-.171.005-.168 1.105M263.2 4c0 .368.567.563 1.3.447.165-.026.279.088.253.253-.116.733.079 1.3.447 1.3.557 0 .501-1.339-.08-1.92s-1.92-.637-1.92-.08M121.6 9.86c-2.991.45-4.064.995-4.631 2.352-.887 2.123-.758 3.788.293 3.788.81 0 .822-.044.2-.731-.959-1.06-.813-1.527.196-.631l.858.762-.523-1c-.495-.945-.484-.967.207-.4.68.558.7.541.278-.25-.634-1.191.532-2.31 1.722-1.651.741.41.756.388.2-.294-.568-.696-.546-.708.4-.212l1 .523-.762-.858c-.896-1.009-.429-1.155.631-.196.681.616.731.616.731-.013 0-.371.405-.838.9-1.037 1.004-.403.354-.462-1.7-.152m155.6.14c0 .22.191.4.424.4.233 0 .32.168.193.372-.126.205-.044.488.183.628.227.14.317.41.2.6-.117.19-.027.46.2.6.227.14.327.395.221.566-.197.318 1.911 2.544 2.342 2.473.13-.021.282-.021.337.001.055.021.612.085 1.238.14 2.509.222.331-3.992-2.574-4.98-.97-.33-1.824-.735-1.897-.9-.197-.442-.867-.365-.867.1m3.184 1.854c1.037.613 2.418 2.447 2.415 3.208-.001.186-.36-.249-.797-.966-.437-.717-1.381-1.661-2.098-2.098-.717-.437-1.152-.796-.966-.797.186 0 .837.293 1.446.653m-161.536.688c-.348.42-.326.661.094 1.01.42.348.661.326 1.01-.094.348-.42.326-.661-.094-1.01-.42-.348-.661-.326-1.01.094m161.792.818c.748.748 1.36 1.592 1.36 1.876 0 .304-.242.197-.587-.26-.417-.55-.591-.61-.6-.206-.009.398-.316.285-1.017-.374-.667-.627-.853-1.037-.552-1.223.302-.187.205-.423-.296-.714-.462-.268-.541-.439-.208-.447.297-.007 1.152.6 1.9 1.348M107.6 16.876c0 .834.027.841.539.139.297-.405.711-.632.919-.503.209.13.642.07.961-.132.414-.262.149-.37-.919-.374-1.279-.005-1.5.123-1.5.87m182.4-.513c0 .199.405.273.9.165.643-.141.747-.089.366.182-.416.296-.35.427.3.597.63.165.834.031.834-.544 0-.581-.286-.763-1.2-.763-.66 0-1.2.163-1.2.363m-185.2.837c-.944.944-1.049 2-.2 2 .775 0 2.2-1.425 2.2-2.2 0-.849-1.056-.744-2 .2m188.4 0c0 1.03 1.37 2.4 2.4 2.4.533 0 .8-.267.8-.8 0-1.03-1.37-2.4-2.4-2.4-.533 0-.8.267-.8.8m-187.02-.032c.306.494-.941 1.704-1.438 1.396-.233-.144-.113-.554.294-1.004.79-.873.837-.889 1.144-.392m187.933.332c-.22.587-.164.62.349.203.794-.644 1.279-.159.635.635-.423.521-.378.567.303.313.646-.241.703-.2.296.21-.609.612-2.378-.881-1.921-1.621.421-.681.63-.52.338.26M103.6 21.2c0 .66.174 1.2.387 1.2.214 0 .273-.3.132-.666-.164-.428-.098-.568.185-.393.243.15.571.061.73-.196.181-.293.116-.361-.172-.183-.254.157-.462.11-.462-.105s.225-.481.5-.592c.275-.111.095-.216-.4-.233-.74-.026-.9.181-.9 1.168m191.81.054c.091.47.289.965.441 1.1.152.135.157-.114.012-.554-.261-.788-.256-.788.336-.024.578.747.601.736.601-.3 0-.799-.2-1.076-.777-1.076-.578 0-.735.219-.613.854m12.19 1.461c0 .173.364.342.809.376.444.033.704-.109.576-.315-.281-.455-1.385-.503-1.385-.061M83.319 28.82c-.925.182-2.065.537-2.534.788-1.644.88-2.728 5.192-1.305 5.192.529 0 .573-.107.2-.48-.827-.827-.522-1.282.337-.504.795.719.81.719.532-.004-.196-.512-.141-.654.178-.457.308.19.38.067.213-.368-.176-.458-.338-.514-.54-.187-.204.33-.359.282-.53-.162-.135-.352-.049-.586.194-.533.24.052.527-.155.638-.461.139-.383.031-.455-.35-.231-.304.179-.209-.066.21-.544.814-.928 1.267-1.162.806-.417-.171.277-.064.374.276.25.306-.111.513-.398.461-.638-.053-.243.181-.329.533-.194.444.171.492.326.162.53-.327.202-.271.364.187.54.435.167.558.095.368-.213-.197-.319-.055-.374.457-.178.723.278.723.263.004-.532-.778-.859-.323-1.164.504-.337.373.373.48.37.48-.013 0-.271.405-.656.9-.855 1.19-.478.06-.475-2.381.008M314.8 28.8c0 .22.191.4.424.4.233 0 .32.168.193.372-.126.205-.044.488.183.628.227.14.317.41.2.6-.117.19-.027.46.2.6.227.14.327.395.221.566-.197.318 1.911 2.544 2.342 2.473.13-.021.282-.021.337.001.055.021.612.085 1.238.14 2.509.222.331-3.992-2.574-4.98-.97-.33-1.824-.735-1.897-.9-.197-.442-.867-.365-.867.1m3.184 1.854c1.037.613 2.418 2.447 2.415 3.208-.001.186-.36-.249-.797-.966-.437-.717-1.381-1.661-2.098-2.098-.717-.437-1.152-.796-.966-.797.186 0 .837.293 1.446.653M80.998 31.678c.03.404.294.957.587 1.228.323.3.433.315.278.039-.275-.491.639-1.463 1.077-1.145.147.106.088-.018-.13-.277-.657-.777-1.873-.673-1.812.155m237.242.482c.748.748 1.36 1.592 1.36 1.876 0 .304-.242.197-.587-.26-.417-.55-.591-.61-.6-.206-.009.398-.316.285-1.017-.374-.667-.627-.853-1.037-.552-1.223.302-.187.205-.423-.296-.714-.462-.268-.541-.439-.208-.447.297-.007 1.152.6 1.9 1.348M72.667 35.067c-.497.496-.271 1.309.302 1.09.762-.293 1.142-1.357.485-1.357-.286 0-.641.12-.787.267m252.933.106c0 .391.552.593 1.3.474.165-.026.279.088.253.253-.119.748.083 1.3.474 1.3 1.049 0 .172-2.2-.927-2.327-.605-.069-1.1.066-1.1.3M66.412 41.584c-.324.205-.468.494-.319.642.148.148.56-.022.917-.378.703-.704.347-.861-.598-.264m273.263 6.041c.096.289.411.604.7.7.3.1.45-.05.35-.35-.096-.289-.411-.604-.7-.7-.3-.1-.45.05-.35.35M47.384 60.027c-.145.234-.168.522-.051.64.287.286 1.067-.219 1.067-.691 0-.511-.691-.477-1.016.051m310.622 6.187c.011.689.742 1.571 1.048 1.265.164-.164-.006-.602-.378-.974s-.673-.503-.67-.291m-167.583 6.144c-.233.434-.427 1.116-.432 1.516-.027 2.202-2.15 3.266-7.45 3.731-5.097.448-4.429-.22-4.915 4.913-.552 5.829-1.046 6.657-4.608 7.732-.94.284-1.328.765-1.896 2.353-.758 2.124-1.509 2.903-3.122 3.242-2.277.479-2.698.861-3.185 2.892-.57 2.378-1.22 3.035-3.615 3.655-2.13.551-2.8 1.289-2.8 3.084 0 1.76-1.195 2.924-3 2.924-1.588 0-3 1.139-3 2.42 0 .451-.262 1.325-.581 1.944-.55 1.063-1.216 1.443-4.012 2.289-.829.251-1.3.725-1.546 1.554-.827 2.793-1.403 3.671-2.724 4.155-2.753 1.009-3.304 1.435-3.577 2.771-.365 1.784-1.786 3.2-3.524 3.513-2.991.538-3.047 1.517-.11 1.906 2.452.326 3.517 1.412 3.956 4.037.329 1.966.354 1.993 2.125 2.336 2.461.478 3.478 1.534 3.872 4.023l.325 2.052 2.046.119c2.59.151 3.692 1.212 4.081 3.931l.278 1.941 1.957.28c2.51.359 3.141 1.022 3.645 3.833l.411 2.289 1.84.264c3.145.449 4.003 1.372 4.416 4.743.089.732.39 1.028 1.122 1.105 3.71.39 4.686 1.233 5.145 4.444.26 1.82.293 1.855 1.956 2.077 2.349.315 3.576 1.585 3.979 4.119l.326 2.049 2.049.326c2.534.403 3.804 1.63 4.119 3.979.224 1.677.243 1.694 2.172 1.97 2.598.371 3.721 1.479 4.135 4.079l.327 2.052h3.396c3.328 0 3.398-.02 3.501-1 .39-3.71 1.233-4.686 4.444-5.145 1.797-.257 1.857-.311 2.073-1.86.405-2.911 1.473-3.868 4.774-4.273.855-.105 1.034-.386 1.26-1.973.457-3.21 1.434-4.054 5.144-4.444.737-.077 1.028-.368 1.105-1.105.393-3.738 1.769-5.2 4.895-5.2 1.301 0 1.393-.13 1.795-2.543.344-2.063 1.813-3.381 3.94-3.536 1.651-.12 1.667-.136 1.883-1.921.384-3.165 1.465-4.103 5.178-4.495.859-.09 1.033-.362 1.26-1.956.476-3.342.997-3.806 4.544-4.042 1.562-.104 1.603-.145 1.707-1.707.236-3.545.699-4.067 4.037-4.544 1.841-.264 1.848-.271 2.112-2.112.458-3.206 1.436-4.049 5.144-4.439 1.611-.169 1.003-.844-1.21-1.342-2.5-.563-2.709-.762-3.609-3.42-.701-2.069-.759-2.123-2.785-2.579-2.668-.601-3.327-1.307-3.585-3.839l-.211-2.068-2.137-.479c-2.673-.6-3.241-1.168-3.841-3.841l-.479-2.137-2.254-.4c-2.754-.489-3.064-.781-3.666-3.455-.474-2.102-.487-2.116-2.408-2.529-2.616-.563-3.304-1.599-3.864-5.816-.506-3.801-1.256-4.833-4.636-6.374-1.078-.491-1.769-1.104-1.919-1.701-.129-.513-.766-1.237-1.415-1.61-.65-.373-1.374-1.102-1.61-1.62s-.952-1.139-1.592-1.38c-.639-.242-1.379-.917-1.645-1.5-.266-.584-1.08-1.694-1.809-2.467-.729-.773-1.325-1.54-1.325-1.705 0-.165-1.395-.514-3.1-.776-3.776-.581-4.901-1.342-5.762-3.9l-.662-1.967-3.215-.116c-2.859-.103-3.263-.028-3.638.674m-155.356.309c-.147.146-.261.821-.254 1.5.012 1.158.047 1.187.587.474.316-.417.477-.917.357-1.11-.119-.193-.068-.325.113-.294.748.13 1.33-.061 1.33-.437 0-.445-1.715-.552-2.133-.133m329.165.273c.347.903 1.457 1.215 1.292.363-.073-.382-.445-.754-.827-.827-.478-.093-.623.052-.465.464m1.368 6.54c0 .529.107.573.48.2.827-.827 1.282-.522.504.337-.719.795-.719.81.004.532.512-.196.654-.141.457.178-.19.308-.067.38.368.213.458-.176.514-.338.187-.54-.33-.204-.282-.359.162-.53.352-.135.586-.049.533.194-.052.24.155.527.461.638.383.139.455.031.231-.35-.179-.304.066-.209.544.21.928.814 1.162 1.267.417.806-.277-.171-.374-.064-.25.276.111.306.398.513.638.461.243-.053.329.181.194.533-.171.444-.326.492-.53.162-.202-.327-.364-.271-.54.187-.167.435-.095.558.213.368.319-.197.374-.055.178.457-.278.723-.263.723.532.004.859-.778 1.164-.323.337.504-.373.373-.37.48.013.48.271 0 .665.405.875.9.278.654.316.354.138-1.1-.382-3.122-1.125-4.549-2.719-5.214-1.93-.807-3.427-.766-3.427.094m-333.47.304c-1.414.615-2.331 1.814-2.764 3.616-.159.66-.481 1.325-.716 1.478-.235.153-.287.418-.117.589.171.17.478.045.683-.279.204-.323.375-.431.378-.239.003.192.276.125.606-.149.33-.274.6-.364.6-.2 0 .164.27.074.6-.2.33-.274.6-.352.6-.174s.531-.186 1.181-.808c.65-.622 1.168-1.241 1.153-1.375-.016-.134.01-.333.058-.443.89-2.044-.034-2.786-2.262-1.816m.766 1.014c-.717.437-1.661 1.381-2.098 2.098-.437.717-.796 1.152-.797.966-.005-1.203 2.579-3.822 3.799-3.85.22-.005-.187.349-.904.786m.88.589c-.55.417-.61.591-.206.6.398.009.285.316-.374 1.017-.627.667-1.037.853-1.223.552-.187-.302-.423-.205-.714.296-.268.462-.439.541-.447.208-.015-.683 2.534-3.26 3.224-3.26.304 0 .197.242-.26.587m333.715.199c-.256.338-.307.481-.115.317.483-.409 1.475.482 1.161 1.042-.155.276-.045.261.278-.039.293-.271.556-.818.586-1.214.066-.899-1.255-.973-1.91-.106M20.4 104.377c0 .762 1.325.879 1.954.172.135-.152-.114-.157-.554-.012-.788.261-.788.256-.024-.336.747-.578.736-.601-.3-.601-.799 0-1.076.2-1.076.777m357.6-.359c0 .229.225.388.5.352.984-.128 1.5.037 1.5.479 0 .323-.159.317-.564-.019-.356-.295-.655-.324-.807-.077-.279.451.106.714.971.665.33-.019.722.239.872.574.159.356.283-.014.3-.892.027-1.453-.016-1.5-1.372-1.5-.77 0-1.4.188-1.4.418m-360.8.782c-.44.44-.8 1.16-.8 1.6 0 .533.267.8.8.8 1.03 0 2.4-1.37 2.4-2.4 0-.533-.267-.8-.8-.8-.44 0-1.16.36-1.6.8m364.082.1c.075.495.358.855.627.8.27-.055.446.121.391.391-.055.269.305.552.8.627 1.136.174 1.239-1.087.169-2.056-1.093-.988-2.155-.861-1.987.238m-362.793 1.189c-.711.711-.977.782-1.385.372-.407-.41-.35-.451.296-.21.681.254.726.208.303-.313-.644-.794-.159-1.279.635-.635.521.423.567.378.313-.303-.241-.646-.2-.703.21-.296.41.408.339.674-.372 1.385m364.239 1.719c.731.318 1.216.759 1.079.981-.138.223-.066.721.159 1.108.326.56.412.357.422-.997l.012-1.7-1.5.016-1.5.015 1.328.577M16 109.2c0 .66.163 1.2.363 1.2.199 0 .273-.34.165-.755-.109-.415-.004-.874.233-1.021.272-.168.344-.001.197.455-.195.603-.163.623.198.121.635-.883.541-1.2-.356-1.2-.622 0-.8.267-.8 1.2m368.4 7.88c0 .529.107.573.48.2.827-.827 1.282-.522.504.337-.719.795-.719.81.004.532.512-.196.654-.141.457.178-.19.308-.067.38.368.213.458-.176.514-.338.187-.54-.33-.204-.282-.359.162-.53.352-.135.586-.049.533.194-.052.24.155.527.461.638.383.139.455.031.231-.35-.179-.304.066-.209.544.21.928.814 1.162 1.267.417.806-.277-.171-.374-.064-.25.276.111.306.398.513.638.461.243-.053.329.181.194.533-.171.444-.326.492-.53.162-.202-.327-.364-.271-.54.187-.167.435-.095.558.213.368.319-.197.374-.055.178.457-.278.723-.263.723.532.004.859-.778 1.164-.323.337.504-.373.373-.37.48.013.48.271 0 .665.405.875.9.278.654.316.354.138-1.1-.382-3.122-1.125-4.549-2.719-5.214-1.93-.807-3.427-.766-3.427.094m-371.07.304c-1.414.615-2.331 1.814-2.764 3.616-.159.66-.481 1.325-.716 1.478-.235.153-.287.418-.117.589.171.17.478.045.683-.279.204-.323.375-.431.378-.239.003.192.276.125.606-.149.33-.274.6-.364.6-.2 0 .164.27.074.6-.2.33-.274.6-.352.6-.174s.531-.186 1.181-.808c.65-.622 1.168-1.241 1.153-1.375-.016-.134.01-.333.058-.443.89-2.044-.034-2.786-2.262-1.816m.766 1.014c-.717.437-1.661 1.381-2.098 2.098-.437.717-.796 1.152-.797.966-.005-1.203 2.579-3.822 3.799-3.85.22-.005-.187.349-.904.786m.88.589c-.55.417-.61.591-.206.6.398.009.285.316-.374 1.017-.627.667-1.037.853-1.223.552-.187-.302-.423-.205-.714.296-.268.462-.439.541-.447.208-.015-.683 2.534-3.26 3.224-3.26.304 0 .197.242-.26.587m371.315.199c-.256.338-.307.481-.115.317.483-.409 1.475.482 1.161 1.042-.155.276-.045.261.278-.039.293-.271.556-.818.586-1.214.066-.899-1.255-.973-1.91-.106M4.08 135.28c-.581.581-.637 1.92-.08 1.92.368 0 .563-.567.447-1.3-.026-.165.088-.279.253-.253.733.116 1.3-.079 1.3-.447 0-.557-1.339-.501-1.92.08m393.42 24.602a5.661 5.661 0 0 0 1.8 0c.495-.095.09-.173-.9-.173s-1.395.078-.9.173M.905 240.687c.609.092 1.509.09 2-.005.492-.095-.005-.171-1.105-.168-1.1.003-1.503.081-.895.173m395.3 23.176c-.153.475-.667.989-1.142 1.142-.791.256-.8.296-.116.476.411.108 1.014-.07 1.339-.395.325-.325.503-.928.395-1.339-.18-.684-.22-.675-.476.116M9.854 278.2c.382 3.122 1.125 4.549 2.719 5.214 1.93.807 3.427.766 3.427-.094 0-.529-.107-.573-.48-.2-.827.827-1.282.522-.504-.337.719-.795.719-.81-.004-.532-.512.196-.654.141-.457-.178.19-.308.067-.38-.368-.213-.458.176-.514.338-.187.54.33.204.282.359-.162.53-.352.135-.586.049-.533-.194.052-.24-.155-.527-.461-.638-.383-.139-.455-.031-.231.35.179.304-.066.209-.544-.21-.928-.814-1.162-1.267-.417-.806.277.171.374.064.25-.276-.111-.306-.398-.513-.638-.461-.243.053-.329-.181-.194-.533.171-.444.326-.492.53-.162.202.327.364.271.54-.187.167-.435.095-.558-.213-.368-.319.197-.374.055-.178-.457.278-.723.263-.723-.532-.004-.859.778-1.164.323-.337-.504.373-.373.37-.48-.013-.48-.271 0-.665-.405-.875-.9-.278-.654-.316-.354-.138 1.1M390 277.624c0 .233-.168.32-.372.193-.205-.126-.488-.044-.628.183-.14.227-.41.317-.6.2-.19-.117-.46-.027-.6.2-.14.227-.395.327-.566.221-.318-.197-2.544 1.911-2.473 2.342.021.13.021.282-.001.337-.021.055-.085.612-.14 1.238-.222 2.509 3.992.331 4.98-2.574.33-.97.735-1.824.9-1.897.442-.197.365-.867-.1-.867-.22 0-.4.191-.4.424m-1.965 1.911c-.497.928-2.345 2.465-2.965 2.465-.233 0-.074-.264.354-.587.55-.417.61-.591.206-.6-.398-.009-.285-.316.374-1.017.684-.728 1.027-.869 1.248-.511.223.36.378.302.576-.213.149-.389.353-.624.454-.524.1.101-.011.545-.247.987m.55.783c-.644 1.091-2.468 2.484-3.247 2.481-.186-.001.258-.365.985-.809.728-.444 1.625-1.331 1.993-1.973.368-.641.735-1.099.815-1.019.081.081-.165.675-.546 1.32m-376.042-.225c-.837 1.354.39 2.5 1.37 1.281.165-.206.224-.331.13-.277-.343.195-1.227-.799-1.015-1.142.121-.195.129-.355.019-.355s-.337.222-.504.493M16 291.333c0 1.256.129 1.466.9 1.461.612-.004.737-.11.391-.33-.281-.177-.59-.739-.688-1.248-.291-1.514-.603-1.453-.603.117m368-.477c0 .251-.315.695-.7.987-.648.492-.633.532.2.544.697.01.9-.213.9-.987 0-.55-.09-1-.2-1-.11 0-.2.205-.2.456m-.749 3.009c.494.599.465.621-.29.219-.613-.326-.958-.327-1.281-.004-.323.323-.322.668.004 1.281.402.755.38.784-.219.29-.572-.472-.665-.459-.665.1 0 .91 1.429.82 2.4-.151.971-.971 1.061-2.4.151-2.4-.559 0-.572.093-.1.665M16.4 294.2c0 .775 1.425 2.2 2.2 2.2.849 0 .744-1.056-.2-2s-2-1.049-2-.2m1.775.432c.893.893.327 1.585-.605.741-.413-.374-.655-.836-.537-1.026.293-.474.413-.444 1.142.285m364.785.633c-.137.221-.46.184-.791-.091-.308-.256-.456-.633-.329-.839.137-.221.46-.184.791.091.308.256.456.633.329.839m-362.928.635c-.026.74.181.9 1.168.9.66 0 1.2-.174 1.2-.387 0-.214-.3-.273-.666-.132-.428.164-.568.098-.393-.185.15-.243.061-.571-.196-.73-.293-.181-.361-.116-.183.172.157.254.11.462-.105.462s-.481-.225-.592-.5c-.111-.275-.216-.095-.233.4m358.824.113-.945.787h1.045c.777 0 1.044-.204 1.044-.8 0-.965.03-.965-1.144.013M28.654 315.8c.382 3.122 1.125 4.549 2.719 5.214 1.93.807 3.427.766 3.427-.094 0-.529-.107-.573-.48-.2-.827.827-1.282.522-.504-.337.719-.795.719-.81-.004-.532-.512.196-.654.141-.457-.178.19-.308.067-.38-.368-.213-.458.176-.514.338-.187.54.33.204.282.359-.162.53-.352.135-.586.049-.533-.194.052-.24-.155-.527-.461-.638-.383-.139-.455-.031-.231.35.179.304-.066.209-.544-.21-.928-.814-1.162-1.267-.417-.806.277.171.374.064.25-.276-.111-.306-.398-.513-.638-.461-.243.053-.329-.181-.194-.533.171-.444.326-.492.53-.162.202.327.364.271.54-.187.167-.435.095-.558-.213-.368-.319.197-.374.055-.178-.457.278-.723.263-.723-.532-.004-.859.778-1.164.323-.337-.504.373-.373.37-.48-.013-.48-.271 0-.665-.405-.875-.9-.278-.654-.316-.354-.138 1.1m342.546-.576c0 .233-.168.32-.372.193-.205-.126-.488-.044-.628.183-.14.227-.41.317-.6.2-.19-.117-.46-.027-.6.2-.14.227-.395.327-.566.221-.318-.197-2.544 1.911-2.473 2.342.021.13.021.282-.001.337-.021.055-.085.612-.14 1.238-.222 2.509 3.992.331 4.98-2.574.33-.97.735-1.824.9-1.897.442-.197.365-.867-.1-.867-.22 0-.4.191-.4.424m-1.965 1.911c-.497.928-2.345 2.465-2.965 2.465-.233 0-.074-.264.354-.587.55-.417.61-.591.206-.6-.398-.009-.285-.316.374-1.017.684-.728 1.027-.869 1.248-.511.223.36.378.302.576-.213.149-.389.353-.624.454-.524.1.101-.011.545-.247.987m.55.783c-.644 1.091-2.468 2.484-3.247 2.481-.186-.001.258-.365.985-.809.728-.444 1.625-1.331 1.993-1.973.368-.641.735-1.099.815-1.019.081.081-.165.675-.546 1.32m-338.442-.225c-.837 1.354.39 2.5 1.37 1.281.165-.206.224-.331.13-.277-.343.195-1.227-.799-1.015-1.142.121-.195.129-.355.019-.355s-.337.222-.504.493m333.41 8.407a4.069 4.069 0 0 0 0 .8c.026.165-.088.279-.253.253-.748-.119-1.3.083-1.3.474 0 .234.495.369 1.1.3 1.099-.127 1.976-2.327.927-2.327-.235 0-.448.225-.474.5m-329.877.997c.073.382.445.754.827.827.478.093.623-.052.465-.464-.347-.903-1.457-1.215-1.292-.363m6.33 5.974c.012.613.749 1.507 1.02 1.236.148-.148-.022-.56-.378-.917-.357-.356-.645-.499-.642-.319m310.978 6.956c-.145.234-.168.522-.051.64.287.286 1.067-.219 1.067-.691 0-.511-.691-.477-1.016.051M59.675 352.425c.096.289.411.604.7.7.3.1.45-.05.35-.35-.096-.289-.411-.604-.7-.7-.3-.1-.45.05-.35.35m273.925 5.182c-.33.209-.42.395-.2.412.22.018-.05.228-.6.467-.874.381-.906.458-.253.613.411.098 1.017-.092 1.347-.421.767-.768.539-1.6-.294-1.071M72.473 364.3c.109.941.329 1.115 1.527 1.207 1.306.1 1.349.067.641-.487-.417-.327-.917-.497-1.11-.377-.193.119-.325.068-.294-.113.133-.763-.065-1.33-.464-1.33-.234 0-.369.495-.3 1.1m254.529.498c-.662.732-.667.802-.051.802.371 0 .781-.278.911-.617.372-.971-.064-1.065-.86-.185M79.367 366.96c.371 1.899 1.528 3.18 3.469 3.84.97.33 1.889.775 2.042.988.153.214.418.249.589.079.17-.171.045-.478-.279-.683-.323-.204-.431-.375-.239-.378.192-.003.125-.276-.149-.606-.274-.33-.364-.6-.2-.6.164 0 .074-.27-.2-.6-.274-.33-.352-.6-.174-.6s-.186-.531-.808-1.181c-.622-.65-1.241-1.168-1.375-1.153a1.011 1.011 0 0 1-.443-.058c-1.478-.644-2.463-.224-2.233.952m241.353-.88c.827.827.522 1.282-.337.504-.795-.719-.81-.719-.532.004.196.512.141.654-.178.457-.308-.19-.38-.067-.213.368.176.458.338.514.54.187.204-.33.359-.282.53.162.135.352.049.586-.194.533-.24-.052-.527.155-.638.461-.139.383-.031.455.35.231.304-.179.209.066-.21.544-.814.928-1.267 1.162-.806.417.171-.277.064-.374-.276-.25-.306.111-.513.398-.461.638.053.243-.181.329-.533.194-.444-.171-.492-.326-.162-.53.327-.202.271-.364-.187-.54-.435-.167-.558-.095-.368.213.197.319.055.374-.457.178-.723-.278-.723-.263-.004.532.778.859.323 1.164-.504.337-.373-.373-.48-.37-.48.013 0 .271-.405.665-.9.875-.654.278-.354.316 1.1.138 3.122-.382 4.549-1.125 5.214-2.719.807-1.93.766-3.427-.094-3.427-.529 0-.573.107-.2.48m-238.747.764c.186-.301.596-.115 1.223.552.659.701.772 1.008.374 1.017-.404.009-.344.183.206.6.457.345.564.587.26.587-.69 0-3.239-2.577-3.224-3.26.008-.333.179-.254.447.208.291.501.527.598.714.296m.923 2.758c.717.437 1.152.796.966.797-1.204.005-3.866-2.657-3.861-3.861.001-.186.36.249.797.966.437.717 1.381 1.661 2.098 2.098m235.641-2.147c.275.491-.639 1.463-1.077 1.145-.147-.106-.088.018.13.277.219.259.728.495 1.132.525.86.063.919-1.143.093-1.908-.323-.3-.433-.315-.278-.039M103.6 378.924c0 .799.2 1.076.777 1.076.762 0 .879-1.325.172-1.954-.152-.135-.157.114-.012.554.261.788.256.788-.336.024-.578-.747-.601-.736-.601.3m192.8-.5c0 .233-.168.32-.372.193-.205-.126-.503-.019-.662.238-.194.314-.115.361.24.141.385-.238.46-.145.275.338-.167.435-.052.666.332.666.359 0 .587-.387.587-1 0-.55-.09-1-.2-1-.11 0-.2.191-.2.424M104 381.6c0 1.03 1.37 2.4 2.4 2.4.533 0 .8-.267.8-.8 0-1.03-1.37-2.4-2.4-2.4-.533 0-.8.267-.8.8m191.424-.17c.427.346.543.51.258.365-.715-.365-1.766.594-1.499 1.369.148.43.024.385-.382-.14-.588-.76-.601-.758-.601.1 0 1.133 1.302 1.174 2.4.076 1.098-1.098 1.057-2.4-.076-2.4-.86 0-.862.012-.1.63m-189.215.579c.581.642.63.911.238 1.3s-.432.325-.196-.309c.254-.681.208-.726-.313-.303-.794.644-1.279.159-.635-.635.418-.515.383-.569-.224-.341-.433.162-.623.112-.476-.126.366-.593.794-.482 1.606.414M108 383.6c0 .622.267.8 1.2.8.66 0 1.2-.163 1.2-.363 0-.199-.34-.273-.755-.165-.415.109-.874.004-1.021-.233-.168-.272-.001-.344.455-.197.603.195.623.163.121-.198-.883-.635-1.2-.541-1.2.356m183.48.13c.147.237-.1.306-.617.17-.475-.124-.863-.062-.863.137 0 .2.54.363 1.2.363.733 0 1.2-.207 1.2-.533 0-.294-.262-.534-.582-.534-.321 0-.473.179-.338.397m-174.513 2.03c.371 1.899 1.528 3.18 3.469 3.84.97.33 1.889.775 2.042.988.153.214.418.249.589.079.17-.171.045-.478-.279-.683-.323-.204-.431-.375-.239-.378.192-.003.125-.276-.149-.606-.274-.33-.364-.6-.2-.6.164 0 .074-.27-.2-.6-.274-.33-.352-.6-.174-.6s-.186-.531-.808-1.181c-.622-.65-1.241-1.168-1.375-1.153a1.011 1.011 0 0 1-.443-.058c-1.478-.644-2.463-.224-2.233.952m166.153-.88c.827.827.522 1.282-.337.504-.795-.719-.81-.719-.532.004.196.512.141.654-.178.457-.308-.19-.38-.067-.213.368.176.458.338.514.54.187.204-.33.359-.282.53.162.135.352.049.586-.194.533-.24-.052-.527.155-.638.461-.139.383-.031.455.35.231.304-.179.209.066-.21.544-.814.928-1.267 1.162-.806.417.171-.277.064-.374-.276-.25-.306.111-.513.398-.461.638.053.243-.181.329-.533.194-.444-.171-.492-.326-.162-.53.327-.202.271-.364-.187-.54-.435-.167-.558-.095-.368.213.197.319.055.374-.457.178-.723-.278-.723-.263-.004.532.778.859.323 1.164-.504.337-.373-.373-.48-.37-.48.013 0 .271-.405.665-.9.875-.654.278-.354.316 1.1.138 3.122-.382 4.549-1.125 5.214-2.719.807-1.93.766-3.427-.094-3.427-.529 0-.573.107-.2.48m-163.547.764c.186-.301.596-.115 1.223.552.659.701.772 1.008.374 1.017-.404.009-.344.183.206.6.457.345.564.587.26.587-.69 0-3.239-2.577-3.224-3.26.008-.333.179-.254.447.208.291.501.527.598.714.296m.923 2.758c.717.437 1.152.796.966.797-1.204.005-3.866-2.657-3.861-3.861.001-.186.36.249.797.966.437.717 1.381 1.661 2.098 2.098m160.441-2.147c.275.491-.639 1.463-1.077 1.145-.147-.106-.088.018.13.277.219.259.728.495 1.132.525.86.063.919-1.143.093-1.908-.323-.3-.433-.315-.278-.039M134.8 395.12c0 .396.216.936.48 1.2.581.581 1.92.637 1.92.08 0-.368-.567-.563-1.3-.447-.165.026-.279-.088-.253-.253.116-.733-.079-1.3-.447-1.3-.22 0-.4.324-.4.72m105.709 3.28c0 .99.078 1.395.173.9a5.661 5.661 0 0 0 0-1.8c-.095-.495-.173-.09-.173.9" fill="#fc4c24"/><path d="M160 1.8v1.8l-10.3.038c-16.117.06-14.549-.495-14.862 5.262-.034.629-.566.7-5.212.7-5.492 0-7.226.353-7.226 1.47 0 .537-.107.583-.48.21-.73-.73-1.295-.573-.669.185.503.61.465.621-.451.135-.945-.502-.967-.491-.4.2.558.68.541.7-.25.278-1.191-.634-2.31.532-1.651 1.722.41.741.388.756-.294.2-.697-.568-.708-.547-.205.4.486.916.475.954-.135.451-.758-.626-.915-.061-.185.669.373.373-.138.487-2.3.511-1.529.017-3.41.102-4.18.189-.77.088-1.725.174-2.121.193-.397.018-.827.308-.956.644-.191.498-.303.512-.609.077-.311-.443-.412-.44-.594.016-.274.686-1.44 1.868-2.17 2.2-.421.191-.434.304-.054.482.376.176.347.383-.123.852-.34.34-.524.866-.409 1.168.172.446-.77.554-5.077.578-7.962.044-7.505-.15-7.783 3.305l-.207 2.581-2.792.157c-1.915.109-2.936.353-3.249.778-.251.34-.726.529-1.056.419-.533-.178-.533-.119 0 .53.562.685.543.7-.307.248-1.65-.879-4.124 1.595-3.245 3.245.454.852.438.87-.257.307-.671-.544-.716-.534-.478.1.223.597 0 .707-1.526.75-.983.027-2.295.073-2.916.1-1.783.079-2.632 1.243-2.741 3.758-.114 2.649-.044 2.571-2.415 2.699-1.053.057-2.211.124-2.572.148-.848.058-1.218.98-1.352 3.37-.132 2.351.013 2.211-2.401 2.315-1.095.047-2.243.282-2.551.523-.309.24-.624.392-.7.337-.077-.055-.154.035-.173.2-.019.165-.17.48-.337.7-.167.22-.342 1.295-.389 2.39-.105 2.422.15 2.2-2.598 2.264-2.872.066-3.322.516-3.388 3.388-.064 2.751.242 2.449-2.652 2.618-3.068.179-3.583.694-3.739 3.736-.146 2.867.217 2.492-2.663 2.746-1.32.116-2.505.222-2.633.235-.129.013-.259.248-.29.523-.031.275-.167 1.58-.302 2.9-.293 2.87-.083 2.614-2.225 2.716-.962.046-1.99.311-2.282.588-.293.277-.743.383-1 .236-.258-.148-.339-.126-.182.048.157.175.076.699-.18 1.165-.474.86-.55 1.349-.743 4.768-.059 1.057-.258 2.014-.442 2.128-.184.113-.248.346-.142.517.106.172-.341.823-.993 1.448-.652.624-1.186.99-1.186.812 0-.178-.27-.1-.6.174-.33.274-.6.364-.6.2 0-.164-.27-.074-.6.2-.33.274-.6.373-.6.22 0-.152-.27-.007-.6.323-.412.411-.6 1.425-.6 3.228V91.2l-1.3.043c-.715.023-1.57.082-1.9.131-.33.049-1.024.12-1.543.158-.66.047-.874.248-.712.668.126.33.085.6-.092.6s-.363 2.463-.413 5.474c-.076 4.59-.2 5.56-.765 6.001-.613.478-.601.503.125.262.44-.145.689-.14.554.012-.404.454-1.954.635-1.954.228 0-.803-.726-.325-.968.637-.144.576-.724 1.215-1.343 1.481-1.488.638-1.542.701-.931 1.079.423.261.435.488.058 1.078-.433.68-.456.683-.251.027.142-.454.067-.622-.204-.455-.237.147-.342.606-.233 1.021.108.415.055.755-.119.755s-.344 1.575-.378 3.5c-.054 3.083-.184 4.624-.448 5.3-.043.11-.065.309-.049.443.015.134-.503.753-1.153 1.375s-1.181.986-1.181.808c0-.178-.27-.1-.6.174-.33.274-.6.364-.6.2 0-.164-.27-.074-.6.2-.33.274-.6.373-.6.22 0-.152-.27-.007-.6.323-.476.476-.6 1.759-.6 6.228 0 4.715-.097 5.637-.6 5.679-.33.028-1.095.068-1.7.09-.605.023-1.34.272-1.632.554-.293.282-.726.394-.962.248-.243-.15-.314-.079-.164.164.146.236.034.669-.248.962-.607.63-.581.105-.644 12.732l-.05 10H0v80.8h3.6l.038 10.3c.06 16.116-.496 14.537 5.232 14.862.589.033.687.75.8 5.871.106 4.762.247 5.919.765 6.3.349.257.545.737.435 1.067-.178.533-.119.533.53 0 .685-.562.7-.543.248.307-.879 1.65 1.595 4.124 3.245 3.245.852-.454.87-.438.307.257-.544.671-.534.716.1.478.618-.231.704.03.731 2.226.054 4.42.429 6.63 1.205 7.109.324.2.298.353-.091.53-.459.209-.458.288.005.498.707.321 1.879 1.493 2.2 2.2.191.421.304.434.482.054.176-.376.383-.347.852.123.34.34.866.524 1.168.409.446-.172.554.771.579 5.077.044 7.704-.026 7.55 3.52 7.806l2.364.171.158 2.799c.108 1.92.353 2.941.778 3.255.34.251.529.726.419 1.056-.178.533-.119.533.53 0 .685-.562.7-.543.248.307-.879 1.65 1.595 4.124 3.245 3.245.852-.454.87-.438.307.257-.544.671-.534.716.1.478.619-.231.706.039.75 2.326.064 3.306.02 3.114.914 4.008.525.525 1.459.803 2.986.891 2.676.153 2.485-.018 2.63 2.352.065 1.065.142 2.232.169 2.593.066.85.988 1.225 3.398 1.379 2.368.153 2.189-.033 2.292 2.374.047 1.095.19 2.17.317 2.39.128.22.235.535.238.7.003.165.186.315.406.334.22.019.58.17.8.337.22.167 1.295.342 2.39.389 2.422.105 2.2-.15 2.264 2.598.066 2.872.516 3.322 3.388 3.388 2.751.064 2.449-.242 2.618 2.652.179 3.068.694 3.583 3.736 3.739 2.866.146 2.497-.205 2.717 2.591.229 2.91.405 3.077 3.533 3.336 3.047.254 2.768.041 2.87 2.186.046.962.311 1.99.588 2.282.277.293.383.743.236 1-.148.258-.126.339.048.182.175-.157.699-.076 1.165.18.86.474 1.349.55 4.768.743 1.057.059 2.014.258 2.128.442.113.184.346.248.517.142.172-.106.823.341 1.448.993.624.652.99 1.186.812 1.186-.178 0-.1.27.174.6.274.33.364.6.2.6-.164 0-.074.27.2.6.274.33.373.6.22.6-.152 0-.007.27.323.6.411.412 1.425.6 3.228.6H91.2l.05 1.2c.028.66.095 1.56.15 2 .055.44.123 1.179.15 1.643.034.575.241.769.65.612.33-.126.6-.085.6.092s2.463.363 5.474.413c4.59.076 5.56.2 6.001.765.478.613.503.601.262-.125-.145-.44-.14-.689.012-.554.454.404.635 1.954.228 1.954-.803 0-.325.726.637.968.576.144 1.215.724 1.481 1.343.638 1.488.701 1.542 1.079.931.261-.423.488-.435 1.078-.058.68.433.683.456.027.251-.454-.142-.622-.067-.455.204.147.237.606.342 1.021.233.415-.108.755-.055.755.119s1.575.344 3.5.378c3.083.054 4.624.184 5.3.448.11.043.309.065.443.049.134-.015.753.503 1.375 1.153s.986 1.181.808 1.181c-.178 0-.1.27.174.6.274.33.364.6.2.6-.164 0-.074.27.2.6.274.33.373.6.22.6-.152 0-.007.27.323.6.476.476 1.759.6 6.228.6 4.715 0 5.637.097 5.679.6.028.33.068 1.095.09 1.7.023.605.272 1.34.554 1.632.282.293.394.726.248.962-.15.243-.079.314.164.164.236-.146.669-.034.962.248.63.607.105.581 12.732.644l10 .05v3.2h80.8v-3.2l10.3-.038c16.116-.06 14.537.496 14.862-5.232.033-.589.75-.687 5.871-.8 4.762-.106 5.919-.247 6.3-.765.257-.349.737-.545 1.067-.435.533.178.533.119 0-.53-.562-.685-.543-.7.307-.248 1.65.879 4.124-1.595 3.245-3.245-.454-.852-.438-.87.257-.307.671.544.716.534.478-.1-.237-.634.076-.7 3.326-.7 1.973 0 3.587-.163 3.587-.363 0-.199.388-.261.863-.137.566.148.769.075.591-.212-.178-.288.074-.375.738-.255.765.139 1.009.012 1.014-.525.005-.603.064-.619.394-.108.258.4.39.433.394.1.003-.275.231-.455.506-.4.275.055.455-.125.4-.4-.055-.275.125-.503.4-.506.333-.004.3-.136-.1-.394-.522-.338-.516-.389.05-.394.424-.004.65-.352.65-.999 0-.579-.172-.886-.412-.738-.239.148-.29.058-.122-.214.159-.257.441-.374.627-.259.186.115.399.035.473-.177.076-.218 2.508-.41 5.613-.443 6.819-.07 7.005-.187 7.091-4.431l.03-1.455 2.844-.16c1.959-.111 2.985-.354 3.3-.781.251-.34.726-.529 1.056-.419.533.178.533.119 0-.53-.562-.685-.543-.7.307-.248 1.65.879 4.124-1.595 3.245-3.245-.454-.852-.438-.87.257-.307.671.544.716.534.478-.1-.222-.594-.007-.706 1.426-.738 3.619-.08 4.229-.185 4.968-.854.564-.51.781-1.288.824-2.949.07-2.697.107-2.743 2.228-2.816 1.994-.069 3.532-.514 3.265-.947-.106-.171.043-.403.332-.514.343-.131.502-.844.46-2.056-.077-2.182-.104-2.157 2.436-2.267 1.086-.046 2.227-.281 2.535-.522.309-.24.624-.392.7-.337.077.055.154-.035.173-.2.019-.165.17-.48.337-.7.167-.22.342-1.295.389-2.39.105-2.422-.15-2.2 2.598-2.264 2.872-.066 3.322-.516 3.388-3.388.064-2.763-.229-2.474 2.658-2.621 3.042-.156 3.557-.671 3.736-3.739.168-2.877-.144-2.531 2.392-2.647 2.919-.133 3.308-.524 3.556-3.574.251-3.086.031-2.792 2.162-2.893.962-.046 1.99-.311 2.282-.588.293-.277.726-.384.962-.238.243.15.314.079.164-.164-.146-.236-.039-.669.238-.962.277-.292.535-1.072.572-1.732.038-.66.115-2.065.173-3.121.057-1.057.254-2.014.438-2.128.184-.113.248-.346.142-.517-.106-.172.341-.823.993-1.448.652-.624 1.186-.99 1.186-.812 0 .178.27.1.6-.174.33-.274.6-.364.6-.2 0 .164.27.074.6-.2.33-.274.6-.373.6-.22 0 .152.27.007.6-.323.412-.411.6-1.425.6-3.228V309.2l1.7-.047c.935-.026 1.856-.019 2.047.015 1.744.317 2.175-.998 2.23-6.801.055-5.765.903-8.378 2.152-6.631.248.347.383.337.536-.038.112-.277.399-.382.637-.235.269.166.344.034.197-.349-.305-.795.42-1.52 1.215-1.215.383.147.515.072.349-.197-.147-.238-.042-.525.235-.637.391-.159.381-.289-.046-.588-.45-.315-.423-.453.152-.775.744-.417.894-1.434 1.032-7.013.042-1.712.235-3.209.427-3.328.193-.119.264-.356.158-.527-.106-.172.341-.823.993-1.448.652-.624 1.186-.99 1.186-.812 0 .178.27.1.6-.174.33-.274.6-.364.6-.2 0 .164.27.074.6-.2.33-.274.6-.373.6-.22 0 .152.27.007.6-.323.476-.476.6-1.759.6-6.228V265.6l1-.05c3.603-.18 4.423-.736 4.796-3.25.057-.385.127-5.38.154-11.1l.05-10.4h3.2V160h-3.2l-.038-10.3c-.06-16.116.496-14.537-5.232-14.862-.589-.033-.687-.75-.8-5.871-.106-4.762-.247-5.919-.765-6.3-.349-.257-.545-.737-.435-1.067.178-.533.119-.533-.53 0-.685.562-.7.543-.248-.307.879-1.65-1.595-4.124-3.245-3.245-.852.454-.87.438-.307-.257.544-.671.534-.716-.1-.478-.618.231-.704-.03-.731-2.226-.029-2.374-.137-3.692-.479-5.87-.098-.626-.58-1.166-1.322-1.482l-1.168-.499 1.2-.043c1.146-.042 1.158-.06.274-.415-.557-.223-.811-.557-.638-.836.18-.291.113-.358-.178-.178-.279.173-.613-.081-.836-.638-.355-.886-.374-.874-.425.274-.036.817-.14.995-.325.557-.15-.353-.586-.594-.97-.535-.851.13-1.294-.456-.647-.856.265-.164.362-.117.224.106-.134.217.018.395.339.395.32 0 .582-.15.582-.334 0-.338-.591-.481-1.5-.363-.377.049-.507-1.244-.53-5.252-.045-8.109.139-7.782-4.425-7.885l-1.455-.033-.16-2.844c-.111-1.959-.354-2.985-.781-3.3-.34-.251-.529-.726-.419-1.056.178-.533.119-.533-.53 0-.685.562-.7.543-.248-.307.879-1.65-1.595-4.124-3.245-3.245-.852.454-.87.438-.307-.257.544-.671.534-.716-.1-.478-.597.223-.707 0-.75-1.526-.027-.983-.072-2.295-.1-2.916-.079-1.783-1.243-2.632-3.758-2.741-2.65-.114-2.554-.028-2.663-2.405-.085-1.843-.738-3.675-1.343-3.77-.157-.024-1.148-.091-2.201-.148-2.342-.127-2.22 0-2.325-2.417-.047-1.095-.222-2.17-.389-2.39-.167-.22-.318-.535-.337-.7a.399.399 0 0 0-.334-.334c-.165-.019-.48-.17-.7-.337-.22-.167-1.295-.342-2.39-.389-2.422-.105-2.2.15-2.264-2.598-.066-2.872-.516-3.322-3.388-3.388-2.751-.064-2.449.242-2.618-2.652-.179-3.068-.694-3.583-3.736-3.739-2.867-.146-2.492.217-2.746-2.663-.116-1.32-.222-2.505-.235-2.633-.013-.129-.248-.259-.523-.29a547.49 547.49 0 0 0-2.9-.302c-2.87-.293-2.614-.083-2.716-2.225-.046-.962-.311-1.99-.588-2.282-.277-.293-.384-.726-.238-.962.15-.243.079-.314-.164-.164-.236.146-.669.039-.962-.238-.292-.277-1.072-.535-1.732-.572-.66-.038-2.065-.115-3.121-.173-1.057-.057-2.014-.254-2.128-.438-.113-.184-.346-.248-.517-.142-.172.106-.823-.341-1.448-.993-.624-.652-.99-1.186-.812-1.186.178 0 .1-.27-.174-.6-.274-.33-.364-.6-.2-.6.164 0 .074-.27-.2-.6-.274-.33-.373-.6-.22-.6.152 0 .007-.27-.323-.6-.411-.412-1.425-.6-3.228-.6H309.2l-.046-1.3c-.025-.715-.014-1.615.025-2s-.1-.7-.309-.7c-.21 0-.356-.315-.326-.7.031-.385-.169-.655-.444-.6-.275.055-.5-.051-.5-.235s-2.463-.375-5.474-.425c-4.59-.076-5.56-.2-6.001-.765-.478-.613-.503-.601-.262.125.145.44.14.689-.012.554-.454-.404-.635-1.954-.228-1.954.805 0 .319-.646-.805-1.071-.747-.282-1.278-.829-1.443-1.487-.245-.974-.975-1.483-.975-.679 0 .199-.375.264-.834.144-.65-.17-.716-.301-.3-.597.381-.271.277-.323-.366-.182-.495.108-.9.055-.9-.119s-1.575-.344-3.5-.378c-3.083-.054-4.624-.184-5.3-.448a1.091 1.091 0 0 0-.443-.049c-.134.015-.753-.503-1.375-1.153s-.986-1.181-.808-1.181c.178 0 .1-.27-.174-.6-.274-.33-.364-.6-.2-.6.164 0 .074-.27-.2-.6-.274-.33-.373-.6-.22-.6.152 0 .007-.27-.323-.6-.476-.476-1.759-.6-6.228-.6-4.715 0-5.637-.097-5.679-.6a46.371 46.371 0 0 1-.09-1.7c-.023-.605-.272-1.34-.554-1.632-.282-.293-.394-.726-.248-.962.15-.243.079-.314-.164-.164-.236.146-.669.034-.962-.248-.63-.607-.105-.581-12.732-.644l-10-.05V0H160v1.8m-40.048 11.658c-.349.42-.59.442-1.01.094-.42-.349-.442-.59-.094-1.01.349-.42.59-.442 1.01-.094.42.349.442.59.094 1.01m158.996-.999c.501.291.598.527.296.714-.301.186-.115.596.552 1.223.701.659 1.008.772 1.017.374.009-.404.183-.344.6.206.345.457.587.564.587.26 0-.69-2.577-3.239-3.26-3.224-.333.008-.254.179.208.447m14.658 4.979c-.008.603 1.537 1.952 1.863 1.626.145-.145.054-.264-.202-.264-.257 0-.422-.135-.367-.3.055-.165-.06-.33-.255-.366-.196-.036-.508-.306-.694-.6-.189-.298-.341-.34-.345-.096M83.397 30.795c.147.238-.043.288-.476.126-.654-.246-.667-.199-.134.504.323.426.429.642.237.478-.489-.413-1.476.487-1.143 1.042.15.25-.066.185-.479-.145-.684-.546-.728-.535-.481.121.162.433.112.623-.126.476-.62-.383-.476-.807.66-1.942 1.135-1.136 1.559-1.28 1.942-.66m109.7.212c1.28.38 2.418 1.052 3.047 1.8 1.517 1.802 6.584 1.815 8.094.021 1.695-2.015 4.236-2.573 10.319-2.265 2.884.146 10.04.402 15.903.569 8.234.235 10.828.433 11.4.872.407.313 1.732 1.491 2.944 2.619 2.497 2.323 5.06 2.977 11.665 2.977 3.594 0 5.372.74 6.559 2.729 1.145 1.917 2.445 2.55 6.116 2.973 3.518.406 5.656 1.358 5.656 2.518 0 .311.779 1.379 1.731 2.373L278.263 50h6.631l1.453 1.553c.799.855 1.885 2.131 2.413 2.836.595.795 2.116 1.831 3.999 2.725 1.671.793 3.795 2.019 4.719 2.724.923.706 2.851 1.672 4.282 2.149 2.626.874 3.405 1.533 5.84 4.942.55.77 1.686 1.821 2.524 2.336 1.181.725 1.868 1.654 3.06 4.135.845 1.76 1.911 3.594 2.368 4.075.458.481 1.003 1.633 1.211 2.56.479 2.132 1.471 3.123 3.603 3.602.927.208 2.149.808 2.714 1.332.566.525 1.409 1.133 1.874 1.351.465.218 1.837.857 3.049 1.42 1.365.635 2.473 1.481 2.913 2.225.39.661 1.541 1.884 2.558 2.718 3.244 2.661 4.313 3.928 4.848 5.744.288.975 1.048 2.493 1.689 3.373.642.88 1.979 3.249 2.972 5.265 1.104 2.241 2.283 4.028 3.036 4.6 4.169 3.168 4.138 3.118 4.42 7.115.285 4.03.906 5.164 3.402 6.21 1.883.789 2.864 2.477 3.156 5.431.35 3.546 1.195 5.734 2.48 6.416 2.32 1.234 3.323 3.349 3.323 7.007 0 6.711.647 9.264 2.963 11.688a755.144 755.144 0 0 1 2.628 2.763c.476.507.65 2.755.887 11.468.162 5.96.414 13.097.559 15.859.318 6.031-.287 8.876-2.238 10.518-1.808 1.521-1.825 6.585-.027 8.098 2.015 1.695 2.573 4.236 2.265 10.319-.146 2.884-.402 10.04-.569 15.903-.235 8.234-.433 10.828-.872 11.4-.313.407-1.491 1.732-2.619 2.944-2.323 2.497-2.977 5.06-2.977 11.665 0 3.707-.714 5.318-2.978 6.717-1.738 1.075-2.465 2.729-2.808 6.398-.287 3.065-1.291 5.216-2.434 5.216-.311 0-1.379.779-2.373 1.731l-1.807 1.732v6.631l-1.553 1.453c-.855.799-2.143 1.895-2.863 2.435-.772.579-1.76 1.974-2.409 3.4-.606 1.33-1.838 3.498-2.738 4.818-.899 1.32-2.008 3.517-2.463 4.882-.831 2.493-1.532 3.31-4.903 5.718-.77.55-1.821 1.683-2.336 2.517-.651 1.057-1.602 1.828-3.135 2.542l-3.046 1.421c-.465.218-1.308.826-1.874 1.351-.565.524-1.787 1.124-2.714 1.332-2.133.479-3.124 1.47-3.603 3.603-.208.927-.808 2.149-1.332 2.714-.525.566-1.133 1.409-1.351 1.874L312.659 328c-.723 1.551-1.482 2.481-2.574 3.152-.852.524-2.254 1.935-3.117 3.135-1.782 2.48-2.883 3.347-5.168 4.07-.88.279-2.32 1.027-3.2 1.663-.88.637-3.249 1.97-5.265 2.963-2.241 1.104-4.028 2.283-4.6 3.036-3.177 4.18-3.107 4.137-7.189 4.426l-3.734.264-1.506 1.697c-.828.933-1.506 1.931-1.506 2.218 0 1.03-2.205 2.115-4.821 2.373-3.546.35-5.734 1.195-6.416 2.48-1.234 2.32-3.349 3.323-7.007 3.323-6.502 0-9.304.665-11.344 2.694-3.693 3.67-2.927 3.472-14.612 3.78-5.72.151-12.83.396-15.8.543-6.034.301-9.147-.407-10.748-2.442-1.328-1.688-6.297-1.45-8.136.389-1.98 1.98-3.927 2.378-10.116 2.068-2.86-.144-9.997-.397-15.86-.564-8.234-.235-10.828-.433-11.4-.872-.407-.313-1.732-1.491-2.944-2.619-2.497-2.323-5.06-2.977-11.665-2.977-3.707 0-5.318-.714-6.717-2.978-1.075-1.738-2.729-2.465-6.398-2.808-3.405-.318-4.999-1.198-5.847-3.226-1.063-2.544-2.619-3.388-6.247-3.388h-3.216l-1.453-1.553c-.799-.855-1.895-2.143-2.435-2.863-.579-.772-1.974-1.76-3.4-2.409-1.33-.606-3.498-1.838-4.818-2.738-1.32-.899-3.518-2.008-4.885-2.464-1.778-.593-2.801-1.221-3.6-2.209-2.768-3.429-3.907-4.632-4.989-5.271-.702-.415-1.567-1.558-2.186-2.89-.563-1.212-1.202-2.584-1.42-3.049-.218-.465-.826-1.308-1.351-1.874-.524-.565-1.124-1.787-1.332-2.714-.479-2.132-1.47-3.124-3.602-3.603-.927-.208-2.079-.753-2.56-1.211-.481-.457-2.315-1.523-4.075-2.368-2.508-1.204-3.406-1.873-4.152-3.092-.524-.856-1.935-2.261-3.135-3.124-2.196-1.578-3.713-3.282-3.713-4.172 0-.775-1.979-4.509-2.965-5.596-.499-.55-1.517-2.412-2.261-4.139-.89-2.066-1.804-3.501-2.676-4.2-4.512-3.619-4.252-3.2-4.543-7.315l-.264-3.734-1.697-1.506c-.933-.828-1.931-1.506-2.218-1.506-1.025 0-2.115-2.206-2.381-4.821-.39-3.832-.892-5.058-2.646-6.468-2.592-2.083-3.149-3.328-3.149-7.042 0-6.414-.672-9.224-2.694-11.257-3.67-3.693-3.472-2.927-3.78-14.612-.151-5.72-.401-12.845-.555-15.834-.323-6.29.217-8.812 2.257-10.528 1.798-1.513 1.781-6.577-.027-8.098-1.924-1.62-2.546-4.475-2.245-10.304.138-2.66.393-9.724.568-15.699.244-8.367.447-11.033.883-11.6.311-.405 1.488-1.729 2.616-2.941 2.323-2.497 2.977-5.06 2.977-11.665 0-3.594.74-5.372 2.729-6.559 1.917-1.145 2.55-2.445 2.973-6.116.451-3.91 1.256-5.428 3.339-6.299 2.685-1.122 3.359-2.345 3.359-6.1v-3.351l1.553-1.453c.855-.799 2.131-1.885 2.836-2.413.795-.595 1.831-2.116 2.725-3.999.793-1.671 2.019-3.795 2.724-4.719.706-.923 1.673-2.852 2.15-4.285.632-1.899 1.242-2.909 2.248-3.722 3.435-2.773 4.632-3.908 5.274-4.998.469-.797 1.714-1.662 3.89-2.704 1.76-.843 3.594-1.908 4.075-2.365.481-.458 1.633-1.003 2.56-1.211 2.131-.479 3.123-1.471 3.602-3.602.208-.927.753-2.079 1.211-2.56.457-.481 1.522-2.315 2.365-4.075 1.065-2.224 1.902-3.417 2.743-3.913.665-.392 1.893-1.544 2.727-2.561 2.334-2.845 4.112-4.526 4.787-4.526.885 0 4.557-1.9 5.73-2.965.55-.499 2.412-1.517 4.139-2.261 2.066-.89 3.501-1.804 4.2-2.676 3.612-4.503 3.212-4.252 7.241-4.537 4.03-.285 5.164-.906 6.21-3.402.787-1.878 2.478-2.863 5.431-3.164 3.832-.39 5.058-.892 6.468-2.646 2.083-2.592 3.328-3.149 7.042-3.149 6.622 0 9.185-.655 11.601-2.963 1.173-1.12 2.413-2.3 2.755-2.62.502-.471 2.903-.636 12.386-.852 6.469-.147 11.875-.379 12.012-.516.513-.513 8.391-.243 10.412.358m123.451.252c.501.291.598.527.296.714-.301.186-.115.596.552 1.223.701.659 1.008.772 1.017.374.009-.404.183-.344.6.206.345.457.587.564.587.26 0-.69-2.577-3.239-3.26-3.224-.333.008-.254.179.208.447M187.477 70.102c-3.328 3.459-5.472 4.698-8.129 4.698-2.221 0-4.548 2.353-4.548 4.6 0 2.938-1.191 5.368-3.446 7.034-1.2.887-2.707 2.336-3.348 3.221-.641.885-2.001 2.163-3.023 2.839-1.022.677-2.477 2.164-3.235 3.305-.757 1.141-2.197 2.688-3.2 3.438-1.003.749-2.444 2.208-3.204 3.242-.76 1.033-1.973 2.244-2.696 2.692-.724.447-2.386 1.941-3.694 3.321-1.307 1.379-3.065 3.025-3.905 3.657-.841.632-2.034 1.946-2.653 2.921-.618.975-1.958 2.326-2.977 3.001-1.019.675-2.333 1.88-2.919 2.678-.587.798-1.839 2.171-2.784 3.051-3.537 3.296-3.401 5.361.526 7.93 1.077.705 2.536 2.172 3.257 3.273.718 1.099 1.899 2.341 2.624 2.762.725.421 2.029 1.725 2.897 2.897.869 1.173 2.417 2.661 3.44 3.307 1.023.646 2.193 1.668 2.6 2.271.407.604 1.55 1.875 2.54 2.826 4.016 3.858 4.639 4.498 5.538 5.7.516.689 1.784 1.806 2.818 2.483 1.035.677 2.232 1.884 2.662 2.682.455.845 1.742 2.086 3.078 2.969 1.465.968 2.583 2.078 3.087 3.067.435.853 1.344 1.974 2.019 2.492 3.026 2.32 3.998 3.271 3.998 3.913 0 .817 1.307 2.086 3.062 2.972.694.35 1.684 1.204 2.2 1.896.516.693 1.726 2.025 2.688 2.96 2.976 2.89 4.495 4.432 6.055 6.148l1.501 1.652h3.461c4.08 0 4.861-.383 6.621-3.242a10.125 10.125 0 0 1 3.167-3.168c1.31-.806 2.46-1.993 3.473-3.583 1.121-1.759 1.913-2.537 3.046-2.99 1.087-.435 1.884-1.187 2.75-2.593a10.112 10.112 0 0 1 3.2-3.2 10.143 10.143 0 0 0 3.2-3.2 10.112 10.112 0 0 1 3.2-3.2c1.408-.867 2.158-1.663 2.595-2.754.452-1.13 1.198-1.895 2.83-2.902a12.243 12.243 0 0 0 3.693-3.565c.925-1.377 2.126-2.556 3.215-3.157.957-.527 2.302-1.774 2.991-2.771.689-.997 1.702-2.184 2.252-2.639 1.035-.856 5.862-5.488 9-8.636 3.827-3.841 4.56-4.556 6.385-6.233l1.886-1.732-.928-1.651c-.547-.974-1.43-1.86-2.154-2.163-.674-.282-1.668-1.074-2.208-1.76a484.204 484.204 0 0 1-1.922-2.467c-.518-.671-1.633-1.573-2.48-2.005-.846-.431-1.862-1.257-2.259-1.835-1.062-1.549-9.739-10.265-11.036-11.087-.613-.388-1.665-1.6-2.337-2.692-.739-1.2-1.895-2.38-2.926-2.984-2.6-1.523-2.989-2.167-3.645-6.034-.55-3.247-.726-3.662-2.013-4.757-.776-.66-2.212-2.01-3.19-3a648.95 648.95 0 0 0-5.973-5.968c-1.1-1.089-2.557-2.65-3.237-3.47-1.121-1.35-1.485-1.52-3.893-1.81-3.295-.396-4.225-.885-5.925-3.115-1.929-2.528-3.075-3.24-6.188-3.84-1.516-.292-3.083-.659-3.48-.816-.56-.22-1.464.485-4 3.121m10.461 3.665c.861 2.558 1.986 3.319 5.762 3.9 1.705.262 3.1.611 3.1.776 0 .165.596.932 1.325 1.705s1.543 1.883 1.809 2.467c.266.583 1.006 1.258 1.645 1.5.64.241 1.356.862 1.592 1.38.236.518.96 1.247 1.61 1.62.649.373 1.286 1.097 1.415 1.61.15.597.841 1.21 1.919 1.701 3.38 1.541 4.13 2.573 4.636 6.374.56 4.217 1.248 5.253 3.864 5.816 1.921.413 1.934.427 2.408 2.529.602 2.674.912 2.966 3.666 3.455l2.254.4.479 2.137c.6 2.673 1.168 3.241 3.841 3.841l2.137.479.211 2.068c.258 2.532.917 3.238 3.585 3.839 2.026.456 2.084.51 2.785 2.579.9 2.658 1.109 2.857 3.609 3.42 2.213.498 2.821 1.173 1.21 1.342-3.708.39-4.686 1.233-5.144 4.439-.264 1.841-.271 1.848-2.112 2.112-3.338.477-3.801.999-4.037 4.544-.104 1.562-.145 1.603-1.707 1.707-3.547.236-4.068.7-4.544 4.042-.227 1.594-.401 1.866-1.26 1.956-3.713.392-4.794 1.33-5.178 4.495-.216 1.785-.232 1.801-1.883 1.921-2.127.155-3.596 1.473-3.94 3.536-.402 2.413-.494 2.543-1.795 2.543-3.126 0-4.502 1.462-4.895 5.2-.077.737-.368 1.028-1.105 1.105-3.71.39-4.687 1.234-5.144 4.444-.226 1.587-.405 1.868-1.26 1.973-3.301.405-4.369 1.362-4.774 4.273-.216 1.549-.276 1.603-2.073 1.86-3.211.459-4.054 1.435-4.444 5.145-.103.98-.173 1-3.501 1h-3.396l-.327-2.052c-.414-2.6-1.537-3.708-4.135-4.079-1.929-.276-1.948-.293-2.172-1.97-.315-2.349-1.585-3.576-4.119-3.979l-2.049-.326-.326-2.049c-.403-2.534-1.63-3.804-3.979-4.119-1.663-.222-1.696-.257-1.956-2.077-.459-3.211-1.435-4.054-5.145-4.444-.732-.077-1.033-.373-1.122-1.105-.413-3.371-1.271-4.294-4.416-4.743l-1.84-.264-.411-2.289c-.504-2.811-1.135-3.474-3.645-3.833l-1.957-.28-.278-1.941c-.389-2.719-1.491-3.78-4.081-3.931l-2.046-.119-.325-2.052c-.394-2.489-1.411-3.545-3.872-4.023-1.771-.343-1.796-.37-2.125-2.336-.439-2.625-1.504-3.711-3.956-4.037-2.937-.389-2.881-1.368.11-1.906 1.738-.313 3.159-1.729 3.524-3.513.273-1.336.824-1.762 3.577-2.771 1.321-.484 1.897-1.362 2.724-4.155.246-.829.717-1.303 1.546-1.554 2.796-.846 3.462-1.226 4.012-2.289.319-.619.581-1.493.581-1.944 0-1.281 1.412-2.42 3-2.42 1.805 0 3-1.164 3-2.924 0-1.795.67-2.533 2.8-3.084 2.395-.62 3.045-1.277 3.615-3.655.487-2.031.908-2.413 3.185-2.892 1.613-.339 2.364-1.118 3.122-3.242.568-1.588.956-2.069 1.896-2.353 3.562-1.075 4.056-1.903 4.608-7.732.486-5.133-.182-4.465 4.915-4.913 5.3-.465 7.423-1.529 7.45-3.731.024-1.97.66-2.313 4.07-2.19l3.215.116.662 1.967m171.007 7.688c1.136 1.135 1.28 1.559.66 1.942-.238.147-.288-.043-.126-.476.247-.656.203-.667-.481-.121-.413.33-.629.395-.479.145.333-.555-.654-1.455-1.143-1.042-.192.164-.086-.052.237-.478.533-.703.52-.75-.134-.504-.433.162-.623.112-.476-.126.383-.62.807-.476 1.942.66M32.16 82.16c-.748.748-1.355 1.603-1.348 1.9.008.333.179.254.447-.208.291-.501.527-.598.714-.296.186.301.596.115 1.223-.552.659-.701.772-1.008.374-1.017-.404-.009-.344-.183.206-.6.457-.345.564-.587.26-.587-.284 0-1.128.612-1.876 1.36M18.8 105.133c0 .257-.135.422-.3.367-.165-.055-.33.06-.366.255-.036.196-.306.508-.6.694-.298.189-.34.341-.096.345.603.008 1.952-1.537 1.626-1.863-.145-.145-.264-.054-.264.202m368.945 13.922c1.136 1.135 1.28 1.559.66 1.942-.238.147-.288-.043-.126-.476.247-.656.203-.667-.481-.121-.413.33-.629.395-.479.145.333-.555-.654-1.455-1.143-1.042-.192.164-.086-.052.237-.478.533-.703.52-.75-.134-.504-.433.162-.623.112-.476-.126.383-.62.807-.476 1.942.66m-374.385.705c-.748.748-1.355 1.603-1.348 1.9.008.333.179.254.447-.208.291-.501.527-.598.714-.296.186.301.596.115 1.223-.552.659-.701.772-1.008.374-1.017-.404-.009-.344-.183.206-.6.457-.345.564-.587.26-.587-.284 0-1.128.612-1.876 1.36M293 169.198c-5.837.429-7.7 1.065-10.434 3.563-1.265 1.156-2.611 2.039-3.109 2.039-1.577 0-3.463 1.63-4.467 3.86-.312.693-1.132 1.683-1.822 2.2a39.94 39.94 0 0 0-2.611 2.2l-1.357 1.26.008 13.14c.009 15.861.264 18.274 2.093 19.881 3.096 2.719 3.499 3.168 3.499 3.899 0 .424.618 1.444 1.372 2.266l1.372 1.494 5.155-.019c5.43-.02 8.901-1.118 8.901-2.816 0-.679-3.465-2.422-5.6-2.817-1.958-.362-3.419-1.497-4.664-3.621-.673-1.148-1.851-2.323-3.19-3.179-2.997-1.917-2.984-1.87-3.24-12.166l-.228-9.147 1.062-1.393c.585-.766 1.786-1.799 2.67-2.296.928-.521 2.143-1.738 2.875-2.878.762-1.188 2.098-2.507 3.352-3.309 2.15-1.375 3.548-2.851 3.975-4.196.472-1.489 2.138-1.888 9.121-2.19l6.693-.289.987-1.173c1.292-1.535 1.247-2.021-.313-3.335-1.121-.943-1.319-.999-1.435-.406-.122.622-.179.627-.6.053-.604-.825-4.257-1.051-10.065-.625m21.072 6.744c-.7.739-1.272 1.521-1.272 1.739 0 .965 1.463 2.719 2.964 3.552.9.5 3.346 2.611 5.436 4.691l3.8 3.783.127 12.646c.155 15.396.215 15.097-3.37 16.899-2.373 1.192-4.557 3.078-4.557 3.935 0 .896-3.573 1.664-8.759 1.883-7.221.305-9.738 2.114-6.966 5.008l1.075 1.122h13.73l1.675-1.213c.921-.668 1.829-1.62 2.018-2.117.607-1.597 3.88-3.07 6.82-3.07 2.598 0 3.861-1.84 4.202-6.123.304-3.811.803-4.632 4.544-7.477 3.651-2.775 2.88-16.413-1.161-20.559-.972-.997-1.944-2.582-2.478-4.039-.871-2.376-3.151-5.402-4.072-5.402-.658 0-2.479-2.005-2.807-3.091-.878-2.908-8.271-4.901-8.936-2.409-.239.896-.241.895-.491-.1l-.25-1-1.272 1.342m73.756 103.13c-.198.515-.353.573-.576.213-.221-.358-.564-.217-1.248.511-.659.701-.772 1.008-.374 1.017.404.009.344.183-.206.6-.428.323-.587.587-.354.587 1.031 0 3.746-2.917 3.212-3.452-.101-.1-.305.135-.454.524m-375.715.828c-.238.633-.188.644.512.113.426-.323.642-.429.478-.237-.413.489.487 1.476 1.042 1.143.25-.15.185.066-.145.479-.552.692-.537.728.2.453.598-.223.686-.183.347.158-.801.808-3.343-1.445-2.737-2.425.392-.634.583-.433.303.316m356.915 36.772c-.198.515-.353.573-.576.213-.221-.358-.564-.217-1.248.511-.659.701-.772 1.008-.374 1.017.404.009.344.183-.206.6-.428.323-.587.587-.354.587 1.031 0 3.746-2.917 3.212-3.452-.101-.1-.305.135-.454.524m-338.115.828c-.238.633-.188.644.512.113.426-.323.642-.429.478-.237-.413.489.487 1.476 1.042 1.143.25-.15.185.066-.145.479-.552.692-.537.728.2.453.598-.223.686-.183.347.158-.801.808-3.343-1.445-2.737-2.425.392-.634.583-.433.303.316m49.899 48.84c-.015.683 2.534 3.26 3.224 3.26.304 0 .197-.242-.26-.587-.55-.417-.61-.591-.206-.6.398-.009.285-.316-.374-1.017-.627-.667-1.037-.853-1.223-.552-.187.302-.423.205-.714-.296-.268-.462-.439-.541-.447-.208m238.762 1.954c-.769 1.231-1.979 1.862-2.521 1.315-.339-.341-.251-.381.347-.158.737.275.752.239.2-.453-.33-.413-.395-.629-.145-.479.555.333 1.455-.654 1.042-1.143-.164-.192.052-.086.478.237.713.54.751.523.476-.213-.223-.598-.183-.686.158-.347.342.339.333.65-.035 1.241m-214.44 13.257c.294.186.564.498.6.694.036.195.201.31.366.255.165-.055.3.11.3.367 0 .256.119.347.264.202.326-.326-1.023-1.871-1.626-1.863-.244.004-.202.156.096.345m13.278 3.589c-.015.683 2.534 3.26 3.224 3.26.304 0 .197-.242-.26-.587-.55-.417-.61-.591-.206-.6.398-.009.285-.316-.374-1.017-.627-.667-1.037-.853-1.223-.552-.187.302-.423.205-.714-.296-.268-.462-.439-.541-.447-.208m163.562 1.954c-.769 1.231-1.979 1.862-2.521 1.315-.339-.341-.251-.381.347-.158.737.275.752.239.2-.453-.33-.413-.395-.629-.145-.479.555.333 1.455-.654 1.042-1.143-.164-.192.052-.086.478.237.713.54.751.523.476-.213-.223-.598-.183-.686.158-.347.342.339.333.65-.035 1.241" fill="#e04323"/><path d="M281.926 11.912c.59.612 1.15 1.062 1.242.999.231-.156-1.633-2.111-2.012-2.111-.168 0 .179.501.77 1.112m-2.022.086c.717.437 1.661 1.381 2.098 2.098.437.717.796 1.152.797.966.005-1.204-2.657-3.866-3.861-3.861-.186.001.249.36.966.797m-174.532 4.757c.294.475-.757 1.318-1.173.942-.18-.164-.191-.06-.023.229.242.42.455.389 1.054-.153.653-.591.722-1.373.123-1.373-.11 0-.102.16.019.355m214.154 13.957c.59.612 1.15 1.062 1.242.999.231-.156-1.633-2.111-2.012-2.111-.168 0 .179.501.77 1.112m-2.022.086c.717.437 1.661 1.381 2.098 2.098.437.717.796 1.152.797.966.005-1.204-2.657-3.866-3.861-3.861-.186.001.249.36.966.797m-134.819-.149c-.137.137-5.543.369-12.012.516-9.483.216-11.884.381-12.386.852-.342.32-1.582 1.5-2.755 2.62-2.416 2.308-4.979 2.963-11.601 2.963-3.714 0-4.959.557-7.042 3.149-1.41 1.754-2.636 2.256-6.468 2.646-2.953.301-4.644 1.286-5.431 3.164-1.046 2.496-2.18 3.117-6.21 3.402-4.029.285-3.629.034-7.241 4.537-.699.872-2.134 1.786-4.2 2.676-1.727.744-3.589 1.762-4.139 2.261-1.173 1.065-4.845 2.965-5.73 2.965-.675 0-2.453 1.681-4.787 4.526-.834 1.017-2.062 2.169-2.727 2.561-.841.496-1.678 1.689-2.743 3.913-.843 1.76-1.908 3.594-2.365 4.075-.458.481-1.003 1.633-1.211 2.56-.479 2.131-1.471 3.123-3.602 3.602-.927.208-2.079.753-2.56 1.211-.481.457-2.315 1.522-4.075 2.365-2.176 1.042-3.421 1.907-3.89 2.704-.642 1.09-1.839 2.225-5.274 4.998-1.006.813-1.616 1.823-2.248 3.722-.477 1.433-1.444 3.362-2.15 4.285-.705.924-1.931 3.048-2.724 4.719-.894 1.883-1.93 3.404-2.725 3.999-.705.528-1.981 1.614-2.836 2.413L50 115.506v3.351c0 3.755-.674 4.978-3.359 6.1-2.083.871-2.888 2.389-3.339 6.299-.423 3.671-1.056 4.971-2.973 6.116-1.989 1.187-2.729 2.965-2.729 6.559 0 6.605-.654 9.168-2.977 11.665-1.128 1.212-2.305 2.536-2.616 2.941-.436.567-.639 3.233-.883 11.6-.175 5.975-.43 13.039-.568 15.699-.301 5.829.321 8.684 2.245 10.304 1.808 1.521 1.825 6.585.027 8.098-2.04 1.716-2.58 4.238-2.257 10.528.154 2.989.404 10.114.555 15.834.308 11.685.11 10.919 3.78 14.612 2.022 2.033 2.694 4.843 2.694 11.257 0 3.714.557 4.959 3.149 7.042 1.754 1.41 2.256 2.636 2.646 6.468.266 2.615 1.356 4.821 2.381 4.821.287 0 1.285.678 2.218 1.506l1.697 1.506.264 3.734c.291 4.115.031 3.696 4.543 7.315.872.699 1.786 2.134 2.676 4.2.744 1.727 1.762 3.589 2.261 4.139.986 1.087 2.965 4.821 2.965 5.596 0 .89 1.517 2.594 3.713 4.172 1.2.863 2.611 2.268 3.135 3.124.746 1.219 1.644 1.888 4.152 3.092 1.76.845 3.594 1.911 4.075 2.368.481.458 1.633 1.003 2.56 1.211 2.132.479 3.123 1.471 3.602 3.603.208.927.808 2.149 1.332 2.714.525.566 1.133 1.409 1.351 1.874.218.465.857 1.837 1.42 3.049.619 1.332 1.484 2.475 2.186 2.89 1.082.639 2.221 1.842 4.989 5.271.799.988 1.822 1.616 3.6 2.209 1.367.456 3.565 1.565 4.885 2.464 1.32.9 3.488 2.132 4.818 2.738 1.426.649 2.821 1.637 3.4 2.409.54.72 1.636 2.008 2.435 2.863l1.453 1.553h3.216c3.628 0 5.184.844 6.247 3.388.848 2.028 2.442 2.908 5.847 3.226 3.669.343 5.323 1.07 6.398 2.808 1.399 2.264 3.01 2.978 6.717 2.978 6.605 0 9.168.654 11.665 2.977 1.212 1.128 2.537 2.306 2.944 2.619.572.439 3.166.637 11.4.872 5.863.167 13 .42 15.86.564 6.189.31 8.136-.088 10.116-2.068 1.839-1.839 6.808-2.077 8.136-.389 1.601 2.035 4.714 2.743 10.748 2.442 2.97-.147 10.08-.392 15.8-.543 11.685-.308 10.919-.11 14.612-3.78 2.04-2.029 4.842-2.694 11.344-2.694 3.658 0 5.773-1.003 7.007-3.323.682-1.285 2.87-2.13 6.416-2.48 2.616-.258 4.821-1.343 4.821-2.373 0-.287.678-1.285 1.506-2.218l1.506-1.697 3.734-.264c4.082-.289 4.012-.246 7.189-4.426.572-.753 2.359-1.932 4.6-3.036 2.016-.993 4.385-2.326 5.265-2.963.88-.636 2.32-1.384 3.2-1.663 2.285-.723 3.386-1.59 5.168-4.07.863-1.2 2.265-2.611 3.117-3.135 1.092-.671 1.851-1.601 2.574-3.152l1.421-3.046c.218-.465.826-1.308 1.351-1.874.524-.565 1.124-1.787 1.332-2.714.479-2.133 1.47-3.124 3.603-3.603.927-.208 2.149-.808 2.714-1.332.566-.525 1.409-1.133 1.874-1.351l3.046-1.421c1.533-.714 2.484-1.485 3.135-2.542.515-.834 1.566-1.967 2.336-2.517 3.371-2.408 4.072-3.225 4.903-5.718.455-1.365 1.564-3.562 2.463-4.882.9-1.32 2.132-3.488 2.738-4.818.649-1.426 1.637-2.821 2.409-3.4.72-.54 2.008-1.636 2.863-2.435l1.553-1.453v-6.631l1.807-1.732c.994-.952 2.062-1.731 2.373-1.731 1.143 0 2.147-2.151 2.434-5.216.343-3.669 1.07-5.323 2.808-6.398 2.264-1.399 2.978-3.01 2.978-6.717 0-6.605.654-9.168 2.977-11.665 1.128-1.212 2.306-2.537 2.619-2.944.439-.572.637-3.166.872-11.4.167-5.863.423-13.019.569-15.903.308-6.083-.25-8.624-2.265-10.319-1.798-1.513-1.781-6.577.027-8.098 1.951-1.642 2.556-4.487 2.238-10.518-.145-2.762-.397-9.899-.559-15.859-.237-8.713-.411-10.961-.887-11.468-.325-.346-1.508-1.59-2.628-2.763-2.316-2.424-2.963-4.977-2.963-11.688 0-3.658-1.003-5.773-3.323-7.007-1.285-.682-2.13-2.87-2.48-6.416-.292-2.954-1.273-4.642-3.156-5.431-2.496-1.046-3.117-2.18-3.402-6.21-.282-3.997-.251-3.947-4.42-7.115-.753-.572-1.932-2.359-3.036-4.6-.993-2.016-2.33-4.385-2.972-5.265-.641-.88-1.401-2.398-1.689-3.373-.535-1.816-1.604-3.083-4.848-5.744-1.017-.834-2.168-2.057-2.558-2.718-.44-.744-1.548-1.59-2.913-2.225-1.212-.563-2.584-1.202-3.049-1.42-.465-.218-1.308-.826-1.874-1.351-.565-.524-1.787-1.124-2.714-1.332-2.132-.479-3.124-1.47-3.603-3.602-.208-.927-.753-2.079-1.211-2.56-.457-.481-1.523-2.315-2.368-4.075-1.192-2.481-1.879-3.41-3.06-4.135-.838-.515-1.974-1.566-2.524-2.336-2.435-3.409-3.214-4.068-5.84-4.942-1.431-.477-3.359-1.443-4.282-2.149-.924-.705-3.048-1.931-4.719-2.724-1.883-.894-3.404-1.93-3.999-2.725-.528-.705-1.614-1.981-2.413-2.836L284.894 50h-6.631l-1.732-1.807c-.952-.994-1.731-2.062-1.731-2.373 0-1.16-2.138-2.112-5.656-2.518-3.671-.423-4.971-1.056-6.116-2.973-1.187-1.989-2.965-2.729-6.559-2.729-6.605 0-9.168-.654-11.665-2.977-1.212-1.128-2.537-2.306-2.944-2.619-.572-.439-3.166-.637-11.4-.872-5.863-.167-13.019-.423-15.903-.569-6.083-.308-8.624.25-10.319 2.265-1.51 1.794-6.577 1.781-8.094-.021-1.597-1.899-12.044-3.574-13.459-2.158m12.272 37.148c3.113.6 4.259 1.312 6.188 3.84 1.7 2.23 2.63 2.719 5.925 3.115 2.408.29 2.772.46 3.893 1.81.68.82 2.137 2.381 3.237 3.47A648.95 648.95 0 0 1 220.173 86c.978.99 2.414 2.34 3.19 3 1.287 1.095 1.463 1.51 2.013 4.757.656 3.867 1.045 4.511 3.645 6.034 1.031.604 2.187 1.784 2.926 2.984.672 1.092 1.724 2.304 2.337 2.692 1.297.822 9.974 9.538 11.036 11.087.397.578 1.413 1.404 2.259 1.835.847.432 1.962 1.334 2.48 2.005.518.67 1.383 1.781 1.922 2.467.54.686 1.534 1.478 2.208 1.76.724.303 1.607 1.189 2.154 2.163l.928 1.651-1.886 1.732c-1.825 1.677-2.558 2.392-6.385 6.233-3.138 3.148-7.965 7.78-9 8.636-.55.455-1.563 1.642-2.252 2.639-.689.997-2.034 2.244-2.991 2.771-1.089.601-2.29 1.78-3.215 3.157a12.243 12.243 0 0 1-3.693 3.565c-1.632 1.007-2.378 1.772-2.83 2.902-.437 1.091-1.187 1.887-2.595 2.754a10.112 10.112 0 0 0-3.2 3.2 10.143 10.143 0 0 1-3.2 3.2 10.112 10.112 0 0 0-3.2 3.2c-.866 1.406-1.663 2.158-2.75 2.593-1.133.453-1.925 1.231-3.046 2.99-1.013 1.59-2.163 2.777-3.473 3.583a10.125 10.125 0 0 0-3.167 3.168c-1.76 2.859-2.541 3.242-6.621 3.242h-3.461l-1.501-1.652c-1.56-1.716-3.079-3.258-6.055-6.148-.962-.935-2.172-2.267-2.688-2.96-.516-.692-1.506-1.546-2.2-1.896-1.755-.886-3.062-2.155-3.062-2.972 0-.642-.972-1.593-3.998-3.913-.675-.518-1.584-1.639-2.019-2.492-.504-.989-1.622-2.099-3.087-3.067-1.336-.883-2.623-2.124-3.078-2.969-.43-.798-1.627-2.005-2.662-2.682-1.034-.677-2.302-1.794-2.818-2.483-.899-1.202-1.522-1.842-5.538-5.7-.99-.951-2.133-2.222-2.54-2.826-.407-.603-1.577-1.625-2.6-2.271-1.023-.646-2.571-2.134-3.44-3.307-.868-1.172-2.172-2.476-2.897-2.897-.725-.421-1.906-1.663-2.624-2.762-.721-1.101-2.18-2.568-3.257-3.273-3.927-2.569-4.063-4.634-.526-7.93.945-.88 2.197-2.253 2.784-3.051.586-.798 1.9-2.003 2.919-2.678 1.019-.675 2.359-2.026 2.977-3.001.619-.975 1.812-2.289 2.653-2.921.84-.632 2.598-2.278 3.905-3.657 1.308-1.38 2.97-2.874 3.694-3.321.723-.448 1.936-1.659 2.696-2.692.76-1.034 2.201-2.493 3.204-3.242 1.003-.75 2.443-2.297 3.2-3.438.758-1.141 2.213-2.628 3.235-3.305 1.022-.676 2.382-1.954 3.023-2.839s2.148-2.334 3.348-3.221c2.255-1.666 3.446-4.096 3.446-7.034 0-2.247 2.327-4.6 4.548-4.6 2.657 0 4.801-1.239 8.129-4.698 2.536-2.636 3.44-3.341 4-3.121.397.157 1.964.524 3.48.816M30.401 80.598c-.515.55-.862 1.05-.769 1.113.092.063.652-.387 1.242-.999.591-.611.938-1.112.77-1.112-.167 0-.727.449-1.243.998m1.948.075c-.996.619-2.351 2.458-2.348 3.189.001.186.36-.249.797-.966.437-.717 1.381-1.661 2.098-2.098.717-.437 1.124-.791.904-.786-.22.005-.873.303-1.451.661m-20.748 37.525c-.515.55-.862 1.05-.769 1.113.092.063.652-.387 1.242-.999.591-.611.938-1.112.77-1.112-.167 0-.727.449-1.243.998m1.948.075c-.996.619-2.351 2.458-2.348 3.189.001.186.36-.249.797-.966.437-.717 1.381-1.661 2.098-2.098.717-.437 1.124-.791.904-.786-.22.005-.873.303-1.451.661m110.857 18.069c1.046.556 1.612 1.281 2.265 2.9.802 1.984 1.017 2.2 2.679 2.675 1.886.54 3.85 2.389 3.85 3.625 0 1.195 1.184 2.423 2.741 2.842 1.857.5 3.053 1.721 3.738 3.819.41 1.256.875 1.768 2.181 2.397 2.235 1.077 3.245 2.055 3.548 3.437.258 1.172 1.878 2.763 2.815 2.763.965 0 2.922 2.022 3.401 3.513.622 1.937 1.392 2.783 2.819 3.096 1.589.349 3.4 2.265 3.82 4.039.364 1.539.47 1.63 3.265 2.784 1.647.681 2.872 2.168 2.872 3.486 0 .775 1.18 1.722 2.551 2.049 1.478.352 3.33 2.204 3.682 3.682.385 1.616 1.206 2.432 2.738 2.719 1.656.311 2.553 1.29 3.205 3.496.464 1.573.702 1.803 2.627 2.537 3.403 1.299 3.797 2.128 3.797 7.999 0 5.833-.43 6.783-3.548 7.836-2.253.76-2.383.892-2.994 3.043-.522 1.836-2.064 3.321-3.45 3.321-1.11 0-2.041 1.033-2.383 2.644-.324 1.529-2.019 3.204-3.625 3.581-1.541.363-2.6 1.29-2.6 2.277 0 1.053-2.399 3.385-3.836 3.73-1.634.391-2.044.803-2.333 2.342-.35 1.869-1.576 3.282-3.337 3.848-1.927.618-2.75 1.356-3.02 2.709-.332 1.66-1.802 3.267-3.754 4.103-1.487.638-1.891 1.071-2.608 2.796-.742 1.786-1.123 2.175-3.042 3.106-1.988.965-2.266 1.264-2.975 3.206-.699 1.913-.98 2.224-2.639 2.918-2.869 1.199-2.905 1.232-3.735 3.456-.826 2.216-2.152 3.284-4.078 3.284-1.13 0-1.324.236-2.44 2.965-1.78 4.357-9.552 4.432-12.715.123-.488-.666-1.687-1.948-2.664-2.849a77.254 77.254 0 0 1-3.2-3.154 534.309 534.309 0 0 0-4.624-4.804c-1.76-1.809-4.058-4.188-5.107-5.285-1.049-1.098-3.274-3.256-4.946-4.796-1.671-1.54-3.603-3.391-4.293-4.114-7.247-7.59-8.691-8.833-11.248-9.684-2.752-.916-3.3-1.486-4.312-4.488-.655-1.943-13.239-15.114-14.44-15.114-.277 0-.966-.495-1.53-1.1-3.311-3.549-2.091-8.833 3.053-13.228 6.302-5.385 11.866-11.424 12.639-13.72 1.511-4.484 1.595-4.561 6.703-6.164 1.534-.481 2.584-1.17 3.8-2.491 1.828-1.985 2.743-2.91 5.724-5.782 1.076-1.037 2.274-2.334 2.662-2.882.388-.549 1.693-1.653 2.9-2.454 1.207-.801 2.195-1.644 2.195-1.874 0-.354 1.876-2.378 8.023-8.66a30.464 30.464 0 0 1 1.8-1.692c.714-.593 1.533-1.558 3.745-4.408.451-.58 1.272-1.169 1.826-1.308.553-.139 1.006-.406 1.006-.594 0-2.998 7.646-6.183 10.806-4.501m187.872 14.134c3.007 2.816.531 7.932-3.832 7.918-2.492-.008-2.781-.274-3.056-2.809-.553-5.104 3.603-8.186 6.888-5.109m13.179 7.441.847 1.46-.809 1.664c-.817 1.682-2.677 2.959-4.309 2.959-1.519 0-2.486 1.447-1.823 2.728.317.613.862 2.623 1.212 4.465.35 1.843.678 3.371.73 3.395 1.041.486 3.26 2.554 3.598 3.353.564 1.333 2.293 3.259 2.925 3.259.921 0 3.201 3.026 4.072 5.402.534 1.457 1.506 3.042 2.478 4.039 4.041 4.146 4.812 17.784 1.161 20.559-3.741 2.845-4.24 3.666-4.544 7.477-.341 4.283-1.604 6.123-4.202 6.123-2.94 0-6.213 1.473-6.82 3.07-.189.497-1.097 1.449-2.018 2.117l-1.675 1.213h-6.95c-8.409 0-7.729-.79-7.432 8.632.198 6.3.152 6.939-.625 8.696-1.13 2.554-3.471 3.734-5.623 2.835-3.26-1.362-3.806-3.021-3.575-10.851.246-8.315 1.006-9.705 5.821-10.658 1.785-.353 2.327-.632 2.438-1.254.078-.44.674-1.358 1.324-2.039l1.181-1.24 5.51-.235c5.255-.225 8.851-.996 8.851-1.899 0-.857 2.184-2.743 4.557-3.935 3.585-1.802 3.525-1.503 3.37-16.899L325 189.707l-3.8-3.783c-2.09-2.08-4.551-4.199-5.468-4.709-5.925-3.291-6.075-15.119-.232-18.338 1.168-.644 1.767-1.272 1.914-2.007 1.047-5.22 5.731-6.94 8.043-2.953m-17.807 3.779c1.011 2.397.686 6.574-.723 9.304-1.922 3.722-1.781 3.661-9.315 3.986-6.87.296-8.531.698-9 2.177-.427 1.345-1.825 2.821-3.975 4.196-1.254.802-2.59 2.121-3.352 3.309-.732 1.14-1.947 2.357-2.875 2.878-.884.497-2.085 1.53-2.67 2.296l-1.062 1.393.228 9.147c.256 10.296.243 10.249 3.24 12.166 1.339.856 2.517 2.031 3.19 3.179 1.245 2.124 2.706 3.259 4.664 3.621 4.17.772 6.495 2.774 4.636 3.992-1.613 1.057-1.999 2.998-1.432 7.202 1.459 10.811-.757 16.471-5.907 15.084-3.596-.968-4.185-2.848-3.66-11.678.443-7.444.266-8.349-1.793-9.131-1.178-.448-3.044-2.663-3.044-3.614 0-.696-.412-1.151-3.499-3.862-1.829-1.607-2.084-4.02-2.093-19.881l-.008-13.14 1.357-1.26a39.94 39.94 0 0 1 2.611-2.2c.69-.517 1.51-1.507 1.822-2.2 1-2.22 2.89-3.86 4.449-3.86.475 0 1.943-.967 3.283-2.162 2.834-2.529 5.798-3.438 11.208-3.438 3.709 0 3.774-.053 4.451-3.595.655-3.424 1.267-4.514 3.314-5.9l1.705-1.155 1.85.921c1.269.632 2.022 1.33 2.4 2.225m-107.778 50.145c.62.463 1.398 1.562 1.728 2.443.796 2.125 1.42 2.813 2.829 3.122 1.601.352 3.413 2.262 3.834 4.042.375 1.587.567 1.741 3.43 2.747 1.689.594 1.944.846 2.369 2.335.61 2.139 1.285 2.919 2.784 3.219 1.504.301 3.425 2.177 3.787 3.7.351 1.474 1.29 2.551 2.223 2.551 1.134 0 3.119 2.028 3.72 3.8.454 1.339.826 1.706 2.283 2.249 2.143.799 3.791 2.355 4.13 3.902.315 1.433 1.159 2.203 3.098 2.825 1.614.518 3.513 2.46 3.513 3.593 0 .887.992 1.783 2.8 2.529 1.631.673 2.301 1.394 3.4 3.655.626 1.29 1.146 1.76 2.397 2.168 2.098.685 3.319 1.881 3.819 3.738.428 1.59 1.651 2.741 2.913 2.741 2.694 0 4.42 5.048 2.91 8.513-.85 1.951-6.971 7.768-8.853 8.413-1.214.416-1.759.911-2.325 2.109-.883 1.871-2.456 3.625-3.952 4.407-.601.313-1.718 1.548-2.483 2.745-.785 1.226-1.966 2.469-2.709 2.849-1.51.774-2.626 1.848-3.701 3.564-.868 1.384-1.727 2.082-3.944 3.2-1.524.769-1.627.948-2.646 4.615-1.218 4.383-1.991 5.598-4.226 6.639-1.268.591-1.82 1.209-2.662 2.98-.922 1.941-1.321 2.346-3.038 3.085-2.238.963-2.72 1.425-3.112 2.984-.394 1.574-2.158 2.889-5.256 3.92-2.31.768-3.069 1.286-5.314 3.625-1.44 1.501-3.262 2.994-4.05 3.317-.787.324-1.674.881-1.971 1.238-.743.895-2.629 1.825-4.946 2.436l-1.948.514-5.342-5.385c-4.737-4.776-5.618-5.486-7.785-6.277-2.648-.966-3.035-1.416-4.369-5.091-.562-1.547-1.146-2.396-1.969-2.862-.643-.364-1.488-1.174-1.878-1.8-.39-.626-3.24-3.673-6.334-6.772-3.094-3.098-6.346-6.401-7.226-7.338-.88-.938-2.287-2.147-3.126-2.688-.84-.541-1.875-1.558-2.301-2.262-.426-.703-2.962-3.348-5.635-5.878-2.673-2.53-5.875-5.598-7.114-6.817-1.24-1.219-3.058-2.756-4.039-3.415-5.222-3.506-5.81-12.6-.93-14.375 2.12-.771 3.345-1.873 3.345-3.007 0-1.22 1.948-3.141 3.65-3.599.879-.237 1.684-.733 1.798-1.108.908-2.987 1.726-4.013 3.818-4.794 2.242-.836 2.274-.871 3.474-3.741.694-1.659 1.005-1.94 2.918-2.639 1.775-.648 2.279-1.057 2.942-2.39 1.172-2.355 1.776-2.945 4.044-3.95 1.687-.747 2.088-1.125 2.295-2.161.31-1.548 2.168-3.47 3.71-3.837 1.425-.34 2.551-1.282 2.551-2.135 0-1.558 1.492-3.379 3.603-4.397 1.801-.869 2.231-1.291 2.684-2.635.675-2.007 1.49-2.828 3.49-3.519 1.684-.582 1.772-.688 2.963-3.537.694-1.659 1.005-1.94 2.918-2.639 1.93-.705 2.244-.993 3.177-2.915 1.542-3.178 2.668-3.658 8.237-3.509 3.806.101 4.64.244 5.6.96m188.444 68.176c-.368.642-1.265 1.529-1.993 1.973-.727.444-1.171.808-.985.809 1.172.005 4.382-3.212 3.793-3.801-.08-.08-.447.378-.815 1.019m.01 2.071c-.591.611-.938 1.112-.77 1.112.379 0 2.243-1.955 2.012-2.111-.092-.063-.652.387-1.242.999M16.562 294.862c-.166.268-.111.354.131.204.518-.32 1.409.687 1.004 1.135-.164.18-.06.191.229.023.419-.242.386-.458-.162-1.064-.808-.893-.831-.899-1.202-.298m352.954 22.755c-.368.642-1.265 1.529-1.993 1.973-.727.444-1.171.808-.985.809 1.172.005 4.382-3.212 3.793-3.801-.08-.08-.447.378-.815 1.019m.01 2.071c-.591.611-.938 1.112-.77 1.112.379 0 2.243-1.955 2.012-2.111-.092-.063-.652.387-1.242.999m-289.525 46.85c-.005 1.204 2.657 3.866 3.861 3.861.186-.001-.249-.36-.966-.797-.717-.437-1.661-1.381-2.098-2.098-.437-.717-.796-1.152-.797-.966m-.401 2.218c0 .379 1.955 2.243 2.111 2.012.063-.092-.387-.652-.999-1.242-.611-.591-1.112-.938-1.112-.77m38.001 16.582c-.005 1.204 2.657 3.866 3.861 3.861.186-.001-.249-.36-.966-.797-.717-.437-1.661-1.381-2.098-2.098-.437-.717-.796-1.152-.797-.966m-.401 2.218c0 .379 1.955 2.243 2.111 2.012.063-.092-.387-.652-.999-1.242-.611-.591-1.112-.938-1.112-.77" fill="#2c2c2c"/><path d="M119.8 135.971c-2.273.549-6.2 3.635-6.2 4.872 0 .188-.453.455-1.006.594-.554.139-1.375.728-1.826 1.308-2.212 2.85-3.031 3.815-3.745 4.408a30.464 30.464 0 0 0-1.8 1.692c-6.147 6.282-8.023 8.306-8.023 8.66 0 .23-.988 1.073-2.195 1.874-1.207.801-2.512 1.905-2.9 2.454-.388.548-1.586 1.845-2.662 2.882-2.981 2.872-3.896 3.797-5.724 5.782-1.216 1.321-2.266 2.01-3.8 2.491-5.108 1.603-5.192 1.68-6.703 6.164-.773 2.296-6.337 8.335-12.639 13.72-5.144 4.395-6.364 9.679-3.053 13.228.564.605 1.253 1.1 1.53 1.1 1.201 0 13.785 13.171 14.44 15.114 1.012 3.002 1.56 3.572 4.312 4.488 2.557.851 4.001 2.094 11.248 9.684.69.723 2.622 2.574 4.293 4.114 1.672 1.54 3.897 3.698 4.946 4.796 1.049 1.097 3.347 3.476 5.107 5.285a534.309 534.309 0 0 1 4.624 4.804 77.254 77.254 0 0 0 3.2 3.154c.977.901 2.176 2.183 2.664 2.849 3.163 4.309 10.935 4.234 12.715-.123 1.116-2.729 1.31-2.965 2.44-2.965 1.926 0 3.252-1.068 4.078-3.284.83-2.224.866-2.257 3.735-3.456 1.659-.694 1.94-1.005 2.639-2.918.709-1.942.987-2.241 2.975-3.206 1.919-.931 2.3-1.32 3.042-3.106.717-1.725 1.121-2.158 2.608-2.796 1.952-.836 3.422-2.443 3.754-4.103.27-1.353 1.093-2.091 3.02-2.709 1.761-.566 2.987-1.979 3.337-3.848.289-1.539.699-1.951 2.333-2.342 1.437-.345 3.836-2.677 3.836-3.73 0-.987 1.059-1.914 2.6-2.277 1.606-.377 3.301-2.052 3.625-3.581.342-1.611 1.273-2.644 2.383-2.644 1.386 0 2.928-1.485 3.45-3.321.611-2.151.741-2.283 2.994-3.043 3.118-1.053 3.548-2.003 3.548-7.836 0-5.871-.394-6.7-3.797-7.999-1.925-.734-2.163-.964-2.627-2.537-.652-2.206-1.549-3.185-3.205-3.496-1.532-.287-2.353-1.103-2.738-2.719-.352-1.478-2.204-3.33-3.682-3.682-1.371-.327-2.551-1.274-2.551-2.049 0-1.318-1.225-2.805-2.872-3.486-2.795-1.154-2.901-1.245-3.265-2.784-.42-1.774-2.231-3.69-3.82-4.039-1.427-.313-2.197-1.159-2.819-3.096-.479-1.491-2.436-3.513-3.401-3.513-.937 0-2.557-1.591-2.815-2.763-.303-1.382-1.313-2.36-3.548-3.437-1.306-.629-1.771-1.141-2.181-2.397-.685-2.098-1.881-3.319-3.738-3.819-1.557-.419-2.741-1.647-2.741-2.842 0-1.236-1.964-3.085-3.85-3.625-1.662-.475-1.877-.691-2.679-2.675-1.26-3.122-3.355-4.119-6.871-3.271m3.64 3.833c.553.552 1.19 1.536 1.417 2.187.26.748 1.121 1.619 2.338 2.368 1.879 1.156 2.298 1.604 4.12 4.4.487.748 1.492 1.682 2.233 2.076 1.709.908 3.252 2.348 3.252 3.035 0 .694 3.043 3.73 3.738 3.73.673 0 1.715 1.134 2.636 2.868.389.733 1.319 1.727 2.067 2.209 2.593 1.675 3.584 2.609 4.116 3.881.559 1.34 2.098 2.782 4.168 3.909.674.367 1.589 1.381 2.034 2.253.509.997 1.467 1.971 2.583 2.625 1.853 1.086 3.199 2.511 4.325 4.58.367.674 1.379 1.588 2.25 2.033 1.647.84 3.012 2.277 4.15 4.367.367.674 1.379 1.588 2.25 2.033 1.677.855 3.683 2.945 3.683 3.837 0 .608 2.23 2.605 2.909 2.605 2.882 0 3.931 7.662 1.35 9.859-.737.627-1.909 1.449-2.604 1.824-.694.376-1.453 1.186-1.685 1.8-.576 1.52-1.869 2.841-3.703 3.781-.843.432-1.833 1.337-2.2 2.011-1.138 2.09-2.503 3.527-4.15 4.367-.871.445-1.883 1.359-2.25 2.033-1.142 2.099-2.576 3.611-3.977 4.197-.741.309-1.649 1.117-2.019 1.796-1.142 2.098-2.505 3.533-4.154 4.374-.871.445-1.883 1.359-2.25 2.033-1.108 2.036-2.435 3.456-4.11 4.397-.935.526-2.078 1.686-2.772 2.813-.724 1.179-1.928 2.379-3.115 3.11-1.325.816-2.273 1.812-3.009 3.163-.8 1.471-1.608 2.275-3.178 3.16-1.588.897-2.376 1.687-3.21 3.219-.835 1.535-1.599 2.299-3.127 3.131-1.527.831-2.221 1.526-2.841 2.844-1.161 2.47-2.272 3.132-3.869 2.306-2.243-1.159-9.434-7.906-13.664-12.818-1.515-1.76-3.732-4.01-4.926-5-1.194-.99-2.403-2.213-2.686-2.718-.283-.505-1.341-1.512-2.352-2.238-1.011-.727-4.163-3.867-7.005-6.978-5.458-5.978-5.783-6.197-9.855-6.657-3.011-.34-3.836-1.27-4.951-5.578l-.875-3.382L70.761 212c-2.069-2.007-4.301-4.082-4.961-4.611a95.713 95.713 0 0 1-2.906-2.475l-1.707-1.514.608-3.2c.581-3.06.699-3.284 2.706-5.131a522.974 522.974 0 0 0 5.121-4.8c1.662-1.578 3.484-3.24 4.049-3.693.802-.644 1.22-1.649 1.91-4.586 1.304-5.553.94-5.226 7.309-6.582 2.612-.556 3.232-.85 4-1.894.501-.679 2.26-2.62 3.91-4.314 1.65-1.694 3.405-3.63 3.9-4.303.495-.673 1.687-1.721 2.649-2.33.961-.608 2.147-1.75 2.635-2.536.488-.787 1.531-1.881 2.319-2.431 1.795-1.253 3.978-3.434 5.357-5.352.583-.81 1.659-1.877 2.391-2.371.733-.494 1.846-1.662 2.473-2.596.627-.934 1.785-2.19 2.572-2.79.788-.6 2.569-2.126 3.958-3.391 2.879-2.621 3.019-2.663 4.386-1.296m184.488 9.925c-2.484 1.659-3.68 7.164-1.815 8.35 3.088 1.961 8.615-2.27 7.425-5.684-.935-2.683-3.652-3.974-5.61-2.666m12.684 6.407c-1.525.871-2.802 2.762-3.198 4.734-.147.735-.746 1.363-1.914 2.007-3.278 1.806-5.315 7.603-4.118 11.72.812 2.793 1.118 2.929 2.805 1.243l1.399-1.399-.692-1.206c-.661-1.152-.658-1.269.074-2.628l.766-1.422.73 1.107c.902 1.368.925 2.248.09 3.522l-.646.986h2.646c1.455 0 2.646-.07 2.646-.156 0-1.035-1.401-7.073-1.837-7.916-.663-1.281.304-2.728 1.823-2.728 1.632 0 3.492-1.277 4.309-2.959l.809-1.664-.847-1.46c-1.314-2.266-2.945-2.865-4.845-1.781m-18.917 3.569c-2.058 1.394-2.626 2.423-3.387 6.146l-.584 2.851 2.589.265c3.147.323 3.178.298 1.913-1.567l-1.014-1.494.813-1.141c1.192-1.673 1.411-1.7 2.506-.302l.994 1.271-.989 1.568-.99 1.567 1.527 1.327 1.527 1.328.785-1.462c1.949-3.628.844-9.108-2.135-10.591l-1.85-.921-1.705 1.155m-113.26 51.804c-.921.505-1.702 1.443-2.4 2.881-.933 1.922-1.247 2.21-3.177 2.915-1.913.699-2.224.98-2.918 2.639-1.191 2.849-1.279 2.955-2.963 3.537-2 .691-2.815 1.512-3.49 3.519-.453 1.344-.883 1.766-2.684 2.635-2.111 1.018-3.603 2.839-3.603 4.397 0 .853-1.126 1.795-2.551 2.135-1.542.367-3.4 2.289-3.71 3.837-.207 1.036-.608 1.414-2.295 2.161-2.268 1.005-2.872 1.595-4.044 3.95-.663 1.333-1.167 1.742-2.942 2.39-1.913.699-2.224.98-2.918 2.639-1.2 2.87-1.232 2.905-3.474 3.741-2.092.781-2.91 1.807-3.818 4.794-.114.375-.919.871-1.798 1.108-1.702.458-3.65 2.379-3.65 3.599 0 1.134-1.225 2.236-3.345 3.007-4.88 1.775-4.292 10.869.93 14.375.981.659 2.799 2.196 4.039 3.415 1.239 1.219 4.441 4.287 7.114 6.817 2.673 2.53 5.209 5.175 5.635 5.878.426.704 1.461 1.721 2.301 2.262.839.541 2.246 1.75 3.126 2.688.88.937 4.132 4.24 7.226 7.338 3.094 3.099 5.944 6.146 6.334 6.772.39.626 1.235 1.436 1.878 1.8.823.466 1.407 1.315 1.969 2.862 1.334 3.675 1.721 4.125 4.369 5.091 2.167.791 3.048 1.501 7.785 6.277l5.342 5.385 1.948-.514c2.317-.611 4.203-1.541 4.946-2.436.297-.357 1.184-.914 1.971-1.238.788-.323 2.61-1.816 4.05-3.317 2.245-2.339 3.004-2.857 5.314-3.625 3.098-1.031 4.862-2.346 5.256-3.92.392-1.559.874-2.021 3.112-2.984 1.717-.739 2.116-1.144 3.038-3.085.842-1.771 1.394-2.389 2.662-2.98 2.235-1.041 3.008-2.256 4.226-6.639 1.019-3.667 1.122-3.846 2.646-4.615 2.217-1.118 3.076-1.816 3.944-3.2 1.075-1.716 2.191-2.79 3.701-3.564.743-.38 1.924-1.623 2.709-2.849.765-1.197 1.882-2.432 2.483-2.745 1.496-.782 3.069-2.536 3.952-4.407.566-1.198 1.111-1.693 2.325-2.109 1.882-.645 8.003-6.462 8.853-8.413 1.51-3.465-.216-8.513-2.91-8.513-1.262 0-2.485-1.151-2.913-2.741-.5-1.857-1.721-3.053-3.819-3.738-1.251-.408-1.771-.878-2.397-2.168-1.099-2.261-1.769-2.982-3.4-3.655-1.808-.746-2.8-1.642-2.8-2.529 0-1.133-1.899-3.075-3.513-3.593-1.939-.622-2.783-1.392-3.098-2.825-.339-1.547-1.987-3.103-4.13-3.902-1.457-.543-1.829-.91-2.283-2.249-.601-1.772-2.586-3.8-3.72-3.8-.933 0-1.872-1.077-2.223-2.551-.362-1.523-2.283-3.399-3.787-3.7-1.499-.3-2.174-1.08-2.784-3.219-.425-1.489-.68-1.741-2.369-2.335-2.863-1.006-3.055-1.16-3.43-2.747-.421-1.78-2.233-3.69-3.834-4.042-1.409-.309-2.033-.997-2.829-3.122-1.227-3.275-9.19-4.953-13.165-2.775m9.645 3.191c.567.605 1.149 1.494 1.294 1.975.294.976 2.259 2.774 4.142 3.792.679.367 1.598 1.381 2.043 2.253.509.997 1.467 1.971 2.583 2.625 1.853 1.086 3.199 2.511 4.325 4.58.367.674 1.379 1.588 2.25 2.033 1.647.84 3.012 2.277 4.15 4.367.367.674 1.379 1.588 2.25 2.033 1.677.855 3.683 2.945 3.683 3.837 0 .599 1.685 2.071 3.499 3.057.664.362 1.686 1.547 2.291 2.659.803 1.475 1.598 2.282 3 3.045 2.093 1.139 2.58 1.619 3.6 3.548.377.713 1.282 1.656 2.01 2.096 1.692 1.021 3.579 2.908 4.6 4.6.44.728 1.407 1.645 2.148 2.038 1.707.903 3.252 2.343 3.252 3.032 0 .66 3.027 3.73 3.678 3.73 2.785 0 2.815 3.745.04 5.064-.705.336-1.823 1.453-2.484 2.483s-2.029 2.396-3.039 3.035c-1.839 1.162-3.12 2.491-4.995 5.182-.55.789-1.589 1.791-2.308 2.227-.72.436-1.668 1.381-2.106 2.101-.439.719-1.642 1.938-2.673 2.708-1.031.77-2.334 1.92-2.894 2.556-1.515 1.719-4.16 4.278-5.896 5.706-1.469 1.207-1.556 1.413-2.014 4.8-.514 3.807-.859 4.334-4.151 6.338-.722.44-1.785 1.61-2.361 2.6-.577.99-1.667 2.198-2.423 2.685-2.764 1.781-3.143 2.15-4.197 4.086-1.234 2.267-2.053 2.705-5.94 3.17-2.53.303-2.868.457-4 1.825-3.262 3.938-4.039 4.517-6.475 4.821-1.27.159-2.721.445-3.223.636-.804.306-1.263-.035-3.826-2.839-3.237-3.54-4.283-4.172-7.559-4.561-3.06-.364-3.991-1.431-4.975-5.702l-.756-3.279-4.177-4.121c-3.729-3.679-7.536-7.537-9.542-9.669-.387-.411-6.781-6.751-14.209-14.088-16.046-15.849-15.887-15.593-11.282-18.167 1.314-.735 2.333-1.701 3.009-2.854.563-.959 1.933-2.425 3.045-3.258 1.14-.854 2.405-2.259 2.9-3.221.563-1.095 1.407-1.977 2.355-2.463 1.696-.868 4.077-2.957 4.08-3.579.004-.798 1.801-2.572 3.598-3.553 1.291-.705 2.173-1.618 3.119-3.229.903-1.536 1.736-2.419 2.636-2.796.753-.314 2.071-1.543 3.081-2.87.97-1.277 2.567-2.791 3.548-3.365 1.223-.715 2.193-1.744 3.087-3.274.873-1.494 1.765-2.451 2.696-2.892 1.347-.64 3.033-2.524 3.033-3.391 0-.567 2.705-3.252 3.276-3.252.734 0 3.124-1.994 3.124-2.607 0-.681 2.633-3.393 3.294-3.393.629 0 3.106-2.431 3.106-3.048 0-2.81 7.449-4.235 9.68-1.852m90.591 9.764c-.397.222-2.768.505-5.268.628l-4.545.224.593.905c.507.774.534 1.894.186 7.727-.525 8.83.064 10.71 3.66 11.678 5.172 1.393 7.325-4.158 5.909-15.226-.365-2.847-.374-4.09-.035-4.955.535-1.371.46-1.518-.5-.981m9.229 5.342c-4.847 1.058-5.579 2.403-5.825 10.706-.231 7.83.315 9.489 3.575 10.851 2.152.899 4.493-.281 5.623-2.835.777-1.757.823-2.396.625-8.696-.12-3.803-.051-7.231.157-7.777.347-.913-.849-2.978-1.625-2.803-.126.029-1.265.278-2.53.554m-12.056 2.378c2.02 4.411.446 11.415-2.155 9.593-1.451-1.016-1.663-6.689-.356-9.544 1.256-2.742 1.278-2.742 2.511-.049m12.539 5.548c1.355 5.3-.026 12.002-2.056 9.973-1.118-1.118-1.633-6.147-.936-9.135 1.291-5.533 1.757-5.664 2.992-.838" fill="#6c6c6c"/></g></svg>