<svg xmlns="http://www.w3.org/2000/svg" width="32" height="32" viewBox="0 0 400 400"><g fill-rule="evenodd"><path d="M285.6 62.477c-3.218.626-6.989 1.646-7.486 2.027-.268.204-1.192.252-2.054.106-2.854-.482-10.86 4.399-10.86 6.622 0 .407-.336.92-.747 1.139-.745.399-1.006.347-5.066-1.026-.888-.3-2.092-.545-2.677-.545-.584 0-1.154-.147-1.265-.327-.281-.455-8.318-1.605-13.845-1.981-5.916-.403-16.682.15-21.8 1.119-6.092 1.153-6.259 1.188-8.4 1.784-1.1.306-2.81.76-3.8 1.008-2.648.664-4.449 1.224-5.8 1.804-.66.284-2.55.997-4.2 1.585-1.65.589-3.9 1.487-5 1.997-2.647 1.226-7.536 3.196-10.011 4.033-1.094.37-2.079.787-2.189.928-.11.141-1.19.772-2.4 1.404-1.931 1.007-11.066 6.863-11.6 7.436-.11.118-1.28 1.015-2.6 1.993-1.32.979-2.595 1.968-2.834 2.198-.239.23-1.218 1.049-2.177 1.819-5.398 4.337-17.435 16.854-20.798 21.627-.532.755-1.718 2.3-2.635 3.434-2.052 2.537-7.636 10.873-8.399 12.539-.152.33-.665 1.14-1.141 1.8-1.537 2.132-7.831 14.048-9.016 17.071-.286.731-1.034 2.467-1.66 3.857-.627 1.39-1.14 2.698-1.14 2.905 0 .208-.17.69-.379 1.072-.208.382-.671 1.685-1.028 2.895-.358 1.21-.803 2.56-.99 3-.503 1.182-1.455 4.15-1.989 6.2-.257.99-.636 2.353-.841 3.028-.205.676-.373 1.633-.373 2.127 0 .494-.183 1.239-.407 1.657-.223.418-.498 1.621-.61 2.674a46.836 46.836 0 0 1-.575 3.714c-.823 3.994-1.148 10.349-.64 12.532.271 1.168.431 3.281.354 4.696-.145 2.659.13 2.45 1.23-.937.366-1.127 1.401-1.275 2.394-.342 1.152 1.082 1.368 1.068 2.325-.149l.787-1H128.791l.273 1.7.274 1.7.547-1.336c.42-1.025.667-1.236 1.066-.905.392.326.649.188 1.052-.564.692-1.293.992-1.255 1.597.205.906 2.188 1.68.013 2.206-6.2.404-4.774 2.275-14.93 3.316-18 .79-2.33 1.251-2.79 1.902-1.899.421.575.522.548.951-.255.332-.62.627-.779.953-.513 1.437 1.169 9.872-.011 9.872-1.382 0-.303.18-.551.4-.551.22 0 .4-.356.4-.792 0-.435.242-1.47.538-2.3.297-.829.76-2.138 1.031-2.908.27-.77.939-2.57 1.486-4a155.18 155.18 0 0 0 1.736-4.8c2.168-6.435 7.788-18.264 11.388-23.966.561-.89 1.021-1.743 1.021-1.895 0-.152.258-.561.572-.908.315-.348.814-1.082 1.109-1.632.563-1.048 3.571-5.654 3.918-5.999.11-.11.381-.492.601-.848.663-1.075 3.732-5.043 4.697-6.074a84.754 84.754 0 0 0 2.303-2.624c.77-.913 2.165-2.499 3.1-3.526 1.885-2.07 2.057-2.528.949-2.528-.413 0-.975-.27-1.249-.6-.597-.719-2.449-.791-3.12-.12-.373.373-.48.373-.48 0 0-.718-.983-.581-2.577.36l-1.423.839v-.908c0-.499.298-1.237.662-1.64 1.187-1.311-.963-.678-3.983 1.173-1.209.741-1.477 1.114-1.304 1.814.12.485.114.657-.012.382s-.569-.5-.984-.5c-.924 0-.652-.933.7-2.396.507-.548.921-1.133.921-1.3 0-.167.227-.304.505-.304s.863-.495 1.3-1.1c1.102-1.525 3.978-4.24 6.595-6.226 1.21-.918 2.29-1.784 2.4-1.924.951-1.208 11.914-7.869 14.8-8.992.99-.385 2.16-.919 2.6-1.186.972-.59 5.72-2.238 9.8-3.4 15.87-4.521 31.515-3.23 42.322 3.494 3.253 2.024 9.196 7.449 10.078 9.2 1.691 3.356 3.6 4.043 3.6 1.296 0-.393.18-.826.4-.962.22-.136.401-.552.402-.924.001-.372 1.004-2.645 2.229-5.052 5.416-10.645 11.695-16.822 20.169-19.843 1.959-.698 2.154-1.422.966-3.581-1.802-3.277-4.739-4.912-7.766-4.323M172 111c0 .33-.18.6-.4.6-.22 0-.4-.27-.4-.6 0-.33.18-.6.4-.6.22 0 .4.27.4.6M78.006 216.7c.018.877.782 1.459.788.6.003-.495-.174-.9-.394-.9-.22 0-.397.135-.394.3m-1.362 2.271c.284.739 1.501.864 1.256.129-.091-.275-.466-.558-.832-.629-.464-.09-.592.061-.424.5m2.312.558c.112.182.978.578 1.924.882.946.304 2.512.966 3.48 1.471.967.505 2.002.918 2.3.918.297 0 .54.18.54.4 0 .22.27.4.6.4.33 0 .6.27.6.6 0 .33.227.6.504.6s1.009.468 1.626 1.04c.617.573 1.231.932 1.364.799.36-.36-1.504-2.206-2.892-2.865-.666-.316-1.696-1.024-2.289-1.574-.593-.55-1.177-1-1.298-1-.12 0-1.152-.45-2.292-1-1.97-.951-4.601-1.374-4.167-.671M92.4 227.14c0 .672 1.161 1.832 1.497 1.497.142-.143-.136-.654-.619-1.137-.533-.532-.878-.674-.878-.36m2.308 2.86c.472.44.958.8 1.079.8s-.005-.36-.28-.8c-.275-.44-.76-.8-1.079-.8-.412 0-.332.23.28.8m48.506 29.18c.008.341.272 1.07.586 1.62.314.55.578 1.405.586 1.9.012.752.235.9 1.355.9.738 0 2.403.111 3.7.246 3.389.353 4.571-.584 3.776-2.995-.612-1.855-.543-1.828-3.007-1.169-1.599.428-1.86.402-2.318-.224-.707-.967-4.699-1.204-4.678-.278" fill="#cf9b34"/><path d="M0 200v200h400V0H0v200M290.2 62.395c1.582 1.042 3.766 3.575 4.056 4.705.127.495.369.9.537.9.169 0 .417.552.552 1.226.135.674 1.126 2.249 2.203 3.5 4 4.646 3.955 7.274-.123 7.274-3.116 0-14.123 11.487-16.185 16.891-.191.5-.924 2.079-1.631 3.509-.706 1.43-1.598 3.5-1.982 4.6-1.06 3.034-1.706 2.898-6.081-1.275-4.847-4.623-5.946-5.804-5.946-6.386 0-.847-3.232-3.82-4.607-4.238-.436-.133-2.143-.727-3.793-1.321-17.583-6.328-41.055-1.075-60.382 13.513-3.708 2.799-12.447 11.178-14.922 14.307-.783.99-2.025 2.533-2.76 3.429a65.536 65.536 0 0 0-2.136 2.75c-.44.617-1.18 1.594-1.644 2.171-.464.578-1.164 1.68-1.556 2.45-.391.77-.831 1.49-.977 1.6-.361.272-2.068 3.083-2.914 4.798-.381.771-.873 1.672-1.095 2.002-.747 1.113-4.414 8.117-4.414 8.432 0 .172-.557 1.54-1.238 3.04-2.154 4.747-2.617 5.855-3.733 8.928-.6 1.65-1.329 3.63-1.622 4.4-.292.77-.841 2.48-1.22 3.8a246.34 246.34 0 0 1-1.873 6.082c-1.618 5.029-4.325 17.884-4.741 22.518-.188 2.09-.513 5.42-.722 7.4-.477 4.5-.515 20.122-.061 24.4 1.495 14.068 4.572 28.05 8.629 39.2.72 1.98 1.629 4.59 2.02 5.8.39 1.21 1.214 3.059 1.83 4.108.616 1.05 1.241 2.4 1.389 3 .238.965 1.146 3.001 4.783 10.731 1.458 3.098 1.358 3.368-1.141 3.086-1.155-.13-2.586-.482-3.18-.781-1.834-.924-3.581.229-1.911 1.262.225.139.946 1.317 1.603 2.618 2.925 5.795 19.183 18.776 23.514 18.776.207 0 .6.27.874.6.274.33.812.6 1.195.6s1.126.329 1.651.73c.525.402 2.844 1.331 5.154 2.064 2.31.733 4.404 1.489 4.653 1.68.249.19 1.599.51 3 .71 1.401.2 3.447.57 4.547.821 7.511 1.717 19.764 2.658 24.2 1.859 1.87-.337 4.549-.714 5.954-.838 2.69-.237 10.347-2.253 12.046-3.172.55-.297 1.9-.758 3-1.023 1.1-.266 2.375-.726 2.833-1.023.459-.296 1.719-.667 2.8-.824 1.082-.157 2.147-.412 2.367-.567.22-.156 1.03-.532 1.8-.835 2.476-.978 6.4-4.105 6.4-5.102 0-.21.295-.627.655-.925 2.01-1.668 2.831-7.928 1.522-11.605-1.627-4.573.807-11.286 5.154-14.212 4.017-2.705 6.261-3.273 10.069-2.551 5.029.954 7.97 1.652 8.908 2.113 3.513 1.724 5.67 9.559 2.535 9.205-.463-.053-.843.082-.843.3 0 .217-.274.395-.609.395-.334 0-.813.45-1.064 1-.25.55-.607 1-.791 1-.185 0-.342.675-.35 1.5-.008.825-.272 1.95-.586 2.5-.314.55-.578 1.405-.586 1.9-.008.495-.166.9-.351.9-.185 0-.545.695-.799 1.545-.255.85-1.001 2.155-1.657 2.9-.657.745-1.199 1.535-1.204 1.755-.006.22-.954 1.323-2.107 2.451-4.408 4.314-4.916 4.836-5.596 5.761-.385.523-.7 1.113-.7 1.312 0 .199-.283.253-.63.12-.954-.366-2.883 2.045-2.63 3.286.191.934-2.277 2.87-3.66 2.87-.218 0-1.316.601-2.439 1.336-2.994 1.96-12.743 6.664-13.809 6.664-.48 0-2.113.481-7.432 2.188-1.54.495-3.88 1.12-5.2 1.39-1.32.27-3.57.74-5 1.044-8.613 1.83-31.866 2.39-43.2 1.04-8.631-1.028-27.205-6.637-31.593-9.54-.766-.507-1.542-.922-1.725-.922-1.125 0-7.09-3.417-13.082-7.493-6.863-4.669-13.765-10.82-18.745-16.707-1.675-1.98-3.382-3.96-3.794-4.4-.411-.44-1.196-1.52-1.745-2.4-.549-.88-1.7-2.619-2.557-3.864-.857-1.245-1.559-2.4-1.559-2.568 0-.168-.288-.624-.641-1.013-1.29-1.425-7.485-13.688-9.256-18.321-.554-1.449-2.245-6.234-3.758-10.634s-2.999-8.54-3.303-9.2c-.304-.66-.676-1.65-.825-2.2-.15-.55-1.265-2.98-2.478-5.4-6.985-13.936-13.765-20.269-24.739-23.107-2.483-.642-2.785-1.642-1.149-3.815 1.518-2.018 5.287-5.562 6.749-6.348 8.341-4.48 10.953-5.33 16.376-5.33h3.736l.254-1.5c.14-.825.509-3.57.821-6.1.311-2.53.735-5.77.943-7.2.387-2.676.8-4.477 2.43-10.6.234-.88.71-2.86 1.058-4.4.64-2.829.995-3.873 2.019-5.932.31-.623.563-1.558.563-2.077 0-.519.16-1.042.355-1.163.195-.121.479-.883.631-1.695.152-.812.636-2.299 1.074-3.304 1.184-2.716 1.781-4.114 2.233-5.229 1.124-2.772 1.937-4.391 2.207-4.395.165-.003.3-.272.3-.599 0-.327.742-1.992 1.649-3.7a558.845 558.845 0 0 0 2.474-4.706c3.105-6.022 9.102-15.364 13.133-20.457 1.069-1.351 1.944-2.59 1.944-2.754 0-.163.408-.678.907-1.143.499-.465 1.444-1.563 2.1-2.439 3.302-4.408 14.866-16 20.583-20.632A135.167 135.167 0 0 0 163.028 93c.525-.47 8.054-5.748 10.372-7.271 2.427-1.595 8.55-5.07 10.8-6.13 1.1-.519 2.671-1.36 3.492-1.871.821-.51 1.702-.928 1.958-.928s1.814-.648 3.461-1.441c3.347-1.609 7.969-3.358 8.887-3.361.331-.002 1.118-.272 1.748-.6.63-.329 1.455-.598 1.833-.598.378 0 .813-.126.967-.279.506-.506 5.622-1.7 7.33-1.71.922-.006 1.788-.191 1.924-.411.136-.22.855-.4 1.598-.4.742 0 1.857-.21 2.476-.467 4.246-1.761 24.711-1.72 32.326.064 1.1.258 3.53.838 5.4 1.289 5.749 1.388 6.145 1.381 8.091-.142.94-.736 1.769-1.474 1.842-1.641.074-.167.389-.303.7-.303.312 0 .567-.143.567-.317 0-.397 5.979-3.397 8.4-4.216 2.898-.979 11.445-.895 13 .128" fill="#212121"/><path d="M277.2 62.267c-2.354.796-8.4 3.815-8.4 4.194 0 .163 1.035-.287 2.3-.998 4.262-2.398 6.753-3.121 11.9-3.457l4-.261-4-.043c-2.629-.028-4.617.165-5.8.565M291.663 64c.488.66 1.035 1.2 1.215 1.2.181 0-.153-.54-.741-1.2-.588-.66-1.135-1.2-1.215-1.2-.08 0 .253.54.741 1.2M227 66.389c-.44.195-1.814.367-3.054.383-2.128.026-6.039 1.176-4.126 1.212.451.009.991-.145 1.2-.343 1.31-1.236 27.441-1.234 28.76.003.209.196.929.341 1.6.322l1.22-.035-1.2-.417c-3.029-1.053-22.536-1.953-24.4-1.125m40.533.714c-1.188 2.701-4.181 3.226-9.873 1.733-1.837-.482-3.533-.812-3.769-.733-.595.198 1.299.845 5.309 1.814 1.87.451 3.67.917 4 1.035.366.13 1.524-.639 2.965-1.969 1.3-1.201 2.17-2.183 1.933-2.183-.237 0-.491.136-.565.303M215.8 68.4c-.136.22-1.002.405-1.924.411-1.708.01-6.824 1.204-7.33 1.71-.154.153-.589.279-.967.279s-1.203.269-1.833.598c-.63.328-1.417.598-1.748.6-.918.003-5.54 1.752-8.887 3.361-1.647.793-3.205 1.441-3.461 1.441-.256 0-1.137.418-1.958.928-.821.511-2.392 1.352-3.492 1.871-3.021 1.423-9.52 5.187-10.2 5.907-.489.519-.393.508.517-.056 3.979-2.462 17.735-9.45 18.604-9.45.219 0 1.181-.448 2.138-.995.958-.548 2.11-.998 2.561-1 .451-.003.991-.157 1.2-.342.209-.186 1.46-.661 2.78-1.055 1.32-.395 2.58-.849 2.8-1.009.22-.161.85-.39 1.4-.511.55-.12 2.496-.594 4.325-1.053 1.829-.459 3.654-.835 4.054-.835 1.146 0 3.648-1.165 2.545-1.184-.482-.009-.988.164-1.124.384m78.784.68c.014.948-.229 1.159-1.984 1.724-2.024.651-4.234 1.606-4.6 1.988-.11.114-.885.583-1.721 1.042-1.501.822-7.879 6.718-7.879 7.283 0 .16-.45.776-1 1.37-.55.593-1 1.188-1 1.322 0 .135-.45.834-1 1.555-.55.722-1 1.574-1 1.894 0 .32-.158.753-.351.962-1.182 1.282-2.47 4.374-2.246 5.393.136.621.057 1.226-.18 1.373-.757.468-.447 1.014.577 1.014.622 0 1-.227 1-.6 0-.696 1.618-.822 2.265-.175.3.3.491.094.65-.7.322-1.608 3.485-1.792 3.485-.203 0 .822.095.897.6.478.33-.274.6-.74.6-1.035 0-.295.342-.72.761-.944.652-.349.73-.29.544.42-.119.455-.461.921-.761 1.036-.299.115-.544.493-.544.84s-.345 1.362-.766 2.257c-2.562 5.437-3.234 7.102-3.234 8.009 0 1.794-1.332 1.169-4.641-2.177-1.738-1.757-3.699-3.375-4.359-3.595-1.098-.366-1.135-.35-.437.185.419.321 2.364 2.13 4.321 4.019 4.224 4.079 4.885 4.211 5.943 1.185.384-1.1 1.276-3.17 1.982-4.6.707-1.43 1.44-3.009 1.631-3.509C283.302 91.487 294.309 80 297.425 80c4.078 0 4.123-2.628.123-7.274-1.077-1.251-2.068-2.826-2.203-3.5-.303-1.515-.782-1.607-.761-.146m-74.253 12.863c-2.128.361-4.003.792-4.167.957-.163.165-.63.3-1.038.3-2.187 0-17.792 6.208-19.126 7.608-.455.478-2.402 1.592-2.781 1.592-.524 0-2.019 1.271-2.019 1.716 0 .186.369.221.819.078.451-.143 1.082-.042 1.404.225.355.294 1.213.401 2.181.271.878-.118 1.596-.051 1.596.148 0 .199.63.362 1.4.362.853 0 1.4-.195 1.4-.5.001-.791 6.84-.695 7.159.1.355.883 1.359.727 3.241-.505.976-.639 2.198-1.085 2.936-1.07l1.264.025-1.8.875c-.99.481-2.019 1.055-2.286 1.275-.267.22-.755.625-1.083.9-.329.275-.834.5-1.122.5-.702 0-8.107 4.749-10.057 6.45-.852.742-1.862 1.53-2.244 1.75-.95.546-6.194 5.194-8.349 7.4-8.812 9.018-14.972 17.614-21.068 29.4-1.024 1.98-1.996 3.78-2.16 4-.163.22-.54 1.03-.838 1.8-.297.77-1.228 2.896-2.067 4.724-.839 1.828-1.526 3.444-1.526 3.591 0 .313-1.841 5.338-2.596 7.085-.285.66-1 2.82-1.587 4.8-.588 1.98-1.237 4.013-1.443 4.519-.206.505-.375 1.225-.376 1.6-.002.374-.272 1.197-.6 1.827-.329.63-.598 1.406-.598 1.725 0 .813-1.245 4.651-1.658 5.109-.188.209-.342.963-.342 1.676 0 1.678-.556 1.988-1.633.911-.667-.667-.934-.744-1.184-.34-.262.424-.437.426-.939.01-.407-.338-1.146-.422-2.177-.248-1.276.215-1.611.134-1.833-.444-.235-.614-.375-.551-1.05.474-.504.765-.78.952-.781.53-.005-1.171-1.142-1.781-1.903-1.021-1.616 1.617-3.766 15.745-3.814 25.072-.083 16.004 2.035 31.6 4.29 31.6.584 0 2.224 1.679 2.224 2.277 0 .234.305.672.677.974.583.473.629.466.335-.051-.187-.33.096-.203.63.282 1.317 1.196 3.02-1.013 2.443-3.17-.042-.158.259-.468.669-.687 1.043-.559 1.952.547 2.116 2.575.074.908.346 1.622.63 1.65.275.028.68.072.9.1.22.028.4.669.4 1.426 0 .757.18 1.488.4 1.624.22.136.401.732.402 1.324.002.592.272 1.592.6 2.222.329.63.598 1.569.598 2.086 0 .518.253 1.532.562 2.254.308.723.78 2.124 1.049 3.114 1.802 6.655 2.501 8.956 2.867 9.448.834 1.119.757 6.086-.091 5.865-.439-.115-.897-.368-1.017-.561-.119-.194-.657-.352-1.194-.352-.875 0-1.172.382-1.02 1.311.028.171-.22.416-.552.543-.332.127-.604.482-.604.789 0 .306-.191.557-.424.557-.233 0-.312-.18-.176-.4.433-.7-.689-.429-1.243.3-.815 1.073.18 6.058 1.492 7.48.193.209.351.963.351 1.676s.18 1.408.4 1.544c.693.428.442 1.102-.3.804-.675-.271-1.585-.51-2.19-.573-.534-.057-1.533-2.422-1.745-4.135-.385-3.091-1.92-5.896-3.227-5.896-.288 0-.641-.495-.785-1.1a11.818 11.818 0 0 0-.759-2.1 38.198 38.198 0 0 1-.945-2.1c-.247-.605-.619-1.505-.826-2-.207-.495-.488-1.473-.625-2.172-.137-.7-.508-1.487-.824-1.749-.316-.262-.574-.731-.574-1.042 0-.835-1.231-2.565-1.644-2.31-.393.243-.458-.313-.364-3.092.043-1.257-.125-1.973-.514-2.2-.399-.231-.659-1.421-.837-3.831-.386-5.207-.58-5.904-1.642-5.904-.496 0-1.125-.27-1.399-.6-.274-.33-.746-.6-1.049-.6-.303 0-.551-.18-.551-.4 0-.22.259-.4.576-.4.805 0 1.203-.781.669-1.315-.245-.245-.445-.769-.445-1.165s-.139-.72-.309-.72c-.407 0-1.463-2.162-2.121-4.342-.834-2.765-2.955-3.661-3.214-1.358a4.68 4.68 0 0 1-.16.8c-.057.165-.234.699-.393 1.187-.388 1.19-.686 1.235-7.603 1.15-3.3-.04-6.4.096-6.888.303-.616.262-1.074.223-1.495-.126-.334-.277-.879-.399-1.212-.271-.393.15-.605-.005-.605-.442 0-.875-1.232-4.101-1.565-4.101-.523 0-1.624 1.623-1.828 2.694-.763 4.015-.78 3.899.799 5.433 1.244 1.209 1.485 1.709 1.467 3.051-.013.883.129 1.7.314 1.814.185.114.242.912.127 1.772-.179 1.338-.104 1.554.522 1.5.879-.077 1.432 2.284 1.085 4.63-.3 2.024.668 3.506 2.288 3.506 1.004 0 1.191.157 1.191 1 0 .55.18 1 .4 1 .22 0 .4.45.4 1s.191 1 .424 1c.233 0 .311.182.174.404-.364.588.171 1.995.717 1.888.256-.051.528.316.604.814.076.498.323.791.55.652.259-.161.248.049-.029.567-.512.957-.585 2.748-.12 2.942.797.332 2.959 5.765 3.134 7.877.23 2.767 1 4.417 2.547 5.457.683.459 1.285 1.297 1.435 1.995.372 1.745.896 2.236 2.072 1.941.96-.241 1.002-.186.764 1.004-.19.949-.109 1.259.328 1.259.319 0 .843.51 1.166 1.134.917 1.773 4.22 5.666 4.807 5.666.291 0 .755.272 1.031.605.373.449.638.492 1.032.165.999-.829 1.396.039 1.299 2.85-.108 3.157 1.175 5.146 3.336 5.169 1.37.014 2.231.884 2.549 2.575.691 3.684 4.829 3.797 8.867.243 2.628-2.313 4.625-2.059 3.299.419-.228.426-.646.774-.93.774-.284 0-.885.405-1.336.9-2.729 2.996-2.109 4.33 4.041 8.695.462.328 1.074.913 1.362 1.3.287.388.95.705 1.473.705.595 0 1.044.295 1.201.791.156.492.847.952 1.825 1.215.865.233 1.979.844 2.475 1.359.64.662 1.534 1.005 3.066 1.174 1.321.145 2.758.632 3.692 1.25.84.556 1.915 1.011 2.389 1.011.474 0 1.508.4 2.299.888 1.147.709 2.081.897 4.624.932 2.043.028 3.244.212 3.344.512.085.257.507.468.936.468.64 0 .708.136.38.749-.654 1.223 2.711 2.023 9.035 2.147 2.894.057 5.189.221 5.1.365-.145.234 2.843.617 5.438.696.55.017 4.066.144 7.814.281 5.976.22 6.881.171 7.349-.394.685-.825 2.371-.828 3.279-.006.793.718 8.051.878 8.284.183.069-.207.361-.286.65-.175.321.123.504-.079.474-.522-.028-.398.11-.754.305-.79.196-.036.508-.306.694-.6.271-.427.34-.43.345-.014.004.328.51.136 1.368-.518 1.01-.771 1.764-1.015 2.919-.947.857.051 1.762-.034 2.011-.188.249-.154.566-.097.704.126.351.569 1.003.508 1.01-.093.015-1.185.79-1.612 3.25-1.791 1.399-.102 2.715-.348 2.924-.547.209-.199.749-.366 1.2-.371 2.5-.027 3.172-2.365.848-2.948-.517-.13-1.044-.508-1.171-.84-.309-.804 2.862-.843 3.95-.047.418.305 1.003.462 1.3.348.317-.122.629.131.755.61.292 1.117 1.879 1.44 3.346.682.961-.497 1.154-.806.968-1.549-.317-1.262 1.872-2.298 4.95-2.343 2.423-.036 3.674-.7 3.674-1.952 0-.398.36-.917.8-1.152.46-.246.8-.838.8-1.39 0-.53.18-1.074.4-1.21.22-.136.406-.642.414-1.124.014-.834.059-.822.928.24 1.203 1.47 4.415 1.247 4.032-.279-.165-.655.143-1.148 1.281-2.05.824-.653 1.986-1.682 2.582-2.287.616-.625 1.521-1.1 2.097-1.1 1.863 0 2.968-.69 3.452-2.156.255-.773.797-1.512 1.206-1.641 1.666-.529 2.808-1.834 2.808-3.208 0-.741.196-1.469.436-1.617.282-.175.35-1.133.192-2.724-.155-1.568-.026-3.465.358-5.254.895-4.177.823-4.872-.586-5.6-.868-.449-1.2-.909-1.2-1.665 0-1.506-3.042-1.099-4.916.658-2.234 2.094-4.824 1.302-3.308-1.012 1.18-1.802 6.609-3.48 7.793-2.409.363.329 1.325.875 2.138 1.215 1.817.759 2.631 1.943 2.919 4.247.122.971.391 2.288.598 2.926 1.125 3.468-.101 8.177-3.515 13.51-.94 1.469-1.709 2.827-1.709 3.019 0 .191-1.376 1.6-3.058 3.13-1.682 1.529-3.347 3.065-3.7 3.412-.353.347-1.361 1.157-2.239 1.8a46.231 46.231 0 0 0-2.904 2.337c-.719.642-1.738 1.452-2.266 1.8-.528.348-2.608 1.757-4.622 3.132-2.015 1.375-3.742 2.5-3.838 2.5-.096 0-2.08.908-4.409 2.017-2.328 1.109-4.803 2.126-5.499 2.258-.696.133-2.081.649-3.079 1.146-.998.498-3.788 1.486-6.2 2.195-6.215 1.828-6.944 2.017-9.186 2.383-1.1.18-3.53.642-5.4 1.028-4.168.86-26.321 1.305-29 .583-1.471-.397-3.488-.722-10-1.613a66.416 66.416 0 0 1-4.379-.766c-2.066-.456-2.481-.579-7.488-2.224-1.687-.554-3.432-1.007-3.877-1.007-.445 0-.899-.147-1.01-.326-.111-.179-1.292-.674-2.624-1.1-1.332-.426-2.422-.889-2.422-1.031 0-.141-.495-.379-1.1-.528-.605-.15-2.72-1.047-4.7-1.995-1.98-.948-3.897-1.822-4.261-1.944-.364-.121-2.254-1.26-4.2-2.529-1.946-1.27-4.155-2.649-4.907-3.065-14.32-7.917-30.897-29.492-39.403-51.282-.601-1.54-1.246-3.093-1.433-3.451-.188-.358-.464-1.305-.614-2.104-.15-.8-.432-1.552-.627-1.673s-.355-.637-.355-1.147c0-.834-.581-2.587-1.6-4.825-.2-.44-.842-2.222-1.427-3.959-2.429-7.224-8.559-17.691-13.308-22.725-2.54-2.693-8.588-7.116-9.73-7.116-.316 0-.777-.202-1.023-.448-.456-.456-2.705-1.049-5.412-1.427-.825-.115-1.5-.398-1.5-.629 0-.96 4.578-6.296 5.401-6.296.242 0 .641-.202.887-.448.803-.803 9.993-4.357 12.748-4.93 1.182-.246 3.202-.273 7.564-.101l2 .079.037-2.601c.042-2.94.417-6.75.983-9.999.211-1.21.742-4.471 1.18-7.248.712-4.515 1.126-6.322 2.425-10.58.206-.676.374-1.576.373-2-.002-.828 1.054-4.295 1.678-5.511.209-.406.284-.835.167-.952-.117-.117-.422.306-.678.939-.255.634-.611 1.512-.789 1.952-.179.44-.609 2.06-.958 3.6-.348 1.54-.809 3.475-1.025 4.3l-.787 3c-1.38 5.26-1.555 6.252-2.619 14.9-.312 2.53-.681 5.275-.821 6.1l-.254 1.5h-3.736c-5.423 0-8.035.85-16.376 5.33-1.462.786-5.231 4.33-6.749 6.348-1.636 2.173-1.334 3.173 1.149 3.815 10.974 2.838 17.754 9.171 24.739 23.107 1.213 2.42 2.328 4.85 2.478 5.4.149.55.521 1.54.825 2.2.304.66 1.79 4.8 3.303 9.2 1.513 4.4 3.204 9.185 3.758 10.634 1.771 4.633 7.966 16.896 9.256 18.321.353.389.641.845.641 1.013 0 .168.702 1.323 1.559 2.568a128.366 128.366 0 0 1 2.557 3.864c.549.88 1.334 1.96 1.745 2.4.412.44 2.119 2.42 3.794 4.4 4.98 5.887 11.882 12.038 18.745 16.707 5.992 4.076 11.957 7.493 13.082 7.493.183 0 .959.415 1.725.922 4.388 2.903 22.962 8.512 31.593 9.54 11.334 1.35 34.587.79 43.2-1.04 1.43-.304 3.68-.774 5-1.044 1.32-.27 3.66-.895 5.2-1.39 5.319-1.707 6.952-2.188 7.432-2.188 1.066 0 10.815-4.704 13.809-6.664 1.123-.735 2.221-1.336 2.439-1.336 1.383 0 3.851-1.936 3.66-2.87-.253-1.241 1.676-3.652 2.63-3.286.347.133.63.079.63-.12s.315-.789.7-1.312c.68-.925 1.188-1.447 5.596-5.761 1.153-1.128 2.101-2.231 2.107-2.451.005-.22.547-1.01 1.204-1.755.656-.745 1.402-2.05 1.657-2.9.254-.85.614-1.545.799-1.545.185 0 .343-.405.351-.9.008-.495.272-1.35.586-1.9.314-.55.578-1.675.586-2.5.008-.825.165-1.5.35-1.5.184 0 .541-.45.791-1 .251-.55.73-1 1.064-1 .335 0 .609-.178.609-.395 0-.218.38-.353.843-.3 3.135.354.978-7.481-2.535-9.205-.56-.276-2.344-.778-3.963-1.117-9.059-1.896-10.039-1.794-15.014 1.555-4.347 2.926-6.781 9.639-5.154 14.212 1.309 3.677.488 9.937-1.522 11.605-.36.298-.655.715-.655.925 0 .997-3.924 4.124-6.4 5.102-.77.303-1.58.679-1.8.835-.22.155-1.285.41-2.367.567-1.081.157-2.341.528-2.8.824-.458.297-1.733.757-2.833 1.023-1.1.265-2.45.726-3 1.023-1.699.919-9.356 2.935-12.046 3.172-1.405.124-4.084.501-5.954.838-4.436.799-16.689-.142-24.2-1.859-1.1-.251-3.146-.621-4.547-.821-1.401-.2-2.751-.52-3-.71-.249-.191-2.343-.947-4.653-1.68-2.31-.733-4.629-1.662-5.154-2.064-.525-.401-1.268-.73-1.651-.73s-.921-.27-1.195-.6c-.274-.33-.667-.6-.874-.6-4.331 0-20.589-12.981-23.514-18.776-.657-1.301-1.378-2.479-1.603-2.618-1.67-1.033.077-2.186 1.911-1.262.594.299 2.025.651 3.18.781 2.499.282 2.599.012 1.141-3.086-3.637-7.73-4.545-9.766-4.783-10.731-.148-.6-.773-1.95-1.389-3-.616-1.049-1.44-2.898-1.83-4.108-.391-1.21-1.3-3.82-2.02-5.8-4.057-11.15-7.134-25.132-8.629-39.2-.454-4.278-.416-19.9.061-24.4.209-1.98.534-5.31.722-7.4.416-4.634 3.123-17.489 4.741-22.518a246.34 246.34 0 0 0 1.873-6.082c.379-1.32.928-3.03 1.22-3.8.293-.77 1.022-2.75 1.622-4.4 1.116-3.073 1.579-4.181 3.733-8.928.681-1.5 1.238-2.868 1.238-3.04 0-.315 3.667-7.319 4.414-8.432.222-.33.714-1.231 1.095-2.002.846-1.715 2.553-4.526 2.914-4.798.146-.11.586-.83.977-1.6.392-.77 1.092-1.872 1.556-2.45a57.122 57.122 0 0 0 1.644-2.171 65.536 65.536 0 0 1 2.136-2.75c.735-.896 1.977-2.439 2.76-3.429 2.475-3.129 11.214-11.508 14.922-14.307 8.462-6.387 15.587-10.094 25.182-13.104 12.044-3.778 25.408-3.933 35.2-.409 1.65.594 3.357 1.188 3.793 1.321.975.296 1.526.71 3.33 2.499.841.834 1.231 1.062.965.565-.245-.459-1.311-1.532-2.367-2.386-1.057-.853-2.06-1.773-2.23-2.045-.578-.925-3.322-3.334-3.798-3.334-.166 0-.758-.405-1.317-.9-1.369-1.213-2.1-1.603-5.804-3.093a566.156 566.156 0 0 1-3.972-1.61c-.44-.183-1.52-.455-2.4-.603-.88-.149-2.5-.42-3.6-.603-3.475-.578-15.248-.365-19.469.352m-48.975 5.107c-2.201 1.486-8.317 5.869-8.556 6.132-.11.121-1.505 1.275-3.1 2.564-2.652 2.144-3.661 3.155-2.4 2.403.551-.328 4.381-3.411 4.7-3.782.11-.129 2.54-1.912 5.4-3.963 2.86-2.05 5.371-3.88 5.58-4.066.787-.7-.126-.299-1.624.712M210 88.953c0 .305-.36.648-.8.763-.775.203-1.115-.467-.533-1.049.47-.471 1.333-.285 1.333.286m-20 5.86c0 .556 1.051.927 1.624.572.337-.208.315-.378-.081-.629-.745-.472-1.543-.442-1.543.057m11.405.953c.066.903 1.237 1.352 1.871.718.255-.255-.013-.593-.77-.971-1.1-.549-1.159-.535-1.101.253m-49.971 7.486c-2.564 2.449-4.588 4.527-4.498 4.617.09.091 2.299-1.913 4.907-4.452 2.609-2.539 4.633-4.617 4.498-4.617-.134 0-2.343 2.004-4.907 4.452m-6.794 6.926c-.802.978-1.949 2.283-2.549 2.9-.6.617-1.602 1.842-2.225 2.722l-1.134 1.6 1.08-1.2c.594-.66 2.185-2.44 3.534-3.956 1.35-1.515 2.692-3 2.983-3.3.29-.299.357-.544.148-.544s-1.036.8-1.837 1.778m-7.18 8.26c-.394.461-.646.91-.558.997.087.088.549-.29 1.026-.838s.728-.997.558-.997c-.169 0-.631.377-1.026.838m-2.742 3.862c-2.253 2.879-8.365 11.858-9.291 13.649-1.149 2.221 0 1.022 1.389-1.449.711-1.265 1.415-2.39 1.565-2.5.15-.11.953-1.28 1.783-2.6 1.343-2.133 2.313-3.506 5.763-8.151 1.61-2.168.671-1.352-1.209 1.051m-11.532 17.524c-.699 1.223-1.185 2.311-1.078 2.417.106.106.759-.894 1.451-2.224 1.578-3.032 1.327-3.163-.373-.193m-3.558 6.521c-1.158 2.269-1.027 2.619.186.498.553-.967.923-1.839.823-1.939-.1-.1-.554.549-1.009 1.441m-1.596 3.194c-.237.445-.432 1.09-.432 1.435 0 .344-.18.626-.4.626-.22 0-.4.202-.4.449 0 .31.185.295.6-.049.33-.274.6-.8.6-1.169s.213-.884.473-1.144c.261-.261.365-.582.233-.715-.133-.132-.436.123-.674.567m-2.06 4.309a26.674 26.674 0 0 1-.815 1.847c-.464.902-.457 1.614.012 1.324.203-.125.494-.811.646-1.524.153-.712.462-1.524.688-1.805.226-.28.302-.618.169-.751-.133-.133-.448.276-.7.909m-1.976 4.752c-.28.66-.821 1.92-1.203 2.8-.381.88-.827 2.23-.99 3-.162.77-.469 1.616-.682 1.881-.213.264-.325.803-.249 1.196.076.394.62-.722 1.21-2.48 1.573-4.689 2.078-5.968 2.467-6.251.192-.139.26-.499.152-.8-.123-.343-.386-.099-.705.654m3.604 106.48c0 .804-.116.964-.453.627-.249-.249-.345-.735-.213-1.08.367-.954.666-.75.666.453m8.026 10.934c.426.228.774.757.774 1.176 0 .42.191.881.424 1.025.233.144.385.649.339 1.123-.046.474.127 1.379.385 2.011.353.863.355 1.285.012 1.7-.672.809-1.132.677-1.56-.449-.209-.55-.545-1-.747-1-.781 0-1.479-3.683-1.005-5.3.24-.816.346-.838 1.378-.286m23.974 11.862c0 .288.18.524.4.524.22 0 .4.72.4 1.6 0 1.443.099 1.6 1.008 1.6.875 0 .974.132.756 1-.152.607-.076 1.02.193 1.05.243.028.653.073.91.1.258.028.764.585 1.127 1.239 1.136 2.051 3.176 2.145 2.945.136-.171-1.485-.141-1.533.641-1.045.451.282.82.726.82.987s.405.809.9 1.216c1.52 1.252 2.403 2.456 2.509 3.42.158 1.44-1.673 1.206-3.186-.408-1.274-1.36-2.273-1.601-4.523-1.09-.871.198-1.3.147-1.3-.155 0-.247-.27-.45-.6-.45-.72 0-.787-.853-.12-1.52.373-.373.368-.591-.024-.98-.404-.401-.445-.348-.21.269.237.622.158.718-.409.5-.386-.148-.868-.269-1.07-.269-.202 0-.367-.9-.367-2 0-1.867-.067-2-1-2-.899 0-1.007-.172-1.068-1.7a93.267 93.267 0 0 0-.131-2.5c-.034-.44.024-.962.13-1.161.232-.436 1.269.902 1.269 1.637m-14.08.204c.678.678.596 1.79-.153 2.077-2.105.808-5.367.049-5.367-1.25 0-1.137 4.531-1.816 5.52-.827M281.6 293c0 .978-.181 1.4-.6 1.4-.33 0-.6.345-.6.767 0 .422-.109 1.052-.243 1.4-.268.698-.957.866-.957.233 0-.22-.372-.772-.827-1.227-.669-.669-.733-.939-.337-1.417.34-.409.618-.462.907-.173.845.845 1.457.432 1.457-.983 0-.978.181-1.4.6-1.4s.6.422.6 1.4m-141.2.74c0 .805-1.004 2.66-1.439 2.66-.796 0-.696-1.609.139-2.243.672-.51 1.3-.711 1.3-.417m134.204 4.654c-.12.193-.034.464.189.602.592.365.498 2.412-.185 4.046-.747 1.788-1.408 1.42-1.408-.786 0-.933-.161-1.867-.359-2.076-.932-.987-.905-3.567.042-3.992.939-.423 2.282 1.299 1.721 2.206m1.368-1.141c-.473.883-1.172.639-1.172-.41 0-.99.431-1.315 1.055-.798.386.321.418.645.117 1.208m2.015.447c-.012 1.582-.053 1.646-.6.924-.619-.819-.768-1.91-.32-2.357.628-.629.932-.156.92 1.433M144.4 302.249c0 .273.54.881 1.2 1.351 1.772 1.262 1.031 2.59-1.272 2.281-1.98-.266-1.979-.264-2.219-2.389-.248-2.204.84-3.723 1.764-2.46.29.397.527.944.527 1.217m21.113 1.71c-.067.347.216.97.63 1.384.613.613.651.815.204 1.098-.301.191-.367.352-.147.359.22.007.136.179-.187.383-.815.516-1.612-.238-1.619-1.532-.003-.578-.173-1.315-.377-1.638-.544-.86.297-1.782 1.053-1.155.31.258.51.753.443 1.101m118.148.041c.217 0 .337.405.267.9-.228 1.602-3.928 1.098-3.928-.535 0-.356 1.931-.711 2.733-.503.293.076.71.138.928.138M158.4 305c0 .373-.378.6-1 .6s-1-.227-1-.6.378-.6 1-.6 1 .227 1 .6m119.985 1.981c.575.694-1.187 2.912-1.942 2.445-.642-.396-.543-1.669.186-2.397.779-.78 1.14-.79 1.756-.048m-110.863 3.149c.544 1.117 1.058 1.35 1.478.67.469-.758.889-.398.698.6-.112.584-.005 1 .255 1 .246 0 .447.27.447.6 0 .419-.422.6-1.4.6s-1.4-.181-1.4-.6c0-.33-.249-.6-.553-.6-.585 0-1.032-1.175-1.042-2.733-.007-1.205.828-.95 1.517.463m-7.628 3.502c.958 1.878.665 3.64-.581 3.495-1.35-.158-1.998-1.929-1.339-3.66.494-1.297 1.205-1.236 1.92.165m18.906 5.192c0 .233.18.312.4.176.22-.136.4.002.4.307 0 .39-.36.502-1.21.377-.977-.143-1.122-.284-.751-.731.545-.656 1.161-.725 1.161-.129m-14.3 1.623c.742-.04 1.1.137 1.1.547 0 .409-.397.606-1.224.606-.713 0-1.12-.167-.976-.4.136-.22-.123-.4-.576-.4-.453 0-.824-.199-.824-.443 0-.268.277-.326.7-.146.385.162 1.195.269 1.8.236m19.413.362c.981 1.572-1.573 1.661-2.614.091-.579-.874-.557-.9.756-.9.924 0 1.513.256 1.858.809M258 321.6c0 .22-.27.4-.6.4-.33 0-.6-.18-.6-.4 0-.22.27-.4.6-.4.33 0 .6.18.6.4m-82.864 1.728c1.127.59 2.369 1.072 2.76 1.072.392 0 .936.36 1.211.8.417.667.4.8-.104.8-.331 0-.603.18-.603.4 0 .463-1.068.547-1.267.1-.4-.902-5.903-3.084-9.03-3.581-2.347-.373-.915-.922 2.064-.791 2.216.098 3.413.387 4.969 1.2m17.593 4.796c.204 1.779-.515 2.277-3.278 2.271-2.743-.007-4.251-.309-4.251-.852 0-.199.405-.548.9-.775.495-.226 1.53-.758 2.3-1.181 2.109-1.158 4.164-.903 4.329.537m8.471-.524c0 .22-.259.4-.576.4-.317 0-.688-.18-.824-.4-.136-.22.123-.4.576-.4.453 0 .824.18.824.4m5.9.598c.275.097.5.633.5 1.189 0 1.176-2.85 1.473-4.917.513-2.872-1.334 1.111-2.868 4.417-1.702m21.053 2.224c1.046.961-1.882 2.475-3.55 1.835-.724-.278-.792-1.508-.12-2.18.502-.502 3.005-.267 3.67.345M195.8 332.8c-.136.22-.496.4-.8.4-.304 0-.664-.18-.8-.4-.141-.228.204-.4.8-.4.596 0 .941.172.8.4" fill="#7f470e"/><path d="M283 62.001c-7.09.481-12.602 2.879-17.624 7.668-1.616 1.54-1.633 1.546-3.2 1.011-.867-.296-2.656-.766-3.976-1.044-1.32-.278-2.991-.76-3.714-1.071-.722-.311-1.991-.565-2.82-.565-.828 0-1.677-.16-1.886-.356-1.319-1.237-27.45-1.239-28.76-.003-.209.198-.929.358-1.6.357-.671-.001-2.03.256-3.02.571-.99.315-3.24.871-5 1.237-3.362.697-5.596 1.299-6.6 1.779-.33.157-1.68.613-3 1.013-1.32.4-2.571.879-2.78 1.065-.209.185-.749.339-1.2.342-.451.002-1.603.452-2.561 1-.957.547-1.919.995-2.138.995-.488 0-12.557 5.92-15.345 7.527-4.102 2.365-13.049 8.54-16.3 11.251-7.895 6.581-16.364 15.009-21.728 21.622-.624.77-1.237 1.49-1.362 1.6-.125.11-1.281 1.64-2.57 3.4a645.13 645.13 0 0 1-3.394 4.6c-.578.77-1.669 2.39-2.423 3.6-.755 1.21-1.484 2.29-1.62 2.4-.137.11-.758 1.1-1.381 2.2s-1.347 2.27-1.608 2.6c-.746.943-3.428 6.095-3.26 6.263.083.083.748-.977 1.478-2.356s1.72-3.047 2.2-3.707c.481-.66.997-1.47 1.149-1.8.763-1.666 6.347-10.002 8.399-12.539.917-1.134 2.103-2.679 2.635-3.434 3.363-4.773 15.4-17.29 20.798-21.627.959-.77 1.938-1.589 2.177-1.819.239-.23 1.514-1.219 2.834-2.198 1.32-.978 2.49-1.875 2.6-1.993.534-.573 9.669-6.429 11.6-7.436 1.21-.632 2.29-1.263 2.4-1.404.11-.141 1.095-.558 2.189-.928 2.475-.837 7.364-2.807 10.011-4.033 1.1-.51 3.35-1.408 5-1.997 1.65-.588 3.54-1.301 4.2-1.585 1.351-.58 3.152-1.14 5.8-1.804.99-.248 2.7-.702 3.8-1.008 2.141-.596 2.308-.631 8.4-1.784 5.118-.969 15.884-1.522 21.8-1.119 5.527.376 13.564 1.526 13.845 1.981.111.18.681.327 1.265.327.585 0 1.789.245 2.677.545 4.06 1.373 4.321 1.425 5.066 1.026.411-.219.747-.732.747-1.139 0-2.223 8.006-7.104 10.86-6.622.862.146 1.786.094 2.054-.115.544-.425 3.235-1.15 6.984-1.881 5.619-1.097 12.283 5.991 7.302 7.767-8.474 3.021-14.753 9.198-20.169 19.843-1.225 2.407-2.228 4.68-2.229 5.052-.001.372-.182.788-.402.924-.22.136-.4.569-.4.962 0 2.747-1.909 2.06-3.6-1.296-.882-1.751-6.825-7.176-10.078-9.2-8.286-5.155-19.803-7.222-31.522-5.658-6.198.827-11.559 2.072-9.295 2.158.498.019 1.218-.135 1.6-.341 2.452-1.321 18.045-2.141 23.495-1.234 1.1.183 2.72.454 3.6.603.88.148 1.96.42 2.4.603.44.184 2.227.908 3.972 1.61 3.704 1.49 4.435 1.88 5.804 3.093.559.495 1.151.9 1.317.9.476 0 3.22 2.409 3.798 3.334.17.272 1.155 1.177 2.189 2.012 1.033.834 2.43 2.493 3.103 3.685.684 1.213 1.506 2.169 1.864 2.169.353 0 2.188 1.53 4.079 3.4 3.589 3.549 4.874 4.177 4.874 2.383 0-.907.672-2.572 3.234-8.009.421-.895.766-1.91.766-2.257 0-.347.245-.725.544-.84.3-.115.642-.581.761-1.036.186-.71.108-.769-.544-.42-.419.224-.766.626-.772.893-.023 1.06-2.354 3.325-2.767 2.689-.31-.475-.49-.495-.885-.1-.735.735-1.113.612-1.537-.503-.267-.702-.681-1-1.39-1-1.003 0-1.412.905-.627 1.389.21.13.273.521.14.868-.218.566-.28.563-.612-.031-.238-.424-.647-.573-1.141-.417-.85.27-1.149-1.128-.347-1.623.237-.147.316-.752.18-1.373-.224-1.019 1.064-4.111 2.246-5.393.193-.209.351-.642.351-.962 0-.32.45-1.172 1-1.894.55-.721 1-1.42 1-1.555 0-.134.45-.729 1-1.322.55-.594 1-1.21 1-1.37 0-.565 6.378-6.461 7.879-7.283.836-.459 1.611-.924 1.721-1.034.392-.392 3.026-1.547 4.6-2.018 2.263-.677 2.415-.917 1.789-2.815-.564-1.709-4.318-5.962-5.272-5.972a11.023 11.023 0 0 1-1.317-.136c-.44-.071-2.6-.007-4.8.142m-74.893 22.761c-2.472.841-4.722 1.705-5 1.92-.279.215-1.317.703-2.307 1.084-2.86 1.1-13.842 7.767-14.8 8.984-.11.14-1.19 1.006-2.4 1.924-2.617 1.986-5.493 4.701-6.595 6.226-.437.605-1.022 1.1-1.3 1.1s-.505.137-.505.304c0 .167-.414.752-.921 1.3-1.352 1.463-1.624 2.396-.7 2.396.415 0 .858.225.984.5s.132.103.012-.382c-.173-.7.095-1.073 1.304-1.814 3.02-1.851 5.17-2.484 3.983-1.173-.364.403-.662 1.141-.662 1.64v.908l1.423-.839c1.594-.941 2.577-1.078 2.577-.36 0 .373.107.373.48 0 .671-.671 2.523-.599 3.12.12.274.33.836.6 1.249.6 1.108 0 .936.458-.949 2.528a150.905 150.905 0 0 0-3.1 3.526 84.754 84.754 0 0 1-2.303 2.624c-.965 1.031-4.034 4.999-4.697 6.074-.22.356-.491.738-.601.848-.347.345-3.355 4.951-3.918 5.999-.295.55-.823 1.316-1.173 1.703-.35.386-.528.811-.395.944.132.133.833-.723 1.556-1.902 5.795-9.441 18.278-23.518 23.539-26.544.382-.22 1.392-1.008 2.244-1.75 1.95-1.701 9.355-6.45 10.057-6.45.288 0 .793-.225 1.122-.5.328-.275.816-.68 1.083-.9.267-.22 1.296-.794 2.286-1.275l1.8-.875-1.286-.025c-.794-.016-1.939.421-2.994 1.14-.94.641-1.843 1.083-2.006.982-.164-.101-.706.04-1.206.314-.499.274-1.339.446-1.866.382-.528-.063-1.371.105-1.874.374-.971.52-2.377.245-1.986-.389.129-.207-.58-.499-1.575-.648-1.925-.289-3.807.49-3.807 1.575 0 .798-5.554 1.148-6.305.397-.747-.747-.934-.709-2.182.448-.593.55-1.311.997-1.596.994-.343-.004-.373-.105-.088-.3.236-.162.547-.612.69-1 .501-1.357 3.986-2.04 4.435-.869.132.344.414.519.626.388.574-.355.075-1.305-.808-1.536-1.431-.375-.872-1.132.628-.851.957.18 1.4.114 1.4-.208 0-.29-.309-.374-.8-.218-.44.14-.8.102-.8-.084 0-.445 1.495-1.716 2.019-1.716.379 0 2.326-1.114 2.781-1.592.721-.757 9.345-4.608 12.974-5.794 2.406-.786 4.461-1.516 4.567-1.622.487-.486-1.3-.036-5.434 1.37m-14.03 10.868c.079.237.274.417.433.4.159-.016.56-.03.89-.03.33 0 .6-.18.6-.4 0-.22-.465-.4-1.033-.4-.569 0-.969.194-.89.43m4.648 4.27c-.073.385-.55.759-1.06.832-.826.117-.879.041-.482-.7.546-1.021 1.731-1.122 1.542-.132M171.2 111c0 .33.18.6.4.6.22 0 .4-.27.4-.6 0-.33-.18-.6-.4-.6-.22 0-.4.27-.4.6m-1.94 25.027c-1.314 2.113-1.501 2.569-.904 2.2.375-.232 2.556-4.227 2.308-4.227-.08 0-.711.912-1.404 2.027m-3.331 6.032c-2.028 3.935-2.18 4.288-1.617 3.741.582-.564 3.697-6.724 3.501-6.921-.089-.089-.937 1.342-1.884 3.18m-44.614 2.041c-.709.925-3.34 6.408-3.161 6.587.097.098.982-1.457 1.966-3.455 1.745-3.542 1.978-4.154 1.195-3.132m41.572 4.203c-2.257 5.023-2.909 6.608-2.774 6.744.081.08.531-.707 1-1.75 2.257-5.023 2.909-6.608 2.774-6.744-.081-.08-.531.707-1 1.75m-45.561 3.797c-.778 1.209-1.269 2.332-1.519 3.468-.148.673-.435 1.326-.638 1.451-.203.126-.368.533-.367.905.004.846.732-.523 1.77-3.324.407-1.1.917-2.225 1.133-2.5.216-.275.292-.5.168-.5-.124 0-.37.225-.547.5m41.928 4.687-.908 2.426c-.249.667-.365 1.301-.257 1.409.108.109.598-.902 1.087-2.246.49-1.343.81-2.523.711-2.622-.098-.099-.384.366-.633 1.033m-45.972 4.7c-.235.612-.901 2.553-1.48 4.313-.58 1.76-1.222 3.513-1.428 3.895-.206.382-.365 1.012-.353 1.4.011.388.298-.015.636-.895.339-.88.767-1.96.951-2.4.184-.44.631-1.79.992-3s.855-2.605 1.096-3.099c.241-.495.342-.996.225-1.113-.117-.118-.405.287-.639.899m44.003.686c-.699 1.535-.593 2.244.128.86.335-.642.552-1.337.483-1.545-.069-.208-.344.1-.611.685m-1.553 4.332c-1.276 3.295-2.136 6.033-2.134 6.795.001.385-.178.7-.398.7-.22 0-.4.248-.4.551 0 1.371-8.435 2.551-9.872 1.382-.326-.266-.621-.107-.953.513-.429.803-.53.83-.951.255-.651-.891-1.112-.431-1.902 1.899-1.041 3.07-2.912 13.226-3.316 18-.526 6.213-1.3 8.388-2.206 6.2-.605-1.46-.905-1.498-1.597-.205-.403.752-.66.89-1.052.564-.399-.331-.646-.12-1.066.905l-.547 1.336-.274-1.7-.273-1.7H113.258l-.787 1c-.957 1.217-1.173 1.231-2.325.149-.993-.933-2.028-.785-2.394.342-1.1 3.387-1.375 3.596-1.23.937.077-1.415-.083-3.528-.354-4.696-.508-2.183-.183-8.538.64-12.532.204-.99.463-2.669.577-3.731.113-1.062.332-2.135.487-2.385.154-.25.417-1.181.582-2.069a64.03 64.03 0 0 1 .706-3.215c.222-.88.503-2.14.624-2.8l.219-1.2-.583 1.2c-.321.66-.592 1.637-.602 2.172-.01.534-.187 1.524-.393 2.2-1.579 5.177-2.251 8.377-3.251 15.5-1.612 11.473-1.619 11.701-.35 12.616 1.142.824 1.244 2.106.199 2.503-.503.191-1.026.639-1.162.995-.222.578-.366.562-1.355-.155-1.87-1.356-7.921-1.124-10.99.422-.816.411-1.901.747-2.411.747s-1.242.368-1.627.817c-.385.449-.865.714-1.069.589-.203-.126-.564.137-.803.583-.366.684-.314.811.337.811.424 0 .875-.27 1.002-.6.273-.713.63-.742 2.129-.172 1.073.408 1.088.449.326.866-.44.241-.89.543-1 .672-1.457 1.706-4.4 1.111-4.4-.891 0-1.227-1.048-1.239-2.431-.028-.348.304-.806.553-1.019.553-.782 0-5.35 5.376-5.35 6.296 0 .231.675.514 1.5.629 2.707.378 4.956.971 5.412 1.427.246.246.707.448 1.023.448 4.167 0 14.269 11.256 19.387 21.6 1.143 2.31 2.171 4.29 2.285 4.4.113.11.71 1.73 1.325 3.6.616 1.87 1.485 4.168 1.933 5.107.447.939.91 2.428 1.028 3.31.118.881.371 1.699.561 1.816.19.118.347.519.348.891.002.372.272 1.192.6 1.822.329.63.598 1.389.598 1.686 0 .689 1.303 3.525 1.7 3.701.165.074.3.506.3.962 0 .821.576 2.149 3.779 8.705 3.06 6.265 3.457 6.924 3.907 6.474.424-.424.142-1.114-2.073-5.074-.492-.88-1.146-1.884-1.454-2.231-.307-.348-.559-.845-.559-1.106 0-.261-.167-.786-.372-1.168-.205-.382-.783-1.775-1.285-3.095-.503-1.32-1.145-2.755-1.428-3.189-.283-.434-.515-1.155-.515-1.603 0-.448-.462-1.683-1.028-2.745-.565-1.061-1.205-3.04-1.422-4.397-.217-1.356-.639-2.84-.937-3.297-.297-.457-.846-2.048-1.22-3.536-.373-1.488-1.285-3.904-2.028-5.369-.743-1.465-1.355-2.934-1.362-3.264-.006-.33-.445-1.41-.975-2.4-.529-.99-1.26-2.43-1.622-3.2-2.113-4.489-3.607-6.828-7.152-11.2-3.938-4.857-7.214-7.497-11.154-8.989-1.045-.396-1.9-.875-1.9-1.065 0-.19-.636-.346-1.413-.346-.904 0-1.497-.222-1.649-.617-.334-.87.13-1.191.853-.59.496.411.85.39 1.894-.115.705-.342 1.422-.535 1.593-.43.17.105.645-.36 1.055-1.034l.746-1.226.76 1.019c.432.579 1.107.987 1.561.945.44-.042 1.265.054 1.832.213 1.192.332 3.769-1.093 4.097-2.265.131-.468.595-.7 1.4-.7.662 0 1.277-.218 1.366-.485.112-.336.484-.232 1.204.334 1.098.864 29.538.988 30.455.133.432-.403 1.288.393 1.556 1.446.168.656.204.667.244.072.048-.725.846-1.008.846-.3 0 1.021.793.246 1.027-1.004.329-1.75.975-2.23.968-.72-.004 1.069.42 4.423 1.9 15.024.633 4.542 1.044 5.682 1.366 3.8.353-2.061-.495-19.247-1.104-22.374-.115-.59-.006-1.76.242-2.6.249-.839.611-3.776.805-6.526.451-6.38 1.083-10.941 1.817-13.114.318-.943.579-2.228.579-2.857 0-.692.26-1.243.658-1.396.774-.297 2.141.805 2.145 1.729.001.4.293.197.781-.543.675-1.025.815-1.088 1.05-.474.222.578.557.659 1.833.444 1.031-.174 1.77-.09 2.177.248.502.416.677.414.939-.01.25-.404.517-.327 1.184.34 1.077 1.077 1.633.767 1.633-.911 0-.713.154-1.467.342-1.676.469-.52 1.658-4.345 1.658-5.332 0-.44.166-.903.369-1.029.203-.125.491-.811.64-1.524.269-1.287.809-3.135 2.242-7.662.944-2.98.753-3.296-.319-.528M78.794 217.3c-.005.728-.08.785-.394.3-.501-.776-.501-1.2 0-1.2.22 0 .397.405.394.9m-.894 1.8c.245.735-.972.61-1.256-.129-.168-.439-.04-.59.424-.5.366.071.741.354.832.629m5.223 1.1c1.14.55 2.172 1 2.292 1 .121 0 .705.45 1.298 1 .593.55 1.623 1.258 2.289 1.574 1.388.659 3.252 2.505 2.892 2.865-.133.133-.747-.226-1.364-.799-.617-.572-1.349-1.04-1.626-1.04-.277 0-.504-.27-.504-.6 0-.33-.27-.6-.6-.6-.33 0-.6-.18-.6-.4 0-.22-.243-.4-.54-.4-.298 0-1.333-.413-2.3-.918-.968-.505-2.534-1.167-3.48-1.471-.946-.304-1.812-.7-1.924-.882-.434-.703 2.197-.28 4.167.671m10.774 8.437c-.336.335-1.497-.825-1.497-1.497 0-.314.345-.172.878.36.483.483.761.994.619 1.137m1.61 1.363c.275.44.401.8.28.8s-.607-.36-1.079-.8c-.612-.57-.692-.8-.28-.8.319 0 .804.36 1.079.8m53.901 14.907c-.299.916-.416 4.293-.148 4.293.146 0 .171.36.056.8-.25.954-.641 1.014-1.316.2-.565-.68-1.575-.803-1.65-.2-.028.22-.081.535-.12.7a78.236 78.236 0 0 0-.374 2.2c-.225 1.4-.483 1.898-.981 1.894-.816-.008-1.737-.551-1.76-1.039-.091-1.931-.78-2.748-1.373-1.628-.39.737-.464 1.29-.213 1.6.21.26.51 1.643.666 3.073.156 1.43.626 3.388 1.044 4.351.419.963.761 1.988.761 2.277 0 .29.371.786.824 1.104.469.328 1.065 1.488 1.381 2.687.575 2.181 1.256 2.994 1.993 2.383.559-.464 3.601.898 3.932 1.76.225.586.339.569 1.061-.153.833-.833 1.121-2.809.409-2.809-.22 0-.4-.54-.4-1.2 0-1.497.702-1.588.873-.113.097.834.426 1.173 1.407 1.452.953.272 1.344.659 1.532 1.517.139.633.419 1.048.622.923.368-.228.099-2.022-.417-2.779-.308-.452-1.112-3.145-2.806-9.4-.269-.99-.741-2.391-1.049-3.114-.309-.722-.562-1.736-.562-2.254 0-.517-.269-1.456-.598-2.086-.328-.63-.598-1.63-.6-2.222-.001-.592-.182-1.188-.402-1.324-.22-.136-.4-.847-.4-1.581 0-1.33-1.059-2.329-1.392-1.312m1.22 8.061c.133.533.182 1.248.107 1.59-.198.909-1.094.196-1.225-.975-.061-.541-.29-1.115-.51-1.277-.22-.162.002-.297.492-.3.614-.004.969.297 1.136.962m-2.736 6.49c.458.626.719.652 2.318.224 2.464-.659 2.395-.686 3.007 1.169.795 2.411-.387 3.348-3.776 2.995-1.297-.135-2.962-.246-3.7-.246-1.12 0-1.343-.148-1.355-.9-.008-.495-.272-1.35-.586-1.9-1.073-1.878-.815-2.25 1.488-2.144 1.452.067 2.245.311 2.604.802m2.439 7.877c.14.73-1.073 1.948-1.611 1.615-.159-.098-.128-.603.07-1.123.197-.52.235-1.073.084-1.229-.15-.157.084-.218.521-.137.438.082.859.475.936.874m6.629 5.225c-.146.382-.068.892.174 1.134.32.32.512.251.706-.254.146-.382.068-.892-.174-1.134-.32-.32-.512-.251-.706.254m-35.76 14.859c0 .483 4.063 6.932 5.013 7.957.559.603 1.325 1.575 1.702 2.16 2.227 3.457 9.28 11.272 10.154 11.252.337-.008.275-.161-.169-.42-.385-.224-.7-.643-.7-.931 0-.289-1.08-1.67-2.4-3.07-1.32-1.4-2.4-2.681-2.4-2.847 0-.165-1.439-1.88-3.197-3.81-1.759-1.931-3.199-3.743-3.2-4.027-.003-.483-2.644-4.868-3.604-5.983-.435-.506-1.199-.684-1.199-.281m171.765 7.691c-.393.262-1.066 2.707-1.622 5.89l-.209 1.2.833-1.31c.458-.72.833-1.677.833-2.126 0-.449.191-1.174.425-1.611.527-.984.341-2.443-.26-2.043m-20.755 2.99c.154.935.435 1.892.623 2.127.189.234.388 1.013.442 1.73.055.717.24 1.391.412 1.497.534.33.344-2.805-.302-4.981-.757-2.549-1.577-2.809-1.175-.373m18.244 4.571c-.029.26-.279.715-.554 1.013-1.811 1.959-2.783 3.916-1.946 3.916.748 0 2.908-3.573 2.727-4.511-.095-.489-.197-.677-.227-.418m-5.254 6.838c0 .665-6.402 6.891-7.086 6.891-.535 0-3.467 2.78-3.207 3.04.321.321 1.829-.553 3.077-1.785 1.634-1.613 6.006-5.416 6.624-5.763.302-.169.931-.844 1.397-1.5l.849-1.192h-.827c-.455 0-.827.139-.827.309m-146 .509c0 .538 2.481 2.756 3.1 2.77.275.007.5.192.5.411 0 .644 6.505 5.601 7.351 5.601 1.126 0-.078-1.266-2.951-3.102-1.21-.774-2.964-2.147-3.899-3.052-2.692-2.609-4.101-3.512-4.101-2.628m13.2 10.285c0 .416 4.884 3.697 5.502 3.697.274 0 .498-.152.498-.338 0-.398-1.333-1.662-1.753-1.662-.159 0-.952-.45-1.761-1-1.46-.992-2.486-1.28-2.486-.697m119.458.684c-.408.309-.676.76-.595 1.001.086.258.71.022 1.519-.575 1.073-.791 1.203-1.01.596-1-.428.007-1.112.265-1.52.574m-4.412 2.758c-.855.517-1.379 1.049-1.164 1.182.474.293 3.014-1.015 3.23-1.663.232-.696-.343-.562-2.066.481m-108.643.555c.003.323 1.91 1.3 2.538 1.3.21 0-.034-.36-.541-.8-.92-.798-2.003-1.069-1.997-.5m3.385 1.72c-.227.367 5.663 3.295 7.512 3.734.605.144 1.1.438 1.1.654 0 .215.54.392 1.2.392.66 0 1.2.166 1.2.368 0 .203.538.487 1.195.631.658.144 1.299.429 1.424.632.126.203.623.373 1.105.377.482.005 2.136.454 3.676.999 1.54.544 3.259.99 3.82.991.561.001 1.198.18 1.416.398.455.455 3.281 1.124 6.764 1.601 6.512.891 8.529 1.216 10 1.613 2.598.7 24.828.275 28.8-.551 1.76-.366 3.969-.778 4.909-.915.94-.138 1.806-.406 1.924-.597.118-.191.827-.347 1.577-.347s1.954-.255 2.676-.567c3.306-1.426 4.167-1.767 4.914-1.947.708-.171.695-.199-.122-.24-.507-.025-2.501.398-4.432.941-10.687 3.005-12.173 3.177-27.446 3.181-12.997.004-14.33-.062-18.6-.913-2.53-.504-5.603-1.059-6.829-1.234-1.226-.174-2.609-.52-3.074-.769-.464-.249-1.219-.452-1.676-.452-.458 0-1.144-.168-1.526-.374-.833-.448-8.042-2.427-8.895-2.441-.33-.006-.949-.275-1.376-.598-.428-.323-1.066-.587-1.419-.587-.354 0-2.293-.877-4.311-1.95-3.991-2.122-5.179-2.56-5.506-2.03m96.612 2.295c-2.067 1.019-2.13 1.093-1.051 1.216.632.072 1.343-.063 1.58-.3.237-.237.712-.431 1.055-.431.343 0 .848-.36 1.123-.8.696-1.115.034-1.038-2.707.315m-5.6 2.182c-.55.243-1.9.859-3 1.368l-2 .926 1.6.002c1.005.002 2.195-.364 3.2-.983.88-.542 1.915-.991 2.3-.998.385-.006.7-.192.7-.412 0-.52-1.526-.467-2.8.097" fill="#8a7c28"/><path d="M208.667 88.667c-.582.582-.242 1.252.533 1.049.44-.115.8-.458.8-.763 0-.571-.863-.757-1.333-.286m67.332 6.121c-.454 1.644.034 2.414 1.015 1.601.542-.451.702-.449.986.011.55.89 1.6-.276 1.6-1.776 0-2.04-3.03-1.902-3.601.164m-83.749.044c-.413.401-.645 1.003-.518 1.336.128.334.06.714-.152.845s-.494-.044-.626-.388c-.449-1.171-3.934-.488-4.435.869-.143.388-.454.838-.69 1-.285.195-.255.296.088.3.285.003 1.003-.444 1.596-.994 1.248-1.157 1.435-1.195 2.182-.448.755.755 6.305.401 6.305-.402 0-.299.342-.757.76-1.018 1.25-.78.586-1.475-1.183-1.238-.863.116-1.796.03-2.073-.191-.354-.283-.727-.185-1.254.329m7.75.068c0 .44.306.7.824.7.552 0 .724-.165.523-.5-.226-.376-.142-.372.339.018 1.793 1.452 5.935 1.143 5.418-.405-.297-.889-7.103-.71-7.104.187m-4 .7c0 .22-.27.4-.6.4-.33 0-.731.014-.89.03-.159.017-.354-.163-.433-.4-.079-.236.321-.43.89-.43.568 0 1.033.18 1.033.4m75.2.827c0 .245.341.319.802.172.543-.172.884-.041 1.056.407.195.51.326.543.571.147.175-.283.229-.658.121-.834-.296-.479-2.55-.384-2.55.108m-74.017 3.605c-.397.741-.344.817.482.7.51-.073.987-.447 1.06-.832.189-.99-.996-.889-1.542.132m-58.332 83.528c-.302.191-.477.562-.39.824.103.309.426.183.911-.353.764-.844.477-1.103-.521-.471m-34.926 22.938c-.1 1.044-.333 1.338-1.187 1.5l-1.062.202.966.722c.88.657.989.663 1.217.069.137-.359.672-.813 1.188-1.009.945-.359.959-1.097.042-2.282-.645-.833-1.032-.568-1.164.798m31.136 1.202c-.126.715-.084 2.29.093 3.5.303 2.075.32 2.002.311-1.3-.012-3.843-.065-4.133-.404-2.2m-39.816-.001c-2.184.314-7.903 2.193-10.039 3.298-.895.462-1.206.906-1.206 1.716 0 1.965 2.96 2.539 4.4.853.11-.129.56-.431 1-.672.759-.415.74-.461-.369-.882-1.242-.472-2.231-.306-2.231.375 0 .227-.366.413-.814.413-.694 0-.75-.12-.38-.811.239-.446.6-.709.803-.583.204.125.684-.14 1.069-.589.385-.449 1.117-.817 1.627-.817s1.595-.339 2.411-.752c1.668-.846 5.08-1.428 7.484-1.276.88.055 1.477-.024 1.327-.176-.399-.403-2.655-.446-5.082-.097m37.102 4.901c-.139.22-.378.985-.532 1.7-.253 1.182-1.015 1.858-1.015.9 0-.678-.731-.441-.924.3-.168.643-.187.641-.23-.029-.06-.943-1.034-1.916-1.492-1.489-.917.855-29.357.731-30.455-.133-.72-.566-1.092-.67-1.204-.334-.089.267-.704.485-1.366.485-.805 0-1.269.232-1.4.7-.328 1.172-2.905 2.597-4.097 2.265-.567-.159-1.392-.255-1.832-.213-.454.042-1.129-.366-1.561-.945l-.76-1.019-.746 1.226c-.41.674-.885 1.139-1.055 1.034-.171-.105-.888.088-1.593.43-1.044.505-1.398.526-1.894.115-.723-.601-1.187-.28-.853.59.152.395.745.617 1.649.617.777 0 1.413.156 1.413.346 0 .19.855.669 1.9 1.065 3.94 1.492 7.216 4.132 11.154 8.989 3.545 4.372 5.039 6.711 7.152 11.2.362.77 1.093 2.21 1.622 3.2.53.99.969 2.07.975 2.4.007.33.619 1.799 1.362 3.264.743 1.465 1.655 3.881 2.028 5.369.374 1.488.923 3.079 1.22 3.536.298.457.72 1.941.937 3.297.217 1.357.857 3.336 1.422 4.397.566 1.062 1.028 2.297 1.028 2.745 0 .448.232 1.169.515 1.603.283.434.925 1.869 1.428 3.189.502 1.32 1.08 2.713 1.285 3.095.205.382.372.907.372 1.168 0 .261.252.758.559 1.106.555.626 1.608 2.417 3.149 5.357.562 1.072.674 1.652.377 1.949-.556.556-.167 1.531.507 1.273.289-.111.731.035.982.325.973 1.126 3.626 5.52 3.629 6.01.001.284 1.441 2.096 3.2 4.027 1.758 1.93 3.197 3.645 3.197 3.81 0 .166 1.08 1.447 2.4 2.847 1.32 1.4 2.4 2.781 2.4 3.07 0 .288.315.707.7.931.432.252.5.412.176.42-.288.007-.41.195-.272.419.138.223.447.285.685.138.25-.154.32-.084.166.166-.147.238-.085.547.138.685.224.138.407.066.407-.16 0-.898 1.379-.023 4.101 2.602.935.902 2.509 2.151 3.499 2.778 2.919 1.846 4.17 3.114 3.356 3.399-.534.188-.376.412.761 1.083.974.575 1.485.697 1.591.379.164-.494.671-.304 3.388 1.268 1.955 1.132 2.561 1.729 2.34 2.306-.111.288-.029.63.181.76.211.13.383.046.383-.187 0-.679 1.001-.491 2 .376.707.613.773.8.285.8-.351 0-.749-.18-.885-.4a.914.914 0 0 0-.724-.387c-.262.007-.136.27.279.584.415.314 1.495.564 2.4.555 1.234-.012 2.589.492 5.426 2.016 2.08 1.118 4.07 2.032 4.424 2.032.353 0 .991.264 1.419.587.427.323 1.046.592 1.376.598.853.014 8.062 1.993 8.895 2.441.382.206 1.068.374 1.526.374.457 0 1.212.203 1.676.452.465.249 1.848.595 3.074.769 1.226.175 4.299.73 6.829 1.234 4.27.851 5.603.917 18.6.913 15.273-.004 16.759-.176 27.446-3.181 1.931-.543 3.925-.966 4.432-.941.822.042.835.069.122.249-1.422.359-2.716.923-2.534 1.105.098.097 1.518-.25 3.156-.772 2.562-.816 2.783-.954 1.578-.989l-1.4-.04 1.6-.771c3.959-1.91 6.2-2.508 6.2-1.656 0 .205-.315.451-.7.546-.385.096-.218.116.371.044 1.279-.156 4.847-1.777 4.554-2.07-.113-.113-.469.013-.791.28-.322.267-1.092.428-1.71.357-1.032-.118-.939-.219 1.151-1.229 2.465-1.192 3.635-1.45 2.805-.62-.987.987-.419 1.018 1.518.084 1.099-.53 2.077-.964 2.174-.964.096 0 1.827-1.125 3.845-2.5 2.018-1.375 4.265-2.898 4.993-3.385 1.484-.992 2.182-1.84 1.206-1.466-1.055.405-.289-.899 1.192-2.028.736-.562 1.457-1.021 1.601-1.021.609 0 6.991-6.291 6.991-6.891 0-.17.396-.309.88-.309.684 0 .773.107.4.48-.819.819-.527 1.286.323.517 1.169-1.057 2.113-3.017 1.305-2.706-1.047.401.136-2.304 1.526-3.491.129-.11.439-.56.688-1 .436-.769.454-.77.466-.033.016.998.37.614 1.254-1.362.825-1.841.684-2.129-.246-.505l-.63 1.1.193-1.2c.519-3.214 1.239-5.644 1.797-6.058.526-.39.548-.743.146-2.4a45.577 45.577 0 0 1-.699-3.53c-.306-2.143-1.129-3.287-2.896-4.025-.813-.34-1.775-.886-2.138-1.215-1.184-1.071-6.613.607-7.793 2.409-1.516 2.314 1.074 3.106 3.308 1.012 1.874-1.757 4.916-2.164 4.916-.658 0 .756.332 1.216 1.2 1.665 1.409.728 1.481 1.423.586 5.6-.384 1.789-.513 3.686-.358 5.254.158 1.591.09 2.549-.192 2.724-.24.148-.436.876-.436 1.617 0 1.374-1.142 2.679-2.808 3.208-.409.129-.951.868-1.206 1.641-.484 1.466-1.589 2.156-3.452 2.156-.576 0-1.481.475-2.097 1.1-.596.605-1.758 1.634-2.582 2.287-1.138.902-1.446 1.395-1.281 2.05.383 1.526-2.829 1.749-4.032.279-.869-1.062-.914-1.074-.928-.24-.008.482-.194.988-.414 1.124-.22.136-.4.68-.4 1.21 0 .552-.34 1.144-.8 1.39-.44.235-.8.754-.8 1.152 0 1.252-1.251 1.916-3.674 1.952-3.078.045-5.267 1.081-4.95 2.343.186.743-.007 1.052-.968 1.549-1.467.758-3.054.435-3.346-.682-.126-.479-.438-.732-.755-.61-.297.114-.882-.043-1.3-.348-1.088-.796-4.259-.757-3.95.047.127.332.654.71 1.171.84 2.324.583 1.652 2.921-.848 2.948-.451.005-.991.172-1.2.371-.209.199-1.525.445-2.924.547-2.46.179-3.235.606-3.25 1.791-.007.601-.659.662-1.01.093-.138-.223-.455-.28-.704-.126-.249.154-1.154.239-2.011.188-1.155-.068-1.909.176-2.919.947-.858.654-1.364.846-1.368.518-.005-.416-.074-.413-.345.014-.186.294-.498.564-.694.6-.195.036-.333.392-.305.79.03.443-.153.645-.474.522-.289-.111-.581-.032-.65.175-.233.695-7.491.535-8.284-.183-.908-.822-2.594-.819-3.279.006-.468.565-1.373.614-7.349.394-3.748-.137-7.264-.264-7.814-.281-2.595-.079-5.583-.462-5.438-.696.089-.144-2.206-.308-5.1-.365-6.324-.124-9.689-.924-9.035-2.147.328-.613.26-.749-.38-.749-.429 0-.851-.211-.936-.468-.1-.3-1.301-.484-3.344-.512-2.543-.035-3.477-.223-4.624-.932-.791-.488-1.825-.888-2.299-.888s-1.549-.455-2.389-1.011c-.934-.618-2.371-1.105-3.692-1.25-1.532-.169-2.426-.512-3.066-1.174-.496-.515-1.61-1.126-2.475-1.359-.978-.263-1.669-.723-1.825-1.215-.157-.496-.606-.791-1.201-.791-.523 0-1.186-.317-1.473-.705-.288-.387-.9-.972-1.362-1.3-6.15-4.365-6.77-5.699-4.041-8.695.451-.495 1.052-.9 1.336-.9.284 0 .702-.348.93-.774 1.326-2.478-.671-2.732-3.299-.419-4.038 3.554-8.176 3.441-8.867-.243-.318-1.691-1.179-2.561-2.549-2.575-2.161-.023-3.444-2.012-3.336-5.169.097-2.811-.3-3.679-1.299-2.85-.394.327-.659.284-1.032-.165-.276-.333-.74-.605-1.031-.605-.587 0-3.89-3.893-4.807-5.666-.323-.624-.847-1.134-1.166-1.134-.437 0-.518-.31-.328-1.259.238-1.19.196-1.245-.764-1.004-1.176.295-1.7-.196-2.072-1.941-.15-.698-.752-1.536-1.435-1.995-1.547-1.04-2.317-2.69-2.547-5.457-.175-2.112-2.337-7.545-3.134-7.877-.465-.194-.392-1.985.12-2.942.277-.518.288-.728.029-.567-.227.139-.474-.154-.55-.652-.076-.498-.348-.865-.604-.814-.546.107-1.081-1.3-.717-1.888.137-.222.059-.404-.174-.404-.233 0-.424-.45-.424-1s-.18-1-.4-1c-.22 0-.4-.45-.4-1 0-.843-.187-1-1.191-1-1.62 0-2.588-1.482-2.288-3.506.347-2.346-.206-4.707-1.085-4.63-.626.054-.701-.162-.522-1.5.115-.86.058-1.658-.127-1.772-.185-.114-.327-.931-.314-1.814.018-1.342-.223-1.842-1.467-3.051-1.579-1.534-1.562-1.418-.799-5.433.204-1.071 1.305-2.694 1.828-2.694.333 0 1.565 3.226 1.565 4.101 0 .437.212.592.605.442.333-.128.878-.006 1.212.271.421.349.879.388 1.495.126.488-.207 3.588-.343 6.888-.303 6.917.085 7.215.04 7.603-1.15.159-.488.336-1.022.393-1.187a4.68 4.68 0 0 0 .16-.8c.259-2.303 2.38-1.407 3.214 1.358.658 2.18 1.714 4.342 2.121 4.342.17 0 .309.324.309.72 0 .396.2.92.445 1.165.534.534.136 1.315-.669 1.315-.317 0-.576.18-.576.4 0 .22.248.4.551.4.303 0 .775.27 1.049.6.274.33.903.6 1.399.6 1.062 0 1.256.697 1.642 5.904.178 2.41.438 3.6.837 3.831.389.227.557.943.514 2.2-.094 2.779-.029 3.335.364 3.092.413-.255 1.644 1.475 1.644 2.31 0 .311.258.78.574 1.042.316.262.687 1.049.824 1.749.137.699.394 1.632.572 2.072.773 1.913 1.361 3.268 1.824 4.2.274.55.615 1.495.759 2.1.144.605.497 1.1.785 1.1 1.307 0 2.842 2.805 3.227 5.896.212 1.713 1.211 4.078 1.745 4.135.605.063 1.515.302 2.19.573.742.298.993-.376.3-.804-.22-.136-.4-.831-.4-1.544 0-.713-.158-1.467-.351-1.676-1.312-1.422-2.307-6.407-1.492-7.48.554-.729 1.676-1 1.243-.3-.136.22-.057.4.176.4.233 0 .424-.251.424-.557 0-.307.272-.662.604-.789.332-.127.58-.372.552-.543-.152-.929.145-1.311 1.02-1.311.537 0 1.088.18 1.224.4.391.633 1 .465.743-.205-.128-.333-.039-.839.198-1.124.806-.972-.264-3.333-1.695-3.741-.947-.27-1.276-.616-1.373-1.443-.171-1.475-.873-1.384-.873.113 0 .66.18 1.2.4 1.2.712 0 .424 1.976-.409 2.809-.722.722-.836.739-1.061.153-.331-.862-3.373-2.224-3.932-1.76-.737.611-1.418-.202-1.993-2.383-.316-1.199-.912-2.359-1.381-2.687-.453-.318-.824-.814-.824-1.104 0-.289-.342-1.314-.761-2.277-.418-.963-.888-2.921-1.044-4.351-.156-1.43-.456-2.813-.666-3.073-.251-.31-.177-.863.213-1.6.623-1.177.599-1.194 1.247.877.104.333.179.717.166.855-.036.385.964.928 1.72.935.498.004.756-.494.981-1.894.168-1.045.336-2.035.374-2.2.039-.165.092-.48.12-.7.075-.603 1.085-.48 1.65.2.675.814 1.066.754 1.316-.2.115-.44.091-.802-.053-.804-.145-.002-.299-1.733-.343-3.846-.088-4.279-.714-5.702-2.166-4.925-.41.219-.711.529-.669.687.577 2.157-1.126 4.366-2.443 3.17-.534-.485-.817-.612-.63-.282.294.517.248.524-.335.051-.372-.302-.677-.766-.677-1.03 0-.583-1.681-2.221-2.28-2.221-1.099 0-2.3-3.946-3.288-10.8-.361-2.51-.373-2.531-.351-.6.062 5.493-.549 5.097-1.388-.9-.659-4.702-1.791-13.417-1.989-15.3-.058-.55-.219-.82-.357-.6m3.367 4.8c.003 1.1.081 1.503.173.895.092-.609.09-1.509-.005-2-.095-.492-.171.005-.168 1.105M149 252.306c.22.162.449.736.51 1.277.131 1.171 1.027 1.884 1.225.975.284-1.301-.328-2.558-1.243-2.552-.49.003-.712.138-.492.3m-32.066 12.321c-.132.345-.036.831.213 1.08.337.337.453.177.453-.627 0-1.203-.299-1.407-.666-.453m31.94 1.971c.151.156.113.709-.084 1.229-.439 1.154-.031 1.485.95.768.916-.67.711-1.937-.345-2.134-.437-.081-.671-.02-.521.137m-24.626 9.702c-.474 1.617.224 5.3 1.005 5.3.202 0 .538.45.747 1 .428 1.126.888 1.258 1.56.449.343-.415.341-.837-.012-1.7-.258-.632-.431-1.537-.385-2.011.046-.474-.106-.979-.339-1.123-.233-.144-.424-.605-.424-1.025 0-.419-.348-.948-.774-1.176-1.032-.552-1.138-.53-1.378.286m24.083 9.939c-.106.199-.164.721-.13 1.161.034.44.093 1.565.131 2.5.061 1.528.169 1.7 1.068 1.7.933 0 1 .133 1 2 0 1.1.165 2 .367 2 .202 0 .684.121 1.07.269.567.218.646.122.409-.5-.235-.617-.194-.67.21-.269.392.389.397.607.024.98-.667.667-.6 1.52.12 1.52.33 0 .6.203.6.45 0 .302.429.353 1.3.155 2.25-.511 3.249-.27 4.523 1.09 1.513 1.614 3.344 1.848 3.186.408-.106-.964-.989-2.168-2.509-3.42-.495-.407-.9-.955-.9-1.216s-.369-.705-.82-.987c-.782-.488-.812-.44-.641 1.045.231 2.009-1.809 1.915-2.945-.136-.363-.654-.869-1.211-1.127-1.239-.257-.027-.667-.072-.91-.1-.269-.03-.345-.443-.193-1.05.218-.868.119-1-.756-1-.909 0-1.008-.157-1.008-1.6 0-.88-.18-1.6-.4-1.6-.22 0-.4-.236-.4-.524 0-.735-1.037-2.073-1.269-1.637m-17.431 1.773c-2.008.807-.719 2.388 1.947 2.388 2.352 0 3.153-.295 3.153-1.163 0-1.521-2.731-2.177-5.1-1.225M280.4 293c0 1.415-.612 1.828-1.457.983-.289-.289-.567-.236-.907.173-.396.478-.332.748.337 1.417.455.455.827 1.007.827 1.227 0 .633.689.465.957-.233.134-.348.243-.978.243-1.4 0-.422.27-.767.6-.767.419 0 .6-.422.6-1.4s-.181-1.4-.6-1.4-.6.422-.6 1.4m-141.3 1.157c-.835.634-.935 2.243-.139 2.243.435 0 1.439-1.855 1.439-2.66 0-.294-.628-.093-1.3.417m134.207 1.915c-.37.444-.345 1.005.109 2.514.674 2.239.787 5.186.184 4.814-.22-.136-.4-.067-.4.153 0 1.067.883.746 1.408-.511.683-1.634.777-3.681.185-4.046-.223-.138-.309-.409-.189-.602.453-.733-.782-2.944-1.297-2.322m1.756-.202c-.393.394-.317 1.649.117 1.918.651.402 1.285-1.236.675-1.743-.291-.241-.647-.32-.792-.175m2.004.397c-.448.447-.299 1.538.32 2.357.547.722.588.658.6-.924.012-1.589-.292-2.062-.92-1.433m-134.438 4.761c-.546.547-.67 1.132-.52 2.464.24 2.125.239 2.123 2.219 2.389 2.303.309 3.044-1.019 1.272-2.281-.66-.47-1.2-1.078-1.2-1.351 0-1.289-1.008-1.984-1.771-1.221m21.447 1.88c-.273.33-.295.733-.059 1.105.204.323.374 1.06.377 1.638.007 1.294.804 2.048 1.619 1.532.323-.204.407-.376.187-.383-.22-.007-.154-.168.147-.359.447-.283.409-.485-.204-1.098-.414-.414-.697-1.037-.63-1.384.18-.935-.886-1.714-1.437-1.051m117.024.981c-1.968.294-.452 2.272 1.565 2.041 1.087-.124 2.018-1.93.996-1.93-.218 0-.635-.062-.928-.138-.293-.076-1.028-.064-1.633.027M156.4 305c0 .373.378.6 1 .6s1-.227 1-.6-.378-.6-1-.6-1 .227-1 .6m120.229 2.029c-.729.728-.828 2.001-.186 2.397.755.467 2.517-1.751 1.942-2.445-.616-.742-.977-.732-1.756.048m-110.624 2.638c.01 1.558.457 2.733 1.042 2.733.304 0 .553.27.553.6 0 .419.422.6 1.4.6s1.4-.181 1.4-.6c0-.33-.201-.6-.447-.6-.26 0-.367-.416-.255-1 .191-.998-.229-1.358-.698-.6-.42.68-.934.447-1.478-.67-.689-1.413-1.524-1.668-1.517-.463m117.595 2.852c-.33.272-.957.941-1.394 1.488-.667.834-.571.802.6-.204.767-.658 1.565-1.333 1.774-1.5.24-.191.24-.298 0-.29-.209.007-.65.235-.98.506m-125.626.948c-.659 1.731-.011 3.502 1.339 3.66.991.115 1.086.009 1.081-1.2-.012-2.739-1.672-4.425-2.42-2.46m121.426 2.824c-.88.776-1.24 1.213-.8.972 1.287-.708 2.805-1.992 2.594-2.196-.107-.103-.914.448-1.794 1.224m-101.761 2.662c-.371.447-.226.588.751.731.85.125 1.21.013 1.21-.377 0-.305-.18-.443-.4-.307-.22.136-.4.057-.4-.176 0-.596-.616-.527-1.161.129M162 320.357c0 .244.371.443.824.443.453 0 .712.18.576.4-.144.233.263.4.976.4.827 0 1.224-.197 1.224-.606 0-.41-.358-.587-1.1-.547-.605.033-1.415-.074-1.8-.236-.423-.18-.7-.122-.7.146m19.299.543c.636.959 1.578 1.31 2.533.943 1.119-.429-.244-1.843-1.777-1.843-1.313 0-1.335.026-.756.9m91.483.513c-.809.597-1.433.833-1.519.575-.192-.576 1.128-1.559 2.115-1.575.607-.01.477.209-.596 1m-15.982.187c0 .22.27.4.6.4.33 0 .6-.18.6-.4 0-.22-.27-.4-.6-.4-.33 0-.6.18-.6.4m-89.773.756c-.121.197.363.45 1.076.563 3.127.497 8.63 2.679 9.03 3.581.199.447 1.267.363 1.267-.1 0-.22.272-.4.603-.4.504 0 .521-.133.104-.8-.275-.44-.819-.8-1.211-.8-.391 0-1.633-.482-2.76-1.072-2.115-1.105-7.619-1.765-8.109-.972m102.485.908c-.216.648-2.756 1.956-3.23 1.663-.215-.133.309-.665 1.164-1.182 1.723-1.043 2.298-1.177 2.066-.481m-81.112 4.323c-.77.423-1.805.955-2.3 1.181-2.024.926-.599 1.618 3.351 1.627 2.763.006 3.482-.492 3.278-2.271-.165-1.44-2.22-1.695-4.329-.537m11.4.013c.136.22.507.4.824.4.317 0 .576-.18.576-.4 0-.22-.371-.4-.824-.4-.453 0-.712.18-.576.4m2.202.558c-1.134 1.134.685 2.242 3.678 2.242 1.915 0 2.98-1.651 1.42-2.202-1.101-.388-4.721-.417-5.098-.04m22.481 1.919c-.672.672-.604 1.902.12 2.18 1.668.64 4.596-.874 3.55-1.835-.665-.612-3.168-.847-3.67-.345M194.2 332.8c.136.22.496.4.8.4.304 0 .664-.18.8-.4.141-.228-.204-.4-.8-.4-.596 0-.941.172-.8.4" fill="#944205"/></g></svg>