<svg id="svg" version="1.1" xmlns="http://www.w3.org/2000/svg" xmlns:xlink="http://www.w3.org/1999/xlink" width="400" height="400" viewBox="0, 0, 400,400"><g id="svgg"><path id="path0" d="M272.670 28.663 C 272.522 28.812,272.400 30.253,272.400 31.867 L 272.400 34.800 267.700 34.863 C 265.115 34.898,262.690 34.901,262.311 34.870 C 261.420 34.797,259.597 36.620,259.670 37.511 C 259.701 37.890,259.698 40.217,259.663 42.682 L 259.600 47.165 256.700 47.282 L 253.800 47.400 253.715 71.097 L 253.630 94.793 254.626 95.790 C 255.174 96.338,255.933 96.761,256.311 96.730 C 256.690 96.699,257.577 96.702,258.283 96.737 L 259.566 96.800 259.683 99.900 L 259.800 103.000 262.900 103.117 L 266.000 103.234 266.063 104.717 C 266.098 105.533,266.098 106.528,266.063 106.928 C 265.993 107.726,266.956 108.911,267.352 108.514 C 267.489 108.378,267.600 108.470,267.600 108.719 C 267.600 109.051,273.948 109.148,291.500 109.085 L 315.400 109.000 315.517 106.117 L 315.634 103.233 318.717 103.117 L 321.800 103.000 321.917 99.917 L 322.033 96.834 324.917 96.717 L 327.800 96.600 327.917 93.717 L 328.034 90.833 331.117 90.717 L 334.200 90.600 334.200 69.000 L 334.200 47.400 331.117 47.283 L 328.034 47.167 327.917 44.283 L 327.800 41.400 324.917 41.283 L 322.033 41.166 321.917 38.083 L 321.800 35.000 318.717 34.883 L 315.633 34.767 315.517 31.683 L 315.400 28.600 294.170 28.497 C 282.494 28.440,272.819 28.515,272.670 28.663 " stroke="none" fill="#04dcd4" fill-rule="evenodd"></path><path id="path1" d="M278.672 285.061 C 278.523 285.211,278.400 286.649,278.400 288.256 L 278.400 291.179 272.300 291.290 L 266.200 291.400 266.083 294.283 L 265.966 297.167 262.883 297.283 L 259.800 297.400 259.683 300.483 L 259.567 303.566 256.683 303.683 L 253.800 303.800 253.690 309.900 L 253.579 316.000 251.018 316.000 C 247.012 316.000,247.200 315.383,247.200 328.549 C 247.200 341.507,246.988 340.800,250.870 340.800 L 253.579 340.800 253.690 346.900 L 253.800 353.000 256.683 353.117 L 259.566 353.234 259.683 356.117 L 259.800 359.000 262.883 359.117 L 265.967 359.233 266.083 362.317 L 266.200 365.400 269.283 365.517 L 272.367 365.633 272.483 368.717 L 272.600 371.800 290.800 371.800 L 309.000 371.800 309.117 368.710 L 309.233 365.620 315.517 365.510 L 321.800 365.400 321.917 362.317 L 322.033 359.234 324.917 359.117 L 327.800 359.000 327.910 352.917 L 328.021 346.833 331.110 346.717 L 334.200 346.600 334.200 328.200 L 334.200 309.800 331.110 309.683 L 328.021 309.567 327.910 303.483 L 327.800 297.400 324.900 297.282 L 322.000 297.165 322.000 294.597 C 322.000 291.139,322.182 291.200,311.843 291.200 L 303.234 291.200 303.117 288.100 L 303.000 285.000 290.972 284.894 C 284.357 284.836,278.822 284.911,278.672 285.061 " stroke="none" fill="#fc4c8c" fill-rule="evenodd"></path><path id="path2" d="M159.870 28.663 C 159.722 28.812,159.600 30.250,159.600 31.859 L 159.600 34.785 150.500 34.892 L 141.400 35.000 141.283 38.100 L 141.166 41.200 132.416 41.200 C 121.721 41.200,122.400 40.981,122.400 44.426 L 122.400 47.166 119.300 47.283 L 116.200 47.400 116.083 50.490 L 115.967 53.579 109.883 53.690 L 103.800 53.800 103.683 56.683 L 103.566 59.567 100.483 59.683 L 97.400 59.800 97.283 62.890 L 97.167 65.979 91.083 66.090 L 85.000 66.200 84.883 69.283 L 84.767 72.367 81.683 72.483 L 78.600 72.600 78.483 75.483 L 78.366 78.366 75.483 78.483 L 72.600 78.600 72.483 81.700 L 72.366 84.800 69.812 84.800 C 66.062 84.800,66.000 84.910,66.000 91.612 L 66.000 97.166 62.900 97.283 L 59.800 97.400 59.683 100.483 L 59.567 103.566 56.683 103.683 L 53.800 103.800 53.690 109.883 L 53.579 115.967 50.490 116.083 L 47.400 116.200 47.290 122.283 L 47.179 128.365 44.290 128.483 L 41.400 128.600 41.293 137.883 L 41.185 147.167 38.093 147.283 L 35.000 147.400 34.894 159.883 L 34.789 172.367 31.694 172.483 L 28.600 172.600 28.497 199.756 C 28.381 230.531,28.063 228.000,32.043 228.000 L 34.789 228.000 34.894 240.500 L 35.000 253.000 38.093 253.117 L 41.185 253.233 41.293 262.517 L 41.400 271.800 44.290 271.917 L 47.179 272.035 47.290 278.117 L 47.400 284.200 50.500 284.317 L 53.600 284.434 53.600 289.988 C 53.600 296.630,53.690 296.800,57.212 296.800 L 59.566 296.800 59.683 299.900 L 59.800 303.000 62.883 303.117 L 65.966 303.233 66.083 306.117 L 66.200 309.000 69.283 309.117 L 72.367 309.233 72.483 312.317 L 72.600 315.400 75.483 315.517 L 78.367 315.634 78.483 318.717 L 78.600 321.800 81.683 321.917 L 84.766 322.033 84.883 324.917 L 85.000 327.800 88.083 327.917 L 91.167 328.033 91.283 331.117 L 91.400 334.200 94.283 334.317 L 97.167 334.434 97.283 337.517 L 97.400 340.600 100.483 340.717 L 103.566 340.833 103.683 343.717 L 103.800 346.600 109.883 346.710 L 115.967 346.821 116.083 349.910 L 116.200 353.000 122.283 353.110 L 128.365 353.221 128.483 356.110 L 128.600 359.000 134.900 359.110 L 141.200 359.220 141.200 361.777 C 141.200 365.960,140.011 365.600,153.826 365.600 L 165.966 365.600 166.083 368.700 L 166.200 371.800 184.600 371.800 L 203.000 371.800 203.102 331.305 L 203.204 290.809 218.702 290.705 L 234.200 290.600 234.317 287.500 L 234.434 284.400 243.188 284.400 C 253.490 284.400,253.200 284.510,253.200 280.589 L 253.200 278.035 256.100 277.918 L 259.000 277.800 259.117 274.917 L 259.234 272.033 262.317 271.917 L 265.400 271.800 265.517 268.717 L 265.633 265.633 268.717 265.517 L 271.800 265.400 271.917 262.317 L 272.033 259.234 274.917 259.117 L 277.800 259.000 277.917 256.117 L 278.034 253.233 281.117 253.117 L 284.200 253.000 284.310 246.917 L 284.421 240.833 287.510 240.717 L 290.600 240.600 290.707 231.317 L 290.815 222.035 293.707 221.917 L 296.600 221.800 296.600 200.200 L 296.600 178.600 293.707 178.483 L 290.815 178.365 290.707 169.083 L 290.600 159.800 287.510 159.683 L 284.421 159.567 284.310 153.483 L 284.200 147.400 281.117 147.283 L 278.034 147.167 277.917 144.283 L 277.800 141.400 274.900 141.282 L 272.000 141.165 272.000 135.411 C 272.000 127.973,272.427 128.400,264.989 128.400 L 259.235 128.400 259.118 125.500 L 259.000 122.600 256.117 122.483 L 253.233 122.366 253.117 119.283 L 253.000 116.200 246.917 116.090 L 240.833 115.979 240.717 112.890 L 240.600 109.800 228.117 109.694 L 215.635 109.589 215.517 106.694 L 215.400 103.800 209.302 103.690 L 203.204 103.579 203.102 66.090 L 203.000 28.600 181.570 28.497 C 169.784 28.440,160.019 28.515,159.870 28.663 M197.200 197.000 L 197.200 284.800 187.600 284.800 L 178.000 284.800 178.000 282.080 C 178.000 278.240,178.430 278.400,168.138 278.400 L 159.235 278.400 159.118 275.500 L 159.000 272.600 156.117 272.483 L 153.233 272.366 153.117 269.283 L 153.000 266.200 149.917 266.083 L 146.833 265.967 146.717 262.883 L 146.600 259.800 143.717 259.683 L 140.834 259.566 140.717 256.683 L 140.600 253.800 137.517 253.683 L 134.433 253.567 134.317 250.483 L 134.200 247.400 131.100 247.283 L 128.000 247.166 128.000 241.463 C 128.000 234.794,128.003 234.800,124.530 234.800 L 122.021 234.800 121.910 228.700 L 121.800 222.600 118.700 222.483 L 115.600 222.366 115.600 200.200 L 115.600 178.034 118.700 177.917 L 121.800 177.800 121.907 168.517 L 122.015 159.235 124.907 159.117 L 127.800 159.000 127.917 156.117 L 128.034 153.233 131.117 153.117 L 134.200 153.000 134.310 146.917 L 134.421 140.833 137.510 140.717 L 140.600 140.600 140.717 137.500 L 140.834 134.400 146.388 134.400 C 153.090 134.400,153.200 134.338,153.200 130.589 L 153.200 128.035 156.100 127.918 L 159.000 127.800 159.117 124.910 L 159.235 122.020 165.517 121.910 L 171.800 121.800 171.917 118.700 L 172.034 115.600 183.937 115.600 C 197.583 115.600,196.800 115.824,196.800 111.920 C 196.800 110.424,196.890 109.200,197.000 109.200 C 197.110 109.200,197.200 148.710,197.200 197.000 " stroke="none" fill="#040424" fill-rule="evenodd"></path><path id="path3" d="" stroke="none" fill="#c0987c" fill-rule="evenodd"></path><path id="path4" d="" stroke="none" fill="#403880" fill-rule="evenodd"></path></g></svg>