<svg xmlns="http://www.w3.org/2000/svg" width="32" height="32" viewBox="0 0 400 400"><g fill-rule="evenodd"><path d="M254.4 225.273c-.55.233-2.161.676-3.58.986-1.419.309-3.129.841-3.8 1.182-.671.341-2.21.709-3.42.818-1.21.109-2.83.433-3.6.72-2.39.888-6.89 2.141-9.4 2.616-1.32.249-3.054.703-3.854 1.008-.944.359-3.424.581-7.059.631-4.913.067-5.682.168-6.241.821-.351.41-1.067.745-1.592.745-.524 0-1.655.247-2.512.55-.857.302-2.545.675-3.75.828-1.206.154-3.228.626-4.494 1.051-1.265.424-2.885.779-3.6.789-.714.009-2.018.295-2.898.635-.88.34-3.522.764-5.871.943-2.602.198-4.712.572-5.4.959-1.793 1.007-4.504 1.872-7.529 2.4-1.54.269-3.203.709-3.697.979-.493.27-2.383.597-4.2.728-1.816.131-3.843.479-4.503.774-.66.295-2.37.724-3.8.952-1.43.229-3.32.677-4.2.996-.88.32-2.096.589-2.701.598-.606.01-1.774.378-2.595.818-.965.518-2.271.803-3.698.809-1.304.005-2.898.323-3.898.777-.931.422-3.181.981-5 1.242-1.82.26-3.488.608-3.708.772-.22.165-1.3.427-2.4.584-1.1.157-2.54.527-3.2.822-.66.295-2.37.657-3.8.803-1.43.147-2.988.512-3.461.813-.474.3-2.364.734-4.2.965-4.424.555-8.711 2.023-9.674 3.313-.962 1.289-.589 3.369.71 3.961 1.065.486 2.625 3.496 2.625 5.065 0 .607.438 1.908.973 2.889a85.334 85.334 0 0 1 1.647 3.185c.37.77 1.215 2.085 1.878 2.922 1.045 1.322 1.174 1.747.972 3.223-.262 1.911.516 3.528 2.844 5.911 2.481 2.539 4.886 5.303 4.886 5.615 0 .172.68.66 1.511 1.084 1.285.655 1.83 1.407 3.643 5.028 1.173 2.342 2.546 4.75 3.053 5.353.507.602 1.216 2.107 1.576 3.346.36 1.238.925 2.476 1.257 2.751.866.719 3.563 5.486 4.167 7.367.283.88.913 2.14 1.401 2.8.488.66 1.011 1.74 1.162 2.4.152.66.867 2.1 1.59 3.2 1.521 2.314 2.871 5.199 3.688 7.883.315 1.035.733 1.982.929 2.103.911.563 4.058 6.757 4.289 8.44.165 1.206.52 2.002 1.028 2.307.428.257 1.505 1.906 2.396 3.666.89 1.759 2.207 3.919 2.927 4.8.917 1.121 1.44 2.314 1.747 3.98.64 3.474 3.533 5.956 4.374 3.753.076-.199.556-.858 1.067-1.465.51-.606 1.057-1.815 1.215-2.685.158-.87.553-2.106.877-2.747.325-.641.907-2.081 1.292-3.2.386-1.119 1.24-3.205 1.898-4.635 1.442-3.133 2.056-4.827 2.596-7.158.224-.968.901-2.597 1.505-3.621.603-1.024 1.324-2.573 1.602-3.441.603-1.887 1.303-3.559 2.841-6.78 1.545-3.234 3.149-7.605 3.597-9.8.203-.99 1.166-3.42 2.141-5.4.975-1.98 1.969-4.456 2.209-5.503.239-1.047.955-2.864 1.591-4.039.635-1.175 1.471-3.289 1.857-4.697.386-1.409 1.374-4.001 2.196-5.761 2.874-6.156 3.978-8.693 3.978-9.145.001-.898 2.338-5.28 3.457-6.481 2.926-3.139 5.885-6.863 6.222-7.828.285-.817.784-1.168 2.157-1.513.983-.248 2.096-.828 2.475-1.291a25.18 25.18 0 0 1 1.339-1.491c.358-.358.776-1.058.929-1.555.153-.498.843-1.197 1.533-1.554.691-.357 2.489-1.885 3.997-3.396 1.507-1.51 2.922-2.746 3.144-2.746.399 0 5.505-4.836 11.583-10.97l3.14-3.17 2.669-.321c1.468-.177 3.065-.581 3.549-.899.484-.317 1.854-.757 3.043-.978 1.19-.221 2.67-.595 3.289-.832.619-.236 2.239-.438 3.6-.448 1.361-.009 3.194-.298 4.074-.641.88-.343 3.014-.782 4.742-.975 1.925-.216 3.648-.665 4.447-1.159.76-.47 1.999-.807 2.966-.807 1.64 0 7.066-1.661 7.79-2.385 1.21-1.21-2.175-3.208-5.443-3.213-.825-.001-2.535-.347-3.8-.768-1.266-.421-3.608-.882-5.203-1.024-1.596-.142-3.396-.517-4-.832-1.277-.666-2.686-.702-4.099-.105m8.4 2.334c.33.17 2.366.691 4.524 1.158 3.385.732 6.201 1.843 5.769 2.276-.073.073-1.686.309-3.585.524-2.193.25-4.459.821-6.211 1.567-1.517.645-3.915 1.303-5.328 1.462-1.413.159-3.552.54-4.753.847-6.423 1.643-10.048-.051-5.528-2.583 2.392-1.34 3.512-2.299 3.512-3.007 0-.787 2.436-2.549 3.83-2.77 1.527-.242 6.999.129 7.77.526M215.633 236c.817 0 .317 1.64-.633 2.073-.846.385-1 .726-1 2.212 0 2.396-1.147 7.294-1.994 8.515-1.019 1.468-3.515 6.878-5.076 11-1.495 3.946-1.708 4.483-2.675 6.714-.36.832-.655 1.689-.655 1.904 0 .772-3.184 5.037-4.083 5.469-1.762.846-2.245.85-3.771.033-1.119-.6-2.135-.797-3.741-.724-4.251.192-7.621-.125-12.605-1.185-1.1-.234-3.89-.7-6.2-1.036-2.31-.336-5.253-.969-6.539-1.406-1.287-.437-3.177-.901-4.2-1.03-1.024-.129-2.254-.479-2.734-.778-.582-.363-3.313-.671-8.2-.925-7.58-.393-7.855-.437-10.539-1.677-.886-.41-2.956-.922-4.6-1.138-6.078-.8-8.436-1.204-10.365-1.777-1.088-.323-3.87-.714-6.182-.869-4.139-.277-7.306-1.337-6.394-2.139.741-.654 5.252-1.986 7.495-2.214 1.288-.132 2.728-.446 3.2-.7.905-.485 6.033-1.542 12.058-2.485 3.388-.53 8.369-1.871 9.876-2.66.372-.195 1.88-.546 3.351-.781s3.326-.705 4.124-1.045c.809-.345 3.215-.711 5.449-.83 3.062-.163 4.963-.53 8.106-1.567 2.258-.745 4.711-1.354 5.45-1.354.739 0 2.131-.286 3.094-.635.962-.349 3.631-.872 5.93-1.162 3.846-.486 4.26-.623 5.2-1.727.958-1.126 1.248-1.215 4.797-1.473 2.144-.156 4.614-.605 5.714-1.039 1.066-.42 2.517-.766 3.224-.769.707-.002 2.275-.292 3.485-.643 1.21-.35 3.718-.793 5.574-.983 2.119-.217 3.604-.575 3.993-.964.34-.341.862-.526 1.159-.412.297.114.705.207.907.207" fill="#4ee88d"/><path d="M158.971 31.357c.214.655.162.685-.392.225-.521-.432-.699-.435-.959-.014-.229.37-.399.39-.598.068-.152-.247-.454-.34-.669-.207-.242.15-.194.487.128.883.389.481.394.566.019.341-.335-.201-.5-.029-.5.523 0 .453.225.835.5.849.275.014.095.188-.4.387-1.485.597-.69 3.508.9 3.297.706-.093.693-.051-.107.357-1.022.521-.907 1.52.317 2.744.445.445.646 1.054.514 1.56-.281 1.074 1.038 3.21 1.476 2.392.166-.309.188-1.372.05-2.362-.354-2.537.115-7.607.739-7.993.282-.175.4-.502.26-.727-.144-.234.048-.352.449-.275l.902.171c.11.02-.07.211-.4.424-.449.29-.248.386.8.381 1.3-.006 1.346-.047.645-.578-.416-.315-.961-.984-1.212-1.488-.251-.503-.811-.915-1.245-.915-.433 0-.94-.18-1.126-.4-.193-.229-.232-.076-.091.357m1.737.968c.098.293-.085.382-.475.232-.348-.133-.633-.418-.633-.633 0-.526.909-.197 1.108.401m4.043 2.417c.303.203.428.569.277.813-.18.29.16.445.978.445 1.864 0 1.496-1.359-.409-1.513-.955-.077-1.223.004-.846.255M167.4 36.4c-.347.562.166 1.268.688.945.238-.147.676.065.973.47.638.873.685.621.149-.789-.393-1.034-1.353-1.366-1.81-.626m2.733 1.782c0 .321.131.502.292.403.16-.099.394.089.521.417.294.769 1.054.777 1.054.012 0-.322-.348-.772-.774-1-1.006-.538-1.093-.525-1.093.168m2.295 1.318c.016.165.199.66.408 1.1.354.745.369.738.21-.101-.094-.495-.008-.799.191-.676.2.123.363.462.363.752s.27.751.6 1.025c.491.408.6.38.6-.151 0-.357-.159-.649-.353-.649-.195 0-.448-.36-.563-.8-.192-.733-1.521-1.19-1.456-.5m2.657 2.224c-.223.58 1.077 1.981 1.472 1.586.123-.124.338.071.476.433.355.924.935.822.689-.121-.112-.427-.59-.832-1.063-.9-.472-.067-.859-.332-.859-.589 0-.745-.481-1.02-.715-.409m3.115 1.817c.093.517.379 1.192.634 1.5.58.699 2.098.747 1.859.059-.096-.275-.552-.487-1.014-.47-.461.016-.764-.093-.672-.241.092-.149-.09-.613-.405-1.03-.545-.723-.564-.715-.402.182m-18.994 2.464c-.003.333.399.785.894 1.004.531.235.852.684.782 1.095-.064.383.071.696.3.696.534 0 .525-.247-.062-1.872-.477-1.318-1.114-1.787-1.126-.828-.004.333-.136.3-.394-.1-.344-.532-.388-.532-.394.005m23.394.395c.136.22.517.4.847.4.33 0 .489-.18.353-.4-.136-.22-.517-.4-.847-.4-.33 0-.489.18-.353.4m-.2.837c0 .2.135.377.3.394.165.016.616.091 1.002.164.386.074.614-.008.506-.182-.295-.477-1.808-.791-1.808-.376m-21.109 2.749c.065.338.506.67.982.738.69.099.823-.037.656-.672-.247-.948-1.817-1.01-1.638-.066m25.748-.323c.157.254.263 1.064.236 1.8l-.051 1.337h2.388c2.672 0 3.095-.541 1.088-1.392-.715-.303-1.613-.924-1.996-1.379-.73-.869-2.172-1.186-1.665-.366M164.406 55.1c.008 1.413.559 2.276 1.278 2 .906-.348.437-3.1-.528-3.1-.56 0-.754.286-.75 1.1m31.032.039c-.128.207.061.49.422.629.884.339 1.09.055.385-.53-.342-.284-.668-.324-.807-.099M198 56.31c0 .417 1.076 1.69 1.429 1.69.318 0 .174-.274-.629-1.2-.44-.507-.8-.728-.8-.49m2.438 2.003c.305.488.787.887 1.071.887.284 0 .619.269.745.598.127.328.372.509.546.402.174-.107.419.074.546.402.338.882 1.013.728.776-.177-.111-.426-.679-.962-1.262-1.191a10.96 10.96 0 0 1-2.018-1.112c-.95-.69-.953-.689-.404.191m-34.432 1.012c.005.712.079.763.394.275.314-.485.389-.428.394.3.009 1.309.678 1.106.716-.217.024-.829-.167-1.132-.739-1.175-.546-.041-.769.197-.765.817m39.594 2.499c0 .385-.191.513-.5.335-.275-.158-.358-.132-.185.059.427.468 2.285.693 2.285.276 0-.425-.86-1.294-1.28-1.294-.176 0-.32.281-.32.624m-38 .576c0 .22.342.742.759 1.159.418.418.882 1.316 1.031 1.996.524 2.384 1.851 1.963 1.462-.464-.122-.763-.269-1.005-.358-.591-.084.385-.33.7-.547.7-.217 0-.291-.168-.164-.372.126-.205.047-.486-.176-.624-.224-.138-.407-.581-.407-.985 0-.403-.285-.843-.633-.976-.853-.328-.967-.309-.967.157m40.71 1.1c-.125.479.004.767.345.767.626 0 .673-.245.194-1.001-.261-.412-.384-.358-.539.234m1.983 1.7c.377.44 1.011.8 1.41.8.601 0 .652-.137.297-.8-.25-.466-.838-.8-1.41-.8-.944 0-.955.031-.297.8m-39.204 2.244c-.48.481-.326.956.311.956.698 0 .778.462.183 1.057-.289.289-.225.576.21.937.344.286.752.395.905.241.153-.153.04-.426-.251-.606-.419-.259-.431-.512-.056-1.212.261-.487.369-.99.241-1.118-.127-.128-.232.012-.232.311 0 .376-.157.328-.511-.156-.281-.384-.641-.569-.8-.41m43.711.49c0 .638.514.801 1.4.444.44-.177.59-.334.333-.35-.257-.015-.752-.137-1.1-.271-.348-.133-.633-.054-.633.177m3.086 1.946c.164.428.32.501.421.198.102-.304.432-.149.893.42.402.496.882.752 1.066.568.184-.184-.091-.679-.61-1.1-1.192-.967-2.125-1.012-1.77-.086m5.578 3.217c-.353.571.275 1.172 1.45 1.391 1.057.196 1.085.163.552-.641-.604-.91-1.659-1.306-2.002-.75M174.8 75.195c-.455.29-.497.548-.171 1.07.647 1.038 1.371 1.115 1.371.145 0-.579-.162-.76-.5-.557-.34.204-.324.084.049-.376.599-.739.202-.889-.749-.282m54.5 1.325c.605.239 1.1.574 1.1.745 0 .17-.27.206-.6.08-.33-.127-.6-.031-.6.212 0 .244.261.443.58.443.319 0 .736.278.926.618.2.357.997.66 1.885.716 1.101.071 1.627.322 1.846.882.169.431.323.604.344.384.02-.22.389.05.819.6.634.81.784.867.791.3.005-.385-.171-.7-.391-.7s-.407-.225-.415-.5c-.016-.57-3.204-2.7-4.041-2.7-.303 0-.776-.36-1.051-.8-.278-.445-.898-.781-1.396-.757-.823.039-.806.078.203.477m-52.893 2.676c-.636.393.106 1.631.942 1.572.283-.019.265-.106-.049-.233-.275-.111-.497-.502-.494-.868.005-.577.059-.586.394-.067.233.361.39.41.394.124.009-.683-.542-.927-1.187-.528m116.15.637c.134.348.243.708.243.8 0 .342 1.162.152 1.397-.228.14-.227-.02-.294-.376-.158-.342.131-.621.053-.621-.175 0-.227.315-.496.7-.596.414-.108.233-.202-.443-.23-.887-.036-1.088.095-.9.587m3.767-.293c.508.143.903.44.878.66-.024.22.235.458.575.529.415.086.543-.073.386-.481-.193-.502.248-.635 2.502-.751 2.071-.106 1.764-.15-1.265-.179-2.2-.021-3.584.079-3.076.222m14.373.13c.273.332.408.692.3.8-.109.108.028.221.303.252.275.03 1.18.155 2.011.277l1.51.222-.84-.84c-1.026-1.026-4.089-1.688-3.284-.711m-22.808.632c-.723.799 1.71 1.04 2.924.29.334-.206.412-.156.225.146-.157.254-.095.462.138.462a.426.426 0 0 0 .424-.424c0-.233.203-.298.452-.144.274.169.38.061.269-.276-.3-.908-3.623-.948-4.432-.054m6.911.013c0 .173.36.342.8.375.44.033.8-.109.8-.315 0-.206-.36-.375-.8-.375-.44 0-.8.142-.8.315m-16 .848c0 .199.388.261.863.137.666-.175.785-.098.523.337-.284.471-.234.478.306.04.387-.314 1.298-.458 2.277-.36.897.09 1.631.01 1.631-.177s-1.26-.34-2.8-.34c-1.54 0-2.8.163-2.8.363m-42.122.859c-.16.611.003.778.759.778 1.157 0 1.239-.435.204-1.082-.639-.399-.791-.351-.963.304m35.622-.39c-1.364.794-.662 1.124 2.4 1.126 3.49.002 4.9-.247 4.9-.868 0-.233-.118-.305-.263-.16-.145.145-.505.063-.8-.182-.4-.332-.71-.306-1.214.103-.46.373-.58.389-.376.049.191-.318.064-.5-.347-.5-.356 0-.548.161-.426.358.122.197-.038.458-.356.58-.385.147-.503.028-.355-.358.267-.696-2.037-.804-3.163-.148m45.143-.102c-.354.573.463 1.003 2.001 1.054 1.121.037 1.241-.052.91-.671-.441-.823-1.394-.944-1.69-.213-.158.389-.288.379-.584-.043-.246-.351-.471-.396-.637-.127m-139.843.879c0 .131.283.587.63 1.015.346.427.523.563.393.304-.13-.26-.053-.586.17-.724.687-.424.452-.958-.393-.894-.44.033-.8.168-.8.299m61.078.665c-.148.24-.046.611.226.826.702.553 1.896.463 1.896-.143 0-.746-.839-1.141-1.196-.563-.241.389-.345.383-.482-.029-.119-.356-.262-.385-.444-.091m21.622.158c-1.373.8-.649 1.064 2.968 1.082 2.018.01 3.443-.122 3.166-.293-.276-.171-.442-.452-.368-.626.074-.173-.291-.38-.81-.459-.73-.112-.889.001-.7.493.157.41.066.572-.256.454-.275-.1-.455-.385-.4-.633.126-.567-2.633-.581-3.6-.018m62.99.039c.233.697 1.423 1.35 1.79.982.175-.175-.03-.574-.457-.886-.944-.69-1.545-.733-1.333-.096m-82.348 1.622c-.17.275-.074.312.264.103.379-.234.461-.148.289.302-.213.554.498.635 5.965.682 4.167.035 6.124-.083 5.953-.359-.156-.252.007-.311.421-.153.471.181.618.089.487-.304-.239-.717-12.944-.974-13.379-.271M328 84.824c0 .233.225.288.5.123.34-.204.324-.084-.049.376-.497.613-.408.677.943.677 1.196 0 1.443-.125 1.249-.633-.134-.348-.243-.708-.243-.8 0-.092-.54-.167-1.2-.167-.66 0-1.2.191-1.2.424m5.951 1.537c.303.192.446.52.317.729-.131.212.465.408 1.349.442 1.697.067 2.067-.445.809-1.118-.968-.518-3.288-.568-2.475-.053m-152.719 2.925c-.018.377.31.869.729 1.093.646.346.729.289.554-.381-.113-.434-.35-.7-.526-.591-.177.109-.412-.028-.523-.305-.125-.308-.215-.237-.234.184m1.574 2.585c-.008 1.145 1.12 2.242 2.054 1.998.407-.107.74-.031.74.168 0 .2-.27.363-.6.363-.701 0-.798.631-.157 1.026.315.195.3.362-.052.579-.598.37-.167 1.195.625 1.195.436 0 .552-.558.496-2.399-.049-1.597-.207-2.266-.473-2-.547.547-1.06.502-.939-.083.055-.265-.132-.49-.415-.5-.283-.01-.685-.288-.893-.618-.307-.486-.381-.434-.386.271M339.8 94.4c.136.22-.078.413-.476.428-.642.025-.634.064.076.346.477.189.91.145 1.074-.109.322-.502.047-1.065-.521-1.065-.22 0-.289.18-.153.4m-10.066 1.518c-4.341.208-4.223 1.282.141 1.282 3.296 0 7.089-1.068 4.325-1.218a27.54 27.54 0 0 1-1.4-.113c-.33-.038-1.71-.016-3.066.049M322.2 97.2l-1.2.305 1.3.048c.715.026 1.3-.133 1.3-.353 0-.22-.045-.379-.1-.353-.055.026-.64.185-1.3.353m-5.1.316c-3.171.104-3.5.189-3.5.9 0 1.308 6.473 1.014 6.984-.318.295-.77.609-.718-3.484-.582m-6.102.88c.242.392.06.47-.739.317-.582-.111-1.059-.047-1.059.142 0 .19.54.345 1.2.345 1.216 0 1.583-.516.738-1.038-.304-.188-.352-.109-.14.234m-4.822 1.005c-.764.592-.764.597.024.332l.8-.269-.8.926-.8.926.9-.472c.495-.26.9-.826.9-1.258 0-.944-.035-.95-1.024-.185m-.689 3.299c-.089.165-.027.75.136 1.3.278.935.3.915.337-.3.039-1.254-.138-1.627-.473-1m-117.087.857c0 .197.285.467.633.6.978.376 1.075.294.424-.357-.68-.68-1.057-.767-1.057-.243m.8 1.891c0 .28.33.391.8.268.44-.115.8-.357.8-.538 0-.18-.36-.301-.8-.268-.44.033-.8.275-.8.538m.982.922c.123.199-.003.453-.28.564-.321.13-.265.214.153.234.432.021.752.545.937 1.531.276 1.47.761 2.083 1.657 2.095.29.004.361-.428.2-1.214-.137-.671-.376-1.166-.532-1.1-.361.153-1.5-1.384-1.284-1.734.089-.144-.116-.369-.456-.5-.34-.13-.518-.074-.395.124m114.803 1.205c.127.207-.087.561-.477.788-.389.227-.519.418-.288.425.49.014 1.38-.803 1.38-1.268 0-.176-.191-.32-.424-.32-.233 0-.319.169-.191.375m-2.312 4.178c-.788 2.054-.195 4.409.847 3.367.642-.642.607-1.12-.083-1.12-.364 0-.489-.28-.354-.796.114-.437.367-.696.562-.576.195.121.355-.072.355-.428s-.165-.545-.366-.421c-.201.124-.438.009-.526-.256-.099-.297-.267-.208-.435.23m-109.798 1.342c.201 1.043 1.525 1.159 1.525.134 0-.572-.257-.829-.829-.829-.573 0-.788.215-.696.695m1.525 2.705c0 .55.075 1 .167 1 .092 0 .452.109.8.243.454.174.633.004.633-.6 0-.464-.174-.843-.387-.843-.214 0-.273.3-.132.666.175.457.104.572-.229.366-.267-.165-.375-.644-.241-1.066.136-.428.055-.766-.184-.766-.235 0-.427.45-.427 1m1.704 3.231c.146.944.638 1.769 1.053 1.769.586 0 .309-1.197-.432-1.868-.698-.631-.734-.626-.621.099m1.502 3.669c.018.877.782 1.459.788.6.003-.495-.174-.9-.394-.9-.22 0-.397.135-.394.3m1.6 2.426c-.011.936.804 2.074 1.485 2.074.568 0 .551-.09-.115-.63-.427-.346-.562-.522-.3-.391.297.149.453-.066.415-.57-.066-.868-.687-1.143-.697-.309-.004.333-.136.3-.394-.1-.284-.44-.389-.46-.394-.074m100.494 2.086c-.495.199-.9.669-.9 1.045 0 .575.158.534 1-.257.55-.517 1-.998 1-1.07 0-.16.003-.161-1.1.282m-98.27 2.34c-.262.423.881 1.47 1.227 1.124.131-.131-.042-.518-.384-.86-.342-.342-.721-.461-.843-.264m92.667 1.424c.163.193.096.592-.149.887-.294.353-.304.537-.03.537.926 0 1.68-.523 1.65-1.143-.021-.44-.1-.487-.238-.14-.168.416-.336.419-.869.013-.364-.277-.528-.346-.364-.154m-89.691 4.91c-.003.492.363 1.084.824 1.33.74.396.785.365.414-.286-1.03-1.804-1.231-1.974-1.238-1.044m73.775 5.284c.126.203-.047.455-.384.559-.474.147-.46.176.062.13.753-.066 1.27-1.059.551-1.059-.252 0-.354.166-.229.37M204.6 143.2c-.136.22-.012.403.276.406.383.005.364.108-.071.382-.472.299-.416.363.269.312.563-.043.845-.315.81-.783-.058-.771-.878-.973-1.284-.317m68.067 1.067c-.497.496-.271 1.309.302 1.09.762-.293 1.142-1.357.485-1.357-.286 0-.641.12-.787.267M268 146.8c-.507.44-.725.8-.485.8.241 0 .551-.183.689-.407.138-.223.392-.319.565-.212.172.106.655-.065 1.072-.381.737-.558.735-.575-.08-.587-.461-.007-1.254.347-1.761.787m-66.61 2.03c-.144.457-.157.937-.027 1.067.131.13.237.007.237-.273s.252-.413.561-.294c.333.127.642-.098.762-.558.285-1.09-1.186-1.034-1.533.058m62.494 1.17c-.219.837.026.963 1.083.557.884-.339.793-1.357-.12-1.357-.417 0-.847.357-.963.8m-64.441 1.833c-.396 1.032-.285 1.129.489.428.403-.364.882-.527 1.065-.362.182.166.202.076.044-.199-.403-.699-1.308-.624-1.598.133m59.479 1.322c.399.488.33.546-.422.352-.495-.128-.9-.069-.9.13 0 .487 1.072.46 2.026-.051 1.08-.578.966-1.193-.204-1.096-.806.067-.894.184-.5.665M256 154.9c0 .435.216.695.5.6.738-.246.834-1.367.116-1.367-.34 0-.616.343-.616.767m-1.2 1.05c-.659.275-1.01 1.25-.449 1.25.412 0 1.436-1.154 1.206-1.359-.086-.078-.427-.028-.757.109m-57.902.95c-.22.275-.524.905-.676 1.4-.152.496-.624 1.087-1.049 1.314-1.016.544-.998 1.553.027 1.476.559-.042.8-.347.8-1.013 0-.628.283-1.026.834-1.17.631-.165.704-.299.3-.55-.434-.27-.439-.485-.031-1.145.556-.896.424-1.098-.205-.312m54.978.881c-.319.319-.67.492-.779.383-.109-.109-.305.079-.435.419-.13.339-.141.617-.023.617.543 0 1.69-.838 1.901-1.389.295-.767.082-.776-.664-.03m-3.593 2.231c-.372.433-.519.788-.328.788.44 0 1.419-1.159 1.181-1.398-.098-.098-.482.177-.853.61m-2.65.901c.092.062.482.354.867.649.599.459.7.442.7-.113 0-.399-.334-.649-.867-.649-.476 0-.791.051-.7.113m-4.833 3.438c0 .687.184 1.249.41 1.249.464 0 1.326-1.998 1.001-2.322-.116-.116-.211.021-.211.304 0 .413-.119.417-.6.018-.512-.425-.6-.314-.6.751m-49.411.467c-.277.448.482 1.582 1.06 1.582.193 0 .351-.18.351-.4 0-.22-.27-.4-.6-.4-.33 0-.6-.174-.6-.387 0-.214.27-.284.6-.158.33.127.6.031.6-.212 0-.561-1.068-.581-1.411-.025m47.607 1.189c-.138.223-.419.302-.624.176-.204-.127-.372-.029-.372.217s-.15.355-.333.241c-.184-.113-.334.053-.334.37 0 .368.157.447.434.217.238-.198.574-.369.747-.38.486-.03 1.596-1.248 1.138-1.248-.223 0-.518.183-.656.407m-49.194 1.591c-.331.366-.602.876-.602 1.133 0 .605 1.066.61 1.438.007.192-.311.102-.355-.276-.135-.309.179-.154-.123.345-.672.689-.758.762-.998.302-.998-.333 0-.876.3-1.207.665m45.932.257c-.152.41-.469.877-.705 1.039-.268.183-.195.296.195.3 1.245.012 2.133-.966 1.417-1.56-.533-.442-.674-.408-.907.221m-2.453 2.163c-.309.495-.335.782-.072.782.229 0 .523-.278.653-.617.36-.938-.029-1.049-.581-.165m-44.837.426c-.459.494-.773.96-.697 1.036.29.291 1.402-.369 1.631-.968.386-1.006-.031-1.036-.934-.068m-.844 1.909c0 .195-.397.458-.883.584-.485.127-.77.343-.634.48.137.136.669.015 1.183-.269.514-.283 1.204-.471 1.534-.415.533.089.533.055 0-.31-.742-.508-1.2-.534-1.2-.07m39.759 1.047c-.734.556-.73.575.117.587.936.014 1.567-.59.989-.947-.191-.118-.689.044-1.106.36m-3.057 1.467c.205.784.936.82 1.189.059.078-.233-.203-.514-.624-.624-.598-.157-.722-.033-.565.565m-39.46.654c-.294.551-.203.836.386 1.204.698.436.772.367.772-.722 0-1.344-.57-1.581-1.158-.482M220.4 177.8c0 .33-.191.6-.424.6-.233 0-.288-.225-.123-.5.195-.324.057-.302-.393.063-.738.599-.287 1.548.503 1.06.687-.424 1.339-1.823.851-1.823-.228 0-.414.27-.414.6m-37.225.83c-.434.523-.425.693.051.994.916.58 1.174.443 1.174-.624 0-1.144-.466-1.284-1.225-.37m34.492 1.183c-.427.937-.403.981.321.593.459-.245.688-.663.554-1.012-.3-.782-.336-.765-.875.419m-3.392.845c-.719.719-.283 1.774.549 1.329.454-.243.757-.643.675-.889-.187-.561-.86-.803-1.224-.44m-3.172 1.969c-.312.316.38 1.373.899 1.373.168 0 .407-.405.531-.9.212-.839.19-.851-.318-.171-.492.658-.558.664-.68.064-.074-.366-.268-.53-.432-.366m-31.003 1.401c-.495.604-.9 1.302-.9 1.551 0 .25-.392.984-.872 1.632-.479.649-.764 1.286-.633 1.417.437.438 1.703-1.246 1.835-2.44.119-1.078.486-1.569 1.416-1.897.19-.067.28-.401.2-.742-.112-.476-.355-.364-1.046.479m29.607.003c-.582.22-.811.553-.658.954.327.851.841.769 1.369-.219.553-1.033.425-1.165-.711-.735m-5.256 3.529c-.302.191-.482.535-.4.763.085.239.552.088 1.093-.353.942-.768.388-1.095-.693-.41m-3.859 2.064c-.355 1.118-.076 1.322.515.376.271-.434.32-.86.114-.987-.2-.124-.483.152-.629.611m-23.792 0c0 .233-.143.335-.317.227-.174-.107-.342.142-.373.554-.034.441.144.672.432.562.448-.172.838-1.767.433-1.767-.096 0-.175.191-.175.424m-2.125 1.834c-.434.434-.32 1.342.168 1.342.243 0 .339-.27.212-.6-.126-.33-.069-.6.128-.6s.443.274.547.608c.143.462.174.446.129-.067-.064-.733-.743-1.124-1.184-.683m23.058.361c0 .246.233.448.516.448.284 0 .594-.202.688-.448.095-.246-.137-.448-.516-.448-.378 0-.688.202-.688.448m-1.936.844c.108.145-.004.505-.249.8-.34.41-.3.537.168.537.6 0 .713-.969.162-1.388-.153-.117-.19-.094-.081.051m-21.947 1.916c-.397.606-.489 1.073-.243 1.225.219.136.505-.08.634-.479.678-2.086.593-2.247-.391-.746m18.436.212c-.165.632-.032.765.654.661.473-.072.918-.428.989-.791.191-.975-1.386-.849-1.643.13m-2.395 1.375c-.311.311-.89.536-1.285.5-.396-.036-.799.159-.896.434-.097.275.029.5.28.5.252 0 .334-.199.184-.443-.183-.295-.002-.356.542-.184.449.143.94.06 1.091-.185.151-.244.661-.6 1.134-.791.642-.259.689-.353.188-.372-.37-.014-.927.23-1.238.541m-18.544.32c-.148.24.063.678.468.975.702.512.695.539-.139.539-.58 0-.865.237-.844.7.018.418.112.499.233.2.111-.275.377-.5.592-.5.215 0 .279.18.143.4-.136.22-.076.4.134.4.376 0 .866-.923.866-1.633 0-.202-.315-.378-.7-.392-.536-.02-.49-.11.2-.387 1.107-.446 1.132-.6.108-.677-.436-.033-.913.136-1.061.375m-1.447 4.071c-.718.545-1.022 3.443-.361 3.443.186 0 .295-.642.243-1.426-.076-1.128.03-1.378.506-1.196.409.157.53.046.379-.348-.122-.318-.007-.666.255-.773.263-.106.298-.202.078-.213-.22-.01-.715.221-1.1.513m12.053.543c-.026.165-.022.448.01.63.031.181-.107.228-.308.104-.2-.124-.585.041-.855.366s-.65.493-.845.372c-.195-.121-.355.151-.355.604 0 1.017.805 1.091 1.064.099.105-.399.751-.894 1.437-1.1 1.46-.439 1.959-1.375.732-1.375-.458 0-.854.135-.88.3m-11.336 3.272c-.273.442.358.92.727.55.381-.38.31-.922-.12-.922-.207 0-.48.168-.607.372m5.783.415c0 .536.192.714.6.558.33-.127.6-.481.6-.788 0-.306-.27-.557-.6-.557-.33 0-.6.354-.6.787m-3.4.413c-.136.22-.619.4-1.073.4-.688 0-.742.1-.327.6.274.33.994.6 1.6.6 1.214 0 2.325-.952 1.619-1.388-.23-.143-.419-.069-.419.164s-.27.424-.6.424c-.33 0-.6-.191-.6-.424 0-.233.208-.295.462-.138.286.177.353.11.176-.176-.35-.566-.519-.579-.838-.062m80.107 16.8c-.425.68-.933.8-3.389.8-2.48 0-2.951.113-3.318.8-.374.698-.838.8-3.652.8-2.886 0-3.245.083-3.432.8-.188.719-.561.803-3.663.833-4.695.046-5.297.139-5.857.905-.349.477-1.098.662-2.686.662-1.534 0-2.491.225-3.156.741-.68.529-1.909.806-4.283.965-2.132.142-3.57.439-4 .825-.415.373-1.868.692-3.812.838-3.435.257-3.859.395-3.859 1.255 0 .439-.587.576-2.474.576-1.905 0-2.666.18-3.307.782-.697.655-1.47.793-4.737.849-3.278.055-3.986.183-4.415.795-.36.514-1.094.753-2.489.811-1.328.055-2.175.315-2.578.793-.481.569-1.37.739-4.471.853-2.956.108-4.052.304-4.632.829-.551.499-1.467.69-3.328.693-3.112.007-4.369.307-4.369 1.042 0 .304-.315.562-.7.572-3.403.093-5.157.453-5.764 1.183-.517.621-1.154.798-2.873.798-1.858 0-2.249.127-2.463.8-.224.707-5.155 1.243-7.876.855-.151-.021-.388.318-.527.753-.215.68-.611.792-2.791.792-2.899 0-3.806.249-3.806 1.043 0 .418-.672.564-2.7.585-3.829.039-4.997.245-5.393.953-.257.458-1.011.619-2.903.619-1.406 0-2.67.183-2.808.407-.138.223-.447.285-.685.138-.25-.154-.32-.084-.166.166.417.674-.381.953-2.793.975-1.512.013-2.286.197-2.432.577-.166.433-.34.453-.778.088-.445-.369-.756-.289-1.464.375-.689.648-1.474.862-3.37.918-1.887.057-2.513.226-2.644.715-.144.538-.179.529-.218-.059-.061-.928-.669-.888-1.354.09-.462.659-1.06.8-3.611.849-2.597.051-3.094.172-3.294.801-.129.408-.539.718-.911.688-2.413-.195-4.544.14-5.225.821-.589.589-1.522.785-4.399.923-2.717.13-3.779.338-4.152.814-.345.441-1.352.689-3.248.799-2.011.116-2.884.345-3.254.85-.355.486-1.204.732-2.852.826-1.29.073-2.739.157-3.219.186-.491.03-.984.403-1.127.853-.213.67-.605.8-2.413.8-1.702 0-2.244.159-2.56.75-.351.655-1.023.773-5.264.924-3.97.141-4.953.297-5.357.85-.393.538-1.153.676-3.727.676-2.666 0-3.325.128-3.756.726-.288.4-.838.844-1.223.988-.385.143-.7.627-.7 1.073 0 .447-.258.813-.573.813-1.203 0-1.199 2.495.004 2.957.313.12.569.494.569.83 0 .343.347.613.786.613.432 0 .97.344 1.196.765.322.603 1.042.825 3.388 1.045 1.867.175 3.054.474 3.18.803.112.294 1.2.648 2.478.808 1.382.173 2.571.578 3.025 1.032.571.571 1.339.747 3.258.747 2.016 0 2.646.158 3.196.8.503.587 1.18.8 2.545.8 1.221 0 2.016.214 2.315.622.499.683 1.295.901 3.458.947.837.018 1.778.361 2.283.831.532.495 1.411.8 2.311.8.978 0 1.67.267 2.117.815.47.577 1.228.847 2.594.925 1.062.061 2.066.33 2.233.599.282.458 1.415.787 3.532 1.026.492.056 1.237.412 1.656.791.78.706 1.941.968 4.502 1.016 1.111.022 1.504.219 1.666.839.117.447.363.785.547.753 1.957-.344 4.46.111 4.653.847.117.447.363.785.547.753 1.261-.222 2.914.158 3.642.836.517.482 1.411.8 2.248.8 1.034 0 1.454.203 1.641.792.139.435.376.771.527.746 1.067-.175 2.876.65 2.876 1.312 0 .412.36 1.11.8 1.55.44.44.8 1.087.8 1.437 0 .351.35.729.778.841.559.147.813.615.9 1.663.077.918.327 1.459.676 1.459.305 0 .704.405.887.9.183.495.227.9.097.9s-.035.242.21.537c.245.295.327.655.182.8-.145.145.017.263.359.263.396 0 .719.516.889 1.421.146.782.521 1.519.833 1.639.312.119.685.842.828 1.606.143.764.598 1.6 1.011 1.858.479.299.75.93.75 1.745 0 .926.22 1.347.8 1.531.625.199.8.605.8 1.864 0 1.274.167 1.655.8 1.82.562.147.8.546.8 1.34 0 .687.322 1.356.82 1.705.451.316.881 1.091.955 1.723.073.631.154 1.283.179 1.448.025.165.256.255.512.2.257-.055.601.521.766 1.28.165.76.585 1.589.933 1.844.348.254.747 1.034.886 1.733.14.7.586 1.503.99 1.787.413.289.78 1.099.837 1.846.067.883.341 1.394.812 1.518.503.131.71.579.71 1.535 0 .917.257 1.511.8 1.85.44.275.8.816.8 1.203 0 .387.335 1.039.745 1.449.41.41.865 1.383 1.011 2.162.146.778.505 1.507.797 1.62.292.112.634.836.759 1.608.125.773.601 1.778 1.058 2.235.456.456.83 1.291.83 1.854 0 .58.173.916.4.776.22-.136.4-.046.4.2s.18.336.4.2c.232-.144.4.252.4.944 0 1.593.366 2.456 1.043 2.456.306 0 .557.377.557.837 0 .501.321.922.8 1.047.562.147.8.546.8 1.34 0 .644.318 1.355.739 1.653.48.34.817 1.22.961 2.51.122 1.093.431 2.057.687 2.142.255.085.63.591.833 1.123.202.533.672 1.085 1.043 1.228.372.142.991.574 1.377.96.746.746 2.084.641 3.16-.249.33-.273 1.005-.62 1.5-.771.495-.15.9-.461.9-.689 0-.229.45-.95 1-1.604.671-.797 1-1.674 1-2.661 0-1.04.235-1.62.8-1.973.639-.399.8-.933.8-2.65 0-1.813.125-2.182.8-2.359.606-.159.8-.546.8-1.6s.194-1.441.8-1.6c.687-.18.8-.546.8-2.6 0-2.054.113-2.42.8-2.6.453-.118.822-.572.85-1.047.082-1.366.12-1.464.85-2.194.385-.385.727-1.092.761-1.572.033-.479.103-1.051.154-1.271a8.91 8.91 0 0 0 .139-1.1c.025-.385.297-.7.603-.7.667 0 1.043-.86 1.043-2.386 0-.784.24-1.183.8-1.33.677-.177.8-.546.8-2.4 0-1.854.123-2.223.8-2.4.612-.16.8-.546.8-1.643 0-1.001.242-1.585.8-1.934.632-.394.8-.933.8-2.557 0-1.72.131-2.091.8-2.266.515-.135.8-.546.8-1.152 0-.519.375-1.644.834-2.5.74-1.38 1.049-2.501 1.138-4.132.016-.275.277-.5.581-.5.647 0 1.034-1.209 1.042-3.253.004-1.115.192-1.502.805-1.663.625-.163.8-.546.8-1.75 0-1.108.225-1.682.8-2.041.485-.303.8-.933.8-1.6s.315-1.297.8-1.6c.639-.399.8-.933.8-2.65 0-1.753.136-2.185.738-2.343.744-.194 1.539-3.528 1.036-4.341-.121-.198.149-.359.602-.359.57 0 .843-.278.885-.9.033-.495.08-1.14.103-1.434.023-.294.363-.77.756-1.057.415-.303.801-1.245.922-2.245.13-1.077.498-1.927.983-2.266.531-.372.775-1.013.775-2.032 0-1.031.247-1.667.8-2.066.462-.333.8-1.035.8-1.661 0-.734.259-1.167.8-1.339.44-.14.8-.504.8-.809 0-.305.45-1.005 1-1.555s1-1.368 1-1.818c0-.45.258-.818.573-.818.315 0 .687-.36.827-.8.14-.44.517-.8.84-.8.322 0 .696-.288.831-.64.438-1.142 2.194-2.612 3.275-2.742a76.84 76.84 0 0 0 1.354-.172.303.303 0 0 0 .253-.346c-.128-.808.1-1.3.601-1.3.305 0 .853-.456 1.218-1.013.365-.557.835-.906 1.046-.776.21.13.382-.134.382-.587 0-.548.259-.824.773-.824.425 0 .881-.341 1.013-.757.132-.416.595-.849 1.027-.962.433-.114.787-.472.787-.797 0-.325.378-.69.84-.81.462-.121.734-.392.605-.602-.275-.444.711-1.383 1.072-1.021.134.134.353-.19.486-.72.146-.581.558-.988 1.037-1.024.438-.033 1.947-1.196 3.354-2.583 1.408-1.388 3.045-2.884 3.639-3.324.593-.44 1.48-1.205 1.969-1.7.489-.495 1.073-.9 1.297-.9.224 0 .502-.36.617-.8.115-.44.496-.8.847-.8.37 0 .637-.335.637-.8 0-.44.238-.8.528-.8.29 0 .919-.45 1.397-1s1.051-1 1.272-1c.222 0 .403-.27.403-.6 0-.444.493-.609 1.9-.633 3.076-.054 3.792-.205 4.304-.905.349-.477 1.098-.662 2.686-.662 1.56 0 2.485-.222 3.171-.762.791-.622 1.787-.788 5.413-.9 3.465-.108 4.608-.286 5.187-.811.408-.37 1.462-.76 2.341-.866 2.338-.283 2.752-.407 3.197-.961.261-.327 1.585-.509 3.801-.524 5.476-.037 7.539-.353 7.807-1.198.159-.501.699-.771 1.713-.855 1.197-.1 1.505-.3 1.611-1.047.072-.509.387-1.023.7-1.143.741-.285.726-1.105-.031-1.733-.33-.274-.6-.853-.6-1.286 0-.44-.338-.877-.763-.988-.42-.11-.853-.543-.963-.963-.167-.641-.573-.763-2.54-.763-1.908 0-2.434-.148-2.841-.8-.458-.733-.933-.8-5.696-.8-3.888 0-5.199-.126-5.203-.5-.005-.362-.103-.348-.355.051-.409.646-1.239.26-1.239-.575 0-.425-.527-.576-2.017-.576-1.464 0-2.252-.219-2.875-.8-.671-.625-1.412-.8-3.38-.8-2.088 0-2.607.137-3.021.8m5.392 3.378c.604.315 2.404.69 4 .832 1.595.142 3.937.603 5.203 1.024 1.265.421 2.975.767 3.8.768 3.268.005 6.653 2.003 5.443 3.213-.724.724-6.15 2.385-7.79 2.385-.967 0-2.206.337-2.966.807-.799.494-2.522.943-4.447 1.159-1.728.193-3.862.632-4.742.975-.88.343-2.713.632-4.074.641-1.361.01-2.981.212-3.6.448-.619.237-2.099.611-3.289.832-1.189.221-2.559.661-3.043.978-.484.318-2.081.722-3.549.899l-2.669.321-3.14 3.17c-6.078 6.134-11.184 10.97-11.583 10.97-.222 0-1.637 1.236-3.144 2.746-1.508 1.511-3.306 3.039-3.997 3.396-.69.357-1.38 1.056-1.533 1.554-.153.497-.571 1.197-.929 1.555a25.18 25.18 0 0 0-1.339 1.491c-.379.463-1.492 1.043-2.475 1.291-1.373.345-1.872.696-2.157 1.513-.337.965-3.296 4.689-6.222 7.828-1.119 1.201-3.456 5.583-3.457 6.481 0 .452-1.104 2.989-3.978 9.145-.822 1.76-1.81 4.352-2.196 5.761-.386 1.408-1.222 3.522-1.857 4.697-.636 1.175-1.352 2.992-1.591 4.039-.24 1.047-1.234 3.523-2.209 5.503-.975 1.98-1.938 4.41-2.141 5.4-.448 2.195-2.052 6.566-3.597 9.8-1.538 3.221-2.238 4.893-2.841 6.78-.278.868-.999 2.417-1.602 3.441-.604 1.024-1.281 2.653-1.505 3.621-.54 2.331-1.154 4.025-2.596 7.158-.658 1.43-1.512 3.516-1.898 4.635-.385 1.119-.967 2.559-1.292 3.2-.324.641-.719 1.877-.877 2.747-.158.87-.705 2.079-1.215 2.685-.511.607-.991 1.266-1.067 1.465-.841 2.203-3.734-.279-4.374-3.753-.307-1.666-.83-2.859-1.747-3.98-.72-.881-2.037-3.041-2.927-4.8-.891-1.76-1.968-3.409-2.396-3.666-.508-.305-.863-1.101-1.028-2.307-.231-1.683-3.378-7.877-4.289-8.44-.196-.121-.614-1.068-.929-2.103-.817-2.684-2.167-5.569-3.688-7.883-.723-1.1-1.438-2.54-1.59-3.2-.151-.66-.674-1.74-1.162-2.4-.488-.66-1.118-1.92-1.401-2.8-.604-1.881-3.301-6.648-4.167-7.367-.332-.275-.897-1.513-1.257-2.751-.36-1.239-1.069-2.744-1.576-3.346-.507-.603-1.88-3.011-3.053-5.353-1.813-3.621-2.358-4.373-3.643-5.028-.831-.424-1.511-.912-1.511-1.084 0-.312-2.405-3.076-4.886-5.615-2.328-2.383-3.106-4-2.844-5.911.202-1.476.073-1.901-.972-3.223-.663-.837-1.508-2.152-1.878-2.922a85.334 85.334 0 0 0-1.647-3.185c-.535-.981-.973-2.282-.973-2.889 0-1.569-1.56-4.579-2.625-5.065-1.299-.592-1.672-2.672-.71-3.961.963-1.29 5.25-2.758 9.674-3.313 1.836-.231 3.726-.665 4.2-.965.473-.301 2.031-.666 3.461-.813 1.43-.146 3.14-.508 3.8-.803.66-.295 2.1-.665 3.2-.822 1.1-.157 2.18-.419 2.4-.584.22-.164 1.888-.512 3.708-.772 1.819-.261 4.069-.82 5-1.242 1-.454 2.594-.772 3.898-.777 1.427-.006 2.733-.291 3.698-.809.821-.44 1.989-.808 2.595-.818.605-.009 1.821-.278 2.701-.598.88-.319 2.77-.767 4.2-.996 1.43-.228 3.14-.657 3.8-.952.66-.295 2.687-.643 4.503-.774 1.817-.131 3.707-.458 4.2-.728.494-.27 2.157-.71 3.697-.979 3.025-.528 5.736-1.393 7.529-2.4.688-.387 2.798-.761 5.4-.959 2.349-.179 4.991-.603 5.871-.943.88-.34 2.184-.626 2.898-.635.715-.01 2.335-.365 3.6-.789 1.266-.425 3.288-.897 4.494-1.051 1.205-.153 2.893-.526 3.75-.828.857-.303 1.988-.55 2.512-.55.525 0 1.241-.335 1.592-.745.559-.653 1.328-.754 6.241-.821 3.635-.05 6.115-.272 7.059-.631.8-.305 2.534-.759 3.854-1.008 2.51-.475 7.01-1.728 9.4-2.616.77-.287 2.39-.611 3.6-.72 1.21-.109 2.749-.477 3.42-.818.671-.341 2.381-.873 3.8-1.182 1.419-.31 3.03-.753 3.58-.986 1.413-.597 2.822-.561 4.099.105" fill="#99e9b1"/><path d="M187.467 78.267c-.6.6-.21 1.333.709 1.333 1.285 0 1.65-.651.661-1.18-.923-.494-1.019-.505-1.37-.153M303.4 83.771c-3.17 1.126-4.612 1.237-7.183.549-1.655-.443-1.868-.411-2.732.4-.635.597-1.443.881-2.511.883-.866.002-3.734.28-6.374.617-2.64.338-6.509.721-8.598.852-2.331.146-4.151.469-4.712.837-.718.47-2.645.623-9.002.716-4.448.064-8.808.306-9.688.536-.88.231-3.975.424-6.877.429-4.973.009-5.313.061-5.892.887-.338.483-1.186 1.068-1.885 1.3-1.123.374-1.443.854-2.758 4.138-.818 2.043-2.078 4.653-2.801 5.8-.723 1.147-1.56 2.562-1.86 3.145-.3.583-.992 1.352-1.536 1.709-.545.357-.991.897-.991 1.2 0 .787-2.202 4.865-3.552 6.577-.975 1.237-3.663 5.801-6.038 10.254-1.171 2.196-2.15 3.589-3.286 4.677-.629.604-1.124 1.506-1.124 2.052 0 1.166-.966 3.579-2.012 5.025-.417.575-1.229 2.838-1.805 5.029-1.16 4.406-1.636 5.478-3.745 8.431-1.941 2.719-2.318 3.322-3.238 5.186-1.077 2.181-1.585 2.951-3.1 4.701-.715.826-1.3 1.778-1.3 2.117 0 .338-1.147 2.284-2.549 4.323-1.402 2.039-2.685 4.146-2.851 4.683-.635 2.048-1.975 4.223-4.184 6.789-1.961 2.279-2.324 2.955-2.533 4.712-.301 2.544-.849 3.606-2.108 4.085-.648.246-1.312 1.129-1.972 2.622-.548 1.238-1.628 3.113-2.402 4.166-2.007 2.734-2.85 5.202-1.777 5.202.796 0 5.002-2.195 5.381-2.807.112-.182.742-.45 1.4-.594.657-.144 1.195-.404 1.195-.576 0-.708 2.079-2.32 3.566-2.765.876-.263 2.565-1.367 3.761-2.461 1.66-1.517 2.653-2.087 4.224-2.424 1.465-.314 2.5-.869 3.61-1.935 1.405-1.351 3.351-2.553 9.174-5.668 1.059-.566 2.271-1.341 2.695-1.721 2.441-2.191 10.8-7.049 12.129-7.049.437 0 .914-.195 1.061-.433.148-.238 1.013-.781 1.924-1.206 2.013-.94 4.187-2.29 5.231-3.248.426-.391 1.935-1.295 3.353-2.007 1.418-.713 2.845-1.703 3.171-2.201.418-.638.983-.905 1.916-.905 1.039 0 1.608-.331 2.654-1.546.732-.85 1.781-1.683 2.331-1.851 1.739-.531 4.571-2.256 6.569-4.001.643-.562 1.588-1.126 2.1-1.255s.931-.375.931-.547c0-.172.483-.434 1.073-.583.962-.241 2.291-1.116 4.169-2.745.354-.306 1.659-1.054 2.9-1.661 1.242-.608 2.258-1.339 2.258-1.626 0-.287.542-.64 1.204-.786.662-.145 1.434-.475 1.714-.732.281-.257.989-.737 1.573-1.067.585-.33 2.417-1.545 4.072-2.7 1.656-1.155 3.18-2.1 3.387-2.1.208 0 1.289-.72 2.402-1.6 1.145-.905 2.461-1.6 3.029-1.6.97 0 1.609-.466 5.077-3.701.885-.825 2.058-1.613 2.608-1.751.549-.138 1.096-.504 1.215-.814.119-.31.732-.831 1.364-1.157 2.085-1.079 2.332-1.905 2.527-8.469.15-5.065.312-6.305.997-7.647.449-.881.925-2.65 1.057-3.931.131-1.282.413-2.792.625-3.356.212-.565.43-1.645.485-2.4.233-3.214 2.232-4.573 7.264-4.937 5.207-.377 9.736-1.004 11.8-1.633.99-.302 4.23-.622 7.2-.711 7.364-.22 12.243-2.382 7.9-3.5-.935-.24-2.51-.689-3.5-.996-.99-.307-2.7-.725-3.8-.928-4.139-.766-6.703-1.524-8.2-2.424-.33-.199-1.861-.552-3.402-.785-1.542-.233-3.348-.696-4.014-1.028-2.283-1.139-5.29-1.161-8.384-.061" fill="#fb983b"/><path d="M158.629 31.648c.138.223.345.312.459.198.114-.115.477.062.807.392.33.33.702.499.826.374.342-.342-.47-1.01-1.461-1.2-.529-.102-.781-.008-.631.236m3.779 1.972.992.762-1.4.003c-1.049.002-1.25-.094-.8-.385.33-.213.51-.404.4-.424l-.872-.167c-.441-.085-.598.063-.458.43.119.309.036.561-.184.561-.779 0-1.195 5.755-.722 10 .265 2.381.215 2.252.62 1.612.472-.745.88-.351.957.924.032.543.209.895.392.782.182-.113.272.219.2.738-.101.715.037.915.567.826.662-.111.902.489.73 1.818-.057.434.41.655 1.203.57.129-.014.234.24.234.566 0 .406-.129.462-.414.177-.514-.514-1.053-.535-1.053-.042 0 .707 1.261 1.629 2.229 1.629.993 0 1.208.762.987 3.5-.064.791.325 1.087 1.257.956.15-.021.257.515.238 1.191-.019.676.218 1.389.527 1.585.474.3.468.361-.038.389-.377.021-.266.194.3.467.495.239.9.756.9 1.15 0 .393.183.828.407.966.223.138.302.419.176.624-.127.204-.053.372.164.372s.477-.315.577-.7c.189-.723.425 1.119.303 2.365-.036.365.151.798.416.961.324.201.386.114.189-.264-.16-.309-.008-.213.338.214.416.513.63.592.63.234 0-.299.105-.439.232-.311.128.128.012.644-.257 1.148-.362.676-.37.955-.032 1.067.251.084.457.487.457.896 0 .408.172.849.383.979.21.13.281.499.158.82-.125.327.059.693.417.83.353.136.642.599.642 1.031 0 .63.176.728.897.499.829-.263.852-.229.3.45-.346.426-.387.608-.097.434.355-.213.5.044.5.89 0 .655.225 1.281.5 1.392.4.161.4.208 0 .233-.275.018-.5.22-.5.45 0 .229.296.364.659.3.362-.065.735.152.83.482.153.533.125.533-.252 0-.376-.531-.425-.53-.431.012-.003.336.35.868.785 1.182.47.338.625.673.381.823-.251.155-.14.473.286.818.449.365.589.388.395.065-.165-.275-.11-.5.123-.5.535 0 .554.673.028.997-.24.149-.122.662.3 1.306.383.584.651 1.115.596 1.179-.336.395-.007 1.318.469 1.318.313 0 .781.642 1.04 1.427s.572 1.325.696 1.202c.124-.124.548.496.943 1.378.395.883.951 1.557 1.235 1.499.284-.058.472.119.417.394-.12.6.386.654.939.101.266-.266.423.436.469 2.1.101 3.635.477 5.499 1.109 5.499.308 0 .661.611.809 1.4.145.77.436 1.4.647 1.4.211 0 .654.27.984.6.359.359.419.6.148.6-.249 0-.346.172-.216.383.13.21.501.281.824.157.323-.124.587-.026.587.217 0 .244-.27.443-.6.443-.33 0-.6.27-.6.6 0 .33.191.6.424.6.233 0 .313-.178.179-.395-.139-.225.018-.295.364-.162.334.128.585.351.557.495-.105.542.573 1.649.89 1.453.546-.337.853.536.853 2.425 0 1.491.125 1.784.766 1.784.586 0 .767.284.767 1.2 0 .66.171 1.2.381 1.2s.312.543.228 1.206c-.092.734.004 1.11.247.96.219-.136.302-.499.184-.806-.118-.308-.041-.56.173-.56.213 0 .387.602.387 1.338 0 .821.303 1.612.784 2.048.431.39.759.823.727.962-.138.614 1.042 3.605 1.348 3.415.188-.115.355-.065.372.113.133 1.413.769 2.893.769 1.791 0-.814.627-.503.691.342.038.504-.118.719-.415.57-.262-.131-.149.029.251.355.399.326.714.7.7.83-.116 1.025.019 2.323.221 2.122.386-.386 1.352.77 1.352 1.619 0 .419.135.897.3 1.062.165.165.308.51.318.766.01.257.235.422.5.367.265-.055.482.284.482.753 0 .469.38 1.467.843 2.217.669 1.082.827 1.921.763 4.048-.044 1.475-.073 3.024-.063 3.442.012.572-.097.646-.443.3-.253-.253-.649-.457-.88-.454-.231.003-.15.181.18.394.4.258.433.39.1.394-.275.003-.5.356-.5.783 0 .428-.372 1.038-.827 1.357-.456.319-.794.824-.753 1.123.17 1.235-.045 1.908-.549 1.715-.616-.236-1.615 1.672-1.214 2.32.148.24.082.317-.15.174-.533-.329-1.167.437-1.518 1.836-.152.604-.526 1.098-.832 1.098-.307 0-.557.281-.557.624 0 .369.188.507.462.338.288-.178.353-.11.172.183-.159.257-.43.381-.601.275-.172-.106-.556.263-.854.82-.44.822-.445 1.072-.027 1.331.377.232.291.377-.318.536-.575.15-.834.54-.834 1.256 0 .57-.135 1.016-.3.99-.861-.136-1.3.12-1.3.758 0 .391-.36 1.019-.8 1.396-.44.377-.8.976-.8 1.332 0 .384-.223.561-.55.435-.325-.124-.734.193-1 .776-.575 1.263-.566 1.464.05 1.109.275-.158.05.22-.5.841s-.747.982-.438.803c.378-.22.468-.176.276.135-.157.254-.539.462-.849.462-.319 0-.471.243-.349.559.118.308-.173.92-.647 1.361-.823.767-.829.822-.127 1.251.512.313.553.425.134.37-1.652-.218-2.8.932-2.8 2.803 0 1.412-.107 1.709-.48 1.336-.694-.694-1.31-.591-.72.12.344.415.359.6.049.6-.247 0-.449.552-.449 1.227 0 1.045-.119 1.189-.8.973-.603-.191-.8-.072-.8.484 0 .406-.36 1.046-.8 1.423-.44.377-.8 1.125-.8 1.662 0 .626-.288 1.068-.8 1.231-.44.14-.827.602-.86 1.027l-.1 1.261c-.061.739-2.383 3-2.84 2.765-.22-.114-.172.075.106.419.431.532.33.699-.673 1.114-.748.31-1.1.694-.963 1.051.118.31.044.563-.166.563-.21 0-.398.538-.416 1.195-.041 1.428-.399 2.107-.935 1.776-.246-.152-.215-.456.084-.816.383-.462.356-.527-.141-.336-.339.13-.708.584-.819 1.009-.111.425-.039.672.16.549.2-.123.363-.119.363.009 0 .129-.45.405-1 .614-1.147.436-1.34 1.203-.3 1.194.598-.005.613-.063.1-.394s-.498-.389.1-.394c.385-.003.7.159.7.361 0 .71-.49 1.633-.866 1.633-.21 0-.27-.18-.134-.4.426-.69-.118-.438-1.179.546-1.088 1.008-1.437 1.898-.411 1.046.335-.278.725-.39.866-.249.142.141.053.257-.197.257s-.35.272-.222.605c.157.41.048.533-.341.384-.64-.245-.796 2.774-.191 3.711.396.615 2.357.658 2.95.065.313-.313.521-.296.742.062.198.32.142.395-.155.211-.254-.157-.462-.095-.462.138s.27.424.6.424c.33 0 .6-.216.6-.48 0-.355.117-.363.449-.031.621.621 1.551.183 1.551-.732 0-.685 1.327-1.053 2.9-.804.165.026.3-.324.3-.777s.16-.725.355-.604c.195.121.575-.047.845-.372s.655-.49.855-.366c.201.124.315-.013.255-.304-.068-.326.353-.582 1.09-.665.66-.074 1.346-.393 1.525-.708.178-.316.493-.469.7-.342.206.128.375.054.375-.164 0-.219.32-.499.712-.623.391-.124.916-.766 1.165-1.427.25-.661.694-1.198.988-1.195.403.005.387.102-.065.394-.33.213-.403.391-.161.394.241.003.854-.354 1.361-.794.507-.44 1.272-.8 1.699-.8.439 0 .867-.347.985-.8.155-.594.546-.8 1.514-.8 1.332 0 2.432-.812 1.899-1.401-.164-.18-.069-.196.21-.035.278.16.402.459.276.664-.127.204-.04.372.193.372s.424-.251.424-.557c0-.307.281-.665.625-.797s.515-.42.38-.639c-.138-.222.005-.301.323-.179.314.12.683-.079.824-.447.14-.365.507-.567.815-.449.348.134.645-.123.785-.681.148-.591.535-.903 1.136-.917 1.965-.044 2.312-.156 2.312-.744 0-.359.499-.71 1.212-.852.667-.134 1.522-.629 1.9-1.102.395-.493 1.011-.794 1.446-.707.566.114.695-.014.507-.504-.267-.697 1.11-1.481 2.004-1.141.258.098.67-.196.914-.653.245-.457.786-.831 1.203-.831.482 0 .805-.328.886-.9.088-.619.376-.878.922-.829.437.039.929-.141 1.094-.4.225-.353.301-.346.306.029.011.868.757.543 1.377-.6.328-.605.604-.867.613-.581.021.683 1.986-.708 2.003-1.419.007-.275.373-.5.813-.5.44 0 .755-.223.7-.496-.055-.273.495-.673 1.223-.889.958-.285 1.274-.582 1.146-1.074-.119-.455.005-.611.374-.469.303.116 1.273-.164 2.154-.624.882-.459 1.603-.741 1.603-.626 0 .215.664-.284 2.029-1.522.424-.385 1.121-.7 1.548-.7.428 0 1.013-.334 1.3-.743.288-.408.909-.864 1.38-1.013.471-.149.957-.654 1.08-1.123.188-.72.319-.772.843-.338.619.514.857.164.645-.951-.039-.202.214-.131.562.157.543.45.592.423.354-.198-.183-.476-.127-.629.163-.45.243.15.554.089.692-.134.138-.224.601-.407 1.028-.407.602 0 .776-.279.776-1.249 0-1.065.088-1.176.6-.751.575.477.79.205.666-.844-.016-.135.424-.451.978-.703.764-.348.938-.347.719.007-.203.328-.004.39.674.208.53-.141 1.323-.265 1.763-.275.789-.018.79-.026.024-.606-.749-.566-.74-.587.241-.587.56 0 1.507-.453 2.104-1.007.598-.553 1.255-.902 1.461-.774.207.127.483-.049.615-.391.131-.343.4-.524.597-.402.197.122.358.036.358-.191s.585-.571 1.3-.766c.715-.194 1.261-.541 1.213-.771-.047-.23.358-.529.9-.666.646-.162.987-.529.987-1.063 0-.449.169-.712.376-.584s.607-.014.888-.316c.282-.301.878-.454 1.324-.339.675.174.731.11.33-.38-.407-.497-.256-.604.968-.687.797-.053 1.734-.417 2.082-.808.348-.391.947-.827 1.332-.97.385-.143.7-.536.7-.872 0-.353.351-.613.826-.613 1.061 0 2.374-.701 2.374-1.267 0-.831 1.683-1.896 3.404-2.154 1.224-.184 1.781-.479 1.922-1.019.113-.429.55-.76 1.004-.76 1.178 0 2.07-.417 2.07-.968 0-.266.622-.727 1.382-1.025.76-.298 1.289-.692 1.176-.875-.113-.182.139-.332.56-.332.421 0 1.251-.45 1.844-1 .594-.55 1.342-1 1.663-1 .32 0 .891-.36 1.268-.8.377-.44.908-.8 1.182-.8.273 0 .69-.36.925-.8.285-.532.838-.8 1.652-.8.862 0 1.281-.223 1.42-.754.135-.514.697-.835 1.763-1.005.861-.138 1.565-.419 1.565-.624 0-.205.495-.62 1.1-.922.605-.302 1.045-.792.977-1.089-.1-.445-.011-.449.5-.025.377.313.623.35.623.095 0-.232.36-.536.8-.676.44-.14.8-.492.8-.784 0-.291.45-.642 1-.78s1-.523 1-.856c0-.333.315-.721.7-.863.983-.363 1.287-.924 1.294-2.388.003-.7.235-1.51.516-1.8.28-.291.494-.799.475-1.129-.019-.33.083-.78.226-1 .144-.22.304-2.286.356-4.592.053-2.306.257-4.466.452-4.8.254-.432.36-.456.369-.084.03 1.305.812-.143.812-1.505 0-1.022.209-1.613.625-1.773.344-.132.514-.422.377-.643-.137-.222-.094-.403.097-.403.19 0 .383-1.035.429-2.3.118-3.27.244-3.942.895-4.742.522-.64.5-.681-.223-.432-.778.268-.779.26-.041-.312.417-.324.9-.501 1.072-.395.173.107.439-.008.591-.255.198-.319.388-.292.658.093.256.365.441.398.564.101.101-.243.654-.352 1.229-.242.803.154.979.07.757-.358-.159-.307-.019-.227.311.178.661.812 2.259.597 2.259-.304 0-.373 1.229-.579 4.5-.755 4.565-.246 5.494-.369 6.866-.911.536-.212.679-.162.476.166-.409.662.567.584 1.331-.107.467-.424 2.17-.627 6.431-.771 7.16-.24 6.712-.191 5.996-.654-.509-.329-.49-.389.124-.394.398-.003.632-.153.521-.333-.111-.18.418-.552 1.176-.826 1.331-.481 2.154-2.847.992-2.847-.214 0-.284-.27-.158-.6.144-.373-.002-.6-.385-.6-.339 0-.726-.347-.861-.772-.275-.865-1.428-1.196-4.494-1.29-1.207-.037-1.985-.225-1.848-.446.431-.698-.838-1.08-3.616-1.086-2.531-.006-2.706-.06-2.2-.683.373-.46.389-.58.049-.376-.296.178-.511.087-.528-.223-.016-.288-.183-.164-.372.276-.281.653-.349.676-.372.123-.021-.505-.46-.708-1.728-.8-1.154-.084-1.665-.293-1.59-.653.06-.291-.059-.425-.266-.297-.207.127-.436.059-.51-.154-.074-.212-1.236-.458-2.584-.547-2.598-.172-3.509-.492-3.133-1.1.127-.204-.275-.386-.893-.404-1.216-.035-4.424-.295-5.206-.423-.266-.043-.403-.208-.305-.366.257-.417-.68-1.063-1.613-1.113-3.851-.204-11.432.474-11.228 1.005.147.384.011.542-.395.458-.34-.071-.565-.296-.498-.5.167-.514-2.041-1.054-3.16-.773-.506.127-.919.41-.919.63 0 .22.279.292.621.161.356-.136.516-.069.376.158-.37.599-1.047.475-1.654-.305-.51-.655-.528-.651-.276.066.186.529.124.676-.199.476-.257-.159-.468-.099-.468.134a.426.426 0 0 1-.424.424c-.233 0-.295-.208-.138-.462.19-.307.108-.352-.243-.135-.498.308-4.015.574-7.966.604-.974.007-2.044.234-2.377.503-.48.388-.543.387-.307-.007.21-.35.004-.473-.694-.415-.546.045-.904.226-.795.403.11.177.367.218.572.092.204-.127.372-.059.372.15 0 .626-1.538.818-6.76.844-3.037.015-5.17.199-5.5.473-.399.331-.54.33-.54-.001 0-.247-.18-.449-.4-.449-.489 0-.351.889.2 1.294.22.161-.86.277-2.4.257-7.686-.1-10.16.087-9.906.751.184.479.073.571-.445.372-.426-.163-.593-.107-.436.147.171.276-1.786.394-5.953.359-4.989-.043-6.167-.158-6.002-.586.215-.56-1.178-1.541-1.596-1.123-.348.348-1.497-.691-1.234-1.116.121-.195-.315-.355-.967-.355-1.022 0-1.159-.125-.989-.9.146-.667.096-.756-.194-.346-.318.449-.479.391-.855-.311-.255-.476-.62-.768-.813-.649-.192.119-.409-.093-.482-.471-.093-.487-.588-.715-1.704-.786-.916-.059-1.716-.359-1.918-.719-.19-.34-.607-.618-.926-.618-.319 0-.58-.199-.58-.443 0-.243.27-.339.6-.212.33.126.6.075.6-.113 0-.189-.81-.583-1.8-.875-1.174-.347-1.8-.757-1.8-1.18 0-.469-.405-.663-1.471-.703-1.413-.053-2.292-.687-1.879-1.355.108-.175-.184-.319-.65-.319s-.736-.18-.6-.4c.136-.22-.044-.4-.4-.4-.356 0-.536-.18-.4-.4.14-.226-.188-.4-.754-.4-.581 0-1.262-.373-1.623-.889-.419-.598-.627-.696-.635-.3-.009.45-.109.424-.42-.111-.224-.385-.679-.7-1.011-.7-.356 0-.487-.19-.318-.463.197-.319.01-.391-.601-.231-.567.148-.965.028-1.104-.335-.12-.311-.379-.467-.576-.345-.197.122-.358.005-.358-.258 0-.697-1.255-1.541-2.313-1.555-.501-.007-1.013-.276-1.137-.598-.209-.545-1.625-1.256-2.209-1.108-.142.036-.166-.288-.053-.721.17-.651-.009-.795-1.041-.836-1.777-.071-1.942-.108-2.314-.514-.193-.212-.123-.244.167-.077.309.178.5.05.5-.335 0-.401-.362-.624-1.013-.624-.556 0-1.115-.269-1.241-.598-.127-.328-.372-.509-.546-.402-.174.107-.419-.074-.546-.402-.126-.329-.505-.598-.841-.598-.337 0-.613-.189-.613-.421 0-.231-.551-.613-1.225-.847-.809-.283-1.15-.621-1.004-1 .122-.319.044-.465-.176-.329-.217.134-.395.054-.395-.179 0-.233-.345-.424-.767-.424-1.135 0-2.06-.433-1.805-.845.122-.198-.104-.483-.503-.631-.399-.149-.96-.598-1.248-.998-.424-.589-1.081-.726-3.488-.726h-2.965l.051-1.337c.058-1.541-.286-2.263-1.079-2.263-.306 0-.733-.315-.948-.7-.215-.385-.764-.722-1.22-.75-1.454-.088-1.628-.143-1.628-.513 0-.199.405-.272.9-.163.745.165.707.093-.217-.422-.614-.342-1.744-.74-2.51-.883-1.339-.252-2.743-1.57-2.35-2.207.105-.168-.021-.437-.279-.597-.325-.201-.401-.025-.244.572.262 1.005-.294 1.176-.667.206-.138-.362-.353-.557-.476-.433-.327.327-1.705-.948-1.587-1.469.054-.242.021-.298-.074-.124-.24.437-1.296-.494-1.296-1.142 0-.29-.163-.629-.363-.752-.199-.123-.287.181-.195.676.122.662.05.608-.272-.201-.241-.607-.623-.989-.848-.849-.226.139-.834-.265-1.352-.898-.61-.746-.948-.94-.962-.551-.018.533-.063.533-.401 0-.209-.33-.701-.605-1.094-.61-.427-.006-.691-.287-.657-.7.042-.527-.262-.69-1.288-.69-.991 0-1.286-.148-1.127-.564.131-.34-.115-.669-.618-.829-.459-.145-.761-.387-.671-.536.245-.405-.643-1.061-1.544-1.142-.702-.063-.68.015.2.691m26.429 44.8c.989.529.624 1.18-.661 1.18-.919 0-1.309-.733-.709-1.333.351-.352.447-.341 1.37.153M296.4 80.375c0 .206-.36.348-.8.315-.44-.033-.8-.202-.8-.375s.36-.315.8-.315c.44 0 .8.169.8.375m21.6 1.182c0 .567 1.146.854 1.449.364.166-.269.092-.332-.187-.159-.254.157-.462.095-.462-.138s-.18-.424-.4-.424c-.22 0-.4.161-.4.357m-6.216 2.275c.666.332 2.472.795 4.014 1.028 1.541.233 3.072.586 3.402.785 1.497.9 4.061 1.658 8.2 2.424 1.1.203 2.81.621 3.8.928.99.307 2.565.756 3.5.996 4.343 1.118-.536 3.28-7.9 3.5-2.97.089-6.21.409-7.2.711-2.064.629-6.593 1.256-11.8 1.633-5.032.364-7.031 1.723-7.264 4.937-.055.755-.273 1.835-.485 2.4-.212.564-.494 2.074-.625 3.356-.132 1.281-.608 3.05-1.057 3.931-.685 1.342-.847 2.582-.997 7.647-.195 6.564-.442 7.39-2.527 8.469-.632.326-1.245.847-1.364 1.157-.119.31-.666.676-1.215.814-.55.138-1.723.926-2.608 1.751-3.468 3.235-4.107 3.701-5.077 3.701-.568 0-1.884.695-3.029 1.6-1.113.88-2.194 1.6-2.402 1.6-.207 0-1.731.945-3.387 2.1-1.655 1.155-3.487 2.37-4.072 2.7-.584.33-1.292.81-1.573 1.067-.28.257-1.052.587-1.714.732-.662.146-1.204.499-1.204.786 0 .287-1.016 1.018-2.258 1.626-1.241.607-2.546 1.355-2.9 1.661-1.878 1.629-3.207 2.504-4.169 2.745-.59.149-1.073.411-1.073.583s-.419.418-.931.547c-.512.129-1.457.693-2.1 1.255-1.998 1.745-4.83 3.47-6.569 4.001-.55.168-1.599 1.001-2.331 1.851-1.046 1.215-1.615 1.546-2.654 1.546-.933 0-1.498.267-1.916.905-.326.498-1.753 1.488-3.171 2.201-1.418.712-2.927 1.616-3.353 2.007-1.044.958-3.218 2.308-5.231 3.248-.911.425-1.776.968-1.924 1.206-.147.238-.624.433-1.061.433-1.329 0-9.688 4.858-12.129 7.049-.424.38-1.636 1.155-2.695 1.721-5.823 3.115-7.769 4.317-9.174 5.668-1.11 1.066-2.145 1.621-3.61 1.935-1.571.337-2.564.907-4.224 2.424-1.196 1.094-2.885 2.198-3.761 2.461-1.487.445-3.566 2.057-3.566 2.765 0 .172-.538.432-1.195.576-.658.144-1.288.412-1.4.594-.379.612-4.585 2.807-5.381 2.807-1.073 0-.23-2.468 1.777-5.202.774-1.053 1.854-2.928 2.402-4.166.66-1.493 1.324-2.376 1.972-2.622 1.259-.479 1.807-1.541 2.108-4.085.209-1.757.572-2.433 2.533-4.712 2.209-2.566 3.549-4.741 4.184-6.789.166-.537 1.449-2.644 2.851-4.683 1.402-2.039 2.549-3.985 2.549-4.323 0-.339.585-1.291 1.3-2.117 1.515-1.75 2.023-2.52 3.1-4.701.92-1.864 1.297-2.467 3.238-5.186 2.109-2.953 2.585-4.025 3.745-8.431.576-2.191 1.388-4.454 1.805-5.029 1.046-1.446 2.012-3.859 2.012-5.025 0-.546.495-1.448 1.124-2.052 1.136-1.088 2.115-2.481 3.286-4.677 2.375-4.453 5.063-9.017 6.038-10.254 1.35-1.712 3.552-5.79 3.552-6.577 0-.303.446-.843.991-1.2.544-.357 1.236-1.126 1.536-1.709.3-.583 1.137-1.998 1.86-3.145.723-1.147 1.983-3.757 2.801-5.8 1.315-3.284 1.635-3.764 2.758-4.138.699-.232 1.547-.817 1.885-1.3.579-.826.919-.878 5.892-.887 2.902-.005 5.997-.198 6.877-.429.88-.23 5.24-.472 9.688-.536 6.357-.093 8.284-.246 9.002-.716.561-.368 2.381-.691 4.712-.837 2.089-.131 5.958-.514 8.598-.852 2.64-.337 5.508-.615 6.374-.617 1.068-.002 1.876-.286 2.511-.883.864-.811 1.077-.843 2.732-.4 2.571.688 4.013.577 7.183-.549 3.094-1.1 6.101-1.078 8.384.061m-8.696 29.352c-.135.517-.02.816.314.816.29 0 .488-.265.441-.588-.144-.978-.528-1.094-.755-.228M171.6 204.333c0 .521-.476.868-.862.628-.414-.255-.057-.961.486-.961.207 0 .376.15.376.333m92.871 19.135c.071.366.354.741.629.832.735.245.61-.972-.129-1.256-.439-.168-.59-.04-.5.424m-157.395 31.506c-.513.389-.587.634-.255.839.434.268 1.159-.42 1.173-1.113.008-.395-.064-.373-.918.274" fill="#f8b574"/><path d="M255.03 227.081c-1.394.221-3.83 1.983-3.83 2.77 0 .708-1.12 1.667-3.512 3.007-4.52 2.532-.895 4.226 5.528 2.583 1.201-.307 3.34-.688 4.753-.847 1.413-.159 3.811-.817 5.328-1.462 1.752-.746 4.018-1.317 6.211-1.567 1.899-.215 3.512-.451 3.585-.524.432-.433-2.384-1.544-5.769-2.276-2.158-.467-4.194-.988-4.524-1.158-.771-.397-6.243-.768-7.77-.526m-41.463 9.124c-.389.389-1.874.747-3.993.964-1.856.19-4.364.633-5.574.983-1.21.351-2.778.641-3.485.643-.707.003-2.158.349-3.224.769-1.1.434-3.57.883-5.714 1.039-3.549.258-3.839.347-4.797 1.473-.94 1.104-1.354 1.241-5.2 1.727-2.299.29-4.968.813-5.93 1.162-.963.349-2.355.635-3.094.635-.739 0-3.192.609-5.45 1.354-3.143 1.037-5.044 1.404-8.106 1.567-2.234.119-4.64.485-5.449.83-.798.34-2.653.81-4.124 1.045-1.471.235-2.979.586-3.351.781-1.507.789-6.488 2.13-9.876 2.66-6.025.943-11.153 2-12.058 2.485-.472.254-1.912.568-3.2.7-2.243.228-6.754 1.56-7.495 2.214-.912.802 2.255 1.862 6.394 2.139 2.312.155 5.094.546 6.182.869 1.929.573 4.287.977 10.365 1.777 1.644.216 3.714.728 4.6 1.138 2.684 1.24 2.959 1.284 10.539 1.677 4.887.254 7.618.562 8.2.925.48.299 1.71.649 2.734.778 1.023.129 2.913.593 4.2 1.03 1.286.437 4.229 1.07 6.539 1.406 2.31.336 5.1.802 6.2 1.036 4.984 1.06 8.354 1.377 12.605 1.185 1.606-.073 2.622.124 3.741.724 1.526.817 2.009.813 3.771-.033.899-.432 4.083-4.697 4.083-5.469 0-.215.295-1.072.655-1.904.967-2.231 1.18-2.768 2.675-6.714 1.561-4.122 4.057-9.532 5.076-11 .847-1.221 1.994-6.119 1.994-8.515 0-1.486.154-1.827 1-2.212.95-.433 1.45-2.073.633-2.073-.202 0-.61-.093-.907-.207-.297-.114-.819.071-1.159.412" fill="#13e364"/></g></svg>