<?xml version="1.0" standalone="no"?>
<!DOCTYPE svg PUBLIC "-//W3C//DTD SVG 20010904//EN"
 "http://www.w3.org/TR/2001/REC-SVG-20010904/DTD/svg10.dtd">
<svg version="1.0" xmlns="http://www.w3.org/2000/svg"
 width="32px" height="32px" viewBox="0 0 200.000000 200.000000"
 preserveAspectRatio="xMidYMid meet">

<g transform="translate(0.000000,200.000000) scale(0.100000,-0.100000)"
fill="rgb(126, 22, 211)" stroke="none">
<path d="M908 1750 c-310 -37 -571 -266 -645 -565 -19 -81 -23 -294 -5 -337
13 -32 103 -77 207 -104 88 -23 317 -26 420 -5 100 20 232 64 315 106 40 20
74 34 77 31 8 -8 -71 -97 -133 -151 -166 -143 -346 -227 -563 -264 l-105 -17
65 -46 c171 -122 349 -170 546 -147 173 19 318 92 448 223 140 142 205 288
213 483 2 61 1 132 -2 157 -6 39 -12 48 -54 75 -26 16 -83 42 -127 57 -69 23
-101 28 -225 32 -208 6 -361 -26 -558 -118 -97 -46 -97 -36 1 64 171 172 425
300 643 322 35 4 67 10 69 15 9 13 -84 78 -170 119 -126 62 -276 86 -417 70z"/>
<path style="fill: rgb(211, 0, 165);" d="M1456 1459 c-78 -11 -229 -52 -291 -78 -27 -12 -39 -19 -25 -17 72
14 264 26 325 21 119 -11 241 -44 292 -78 84 -57 118 -150 89 -249 l-15 -53
20 25 c10 14 38 63 61 109 35 68 43 96 46 150 5 105 -34 148 -159 171 -61 12
-259 11 -343 -1z"/>
<path style="fill: rgb(211, 0, 165);" d="M111 935 c-57 -90 -81 -156 -81 -221 0 -67 18 -105 64 -133 78 -49
283 -65 447 -36 87 15 315 83 306 91 -2 2 -44 0 -93 -6 -187 -21 -339 -8 -473
42 -69 26 -135 88 -150 143 -15 53 -14 71 8 133 10 28 17 52 15 52 -1 0 -21
-29 -43 -65z"/>
</g>
</svg>
