<svg id="svg" version="1.1" xmlns="http://www.w3.org/2000/svg" xmlns:xlink="http://www.w3.org/1999/xlink" width="400" height="400" viewBox="0, 0, 400,400"><g id="svgg"><path id="path0" d="M257.467 57.067 C 257.320 57.213,257.200 66.393,257.200 77.467 L 257.200 97.600 243.599 97.600 L 229.998 97.600 230.099 200.100 L 230.200 302.600 243.600 302.800 L 257.000 303.000 257.104 323.100 L 257.207 343.200 262.200 343.200 L 267.193 343.200 267.296 323.100 L 267.400 303.000 281.300 302.895 L 295.200 302.790 295.200 200.200 L 295.200 97.610 281.300 97.505 L 267.400 97.400 267.296 77.100 L 267.193 56.800 262.463 56.800 C 259.862 56.800,257.613 56.920,257.467 57.067 M95.200 198.400 L 95.200 299.200 123.798 299.200 L 152.396 299.200 152.498 261.900 L 152.600 224.600 177.100 224.497 L 201.600 224.394 201.600 200.597 L 201.600 176.800 177.633 176.800 C 164.451 176.800,153.381 176.691,153.033 176.557 C 152.473 176.342,152.400 174.751,152.400 162.757 L 152.400 149.200 178.976 149.200 C 194.600 149.200,205.646 149.049,205.779 148.834 C 205.903 148.633,206.629 143.998,207.392 138.534 C 208.155 133.070,208.968 127.340,209.198 125.800 C 209.428 124.260,210.161 119.040,210.826 114.200 C 211.491 109.360,212.270 103.780,212.556 101.800 C 212.842 99.820,213.004 98.065,212.915 97.900 C 212.826 97.735,186.303 97.600,153.976 97.600 L 95.200 97.600 95.200 198.400 " stroke="none" fill="#fcfbfb" fill-rule="evenodd"></path><path id="path1" d="M257.068 56.689 C 256.962 56.860,259.288 56.945,262.237 56.878 L 267.600 56.757 267.600 76.978 C 267.600 95.365,267.659 97.200,268.249 97.200 C 268.746 97.200,268.794 97.075,268.453 96.664 C 268.142 96.290,267.976 90.147,267.904 76.364 L 267.800 56.600 262.531 56.489 C 259.633 56.427,257.174 56.517,257.068 56.689 M154.062 97.500 L 213.524 97.603 213.370 99.301 L 213.216 101.000 213.594 99.600 C 213.802 98.830,213.894 97.975,213.799 97.700 C 213.661 97.302,201.434 97.220,154.113 97.299 L 94.600 97.397 154.062 97.500 M212.585 104.185 C 212.430 105.423,212.390 106.523,212.495 106.629 C 212.601 106.734,212.807 105.801,212.954 104.554 C 213.100 103.307,213.141 102.207,213.043 102.110 C 212.946 102.012,212.739 102.946,212.585 104.185 M211.800 110.000 C 211.645 111.128,211.602 112.136,211.706 112.239 C 211.809 112.342,212.016 111.500,212.167 110.367 C 212.317 109.234,212.359 108.226,212.261 108.128 C 212.163 108.029,211.955 108.872,211.800 110.000 M211.000 115.600 C 210.845 116.728,210.808 117.741,210.918 117.851 C 211.028 117.961,211.245 117.128,211.400 116.000 C 211.555 114.872,211.592 113.859,211.482 113.749 C 211.372 113.639,211.155 114.472,211.000 115.600 M210.182 121.382 C 210.029 122.402,209.994 123.327,210.104 123.437 C 210.214 123.547,210.429 122.802,210.582 121.782 C 210.735 120.761,210.770 119.837,210.660 119.727 C 210.550 119.617,210.335 120.361,210.182 121.382 M209.382 126.982 C 209.229 128.002,209.194 128.927,209.304 129.037 C 209.414 129.147,209.629 128.402,209.782 127.382 C 209.935 126.361,209.970 125.437,209.860 125.327 C 209.750 125.217,209.535 125.961,209.382 126.982 M208.600 132.800 C 208.445 133.928,208.402 134.936,208.506 135.039 C 208.609 135.142,208.816 134.300,208.967 133.167 C 209.117 132.034,209.159 131.026,209.061 130.928 C 208.963 130.829,208.755 131.672,208.600 132.800 M207.785 138.585 C 207.630 139.823,207.590 140.923,207.695 141.029 C 207.801 141.134,208.007 140.201,208.154 138.954 C 208.300 137.707,208.341 136.607,208.243 136.510 C 208.146 136.412,207.939 137.346,207.785 138.585 M207.000 144.400 C 206.845 145.528,206.802 146.536,206.906 146.639 C 207.009 146.742,207.216 145.900,207.367 144.767 C 207.517 143.634,207.559 142.626,207.461 142.528 C 207.363 142.429,207.155 143.272,207.000 144.400 M206.400 148.530 C 206.400 149.141,204.279 149.203,179.900 149.300 L 153.400 149.406 179.913 149.503 C 207.250 149.603,208.093 149.559,206.649 148.116 C 206.512 147.979,206.400 148.165,206.400 148.530 M152.892 162.267 C 152.841 169.344,152.909 175.419,153.043 175.767 C 153.261 176.336,155.754 176.390,177.743 176.305 L 202.200 176.209 177.800 176.005 L 153.400 175.800 153.192 162.600 L 152.984 149.400 152.892 162.267 M202.188 200.400 C 202.188 213.490,202.238 218.845,202.300 212.300 C 202.361 205.755,202.361 195.045,202.300 188.500 C 202.238 181.955,202.188 187.310,202.188 200.400 M177.400 224.795 L 153.000 225.000 152.898 262.178 C 152.818 291.310,152.688 299.424,152.298 299.672 C 151.402 300.241,95.838 300.074,95.230 299.500 C 94.802 299.096,94.735 299.116,94.883 299.600 C 95.112 300.348,151.042 300.727,152.419 299.990 C 153.178 299.583,153.198 298.739,153.298 262.487 L 153.400 225.400 177.700 225.297 C 193.438 225.230,202.000 225.054,202.000 224.797 C 202.000 224.579,201.955 224.443,201.900 224.495 C 201.845 224.548,190.820 224.683,177.400 224.795 M295.200 302.728 C 295.200 303.066,291.522 303.218,281.500 303.295 L 267.800 303.400 267.600 323.400 L 267.400 343.400 262.432 343.513 C 258.725 343.597,257.380 343.495,257.138 343.113 C 256.900 342.738,256.811 342.791,256.806 343.311 C 256.801 343.964,257.252 344.013,262.300 343.911 L 267.800 343.800 267.904 323.700 L 268.007 303.600 281.580 303.600 C 294.400 303.600,296.377 303.444,295.440 302.507 C 295.308 302.375,295.200 302.474,295.200 302.728 M229.545 303.305 C 229.713 303.473,235.959 303.563,243.425 303.505 L 257.000 303.399 243.120 303.200 C 235.485 303.090,229.377 303.137,229.545 303.305 " stroke="none" fill="#f6d05d" fill-rule="evenodd"></path><path id="path2" d="M184.200 2.400 C 184.062 2.623,182.196 2.800,179.976 2.800 C 177.592 2.800,176.000 2.960,176.000 3.200 C 176.000 3.429,174.800 3.600,173.200 3.600 C 171.600 3.600,170.400 3.771,170.400 4.000 C 170.400 4.225,169.275 4.400,167.824 4.400 C 166.407 4.400,165.136 4.580,165.000 4.800 C 164.864 5.020,163.863 5.200,162.776 5.200 C 161.689 5.200,160.800 5.380,160.800 5.600 C 160.800 5.820,160.001 6.000,159.024 6.000 C 158.047 6.000,157.136 6.180,157.000 6.400 C 156.864 6.620,156.043 6.800,155.176 6.800 C 154.309 6.800,153.600 6.980,153.600 7.200 C 153.600 7.420,152.880 7.600,152.000 7.600 C 151.120 7.600,150.400 7.780,150.400 8.000 C 150.400 8.220,149.781 8.400,149.024 8.400 C 148.267 8.400,147.536 8.580,147.400 8.800 C 147.264 9.020,146.533 9.200,145.776 9.200 C 145.019 9.200,144.400 9.380,144.400 9.600 C 144.400 9.820,143.871 10.000,143.224 10.000 C 142.577 10.000,141.936 10.180,141.800 10.400 C 141.664 10.620,141.124 10.800,140.600 10.800 C 140.076 10.800,139.536 10.980,139.400 11.200 C 139.264 11.420,138.724 11.600,138.200 11.600 C 137.676 11.600,137.136 11.780,137.000 12.000 C 136.864 12.220,136.324 12.400,135.800 12.400 C 135.276 12.400,134.736 12.580,134.600 12.800 C 134.464 13.020,133.924 13.200,133.400 13.200 C 132.876 13.200,132.336 13.380,132.200 13.600 C 132.064 13.820,131.513 14.000,130.976 14.000 C 130.439 14.000,130.000 14.180,130.000 14.400 C 130.000 14.620,129.550 14.800,129.000 14.800 C 128.450 14.800,128.000 14.980,128.000 15.200 C 128.000 15.420,127.550 15.600,127.000 15.600 C 126.450 15.600,126.000 15.780,126.000 16.000 C 126.000 16.220,125.640 16.400,125.200 16.400 C 124.760 16.400,124.400 16.580,124.400 16.800 C 124.400 17.020,123.860 17.200,123.200 17.200 C 122.540 17.200,122.000 17.380,122.000 17.600 C 122.000 17.820,121.640 18.000,121.200 18.000 C 120.760 18.000,120.400 18.180,120.400 18.400 C 120.400 18.620,120.040 18.800,119.600 18.800 C 119.160 18.800,118.800 18.980,118.800 19.200 C 118.800 19.420,118.440 19.600,118.000 19.600 C 117.560 19.600,117.200 19.780,117.200 20.000 C 117.200 20.220,116.840 20.400,116.400 20.400 C 115.960 20.400,115.600 20.580,115.600 20.800 C 115.600 21.020,115.060 21.200,114.400 21.200 C 113.740 21.200,113.200 21.380,113.200 21.600 C 113.200 21.820,112.840 22.000,112.400 22.000 C 111.960 22.000,111.600 22.180,111.600 22.400 C 111.600 22.620,111.240 22.800,110.800 22.800 C 110.360 22.800,110.000 22.980,110.000 23.200 C 110.000 23.420,109.680 23.600,109.288 23.600 C 108.897 23.600,108.317 23.960,108.000 24.400 C 107.683 24.840,107.103 25.200,106.712 25.200 C 106.320 25.200,106.000 25.380,106.000 25.600 C 106.000 25.820,105.640 26.000,105.200 26.000 C 104.760 26.000,104.400 26.180,104.400 26.400 C 104.400 26.620,104.040 26.800,103.600 26.800 C 103.160 26.800,102.800 26.980,102.800 27.200 C 102.800 27.420,102.480 27.600,102.088 27.600 C 101.697 27.600,101.117 27.960,100.800 28.400 C 100.483 28.840,99.903 29.200,99.512 29.200 C 99.120 29.200,98.800 29.380,98.800 29.600 C 98.800 29.820,98.480 30.000,98.088 30.000 C 97.697 30.000,97.117 30.360,96.800 30.800 C 96.483 31.240,95.903 31.600,95.512 31.600 C 95.120 31.600,94.800 31.780,94.800 32.000 C 94.800 32.220,94.480 32.400,94.088 32.400 C 93.697 32.400,93.117 32.760,92.800 33.200 C 92.483 33.640,91.943 34.000,91.600 34.000 C 91.257 34.000,90.717 34.360,90.400 34.800 C 90.083 35.240,89.543 35.600,89.200 35.600 C 88.857 35.600,88.317 35.960,88.000 36.400 C 87.683 36.840,87.175 37.200,86.872 37.200 C 86.569 37.200,85.817 37.740,85.200 38.400 C 84.583 39.060,83.863 39.600,83.600 39.600 C 83.337 39.600,82.617 40.140,82.000 40.800 C 81.383 41.460,80.663 42.000,80.400 42.000 C 80.137 42.000,79.417 42.540,78.800 43.200 C 78.183 43.860,77.470 44.400,77.214 44.400 C 76.958 44.400,75.871 45.300,74.800 46.400 C 73.729 47.500,72.652 48.400,72.407 48.400 C 72.162 48.400,70.719 49.660,69.200 51.200 C 67.681 52.740,66.248 54.000,66.016 54.000 C 65.464 54.000,54.000 65.464,54.000 66.016 C 54.000 66.248,52.740 67.681,51.200 69.200 C 49.660 70.719,48.400 72.162,48.400 72.407 C 48.400 72.652,47.500 73.729,46.400 74.800 C 45.300 75.871,44.400 76.958,44.400 77.214 C 44.400 77.470,43.860 78.183,43.200 78.800 C 42.540 79.417,42.000 80.137,42.000 80.400 C 42.000 80.663,41.460 81.383,40.800 82.000 C 40.140 82.617,39.600 83.369,39.600 83.672 C 39.600 83.975,39.240 84.483,38.800 84.800 C 38.360 85.117,38.000 85.625,38.000 85.928 C 38.000 86.231,37.460 86.983,36.800 87.600 C 36.140 88.217,35.600 88.969,35.600 89.272 C 35.600 89.575,35.240 90.083,34.800 90.400 C 34.360 90.717,34.000 91.297,34.000 91.688 C 34.000 92.080,33.820 92.400,33.600 92.400 C 33.380 92.400,33.200 92.720,33.200 93.112 C 33.200 93.503,32.840 94.083,32.400 94.400 C 31.960 94.717,31.600 95.257,31.600 95.600 C 31.600 95.943,31.240 96.483,30.800 96.800 C 30.360 97.117,30.000 97.697,30.000 98.088 C 30.000 98.480,29.820 98.800,29.600 98.800 C 29.380 98.800,29.200 99.120,29.200 99.512 C 29.200 99.903,28.840 100.483,28.400 100.800 C 27.960 101.117,27.600 101.697,27.600 102.088 C 27.600 102.480,27.420 102.800,27.200 102.800 C 26.980 102.800,26.800 103.160,26.800 103.600 C 26.800 104.040,26.620 104.400,26.400 104.400 C 26.180 104.400,26.000 104.760,26.000 105.200 C 26.000 105.640,25.820 106.000,25.600 106.000 C 25.380 106.000,25.200 106.360,25.200 106.800 C 25.200 107.240,25.020 107.600,24.800 107.600 C 24.580 107.600,24.400 107.960,24.400 108.400 C 24.400 108.840,24.220 109.200,24.000 109.200 C 23.780 109.200,23.600 109.560,23.600 110.000 C 23.600 110.440,23.420 110.800,23.200 110.800 C 22.980 110.800,22.800 111.160,22.800 111.600 C 22.800 112.040,22.620 112.400,22.400 112.400 C 22.180 112.400,22.000 112.760,22.000 113.200 C 22.000 113.640,21.820 114.000,21.600 114.000 C 21.380 114.000,21.200 114.360,21.200 114.800 C 21.200 115.240,21.020 115.600,20.800 115.600 C 20.580 115.600,20.400 115.960,20.400 116.400 C 20.400 116.840,20.220 117.200,20.000 117.200 C 19.780 117.200,19.600 117.560,19.600 118.000 C 19.600 118.440,19.420 118.800,19.200 118.800 C 18.980 118.800,18.800 119.160,18.800 119.600 C 18.800 120.040,18.620 120.400,18.400 120.400 C 18.180 120.400,18.000 120.940,18.000 121.600 C 18.000 122.260,17.820 122.800,17.600 122.800 C 17.380 122.800,17.200 123.160,17.200 123.600 C 17.200 124.040,17.020 124.400,16.800 124.400 C 16.580 124.400,16.400 124.760,16.400 125.200 C 16.400 125.640,16.220 126.000,16.000 126.000 C 15.780 126.000,15.600 126.439,15.600 126.976 C 15.600 127.513,15.420 128.064,15.200 128.200 C 14.980 128.336,14.800 128.887,14.800 129.424 C 14.800 129.961,14.620 130.400,14.400 130.400 C 14.180 130.400,14.000 130.850,14.000 131.400 C 14.000 131.950,13.820 132.400,13.600 132.400 C 13.380 132.400,13.200 132.839,13.200 133.376 C 13.200 133.913,13.020 134.464,12.800 134.600 C 12.580 134.736,12.400 135.276,12.400 135.800 C 12.400 136.324,12.220 136.864,12.000 137.000 C 11.780 137.136,11.600 137.676,11.600 138.200 C 11.600 138.724,11.420 139.264,11.200 139.400 C 10.980 139.536,10.800 140.177,10.800 140.824 C 10.800 141.471,10.620 142.000,10.400 142.000 C 10.180 142.000,10.000 142.619,10.000 143.376 C 10.000 144.133,9.820 144.864,9.600 145.000 C 9.380 145.136,9.200 145.777,9.200 146.424 C 9.200 147.071,9.020 147.600,8.800 147.600 C 8.580 147.600,8.400 148.230,8.400 149.000 C 8.400 149.770,8.220 150.400,8.000 150.400 C 7.780 150.400,7.600 151.109,7.600 151.976 C 7.600 152.843,7.420 153.664,7.200 153.800 C 6.980 153.936,6.800 154.847,6.800 155.824 C 6.800 156.801,6.620 157.600,6.400 157.600 C 6.180 157.600,6.000 158.500,6.000 159.600 C 6.000 160.700,5.820 161.600,5.600 161.600 C 5.380 161.600,5.200 162.500,5.200 163.600 C 5.200 164.700,5.020 165.600,4.800 165.600 C 4.578 165.600,4.400 166.659,4.400 167.976 C 4.400 169.283,4.220 170.464,4.000 170.600 C 3.780 170.736,3.600 172.187,3.600 173.824 C 3.600 175.541,3.431 176.800,3.200 176.800 C 2.958 176.800,2.800 178.533,2.800 181.200 C 2.800 183.867,2.642 185.600,2.400 185.600 C 2.141 185.600,2.000 190.667,2.000 200.000 C 2.000 209.333,2.141 214.400,2.400 214.400 C 2.642 214.400,2.800 216.133,2.800 218.800 C 2.800 221.467,2.958 223.200,3.200 223.200 C 3.433 223.200,3.600 224.533,3.600 226.400 C 3.600 228.267,3.767 229.600,4.000 229.600 C 4.222 229.600,4.400 230.667,4.400 232.000 C 4.400 233.333,4.578 234.400,4.800 234.400 C 5.022 234.400,5.200 235.467,5.200 236.800 C 5.200 238.133,5.378 239.200,5.600 239.200 C 5.820 239.200,6.000 240.100,6.000 241.200 C 6.000 242.300,6.180 243.200,6.400 243.200 C 6.620 243.200,6.800 243.920,6.800 244.800 C 6.800 245.680,6.980 246.400,7.200 246.400 C 7.420 246.400,7.600 247.120,7.600 248.000 C 7.600 248.880,7.780 249.600,8.000 249.600 C 8.220 249.600,8.400 250.320,8.400 251.200 C 8.400 252.080,8.580 252.800,8.800 252.800 C 9.020 252.800,9.200 253.419,9.200 254.176 C 9.200 254.933,9.380 255.664,9.600 255.800 C 9.820 255.936,10.000 256.577,10.000 257.224 C 10.000 257.871,10.180 258.400,10.400 258.400 C 10.620 258.400,10.800 258.940,10.800 259.600 C 10.800 260.260,10.980 260.800,11.200 260.800 C 11.420 260.800,11.600 261.340,11.600 262.000 C 11.600 262.660,11.780 263.200,12.000 263.200 C 12.220 263.200,12.400 263.740,12.400 264.400 C 12.400 265.060,12.580 265.600,12.800 265.600 C 13.020 265.600,13.200 266.140,13.200 266.800 C 13.200 267.460,13.380 268.000,13.600 268.000 C 13.820 268.000,14.000 268.540,14.000 269.200 C 14.000 269.860,14.180 270.400,14.400 270.400 C 14.620 270.400,14.800 270.839,14.800 271.376 C 14.800 271.913,14.980 272.464,15.200 272.600 C 15.420 272.736,15.600 273.197,15.600 273.624 C 15.600 274.051,15.780 274.400,16.000 274.400 C 16.220 274.400,16.400 274.850,16.400 275.400 C 16.400 275.950,16.580 276.400,16.800 276.400 C 17.020 276.400,17.200 276.749,17.200 277.176 C 17.200 277.603,17.380 278.064,17.600 278.200 C 17.820 278.336,18.000 278.797,18.000 279.224 C 18.000 279.651,18.180 280.000,18.400 280.000 C 18.620 280.000,18.800 280.450,18.800 281.000 C 18.800 281.550,18.980 282.000,19.200 282.000 C 19.420 282.000,19.600 282.360,19.600 282.800 C 19.600 283.240,19.780 283.600,20.000 283.600 C 20.220 283.600,20.399 283.825,20.398 284.100 C 20.394 284.737,25.285 294.555,25.694 294.733 C 25.862 294.807,26.000 295.212,26.000 295.633 C 26.000 296.055,26.180 296.400,26.400 296.400 C 26.620 296.400,26.800 296.670,26.800 297.000 C 26.800 297.330,26.980 297.600,27.200 297.600 C 27.420 297.600,27.600 297.960,27.600 298.400 C 27.600 298.840,27.780 299.200,28.000 299.200 C 28.220 299.200,28.400 299.470,28.400 299.800 C 28.400 300.130,28.580 300.400,28.800 300.400 C 29.020 300.400,29.200 300.720,29.200 301.112 C 29.200 301.503,29.560 302.083,30.000 302.400 C 30.440 302.717,30.800 303.257,30.800 303.600 C 30.800 303.943,31.160 304.483,31.600 304.800 C 32.040 305.117,32.400 305.697,32.400 306.088 C 32.400 306.480,32.580 306.800,32.800 306.800 C 33.020 306.800,33.200 307.120,33.200 307.512 C 33.200 307.903,33.560 308.483,34.000 308.800 C 34.440 309.117,34.800 309.657,34.800 310.000 C 34.800 310.343,35.160 310.883,35.600 311.200 C 36.040 311.517,36.400 312.025,36.400 312.328 C 36.400 312.631,36.940 313.383,37.600 314.000 C 38.260 314.617,38.800 315.369,38.800 315.672 C 38.800 315.975,39.160 316.483,39.600 316.800 C 40.040 317.117,40.400 317.625,40.400 317.928 C 40.400 318.231,40.940 318.983,41.600 319.600 C 42.260 320.217,42.800 320.933,42.800 321.192 C 42.800 321.451,43.520 322.354,44.400 323.200 C 45.280 324.046,46.000 324.943,46.000 325.195 C 46.000 325.446,46.900 326.529,48.000 327.600 C 49.100 328.671,50.000 329.741,50.000 329.976 C 50.000 330.533,69.463 350.000,70.020 350.000 C 70.253 350.000,71.504 351.080,72.800 352.400 C 74.096 353.720,75.363 354.800,75.617 354.800 C 75.871 354.800,76.583 355.340,77.200 356.000 C 77.817 356.660,78.537 357.200,78.800 357.200 C 79.063 357.200,79.783 357.740,80.400 358.400 C 81.017 359.060,81.737 359.600,82.000 359.600 C 82.263 359.600,82.983 360.140,83.600 360.800 C 84.217 361.460,84.969 362.000,85.272 362.000 C 85.575 362.000,86.083 362.360,86.400 362.800 C 86.717 363.240,87.257 363.600,87.600 363.600 C 87.943 363.600,88.483 363.960,88.800 364.400 C 89.117 364.840,89.657 365.200,90.000 365.200 C 90.343 365.200,90.883 365.560,91.200 366.000 C 91.517 366.440,92.057 366.800,92.400 366.800 C 92.743 366.800,93.283 367.160,93.600 367.600 C 93.917 368.040,94.457 368.400,94.800 368.400 C 95.143 368.400,95.683 368.760,96.000 369.200 C 96.317 369.640,96.897 370.000,97.288 370.000 C 97.680 370.000,98.000 370.180,98.000 370.400 C 98.000 370.620,98.320 370.800,98.712 370.800 C 99.103 370.800,99.683 371.160,100.000 371.600 C 100.317 372.040,100.897 372.400,101.288 372.400 C 101.680 372.400,102.000 372.580,102.000 372.800 C 102.000 373.020,102.360 373.200,102.800 373.200 C 103.240 373.200,103.600 373.380,103.600 373.600 C 103.600 373.820,103.960 374.000,104.400 374.000 C 104.840 374.000,105.200 374.180,105.200 374.400 C 105.200 374.620,105.520 374.800,105.912 374.800 C 106.303 374.800,106.883 375.160,107.200 375.600 C 107.517 376.040,108.097 376.400,108.488 376.400 C 108.880 376.400,109.200 376.580,109.200 376.800 C 109.200 377.020,109.560 377.200,110.000 377.200 C 110.440 377.200,110.800 377.380,110.800 377.600 C 110.800 377.820,111.160 378.000,111.600 378.000 C 112.040 378.000,112.400 378.180,112.400 378.400 C 112.400 378.620,112.760 378.800,113.200 378.800 C 113.640 378.800,114.000 378.980,114.000 379.200 C 114.000 379.420,114.360 379.600,114.800 379.600 C 115.240 379.600,115.600 379.780,115.600 380.000 C 115.600 380.220,116.140 380.400,116.800 380.400 C 117.460 380.400,118.000 380.580,118.000 380.800 C 118.000 381.020,118.360 381.200,118.800 381.200 C 119.240 381.200,119.600 381.380,119.600 381.600 C 119.600 381.820,119.960 382.000,120.400 382.000 C 120.840 382.000,121.200 382.180,121.200 382.400 C 121.200 382.620,121.560 382.800,122.000 382.800 C 122.440 382.800,122.800 382.980,122.800 383.200 C 122.800 383.420,123.340 383.600,124.000 383.600 C 124.660 383.600,125.200 383.780,125.200 384.000 C 125.200 384.220,125.560 384.400,126.000 384.400 C 126.440 384.400,126.800 384.580,126.800 384.800 C 126.800 385.020,127.239 385.200,127.776 385.200 C 128.313 385.200,128.864 385.380,129.000 385.600 C 129.136 385.820,129.687 386.000,130.224 386.000 C 130.761 386.000,131.200 386.180,131.200 386.400 C 131.200 386.620,131.650 386.800,132.200 386.800 C 132.750 386.800,133.200 386.980,133.200 387.200 C 133.200 387.420,133.639 387.600,134.176 387.600 C 134.713 387.600,135.264 387.780,135.400 388.000 C 135.536 388.220,136.076 388.400,136.600 388.400 C 137.124 388.400,137.664 388.580,137.800 388.800 C 137.936 389.020,138.577 389.200,139.224 389.200 C 139.871 389.200,140.400 389.380,140.400 389.600 C 140.400 389.820,141.030 390.000,141.800 390.000 C 142.570 390.000,143.200 390.180,143.200 390.400 C 143.200 390.620,143.729 390.800,144.376 390.800 C 145.023 390.800,145.664 390.980,145.800 391.200 C 145.936 391.420,146.667 391.600,147.424 391.600 C 148.181 391.600,148.800 391.780,148.800 392.000 C 148.800 392.220,149.520 392.400,150.400 392.400 C 151.280 392.400,152.000 392.580,152.000 392.800 C 152.000 393.020,152.720 393.200,153.600 393.200 C 154.480 393.200,155.200 393.380,155.200 393.600 C 155.200 393.820,155.909 394.000,156.776 394.000 C 157.643 394.000,158.464 394.180,158.600 394.400 C 158.736 394.620,159.636 394.800,160.600 394.800 C 161.564 394.800,162.464 394.980,162.600 395.200 C 162.736 395.420,163.827 395.600,165.024 395.600 C 166.221 395.600,167.200 395.780,167.200 396.000 C 167.200 396.229,168.400 396.400,170.000 396.400 C 171.600 396.400,172.800 396.571,172.800 396.800 C 172.800 397.033,174.133 397.200,176.000 397.200 C 177.867 397.200,179.200 397.367,179.200 397.600 C 179.200 397.848,181.333 398.000,184.800 398.000 C 188.267 398.000,190.400 398.152,190.400 398.400 C 190.400 398.656,194.000 398.800,200.400 398.800 C 206.800 398.800,210.400 398.656,210.400 398.400 C 210.400 398.152,212.533 398.000,216.000 398.000 C 219.467 398.000,221.600 397.848,221.600 397.600 C 221.600 397.367,222.933 397.200,224.800 397.200 C 226.667 397.200,228.000 397.033,228.000 396.800 C 228.000 396.571,229.200 396.400,230.800 396.400 C 232.400 396.400,233.600 396.229,233.600 396.000 C 233.600 395.780,234.500 395.600,235.600 395.600 C 236.700 395.600,237.600 395.420,237.600 395.200 C 237.600 394.980,238.579 394.800,239.776 394.800 C 240.973 394.800,242.064 394.620,242.200 394.400 C 242.336 394.180,243.157 394.000,244.024 394.000 C 244.891 394.000,245.600 393.820,245.600 393.600 C 245.600 393.380,246.320 393.200,247.200 393.200 C 248.080 393.200,248.800 393.020,248.800 392.800 C 248.800 392.580,249.520 392.400,250.400 392.400 C 251.280 392.400,252.000 392.220,252.000 392.000 C 252.000 391.780,252.720 391.600,253.600 391.600 C 254.480 391.600,255.200 391.420,255.200 391.200 C 255.200 390.980,255.740 390.800,256.400 390.800 C 257.060 390.800,257.600 390.620,257.600 390.400 C 257.600 390.180,258.140 390.000,258.800 390.000 C 259.460 390.000,260.000 389.820,260.000 389.600 C 260.000 389.380,260.619 389.200,261.376 389.200 C 262.133 389.200,262.864 389.020,263.000 388.800 C 263.136 388.580,263.676 388.400,264.200 388.400 C 264.724 388.400,265.264 388.220,265.400 388.000 C 265.536 387.780,265.997 387.600,266.424 387.600 C 266.851 387.600,267.200 387.420,267.200 387.200 C 267.200 386.980,267.740 386.800,268.400 386.800 C 269.060 386.800,269.600 386.620,269.600 386.400 C 269.600 386.180,270.140 386.000,270.800 386.000 C 271.460 386.000,272.000 385.820,272.000 385.600 C 272.000 385.380,272.360 385.200,272.800 385.200 C 273.240 385.200,273.600 385.020,273.600 384.800 C 273.600 384.580,274.039 384.400,274.576 384.400 C 275.113 384.400,275.664 384.220,275.800 384.000 C 275.936 383.780,276.397 383.600,276.824 383.600 C 277.251 383.600,277.600 383.420,277.600 383.200 C 277.600 382.980,278.050 382.800,278.600 382.800 C 279.150 382.800,279.600 382.620,279.600 382.400 C 279.600 382.180,279.949 382.000,280.376 382.000 C 280.803 382.000,281.264 381.820,281.400 381.600 C 281.536 381.380,281.997 381.200,282.424 381.200 C 282.851 381.200,283.200 381.020,283.200 380.800 C 283.200 380.580,283.560 380.400,284.000 380.400 C 284.440 380.400,284.800 380.220,284.800 380.000 C 284.800 379.780,285.160 379.600,285.600 379.600 C 286.040 379.600,286.400 379.420,286.400 379.200 C 286.400 378.980,286.850 378.800,287.400 378.800 C 287.950 378.800,288.400 378.620,288.400 378.400 C 288.400 378.180,288.760 378.000,289.200 378.000 C 289.640 378.000,290.000 377.820,290.000 377.600 C 290.000 377.380,290.270 377.200,290.600 377.200 C 290.930 377.200,291.200 377.020,291.200 376.800 C 291.200 376.580,291.560 376.400,292.000 376.400 C 292.440 376.400,292.800 376.220,292.800 376.000 C 292.800 375.780,293.160 375.600,293.600 375.600 C 294.040 375.600,294.400 375.420,294.400 375.200 C 294.400 374.980,294.760 374.800,295.200 374.800 C 295.640 374.800,296.000 374.654,296.000 374.475 C 296.000 374.296,296.630 373.902,297.400 373.600 C 298.170 373.298,298.800 372.904,298.800 372.725 C 298.800 372.546,299.070 372.400,299.400 372.400 C 299.730 372.400,300.000 372.220,300.000 372.000 C 300.000 371.780,300.270 371.600,300.600 371.600 C 300.930 371.600,301.200 371.420,301.200 371.200 C 301.200 370.980,301.520 370.800,301.912 370.800 C 302.303 370.800,302.883 370.440,303.200 370.000 C 303.517 369.560,304.097 369.200,304.488 369.200 C 304.880 369.200,305.200 369.020,305.200 368.800 C 305.200 368.580,305.520 368.400,305.912 368.400 C 306.303 368.400,306.883 368.040,307.200 367.600 C 307.517 367.160,308.057 366.800,308.400 366.800 C 308.743 366.800,309.283 366.440,309.600 366.000 C 309.917 365.560,310.457 365.200,310.800 365.200 C 311.143 365.200,311.683 364.840,312.000 364.400 C 312.317 363.960,312.857 363.600,313.200 363.600 C 313.543 363.600,314.083 363.240,314.400 362.800 C 314.717 362.360,315.225 362.000,315.528 362.000 C 315.831 362.000,316.583 361.460,317.200 360.800 C 317.817 360.140,318.537 359.600,318.800 359.600 C 319.063 359.600,319.783 359.060,320.400 358.400 C 321.017 357.740,321.733 357.200,321.992 357.200 C 322.251 357.200,323.154 356.480,324.000 355.600 C 324.846 354.720,325.741 354.000,325.991 354.000 C 326.240 354.000,327.504 352.920,328.800 351.600 C 330.096 350.280,331.347 349.200,331.580 349.200 C 332.135 349.200,349.200 332.135,349.200 331.580 C 349.200 331.347,350.280 330.096,351.600 328.800 C 352.920 327.504,354.000 326.240,354.000 325.991 C 354.000 325.741,354.720 324.846,355.600 324.000 C 356.480 323.154,357.200 322.251,357.200 321.992 C 357.200 321.733,357.740 321.017,358.400 320.400 C 359.060 319.783,359.600 319.063,359.600 318.800 C 359.600 318.537,360.140 317.817,360.800 317.200 C 361.460 316.583,362.000 315.831,362.000 315.528 C 362.000 315.225,362.360 314.717,362.800 314.400 C 363.240 314.083,363.600 313.543,363.600 313.200 C 363.600 312.857,363.960 312.317,364.400 312.000 C 364.840 311.683,365.200 311.143,365.200 310.800 C 365.200 310.457,365.560 309.917,366.000 309.600 C 366.440 309.283,366.800 308.743,366.800 308.400 C 366.800 308.057,367.160 307.517,367.600 307.200 C 368.040 306.883,368.400 306.343,368.400 306.000 C 368.400 305.657,368.760 305.117,369.200 304.800 C 369.640 304.483,370.000 303.903,370.000 303.512 C 370.000 303.120,370.180 302.800,370.400 302.800 C 370.620 302.800,370.800 302.506,370.800 302.147 C 370.800 301.788,371.129 301.203,371.530 300.847 C 371.932 300.491,372.516 299.615,372.828 298.900 C 373.140 298.185,373.531 297.600,373.698 297.600 C 373.864 297.600,374.000 297.240,374.000 296.800 C 374.000 296.360,374.180 296.000,374.400 296.000 C 374.620 296.000,374.800 295.640,374.800 295.200 C 374.800 294.760,374.980 294.400,375.200 294.400 C 375.420 294.400,375.600 294.130,375.600 293.800 C 375.600 293.470,375.780 293.200,376.000 293.200 C 376.220 293.200,376.400 292.840,376.400 292.400 C 376.400 291.960,376.580 291.600,376.800 291.600 C 377.020 291.600,377.200 291.240,377.200 290.800 C 377.200 290.360,377.380 290.000,377.600 290.000 C 377.820 290.000,378.000 289.640,378.000 289.200 C 378.000 288.760,378.180 288.400,378.400 288.400 C 378.620 288.400,378.800 288.040,378.800 287.600 C 378.800 287.160,378.980 286.800,379.200 286.800 C 379.420 286.800,379.600 286.350,379.600 285.800 C 379.600 285.250,379.780 284.800,380.000 284.800 C 380.220 284.800,380.400 284.440,380.400 284.000 C 380.400 283.560,380.580 283.200,380.800 283.200 C 381.020 283.200,381.200 282.840,381.200 282.400 C 381.200 281.960,381.380 281.600,381.600 281.600 C 381.820 281.600,382.000 281.251,382.000 280.824 C 382.000 280.397,382.180 279.936,382.400 279.800 C 382.620 279.664,382.800 279.203,382.800 278.776 C 382.800 278.349,382.980 278.000,383.200 278.000 C 383.420 278.000,383.600 277.550,383.600 277.000 C 383.600 276.450,383.780 276.000,384.000 276.000 C 384.220 276.000,384.400 275.651,384.400 275.224 C 384.400 274.797,384.580 274.336,384.800 274.200 C 385.020 274.064,385.200 273.513,385.200 272.976 C 385.200 272.439,385.380 272.000,385.600 272.000 C 385.820 272.000,386.000 271.460,386.000 270.800 C 386.000 270.140,386.180 269.600,386.400 269.600 C 386.620 269.600,386.800 269.251,386.800 268.824 C 386.800 268.397,386.980 267.936,387.200 267.800 C 387.420 267.664,387.600 267.113,387.600 266.576 C 387.600 266.039,387.780 265.600,388.000 265.600 C 388.220 265.600,388.400 265.060,388.400 264.400 C 388.400 263.740,388.580 263.200,388.800 263.200 C 389.020 263.200,389.200 262.660,389.200 262.000 C 389.200 261.340,389.380 260.800,389.600 260.800 C 389.820 260.800,390.000 260.271,390.000 259.624 C 390.000 258.977,390.180 258.336,390.400 258.200 C 390.620 258.064,390.800 257.333,390.800 256.576 C 390.800 255.819,390.980 255.200,391.200 255.200 C 391.420 255.200,391.600 254.480,391.600 253.600 C 391.600 252.720,391.780 252.000,392.000 252.000 C 392.220 252.000,392.400 251.471,392.400 250.824 C 392.400 250.177,392.580 249.536,392.800 249.400 C 393.020 249.264,393.200 248.544,393.200 247.800 C 393.200 247.056,393.380 246.336,393.600 246.200 C 393.820 246.064,394.000 245.153,394.000 244.176 C 394.000 243.199,394.180 242.400,394.400 242.400 C 394.620 242.400,394.800 241.500,394.800 240.400 C 394.800 239.300,394.980 238.400,395.200 238.400 C 395.422 238.400,395.600 237.333,395.600 236.000 C 395.600 234.667,395.778 233.600,396.000 233.600 C 396.222 233.600,396.400 232.533,396.400 231.200 C 396.400 229.867,396.578 228.800,396.800 228.800 C 397.033 228.800,397.200 227.467,397.200 225.600 C 397.200 223.733,397.367 222.400,397.600 222.400 C 397.844 222.400,398.000 220.533,398.000 217.600 C 398.000 214.667,398.156 212.800,398.400 212.800 C 398.658 212.800,398.800 208.400,398.800 200.400 C 398.800 192.400,398.658 188.000,398.400 188.000 C 398.156 188.000,398.000 186.133,398.000 183.200 C 398.000 180.267,397.844 178.400,397.600 178.400 C 397.367 178.400,397.200 177.067,397.200 175.200 C 397.200 173.333,397.033 172.000,396.800 172.000 C 396.571 172.000,396.400 170.800,396.400 169.200 C 396.400 167.600,396.229 166.400,396.000 166.400 C 395.780 166.400,395.600 165.500,395.600 164.400 C 395.600 163.300,395.420 162.400,395.200 162.400 C 394.980 162.400,394.800 161.500,394.800 160.400 C 394.800 159.300,394.620 158.400,394.400 158.400 C 394.180 158.400,394.000 157.500,394.000 156.400 C 394.000 155.300,393.820 154.400,393.600 154.400 C 393.380 154.400,393.200 153.680,393.200 152.800 C 393.200 151.920,393.020 151.200,392.800 151.200 C 392.580 151.200,392.400 150.581,392.400 149.824 C 392.400 149.067,392.220 148.336,392.000 148.200 C 391.780 148.064,391.600 147.333,391.600 146.576 C 391.600 145.819,391.420 145.200,391.200 145.200 C 390.980 145.200,390.800 144.671,390.800 144.024 C 390.800 143.377,390.620 142.736,390.400 142.600 C 390.180 142.464,390.000 141.924,390.000 141.400 C 390.000 140.876,389.820 140.336,389.600 140.200 C 389.380 140.064,389.200 139.423,389.200 138.776 C 389.200 138.129,389.020 137.600,388.800 137.600 C 388.580 137.600,388.400 137.060,388.400 136.400 C 388.400 135.740,388.220 135.200,388.000 135.200 C 387.780 135.200,387.600 134.761,387.600 134.224 C 387.600 133.687,387.420 133.136,387.200 133.000 C 386.980 132.864,386.800 132.324,386.800 131.800 C 386.800 131.276,386.620 130.736,386.400 130.600 C 386.180 130.464,386.000 129.913,386.000 129.376 C 386.000 128.839,385.820 128.400,385.600 128.400 C 385.380 128.400,385.200 128.051,385.200 127.624 C 385.200 127.197,385.020 126.736,384.800 126.600 C 384.580 126.464,384.400 125.913,384.400 125.376 C 384.400 124.839,384.220 124.400,384.000 124.400 C 383.780 124.400,383.600 124.040,383.600 123.600 C 383.600 123.160,383.420 122.800,383.200 122.800 C 382.980 122.800,382.800 122.440,382.800 122.000 C 382.800 121.560,382.620 121.200,382.400 121.200 C 382.180 121.200,382.000 120.660,382.000 120.000 C 382.000 119.340,381.820 118.800,381.600 118.800 C 381.380 118.800,381.200 118.440,381.200 118.000 C 381.200 117.560,381.020 117.200,380.800 117.200 C 380.580 117.200,380.400 116.840,380.400 116.400 C 380.400 115.960,380.220 115.600,380.000 115.600 C 379.780 115.600,379.600 115.240,379.600 114.800 C 379.600 114.360,379.420 114.000,379.200 114.000 C 378.980 114.000,378.800 113.640,378.800 113.200 C 378.800 112.760,378.620 112.400,378.400 112.400 C 378.180 112.400,378.000 112.040,378.000 111.600 C 378.000 111.160,377.820 110.800,377.600 110.800 C 377.380 110.800,377.200 110.440,377.200 110.000 C 377.200 109.560,377.020 109.200,376.800 109.200 C 376.580 109.200,376.400 108.840,376.400 108.400 C 376.400 107.960,376.220 107.600,376.000 107.600 C 375.780 107.600,375.600 107.240,375.600 106.800 C 375.600 106.360,375.420 106.000,375.200 106.000 C 374.980 106.000,374.800 105.680,374.800 105.288 C 374.800 104.897,374.440 104.317,374.000 104.000 C 373.560 103.683,373.200 103.103,373.200 102.712 C 373.200 102.320,373.020 102.000,372.800 102.000 C 372.580 102.000,372.400 101.640,372.400 101.200 C 372.400 100.760,372.220 100.400,372.000 100.400 C 371.780 100.400,371.600 100.080,371.600 99.688 C 371.600 99.297,371.240 98.717,370.800 98.400 C 370.360 98.083,370.000 97.503,370.000 97.112 C 370.000 96.720,369.820 96.400,369.600 96.400 C 369.380 96.400,369.200 96.080,369.200 95.688 C 369.200 95.297,368.840 94.717,368.400 94.400 C 367.960 94.083,367.600 93.543,367.600 93.200 C 367.600 92.857,367.240 92.317,366.800 92.000 C 366.360 91.683,366.000 91.143,366.000 90.800 C 366.000 90.457,365.640 89.917,365.200 89.600 C 364.760 89.283,364.400 88.743,364.400 88.400 C 364.400 88.057,364.040 87.517,363.600 87.200 C 363.160 86.883,362.800 86.375,362.800 86.072 C 362.800 85.769,362.260 85.017,361.600 84.400 C 360.940 83.783,360.400 83.063,360.400 82.800 C 360.400 82.537,359.860 81.817,359.200 81.200 C 358.540 80.583,358.000 79.863,358.000 79.600 C 358.000 79.337,357.460 78.617,356.800 78.000 C 356.140 77.383,355.600 76.670,355.600 76.414 C 355.600 76.158,354.700 75.071,353.600 74.000 C 352.500 72.929,351.600 71.853,351.600 71.609 C 351.600 71.365,350.160 69.741,348.400 68.000 C 346.640 66.259,345.200 64.644,345.200 64.412 C 345.200 64.180,343.312 62.103,341.005 59.795 C 338.697 57.488,336.620 55.600,336.388 55.600 C 336.156 55.600,334.541 54.160,332.800 52.400 C 331.059 50.640,329.435 49.200,329.191 49.200 C 328.947 49.200,327.871 48.300,326.800 47.200 C 325.729 46.100,324.646 45.200,324.395 45.200 C 324.143 45.200,323.246 44.480,322.400 43.600 C 321.554 42.720,320.651 42.000,320.392 42.000 C 320.133 42.000,319.417 41.460,318.800 40.800 C 318.183 40.140,317.431 39.600,317.128 39.600 C 316.825 39.600,316.317 39.240,316.000 38.800 C 315.683 38.360,315.143 38.000,314.800 38.000 C 314.457 38.000,313.917 37.640,313.600 37.200 C 313.283 36.760,312.743 36.400,312.400 36.400 C 312.057 36.400,311.517 36.040,311.200 35.600 C 310.883 35.160,310.343 34.800,310.000 34.800 C 309.657 34.800,309.117 34.440,308.800 34.000 C 308.483 33.560,307.943 33.200,307.600 33.200 C 307.257 33.200,306.717 32.840,306.400 32.400 C 306.083 31.960,305.543 31.600,305.200 31.600 C 304.857 31.600,304.317 31.240,304.000 30.800 C 303.683 30.360,303.103 30.000,302.712 30.000 C 302.320 30.000,302.000 29.820,302.000 29.600 C 302.000 29.380,301.640 29.200,301.200 29.200 C 300.760 29.200,300.400 29.020,300.400 28.800 C 300.400 28.580,300.130 28.400,299.800 28.400 C 299.470 28.400,299.200 28.220,299.200 28.000 C 299.200 27.780,298.930 27.600,298.600 27.600 C 298.270 27.600,298.000 27.454,298.000 27.275 C 298.000 27.096,297.370 26.702,296.600 26.400 C 295.830 26.098,295.200 25.704,295.200 25.525 C 295.200 25.346,294.840 25.200,294.400 25.200 C 293.960 25.200,293.600 25.020,293.600 24.800 C 293.600 24.580,293.240 24.400,292.800 24.400 C 292.360 24.400,292.000 24.220,292.000 24.000 C 292.000 23.780,291.640 23.600,291.200 23.600 C 290.760 23.600,290.400 23.420,290.400 23.200 C 290.400 22.980,290.040 22.800,289.600 22.800 C 289.160 22.800,288.800 22.620,288.800 22.400 C 288.800 22.180,288.440 22.000,288.000 22.000 C 287.560 22.000,287.200 21.820,287.200 21.600 C 287.200 21.380,286.840 21.200,286.400 21.200 C 285.960 21.200,285.600 21.020,285.600 20.800 C 285.600 20.580,285.240 20.400,284.800 20.400 C 284.360 20.400,284.000 20.220,284.000 20.000 C 284.000 19.780,283.651 19.600,283.224 19.600 C 282.797 19.600,282.336 19.420,282.200 19.200 C 282.064 18.980,281.603 18.800,281.176 18.800 C 280.749 18.800,280.400 18.620,280.400 18.400 C 280.400 18.180,279.950 18.000,279.400 18.000 C 278.850 18.000,278.400 17.820,278.400 17.600 C 278.400 17.380,278.135 17.200,277.812 17.200 C 277.489 17.200,276.583 16.840,275.800 16.400 C 275.017 15.960,274.021 15.600,273.588 15.600 C 273.155 15.600,272.800 15.420,272.800 15.200 C 272.800 14.980,272.260 14.800,271.600 14.800 C 270.940 14.800,270.400 14.620,270.400 14.400 C 270.400 14.180,270.051 14.000,269.624 14.000 C 269.197 14.000,268.736 13.820,268.600 13.600 C 268.464 13.380,267.913 13.200,267.376 13.200 C 266.839 13.200,266.400 13.020,266.400 12.800 C 266.400 12.580,265.860 12.400,265.200 12.400 C 264.540 12.400,264.000 12.220,264.000 12.000 C 264.000 11.780,263.460 11.600,262.800 11.600 C 262.140 11.600,261.600 11.420,261.600 11.200 C 261.600 10.980,261.071 10.800,260.424 10.800 C 259.777 10.800,259.136 10.620,259.000 10.400 C 258.864 10.180,258.133 10.000,257.376 10.000 C 256.619 10.000,256.000 9.820,256.000 9.600 C 256.000 9.380,255.460 9.200,254.800 9.200 C 254.140 9.200,253.600 9.020,253.600 8.800 C 253.600 8.580,252.880 8.400,252.000 8.400 C 251.120 8.400,250.400 8.220,250.400 8.000 C 250.400 7.780,249.680 7.600,248.800 7.600 C 247.920 7.600,247.200 7.420,247.200 7.200 C 247.200 6.980,246.491 6.800,245.624 6.800 C 244.757 6.800,243.936 6.620,243.800 6.400 C 243.664 6.180,242.753 6.000,241.776 6.000 C 240.799 6.000,240.000 5.820,240.000 5.600 C 240.000 5.378,238.933 5.200,237.600 5.200 C 236.267 5.200,235.200 5.022,235.200 4.800 C 235.200 4.578,234.133 4.400,232.800 4.400 C 231.467 4.400,230.400 4.222,230.400 4.000 C 230.400 3.771,229.200 3.600,227.600 3.600 C 226.000 3.600,224.800 3.429,224.800 3.200 C 224.800 2.958,223.067 2.800,220.400 2.800 C 217.733 2.800,216.000 2.642,216.000 2.400 C 216.000 2.140,210.475 2.000,200.224 2.000 C 190.137 2.000,184.358 2.144,184.200 2.400 M268.304 76.495 L 268.407 96.389 281.904 96.495 L 295.400 96.600 295.501 200.100 L 295.602 303.600 282.004 303.600 L 268.407 303.600 268.304 323.900 L 268.200 344.200 262.603 344.312 C 257.690 344.410,256.945 344.340,256.503 343.735 C 256.115 343.204,256.000 338.541,256.000 323.324 L 256.000 303.600 242.400 303.600 L 228.800 303.600 228.800 200.480 C 228.800 120.809,228.909 97.251,229.280 96.880 C 229.634 96.526,233.209 96.400,242.880 96.400 L 256.000 96.400 256.000 76.667 C 256.000 65.813,256.125 56.809,256.277 56.656 C 256.429 56.504,259.174 56.429,262.377 56.490 L 268.200 56.600 268.304 76.495 M214.097 98.400 C 214.041 98.950,213.802 100.750,213.567 102.400 C 212.977 106.545,212.482 110.099,212.038 113.400 C 211.681 116.050,211.180 119.588,210.396 125.000 C 210.205 126.320,209.847 128.930,209.600 130.800 C 209.353 132.670,208.984 135.370,208.780 136.800 C 208.392 139.520,207.833 143.472,207.309 147.200 L 207.000 149.400 180.300 149.503 L 153.600 149.606 153.600 162.600 L 153.600 175.594 177.900 175.697 L 202.200 175.800 202.303 200.374 C 202.384 219.769,202.300 225.016,201.903 225.268 C 201.626 225.444,190.646 225.591,177.502 225.594 L 153.604 225.600 153.502 262.900 L 153.400 300.200 124.244 300.303 C 103.038 300.377,94.940 300.282,94.544 299.954 C 93.961 299.470,93.687 98.047,94.268 97.465 C 94.415 97.318,121.460 97.243,154.368 97.299 L 214.200 97.400 214.097 98.400 " stroke="none" fill="#f4bc0c" fill-rule="evenodd"></path><path id="path3" d="M256.267 56.667 C 256.120 56.813,256.000 65.813,256.000 76.667 L 256.000 96.400 242.880 96.400 C 233.209 96.400,229.634 96.526,229.280 96.880 C 228.734 97.426,228.555 303.600,229.100 303.600 C 229.265 303.600,229.354 257.160,229.298 200.400 L 229.197 97.200 242.549 97.200 C 253.172 97.200,255.992 97.091,256.344 96.668 C 256.808 96.108,257.226 56.400,256.767 56.400 C 256.638 56.400,256.413 56.520,256.267 56.667 M267.907 76.306 C 267.982 90.034,268.151 96.300,268.456 96.668 C 269.011 97.336,295.813 97.467,295.400 96.800 C 295.243 96.546,290.263 96.400,281.776 96.400 L 268.400 96.400 268.400 76.624 C 268.400 65.747,268.265 56.764,268.100 56.662 C 267.935 56.560,267.848 65.400,267.907 76.306 M94.300 97.433 C 93.737 97.996,93.936 299.449,94.500 299.917 C 94.900 300.249,94.980 287.282,94.900 235.266 C 94.729 124.344,94.611 97.123,94.300 97.433 M213.743 98.723 C 213.687 100.181,213.691 100.185,214.088 99.065 C 214.313 98.429,214.338 97.780,214.145 97.588 C 213.952 97.398,213.775 97.899,213.743 98.723 M213.270 101.850 C 213.231 102.538,213.105 103.708,212.989 104.450 C 212.796 105.686,212.815 105.717,213.208 104.814 C 213.444 104.272,213.571 103.102,213.489 102.214 C 213.368 100.902,213.327 100.833,213.270 101.850 M212.464 108.000 C 212.423 108.770,212.289 109.850,212.167 110.400 C 211.976 111.258,212.009 111.300,212.395 110.695 C 212.643 110.307,212.777 109.227,212.693 108.295 C 212.551 106.727,212.534 106.705,212.464 108.000 M211.664 113.800 C 211.623 114.680,211.496 115.850,211.383 116.400 L 211.177 117.400 211.608 116.414 C 211.844 115.872,211.971 114.702,211.889 113.814 L 211.740 112.200 211.664 113.800 M210.864 119.400 C 210.823 120.280,210.696 121.450,210.583 122.000 L 210.377 123.000 210.808 122.014 C 211.044 121.472,211.171 120.302,211.089 119.414 L 210.940 117.800 210.864 119.400 M210.064 125.000 C 210.023 125.880,209.896 127.050,209.783 127.600 L 209.577 128.600 210.008 127.614 C 210.244 127.072,210.371 125.902,210.289 125.014 L 210.140 123.400 210.064 125.000 M209.272 130.450 C 209.232 131.248,209.105 132.508,208.989 133.250 C 208.797 134.485,208.815 134.516,209.208 133.615 C 209.444 133.074,209.571 131.814,209.491 130.815 C 209.362 129.218,209.336 129.175,209.272 130.450 M208.470 136.250 C 208.431 136.938,208.305 138.108,208.189 138.850 C 207.996 140.086,208.015 140.117,208.408 139.214 C 208.644 138.672,208.771 137.502,208.689 136.614 C 208.568 135.302,208.527 135.233,208.470 136.250 M207.664 142.400 C 207.623 143.170,207.489 144.250,207.367 144.800 C 207.176 145.658,207.209 145.700,207.595 145.095 C 207.843 144.707,207.977 143.627,207.893 142.695 C 207.751 141.127,207.734 141.105,207.664 142.400 M206.768 148.100 C 206.649 148.960,206.710 149.450,206.912 149.248 C 207.105 149.055,207.198 148.381,207.119 147.749 C 206.987 146.691,206.959 146.719,206.768 148.100 M153.392 162.600 L 153.400 175.800 177.578 175.903 C 196.287 175.983,201.836 176.119,202.109 176.503 C 202.368 176.868,202.418 176.841,202.297 176.400 C 202.154 175.877,199.039 175.787,177.872 175.697 L 153.611 175.594 153.497 162.497 L 153.383 149.400 153.392 162.600 M153.467 225.467 C 153.320 225.613,153.200 242.344,153.200 262.647 C 153.200 297.370,153.158 299.586,152.500 299.995 C 151.860 300.392,151.869 300.419,152.600 300.309 C 153.393 300.190,153.401 299.843,153.502 262.898 L 153.604 225.606 177.702 225.500 L 201.800 225.394 177.767 225.297 C 164.548 225.244,153.613 225.320,153.467 225.467 M256.000 323.324 C 256.000 338.541,256.115 343.204,256.503 343.735 C 256.945 344.340,257.690 344.410,262.603 344.312 L 268.200 344.200 268.207 323.800 L 268.215 303.400 268.007 323.600 L 267.800 343.800 262.300 343.911 L 256.800 344.023 256.800 323.811 C 256.800 310.604,256.661 303.600,256.400 303.600 C 256.139 303.600,256.000 310.441,256.000 323.324 " stroke="none" fill="#f4c42c" fill-rule="evenodd"></path><path id="path4" d="M257.067 57.067 C 256.920 57.213,256.800 66.303,256.800 77.267 L 256.800 97.200 243.500 97.206 C 236.185 97.209,229.975 97.355,229.699 97.530 C 229.300 97.784,229.219 118.627,229.299 200.424 L 229.400 303.000 243.096 303.105 L 256.793 303.210 256.902 323.005 L 257.011 342.800 257.006 322.900 L 257.000 303.000 243.600 302.800 L 230.200 302.600 230.099 200.100 L 229.998 97.600 243.592 97.600 L 257.186 97.600 257.293 77.200 C 257.352 65.980,257.385 56.800,257.367 56.800 C 257.348 56.800,257.213 56.920,257.067 57.067 M267.395 77.200 L 267.400 97.400 281.299 97.505 L 295.198 97.610 295.300 200.005 L 295.402 302.400 295.401 199.900 L 295.400 97.400 281.504 97.295 L 267.607 97.190 267.498 77.095 L 267.389 57.000 267.395 77.200 M94.899 198.220 C 94.822 276.213,94.909 299.149,95.280 299.520 C 95.835 300.075,151.429 300.223,152.298 299.672 C 152.688 299.424,152.818 291.310,152.898 262.178 L 153.000 225.000 177.400 224.800 L 201.800 224.600 201.903 200.500 L 202.006 176.400 177.646 176.400 C 155.801 176.400,153.261 176.335,153.043 175.767 C 152.531 174.432,152.773 149.678,153.300 149.465 C 153.599 149.344,153.518 149.250,153.100 149.232 C 152.076 149.185,152.010 176.165,153.033 176.557 C 153.381 176.691,164.451 176.800,177.633 176.800 L 201.600 176.800 201.600 200.597 L 201.600 224.394 177.100 224.497 L 152.600 224.600 152.498 261.900 L 152.396 299.200 123.799 299.200 L 95.202 299.200 95.100 198.300 L 94.998 97.400 94.899 198.220 M212.888 98.900 C 212.842 99.615,212.627 101.370,212.409 102.800 C 212.191 104.230,211.473 109.360,210.815 114.200 C 210.156 119.040,209.428 124.260,209.198 125.800 C 208.968 127.340,208.155 133.070,207.392 138.534 C 206.629 143.998,205.903 148.633,205.779 148.834 C 205.654 149.035,205.735 149.200,205.958 149.200 C 206.374 149.200,206.436 148.906,207.190 143.400 C 208.241 135.716,209.178 128.954,209.614 125.900 C 209.826 124.415,210.174 121.985,210.386 120.500 C 210.851 117.243,211.927 109.470,212.808 103.000 C 213.048 101.240,213.320 99.305,213.412 98.700 C 213.504 98.095,213.443 97.600,213.275 97.600 C 213.107 97.600,212.933 98.185,212.888 98.900 M267.467 303.067 C 267.320 303.213,267.200 312.298,267.200 323.255 L 267.200 343.176 262.199 343.307 L 257.199 343.437 262.299 343.419 L 267.400 343.400 267.600 323.400 L 267.800 303.400 281.600 303.192 L 295.400 302.984 281.567 302.892 C 273.958 302.841,267.613 302.920,267.467 303.067 " stroke="none" fill="#fcecb4" fill-rule="evenodd"></path></g></svg>