<?xml version="1.0" standalone="no"?>
<!DOCTYPE svg PUBLIC "-//W3C//DTD SVG 20010904//EN"
 "http://www.w3.org/TR/2001/REC-SVG-20010904/DTD/svg10.dtd">
<svg version="1.0" xmlns="http://www.w3.org/2000/svg"
 width="1282.000000pt" height="1860.000000pt" viewBox="0 0 1282.000000 1860.000000"
 preserveAspectRatio="xMidYMid meet">

<g transform="translate(0.000000,1860.000000) scale(0.100000,-0.100000)"
fill="#000000" stroke="none">
<path d="M3490 15880 c-22 -15 -9 -21 169 -81 193 -64 270 -93 341 -126 30
-14 86 -37 125 -50 93 -34 258 -104 370 -158 50 -24 137 -66 195 -94 184 -89
517 -271 629 -345 427 -282 461 -305 645 -451 281 -223 709 -637 846 -819 14
-19 57 -71 95 -117 78 -93 226 -289 270 -359 16 -25 56 -88 91 -140 67 -103
153 -250 201 -345 17 -33 53 -100 80 -150 27 -49 59 -117 72 -150 55 -138 76
-165 126 -165 39 0 50 21 40 73 -9 47 -62 215 -84 267 -11 25 -29 70 -41 100
-12 30 -32 78 -44 105 -13 28 -29 66 -36 85 -8 19 -51 110 -97 202 -94 190
-161 303 -332 563 -223 339 -583 735 -956 1051 -153 128 -532 395 -665 467
-25 13 -85 45 -135 72 -49 26 -115 62 -145 79 -30 17 -80 42 -110 55 -30 13
-66 29 -80 36 -136 69 -566 217 -760 261 -36 9 -87 22 -115 29 -105 30 -388
78 -555 95 -47 4 -94 11 -105 14 -11 4 -27 2 -35 -4z"/>
<path d="M2328 14895 c-4 -4 -38 -7 -75 -6 -114 2 -442 -36 -573 -65 -242 -55
-340 -86 -340 -104 0 -13 105 -20 320 -21 254 -1 490 -14 835 -48 109 -10 368
-53 525 -86 63 -14 156 -31 206 -40 51 -8 105 -19 120 -25 16 -6 79 -24 139
-40 109 -28 437 -122 485 -140 14 -4 61 -22 105 -39 44 -16 118 -44 165 -61
219 -81 582 -251 790 -369 47 -27 108 -61 135 -76 229 -128 646 -422 830 -585
236 -209 304 -271 432 -395 80 -77 163 -162 185 -190 22 -27 69 -81 104 -120
82 -91 154 -177 177 -209 27 -39 72 -59 97 -44 27 17 25 32 -8 81 -16 23 -42
62 -58 87 -16 25 -53 79 -84 120 -49 68 -83 110 -215 269 -22 26 -65 79 -96
117 -94 116 -500 515 -645 636 -408 336 -789 584 -1209 787 -50 24 -115 56
-145 71 -54 27 -209 90 -365 148 -44 17 -111 43 -150 58 -88 34 -245 84 -265
84 -8 0 -51 12 -95 26 -44 14 -102 29 -130 34 -27 5 -84 19 -125 30 -89 24
-333 64 -485 79 -308 30 -576 47 -587 36z"/>
<path d="M7260 12155 c-127 -23 -277 -83 -371 -147 -212 -145 -290 -221 -415
-403 -157 -229 -235 -579 -195 -873 5 -37 15 -107 22 -157 20 -154 95 -426
140 -507 5 -10 9 -23 9 -29 0 -27 144 -295 220 -408 135 -202 328 -402 548
-568 132 -100 188 -118 213 -71 13 24 7 222 -10 323 -15 92 -39 227 -52 290
-8 43 -7 53 9 75 22 30 73 38 105 17 16 -10 25 -32 35 -83 14 -74 60 -216 97
-301 23 -52 73 -127 144 -216 70 -89 271 -212 416 -255 214 -64 272 -73 482
-79 214 -6 324 3 493 39 101 21 206 52 255 73 17 7 55 22 87 34 169 61 411
220 546 360 42 43 97 116 129 169 84 141 111 241 120 447 13 318 -109 636
-372 964 -70 88 -183 189 -294 264 -31 21 -65 50 -76 66 -75 106 -211 249
-355 371 -57 48 -127 100 -134 100 -3 0 -33 20 -68 44 -65 45 -159 96 -178 96
-27 0 -7 -28 125 -170 93 -101 227 -282 287 -388 122 -215 173 -343 218 -542
7 -30 16 -68 21 -84 13 -41 11 -288 -2 -360 -17 -96 -30 -136 -70 -217 -58
-117 -139 -204 -245 -265 -140 -79 -144 -80 -396 -114 -79 -10 -99 -8 -338 26
-189 28 -421 114 -565 211 -149 100 -299 222 -359 293 -12 13 -46 52 -77 85
-176 190 -328 449 -408 700 -23 72 -47 144 -52 160 -15 47 -23 342 -11 400 6
28 14 64 17 80 4 17 15 49 26 72 10 24 19 47 19 51 0 21 87 142 143 200 75 77
127 114 229 164 43 20 78 44 78 51 0 29 -69 33 -190 12z"/>
<path d="M8380 12142 c0 -5 42 -24 93 -42 198 -71 407 -167 570 -263 68 -40
95 -43 63 -8 -38 41 -178 133 -291 189 -112 56 -246 102 -340 117 -22 3 -52 9
-67 11 -16 3 -28 1 -28 -4z"/>
<path d="M7700 12040 c-14 -4 -40 -8 -58 -9 -19 -1 -80 -19 -138 -42 -195 -76
-335 -211 -397 -383 -25 -68 -31 -100 -35 -203 -2 -68 1 -149 7 -185 19 -108
89 -308 153 -436 86 -172 104 -181 112 -57 9 137 53 241 133 317 84 78 165
108 293 108 154 0 292 -64 426 -197 93 -92 157 -189 195 -296 25 -72 29 -96
29 -198 0 -166 -26 -247 -109 -332 -57 -59 -143 -101 -245 -118 -60 -10 -76
-16 -74 -29 10 -51 349 -163 583 -191 86 -11 115 -10 207 4 182 29 283 72 373
162 172 171 215 448 125 805 -35 141 -214 468 -340 625 -22 28 -48 62 -58 77
-10 14 -65 76 -122 138 -240 254 -468 380 -796 439 -68 12 -226 13 -264 1z"/>
<path d="M7598 10931 c-70 -69 -98 -134 -98 -224 0 -114 40 -224 120 -332 65
-86 133 -140 242 -193 58 -28 78 -32 146 -32 69 0 83 3 124 29 87 55 134 146
132 258 -1 68 -18 133 -33 133 -4 0 -18 -12 -32 -26 -31 -34 -93 -61 -155 -69
-98 -13 -227 50 -303 149 -43 56 -84 142 -75 157 3 5 0 25 -6 44 -9 28 -8 46
4 89 20 67 20 66 -1 65 -10 -1 -39 -22 -65 -48z"/>
<path d="M7863 10920 c-64 -26 -56 -130 17 -214 37 -41 69 -60 118 -69 37 -8
86 12 96 38 23 62 -24 171 -93 214 -52 32 -106 44 -138 31z"/>
<path d="M5574 9750 c-32 -13 -81 -75 -118 -148 -46 -92 -148 -382 -245 -702
-23 -74 -47 -146 -53 -160 -19 -46 -238 -903 -257 -1010 -7 -36 -16 -81 -21
-100 -5 -19 -14 -55 -20 -80 -13 -52 -10 -122 5 -127 6 -2 105 92 221 209
l211 213 16 70 c10 39 17 81 17 94 0 13 4 40 10 60 5 20 28 133 51 251 22 118
45 225 51 238 9 18 20 22 58 22 26 0 52 -6 58 -12 9 -13 18 -85 30 -270 10
-143 22 -147 128 -36 54 56 62 70 69 115 4 29 3 58 -2 65 -4 7 -11 153 -15
323 -10 413 -25 738 -37 804 -30 158 -78 213 -157 181z"/>
<path d="M6682 9044 c-96 -25 -148 -65 -241 -184 -24 -30 -64 -77 -90 -105
-25 -27 -59 -66 -75 -85 -16 -19 -358 -367 -760 -772 -402 -405 -732 -743
-734 -751 -2 -8 122 -173 275 -368 153 -195 319 -408 368 -473 50 -65 104
-136 120 -157 17 -20 59 -76 94 -123 35 -47 67 -86 71 -86 4 0 29 -33 55 -72
59 -89 153 -208 164 -208 33 0 326 260 485 431 292 312 527 727 672 1189 7 25
23 88 35 140 11 52 25 113 30 135 15 59 29 133 39 200 5 33 14 89 21 125 28
160 45 512 29 594 -26 129 -72 249 -128 331 -75 110 -120 154 -205 202 -84 47
-146 58 -225 37z"/>
<path d="M7597 9013 c-3 -5 -11 -37 -18 -73 -10 -49 -20 -72 -45 -97 -41 -41
-67 -47 -155 -39 l-69 7 0 -28 c0 -15 7 -41 15 -57 8 -15 15 -34 15 -40 0 -7
9 -41 21 -76 16 -49 22 -104 28 -234 8 -189 1 -166 101 -336 81 -137 235 -457
260 -540 5 -19 25 -82 44 -140 19 -58 48 -157 64 -220 32 -121 48 -170 56
-170 30 0 49 220 49 555 -1 132 -3 281 -6 330 -3 50 -8 144 -12 210 -4 66 -15
181 -25 255 -10 74 -24 178 -30 230 -19 155 -38 251 -55 276 -8 13 -45 47 -82
77 -38 30 -81 69 -97 86 -29 30 -50 39 -59 24z"/>
<path d="M3030 8608 c-30 -50 -25 -190 14 -338 8 -30 24 -93 35 -140 32 -138
48 -199 80 -320 38 -139 92 -345 131 -495 15 -60 42 -157 60 -215 18 -58 36
-121 40 -140 9 -40 30 -114 60 -215 12 -38 25 -88 30 -110 5 -22 24 -87 43
-145 19 -58 40 -125 47 -150 27 -96 50 -171 104 -340 57 -177 81 -256 112
-365 9 -33 20 -64 25 -69 5 -6 9 -18 9 -27 0 -21 89 -300 130 -409 15 -41 45
-129 65 -195 39 -128 89 -276 192 -575 36 -102 69 -201 75 -220 5 -19 15 -44
21 -55 6 -11 17 -38 23 -60 22 -74 155 -456 199 -570 15 -38 33 -90 40 -115
21 -70 73 -207 91 -241 9 -17 22 -54 30 -80 19 -64 64 -146 131 -241 60 -83
93 -105 135 -89 70 27 69 247 -2 446 -10 28 -25 82 -34 120 -9 39 -32 129 -52
200 -20 72 -51 191 -70 265 -19 74 -43 164 -53 200 -10 36 -33 119 -51 185
-18 66 -39 140 -47 165 -16 50 -36 119 -63 225 -21 82 -108 377 -120 409 -4
11 -18 55 -30 96 -11 41 -27 93 -34 115 -8 22 -23 74 -35 115 -25 84 -37 123
-115 360 -30 91 -70 217 -90 280 -20 64 -42 125 -51 135 -8 11 -15 29 -15 40
0 18 -31 110 -129 388 -17 48 -42 111 -56 139 -14 29 -25 57 -25 64 0 12 -54
155 -118 314 -84 210 -172 438 -172 446 0 25 57 64 92 64 32 0 42 -8 104 -81
38 -45 101 -116 139 -159 75 -84 179 -204 245 -285 58 -71 185 -218 250 -290
30 -33 75 -85 100 -115 25 -29 72 -85 105 -123 84 -97 139 -162 220 -257 39
-45 99 -115 135 -155 36 -40 92 -105 125 -145 33 -40 89 -106 125 -145 36 -39
87 -101 115 -136 87 -112 238 -269 306 -319 108 -79 178 -85 212 -19 46 86
-15 269 -158 475 -33 47 -94 135 -135 194 -41 60 -104 150 -140 200 -36 51
-92 131 -126 179 -82 119 -233 316 -397 519 -54 67 -122 153 -151 192 -30 39
-87 105 -127 148 -40 42 -95 106 -123 142 -27 36 -74 92 -105 125 -31 34 -101
110 -156 170 -55 61 -298 308 -540 550 -475 476 -522 515 -612 515 -38 0 -46
-4 -63 -32z"/>
<path d="M7372 7909 c-17 -43 -32 -118 -32 -158 0 -21 -11 -83 -25 -137 -14
-55 -30 -128 -36 -163 -5 -35 -19 -89 -29 -120 -11 -30 -20 -72 -20 -92 0 -38
51 -191 114 -341 19 -46 58 -144 87 -218 97 -252 183 -373 281 -398 106 -27
173 -5 320 105 43 32 132 96 199 143 149 104 153 107 428 305 123 88 246 176
275 195 28 19 87 60 131 91 44 31 87 59 95 62 8 4 23 12 32 19 15 11 33 -3
139 -115 132 -139 224 -218 337 -292 163 -105 404 -195 473 -177 20 5 39 18
47 33 15 29 8 109 -14 152 -26 48 -174 196 -254 253 -111 77 -122 91 -109 137
5 20 20 44 33 52 21 14 29 13 105 -20 141 -60 261 -88 386 -89 98 -1 115 2
160 24 46 23 50 28 53 65 7 117 -147 222 -373 254 -44 7 -110 16 -148 21 -37
6 -95 10 -128 10 -88 0 -99 9 -99 78 l0 58 56 17 c71 22 108 48 124 87 22 53
6 60 -196 89 -56 8 -88 7 -145 -4 -116 -23 -143 -33 -208 -76 -85 -57 -138
-120 -196 -235 -56 -110 -56 -110 -270 -220 -49 -26 -101 -54 -115 -64 -14 -9
-74 -43 -135 -75 -60 -31 -117 -63 -125 -70 -8 -7 -46 -29 -85 -47 -38 -19
-124 -66 -190 -105 -260 -151 -462 -255 -489 -251 -15 2 -22 11 -23 33 -10
114 -91 425 -188 720 -33 102 -113 272 -203 434 -30 53 -31 54 -40 30z"/>
<path d="M8408 7620 c-192 -4 -260 -8 -270 -18 -14 -14 -21 -81 -38 -352 -13
-206 -14 -230 -2 -242 10 -10 83 23 202 92 36 20 85 48 110 62 181 99 229 129
303 194 110 95 136 148 103 213 -15 28 -58 47 -121 53 -16 2 -146 1 -287 -2z"/>
<path d="M7112 6917 c-18 -36 -32 -67 -32 -71 0 -19 -116 -240 -192 -368 -48
-81 -88 -155 -88 -165 0 -26 6 -32 100 -111 151 -128 233 -198 350 -301 162
-142 159 -142 289 53 102 152 107 186 34 241 -86 66 -142 135 -193 238 -28 56
-58 122 -67 147 -8 25 -21 59 -28 75 -15 34 -63 159 -98 254 -13 36 -28 66
-34 68 -5 2 -24 -25 -41 -60z"/>
<path d="M8980 6879 c-52 -39 -96 -77 -98 -84 -7 -31 81 -65 170 -66 67 -1 92
11 118 54 33 53 23 111 -24 149 -38 31 -67 22 -166 -53z"/>
<path d="M4105 6609 c-44 -33 -81 -66 -83 -74 -2 -7 17 -69 42 -137 25 -68 75
-204 111 -303 37 -99 75 -202 85 -230 10 -27 55 -151 99 -274 44 -123 89 -233
100 -245 10 -12 36 -73 56 -136 69 -216 61 -211 235 -149 19 6 60 21 90 31 30
11 64 24 75 28 11 5 29 11 39 14 69 23 358 152 382 171 l29 23 -55 60 c-30 33
-81 93 -113 134 -131 165 -177 220 -277 333 -58 65 -136 155 -175 200 -38 45
-110 128 -160 185 -136 156 -211 244 -222 264 -15 28 -155 166 -167 165 -6 0
-47 -27 -91 -60z"/>
<path d="M8578 6597 c-72 -50 -94 -81 -84 -121 14 -56 131 -90 169 -48 27 30
47 89 47 140 0 86 -37 94 -132 29z"/>
<path d="M7975 6176 c-11 -7 -31 -17 -45 -21 -75 -23 -129 -48 -134 -62 -8
-19 20 -53 43 -53 18 0 97 -78 125 -124 16 -25 18 -46 14 -150 -3 -70 -14
-159 -26 -211 -39 -169 -45 -220 -30 -248 7 -14 55 -62 107 -108 123 -109 132
-103 151 91 5 47 16 130 25 185 8 55 20 136 26 180 5 44 15 113 21 152 6 40 8
101 5 135 l-5 62 -95 93 c-82 81 -98 93 -128 93 -19 0 -43 -6 -54 -14z"/>
<path d="M6612 6083 c-131 -144 -142 -158 -142 -182 0 -18 76 -100 323 -345
298 -297 397 -390 627 -589 129 -111 429 -349 521 -413 42 -29 53 -70 24 -94
-8 -7 -15 -17 -15 -22 0 -5 -93 -147 -207 -316 -114 -169 -253 -374 -308 -457
-56 -82 -153 -226 -217 -320 -318 -472 -343 -511 -356 -560 -6 -22 -15 -59
-21 -81 -34 -129 17 -184 124 -135 45 20 191 168 245 247 74 109 210 296 344
474 76 102 163 221 191 265 29 44 63 89 75 100 13 11 39 45 58 75 20 30 76
110 126 177 200 270 243 328 279 381 51 75 71 147 65 236 -4 62 -12 85 -57
174 -51 98 -59 108 -209 250 -272 258 -377 355 -447 417 -38 33 -82 75 -99 92
-17 18 -57 54 -88 80 -32 27 -131 113 -220 192 -221 194 -265 232 -323 278
-27 22 -59 50 -69 61 -22 26 -102 77 -133 86 -17 6 -34 -7 -91 -71z"/>
<path d="M3435 6121 c-11 -11 -193 -113 -405 -226 -212 -114 -407 -220 -435
-235 -27 -15 -86 -46 -130 -70 -90 -48 -208 -111 -275 -148 -25 -13 -54 -32
-65 -41 -11 -10 -64 -41 -119 -70 -229 -121 -412 -278 -390 -336 21 -53 225
-113 464 -135 102 -10 212 -23 325 -40 267 -40 407 -50 763 -50 371 -1 601 18
671 54 43 23 41 53 -14 227 -25 78 -45 154 -45 168 0 24 -20 96 -41 146 -5 11
-43 126 -85 255 -157 480 -169 515 -184 518 -8 1 -24 -6 -35 -17z"/>
<path d="M6297 5757 c-15 -12 -52 -42 -81 -67 -29 -25 -79 -65 -111 -90 -120
-94 -116 -84 -96 -220 16 -104 12 -157 -14 -215 -19 -41 -83 -100 -124 -114
-94 -31 -181 -8 -310 84 -81 57 -110 58 -217 7 -145 -71 -337 -148 -574 -231
-58 -20 -111 -40 -119 -45 -17 -11 -11 -97 11 -146 9 -19 19 -48 23 -65 15
-72 74 -287 119 -435 14 -47 26 -90 26 -97 0 -28 42 -122 56 -127 24 -9 116
18 239 70 61 25 135 56 165 69 138 58 287 127 320 149 20 13 69 40 108 60 40
20 129 75 199 122 70 48 134 89 143 93 127 52 631 429 768 574 79 85 79 86
-90 262 -279 290 -376 385 -395 385 -10 -1 -31 -11 -46 -23z"/>
<path d="M2019 4691 c-42 -33 -175 -152 -283 -253 -57 -54 -108 -98 -113 -98
-15 0 -93 -110 -124 -175 -61 -128 -19 -226 135 -314 179 -102 377 -154 851
-222 164 -23 238 -30 290 -25 39 3 133 11 210 16 317 22 565 48 755 80 36 6
94 15 130 21 154 22 188 28 245 44 33 9 70 23 83 31 41 27 31 75 -83 389 -20
55 -58 166 -85 246 -49 148 -81 222 -101 234 -20 13 -118 6 -369 -27 -174 -23
-742 -11 -1015 21 -44 5 -127 14 -185 21 -58 6 -123 15 -145 20 -72 17 -169
12 -196 -9z"/>
<path d="M7730 4480 c-7 -12 -9 -33 -6 -46 12 -47 60 -18 54 33 -4 35 -32 42
-48 13z"/>
<path d="M8715 4480 c-22 -5 -64 -9 -93 -9 -30 -1 -69 -8 -87 -17 -34 -16 -39
-24 -71 -129 -24 -74 -75 -150 -387 -568 -54 -73 -100 -142 -104 -155 -7 -28
7 -44 38 -44 41 -1 262 40 329 61 36 11 103 29 149 41 46 12 102 29 125 39 22
10 77 34 121 52 76 32 217 106 260 135 11 8 55 49 98 91 135 134 162 228 99
354 -37 76 -69 100 -172 129 -84 24 -242 34 -305 20z"/>
<path d="M6665 4437 c-144 -23 -389 -97 -417 -125 -3 -4 -8 -61 -11 -127 -5
-129 -6 -137 -40 -204 -30 -61 -65 -79 -153 -80 -83 -1 -113 11 -169 68 -21
23 -45 41 -51 41 -20 0 -91 -88 -120 -146 -43 -87 -26 -137 61 -189 99 -57
370 -103 507 -85 239 31 414 63 518 94 25 8 79 24 120 36 108 33 262 105 281
132 9 13 38 57 65 98 27 41 83 113 126 160 66 73 78 90 78 121 0 54 -52 127
-115 161 -92 50 -152 58 -397 57 -123 -1 -250 -6 -283 -12z"/>
<path d="M6011 4314 c-18 -23 -21 -41 -21 -121 0 -102 10 -133 41 -133 28 0
39 38 39 140 0 88 -11 140 -29 140 -5 0 -19 -12 -30 -26z"/>
<path d="M7507 2906 c-59 -16 -73 -29 -160 -146 -39 -52 -82 -109 -96 -125
-14 -17 -35 -43 -46 -59 -30 -42 -148 -125 -207 -147 -64 -23 -163 -25 -205
-4 -36 18 -93 96 -93 127 0 30 -33 117 -46 122 -26 10 -75 -23 -151 -100 -72
-72 -73 -75 -73 -125 0 -49 2 -53 59 -109 91 -89 270 -174 496 -235 33 -9 69
-20 80 -25 63 -30 459 -117 636 -139 149 -19 468 -14 594 9 348 64 545 155
611 283 32 61 -3 159 -89 253 -98 108 -369 288 -477 318 -30 8 -89 25 -130 36
-167 46 -315 68 -505 74 -108 4 -163 2 -198 -8z"/>
<path d="M4339 2906 c-2 -2 -35 -9 -74 -15 -182 -28 -290 -57 -450 -121 -110
-43 -370 -184 -486 -263 -105 -73 -141 -108 -212 -212 -114 -168 -80 -299 100
-387 68 -33 69 -33 214 -33 92 0 151 4 160 11 8 6 39 14 69 17 172 19 466 84
910 202 272 71 554 185 686 276 56 38 129 110 156 154 40 67 13 134 -79 193
-57 37 -145 67 -167 59 -17 -7 -22 -18 -51 -107 -33 -104 -89 -150 -182 -150
-97 0 -199 87 -288 245 -26 46 -53 89 -59 95 -23 18 -233 49 -247 36z"/>
</g>
</svg>
