<svg id="svg" version="1.1" xmlns="http://www.w3.org/2000/svg" xmlns:xlink="http://www.w3.org/1999/xlink" width="400" height="400" viewBox="0, 0, 400,400"><g id="svgg"><path id="path0" d="M75.141 75.517 C 74.843 75.939,74.150 76.411,73.600 76.566 C 71.319 77.206,69.661 78.138,69.169 79.058 C 68.881 79.596,67.785 80.654,66.734 81.409 C 65.515 82.285,64.460 83.498,63.822 84.756 C 62.908 86.560,62.011 87.425,59.798 88.637 C 59.359 88.878,58.579 89.958,58.065 91.037 C 57.059 93.150,55.342 95.200,54.579 95.200 C 53.277 95.200,52.099 96.828,51.622 99.286 C 50.898 103.012,49.929 104.877,47.813 106.611 C 46.567 107.632,45.595 108.893,44.977 110.290 C 44.333 111.747,43.634 112.634,42.755 113.108 C 39.842 114.681,39.317 115.514,38.661 119.600 C 38.053 123.385,36.702 125.600,35.001 125.600 C 33.774 125.600,33.242 127.866,33.041 133.954 C 32.812 140.884,32.347 142.399,30.000 143.863 C 26.713 145.913,26.918 145.023,26.684 158.312 C 26.437 172.354,25.726 176.141,23.074 177.561 C 21.303 178.508,21.027 181.225,20.938 198.600 C 20.827 220.022,21.163 223.910,23.213 224.932 C 25.818 226.230,27.162 233.605,27.187 246.723 C 27.203 255.896,27.502 257.224,30.071 259.537 C 32.543 261.763,33.041 263.461,33.609 271.600 C 34.115 278.852,34.191 279.200,35.280 279.200 C 36.556 279.200,38.661 280.686,39.110 281.904 C 39.332 282.507,39.821 283.864,40.198 284.921 C 40.697 286.321,41.287 287.098,42.377 287.785 C 44.089 288.866,45.771 291.959,46.192 294.800 C 46.604 297.581,46.794 298.000,47.643 298.000 C 48.077 298.000,49.129 298.356,49.982 298.791 C 51.598 299.615,51.805 300.014,52.842 304.297 C 53.160 305.611,53.605 306.475,54.033 306.610 C 55.731 307.149,58.399 310.704,58.440 312.483 C 58.511 315.534,58.852 316.142,60.864 316.800 C 63.358 317.616,63.853 318.120,64.400 320.400 C 64.939 322.646,65.265 322.996,67.200 323.400 C 69.988 323.982,71.275 325.242,71.680 327.784 C 71.763 328.304,72.241 328.657,73.100 328.833 C 75.271 329.277,76.426 330.722,76.957 333.660 C 77.272 335.403,77.679 335.783,79.853 336.364 C 81.814 336.888,82.311 337.414,82.976 339.664 C 83.460 341.304,83.545 341.369,85.837 341.879 C 88.545 342.480,89.819 343.627,90.233 345.834 C 90.380 346.620,90.703 347.331,90.951 347.412 C 91.198 347.494,92.122 347.745,93.005 347.970 C 95.133 348.513,99.268 351.232,99.975 352.554 C 100.405 353.357,101.181 353.799,103.241 354.412 C 106.189 355.290,107.853 356.764,108.274 358.870 C 108.532 360.162,109.119 360.572,111.259 360.958 C 113.285 361.323,114.705 362.563,115.199 364.397 C 115.703 366.267,115.658 366.251,122.200 366.807 C 129.226 367.404,132.800 368.960,132.800 371.421 C 132.800 372.754,134.513 373.112,143.000 373.556 C 154.335 374.150,156.297 374.694,157.837 377.671 C 158.593 379.133,158.872 379.187,167.670 379.582 C 176.484 379.978,180.698 380.921,184.485 383.344 C 189.165 386.337,214.426 386.658,218.670 383.778 C 219.463 383.240,220.278 382.800,220.481 382.800 C 220.684 382.800,221.805 382.348,222.973 381.796 C 225.593 380.556,229.466 380.028,236.065 380.012 C 243.627 379.994,246.814 379.270,249.213 377.026 C 250.268 376.040,251.551 375.146,252.065 375.040 C 255.003 374.434,258.752 374.002,262.940 373.788 C 265.547 373.654,268.697 373.378,269.940 373.175 C 271.183 372.971,272.234 372.804,272.277 372.802 C 272.319 372.801,272.922 371.732,273.618 370.427 C 275.140 367.571,275.210 367.536,280.000 367.199 L 283.800 366.932 278.762 366.866 C 273.459 366.797,272.400 367.135,272.400 368.899 C 272.400 369.951,271.066 371.941,270.205 372.173 C 268.280 372.690,265.105 372.425,265.357 371.767 C 265.491 371.419,265.600 370.950,265.600 370.724 C 265.600 370.499,265.870 370.418,266.200 370.545 C 266.530 370.671,266.800 370.581,266.800 370.345 C 266.800 370.108,267.070 370.024,267.400 370.157 C 269.229 370.897,269.411 370.916,268.600 370.281 C 268.010 369.819,267.917 369.535,268.246 369.201 C 268.792 368.646,269.999 369.695,270.003 370.729 C 270.004 371.182,270.264 371.010,270.800 370.200 C 271.783 368.715,271.842 368.051,270.900 369.064 C 270.515 369.478,270.335 369.642,270.500 369.428 C 270.971 368.819,270.851 368.327,270.300 368.606 C 270.025 368.745,270.090 368.619,270.445 368.326 C 270.884 367.962,271.029 367.382,270.901 366.504 C 270.772 365.630,270.993 364.739,271.589 363.729 C 272.375 362.397,272.456 361.762,272.367 357.621 C 272.280 353.506,272.380 352.701,273.288 350.274 C 274.658 346.608,275.401 326.777,274.235 324.998 C 273.648 324.102,273.600 322.717,273.792 312.296 C 273.910 305.863,274.050 298.170,274.103 295.200 C 274.187 290.500,274.083 289.452,273.300 287.116 C 272.572 284.947,272.400 283.543,272.400 279.788 C 272.400 276.194,272.264 275.007,271.801 274.543 C 270.847 273.590,270.634 271.991,271.197 270.024 C 272.080 266.940,272.168 265.600,271.487 265.600 C 270.847 265.600,270.400 264.789,270.400 263.629 C 270.400 263.241,270.040 262.598,269.600 262.200 C 269.160 261.802,268.800 261.180,268.800 260.818 C 268.800 260.456,268.607 259.967,268.371 259.731 C 268.065 259.425,268.209 259.234,268.871 259.066 C 270.095 258.755,270.713 257.684,271.026 255.330 C 271.307 253.226,271.775 252.400,272.688 252.400 C 273.344 252.400,275.600 250.153,275.600 249.499 C 275.600 249.270,275.159 249.559,274.619 250.142 C 274.080 250.724,273.422 251.200,273.157 251.200 C 272.419 251.200,270.000 253.172,270.000 253.773 C 270.000 255.614,266.735 257.258,261.545 258.029 L 258.510 258.481 257.898 261.590 C 257.019 266.052,256.309 267.280,253.354 269.449 C 251.938 270.489,250.396 271.959,249.929 272.715 C 248.947 274.305,247.385 275.052,243.505 275.792 C 240.532 276.358,239.048 277.356,238.616 279.080 C 238.206 280.711,237.246 281.886,235.881 282.424 C 234.294 283.050,232.800 284.352,232.800 285.108 C 232.800 286.328,231.334 288.056,229.609 288.870 C 227.184 290.014,226.400 290.743,226.400 291.854 C 226.400 295.327,224.825 297.900,220.283 301.848 C 217.865 303.950,215.238 306.296,214.444 307.062 C 209.378 311.951,207.820 313.053,205.263 313.556 C 202.452 314.109,201.509 315.106,201.043 318.020 C 200.653 320.462,195.683 325.321,192.685 326.192 C 190.255 326.899,189.790 327.304,188.600 329.753 C 188.032 330.923,187.294 331.656,186.051 332.282 C 183.942 333.347,182.800 334.330,182.800 335.082 C 182.800 336.310,181.554 337.928,180.118 338.565 C 177.569 339.695,177.455 339.802,176.208 342.234 C 175.068 344.459,174.730 344.762,172.000 346.002 C 171.670 346.151,171.117 347.152,170.771 348.225 C 169.610 351.826,166.923 353.431,163.787 352.396 C 159.268 350.904,159.973 337.238,164.790 332.946 C 166.429 331.486,166.779 329.642,167.031 321.152 C 167.380 309.396,168.186 306.007,171.032 304.328 C 172.954 303.194,173.248 301.404,173.578 288.800 C 173.921 275.705,174.153 274.698,177.151 273.267 C 178.963 272.403,179.170 271.612,179.526 264.196 C 179.860 257.245,180.290 256.102,183.211 254.394 C 185.346 253.146,185.949 250.962,185.981 244.362 C 186.010 238.427,190.809 239.041,146.907 239.366 C 101.680 239.700,105.385 240.377,104.912 231.698 C 104.640 226.694,105.155 225.313,107.930 223.605 C 110.431 222.066,110.344 222.525,110.768 208.600 C 111.174 195.275,111.633 193.425,114.920 191.865 C 116.586 191.074,117.200 188.374,117.200 181.841 C 117.200 176.275,118.472 173.532,121.471 172.627 C 122.852 172.211,123.235 169.590,123.583 158.200 C 123.985 145.013,124.318 143.680,127.574 142.212 C 129.458 141.362,129.499 141.207,129.843 133.600 C 130.154 126.727,130.499 125.702,133.142 123.804 C 135.533 122.086,135.958 120.724,136.267 113.800 C 136.530 107.891,137.724 104.963,140.272 103.978 C 141.138 103.644,142.054 100.321,141.448 99.715 C 141.312 99.578,141.200 99.966,141.200 100.576 C 141.200 101.387,141.042 101.625,140.613 101.460 C 140.290 101.336,139.919 101.407,139.789 101.617 C 139.377 102.284,138.814 102.030,139.087 101.300 C 139.304 100.723,139.246 100.684,138.759 101.079 C 138.314 101.440,137.744 101.450,136.443 101.120 C 135.148 100.791,133.727 100.813,130.754 101.206 C 126.881 101.719,126.770 101.711,125.870 100.865 C 125.363 100.389,124.763 100.000,124.536 100.000 C 124.309 100.000,123.798 99.640,123.400 99.200 C 122.774 98.508,122.168 98.400,118.920 98.400 C 113.308 98.400,110.202 97.518,108.164 95.345 C 106.585 93.661,106.043 93.427,104.097 93.585 C 103.563 93.628,102.513 93.074,101.525 92.229 L 99.856 90.800 95.336 90.800 C 91.550 90.800,90.323 90.634,87.770 89.777 C 85.254 88.933,84.070 88.768,80.967 88.830 C 78.489 88.880,77.009 88.739,76.620 88.417 C 76.173 88.046,75.550 88.030,74.046 88.353 C 72.219 88.745,71.856 88.684,69.440 87.589 C 67.998 86.935,66.544 86.400,66.209 86.400 C 64.870 86.400,65.474 84.091,66.894 83.779 C 69.446 83.219,70.220 82.366,70.653 79.634 C 70.907 78.030,71.181 77.771,73.236 77.202 C 74.657 76.808,76.337 75.404,75.905 74.972 C 75.782 74.849,75.438 75.094,75.141 75.517 " stroke="none" fill="#6e9dce" fill-rule="evenodd"></path><path id="path1" d="M186.200 20.787 C 181.241 21.213,178.828 21.893,177.356 23.278 C 174.834 25.651,172.333 26.073,159.000 26.374 C 145.753 26.672,145.712 26.681,144.376 29.266 C 142.819 32.279,137.767 33.669,130.924 32.966 C 127.969 32.663,126.499 33.454,125.167 36.064 C 124.204 37.952,122.851 38.622,119.183 39.027 C 115.485 39.435,114.950 39.730,113.803 41.994 C 112.936 43.706,112.423 44.187,110.489 45.109 C 108.738 45.944,107.918 46.646,107.000 48.101 C 105.571 50.364,103.763 51.355,99.800 52.046 C 96.548 52.613,96.174 52.831,95.874 54.328 C 95.566 55.872,93.798 57.513,91.845 58.069 C 90.041 58.583,88.800 59.455,88.800 60.208 C 88.800 61.208,87.040 62.869,84.761 64.019 C 83.109 64.854,82.097 65.697,81.376 66.838 C 80.810 67.734,79.829 68.765,79.194 69.129 C 77.972 69.831,77.438 70.732,76.584 73.538 C 75.912 75.748,75.040 76.701,73.236 77.202 C 71.181 77.771,70.907 78.030,70.653 79.634 C 70.220 82.366,69.446 83.219,66.894 83.779 C 65.474 84.091,64.870 86.400,66.209 86.400 C 66.544 86.400,67.998 86.935,69.440 87.589 C 71.856 88.684,72.219 88.745,74.046 88.353 C 75.550 88.030,76.173 88.046,76.620 88.417 C 77.009 88.739,78.489 88.880,80.967 88.830 C 84.070 88.768,85.254 88.933,87.770 89.777 C 90.323 90.634,91.550 90.800,95.336 90.800 L 99.856 90.800 101.525 92.229 C 102.513 93.074,103.563 93.628,104.097 93.585 C 106.043 93.427,106.585 93.661,108.164 95.345 C 110.202 97.518,113.308 98.400,118.920 98.400 C 122.168 98.400,122.774 98.508,123.400 99.200 C 123.798 99.640,124.309 100.000,124.536 100.000 C 124.763 100.000,125.363 100.389,125.870 100.865 C 126.770 101.711,126.881 101.719,130.754 101.206 C 133.727 100.813,135.148 100.791,136.443 101.120 C 137.744 101.450,138.314 101.440,138.759 101.079 C 139.246 100.684,139.304 100.723,139.087 101.300 C 138.814 102.030,139.377 102.284,139.789 101.617 C 139.919 101.407,140.275 101.331,140.580 101.448 C 141.354 101.745,141.571 99.309,141.764 88.200 C 142.046 71.915,137.616 73.412,184.600 73.721 C 224.802 73.986,225.904 74.075,225.987 77.084 C 226.027 78.539,228.035 79.483,231.637 79.738 C 236.532 80.086,240.000 81.943,240.000 84.217 C 240.000 85.168,241.309 85.549,247.255 86.328 C 255.425 87.398,256.902 88.504,258.045 94.400 C 258.554 97.029,259.304 98.400,260.231 98.400 C 261.186 98.400,263.146 100.425,263.631 101.913 C 264.305 103.979,265.367 105.224,267.129 106.013 C 268.822 106.771,269.535 107.707,270.622 110.600 C 271.036 111.700,272.119 113.410,273.031 114.400 C 276.360 118.016,276.336 117.825,276.638 142.677 C 276.955 168.695,276.395 174.213,273.362 174.974 C 272.007 175.314,271.186 176.788,270.580 179.964 C 269.914 183.461,268.686 185.880,267.145 186.733 C 266.471 187.105,265.511 188.233,264.970 189.286 L 264.001 191.172 264.895 191.651 C 265.551 192.002,272.215 192.167,289.994 192.271 C 321.470 192.456,323.539 192.665,325.033 195.813 C 326.251 198.379,324.929 199.814,319.567 201.742 C 315.371 203.252,315.818 202.692,314.197 208.472 C 313.405 211.294,312.392 212.612,310.233 213.627 C 308.834 214.284,308.434 214.744,307.850 216.370 C 307.052 218.587,306.232 219.457,303.860 220.600 C 302.636 221.190,301.998 221.846,301.433 223.097 C 300.519 225.117,298.715 226.124,294.800 226.795 C 290.913 227.462,290.804 227.524,289.943 229.536 C 288.889 232.001,287.784 233.120,285.903 233.626 C 284.612 233.974,284.230 234.331,283.617 235.761 C 282.749 237.785,281.294 239.036,279.130 239.619 C 277.281 240.117,277.018 240.661,276.650 244.753 C 276.315 248.475,275.066 251.144,273.223 252.078 C 271.397 253.003,271.310 253.130,271.022 255.330 C 270.714 257.682,270.097 258.754,268.871 259.066 C 268.209 259.234,268.065 259.425,268.371 259.731 C 268.607 259.967,268.800 260.456,268.800 260.818 C 268.800 261.180,269.160 261.802,269.600 262.200 C 270.040 262.598,270.400 263.241,270.400 263.629 C 270.400 264.789,270.847 265.600,271.487 265.600 C 272.168 265.600,272.080 266.940,271.197 270.024 C 270.634 271.991,270.847 273.590,271.801 274.543 C 272.264 275.007,272.400 276.194,272.400 279.788 C 272.400 283.543,272.572 284.947,273.300 287.116 C 274.083 289.452,274.187 290.500,274.103 295.200 C 274.050 298.170,273.910 305.863,273.792 312.296 C 273.600 322.717,273.648 324.102,274.235 324.998 C 275.401 326.777,274.658 346.608,273.288 350.274 C 272.380 352.701,272.280 353.506,272.367 357.621 C 272.456 361.762,272.375 362.397,271.589 363.729 C 270.993 364.739,270.772 365.630,270.901 366.504 C 271.029 367.382,270.884 367.962,270.445 368.326 C 270.090 368.619,270.025 368.745,270.300 368.606 C 270.851 368.327,270.971 368.819,270.500 369.428 C 270.335 369.642,270.515 369.478,270.900 369.064 C 271.842 368.051,271.783 368.715,270.800 370.200 C 270.264 371.010,270.004 371.182,270.003 370.729 C 269.999 369.695,268.792 368.646,268.246 369.201 C 267.917 369.535,268.010 369.819,268.600 370.281 C 269.411 370.916,269.229 370.897,267.400 370.157 C 267.070 370.024,266.800 370.108,266.800 370.345 C 266.800 370.581,266.530 370.671,266.200 370.545 C 265.870 370.418,265.600 370.499,265.600 370.724 C 265.600 370.950,265.491 371.419,265.357 371.767 C 265.105 372.425,268.280 372.690,270.205 372.173 C 271.091 371.935,272.400 369.941,272.400 368.830 C 272.400 367.066,273.600 366.723,279.333 366.845 C 285.401 366.975,285.556 366.919,286.770 364.176 C 287.787 361.876,291.903 360.150,296.692 360.014 C 296.962 360.006,297.555 359.273,298.008 358.384 C 298.819 356.795,300.817 355.204,302.006 355.201 C 303.226 355.198,305.395 353.682,306.187 352.277 C 306.634 351.484,307.716 350.303,308.591 349.653 C 309.539 348.948,310.670 347.528,311.391 346.135 C 312.961 343.103,314.293 342.401,318.481 342.401 C 322.471 342.400,323.486 341.930,324.025 339.835 C 324.921 336.348,325.276 335.651,326.618 334.739 C 327.378 334.223,328.461 333.080,329.025 332.200 C 329.589 331.320,330.703 330.150,331.501 329.600 C 332.299 329.050,333.699 327.825,334.612 326.879 C 335.906 325.536,336.791 325.024,338.636 324.550 C 341.877 323.718,342.380 322.985,342.391 319.084 C 342.403 314.956,343.251 313.229,345.887 311.970 C 346.939 311.468,348.814 310.054,350.053 308.828 C 351.292 307.603,352.851 306.109,353.517 305.510 C 354.184 304.910,355.020 303.544,355.375 302.474 C 356.021 300.531,357.554 298.698,359.245 297.850 C 359.955 297.493,360.288 296.712,360.855 294.071 C 361.716 290.062,362.635 288.465,364.772 287.264 C 367.232 285.881,367.600 285.106,367.600 281.298 C 367.600 276.428,368.406 274.863,371.776 273.198 C 373.292 272.448,373.953 269.510,373.981 263.390 C 373.999 259.692,374.511 253.904,375.020 251.665 C 375.137 251.151,376.013 249.891,376.967 248.865 C 379.133 246.536,379.995 243.212,380.011 237.121 C 380.028 230.448,380.604 225.887,381.703 223.714 C 384.407 218.364,385.682 211.529,385.641 202.600 C 385.596 192.658,384.991 188.608,382.846 183.901 C 381.296 180.499,380.761 177.495,380.369 170.000 C 379.838 159.871,379.694 159.186,377.687 157.238 C 374.990 154.621,374.899 154.267,374.402 144.432 C 373.885 134.214,373.879 134.191,371.221 131.743 C 368.957 129.657,368.614 128.808,368.015 123.800 C 367.225 117.203,366.820 116.024,364.864 114.632 C 363.099 113.376,362.446 112.484,361.472 110.000 C 361.161 109.206,360.423 108.340,359.767 108.000 C 357.633 106.893,356.713 105.817,355.345 102.833 C 354.597 101.202,353.208 99.037,352.259 98.022 C 351.298 96.994,350.226 95.297,349.839 94.189 C 348.672 90.850,348.254 90.249,346.150 88.885 C 344.552 87.850,343.847 87.023,342.826 84.991 C 341.885 83.120,341.127 82.184,340.065 81.584 C 339.259 81.129,338.060 79.911,337.400 78.878 C 336.446 77.385,335.648 76.734,333.511 75.705 C 331.341 74.660,330.664 74.101,330.007 72.813 C 329.538 71.894,328.642 70.939,327.896 70.561 C 326.202 69.705,324.800 68.405,324.800 67.691 C 324.800 66.248,323.463 64.453,321.657 63.470 C 319.535 62.315,318.765 61.555,317.953 59.814 C 317.507 58.858,316.818 58.415,314.400 57.531 C 312.061 56.676,311.072 56.056,309.910 54.717 C 308.749 53.379,307.652 52.691,304.939 51.600 C 301.782 50.331,301.285 49.978,299.615 47.826 C 297.841 45.539,297.664 45.425,294.803 44.722 C 292.482 44.152,291.350 43.599,289.617 42.191 C 288.398 41.200,286.205 39.770,284.745 39.012 C 283.285 38.255,281.665 37.073,281.145 36.387 C 278.590 33.011,278.953 33.136,269.600 32.435 C 264.235 32.033,262.227 31.339,260.252 29.204 C 258.087 26.864,256.294 26.523,244.800 26.266 C 233.169 26.006,228.405 25.221,226.000 23.168 C 223.004 20.612,223.350 20.656,205.800 20.563 C 197.000 20.516,188.180 20.617,186.200 20.787 " stroke="none" fill="#b06689" fill-rule="evenodd"></path><path id="path2" d="M0.000 200.000 L 0.000 400.000 200.000 400.000 L 400.000 400.000 400.000 200.000 L 400.000 0.000 200.000 0.000 L 0.000 0.000 0.000 200.000 M225.573 18.194 C 229.342 18.987,231.033 19.737,232.433 21.236 C 234.074 22.992,235.286 23.190,247.000 23.612 C 260.036 24.082,261.993 24.460,264.200 26.933 C 266.012 28.963,267.304 29.307,275.000 29.811 C 280.012 30.138,282.005 30.983,283.407 33.375 C 284.190 34.711,284.765 35.181,286.101 35.575 C 288.742 36.355,291.507 38.000,293.054 39.713 C 294.140 40.915,295.055 41.444,297.020 42.006 C 300.189 42.912,301.132 43.544,302.400 45.611 C 303.290 47.063,303.763 47.367,306.700 48.375 C 310.780 49.776,311.626 50.321,313.078 52.486 C 313.932 53.759,314.763 54.414,316.306 55.030 C 318.810 56.031,319.930 56.974,320.658 58.694 C 321.041 59.600,321.773 60.258,323.103 60.894 C 324.750 61.681,325.184 62.166,326.400 64.580 C 327.505 66.773,328.053 67.437,329.000 67.730 C 330.620 68.229,332.307 69.867,332.606 71.229 C 332.923 72.672,333.288 72.948,336.404 74.095 C 338.698 74.940,339.104 75.253,339.891 76.792 C 340.451 77.886,341.342 78.843,342.291 79.368 C 343.690 80.142,344.538 81.366,345.800 84.429 C 346.025 84.976,347.123 85.895,348.317 86.534 C 350.148 87.516,350.592 88.005,351.612 90.164 C 352.354 91.733,353.388 93.139,354.398 93.950 C 356.442 95.593,357.582 97.835,358.177 101.388 L 358.649 104.200 360.529 105.098 C 361.661 105.639,362.712 106.515,363.170 107.298 C 365.192 110.761,365.761 111.450,367.134 112.088 C 369.284 113.089,370.065 114.709,370.450 118.964 C 370.953 124.521,371.876 127.511,373.396 128.507 C 375.665 129.995,376.448 132.787,376.673 140.200 C 376.878 146.945,377.517 150.170,378.835 151.104 C 381.526 153.011,382.730 157.339,383.163 166.667 C 383.525 174.484,383.907 176.268,385.530 177.737 C 388.505 180.429,389.852 194.988,388.813 213.200 C 388.278 222.570,388.056 223.544,386.050 225.277 C 383.732 227.280,383.623 227.707,383.190 236.482 C 382.642 247.598,381.863 251.263,379.705 252.874 C 377.558 254.476,376.866 257.228,376.553 265.400 C 376.257 273.116,375.886 274.234,373.000 276.109 L 371.000 277.409 370.693 281.404 C 370.270 286.903,369.107 289.300,366.357 290.342 C 365.455 290.683,365.194 291.214,364.429 294.267 C 363.376 298.464,362.455 300.093,360.649 300.950 C 358.880 301.789,358.550 302.240,357.972 304.605 C 357.111 308.130,353.235 312.328,348.903 314.428 C 346.221 315.728,346.318 315.563,345.593 320.000 C 344.923 324.101,344.643 324.532,341.539 326.233 C 339.672 327.257,338.526 328.179,338.118 328.986 C 337.473 330.262,335.695 331.961,334.978 331.986 C 334.406 332.005,332.278 334.309,331.384 335.876 C 330.984 336.577,330.047 337.477,329.302 337.876 C 328.557 338.274,327.574 339.230,327.118 340.000 C 324.328 344.707,324.100 344.867,319.104 345.633 C 315.755 346.147,315.537 346.302,314.011 349.249 C 312.139 352.862,307.985 356.622,304.729 357.650 C 302.172 358.457,301.800 358.713,300.779 360.371 C 299.359 362.676,298.195 363.349,294.210 364.166 C 290.685 364.888,290.667 364.899,289.657 366.836 C 288.407 369.235,285.315 370.509,281.306 370.279 L 278.012 370.089 276.647 371.600 C 275.896 372.432,275.172 373.459,275.037 373.884 C 274.515 375.529,272.425 376.000,265.656 376.000 C 258.214 376.000,254.941 376.812,252.309 379.313 C 249.953 381.551,247.994 381.985,238.348 382.404 C 233.646 382.609,229.249 382.939,228.577 383.138 C 226.643 383.710,224.800 384.775,224.800 385.319 C 224.800 389.560,183.394 389.504,177.955 385.256 C 175.128 383.048,173.712 382.683,166.600 382.330 C 158.909 381.949,156.893 381.489,153.200 379.274 C 149.459 377.030,147.353 376.493,140.534 376.043 C 133.443 375.574,130.437 374.834,129.082 373.224 C 127.579 371.438,124.703 370.391,119.800 369.843 C 114.796 369.284,113.997 368.910,112.444 366.400 C 111.629 365.084,110.704 364.277,109.003 363.400 C 107.453 362.600,106.233 361.588,105.348 360.366 C 104.169 358.738,103.759 358.475,101.710 358.031 C 98.115 357.251,95.510 355.906,94.068 354.085 C 93.357 353.188,91.899 351.914,90.827 351.255 C 89.756 350.596,88.547 349.583,88.140 349.003 C 86.251 346.315,85.316 345.465,83.243 344.547 C 82.006 344.000,80.191 342.723,79.169 341.681 C 78.155 340.646,76.796 339.413,76.149 338.941 C 75.319 338.335,74.818 337.480,74.449 336.041 C 74.077 334.589,73.576 333.740,72.713 333.100 C 71.051 331.867,68.356 329.168,67.459 327.840 C 67.033 327.208,65.709 326.304,64.341 325.711 C 62.438 324.885,61.759 324.332,60.944 322.940 C 60.383 321.983,59.775 321.200,59.593 321.200 C 58.696 321.200,56.711 318.888,55.615 316.570 C 54.704 314.641,53.928 313.651,52.589 312.707 C 50.808 311.452,49.307 308.988,47.969 305.125 C 47.680 304.292,46.727 303.040,45.780 302.248 C 44.456 301.141,43.824 300.134,42.778 297.462 C 41.693 294.691,41.144 293.837,39.739 292.739 C 38.360 291.662,37.735 290.709,36.542 287.866 C 35.464 285.298,34.688 284.050,33.703 283.299 C 31.547 281.654,30.714 279.573,30.344 274.903 C 29.857 268.761,29.032 265.678,27.427 264.000 C 24.877 261.334,24.800 260.963,24.400 249.486 C 24.012 238.366,23.492 234.669,22.065 232.881 C 18.700 228.665,18.350 226.507,18.130 208.600 C 17.816 183.131,18.360 176.963,21.291 172.741 C 23.966 168.886,24.296 167.149,24.582 155.397 C 24.860 143.987,25.053 143.117,27.597 141.801 C 29.262 140.941,30.018 138.318,30.365 132.200 C 30.695 126.398,30.868 125.914,33.566 123.267 C 35.235 121.629,35.557 121.031,36.183 118.400 C 37.087 114.603,37.786 113.477,40.229 111.879 C 41.850 110.817,42.369 110.166,43.197 108.147 C 43.749 106.801,45.027 104.790,46.037 103.677 C 47.291 102.296,48.100 100.916,48.588 99.327 C 49.714 95.660,50.640 94.332,53.223 92.675 C 54.530 91.836,55.600 90.884,55.600 90.559 C 55.600 89.460,57.169 86.884,58.536 85.739 C 59.284 85.112,60.282 83.716,60.754 82.636 C 62.785 77.985,65.987 75.143,69.800 74.604 C 73.181 74.126,74.069 73.163,74.607 69.395 C 75.162 65.511,77.143 63.264,82.334 60.634 C 83.485 60.050,85.059 58.873,85.831 58.018 C 86.683 57.075,87.967 56.214,89.094 55.830 C 91.045 55.165,92.800 53.807,92.800 52.961 C 92.800 51.646,94.934 50.031,98.501 48.646 C 101.377 47.530,102.457 46.888,103.355 45.758 C 104.048 44.886,105.406 43.912,106.755 43.321 C 110.627 41.623,110.911 41.431,111.447 40.148 C 111.999 38.827,113.915 36.993,115.098 36.654 C 121.398 34.843,121.451 34.819,122.754 33.197 C 124.936 30.482,125.578 30.236,131.176 29.971 C 137.159 29.687,141.047 28.732,141.435 27.450 C 142.300 24.590,144.506 24.082,157.000 23.867 C 167.258 23.690,170.053 23.198,172.200 21.191 C 174.084 19.430,176.533 18.364,179.483 18.021 C 184.858 17.396,222.449 17.537,225.573 18.194 M149.204 76.839 C 145.458 77.490,144.842 79.754,144.818 92.955 C 144.802 101.471,144.658 103.030,143.705 105.000 C 143.117 106.215,140.968 108.400,140.361 108.400 C 139.808 108.400,139.306 111.132,138.818 116.788 C 138.285 122.980,137.843 124.157,135.447 125.764 C 132.966 127.429,132.897 127.634,132.402 134.771 C 131.901 141.998,131.458 143.281,128.922 144.848 C 126.646 146.255,126.351 147.512,125.975 157.395 C 125.394 172.627,125.241 173.531,123.019 174.842 C 120.733 176.191,120.000 177.797,120.000 181.458 C 120.000 188.737,118.853 193.467,116.414 196.245 C 114.254 198.705,113.684 201.799,113.463 212.267 C 113.238 222.875,112.951 224.063,110.058 226.354 L 108.400 227.667 108.400 231.185 C 108.400 236.009,104.472 235.557,147.600 235.689 C 188.029 235.813,185.483 235.648,187.484 238.278 C 188.555 239.685,188.599 239.925,188.574 244.172 C 188.521 253.035,188.326 253.766,185.206 256.779 L 182.493 259.400 182.236 265.539 C 181.938 272.629,181.567 273.851,179.000 276.191 C 176.639 278.345,176.424 279.411,176.008 291.000 C 175.706 299.412,175.417 302.501,174.572 306.338 C 174.459 306.854,173.846 307.754,173.210 308.338 C 171.195 310.190,170.000 314.642,170.000 320.301 C 170.000 330.082,168.796 336.872,166.653 339.173 C 164.201 341.808,163.221 346.424,164.701 348.367 L 165.743 349.734 166.871 348.382 C 167.492 347.639,168.000 346.789,168.000 346.495 C 168.000 345.183,169.247 343.647,170.693 343.178 C 172.743 342.513,174.302 341.361,174.601 340.290 C 175.126 338.414,175.830 337.499,177.501 336.519 C 178.508 335.930,179.546 334.897,179.981 334.053 C 180.932 332.208,182.044 331.035,184.022 329.786 C 184.886 329.241,186.050 328.103,186.609 327.258 C 187.643 325.696,188.604 325.034,190.400 324.647 C 190.950 324.528,191.987 323.839,192.705 323.116 C 193.423 322.392,194.593 321.212,195.305 320.493 C 196.017 319.775,196.948 318.850,197.373 318.438 C 197.798 318.026,198.715 316.637,199.410 315.351 C 200.543 313.255,200.969 312.862,203.513 311.566 C 205.654 310.475,207.514 308.983,211.076 305.502 C 213.674 302.963,217.292 299.471,219.115 297.743 C 222.255 294.766,224.800 291.247,224.800 289.882 C 224.800 289.246,225.921 288.243,228.398 286.663 C 229.167 286.172,230.250 284.912,230.805 283.863 C 231.490 282.567,232.430 281.572,233.736 280.759 C 234.794 280.100,235.961 279.008,236.330 278.330 C 237.573 276.046,238.745 274.943,240.476 274.425 C 243.245 273.597,245.812 272.139,247.000 270.720 C 247.608 269.994,249.283 268.378,250.722 267.130 C 253.641 264.598,254.015 264.050,255.197 260.564 C 256.244 257.474,257.536 256.250,261.017 255.046 C 262.548 254.517,264.105 253.960,264.478 253.808 C 264.851 253.656,265.878 252.575,266.761 251.405 C 267.644 250.236,269.272 248.692,270.378 247.975 C 272.330 246.711,272.429 246.553,273.695 242.684 C 275.034 238.593,275.286 238.248,278.394 236.266 C 279.161 235.777,280.187 234.662,280.675 233.788 C 281.183 232.878,282.460 231.601,283.667 230.797 C 284.825 230.025,286.177 228.765,286.671 227.997 C 288.648 224.926,288.572 224.976,292.666 224.038 C 294.830 223.542,296.802 223.075,297.049 223.001 C 297.296 222.926,297.900 222.033,298.391 221.018 C 299.216 219.314,301.560 217.200,302.623 217.200 C 303.260 217.200,304.593 215.596,305.167 214.140 C 305.743 212.678,306.830 211.591,308.799 210.504 C 310.137 209.766,310.244 209.537,311.258 205.243 C 312.499 199.989,312.795 199.587,316.489 198.137 L 319.284 197.040 317.942 196.580 C 317.022 196.265,308.559 196.030,291.009 195.835 C 262.447 195.518,263.440 195.623,261.980 192.761 C 260.558 189.974,261.771 185.352,264.694 182.418 C 266.543 180.563,267.975 178.035,267.992 176.600 C 268.007 175.282,270.226 170.995,271.352 170.109 C 273.988 168.036,273.982 168.100,273.989 144.000 C 273.995 119.526,274.226 121.440,270.929 118.617 C 269.243 117.175,268.000 114.785,267.172 111.395 C 266.577 108.960,266.170 108.400,264.992 108.400 C 263.865 108.400,261.774 106.101,261.415 104.467 C 261.121 103.129,260.154 102.052,257.794 100.433 C 256.432 99.499,255.987 98.804,254.877 95.880 C 253.103 91.212,249.987 89.203,244.510 89.198 C 240.196 89.194,238.563 88.321,235.717 84.500 C 234.911 83.418,234.557 83.289,231.717 83.038 C 226.328 82.561,224.201 81.535,222.581 78.629 C 221.608 76.885,218.425 76.717,183.800 76.583 C 164.419 76.508,150.518 76.611,149.204 76.839 " stroke="none" fill="#fbfbfb" fill-rule="evenodd"></path><path id="path3" d="M179.483 18.021 C 176.533 18.364,174.084 19.430,172.200 21.191 C 170.053 23.198,167.258 23.690,157.000 23.867 C 144.506 24.082,142.300 24.590,141.435 27.450 C 141.047 28.732,137.159 29.687,131.176 29.971 C 125.578 30.236,124.936 30.482,122.754 33.197 C 121.451 34.819,121.398 34.843,115.098 36.654 C 113.915 36.993,111.999 38.827,111.447 40.148 C 110.911 41.431,110.627 41.623,106.755 43.321 C 105.406 43.912,104.048 44.886,103.355 45.758 C 102.457 46.888,101.377 47.530,98.501 48.646 C 94.934 50.031,92.800 51.646,92.800 52.961 C 92.800 53.807,91.045 55.165,89.094 55.830 C 87.967 56.214,86.683 57.075,85.831 58.018 C 85.059 58.873,83.485 60.050,82.334 60.634 C 77.143 63.264,75.162 65.511,74.607 69.395 C 74.069 73.163,73.181 74.126,69.800 74.604 C 65.987 75.143,62.785 77.985,60.754 82.636 C 60.282 83.716,59.284 85.112,58.536 85.739 C 57.169 86.884,55.600 89.460,55.600 90.559 C 55.600 90.884,54.530 91.836,53.223 92.675 C 50.640 94.332,49.714 95.660,48.588 99.327 C 48.100 100.916,47.291 102.296,46.037 103.677 C 45.027 104.790,43.749 106.801,43.197 108.147 C 42.373 110.154,41.847 110.819,40.262 111.856 C 37.872 113.420,37.261 114.275,36.529 117.078 C 35.762 120.015,36.021 120.082,37.361 117.295 C 38.106 115.744,39.063 114.546,40.311 113.600 C 43.031 111.539,43.693 110.848,45.487 108.200 C 46.382 106.880,47.870 104.990,48.794 104.000 C 50.821 101.829,51.417 100.735,51.788 98.502 C 52.062 96.849,53.456 95.200,54.579 95.200 C 55.342 95.200,57.059 93.150,58.065 91.037 C 58.579 89.958,59.359 88.878,59.798 88.637 C 62.011 87.425,62.908 86.560,63.822 84.756 C 64.460 83.498,65.515 82.285,66.734 81.409 C 67.785 80.654,68.881 79.596,69.169 79.058 C 69.655 78.150,71.327 77.201,73.513 76.592 C 74.685 76.266,76.266 74.685,76.592 73.513 C 77.217 71.269,78.120 69.746,79.190 69.131 C 79.827 68.766,80.810 67.734,81.376 66.838 C 82.097 65.697,83.109 64.854,84.761 64.019 C 87.040 62.869,88.800 61.208,88.800 60.208 C 88.800 59.455,90.041 58.583,91.845 58.069 C 93.798 57.513,95.566 55.872,95.874 54.328 C 96.174 52.831,96.548 52.613,99.800 52.046 C 103.763 51.355,105.571 50.364,107.000 48.101 C 107.918 46.646,108.738 45.944,110.489 45.109 C 112.423 44.187,112.936 43.706,113.803 41.994 C 114.950 39.730,115.485 39.435,119.183 39.027 C 122.851 38.622,124.204 37.952,125.167 36.064 C 126.499 33.454,127.969 32.663,130.924 32.966 C 137.767 33.669,142.819 32.279,144.376 29.266 C 145.712 26.681,145.753 26.672,159.000 26.374 C 172.363 26.072,174.851 25.651,177.356 23.263 C 179.862 20.874,182.543 20.600,203.400 20.600 C 223.676 20.600,222.885 20.510,226.000 23.168 C 228.405 25.221,233.169 26.006,244.800 26.266 C 256.294 26.523,258.087 26.864,260.252 29.204 C 262.227 31.339,264.235 32.033,269.600 32.435 C 278.953 33.136,278.590 33.011,281.145 36.387 C 281.665 37.073,283.285 38.255,284.745 39.012 C 286.205 39.770,288.398 41.200,289.617 42.191 C 291.350 43.599,292.482 44.152,294.803 44.722 C 297.664 45.425,297.841 45.539,299.615 47.826 C 301.285 49.978,301.782 50.331,304.939 51.600 C 307.652 52.691,308.749 53.379,309.910 54.717 C 311.072 56.056,312.061 56.676,314.400 57.531 C 316.818 58.415,317.507 58.858,317.953 59.814 C 318.765 61.555,319.535 62.315,321.657 63.470 C 323.463 64.453,324.800 66.248,324.800 67.691 C 324.800 68.405,326.202 69.705,327.896 70.561 C 328.642 70.939,329.538 71.894,330.007 72.813 C 330.664 74.101,331.341 74.660,333.511 75.705 C 335.648 76.734,336.446 77.385,337.400 78.878 C 338.060 79.911,339.259 81.129,340.065 81.584 C 341.127 82.184,341.885 83.120,342.826 84.991 C 343.847 87.023,344.552 87.850,346.150 88.885 C 348.254 90.249,348.672 90.850,349.839 94.189 C 350.226 95.297,351.298 96.994,352.259 98.022 C 353.208 99.037,354.597 101.202,355.345 102.833 C 356.713 105.817,357.633 106.893,359.767 108.000 C 360.423 108.340,361.161 109.206,361.472 110.000 C 362.446 112.484,363.099 113.376,364.864 114.632 C 366.820 116.024,367.225 117.203,368.015 123.800 C 368.614 128.808,368.957 129.657,371.221 131.743 C 373.879 134.191,373.885 134.214,374.402 144.432 C 374.899 154.267,374.990 154.621,377.687 157.238 C 379.694 159.186,379.838 159.871,380.369 170.000 C 380.761 177.495,381.296 180.499,382.846 183.901 C 384.991 188.608,385.596 192.658,385.641 202.600 C 385.682 211.529,384.407 218.364,381.703 223.714 C 380.604 225.887,380.028 230.448,380.011 237.121 C 379.995 243.212,379.133 246.536,376.967 248.865 C 376.013 249.891,375.137 251.151,375.020 251.665 C 374.511 253.904,373.999 259.692,373.981 263.390 C 373.953 269.510,373.292 272.448,371.776 273.198 C 368.406 274.863,367.600 276.428,367.600 281.298 C 367.600 285.106,367.232 285.881,364.772 287.264 C 362.635 288.465,361.716 290.062,360.855 294.071 C 360.288 296.712,359.955 297.493,359.245 297.850 C 357.554 298.698,356.021 300.531,355.375 302.474 C 355.020 303.544,354.184 304.910,353.517 305.510 C 352.851 306.109,351.292 307.603,350.053 308.828 C 348.814 310.054,346.939 311.468,345.887 311.970 C 343.251 313.229,342.403 314.956,342.391 319.084 C 342.380 322.985,341.877 323.718,338.636 324.550 C 336.791 325.024,335.906 325.536,334.612 326.879 C 333.699 327.825,332.299 329.050,331.501 329.600 C 330.703 330.150,329.589 331.320,329.025 332.200 C 328.461 333.080,327.378 334.223,326.618 334.739 C 325.276 335.651,324.921 336.348,324.025 339.835 C 323.486 341.930,322.471 342.400,318.481 342.401 C 314.293 342.401,312.961 343.103,311.391 346.135 C 310.670 347.528,309.539 348.948,308.591 349.653 C 307.716 350.303,306.634 351.484,306.187 352.277 C 305.395 353.682,303.226 355.198,302.006 355.201 C 300.817 355.204,298.819 356.795,298.008 358.384 C 297.555 359.273,296.962 360.006,296.692 360.014 C 292.157 360.143,287.825 361.870,286.902 363.918 C 285.535 366.948,285.082 367.200,280.990 367.200 C 275.922 367.200,275.160 367.533,273.619 370.424 C 272.923 371.731,272.319 372.801,272.277 372.802 C 272.234 372.804,271.183 372.971,269.940 373.175 C 268.697 373.378,265.547 373.656,262.940 373.792 C 256.172 374.144,252.845 374.741,251.300 375.881 C 250.585 376.409,250.000 376.706,250.000 376.542 C 250.000 376.378,249.397 376.827,248.661 377.541 C 247.491 378.675,246.797 378.934,243.161 379.596 C 232.197 381.593,228.156 382.856,233.600 382.585 C 235.470 382.491,239.267 382.320,242.038 382.205 C 247.903 381.959,250.208 381.309,252.318 379.305 C 254.940 376.813,258.223 376.000,265.656 376.000 C 272.425 376.000,274.515 375.529,275.037 373.884 C 275.172 373.459,275.896 372.432,276.647 371.600 L 278.012 370.089 281.306 370.279 C 285.315 370.509,288.407 369.235,289.657 366.836 C 290.667 364.899,290.685 364.888,294.210 364.166 C 298.195 363.349,299.359 362.676,300.779 360.371 C 301.800 358.713,302.172 358.457,304.729 357.650 C 307.985 356.622,312.139 352.862,314.011 349.249 C 315.537 346.302,315.755 346.147,319.104 345.633 C 324.100 344.867,324.328 344.707,327.118 340.000 C 327.574 339.230,328.557 338.274,329.302 337.876 C 330.047 337.477,330.984 336.577,331.384 335.876 C 332.278 334.309,334.406 332.005,334.978 331.986 C 335.695 331.961,337.473 330.262,338.118 328.986 C 338.526 328.179,339.672 327.257,341.539 326.233 C 344.643 324.532,344.923 324.101,345.593 320.000 C 346.318 315.563,346.221 315.728,348.903 314.428 C 353.235 312.328,357.111 308.130,357.972 304.605 C 358.550 302.240,358.880 301.789,360.649 300.950 C 362.455 300.093,363.376 298.464,364.429 294.267 C 365.194 291.214,365.455 290.683,366.357 290.342 C 369.107 289.300,370.270 286.903,370.693 281.404 L 371.000 277.409 373.000 276.109 C 375.886 274.234,376.257 273.116,376.553 265.400 C 376.866 257.228,377.558 254.476,379.705 252.874 C 381.863 251.263,382.642 247.598,383.190 236.482 C 383.623 227.707,383.732 227.280,386.050 225.277 C 388.056 223.544,388.278 222.570,388.813 213.200 C 389.852 194.988,388.505 180.429,385.530 177.737 C 383.907 176.268,383.525 174.484,383.163 166.667 C 382.730 157.339,381.526 153.011,378.835 151.104 C 377.517 150.170,376.878 146.945,376.673 140.200 C 376.448 132.787,375.665 129.995,373.396 128.507 C 371.876 127.511,370.953 124.521,370.450 118.964 C 370.065 114.709,369.284 113.089,367.134 112.088 C 365.761 111.450,365.192 110.761,363.170 107.298 C 362.712 106.515,361.661 105.639,360.529 105.098 L 358.649 104.200 358.177 101.388 C 357.582 97.835,356.442 95.593,354.398 93.950 C 353.388 93.139,352.354 91.733,351.612 90.164 C 350.592 88.005,350.148 87.516,348.317 86.534 C 347.123 85.895,346.025 84.976,345.800 84.429 C 344.538 81.366,343.690 80.142,342.291 79.368 C 341.342 78.843,340.451 77.886,339.891 76.792 C 339.104 75.253,338.698 74.940,336.404 74.095 C 333.288 72.948,332.923 72.672,332.606 71.229 C 332.307 69.867,330.620 68.229,329.000 67.730 C 328.053 67.437,327.505 66.773,326.400 64.580 C 325.184 62.166,324.750 61.681,323.103 60.894 C 321.773 60.258,321.041 59.600,320.658 58.694 C 319.930 56.974,318.810 56.031,316.306 55.030 C 314.763 54.414,313.932 53.759,313.078 52.486 C 311.626 50.321,310.780 49.776,306.700 48.375 C 303.763 47.367,303.290 47.063,302.400 45.611 C 301.132 43.544,300.189 42.912,297.020 42.006 C 295.055 41.444,294.140 40.915,293.054 39.713 C 291.507 38.000,288.742 36.355,286.101 35.575 C 284.765 35.181,284.190 34.711,283.407 33.375 C 282.005 30.983,280.012 30.138,275.000 29.811 C 267.304 29.307,266.012 28.963,264.200 26.933 C 261.993 24.460,260.036 24.082,247.000 23.612 C 235.286 23.190,234.074 22.992,232.433 21.236 C 231.033 19.737,229.342 18.987,225.573 18.194 C 222.449 17.537,184.858 17.396,179.483 18.021 M146.300 74.134 C 142.189 75.307,141.959 76.090,141.756 89.600 C 141.563 102.399,141.447 103.524,140.272 103.978 C 137.822 104.925,136.405 108.049,136.386 112.549 C 136.363 117.878,135.462 121.998,134.057 123.197 C 133.410 123.749,132.701 124.560,132.480 125.000 C 132.082 125.797,130.931 132.703,130.215 138.600 C 130.108 139.480,129.579 141.325,129.040 142.700 C 127.968 145.432,127.980 145.494,129.394 144.567 C 131.453 143.218,131.923 141.689,132.402 134.771 C 132.897 127.634,132.966 127.429,135.447 125.764 C 137.843 124.157,138.285 122.980,138.818 116.788 C 139.306 111.132,139.808 108.400,140.361 108.400 C 140.968 108.400,143.117 106.215,143.705 105.000 C 144.658 103.030,144.802 101.471,144.818 92.955 C 144.833 84.647,145.484 78.741,146.496 77.736 C 147.757 76.482,152.646 76.326,184.536 76.519 C 218.332 76.723,221.620 76.906,222.581 78.629 C 224.201 81.535,226.328 82.561,231.717 83.038 C 234.557 83.289,234.911 83.418,235.717 84.500 C 238.563 88.321,240.196 89.194,244.510 89.198 C 249.987 89.203,253.103 91.212,254.877 95.880 C 255.987 98.804,256.432 99.499,257.794 100.433 C 260.154 102.052,261.121 103.129,261.415 104.467 C 261.774 106.101,263.865 108.400,264.992 108.400 C 266.170 108.400,266.577 108.960,267.172 111.395 C 268.000 114.785,269.243 117.175,270.929 118.617 C 274.226 121.440,273.995 119.526,273.989 144.000 C 273.982 168.100,273.988 168.036,271.352 170.109 C 270.226 170.995,268.007 175.282,267.992 176.600 C 267.975 178.035,266.543 180.563,264.694 182.418 C 261.771 185.352,260.558 189.974,261.980 192.761 C 263.440 195.623,262.447 195.518,291.009 195.835 C 308.559 196.030,317.022 196.265,317.942 196.580 L 319.284 197.040 316.489 198.137 C 312.795 199.587,312.499 199.989,311.258 205.243 C 310.244 209.537,310.137 209.766,308.799 210.504 C 306.830 211.591,305.743 212.678,305.167 214.140 C 304.593 215.596,303.260 217.200,302.623 217.200 C 301.560 217.200,299.216 219.314,298.391 221.018 C 297.900 222.033,297.296 222.926,297.049 223.001 C 296.802 223.075,294.830 223.542,292.666 224.038 C 288.572 224.976,288.648 224.926,286.671 227.997 C 286.177 228.765,284.825 230.025,283.667 230.797 C 282.460 231.601,281.183 232.878,280.675 233.788 C 280.187 234.662,279.161 235.777,278.394 236.266 C 275.286 238.248,275.034 238.593,273.695 242.684 C 272.429 246.553,272.330 246.711,270.378 247.975 C 269.272 248.692,267.644 250.236,266.761 251.405 C 265.878 252.575,264.851 253.656,264.478 253.808 C 264.105 253.960,262.548 254.517,261.017 255.046 C 257.536 256.250,256.244 257.474,255.197 260.564 C 254.015 264.050,253.641 264.598,250.722 267.130 C 249.283 268.378,247.608 269.994,247.000 270.720 C 245.812 272.139,243.245 273.597,240.476 274.425 C 238.745 274.943,237.573 276.046,236.330 278.330 C 235.961 279.008,234.794 280.100,233.736 280.759 C 232.430 281.572,231.490 282.567,230.805 283.863 C 230.250 284.912,229.167 286.172,228.398 286.663 C 226.182 288.077,224.800 289.228,224.800 289.659 C 224.800 289.878,225.090 289.767,225.445 289.412 C 225.800 289.057,227.015 288.175,228.146 287.452 C 230.217 286.127,232.800 283.791,232.800 283.243 C 232.800 283.080,233.532 282.536,234.427 282.033 C 235.322 281.530,237.257 279.922,238.727 278.459 C 241.225 275.974,241.648 275.722,245.190 274.609 C 248.307 273.629,249.286 273.116,250.703 271.719 C 251.651 270.785,253.206 269.484,254.159 268.828 C 256.225 267.407,257.077 265.758,257.898 261.590 L 258.510 258.481 261.545 258.029 C 266.735 257.258,270.000 255.614,270.000 253.773 C 270.000 253.164,272.195 251.415,273.428 251.042 C 274.870 250.606,276.059 248.501,276.470 245.658 C 277.263 240.170,277.200 240.305,279.342 239.541 C 281.781 238.671,282.714 237.840,283.628 235.722 C 284.227 234.335,284.622 233.971,285.903 233.626 C 287.784 233.120,288.889 232.001,289.943 229.536 C 290.804 227.524,290.913 227.462,294.800 226.795 C 298.715 226.124,300.519 225.117,301.433 223.097 C 301.998 221.846,302.636 221.190,303.860 220.600 C 306.232 219.457,307.052 218.587,307.850 216.370 C 308.434 214.744,308.834 214.284,310.233 213.627 C 312.392 212.612,313.405 211.294,314.197 208.472 C 315.818 202.692,315.371 203.252,319.567 201.742 C 324.929 199.814,326.251 198.379,325.033 195.813 C 323.539 192.665,321.470 192.456,289.994 192.271 C 272.215 192.167,265.551 192.002,264.895 191.651 L 264.001 191.172 264.970 189.286 C 265.511 188.233,266.471 187.105,267.145 186.733 C 268.686 185.880,269.914 183.461,270.580 179.964 C 271.186 176.788,272.007 175.314,273.362 174.974 C 276.395 174.213,276.955 168.695,276.638 142.677 C 276.336 117.825,276.360 118.016,273.031 114.400 C 272.119 113.410,271.036 111.700,270.622 110.600 C 269.535 107.707,268.822 106.771,267.129 106.013 C 265.367 105.224,264.305 103.979,263.631 101.913 C 263.146 100.425,261.186 98.400,260.231 98.400 C 259.304 98.400,258.554 97.029,258.045 94.400 C 256.902 88.504,255.425 87.398,247.255 86.328 C 241.309 85.549,240.000 85.168,240.000 84.217 C 240.000 81.943,236.532 80.086,231.637 79.738 C 228.035 79.483,226.027 78.539,225.987 77.084 C 225.954 75.903,224.448 74.849,222.162 74.407 C 218.371 73.675,148.787 73.424,146.300 74.134 M31.200 126.000 C 30.921 126.674,30.786 127.319,30.900 127.433 C 31.014 127.547,31.309 127.062,31.556 126.356 C 32.138 124.686,31.859 124.408,31.200 126.000 M30.501 129.400 C 30.505 130.280,30.587 130.593,30.683 130.095 C 30.779 129.598,30.775 128.878,30.675 128.495 C 30.575 128.113,30.496 128.520,30.501 129.400 M124.893 171.200 C 124.893 171.970,124.975 172.285,125.076 171.900 C 125.176 171.515,125.176 170.885,125.076 170.500 C 124.975 170.115,124.893 170.430,124.893 171.200 M187.529 253.000 C 187.398 253.440,187.158 254.160,186.996 254.600 C 186.744 255.286,186.798 255.270,187.379 254.493 C 187.751 253.993,187.991 253.273,187.912 252.893 C 187.787 252.292,187.736 252.306,187.529 253.000 M223.000 385.570 C 222.560 385.745,220.670 386.014,218.800 386.167 C 216.930 386.319,213.150 386.721,210.400 387.058 C 205.484 387.662,203.153 387.653,188.800 386.975 C 186.270 386.855,183.806 386.676,183.325 386.577 C 182.843 386.478,182.350 386.557,182.229 386.753 C 180.829 389.018,219.237 388.814,223.471 386.534 C 225.440 385.473,225.082 384.739,223.000 385.570 " stroke="none" fill="#e4acbc" fill-rule="evenodd"></path><path id="path4" d="M50.800 101.442 C 50.800 101.649,49.971 102.714,48.958 103.809 C 47.945 104.904,46.384 106.880,45.489 108.200 C 43.698 110.840,43.041 111.527,40.323 113.600 C 38.920 114.670,38.056 115.849,36.663 118.600 C 35.660 120.580,34.269 122.731,33.571 123.379 C 31.649 125.167,30.914 127.354,30.452 132.657 C 29.939 138.539,29.156 140.995,27.524 141.840 C 25.197 143.042,24.847 144.703,24.573 155.818 C 24.294 167.115,23.945 168.917,21.291 172.741 C 18.360 176.963,17.816 183.131,18.130 208.600 C 18.350 226.507,18.700 228.665,22.065 232.881 C 23.492 234.669,24.012 238.366,24.400 249.486 C 24.800 260.963,24.877 261.334,27.427 264.000 C 29.032 265.678,29.857 268.761,30.344 274.903 C 30.714 279.573,31.547 281.654,33.703 283.299 C 34.688 284.050,35.464 285.298,36.542 287.866 C 37.735 290.709,38.360 291.662,39.739 292.739 C 41.144 293.837,41.693 294.691,42.778 297.462 C 43.824 300.134,44.456 301.141,45.780 302.248 C 46.727 303.040,47.680 304.292,47.969 305.125 C 49.307 308.988,50.808 311.452,52.589 312.707 C 53.928 313.651,54.704 314.641,55.615 316.570 C 56.711 318.888,58.696 321.200,59.593 321.200 C 59.775 321.200,60.383 321.983,60.944 322.940 C 61.759 324.332,62.438 324.885,64.341 325.711 C 65.709 326.304,67.033 327.208,67.459 327.840 C 68.356 329.168,71.051 331.867,72.713 333.100 C 73.576 333.740,74.077 334.589,74.449 336.041 C 74.818 337.480,75.319 338.335,76.149 338.941 C 76.796 339.413,78.155 340.646,79.169 341.681 C 80.191 342.723,82.006 344.000,83.243 344.547 C 85.316 345.465,86.251 346.315,88.140 349.003 C 88.547 349.583,89.756 350.596,90.827 351.255 C 91.899 351.914,93.357 353.188,94.068 354.085 C 95.510 355.906,98.115 357.251,101.710 358.031 C 103.759 358.475,104.169 358.738,105.348 360.366 C 106.233 361.588,107.453 362.600,109.003 363.400 C 110.704 364.277,111.629 365.084,112.444 366.400 C 113.997 368.910,114.796 369.284,119.800 369.843 C 124.703 370.391,127.579 371.438,129.082 373.224 C 130.437 374.834,133.443 375.574,140.534 376.043 C 147.353 376.493,149.459 377.030,153.200 379.274 C 156.892 381.489,158.909 381.949,166.600 382.331 C 173.830 382.690,174.185 382.787,178.624 385.607 C 179.853 386.388,180.842 386.516,189.200 386.979 C 201.414 387.656,205.140 387.667,210.600 387.042 C 213.680 386.690,217.770 386.243,219.689 386.048 C 222.163 385.798,223.760 385.391,225.177 384.650 C 227.369 383.504,233.123 381.605,237.200 380.682 L 239.800 380.094 235.400 380.059 C 229.559 380.013,225.558 380.572,222.973 381.796 C 221.805 382.348,220.684 382.800,220.481 382.800 C 220.278 382.800,219.463 383.240,218.670 383.778 C 214.426 386.658,189.165 386.337,184.485 383.344 C 180.698 380.921,176.484 379.978,167.670 379.582 C 158.872 379.187,158.593 379.133,157.837 377.671 C 156.297 374.694,154.335 374.150,143.000 373.556 C 134.513 373.112,132.800 372.754,132.800 371.421 C 132.800 368.960,129.226 367.404,122.200 366.807 C 115.658 366.251,115.703 366.267,115.199 364.397 C 114.705 362.563,113.285 361.323,111.259 360.958 C 109.119 360.572,108.532 360.162,108.274 358.870 C 107.853 356.764,106.189 355.290,103.241 354.412 C 101.181 353.799,100.405 353.357,99.975 352.554 C 99.268 351.232,95.133 348.513,93.005 347.970 C 92.122 347.745,91.198 347.494,90.951 347.412 C 90.703 347.331,90.380 346.620,90.233 345.834 C 89.819 343.627,88.545 342.480,85.837 341.879 C 83.545 341.369,83.460 341.304,82.976 339.664 C 82.311 337.414,81.814 336.888,79.853 336.364 C 77.679 335.783,77.272 335.403,76.957 333.660 C 76.426 330.722,75.271 329.277,73.100 328.833 C 72.241 328.657,71.763 328.304,71.680 327.784 C 71.275 325.242,69.988 323.982,67.200 323.400 C 65.265 322.996,64.939 322.646,64.400 320.400 C 63.853 318.120,63.358 317.616,60.864 316.800 C 58.852 316.142,58.511 315.534,58.440 312.483 C 58.399 310.704,55.731 307.149,54.033 306.610 C 53.605 306.475,53.160 305.611,52.842 304.297 C 51.805 300.014,51.598 299.615,49.982 298.791 C 49.129 298.356,48.077 298.000,47.643 298.000 C 46.794 298.000,46.604 297.581,46.192 294.800 C 45.771 291.959,44.089 288.866,42.377 287.785 C 41.287 287.098,40.697 286.321,40.198 284.921 C 39.821 283.864,39.332 282.507,39.110 281.904 C 38.661 280.686,36.556 279.200,35.280 279.200 C 34.191 279.200,34.115 278.852,33.609 271.600 C 33.041 263.461,32.543 261.763,30.071 259.537 C 27.502 257.224,27.203 255.896,27.187 246.723 C 27.162 233.605,25.818 226.230,23.213 224.932 C 21.163 223.910,20.827 220.022,20.938 198.600 C 21.027 181.225,21.303 178.508,23.074 177.561 C 25.726 176.141,26.437 172.354,26.684 158.312 C 26.918 145.023,26.713 145.913,30.000 143.863 C 32.347 142.399,32.812 140.884,33.041 133.954 C 33.242 127.866,33.774 125.600,35.001 125.600 C 36.702 125.600,38.053 123.385,38.661 119.600 C 39.317 115.514,39.842 114.681,42.755 113.108 C 43.634 112.634,44.333 111.747,44.977 110.290 C 45.595 108.893,46.567 107.632,47.813 106.611 C 49.582 105.161,51.588 101.854,51.033 101.300 C 50.905 101.172,50.800 101.236,50.800 101.442 M131.466 125.195 C 130.249 126.641,130.110 127.391,129.833 134.000 C 129.540 140.981,129.432 141.374,127.570 142.213 C 124.318 143.680,123.985 145.015,123.583 158.200 C 123.235 169.590,122.852 172.211,121.471 172.627 C 118.472 173.532,117.200 176.275,117.200 181.841 C 117.200 188.374,116.586 191.074,114.920 191.865 C 111.633 193.425,111.174 195.275,110.768 208.600 C 110.344 222.525,110.431 222.066,107.930 223.605 C 105.155 225.313,104.640 226.694,104.912 231.698 C 105.385 240.377,101.680 239.700,146.907 239.366 C 190.809 239.041,186.010 238.427,185.981 244.362 C 185.949 250.962,185.346 253.146,183.211 254.394 C 180.290 256.102,179.860 257.245,179.526 264.196 C 179.170 271.612,178.963 272.403,177.151 273.267 C 174.153 274.698,173.921 275.705,173.578 288.800 C 173.248 301.404,172.954 303.194,171.032 304.328 C 168.186 306.007,167.380 309.396,167.031 321.152 C 166.779 329.642,166.429 331.486,164.790 332.946 C 159.973 337.238,159.268 350.904,163.787 352.396 C 166.923 353.431,169.610 351.826,170.771 348.225 C 171.117 347.152,171.670 346.151,172.000 346.002 C 174.730 344.762,175.068 344.459,176.208 342.234 C 177.455 339.802,177.569 339.695,180.118 338.565 C 181.554 337.928,182.800 336.310,182.800 335.082 C 182.800 334.330,183.942 333.347,186.051 332.282 C 187.294 331.656,188.032 330.923,188.600 329.753 C 189.790 327.304,190.255 326.899,192.685 326.192 C 195.683 325.321,200.653 320.462,201.043 318.020 C 201.509 315.106,202.452 314.109,205.263 313.556 C 207.820 313.053,209.378 311.951,214.444 307.062 C 215.238 306.296,217.865 303.950,220.283 301.848 C 224.825 297.900,226.400 295.327,226.400 291.854 C 226.400 290.743,227.184 290.014,229.609 288.870 C 231.334 288.056,232.800 286.328,232.800 285.108 C 232.800 284.352,234.294 283.050,235.881 282.424 C 237.228 281.893,238.089 280.864,238.579 279.200 C 238.872 278.206,238.871 278.205,238.246 279.055 C 237.900 279.526,236.578 280.594,235.309 281.428 C 234.039 282.262,232.835 283.220,232.634 283.556 C 232.022 284.575,229.927 286.345,227.502 287.893 C 226.238 288.700,225.092 289.729,224.956 290.180 C 224.450 291.863,221.949 295.092,218.899 298.000 C 217.169 299.650,213.493 303.173,210.730 305.829 C 207.967 308.485,205.008 310.983,204.153 311.379 C 201.598 312.565,200.024 313.957,199.159 315.798 C 198.709 316.755,197.949 317.907,197.471 318.358 C 196.992 318.810,196.017 319.769,195.305 320.489 C 194.593 321.210,193.423 322.392,192.705 323.116 C 191.987 323.839,190.950 324.528,190.400 324.647 C 188.604 325.034,187.643 325.696,186.609 327.258 C 186.050 328.103,184.886 329.241,184.022 329.786 C 182.044 331.035,180.932 332.208,179.981 334.053 C 179.546 334.897,178.508 335.930,177.501 336.519 C 175.830 337.499,175.126 338.414,174.601 340.290 C 174.302 341.361,172.743 342.513,170.693 343.178 C 169.247 343.647,168.000 345.183,168.000 346.495 C 168.000 346.789,167.492 347.639,166.871 348.382 L 165.743 349.734 164.701 348.367 C 163.221 346.424,164.201 341.808,166.653 339.173 C 168.796 336.872,170.000 330.082,170.000 320.301 C 170.000 314.642,171.195 310.190,173.210 308.338 C 173.846 307.754,174.459 306.854,174.572 306.338 C 175.417 302.501,175.706 299.412,176.008 291.000 C 176.424 279.411,176.639 278.345,179.000 276.191 C 181.577 273.842,181.946 272.620,182.257 265.396 L 182.527 259.136 184.589 257.357 C 188.609 253.885,190.388 242.082,187.468 238.253 C 185.484 235.652,187.990 235.813,147.600 235.689 C 104.472 235.557,108.400 236.009,108.400 231.185 L 108.400 227.667 110.058 226.354 C 112.951 224.063,113.238 222.875,113.463 212.267 C 113.684 201.799,114.254 198.705,116.414 196.245 C 118.853 193.467,120.000 188.737,120.000 181.458 C 120.000 177.897,120.805 176.032,122.782 175.009 C 124.815 173.958,125.447 170.433,125.967 157.267 C 126.306 148.684,126.362 148.254,127.398 146.267 C 128.818 143.546,129.984 140.408,130.197 138.742 C 131.101 131.660,132.075 125.811,132.473 125.066 C 133.136 123.825,132.556 123.899,131.466 125.195 M245.200 274.644 C 242.085 275.767,241.725 275.975,243.200 275.796 C 245.607 275.504,248.626 274.492,249.218 273.778 C 249.863 273.001,249.599 273.058,245.200 274.644 M251.100 375.429 C 250.495 375.757,250.000 376.205,250.000 376.425 C 250.000 376.644,250.540 376.425,251.200 375.937 C 252.917 374.667,252.877 374.465,251.100 375.429 " stroke="none" fill="#8cccec" fill-rule="evenodd"></path></g></svg>