<svg xmlns="http://www.w3.org/2000/svg" width="32" height="32" viewBox="0 0 400 400"><g fill-rule="evenodd"><path d="M204.541 107.117c.981.427 1.173 49.579.199 50.759-.495.598-.267.631 2.722.382 3.049-.253 3.336-.209 4.4.677.851.708 1.845 1.014 3.938 1.215 1.54.148 3.61.522 4.6.832.99.309 2.61.79 3.6 1.068 2.635.74 6.29 2.723 6.992 3.793.335.512.839.843 1.12.736.593-.228 2.407 1.044 5.031 3.527 1.021.967 2.643 2.254 3.603 2.861.961.606 1.829 1.415 1.929 1.798.1.383.709 1.008 1.354 1.388.644.381 1.171.955 1.171 1.277 0 .562 1.25 3.056 2.792 5.57 1.609 2.622 3.936 7.36 4.195 8.541.151.688.441 1.353.644 1.478.203.126.369.927.369 1.781 0 .854.149 1.645.332 1.758 1.779 1.099 2.264 16.502.693 22.042a87.44 87.44 0 0 0-1.185 4.8c-.525 2.499-4.611 10.804-6.573 13.36-1.615 2.103-2.307 3.303-2.606 4.519-.146.593-.781 1.383-1.411 1.755l-1.146.677 1.248 2.109c.742 1.255 2.005 2.627 3.116 3.385 1.027.702 2.377 1.897 3 2.655.623.758 1.629 1.981 2.236 2.717.608.736 1.508 1.447 2 1.58.493.132 1.346.885 1.896 1.671.55.787 1.245 1.643 1.544 1.901.425.368 6.411 6.385 11.808 11.871.325.33.829.82 1.119 1.089.291.269.767.719 1.058 1 1.893 1.829 2.346 2.198 2.98 2.432.39.143.821.58.959.97.358 1.019 2.188 2.909 2.816 2.909.604 0 4.916-4.178 4.916-4.763 0-.209.231-.618.513-.908 1.006-1.037 2.287-3.062 2.287-3.616 0-.62 2.019-2.711 2.622-2.716.381-.002 1.723-1.81 2.926-3.942.359-.635 1.327-2.159 2.152-3.386.825-1.227 1.5-2.485 1.5-2.796 0-.311.326-.994.724-1.519.399-.525.937-1.69 1.197-2.589s.834-1.962 1.276-2.362c.441-.4.803-1.048.803-1.441s.166-.817.369-.943c.203-.125.494-.811.646-1.524.151-.712.726-2.257 1.277-3.432.582-1.242.992-2.822.979-3.771-.025-1.784.77-4.032 1.844-5.219.976-1.078 2.254-7.796 2.845-14.954.203-2.465.475-4.651.603-4.859.41-.664.344-12.192-.081-14.06-.226-.99-.539-3.33-.696-5.2-.554-6.596-1.964-13.433-3.068-14.881-1.09-1.429-1.694-3.441-1.576-5.244.041-.619-.488-2.329-1.175-3.8-3.514-7.524-5.75-11.906-6.216-12.186-.285-.17-.412-.585-.284-.92.129-.335-.128-1.006-.57-1.489-.442-.484-1.099-1.465-1.46-2.18-.362-.715-.833-1.3-1.047-1.3-.215 0-.39-.262-.39-.582 0-.836-3.117-5.17-3.936-5.473-.379-.14-1.044-.931-1.477-1.757-.433-.827-1.147-1.949-1.587-2.494-1.869-2.316-5.679-6.375-6.926-7.38-.741-.597-2.067-1.902-2.945-2.9-.878-.998-1.931-1.814-2.339-1.814-.408 0-1.506-.906-2.44-2.013-.933-1.107-2.339-2.395-3.123-2.863-.785-.468-1.877-1.25-2.427-1.738s-1.9-1.378-3-1.979c-1.1-.6-2.225-1.274-2.5-1.498-.275-.224-.5-.288-.5-.142 0 .145-.225.073-.5-.16-1.78-1.513-10.474-5.607-11.907-5.607-.753 0-1.193-.206-1.193-.557 0-.588-.833-1.043-1.907-1.043-.353 0-1.032-.367-1.51-.816-.477-.449-1.569-.918-2.426-1.044-.856-.126-2.783-.659-4.281-1.184-1.498-.526-3.217-.956-3.82-.956-.603 0-1.28-.184-1.504-.408-.225-.225-2.556-.596-5.18-.824-2.625-.228-5.762-.697-6.972-1.043-2.245-.64-12.418-1.2-11.059-.608m37.445 17.656c.338.633.261.822-.427 1.04-1.003.318-1.76-.312-1.425-1.186.333-.866 1.353-.786 1.852.146m24.959 9.427c.156.408-.022.6-.558.6-.786 0-1.025-.429-.52-.933.432-.432.831-.309 1.078.333m13.855 15.824c0 .453-.18.712-.4.576-.22-.136-.4-.507-.4-.824 0-.317.18-.576.4-.576.22 0 .4.371.4.824m-176.747 7.252c-.076 2.11-.314 2.071 13.74 2.248 18.493.233 39.402-.276 36.968-.899-1.327-.339-3.614-.375-8.2-.127-3.499.189-14.371.29-24.161.223l-17.8-.121-.247-1.4-.248-1.4-.052 1.476M247.14 245.6c-.433 1.242-1.94 1.731-1.94.629 0-.728 1.088-1.829 1.808-1.829.438 0 .465.245.132 1.2m45.66 3.047c0 .33-.18.489-.4.353-.22-.136-.4-.517-.4-.847 0-.33.18-.489.4-.353.22.136.4.517.4.847" fill="#fb9305"/><path d="M162.5 104.697a85.45 85.45 0 0 0 6.2 0c1.705-.075.31-.136-3.1-.136s-4.805.061-3.1.136m29.8-.002c1.155.081 3.045.081 4.2 0 1.155-.081.21-.147-2.1-.147s-3.255.066-2.1.147m11.191-.006c.71.088 1.97.09 2.8.003.83-.087.249-.159-1.291-.161-1.54-.002-2.219.069-1.509.158M101.728 154c0 1.43.073 2.015.161 1.3.089-.715.089-1.885 0-2.6-.088-.715-.161-.13-.161 1.3m2.434 6.554c-.954 2.486.363 60.805 1.429 63.246.192.44.435 1.88.541 3.2.105 1.32.669 3.84 1.253 5.6.584 1.76 1.169 4.1 1.299 5.2.13 1.1.479 2.144.776 2.32.297.176.54.87.54 1.542s.45 2.118 1 3.213c.55 1.095 1 2.364 1 2.82 0 .456.411 1.386.914 2.067 1.293 1.752 1.886 3.266 1.886 4.813 0 1.094.183 1.384 1 1.589.55.138 1 .521 1 .852 0 .529.617 1.716 2.289 4.399.269.432.802 1.415 1.185 2.185s.882 1.619 1.111 1.886c2.012 2.356 3.311 4.319 3.562 5.382.182.769.585 1.141 1.44 1.329.959.211 1.237.524 1.445 1.632.18.961.473 1.371.98 1.371.397 0 1.086.587 1.53 1.305.443.718 1.223 1.678 1.732 2.133.509.455 1.515 1.488 2.236 2.295 2.345 2.628 3.511 1.953 1.89-1.095-1.535-2.886-1.371-3.158 1.211-2.016 3.897 1.723 4.891 1.275 3.389-1.526-.44-.821-.8-1.735-.8-2.03 0-.296-.495-.781-1.1-1.078-1.087-.534-1.089-.543-.174-.696.546-.091 1.205.146 1.606.577 1.099 1.182 3.155 2.377 3.5 2.033.171-.172.283-1.045.514-4.002.031-.406.378-.7.827-.7.425 0 .887-.36 1.027-.8.14-.44.483-.8.763-.8s1.089-.638 1.799-1.419c.884-.971 1.518-1.346 2.011-1.19.592.188.686.05.527-.781-.207-1.083.446-1.384.98-.451.274.478.394.478.836 0 .429-.465.373-.559-.334-.559-.504 0-.779-.203-.676-.5.095-.275.65-.493 1.233-.484.845.012 1.015-.132.832-.708-.159-.501.211-1.114 1.2-1.99.786-.696 1.429-1.49 1.429-1.765 0-.274.36-.613.8-.753.44-.14.8-.581.8-.98 0-.739 1.035-1.204 2.7-1.215.765-.004.9-.22.9-1.438 0-1.185.346-1.781 2-3.443 1.1-1.106 2-2.141 2-2.301 0-.492 3.117-2.823 3.777-2.823.946 0 .761-1.652-.291-2.587-.502-.447-1.534-1.803-2.293-3.013-.759-1.21-1.71-2.56-2.112-3-1.479-1.617-5.081-7.714-5.081-8.601 0-.557-.586-1.426-1.5-2.224-1.338-1.168-1.446-1.399-1-2.137.733-1.212.624-2.07-.59-4.688l-1.091-2.35-.009-28.6-.01-28.6-25.726-.064c-19.749-.049-25.77.048-25.912.418m136.376 85.579c.144.403.262 1.093.262 1.533 0 .44.214.729.475.642.819-.273.775-.929-.128-1.936-.648-.723-.804-.784-.609-.239m-2.555 4.087c-.424.511-.403.732.12 1.255.857.856 1.897.383 1.897-.862 0-1.176-1.177-1.405-2.017-.393m6.679 1.563c-.166.432.009.617.584.617.456 0 .75-.211.662-.475-.247-.741-.984-.825-1.246-.142M170.4 252c0 .22.27.4.6.4.33 0 .6-.18.6-.4 0-.22-.27-.4-.6-.4-.33 0-.6.18-.6.4m11.383.549c.624.578 1.454 1.051 1.846 1.051.392 0 .775.315.851.7.096.482.231.553.437.226.336-.535-1.74-2.257-3.293-2.731-.956-.291-.952-.276.159.754m-12.171.351c-.007.385-.282.7-.612.7s-.6.18-.6.4c0 .489.806.511 1.547.042.414-.263.441-.528.112-1.094-.397-.683-.436-.687-.447-.048m63.66 2c.164 1.157 1.716 1.415 2.77.462.955-.864.396-1.347-1.57-1.356-1.149-.005-1.31.115-1.2.894m-56.072-.082c0 .261-.525.32-1.4.156-1.129-.212-1.4-.138-1.4.381 0 .864 2.512.876 3.371.016.784-.783.789-.971.029-.971-.33 0-.6.188-.6.418m50.693.382c.716.836 2.681 1.089 3.107.4.14-.226-.188-.4-.753-.4-.55 0-1.111-.18-1.247-.4-.136-.22-.595-.4-1.02-.4-.734 0-.738.04-.087.8m-15.132 3.118c-.199.596-1.133.672-3.261.264-.929-.177-1.5-.134-1.5.116 0 .221-.536.509-1.192.64-1.888.378-1.17 1.628.751 1.307.793-.132 3.473-.359 5.956-.504 2.483-.146 4.608-.417 4.723-.603.115-.186-.141-.338-.569-.338-.428 0-1.279-.26-1.891-.578-.756-.392-1.339-.457-1.814-.203-.483.259-.751.221-.865-.122-.128-.385-.205-.38-.338.021m-18.361 2.474c-2.627.248-3.21 1.713-1.086 2.731 1.225.587 4.043.269 3.051-.345-.919-.568-.295-.72 4.044-.985 2.305-.142 4.461-.358 4.791-.481 1.022-.382-1.88-.834-4.489-.7-1.334.069-2.805 0-3.268-.152-.464-.152-1.833-.182-3.043-.068m23.778 2.113c-1.308.432-3.008.852-3.778.933-6.22.655-6 .594-6 1.664 0 .941.092.986 1.5.728 4.345-.796 9.378-1.415 11.557-1.422 1.92-.006 2.513-.154 2.713-.675.629-1.639-2.69-2.319-5.992-1.228m38.112 3.072c-.225.86.036 1.316.566.989.453-.281.445-1.766-.009-1.766-.195 0-.445.35-.557.777M206 266.8c-.33.213-1.095.391-1.7.394-1.502.008-1.381.524.314 1.332 2.441 1.164 3.79.576 3.168-1.382-.26-.82-.865-.937-1.782-.344m14.273 3.179c-2.375.473-3.171 1.491-1.421 1.82 2.854.535 4.948.113 4.948-.999 0-1.135-.897-1.344-3.527-.821M158.4 271c0 .33.27.6.6.6.33 0 .6-.27.6-.6 0-.33-.27-.6-.6-.6-.33 0-.6.27-.6.6m33.77.078c.133.905.585 1.01 2.457.571 1.272-.298 1.367-.376.497-.409-.592-.022-1.188-.22-1.324-.44-.426-.689-1.739-.465-1.63.278m69.03.522c0 .22.36.4.8.4.44 0 .8-.18.8-.4 0-.22-.36-.4-.8-.4-.44 0-.8.18-.8.4m11.056 6.278c-.478.478-.258 1.322.344 1.322.33 0 .6-.259.6-.576 0-.669-.571-1.12-.944-.746m-4.156 1.187c-.275.111-.5.536-.5.945 0 .408-.18.854-.4.99-.872.539-.319 1 1.2 1 1.58 0 2.276-.849 1.1-1.343-.351-.148-.277-.351.248-.681 1.142-.717-.237-1.48-1.648-.911m-125.228 3.004c.189 1.28 1.128 1.417 1.128.164 0-.672-.219-1.033-.628-1.033-.417 0-.585.292-.5.869m-3.055 2.303c-.296.479.457.953.99.624.447-.277.153-.996-.407-.996-.194 0-.456.168-.583.372M257.4 288.4c-.136.22.123.4.576.4.453 0 .824-.18.824-.4 0-.22-.259-.4-.576-.4-.317 0-.688.18-.824.4m-103.1.282a5.661 5.661 0 0 0 1.8 0c.495-.095.09-.173-.9-.173s-1.395.078-.9.173m101.917.89c-.126.205-1.2.493-2.385.641-1.753.219-2.466.558-3.812 1.814-1.058.986-2.19 1.63-3.138 1.784-2.335.378-3.355.917-3.204 1.693.237 1.215 4.214.718 5.722-.715 1.282-1.218 4.568-2.789 5.833-2.789.534 0 .767-.28.767-.92 0-.506.216-1.136.48-1.4s.365-.48.224-.48-.36.167-.487.372m2.983.028c0 .22.36.4.8.4.44 0 .8-.18.8-.4 0-.22-.36-.4-.8-.4-.44 0-.8.18-.8.4m-111.762.646c-.11.286.193.636.682.791.484.153 1.115.612 1.403 1.02.287.409.776.743 1.086.743.309 0 .749.348.977.773.227.425.797.895 1.266 1.043.904.287 3.548.487 3.548.268 0-.444-2.773-2.552-3.6-2.736-1.605-.358-3.632-1.366-3.841-1.912-.252-.655-1.269-.648-1.521.01m12.962 1.274c0 1.606.684 2.08 3 2.08 3.842 0 5.48-1.69 2.595-2.677-2.857-.978-5.595-.686-5.595.597m-3.75 3.999c-.272.44.213 1.089 1.043 1.395.42.155.6.498.457.871-.174.454.031.615.78.615 1.128 0 1.693-1.068 1.27-2.4-.261-.822-3.102-1.206-3.55-.481m13.75.481c0 .22.27.4.6.4.33 0 .6-.18.6-.4 0-.22-.27-.4-.6-.4-.33 0-.6.18-.6.4m69.6 1.933c0 2.22.262 2.324 2.341.931.436-.292.363-.568-.372-1.413-1.315-1.513-1.969-1.352-1.969.482m10.084.309c-.423.458-.41.558.077.558.679 0 1.203-.653.746-.93-.169-.102-.539.065-.823.372m-87.901.585c-.198.32-.142.395.155.211.254-.157.462-.095.462.138s-.585.442-1.3.465l-1.3.041 1.365.322c.75.177 1.587.236 1.859.131.272-.104.614.003.759.238.415.67 2.217.522 2.217-.183 0-.665-1.844-1.536-2.62-1.238-.265.102-.664.004-.886-.218-.272-.272-.504-.241-.711.093m80.217 2.13c0 .909.959 1.005 1.957.197l.932-.754h-1.445c-.968 0-1.444.184-1.444.557m-69.74 2.03c-.124.323-.041.701.185.841.225.139.313.505.195.812-.224.585 2.142.845 2.69.297.411-.411-.544-1.337-1.379-1.337-.413 0-.751-.27-.751-.6 0-.77-.646-.779-.94-.013m67.34.485c0 .55.275.76.98.747 1.084-.021 2.443-1.015 1.4-1.024-.319-.003-.985-.114-1.48-.247-.704-.189-.9-.074-.9.524m-71 .128c.136.22.517.4.847.4.33 0 .489-.18.353-.4-.136-.22-.517-.4-.847-.4-.33 0-.489.18-.353.4m20.8.8c-.144.233.263.4.976.4.673 0 1.224-.18 1.224-.4 0-.22-.439-.4-.976-.4-.537 0-1.088.18-1.224.4m34.6.021c0 .208 1.305.376 2.9.373 1.886-.004 2.7-.133 2.328-.368-.763-.483-5.228-.487-5.228-.005m-48.4 1.136c0 .197.285.467.633.6.978.376 1.108.294.567-.357-.552-.665-1.2-.796-1.2-.243m38.079.063c-.507.204-2.047.43-3.423.504-1.376.073-2.748.286-3.05.472-.301.186-1.641.466-2.977.622-2.226.26-2.094.286 1.571.313 2.2.016 5.495.196 7.322.401 5.073.568 9.385-1.005 4.687-1.71-.985-.147-1.895-.438-2.023-.645-.283-.458-.888-.446-2.107.043m-33.671.684-1.392.685 1.392.252c.766.138 1.707.385 2.092.548.468.198.702.117.706-.246.004-.365.103-.398.3-.103.414.62 2.495.958 2.489.405-.029-2.363-2.522-3.051-5.587-1.541M220.4 307c0 .448.431.586 1.7.546.935-.03 1.295-.133.8-.228-.495-.096-.9-.341-.9-.546 0-.205-.36-.372-.8-.372-.444 0-.8.267-.8.6m-20 .2c0 .22.27.4.6.4.33 0 .6-.18.6-.4 0-.22-.27-.4-.6-.4-.33 0-.6.18-.6.4m-11.8 1.6c1.141.49 3.903.49 3.6 0-.136-.22-1.182-.387-2.324-.372-1.529.021-1.865.119-1.276.372" fill="#fbbc04"/><path d="M176.323 104.699c2.708.069 7.028.069 9.6 0 2.572-.07.357-.127-4.923-.126-5.28 0-7.385.057-4.677.126m-71.428 2.434c-.604.383-.534-1.983-.744 25.364-.094 12.263-.027 23.153.148 24.2l.319 1.903h19.791c10.885 0 21.861-.045 24.391-.099 2.53-.055 16.03-.113 30-.13 20.39-.024 25.506-.133 25.94-.554.975-.949.782-50.283-.199-50.669-1.018-.401-99.016-.415-99.646-.015m-2.394 1.467c.004.88.086 1.193.182.695.096-.497.092-1.217-.008-1.6-.1-.382-.179.025-.174.905m137.633 16.027c-.335.874.422 1.504 1.425 1.186.688-.218.765-.407.427-1.04-.499-.932-1.519-1.012-1.852-.146m25.733 9.24c-.505.504-.266.933.52.933.536 0 .714-.192.558-.6-.247-.642-.646-.765-1.078-.333M280 149.776c0 .317.18.688.4.824.22.136.4-.123.4-.576 0-.453-.18-.824-.4-.824-.22 0-.4.259-.4.576m-34.171 95.253c-.859.858-.791 1.771.132 1.771.486 0 .912-.434 1.179-1.2.48-1.378-.206-1.677-1.311-.571M292 248.153c0 .33.18.711.4.847.22.136.4-.023.4-.353 0-.33-.18-.711-.4-.847-.22-.136-.4.023-.4.353" fill="#fb7a04"/><path d="M105.2 104.671c-1.554.319-2.268 1.385-2.514 3.752a585.104 585.104 0 0 1-.697 6.177c-.316 2.687-.365 5.839-.148 9.6.407 7.075.407 14.046-.005 49.2-.236 20.128-.203 29.734.111 32.98.244 2.52.521 7.343.615 10.719.094 3.376.349 6.355.567 6.619.219.265.481 1.652.584 3.082.204 2.835.897 6.198 1.503 7.295.211.382.384 1.306.384 2.054 0 .748.269 1.875.598 2.505.328.63.598 1.461.6 1.846.001.385.182.7.402.7.22 0 .4.525.4 1.168 0 1.136 1.098 3.698 1.7 3.965.165.074.3.569.3 1.1 0 .532.16.967.355.967.196 0 .472.617.613 1.371.142.754.387 1.429.545 1.5.297.133 2.243 3.991 2.638 5.229.123.385.41.7.636.7.227 0 .413.255.413.567 0 .311.135.626.3.7.165.073.66.853 1.1 1.733.44.88 1.122 1.956 1.515 2.392.394.436.819 1.201.944 1.7.125.499.388.908.584.908.197 0 .357.251.357.557 0 .307.27.661.6.788.33.126.6.49.6.808 0 .318.63 1.227 1.4 2.02.77.793 1.4 1.634 1.4 1.87 0 .438 2.127 2.865 4.1 4.678.605.556 1.1 1.157 1.1 1.336 0 .179.949 1.289 2.108 2.468 1.16 1.178 2.569 2.689 3.131 3.357.563.668 1.819 1.732 2.792 2.363.973.631 1.907 1.363 2.075 1.626.83 1.299 4.105 4.125 4.799 4.14.272.006.989.515 1.593 1.131.604.617 1.594 1.377 2.2 1.689.606.313 1.34.794 1.631 1.069.29.275.785.5 1.1.5.314 0 .571.18.571.4 0 .22.192.4.427.4.234 0 1.016.45 1.737 1 .722.55 1.61 1 1.974 1 .364 0 .662.177.662.392 0 .216.45.506 1 .644s1 .411 1 .607c0 .197.27.357.6.357.33 0 .6.172.6.382 0 .21.63.5 1.4.644.77.145 1.4.423 1.4.619 0 .195.345.355.768.355.867 0 3.226 1.242 3.229 1.7.002.165.434.3.96.3.527 0 1.061.27 1.188.6.126.33.538.6.914.6.79 0 3.194.72 4.293 1.285.414.213 1.224.471 1.8.575.576.103 1.219.357 1.428.564.209.207 1.34.376 2.514.376 1.174 0 2.533.25 3.02.554.487.305 1.496.564 2.241.575.745.011 1.546.212 1.78.446.234.234 1.475.425 2.759.425 1.466 0 2.697.238 3.311.64 1.278.837 24.607.709 25.455-.14.323-.322 1.721-.5 3.94-.5 1.892 0 3.614-.174 3.828-.388.213-.213 1.284-.494 2.38-.624 1.095-.13 2.163-.406 2.372-.613.209-.206 1.139-.375 2.068-.375 1.554 0 4.17-.992 4.485-1.7.074-.165.828-.3 1.677-.3.848 0 1.654-.18 1.79-.4.136-.22.856-.4 1.6-.4.744 0 1.457-.169 1.585-.376.128-.208 1.084-.793 2.124-1.3 1.04-.508 1.951-1.059 2.024-1.224.074-.165.524-.313 1-.329.477-.016 1.407-.374 2.067-.796.66-.421 1.47-.876 1.8-1.009 1.586-.643 3.2-1.579 3.2-1.857 0-.17.425-.309.944-.309.54 0 1.265-.428 1.695-1 .413-.55 1.059-1 1.436-1s.869-.315 1.093-.7c.224-.385.413-.561.42-.391.016.417 2-.863 3.093-1.996.484-.502 1.131-.913 1.438-.913.306 0 .9-.379 1.319-.843.419-.463 1.392-1.169 2.162-1.568s1.74-1.19 2.156-1.757c.416-.568 1.06-1.032 1.432-1.032.372 0 .918-.45 1.212-1 .294-.55.704-1 .909-1 .206 0 1.447-1.125 2.759-2.5a691.453 691.453 0 0 1 3.758-3.912c.756-.777 1.377-1.587 1.38-1.8.004-.214.904-1.261 2-2.327 1.097-1.067 1.994-2.122 1.994-2.344 0-.223.9-1.39 2-2.593 1.1-1.204 2-2.362 2-2.574 0-.212.45-.87 1-1.463.55-.594 1-1.353 1-1.688 0-.335.45-.947 1-1.36.55-.413 1-1.067 1-1.452 0-.386.27-.805.6-.932.33-.126.6-.596.6-1.042 0-.447.146-.813.325-.813.179 0 .576-.639.883-1.419.306-.781.789-1.613 1.074-1.849.285-.237.518-.843.518-1.348 0-.504.135-.977.3-1.051.485-.215 1.7-2.734 1.7-3.523 0-.398.27-.828.6-.955.33-.126.6-.675.6-1.219s.18-1.1.4-1.236c.22-.136.406-.732.413-1.324.007-.592.277-1.425.6-1.852.323-.428.587-1.182.587-1.677 0-.495.18-1.011.4-1.147.22-.136.4-.699.4-1.252s.237-1.242.526-1.532c.29-.289.57-1.491.623-2.671.053-1.18.266-2.316.474-2.525.207-.209.377-1.139.377-2.067 0-.927.209-1.756.463-1.841.297-.099.527-1.662.638-4.333.096-2.299.337-4.35.536-4.559.476-.498.473-21.145-.002-21.64-.201-.209-.426-2.165-.5-4.347-.093-2.717-.293-4.019-.635-4.133-.322-.108-.5-.979-.5-2.453 0-1.258-.177-2.464-.393-2.68-.217-.217-.427-1.26-.467-2.318-.04-1.059-.313-2.165-.606-2.458-.294-.294-.534-.986-.534-1.539 0-.553-.18-1.116-.4-1.252-.22-.136-.4-.652-.4-1.147s-.264-1.249-.587-1.677c-.323-.427-.593-1.181-.6-1.676-.007-.495-.193-.9-.413-.9-.22 0-.4-.437-.4-.971 0-.535-.27-1.242-.6-1.572-.33-.33-.6-.962-.6-1.405 0-.443-.18-.916-.4-1.052-.22-.136-.4-.602-.4-1.036 0-.434-.27-.893-.6-1.019-.332-.128-.6-.722-.6-1.329 0-.618-.438-1.572-1-2.178-.55-.594-1-1.43-1-1.859 0-.428-.18-.779-.4-.779-.22 0-.4-.351-.4-.78 0-.429-.225-.924-.501-1.1-.275-.176-.77-.86-1.099-1.52-.329-.66-.824-1.344-1.099-1.52-.276-.176-.501-.605-.501-.954s-.45-1.051-1-1.561-1-1.169-1-1.465c0-.297-.675-1.278-1.5-2.182-1.935-2.12-2.5-2.827-2.5-3.129 0-.134-1.35-1.598-3-3.254-1.65-1.655-3.006-3.128-3.013-3.272-.03-.595-1.561-2.063-2.151-2.063-.35 0-.636-.27-.636-.6 0-.33-.162-.6-.36-.6-.199 0-1.414-1.037-2.7-2.304-1.287-1.268-3.15-2.931-4.14-3.697-.99-.765-2.156-1.715-2.592-2.111-.436-.395-1.201-.822-1.7-.947-.499-.125-.908-.368-.908-.539 0-.171-.63-.61-1.4-.975-.77-.366-1.4-.797-1.4-.96 0-.162-.54-.613-1.2-1.003-.66-.39-1.2-.6-1.2-.466 0 .134-.405-.191-.9-.722-.495-.531-1.305-1.092-1.8-1.247-.495-.156-.9-.451-.9-.656 0-.205-.45-.373-1-.373s-1-.18-1-.4c0-.22-.366-.4-.813-.4-.446 0-.916-.27-1.042-.6-.127-.33-.661-.6-1.188-.6-.526 0-.957-.145-.957-.323 0-.354-2.788-1.677-3.534-1.677-.256 0-.466-.166-.466-.368 0-.203-.538-.487-1.195-.631-.658-.144-1.299-.429-1.424-.632-.126-.203-.623-.375-1.105-.382-.482-.007-1.225-.277-1.652-.6-.428-.323-1.272-.587-1.877-.587s-1.211-.18-1.347-.4c-.136-.22-.762-.4-1.39-.4-.629 0-1.204-.182-1.278-.404-.074-.222-.886-.479-1.804-.57-.917-.091-2.03-.359-2.472-.596-.442-.236-1.43-.43-2.196-.43-.766 0-1.461-.202-1.543-.448-.092-.278-1.558-.486-3.86-.548-2.095-.055-3.909-.296-4.164-.551-.258-.258-1.764-.453-3.493-.453-1.672 0-3.211-.168-3.42-.373-.397-.389-105.142-.934-106.98-.556m109.8 2.927c1.76.433 5.259.969 7.775 1.19 2.516.221 4.757.584 4.98.807.223.223.881.405 1.463.405.582 0 2.121.384 3.42.853s3.408.936 4.686 1.037c2.003.158 2.374.316 2.69 1.147.228.599.686.963 1.214.963.467 0 1.326.263 1.91.585.584.322 2.412 1.142 4.062 1.823 1.65.681 3.81 1.721 4.8 2.312.99.591 2.7 1.533 3.8 2.094 3.485 1.777 5.968 3.256 7 4.172.55.488 1.642 1.27 2.427 1.738.784.468 2.19 1.756 3.123 2.863.934 1.107 2.032 2.013 2.44 2.013.408 0 1.492.852 2.409 1.893.916 1.042 2.107 2.183 2.645 2.536 1.625 1.066 7.713 8.052 8.596 9.865.454.931 1.289 1.921 1.856 2.2.567.278 1.226.866 1.465 1.306.239.44 1.068 1.7 1.842 2.8.774 1.1 1.671 2.54 1.992 3.2.321.66 1.084 1.791 1.695 2.514.61.723 1.11 1.602 1.11 1.955 0 .352.972 2.641 2.159 5.086 4.032 8.301 4.658 9.793 4.583 10.92-.119 1.82.49 3.82 1.611 5.288 1.241 1.624 1.776 4.11 2.851 13.237.428 3.63.956 7.86 1.174 9.4.5 3.535.501 7.871.001 10.2-.212.99-.566 3.78-.787 6.2-.667 7.301-1.929 13.826-2.877 14.873-1.074 1.187-1.869 3.435-1.844 5.219.013.949-.397 2.529-.979 3.771-.551 1.175-1.126 2.72-1.277 3.432-.152.713-.443 1.399-.646 1.524-.203.126-.369.55-.369.943 0 .393-.362 1.041-.803 1.441-.442.4-1.016 1.463-1.276 2.362s-.798 2.064-1.197 2.589c-.398.525-.724 1.208-.724 1.519 0 .311-.675 1.569-1.5 2.796-.825 1.227-1.793 2.751-2.152 3.386-1.203 2.132-2.545 3.94-2.926 3.942-.603.005-2.622 2.096-2.622 2.716 0 .503-1.381 2.771-2.002 3.287-.132.11-.623.831-1.091 1.601-.467.771-1.448 1.972-2.179 2.67-.73.697-1.71 1.687-2.177 2.198-1.025 1.124-3.865 3.539-4.728 4.022-.343.192-.623.522-.623.735 0 .514-2.476 2.747-3.062 2.762-.254.007-1.19.597-2.079 1.312-4.119 3.312-8.423 5.9-9.814 5.9-.321 0-.7.538-.845 1.2-.159.725-.517 1.2-.905 1.2-.806 0-5.43 2.079-7.895 3.55-.66.393-1.8.834-2.533.979-.733.145-1.662.671-2.065 1.168-.402.496-1.152.937-1.667.979-1.866.151-5.392.999-7.944 1.91-1.435.512-4.045 1.167-5.8 1.455-1.755.288-3.304.686-3.442.885-.84 1.212-31.703 1.583-34.749.418-.33-.127-2.04-.472-3.8-.769-5.087-.856-6.927-1.305-8.877-2.168-1.004-.444-2.141-.807-2.528-.807s-1.219-.269-1.849-.598c-.63-.328-1.499-.598-1.931-.6-.432-.001-1.152-.438-1.6-.971-.802-.953-5.898-3.031-7.435-3.031-.425 0-.998-.36-1.273-.8-.275-.44-.802-.8-1.173-.8-.37 0-1.181-.417-1.803-.926-.622-.51-2.301-1.523-3.731-2.253-3.044-1.554-4.583-2.582-6.103-4.08-.607-.597-1.507-1.144-2-1.214-.575-.081-.943-.45-1.025-1.027-.099-.7-.389-.9-1.3-.9-.645 0-1.172-.213-1.172-.474 0-.627-1.612-2.326-2.206-2.326-.257 0-1.195-.675-2.085-1.5a99.773 99.773 0 0 0-2.164-1.96c-1.183-1-4.267-4.4-4.933-5.44-.387-.605-1.023-1.1-1.413-1.1-.492 0-.789-.422-.967-1.371-.208-1.108-.486-1.421-1.445-1.632-.855-.188-1.258-.56-1.44-1.329-.219-.927-1.357-2.741-2.733-4.354-.998-1.171-1.28-1.594-1.946-2.914-.388-.77-1.242-2.3-1.898-3.4-.656-1.1-1.37-2.422-1.586-2.939-.217-.516-.751-1.032-1.189-1.146-.593-.155-.795-.547-.795-1.543 0-1.544-.594-3.059-1.886-4.81-.503-.681-.914-1.611-.914-2.067 0-.456-.45-1.725-1-2.82-.55-1.095-1-2.541-1-3.213 0-.672-.243-1.366-.54-1.542-.297-.176-.646-1.22-.776-2.32-.13-1.1-.715-3.44-1.299-5.2-.584-1.76-1.148-4.28-1.253-5.6-.106-1.32-.349-2.76-.541-3.2-1.219-2.792-2.346-61.642-1.221-63.744.255-.477.256-.87.002-1.124-.323-.323-.298-46.395.028-49.532.045-.44.019-1.055-.059-1.367-.35-1.409.716-1.435 54.485-1.328 51.172.101 53.083.131 56.174.893m-32.2 50.818c-26.86.259-29.395.427-27.163 1.807.312.193.4 8.442.308 28.724l-.129 28.453 1.092 2.35c1.216 2.617 1.325 3.476.592 4.688-.446.738-.338.969 1 2.137.914.798 1.5 1.667 1.5 2.224 0 .887 3.602 6.984 5.081 8.601.402.44 1.353 1.79 2.112 3 .759 1.21 1.746 2.523 2.193 2.917.448.395 1.747 1.61 2.887 2.7 1.14 1.091 2.209 1.983 2.374 1.983.166 0 .673.337 1.127.75 1.13 1.025 4.168 2.653 5.626 3.015.66.163 1.74.701 2.4 1.194 2.013 1.503 5.484 3.041 6.864 3.041.856 0 1.443.252 1.698.728.319.597 1.442.857 6.211 1.435 5.894.714 6.627.698 16.597-.376.974-.105 2.379-.55 3.123-.989.744-.439 1.694-.798 2.11-.798 2.315 0 7.689-2.065 8.773-3.371.287-.346.705-.629.928-.629.696 0 6.866-4.317 8.75-6.122.987-.945 2.458-2.129 3.271-2.631.88-.544 1.58-1.344 1.732-1.98.14-.587.8-1.877 1.467-2.867 2.921-4.34 3.436-5.224 5.365-9.2 1.121-2.31 2.219-5.1 2.44-6.2.22-1.1.616-2.81.879-3.8 1.694-6.381 1.369-20.316-.53-22.721-.226-.287-.548-1.277-.714-2.2-.698-3.865-.949-4.425-5.852-13.079-1.109-1.957-2.758-4.482-3.418-5.231-.305-.346-.668-.924-.805-1.282-.138-.359-1.024-1.137-1.97-1.73-.945-.592-1.809-1.185-1.919-1.317-1.173-1.409-5.045-4.44-5.672-4.44-.444 0-1.319-.548-1.945-1.218-1.329-1.423-4.621-3.223-7.183-3.927-.99-.272-2.61-.747-3.6-1.055-.99-.308-3.06-.685-4.6-.839-2.074-.207-3.093-.523-3.931-1.22-.67-.558-1.566-.907-2.2-.857-.588.046-12.679.196-26.869.332m28.087 2.445c.091.274 1.44.535 3.333.645 1.749.101 3.24.343 3.313.539.074.195.727.355 1.451.355.725 0 1.542.27 1.816.6.274.33 1.016.6 1.649.6s1.151.18 1.151.4c0 .22.45.4 1 .4s1 .16 1 .357c0 .196.45.469 1 .607s1 .428 1 .644c0 .215.193.392.429.392.235 0 .7.272 1.032.604.332.332.77.5.974.374.204-.126.479.053.611.397.132.344.67.625 1.197.625.526 0 .957.205.957.456 0 .535 1.194 1.513 1.87 1.531.738.02 10.13 9.446 10.13 10.167 0 .355.16.646.357.646.196 0 .459.409.584.908.125.499.595 1.302 1.044 1.783.448.482.815 1.243.815 1.692 0 .449.141.817.312.817.172 0 .556.585.853 1.3 1.237 2.978 2.035 5.311 2.035 5.951 0 .375.171.742.38.816.209.073.425.918.481 1.877.055.959.289 1.816.52 1.905.23.089.465 1.374.522 2.856.057 1.482.282 2.755.5 2.828.517.174.528 8.755.011 8.934-.213.073-.476 1.377-.585 2.898-.109 1.52-.385 2.951-.614 3.18-.228.228-.415 1.174-.415 2.102 0 .927-.169 1.746-.376 1.82-.208.073-.471.657-.586 1.298-.115.641-.395 1.352-.623 1.58-.228.228-.415.653-.415.943 0 .29-.45 1.241-1 2.112s-1 1.858-1 2.192c0 .334-.18.608-.4.608-.22 0-.4.257-.4.571 0 .315-.225.81-.501 1.1-.275.291-.856 1.204-1.291 2.029-.434.825-.929 1.5-1.099 1.5-.17 0-.309.283-.309.629 0 .345-.225.854-.5 1.129-.275.276-.95 1.071-1.5 1.768-.55.697-1.225 1.268-1.5 1.27-.275.002-.5.208-.5.457 0 .249-.405.8-.9 1.223-.495.424-1.53 1.347-2.3 2.052-.77.705-2.12 1.812-3 2.46-.88.648-1.66 1.321-1.733 1.495-.074.175-.468.317-.877.317-.408 0-.851.175-.983.389-.133.214-.863.664-1.624 1-.761.336-2.058.908-2.883 1.27-.825.363-1.597.807-1.716.987-.118.181-.793.372-1.5.426-.706.054-1.284.232-1.284.395s-.632.415-1.404.56c-.773.145-1.503.423-1.624.618-.121.195-1.109.355-2.196.355-1.087 0-1.976.15-1.976.333 0 .412.345.387-7.552.557-4.804.104-6.816.004-7.545-.374-.547-.284-1.763-.516-2.703-.516s-2.224-.269-2.854-.598c-.63-.328-1.416-.601-1.746-.606-.934-.013-3.254-.906-4.926-1.896-.836-.495-1.734-.906-1.997-.913-.262-.007-.819-.271-1.236-.587-.417-.316-.893-.491-1.058-.389-.165.101-.402-.085-.529-.413-.126-.329-.602-.598-1.059-.598-.456 0-1.315-.45-1.908-1-.594-.55-1.234-1-1.423-1-.189 0-1.2-.875-2.246-1.944-1.047-1.069-2.469-2.277-3.161-2.686-.691-.408-1.257-.946-1.257-1.195 0-.249-.603-1.073-1.339-1.831-.737-.759-1.412-1.551-1.5-1.762-.488-1.16-2.231-3.373-2.661-3.377-.275-.003-.5-.455-.5-1.005 0-.55-.16-1-.357-1-.196 0-.469-.45-.607-1s-.428-1-.644-1c-.215 0-.392-.27-.392-.6 0-.33-.18-.6-.4-.6-.22 0-.379-.135-.353-.3.171-1.084-.137-2.533-.647-3.043-.33-.33-.6-1.063-.6-1.628 0-.566-.18-1.029-.4-1.029-.22 0-.4-.707-.4-1.571 0-.865-.252-1.824-.561-2.133-.966-.966-2.153-56.659-1.257-58.993.269-.7 52.872-.742 53.105-.042" fill="#eda54a"/><path d="M238.8 112.539c1.098.578 1.421.543 1.016-.112-.145-.235-.658-.424-1.14-.421-.84.006-.835.027.124.533m54.677 46.404c-.133.347-.058.745.167.884.623.385.875-.085.452-.841-.337-.602-.403-.606-.619-.043m-187.877.704-1.4.248 1.2.107c.66.059 2.46.095 4 .081 1.54-.015 12.475-.04 24.3-.055 11.825-.015 21.5-.172 21.5-.348 0-.372-47.505-.403-49.6-.033m138.977 17.909c.354.684.713 1.244.799 1.244.392 0-.478-2.167-.931-2.318-.37-.124-.333.174.132 1.074m8.316 16.844c0 .77.082 1.085.183.7.1-.385.1-1.015 0-1.4-.101-.385-.183-.07-.183.7m54.038 15.8c.002 1.54.074 2.121.161 1.291.087-.83.085-2.09-.003-2.8-.089-.71-.16-.031-.158 1.509m-52.017 4c.003 1.1.081 1.503.173.895.092-.609.09-1.509-.005-2-.095-.492-.171.005-.168 1.105M238.8 245.877c-1.759 1.764-7.952 6.123-8.7 6.123-.207 0-.674.329-1.038.732-.364.402-1.607 1.165-2.762 1.696-1.155.53-2.19 1.065-2.3 1.188-.11.123-1.161.261-2.335.306-1.174.044-2.524.355-3 .689-.476.335-1.564.798-2.418 1.029l-1.554.42 1.099.57c.605.313 1.449.57 1.877.57.428 0 .684.152.569.338-.115.186-2.24.457-4.723.603-2.483.145-5.163.372-5.956.504-1.921.321-2.639-.929-.751-1.307 1.801-.36 1.429-.985-.411-.691-2.611.417-13.564-1.038-14.005-1.862-.25-.466-1.118-.764-2.778-.952-1.327-.15-2.414-.4-2.414-.557 0-.691-1.66-1.324-2.231-.85-.452.375-.569.339-.569-.177 0-.378-.328-.649-.784-.649-.432 0-1.107-.336-1.5-.746-.394-.41-1.796-1.333-3.116-2.05-1.32-.717-2.772-1.641-3.226-2.054-.454-.412-.967-.75-1.14-.75-.173 0-1.151-.827-2.174-1.838-1.654-1.635-1.874-1.745-1.988-1-.07.461-.396.838-.723.838-.639 0-3.749 2.342-3.749 2.823 0 .16-.9 1.195-2 2.301-1.654 1.662-2 2.258-2 3.443 0 1.218-.135 1.434-.9 1.438-1.665.011-2.7.476-2.7 1.215 0 .399-.36.84-.8.98-.44.14-.8.479-.8.753 0 .275-.643 1.069-1.429 1.765-.989.876-1.359 1.489-1.2 1.99.183.576.013.72-.832.708-.583-.009-1.138.209-1.233.484-.103.297.172.5.676.5.707 0 .763.094.334.559-.442.478-.562.478-.836 0-.534-.933-1.187-.632-.98.451.159.831.065.969-.527.781-.493-.156-1.127.219-2.011 1.19-.71.781-1.519 1.419-1.799 1.419s-.623.36-.763.8c-.14.44-.602.8-1.027.8-.449 0-.796.294-.827.7-.341 4.368-.408 4.542-1.465 3.783a9.281 9.281 0 0 0-1.281-.758c-.33-.148-.903-.611-1.274-1.028-.408-.46-1.04-.698-1.6-.605-.915.153-.913.162.174.696.605.297 1.1.782 1.1 1.078 0 .295.36 1.209.8 2.03 1.502 2.801.508 3.249-3.389 1.526-2.598-1.149-2.731-.897-1.138 2.172.845 1.629.961 2.138.547 2.394-.392.242-.308.394.333.597.472.15.764.425.649.612-.273.441.894 1.603 1.61 1.603.304 0 1.057.63 1.671 1.4.663.83 1.472 1.4 1.989 1.4.6 0 .912.281 1 .9.082.577.45.946 1.025 1.027.493.07 1.393.617 2 1.214 1.527 1.505 3.068 2.533 6.103 4.071 1.43.725 3.007 1.682 3.505 2.128.684.612 1.018.697 1.367.348s.274-.531-.305-.746c-1.914-.708-1.529-1.742.649-1.742 1.773 0 2.452 1.177 1.6 2.771-.249.465-.344 1.022-.211 1.237.327.53 2.995.502 2.995-.032 0-.233-.208-.295-.462-.138-.297.184-.353.109-.155-.211.207-.334.439-.365.711-.093.222.222.621.32.886.218.776-.298 2.62.573 2.62 1.238 0 .359-.37.619-.9.632-.663.017-.468.201.746.7.905.373 1.895.875 2.2 1.115 1.9 1.498 5.79 2.639 4.459 1.308-.478-.478-.245-1.545.338-1.545.196 0 .357.27.357.6 0 .33.338.6.751.6 1.094 0 1.756.923 1.139 1.588-.397.429-.35.48.246.27.453-.161 1.125.047 1.753.541 1.219.959 1.663.987 3.165.203 2.318-1.208 4.87-.815 5.172.798l.263 1.4h2.876c1.636 0 3.074.199 3.336.461 1.261 1.261 30.758.949 31.648-.335.138-.199 1.658-.592 3.377-.874 1.719-.282 4.149-.882 5.4-1.333 1.251-.452 3.354-1.032 4.674-1.289 1.993-.388 2.422-.617 2.528-1.349.114-.789.293-.855 1.7-.63.989.158 1.572.096 1.572-.168 0-.231.538-.538 1.195-.682.658-.144 1.299-.429 1.424-.632.126-.203.657-.369 1.181-.369s1.061-.175 1.193-.389c.133-.214.818-.649 1.524-.967.706-.318 2.415-1.083 3.798-1.701 1.777-.793 2.582-1.39 2.743-2.033.126-.501.485-.91.799-.91 1.38 0 5.697-2.599 9.802-5.9.889-.715 1.825-1.305 2.079-1.312.59-.015 3.062-2.25 3.062-2.768 0-.216.356-.582.791-.815.435-.233 1.206-.824 1.712-1.314a41.5 41.5 0 0 1 2.286-1.991c1.134-.914 1.23-1.1.563-1.1-.847 0-2.663-1.713-3.084-2.909-.138-.39-.569-.827-.959-.97-.39-.144-1.097-.635-1.571-1.091a91.072 91.072 0 0 0-1.4-1.319c-.93-.845-1.112-1.027-8.113-8.111-2.935-2.97-5.581-5.612-5.881-5.871-.299-.258-.994-1.114-1.544-1.901-.55-.786-1.403-1.539-1.896-1.671-.492-.133-1.392-.844-2-1.58-.607-.736-1.613-1.959-2.236-2.717-.623-.758-1.986-1.961-3.029-2.673-1.144-.781-2.331-2.067-2.991-3.241-1.325-2.357-1.563-2.361-3.848-.069m3.084 1.87c-.258.774-1.084.713-1.084-.081 0-.44-.118-1.13-.262-1.533-.195-.545-.039-.484.609.239.479.535.811 1.153.737 1.375M240 250.613c0 1.245-1.04 1.718-1.897.862-.523-.523-.544-.744-.12-1.255.84-1.012 2.017-.783 2.017.393m5.908 1.312c.088.264-.206.475-.662.475-.575 0-.75-.185-.584-.617.262-.683.999-.599 1.246.142M171.6 252c0 .22-.27.4-.6.4-.33 0-.6-.18-.6-.4 0-.22.27-.4.6-.4.33 0 .6.18.6.4m-1.653 2.042c-.741.469-1.547.447-1.547-.042 0-.22.27-.4.6-.4.33 0 .605-.315.612-.7.011-.639.05-.635.447.048.329.566.302.831-.112 1.094m66.362.294c.391.248.329.486-.267 1.026-1.054.953-2.606.695-2.77-.462-.135-.952 1.846-1.32 3.037-.564m-57.909.235c0 .095-.283.455-.629.8-.859.86-3.371.848-3.371-.016 0-.519.271-.593 1.4-.381.875.164 1.4.105 1.4-.156 0-.23.27-.418.6-.418.33 0 .6.077.6.171m50.6.229c.136.22.697.4 1.247.4.565 0 .893.174.753.4-.426.689-2.391.436-3.107-.4-.651-.76-.647-.8.087-.8.425 0 .884.18 1.02.4m-18.534 3.551c-.414.262-.37.377.2.514.977.235 2.134-.033 2.134-.494 0-.462-1.615-.476-2.334-.02m-9.755 2.661c2.609-.134 5.511.318 4.489.7-.33.123-2.486.339-4.791.481-4.339.265-4.963.417-4.044.985.992.614-1.826.932-3.051.345-2.985-1.43.68-3.794 4.129-2.663.463.152 1.934.221 3.268.152m23.402 2.144c.925.916-.246 1.644-2.656 1.652-2.179.007-7.212.626-11.557 1.422-1.408.258-1.5.213-1.5-.728 0-1.07-.22-1.009 6-1.664.77-.081 2.47-.501 3.778-.933 2.333-.771 5.018-.657 5.935.251m33.087 2.82c0 .796-.521 1.369-.901.99-.313-.314.137-1.766.548-1.766.194 0 .353.349.353.776m-49.418 1.168c.622 1.958-.727 2.546-3.168 1.382-1.695-.808-1.816-1.324-.314-1.332.605-.003 1.37-.181 1.7-.394.917-.593 1.522-.476 1.782.344M223.8 270.8c0 1.112-2.094 1.534-4.948.999-2.583-.485.811-2.257 3.948-2.061.783.049 1 .279 1 1.062m-64.2.2c0 .33-.27.6-.6.6-.33 0-.6-.27-.6-.6 0-.33.27-.6.6-.6.33 0 .6.27.6.6m34.2-.2c.136.22.732.418 1.324.44.87.033.775.111-.497.409-1.872.439-2.324.334-2.457-.571-.109-.743 1.204-.967 1.63-.278m69 .8c0 .22-.36.4-.8.4-.44 0-.8-.18-.8-.4 0-.22.36-.4.8-.4.44 0 .8.18.8.4m10.4 7.024a.59.59 0 0 1-.6.576c-.602 0-.822-.844-.344-1.322.373-.374.944.077.944.746m-3.252.535c.443.281.405.437-.2.817-.525.33-.599.533-.248.681 1.176.494.48 1.343-1.1 1.343-1.519 0-2.072-.461-1.2-1 .22-.136.4-.582.4-.99 0-1.054 1.289-1.521 2.348-.851M144 282.233c0 1.253-.939 1.116-1.128-.164-.085-.577.083-.869.5-.869.409 0 .628.361.628 1.033m-3.017 2.139c.296.479-.457.953-.99.624-.447-.277-.153-.996.407-.996.194 0 .456.168.583.372M258.8 288.4c0 .22-.371.4-.824.4-.453 0-.712-.18-.576-.4.136-.22.507-.4.824-.4.317 0 .576.18.576.4m-102.7.282a5.661 5.661 0 0 1-1.8 0c-.495-.095-.09-.173.9-.173s1.395.078.9.173m100.38.998c-.264.264-.48.894-.48 1.4 0 .64-.233.92-.767.92-1.265 0-4.551 1.571-5.833 2.789-1.508 1.433-5.485 1.93-5.722.715-.151-.776.869-1.315 3.204-1.693.948-.154 2.08-.798 3.138-1.784 1.346-1.256 2.059-1.595 3.812-1.814 1.185-.148 2.259-.436 2.385-.641.127-.205.346-.372.487-.372.141 0 .04.216-.224.48m4.32-.08c0 .22-.36.4-.8.4-.44 0-.8-.18-.8-.4 0-.22.36-.4.8-.4.44 0 .8.18.8.4m-111.841.636c.209.546 2.236 1.554 3.841 1.912.827.184 3.6 2.292 3.6 2.736 0 .219-2.644.019-3.548-.268-.469-.148-1.039-.618-1.266-1.043-.228-.425-.668-.773-.977-.773-.31 0-.799-.334-1.086-.743-.288-.408-.919-.867-1.403-1.02-.489-.155-.792-.505-.682-.791.252-.658 1.269-.665 1.521-.01m17.036.687c2.885.987 1.247 2.677-2.595 2.677-2.316 0-3-.474-3-2.08 0-1.283 2.738-1.575 5.595-.597M171.6 296c0 .22-.27.4-.6.4-.33 0-.6-.18-.6-.4 0-.22.27-.4.6-.4.33 0 .6.18.6.4m70.369 1.451c.735.845.808 1.121.372 1.413-2.079 1.393-2.341 1.289-2.341-.931 0-1.834.654-1.995 1.969-.482m9.014.977c-.127.204-.497.372-.822.372-.487 0-.5-.1-.077-.558.549-.594 1.287-.442.899.186m-6.626 2.726c-.998.808-1.957.712-1.957-.197 0-.373.476-.557 1.444-.557h1.445l-.932.754M192 304.4c0 .22-.551.4-1.224.4-.713 0-1.12-.167-.976-.4.136-.22.687-.4 1.224-.4.537 0 .976.18.976.4m37.628.026c.372.235-.442.364-2.328.368-1.595.003-2.9-.165-2.9-.373 0-.482 4.465-.478 5.228.005m-13.442 1.151c.128.207 1.038.498 2.023.645 4.698.705.386 2.278-4.687 1.71-1.827-.205-5.122-.385-7.322-.401-3.665-.027-3.797-.053-1.571-.313 1.336-.156 2.676-.436 2.977-.622.302-.186 1.674-.399 3.05-.472 1.376-.074 2.916-.3 3.423-.504 1.219-.489 1.824-.501 2.107-.043m5.814 1.195c0 .205.405.45.9.546.495.095.135.198-.8.228-1.269.04-1.7-.098-1.7-.546 0-.333.356-.6.8-.6.44 0 .8.167.8.372m-20.4.428c0 .22-.27.4-.6.4-.33 0-.6-.18-.6-.4 0-.22.27-.4.6-.4.33 0 .6.18.6.4" fill="#fbab07"/></g></svg>