<svg id="svg" version="1.1" xmlns="http://www.w3.org/2000/svg" xmlns:xlink="http://www.w3.org/1999/xlink" width="32" height="32" viewBox="0, 0, 400,400"><g id="svgg"><path id="path0" d="M190.164 108.063 C 189.704 108.284,188.940 109.262,188.467 110.236 C 186.772 113.725,187.639 113.597,165.736 113.599 L 146.471 113.600 145.436 114.831 C 144.866 115.508,144.400 116.309,144.400 116.611 C 144.400 118.563,141.590 120.000,137.774 120.000 C 133.727 120.000,133.328 120.222,131.575 123.450 C 131.232 124.082,130.091 125.041,129.042 125.580 C 126.310 126.983,126.000 127.599,126.000 131.619 C 126.000 136.768,126.051 136.800,134.426 136.801 C 142.794 136.803,146.003 136.025,148.028 133.506 C 149.894 131.184,151.882 130.419,156.085 130.409 C 160.266 130.398,163.110 129.475,165.430 127.373 C 168.631 124.475,167.786 124.600,184.217 124.600 C 200.725 124.600,200.236 124.523,202.104 127.407 C 203.326 129.294,203.864 129.155,204.572 126.769 C 206.053 121.782,205.871 121.165,202.400 119.397 C 201.109 118.739,200.269 117.910,199.431 116.466 C 198.586 115.010,197.715 114.154,196.283 113.375 C 195.175 112.772,194.017 111.765,193.652 111.086 C 192.391 108.742,191.092 107.616,190.164 108.063 M114.506 133.300 C 112.945 134.986,112.304 140.339,113.178 144.382 C 113.935 147.878,114.279 148.384,117.335 150.497 C 117.890 150.881,118.851 151.943,119.472 152.857 C 122.255 156.956,124.400 155.808,124.400 150.221 C 124.400 146.536,124.017 145.837,121.218 144.409 C 118.595 143.071,118.000 141.832,118.000 137.708 C 118.000 133.009,116.513 131.133,114.506 133.300 M95.988 142.795 C 94.162 144.114,91.312 144.800,87.656 144.800 C 82.866 144.800,82.400 145.267,82.400 150.071 C 82.400 155.234,83.049 155.766,89.000 155.483 C 96.001 155.150,97.066 154.730,98.830 151.600 C 99.635 150.170,100.940 148.530,101.730 147.956 C 103.144 146.927,103.152 146.906,102.265 146.502 C 101.771 146.277,100.378 145.190,99.171 144.087 C 96.983 142.087,96.974 142.083,95.988 142.795 M208.922 145.128 C 208.683 145.278,208.107 146.132,207.641 147.027 C 206.549 149.128,205.603 150.122,203.658 151.216 C 201.330 152.524,201.267 152.833,201.089 163.863 C 200.921 174.271,201.039 175.204,202.520 175.194 C 204.713 175.179,205.600 173.422,205.600 169.091 C 205.600 165.071,206.094 163.739,208.094 162.367 C 208.812 161.874,209.895 161.017,210.500 160.461 L 211.600 159.450 211.600 153.299 C 211.600 149.871,211.419 146.809,211.191 146.383 C 210.678 145.424,209.495 144.770,208.922 145.128 M152.306 149.621 C 150.594 150.101,148.602 151.475,148.007 152.587 C 147.708 153.145,146.873 153.950,146.151 154.376 C 144.985 155.064,142.800 158.442,142.800 159.556 C 142.800 160.441,145.067 162.523,147.205 163.603 C 148.528 164.270,150.050 165.453,150.791 166.388 C 153.316 169.576,155.344 168.914,156.677 164.465 C 159.052 156.536,156.657 148.403,152.306 149.621 M264.909 158.084 C 264.419 158.321,263.911 158.850,263.781 159.259 C 263.386 160.504,261.584 162.392,260.037 163.181 C 257.961 164.240,257.308 165.583,258.205 166.951 L 258.892 168.000 265.946 168.010 C 272.241 168.020,273.290 168.120,275.700 168.941 L 278.399 169.861 278.925 169.030 C 280.769 166.117,280.117 163.329,277.288 162.026 C 276.787 161.796,276.008 160.981,275.557 160.217 C 274.137 157.810,268.017 156.584,264.909 158.084 M120.900 164.485 C 119.473 166.018,119.495 184.586,120.926 185.930 C 123.248 188.112,124.277 186.660,124.464 180.936 C 124.624 176.038,125.028 175.094,127.140 174.672 C 130.342 174.032,131.771 167.193,129.232 164.655 C 127.889 163.311,122.103 163.193,120.900 164.485 M83.367 174.783 C 80.774 175.847,80.400 177.080,80.400 184.569 L 80.400 191.477 81.790 192.909 C 85.327 196.550,88.760 194.044,88.787 187.800 C 88.805 183.766,89.228 182.733,92.033 179.872 C 93.704 178.166,93.707 178.221,91.865 176.116 C 91.119 175.265,90.350 175.073,85.800 174.606 C 84.920 174.515,83.825 174.595,83.367 174.783 M277.679 174.924 C 276.208 176.772,276.000 177.968,276.000 184.596 C 276.000 191.862,275.562 193.620,273.398 195.038 C 271.584 196.227,268.781 194.606,268.275 192.075 C 267.311 187.256,263.263 188.775,264.032 193.667 C 264.619 197.401,264.701 197.549,266.684 198.481 C 269.503 199.807,270.248 201.819,269.619 206.419 C 268.754 212.750,269.926 218.000,272.205 218.000 C 273.025 218.000,274.383 216.190,274.620 214.781 C 274.748 214.021,274.935 212.992,275.035 212.494 C 275.136 211.996,276.092 210.623,277.161 209.444 C 279.820 206.507,280.289 204.780,280.536 197.000 C 280.737 190.701,281.686 185.688,282.811 184.993 C 283.025 184.861,283.200 183.250,283.200 181.414 L 283.200 178.074 281.300 176.504 C 279.059 174.652,278.196 174.275,277.679 174.924 M196.128 176.500 C 195.681 176.995,194.906 178.149,194.404 179.064 C 193.253 181.166,192.014 182.076,189.025 183.012 C 187.461 183.503,185.970 184.361,184.657 185.527 C 181.435 188.388,180.760 188.569,172.419 188.798 L 165.037 189.000 163.283 191.310 C 162.317 192.581,160.860 193.962,160.043 194.378 C 158.149 195.344,157.625 196.536,157.323 200.556 C 156.989 205.000,155.062 207.200,151.503 207.200 C 150.291 207.200,148.782 207.303,148.150 207.429 C 146.505 207.757,144.482 206.254,143.003 203.605 C 141.845 201.532,141.686 201.410,139.594 200.985 C 136.044 200.265,134.475 199.613,133.185 198.323 L 131.970 197.109 133.897 195.054 C 134.957 193.924,136.346 191.960,136.983 190.689 C 140.218 184.237,144.800 186.287,144.800 194.187 C 144.800 198.845,146.414 200.634,148.371 198.146 C 149.791 196.341,149.270 185.494,147.688 183.912 C 146.437 182.661,135.845 181.813,133.975 182.813 C 133.550 183.041,132.850 183.918,132.419 184.763 C 131.528 186.509,129.887 188.018,128.055 188.777 C 127.224 189.121,126.391 190.017,125.575 191.444 C 123.665 194.781,123.612 194.800,115.938 194.800 L 109.254 194.800 108.427 195.962 C 107.674 197.019,107.600 197.695,107.600 203.485 C 107.600 210.843,107.550 210.716,111.172 212.528 C 115.679 214.783,115.612 217.660,111.013 219.416 L 109.212 220.104 107.782 219.013 C 106.996 218.414,105.970 217.137,105.504 216.176 C 104.484 214.077,104.273 213.979,100.200 213.712 C 96.367 213.461,95.418 214.102,94.282 217.707 C 93.907 218.895,92.986 220.662,92.235 221.634 C 91.483 222.605,90.403 224.282,89.834 225.360 L 88.800 227.319 88.813 246.560 C 88.826 266.471,88.807 266.224,90.453 267.510 C 91.496 268.325,95.907 266.546,97.852 264.527 C 98.778 263.566,100.204 262.638,101.400 262.217 C 102.500 261.830,103.936 261.314,104.591 261.071 C 105.246 260.827,106.711 259.787,107.846 258.759 C 109.596 257.174,110.377 256.779,112.979 256.166 C 115.000 255.690,116.378 255.113,117.012 254.479 L 117.975 253.516 118.087 236.787 C 118.197 220.567,118.225 220.024,119.031 218.946 C 120.394 217.120,122.025 216.668,123.491 217.709 C 125.794 219.345,126.004 220.763,126.002 234.625 L 126.000 247.050 127.122 248.125 L 128.244 249.200 153.161 249.200 C 180.525 249.200,179.850 249.143,181.608 251.611 C 182.845 253.348,182.435 256.289,180.846 257.076 C 180.491 257.251,173.540 257.519,165.400 257.669 C 147.217 258.007,147.238 258.004,145.295 260.074 C 142.386 263.174,141.795 263.319,131.200 263.522 C 120.710 263.723,120.883 263.678,118.896 266.743 C 117.504 268.890,116.305 269.467,112.566 269.791 C 108.723 270.124,108.827 270.067,107.449 272.600 C 105.953 275.351,104.541 276.000,100.053 276.000 C 96.199 276.000,95.659 276.285,94.261 279.052 C 93.673 280.217,93.199 280.672,90.037 283.105 C 89.372 283.617,88.740 284.573,88.581 285.305 C 88.186 287.133,86.535 290.285,85.739 290.730 C 85.135 291.068,85.147 291.129,85.869 291.359 C 86.624 291.598,88.032 294.173,88.625 296.400 C 88.918 297.499,90.316 299.200,90.926 299.200 C 91.454 299.200,92.262 298.125,93.251 296.108 C 95.051 292.436,98.424 292.052,100.401 295.295 C 101.152 296.526,101.197 297.328,101.199 309.411 C 101.200 323.844,101.121 323.446,104.201 324.621 C 106.898 325.652,107.598 327.053,107.609 331.447 C 107.621 336.228,107.900 336.558,112.600 337.347 C 116.021 337.922,116.280 338.038,117.800 339.676 C 120.204 342.267,121.934 343.070,123.426 342.287 L 124.600 341.672 124.600 331.281 C 124.600 318.349,124.785 318.000,131.633 318.000 C 135.615 318.000,137.114 318.754,138.347 321.376 C 140.464 325.881,142.512 324.803,142.984 318.936 C 143.513 312.352,147.209 310.085,150.014 314.623 C 150.505 315.417,151.375 316.501,151.949 317.033 L 152.992 318.000 172.021 318.000 L 191.050 318.000 192.079 316.900 C 192.646 316.295,193.398 315.226,193.752 314.525 C 194.182 313.672,195.198 312.821,196.818 311.958 C 198.151 311.248,199.637 310.202,200.121 309.633 C 200.605 309.065,201.744 308.017,202.651 307.305 C 203.701 306.482,204.771 305.066,205.591 303.417 C 206.618 301.353,207.312 300.538,208.994 299.421 C 211.398 297.826,211.431 297.768,211.795 294.563 C 212.221 290.808,212.709 289.763,215.229 287.202 L 217.600 284.795 217.600 281.559 C 217.600 276.618,217.023 276.000,212.412 276.000 L 208.879 276.000 207.739 277.431 C 204.629 281.337,204.105 281.724,202.287 281.461 C 199.432 281.049,197.678 280.414,196.385 279.326 L 195.145 278.283 197.001 276.399 C 198.022 275.363,199.276 273.610,199.788 272.504 C 200.424 271.131,201.284 270.105,202.499 269.269 C 205.234 267.388,205.600 266.584,205.600 262.460 C 205.600 257.340,202.622 255.627,200.723 259.655 C 198.656 264.035,191.402 264.439,186.039 260.473 L 184.678 259.466 185.555 258.756 C 187.033 257.559,190.438 256.501,193.800 256.194 C 199.866 255.640,200.928 253.416,196.316 250.925 C 189.194 247.078,194.480 241.073,202.893 243.454 C 205.897 244.303,206.322 237.827,203.413 235.539 C 201.881 234.333,202.671 233.733,206.549 233.157 L 209.694 232.689 210.917 233.998 C 215.014 238.381,218.354 237.087,217.831 231.320 C 217.478 227.425,217.480 227.428,214.786 225.791 C 213.025 224.722,212.342 224.036,211.998 222.994 C 211.747 222.234,210.994 221.205,210.324 220.707 C 208.405 219.278,206.272 217.056,205.393 215.569 C 204.941 214.804,203.800 213.794,202.793 213.269 C 200.495 212.070,199.789 211.421,199.178 209.947 C 198.831 209.109,197.997 208.406,196.384 207.592 C 191.827 205.292,191.454 202.508,195.201 198.760 L 197.092 196.870 195.930 196.011 C 195.291 195.539,194.289 194.175,193.703 192.980 L 192.637 190.808 193.456 189.704 C 193.905 189.097,194.887 188.205,195.637 187.723 C 198.904 185.619,199.027 185.443,199.732 181.854 C 200.658 177.143,200.616 176.463,199.374 175.990 C 197.803 175.393,197.015 175.517,196.128 176.500 M118.344 200.867 C 120.580 203.053,120.149 205.200,117.125 206.943 L 115.650 207.794 114.525 206.960 C 111.278 204.554,111.210 202.238,114.324 200.139 C 115.849 199.112,116.708 199.267,118.344 200.867 M207.786 246.015 C 207.065 246.812,207.073 246.855,208.129 247.910 C 209.767 249.549,212.167 247.732,210.621 246.023 C 209.677 244.980,208.726 244.977,207.786 246.015 M154.714 274.830 C 156.978 275.619,157.950 278.195,156.672 280.019 C 155.167 282.168,154.281 282.395,147.389 282.397 C 140.116 282.400,139.907 282.470,138.412 285.376 C 136.661 288.781,136.259 288.882,125.102 288.731 C 115.688 288.604,115.361 288.572,114.094 287.668 C 109.632 284.486,112.485 280.418,119.200 280.387 C 123.052 280.370,123.714 280.099,125.830 277.678 C 127.704 275.533,128.420 275.148,131.190 274.790 C 134.843 274.319,153.337 274.350,154.714 274.830 " stroke="none" fill="#f6b237" fill-rule="evenodd"></path><path id="path1" d="M158.606 64.935 C 157.352 66.848,158.800 68.303,160.333 66.672 L 161.204 65.744 160.236 64.834 L 159.268 63.924 158.606 64.935 M152.260 71.601 C 151.708 72.258,151.141 73.156,151.001 73.597 C 150.861 74.037,149.904 74.878,148.873 75.466 C 146.234 76.972,145.622 77.567,144.706 79.512 C 144.165 80.663,143.346 81.550,142.209 82.216 C 139.874 83.584,139.358 84.275,138.845 86.720 C 138.600 87.886,138.131 89.361,137.801 89.997 C 137.105 91.345,137.194 91.431,139.654 91.800 L 141.508 92.077 142.654 89.963 C 143.490 88.420,144.244 87.625,145.443 87.024 C 147.757 85.863,148.333 85.305,149.410 83.181 C 150.700 80.634,152.131 80.004,156.660 79.987 C 166.580 79.950,170.499 77.691,162.310 76.730 C 158.260 76.254,156.288 75.135,155.344 72.778 C 154.416 70.458,153.512 70.113,152.260 71.601 M246.081 71.314 C 243.875 73.661,245.069 79.750,248.145 81.840 C 248.945 82.384,249.600 82.989,249.600 83.184 C 249.600 84.099,252.184 85.997,254.245 86.596 C 256.785 87.334,258.400 88.709,258.400 90.133 C 258.400 91.672,259.392 92.233,260.164 91.130 C 260.514 90.631,260.800 89.916,260.800 89.542 C 260.800 88.433,262.714 86.489,264.313 85.975 C 268.038 84.775,267.272 83.810,262.318 83.458 C 257.888 83.144,256.631 82.237,255.205 78.325 C 254.725 77.009,253.985 75.633,253.560 75.266 C 253.135 74.900,251.913 73.745,250.844 72.700 C 249.774 71.655,248.712 70.800,248.483 70.800 C 248.253 70.800,247.817 70.705,247.514 70.588 C 247.210 70.472,246.565 70.798,246.081 71.314 M164.056 140.022 C 163.317 140.473,162.147 141.383,161.456 142.044 C 159.027 144.368,156.153 145.200,150.560 145.200 C 146.681 145.200,145.142 145.778,144.207 147.587 C 143.873 148.232,142.799 149.429,141.821 150.248 C 139.313 152.343,139.162 152.925,139.289 159.990 L 139.400 166.162 141.707 167.914 C 142.976 168.879,144.302 170.237,144.654 170.934 C 146.047 173.692,146.610 173.997,150.370 174.030 C 155.238 174.074,156.192 174.512,157.732 177.413 L 159.000 179.800 165.725 179.910 C 172.103 180.014,172.513 179.974,173.684 179.140 L 174.920 178.260 173.760 177.332 C 173.122 176.822,172.410 176.403,172.178 176.402 C 171.125 176.397,168.092 174.022,167.836 173.002 C 167.413 171.316,168.727 169.193,170.851 168.135 C 173.062 167.032,173.844 166.187,174.517 164.173 C 174.954 162.868,175.405 162.422,177.164 161.556 C 179.877 160.220,179.987 160.015,179.994 156.260 C 180.004 151.163,182.245 148.359,185.780 149.023 C 188.507 149.534,189.000 150.625,189.000 156.150 C 189.000 161.939,188.600 162.903,185.901 163.622 C 183.076 164.374,182.800 164.834,182.800 168.792 C 182.800 171.903,182.896 172.350,183.728 173.133 L 184.656 174.004 185.473 173.102 C 185.922 172.606,186.498 171.578,186.752 170.818 C 187.441 168.762,188.248 167.706,189.950 166.632 C 193.291 164.523,193.216 147.751,189.857 145.898 C 188.682 145.250,187.937 144.417,187.183 142.908 C 185.209 138.957,186.004 139.200,175.038 139.201 C 166.029 139.203,165.312 139.256,164.056 140.022 M221.246 140.151 L 220.367 141.086 221.363 141.739 C 221.910 142.097,222.593 142.312,222.879 142.215 C 223.166 142.119,224.209 141.832,225.197 141.578 L 226.994 141.117 225.597 140.415 C 223.123 139.171,222.218 139.116,221.246 140.151 M240.083 146.111 L 239.196 147.056 240.141 147.945 L 241.086 148.833 241.702 147.893 C 242.261 147.040,242.256 146.870,241.645 146.059 L 240.971 145.166 240.083 146.111 M156.400 151.397 C 158.620 153.779,157.452 165.507,154.770 167.764 C 153.301 169.000,152.693 168.790,150.791 166.388 C 150.050 165.453,148.528 164.270,147.205 163.603 C 145.067 162.523,142.800 160.441,142.800 159.556 C 142.800 158.442,144.985 155.064,146.151 154.376 C 146.873 153.950,147.708 153.145,148.007 152.587 C 149.764 149.305,153.903 148.718,156.400 151.397 M252.250 152.432 C 251.373 153.122,251.261 153.391,251.652 153.863 C 252.675 155.096,253.452 155.209,254.347 154.256 L 255.204 153.344 254.267 152.463 L 253.330 151.583 252.250 152.432 M96.117 164.900 C 95.664 165.395,95.003 166.376,94.647 167.079 C 93.372 169.603,91.753 170.400,87.898 170.400 C 84.257 170.400,82.990 171.111,82.201 173.597 C 82.061 174.037,81.104 174.878,80.073 175.465 C 76.259 177.639,76.400 177.287,76.400 184.630 L 76.400 191.121 77.831 192.261 C 79.281 193.416,81.036 195.141,83.161 197.500 C 84.246 198.705,84.516 198.800,86.866 198.805 C 88.260 198.808,89.794 198.917,90.277 199.046 C 91.038 199.250,91.328 198.927,92.477 196.592 C 93.644 194.220,94.060 193.764,96.000 192.729 C 98.854 191.207,98.673 191.483,99.172 187.859 C 99.908 182.500,101.387 181.034,106.522 180.569 C 110.649 180.195,111.206 179.559,111.186 175.246 C 111.169 171.724,110.875 171.063,108.322 168.821 C 107.290 167.914,106.335 166.827,106.202 166.406 C 105.444 164.017,97.947 162.898,96.117 164.900 M89.246 175.001 C 90.441 175.151,91.364 175.544,91.865 176.116 C 93.707 178.221,93.704 178.166,92.033 179.872 C 89.228 182.733,88.805 183.766,88.787 187.800 C 88.760 194.044,85.327 196.550,81.790 192.909 L 80.400 191.477 80.400 184.569 C 80.400 177.668,80.401 177.660,81.467 176.393 C 83.174 174.364,83.582 174.291,89.246 175.001 M314.922 201.840 C 314.473 202.478,313.965 203.450,313.795 204.000 C 313.109 206.210,310.550 208.400,308.652 208.400 C 308.333 208.400,307.301 209.209,306.359 210.198 C 305.417 211.186,304.353 212.088,303.994 212.202 C 303.636 212.316,302.933 213.138,302.432 214.029 C 301.339 215.974,301.721 216.638,304.844 218.222 C 306.715 219.170,307.649 220.498,308.205 223.000 C 308.352 223.660,308.655 224.800,308.878 225.534 L 309.285 226.869 310.342 225.897 C 310.924 225.362,312.417 224.616,313.660 224.238 C 317.320 223.125,318.079 220.793,315.109 219.786 C 311.624 218.605,311.381 214.150,314.708 212.442 C 317.708 210.902,318.873 204.596,316.668 201.840 L 315.740 200.680 314.922 201.840 " stroke="none" fill="#f91546" fill-rule="evenodd"></path><path id="path2" d="M157.715 63.300 C 157.032 64.015,156.204 65.254,155.877 66.053 C 155.411 67.187,154.778 67.756,152.983 68.653 C 151.397 69.444,150.461 70.221,149.961 71.158 C 148.906 73.140,147.294 74.681,146.007 74.939 C 145.161 75.108,144.511 75.771,143.401 77.598 C 142.588 78.937,141.445 80.328,140.861 80.690 C 138.763 81.991,137.885 83.044,136.606 85.800 C 135.891 87.340,134.742 89.129,134.053 89.775 C 132.337 91.384,132.151 96.451,133.753 97.955 L 134.705 98.850 136.184 97.046 C 137.123 95.899,138.198 95.078,139.131 94.793 C 141.631 94.029,142.465 93.468,143.869 91.602 C 144.615 90.611,146.164 89.165,147.312 88.389 C 148.461 87.613,149.963 86.119,150.650 85.069 C 152.601 82.092,152.759 82.029,158.400 81.995 C 165.137 81.955,166.656 81.624,168.288 79.844 C 170.938 76.951,168.709 74.800,163.060 74.800 L 159.241 74.800 158.174 73.401 C 156.898 71.729,157.413 70.423,159.727 69.456 C 163.089 68.052,163.839 65.745,161.647 63.553 C 159.759 61.665,159.305 61.635,157.715 63.300 M160.333 66.672 C 158.800 68.303,157.352 66.848,158.606 64.935 L 159.268 63.924 160.236 64.834 L 161.204 65.744 160.333 66.672 M245.549 69.047 C 243.247 70.534,242.377 75.720,243.686 80.154 C 244.461 82.776,248.757 86.884,251.908 88.014 C 254.505 88.945,255.436 89.773,257.903 93.345 C 259.479 95.627,260.140 95.364,262.566 91.493 C 263.532 89.951,264.660 88.786,265.967 87.983 C 271.162 84.786,269.495 81.200,262.814 81.200 C 258.740 81.200,258.146 80.763,256.991 76.914 C 256.126 74.031,253.558 69.887,252.248 69.259 C 250.393 68.369,246.775 68.255,245.549 69.047 M155.344 72.778 C 156.288 75.135,158.260 76.254,162.310 76.730 C 170.499 77.691,166.580 79.950,156.660 79.987 C 152.131 80.004,150.700 80.634,149.410 83.181 C 148.333 85.305,147.757 85.863,145.443 87.024 C 144.244 87.625,143.490 88.420,142.654 89.963 L 141.508 92.077 139.654 91.800 C 137.194 91.431,137.105 91.345,137.801 89.997 C 138.131 89.361,138.600 87.886,138.845 86.720 C 139.358 84.275,139.874 83.584,142.209 82.216 C 143.346 81.550,144.165 80.663,144.706 79.512 C 145.622 77.567,146.234 76.972,148.873 75.466 C 149.904 74.878,150.861 74.037,151.001 73.597 C 152.030 70.354,154.210 69.943,155.344 72.778 M248.483 70.800 C 248.712 70.800,249.774 71.655,250.844 72.700 C 251.913 73.745,253.135 74.900,253.560 75.266 C 253.985 75.633,254.725 77.009,255.205 78.325 C 256.631 82.237,257.888 83.144,262.318 83.458 C 267.272 83.810,268.038 84.775,264.313 85.975 C 262.714 86.489,260.800 88.433,260.800 89.542 C 260.800 89.916,260.514 90.631,260.164 91.130 C 259.392 92.233,258.400 91.672,258.400 90.133 C 258.400 88.709,256.785 87.334,254.245 86.596 C 252.184 85.997,249.600 84.099,249.600 83.184 C 249.600 82.989,248.945 82.384,248.145 81.840 C 245.742 80.207,245.206 79.039,245.203 75.426 C 245.200 72.090,246.164 70.071,247.514 70.588 C 247.817 70.705,248.253 70.800,248.483 70.800 M189.698 106.271 C 188.987 106.616,188.015 107.551,187.538 108.349 C 187.061 109.147,186.308 110.205,185.866 110.700 L 185.061 111.600 166.030 111.601 C 144.932 111.603,145.437 111.542,143.757 114.281 C 141.287 118.307,141.771 117.994,138.000 117.999 C 134.102 118.004,132.423 118.728,131.277 120.898 C 130.305 122.738,128.208 124.800,127.310 124.800 C 125.308 124.800,124.600 126.524,124.600 131.400 C 124.600 138.533,125.303 138.979,136.089 138.697 C 145.523 138.450,146.988 138.062,149.751 135.076 C 152.041 132.600,152.268 132.519,157.600 132.258 C 162.497 132.017,165.350 131.134,167.179 129.290 C 170.623 125.818,169.663 126.000,184.518 126.000 L 197.725 126.000 200.430 128.831 C 202.688 131.195,203.256 131.598,203.868 131.268 C 208.003 129.039,208.606 121.257,204.818 119.000 C 203.106 117.980,201.223 116.098,200.200 114.385 C 199.760 113.648,198.602 112.580,197.626 112.011 C 196.650 111.443,195.300 110.195,194.626 109.239 C 192.550 106.294,191.258 105.516,189.698 106.271 M193.652 111.086 C 194.017 111.765,195.175 112.772,196.283 113.375 C 197.715 114.154,198.586 115.010,199.431 116.466 C 200.269 117.910,201.109 118.739,202.400 119.397 C 205.871 121.165,206.053 121.782,204.572 126.769 C 203.864 129.155,203.326 129.294,202.104 127.407 C 200.236 124.523,200.725 124.600,184.217 124.600 C 167.786 124.600,168.631 124.475,165.430 127.373 C 163.110 129.475,160.266 130.398,156.085 130.409 C 151.882 130.419,149.894 131.184,148.028 133.506 C 146.003 136.025,142.794 136.803,134.426 136.801 C 126.051 136.800,126.000 136.768,126.000 131.619 C 126.000 127.599,126.310 126.983,129.042 125.580 C 130.091 125.041,131.232 124.082,131.575 123.450 C 133.328 120.222,133.727 120.000,137.774 120.000 C 141.590 120.000,144.400 118.563,144.400 116.611 C 144.400 116.309,144.866 115.508,145.436 114.831 L 146.471 113.600 165.736 113.599 C 187.639 113.597,186.772 113.725,188.467 110.236 C 190.022 107.036,191.614 107.297,193.652 111.086 M114.507 131.194 C 112.496 132.416,108.981 140.563,109.953 141.749 C 110.156 141.997,110.706 143.467,111.175 145.017 C 112.276 148.655,113.205 150.141,115.145 151.366 C 116.011 151.912,117.238 153.131,117.871 154.073 C 121.563 159.570,126.000 157.456,126.000 150.200 C 126.000 146.447,125.081 144.379,122.895 143.214 C 120.028 141.687,120.000 141.635,120.000 137.915 C 120.000 132.735,117.334 129.474,114.507 131.194 M117.074 133.270 C 117.908 134.053,118.000 134.495,118.000 137.708 C 118.000 141.832,118.595 143.071,121.218 144.409 C 124.017 145.837,124.400 146.536,124.400 150.221 C 124.400 155.808,122.255 156.956,119.472 152.857 C 118.851 151.943,117.890 150.881,117.335 150.497 C 113.214 147.648,111.941 143.807,113.060 137.600 C 113.910 132.882,115.191 131.500,117.074 133.270 M162.872 137.874 C 161.922 138.210,160.407 139.186,159.507 140.043 C 158.606 140.899,157.739 141.600,157.579 141.600 C 157.418 141.600,156.503 141.956,155.544 142.391 C 154.213 142.995,152.918 143.185,150.080 143.191 C 147.467 143.197,145.980 143.392,145.080 143.846 C 143.561 144.612,141.600 146.375,141.600 146.975 C 141.600 147.209,140.970 147.903,140.199 148.518 C 137.543 150.637,137.200 151.899,137.200 159.553 C 137.200 167.074,137.468 167.884,140.465 169.434 C 141.108 169.766,142.261 171.017,143.026 172.213 C 144.852 175.068,145.952 175.598,150.080 175.609 C 153.817 175.619,154.439 175.928,156.106 178.600 C 158.296 182.110,158.160 182.067,166.453 181.925 C 174.437 181.789,175.296 181.545,177.012 178.925 C 177.794 177.733,175.071 174.800,173.183 174.800 C 169.610 174.800,169.157 171.650,172.438 169.620 C 173.700 168.840,174.670 167.786,175.532 166.259 C 178.356 161.256,180.800 162.599,180.800 169.155 C 180.800 176.355,185.290 178.074,188.513 172.107 C 189.125 170.974,190.363 169.463,191.264 168.749 C 194.056 166.538,194.981 160.861,194.214 150.649 L 193.918 146.698 191.342 144.097 C 189.926 142.667,188.511 141.001,188.198 140.396 C 187.885 139.790,187.068 138.824,186.384 138.248 L 185.139 137.200 174.869 137.232 C 166.741 137.257,164.240 137.391,162.872 137.874 M219.953 138.753 C 219.099 139.607,218.400 140.576,218.400 140.906 C 218.400 141.768,221.446 144.400,222.443 144.400 C 224.241 144.400,228.168 143.100,229.442 142.084 L 230.779 141.017 229.548 139.747 C 228.671 138.841,227.588 138.293,225.776 137.838 C 222.179 136.935,221.695 137.011,219.953 138.753 M95.525 140.080 C 93.666 142.071,91.612 142.800,87.856 142.801 C 82.311 142.804,80.403 144.698,80.403 150.200 C 80.403 156.974,83.206 158.456,93.610 157.186 C 97.531 156.708,98.378 156.212,100.497 153.161 C 101.320 151.975,102.919 150.189,104.051 149.191 C 106.582 146.959,106.489 146.233,103.410 144.189 C 102.234 143.409,100.350 141.877,99.223 140.785 C 96.796 138.434,97.023 138.477,95.525 140.080 M185.407 140.008 C 185.809 140.452,186.608 141.757,187.183 142.908 C 187.937 144.417,188.682 145.250,189.857 145.898 C 193.216 147.751,193.291 164.523,189.950 166.632 C 188.248 167.706,187.441 168.762,186.752 170.818 C 186.498 171.578,185.922 172.606,185.473 173.102 L 184.656 174.004 183.728 173.133 C 182.896 172.350,182.800 171.903,182.800 168.792 C 182.800 164.834,183.076 164.374,185.901 163.622 C 190.620 162.365,190.517 149.911,185.780 149.023 C 182.245 148.359,180.004 151.163,179.994 156.260 C 179.987 160.015,179.877 160.220,177.164 161.556 C 175.405 162.422,174.954 162.868,174.517 164.173 C 173.844 166.187,173.062 167.032,170.851 168.135 C 168.727 169.193,167.413 171.316,167.836 173.002 C 168.092 174.022,171.125 176.397,172.178 176.402 C 172.410 176.403,173.122 176.822,173.760 177.332 L 174.920 178.260 173.684 179.140 C 172.513 179.974,172.103 180.014,165.725 179.910 L 159.000 179.800 157.732 177.413 C 156.192 174.512,155.238 174.074,150.370 174.030 C 146.610 173.997,146.047 173.692,144.654 170.934 C 144.302 170.237,142.976 168.879,141.707 167.914 L 139.400 166.162 139.289 159.990 C 139.162 152.925,139.313 152.343,141.821 150.248 C 142.799 149.429,143.873 148.232,144.207 147.587 C 145.142 145.778,146.681 145.200,150.560 145.200 C 156.153 145.200,159.027 144.368,161.456 142.044 C 164.434 139.195,164.393 139.203,175.038 139.201 C 184.199 139.200,184.712 139.240,185.407 140.008 M225.597 140.415 L 226.994 141.117 225.197 141.578 C 224.209 141.832,223.166 142.119,222.879 142.215 C 222.593 142.312,221.910 142.097,221.363 141.739 L 220.367 141.086 221.246 140.151 C 222.218 139.116,223.123 139.171,225.597 140.415 M102.265 146.502 C 103.152 146.906,103.144 146.927,101.730 147.956 C 100.940 148.530,99.635 150.170,98.830 151.600 C 97.066 154.730,96.001 155.150,89.000 155.483 C 83.049 155.766,82.400 155.234,82.400 150.071 C 82.400 145.267,82.866 144.800,87.656 144.800 C 91.312 144.800,94.162 144.114,95.988 142.795 C 96.974 142.083,96.983 142.087,99.171 144.087 C 100.378 145.190,101.771 146.277,102.265 146.502 M207.694 144.293 C 206.872 145.158,205.840 146.471,205.400 147.211 C 204.960 147.950,203.790 149.027,202.800 149.603 C 199.397 151.584,199.309 151.893,199.110 162.496 C 198.911 173.107,198.959 172.903,196.355 174.223 C 194.876 174.972,194.170 175.664,193.414 177.104 C 191.809 180.163,191.487 180.415,188.347 181.065 C 184.800 181.799,183.522 182.425,182.424 183.966 C 180.608 186.517,179.598 186.800,172.312 186.800 C 164.920 186.800,164.063 187.069,162.083 190.010 C 161.568 190.774,160.308 192.034,159.283 192.810 C 156.558 194.870,155.816 196.211,155.234 200.125 C 154.615 204.288,154.343 204.562,150.230 205.157 C 144.750 205.950,143.060 203.113,147.772 201.029 C 150.945 199.626,151.401 198.180,151.028 190.696 C 150.560 181.316,149.562 180.554,137.600 180.433 C 134.154 180.398,132.410 181.177,131.277 183.259 C 128.309 188.706,126.000 187.954,126.000 181.538 C 126.000 177.262,126.206 176.890,129.492 175.241 C 131.939 174.013,132.434 172.796,132.136 168.738 C 131.745 163.385,130.645 162.256,125.400 161.827 C 118.764 161.284,118.003 162.663,118.001 175.241 C 118.000 186.029,118.143 186.559,121.525 188.269 C 127.267 191.172,125.291 192.768,115.931 192.787 C 106.126 192.806,105.600 193.364,105.600 203.751 L 105.600 210.342 104.500 211.214 C 103.502 212.005,103.102 212.062,100.180 211.828 C 95.940 211.490,94.805 212.177,92.758 216.326 C 91.964 217.933,90.683 219.912,89.909 220.724 C 87.046 223.730,87.032 223.846,86.901 246.000 C 86.786 265.248,86.806 265.836,87.588 267.104 C 88.502 268.584,90.700 270.074,91.599 269.823 C 91.929 269.731,93.276 269.441,94.591 269.180 C 96.654 268.771,97.266 268.421,99.059 266.628 C 101.060 264.627,102.098 264.030,106.000 262.637 C 106.990 262.283,108.582 261.288,109.537 260.425 C 110.728 259.348,112.121 258.598,113.973 258.036 C 120.134 256.164,120.000 256.624,120.000 237.426 L 120.000 221.613 121.103 220.378 L 122.207 219.143 123.203 220.203 L 124.200 221.263 124.400 234.531 C 124.613 248.673,124.640 248.858,126.684 250.243 C 127.742 250.960,129.131 251.010,153.258 251.200 C 180.576 251.415,180.400 251.400,180.400 253.392 C 180.400 255.427,179.310 255.600,166.458 255.600 C 148.777 255.600,146.372 255.958,142.778 259.125 C 140.404 261.217,138.323 261.600,129.335 261.600 C 120.924 261.600,119.890 261.900,117.593 265.010 C 116.022 267.136,113.857 268.000,110.098 268.000 C 108.968 268.000,106.930 269.776,106.025 271.550 C 104.742 274.064,104.232 274.298,99.653 274.473 C 95.029 274.650,94.776 274.800,92.421 278.753 C 91.882 279.657,91.132 280.495,90.754 280.615 C 89.315 281.071,87.927 282.568,86.743 284.941 C 86.068 286.293,84.680 288.182,83.658 289.138 L 81.800 290.875 83.562 292.402 C 84.572 293.277,85.939 295.095,86.762 296.658 C 87.649 298.340,88.717 299.731,89.548 300.286 L 90.897 301.186 92.106 300.324 C 92.772 299.851,93.605 298.931,93.958 298.281 C 95.790 294.908,96.934 294.240,98.330 295.726 C 99.186 296.636,99.200 296.863,99.200 309.346 C 99.200 323.688,99.219 323.791,102.108 325.241 C 105.323 326.855,105.600 327.318,105.600 331.090 C 105.600 336.280,106.711 337.754,111.846 339.376 C 113.864 340.013,115.605 340.861,116.446 341.618 C 118.286 343.273,120.383 344.327,122.463 344.643 C 124.381 344.934,125.395 345.643,126.245 347.287 C 127.185 349.104,128.230 349.407,129.428 348.209 C 130.631 347.005,130.533 346.439,128.564 343.200 C 126.537 339.868,126.013 336.911,126.006 328.770 C 125.998 319.928,125.953 320.000,131.456 320.000 C 135.422 320.000,135.932 320.267,137.360 323.094 C 139.797 327.916,144.366 325.647,144.994 319.303 C 145.492 314.276,146.875 313.434,149.029 316.846 C 151.020 320.000,151.021 320.000,172.134 320.000 L 190.816 320.000 192.352 319.030 C 193.197 318.497,194.349 317.275,194.911 316.316 C 195.715 314.943,196.448 314.334,198.345 313.458 C 199.672 312.845,201.365 311.672,202.107 310.851 C 202.849 310.029,204.004 308.967,204.674 308.490 C 205.393 307.978,206.247 306.758,206.760 305.511 C 208.116 302.215,208.561 301.592,210.224 300.659 C 212.375 299.452,213.366 297.790,213.979 294.363 C 214.448 291.736,214.684 291.253,216.220 289.759 C 221.226 284.894,220.624 273.263,215.400 273.911 C 215.180 273.939,213.228 274.152,211.063 274.386 C 206.298 274.901,205.759 275.163,204.788 277.428 C 203.981 279.311,203.647 279.454,201.668 278.764 C 200.471 278.347,200.440 278.281,200.955 277.264 C 201.251 276.679,201.713 275.264,201.982 274.119 C 202.382 272.414,202.798 271.771,204.285 270.552 C 209.415 266.348,208.977 258.714,203.433 255.677 C 201.891 254.833,201.351 254.263,200.934 253.042 C 200.242 251.016,199.701 250.400,198.000 249.700 C 196.412 249.046,194.800 247.686,194.800 247.000 C 194.800 243.879,202.726 244.433,205.072 247.717 C 206.871 250.237,208.814 251.132,210.615 250.273 C 213.912 248.701,213.706 245.219,210.216 243.523 C 207.855 242.376,207.319 241.319,207.976 239.105 C 208.767 236.442,208.911 236.376,211.598 237.461 C 217.653 239.907,220.206 237.874,219.721 230.992 C 219.456 227.249,218.142 224.800,216.398 224.800 C 215.657 224.800,214.211 223.254,212.656 220.800 C 212.168 220.030,211.041 218.998,210.152 218.507 C 209.065 217.907,208.180 216.962,207.452 215.624 C 206.355 213.609,205.469 212.744,203.261 211.531 C 202.591 211.163,201.393 209.957,200.598 208.850 C 199.803 207.744,198.784 206.722,198.332 206.579 C 194.334 205.309,193.968 202.591,197.415 199.767 C 200.423 197.301,200.423 197.150,197.421 194.206 C 194.093 190.943,194.154 190.129,197.865 188.255 C 199.445 187.457,200.620 185.986,201.207 184.075 C 202.266 180.624,203.337 178.402,204.219 177.824 C 206.328 176.443,207.374 173.761,207.538 169.315 C 207.705 164.827,208.023 164.166,210.719 162.723 C 215.171 160.341,215.003 146.116,210.492 143.481 L 209.187 142.719 207.694 144.293 M238.753 144.753 C 237.899 145.607,237.200 146.618,237.200 147.000 C 237.200 147.897,240.097 150.800,240.993 150.800 C 243.122 150.800,244.928 147.338,243.712 145.589 C 241.807 142.849,240.823 142.683,238.753 144.753 M211.191 146.383 C 211.419 146.809,211.600 149.871,211.600 153.299 L 211.600 159.450 210.500 160.461 C 209.895 161.017,208.812 161.874,208.094 162.367 C 206.094 163.739,205.600 165.071,205.600 169.091 C 205.600 173.422,204.713 175.179,202.520 175.194 C 201.039 175.204,200.921 174.271,201.089 163.863 C 201.267 152.833,201.330 152.524,203.658 151.216 C 205.603 150.122,206.549 149.128,207.641 147.027 C 208.900 144.607,210.122 144.385,211.191 146.383 M241.702 147.893 L 241.086 148.833 240.141 147.945 L 239.196 147.056 240.083 146.111 L 240.971 145.166 241.645 146.059 C 242.256 146.870,242.261 147.040,241.702 147.893 M251.335 150.424 C 247.895 152.628,248.716 155.961,252.961 157.026 C 254.144 157.323,257.200 154.709,257.200 153.400 C 257.200 151.037,253.393 149.106,251.335 150.424 M186.636 152.598 C 187.556 154.003,187.054 159.425,185.885 160.700 C 183.903 162.863,182.455 161.334,182.131 156.735 L 181.893 153.368 183.176 152.086 C 184.606 150.655,185.444 150.780,186.636 152.598 M254.347 154.256 C 253.452 155.209,252.675 155.096,251.652 153.863 C 251.261 153.391,251.373 153.122,252.250 152.432 L 253.330 151.583 254.267 152.463 L 255.204 153.344 254.347 154.256 M264.390 156.500 C 263.659 156.995,262.507 158.183,261.831 159.139 C 261.154 160.096,259.882 161.363,259.005 161.955 C 255.455 164.352,255.111 166.291,257.793 168.800 C 258.835 169.775,259.045 169.805,266.331 170.000 C 273.436 170.190,273.871 170.248,275.253 171.183 L 276.705 172.166 275.679 173.783 C 274.685 175.349,274.647 175.650,274.474 183.378 L 274.294 191.356 273.216 192.510 L 272.138 193.663 270.969 192.291 C 270.326 191.536,269.496 190.355,269.123 189.667 C 267.415 186.509,264.624 186.431,262.565 189.486 C 261.057 191.724,261.967 197.717,264.052 199.277 C 268.232 202.404,268.576 203.257,267.228 207.161 C 265.827 211.217,267.697 217.592,270.770 219.240 C 272.817 220.338,274.066 219.509,275.829 215.883 C 276.600 214.297,278.017 212.190,278.979 211.200 C 281.470 208.634,282.017 206.661,282.417 198.800 C 282.804 191.164,283.051 190.117,285.206 186.944 C 288.439 182.184,287.568 177.486,282.854 174.265 L 280.106 172.388 280.863 170.858 C 283.122 166.294,282.438 163.636,277.948 159.524 C 273.459 155.413,267.843 154.161,264.390 156.500 M273.507 158.214 C 274.184 158.551,275.106 159.453,275.557 160.217 C 276.008 160.981,276.787 161.796,277.288 162.026 C 280.117 163.329,280.769 166.117,278.925 169.030 L 278.399 169.861 275.700 168.941 C 273.290 168.120,272.241 168.020,265.946 168.010 L 258.892 168.000 258.205 166.951 C 257.308 165.583,257.961 164.240,260.037 163.181 C 261.584 162.392,263.386 160.504,263.781 159.259 C 264.307 157.602,270.868 156.897,273.507 158.214 M95.400 162.795 C 94.740 163.229,93.928 164.083,93.596 164.692 C 91.668 168.226,91.381 168.400,87.478 168.400 L 83.906 168.400 82.453 169.974 C 81.654 170.840,80.394 172.280,79.654 173.174 C 78.913 174.068,78.002 174.800,77.628 174.800 C 77.255 174.800,76.466 175.305,75.875 175.922 L 74.800 177.044 74.800 184.769 L 74.800 192.494 76.314 193.947 C 77.147 194.746,78.182 195.691,78.614 196.047 C 79.046 196.402,79.902 197.346,80.515 198.144 C 82.083 200.185,83.431 200.751,87.580 201.115 L 91.205 201.433 92.346 200.217 C 92.974 199.548,93.911 198.226,94.429 197.280 C 94.946 196.334,96.006 195.181,96.785 194.717 C 99.429 193.142,100.716 191.618,101.233 189.448 C 102.400 184.553,102.724 184.181,106.620 183.263 C 111.993 181.996,113.200 180.481,113.200 175.004 C 113.200 170.934,112.467 169.135,110.003 167.154 C 109.121 166.446,108.400 165.658,108.400 165.403 C 108.400 162.607,98.656 160.652,95.400 162.795 M129.232 164.655 C 131.771 167.193,130.342 174.032,127.140 174.672 C 125.028 175.094,124.624 176.038,124.464 180.936 C 124.277 186.660,123.248 188.112,120.926 185.930 C 119.495 184.586,119.473 166.018,120.900 164.485 C 122.103 163.193,127.889 163.311,129.232 164.655 M104.632 164.820 C 105.362 165.271,106.068 165.984,106.202 166.406 C 106.335 166.827,107.290 167.914,108.322 168.821 C 110.875 171.063,111.169 171.724,111.186 175.246 C 111.206 179.559,110.649 180.195,106.522 180.569 C 101.387 181.034,99.908 182.500,99.172 187.859 C 98.673 191.483,98.854 191.207,96.000 192.729 C 94.060 193.764,93.644 194.220,92.477 196.592 C 91.328 198.927,91.038 199.250,90.277 199.046 C 89.794 198.917,88.260 198.808,86.866 198.805 C 84.516 198.800,84.246 198.705,83.161 197.500 C 81.036 195.141,79.281 193.416,77.831 192.261 L 76.400 191.121 76.400 184.630 C 76.400 177.287,76.259 177.639,80.073 175.465 C 81.104 174.878,82.061 174.037,82.201 173.597 C 82.990 171.111,84.257 170.400,87.898 170.400 C 91.753 170.400,93.372 169.603,94.647 167.079 C 96.306 163.796,101.188 162.692,104.632 164.820 M281.300 176.504 L 283.200 178.074 283.200 181.414 C 283.200 183.250,283.025 184.861,282.811 184.993 C 281.686 185.688,280.737 190.701,280.536 197.000 C 280.289 204.780,279.820 206.507,277.161 209.444 C 276.092 210.623,275.136 211.996,275.035 212.494 C 274.935 212.992,274.748 214.021,274.620 214.781 C 274.383 216.190,273.025 218.000,272.205 218.000 C 269.926 218.000,268.754 212.750,269.619 206.419 C 270.248 201.819,269.503 199.807,266.684 198.481 C 264.701 197.549,264.619 197.401,264.032 193.667 C 263.263 188.775,267.311 187.256,268.275 192.075 C 268.781 194.606,271.584 196.227,273.398 195.038 C 275.562 193.620,276.000 191.862,276.000 184.596 C 276.000 179.263,276.128 177.709,276.650 176.680 C 278.004 174.013,278.272 174.002,281.300 176.504 M199.374 175.990 C 200.616 176.463,200.658 177.143,199.732 181.854 C 199.027 185.443,198.904 185.619,195.637 187.723 C 194.887 188.205,193.905 189.097,193.456 189.704 L 192.637 190.808 193.703 192.980 C 194.289 194.175,195.291 195.539,195.930 196.011 L 197.092 196.870 195.201 198.760 C 191.454 202.508,191.827 205.292,196.384 207.592 C 197.997 208.406,198.831 209.109,199.178 209.947 C 199.789 211.421,200.495 212.070,202.793 213.269 C 203.800 213.794,204.941 214.804,205.393 215.569 C 206.272 217.056,208.405 219.278,210.324 220.707 C 210.994 221.205,211.747 222.234,211.998 222.994 C 212.342 224.036,213.025 224.722,214.786 225.791 C 217.480 227.428,217.478 227.425,217.831 231.320 C 218.354 237.087,215.014 238.381,210.917 233.998 L 209.694 232.689 206.549 233.157 C 202.671 233.733,201.881 234.333,203.413 235.539 C 206.322 237.827,205.897 244.303,202.893 243.454 C 194.480 241.073,189.194 247.078,196.316 250.925 C 200.928 253.416,199.866 255.640,193.800 256.194 C 190.438 256.501,187.033 257.559,185.555 258.756 L 184.678 259.466 186.039 260.473 C 191.402 264.439,198.656 264.035,200.723 259.655 C 202.622 255.627,205.600 257.340,205.600 262.460 C 205.600 266.584,205.234 267.388,202.499 269.269 C 201.284 270.105,200.424 271.131,199.788 272.504 C 199.276 273.610,198.022 275.363,197.001 276.399 L 195.145 278.283 196.385 279.326 C 197.678 280.414,199.432 281.049,202.287 281.461 C 204.105 281.724,204.629 281.337,207.739 277.431 L 208.879 276.000 212.412 276.000 C 217.023 276.000,217.600 276.618,217.600 281.559 L 217.600 284.795 215.229 287.202 C 212.709 289.763,212.221 290.808,211.795 294.563 C 211.431 297.768,211.398 297.826,208.994 299.421 C 207.312 300.538,206.618 301.353,205.591 303.417 C 204.771 305.066,203.701 306.482,202.651 307.305 C 201.744 308.017,200.605 309.065,200.121 309.633 C 199.637 310.202,198.151 311.248,196.818 311.958 C 195.198 312.821,194.182 313.672,193.752 314.525 C 193.398 315.226,192.646 316.295,192.079 316.900 L 191.050 318.000 172.021 318.000 L 152.992 318.000 151.949 317.033 C 151.375 316.501,150.505 315.417,150.014 314.623 C 147.209 310.085,143.513 312.352,142.984 318.936 C 142.512 324.803,140.464 325.881,138.347 321.376 C 137.114 318.754,135.615 318.000,131.633 318.000 C 124.785 318.000,124.600 318.349,124.600 331.281 L 124.600 341.672 123.426 342.287 C 121.934 343.070,120.204 342.267,117.800 339.676 C 116.280 338.038,116.021 337.922,112.600 337.347 C 107.900 336.558,107.621 336.228,107.609 331.447 C 107.598 327.053,106.898 325.652,104.201 324.621 C 101.121 323.446,101.200 323.844,101.199 309.411 C 101.197 297.328,101.152 296.526,100.401 295.295 C 98.424 292.052,95.051 292.436,93.251 296.108 C 92.262 298.125,91.454 299.200,90.926 299.200 C 90.316 299.200,88.918 297.499,88.625 296.400 C 88.032 294.173,86.624 291.598,85.869 291.359 C 85.147 291.129,85.135 291.068,85.739 290.730 C 86.535 290.285,88.186 287.133,88.581 285.305 C 88.740 284.573,89.372 283.617,90.037 283.105 C 93.199 280.672,93.673 280.217,94.261 279.052 C 95.659 276.285,96.199 276.000,100.053 276.000 C 104.541 276.000,105.953 275.351,107.449 272.600 C 108.827 270.067,108.723 270.124,112.566 269.791 C 116.305 269.467,117.504 268.890,118.896 266.743 C 120.883 263.678,120.710 263.723,131.200 263.522 C 141.795 263.319,142.386 263.174,145.295 260.074 C 147.238 258.004,147.217 258.007,165.400 257.669 C 173.540 257.519,180.491 257.251,180.846 257.076 C 182.435 256.289,182.845 253.348,181.608 251.611 C 179.850 249.143,180.525 249.200,153.161 249.200 L 128.244 249.200 127.122 248.125 L 126.000 247.050 126.002 234.625 C 126.004 220.763,125.794 219.345,123.491 217.709 C 122.025 216.668,120.394 217.120,119.031 218.946 C 118.225 220.024,118.197 220.567,118.087 236.787 L 117.975 253.516 117.012 254.479 C 116.378 255.113,115.000 255.690,112.979 256.166 C 110.377 256.779,109.596 257.174,107.846 258.759 C 106.711 259.787,105.246 260.827,104.591 261.071 C 103.936 261.314,102.500 261.830,101.400 262.217 C 100.204 262.638,98.778 263.566,97.852 264.527 C 95.907 266.546,91.496 268.325,90.453 267.510 C 88.807 266.224,88.826 266.471,88.813 246.560 L 88.800 227.319 89.834 225.360 C 90.403 224.282,91.483 222.605,92.235 221.634 C 92.986 220.662,93.907 218.895,94.282 217.707 C 95.418 214.102,96.367 213.461,100.200 213.712 C 104.273 213.979,104.484 214.077,105.504 216.176 C 105.970 217.137,106.996 218.414,107.782 219.013 L 109.212 220.104 111.013 219.416 C 115.612 217.660,115.679 214.783,111.172 212.528 C 107.550 210.716,107.600 210.843,107.600 203.485 C 107.600 197.695,107.674 197.019,108.427 195.962 L 109.254 194.800 115.938 194.800 C 123.612 194.800,123.665 194.781,125.575 191.444 C 126.391 190.017,127.224 189.121,128.055 188.777 C 129.887 188.018,131.528 186.509,132.419 184.763 C 132.850 183.918,133.550 183.041,133.975 182.813 C 135.845 181.813,146.437 182.661,147.688 183.912 C 149.270 185.494,149.791 196.341,148.371 198.146 C 146.414 200.634,144.800 198.845,144.800 194.187 C 144.800 186.287,140.218 184.237,136.983 190.689 C 136.346 191.960,134.957 193.924,133.897 195.054 L 131.970 197.109 133.185 198.323 C 134.475 199.613,136.044 200.265,139.594 200.985 C 141.686 201.410,141.845 201.532,143.003 203.605 C 144.482 206.254,146.505 207.757,148.150 207.429 C 148.782 207.303,150.291 207.200,151.503 207.200 C 155.062 207.200,156.989 205.000,157.323 200.556 C 157.625 196.536,158.149 195.344,160.043 194.378 C 160.860 193.962,162.317 192.581,163.283 191.310 L 165.037 189.000 172.419 188.798 C 180.760 188.569,181.435 188.388,184.657 185.527 C 185.970 184.361,187.461 183.503,189.025 183.012 C 192.014 182.076,193.253 181.166,194.404 179.064 C 196.216 175.758,197.185 175.158,199.374 175.990 M142.023 189.700 C 142.633 190.432,142.776 191.279,142.787 194.238 C 142.806 199.511,141.886 200.132,137.299 197.941 L 135.599 197.128 136.349 196.175 C 136.761 195.650,137.510 194.181,138.012 192.911 C 138.918 190.621,140.200 188.800,140.906 188.800 C 141.107 188.800,141.610 189.205,142.023 189.700 M314.084 198.966 C 313.424 199.717,312.661 201.022,312.387 201.866 C 311.575 204.367,310.568 205.440,308.108 206.423 C 299.341 209.929,297.122 216.100,303.322 219.733 C 305.289 220.886,305.689 221.575,306.583 225.349 C 306.942 226.866,307.703 228.713,308.282 229.472 L 309.330 230.846 311.565 228.645 C 312.794 227.434,314.768 225.998,315.952 225.453 C 320.114 223.536,320.280 221.352,316.552 217.557 L 314.742 215.713 316.386 214.411 C 320.487 211.163,320.990 202.548,317.304 198.700 C 315.944 197.280,315.534 197.313,314.084 198.966 M114.324 200.139 C 111.210 202.238,111.278 204.554,114.525 206.960 L 115.650 207.794 117.125 206.943 C 120.149 205.200,120.580 203.053,118.344 200.867 C 116.708 199.267,115.849 199.112,114.324 200.139 M317.598 206.138 C 317.600 209.852,316.938 211.297,314.708 212.442 C 311.381 214.150,311.624 218.605,315.109 219.786 C 318.079 220.793,317.320 223.125,313.660 224.238 C 312.417 224.616,310.924 225.362,310.342 225.897 L 309.285 226.869 308.878 225.534 C 308.655 224.800,308.352 223.660,308.205 223.000 C 307.649 220.498,306.715 219.170,304.844 218.222 C 301.721 216.638,301.339 215.974,302.432 214.029 C 302.933 213.138,303.636 212.316,303.994 212.202 C 304.353 212.088,305.417 211.186,306.359 210.198 C 307.301 209.209,308.333 208.400,308.652 208.400 C 310.550 208.400,313.109 206.210,313.795 204.000 C 313.965 203.450,314.473 202.478,314.922 201.840 L 315.740 200.680 316.668 201.840 C 317.461 202.831,317.596 203.457,317.598 206.138 M117.074 202.070 C 118.305 203.226,117.485 205.600,115.856 205.600 C 115.317 205.600,113.600 203.968,113.600 203.456 C 113.600 201.777,115.820 200.891,117.074 202.070 M111.190 214.653 L 112.441 215.705 111.557 216.646 C 109.501 218.834,106.449 217.199,107.923 214.700 C 108.736 213.322,109.594 213.310,111.190 214.653 M210.621 246.023 C 212.167 247.732,209.767 249.549,208.129 247.910 C 207.073 246.855,207.065 246.812,207.786 246.015 C 208.726 244.977,209.677 244.980,210.621 246.023 M198.484 258.932 C 199.287 260.221,197.114 261.205,194.397 260.784 C 188.819 259.917,188.468 258.849,193.600 258.360 C 196.559 258.078,198.061 258.254,198.484 258.932 M131.190 274.790 C 128.420 275.148,127.704 275.533,125.830 277.678 C 123.714 280.099,123.052 280.370,119.200 280.387 C 112.485 280.418,109.632 284.486,114.094 287.668 C 115.361 288.572,115.688 288.604,125.102 288.731 C 136.259 288.882,136.661 288.781,138.412 285.376 C 139.907 282.470,140.116 282.400,147.389 282.397 C 154.281 282.395,155.167 282.168,156.672 280.019 C 157.950 278.195,156.978 275.619,154.714 274.830 C 153.337 274.350,134.843 274.319,131.190 274.790 M154.674 276.870 C 155.820 277.946,155.828 278.306,154.730 279.474 C 153.891 280.367,153.634 280.400,147.430 280.401 C 140.251 280.403,139.039 280.758,137.677 283.259 C 137.304 283.942,136.579 285.018,136.064 285.650 L 135.129 286.800 125.864 286.794 C 116.318 286.788,115.194 286.625,114.245 285.106 C 113.304 283.598,115.170 282.627,119.511 282.366 C 123.847 282.105,125.143 281.606,127.762 279.192 C 130.933 276.269,132.043 276.047,143.574 276.022 C 153.485 276.001,153.772 276.023,154.674 276.870 " stroke="none" fill="#740c1c" fill-rule="evenodd"></path><path id="path3" d="M157.773 61.004 C 156.173 61.706,155.538 62.497,154.767 64.746 C 154.192 66.422,153.968 66.639,152.332 67.101 C 150.203 67.702,149.015 68.849,148.276 71.018 C 147.946 71.986,147.369 72.755,146.790 73.000 C 143.257 74.493,142.606 75.036,141.968 77.027 C 141.412 78.759,141.136 79.074,139.708 79.602 C 138.074 80.206,136.400 81.443,136.400 82.047 C 136.400 83.426,134.662 86.748,133.831 86.957 C 129.281 88.099,128.923 98.546,133.362 100.663 C 135.098 101.490,136.958 100.581,138.194 98.300 C 139.010 96.793,139.253 96.622,142.516 95.241 C 144.105 94.569,144.568 94.122,145.236 92.611 C 146.076 90.714,147.067 89.834,148.862 89.393 C 150.232 89.057,151.380 87.778,151.971 85.932 C 152.661 83.775,152.810 83.730,160.076 83.470 C 169.316 83.139,170.306 82.635,171.266 77.772 C 171.595 76.107,172.133 74.931,173.070 73.825 L 174.406 72.250 173.304 71.099 L 172.202 69.949 170.827 71.449 C 169.181 73.246,167.432 73.635,162.500 73.303 C 157.969 72.998,156.957 71.759,160.509 70.865 C 165.782 69.537,166.012 62.588,160.840 60.855 C 159.242 60.320,159.341 60.315,157.773 61.004 M252.764 63.028 C 252.160 66.067,252.053 66.151,248.001 66.776 C 242.519 67.621,241.799 68.644,241.803 75.583 C 241.809 84.970,244.482 88.663,252.067 89.767 C 254.142 90.069,254.602 90.448,255.024 92.202 C 255.520 94.265,256.295 95.425,257.874 96.466 L 259.400 97.474 260.800 96.712 C 262.673 95.694,263.501 94.656,264.032 92.662 C 264.520 90.829,265.423 89.600,266.282 89.600 C 268.259 89.600,270.796 86.837,270.799 84.680 C 270.803 81.177,268.422 79.604,263.114 79.601 C 258.650 79.600,258.646 79.597,258.290 75.961 C 257.980 72.804,256.544 68.235,255.446 66.916 C 254.875 66.230,254.323 64.760,254.013 63.100 C 253.396 59.794,253.407 59.795,252.764 63.028 M161.647 63.553 C 163.839 65.745,163.089 68.052,159.727 69.456 C 157.413 70.423,156.898 71.729,158.174 73.401 L 159.241 74.800 163.060 74.800 C 168.709 74.800,170.938 76.951,168.288 79.844 C 166.656 81.624,165.137 81.955,158.400 81.995 C 152.759 82.029,152.601 82.092,150.650 85.069 C 149.963 86.119,148.461 87.613,147.312 88.389 C 146.164 89.165,144.615 90.611,143.869 91.602 C 142.465 93.468,141.631 94.029,139.131 94.793 C 138.198 95.078,137.123 95.899,136.184 97.046 L 134.705 98.850 133.753 97.955 C 132.151 96.451,132.337 91.384,134.053 89.775 C 134.742 89.129,135.891 87.340,136.606 85.800 C 137.885 83.044,138.763 81.991,140.861 80.690 C 141.445 80.328,142.588 78.937,143.401 77.598 C 144.511 75.771,145.161 75.108,146.007 74.939 C 147.294 74.681,148.906 73.140,149.961 71.158 C 150.461 70.221,151.397 69.444,152.983 68.653 C 154.778 67.756,155.411 67.187,155.877 66.053 C 157.461 62.191,159.431 61.337,161.647 63.553 M252.248 69.259 C 253.558 69.887,256.126 74.031,256.991 76.914 C 258.146 80.763,258.740 81.200,262.814 81.200 C 269.495 81.200,271.162 84.786,265.967 87.983 C 264.660 88.786,263.532 89.951,262.566 91.493 C 260.140 95.364,259.479 95.627,257.903 93.345 C 255.436 89.773,254.505 88.945,251.908 88.014 C 241.870 84.414,239.268 67.802,248.859 68.542 C 250.101 68.638,251.626 68.961,252.248 69.259 M188.902 104.790 C 187.090 105.220,186.473 105.840,185.964 107.747 C 185.206 110.580,186.558 110.400,166.051 110.402 C 143.553 110.405,143.561 110.403,142.074 114.600 L 141.365 116.600 137.382 116.828 C 132.136 117.127,129.600 118.589,129.600 121.310 C 129.600 122.097,127.992 123.450,126.690 123.758 C 124.075 124.376,123.012 127.082,123.293 132.400 C 123.644 139.025,124.520 139.703,133.000 139.915 C 145.030 140.216,149.417 139.307,151.000 136.188 C 152.176 133.870,152.649 133.627,156.010 133.613 C 163.993 133.579,168.203 132.338,169.596 129.608 C 170.831 127.187,170.748 127.200,184.712 127.200 C 198.851 127.200,198.056 127.052,199.177 129.887 C 200.193 132.454,202.664 133.491,205.133 132.385 C 210.222 130.107,209.505 117.200,204.290 117.200 C 203.497 117.200,202.150 115.588,201.836 114.266 C 201.492 112.814,199.987 111.308,198.534 110.963 C 196.968 110.590,196.102 109.745,195.203 107.713 C 194.608 106.369,194.046 105.800,192.717 105.197 C 190.843 104.346,190.794 104.341,188.902 104.790 M194.626 109.239 C 195.300 110.195,196.650 111.443,197.626 112.011 C 198.602 112.580,199.760 113.648,200.200 114.385 C 201.223 116.098,203.106 117.980,204.818 119.000 C 208.606 121.257,208.003 129.039,203.868 131.268 C 203.256 131.598,202.688 131.195,200.430 128.831 L 197.725 126.000 184.518 126.000 C 169.663 126.000,170.623 125.818,167.179 129.290 C 165.350 131.134,162.497 132.017,157.600 132.258 C 152.268 132.519,152.041 132.600,149.751 135.076 C 146.988 138.062,145.523 138.450,136.089 138.697 C 125.303 138.979,124.600 138.533,124.600 131.400 C 124.600 126.524,125.308 124.800,127.310 124.800 C 128.208 124.800,130.305 122.738,131.277 120.898 C 132.423 118.728,134.102 118.004,138.000 117.999 C 141.771 117.994,141.287 118.307,143.757 114.281 C 145.437 111.542,144.932 111.603,166.030 111.601 L 185.061 111.600 185.866 110.700 C 186.308 110.205,187.061 109.147,187.538 108.349 C 189.551 104.979,191.824 105.264,194.626 109.239 M114.169 129.833 C 112.144 130.526,111.380 131.505,110.548 134.472 C 110.085 136.121,109.320 137.531,108.135 138.919 C 107.181 140.037,106.400 141.080,106.400 141.237 C 106.400 142.958,101.486 141.995,101.032 140.184 C 100.071 136.357,95.166 135.947,93.341 139.541 C 92.933 140.343,92.540 141.090,92.468 141.200 C 92.395 141.310,90.325 141.502,87.868 141.627 C 80.450 142.005,79.400 143.068,79.400 150.200 C 79.400 158.035,80.053 158.501,90.799 158.324 C 99.583 158.180,99.866 158.075,101.694 154.281 C 102.594 152.411,103.102 151.862,104.569 151.173 C 106.671 150.185,107.377 149.224,108.101 146.368 C 108.829 143.492,109.428 143.465,110.207 146.273 C 111.469 150.820,112.227 151.926,114.600 152.679 C 115.332 152.911,116.003 153.515,116.321 154.230 C 117.247 156.312,117.455 156.586,118.797 157.500 C 123.337 160.592,127.196 157.239,127.196 150.200 C 127.196 145.200,126.014 142.864,123.000 141.907 L 121.400 141.399 121.172 137.400 C 120.804 130.924,118.441 128.370,114.169 129.833 M119.099 133.181 C 119.858 134.308,120.000 135.053,120.000 137.915 C 120.000 141.635,120.028 141.687,122.895 143.214 C 125.081 144.379,126.000 146.447,126.000 150.200 C 126.000 157.456,121.563 159.570,117.871 154.073 C 117.238 153.131,116.011 151.912,115.145 151.366 C 113.205 150.141,112.276 148.655,111.175 145.017 C 110.706 143.467,110.156 141.997,109.953 141.749 C 109.555 141.263,111.611 134.520,112.657 132.881 C 114.464 130.049,117.070 130.170,119.099 133.181 M164.200 135.850 C 160.067 136.664,159.112 136.954,158.198 137.673 C 157.620 138.128,156.722 139.173,156.202 139.997 L 155.257 141.494 149.929 141.695 C 143.454 141.940,142.877 142.154,139.644 145.517 C 136.018 149.289,135.882 149.720,135.681 158.125 C 135.447 167.884,135.926 169.397,139.701 170.798 C 141.021 171.288,141.423 171.694,141.868 172.982 C 142.988 176.223,144.950 177.200,150.337 177.200 C 153.861 177.200,154.382 177.519,155.007 180.062 C 155.741 183.052,157.976 183.707,166.878 183.539 C 173.868 183.406,174.303 183.351,176.357 182.334 C 178.908 181.071,179.488 181.199,179.846 183.103 C 180.274 185.386,179.643 185.600,172.501 185.600 C 163.675 185.600,161.913 186.221,160.687 189.762 C 160.262 190.988,159.854 191.393,158.612 191.820 C 155.973 192.727,155.275 193.784,154.320 198.319 C 152.957 204.792,152.557 203.779,152.294 193.186 C 151.963 179.888,151.903 179.811,141.600 179.368 C 133.127 179.003,130.405 179.876,129.746 183.169 C 129.476 184.522,128.261 185.808,127.625 185.416 C 127.377 185.262,127.200 183.689,127.200 181.638 C 127.200 177.827,127.526 177.162,129.635 176.662 C 132.673 175.943,133.830 173.358,133.467 168.102 C 133.038 161.898,131.632 160.655,125.000 160.621 C 117.384 160.581,117.045 161.151,116.875 174.263 C 116.710 186.910,117.037 188.120,121.000 189.528 C 124.916 190.918,123.760 191.379,115.800 191.600 C 104.837 191.905,104.673 192.067,104.472 202.800 C 104.317 211.051,104.679 210.459,99.742 210.543 C 94.099 210.639,92.869 211.423,91.810 215.598 C 91.461 216.975,91.075 217.530,90.176 217.952 C 85.907 219.954,85.574 222.046,85.568 246.889 C 85.563 266.177,85.687 267.723,87.377 269.413 C 90.349 272.385,99.266 270.946,101.061 267.205 C 101.964 265.323,103.289 264.451,105.298 264.418 C 108.496 264.366,112.598 262.232,112.997 260.414 C 113.258 259.226,114.587 258.400,116.239 258.400 C 120.742 258.400,120.980 257.417,121.117 238.220 C 121.235 221.717,121.372 220.181,122.633 221.228 C 123.045 221.570,123.186 224.559,123.280 234.932 C 123.389 247.017,123.467 248.330,124.156 249.661 C 125.516 252.292,124.410 252.189,152.573 252.311 C 178.523 252.425,179.875 252.504,178.756 253.853 C 178.390 254.293,175.878 254.403,165.851 254.417 C 146.973 254.444,142.968 254.980,141.703 257.649 C 140.658 259.853,138.093 260.400,128.806 260.400 C 119.672 260.400,117.576 261.085,115.948 264.600 C 115.460 265.654,115.076 265.860,112.796 266.295 C 107.090 267.385,104.800 268.658,104.800 270.742 C 104.800 272.604,103.813 273.097,99.710 273.285 C 95.069 273.497,93.079 274.281,92.396 276.163 C 91.489 278.665,90.979 279.296,89.441 279.818 C 87.398 280.510,86.944 281.012,86.001 283.619 C 85.567 284.819,84.918 285.980,84.558 286.200 C 82.077 287.717,81.309 288.394,80.620 289.669 L 79.840 291.114 80.943 292.561 C 81.550 293.356,82.730 294.356,83.566 294.783 C 84.519 295.269,85.256 296.013,85.543 296.779 C 85.794 297.451,86.208 298.554,86.461 299.231 C 88.060 303.496,95.600 302.383,95.600 297.882 C 95.600 297.575,95.926 297.029,96.325 296.667 C 97.867 295.273,98.000 296.281,98.002 309.380 C 98.005 324.522,98.297 325.794,101.965 326.662 C 103.998 327.144,104.400 327.874,104.400 331.085 C 104.400 337.078,105.281 338.536,109.792 340.013 C 111.417 340.545,112.885 341.309,113.303 341.840 C 114.401 343.236,118.051 345.156,120.450 345.599 C 123.351 346.136,124.315 346.703,124.610 348.047 C 125.294 351.158,128.511 351.983,130.847 349.647 C 133.171 347.323,132.729 343.606,129.750 340.411 C 127.547 338.048,127.266 336.769,127.231 328.949 C 127.194 320.785,127.001 321.120,131.661 321.283 L 135.000 321.400 135.800 323.060 C 137.880 327.377,142.662 328.252,144.943 324.734 C 145.433 323.977,146.794 317.732,146.799 316.215 C 146.799 316.004,147.205 316.634,147.700 317.615 C 149.434 321.053,148.967 320.983,171.103 321.115 C 194.211 321.252,194.728 321.167,196.127 317.033 C 196.619 315.580,196.830 315.418,199.029 314.808 C 203.783 313.488,207.836 309.395,208.278 305.467 C 208.560 302.954,208.874 302.519,210.773 302.007 C 212.963 301.418,213.837 300.202,214.803 296.401 C 215.605 293.247,215.822 292.856,217.800 291.001 C 222.444 286.644,222.119 275.120,217.280 272.537 C 216.399 272.067,215.525 271.824,215.339 271.998 C 214.290 272.977,208.082 273.516,206.181 272.793 L 205.110 272.386 206.204 271.526 C 209.806 268.692,209.321 256.645,205.547 255.232 C 202.179 253.970,202.400 254.223,202.400 251.632 C 202.400 248.860,202.941 248.274,204.144 249.741 C 206.688 252.842,212.184 252.726,213.833 249.536 C 215.614 246.092,213.797 242.699,209.700 241.816 C 208.333 241.522,208.097 240.913,208.824 239.554 C 209.086 239.067,209.509 238.842,209.924 238.972 C 213.461 240.073,219.693 239.944,220.428 238.755 C 221.066 237.723,221.310 232.950,220.906 229.421 C 220.455 225.488,219.658 224.331,217.008 223.765 C 215.326 223.406,214.870 222.946,214.375 221.107 C 213.865 219.214,212.509 217.737,210.934 217.363 C 209.423 217.003,208.400 216.065,208.399 215.038 C 208.396 213.652,206.981 211.768,205.547 211.242 C 202.929 210.282,202.263 209.786,201.820 208.464 C 201.204 206.628,199.798 205.273,198.196 204.973 C 195.152 204.402,195.296 202.588,198.503 201.105 C 202.406 199.301,202.406 194.699,198.503 192.895 C 195.537 191.523,195.505 190.039,198.431 189.454 C 200.232 189.094,201.383 187.655,202.327 184.582 C 203.017 182.337,203.436 181.638,204.495 180.959 C 207.107 179.286,208.155 176.502,208.391 170.600 L 208.600 165.400 210.884 164.312 C 214.294 162.686,214.564 161.974,214.730 154.166 C 214.918 145.331,214.300 143.352,211.000 142.222 C 208.407 141.333,205.569 142.893,204.942 145.551 C 204.648 146.801,203.283 148.400,202.510 148.400 C 198.981 148.400,198.272 150.512,197.985 161.874 C 197.724 172.255,197.661 172.547,195.589 173.002 C 194.068 173.336,192.176 175.536,191.832 177.371 C 191.477 179.260,190.552 179.615,185.711 179.720 C 182.765 179.783,181.897 179.673,181.595 179.200 C 180.822 177.986,181.128 177.794,185.400 176.811 C 187.816 176.254,188.990 175.230,189.717 173.044 C 190.057 172.023,190.631 171.232,191.232 170.956 C 194.381 169.512,194.615 169.325,195.092 167.879 C 195.776 165.804,196.151 154.212,195.688 149.465 C 195.244 144.919,194.706 143.916,191.899 142.411 C 190.369 141.591,189.973 141.134,189.583 139.739 C 189.042 137.808,187.982 136.706,186.040 136.055 C 184.765 135.628,166.213 135.454,164.200 135.850 M220.600 136.067 C 215.771 137.817,215.879 143.904,220.768 145.546 C 222.527 146.137,228.489 145.451,230.200 144.460 C 234.594 141.915,232.675 136.900,227.043 136.209 C 222.626 135.667,221.757 135.648,220.600 136.067 M186.384 138.248 C 187.068 138.824,187.885 139.790,188.198 140.396 C 188.511 141.001,189.926 142.667,191.342 144.097 L 193.918 146.698 194.214 150.649 C 194.981 160.861,194.056 166.538,191.264 168.749 C 190.363 169.463,189.125 170.974,188.513 172.107 C 185.290 178.074,180.800 176.355,180.800 169.155 C 180.800 162.599,178.356 161.256,175.532 166.259 C 174.670 167.786,173.700 168.840,172.438 169.620 C 169.157 171.650,169.610 174.800,173.183 174.800 C 175.071 174.800,177.794 177.733,177.012 178.925 C 175.296 181.545,174.437 181.789,166.453 181.925 C 158.160 182.067,158.296 182.110,156.106 178.600 C 154.439 175.928,153.817 175.619,150.080 175.609 C 145.952 175.598,144.852 175.068,143.026 172.213 C 142.261 171.017,141.108 169.766,140.465 169.434 C 137.468 167.884,137.200 167.074,137.200 159.553 C 137.200 151.899,137.543 150.637,140.199 148.518 C 140.970 147.903,141.600 147.209,141.600 146.975 C 141.600 146.375,143.561 144.612,145.080 143.846 C 145.980 143.392,147.467 143.197,150.080 143.191 C 152.918 143.185,154.213 142.995,155.544 142.391 C 156.503 141.956,157.418 141.600,157.579 141.600 C 157.739 141.600,158.606 140.899,159.507 140.043 C 162.229 137.453,163.244 137.267,174.869 137.232 L 185.139 137.200 186.384 138.248 M225.776 137.838 C 227.588 138.293,228.671 138.841,229.548 139.747 L 230.779 141.017 229.442 142.084 C 228.168 143.100,224.241 144.400,222.443 144.400 C 221.446 144.400,218.400 141.768,218.400 140.906 C 218.400 139.991,221.391 137.200,222.371 137.200 C 222.846 137.200,224.379 137.487,225.776 137.838 M99.223 140.785 C 100.350 141.877,102.234 143.409,103.410 144.189 C 106.489 146.233,106.582 146.959,104.051 149.191 C 102.919 150.189,101.320 151.975,100.497 153.161 C 98.378 156.212,97.531 156.708,93.610 157.186 C 83.206 158.456,80.403 156.974,80.403 150.200 C 80.403 144.698,82.311 142.804,87.856 142.801 C 91.612 142.800,93.666 142.071,95.525 140.080 C 97.023 138.477,96.796 138.434,99.223 140.785 M239.400 142.082 C 232.713 144.419,235.937 153.359,242.992 152.041 C 248.024 151.101,246.029 141.115,240.913 141.632 C 240.741 141.649,240.060 141.852,239.400 142.082 M212.699 145.581 C 215.130 149.189,213.755 161.098,210.719 162.723 C 208.023 164.166,207.705 164.827,207.538 169.315 C 207.374 173.761,206.328 176.443,204.219 177.824 C 203.337 178.402,202.266 180.624,201.207 184.075 C 200.620 185.986,199.445 187.457,197.865 188.255 C 194.154 190.129,194.093 190.943,197.421 194.206 C 200.423 197.150,200.423 197.301,197.415 199.767 C 193.968 202.591,194.334 205.309,198.332 206.579 C 198.784 206.722,199.803 207.744,200.598 208.850 C 201.393 209.957,202.591 211.163,203.261 211.531 C 205.469 212.744,206.355 213.609,207.452 215.624 C 208.180 216.962,209.065 217.907,210.152 218.507 C 211.041 218.998,212.168 220.030,212.656 220.800 C 214.211 223.254,215.657 224.800,216.398 224.800 C 218.142 224.800,219.456 227.249,219.721 230.992 C 220.206 237.874,217.653 239.907,211.598 237.461 C 208.911 236.376,208.767 236.442,207.976 239.105 C 207.319 241.319,207.855 242.376,210.216 243.523 C 213.706 245.219,213.912 248.701,210.615 250.273 C 208.814 251.132,206.871 250.237,205.072 247.717 C 202.726 244.433,194.800 243.879,194.800 247.000 C 194.800 247.686,196.412 249.046,198.000 249.700 C 199.701 250.400,200.242 251.016,200.934 253.042 C 201.351 254.263,201.891 254.833,203.433 255.677 C 208.977 258.714,209.415 266.348,204.285 270.552 C 202.798 271.771,202.382 272.414,201.982 274.119 C 201.713 275.264,201.251 276.679,200.955 277.264 C 200.440 278.281,200.471 278.347,201.668 278.764 C 203.647 279.454,203.981 279.311,204.788 277.428 C 205.759 275.163,206.298 274.901,211.063 274.386 C 213.228 274.152,215.180 273.939,215.400 273.911 C 220.624 273.263,221.226 284.894,216.220 289.759 C 214.684 291.253,214.448 291.736,213.979 294.363 C 213.366 297.790,212.375 299.452,210.224 300.659 C 208.561 301.592,208.116 302.215,206.760 305.511 C 206.247 306.758,205.393 307.978,204.674 308.490 C 204.004 308.967,202.849 310.029,202.107 310.851 C 201.365 311.672,199.672 312.845,198.345 313.458 C 196.448 314.334,195.715 314.943,194.911 316.316 C 194.349 317.275,193.197 318.497,192.352 319.030 L 190.816 320.000 172.134 320.000 C 151.021 320.000,151.020 320.000,149.029 316.846 C 146.875 313.434,145.492 314.276,144.994 319.303 C 144.366 325.647,139.797 327.916,137.360 323.094 C 135.932 320.267,135.422 320.000,131.456 320.000 C 125.953 320.000,125.998 319.928,126.006 328.770 C 126.013 336.911,126.537 339.868,128.564 343.200 C 130.533 346.439,130.631 347.005,129.428 348.209 C 128.230 349.407,127.185 349.104,126.245 347.287 C 125.395 345.643,124.381 344.934,122.463 344.643 C 120.383 344.327,118.286 343.273,116.446 341.618 C 115.605 340.861,113.864 340.013,111.846 339.376 C 106.711 337.754,105.600 336.280,105.600 331.090 C 105.600 327.318,105.323 326.855,102.108 325.241 C 99.219 323.791,99.200 323.688,99.200 309.346 C 99.200 296.863,99.186 296.636,98.330 295.726 C 96.934 294.240,95.790 294.908,93.958 298.281 C 93.605 298.931,92.772 299.851,92.106 300.324 L 90.897 301.186 89.548 300.286 C 88.717 299.731,87.649 298.340,86.762 296.658 C 85.939 295.095,84.572 293.277,83.562 292.402 L 81.800 290.875 83.658 289.138 C 84.680 288.182,86.068 286.293,86.743 284.941 C 87.927 282.568,89.315 281.071,90.754 280.615 C 91.132 280.495,91.882 279.657,92.421 278.753 C 94.776 274.800,95.029 274.650,99.653 274.473 C 104.232 274.298,104.742 274.064,106.025 271.550 C 106.930 269.776,108.968 268.000,110.098 268.000 C 113.857 268.000,116.022 267.136,117.593 265.010 C 119.890 261.900,120.924 261.600,129.335 261.600 C 138.323 261.600,140.404 261.217,142.778 259.125 C 146.372 255.958,148.777 255.600,166.458 255.600 C 179.310 255.600,180.400 255.427,180.400 253.392 C 180.400 251.400,180.576 251.415,153.258 251.200 C 129.131 251.010,127.742 250.960,126.684 250.243 C 124.640 248.858,124.613 248.673,124.400 234.531 L 124.200 221.263 123.203 220.203 L 122.207 219.143 121.103 220.378 L 120.000 221.613 120.000 237.426 C 120.000 256.624,120.134 256.164,113.973 258.036 C 112.121 258.598,110.728 259.348,109.537 260.425 C 108.582 261.288,106.990 262.283,106.000 262.637 C 102.098 264.030,101.060 264.627,99.059 266.628 C 97.266 268.421,96.654 268.771,94.591 269.180 C 93.276 269.441,91.929 269.731,91.599 269.823 C 90.700 270.074,88.502 268.584,87.588 267.104 C 86.806 265.836,86.786 265.248,86.901 246.000 C 87.032 223.846,87.046 223.730,89.909 220.724 C 90.683 219.912,91.964 217.933,92.758 216.326 C 94.805 212.177,95.940 211.490,100.180 211.828 C 103.102 212.062,103.502 212.005,104.500 211.214 L 105.600 210.342 105.600 203.751 C 105.600 193.364,106.126 192.806,115.931 192.787 C 125.291 192.768,127.267 191.172,121.525 188.269 C 118.143 186.559,118.000 186.029,118.001 175.241 C 118.003 162.663,118.764 161.284,125.400 161.827 C 130.645 162.256,131.745 163.385,132.136 168.738 C 132.434 172.796,131.939 174.013,129.492 175.241 C 126.206 176.890,126.000 177.262,126.000 181.538 C 126.000 187.954,128.309 188.706,131.277 183.259 C 132.410 181.177,134.154 180.398,137.600 180.433 C 149.562 180.554,150.560 181.316,151.028 190.696 C 151.401 198.180,150.945 199.626,147.772 201.029 C 143.060 203.113,144.750 205.950,150.230 205.157 C 154.343 204.562,154.615 204.288,155.234 200.125 C 155.816 196.211,156.558 194.870,159.283 192.810 C 160.308 192.034,161.568 190.774,162.083 190.010 C 164.063 187.069,164.920 186.800,172.312 186.800 C 179.598 186.800,180.608 186.517,182.424 183.966 C 183.522 182.425,184.800 181.799,188.347 181.065 C 191.487 180.415,191.809 180.163,193.414 177.104 C 194.170 175.664,194.876 174.972,196.355 174.223 C 198.959 172.903,198.911 173.107,199.110 162.496 C 199.309 151.893,199.397 151.584,202.800 149.603 C 203.790 149.027,204.960 147.950,205.400 147.211 C 205.840 146.471,206.872 145.158,207.694 144.293 L 209.187 142.719 210.492 143.481 C 211.210 143.900,212.203 144.845,212.699 145.581 M242.212 143.913 C 243.408 144.924,244.400 146.473,244.400 147.329 C 244.400 148.270,241.916 150.800,240.993 150.800 C 240.097 150.800,237.200 147.897,237.200 147.000 C 237.200 144.973,240.825 142.741,242.212 143.913 M251.649 148.393 C 244.901 150.025,246.210 158.200,253.220 158.200 C 257.087 158.200,258.200 157.135,258.200 153.433 C 258.200 149.465,255.573 147.444,251.649 148.393 M255.647 151.153 C 258.904 154.410,254.851 158.686,250.938 156.123 C 248.377 154.444,248.532 152.220,251.335 150.424 C 253.139 149.268,253.889 149.395,255.647 151.153 M183.176 152.086 L 181.893 153.368 182.131 156.735 C 182.609 163.520,186.378 163.480,186.990 156.684 C 187.424 151.877,185.592 149.669,183.176 152.086 M185.594 156.149 C 185.587 159.260,185.227 160.250,184.240 159.871 C 183.447 159.566,183.303 153.657,184.070 152.890 C 185.027 151.933,185.600 153.159,185.594 156.149 M264.296 154.947 C 262.332 155.680,261.792 156.159,261.177 157.713 C 260.451 159.549,259.684 160.325,257.753 161.179 C 253.709 162.968,253.693 168.591,257.727 170.423 C 259.158 171.073,260.387 171.184,266.224 171.191 C 274.285 171.202,274.753 171.360,273.994 173.824 C 273.717 174.722,273.422 178.874,273.308 183.475 C 273.153 189.765,272.989 191.595,272.566 191.758 C 271.920 192.006,270.800 190.987,270.800 190.152 C 270.800 188.069,268.261 185.920,265.800 185.920 C 259.245 185.920,258.344 198.894,264.708 201.641 C 267.083 202.666,267.377 206.435,265.175 207.614 C 262.918 208.821,262.824 209.447,264.561 211.721 C 265.413 212.838,266.115 214.380,266.441 215.852 C 267.843 222.188,275.155 222.892,276.789 216.848 C 277.271 215.063,278.264 213.600,278.992 213.600 C 281.640 213.600,283.155 209.582,283.441 201.800 C 283.759 193.172,284.153 191.187,285.759 190.136 C 287.890 188.741,288.730 186.410,288.849 181.561 C 288.972 176.502,288.584 175.588,285.556 173.807 L 283.400 172.539 283.380 168.370 C 283.348 161.569,281.379 158.107,276.089 155.546 C 273.742 154.410,266.693 154.052,264.296 154.947 M273.477 156.130 C 275.640 156.925,281.057 162.194,281.696 164.124 C 282.339 166.064,282.040 168.480,280.863 170.858 L 280.106 172.388 282.854 174.265 C 287.568 177.486,288.439 182.184,285.206 186.944 C 283.051 190.117,282.804 191.164,282.417 198.800 C 282.017 206.661,281.470 208.634,278.979 211.200 C 278.017 212.190,276.600 214.297,275.829 215.883 C 274.066 219.509,272.817 220.338,270.770 219.240 C 267.697 217.592,265.827 211.217,267.228 207.161 C 268.576 203.257,268.232 202.404,264.052 199.277 C 261.967 197.717,261.057 191.724,262.565 189.486 C 264.624 186.431,267.415 186.509,269.123 189.667 C 269.496 190.355,270.326 191.536,270.969 192.291 L 272.138 193.663 273.216 192.510 L 274.294 191.356 274.474 183.378 C 274.647 175.650,274.685 175.349,275.679 173.783 L 276.705 172.166 275.253 171.183 C 273.871 170.248,273.436 170.190,266.331 170.000 C 259.045 169.805,258.835 169.775,257.793 168.800 C 255.111 166.291,255.455 164.352,259.005 161.955 C 259.882 161.363,261.154 160.096,261.831 159.139 C 264.237 155.737,269.036 154.498,273.477 156.130 M95.378 160.827 C 93.724 161.308,92.445 162.760,91.828 164.857 L 91.315 166.600 87.357 166.830 C 81.786 167.155,80.812 167.671,79.593 170.946 C 79.006 172.522,78.547 172.903,75.804 174.090 C 73.662 175.016,73.400 176.163,73.400 184.600 C 73.400 193.442,73.873 195.371,76.361 196.681 C 77.114 197.078,78.122 198.103,78.601 198.960 C 79.816 201.129,81.560 201.885,86.804 202.514 C 92.680 203.220,95.600 201.830,95.600 198.329 C 95.600 197.286,96.806 196.060,98.301 195.581 C 100.577 194.853,101.442 193.806,102.429 190.591 C 103.143 188.263,103.517 187.607,104.234 187.427 C 104.732 187.302,105.951 186.580,106.943 185.822 C 107.936 185.065,109.456 184.254,110.321 184.021 C 113.785 183.089,115.063 180.107,114.681 173.850 C 114.068 163.786,105.376 157.922,95.378 160.827 M105.320 162.647 C 106.904 163.447,108.400 164.786,108.400 165.403 C 108.400 165.658,109.121 166.446,110.003 167.154 C 112.467 169.135,113.200 170.934,113.200 175.004 C 113.200 180.481,111.993 181.996,106.620 183.263 C 102.724 184.181,102.400 184.553,101.233 189.448 C 100.716 191.618,99.429 193.142,96.785 194.717 C 96.006 195.181,94.946 196.334,94.429 197.280 C 93.911 198.226,92.974 199.548,92.346 200.217 L 91.205 201.433 87.580 201.115 C 83.431 200.751,82.083 200.185,80.515 198.144 C 79.902 197.346,79.046 196.402,78.614 196.047 C 78.182 195.691,77.147 194.746,76.314 193.947 L 74.800 192.494 74.800 184.769 L 74.800 177.044 75.875 175.922 C 76.466 175.305,77.255 174.800,77.628 174.800 C 78.002 174.800,78.913 174.068,79.654 173.174 C 80.394 172.280,81.654 170.840,82.453 169.974 L 83.906 168.400 87.478 168.400 C 91.381 168.400,91.668 168.226,93.596 164.692 C 95.041 162.044,101.795 160.866,105.320 162.647 M179.114 169.575 C 179.257 175.260,179.164 175.396,175.880 174.313 C 170.851 172.654,170.496 172.236,173.060 171.000 C 175.242 169.948,176.269 168.980,176.591 167.671 C 177.690 163.197,178.977 164.169,179.114 169.575 M139.733 189.700 C 139.289 190.195,138.515 191.640,138.012 192.911 C 137.510 194.181,136.761 195.650,136.349 196.175 L 135.599 197.128 137.299 197.941 C 140.025 199.243,141.124 199.393,142.016 198.585 C 143.734 197.031,142.800 188.800,140.906 188.800 C 140.704 188.800,140.176 189.205,139.733 189.700 M141.600 194.224 C 141.600 198.314,141.490 198.480,139.403 197.529 C 138.683 197.200,138.452 196.867,138.643 196.429 C 138.794 196.083,139.146 194.757,139.425 193.482 C 140.481 188.656,141.600 189.037,141.600 194.224 M314.730 194.444 C 313.081 195.645,311.233 198.846,310.936 201.017 C 310.632 203.232,309.370 204.800,307.891 204.800 C 304.530 204.800,300.074 207.540,299.228 210.126 C 297.301 216.012,298.233 219.624,301.967 220.743 C 304.089 221.379,304.350 221.822,304.824 225.604 C 305.772 233.162,310.974 235.429,313.624 229.439 C 314.185 228.171,314.746 227.569,315.697 227.217 C 319.834 225.683,320.880 224.691,320.880 222.300 C 320.880 220.431,320.116 217.832,319.254 216.768 C 318.536 215.881,318.540 215.829,319.429 214.520 C 323.624 208.337,319.551 190.932,314.730 194.444 M317.304 198.700 C 320.990 202.548,320.487 211.163,316.386 214.411 L 314.742 215.713 316.552 217.557 C 320.280 221.352,320.114 223.536,315.952 225.453 C 314.768 225.998,312.794 227.434,311.565 228.645 L 309.330 230.846 308.282 229.472 C 307.703 228.713,306.942 226.866,306.583 225.349 C 305.689 221.575,305.289 220.886,303.322 219.733 C 297.122 216.100,299.341 209.929,308.108 206.423 C 310.568 205.440,311.575 204.367,312.387 201.866 C 313.537 198.322,315.643 196.966,317.304 198.700 M114.470 202.126 C 113.291 203.380,114.177 205.600,115.856 205.600 C 116.368 205.600,118.000 203.883,118.000 203.344 C 118.000 201.715,115.626 200.895,114.470 202.126 M116.352 203.858 C 116.003 204.278,115.762 204.300,115.342 203.952 C 114.922 203.603,114.900 203.362,115.248 202.942 C 115.597 202.522,115.838 202.500,116.258 202.848 C 116.678 203.197,116.700 203.438,116.352 203.858 M151.588 202.784 C 152.410 203.304,152.135 203.445,149.400 203.911 C 146.763 204.361,145.589 203.978,146.444 202.947 C 146.965 202.320,150.669 202.203,151.588 202.784 M107.923 214.700 C 106.449 217.199,109.501 218.834,111.557 216.646 L 112.441 215.705 111.190 214.653 C 109.594 213.310,108.736 213.322,107.923 214.700 M110.356 215.347 C 110.701 215.763,110.666 216.013,110.210 216.392 C 109.506 216.976,108.400 216.663,108.400 215.879 C 108.400 214.737,109.583 214.415,110.356 215.347 M199.839 246.452 C 202.184 247.042,201.886 247.768,199.236 247.922 C 196.890 248.058,195.683 247.464,196.444 246.547 C 196.995 245.883,197.521 245.868,199.839 246.452 M193.600 258.360 C 188.468 258.849,188.819 259.917,194.397 260.784 C 196.833 261.162,197.051 261.131,197.885 260.293 C 199.547 258.625,198.024 257.938,193.600 258.360 M196.700 259.476 C 196.315 259.576,195.685 259.576,195.300 259.476 C 194.915 259.375,195.230 259.293,196.000 259.293 C 196.770 259.293,197.085 259.375,196.700 259.476 M131.416 276.848 C 130.325 277.290,128.681 278.345,127.762 279.192 C 125.143 281.606,123.847 282.105,119.511 282.366 C 115.170 282.627,113.304 283.598,114.245 285.106 C 115.194 286.625,116.318 286.788,125.864 286.794 L 135.129 286.800 136.064 285.650 C 136.579 285.018,137.304 283.942,137.677 283.259 C 139.039 280.758,140.251 280.403,147.430 280.401 C 154.078 280.400,155.600 279.979,155.600 278.144 C 155.600 275.816,136.486 274.792,131.416 276.848 M153.942 277.730 C 154.913 278.901,153.587 279.200,147.420 279.202 C 139.180 279.205,136.769 280.054,136.146 283.169 C 135.654 285.628,135.414 285.680,125.332 285.533 C 120.309 285.460,115.959 285.245,115.665 285.055 C 114.636 284.391,115.868 283.981,120.029 283.601 C 126.269 283.032,129.399 281.815,131.000 279.336 C 131.440 278.654,132.250 277.914,132.800 277.691 C 134.406 277.039,153.398 277.074,153.942 277.730 " stroke="none" fill="#540414" fill-rule="evenodd"></path><path id="path4" d="M166.000 1.590 L 166.000 3.180 159.700 3.290 L 153.400 3.400 153.284 6.240 L 153.167 9.080 150.084 9.440 L 147.000 9.800 146.883 12.683 L 146.766 15.566 143.883 15.683 L 141.000 15.800 140.883 18.883 L 140.767 21.967 137.683 22.083 L 134.600 22.200 134.482 25.100 L 134.365 28.000 131.811 28.000 C 128.455 28.000,128.000 28.457,128.000 31.829 L 128.000 34.400 125.774 34.400 C 121.968 34.400,122.000 34.344,122.000 40.969 L 122.000 46.710 119.221 46.867 C 115.636 47.069,115.832 46.698,115.600 53.728 L 115.400 59.792 113.439 60.072 C 112.360 60.225,111.215 60.613,110.895 60.934 C 110.126 61.703,109.220 68.672,109.209 73.900 L 109.200 78.000 107.100 78.005 C 103.264 78.015,103.200 78.072,103.200 81.447 L 103.200 84.400 100.243 84.400 C 96.807 84.400,96.800 84.407,96.800 88.233 L 96.800 90.800 93.800 90.800 L 90.800 90.800 90.800 93.800 L 90.800 96.800 88.233 96.800 C 84.410 96.800,84.400 96.809,84.400 100.225 L 84.400 103.165 81.506 103.282 L 78.611 103.400 78.329 105.000 C 78.173 105.880,78.036 110.044,78.023 114.253 L 78.000 121.907 75.415 122.071 C 71.969 122.291,72.215 121.351,72.083 134.789 L 71.967 146.712 69.160 146.870 C 65.576 147.073,65.614 146.999,65.606 153.862 L 65.600 159.525 63.631 159.796 C 59.773 160.326,59.644 160.765,59.345 174.400 C 58.955 192.117,59.615 196.389,62.744 196.405 C 65.417 196.419,65.600 196.637,65.600 199.804 C 65.600 203.188,65.614 203.200,69.433 203.200 L 72.000 203.200 72.000 206.200 L 72.000 209.200 75.000 209.200 L 78.000 209.200 78.000 215.553 L 78.000 221.907 75.415 222.071 C 73.994 222.162,72.689 222.378,72.515 222.551 C 71.935 223.132,71.911 271.296,72.491 271.665 C 72.771 271.842,74.125 271.991,75.500 271.994 L 78.000 272.000 78.000 275.000 L 78.000 278.000 75.500 278.006 C 71.715 278.015,71.974 277.041,72.094 290.827 L 72.200 303.000 75.100 303.118 L 78.000 303.235 78.000 305.585 C 78.000 309.159,78.038 309.200,81.382 309.200 L 84.278 309.200 84.548 314.242 C 84.901 320.853,85.373 321.600,89.192 321.600 L 90.731 321.600 90.866 330.186 C 91.020 340.074,90.960 339.909,94.537 340.278 L 96.800 340.512 96.800 343.023 C 96.800 346.786,96.813 346.800,100.243 346.800 L 103.200 346.800 103.200 349.586 C 103.200 353.160,103.277 353.200,110.156 353.200 L 115.565 353.200 115.682 356.100 L 115.800 359.000 125.083 359.107 L 134.367 359.215 134.483 362.307 L 134.600 365.400 137.700 365.517 L 140.800 365.634 140.800 368.574 C 140.800 371.967,140.835 372.000,144.415 372.000 L 146.765 372.000 146.882 374.900 L 147.000 377.800 150.050 377.916 L 153.100 378.032 153.361 380.316 C 153.805 384.199,154.136 384.308,165.657 384.366 C 172.721 384.402,172.800 384.424,172.800 386.379 C 172.800 387.607,174.374 389.161,176.121 389.658 C 177.045 389.920,177.971 390.285,178.180 390.467 C 178.389 390.650,182.656 390.800,187.662 390.800 L 196.765 390.800 196.882 393.700 L 197.000 396.600 203.300 396.710 L 209.600 396.820 209.600 398.410 L 209.600 400.000 218.800 400.000 L 228.000 400.000 228.000 392.200 L 228.000 384.400 229.900 384.360 C 232.702 384.301,233.735 383.907,234.027 382.785 C 234.276 381.828,234.287 381.834,234.441 383.000 L 234.600 384.200 240.600 384.200 L 246.600 384.200 246.717 381.117 L 246.833 378.033 249.917 377.917 L 253.000 377.800 253.117 374.917 L 253.234 372.034 256.117 371.917 L 259.000 371.800 259.117 368.717 L 259.233 365.633 262.317 365.517 L 265.400 365.400 265.517 362.317 L 265.633 359.233 268.717 359.117 L 271.800 359.000 271.917 356.117 L 272.034 353.234 274.917 353.117 L 277.800 353.000 277.917 349.900 L 278.034 346.800 283.794 346.800 C 290.519 346.800,290.800 346.644,290.800 342.929 L 290.800 340.835 293.700 340.718 L 296.600 340.600 296.717 337.517 L 296.833 334.433 299.917 334.317 L 303.000 334.200 303.117 331.100 L 303.234 328.000 306.217 328.000 L 309.200 328.000 309.200 325.017 L 309.200 322.034 312.300 321.917 L 315.400 321.800 315.517 318.717 L 315.633 315.633 318.717 315.517 L 321.800 315.400 321.917 312.300 L 322.034 309.200 325.017 309.200 L 328.000 309.200 328.000 303.017 L 328.000 296.834 331.100 296.717 L 334.200 296.600 334.318 293.700 L 334.435 290.800 336.818 290.800 C 341.197 290.800,340.800 294.231,340.800 256.374 C 340.800 219.036,341.111 222.000,337.196 222.000 L 334.421 222.000 334.310 215.900 L 334.200 209.800 331.200 209.600 L 328.200 209.400 328.098 178.346 L 327.995 147.292 327.098 147.051 C 326.604 146.919,325.255 146.808,324.100 146.805 L 322.000 146.800 322.000 137.790 L 322.000 128.780 320.974 128.390 C 320.410 128.176,318.970 128.000,317.774 128.000 L 315.600 128.000 315.600 122.280 C 315.600 115.539,315.633 115.600,311.920 115.600 L 309.200 115.600 309.200 109.643 C 309.200 102.853,309.396 103.200,305.567 103.200 L 303.200 103.200 303.200 100.480 C 303.200 97.071,302.929 96.800,299.520 96.800 L 296.800 96.800 296.800 93.800 L 296.800 90.800 293.800 90.800 L 290.800 90.800 290.800 88.233 C 290.800 84.407,290.793 84.400,287.357 84.400 L 284.400 84.400 284.400 81.447 C 284.400 78.049,284.359 78.015,280.300 78.005 L 278.000 78.000 278.000 75.000 L 278.000 72.000 275.000 72.000 L 272.000 72.000 271.983 64.900 C 271.956 54.130,271.795 53.651,268.099 53.315 L 265.705 53.098 265.520 44.755 C 265.310 35.309,265.155 34.805,262.438 34.795 C 259.344 34.783,259.200 34.632,259.200 31.396 C 259.200 28.036,259.161 28.000,255.585 28.000 L 253.235 28.000 253.118 25.100 L 253.000 22.200 249.917 22.083 L 246.833 21.967 246.717 18.883 L 246.600 15.800 243.717 15.683 L 240.834 15.566 240.717 12.683 L 240.600 9.800 237.516 9.440 L 234.433 9.080 234.316 6.240 L 234.200 3.400 228.100 3.290 L 222.000 3.179 222.000 1.590 L 222.000 0.000 194.000 0.000 L 166.000 0.000 166.000 1.590 M160.840 60.855 C 166.012 62.588,165.782 69.537,160.509 70.865 C 156.957 71.759,157.969 72.998,162.500 73.303 C 167.432 73.635,169.181 73.246,170.827 71.449 L 172.202 69.949 173.304 71.099 L 174.406 72.250 173.070 73.825 C 172.133 74.931,171.595 76.107,171.266 77.772 C 170.306 82.635,169.316 83.139,160.076 83.470 C 152.810 83.730,152.661 83.775,151.971 85.932 C 151.380 87.778,150.232 89.057,148.862 89.393 C 147.067 89.834,146.076 90.714,145.236 92.611 C 144.568 94.122,144.105 94.569,142.516 95.241 C 139.253 96.622,139.010 96.793,138.194 98.300 C 136.958 100.581,135.098 101.490,133.362 100.663 C 128.923 98.546,129.281 88.099,133.831 86.957 C 134.662 86.748,136.400 83.426,136.400 82.047 C 136.400 81.443,138.074 80.206,139.708 79.602 C 141.136 79.074,141.412 78.759,141.968 77.027 C 142.606 75.036,143.257 74.493,146.790 73.000 C 147.369 72.755,147.946 71.986,148.276 71.018 C 149.015 68.849,150.203 67.702,152.332 67.101 C 153.968 66.639,154.192 66.422,154.767 64.746 C 155.538 62.497,156.173 61.706,157.773 61.004 C 159.341 60.315,159.242 60.320,160.840 60.855 M254.013 63.100 C 254.323 64.760,254.875 66.230,255.446 66.916 C 256.544 68.235,257.980 72.804,258.290 75.961 C 258.646 79.597,258.650 79.600,263.114 79.601 C 268.422 79.604,270.803 81.177,270.799 84.680 C 270.796 86.837,268.259 89.600,266.282 89.600 C 265.423 89.600,264.520 90.829,264.032 92.662 C 263.501 94.656,262.673 95.694,260.800 96.712 L 259.400 97.474 257.874 96.466 C 256.295 95.425,255.520 94.265,255.024 92.202 C 254.602 90.448,254.142 90.069,252.067 89.767 C 244.482 88.663,241.809 84.970,241.803 75.583 C 241.799 68.644,242.519 67.621,248.001 66.776 C 252.053 66.151,252.160 66.067,252.764 63.028 C 253.407 59.795,253.396 59.794,254.013 63.100 M192.717 105.197 C 194.046 105.800,194.608 106.369,195.203 107.713 C 196.102 109.745,196.968 110.590,198.534 110.963 C 199.987 111.308,201.492 112.814,201.836 114.266 C 202.150 115.588,203.497 117.200,204.290 117.200 C 209.505 117.200,210.222 130.107,205.133 132.385 C 202.664 133.491,200.193 132.454,199.177 129.887 C 198.056 127.052,198.851 127.200,184.712 127.200 C 170.748 127.200,170.831 127.187,169.596 129.608 C 168.203 132.338,163.993 133.579,156.010 133.613 C 152.649 133.627,152.176 133.870,151.000 136.188 C 149.417 139.307,145.030 140.216,133.000 139.915 C 124.520 139.703,123.644 139.025,123.293 132.400 C 123.012 127.082,124.075 124.376,126.690 123.758 C 127.992 123.450,129.600 122.097,129.600 121.310 C 129.600 118.589,132.136 117.127,137.382 116.828 L 141.365 116.600 142.074 114.600 C 143.561 110.403,143.553 110.405,166.051 110.402 C 186.558 110.400,185.206 110.580,185.964 107.747 C 186.473 105.840,187.090 105.220,188.902 104.790 C 190.794 104.341,190.843 104.346,192.717 105.197 M118.740 130.368 C 120.253 131.178,120.930 133.133,121.172 137.400 L 121.400 141.399 123.000 141.907 C 126.014 142.864,127.196 145.200,127.196 150.200 C 127.196 157.239,123.337 160.592,118.797 157.500 C 117.455 156.586,117.247 156.312,116.321 154.230 C 116.003 153.515,115.332 152.911,114.600 152.679 C 112.227 151.926,111.469 150.820,110.207 146.273 C 109.428 143.465,108.829 143.492,108.101 146.368 C 107.377 149.224,106.671 150.185,104.569 151.173 C 103.102 151.862,102.594 152.411,101.694 154.281 C 99.866 158.075,99.583 158.180,90.799 158.324 C 80.053 158.501,79.400 158.035,79.400 150.200 C 79.400 143.068,80.450 142.005,87.868 141.627 C 90.325 141.502,92.395 141.310,92.468 141.200 C 92.540 141.090,92.933 140.343,93.341 139.541 C 95.166 135.947,100.071 136.357,101.032 140.184 C 101.486 141.995,106.400 142.958,106.400 141.237 C 106.400 141.080,107.181 140.037,108.135 138.919 C 109.320 137.531,110.085 136.121,110.548 134.472 C 111.849 129.835,114.894 128.309,118.740 130.368 M186.040 136.055 C 187.982 136.706,189.042 137.808,189.583 139.739 C 189.973 141.134,190.369 141.591,191.899 142.411 C 194.706 143.916,195.244 144.919,195.688 149.465 C 196.151 154.212,195.776 165.804,195.092 167.879 C 194.615 169.325,194.381 169.512,191.232 170.956 C 190.631 171.232,190.057 172.023,189.717 173.044 C 188.990 175.230,187.816 176.254,185.400 176.811 C 181.128 177.794,180.822 177.986,181.595 179.200 C 181.897 179.673,182.765 179.783,185.711 179.720 C 190.552 179.615,191.477 179.260,191.832 177.371 C 192.176 175.536,194.068 173.336,195.589 173.002 C 197.661 172.547,197.724 172.255,197.985 161.874 C 198.272 150.512,198.981 148.400,202.510 148.400 C 203.283 148.400,204.648 146.801,204.942 145.551 C 205.569 142.893,208.407 141.333,211.000 142.222 C 214.300 143.352,214.918 145.331,214.730 154.166 C 214.564 161.974,214.294 162.686,210.884 164.312 L 208.600 165.400 208.391 170.600 C 208.155 176.502,207.107 179.286,204.495 180.959 C 203.436 181.638,203.017 182.337,202.327 184.582 C 201.383 187.655,200.232 189.094,198.431 189.454 C 195.505 190.039,195.537 191.523,198.503 192.895 C 202.406 194.699,202.406 199.301,198.503 201.105 C 195.296 202.588,195.152 204.402,198.196 204.973 C 199.798 205.273,201.204 206.628,201.820 208.464 C 202.263 209.786,202.929 210.282,205.547 211.242 C 206.981 211.768,208.396 213.652,208.399 215.038 C 208.400 216.065,209.423 217.003,210.934 217.363 C 212.509 217.737,213.865 219.214,214.375 221.107 C 214.870 222.946,215.326 223.406,217.008 223.765 C 219.658 224.331,220.455 225.488,220.906 229.421 C 221.310 232.950,221.066 237.723,220.428 238.755 C 219.693 239.944,213.461 240.073,209.924 238.972 C 209.509 238.842,209.086 239.067,208.824 239.554 C 208.097 240.913,208.333 241.522,209.700 241.816 C 212.793 242.482,214.480 244.312,214.480 247.000 C 214.480 252.064,207.556 253.900,204.144 249.741 C 202.941 248.274,202.400 248.860,202.400 251.632 C 202.400 254.223,202.179 253.970,205.547 255.232 C 209.321 256.645,209.806 268.692,206.204 271.526 L 205.110 272.386 206.181 272.793 C 208.082 273.516,214.290 272.977,215.339 271.998 C 215.525 271.824,216.399 272.067,217.280 272.537 C 222.119 275.120,222.444 286.644,217.800 291.001 C 215.822 292.856,215.605 293.247,214.803 296.401 C 213.837 300.202,212.963 301.418,210.773 302.007 C 208.874 302.519,208.560 302.954,208.278 305.467 C 207.836 309.395,203.783 313.488,199.029 314.808 C 196.830 315.418,196.619 315.580,196.127 317.033 C 194.728 321.167,194.211 321.252,171.103 321.115 C 148.967 320.983,149.434 321.053,147.700 317.615 C 147.205 316.634,146.799 316.004,146.799 316.215 C 146.794 317.732,145.433 323.977,144.943 324.734 C 142.662 328.252,137.880 327.377,135.800 323.060 L 135.000 321.400 131.661 321.283 C 127.001 321.120,127.194 320.785,127.231 328.949 C 127.266 336.769,127.547 338.048,129.750 340.411 C 132.729 343.606,133.171 347.323,130.847 349.647 C 128.511 351.983,125.294 351.158,124.610 348.047 C 124.315 346.703,123.351 346.136,120.450 345.599 C 118.051 345.156,114.401 343.236,113.303 341.840 C 112.885 341.309,111.417 340.545,109.792 340.013 C 105.281 338.536,104.400 337.078,104.400 331.085 C 104.400 327.874,103.998 327.144,101.965 326.662 C 98.297 325.794,98.005 324.522,98.002 309.380 C 98.000 296.281,97.867 295.273,96.325 296.667 C 95.926 297.029,95.600 297.575,95.600 297.882 C 95.600 302.383,88.060 303.496,86.461 299.231 C 86.208 298.554,85.794 297.451,85.543 296.779 C 85.256 296.013,84.519 295.269,83.566 294.783 C 82.730 294.356,81.550 293.356,80.943 292.561 L 79.840 291.114 80.620 289.669 C 81.309 288.394,82.077 287.717,84.558 286.200 C 84.918 285.980,85.567 284.819,86.001 283.619 C 86.944 281.012,87.398 280.510,89.441 279.818 C 90.979 279.296,91.489 278.665,92.396 276.163 C 93.079 274.281,95.069 273.497,99.710 273.285 C 103.813 273.097,104.800 272.604,104.800 270.742 C 104.800 268.658,107.090 267.385,112.796 266.295 C 115.076 265.860,115.460 265.654,115.948 264.600 C 117.576 261.085,119.672 260.400,128.806 260.400 C 138.093 260.400,140.658 259.853,141.703 257.649 C 142.968 254.980,146.973 254.444,165.851 254.417 C 175.878 254.403,178.390 254.293,178.756 253.853 C 179.875 252.504,178.523 252.425,152.573 252.311 C 124.410 252.189,125.516 252.292,124.156 249.661 C 123.467 248.330,123.389 247.017,123.280 234.932 C 123.186 224.559,123.045 221.570,122.633 221.228 C 121.372 220.181,121.235 221.717,121.117 238.220 C 120.980 257.417,120.742 258.400,116.239 258.400 C 114.587 258.400,113.258 259.226,112.997 260.414 C 112.598 262.232,108.496 264.366,105.298 264.418 C 103.289 264.451,101.964 265.323,101.061 267.205 C 99.266 270.946,90.349 272.385,87.377 269.413 C 85.687 267.723,85.563 266.177,85.568 246.889 C 85.574 222.046,85.907 219.954,90.176 217.952 C 91.075 217.530,91.461 216.975,91.810 215.598 C 92.869 211.423,94.099 210.639,99.742 210.543 C 104.679 210.459,104.317 211.051,104.472 202.800 C 104.673 192.067,104.837 191.905,115.800 191.600 C 123.760 191.379,124.916 190.918,121.000 189.528 C 117.037 188.120,116.710 186.910,116.875 174.263 C 117.045 161.151,117.384 160.581,125.000 160.621 C 131.632 160.655,133.038 161.898,133.467 168.102 C 133.830 173.358,132.673 175.943,129.635 176.662 C 127.526 177.162,127.200 177.827,127.200 181.638 C 127.200 183.689,127.377 185.262,127.625 185.416 C 128.261 185.808,129.476 184.522,129.746 183.169 C 130.405 179.876,133.127 179.003,141.600 179.368 C 151.903 179.811,151.963 179.888,152.294 193.186 C 152.557 203.779,152.957 204.792,154.320 198.319 C 155.275 193.784,155.973 192.727,158.612 191.820 C 159.854 191.393,160.262 190.988,160.687 189.762 C 161.913 186.221,163.675 185.600,172.501 185.600 C 179.643 185.600,180.274 185.386,179.846 183.103 C 179.488 181.199,178.908 181.071,176.357 182.334 C 174.303 183.351,173.868 183.406,166.878 183.539 C 157.976 183.707,155.741 183.052,155.007 180.062 C 154.382 177.519,153.861 177.200,150.337 177.200 C 144.950 177.200,142.988 176.223,141.868 172.982 C 141.423 171.694,141.021 171.288,139.701 170.798 C 135.926 169.397,135.447 167.884,135.681 158.125 C 135.882 149.720,136.018 149.289,139.644 145.517 C 142.877 142.154,143.454 141.940,149.929 141.695 L 155.257 141.494 156.202 139.997 C 156.722 139.173,157.620 138.128,158.198 137.673 C 159.112 136.954,160.067 136.664,164.200 135.850 C 166.213 135.454,184.765 135.628,186.040 136.055 M227.043 136.209 C 232.675 136.900,234.594 141.915,230.200 144.460 C 228.489 145.451,222.527 146.137,220.768 145.546 C 214.469 143.430,216.714 135.114,223.400 135.795 C 224.280 135.885,225.919 136.071,227.043 136.209 M242.546 142.152 C 245.583 143.421,247.033 148.263,245.239 151.142 C 244.705 151.998,241.331 152.471,239.556 151.940 C 234.674 150.477,234.567 143.771,239.400 142.082 C 241.011 141.520,241.035 141.520,242.546 142.152 M255.682 148.757 C 258.468 149.823,259.320 154.862,257.091 157.091 C 255.608 158.574,251.164 158.726,249.330 157.357 C 244.157 153.495,249.424 146.364,255.682 148.757 M184.070 152.890 C 183.303 153.657,183.447 159.566,184.240 159.871 C 185.227 160.250,185.587 159.260,185.594 156.149 C 185.600 153.159,185.027 151.933,184.070 152.890 M276.089 155.546 C 281.379 158.107,283.348 161.569,283.380 168.370 L 283.400 172.539 285.556 173.807 C 288.584 175.588,288.972 176.502,288.849 181.561 C 288.730 186.410,287.890 188.741,285.759 190.136 C 284.153 191.187,283.759 193.172,283.441 201.800 C 283.155 209.582,281.640 213.600,278.992 213.600 C 278.264 213.600,277.271 215.063,276.789 216.848 C 275.155 222.892,267.843 222.188,266.441 215.852 C 266.115 214.380,265.413 212.838,264.561 211.721 C 262.824 209.447,262.918 208.821,265.175 207.614 C 267.377 206.435,267.083 202.666,264.708 201.641 C 259.815 199.529,258.795 188.878,263.264 186.567 C 266.424 184.933,270.800 187.014,270.800 190.152 C 270.800 190.987,271.920 192.006,272.566 191.758 C 272.989 191.595,273.153 189.765,273.308 183.475 C 273.422 178.874,273.717 174.722,273.994 173.824 C 274.753 171.360,274.285 171.202,266.224 171.191 C 260.387 171.184,259.158 171.073,257.727 170.423 C 253.693 168.591,253.709 162.968,257.753 161.179 C 259.684 160.325,260.451 159.549,261.177 157.713 C 262.500 154.368,271.079 153.121,276.089 155.546 M105.645 160.941 C 110.653 162.120,114.282 167.304,114.681 173.850 C 115.063 180.107,113.785 183.089,110.321 184.021 C 109.456 184.254,107.936 185.065,106.943 185.822 C 105.951 186.580,104.732 187.302,104.234 187.427 C 103.517 187.607,103.143 188.263,102.429 190.591 C 101.442 193.806,100.577 194.853,98.301 195.581 C 96.806 196.060,95.600 197.286,95.600 198.329 C 95.600 203.945,81.682 204.462,78.601 198.960 C 78.122 198.103,77.114 197.078,76.361 196.681 C 73.873 195.371,73.400 193.442,73.400 184.600 C 73.400 176.163,73.662 175.016,75.804 174.090 C 78.547 172.903,79.006 172.522,79.593 170.946 C 80.812 167.671,81.786 167.155,87.357 166.830 L 91.315 166.600 91.828 164.857 C 93.040 160.738,98.368 159.228,105.645 160.941 M177.453 165.675 C 177.123 166.184,176.736 167.082,176.591 167.671 C 176.269 168.980,175.242 169.948,173.060 171.000 C 170.496 172.236,170.851 172.654,175.880 174.313 C 179.164 175.396,179.257 175.260,179.114 169.575 C 178.994 164.843,178.596 163.908,177.453 165.675 M140.411 190.586 C 140.148 190.904,139.704 192.207,139.425 193.482 C 139.146 194.757,138.794 196.083,138.643 196.429 C 138.452 196.867,138.683 197.200,139.403 197.529 C 141.490 198.480,141.600 198.314,141.600 194.224 C 141.600 190.431,141.301 189.515,140.411 190.586 M319.124 197.095 C 321.783 201.272,321.950 210.805,319.429 214.520 C 318.540 215.829,318.536 215.881,319.254 216.768 C 320.116 217.832,320.880 220.431,320.880 222.300 C 320.880 224.691,319.834 225.683,315.697 227.217 C 314.746 227.569,314.185 228.171,313.624 229.439 C 310.974 235.429,305.772 233.162,304.824 225.604 C 304.350 221.822,304.089 221.379,301.967 220.743 C 298.233 219.624,297.301 216.012,299.228 210.126 C 300.074 207.540,304.530 204.800,307.891 204.800 C 309.370 204.800,310.632 203.232,310.936 201.017 C 311.233 198.846,313.081 195.645,314.730 194.444 C 316.074 193.464,317.271 194.187,319.124 197.095 M115.248 202.942 C 114.900 203.362,114.922 203.603,115.342 203.952 C 115.762 204.300,116.003 204.278,116.352 203.858 C 116.700 203.438,116.678 203.197,116.258 202.848 C 115.838 202.500,115.597 202.522,115.248 202.942 M146.444 202.947 C 145.589 203.978,146.763 204.361,149.400 203.911 C 152.135 203.445,152.410 203.304,151.588 202.784 C 150.669 202.203,146.965 202.320,146.444 202.947 M108.667 215.067 C 107.714 216.019,109.162 217.262,110.210 216.392 C 110.666 216.013,110.701 215.763,110.356 215.347 C 109.869 214.761,109.100 214.633,108.667 215.067 M196.444 246.547 C 195.683 247.464,196.890 248.058,199.236 247.922 C 201.886 247.768,202.184 247.042,199.839 246.452 C 197.521 245.868,196.995 245.883,196.444 246.547 M195.300 259.476 C 195.685 259.576,196.315 259.576,196.700 259.476 C 197.085 259.375,196.770 259.293,196.000 259.293 C 195.230 259.293,194.915 259.375,195.300 259.476 M132.800 277.691 C 132.250 277.914,131.440 278.654,131.000 279.336 C 129.399 281.815,126.269 283.032,120.029 283.601 C 115.868 283.981,114.636 284.391,115.665 285.055 C 115.959 285.245,120.309 285.460,125.332 285.533 C 135.414 285.680,135.654 285.628,136.146 283.169 C 136.769 280.054,139.180 279.205,147.420 279.202 C 153.587 279.200,154.913 278.901,153.942 277.730 C 153.398 277.074,134.406 277.039,132.800 277.691 " stroke="none" fill="#040404" fill-rule="evenodd"></path></g></svg>