<svg xmlns="http://www.w3.org/2000/svg" width="32" height="32" viewBox="0 0 400 400"><g fill-rule="evenodd"><path d="M162.667 6.8c-3.694.236-4.267.728-4.267 3.661 0 2.363-1.051 3.536-3.175 3.545-2.64.011-3.374.701-3.856 3.63-.573 3.478-.651 3.564-3.219 3.564-3.784 0-4.561.735-4.495 4.256.026 1.351-.067 2.64-.206 2.865-.355.574 2.645 1.016 4.75.7 2.273-.341 2.769-.985 2.466-3.199-.443-3.231.283-4.363 2.621-4.086 1.348.159 2.477.032 3.559-.401l1.585-.634-.115-2.814c-.115-2.812-.115-2.813 1.085-3.196 1.828-.582 63.081-1.054 73.439-.566 4.751.224 8.895.309 9.209.189.786-.302.362-6.609-.479-7.142-.775-.49-12.793-.464-15.769.034-1.624.272-3.306.269-5.2-.01-2.895-.427-52.174-.764-57.933-.396m81.591 8.471c-.076.291-.421 1.369-.767 2.396-.888 2.64-.28 3.133 3.869 3.133h3.098l-.273-2.3c-.15-1.265-.478-2.505-.729-2.756-.726-.727-5.028-1.118-5.198-.473m6.852 9.19c-.246 3.912.115 4.339 3.672 4.339 3.36 0 3.569-.222 3.321-3.531-.25-3.342-.21-3.305-3.814-3.546l-2.994-.2-.185 2.938M136 29.6c-.631.631-.8 1.333-.8 3.324 0 3.235-.441 3.796-3.355 4.269-3.096.503-3.845 1.21-3.845 3.625 0 2.965-.798 3.651-4.524 3.89l-3.067.197-.411 1.447c-.225.797-.522 4.058-.659 7.248-.29 6.783-.298 6.8-3.388 6.8-4.213 0-3.951-1.284-3.951 19.386 0 20.38.376 18.614-3.964 18.614-3.747 0-3.526-1.442-3.411 22.2.119 24.686.035 22.403.852 23.219.53.531 1.132.63 2.792.459 3.778-.39 3.907-.113 3.826 8.234-.08 8.18-.158 8.01 3.752 8.098 3.383.077 3.249-.197 3.579 7.306.329 7.478.221 7.284 4.059 7.284 3.441 0 4.115-.613 4.115-3.743 0-3.071.357-3.457 3.191-3.457 3.271 0 4.009.657 4.009 3.574 0 2.998.376 3.289 4.721 3.644 4.188.342 3.808.66 3.717-3.115-.051-2.13.132-3.613.58-4.685.473-1.13.584-2.143.398-3.627-.307-2.459.213-3.1 2.515-3.1 2.77 0 3.41.649 3.114 3.161-.201 1.712-.085 2.544.55 3.937 2.115 4.643.933 7.145-3.471 7.345l-3.147.143-.051 3.061c-.077 4.593-.129 4.563 7.254 4.239 3.311-.145 6.16-.393 6.331-.551.571-.529.803-4.388.367-6.117-1.557-6.17-.548-9.063 3.191-9.149 3.838-.088 4.838-1.17 2.927-3.164l-1.077-1.124 1.02-.669c1.339-.877 1.898-2.687 1.767-5.717-.175-4.071.182-4.257 8.478-4.412 8.408-.157 8.416-.152 8.416 4.65 0 3.776.507 4.774 2.066 4.064.781-.356 1.242-.358 1.893-.01.687.368.984.336 1.479-.159.627-.627.936-.69 4.162-.85 4.297-.214 6.205 1.324 5.618 4.53-.542 2.964-.236 3.104 6.736 3.082 6.988-.022 6.583.176 6.491-3.177-.128-4.643 2.679-5.93 9.22-4.228 4.958 1.289 5.69.911 5.851-3.026.189-4.596.397-4.703 9.615-4.95l7.469-.2.2-2.48c.249-3.091.445-3.28 3.717-3.585 2.607-.244 2.668-.228 3.064.816.493 1.295.08 5.823-.538 5.914-.244.036-1.523.081-2.843.1l-2.4.035-.2 6.729c-.254 8.531-.329 8.325 2.999 8.203 4.261-.158 4.336.002 3.979 8.445-.335 7.919-.246 7.765-4.281 7.348-2.943-.304-3.497.444-3.497 4.715 0 3.79-.337 4.172-3.364 3.816-2.989-.351-3.766.336-3.976 3.519-.212 3.202-.975 3.825-4.685 3.825-1.504 0-3.599.173-4.655.384-4.618.925-24.235 1.432-31.92.825-2.86-.225-8.593-.637-12.74-.915-8.635-.578-9.06-.769-9.06-4.089 0-2.093-.657-2.713-3.018-2.846-3.476-.196-4.629-1.465-4.742-5.223-.079-2.611-.501-2.982-3.235-2.84l-1.995.104.085 2.074c.047 1.14-.268 3.456-.7 5.145-.432 1.69-.689 3.228-.572 3.419 1.132 1.83-1.415 4.362-4.387 4.362-2.642 0-4.622 4.238-2.945 6.3.563.692 4.849.631 7.273-.104 3.832-1.163 7.02-.567 7.863 1.47.398.961.427 5.723.138 22.874-.475 28.197-.384 35.702.476 39.067.617 2.421.618 2.814.012 5.479-.359 1.58-.653 4.119-.653 5.644 0 3.546-.322 3.84-3.92 3.583-4.021-.288-4.48-.644-4.48-3.476 0-1.404-.397-3.55-.995-5.384-.971-2.974-.98-3.106-.354-5.351 1.573-5.641 1.051-16.535-.865-18.041-.677-.533-.986-1.173-.986-2.042 0-.785-.16-1.167-.421-1.006a.65.65 0 0 0-.265.724c.086.254-.444 1.338-1.179 2.408-1.17 1.704-1.335 2.26-1.335 4.491 0 3.566-.184 3.653-8.406 3.999-6.328.266-6.679.24-8.352-.614-1.242-.633-2.121-.82-3.045-.647-2.37.445-3.535-.328-3.287-2.181.117-.873-.031-2.4-.33-3.392-.793-2.635-.905-15.748-.138-16.24.307-.197 1.572-.248 2.812-.113 3.038.33 4.053-.554 3.689-3.213-.528-3.847.447-5.051 3.841-4.743 3.215.292 3.74-.148 3.409-2.858-.175-1.427-.062-2.478.379-3.521.398-.942.628-2.683.628-4.747v-3.26l-3.1.277c-2.128.191-3.257.48-3.6.924-.726.939-.675 6.451.063 6.734 1.421.546 1.638 4.159.25 4.159-.198 0-.479.376-.625.837-.341 1.075-2.478 1.963-4.726 1.963-2.286 0-2.789.644-2.992 3.831-.203 3.196-.522 3.458-4.486 3.687-4.315.25-4.073-.428-4.116 11.523-.044 11.954-.263 11.359 4.18 11.359 4.437 0 4.419-.081 4.255 19.067-.117 13.738.181 12.754-3.837 12.666-4.053-.089-4.466.272-4.466 3.905 0 3.113-.039 3.155-3.11 3.417-4.03.343-4.09.374-4.09 2.097 0 .845-.112 2.353-.249 3.352l-.249 1.816-3.133.142c-3.92.178-4.155.404-4.035 3.878.126 3.679-.763 4.296-5.486 3.802-2.812-.294-3.017-.591-2.89-4.178.114-3.21-.13-3.335-6.83-3.503-7.349-.183-7.528-.079-7.528 4.348 0 3.031.045 3.193.9 3.231.495.021 3.78.066 7.3.1l6.4.06.118 3.169c.142 3.822.488 4.198 3.882 4.224 4.216.034 4.237.103 3.997 12.699-.22 11.484-.247 11.568-3.706 11.435-2.654-.103-3.291.581-3.291 3.535 0 3.557-.555 3.938-5.741 3.938-7.806 0-8.99.257-9.474 2.055-.885 3.288.98 4.642 6.518 4.732 7.827.128 8.507.568 8.12 5.262-.184 2.229-.096 2.805.558 3.636.76.967 8.592 5.653 11.004 6.585.877.339 7.833.479 25.015.506 13.865.021 24.045.191 24.386.407.479.303.606 1.896.689 8.694.057 4.578.108 8.428.114 8.557.017.36 4.643 1.566 6.005 1.566H166v-9.351c0-8.222.08-9.417.663-9.9.976-.807 20.549-.369 21.576.483.443.368.499 2.167.303 9.71-.14 5.351-.083 9.849.134 10.658l.375 1.4H196.6l.011-21.4c.013-24.824-.213-23.6 4.353-23.6 3.481 0 3.749 3.066 3.248 37.107-.129 8.804-.415 8.198 3.862 8.198 4.145 0 3.847.801 4.142-11.105.141-5.72.346-10.49.454-10.6.808-.821 21.4-1.073 22.202-.271.398.399.559 2.732.655 9.493.139 9.865.089 9.691 2.673 9.328 3.555-.499 4.91-1.738 4.438-4.059-.122-.6-.326-3.915-.454-7.367-.287-7.798-.218-7.924 4.34-7.924 4.413 0 4.152.676 4.397-11.352.168-8.232.328-10.468.783-10.923.583-.583 7.445-.98 16.296-.944 4.89.02 5.6-.541 5.6-4.425 0-3.018.844-3.405 8.174-3.748 7.352-.345 7.826-.563 7.826-3.608 0-2.34.993-3.4 3.184-3.4 3.151 0 3.227-.282 3.202-11.829-.027-11.726.064-11.417-3.426-11.659-3.965-.276-4.235-.546-4.097-4.094.4-10.254-.006-11.307-4.301-11.148-3.406.126-3.389.161-3.312-7.07.078-7.406.181-7.634 3.539-7.877 3.892-.281 3.618 1.04 3.849-18.555.251-21.34.296-21.193-6.086-19.592l-.95.239.009 14.048c.01 16.299.083 15.937-3.194 15.937-3.744 0-4.559.804-4.597 4.535-.028 2.728-1.009 3.465-4.615 3.465-3.332 0-3.768.415-3.789 3.61-.009 1.278-.108 2.415-.22 2.527-.491.491-5.241.437-5.55-.063-.352-.569-.844-15.417-.845-25.515-.002-12.175-.202-12.683-4.801-12.221l-2.6.262-.29 11.6c-.16 6.38-.43 13.22-.6 15.2l-.31 3.6-2.688.118c-3.046.134-2.897.313-3.259-3.918-.103-1.21-.392-3.385-.641-4.834-.858-4.982-.386-21.266.658-22.676.67-.907.821-1.535.658-2.749-.259-1.934.532-2.858 1.846-2.155 1.009.54 1.097 2.223.145 2.755-1.157.648.103 1.725 1.847 1.579l1.434-.12.269-3.8c.148-2.09.345-6.865.439-10.612.105-4.211.353-7.155.65-7.709.316-.59.389-1.701.214-3.249-.329-2.901.218-3.391 3.095-2.778 1.656.354 1.979.293 3.339-.63 1.244-.845 1.971-1.022 4.188-1.022 3.59 0 4.089.535 4.053 4.354-.035 3.674.321 4.041 3.644 3.759 3.229-.273 2.982.247 3.306-6.945.336-7.454.285-7.568-3.393-7.568-3.553 0-3.602-.045-3.617-3.343-.017-3.978-.415-4.416-3.953-4.35-3.341.062-3.462-.056-3.825-3.759-.327-3.329-.817-3.748-4.378-3.748-1.172 0-2.896-.27-3.831-.6-.935-.33-2.545-.6-3.576-.6-1.753 0-1.92-.092-2.55-1.414-1.635-3.429.112-5.974 3.47-5.056 2.454.671 3.456-.797 3.456-5.061 0-3.635-.121-3.574 7.439-3.733 7.788-.164 7.761-.151 7.761-3.942 0-3.1.102-3.197 3.333-3.188 3.34.009 4.063.588 4.089 3.273.03 3.054.501 3.521 3.547 3.521 2.928 0 3.431-.389 3.431-2.654 0-3.397 1.26-4.546 4.983-4.546 2.956 0 3.027-.17 3.052-7.273.028-7.9.016-7.927-3.621-7.927-3.654 0-3.986-.346-3.721-3.884.246-3.272.425-3.499 2.827-3.578 1.034-.034 3.86-.308 6.28-.607l4.4-.546.699-1.392c.552-1.098.7-2.426.7-6.27.001-5.709-.257-6.123-3.812-6.123-3.485 0-3.539-.115-3.565-7.539-.026-7.572.175-8.024 3.721-8.365 2.759-.265 3.657-1.171 3.657-3.686 0-3.855.503-4.325 5.146-4.807 3.753-.39 3.672-.216 3.553-7.598l-.099-6.195-1.2-.591c-.853-.421-2.935-.629-7.2-.72-8.315-.178-7.778.043-7.766-3.204.051-13.71-.634-31.372-1.263-32.548-.252-.472-1.082-.699-3.008-.822-3.75-.239-3.763-.266-3.763-8.175 0-8.759-.312-9.501-3.825-9.093-2.448.285-3.375-.402-3.375-2.498 0-3.1-.882-4.157-3.48-4.172-3.37-.018-3.872-.535-4.055-4.175-.184-3.635-.579-4.06-4.002-4.294-3.012-.207-3.263.119-3.263 4.246 0 3.394.582 3.93 3.89 3.584 2.981-.311 3.56.343 3.136 3.544-.479 3.609 1.744 7.019 3.616 5.547 2.141-1.685 3.779-.723 3.476 2.043-.131 1.196.065 2.305.647 3.651.5 1.159.835 2.787.835 4.065 0 1.172.358 3.272.795 4.666.437 1.395.797 3.171.8 3.947.007 1.919 1.023 3.321 2.194 3.028 1.988-.5 2.651 2.835 3.265 16.437l.256 5.676-1.237 1.236c-.924.925-1.472 1.177-2.17 1.002-2.158-.542-3.122.37-3.007 2.846.162 3.504-.263 3.694-8.896 3.981-8.177.271-8.108.237-7.732 3.828.373 3.569-.41 4.533-3.408 4.194-3.29-.372-4.06.267-4.06 3.37 0 2.849-.423 3.191-3.948 3.191-1.32 0-2.884.184-3.477.409-.592.226-2.412.523-4.045.661-3.446.291-4.13.883-4.13 3.57 0 2.22-.591 2.616-4.514 3.02-1.807.186-5.266.563-7.686.839-3.029.345-9.945.471-22.2.403-20.769-.113-19.635.112-20.033-3.972-.315-3.238-.457-3.399-2.721-3.098-1.279.169-2.509.042-3.784-.39-1.04-.353-2.949-.642-4.243-.642-3.701 0-4.819-1.011-4.819-4.357 0-2.12-1.026-2.843-4.035-2.843-3.725 0-5.569-2.603-3.966-5.599.876-1.637-.126-1.854-10.868-2.352-7.036-.326-10.763-.666-12.2-1.114-1.139-.354-2.348-.537-2.689-.406-1 .383-3.042-.515-3.042-1.339 0-1.238 1.87-2.42 3.093-1.955 1.192.454 1.948-.031 1.573-1.008-.163-.425-.757-.627-1.841-.627-.88 0-2.339-.385-3.242-.855-1.263-.659-2.265-.84-4.352-.787-3.856.097-3.677.653-3.753-11.633-.106-17.087.275-19.245 3.169-17.949 2.549 1.141 4.153-.565 4.153-4.417 0-3.937 1.82-6.392 4.281-5.774 1.443.362 2.119-.415 2.119-2.432 0-.963.382-2.854.849-4.204.619-1.788.788-2.981.62-4.393-.324-2.739.226-3.192 3.507-2.885 3.457.322 4.871-.865 4.474-3.759-.137-1.003-.25-2.429-.25-3.168V28.8h-3c-2.467 0-3.142.142-3.8.8m9.329 39.102c-1.689.283-1.882 1.024-1.778 6.828.131 7.329.208 7.448 4.59 7.127 9.019-.661 8.436-.25 8.81-6.209.143-2.283.358-4.545.479-5.025.541-2.154-6.304-3.693-12.101-2.721m106.385.841c-.614.615-.378 10.39.281 11.613.546 1.015 11.866.872 12.367-.156.764-1.569.99-10.791.281-11.5-.883-.883-12.04-.846-12.929.043m-134.792 38.519c.617-.018 2.055.335 3.196.785 1.826.719 2.259.757 3.609.311 1.704-.562 2.255-.192 2.267 1.522.008 1.228-1.025 1.702-2.699 1.24-2.715-.75-5.232 1.197-5.63 4.355l-.242 1.925-.212-1.596c-.439-3.322-2.395-2.214-2.405 1.363-.008 2.761-.38 2.399-.865-.841-1.118-7.478-.847-9.93 1.031-9.307.455.152 1.333.261 1.95.243m71.347 30.578c.537 1.257.304 4.807-.371 5.66-.285.36-2.078.5-6.415.5-7.27 0-7.483-.104-7.483-3.662 0-3.661.174-3.746 7.587-3.698l6.186.039.496 1.161m49.444-.774c4.911.321 5.283.602 4.919 3.703-.37 3.142.01 3.027-10.154 3.064-10.53.038-11.394-.14-12.039-2.477-.86-3.113.191-4.138 4.287-4.179 1.251-.013 2.994-.181 3.874-.374.88-.193 2.401-.271 3.379-.174.978.098 3.559.294 5.734.437m-19.924 16.516c.429.695-.252 2.418-.958 2.418-.963 0-3.065-2.244-2.364-2.524.912-.364 3.074-.295 3.322.106m47.476 6.323c.453.453.918 12.881.539 14.411-.363 1.463-6.354 1.176-7.499-.36-1.201-1.613-.563-13.507.76-14.165 1.077-.535 5.635-.451 6.2.114m-82.394 15.716c-1.132 4.904-.744 5.579 3.129 5.442l1.8-.063-.119-3.188c-.137-3.647-.588-4.238-2.048-2.685L184.624 177l-.212-1.167c-.341-1.876-1.033-1.612-1.541.588m32.361 28.811c3.439-.108 4.168.673 4.168 4.471 0 3.894-.258 4.172-4.053 4.364-3.462.175-4.23.758-4.129 3.133.172 4.037.044 4.104-7.168 3.782-6.796-.303-7.303-.558-7.187-3.625.102-2.697-.803-3.454-3.937-3.292-3.274.168-3.526-.119-3.526-4.024 0-4.105.308-4.47 3.534-4.191 1.742.151 2.936.027 4.066-.421 1.347-.535 2.739-.595 8.8-.381 3.96.14 8.204.223 9.432.184m-68.355 1.538c-2.618.316-2.863.686-2.871 4.33L144 214h2.538c3.368 0 4.056-.7 4.076-4.142.015-2.48-.335-3.505-1.163-3.402l-2.574.314m94.641 1.379c.227.141.528 1.019.669 1.953.543 3.603.67 3.907 1.889 4.538 1.117.577 1.829.564 3.982-.073 1.121-.331 1.943.926 1.936 2.962-.009 2.674-.288 2.927-3.369 3.065-3.888.174-4.796 1.083-4.484 4.495.283 3.109-.338 3.711-3.83 3.711-3.207 0-4.097.882-3.799 3.767.307 2.976-.075 3.433-2.872 3.433-4.532 0-5.928 1.208-5.407 4.681.363 2.419-.471 3.319-3.076 3.319-3.591 0-4.453.946-4.296 4.714.098 2.35-.366 2.655-4.379 2.886l-3.482.2-.119 2.982c-.152 3.791-.355 4.018-3.598 4.018-3.581 0-4.083.496-4.083 4.029 0 3.88-.066 3.971-2.861 3.971-3.344 0-4.339 1.005-4.339 4.382 0 3.138-.809 4.112-3.003 3.617-1.876-.423-3.734.199-4.008 1.341-.113.473-.367 2.179-.564 3.791-.374 3.063-1.238 4.619-2.392 4.312-2.434-.648-2.845-.631-3.627.151-.504.504-.806 1.336-.806 2.219 0 3.472-1.567 5.229-4.169 4.675-2.796-.597-3.593.15-3.324 3.116.114 1.258.088 2.481-.058 2.717-.82 1.326-5.869 1.695-8.649.632-1.53-.585-2.651-.819-4.4-.919-1.237-.071.12-.82 1.5-.828.605-.003 1.1-.186 1.1-.406 0-.22-.435-.4-.967-.4-2.201 0-3.503-2.367-1.333-2.424 4.715-.123 5.26-.589 5.68-4.854.357-3.619.603-3.922 3.18-3.922 3.136 0 3.84-.685 3.84-3.734 0-3.684.548-4.266 4.012-4.266 3.279 0 3.988-.791 3.988-4.449 0-2.96.621-3.528 3.568-3.26 2.966.268 3.632-.482 3.632-4.091 0-3.679.637-4.353 3.791-4.016 3.194.342 5.009-.865 5.009-3.331 0-2.272.902-3.253 2.992-3.253 2.524 0 5.06-1.981 5.521-4.313.365-1.842 1.281-2.236 2.458-1.058.569.568.629.568.629.003 0-.344.63-1.45 1.4-2.459 1.287-1.686 1.4-2.057 1.4-4.59 0-3.13.387-3.581 3.074-3.585 4.102-.006 5.573-1.256 5.198-4.418-.311-2.626.207-3.182 3.304-3.547 3.114-.367 3.624-.944 3.624-4.096 0-3.18 1.717-5.322 3.963-4.944 2.011.339 2.98-.456 3.031-2.487.022-.876.384-2.113.805-2.75.505-.764.838-2.17.983-4.146.273-3.745 2.185-4.884 5.136-3.061m-54.021 14.809c.273.255.615 1.598.76 2.983.367 3.512 1.075 4.286 3.808 4.162 5.849-.265 9.978 3.1 6.075 4.952-2.037.967-3.464 3.275-3.129 5.062.425 2.264-.285 3.109-2.542 3.029-3.229-.114-4.206.946-4.593 4.989-.252 2.625-.613 2.879-3.964 2.785-3.295-.092-4.158-.621-3.564-2.184.227-.598.237-1.232.023-1.569-.197-.312-.362-1.04-.365-1.618-.007-1.235-.93-2.141-1.83-1.795-.349.134-.979.059-1.4-.167-.803-.429-.782-.184-.889-10.387-.015-1.43.14-4.04.346-5.8l.373-3.2 1.361.11c.896.073 1.645-.149 2.196-.649 1.663-1.508 6.024-1.927 7.334-.703m86.627 6.742c-.575.887-.208 13.587.409 14.205.333.332 1.653.583 3.405.647l2.862.103v-7.065c0-8.387-.001-8.39-3.908-8.39-1.517 0-2.568.19-2.768.5m-95.812 20.659c-.143.737-.755.927-1.489.463-.484-.305-.494-.547-.065-1.489.552-1.213 1.825-.372 1.554 1.026m50.225 15.541c-.449 5.195-.249 14.883.322 15.571.245.295 1.14.647 1.989.783 2.399.384 2.752 1.482 2.752 8.559v5.89l-1.1.451c-.797.327-5.617.368-17.5.149L198.6 297l.129-1.6c.16-1.971.799-2.711 3.099-3.589 2.061-.788 2.972-2.171 2.972-4.516 0-1.983 1.515-3.501 3.877-3.885 2.146-.349 2.499-.813 2.928-3.846.421-2.976 2.853-5.964 4.855-5.964 1.17 0 1.783-.615 1.618-1.623-.056-.343.597-1.185 1.451-1.872 1.792-1.44 2.868-3.447 2.877-5.365.009-1.918.476-2.471 1.844-2.183.633.133 1.42.065 1.75-.152.33-.216 1.112-.396 1.737-.399l1.138-.006-.338 3.9M150 269.101c1.772.885 1.899 1.748.784 5.35-.826 2.67-.859 3.282-.594 11.088.154 4.543.243 9.341.197 10.661-.197 5.717-.168 11.056.111 20.872l.299 10.472-1.053.828c-.712.561-1.637.828-2.866.828-2.491 0-3.278.788-3.278 3.282 0 4.417-.871 4.929-9.038 5.323-7.578.366-8.137.075-8.525-4.438l-.237-2.767-1.342-.129c-.999-.095-1.491.084-1.923.7-.728 1.04-1.335 1.066-1.335.058 0-1.685-2.717-3.228-5.498-3.124-3.506.132-3.571-.08-3.37-10.905.215-11.527.047-10.996 3.361-10.621 3.333.377 3.907-.183 3.907-3.808 0-4.007-.033-3.971 3.643-3.971 4.391 0 4.889-.509 4.517-4.615l-.27-2.985 1.155-.05c.635-.027 2.055-.016 3.155.026 3.673.137 3.587.397 3.687-11.146.054-6.171.252-10.343.514-10.833.607-1.134 11.769-1.211 13.999-.096m123.001 26.143c0 3.498.467 3.956 4.026 3.956 3.238 0 3.212-.055 3.313 7.107.047 3.359.26 6.566.473 7.126.213.561.387 2.375.387 4.031 0 4.086.865 5.411 3.444 5.277 2.061-.106 2.309.096 2.851 2.329.522 2.155.136 2.53-2.601 2.53-3.545 0-4.894 1.419-4.894 5.147 0 3.087-.145 3.253-2.852 3.253-2.222 0-2.476.102-4.184 1.676l-1.818 1.676-1.792-.48c-2.458-.657-3.41-.136-3.28 1.796.159 2.365-.932 2.921-5.819 2.968-1.038.01-1.075-.065-1.342-2.694-.375-3.697-.84-4.142-4.336-4.142-4.255 0-4.177.189-4.176-10.189.003-12.211.403-19.758 1.084-20.439.39-.39 1.389-.53 3.323-.465 3.796.128 4.763-.713 3.857-3.352-.843-2.454-.276-2.991 3.011-2.849 3.816.165 4.266-.306 4.408-4.605l.116-3.501 2.6-.204c3.634-.286 4.2.259 4.201 4.048m-75.639 12.493c.767.504.994.867.714 1.147-.226.226-.318.982-.204 1.681.277 1.709-.915 2.235-5.062 2.235-4.477 0-4.41-.112-4.41 7.379 0 9.388-.039 9.314 4.745 9.089 3.554-.167 5.086-1.287 4.734-3.459-.317-1.953.381-2.651 2.736-2.737L202.6 323l.229 2.4c.127 1.32.436 2.892.688 3.494.252.601.528 2.388.614 3.97.19 3.53.913 4.336 3.885 4.336 3.346 0 3.506-.423 4.243-11.271.302-4.444-.468-5.525-3.941-5.535-2.977-.009-3.167-.211-3.055-3.252.08-2.154-.069-2.856-.881-4.166-.538-.867-1.007-2.026-1.043-2.576a20.258 20.258 0 0 0-.202-1.777c-.294-1.664 1-1.811 15.989-1.817 16.53-.007 15.795-.167 15.434 3.356-.337 3.29.302 3.838 4.48 3.838 3.516 0 3.686.18 3.799 4.011.387 13.152.112 42.275-.408 43.189-.312.55-.53 1.755-.482 2.677.07 1.384-.074 1.762-.826 2.164-1.22.653-25.905 1.011-27.06.393-1.085-.581-1.282-2.111-1.612-12.472-.363-11.456.881-10.364-11.795-10.357-13.436.008-11.956-1.476-12.24 12.281-.239 11.621-.363 12.171-2.553 11.338-.739-.281-2.417-.271-5.369.033-5.179.533-20.494.077-21.202-.631-.153-.154-.396-1.392-.539-2.752-.143-1.361-.543-3.194-.889-4.074-.762-1.939-.827-8.019-.262-24.469.476-13.851.529-14.006 4.737-13.765 3.552.203 4.827-1.115 4.296-4.439-.393-2.458.4-3.125 3.727-3.133 3.744-.009 4.648-1.058 4.145-4.81-.158-1.181-.061-1.772.335-2.032 1.158-.762 21.262-.239 22.52.585m-121.916 6.874c-.358.358-.648 1.301-.65 2.118a22.313 22.313 0 0 1-.248 2.943c-.24 1.451-.221 1.478 1.438 1.924 3.835 1.033 5.337-.27 5.147-4.464L81 314.2l-2.454-.118c-1.843-.088-2.614.043-3.1.529m107.368 16.163c-.516.965-.538 3.446-.038 4.38.294.551.874.696 2.7.674l2.324-.028.119-2.253c.148-2.817-.456-3.547-2.933-3.547-1.329 0-1.859.189-2.172.774m-47.485 13.78c1.426.814 2.549 1.015 7.654 1.37 7.498.521 7.039.008 6.901 7.725-.098 5.479-.171 5.979-.995 6.856-.522.556-.889 1.456-.889 2.182 0 1.257-1.306 2.113-3.226 2.113-.389 0-.772.194-.851.432-.081.241-1.636.518-3.534.628-2.403.14-3.854.446-4.989 1.052-1.943 1.038-6.176 1.059-8.506.042-1.097-.479-3.023-.684-7.244-.773-3.163-.067-5.906-.277-6.097-.468-.843-.843-.917-19.048-.081-20.066.684-.834.896-.892 1.697-.463.591.316 1.576.393 2.774.219 1.021-.149 3.207-.316 4.857-.371 1.878-.063 3.449-.348 4.2-.764 1.903-1.052 6.246-.903 8.329.286m-59.571 1.654c-1.34 2.045.084 5.392 2.295 5.392 2.18 0 3.38-3.795 1.765-5.58-1.088-1.202-3.214-1.103-4.06.188" fill="#483a35"/><path d="M0 200v200h400V0H0v200M213.4 1.24c.44.02 3.209.395 6.154.834 2.945.438 6.995.955 9 1.147 7.051.676 13.497 1.895 19.446 3.677 1.43.428 3.86 1.109 5.4 1.512 3.46.905 9.325 2.702 10.4 3.187.44.199 2.33.844 4.2 1.435 1.87.59 4.35 1.499 5.511 2.021 1.161.521 2.276.947 2.477.947.368 0 8.428 3.712 11.412 5.256 6.274 3.245 11.583 6.076 13.8 7.358 1.43.826 3.05 1.753 3.6 2.058.55.305 2.17 1.357 3.6 2.338 1.43.98 3.731 2.549 5.112 3.486 3.634 2.464 7.532 5.368 10.318 7.684a798.852 798.852 0 0 0 4.391 3.62c3.897 3.18 8.023 6.915 10.179 9.216a153.94 153.94 0 0 0 4.941 4.966c1.507 1.44 3.667 3.781 4.8 5.203 1.132 1.422 2.823 3.373 3.757 4.335C354.108 73.797 364 86.778 364 87.401c0 .108.9 1.457 2 2.999s2 2.904 2 3.028c0 .124.425.798.943 1.499.519.7 1.462 2.263 2.095 3.473.633 1.21 1.714 3.1 2.402 4.2 1.066 1.706 3.36 6.324 3.36 6.766 0 .079.72 1.221 1.6 2.539.88 1.318 1.6 2.544 1.6 2.726 0 .518 2.883 7.879 3.435 8.769.694 1.12 5.765 14.786 5.765 15.537 0 .339.18.727.4.863.22.136.4.718.4 1.294 0 .575.43 2.319.956 3.876.526 1.556 1.076 3.55 1.224 4.43.147.88.597 2.59 1 3.8.404 1.21 1.216 4.9 1.807 8.2.59 3.3 1.32 7.26 1.622 8.8.578 2.948.673 3.787 1.601 14.254.668 7.541.771 23.76.182 28.746-.221 1.87-.508 5.02-.638 7-.129 1.98-.31 3.723-.402 3.873-.351.577-.961 4.254-1.183 7.127-.394 5.122-3.334 17.832-6.198 26.8-.387 1.21-.996 3.28-1.355 4.6-.358 1.32-.897 2.94-1.197 3.6-.301.66-1.485 3.63-2.632 6.6-3.723 9.641-9.345 21.006-15.006 30.334-.98 1.614-1.781 3.004-1.781 3.089 0 .37-8.893 13.134-9.599 13.777-.121.11-1.193 1.46-2.383 3s-2.461 3.07-2.826 3.4c-.365.33-1.479 1.68-2.477 3-2.134 2.823-14.75 15.681-17.889 18.233-1.196.972-4.166 3.488-6.6 5.59-2.434 2.103-5.175 4.353-6.09 5-.915.648-3.017 2.212-4.67 3.477-1.654 1.265-3.099 2.3-3.213 2.3-.322 0-5.558 3.264-6.453 4.022-.44.373-1.88 1.264-3.2 1.979-1.32.716-2.67 1.531-3 1.811-.33.28-2.22 1.302-4.2 2.271a354.36 354.36 0 0 0-8.2 4.198c-4.135 2.191-7.384 3.602-15.6 6.778-1.43.552-2.87 1.137-3.2 1.298-.33.162-3.03 1.077-6 2.033-2.97.957-5.76 1.88-6.2 2.051-.44.172-1.424.436-2.187.587-.763.15-1.663.411-2 .579-.337.168-1.963.614-3.613.991s-3.781 1.035-4.735 1.462c-.955.428-2.575.955-3.6 1.173-6.444 1.367-6.465 1.348-6.465-5.813 0-6.699.286-6.403-6.277-6.471-6.924-.072-6.68-.369-6.612 8.051.049 6.088.148 5.69-1.578 6.38-.852.341-2.434.62-3.515.62s-2.473.203-3.092.451c-1.517.608-20.137.375-27.261-.341-4.646-.466-4.449-.125-4.472-7.71-.022-7.383-.094-7.55-3.214-7.503-6.567.101-8.419-.451-8.07-2.406.293-1.634 1.239-2.491 2.753-2.491 2.115 0 1.557-.665-.762-.908-1.155-.12-2.37-.281-2.7-.356-.683-.155-.827 1.78-.936 12.564l-.064 6.3-1.2-.034c-3.153-.088-14.093-2.486-20.6-4.514-1.65-.514-4.62-1.421-6.6-2.014-1.98-.594-4.68-1.504-6-2.024-1.32-.519-3.3-1.252-4.4-1.628a55.51 55.51 0 0 1-3.75-1.461 113.25 113.25 0 0 0-3.66-1.529c-3.772-1.487-14.069-6.509-16.79-8.19-.77-.475-1.729-.986-2.131-1.135-3.049-1.126-20.629-12.922-25.487-17.1a101.001 101.001 0 0 0-4.275-3.454c-1.131-.85-2.444-2.037-2.917-2.639-.473-.602-1.367-1.356-1.986-1.676-1.309-.677-12.784-12.033-15.987-15.82-1.2-1.42-2.582-3.032-3.07-3.582-3.407-3.838-4.907-5.602-5.951-7a1135.82 1135.82 0 0 1-1.495-2c-.491-.656-5.268-7.572-5.701-8.253-.22-.346-1.12-1.735-2-3.086-6.436-9.885-6.186-9.459-10.984-18.64-1.374-2.629-3.086-6.229-3.805-8-1.157-2.853-2.543-6.036-3.407-7.826-.161-.332-.599-1.663-.975-2.956s-.926-2.731-1.222-3.195c-.818-1.282-4.053-11.48-5.216-16.444a783.32 783.32 0 0 0-2.184-9.019C.266 219.373-.286 187.354 4.643 163.2c.337-1.65.769-3.81.961-4.8.581-3 1.625-7.263 2.4-9.8.403-1.32.844-3.069.98-3.887 1.754-10.548 14.488-38.349 24.536-53.566 4.977-7.537 6.776-10.009 9.28-12.754.33-.362 1.59-1.971 2.8-3.576 6.682-8.864 21.266-23.436 30.2-30.175 1.32-.996 2.76-2.159 3.2-2.584.918-.887 9.542-7.159 10.778-7.838.452-.249 2.352-1.445 4.222-2.659 3.487-2.264 10.183-6.039 14.8-8.343 1.43-.714 2.87-1.459 3.2-1.655 2.151-1.28 8.868-4.322 13.6-6.159 2.09-.811 4.16-1.635 4.6-1.83.44-.196 1.7-.639 2.8-.985 1.1-.346 2.36-.788 2.8-.982 1.447-.638 7.22-2.366 11.963-3.581 2.563-.656 4.853-1.312 5.089-1.458.235-.146 1.445-.41 2.688-.587s3.61-.616 5.26-.975c6.048-1.317 13.115-2.445 19-3.031 2.42-.241 5.84-.589 7.6-.773 2.436-.255 19.963-.229 26 .038m-45.85 152.283c-.681.474-.75 1.12-.75 7.023 0 7.802-.755 9.016-5.279 8.493-.637-.073-1.165.098-1.288.418-.38.992.227 1.743 1.41 1.743.877 0 1.157.187 1.157.773 0 .425.36.887.8 1.027.44.14.8.581.8.981 0 1.518 2.151 2.293 6.66 2.399 1.186.028 1.95 3.105 1.39 5.597-.459 2.043-1.008 2.491-2.676 2.186-1.176-.215-1.242-.153-1.636 1.57-.571 2.496-.169 3.025 2.282 3.006 3.016-.024 5.107 2.544 4.585 5.632-.357 2.113.333 2.607 2.783 1.99 1.501-.378 2.198-.361 3.54.084 2.305.765 51.062.793 51.981.03.325-.269.678-1.4.785-2.512.291-3.025 1.289-4.118 3.985-4.363 3.11-.283 3.573-.783 3.381-3.653-.18-2.693-.718-3.547-2.233-3.547-1.758 0-2.526-.841-2.5-2.736.044-3.173.246-3.393 2.846-3.099 3.196.362 5.937-2.249 4.98-4.743-.251-.655.702-1.037 1.841-.74.595.156.811.456.682.947-.103.396.051.811.342.923.293.112.514.753.495 1.431-.064 2.262.983 2.169 1.158-.103a52.23 52.23 0 0 1 .352-2.992c.348-2.342-.166-2.899-2.175-2.363-4.003 1.069-4.935-.498-5.022-8.445-.085-7.747.382-7.28-7.274-7.28-6.818 0-7.008.096-6.67 3.375.178 1.719.054 2.504-.593 3.744-.657 1.261-.791 2.147-.684 4.524.727 16.177.72 16.92-.159 17.715-1.146 1.038-5.053 1.118-6.557.135l-1.081-.706.025-6.536c.014-3.594-.085-7.146-.22-7.893-.135-.747-.085-2.193.111-3.215.516-2.686.122-3.143-2.711-3.143-3.592 0-3.669.068-3.371 2.978.407 3.979-.106 4.222-8.896 4.222-8.503 0-8.666-.081-8.479-4.245.136-3.041-.131-3.34-2.993-3.349-3.766-.012-3.583-.626-3.418 11.462.168 12.374.393 11.732-4.103 11.732-4.361 0-4.453-.227-4.08-9.971.165-4.306.282-8.819.26-10.029-.108-5.954-.383-10.383-.661-10.661-.56-.56-12.29-.396-13.122.184m92.162 8.292c-.473.346-.486.735-.078 2.355.371 1.473.378 2.119.027 2.68-.649 1.041-.617 7.143.039 7.173.275.013 1.22.099 2.1.192 3.205.34 3.748-1.165 2.422-6.712-.535-2.242-.461-3.646.241-4.55.879-1.132-3.37-2.15-4.751-1.138m2.869 2.412c.528.806.57 1.15.197 1.6-.911 1.097-1.578.663-1.578-1.027 0-1.849.428-2.027 1.381-.573m-91.428 21.402c-.607.375-1.262.071-.947-.439.121-.195.499-.248.84-.117.485.186.508.308.107.556M129.7 300.115c-1.105.5-1.16 1.318-.126 1.871.985.527 2.426.536 2.426.014 0-.684 1.441-.439 2.173.37 1.457 1.61-.42 2.973-3.97 2.885-.438-.011-1.158.207-1.6.483-.442.277-1.568.748-2.503 1.047-1.927.616-2.02.802-.9 1.815 1.08.978 1.095 3.23.023 3.51-.931.243-1.223.007-1.223-.989 0-.41-.27-.85-.6-.976-.373-.144-.6-.753-.6-1.614 0-1.589-.662-3.064-1.22-2.719-.209.13-.38 1.366-.38 2.749s-.322 3.487-.715 4.676c-.594 1.799-.66 2.769-.391 5.763.178 1.98.229 4.532.114 5.671-.294 2.918.294 3.43 3.606 3.143 1.936-.169 2.664-.079 3.126.383.332.332.796.603 1.031.603.266 0 .429 1.119.429 2.951 0 3.777.256 3.911 7.114 3.719 5.699-.16 5.837-.239 5.736-3.304-.117-3.601 1.776-5.268 5.327-4.692 1.538.249 2.536-.885 1.913-2.174-.186-.385-.222-2.86-.079-5.5.143-2.64.109-5.339-.075-5.997-.185-.659-.336-2.384-.336-3.834 0-3.072-.095-3.234-1.598-2.71-2.664.929-4.802-1.164-4.802-4.702 0-2.821-.601-3.095-5.643-2.574-1.989.206-4.008.228-4.487.049-.496-.185-1.257-.15-1.77.083m-8.5.861c0 .929.601 1.035 1.123.198.418-.669.375-.774-.32-.774-.441 0-.803.259-.803.576m141.118 6.197c-2.608.138-4.476.422-4.78.727-.274.275-.957.521-1.518.546-.828.038-.87.083-.22.242 2.009.489 3.249 3.331 1.901 4.354-2.522 1.915-5.352-1.434-3.601-4.26.515-.831-.019-1.561-1.153-1.576-.724-.01-.769.702-.906 14.531l-.131 13.136 2.545-.26c2.118-.216 2.809-.123 4.117.557 1.431.744 2.058.797 7 .592 7.18-.297 7.29-.357 6.975-3.749-.309-3.325.415-4.013 4.225-4.013 3.12 0 3.311-.341 2.817-5.039-.206-1.959-.381-4.641-.388-5.961-.017-3.116-.392-3.76-1.69-2.909-.668.437-1.163.512-1.637.246-.374-.209-.833-.286-1.019-.171-1.021.631-2.153-1.72-1.88-3.904.448-3.588.188-3.663-10.657-3.089M114.528 317.6c0 1.43.073 2.015.161 1.3.089-.715.089-1.885 0-2.6-.088-.715-.161-.13-.161 1.3m122.556 4.973c-1.234 1.234-1.551 33.542-.35 35.727.94 1.711 3.166.93 4.167-1.462.621-1.483.938-27.959.342-28.555-.243-.243-.443-1.565-.443-2.936 0-2.661.145-2.473-2.458-3.192-.362-.1-.928.088-1.258.418m-76.845 7.927c-.109.715-.289 5.62-.401 10.9-.266 12.54-.206 12.739 3.615 11.974 1.96-.393 3.143-6.765 1.743-9.382-.223-.416-.417-3.431-.432-6.701-.029-6.543-.018-6.5-1.844-7.435-1.898-.972-2.456-.838-2.681.644m-31.136 15.86c-.915.291-1.086 1.013-.859 3.64.123 1.43.253 5.42.29 8.867.075 7.118-.102 6.58 2.266 6.907 3.022.417 2.973.56 3.215-9.259.267-10.819-.145-11.671-4.912-10.155M230 377.6c0 .22.551.4 1.224.4.713 0 1.12-.167.976-.4-.136-.22-.687-.4-1.224-.4-.537 0-.976.18-.976.4" fill="#f8f3f0"/><path d="M191 .991c-.22.07-3.28.341-6.8.602-3.52.261-7.301.722-8.402 1.024-1.1.301-2.36.541-2.8.533-3.895-.071-6.427 2.219-2.921 2.644 6.192.75 60.597.103 61.431-.731.67-.67-1.114-1.349-4.479-1.704-.896-.095-2.799-.453-4.229-.796-1.519-.365-5.387-.716-9.3-.845-3.685-.121-6.7-.377-6.7-.569 0-.315-14.843-.463-15.8-.158m52.8 5.76c-.66.141-1.182.48-1.16.753.022.273.067 1.314.1 2.314.088 2.677 1.162 3.582 4.634 3.907 3.391.316 4.226.965 4.226 3.283 0 2.486 1.166 3.792 3.385 3.792 2.578 0 3.454.91 3.876 4.029.405 2.999.955 3.571 3.434 3.571 2.433 0 3.545 1.179 3.916 4.152.428 3.424 1.349 4.36 3.97 4.033 2.489-.311 3.419.338 3.419 2.384 0 3.086.923 4.172 4.272 5.022 2.77.704 3.328 2.056 3.328 8.067 0 6.063.15 6.345 3.981 7.509 4.042 1.227 4.435 3.402 4.133 22.833-.104 6.71-.19 12.626-.191 13.146-.004 1.894.776 2.151 7.427 2.452 4.778.216 6.439.434 7.227.95l1.023.67v6.176c0 7.364-.218 7.806-3.843 7.806-3.329 0-4.55 1.092-4.562 4.08-.013 2.967-.987 3.941-4.75 4.748-2.624.562-2.685.722-2.663 7.011.021 6.047.045 6.099 3.361 7.308 3.745 1.365 3.857 1.601 3.857 8.084 0 7.299.171 7.109-6.853 7.644-6.938.528-8.127 1.226-8.141 4.776-.008 1.94.607 2.346 3.977 2.629 3.142.263 3.911.893 3.431 2.806-.14.557-.048 2.371.204 4.031.95 6.27-.018 8.591-3.778 9.061-2.781.347-3.652 1.18-4.003 3.825-.668 5.037-7.837 4.705-7.837-.363 0-4.314-5.247-4.338-6.634-.03-1.124 3.491-1.712 3.769-8.166 3.862-2.75.04-5.218.085-5.484.1-.498.029-.936 1.381-1.701 5.257-.571 2.89-1.339 3.971-2.819 3.971-1.642 0-3.09.754-3.357 1.749-.682 2.543.474 3.794 3.507 3.794 4.569 0 9.454 1.469 9.454 2.843.001.812 2.277 5.604 2.683 5.649.174.02 1.192.102 2.261.184 2.381.182 3.026.913 3.043 3.452.018 2.578 1.529 3.929 4.395 3.929 2.408 0 4.018 4.512 4.018 11.261 0 2.682.731 3.536 3.031 3.545 2.775.011 3.769 1.422 3.769 5.35 0 6.744 1.026 9.177 4.196 9.955 3.371.826 4.001 5.06 3.559 23.889-.342 14.532-.711 16-4.026 16-3.058 0-3.62 1.23-3.809 8.333-.142 5.376.273 6.067 3.648 6.067 3.251 0 3.932 1.459 4.014 8.6.037 3.307.64 4.837 2.124 5.392 5.442 2.035 5.085 1.129 5.172 13.156.08 10.98.139 10.69-2.451 12.071-2.205 1.175-3.661 2.669-4.08 4.188-.543 1.966-1.396 2.256-7.511 2.554-7.041.344-8.29.951-8.055 3.911.081 1.024-1.029 3.319-1.942 4.014-.463.353-3.24.476-10.096.45-5.201-.02-9.645.08-9.876.223-.715.442-.967 3.578-1.018 12.668-.059 10.512-.092 10.593-4.264 10.477-3.559-.099-4.03.499-3.945 5.009.036 1.918-.069 4.524-.234 5.792-.703 5.414 3.695 8.005 7.933 4.672.538-.424 1.879-.835 3.104-.951 2.804-.267 6.303-1.198 9.332-2.484a72.919 72.919 0 0 1 4.825-1.812c1.32-.43 3.14-1.13 4.044-1.556.904-.426 1.962-.774 2.351-.774s1.63-.524 2.756-1.164c1.127-.64 2.859-1.374 3.849-1.63.99-.256 2.439-.881 3.22-1.389 1.892-1.229 5.444-3.017 5.995-3.017.242 0 1.193-.507 2.113-1.126.92-.62 2.496-1.433 3.503-1.807 1.006-.374 2.934-1.397 4.282-2.274 1.349-.876 2.636-1.593 2.861-1.593.224 0 .702-.45 1.063-1 .36-.55.908-1 1.217-1 .686 0 3.361-1.654 4.084-2.525.289-.349 1.177-.849 1.972-1.111 1.362-.45 5.085-2.867 5.363-3.482.07-.155.892-.801 1.827-1.436.935-.635 1.7-1.372 1.7-1.638 0-.721 1.352-1.808 2.247-1.808.702 0 7.863-5.842 8.212-6.699.077-.191 1.041-.946 2.141-1.678 2.575-1.712 15.667-14.951 18.494-18.7 1.193-1.583 2.759-3.504 3.481-4.269.722-.766 1.425-1.954 1.562-2.641.178-.889.57-1.364 1.357-1.643.608-.215 1.689-1.242 2.401-2.281.712-1.039 2.19-3.149 3.283-4.689 1.094-1.54 2.094-3.267 2.224-3.838.129-.571.751-1.42 1.381-1.886.631-.467 1.269-1.403 1.418-2.08.149-.677.704-1.665 1.235-2.195.53-.531.964-1.326.964-1.767 0-.441.434-1.214.965-1.718.856-.812 5.835-9.407 5.835-10.072 0-.144.99-2.282 2.2-4.751 1.21-2.47 2.2-4.806 2.2-5.192 0-.386.155-.701.344-.701.45 0 2.056-4.205 2.056-5.382 0-.5.382-1.395.848-1.988.466-.593 1.013-1.812 1.214-2.709.202-.897.831-2.612 1.398-3.81 1.19-2.517 1.886-4.799 3.083-10.111.472-2.09.994-4.01 1.161-4.268.433-.667 2.153-6.832 2.437-8.732.131-.88.525-2.59.875-3.8.351-1.21.703-3.64.783-5.4.079-1.76.263-3.65.407-4.2.862-3.286 1.085-4.633 1.423-8.6.206-2.42.525-5.57.708-7 .446-3.472.202-25.328-.35-31.382-.827-9.069-1.335-12.302-2.612-16.632-.294-.998-.655-3.068-.801-4.6-.307-3.217-1.5-8.071-2.553-10.386-.4-.88-1.032-3.22-1.404-5.2-.899-4.787-1.996-8.46-3.434-11.5-.65-1.375-1.183-2.905-1.183-3.4 0-.495-.373-1.273-.829-1.729-.455-.455-.973-1.67-1.149-2.7-.349-2.03-1.231-3.968-2.689-5.906-.511-.68-1.111-2.21-1.332-3.4-.484-2.598-1.161-4.365-1.672-4.365-.206 0-.746-.855-1.2-1.9-.454-1.045-1.235-2.449-1.736-3.12-.501-.67-1.089-1.863-1.306-2.65-.217-.787-1.136-2.546-2.041-3.908-.905-1.363-1.646-2.614-1.646-2.781 0-.166-.43-.706-.956-1.199-.525-.494-1.066-1.453-1.202-2.132-.136-.678-.862-1.985-1.615-2.903-.753-.919-1.754-2.41-2.225-3.313-.471-.904-1.538-2.419-2.372-3.368-.834-.949-1.632-2.086-1.774-2.526-.141-.44-.849-1.43-1.573-2.2-.723-.77-1.724-2.068-2.222-2.885-.499-.816-1.607-2.039-2.462-2.716-.856-.678-1.675-1.629-1.822-2.115-.147-.486-.658-1.244-1.136-1.684-.478-.44-1.574-1.7-2.435-2.8-1.496-1.911-6.034-6.531-7.394-7.528-.355-.259-1.052-1.054-1.55-1.765-1.29-1.84-5.502-5.803-6.889-6.48-.645-.314-1.173-.73-1.173-.922 0-.49-2.382-2.647-3.682-3.334-.595-.315-1.981-1.472-3.081-2.572-1.099-1.099-2.214-1.999-2.476-1.999-.263 0-1.321-.765-2.351-1.7-1.787-1.622-6.585-5.13-11.117-8.129-1.159-.766-2.638-1.5-3.288-1.63-.65-.13-1.278-.542-1.397-.915-.196-.617-6.412-4.427-7.782-4.769-.315-.079-2.745-1.368-5.4-2.863-2.654-1.495-5.636-2.946-6.626-3.224-.99-.278-1.971-.655-2.18-.837-.209-.183-.695-.333-1.08-.333-.385 0-.844-.247-1.02-.548-.552-.946-3.619-2.252-5.288-2.252-1.154 0-1.855-.262-2.516-.943-.504-.518-1.816-1.181-2.916-1.472-1.1-.292-3.833-1.217-6.074-2.058-2.241-.84-4.657-1.527-5.369-1.527-.712 0-1.578-.243-1.926-.539-.347-.297-1.531-.77-2.631-1.052-1.1-.282-3.065-.85-4.366-1.261-2.45-.774-3.201-.831-5.234-.397m-91.2.664c-.88.319-3.04.748-4.8.954-1.76.205-3.74.655-4.4 1-.66.344-1.611.627-2.113.629-.502.001-3.022.791-5.6 1.756s-5.3 1.956-6.05 2.202c-.75.245-1.615.806-1.923 1.245-.4.571-1.014.799-2.15.799-1.96 0-3.886.778-5.868 2.371-.963.773-2.308 1.364-3.704 1.627-1.206.226-2.642.74-3.192 1.142-.55.401-2.125 1.234-3.5 1.85-1.375.615-2.5 1.25-2.5 1.411 0 .16-1.34.875-2.978 1.59-1.638.714-3.28 1.632-3.649 2.039-.369.408-1.454 1.04-2.411 1.406-.957.365-1.847 1.002-1.978 1.414-.22.693-.683.933-1.518.786-.502-.088-2.995 1.532-3.566 2.316-.275.378-1.317 1.066-2.315 1.53-.998.463-2.528 1.554-3.4 2.423-.872.87-2.035 1.718-2.585 1.884-1.117.338-2.8 1.743-2.8 2.337 0 .55-1.277 1.446-2.083 1.461-.376.007-1.636.964-2.8 2.126-1.164 1.163-2.626 2.371-3.248 2.685-.622.313-1.3.886-1.506 1.271-.206.385-1.137 1.229-2.069 1.875C65.014 53.54 52.8 65.811 52.8 66.709c0 .446-1.062 1.982-2.36 3.414-1.298 1.432-2.513 2.85-2.7 3.15-.187.3-.829.857-1.426 1.237-1.067.678-1.736 1.48-6.477 7.76-1.3 1.721-2.847 3.76-3.438 4.53-.592.77-1.4 2.03-1.797 2.8-.396.77-1.13 1.94-1.63 2.6-.5.66-1.031 1.686-1.179 2.279-.148.593-.657 1.337-1.131 1.653-.474.316-1.222 1.271-1.662 2.121-.439.851-1.2 2.15-1.689 2.887-.489.737-1.005 1.997-1.145 2.8-.281 1.603-1.184 3.277-2.044 3.788-.569.339-4.522 8.092-4.522 8.871 0 .24-.81 2.049-1.799 4.019-1.176 2.342-1.799 4.103-1.8 5.086-.001 1.015-.265 1.73-.812 2.198-.446.382-1 1.415-1.231 2.296-.231.881-.834 2.502-1.34 3.602-1.209 2.628-2.517 6.395-2.993 8.617-.913 4.262-1.633 7.155-2.385 9.583-.442 1.43-.913 3.41-1.045 4.4-.132.99-.499 2.97-.815 4.4-.315 1.43-.924 4.22-1.353 6.2-3.185 14.713-3.392 48.654-.383 62.992a456.855 456.855 0 0 1 1.766 9.075c.532 2.898 1.512 6.841 2.178 8.764.667 1.924 1.212 4.131 1.212 4.905 0 1.435.65 3.71 2.991 10.464 1.928 5.566 3.123 8.568 3.519 8.842.192.133.523 1.018.736 1.966.214.949.898 2.306 1.521 3.015.802.914 1.261 2.031 1.575 3.834.426 2.444 3.443 9.135 5.457 12.103.479.706 1.326 2.278 1.883 3.494.989 2.161 3.293 5.883 4.464 7.212.323.367.944 1.474 1.38 2.461.442.997 1.155 1.908 1.608 2.052.499.159 1.083.986 1.51 2.14.689 1.863 2.988 5.398 3.889 5.98.257.165.783.985 1.17 1.822.387.836 1.245 1.826 1.907 2.2.784.443 1.338 1.173 1.59 2.097.231.848 1.114 2.091 2.193 3.09.994.92 1.807 1.822 1.807 2.005 0 .183.814.907 1.809 1.608 1.525 1.075 2.825 2.866 2.683 3.697-.076.443 8.948 9.425 10.008 9.961.605.306 1.1.753 1.1.993 0 .732 1.903 2.541 4.255 4.046 1.228.785 2.319 1.76 2.425 2.165.121.465.804.893 1.841 1.156 2.075.527 2.744.083 2.286-1.515-.179-.625-.456-2.91-.615-5.08-.394-5.386-1.067-6.508-3.918-6.531-3.722-.031-5.065-2.625-5.032-9.711.013-2.728.144-5.134.291-5.345.91-1.309 2.693-2.157 4.535-2.157 3.152 0 4.747-1.318 4.954-4.093.159-2.128 1.044-2.976 3.723-3.568 2.674-.59 3.108-1.068 3.361-3.699.314-3.272.924-3.539 7.722-3.376 6.522.157 6.972.346 6.972 2.931 0 3.174 2.709 5.091 5.958 4.216 1.722-.463 1.639-.292 2.206-4.576.278-2.099.54-2.287 3.656-2.609 3.114-.323 3.777-.919 3.785-3.402.011-3.207.979-4.224 4.022-4.224 2.36 0 3.573-1.466 3.573-4.318 0-2.054.852-2.744 3.658-2.964 4.757-.373 4.638.316 4.233-24.502-.105-6.437-.067-6.378-4.346-6.826-3.913-.41-3.725.14-3.88-11.387-.158-11.755-.37-11.129 4.132-12.189 3.454-.814 3.817-1.144 4.247-3.867.407-2.571.762-2.973 3.143-3.544 2.703-.648 3.079-1.228 3.373-5.203.598-8.08 1.005-8.9 4.657-9.402 2.605-.359 4.486-1.95 4.371-3.697-.128-1.943-.007-2.364.993-3.443.742-.801 1.366-1.058 2.564-1.058 1.899 0 3.655-1.734 3.655-3.608 0-1.855 1.466-3.166 3.978-3.558 3.705-.577 4.377-2.923 3.168-11.052-.642-4.32-.796-4.42-7.178-4.679-6.065-.246-6.378-.409-7.175-3.731-.612-2.553-1.018-2.863-4.78-3.653-3.582-.752-4.413-1.614-4.413-4.575 0-4.856-5.211-4.471-5.765.427-.59 5.22-8.629 6.042-8.638.883-.006-3.161-1.185-10.999-1.705-11.33-.271-.171-1.409-.315-2.53-.318-3.087-.009-3.231-.317-3.467-7.406-.11-3.3-.395-6.49-.633-7.089-.43-1.079-.742-1.22-3.784-1.71-2.645-.426-3.683-2.806-3.578-8.201.01-.55.094-8.972.187-18.716.193-20.404-.116-18.955 4.213-19.76 3.543-.659 3.404.106 3.459-19.042.054-18.972.032-18.882 4.639-18.882 1.996 0 2.594-1.231 2.666-5.487.153-9.086.706-9.933 6.926-10.606 1.194-.129 1.996-1.547 2.004-3.545.007-1.71.762-2.5 3.214-3.365 2.567-.905 3.592-2.015 3.592-3.887 0-1.982.963-3.847 2.107-4.081 5.845-1.198 6.293-1.474 6.293-3.884 0-2.714.892-3.536 4.483-4.13 1.939-.32 3.016-1.698 3.046-3.897.027-1.942.611-2.538 3.102-3.167 3.179-.802 4.003-1.874 3.426-4.453-.631-2.819-1.525-3.218-4.657-2.083m32.073 163.645c-.46.46-.303 2.747.227 3.319.4.431.4.482 0 .256-.353-.199-.5.081-.5.955 0 1.11.082 1.194.792.814.691-.37.766-.717.581-2.713-.211-2.277-.577-3.153-1.1-2.631m38.305 6.175c-.147.239-.06.643.194.897.501.501 1.363-.39.978-1.013-.28-.452-.856-.395-1.172.116M182.2 222.51c-.66.215-1.576.733-2.037 1.151-.551.5-1.3.722-2.196.649l-1.361-.11-.373 3.2c-.206 1.76-.361 4.37-.346 5.8.107 10.203.086 9.958.889 10.387.421.226 1.051.301 1.4.167.9-.346 1.823.56 1.83 1.795.003.578.168 1.306.365 1.618.214.337.204.971-.023 1.569-.594 1.563.269 2.092 3.564 2.184 3.351.094 3.712-.16 3.964-2.785.387-4.043 1.364-5.103 4.593-4.989 2.257.08 2.967-.765 2.542-3.029-.335-1.787 1.092-4.095 3.129-5.062 3.884-1.843-.226-5.221-6.025-4.952-2.706.126-3.338-.505-3.786-3.777-.491-3.59-2.67-4.947-6.129-3.816m-5.442 26.823c-.429.942-.419 1.184.065 1.489 1.286.813 2.01-.477 1.024-1.826-.561-.766-.591-.757-1.089.337M226 262.405c-.33.217-1.117.285-1.75.152-1.368-.288-1.835.265-1.844 2.183-.009 1.918-1.085 3.925-2.877 5.365-.854.687-1.507 1.529-1.451 1.872.165 1.008-.448 1.623-1.618 1.623-2.002 0-4.434 2.988-4.855 5.964-.429 3.033-.782 3.497-2.928 3.846-2.362.384-3.877 1.902-3.877 3.885 0 2.345-.911 3.728-2.972 4.516-2.3.878-2.939 1.618-3.099 3.589l-.129 1.6 16.4.303c11.883.219 16.703.178 17.5-.149l1.1-.451v-5.89c0-7.077-.353-8.175-2.752-8.559-.849-.136-1.744-.488-1.989-.783-.571-.688-.771-10.376-.322-15.571l.338-3.9-1.138.006c-.625.003-1.407.183-1.737.399M76.954 352.977c-.43 1.119.062 1.925 1.446 2.371.944.305 1.44.731 1.522 1.31.205 1.434 1.538 2.412 1.869 1.371.724-2.281-4.005-7.221-4.837-5.052m122.446.301c-1.101.624-1.316 1.022-1.797 3.322-.327 1.563-.535 22.394-.332 33.2.012.66-.111 2.207-.274 3.438-.685 5.177 5.656 7.191 7.008 2.226.319-1.172.144-35.35-.196-38.229-.436-3.691-2.156-5.235-4.409-3.957m-114.3 6.753c-.966.564-.875 1.259.26 1.969.527.33 1.959 1.365 3.182 2.3 1.223.935 2.331 1.7 2.462 1.7.131 0 .901.45 1.71 1 2.574 1.749 4.087 1.415 4.08-.9-.008-2.329-.848-5.281-1.621-5.69-.971-.514-9.304-.827-10.073-.379m34.91 15.879c-7.451.117-8.236.311-6.75 1.669l1.551 1.416c.876.799 5.423 3.005 6.195 3.005.359 0 1.404.43 2.323.955.919.526 2.333 1.071 3.142 1.213.809.142 1.529.405 1.6.586.349.889 13.964 5.337 18.47 6.034 1.288.2 2.638.621 3 .937 1.724 1.501 6.496 1.765 8.356.462.977-.684 1.059-7.243.127-10.187-.244-.77-.332-2.081-.196-2.914.319-1.957-.22-2.575-2.561-2.931-1.926-.293-22.915-.439-35.257-.245" fill="#57a8e6"/><path d="M196.8 14c-26.869.354-34.628.602-36.074 1.152-1.6.608-2.358 1.582-2.083 2.677.59 2.352-1.414 4.171-4.597 4.171-2.071 0-3.191 1.316-3.326 3.91-.138 2.633-.753 3.142-4.299 3.562-2.661.315-3.419 1.179-3.306 3.772.112 2.566-.96 3.764-3.74 4.181-2.111.316-3.775 1.614-3.775 2.944 0 .444-.45 2.185-1 3.87s-1 3.738-1 4.563c0 1.822-.692 2.48-2.277 2.163-2.47-.494-3.313.971-4.322 7.506-.348 2.26-1.3 3.156-3.609 3.397-2.202.229-2.576.566-2.588 2.332-.005.66-.181 1.83-.393 2.6-.38 1.387-.652 11.645-.494 18.624.108 4.738.33 5.024 4.013 5.188 2.045.092 3.269.369 4.222.958.796.492 2.021.83 3.008.83 1.878 0 2.666.953 1.496 1.808-1.036.758-.239 2.302 1.604 3.106 1.547.675 17.165 1.666 18.938 1.202 2.289-.598 4.66 1.4 4.191 3.534-.578 2.633 1.428 4.75 4.502 4.75 2.245 0 3.309.901 3.309 2.804 0 3.231 1.391 4.396 5.246 4.396 1.059 0 2.776.289 3.816.642 1.275.432 2.505.559 3.784.39 2.264-.301 2.406-.14 2.721 3.098.403 4.135-.709 3.915 20.064 3.968 11.255.029 19.382-.127 22.169-.427 2.42-.26 5.879-.625 7.686-.811 3.923-.404 4.514-.8 4.514-3.02 0-2.416.862-3.436 2.923-3.457.922-.01 2.487-.194 3.477-.409.99-.215 2.898-.546 4.24-.736 3.307-.468 4.16-.977 4.16-2.478 0-2.813 1.941-4.878 4.258-4.53 2.556.383 3.817-.999 3.693-4.049-.14-3.464.024-3.541 7.963-3.793 8.615-.272 9.129-.485 8.982-3.712-.112-2.452.849-3.445 2.831-2.927 3.4.889 4.063-3.782 2.604-18.349-.501-4.994-1.061-6.333-2.498-5.973-1.217.306-2.231-1.06-2.238-3.016-.003-.776-.363-2.552-.8-3.947-.437-1.394-.795-3.388-.795-4.431 0-1.098-.42-2.929-1-4.356-.55-1.354-1-2.893-1-3.42 0-1.413-.943-1.997-2.822-1.745-2.092.281-3.442-1.521-3.978-5.31-.453-3.208-1.167-4.002-3.6-4.002-2.52 0-3.069-.693-3.277-4.139-.206-3.406-1.023-4.238-4.174-4.252-2.605-.011-3.109-.597-3.234-3.763-.13-3.295-1.135-4.246-4.488-4.246-2.733 0-3.459-.592-3.28-2.676.155-1.798-.837-2.924-2.574-2.924-.716 0-2.623-.252-4.238-.559-4.424-.843-13.339-.987-39.535-.641m-39.871 55.708c.548.641.664 1.202.467 2.254-.145.771-.336 2.994-.426 4.94-.248 5.355.148 5.098-8.829 5.755-4.382.321-4.459.202-4.59-7.127-.133-7.408-.386-7.181 7.649-6.87 4.476.174 5.076.284 5.729 1.048m107.714-.208c.709.709.483 9.931-.281 11.5-.501 1.028-11.821 1.171-12.367.156-.659-1.223-.895-10.998-.281-11.613.889-.889 12.046-.926 12.929-.043M159.354 177.775c-.294.767.073 1.825.633 1.825.532 0 .54-1.874.01-2.202-.221-.137-.511.033-.643.377m87.3.827c-1.345.702-2.33.762-2.913.179-.843-.843-3.323.733-3.335 2.119-.007.787 2.933 1.046 3.394.3.136-.22 1.297-.4 2.581-.4 2.478 0 2.961-.372 2.545-1.961-.26-.993-.728-1.042-2.272-.237M158.2 205.809c-1.1.283-2.665.531-3.478.553-2.224.057-3.551 1.399-3.811 3.851-.285 2.691-1.217 3.633-3.934 3.973-2.546.318-3.777 1.517-3.777 3.681 0 .747-.375 2.471-.833 3.83-.603 1.79-.76 2.952-.571 4.213.351 2.346-.17 2.89-2.77 2.89-2.909 0-4.226 1.347-4.226 4.322 0 2.43-.93 3.678-2.74 3.678-3.961 0-4.623 1.38-4.322 9.011.241 6.137.596 7.189 2.818 8.365 1.091.577 1.689 1.234 2 2.195.969 2.993 3.987 3.609 14.177 2.891 4.361-.307 4.867-.698 4.867-3.758 0-1.98.706-3.807 2.013-5.21.401-.43.639-1.014.53-1.297-.108-.284-.005-.635.23-.78.265-.164.427.173.427.89 0 .713.382 1.512 1.001 2.094 1.887 1.772 2.443 9.445 1.159 15.999-.849 4.335-.81 5.676.223 7.658.46.882.982 2.668 1.16 3.968.418 3.057 1.234 3.974 3.537 3.974 2.226 0 3.719-1.317 3.722-3.282.001-.725.447-2.578.991-4.118 1.169-3.306 1.207-3.988.384-6.82-.794-2.732-.907-13.483-.425-40.58.35-19.665.347-19.807-.473-20.829-1.463-1.824-4.224-2.301-7.879-1.362m41.4 4.164c0 .235-.36.427-.8.427-.44 0-.8.264-.8.587 0 .36.234.498.605.356.433-.166.534-.049.356.415-.395 1.028 2.147 1.876 5.135 1.713 2.486-.137 4.304.304 4.304 1.042 0 .212.27.161.6-.113.716-.595.808-3.424.125-3.846-.261-.162-2.133-.335-4.159-.384-2.027-.05-4.063-.21-4.525-.357-.496-.157-.841-.092-.841.16m1.128 8.48c-.332.21.103.337 1.172.341.935.003 1.7-.129 1.699-.294-.001-.418-2.228-.455-2.871-.047M258 222.008c-.991.637-2.594 1.248-3.566 1.36-.971.112-1.888.345-2.039.518-.617.709-1.592 9.15-1.791 15.514-.118 3.74-.347 7.866-.509 9.169-.321 2.576-.021 2.319-3.947 3.386-2.58.7-3.723 7.018-3.155 17.445.535 9.814 1.359 12.2 4.216 12.2 2.631 0 3.074-2.328 3.454-18.121.302-12.609.08-11.902 3.72-11.82 3.96.089 3.704-1.051 4.1 18.293.404 19.699.418 19.79 3.152 19.967 2.246.146 2.767-.374 3.215-3.208.453-2.865.984-3.269 4.349-3.31 3.498-.042 4.18-.59 4.251-3.415.069-2.744.055-2.691.95-3.586.584-.584 1.333-.8 2.778-.8 1.477 0 2.239-.228 3.013-.9l1.036-.9-.009-11.421c-.012-16.314-.224-17.141-4.554-17.79-2.501-.375-2.526-.434-2.851-6.789-.404-7.881-1.212-9.356-4.855-8.856-2.412.33-2.976-.331-2.906-3.407.104-4.628-3.73-6.308-8.052-3.529M144.1 270.93c-.841.25-1.3.639-1.3 1.104 0 .395-.208.847-.462 1.004-.286.177-.353.11-.176-.176.157-.254.084-.462-.162-.462s-.348-.161-.226-.358c.27-.436-.697-.842-2.007-.842-.979 0-1.295.55-.573.996.217.134.395.64.397 1.124.008 2.269.184 3.48.505 3.48.193 0 .255.156.137.346-.117.191-.24 2.621-.273 5.4-.033 2.78-.183 5.054-.334 5.054-.151 0-.508.912-.794 2.026-.948 3.697-1.432 4.325-3.158 4.093-1.095-.147-1.657-.022-2.054.456-.689.831.037 1.794.863 1.146.791-.62 2.288-.892 2.552-.464.13.211.557.014.948-.437.391-.451.903-.82 1.137-.82.234 0 .545-.374.69-.83.144-.457.365-.728.491-.603.125.125.481-.134.79-.576.31-.443.715-.711.9-.596.185.114.594.109.909-.012.752-.289.854-2.838.124-3.118-.404-.156-.565-1.192-.609-3.938-.033-2.05-.125-4.968-.203-6.485-.157-3.046.217-4.87.583-2.842.153.851.448 1.204 1.011 1.215.437.008 1.003.144 1.258.301.94.581 3.175-1.006 2.639-1.873-.125-.202-.064-.268.135-.147.369.224 1.445-.68 1.155-.97-.087-.087.214-.186.669-.221 1.223-.092 1.351-.406.535-1.308-.446-.493-1.012-.719-1.45-.58-.396.125-1.311.071-2.033-.122-.787-.21-1.836-.196-2.614.035m2.6 7.865c-.764.734-1.057 7.337-.345 7.777 1.113.688 2.122-4.552 1.387-7.211-.322-1.167-.382-1.199-1.042-.566m.036 11.067c-1.593 1.791-1.613 5.394-.036 6.439 1.809 1.199 2.581-2.756 1.178-6.039-.467-1.093-.512-1.108-1.142-.4m120.867 6.938c-.295.556-.196 2.353.112 2.045.194-.194.272-.778.173-1.299-.098-.52-.227-.856-.285-.746m-120.622 1.638c-.981 1.316-1.861 3.451-1.723 4.178.184.969 2.233 1.334 2.569.457.401-1.045-.371-5.273-.846-4.635m120.219 2.851c0 1.3 1.307 2.546 1.91 1.82.457-.551.087-1.241-1.21-2.258-.626-.491-.7-.444-.7.438m-183 12.976c-1.581.43-2.2 1.374-2.2 3.356 0 2.676-1.671 4.148-5.158 4.542-2.652.3-4.931 1.784-5.469 3.562-.146.481-.806 1.38-1.468 1.998-1.308 1.22-1.464 4.404-.249 5.077 2.953 1.633 6.088 5.572 6.474 8.136.276 1.834.886 2.664 1.958 2.664 1.267 0 2.962 2.189 3.761 4.854.878 2.931 1.306 3.179 6.832 3.946 6.567.911 8.24.237 8.679-3.497.338-2.876 1.06-3.703 3.232-3.703 1.278 0 1.896-.242 2.638-1.034l.97-1.034-.041-9.992c-.046-11.524.108-11.054-3.774-11.512-3.116-.367-3.985-1.239-3.985-3.996 0-3.203-.328-3.386-6.256-3.492-2.829-.051-5.504.006-5.944.125m99.454 64.77c-.579.667.369 3.135 1.348 3.511.977.374 1.853-.849 1.724-2.409-.142-1.736-1.957-2.387-3.072-1.102m1.415 5.265c-.332.556-.172 2.5.205 2.5.205 0 .246.225.091.5-.193.342-.148.374.145.1.785-.734 1.066-3.4.358-3.4-.341 0-.701.135-.799.3m29.597.393c-.115.186-.209 1.354-.209 2.595 0 1.242-.12 3.062-.268 4.045-.501 3.342.549 4.341 2.696 2.565l1.086-.898-.831-2.2c-.457-1.21-.855-3.097-.885-4.193-.052-1.896-.94-2.964-1.589-1.914m-29.438 5.631c-.016.302-.239.402-.528.235-.275-.158-.376-.15-.226.018.151.168.124.701-.06 1.185-.391 1.03.158 2.238 1.018 2.238.91 0 1.044-.868.405-2.613-.319-.873-.593-1.351-.609-1.063" fill="#efdf39"/><path d="M206.8 1.197c0 .236 1.275.403 3.067.403 1.686 0 2.991-.065 2.9-.144-.446-.387-5.967-.626-5.967-.259M170 3.234l-4 .722c-1.21.218-3.55.69-5.2 1.05-1.65.359-4.017.798-5.26.975-1.243.177-2.475.455-2.737.617-.262.162-1.765.635-3.34 1.05l-2.863.756 2.2-.204c1.21-.112 2.992-.481 3.96-.82 2.885-1.012 3.901-.544 4.485 2.065.547 2.442.391 2.774-1.845 3.93l-1.2.62 1.225.003c1.935.003 2.975-1.259 2.975-3.614 0-3.788-.016-3.784 14.6-3.623 3.96.044 7.404-.065 7.653-.241.249-.176-1.551-.358-4-.403-8.635-.162-11.32-1.133-6.519-2.358 1.064-.271 2.038-.598 2.167-.726.26-.26.219-.257-2.301.201m58.2.222c4.166 1.065 3.957.959 3.257 1.659-.577.576-2.196.658-13.755.692-25.21.074-35.901.25-35.102.578.44.18 8.762.353 18.494.384 9.863.031 18.656.234 19.867.458 1.467.271 2.995.268 4.706-.01 3.115-.505 15.12-.539 15.902-.045.536.339 1.312 6.614.872 7.053-.096.096-1.629.196-3.408.221-3.341.048-2.137.674 1.405.731 1.511.024 2.548.832 2.857 2.223.144.653.232.579.474-.4.585-2.357.467-2.277 2.93-1.985 2.859.338 3.148.627 3.486 3.485.259 2.187.229 2.3-.61 2.3-.862 0-.858.019.148.811.693.545 1.081 1.297 1.186 2.3.139 1.32.164 1.269.224-.453l.067-1.942 3.042.204c3.689.247 3.648.207 3.82 3.666.129 2.596.074 2.818-.809 3.26l-.948.475.848.454c.466.249.862.762.879 1.139.021.425.234.229.562-.514.518-1.176.578-1.197 3.067-1.062 3.421.185 3.819.609 4.004 4.274.183 3.64.685 4.157 4.055 4.175 2.598.015 3.48 1.072 3.48 4.172 0 1.755.882 2.641 2.629 2.641 1.361 0 2.012-.788.671-.813-1.635-.029-2.9-2.03-2.9-4.584 0-2.08-.919-2.73-3.419-2.418-2.621.327-3.542-.609-3.97-4.033-.371-2.973-1.483-4.152-3.916-4.152-2.479 0-3.029-.572-3.434-3.571-.422-3.119-1.298-4.029-3.876-4.029-2.219 0-3.385-1.306-3.385-3.792 0-2.318-.835-2.967-4.226-3.283-3.472-.325-4.546-1.23-4.634-3.907-.033-1-.078-2.037-.1-2.305-.022-.268.77-.663 1.76-.877 1.416-.307 1.587-.421.8-.535-.55-.08-1.558-.321-2.24-.534-1.305-.41-4.353-1.006-8.36-1.635-2.703-.424-7.631-.791-6.4-.476m27.871 5.986c.349.349.944.573 1.323.496.474-.095.276-.293-.635-.634-1.208-.453-1.268-.441-.688.138m-84.548 4.857c2.708.069 7.028.069 9.6 0 2.572-.07.357-.127-4.923-.126-5.28 0-7.385.057-4.677.126m100.615.582c.472.766 1.874 1.315 2.674 1.048.246-.082-.359-.52-1.345-.973-1.69-.778-1.765-.782-1.329-.075m-145.945.313-1.593.741 1.251.033c.688.017 1.479-.242 1.757-.578.783-.943.326-1.007-1.415-.196m25.275-.293c-.433.317-.7 1.088-.725 2.1-.046 1.863-.827 3.296-2.066 3.795-.783.315-.739.356.409.379 1.538.03 1.899-.533 2.286-3.565.154-1.205.47-2.42.703-2.7.538-.649.273-.653-.607-.009m7.732-.145c-1.179.325-1.426 1.481-.823 3.844l.409 1.6-.157-1.718c-.241-2.625.788-3.356 5.371-3.814.77-.077.23-.151-1.2-.164-1.43-.013-3.05.1-3.6.252m-40 3.232c-.77.394-1.918.925-2.552 1.179-.633.255-1.051.563-.928.686.463.463 2.604-.332 3.916-1.455 1.569-1.341 1.503-1.403-.436-.41m161 .412c.136.22.517.4.847.4.33 0 .489-.18.353-.4-.136-.22-.517-.4-.847-.4-.33 0-.489.18-.353.4m-129.401 4.603c-.255.772-.373 1.627-.263 1.9.111.274.215.12.232-.341.036-.954.989-1.937 2.44-2.516.931-.371.901-.397-.477-.421-1.333-.023-1.512.105-1.932 1.378m-7.545 1.797c-.086 2.34-.378 2.738-2.492 3.397l-1.762.549 1.9.027 1.9.027.032 1.7c.017.935.13 1.43.252 1.1.47-1.28 1.485-2.001 2.878-2.048 1.288-.042 1.222-.086-.627-.424-1.985-.363-2.054-.419-1.79-1.453.152-.591.163-1.885.025-2.875l-.25-1.8-.066 1.8m-38.154.229c-1.551.841-1.375 1.132.2.33 1.508-.766 1.775-.965 1.267-.943-.202.009-.862.285-1.467.613M98.4 28.8c-.77.422-1.256.774-1.08.783.424.022 2.68-1.151 2.68-1.393 0-.262-.023-.253-1.6.61m-3.554 2.157c-.559.31-.78.637-.532.79.365.225 1.686-.695 1.686-1.176 0-.237-.073-.213-1.154.386m209.411.047c.108.282.636.597 1.173.7.75.143.88.07.56-.316-.599-.722-1.98-1.029-1.733-.384M134.8 32.93c0 1.85-.838 3.004-2.8 3.856-.884.384-.814.411.599.233.879-.11 1.824-.509 2.1-.886.471-.645.733-4.933.301-4.933-.11 0-.2.779-.2 1.73m-46 1.908c-.55.452-.73.718-.4.592.33-.126.915-.341 1.3-.476.385-.136.7-.406.7-.601 0-.559-.52-.401-1.6.485m46.628 2.591c-.468.468-.563 1.055-.372 2.3.307 2.006.544 2.407.544.919 0-1.395 1.632-3.034 3.082-3.095l1.118-.048-1.2-.305c-1.907-.485-2.501-.442-3.172.229m127.03-.347c1.237.191 2.071 1.043 2.658 2.718l.421 1.2.031-1.326c.053-2.199-.55-2.883-2.482-2.814-1.116.04-1.328.115-.628.222M82.984 38.996c-1.024.83-1.064.93-.297.739.488-.122 1.098-.476 1.357-.788.814-.981.174-.952-1.06.049m237.703 3.026c.708.735 1.388 1.236 1.511 1.113s-.456-.724-1.287-1.337l-1.511-1.113 1.287 1.337m-241.564-.091c-.288.402-.883.936-1.323 1.188-.555.317-.616.457-.2.456.782-.001 1.781-.793 2.112-1.675.341-.907.072-.893-.589.031M127 43.6c-.136.22-.912.413-1.724.428-.812.016-1.836.199-2.276.407-.568.27-.17.322 1.376.182 1.659-.15 4.46-1.417 3.133-1.417-.144 0-.373.18-.509.4m142.376 2.187c-.737.558-.715.588.444.6 1.54.016 2.18.65 2.18 2.16 0 1.532.225 1.252.518-.644.363-2.351-1.326-3.489-3.142-2.116m10.791.346c.128.403.233 3.653.233 7.223 0 7.902.013 7.931 3.763 8.169 2.027.129 2.75.339 3.041.882.502.938 1.133 16.079.925 22.193-.11 3.231.026 5.715.416 7.6l.58 2.8.09-3.4c.431-16.219.155-25.974-.842-29.693-.379-1.414-.545-1.536-3.192-2.34-3.838-1.166-3.981-1.438-3.981-7.58 0-3.996-.13-5.194-.633-5.811-.579-.71-.613-.714-.4-.043m-207.324.69c-.526.438-.835.918-.688 1.066.148.148.755-.217 1.348-.81 1.247-1.247.758-1.436-.66-.256M326 46.367c0 .405 1.556 1.415 1.795 1.165.07-.072-.306-.455-.834-.851-.529-.395-.961-.536-.961-.314m-257.256 4.02c-.519.432-.747.792-.506.8.241.007.764-.347 1.162-.787.926-1.024.566-1.031-.656-.013m50.11 7.651c-.084.991-1.316 1.883-2.854 2.067-1.229.146-1.173.175.451.231 2.085.072 2.912-.56 2.634-2.014-.097-.507-.201-.635-.231-.284m1.99 2.878c-.244.244-.417 1.533-.384 2.864.033 1.331.127 1.88.21 1.22.342-2.742.491-3 1.738-3 1.518 0 1.537-.601.036-1.125-.811-.282-1.289-.27-1.6.041M50.361 69.1c-2.656 2.76-4.562 5.3-3.977 5.3.233 0 .737-.387 1.12-.859.383-.473 1.731-2.021 2.996-3.44 1.952-2.191 2.688-3.301 2.187-3.301-.061 0-1.108 1.035-2.326 2.3m61.41 7.7c0 4.95.057 6.975.128 4.5.07-2.475.07-6.525 0-9-.071-2.475-.128-.45-.128 4.5m37.334-8.117c.497.096 1.217.092 1.6-.008.382-.1-.025-.179-.905-.174-.88.004-1.193.086-.695.182M119.693 70c0 .77.082 1.085.183.7.1-.385.1-1.015 0-1.4-.101-.385-.183-.07-.183.7m.041 4.8c0 1.65.071 2.325.157 1.5.087-.825.087-2.175 0-3-.086-.825-.157-.15-.157 1.5m232.503-2.3c.521.915 1.482 1.9 1.855 1.9.442 0-1.35-2.346-1.816-2.378-.178-.012-.195.203-.039.478m8.163 10.238c0 .186.388.681.862 1.1l.862.762-.708-1.1c-.73-1.134-1.016-1.349-1.016-.762m-240.388 6.713c-.019.712 1.079 1.433 1.869 1.228.576-.149.545-.195-.161-.233-.484-.025-1.064-.361-1.288-.746-.224-.385-.413-.497-.42-.249m-8.333 4.03c-.123 3.232-.617 3.954-3.021 4.417l-2.058.397 2.024.052c3.063.08 3.442-.378 3.275-3.956-.107-2.285-.159-2.5-.22-.91m17.726.987c-1.872 1.472-.329 3.508 2.163 2.856.452-.118 1.548.076 2.435.431 1.012.404 2.617.62 4.305.579l2.692-.066-3-.24c-3.62-.29-5.434-1.161-5.79-2.78-.326-1.486-1.495-1.811-2.805-.78m-98.638.778c-.846 1.189-.85 1.226-.077.813.445-.239.906-.799 1.023-1.246.291-1.115.091-1.023-.946.433m337.646-.416c-.007.347.461 1.067 1.041 1.6.885.814.986.841.63.17-.852-1.603-1.657-2.456-1.671-1.77M288.4 96.291c0 1.361.57 1.735 2.533 1.662l1.267-.048-1.189-.254c-.662-.142-1.389-.656-1.641-1.16-.725-1.455-.97-1.505-.97-.2m-15.8 1.594c-.44.106-.968.352-1.173.547-.205.195.224.183.954-.027 2.062-.591 2.236-1.005.219-.52m-129.795.638c.347.321 13.405.768 13.092.447-.167-.17-3.225-.381-6.795-.468-3.571-.088-6.405-.078-6.297.021m118.706.17c.94.085 2.38.084 3.2-.002.819-.086.049-.155-1.711-.154-1.76.002-2.43.072-1.489.156M104 102.71c0 1.343.15 2.536.334 2.649.393.243.329-4.43-.066-4.824-.147-.148-.268.831-.268 2.175m53.043-1.277c-.917 2.389.497 5.401 2.511 5.351.42-.01.281-.215-.399-.584-1.328-.722-2.111-2.578-1.761-4.174.284-1.292.061-1.668-.351-.593m101.027 1.378c-.091 1.844-.998 3.087-2.588 3.546l-1.282.371 1.491.036c1.95.047 2.823-1.17 2.603-3.631-.139-1.567-.161-1.598-.224-.322M24.978 105.4c-.405.88-.805 1.735-.89 1.9-.085.165.012.3.216.3.553 0 1.837-2.581 1.609-3.234-.123-.35-.48.045-.935 1.034m349.25-.5c.254.811 1.772 3.063 1.772 2.629 0-.098-.364-.933-.809-1.854-.87-1.8-1.424-2.246-.963-.775m-260.6 3.266c-.546.658-.43 3.993.313 8.96.485 3.24.857 3.602.865.841.01-3.577 1.966-4.685 2.405-1.363l.212 1.596.242-1.925c.398-3.158 2.915-5.105 5.63-4.355 1.674.462 2.707-.012 2.699-1.24-.012-1.714-.563-2.084-2.267-1.522-1.35.446-1.783.408-3.609-.311-1.141-.45-2.579-.803-3.196-.785-.617.018-1.495-.091-1.95-.243-.536-.177-1.01-.055-1.344.347m136.672.767c-.165.403-.3 1.266-.3 1.919 0 .956-.252 1.296-1.3 1.752-1.237.537-1.25.565-.276.58 1.822.028 2.442-.778 2.301-2.997-.085-1.356-.22-1.754-.425-1.254M104.248 113.4c.1 2.42.039 8.623-.136 13.785-.354 10.424-.075 16.861.382 8.815.38-6.716.332-22.677-.076-25-.265-1.508-.307-.918-.17 2.4M301 113.2l-2.4.266 2.276.067c1.252.037 2.388-.113 2.524-.333.136-.22.192-.37.124-.333-.068.037-1.204.187-2.524.333m-3.994.946c-.574.42-.769 1.14-.84 3.1-.051 1.405-.016 1.924.079 1.154.299-2.448.556-3.201 1.365-4.01.903-.903.512-1.06-.604-.244m83.022 2.194c-.031 1.024 1.032 3.526 1.663 3.917.463.285.125-.907-.921-3.255-.578-1.298-.719-1.424-.742-.662m-89.228 5.544c-.89.327-2.002 1.378-1.988 1.878.007.241.189.135.405-.235.223-.383 1.337-.868 2.588-1.128 1.207-.251 2.195-.533 2.195-.627 0-.241-2.475-.155-3.2.112m-77.095.403c.609.092 1.509.09 2-.005.492-.095-.005-.171-1.105-.168-1.1.003-1.503.081-.895.173m74.763 4.513c-.006 1.43.143 2.96.332 3.4.451 1.049.451-3.592 0-5-.232-.723-.324-.28-.332 1.6m-272.836-1.549c-.018.138-.302.898-.632 1.688-.535 1.279-.534 1.411.003 1.204.671-.257 1.189-1.825.868-2.626-.114-.284-.222-.404-.239-.266m368.373.382c.011 1.129.485 2.316 1.004 2.515.416.16.398-.115-.082-1.272-.717-1.733-.929-2.018-.922-1.243m2.224 5.567c.147.55.435 1.27.638 1.6.258.417.29.295.104-.4-.147-.55-.435-1.27-.638-1.6-.258-.417-.29-.295-.104.4m-97.631 3.4c.255 2.46.918 3.01 3.578 2.967l2.024-.032-1.4-.568c-2.711-1.1-3.337-1.58-3.871-2.967l-.539-1.4.208 2M174.7 138.1c-1.005 1.005-.984 5.119.031 6.038.946.855 12.506.997 13.167.162.675-.853.908-4.403.371-5.66l-.496-1.161-6.186-.039c-5.392-.035-6.276.05-6.887.66m53.9-.497c-.88.193-2.623.361-3.874.374-4.096.041-5.147 1.066-4.287 4.179.645 2.337 1.509 2.515 12.039 2.477 10.164-.037 9.784.078 10.154-3.064.364-3.101-.008-3.382-4.919-3.703-2.175-.143-4.756-.339-5.734-.437-.978-.097-2.499-.019-3.379.174m67.514 4.597c.003 1.1.081 1.503.173.895.092-.609.09-1.509-.005-2-.095-.492-.171.005-.168 1.105M108.2 144.4l-1.2.305 1.424.048c2.295.076 2.767.699 3.378 4.461l.55 3.386-.21-3.6c-.272-4.658-.888-5.377-3.942-4.6m137 1.088c-1.514.272-1.782.733-2 3.432l-.2 2.48-7.469.2c-9.218.247-9.426.354-9.615 4.95-.161 3.937-.893 4.315-5.851 3.026-6.541-1.702-9.348-.415-9.22 4.228.092 3.353.497 3.155-6.491 3.177-6.972.022-7.278-.118-6.736-3.082.587-3.206-1.321-4.744-5.618-4.53-3.22.16-3.535.223-4.146.834-.478.478-.806.511-1.578.159-.731-.333-1.204-.321-1.894.047-1.436.769-1.982-.356-1.982-4.085 0-4.802-.008-4.807-8.416-4.65-8.296.155-8.653.341-8.478 4.412.131 3.03-.428 4.84-1.767 5.717l-1.02.669 1.077 1.124c1.911 1.994.911 3.076-2.927 3.164-3.739.086-4.748 2.979-3.191 9.149.436 1.727.205 5.573-.367 6.134-.171.167-2.021.347-4.111.401-5.388.138-6.719.679-1.775.722 5.107.043 5.483.327 6.121 4.616 1.164 7.824.488 10.504-2.782 11.033L153 199.1l1.474.05c2.702.092 5.241-2.546 4.149-4.312-.117-.191.14-1.729.572-3.419.432-1.689.747-4.005.7-5.145l-.085-2.074 1.995-.104c2.734-.142 3.156.229 3.235 2.84.113 3.758 1.266 5.027 4.742 5.223 2.361.133 3.018.753 3.018 2.846 0 3.32.425 3.511 9.06 4.089 4.147.278 9.88.69 12.74.915 7.685.607 27.302.1 31.92-.825 1.056-.211 3.151-.384 4.655-.384 3.71 0 4.473-.623 4.685-3.825.21-3.183.987-3.87 3.976-3.519 3.027.356 3.364-.026 3.364-3.816 0-4.271.554-5.019 3.497-4.715 4.035.417 3.946.571 4.281-7.348.357-8.443.282-8.603-3.979-8.445-3.328.122-3.253.328-2.999-8.203l.2-6.729 2.4-.035c1.32-.019 2.599-.064 2.843-.1.603-.089 1.035-4.607.56-5.857-.393-1.034-1.841-1.251-4.803-.72m145.773.512c.119.55.219 1.461.222 2.024.003.562.267 1.372.587 1.8.757 1.011.4-1.75-.469-3.624-.472-1.018-.524-1.048-.34-.2m-95.112 2.3c-.438 2.723-1.028 3.154-4.744 3.465-4.716.395-7.085 1.036-2.917.79 7.067-.418 7.739-.745 8.099-3.939.247-2.186-.097-2.434-.438-.316m-14.181 4.58c-.264.264-.477 1.029-.474 1.7l.006 1.22.502-.992c.276-.546.914-1.198 1.417-1.448.774-.387.814-.495.259-.708-.917-.352-1.162-.32-1.71.228m-101.008.459c.278.278.553 4.707.661 10.661.022 1.21-.095 5.723-.26 10.029-.373 9.744-.281 9.971 4.08 9.971 4.496 0 4.271.642 4.103-11.732-.165-12.088-.348-11.474 3.418-11.462 2.862.009 3.129.308 2.993 3.349-.187 4.164-.024 4.245 8.479 4.245 8.79 0 9.303-.243 8.896-4.222-.298-2.91-.221-2.978 3.371-2.978 2.833 0 3.227.457 2.711 3.143-.196 1.022-.246 2.468-.111 3.215.135.747.234 4.299.22 7.893l-.025 6.536 1.081.706c1.504.983 5.411.903 6.557-.135.879-.795.886-1.538.159-17.715-.107-2.377.027-3.263.684-4.524.647-1.24.771-2.025.593-3.744-.338-3.279-.148-3.375 6.67-3.375 7.656 0 7.189-.467 7.274 7.28.087 7.947 1.019 9.514 5.022 8.445 2.009-.536 2.523.021 2.175 2.363a52.23 52.23 0 0 0-.352 2.992c-.175 2.272-1.222 2.365-1.158.103.019-.678-.202-1.319-.495-1.431-.291-.112-.445-.527-.342-.923.129-.491-.087-.791-.682-.947-1.139-.297-2.092.085-1.841.74.957 2.494-1.784 5.105-4.98 4.743-2.6-.294-2.802-.074-2.846 3.099-.026 1.895.742 2.736 2.5 2.736 1.515 0 2.053.854 2.233 3.547.192 2.87-.271 3.37-3.381 3.653-2.696.245-3.694 1.338-3.985 4.363-.107 1.112-.46 2.243-.785 2.512-.919.763-49.676.735-51.981-.03-1.342-.445-2.039-.462-3.54-.084-2.45.617-3.14.123-2.783-1.99.522-3.088-1.569-5.656-4.585-5.632-2.451.019-2.853-.51-2.282-3.006.394-1.723.46-1.785 1.636-1.57 1.668.305 2.217-.143 2.676-2.186.56-2.492-.204-5.569-1.39-5.597-4.509-.106-6.66-.881-6.66-2.399 0-.4-.36-.841-.8-.981-.44-.14-.8-.602-.8-1.027 0-.586-.28-.773-1.157-.773-1.183 0-1.79-.751-1.41-1.743.123-.32.651-.491 1.288-.418 4.524.523 5.279-.691 5.279-8.493 0-5.903.069-6.549.75-7.023.832-.58 12.562-.744 13.122-.184m33.795.937c-.701.28 1.401 2.524 2.364 2.524.706 0 1.387-1.723.958-2.418-.248-.401-2.41-.47-3.322-.106M5.378 158.978c-.151.803-.184 1.549-.074 1.659.11.11.323-.456.474-1.259.15-.803.184-1.55.074-1.66-.11-.11-.324.457-.474 1.26m275.428-.907c-.009 1.018 1.122 1.935 2.323 1.882 1.064-.047 1.063-.049-.118-.302-.703-.151-1.396-.664-1.694-1.253-.347-.685-.507-.787-.511-.327m-21.741 2.52c-1.323.658-1.961 12.552-.76 14.165 1.145 1.536 7.136 1.823 7.499.36.379-1.53-.086-13.958-.539-14.411-.565-.565-5.123-.649-6.2-.114m28.748-.26c.15.293.418 1.013.596 1.6.258.858.329.906.357.245.019-.452-.249-1.172-.596-1.6-.346-.427-.507-.537-.357-.245m-170.329.55c.631.305.943.897 1.094 2.073.442 3.447.515 3.569.568.96.055-2.747-.421-3.569-2.02-3.487-.289.015-.128.219.358.454m28.316-.181c-1.574.367-1.856.916-1.584 3.091.186 1.484.075 2.497-.398 3.627-.448 1.072-.631 2.555-.58 4.685.091 3.775.471 3.457-3.717 3.115-4.337-.355-4.721-.649-4.721-3.618 0-1.353-.206-2.474-.5-2.718-.393-.328-.471.111-.365 2.051.172 3.156.966 4.078 4.019 4.664 3.711.713 4.702 1.318 5.041 3.073.408 2.113 1.169.285.797-1.916l-.248-1.467 3.264-.148c4.528-.206 5.725-2.658 3.587-7.35-.635-1.393-.751-2.225-.55-3.937.22-1.871.152-2.223-.495-2.556-1.076-.553-2.623-.813-3.55-.596m118.397 1.297c.374.311.478.683.266.956-.702.904-.776 2.308-.241 4.55 1.326 5.547.783 7.052-2.422 6.712a57.466 57.466 0 0 0-2.1-.192c-.656-.03-.688-6.132-.039-7.173.351-.561.344-1.207-.027-2.68-.653-2.596 2.337-4.02 4.563-2.173m130.649.603c-.019.66.141 1.47.354 1.8.49.758.49-.47 0-2-.314-.98-.321-.976-.354.2M261.2 164.8c0 1.69.667 2.124 1.578 1.027.373-.45.331-.794-.197-1.6-.953-1.454-1.381-1.276-1.381.573m-257 0c-.152.691-.193 1.341-.091 1.442.102.102.3-.389.441-1.092.333-1.667.01-1.99-.35-.35m284.275 5.6c.013 2.562.119 3.409.325 2.6.417-1.641.417-4.628 0-5.6-.222-.517-.337.543-.325 3m-160.395-1.92c-.27.27-.48 1.562-.48 2.951 0 3.074-.433 3.489-3.96 3.806l-2.64.237 2.446.063c3.434.088 4.423-.731 4.789-3.966.202-1.782.487-2.551 1.107-2.986.827-.578.827-.585.027-.585-.445 0-1.025.216-1.289.48m57.639 4.706c.088 1.318.292 1.769.836 1.848 1.019.15.995.074 1.126 3.58l.119 3.186-1.8.063c-3.871.137-4.261-.539-3.132-5.428.427-1.852.553-2.011 1.465-1.845.759.137.886.069.532-.285-.502-.502-.638-2.798-.192-3.245.502-.502.928.364 1.046 2.126M287.6 174.8c-.33.213-1.338.391-2.24.394-3.707.014-4.96 1.163-4.96 4.552 0 2.247-.506 2.649-3.38 2.682-1.722.02-2.189.127-1.62.372 2.782 1.195 5.24-.199 5.637-3.197.349-2.626 1.228-3.479 3.934-3.817 1.208-.151 2.519-.519 2.913-.817.822-.624.613-.749-.284-.169m-21.1 1.065c-.321.129-.494 1.015-.482 2.468l.017 2.267.683-1.989c1.246-3.631 6.018-3.35 6.603.389.116.745.166.52.133-.591-.072-2.401-3.867-3.79-6.954-2.544m-42.35 1.254c.385.623-.477 1.514-.978 1.013-.254-.254-.341-.658-.194-.897.316-.511.892-.568 1.172-.116m-63.75 1.505c0 1.076-.692 1.322-1.055.376-.308-.801.146-1.915.652-1.602.222.137.403.689.403 1.226m88.526.215c.416 1.589-.067 1.961-2.545 1.961-1.284 0-2.445.18-2.581.4-.461.746-3.401.487-3.394-.3.012-1.386 2.492-2.962 3.335-2.119.583.583 1.568.523 2.913-.179 1.544-.805 2.012-.756 2.272.237m2.354 4.441c-.28.28-.48 1.622-.48 3.22 0 4.231-1.009 5.699-3.456 5.03-1.332-.364-3.289.144-3.83.995-.984 1.549.432 5.475 1.976 5.475h.941l-.815-.875c-1.931-2.073-.363-4.725 2.794-4.725 1.759 0 2.542-1.592 3.385-6.887.13-.818.512-1.763.849-2.1.551-.551.537-.613-.135-.613-.412 0-.965.216-1.229.48m5.235-.184c1.273.08 3.253.079 4.4-.002 1.147-.08.105-.145-2.315-.144-2.42.001-3.358.066-2.085.146m-86.309 2.094c-.315.51.34.814.947.439.401-.248.378-.37-.107-.556-.341-.131-.719-.078-.84.117M1.5 189.431c-.165.166-.277 1.757-.248 3.536l.052 3.233.352-3c.375-3.19.331-4.26-.156-3.769m397.009 1.369c0 .99.078 1.395.173.9a5.661 5.661 0 0 0 0-1.8c-.095-.495-.173-.09-.173.9m.025 5.6c0 1.65.071 2.325.157 1.5.087-.825.087-2.175 0-3-.086-.825-.157-.15-.157 1.5M1.34 200.8c0 1.87.069 2.635.153 1.7.084-.935.084-2.465 0-3.4s-.153-.17-.153 1.7m247.344-2.791c.733.653 3.188 1.188 5.276 1.151l2.24-.04-1.6-.377c-2.444-.576-6.271-1.05-5.916-.734m-97.455 2.245c-.456.58-.829 1.556-.829 2.169 0 1.842-1.773 3.577-3.655 3.577-1.198 0-1.822.257-2.564 1.058-.993 1.072-1.12 1.501-.999 3.391.111 1.727-1.474 3.151-4.194 3.77l-2.388.543 3.1-.228 3.1-.228.053 2.747c.051 2.603.068 2.648.316.872.302-2.156 1.255-3.409 2.773-3.643.801-.123.694-.177-.442-.222L144 214l.006-2.9c.008-3.725.197-3.976 3.258-4.337 2.841-.335 3.515-.035 3.233 1.44-.111.581-.004.997.256.997.246 0 .447-.242.447-.538 0-.974 1.618-2.026 3.525-2.293l1.875-.262-2.451-.054c-1.416-.03-2.623-.264-2.858-.553-.652-.802-.293-4.614.52-5.512.392-.433.608-.788.48-.788s-.606.474-1.062 1.054m107.035 3.364c.293 2.6.685 3.192 2.085 3.15.578-.017.809-.128.512-.246-.296-.118-1.057-1.311-1.691-2.651l-1.152-2.435.246 2.182m-99.664 1.804c-1.539.539-1.229.524 1.851-.092 1.674-.335 4.649.617 5.564 1.78.89 1.131.993.984.33-.471-.815-1.789-4.472-2.363-7.745-1.217m38.4.007c-1.13.448-2.324.572-4.066.421-3.226-.279-3.534.086-3.534 4.191 0 3.905.252 4.192 3.526 4.024 3.134-.162 4.039.595 3.937 3.292-.116 3.067.391 3.322 7.187 3.625 7.212.322 7.34.255 7.168-3.782-.101-2.375.667-2.958 4.129-3.133 3.795-.192 4.053-.47 4.053-4.364 0-3.798-.729-4.579-4.168-4.471-1.228.039-5.472-.044-9.432-.184-6.061-.214-7.453-.154-8.8.381m40.529 2.33c-.813.404-.956.834-1.147 3.451-.145 1.976-.478 3.382-.983 4.146-.421.637-.783 1.874-.805 2.75-.051 2.031-1.02 2.826-3.031 2.487-2.246-.378-3.963 1.764-3.963 4.944 0 3.152-.51 3.729-3.624 4.096-3.097.365-3.615.921-3.304 3.547.375 3.162-1.096 4.412-5.198 4.418-2.687.004-3.074.455-3.074 3.585 0 2.533-.113 2.904-1.4 4.59-.77 1.009-1.4 2.115-1.4 2.459 0 .565-.06.565-.629-.003-1.177-1.178-2.093-.784-2.458 1.058-.461 2.332-2.997 4.313-5.521 4.313-2.09 0-2.992.981-2.992 3.253 0 2.466-1.815 3.673-5.009 3.331-3.154-.337-3.791.337-3.791 4.016 0 3.609-.666 4.359-3.632 4.091-2.947-.268-3.568.3-3.568 3.26 0 3.658-.709 4.449-3.988 4.449-3.464 0-4.012.582-4.012 4.266 0 3.049-.704 3.734-3.84 3.734-2.577 0-2.823.303-3.18 3.922-.42 4.265-.965 4.731-5.68 4.854-2.17.057-.868 2.424 1.333 2.424.532 0 .967.18.967.4 0 .22-.495.403-1.1.406-1.38.008-2.737.757-1.5.828 1.749.1 2.87.334 4.4.919 2.78 1.063 7.829.694 8.649-.632.146-.236.172-1.459.058-2.717-.269-2.966.528-3.713 3.324-3.116 2.602.554 4.169-1.203 4.169-4.675 0-.883.302-1.715.806-2.219.782-.782 1.193-.799 3.627-.151 1.154.307 2.018-1.249 2.392-4.312.197-1.612.451-3.318.564-3.791.274-1.142 2.132-1.764 4.008-1.341 2.194.495 3.003-.479 3.003-3.617 0-3.377.995-4.382 4.339-4.382 2.795 0 2.861-.091 2.861-3.971 0-3.533.502-4.029 4.083-4.029 3.243 0 3.446-.227 3.598-4.018L211 251.8l3.482-.2c4.013-.231 4.477-.536 4.379-2.886-.157-3.768.705-4.714 4.296-4.714 2.605 0 3.439-.9 3.076-3.319-.521-3.473.875-4.681 5.407-4.681 2.797 0 3.179-.457 2.872-3.433-.298-2.885.592-3.767 3.799-3.767 3.492 0 4.113-.602 3.83-3.711-.312-3.412.596-4.321 4.484-4.495 3.081-.138 3.36-.391 3.369-3.065.007-2.036-.815-3.293-1.936-2.962-2.153.637-2.865.65-3.982.073-1.219-.631-1.346-.935-1.889-4.538-.141-.934-.442-1.812-.669-1.953-1.002-.619-3.112-.826-3.989-.39m160.972 1.641c.004.88.086 1.193.182.695.096-.497.092-1.217-.008-1.6-.1-.382-.179.025-.174.905m-193.535.77c2.026.049 3.898.222 4.159.384.683.422.591 3.251-.125 3.846-.33.274-.6.325-.6.113 0-.738-1.818-1.179-4.304-1.042-2.988.163-5.53-.685-5.135-1.713.178-.464.077-.581-.356-.415-.371.142-.605.004-.605-.356 0-.323.36-.587.8-.587.44 0 .8-.192.8-.427 0-.252.345-.317.841-.16.462.147 2.498.307 4.525.357M266 212.942c0 1.209.655 1.47 3.533 1.412 2.286-.047 2.243-.11-.363-.532-.786-.128-1.821-.597-2.3-1.043l-.87-.81v.973m-130.503 2.766c-.669 1.022-.986 2.898-1.346 7.973-.272 3.835-.589 4.377-2.951 5.049l-1.4.398 1.513.036c1.988.047 4.143-.881 4.475-1.927.146-.461.427-.837.625-.837 1.388 0 1.171-3.613-.25-4.159-.682-.262-.798-5.454-.149-6.667.572-1.069.209-.974-.517.134m137.585 4.852c-.155 1.739-.282 4.23-.282 5.538 0 1.986-.123 2.409-.749 2.573-.698.182-.685.259.2 1.144.522.522.949 1.263.949 1.647 0 1.014.704.151.866-1.062.124-.922.337-1.018 2.734-1.231 2.248-.2 2.351-.24.762-.3-2.509-.094-3.157-.889-3.181-3.9-.01-1.303-.243-3.539-.518-4.969l-.499-2.6-.282 3.16m-69.483-2.06c.001.165-.764.297-1.699.294-1.069-.004-1.504-.131-1.172-.341.643-.408 2.87-.371 2.871.047m54.501 3.096c-1.34.817-1.847 1.533-.6.847.929-.51 2.352-1.615 2.1-1.629-.11-.006-.785.346-1.5.782m-6.202.853c-.77.431-.947 2.547-.298 3.551.294.455.389.283.394-.71.006-1.219 1.139-2.214 2.32-2.038 1.184.177 2.242-.12 1.486-.417-1.546-.607-3.212-.772-3.902-.386m-.834 6.129c-.129.337-.329 1.559-.443 2.717-.201 2.044-.191 2.029.341-.495.535-2.532.577-3.461.102-2.222m-115.304.128c-.848.566-1.359 2.057-1.293 3.768l.067 1.726.159-1.6c.111-1.11.543-1.998 1.412-2.9 1.135-1.179.909-1.831-.345-.994m-7.329 1.057c-.257.31-.611 1.472-.787 2.584-.417 2.639-.873 3.119-3.475 3.659-2.885.599-2.756.958.246.686 3.131-.284 3.584-.694 3.587-3.241.002-1.128.261-2.546.577-3.151.63-1.207.574-1.408-.148-.537M395.8 230.8c-.154.91-.196 1.738-.093 1.84.103.103.306-.563.453-1.48.147-.917.188-1.745.093-1.84-.095-.096-.299.57-.453 1.48m-114.94 7.075-.06 6.875-1.5-.197-1.5-.196 1.068.617c1.007.583 1.674 1.953 2.055 4.226.093.55.193-.032.223-1.292.061-2.59.225-2.709 3.904-2.839 1.848-.065 1.987.004 2.686 1.331.722 1.373.731 1.377.468.202-.375-1.673-.865-2.142-2.544-2.436-3.309-.579-3.969-1.909-4.452-8.966-.279-4.082-.289-4.007-.348 2.675M4.255 234.4c.551 3.189.938 4.288.713 2.021-.119-1.198-.382-2.458-.585-2.8-.249-.418-.29-.164-.128.779m246.296 5.2c0 2.53.065 3.565.145 2.3a44.671 44.671 0 0 0 0-4.6c-.08-1.265-.145-.23-.145 2.3m-122.393-2.894c-.473.314-1.156 3.294-.755 3.294.131 0 .427-.541.658-1.202.259-.744.785-1.295 1.379-1.444.528-.132.96-.401.96-.597 0-.429-1.619-.465-2.242-.051m-8.805 7.894c0 2.64.065 3.668.144 2.284.078-1.383.077-3.543-.002-4.8-.079-1.256-.143-.124-.142 2.516m125.444 2.003c-.309.373-.411 1.153-.267 2.042.179 1.104.028 1.714-.648 2.628-.785 1.06-.889 1.725-.946 6.059l-.064 4.868.355-3.6c.59-5.988.772-6.294 4.166-6.999 2.554-.53 3.216-1.08 1.051-.874-1.798.172-3.12-.917-1.925-1.586.924-.517.867-2.213-.093-2.727-.994-.532-1.034-.527-1.629.189m-78.683 3.197c.003 1.1.081 1.503.173.895.092-.609.09-1.509-.005-2-.095-.492-.171.005-.168 1.105m122.341 3.6c-.297 21.913-.305 28.114-.034 26 .486-3.797.745-20.269.412-26.2l-.303-5.4-.075 5.6M7.874 249.8c.419 2.676.856 3.895.861 2.4.002-.66-.247-1.83-.554-2.6l-.557-1.4.25 1.6m119.773.036c-.026.68.206 2.077.515 3.103.308 1.026.465 2.581.348 3.454-.248 1.853.917 2.626 3.287 2.181.924-.173 1.803.014 3.045.647 3.263 1.665 16.758.613 16.758-1.307 0-.257-.255-.118-.567.309-.606.829-4.215 1.258-11.27 1.339-4.086.048-6.508-1.025-7.203-3.191-.291-.91-.886-1.601-1.769-2.054-1.979-1.018-2.407-1.598-2.768-3.756-.245-1.46-.341-1.645-.376-.725M391.543 251c-.131.22-.353 1.12-.494 2l-.256 1.6.617-1.379c.568-1.268.68-3.14.133-2.221m-138.838.883c.497.096 1.217.092 1.6-.008.382-.1-.025-.179-.905-.174-.88.004-1.193.086-.695.182m-128.25 8.084c1.02.143 2.145.501 2.5.795.828.688.84.291.016-.533-.412-.413-1.273-.611-2.5-.576l-1.871.054 1.855.26m2.98 5.933c-.134 1.265-.083 3.2.113 4.3.319 1.782.363 1.532.405-2.3.052-4.755-.145-5.517-.518-2m123.107 4.7c-.001 1.98.066 2.84.15 1.912.084-.928.085-2.548.003-3.6-.083-1.052-.152-.292-.153 1.688m-114.541-1.403c-.262.49-.46 4.662-.514 10.833-.103 11.832.178 11.171-4.725 11.107l-3.116-.04.13-3.248c.071-1.787.058-2.619-.03-1.849-.365 3.203-1.054 4.329-3.146 5.139-1.087.421-1.002.445.9.249 2.099-.215 2.1-.215 2.1.942 0 .637.112 1.972.248 2.966.383 2.797-.546 3.504-4.605 3.504-3.676 0-3.643-.036-3.643 3.971 0 3.625-.574 4.185-3.907 3.808-3.314-.375-3.146-.906-3.361 10.621-.201 10.825-.136 11.037 3.37 10.905 2.781-.104 5.498 1.439 5.498 3.124 0 1.008.607.982 1.335-.058.432-.616.924-.795 1.923-.7l1.342.129.237 2.767c.388 4.513.947 4.804 8.525 4.438 8.167-.394 9.038-.906 9.038-5.323 0-2.494.787-3.282 3.278-3.282 1.229 0 2.154-.267 2.866-.828l1.053-.828-.299-10.472c-.279-9.816-.308-15.155-.111-20.872.046-1.32-.043-6.118-.197-10.661-.265-7.806-.232-8.418.594-11.088 1.677-5.417.812-6.049-8.27-6.05-5.67-.001-6.115.054-6.513.796M242.914 271c.003 1.1.081 1.503.173.895.092-.609.09-1.509-.005-2-.095-.492-.171.005-.168 1.105m-94.167.017c.438-.139 1.004.087 1.45.58.816.902.688 1.216-.535 1.308-.455.035-.756.134-.669.221.29.29-.786 1.194-1.155.97-.199-.121-.26-.055-.135.147.536.867-1.699 2.454-2.639 1.873-.255-.157-.821-.293-1.258-.301-.563-.011-.858-.364-1.011-1.215-.366-2.028-.74-.204-.583 2.842.078 1.517.17 4.435.203 6.485.044 2.746.205 3.782.609 3.938.73.28.628 2.829-.124 3.118-.315.121-.724.126-.909.012-.185-.115-.59.153-.9.596-.309.442-.665.701-.79.576-.126-.125-.347.146-.491.603-.145.456-.456.83-.69.83-.234 0-.746.369-1.137.82-.391.451-.818.648-.948.437-.264-.428-1.761-.156-2.552.464-.826.648-1.552-.315-.863-1.146.397-.478.959-.603 2.054-.456 1.726.232 2.21-.396 3.158-4.093.286-1.114.643-2.026.794-2.026.151 0 .301-2.274.334-5.054.033-2.779.156-5.209.273-5.4.118-.19.056-.346-.137-.346-.321 0-.497-1.211-.505-3.48-.002-.484-.18-.99-.397-1.124-.722-.446-.406-.996.573-.996 1.31 0 2.277.406 2.007.842-.122.197-.02.358.226.358s.319.208.162.462c-.177.286-.11.353.176.176.254-.157.462-.609.462-1.004 0-.966 2.181-1.601 3.914-1.139.722.193 1.637.247 2.033.122m235.829 1.163c-.353.54-.581 1.3-.505 1.691.09.467.364.132.801-.98.75-1.91.649-2.153-.296-.711m-369.49.626c.225.862.914 1.502.914.85 0-.682-.474-1.656-.805-1.656-.176 0-.225.363-.109.806m150.953 4.054c-.241.693-.439 1.871-.439 2.618 0 4.719-6.569 4.535-7.231-.203l-.262-1.875-.054 2.486c-.065 3.022.357 3.358 4.557 3.627 3.534.227 3.668.074 3.849-4.413.16-3.98.17-3.931-.42-2.24m-148.84.718c.493.978 1.133 2.418 1.421 3.2.339.922.533 1.14.55.622.05-1.554-.781-3.671-1.819-4.63l-1.049-.97.897 1.778M127.72 278c0 1.21.075 1.705.167 1.1a8.899 8.899 0 0 0 0-2.2c-.092-.605-.167-.11-.167 1.1m20.168 5.104c-.193 2.457-.831 3.902-1.533 3.468-.712-.44-.419-7.043.345-7.777.966-.928 1.459.859 1.188 4.309m101.769-3.904c-.232 2.806-4.439 3.431-5.379.8-.122-.339-.229-.137-.246.467-.062 2.089.253 2.333 3.023 2.333 2.911 0 3.079-.169 2.84-2.854-.085-.96-.192-1.296-.238-.746m37.644 3.659c-.252.252-1.587.567-2.966.7-2.753.265-4.032 1.439-3.353 3.078.278.669.359.616.659-.437.447-1.564 1.369-2.2 3.191-2.2 1.159 0 4.183-1.524 3.148-1.587-.121-.007-.427.194-.679.446m-19.201.617c.385.1 1.015.1 1.4 0 .385-.101.07-.183-.7-.183s-1.085.082-.7.183m-9.266 4.595c-.035 1.088.856 2.329 1.671 2.329.246 0 .14-.225-.237-.5-.376-.276-.845-1.041-1.042-1.7l-.357-1.2-.035 1.071m5.517.582c-.521 1.08-.542 1.347-.108 1.347.298 0 .653-.442.788-.983.403-1.605.017-1.812-.68-.364m16.58 2.347c.002 1.54.074 2.121.161 1.291.087-.83.085-2.09-.003-2.8-.089-.71-.16-.031-.158 1.509m-132.317 1.635c.428 2.11-.778 4.419-1.914 3.666-1.577-1.045-1.557-4.648.036-6.439.733-.824 1.327.053 1.878 2.773m120.186-1.439-2.6.204-.116 3.501c-.142 4.299-.592 4.77-4.408 4.605-3.287-.142-3.854.395-3.011 2.849.906 2.639-.061 3.48-3.857 3.352-1.934-.065-2.933.075-3.323.465-.681.681-1.081 8.228-1.084 20.439-.001 10.378-.079 10.189 4.176 10.189 3.496 0 3.961.445 4.336 4.142.267 2.629.304 2.704 1.342 2.694 4.887-.047 5.978-.603 5.819-2.968-.13-1.932.822-2.453 3.28-1.796l1.792.48 1.818-1.676c1.708-1.574 1.962-1.676 4.184-1.676 2.707 0 2.852-.166 2.852-3.253 0-3.728 1.349-5.147 4.894-5.147 2.737 0 3.123-.375 2.601-2.53-.542-2.233-.79-2.435-2.851-2.329-2.579.134-3.444-1.191-3.444-5.277 0-1.656-.174-3.47-.387-4.031-.213-.56-.426-3.767-.473-7.126-.101-7.162-.075-7.107-3.313-7.107-3.559 0-4.026-.458-4.026-3.956-.001-3.789-.567-4.334-4.201-4.048m-149.886 5.706c-.46 1.017-.941 1.255-3.314 1.641-.55.09-.029.104 1.157.033 2.447-.147 2.968-.488 2.777-1.817-.133-.927-.137-.926-.62.143m161.924-.302c-.035 1.104.39 1.643 1.562 1.979l1 .287-1.06-.933c-.583-.513-1.154-1.203-1.269-1.533-.145-.418-.216-.358-.233.2m-13.123 2.245c-.203.203-.324-.113-.285-.746.091-1.497.244-1.682.458-.553.099.521.021 1.105-.173 1.299m-119.888 4.228c-.336.877-2.385.512-2.569-.457-.138-.727.742-2.862 1.723-4.178.475-.638 1.247 3.59.846 4.635m-11.87-3.09c5.042-.521 5.643-.247 5.643 2.574 0 3.538 2.138 5.631 4.802 4.702 1.503-.524 1.598-.362 1.598 2.71 0 1.45.151 3.175.336 3.834.184.658.218 3.357.075 5.997-.143 2.64-.107 5.115.079 5.5.623 1.289-.375 2.423-1.913 2.174-3.551-.576-5.444 1.091-5.327 4.692.101 3.065-.037 3.144-5.736 3.304-6.858.192-7.114.058-7.114-3.719 0-1.832-.163-2.951-.429-2.951-.235 0-.699-.271-1.031-.603-.462-.462-1.19-.552-3.126-.383-3.312.287-3.9-.225-3.606-3.143.115-1.139.064-3.691-.114-5.671-.269-2.994-.203-3.964.391-5.763.393-1.189.715-3.293.715-4.676s.171-2.619.38-2.749c.558-.345 1.22 1.13 1.22 2.719 0 .861.227 1.47.6 1.614.33.126.6.566.6.976 0 .996.292 1.232 1.223.989 1.072-.28 1.057-2.532-.023-3.51-1.12-1.013-1.027-1.199.9-1.815.935-.299 2.061-.77 2.503-1.047.442-.276 1.162-.494 1.6-.483 3.55.088 5.427-1.275 3.97-2.885-.732-.809-2.173-1.054-2.173-.37 0 .522-1.441.513-2.426-.014-1.656-.886.051-2.643 1.896-1.954.479.179 2.498.157 4.487-.049m235.072.246c-.346.345-.629.825-.629 1.066 0 .241.047.363.104.272.058-.092.446-.572.862-1.067.862-1.024.614-1.223-.337-.271M112.109 302c0 .99.078 1.395.173.9a5.661 5.661 0 0 0 0-1.8c-.095-.495-.173-.09-.173.9m10.558-1.018c0 .321-.15.49-.334.377-.183-.114-.333-.005-.333.241s-.18.336-.4.2c-.676-.418-.443-1.4.333-1.4.404 0 .734.262.734.582m146.4 1.017c.331.425.344.747.043 1.11-.603.726-1.91-.52-1.91-1.82 0-1.048.705-.78 1.867.71m19.426 3.201c0 .77.082 1.085.183.7.1-.385.1-1.015 0-1.4-.101-.385-.183-.07-.183.7m-177.393.033c-.67.734-.665.767.1.767.533 0 .8-.267.8-.8 0-.948-.004-.948-.9.033m63.742 1.919c-.396.26-.493.851-.335 2.032.503 3.752-.401 4.801-4.145 4.81-3.327.008-4.12.675-3.727 3.133.531 3.324-.744 4.642-4.296 4.439-4.208-.241-4.261-.086-4.737 13.765-.565 16.45-.5 22.53.262 24.469.346.88.746 2.713.889 4.074.143 1.36.386 2.598.539 2.752.708.708 16.023 1.164 21.202.631 2.952-.304 4.63-.314 5.369-.033 2.19.833 2.314.283 2.553-11.338.284-13.757-1.196-12.273 12.24-12.281 12.676-.007 11.432-1.099 11.795 10.357.33 10.361.527 11.891 1.612 12.472 1.155.618 25.84.26 27.06-.393.752-.402.896-.78.826-2.164-.048-.922.17-2.127.482-2.677.52-.914.795-30.037.408-43.189-.113-3.831-.283-4.011-3.799-4.011-4.178 0-4.817-.548-4.48-3.838.361-3.523 1.096-3.363-15.434-3.356-14.989.006-16.283.153-15.989 1.817.075.428.166 1.227.202 1.777.036.55.505 1.709 1.043 2.576.812 1.31.961 2.012.881 4.166-.112 3.041.078 3.243 3.055 3.252 3.473.01 4.243 1.091 3.941 5.535-.737 10.848-.897 11.271-4.243 11.271-2.972 0-3.695-.806-3.885-4.336-.086-1.582-.362-3.369-.614-3.97-.252-.602-.561-2.174-.688-3.494l-.229-2.4-1.985.072c-2.355.086-3.053.784-2.736 2.737.352 2.172-1.18 3.292-4.734 3.459-4.784.225-4.745.299-4.745-9.089 0-7.491-.067-7.379 4.41-7.379 4.147 0 5.339-.526 5.062-2.235-.114-.699-.022-1.455.204-1.681 1.573-1.573-20.925-3.251-23.234-1.732m97.493.287c.828.58.887.842.64 2.823-.273 2.184.859 4.535 1.88 3.904.186-.115.645-.038 1.019.171.474.266.969.191 1.637-.246 1.298-.851 1.673-.207 1.69 2.909.007 1.32.182 4.002.388 5.961.494 4.698.303 5.039-2.817 5.039-3.81 0-4.534.688-4.225 4.013.315 3.392.205 3.452-6.975 3.749-4.942.205-5.569.152-7-.592-1.308-.68-1.999-.773-4.117-.557l-2.545.26.131-13.136c.137-13.829.182-14.541.906-14.531 1.134.015 1.668.745 1.153 1.576-1.751 2.826 1.079 6.175 3.601 4.26 1.348-1.023.108-3.865-1.901-4.354-.65-.159-.608-.204.22-.242.561-.025 1.244-.271 1.518-.546.304-.305 2.172-.589 4.78-.727 8.15-.431 9.055-.407 10.017.266m93.997.661c-.539.435-1.306 1.9-.995 1.9.062 0 .512-.54 1-1.2.962-1.301.961-1.478-.005-.7m-332.14 1.085c.55 1.064 1.408 1.952 1.408 1.457 0-.602-.984-2.227-1.459-2.409-.447-.172-.437.007.051.952m47.474.615c-.125 2.193-.694 2.76-3.359 3.348-3.144.694-3.134 1.052.028 1.052 1.835 0 2.678.155 2.713.5.029.275.075 1.591.102 2.924.06 2.899.85 2.901.85.001 0-2.156.461-2.743 2.756-3.504 1.429-.474 1.432-.478.244-.457-3.096.054-2.951.184-3.103-2.764-.081-1.56-.179-2.024-.231-1.1m22.801 0c-.158 2.438-.495 2.977-2.139 3.419-1.95.525-3.979-.049-5.069-1.434-.929-1.182-1.324-.891-.806.594.348 1.001.622 1.136 2.754 1.359 4.555.476 5.723-.207 5.488-3.207-.084-1.082-.185-1.403-.228-.731m183.933 1.032c0 2.13.769 2.747 3.4 2.728 2.073-.015 2.024-.077-.921-1.18-.962-.36-1.385-.809-1.552-1.646-.362-1.811-.927-1.751-.927.098m-197.063 3.176c4.583.356 4.774.487 5.111 3.509.242 2.178.252 2.145.203-.717l-.051-3-4.6-.049-4.6-.049 3.937.306m23.352 4.892c-.088.715-.161.13-.161-1.3 0-1.43.073-2.015.161-1.3.089.715.089 1.885 0 2.6m-40.569.01c-.694 1.105-2.542 1.89-4.452 1.89-1.842 0-3.625.848-4.535 2.157-.147.211-.278 2.617-.291 5.345-.033 7.086 1.31 9.68 5.032 9.711 2.851.023 3.524 1.145 3.918 6.531.159 2.17.436 4.455.615 5.08.445 1.55-.245 2.081-2.035 1.568-.752-.216-1.446-.392-1.542-.392-.097 0 .604.585 1.556 1.3.952.715 2.92 2.31 4.373 3.546 5.095 4.332 7.193 5.6 7.983 4.827.648-.635.627-.711-.381-1.339-.587-.366-1.337-1.05-1.666-1.52l-.598-.854-.268 1.065c-.318 1.268-1.678.435-1.907-1.167-.082-.578-.578-1.005-1.522-1.31-1.614-.522-2.099-2.602-.671-2.877.681-.132 3.591 2.543 3.999 3.677.09.248.371-.3.625-1.219l.462-1.67 3.692-.308 3.693-.309-3.061-.486c-4.123-.655-4.446-.882-5.299-3.73-.791-2.64-2.49-4.826-3.752-4.826-1.072 0-1.682-.83-1.958-2.664-.386-2.564-3.521-6.503-6.474-8.136-1.215-.673-1.059-3.857.249-5.077.662-.618 1.322-1.517 1.468-1.998.379-1.253 2.883-3.325 4.017-3.325 1.459 0 1.565-.669.151-.952-1.169-.234-1.231-.335-1.018-1.648.239-1.477.124-1.731-.403-.89M42.8 321.6c.47.66.932 1.2 1.027 1.2.423 0 .114-1.202-.456-1.771-1.078-1.078-1.468-.688-.571.571m313.588-.378c-.75 1.401-.222 1.691.732.401.701-.949.77-1.223.306-1.223-.329 0-.796.37-1.038.822m-255.893.377c3.159.405 3.505.782 3.505 3.826 0 1.39.18 2.639.4 2.775.543.335.523-3.825-.025-5.266-.584-1.537-1.017-1.729-3.775-1.675l-2.4.046 2.295.294m139.405.996c.809.233.9.51.9 2.752 0 1.371.2 2.693.443 2.936.596.596.279 27.072-.342 28.555-1.001 2.392-3.227 3.173-4.167 1.462-.605-1.101-.977-21.573-.54-29.729.3-5.601.706-6.815 2.148-6.416.362.1 1.063.298 1.558.44m56.209 6.605c0 .99.078 1.395.173.9a5.661 5.661 0 0 0 0-1.8c-.095-.495-.173-.09-.173.9m-245.87 1.1c.964 1.045 1.754 2.035 1.757 2.2.002.165.17.3.373.3.686 0-.821-2.399-2.138-3.403-1.949-1.487-1.946-1.216.008.903m112.681-.444c1.826.935 1.815.892 1.844 7.435.015 3.27.209 6.285.432 6.701 1.4 2.617.217 8.989-1.743 9.382-3.821.765-3.881.566-3.615-11.974.281-13.236.22-13.01 3.082-11.544m24.47.791c.477.477.616 1.239.529 2.9l-.119 2.253-2.324.028c-2.635.032-3.076-.374-3.076-2.828 0-2.86 3.047-4.296 4.99-2.353m-83.141 1.853c-.132.715-.078 1.84.121 2.5.309 1.026.366.837.396-1.3.038-2.758-.149-3.191-.517-1.2M290.4 338c-.44.44-.8 1.254-.8 1.81v1.009l1.435-1.309c.789-.721 1.824-1.529 2.3-1.796.8-.449.752-.487-.635-.5-.981-.009-1.777.263-2.3.786m-186.34 4.374c-.033.536-.451 1.391-.93 1.9-.478.509-.686.926-.462.926.857 0 1.791-1.535 1.622-2.665-.151-1.007-.177-1.025-.23-.161m-41.709.866c.496.462 1.012.73 1.146.596.135-.134-.102-.507-.526-.827-1.178-.891-1.64-.719-.62.231M127 344.268c-.751.416-2.322.701-4.2.764-1.65.055-3.836.222-4.857.371-1.198.174-2.183.097-2.774-.219-.801-.429-1.013-.371-1.697.463-.836 1.018-.762 19.223.081 20.066.191.191 2.934.401 6.097.468 4.221.089 6.147.294 7.244.773 2.33 1.017 6.563.996 8.506-.042 1.135-.606 2.586-.912 4.989-1.052 1.898-.11 3.453-.387 3.534-.628.079-.238.462-.432.851-.432 1.92 0 3.226-.856 3.226-2.113 0-.726.367-1.626.889-2.182.824-.877.897-1.377.995-6.856.138-7.717.597-7.204-6.901-7.725-5.105-.355-6.228-.556-7.654-1.37-2.083-1.189-6.426-1.338-8.329-.286m155.905.019c.609.092 1.509.09 2-.005.492-.095-.005-.171-1.105-.168-1.1.003-1.503.081-.895.173m-8.161.9c-1.212 1.009-.906 1.013 1.056.013 1.14-.581 1.34-.8.729-.8-.462 0-1.265.354-1.785.787m-194.926.833c1.615 1.785.415 5.58-1.765 5.58-2.211 0-3.635-3.347-2.295-5.392.846-1.291 2.972-1.39 4.06-.188m53.878.865c.806 1.381.361 18.176-.496 18.742-.559.368-3.953.139-4.4-.297-.11-.108-.23-3.016-.266-6.463-.037-3.447-.167-7.437-.29-8.867-.302-3.504-.143-3.703 3.14-3.915 1.497-.096 1.863.03 2.312.8M97.2 349.738c0 1.303-.725 2.309-2 2.778-.475.175-.454.227.1.252 1.154.052 2.3-1.426 2.3-2.968 0-.77-.09-1.4-.2-1.4-.11 0-.2.602-.2 1.338m165.4 2.681c-2.337.161-1.529.226 3 .243 6.178.023 7.16-.105 2.6-.339-1.32-.068-3.84-.024-5.6.096m-64.444.773c-.465.188-.97.667-1.123 1.066-.414 1.08-.8 18.795-.4 18.421.188-.176.458-3.956.6-8.4.272-8.482.615-10.288 2.088-11 1.059-.512.069-.586-1.165-.087m4.25.333c.493.398 1.032 1.433 1.199 2.3l.303 1.575.046-1.638c.046-1.655-.805-2.962-1.93-2.962-.282 0-.11.326.382.725m118.192 3.277c-1.057 1.168-.444 1.428.979.414 1.418-1.009 1.5-1.216.485-1.216-.406 0-1.065.361-1.464.802M89.9 359.889c.715.089 1.885.089 2.6 0 .715-.088.13-.161-1.3-.161-1.43 0-2.015.073-1.3.161m5.36.575c.363.295.935 1.616 1.271 2.936l.611 2.4.023-1.8c.028-2.151-.69-3.741-1.775-3.932-.719-.127-.73-.092-.13.396m108.886 4.136c.001 2.2.068 3.049.149 1.887.081-1.163.081-2.963-.002-4-.082-1.038-.148-.087-.147 2.113m46.807 4.4c0 2.64.065 3.668.144 2.284.078-1.383.077-3.543-.002-4.8-.079-1.256-.143-.124-.142 2.516m58.591-3.777c-.742.646-.773.735-.144.413 1.357-.694 2.022-1.223 1.544-1.23-.25-.003-.88.364-1.4.817m-213.933 2.774c-1.413.207-.132 1.099 8.189 5.704 7.681 4.251 11 5.806 11 5.153 0-.22-.36-.514-.8-.654-1.054-.335-1.837-1.737-1.117-2.003.284-.104 3.577-.241 7.317-.304l6.8-.114-8.6-.12c-5.336-.074-9.061-.298-9.815-.589-2.199-.85-10.212-5.579-10.906-6.436-.53-.656-.984-.795-2.068-.637m208.573.43c-.436.705.023.803.845.182.677-.512.688-.585.095-.596-.372-.007-.795.179-.94.414M196.653 376.1c-.195 1.522-.195 3.878 0 5.4l.347 2.7.118-2.7a74.794 74.794 0 0 0 0-5.4l-.118-2.7-.347 2.7m-29.453-.79-1 .513-.107 9.489-.107 9.488h-1.232c-2.89 0-6.58-1.555-6.196-2.612.082-.227-.645-.047-1.616.4l-1.765.812 2.912.74c3.124.794 6.573 1.372 8.511 1.426l1.2.034.064-6.3c.109-10.784.253-12.719.936-12.564.33.075 1.545.236 2.7.356 2.319.243 2.877.908.762.908-1.514 0-2.46.857-2.753 2.491-.349 1.955 1.503 2.507 8.07 2.406 3.12-.047 3.192.12 3.214 7.503.023 7.585-.174 7.244 4.472 7.71 7.124.716 25.744.949 27.261.341.619-.248 2.011-.451 3.092-.451s2.663-.279 3.515-.62c1.726-.69 1.627-.292 1.578-6.38-.068-8.42-.312-8.123 6.612-8.051 6.563.068 6.277-.228 6.277 6.471 0 7.552.225 7.683 8.707 5.09 2.693-.824 3.232-1.427 2.028-2.271-.497-.347-1.137-1.039-1.422-1.536-.51-.887-.515-.884-.28.168.514 2.301-.875 3.579-4.433 4.079-2.584.363-2.534.537-2.673-9.328-.096-6.761-.257-9.094-.655-9.493-.802-.802-21.394-.55-22.202.271-.108.11-.313 4.88-.454 10.6-.288 11.624-.103 10.897-2.816 11.045-3.884.212-5.001.022-5.345-.909l-.32-.864-.669.955c-1.054 1.504-3.598 1.347-5.082-.315l-1.135-1.27-.124 1.079-.125 1.079H189.051l-.375-1.4c-.217-.809-.274-5.307-.134-10.658.292-11.214 1.057-10.144-7.415-10.366-3.59-.094-7.967-.263-9.727-.375-2.18-.138-3.519-.04-4.2.309m79.267.258c-4.463.311-4.554.443-4.333 6.35.092 2.485.28 4.63.417 4.767.28.28.372-1.903.258-6.151-.102-3.827.523-4.526 3.967-4.43 1.444.04 2.608-.128 2.899-.419.267-.267.404-.455.305-.417-.099.037-1.68.172-3.513.3m-115.367.33c2.255.072 5.945.072 8.2 0 2.255-.071.41-.129-4.1-.129s-6.355.058-4.1.129m21.156.081c5.315.297 5.921.623 5.577 2.998-.129.893-.085 2.163.098 2.823.293 1.056.365.883.607-1.451.478-4.619.306-4.754-5.938-4.678l-4.8.059 4.456.249M232.2 377.6c.144.233-.263.4-.976.4-.673 0-1.224-.18-1.224-.4 0-.22.439-.4.976-.4.537 0 1.088.18 1.224.4m-28.107 1.2c0 .77.082 1.085.183.7.1-.385.1-1.015 0-1.4-.101-.385-.183-.07-.183.7m82.207-.373c-.825.436-1.5.881-1.5.991 0 .109.72-.169 1.6-.618.88-.449 1.6-.903 1.6-1.008 0-.262-.003-.261-1.7.635m-99.574 1.71c.226 2.747-1.584 3.302-2.886.885-.911-1.691-.305-2.67 1.56-2.519 1.083.088 1.212.247 1.326 1.634m91.874 1.841c-.88.417-1.42.758-1.2.76.546.004 3.702-1.474 3.2-1.498-.22-.01-1.12.322-2 .738M126.2 384.4c.136.22.642.387 1.124.372.845-.027.847-.041.076-.372-1.101-.473-1.492-.473-1.2 0m60.013 1.1c-.151.825-.468 1.68-.703 1.9-.293.274-.338.242-.145-.1.155-.275.114-.5-.091-.5-.377 0-.537-1.944-.205-2.5.615-1.034 1.403-.208 1.144 1.2m30.042 1.107c.03 1.096.428 2.983.885 4.193l.831 2.2-1.086.898c-2.147 1.776-3.197.777-2.696-2.565.148-.983.268-2.803.268-4.045 0-3.714 1.697-4.357 1.798-.681m-57.762.593c0 .77.082 1.085.183.7.1-.385.1-1.015 0-1.4-.101-.385-.183-.07-.183.7m108.177-.619c-.841.3-1.651.68-1.8.846-.148.165.09.159.53-.015a13.41 13.41 0 0 1 1.706-.511c.498-.108 1.004-.355 1.124-.549.266-.432.309-.438-1.56.229m-69.825 2.019c-.031 1.32-.172 2.833-.313 3.363-.167.622-.11.871.16.704.631-.39.886-2.647.528-4.667l-.32-1.8-.055 2.4m-10.623 4.887c-.108.282-.464.513-.79.513-.86 0-1.409-1.208-1.018-2.238.184-.484.211-1.017.06-1.185-.15-.168-.049-.176.226-.018.289.167.512.067.528-.235.016-.288.29.19.609 1.063.32.873.493 1.818.385 2.1m66.107-2.803c-1.401.214-2.407 1.316-1.202 1.316.454 0 .937-.18 1.073-.4.136-.22.597-.4 1.024-.4.427 0 .776-.18.776-.4 0-.22-.135-.373-.3-.34-.165.033-.782.134-1.371.224m-104.949.751c.869.318 1.769.507 2 .419.582-.22-1.634-1.06-2.706-1.026-.609.02-.395.204.706.607" fill="#9a9fa4"/></g></svg>