<svg id="svg" version="1.1" xmlns="http://www.w3.org/2000/svg" xmlns:xlink="http://www.w3.org/1999/xlink" width="32" height="32" viewBox="0, 0, 400,400"><g id="svgg"><path id="path0" d="M161.200 1.000 C 161.200 2.210,161.833 2.134,152.700 2.015 C 147.043 1.941,145.200 2.036,145.200 2.401 C 145.200 2.668,144.930 2.782,144.600 2.655 C 144.188 2.497,144.000 2.680,144.000 3.236 C 144.000 3.682,143.832 3.943,143.626 3.816 C 143.420 3.689,142.610 3.945,141.826 4.386 C 141.042 4.826,140.400 5.029,140.400 4.836 C 140.400 4.482,141.582 3.831,142.059 3.923 C 142.201 3.950,142.209 3.574,142.075 3.086 C 141.874 2.353,141.807 2.321,141.686 2.905 C 141.605 3.293,141.345 3.490,141.108 3.343 C 140.867 3.194,140.791 3.262,140.936 3.496 C 141.079 3.727,140.926 4.019,140.598 4.146 C 139.887 4.418,139.791 5.600,140.480 5.600 C 140.786 5.600,140.821 5.739,140.577 5.983 C 140.366 6.194,137.990 6.393,135.297 6.425 C 132.604 6.457,130.400 6.635,130.400 6.819 C 130.400 7.152,129.099 7.032,128.465 6.640 C 128.283 6.527,128.133 6.689,128.133 7.000 C 128.133 7.311,128.328 7.469,128.567 7.353 C 128.805 7.236,128.712 7.379,128.360 7.670 C 128.008 7.962,127.693 8.335,127.660 8.500 C 127.627 8.665,127.578 8.890,127.550 9.000 C 127.522 9.110,127.478 9.425,127.450 9.700 C 127.415 10.048,126.367 10.230,124.000 10.300 C 119.917 10.421,118.665 10.671,118.914 11.319 C 119.016 11.586,118.852 12.035,118.550 12.318 C 118.247 12.600,118.000 12.712,118.000 12.567 C 118.000 12.421,117.732 12.524,117.404 12.796 C 117.077 13.068,116.896 13.431,117.002 13.603 C 117.169 13.874,116.479 14.340,115.500 14.615 C 115.335 14.662,114.126 14.723,112.813 14.750 C 110.867 14.791,110.468 14.911,110.655 15.400 C 110.782 15.730,110.686 16.000,110.443 16.000 C 110.199 16.000,110.000 15.809,110.000 15.576 C 110.000 15.343,109.847 15.247,109.661 15.362 C 109.098 15.710,109.411 17.815,110.005 17.677 C 110.440 17.577,110.442 17.667,110.019 18.177 C 109.399 18.924,109.165 18.970,109.300 18.318 C 109.355 18.053,109.190 17.828,108.933 17.818 C 108.182 17.789,107.858 17.261,108.243 16.691 C 108.439 16.400,108.285 16.506,107.900 16.925 C 107.515 17.345,107.203 17.894,107.206 18.144 C 107.210 18.426,107.341 18.396,107.550 18.066 C 107.823 17.636,107.935 17.655,108.130 18.162 C 108.263 18.507,108.243 18.771,108.086 18.748 C 107.929 18.724,106.594 18.727,105.121 18.753 L 102.442 18.800 102.321 20.900 L 102.200 23.000 98.715 23.000 C 94.660 23.000,93.816 23.488,93.881 25.794 L 93.921 27.200 91.860 27.224 C 88.225 27.265,86.772 27.467,86.280 27.998 C 85.898 28.411,85.923 28.449,86.400 28.182 C 86.919 27.892,86.925 27.939,86.445 28.530 C 86.140 28.907,85.870 29.616,85.845 30.107 C 85.807 30.868,85.515 31.033,83.872 31.221 C 81.680 31.473,81.215 31.976,81.206 34.100 C 81.200 35.566,81.166 35.600,79.697 35.600 C 78.871 35.600,77.641 35.759,76.964 35.953 C 76.229 36.164,75.464 36.156,75.066 35.933 C 74.563 35.651,74.400 35.722,74.400 36.223 C 74.400 36.680,74.183 36.810,73.700 36.642 C 73.116 36.439,73.129 36.498,73.776 36.999 C 74.463 37.530,74.473 37.600,73.869 37.600 C 73.357 37.600,73.230 37.852,73.366 38.600 C 73.532 39.520,73.428 39.600,72.063 39.600 C 69.879 39.600,68.800 40.515,68.800 42.368 C 68.800 43.870,68.779 43.891,67.250 43.891 C 65.109 43.891,64.800 44.185,64.800 46.224 L 64.800 48.000 63.233 48.000 C 60.739 48.000,60.400 48.268,60.400 50.243 C 60.400 51.964,60.373 52.000,59.080 52.000 C 58.354 52.000,57.518 52.225,57.221 52.500 C 56.786 52.904,56.744 52.893,57.003 52.438 C 57.218 52.062,57.171 51.971,56.862 52.162 C 56.608 52.319,56.400 53.337,56.400 54.424 L 56.400 56.400 54.424 56.400 C 53.337 56.400,52.319 56.608,52.162 56.862 C 51.971 57.171,52.062 57.218,52.438 57.003 C 52.893 56.744,52.904 56.786,52.500 57.221 C 52.225 57.518,52.000 58.354,52.000 59.080 C 52.000 60.373,51.964 60.400,50.243 60.400 C 48.268 60.400,48.000 60.739,48.000 63.233 L 48.000 64.800 46.239 64.800 C 44.330 64.800,43.381 66.075,43.877 67.973 C 44.096 68.811,43.738 68.916,40.709 68.908 C 40.329 68.907,40.107 69.049,40.216 69.225 C 40.324 69.401,40.240 69.652,40.029 69.782 C 39.818 69.913,39.685 70.735,39.734 71.610 C 39.793 72.660,39.649 73.217,39.311 73.250 C 39.030 73.278,38.468 73.323,38.061 73.350 C 37.655 73.378,37.054 73.623,36.725 73.897 C 36.396 74.170,35.979 74.260,35.799 74.097 C 35.619 73.933,35.605 74.032,35.769 74.315 C 36.361 75.341,35.582 78.027,34.582 78.407 C 34.065 78.604,33.322 79.267,32.931 79.882 C 32.539 80.497,32.024 81.125,31.786 81.277 C 31.547 81.430,31.307 82.415,31.253 83.467 C 31.134 85.757,31.377 85.496,29.200 85.676 L 27.400 85.824 27.284 89.412 C 27.137 93.975,27.176 93.891,25.191 93.891 C 23.269 93.891,22.802 94.393,22.952 96.296 C 23.066 97.749,22.363 98.625,21.383 98.249 C 20.355 97.854,18.554 99.914,19.126 100.829 C 19.417 101.296,19.441 101.651,19.192 101.805 C 18.976 101.938,18.800 103.140,18.800 104.476 L 18.800 106.905 17.300 106.664 C 16.183 106.484,15.953 106.531,16.400 106.846 C 16.883 107.187,16.831 107.233,16.130 107.080 C 15.468 106.936,15.317 107.039,15.498 107.511 C 15.629 107.852,15.570 108.030,15.368 107.907 C 15.160 107.780,14.943 109.095,14.868 110.939 C 14.728 114.389,14.312 115.375,13.128 115.065 C 12.446 114.887,12.346 115.026,12.235 116.297 C 12.211 116.570,12.034 116.779,11.841 116.762 C 11.466 116.730,10.816 117.585,10.806 118.124 C 10.803 118.302,10.980 118.336,11.200 118.200 C 11.420 118.064,11.600 118.149,11.600 118.389 C 11.600 118.629,11.330 118.929,11.000 119.055 C 10.523 119.239,10.400 120.094,10.400 123.243 L 10.400 127.200 9.100 127.261 C 8.385 127.294,7.530 127.339,7.200 127.361 C 6.701 127.393,6.578 128.413,6.468 133.396 C 6.329 139.707,6.263 139.911,4.382 139.799 C 3.732 139.760,3.200 139.890,3.200 140.088 C 3.200 140.286,2.992 140.318,2.737 140.161 C 2.420 139.965,2.345 140.146,2.500 140.737 C 2.624 141.212,2.578 141.600,2.398 141.600 C 2.218 141.600,2.077 142.365,2.084 143.300 C 2.091 144.235,2.075 147.565,2.048 150.700 L 2.000 156.400 1.000 156.400 L 0.000 156.400 0.000 199.000 L 0.000 241.600 1.100 241.647 L 2.200 241.695 1.000 242.000 L -0.200 242.305 1.000 242.400 L 2.200 242.495 1.000 242.800 L -0.200 243.105 0.900 243.153 L 2.000 243.200 2.041 247.500 C 2.064 249.865,2.114 252.520,2.153 253.400 C 2.252 255.631,3.785 258.389,5.232 258.935 L 6.400 259.375 6.446 263.188 C 6.472 265.284,6.534 267.180,6.585 267.400 C 6.636 267.620,6.706 267.995,6.739 268.234 C 6.773 268.473,7.550 268.698,8.466 268.734 C 10.547 268.816,10.312 268.184,10.428 274.000 C 10.550 280.106,10.668 280.825,11.502 280.505 C 11.870 280.364,12.028 280.431,11.883 280.665 C 11.738 280.900,12.133 281.067,12.831 281.067 C 14.574 281.067,14.736 281.421,14.850 285.494 C 14.951 289.111,14.972 289.184,15.876 289.020 C 16.384 288.928,16.800 289.004,16.800 289.189 C 16.800 289.374,17.158 289.432,17.595 289.317 C 18.613 289.051,18.725 289.422,18.933 293.718 C 19.128 297.775,19.117 297.756,21.213 297.781 C 22.326 297.794,22.811 297.979,22.842 298.400 C 23.011 300.683,23.126 301.827,23.204 302.000 C 23.254 302.110,23.273 302.335,23.247 302.500 C 23.221 302.665,23.515 302.805,23.900 302.812 C 24.567 302.824,24.567 302.844,23.900 303.232 C 22.882 303.825,23.043 304.347,24.204 304.219 C 25.030 304.129,25.124 304.209,24.736 304.677 C 24.365 305.124,24.385 305.219,24.832 305.123 C 25.145 305.055,25.532 304.820,25.694 304.600 C 25.873 304.356,25.990 304.404,25.994 304.724 C 25.997 305.012,26.165 305.145,26.367 305.020 C 26.773 304.770,27.143 306.187,27.277 308.500 C 27.366 310.049,27.726 310.218,30.700 310.107 C 31.005 310.096,31.200 310.617,31.200 311.444 C 31.200 312.259,31.400 312.802,31.700 312.806 C 32.033 312.810,32.000 312.942,31.600 313.200 C 31.067 313.545,31.067 313.589,31.600 313.600 C 32.133 313.611,32.133 313.655,31.600 314.000 C 30.967 314.409,31.056 314.426,34.392 314.549 L 35.784 314.600 35.848 316.723 C 35.884 317.891,36.021 318.954,36.153 319.086 C 36.285 319.218,36.184 319.578,35.929 319.886 C 35.566 320.322,35.589 320.418,36.032 320.323 C 36.425 320.238,36.558 320.495,36.465 321.156 C 36.354 321.944,36.472 322.074,37.140 321.900 C 37.622 321.774,38.034 321.913,38.162 322.244 C 38.279 322.550,38.651 322.800,38.987 322.800 C 39.430 322.800,39.600 323.222,39.600 324.323 C 39.600 325.517,39.794 325.931,40.500 326.244 C 40.995 326.463,41.130 326.577,40.800 326.497 C 40.331 326.384,40.305 326.459,40.683 326.839 C 41.060 327.220,41.293 327.220,41.747 326.844 C 42.170 326.493,42.404 326.483,42.605 326.808 C 42.757 327.054,43.172 327.143,43.528 327.006 C 43.884 326.870,44.048 326.886,43.891 327.042 C 43.735 327.198,43.794 327.552,44.023 327.828 C 44.312 328.176,44.305 328.411,44.000 328.600 C 43.685 328.795,43.692 329.029,44.025 329.431 C 44.281 329.738,44.402 330.218,44.294 330.498 C 44.169 330.825,44.475 331.020,45.150 331.044 C 48.080 331.151,48.000 331.104,48.000 332.724 C 48.000 335.009,48.708 335.731,50.722 335.499 L 52.388 335.306 52.240 336.829 C 52.154 337.711,52.325 338.686,52.646 339.144 C 52.950 339.579,53.088 340.227,52.951 340.584 C 52.795 340.990,52.889 341.189,53.201 341.116 C 53.475 341.052,53.791 341.250,53.902 341.556 C 54.026 341.896,53.929 342.003,53.652 341.832 C 52.959 341.404,53.115 341.833,53.877 342.451 C 54.454 342.920,54.503 342.917,54.211 342.432 C 53.951 342.001,54.037 341.928,54.567 342.132 C 54.951 342.279,55.386 342.403,55.533 342.406 C 55.680 342.409,55.530 342.605,55.200 342.841 C 54.718 343.185,54.777 343.231,55.500 343.072 C 55.995 342.964,56.400 343.029,56.400 343.217 C 56.400 343.404,57.345 343.613,58.500 343.679 L 60.600 343.800 60.637 345.504 C 60.682 347.569,60.720 347.612,62.767 347.886 C 63.886 348.036,64.400 347.955,64.400 347.629 C 64.400 347.367,64.567 347.256,64.772 347.383 C 64.976 347.509,65.369 346.989,65.645 346.228 C 65.920 345.466,66.291 344.932,66.468 345.042 C 66.646 345.152,66.695 344.991,66.577 344.685 C 66.134 343.530,69.442 342.222,74.322 341.624 C 76.148 341.400,78.308 340.922,79.122 340.562 C 81.217 339.634,84.078 338.333,84.895 337.937 C 85.277 337.752,86.219 337.600,86.989 337.600 C 87.759 337.600,89.156 337.423,90.094 337.208 C 91.032 336.992,93.476 336.536,95.525 336.195 C 97.574 335.854,99.554 335.422,99.925 335.234 C 102.190 334.090,103.596 333.786,111.200 332.795 C 116.289 332.131,118.824 331.629,120.600 330.932 C 121.480 330.587,122.560 330.162,123.000 329.989 C 123.440 329.816,124.610 329.472,125.600 329.224 C 127.330 328.791,128.083 328.680,133.400 328.070 C 135.576 327.820,138.761 326.402,139.133 325.517 C 139.207 325.343,139.792 325.200,140.433 325.200 C 141.075 325.200,141.600 325.040,141.600 324.843 C 141.600 324.647,142.095 324.357,142.700 324.198 C 143.797 323.910,143.797 323.908,142.900 323.494 L 142.000 323.078 142.000 310.619 C 142.000 301.462,142.127 298.033,142.480 297.680 C 142.853 297.307,142.818 297.200,142.323 297.200 C 141.972 297.200,141.582 296.930,141.455 296.600 C 141.329 296.270,140.904 295.987,140.513 295.972 C 139.889 295.947,139.900 295.901,140.600 295.600 C 141.129 295.373,141.196 295.248,140.800 295.233 C 139.872 295.198,135.690 297.438,134.132 298.806 C 133.364 299.481,132.209 300.138,131.567 300.267 C 130.925 300.395,130.400 300.657,130.400 300.850 C 130.400 301.043,130.124 301.200,129.787 301.200 C 129.451 301.200,129.077 301.456,128.957 301.768 C 128.747 302.314,126.316 303.630,123.045 304.969 C 122.189 305.319,121.197 305.919,120.840 306.303 C 120.009 307.196,118.578 308.000,117.819 308.000 C 116.550 308.000,113.346 309.351,112.016 310.447 C 111.247 311.081,110.267 311.600,109.837 311.600 C 109.408 311.600,108.504 311.771,107.828 311.981 C 107.153 312.190,105.762 312.569,104.738 312.822 C 103.713 313.075,102.273 313.662,101.538 314.124 C 99.601 315.343,97.627 315.987,95.800 315.996 C 93.193 316.010,88.193 317.420,87.053 318.463 C 86.592 318.885,85.370 319.224,83.853 319.351 C 69.772 320.524,69.398 320.593,67.474 322.364 L 66.347 323.400 56.955 323.431 C 51.205 323.450,47.468 323.310,47.319 323.069 C 47.170 322.828,47.293 322.807,47.638 323.015 C 48.074 323.278,48.106 323.224,47.780 322.777 C 47.548 322.460,47.368 321.660,47.380 321.000 C 47.391 320.340,47.310 319.710,47.200 319.600 C 46.293 318.693,45.602 316.800,46.177 316.800 C 47.221 316.800,46.876 316.167,45.400 315.372 L 44.000 314.618 44.000 300.215 L 44.000 285.813 45.100 283.611 C 45.705 282.400,46.418 281.227,46.684 281.004 C 47.492 280.329,47.980 277.229,47.990 272.700 C 47.996 270.335,48.156 268.400,48.347 268.400 C 48.537 268.400,49.083 267.545,49.560 266.500 C 50.037 265.455,50.736 264.060,51.114 263.400 C 51.749 262.289,51.808 258.874,51.907 217.307 L 52.013 172.414 53.113 171.845 C 54.720 171.014,55.517 168.760,55.921 163.905 C 56.249 159.971,56.366 159.542,57.314 158.796 C 58.459 157.896,60.000 154.225,60.000 152.398 C 60.000 151.619,60.436 150.776,61.300 149.881 C 63.593 147.507,63.964 146.867,64.236 144.814 C 64.438 143.292,64.669 142.800,65.182 142.800 C 65.930 142.800,67.600 141.210,67.600 140.497 C 67.600 139.694,69.277 137.032,70.560 135.800 C 71.910 134.504,72.800 132.827,72.800 131.581 C 72.800 131.028,73.074 130.800,73.739 130.800 C 74.853 130.800,76.040 129.808,76.682 128.341 C 76.937 127.758,77.882 126.868,78.782 126.362 C 79.893 125.738,80.516 125.065,80.723 124.265 C 80.973 123.299,81.379 122.975,82.977 122.465 C 84.084 122.112,85.681 121.143,86.676 120.222 C 89.415 117.684,89.529 117.600,90.197 117.600 C 90.848 117.600,93.200 115.434,93.200 114.834 C 93.200 114.647,94.037 114.284,95.060 114.027 C 97.491 113.414,99.166 112.529,100.400 111.202 C 100.950 110.611,102.120 109.921,103.000 109.669 C 107.407 108.405,108.737 107.879,109.767 106.995 C 110.844 106.069,113.431 105.152,116.407 104.640 C 117.705 104.417,120.733 103.033,121.200 102.450 C 121.663 101.871,123.259 101.200,124.171 101.200 C 124.711 101.200,125.264 101.020,125.400 100.800 C 125.536 100.580,126.042 100.397,126.524 100.394 C 127.859 100.385,130.285 99.441,131.506 98.457 C 132.528 97.632,133.309 97.352,137.400 96.341 C 140.513 95.572,141.697 95.107,143.339 94.012 C 145.020 92.891,146.428 92.335,149.482 91.590 C 150.407 91.364,151.689 90.737,152.330 90.197 C 153.526 89.191,155.714 88.165,158.678 87.221 C 159.600 86.927,161.027 86.133,161.849 85.455 C 162.671 84.778,164.239 83.809,165.334 83.301 C 166.428 82.794,167.611 82.055,167.962 81.658 C 168.313 81.261,169.884 80.190,171.454 79.278 C 173.023 78.365,174.411 77.347,174.539 77.015 C 174.667 76.682,175.677 75.853,176.785 75.171 C 177.893 74.489,178.800 73.812,178.800 73.666 C 178.801 73.247,180.654 71.201,181.047 71.187 C 181.241 71.180,182.750 69.707,184.400 67.914 C 186.050 66.121,188.160 63.879,189.090 62.931 C 190.019 61.984,191.143 60.496,191.587 59.625 C 192.032 58.754,192.815 57.622,193.327 57.109 C 193.840 56.597,194.938 54.942,195.767 53.433 C 196.597 51.923,197.690 50.273,198.198 49.766 C 198.705 49.259,199.520 47.529,200.010 45.922 C 200.499 44.315,201.327 42.051,201.848 40.892 C 203.642 36.904,203.542 30.664,201.599 25.400 C 201.111 24.080,200.279 21.298,199.749 19.218 C 199.218 17.138,198.476 14.978,198.099 14.418 C 197.116 12.958,196.000 10.424,196.000 9.651 C 196.000 8.744,194.565 4.890,193.923 4.070 C 193.635 3.703,193.175 3.165,192.900 2.873 C 192.625 2.581,192.400 1.816,192.400 1.171 L 192.400 0.000 176.800 0.000 L 161.200 0.000 161.200 1.000 M64.800 351.176 C 64.800 351.383,64.980 351.664,65.200 351.800 C 65.420 351.936,65.603 351.812,65.606 351.524 C 65.610 351.204,65.727 351.156,65.906 351.400 C 66.068 351.620,66.560 351.848,67.000 351.908 C 67.668 351.998,67.635 351.918,66.800 351.422 C 65.647 350.737,64.800 350.633,64.800 351.176 M78.169 362.849 C 78.027 363.081,78.110 363.470,78.355 363.715 C 78.600 363.960,78.800 364.012,78.800 363.831 C 78.800 363.650,79.070 363.726,79.400 364.000 C 80.274 364.725,80.135 364.135,79.215 363.215 C 78.720 362.720,78.333 362.585,78.169 362.849 M91.227 371.227 C 92.186 372.186,92.377 372.198,92.138 371.283 C 92.035 370.889,91.614 370.541,91.202 370.510 C 90.481 370.456,90.482 370.482,91.227 371.227 M98.032 374.500 C 98.014 375.105,98.191 375.600,98.424 375.600 C 98.657 375.600,98.719 375.808,98.562 376.062 C 98.385 376.348,98.452 376.415,98.739 376.238 C 99.034 376.056,99.076 375.705,98.855 375.276 C 98.664 374.904,98.408 374.330,98.286 374.000 C 98.159 373.658,98.050 373.872,98.032 374.500 M124.400 386.000 C 124.400 386.639,125.991 388.053,126.415 387.791 C 126.627 387.660,126.800 387.773,126.800 388.043 C 126.800 388.313,126.920 388.413,127.067 388.267 C 127.213 388.120,126.808 387.465,126.167 386.811 C 124.952 385.573,124.400 385.320,124.400 386.000 M136.254 391.398 C 136.381 391.726,136.645 391.896,136.842 391.774 C 137.039 391.652,137.200 391.833,137.200 392.176 C 137.200 392.693,137.701 393.002,138.100 392.732 C 138.155 392.695,138.601 392.879,139.091 393.142 C 139.833 393.539,139.945 393.521,139.759 393.038 C 139.637 392.719,139.183 392.526,138.751 392.609 C 138.219 392.712,137.821 392.444,137.518 391.780 C 137.042 390.735,135.863 390.378,136.254 391.398 M153.077 396.143 C 152.944 396.490,153.019 396.888,153.244 397.027 C 153.867 397.412,154.119 396.942,153.696 396.186 C 153.359 395.584,153.293 395.580,153.077 396.143 " stroke="none" fill="#7a9af4" fill-rule="evenodd"></path><path id="path1" d="M280.239 15.418 C 279.899 15.758,279.403 16.766,279.135 17.658 C 278.854 18.598,278.218 19.558,277.625 19.940 C 276.410 20.723,275.617 21.354,273.659 23.101 C 272.856 23.817,271.361 24.950,270.336 25.620 C 269.310 26.290,268.376 27.085,268.260 27.387 C 268.144 27.689,266.981 28.662,265.675 29.549 C 264.369 30.436,263.204 31.412,263.087 31.717 C 262.970 32.023,261.879 32.934,260.662 33.741 C 259.446 34.548,258.350 35.528,258.226 35.918 C 258.102 36.308,257.428 36.965,256.728 37.379 C 256.028 37.793,254.812 38.836,254.027 39.698 C 253.242 40.560,252.130 41.513,251.555 41.815 C 250.980 42.117,249.471 43.362,248.201 44.582 C 246.931 45.802,245.753 46.800,245.582 46.800 C 245.412 46.800,244.242 47.790,242.982 49.000 C 241.723 50.210,240.479 51.200,240.218 51.200 C 239.957 51.200,239.039 52.010,238.178 53.000 C 237.317 53.990,236.411 54.800,236.164 54.800 C 235.716 54.800,233.600 57.122,233.600 57.614 C 233.600 57.757,232.970 58.213,232.200 58.628 C 231.430 59.043,230.800 59.483,230.800 59.608 C 230.800 60.050,228.081 62.707,226.938 63.382 C 226.298 63.760,225.472 64.597,225.102 65.242 C 224.732 65.886,224.114 66.535,223.728 66.683 C 223.081 66.931,221.275 68.533,216.380 73.200 C 215.342 74.190,213.111 76.260,211.422 77.800 C 209.733 79.340,207.201 81.725,205.794 83.100 C 204.387 84.475,203.083 85.600,202.895 85.600 C 202.707 85.600,201.983 86.410,201.285 87.400 C 200.587 88.390,199.745 89.200,199.414 89.200 C 199.083 89.200,198.341 89.911,197.766 90.780 C 196.692 92.403,195.225 93.600,194.312 93.600 C 194.028 93.600,193.548 94.158,193.246 94.840 C 192.944 95.523,192.010 96.558,191.171 97.140 C 190.331 97.723,189.439 98.680,189.187 99.268 C 188.935 99.855,188.161 100.858,187.465 101.496 C 186.769 102.134,185.390 103.618,184.400 104.794 C 183.410 105.970,181.925 107.637,181.100 108.499 C 180.275 109.360,179.600 110.285,179.600 110.554 C 179.600 110.822,178.700 111.961,177.600 113.085 C 176.500 114.208,175.600 115.495,175.600 115.945 C 175.600 116.672,174.185 118.483,173.323 118.859 C 173.145 118.937,172.397 120.149,171.660 121.553 C 170.923 122.957,169.818 124.596,169.205 125.195 C 168.592 125.794,167.974 126.715,167.831 127.242 C 166.990 130.350,166.551 131.341,165.559 132.380 C 164.202 133.800,163.200 135.679,163.200 136.803 C 163.200 138.531,162.279 141.214,161.336 142.231 C 160.027 143.644,159.410 145.695,158.579 151.400 C 158.160 154.281,157.498 157.043,156.924 158.309 C 154.920 162.730,154.922 179.839,156.927 185.636 C 157.504 187.306,158.161 190.186,158.387 192.036 C 159.431 200.599,159.854 202.578,161.200 205.200 C 162.236 207.218,162.662 208.701,163.207 212.200 C 163.869 216.449,164.389 218.524,164.953 219.170 C 166.074 220.453,166.704 222.287,167.164 225.600 C 168.066 232.100,168.494 234.217,169.509 237.200 C 171.272 242.377,171.015 252.067,168.995 256.600 C 168.382 257.975,167.909 259.620,167.177 262.923 C 166.812 264.564,166.341 265.515,165.569 266.165 C 164.968 266.670,163.992 268.143,163.400 269.438 C 162.808 270.732,161.801 272.224,161.162 272.754 C 160.523 273.283,160.000 273.882,160.000 274.085 C 160.000 274.585,158.217 276.972,156.016 279.418 C 155.017 280.528,153.935 281.833,153.612 282.318 C 153.288 282.803,152.838 283.202,152.612 283.204 C 152.385 283.206,151.803 283.701,151.317 284.304 C 149.575 286.467,148.502 287.600,148.194 287.600 C 148.022 287.600,146.951 288.545,145.816 289.700 C 144.680 290.855,143.182 292.250,142.487 292.800 C 141.792 293.350,141.219 294.025,141.212 294.300 C 141.205 294.575,140.975 294.803,140.700 294.806 C 140.367 294.810,140.400 294.942,140.800 295.200 C 141.299 295.522,141.265 295.593,140.600 295.619 C 139.864 295.648,139.873 295.680,140.700 296.012 C 141.195 296.211,141.600 296.560,141.600 296.787 C 141.600 297.014,141.906 297.200,142.280 297.200 C 142.809 297.200,142.853 297.307,142.480 297.680 C 141.463 298.697,141.831 323.093,142.869 323.422 L 143.738 323.698 142.769 324.271 C 141.907 324.781,142.372 324.817,147.000 324.600 C 152.252 324.354,155.965 323.607,156.774 322.631 C 157.247 322.062,159.043 321.542,163.200 320.772 C 164.630 320.507,166.610 319.877,167.600 319.374 C 169.475 318.420,170.836 317.976,174.200 317.221 C 175.555 316.917,176.522 316.398,177.200 315.611 C 177.938 314.753,178.699 314.378,180.105 314.178 C 181.153 314.029,182.108 313.748,182.229 313.554 C 182.349 313.359,182.765 313.200,183.154 313.200 C 183.882 313.200,185.598 311.640,185.602 310.974 C 185.604 310.768,187.089 310.240,188.902 309.800 C 191.956 309.059,192.252 308.897,192.899 307.600 C 193.283 306.830,193.778 306.218,193.999 306.240 C 194.219 306.262,194.760 306.307,195.200 306.340 C 195.986 306.399,196.000 306.687,196.000 323.157 C 196.000 337.803,196.077 339.944,196.610 340.148 C 198.426 340.845,207.259 339.882,207.891 338.918 C 208.589 337.852,210.774 336.800,212.287 336.800 C 214.234 336.800,217.826 335.465,219.323 334.185 C 220.161 333.469,221.631 332.686,222.590 332.444 C 223.549 332.203,224.843 331.502,225.467 330.887 C 226.641 329.727,228.326 328.837,230.893 328.018 C 231.715 327.757,232.762 327.015,233.221 326.371 C 233.679 325.727,234.217 325.200,234.415 325.200 C 235.421 325.200,239.549 322.951,240.600 321.831 C 241.260 321.127,242.520 320.310,243.400 320.015 C 244.356 319.695,245.617 318.779,246.534 317.740 C 247.378 316.783,248.289 316.000,248.559 316.000 C 249.643 316.000,252.460 314.307,252.868 313.410 C 253.108 312.884,253.865 312.247,254.552 311.994 C 256.616 311.233,256.966 310.985,257.800 309.686 C 258.240 309.001,259.091 308.262,259.692 308.044 C 260.292 307.826,261.642 306.846,262.692 305.867 C 263.741 304.887,265.364 303.689,266.297 303.204 C 267.231 302.719,268.526 301.652,269.175 300.832 C 269.824 300.012,271.085 299.013,271.977 298.610 C 272.870 298.208,273.600 297.718,273.600 297.521 C 273.600 296.906,275.343 295.397,276.700 294.838 C 277.415 294.544,278.000 294.145,278.000 293.951 C 278.000 292.950,278.719 292.157,280.492 291.207 C 281.151 290.853,282.169 289.859,282.754 288.997 C 283.340 288.134,284.452 287.096,285.226 286.688 C 286.000 286.281,286.806 285.558,287.017 285.083 C 287.227 284.608,288.160 283.711,289.088 283.091 C 290.017 282.470,291.069 281.476,291.426 280.881 C 291.783 280.287,292.778 279.307,293.638 278.704 C 294.497 278.101,295.200 277.336,295.200 277.004 C 295.200 276.672,295.380 276.400,295.600 276.400 C 295.820 276.400,295.955 276.204,295.900 275.965 C 295.845 275.726,296.418 275.190,297.174 274.776 C 297.929 274.361,299.045 273.222,299.654 272.244 C 300.262 271.266,301.130 270.349,301.582 270.206 C 302.035 270.062,302.986 269.057,303.696 267.972 C 304.406 266.888,305.228 266.000,305.522 266.000 C 306.172 266.000,306.787 265.362,307.655 263.788 C 308.015 263.135,308.972 262.157,309.782 261.616 C 310.724 260.985,311.337 260.213,311.486 259.470 C 311.631 258.743,312.275 257.913,313.206 257.254 C 314.024 256.674,315.180 255.272,315.776 254.138 C 316.372 253.003,317.431 251.543,318.129 250.894 C 318.828 250.244,319.670 249.285,320.000 248.762 C 320.330 248.240,321.301 247.089,322.159 246.206 C 323.016 245.323,323.958 244.060,324.252 243.400 C 324.937 241.862,325.536 241.158,326.900 240.285 C 327.505 239.898,328.000 239.256,328.000 238.857 C 328.000 238.459,328.135 237.998,328.300 237.833 C 328.465 237.668,328.623 237.368,328.650 237.167 C 328.678 236.965,328.723 236.649,328.750 236.465 C 328.778 236.281,329.545 235.347,330.456 234.389 C 331.367 233.432,332.469 231.828,332.905 230.824 C 333.814 228.733,334.756 227.525,335.242 227.826 C 335.426 227.940,335.690 227.580,335.829 227.027 C 336.243 225.378,338.273 221.725,339.477 220.465 C 340.108 219.804,340.916 218.223,341.320 216.858 C 341.742 215.431,342.419 214.129,342.958 213.705 C 343.913 212.954,344.953 210.974,345.363 209.128 C 345.494 208.538,345.871 207.786,346.201 207.457 C 346.530 207.127,346.800 206.692,346.800 206.491 C 346.800 206.289,347.135 205.821,347.545 205.450 C 348.390 204.685,349.297 202.680,350.056 199.900 C 350.341 198.855,350.715 198.000,350.887 198.000 C 351.059 198.000,351.200 197.812,351.200 197.583 C 351.200 197.354,351.551 196.790,351.980 196.329 C 352.409 195.869,352.867 194.931,352.998 194.246 C 353.839 189.836,354.595 187.441,355.400 186.636 C 355.894 186.142,356.490 185.122,356.723 184.369 C 357.476 181.943,358.000 179.727,358.002 178.954 C 358.007 177.471,358.853 175.183,359.725 174.299 C 360.696 173.314,361.323 171.101,362.020 166.200 C 362.559 162.417,362.982 160.828,364.096 158.400 C 365.259 155.868,365.605 154.086,365.998 148.600 C 366.568 140.649,367.759 130.314,368.184 129.626 C 368.341 129.372,368.534 127.686,368.611 125.882 C 368.689 124.077,368.871 121.250,369.016 119.600 C 369.193 117.586,369.063 115.153,368.620 112.200 C 367.293 103.358,367.017 95.623,367.994 94.646 C 368.217 94.423,368.400 93.813,368.400 93.291 C 368.400 92.770,368.670 92.073,369.000 91.743 C 369.359 91.384,369.600 91.324,369.600 91.595 C 369.600 91.844,369.783 91.934,370.007 91.796 C 370.230 91.658,370.292 91.349,370.145 91.111 C 369.983 90.849,370.063 90.792,370.345 90.966 C 370.602 91.125,370.709 91.423,370.583 91.628 C 370.456 91.832,370.745 92.000,371.225 92.000 C 371.956 92.000,372.017 91.902,371.600 91.400 C 370.942 90.607,371.371 90.628,372.171 91.429 C 372.743 92.000,372.799 91.827,372.794 89.529 C 372.786 86.173,372.485 85.879,368.789 85.615 C 368.672 85.607,368.617 84.880,368.667 84.000 C 368.716 83.120,368.575 82.400,368.354 82.400 C 368.134 82.400,368.064 82.220,368.200 82.000 C 368.336 81.780,368.212 81.573,367.924 81.540 C 366.512 81.377,365.744 81.297,365.153 81.251 C 364.636 81.210,364.466 80.586,364.311 78.169 C 364.099 74.878,363.456 73.755,361.621 73.476 C 361.083 73.394,360.602 73.163,360.554 72.963 C 360.505 72.764,360.361 71.969,360.233 71.198 C 359.987 69.714,358.825 68.892,356.727 68.719 C 355.780 68.640,355.731 68.550,356.142 67.648 C 356.480 66.906,356.474 66.625,356.118 66.506 C 355.858 66.419,355.755 66.060,355.890 65.709 C 356.054 65.284,355.979 65.166,355.668 65.358 C 355.411 65.517,355.200 65.457,355.200 65.224 C 355.200 64.991,354.490 64.800,353.622 64.800 L 352.044 64.800 351.922 62.900 C 351.855 61.855,351.620 61.030,351.400 61.066 C 351.180 61.102,350.784 60.952,350.519 60.733 C 350.255 60.513,349.669 60.451,349.217 60.595 C 348.270 60.895,348.052 60.510,347.864 58.200 C 347.792 57.320,347.524 56.578,347.267 56.550 C 347.010 56.523,346.080 56.477,345.200 56.450 L 343.600 56.400 343.600 54.451 L 343.600 52.502 341.976 52.243 C 341.082 52.100,340.182 52.087,339.976 52.215 C 339.769 52.343,339.600 51.908,339.600 51.250 C 339.600 48.868,339.000 48.060,337.133 47.924 L 335.427 47.800 335.414 46.138 C 335.406 45.224,335.277 44.552,335.128 44.645 C 334.978 44.737,334.765 44.668,334.656 44.490 C 334.546 44.313,333.784 44.122,332.962 44.067 C 331.123 43.943,330.771 43.741,331.063 42.980 C 331.599 41.584,330.401 40.049,328.559 39.773 C 327.592 39.628,326.800 39.339,326.800 39.131 C 326.800 38.923,326.575 38.880,326.300 39.035 C 325.915 39.252,325.908 39.201,326.269 38.810 C 326.768 38.269,326.556 37.315,325.756 36.505 C 325.487 36.233,323.857 35.897,322.134 35.758 C 318.422 35.460,318.833 35.710,318.633 33.633 C 318.429 31.516,318.486 31.565,316.096 31.475 C 314.683 31.422,314.164 31.254,314.299 30.895 C 314.404 30.617,314.244 30.088,313.945 29.718 C 313.477 29.141,313.484 29.094,314.000 29.382 C 314.330 29.567,314.203 29.331,313.717 28.859 C 313.231 28.386,312.556 28.000,312.217 28.000 C 311.878 28.000,311.600 27.851,311.600 27.668 C 311.600 27.486,311.285 27.338,310.900 27.340 C 307.198 27.356,306.400 27.189,306.400 26.400 C 306.400 25.960,306.245 25.600,306.055 25.600 C 305.866 25.600,305.794 25.164,305.896 24.631 C 306.067 23.739,305.925 23.639,304.141 23.388 C 303.073 23.238,301.951 22.819,301.646 22.457 C 301.141 21.858,301.112 21.858,301.315 22.450 C 301.661 23.466,300.327 23.157,299.400 22.008 C 298.960 21.462,298.645 20.877,298.700 20.708 C 298.755 20.538,298.500 20.400,298.133 20.400 C 297.767 20.400,297.586 20.281,297.731 20.136 C 298.330 19.537,296.424 18.906,293.814 18.839 C 291.054 18.769,289.753 18.216,289.718 17.098 C 289.654 15.078,289.164 14.864,284.529 14.828 C 281.723 14.807,280.711 14.946,280.239 15.418 M299.402 21.602 C 299.802 22.044,300.215 22.318,300.321 22.212 C 300.590 21.943,299.592 20.800,299.089 20.800 C 298.862 20.800,299.003 21.161,299.402 21.602 M377.200 98.621 C 377.200 98.901,379.787 100.168,380.149 100.066 C 380.341 100.012,380.392 100.245,380.262 100.584 C 380.132 100.923,380.199 101.200,380.413 101.200 C 380.972 101.200,380.889 100.274,380.252 99.403 C 379.795 98.779,377.200 98.113,377.200 98.621 M379.816 101.974 C 379.664 102.219,379.800 102.298,380.144 102.166 C 380.479 102.038,380.813 102.215,380.924 102.578 C 381.088 103.114,381.109 103.108,381.059 102.541 C 380.989 101.745,380.184 101.378,379.816 101.974 M381.426 106.758 C 381.304 106.955,381.474 107.219,381.802 107.346 C 382.165 107.485,382.400 107.344,382.400 106.987 C 382.400 106.340,381.775 106.193,381.426 106.758 M383.427 107.630 C 383.811 108.054,384.321 108.397,384.562 108.394 C 384.806 108.390,384.764 108.238,384.466 108.049 C 384.172 107.863,383.992 107.568,384.066 107.393 C 384.140 107.219,383.869 107.028,383.465 106.968 C 382.766 106.866,382.764 106.897,383.427 107.630 M384.565 109.100 C 384.728 109.389,384.626 109.603,384.324 109.606 C 383.900 109.611,383.902 109.677,384.334 109.951 C 384.628 110.137,384.853 110.404,384.834 110.545 C 384.734 111.296,384.841 111.600,385.208 111.600 C 385.691 111.600,385.291 109.591,384.690 109.000 C 384.416 108.731,384.375 108.764,384.565 109.100 M385.744 115.690 C 385.639 115.860,385.756 116.000,386.003 116.000 C 386.276 116.000,386.358 116.356,386.212 116.900 C 386.016 117.630,386.090 117.592,386.598 116.700 C 386.943 116.095,387.445 115.614,387.713 115.632 C 388.082 115.656,388.079 115.712,387.700 115.865 C 387.425 115.976,387.200 116.332,387.200 116.657 C 387.200 116.982,387.368 117.144,387.572 117.017 C 387.777 116.891,388.058 116.970,388.196 117.193 C 388.334 117.417,388.212 117.606,387.924 117.613 C 387.550 117.622,387.582 117.765,388.035 118.113 C 388.384 118.381,388.587 118.870,388.485 119.200 C 388.341 119.666,388.412 119.695,388.801 119.329 C 389.121 119.028,389.199 118.452,389.018 117.729 C 388.862 117.108,388.794 116.583,388.867 116.561 C 388.940 116.540,388.756 116.229,388.458 115.869 C 387.918 115.219,386.110 115.099,385.744 115.690 M396.500 140.252 C 396.885 140.366,397.200 140.636,397.200 140.853 C 397.200 141.070,396.975 141.112,396.700 140.947 C 396.360 140.743,396.376 140.863,396.749 141.323 C 397.454 142.193,397.500 142.178,397.445 141.105 C 397.416 140.523,397.121 140.182,396.600 140.128 C 395.978 140.064,395.956 140.092,396.500 140.252 M394.400 255.996 C 393.530 256.270,393.593 256.309,394.884 256.292 C 395.700 256.281,396.274 256.120,396.160 255.936 C 395.924 255.554,395.784 255.559,394.400 255.996 M388.004 278.596 C 387.732 278.923,387.350 279.093,387.155 278.972 C 386.960 278.851,386.800 278.943,386.800 279.176 C 386.800 279.716,387.474 279.728,387.804 279.193 C 388.092 278.727,388.800 279.050,388.800 279.647 C 388.800 279.867,388.592 279.919,388.338 279.762 C 388.065 279.593,387.984 279.651,388.141 279.904 C 388.286 280.139,388.219 280.424,387.992 280.536 C 387.766 280.648,387.797 280.698,388.061 280.646 C 388.918 280.479,389.470 279.221,388.855 278.837 C 388.394 278.550,388.394 278.463,388.855 278.280 C 389.155 278.161,389.197 278.049,388.949 278.032 C 388.701 278.014,388.276 278.268,388.004 278.596 M385.733 280.630 C 385.733 281.339,386.167 281.363,386.731 280.684 C 387.052 280.296,386.982 280.154,386.446 280.113 C 386.054 280.084,385.733 280.316,385.733 280.630 M384.667 285.467 C 384.181 285.953,384.390 286.379,385.000 286.145 C 385.330 286.018,385.600 285.754,385.600 285.557 C 385.600 285.138,385.049 285.084,384.667 285.467 M384.203 287.205 C 384.337 287.422,384.257 287.600,384.024 287.600 C 383.791 287.600,383.600 287.975,383.600 288.433 C 383.600 288.931,383.801 289.193,384.100 289.083 C 384.375 288.983,384.555 288.697,384.500 288.450 C 384.445 288.203,384.580 288.000,384.800 288.000 C 385.427 288.000,385.268 287.312,384.579 287.047 C 384.223 286.911,384.063 286.978,384.203 287.205 M381.545 289.067 C 381.221 289.457,381.222 289.600,381.551 289.600 C 381.798 289.600,382.000 289.426,382.000 289.213 C 382.000 288.999,382.270 288.929,382.600 289.055 C 382.930 289.182,383.200 289.116,383.200 288.909 C 383.200 288.347,382.051 288.456,381.545 289.067 M380.000 296.824 C 380.000 297.057,379.820 297.136,379.600 297.000 C 379.380 296.864,379.200 296.943,379.200 297.176 C 379.200 297.788,379.822 297.697,380.400 297.000 C 380.744 296.585,380.759 296.400,380.449 296.400 C 380.202 296.400,380.000 296.591,380.000 296.824 M373.723 303.091 C 373.241 303.581,373.016 304.087,373.223 304.215 C 373.431 304.343,373.600 304.627,373.600 304.847 C 373.600 305.067,373.420 305.136,373.200 305.000 C 372.980 304.864,372.800 304.943,372.800 305.176 C 372.800 305.743,373.039 305.714,374.640 304.954 C 375.388 304.599,376.000 304.074,376.000 303.787 C 376.000 303.500,376.109 302.981,376.243 302.633 C 376.411 302.195,376.257 302.002,375.743 302.006 C 375.117 302.011,375.094 302.073,375.600 302.400 C 376.119 302.735,376.110 302.789,375.533 302.794 C 375.167 302.797,374.807 302.665,374.733 302.500 C 374.660 302.335,374.206 302.601,373.723 303.091 M374.869 303.971 C 374.501 304.361,374.037 304.535,373.837 304.357 C 373.333 303.908,374.325 302.796,374.998 303.055 C 375.429 303.220,375.403 303.405,374.869 303.971 M372.440 308.600 C 372.410 309.283,372.261 309.600,372.093 309.336 C 371.882 309.005,371.528 309.091,370.855 309.636 C 370.140 310.215,370.068 310.400,370.556 310.400 C 370.910 310.400,371.200 310.226,371.200 310.013 C 371.200 309.799,371.468 309.728,371.797 309.854 C 372.484 310.118,372.957 309.191,372.680 308.123 C 372.567 307.685,372.472 307.872,372.440 308.600 M367.846 314.326 C 367.680 314.594,367.349 314.692,367.111 314.545 C 366.849 314.383,366.792 314.463,366.966 314.745 C 367.125 315.002,367.451 315.092,367.689 314.945 C 367.949 314.784,368.009 314.863,367.838 315.139 C 367.637 315.463,367.326 315.482,366.802 315.201 C 365.905 314.721,365.179 314.672,365.919 315.141 C 366.333 315.404,366.313 315.574,365.819 315.984 C 365.315 316.403,365.200 316.402,365.200 315.982 C 365.200 315.699,365.095 315.571,364.968 315.699 C 364.840 315.827,364.930 316.296,365.169 316.741 C 365.486 317.334,365.478 317.628,365.139 317.838 C 364.863 318.009,364.784 317.949,364.945 317.689 C 365.092 317.451,364.985 317.124,364.707 316.964 C 364.428 316.803,364.329 316.814,364.486 316.988 C 364.643 317.163,364.600 317.626,364.390 318.019 C 364.027 318.698,364.089 318.701,365.659 318.084 C 366.866 317.610,367.462 317.072,367.876 316.081 C 368.453 314.700,368.430 313.381,367.846 314.326 M366.869 316.753 C 366.449 317.187,366.097 317.292,365.923 317.035 C 365.541 316.473,366.336 315.601,366.998 315.855 C 367.429 316.020,367.403 316.202,366.869 316.753 M363.057 321.292 C 363.234 321.579,363.096 321.646,362.666 321.481 C 362.300 321.340,362.000 321.378,362.000 321.566 C 362.000 321.753,361.595 322.043,361.100 322.210 C 360.255 322.494,360.272 322.524,361.388 322.692 C 362.048 322.791,362.641 322.676,362.722 322.433 C 362.803 322.192,363.053 322.109,363.279 322.249 C 363.505 322.388,363.847 322.254,364.039 321.951 C 364.554 321.137,364.485 320.977,363.591 320.909 C 363.091 320.872,362.887 321.018,363.057 321.292 M349.525 336.200 C 349.047 336.750,348.408 337.200,348.104 337.200 C 347.801 337.200,347.664 337.380,347.801 337.601 C 348.149 338.164,349.333 337.466,350.153 336.216 C 351.005 334.915,350.651 334.906,349.525 336.200 M345.639 340.345 C 345.191 340.975,344.916 341.583,345.029 341.696 C 345.142 341.809,344.966 342.004,344.638 342.130 C 344.213 342.293,344.103 342.163,344.258 341.680 C 344.443 341.100,344.412 341.089,344.044 341.600 C 343.457 342.416,343.493 342.800,344.156 342.800 C 345.123 342.800,346.488 341.398,346.611 340.279 C 346.760 338.922,346.647 338.929,345.639 340.345 M340.200 345.479 C 338.456 347.373,338.099 348.000,338.767 348.000 C 339.005 348.000,339.200 347.734,339.200 347.409 C 339.200 347.084,339.657 346.519,340.216 346.153 C 341.149 345.542,342.246 344.061,341.932 343.837 C 341.860 343.785,341.080 344.524,340.200 345.479 M330.503 353.333 C 330.168 354.070,330.196 354.267,330.639 354.267 C 330.960 354.267,331.200 353.867,331.200 353.333 C 331.200 352.820,331.139 352.400,331.064 352.400 C 330.990 352.400,330.737 352.820,330.503 353.333 M326.524 356.832 C 326.694 357.481,326.598 357.608,326.083 357.410 C 325.721 357.271,325.536 357.269,325.672 357.405 C 326.127 357.861,324.223 359.435,323.437 359.252 C 322.933 359.134,322.772 359.231,322.961 359.537 C 323.142 359.830,322.946 360.000,322.424 360.000 C 321.971 360.000,321.600 360.178,321.600 360.395 C 321.600 360.613,321.195 360.748,320.700 360.695 C 320.038 360.625,319.831 360.785,319.918 361.300 C 319.982 361.685,319.858 362.000,319.641 362.000 C 319.423 362.000,319.315 361.640,319.400 361.200 C 319.493 360.718,319.339 360.400,319.012 360.400 C 318.611 360.400,318.551 360.688,318.780 361.500 C 318.951 362.105,319.309 362.551,319.575 362.490 C 319.841 362.430,319.944 362.568,319.802 362.797 C 319.661 363.026,319.393 363.120,319.208 363.005 C 318.655 362.663,317.636 363.228,317.841 363.762 C 317.946 364.035,318.638 364.246,319.380 364.229 C 320.122 364.213,320.656 364.126,320.567 364.036 C 320.478 363.946,320.750 363.630,321.171 363.335 C 321.592 363.040,322.055 362.259,322.200 361.600 C 322.419 360.601,322.659 360.400,323.632 360.400 C 324.274 360.400,324.800 360.251,324.800 360.068 C 324.800 359.886,325.205 359.751,325.700 359.768 C 326.385 359.792,326.592 359.585,326.568 358.900 C 326.551 358.405,326.665 358.000,326.822 358.000 C 326.978 358.000,327.193 357.550,327.298 357.000 C 327.432 356.298,327.313 356.000,326.898 356.000 C 326.496 356.000,326.376 356.266,326.524 356.832 M314.000 367.447 C 314.000 367.888,313.756 368.029,313.230 367.892 C 312.716 367.758,312.525 367.860,312.656 368.201 C 312.948 368.963,314.400 368.424,314.400 367.553 C 314.400 367.139,314.310 366.800,314.200 366.800 C 314.090 366.800,314.000 367.091,314.000 367.447 M306.353 369.500 C 306.327 369.885,306.334 370.425,306.370 370.700 C 306.406 370.975,306.253 371.200,306.030 371.200 C 305.807 371.200,305.740 371.500,305.881 371.866 C 306.052 372.313,305.983 372.436,305.668 372.242 C 305.411 372.083,305.200 372.143,305.200 372.376 C 305.200 373.561,308.728 371.862,309.353 370.377 C 309.628 369.722,310.005 369.325,310.191 369.493 C 310.376 369.662,310.399 369.575,310.241 369.300 C 310.082 369.025,309.413 368.800,308.753 368.800 C 307.909 368.800,307.637 368.948,307.835 369.300 C 308.061 369.700,308.010 369.700,307.579 369.300 C 306.831 368.606,306.408 368.675,306.353 369.500 M300.911 373.951 C 301.400 374.489,301.577 374.801,301.305 374.644 C 300.979 374.456,300.885 374.557,301.032 374.939 C 301.347 375.759,300.640 376.071,299.473 375.628 C 298.694 375.332,298.337 375.407,297.822 375.975 C 296.610 377.315,299.781 377.409,301.308 376.079 C 302.402 375.125,302.126 372.799,300.930 372.897 L 300.023 372.973 300.911 373.951 M292.800 377.200 C 292.470 377.413,292.389 377.591,292.620 377.594 C 293.643 377.609,293.049 379.600,292.020 379.606 C 291.215 379.611,291.126 379.694,291.600 380.000 C 292.267 380.431,292.254 380.439,290.695 380.578 C 290.087 380.633,289.473 380.794,289.330 380.937 C 289.187 381.080,289.814 381.125,290.725 381.037 C 292.806 380.837,293.439 380.197,293.433 378.300 C 293.431 377.475,293.422 376.803,293.414 376.806 C 293.406 376.809,293.130 376.987,292.800 377.200 M284.988 381.522 C 284.471 381.892,284.307 382.800,284.757 382.800 C 285.111 382.800,285.731 381.598,285.498 381.364 C 285.431 381.298,285.202 381.369,284.988 381.522 M284.341 383.495 C 283.979 383.576,283.590 383.993,283.478 384.421 C 283.220 385.411,283.399 385.401,284.433 384.367 C 285.350 383.450,285.331 383.273,284.341 383.495 M281.267 385.067 C 280.993 385.360,280.941 385.600,281.152 385.600 C 281.802 385.600,282.800 385.130,282.800 384.824 C 282.800 384.340,281.798 384.498,281.267 385.067 M274.471 386.851 C 273.814 387.661,273.730 387.925,274.182 387.752 C 274.791 387.518,275.812 386.057,275.532 385.818 C 275.460 385.756,274.982 386.221,274.471 386.851 M272.218 388.639 C 271.867 388.990,271.320 389.178,271.003 389.056 C 270.685 388.935,270.336 388.980,270.226 389.158 C 270.116 389.335,270.516 389.445,271.113 389.403 C 272.635 389.294,272.687 389.271,272.945 388.600 C 273.241 387.828,273.017 387.840,272.218 388.639 M260.219 390.100 C 260.133 390.375,259.898 391.140,259.696 391.800 C 259.443 392.629,259.073 393.000,258.501 393.000 C 258.045 393.000,257.521 393.160,257.336 393.355 C 256.669 394.060,261.750 393.244,262.776 392.481 C 263.983 391.585,264.414 389.600,263.403 389.600 C 262.999 389.600,262.860 389.789,263.035 390.100 C 263.261 390.500,263.210 390.500,262.779 390.100 C 262.482 389.825,261.820 389.600,261.307 389.600 C 260.795 389.600,260.305 389.825,260.219 390.100 M243.833 394.054 C 243.955 394.251,244.251 394.292,244.489 394.145 C 244.742 393.988,244.809 394.062,244.649 394.321 C 244.498 394.565,244.133 394.672,243.837 394.559 C 243.163 394.300,243.080 396.460,243.747 396.894 C 243.999 397.058,243.668 397.208,243.000 397.234 C 242.340 397.259,241.350 397.422,240.800 397.596 C 240.127 397.809,240.584 397.876,242.200 397.802 C 245.656 397.643,248.643 395.620,247.654 394.110 C 247.334 393.622,243.532 393.566,243.833 394.054 M216.000 399.000 C 216.000 399.550,216.180 400.000,216.400 400.000 C 216.620 400.000,216.800 399.550,216.800 399.000 C 216.800 398.450,216.620 398.000,216.400 398.000 C 216.180 398.000,216.000 398.450,216.000 399.000 " stroke="none" fill="#df82ed" fill-rule="evenodd"></path><path id="path2" d="M156.400 1.129 C 156.400 2.232,156.447 2.256,158.500 2.189 C 161.294 2.099,161.200 2.140,161.200 1.000 C 161.200 0.044,161.093 0.000,158.800 0.000 C 156.434 0.000,156.400 0.016,156.400 1.129 M192.400 1.171 C 192.400 1.816,192.625 2.581,192.900 2.873 C 193.175 3.165,193.635 3.703,193.923 4.070 C 194.565 4.890,196.000 8.744,196.000 9.651 C 196.000 10.424,197.116 12.958,198.099 14.418 C 198.476 14.978,199.218 17.138,199.749 19.218 C 200.279 21.298,201.111 24.080,201.599 25.400 C 203.542 30.664,203.642 36.904,201.848 40.892 C 201.327 42.051,200.499 44.315,200.010 45.922 C 199.520 47.529,198.705 49.259,198.198 49.766 C 197.690 50.273,196.597 51.923,195.767 53.433 C 194.938 54.942,193.840 56.597,193.327 57.109 C 192.815 57.622,192.032 58.754,191.587 59.625 C 191.143 60.496,190.019 61.984,189.090 62.931 C 188.160 63.879,186.050 66.121,184.400 67.914 C 182.750 69.707,181.241 71.180,181.047 71.187 C 180.654 71.201,178.801 73.247,178.800 73.666 C 178.800 73.812,177.893 74.489,176.785 75.171 C 175.677 75.853,174.667 76.682,174.539 77.015 C 174.411 77.347,173.023 78.365,171.454 79.278 C 169.884 80.190,168.313 81.261,167.962 81.658 C 167.611 82.055,166.428 82.794,165.334 83.301 C 164.239 83.809,162.671 84.778,161.849 85.455 C 161.027 86.133,159.600 86.927,158.678 87.221 C 155.714 88.165,153.526 89.191,152.330 90.197 C 151.689 90.737,150.407 91.364,149.482 91.590 C 146.428 92.335,145.020 92.891,143.339 94.012 C 141.697 95.107,140.513 95.572,137.400 96.341 C 133.309 97.352,132.528 97.632,131.506 98.457 C 130.285 99.441,127.859 100.385,126.524 100.394 C 126.042 100.397,125.536 100.580,125.400 100.800 C 125.264 101.020,124.711 101.200,124.171 101.200 C 123.259 101.200,121.663 101.871,121.200 102.450 C 120.733 103.033,117.705 104.417,116.407 104.640 C 113.431 105.152,110.844 106.069,109.767 106.995 C 108.737 107.879,107.407 108.405,103.000 109.669 C 102.120 109.921,100.950 110.611,100.400 111.202 C 99.166 112.529,97.491 113.414,95.060 114.027 C 94.037 114.284,93.200 114.647,93.200 114.834 C 93.200 115.434,90.848 117.600,90.197 117.600 C 89.529 117.600,89.415 117.684,86.676 120.222 C 85.681 121.143,84.084 122.112,82.977 122.465 C 81.379 122.975,80.973 123.299,80.723 124.265 C 80.516 125.065,79.893 125.738,78.782 126.362 C 77.882 126.868,76.937 127.758,76.682 128.341 C 76.040 129.808,74.853 130.800,73.739 130.800 C 73.074 130.800,72.800 131.028,72.800 131.581 C 72.800 132.827,71.910 134.504,70.560 135.800 C 69.239 137.069,67.600 139.701,67.600 140.553 C 67.600 141.248,65.891 142.800,65.126 142.800 C 64.680 142.800,64.427 143.372,64.236 144.814 C 63.964 146.867,63.593 147.507,61.300 149.881 C 60.436 150.776,60.000 151.619,60.000 152.398 C 60.000 154.225,58.459 157.896,57.314 158.796 C 56.366 159.542,56.249 159.971,55.921 163.905 C 55.517 168.760,54.720 171.014,53.113 171.845 L 52.013 172.414 51.907 217.307 C 51.808 258.874,51.749 262.289,51.114 263.400 C 50.736 264.060,50.037 265.455,49.560 266.500 C 49.083 267.545,48.537 268.400,48.347 268.400 C 48.156 268.400,47.996 270.335,47.990 272.700 C 47.980 277.229,47.492 280.329,46.684 281.004 C 46.418 281.227,45.705 282.400,45.100 283.611 L 44.000 285.813 44.000 300.215 L 44.000 314.618 45.400 315.372 C 46.876 316.167,47.221 316.800,46.177 316.800 C 45.602 316.800,46.293 318.693,47.200 319.600 C 47.310 319.710,47.391 320.340,47.380 321.000 C 47.368 321.660,47.548 322.460,47.780 322.777 C 48.106 323.224,48.074 323.278,47.638 323.015 C 47.293 322.807,47.170 322.828,47.319 323.069 C 47.468 323.310,51.205 323.450,56.955 323.431 L 66.347 323.400 67.474 322.364 C 69.398 320.593,69.772 320.524,83.853 319.351 C 85.370 319.224,86.592 318.885,87.053 318.463 C 88.193 317.420,93.193 316.010,95.800 315.996 C 97.627 315.987,99.601 315.343,101.538 314.124 C 102.273 313.662,103.713 313.075,104.738 312.822 C 105.762 312.569,107.153 312.190,107.828 311.981 C 108.504 311.771,109.408 311.600,109.837 311.600 C 110.267 311.600,111.247 311.081,112.016 310.447 C 113.346 309.351,116.550 308.000,117.819 308.000 C 118.578 308.000,120.009 307.196,120.840 306.303 C 121.197 305.919,122.189 305.319,123.045 304.969 C 126.316 303.630,128.747 302.314,128.957 301.768 C 129.077 301.456,129.451 301.200,129.787 301.200 C 130.124 301.200,130.400 301.043,130.400 300.850 C 130.400 300.657,130.925 300.395,131.567 300.267 C 132.209 300.138,133.394 299.454,134.200 298.746 C 135.006 298.039,136.550 297.050,137.630 296.549 C 139.537 295.666,141.461 294.051,145.791 289.700 C 146.940 288.545,148.043 287.598,148.240 287.596 C 148.438 287.594,148.997 287.099,149.483 286.496 C 151.290 284.251,152.303 283.200,152.658 283.200 C 152.859 283.200,153.288 282.803,153.612 282.318 C 153.935 281.833,155.017 280.528,156.016 279.418 C 158.217 276.972,160.000 274.585,160.000 274.085 C 160.000 273.882,160.523 273.283,161.162 272.754 C 161.801 272.224,162.808 270.732,163.400 269.438 C 163.992 268.143,164.968 266.670,165.569 266.165 C 166.341 265.515,166.812 264.564,167.177 262.923 C 167.909 259.620,168.382 257.975,168.995 256.600 C 171.015 252.067,171.272 242.377,169.509 237.200 C 168.494 234.217,168.066 232.100,167.164 225.600 C 166.704 222.287,166.074 220.453,164.953 219.170 C 164.389 218.524,163.869 216.449,163.207 212.200 C 162.662 208.701,162.236 207.218,161.200 205.200 C 159.854 202.578,159.431 200.599,158.387 192.036 C 158.161 190.186,157.504 187.306,156.927 185.636 C 154.922 179.839,154.920 162.730,156.924 158.309 C 157.498 157.043,158.160 154.281,158.579 151.400 C 159.410 145.695,160.027 143.644,161.336 142.231 C 162.279 141.214,163.200 138.531,163.200 136.803 C 163.200 135.679,164.202 133.800,165.559 132.380 C 166.551 131.341,166.990 130.350,167.831 127.242 C 167.974 126.715,168.592 125.794,169.205 125.195 C 169.818 124.596,170.923 122.957,171.660 121.553 C 172.397 120.149,173.145 118.937,173.323 118.859 C 174.185 118.483,175.600 116.672,175.600 115.945 C 175.600 115.495,176.500 114.208,177.600 113.085 C 178.700 111.961,179.600 110.822,179.600 110.554 C 179.600 110.285,180.275 109.360,181.100 108.499 C 181.925 107.637,183.410 105.970,184.400 104.794 C 185.390 103.618,186.769 102.134,187.465 101.496 C 188.161 100.858,188.935 99.855,189.187 99.268 C 189.439 98.680,190.331 97.723,191.171 97.140 C 192.010 96.558,192.944 95.523,193.246 94.840 C 193.548 94.158,194.028 93.600,194.312 93.600 C 195.225 93.600,196.692 92.403,197.766 90.780 C 198.341 89.911,199.083 89.200,199.414 89.200 C 199.745 89.200,200.587 88.390,201.285 87.400 C 201.983 86.410,202.707 85.600,202.895 85.600 C 203.083 85.600,204.387 84.475,205.794 83.100 C 207.201 81.725,209.733 79.340,211.422 77.800 C 213.111 76.260,215.342 74.190,216.380 73.200 C 221.275 68.533,223.081 66.931,223.728 66.683 C 224.114 66.535,224.732 65.886,225.102 65.242 C 225.472 64.597,226.298 63.760,226.938 63.382 C 228.081 62.707,230.800 60.050,230.800 59.608 C 230.800 59.483,231.430 59.043,232.200 58.628 C 232.970 58.213,233.600 57.757,233.600 57.614 C 233.600 57.122,235.716 54.800,236.164 54.800 C 236.411 54.800,237.317 53.990,238.178 53.000 C 239.039 52.010,239.957 51.200,240.218 51.200 C 240.479 51.200,241.723 50.210,242.982 49.000 C 244.242 47.790,245.412 46.800,245.582 46.800 C 245.753 46.800,246.931 45.802,248.201 44.582 C 249.471 43.362,250.980 42.117,251.555 41.815 C 252.130 41.513,253.242 40.560,254.027 39.698 C 254.812 38.836,256.028 37.793,256.728 37.379 C 257.428 36.965,258.102 36.308,258.226 35.918 C 258.350 35.528,259.446 34.548,260.662 33.741 C 261.879 32.934,262.970 32.023,263.087 31.717 C 263.204 31.412,264.369 30.436,265.675 29.549 C 266.981 28.662,268.144 27.689,268.260 27.387 C 268.376 27.085,269.310 26.290,270.336 25.620 C 271.361 24.950,272.856 23.817,273.659 23.101 C 275.617 21.354,276.410 20.723,277.625 19.940 C 278.218 19.558,278.854 18.598,279.135 17.658 C 279.844 15.292,280.511 14.800,283.008 14.800 L 285.158 14.800 284.642 13.300 C 283.883 11.092,282.378 10.635,275.300 10.461 C 272.935 10.403,272.800 10.348,272.800 9.426 C 272.800 8.890,272.624 7.990,272.410 7.426 L 272.020 6.400 266.210 6.400 C 261.312 6.400,260.400 6.306,260.400 5.800 C 260.400 5.470,260.175 5.197,259.900 5.194 C 259.512 5.189,259.516 5.114,259.916 4.861 C 260.757 4.327,259.825 2.411,258.711 2.387 C 258.210 2.376,255.640 2.307,253.000 2.233 C 250.360 2.158,247.165 2.076,245.900 2.049 C 243.726 2.003,243.600 1.945,243.600 1.000 L 243.600 0.000 218.000 0.000 L 192.400 0.000 192.400 1.171 M142.152 2.581 C 142.029 2.900,142.048 3.355,142.194 3.591 C 142.340 3.827,142.311 3.987,142.130 3.946 C 141.607 3.830,140.400 4.451,140.400 4.836 C 140.400 5.029,141.042 4.826,141.826 4.386 C 142.610 3.945,143.420 3.689,143.626 3.816 C 143.832 3.943,144.000 3.587,144.000 3.024 C 144.000 1.876,142.555 1.530,142.152 2.581 M139.824 3.447 C 139.479 4.822,139.617 4.896,140.806 3.976 C 141.648 3.323,141.708 3.145,141.200 2.809 C 140.300 2.214,140.111 2.302,139.824 3.447 M127.507 6.681 C 127.128 7.418,127.224 9.232,127.629 8.982 C 127.862 8.838,127.954 8.621,127.833 8.499 C 127.712 8.378,127.896 8.072,128.242 7.819 C 128.801 7.410,128.804 7.302,128.272 6.860 C 127.941 6.585,127.597 6.505,127.507 6.681 M128.945 6.678 C 129.377 7.111,130.400 7.171,130.400 6.765 C 130.400 6.564,130.010 6.400,129.533 6.400 C 129.057 6.400,128.792 6.525,128.945 6.678 M117.800 10.884 C 115.540 11.676,114.689 12.975,115.545 14.325 C 115.796 14.720,116.311 14.448,117.622 13.225 C 118.872 12.059,119.164 11.600,118.656 11.600 C 117.562 11.600,116.391 12.362,116.003 13.326 C 115.744 13.968,115.644 14.022,115.625 13.529 C 115.598 12.800,117.387 11.200,118.230 11.200 C 118.518 11.200,118.864 11.020,119.000 10.800 C 119.136 10.580,119.192 10.414,119.124 10.432 C 119.056 10.449,118.460 10.652,117.800 10.884 M107.685 15.491 C 107.382 15.909,107.271 15.953,107.415 15.600 C 107.549 15.270,107.376 15.349,107.030 15.776 C 105.993 17.055,106.349 18.685,107.662 18.673 C 108.067 18.669,108.240 18.447,108.106 18.100 C 107.927 17.633,107.829 17.627,107.550 18.066 C 107.341 18.396,107.210 18.426,107.206 18.144 C 107.203 17.894,107.515 17.345,107.900 16.925 C 108.285 16.506,108.439 16.400,108.243 16.691 C 107.858 17.261,108.182 17.789,108.933 17.818 C 109.190 17.828,109.355 18.053,109.300 18.318 C 109.165 18.970,109.399 18.924,110.019 18.177 C 110.444 17.665,110.439 17.576,109.986 17.677 C 109.604 17.763,109.431 17.375,109.418 16.405 C 109.398 14.821,108.512 14.354,107.685 15.491 M288.800 15.128 C 289.349 15.377,289.550 15.781,289.760 17.060 C 289.988 18.449,293.600 19.709,293.600 18.400 C 293.600 18.180,293.426 18.000,293.213 18.000 C 292.999 18.000,292.923 17.744,293.043 17.431 C 293.405 16.488,292.431 15.099,291.566 15.325 C 291.145 15.435,290.800 15.362,290.800 15.163 C 290.800 14.963,290.215 14.813,289.500 14.828 C 288.703 14.845,288.432 14.961,288.800 15.128 M100.400 19.104 C 100.400 19.302,99.995 19.449,99.500 19.432 C 98.791 19.407,98.621 19.596,98.699 20.323 C 98.761 20.898,98.636 21.146,98.369 20.981 C 98.091 20.809,97.985 21.119,98.069 21.857 C 98.194 22.944,98.297 23.000,100.200 23.000 L 102.200 23.000 102.200 21.000 C 102.200 19.230,102.096 18.985,101.300 18.872 C 100.805 18.802,100.400 18.906,100.400 19.104 M297.200 19.254 C 297.200 19.444,297.391 19.600,297.624 19.600 C 297.857 19.600,297.936 19.780,297.800 20.000 C 297.664 20.220,297.833 20.400,298.176 20.400 C 298.519 20.400,298.755 20.538,298.700 20.708 C 298.534 21.219,300.155 22.997,300.830 23.044 C 301.582 23.096,301.650 20.690,300.918 19.958 C 300.345 19.385,297.200 18.789,297.200 19.254 M300.008 21.410 C 300.781 22.341,300.229 22.517,299.402 21.602 C 299.003 21.161,298.862 20.800,299.089 20.800 C 299.316 20.800,299.730 21.074,300.008 21.410 M302.433 22.943 C 302.525 23.021,303.230 23.201,304.000 23.342 C 304.985 23.523,305.222 23.482,304.800 23.206 C 304.258 22.850,302.037 22.603,302.433 22.943 M85.826 27.557 C 85.676 27.801,85.788 28.003,86.076 28.006 C 86.489 28.011,86.484 28.086,86.051 28.360 C 85.749 28.551,85.570 28.910,85.653 29.158 C 85.740 29.419,85.997 29.297,86.265 28.868 C 86.519 28.461,86.586 27.900,86.413 27.622 C 86.192 27.263,86.020 27.244,85.826 27.557 M311.600 27.650 C 311.600 27.843,311.883 28.000,312.229 28.000 C 312.856 28.000,314.319 29.198,314.067 29.505 C 313.993 29.594,314.001 29.734,314.083 29.816 C 314.165 29.898,314.259 29.613,314.291 29.183 C 314.324 28.752,314.181 28.400,313.975 28.400 C 313.769 28.400,313.600 28.152,313.600 27.850 C 313.600 27.530,313.182 27.300,312.600 27.300 C 312.050 27.300,311.600 27.457,311.600 27.650 M325.603 36.403 C 326.112 36.844,326.615 37.118,326.721 37.012 C 327.045 36.688,325.942 35.600,325.290 35.600 C 324.844 35.600,324.929 35.818,325.603 36.403 M35.840 73.535 C 35.713 73.741,35.861 74.118,36.169 74.374 C 36.500 74.649,36.823 74.686,36.960 74.465 C 37.087 74.259,36.939 73.882,36.631 73.626 C 36.300 73.351,35.977 73.314,35.840 73.535 M362.900 73.700 C 362.991 73.975,363.399 74.264,363.805 74.343 C 364.483 74.475,364.491 74.434,363.900 73.843 C 363.132 73.075,362.670 73.008,362.900 73.700 M364.400 79.613 C 364.400 80.600,364.589 81.212,364.900 81.231 C 365.175 81.247,365.691 81.318,366.046 81.387 C 368.149 81.798,367.491 79.169,365.288 78.354 C 364.465 78.050,364.400 78.142,364.400 79.613 M11.700 115.300 C 11.755 115.575,11.614 115.768,11.386 115.729 C 11.158 115.689,10.939 115.959,10.900 116.329 C 10.861 116.698,10.778 117.398,10.715 117.884 C 10.594 118.812,11.264 119.209,11.542 118.374 C 11.635 118.096,11.511 118.008,11.252 118.168 C 11.003 118.322,10.803 118.302,10.806 118.124 C 10.816 117.599,11.463 116.728,11.810 116.773 C 11.986 116.795,12.179 116.361,12.238 115.807 C 12.297 115.253,12.178 114.800,11.973 114.800 C 11.768 114.800,11.645 115.025,11.700 115.300 M396.988 256.019 C 396.846 256.250,396.430 256.409,396.065 256.373 C 393.946 256.165,393.600 256.365,393.600 257.800 C 393.600 259.914,395.277 259.492,396.741 257.010 C 397.463 255.786,397.687 254.888,396.988 256.019 M387.400 280.800 C 386.293 281.082,386.277 281.109,387.200 281.147 C 387.750 281.169,388.470 281.013,388.800 280.800 C 389.481 280.360,389.129 280.360,387.400 280.800 M375.500 304.491 C 374.361 305.744,374.026 306.408,374.900 305.683 C 375.175 305.455,375.535 305.253,375.700 305.234 C 375.865 305.215,375.985 305.085,375.966 304.945 C 375.947 304.804,376.149 304.555,376.415 304.391 C 376.680 304.227,376.831 303.910,376.749 303.687 C 376.667 303.464,376.105 303.826,375.500 304.491 M23.336 304.503 C 22.932 305.157,24.123 306.000,25.449 306.000 C 26.406 306.000,26.800 305.818,26.800 305.376 C 26.800 305.033,26.620 304.864,26.400 305.000 C 26.180 305.136,25.997 305.012,25.994 304.724 C 25.989 304.343,25.882 304.364,25.600 304.800 C 25.387 305.130,25.209 305.243,25.206 305.051 C 25.203 304.859,24.946 304.913,24.636 305.170 C 24.203 305.529,24.002 305.526,23.774 305.158 C 23.597 304.871,23.645 304.781,23.893 304.934 C 24.122 305.075,24.500 304.962,24.733 304.681 C 25.052 304.297,24.957 304.171,24.348 304.171 C 23.905 304.171,23.449 304.321,23.336 304.503 M28.100 310.276 C 28.485 310.376,29.115 310.376,29.500 310.276 C 29.885 310.175,29.570 310.093,28.800 310.093 C 28.030 310.093,27.715 310.175,28.100 310.276 M31.670 315.947 C 31.726 317.900,32.210 318.400,34.049 318.400 C 35.245 318.400,35.609 318.560,35.638 319.100 C 35.658 319.485,35.703 320.425,35.738 321.190 C 35.794 322.451,35.919 322.589,37.085 322.684 C 38.038 322.761,38.316 322.646,38.159 322.238 C 38.034 321.912,37.619 321.774,37.140 321.900 C 36.523 322.061,36.350 321.932,36.411 321.356 C 36.456 320.940,36.458 320.510,36.415 320.400 C 36.155 319.720,35.961 318.343,35.881 316.600 L 35.789 314.600 33.708 314.547 L 31.628 314.494 31.670 315.947 M367.818 316.743 C 367.688 317.151,367.181 317.682,366.691 317.922 L 365.800 318.359 366.690 318.256 C 367.777 318.131,368.118 317.816,368.274 316.790 C 368.427 315.791,368.130 315.761,367.818 316.743 M39.817 326.373 C 39.672 326.608,39.698 326.815,39.876 326.834 C 42.237 327.085,43.756 326.878,41.888 326.560 C 41.620 326.515,41.103 326.358,40.740 326.211 C 40.378 326.065,39.962 326.138,39.817 326.373 M43.805 329.192 C 43.424 329.809,44.355 331.205,45.114 331.154 C 45.747 331.111,45.746 331.093,45.100 330.924 C 44.487 330.764,44.200 330.065,44.353 329.100 C 44.420 328.673,44.091 328.729,43.805 329.192 M349.723 336.993 C 348.672 338.094,348.558 338.375,349.080 338.576 C 349.859 338.874,351.304 337.649,351.027 336.925 C 350.916 336.636,350.999 336.400,351.213 336.400 C 351.426 336.400,351.600 336.220,351.600 336.000 C 351.600 335.313,351.047 335.606,349.723 336.993 M346.343 341.644 C 345.762 342.283,345.455 342.910,345.661 343.038 C 346.079 343.296,347.338 342.404,347.013 342.080 C 346.900 341.966,347.011 341.628,347.260 341.327 C 348.164 340.239,347.373 340.512,346.343 341.644 M52.976 341.238 C 52.827 341.479,52.996 341.930,53.351 342.240 C 53.706 342.549,53.818 342.586,53.599 342.321 C 53.054 341.664,53.095 341.088,53.662 341.438 C 53.948 341.615,54.015 341.548,53.838 341.262 C 53.483 340.687,53.320 340.683,52.976 341.238 M341.998 344.805 C 341.726 345.462,341.379 346.000,341.228 346.000 C 340.368 346.000,339.563 347.027,340.375 347.088 C 340.829 347.122,341.200 346.971,341.200 346.752 C 341.200 346.532,341.360 346.451,341.555 346.572 C 341.750 346.693,342.155 346.489,342.455 346.119 C 342.916 345.550,342.915 345.497,342.448 345.779 C 342.064 346.010,341.958 345.942,342.098 345.556 C 342.209 345.250,342.503 345.045,342.750 345.100 C 343.280 345.218,343.361 344.147,342.846 343.829 C 342.652 343.709,342.270 344.148,341.998 344.805 M322.206 361.971 C 322.058 362.647,321.790 363.200,321.611 363.200 C 321.432 363.200,321.180 363.474,321.052 363.809 C 320.864 364.299,320.966 364.339,321.576 364.013 C 322.295 363.628,323.104 361.371,322.676 360.943 C 322.566 360.833,322.355 361.296,322.206 361.971 M309.311 370.507 C 309.042 371.102,308.232 371.863,307.511 372.198 C 306.534 372.653,306.455 372.751,307.200 372.584 C 307.750 372.461,308.427 372.313,308.704 372.256 C 309.584 372.074,310.072 371.322,309.934 370.359 C 309.801 369.434,309.796 369.435,309.311 370.507 M124.400 387.114 C 124.400 387.381,124.599 387.600,124.843 387.600 C 125.099 387.600,125.174 387.894,125.019 388.300 C 124.805 388.863,124.851 388.902,125.259 388.497 C 125.668 388.092,125.634 387.862,125.083 387.311 C 124.656 386.884,124.400 386.810,124.400 387.114 M264.000 390.829 C 264.000 391.859,263.335 392.545,261.793 393.104 L 260.600 393.537 261.700 393.568 C 263.061 393.607,264.400 392.333,264.400 391.000 C 264.400 390.450,264.310 390.000,264.200 390.000 C 264.090 390.000,264.000 390.373,264.000 390.829 M247.196 395.500 C 247.143 395.775,247.078 396.208,247.050 396.462 C 247.023 396.716,246.669 396.972,246.263 397.032 C 245.061 397.208,244.980 397.600,246.146 397.600 C 247.294 397.600,247.787 396.907,247.480 395.723 C 247.377 395.326,247.249 395.225,247.196 395.500 " stroke="none" fill="#a465fa" fill-rule="evenodd"></path><path id="path3" d="M116.917 11.803 C 116.071 12.395,114.473 15.049,115.252 14.568 C 115.471 14.433,115.817 13.882,116.022 13.343 C 116.226 12.805,116.980 12.109,117.697 11.798 C 118.414 11.486,118.725 11.224,118.389 11.216 C 118.053 11.207,117.390 11.471,116.917 11.803 M372.800 92.640 C 372.800 93.766,372.891 93.832,374.500 93.874 C 375.435 93.899,375.930 93.825,375.600 93.709 C 375.270 93.594,374.505 93.039,373.900 92.475 L 372.800 91.450 372.800 92.640 M389.827 268.706 C 389.702 268.831,389.600 269.385,389.600 269.936 L 389.600 270.939 390.598 270.001 C 391.148 269.486,391.502 268.969,391.387 268.854 C 391.073 268.540,390.087 268.447,389.827 268.706 M9.200 269.800 C 9.717 270.350,10.198 270.800,10.270 270.800 C 10.341 270.800,10.400 270.350,10.400 269.800 C 10.400 268.983,10.205 268.800,9.330 268.800 L 8.261 268.800 9.200 269.800 M192.945 307.475 C 192.237 308.924,192.036 309.040,188.902 309.800 C 187.089 310.240,185.604 310.794,185.602 311.030 C 185.599 311.677,183.841 313.200,183.098 313.200 C 182.740 313.200,182.349 313.359,182.229 313.554 C 182.108 313.748,181.153 314.029,180.105 314.178 C 178.699 314.378,177.938 314.753,177.200 315.611 C 176.522 316.398,175.555 316.917,174.200 317.221 C 170.836 317.976,169.475 318.420,167.600 319.374 C 166.610 319.877,164.630 320.507,163.200 320.772 C 159.043 321.542,157.247 322.062,156.774 322.631 C 155.885 323.702,152.082 324.419,146.807 324.510 C 143.948 324.560,141.606 324.735,141.604 324.900 C 141.602 325.065,141.075 325.200,140.433 325.200 C 139.792 325.200,139.207 325.343,139.133 325.517 C 138.761 326.402,135.576 327.820,133.400 328.070 C 128.083 328.680,127.330 328.791,125.600 329.224 C 124.610 329.472,123.440 329.816,123.000 329.989 C 122.560 330.162,121.480 330.587,120.600 330.932 C 118.824 331.629,116.289 332.131,111.200 332.795 C 103.596 333.786,102.190 334.090,99.925 335.234 C 99.554 335.422,97.574 335.854,95.525 336.195 C 93.476 336.536,91.032 336.992,90.094 337.208 C 89.156 337.423,87.759 337.600,86.989 337.600 C 86.219 337.600,85.277 337.752,84.895 337.937 C 84.078 338.333,81.217 339.634,79.122 340.562 C 78.308 340.922,76.148 341.400,74.322 341.624 C 69.442 342.222,66.134 343.530,66.577 344.685 C 66.695 344.991,66.646 345.152,66.468 345.042 C 66.291 344.932,65.920 345.466,65.645 346.228 C 65.369 346.989,64.976 347.509,64.772 347.383 C 64.567 347.256,64.400 347.343,64.400 347.576 C 64.400 347.809,64.555 348.000,64.744 348.000 C 64.934 348.000,65.040 348.615,64.980 349.366 C 64.888 350.524,65.021 350.769,65.852 350.977 C 66.392 351.113,66.753 351.353,66.655 351.512 C 66.557 351.670,66.921 351.827,67.464 351.859 C 68.781 351.938,68.821 352.005,68.864 354.147 C 68.885 355.198,69.096 356.021,69.351 356.047 C 69.598 356.073,70.430 356.118,71.200 356.147 C 72.328 356.190,72.625 356.375,72.728 357.100 C 72.798 357.595,72.998 358.000,73.173 358.000 C 73.347 358.000,73.440 358.451,73.380 359.002 C 73.320 359.553,73.434 359.902,73.635 359.778 C 73.836 359.654,74.000 359.750,74.000 359.991 C 74.000 360.266,74.579 360.360,75.551 360.243 C 77.101 360.056,77.102 360.058,77.320 361.677 C 77.439 362.568,77.757 363.500,78.027 363.748 C 78.396 364.088,78.447 364.076,78.235 363.700 C 77.648 362.659,78.477 362.442,79.368 363.403 C 80.174 364.273,80.631 364.400,82.946 364.400 C 84.782 364.400,85.612 364.554,85.639 364.900 C 85.661 365.175,85.685 365.942,85.693 366.606 C 85.711 368.105,86.237 368.592,87.900 368.647 C 90.906 368.748,90.798 368.688,90.337 370.008 C 90.025 370.904,90.043 371.370,90.407 371.808 C 91.076 372.615,91.692 372.554,91.506 371.700 C 91.421 371.315,91.138 371.045,90.876 371.100 C 90.614 371.155,90.400 371.031,90.400 370.825 C 90.400 370.619,90.760 370.477,91.200 370.510 C 91.900 370.563,92.199 371.120,92.050 372.093 C 92.002 372.402,93.588 372.900,94.226 372.777 C 95.045 372.619,98.968 372.876,98.520 373.058 C 98.173 373.199,98.150 373.542,98.436 374.293 C 98.717 375.033,98.696 375.417,98.364 375.622 C 97.743 376.006,98.272 376.807,99.124 376.772 C 99.685 376.749,99.668 376.692,99.027 376.441 C 98.581 376.266,98.429 376.030,98.667 375.882 C 98.895 375.741,99.739 375.961,100.543 376.371 C 101.347 376.781,102.105 376.955,102.227 376.757 C 102.355 376.549,102.764 376.567,103.198 376.799 C 103.610 377.020,104.456 377.200,105.077 377.200 C 105.774 377.200,106.399 377.507,106.707 378.000 C 107.107 378.641,107.107 378.801,106.703 378.806 C 106.358 378.810,106.388 378.945,106.800 379.237 C 107.252 379.556,107.276 379.711,106.900 379.864 C 106.625 379.975,106.400 380.238,106.400 380.447 C 106.400 380.677,106.706 380.664,107.172 380.415 C 107.731 380.116,108.090 380.142,108.472 380.509 C 108.762 380.788,109.434 380.991,109.964 380.960 C 112.948 380.785,115.001 381.380,114.941 382.402 C 114.908 382.951,115.137 383.546,115.449 383.725 C 115.761 383.903,115.901 384.237,115.758 384.467 C 115.590 384.740,115.368 384.697,115.120 384.343 C 114.812 383.904,114.773 383.915,114.914 384.400 C 115.012 384.737,115.464 384.958,115.944 384.905 C 116.415 384.852,116.800 384.970,116.800 385.166 C 116.800 385.363,117.520 385.495,118.400 385.462 C 119.279 385.428,119.999 385.254,120.000 385.076 C 120.000 384.898,120.225 384.898,120.500 385.076 C 120.775 385.254,121.270 385.418,121.600 385.441 C 121.930 385.463,122.493 385.508,122.850 385.541 C 123.227 385.575,123.599 386.094,123.736 386.778 C 123.986 388.032,125.289 389.005,126.231 388.643 C 126.982 388.355,126.961 387.733,126.200 387.733 C 125.870 387.733,125.600 387.896,125.600 388.095 C 125.600 388.294,125.312 388.169,124.960 387.817 C 124.444 387.301,124.416 387.062,124.817 386.580 C 125.228 386.084,125.201 386.025,124.657 386.234 C 124.291 386.374,124.000 386.289,124.000 386.043 C 124.000 385.254,124.972 385.594,126.149 386.794 C 126.867 387.525,127.207 388.205,127.054 388.604 C 126.912 388.973,126.976 389.139,127.205 388.997 C 127.422 388.863,127.600 388.929,127.600 389.144 C 127.600 389.359,128.185 389.516,128.900 389.492 C 134.101 389.317,135.600 389.565,135.600 390.600 C 135.600 391.150,135.763 391.600,135.963 391.600 C 136.162 391.600,136.236 391.260,136.128 390.845 C 136.019 390.430,136.157 389.950,136.433 389.780 C 136.787 389.561,136.860 389.666,136.681 390.134 C 136.540 390.501,136.618 390.800,136.855 390.800 C 137.092 390.800,137.178 391.079,137.047 391.421 C 136.911 391.777,136.978 391.937,137.205 391.797 C 137.422 391.663,137.600 391.705,137.600 391.891 C 137.600 392.077,138.002 392.260,138.492 392.297 C 138.983 392.334,139.569 392.616,139.793 392.923 C 140.108 393.354,141.627 393.502,146.383 393.568 C 153.117 393.661,153.200 393.677,153.200 394.847 C 153.200 395.350,153.372 395.541,153.662 395.362 C 153.934 395.194,154.016 395.251,153.861 395.501 C 153.717 395.735,153.767 396.348,153.974 396.863 C 154.180 397.378,154.361 397.600,154.375 397.355 C 154.399 396.922,155.945 397.004,157.200 397.504 C 157.862 397.768,163.747 397.929,174.300 397.972 L 181.200 398.000 181.200 399.000 L 181.200 400.000 197.400 400.000 L 213.600 400.000 213.600 399.000 C 213.600 397.371,217.577 397.469,217.647 399.100 L 217.695 400.200 217.947 399.067 L 218.200 397.934 227.115 397.867 C 234.553 397.811,236.092 397.701,236.409 397.200 C 236.728 396.695,236.789 396.716,236.794 397.333 C 236.804 398.515,237.787 397.852,237.928 396.569 C 238.215 393.964,239.499 393.440,245.650 393.419 C 249.832 393.405,251.285 393.265,251.680 392.841 C 252.063 392.430,252.068 392.357,251.700 392.565 C 251.076 392.917,251.032 392.151,251.654 391.767 C 251.949 391.584,251.774 391.286,251.154 390.915 C 250.629 390.602,250.522 390.444,250.916 390.566 C 251.433 390.726,251.600 390.598,251.516 390.105 C 251.429 389.593,251.826 389.330,253.100 389.054 C 254.035 388.852,254.800 388.521,254.800 388.320 C 254.800 388.118,254.982 388.065,255.204 388.202 C 255.727 388.526,257.271 388.038,257.018 387.629 C 256.911 387.457,257.269 387.401,257.812 387.504 C 258.470 387.630,258.804 387.510,258.812 387.147 C 258.820 386.783,258.962 386.837,259.237 387.308 C 259.464 387.698,259.818 387.912,260.025 387.785 C 260.231 387.657,260.400 387.743,260.400 387.976 C 260.400 388.209,260.715 388.386,261.100 388.368 C 261.518 388.350,261.599 388.256,261.300 388.135 C 261.025 388.024,260.800 387.758,260.800 387.543 C 260.800 387.328,260.964 387.254,261.165 387.378 C 261.366 387.502,261.479 387.143,261.418 386.579 C 261.340 385.873,261.467 385.617,261.825 385.754 C 262.156 385.881,262.295 385.696,262.208 385.243 C 262.001 384.168,263.381 382.900,264.500 383.136 C 264.665 383.171,264.800 383.020,264.800 382.800 C 264.800 382.580,265.171 382.400,265.624 382.400 C 266.077 382.400,266.346 382.236,266.222 382.035 C 265.958 381.609,266.769 381.678,267.518 382.146 C 267.802 382.324,268.265 382.278,268.547 382.044 C 268.912 381.741,269.211 381.760,269.588 382.110 C 270.012 382.502,270.053 382.487,269.793 382.032 C 269.555 381.615,269.639 381.529,270.109 381.710 C 270.871 382.002,271.199 381.008,270.756 379.749 C 270.527 379.096,270.611 378.910,271.119 378.949 C 271.852 379.005,272.063 377.968,271.413 377.506 C 271.186 377.344,270.595 377.209,270.100 377.206 L 269.200 377.200 269.126 341.700 C 269.085 322.175,268.986 307.145,268.905 308.300 L 268.758 310.400 266.579 310.400 C 264.521 310.400,264.400 310.456,264.400 311.400 C 264.400 312.128,264.186 312.400,263.612 312.400 C 263.178 312.400,261.840 312.850,260.637 313.400 C 259.435 313.950,258.034 314.400,257.523 314.400 C 256.888 314.400,256.436 314.759,256.092 315.538 C 255.735 316.344,255.094 316.834,253.894 317.218 C 252.262 317.740,249.213 319.411,248.800 320.009 C 248.315 320.712,245.708 321.997,244.764 321.999 C 244.109 321.999,243.151 322.556,242.164 323.509 C 241.174 324.464,239.785 325.270,238.381 325.704 C 237.160 326.081,235.773 326.752,235.298 327.195 C 234.822 327.638,234.243 328.000,234.011 328.000 C 233.779 328.000,233.277 328.165,232.895 328.367 C 232.513 328.569,231.311 329.126,230.223 329.605 C 229.136 330.084,227.696 330.886,227.023 331.387 C 225.817 332.285,225.065 332.535,221.686 333.160 C 220.743 333.335,219.483 333.935,218.886 334.494 C 217.793 335.518,214.124 336.800,212.287 336.800 C 210.774 336.800,208.589 337.852,207.891 338.918 C 207.259 339.882,198.426 340.845,196.610 340.148 C 196.077 339.944,196.000 337.803,196.000 323.157 C 196.000 308.958,195.913 306.400,195.433 306.400 C 195.121 306.400,194.601 306.299,194.278 306.175 C 193.882 306.023,193.447 306.447,192.945 307.475 M50.741 335.636 C 50.358 335.873,50.366 336.077,50.775 336.570 C 51.530 337.480,52.214 337.344,52.303 336.267 C 52.381 335.316,51.703 335.042,50.741 335.636 M350.055 336.322 C 349.235 337.474,349.442 338.991,350.273 337.919 C 351.070 336.892,351.341 336.265,350.862 336.562 C 350.254 336.938,350.267 336.293,350.880 335.680 C 351.144 335.416,351.246 335.200,351.107 335.200 C 350.968 335.200,350.495 335.705,350.055 336.322 M348.104 336.479 C 348.041 337.313,348.434 337.406,349.120 336.720 C 349.806 336.034,349.713 335.641,348.879 335.704 C 348.483 335.734,348.134 336.083,348.104 336.479 M348.021 338.361 C 347.667 339.022,347.729 339.091,348.497 338.891 C 348.982 338.764,349.158 338.586,348.887 338.496 C 348.616 338.405,348.497 338.167,348.621 337.966 C 348.745 337.765,348.753 337.600,348.638 337.600 C 348.522 337.600,348.245 337.942,348.021 338.361 M58.400 343.911 C 58.400 344.412,59.757 345.600,60.329 345.600 C 61.344 345.600,60.535 343.801,59.462 343.673 C 58.878 343.604,58.400 343.711,58.400 343.911 M339.742 344.600 C 339.774 345.150,339.907 345.600,340.038 345.600 C 340.543 345.600,341.712 343.980,341.409 343.698 C 341.234 343.534,341.010 343.625,340.912 343.900 C 340.814 344.175,340.558 344.400,340.343 344.400 C 340.128 344.400,340.064 344.220,340.200 344.000 C 340.336 343.780,340.276 343.600,340.066 343.600 C 339.856 343.600,339.711 344.050,339.742 344.600 M342.000 344.040 C 342.000 344.281,341.455 344.988,340.790 345.610 C 339.962 346.382,339.729 346.832,340.052 347.032 C 340.331 347.204,340.418 347.152,340.264 346.904 C 340.121 346.673,340.288 346.375,340.635 346.242 C 341.549 345.891,341.683 345.939,341.355 346.500 C 341.194 346.775,341.453 346.657,341.931 346.238 C 342.825 345.454,343.147 344.538,342.357 345.026 C 342.059 345.211,342.003 345.022,342.184 344.450 C 342.332 343.983,342.352 343.600,342.227 343.600 C 342.102 343.600,342.000 343.798,342.000 344.040 M238.406 396.900 C 238.403 397.505,238.591 398.000,238.824 398.000 C 239.057 398.000,239.136 397.820,239.000 397.600 C 238.864 397.380,238.943 397.200,239.176 397.200 C 239.409 397.200,239.600 397.391,239.600 397.624 C 239.600 397.857,239.803 397.922,240.051 397.768 C 240.352 397.583,240.251 397.352,239.751 397.079 C 239.338 396.853,238.868 396.473,238.706 396.234 C 238.544 395.995,238.409 396.295,238.406 396.900 " stroke="none" fill="#debdf7" fill-rule="evenodd"></path><path id="path4" d="M370.145 91.111 C 370.292 91.349,370.230 91.658,370.007 91.796 C 369.783 91.934,369.600 91.844,369.600 91.595 C 369.600 91.324,369.359 91.384,369.000 91.743 C 368.670 92.073,368.400 92.770,368.400 93.291 C 368.400 93.813,368.217 94.423,367.994 94.646 C 367.017 95.623,367.293 103.358,368.620 112.200 C 369.063 115.153,369.193 117.586,369.016 119.600 C 368.871 121.250,368.689 124.077,368.611 125.882 C 368.534 127.686,368.341 129.372,368.184 129.626 C 367.759 130.314,366.568 140.649,365.998 148.600 C 365.605 154.086,365.259 155.868,364.096 158.400 C 362.982 160.828,362.559 162.417,362.020 166.200 C 361.323 171.101,360.696 173.314,359.725 174.299 C 358.853 175.183,358.007 177.471,358.002 178.954 C 358.000 179.727,357.476 181.943,356.723 184.369 C 356.490 185.122,355.894 186.142,355.400 186.636 C 354.595 187.441,353.839 189.836,352.998 194.246 C 352.867 194.931,352.409 195.869,351.980 196.329 C 351.551 196.790,351.200 197.354,351.200 197.583 C 351.200 197.812,351.059 198.000,350.887 198.000 C 350.715 198.000,350.341 198.855,350.056 199.900 C 349.297 202.680,348.390 204.685,347.545 205.450 C 347.135 205.821,346.800 206.289,346.800 206.491 C 346.800 206.692,346.530 207.127,346.201 207.457 C 345.871 207.786,345.494 208.538,345.363 209.128 C 344.953 210.974,343.913 212.954,342.958 213.705 C 342.419 214.129,341.742 215.431,341.320 216.858 C 340.916 218.223,340.108 219.804,339.477 220.465 C 338.273 221.725,336.243 225.378,335.829 227.027 C 335.690 227.580,335.426 227.940,335.242 227.826 C 334.756 227.525,333.814 228.733,332.905 230.824 C 332.469 231.828,331.367 233.432,330.456 234.389 C 329.545 235.347,328.778 236.281,328.750 236.465 C 328.723 236.649,328.678 236.965,328.650 237.167 C 328.623 237.368,328.465 237.668,328.300 237.833 C 328.135 237.998,328.000 238.459,328.000 238.857 C 328.000 239.256,327.505 239.898,326.900 240.285 C 325.536 241.158,324.937 241.862,324.252 243.400 C 323.958 244.060,323.016 245.323,322.159 246.206 C 321.301 247.089,320.330 248.240,320.000 248.762 C 319.670 249.285,318.828 250.244,318.129 250.894 C 317.431 251.543,316.372 253.003,315.776 254.138 C 315.180 255.272,314.024 256.674,313.206 257.254 C 312.275 257.913,311.631 258.743,311.486 259.470 C 311.337 260.213,310.724 260.985,309.782 261.616 C 308.972 262.157,308.015 263.135,307.655 263.788 C 306.787 265.362,306.172 266.000,305.522 266.000 C 305.228 266.000,304.406 266.888,303.696 267.972 C 302.986 269.057,302.035 270.062,301.582 270.206 C 301.130 270.349,300.262 271.266,299.654 272.244 C 299.045 273.222,297.929 274.361,297.174 274.776 C 296.418 275.190,295.845 275.726,295.900 275.965 C 295.955 276.204,295.820 276.400,295.600 276.400 C 295.380 276.400,295.200 276.672,295.200 277.004 C 295.200 277.336,294.497 278.101,293.638 278.704 C 292.778 279.307,291.783 280.287,291.426 280.881 C 291.069 281.476,290.017 282.470,289.088 283.091 C 288.160 283.711,287.227 284.608,287.017 285.083 C 286.806 285.558,286.000 286.281,285.226 286.688 C 284.452 287.096,283.340 288.134,282.754 288.997 C 282.169 289.859,281.151 290.853,280.492 291.207 C 279.268 291.863,277.960 293.000,277.986 293.386 C 277.994 293.504,278.000 293.758,278.000 293.951 C 278.000 294.145,277.415 294.544,276.700 294.838 C 275.343 295.397,273.600 296.906,273.600 297.521 C 273.600 297.718,272.870 298.208,271.977 298.610 C 271.085 299.013,269.824 300.012,269.175 300.832 C 268.526 301.652,267.231 302.719,266.297 303.204 C 265.364 303.689,263.741 304.887,262.692 305.867 C 261.642 306.846,260.292 307.826,259.692 308.044 C 259.091 308.262,258.240 309.001,257.800 309.686 C 256.966 310.985,256.616 311.233,254.552 311.994 C 253.865 312.247,253.108 312.884,252.868 313.410 C 252.460 314.307,249.643 316.000,248.559 316.000 C 248.289 316.000,247.378 316.783,246.534 317.740 C 245.617 318.779,244.356 319.695,243.400 320.015 C 242.520 320.310,241.260 321.127,240.600 321.831 C 239.549 322.951,235.421 325.200,234.415 325.200 C 234.217 325.200,233.679 325.727,233.221 326.371 C 232.762 327.015,231.715 327.757,230.893 328.018 C 228.326 328.837,226.635 329.718,225.653 330.749 C 225.131 331.296,223.781 332.072,222.653 332.472 C 220.908 333.092,220.810 333.176,222.000 333.029 C 224.537 332.717,225.784 332.310,227.023 331.387 C 227.696 330.886,229.136 330.084,230.223 329.605 C 231.311 329.126,232.513 328.569,232.895 328.367 C 233.277 328.165,233.779 328.000,234.011 328.000 C 234.243 328.000,234.822 327.638,235.298 327.195 C 235.773 326.752,237.160 326.081,238.381 325.704 C 239.785 325.270,241.174 324.464,242.164 323.509 C 243.151 322.556,244.109 321.999,244.764 321.999 C 245.708 321.997,248.315 320.712,248.800 320.009 C 249.213 319.411,252.262 317.740,253.894 317.218 C 255.094 316.834,255.735 316.344,256.092 315.538 C 256.436 314.759,256.888 314.400,257.523 314.400 C 258.034 314.400,259.435 313.950,260.637 313.400 C 261.840 312.850,263.178 312.400,263.612 312.400 C 264.186 312.400,264.400 312.128,264.400 311.400 C 264.400 310.456,264.521 310.400,266.579 310.400 L 268.758 310.400 268.905 308.300 C 268.986 307.145,269.085 322.175,269.126 341.700 L 269.200 377.200 270.100 377.206 C 270.595 377.209,271.186 377.344,271.413 377.506 C 272.063 377.968,271.852 379.005,271.119 378.949 C 270.611 378.910,270.527 379.096,270.756 379.749 C 271.199 381.008,270.871 382.002,270.109 381.710 C 269.649 381.533,269.561 381.613,269.796 381.994 C 270.035 382.381,269.972 382.429,269.562 382.173 C 268.776 381.682,267.951 381.598,268.222 382.035 C 268.485 382.461,267.864 382.531,267.455 382.122 C 267.029 381.696,265.966 381.621,266.222 382.035 C 266.346 382.236,266.077 382.400,265.624 382.400 C 265.171 382.400,264.800 382.580,264.800 382.800 C 264.800 383.020,264.665 383.171,264.500 383.136 C 263.381 382.900,262.001 384.168,262.208 385.243 C 262.295 385.696,262.156 385.881,261.825 385.754 C 261.467 385.617,261.340 385.873,261.418 386.579 C 261.479 387.143,261.366 387.502,261.165 387.378 C 260.964 387.254,260.800 387.328,260.800 387.543 C 260.800 387.758,261.025 388.024,261.300 388.135 C 261.599 388.256,261.518 388.350,261.100 388.368 C 260.715 388.386,260.400 388.209,260.400 387.976 C 260.400 387.743,260.231 387.657,260.025 387.785 C 259.818 387.912,259.464 387.698,259.237 387.308 C 258.962 386.837,258.820 386.783,258.812 387.147 C 258.804 387.510,258.470 387.630,257.812 387.504 C 257.269 387.401,256.911 387.457,257.018 387.629 C 257.271 388.038,255.727 388.526,255.204 388.202 C 254.982 388.065,254.800 388.118,254.800 388.320 C 254.800 388.521,254.035 388.852,253.100 389.054 C 251.826 389.330,251.429 389.593,251.516 390.105 C 251.600 390.598,251.433 390.726,250.916 390.566 C 250.434 390.417,250.485 390.517,251.069 390.872 C 251.808 391.321,251.862 391.505,251.430 392.094 C 251.150 392.475,250.765 392.655,250.574 392.494 C 250.383 392.332,250.475 392.524,250.778 392.919 C 251.331 393.640,256.361 393.889,257.400 393.247 C 257.620 393.111,258.153 393.000,258.585 393.000 C 259.160 393.000,259.491 392.571,259.819 391.400 C 260.303 389.677,261.504 389.090,262.631 390.026 C 263.103 390.417,263.176 390.404,263.005 389.957 C 262.831 389.504,263.550 389.400,266.868 389.400 C 270.147 389.400,271.119 389.263,271.837 388.699 C 272.698 388.022,274.000 388.109,274.000 388.843 C 274.000 389.039,274.202 389.200,274.449 389.200 C 274.759 389.200,274.744 389.015,274.400 388.600 C 273.879 387.972,274.024 387.890,275.666 387.890 C 276.065 387.890,276.249 387.671,276.124 387.345 C 276.009 387.045,276.114 386.800,276.357 386.800 C 276.601 386.800,276.800 386.609,276.800 386.376 C 276.800 386.143,276.620 386.064,276.400 386.200 C 276.180 386.336,276.000 386.257,276.000 386.024 C 276.000 385.791,276.675 385.577,277.500 385.548 C 280.722 385.438,281.264 385.344,281.571 384.847 C 281.979 384.186,282.421 384.193,282.855 384.866 C 283.118 385.272,283.257 385.194,283.437 384.537 C 283.567 384.062,284.062 383.567,284.537 383.437 C 285.037 383.300,285.232 383.074,285.000 382.900 C 283.623 381.867,284.642 381.300,288.304 381.062 C 289.461 380.987,290.525 380.809,290.667 380.666 C 290.810 380.524,291.138 380.583,291.397 380.797 C 291.721 381.066,291.867 381.003,291.867 380.594 C 291.867 380.267,291.672 379.979,291.433 379.953 C 291.195 379.927,291.523 379.792,292.162 379.653 C 293.483 379.366,293.882 378.206,292.865 377.612 C 292.098 377.165,292.212 377.140,295.290 377.087 C 296.550 377.065,297.494 376.961,297.389 376.856 C 296.791 376.258,298.537 375.272,299.528 375.649 C 301.095 376.244,301.939 375.012,300.797 373.796 L 299.995 372.943 302.098 372.826 C 303.254 372.762,304.425 372.699,304.700 372.688 C 304.975 372.676,305.200 372.506,305.200 372.310 C 305.200 372.113,305.411 372.083,305.668 372.242 C 305.983 372.436,306.052 372.313,305.881 371.866 C 305.740 371.500,305.777 371.200,305.963 371.200 C 306.148 371.200,306.300 370.743,306.300 370.183 C 306.300 368.836,306.634 368.567,307.467 369.243 C 307.921 369.612,308.052 369.631,307.853 369.300 C 307.556 368.806,307.679 368.786,311.712 368.670 C 312.395 368.651,312.754 368.456,312.642 368.165 C 312.526 367.864,312.741 367.764,313.230 367.892 C 313.702 368.015,314.018 367.882,314.046 367.547 C 314.316 364.302,314.198 364.468,316.324 364.342 C 317.469 364.275,317.964 364.083,317.838 363.754 C 317.635 363.226,318.660 362.666,319.208 363.005 C 319.393 363.120,319.661 363.026,319.802 362.797 C 319.944 362.568,319.841 362.430,319.575 362.490 C 319.309 362.551,318.951 362.105,318.780 361.500 C 318.551 360.688,318.611 360.400,319.012 360.400 C 319.339 360.400,319.493 360.718,319.400 361.200 C 319.315 361.640,319.423 362.000,319.641 362.000 C 319.858 362.000,319.982 361.685,319.918 361.300 C 319.831 360.785,320.038 360.625,320.700 360.695 C 321.195 360.748,321.600 360.613,321.600 360.395 C 321.600 360.178,321.971 360.000,322.424 360.000 C 322.946 360.000,323.142 359.830,322.961 359.537 C 322.772 359.231,322.933 359.134,323.437 359.252 C 324.223 359.435,326.127 357.861,325.672 357.405 C 325.536 357.269,325.721 357.271,326.083 357.410 C 326.608 357.612,326.694 357.481,326.508 356.768 C 326.303 355.987,326.394 355.905,327.216 356.120 C 327.734 356.256,328.427 356.149,328.756 355.883 C 329.228 355.502,329.290 355.506,329.051 355.903 C 328.809 356.306,328.965 356.308,329.834 355.912 L 330.920 355.417 329.960 355.148 C 329.035 354.890,329.042 354.878,330.124 354.840 C 330.775 354.817,331.142 354.629,330.996 354.393 C 330.858 354.170,330.562 354.100,330.339 354.238 C 330.116 354.375,330.223 353.928,330.577 353.244 C 331.074 352.284,331.486 352.000,332.387 352.000 C 333.028 352.000,333.659 351.828,333.789 351.617 C 333.919 351.407,334.260 351.325,334.546 351.435 C 335.076 351.638,335.184 351.326,335.322 349.200 C 335.399 348.013,335.471 347.969,337.500 347.864 C 337.885 347.844,338.346 347.593,338.525 347.305 C 338.703 347.018,338.984 346.866,339.148 346.968 C 339.312 347.069,339.491 346.403,339.545 345.488 C 339.665 343.453,339.446 343.634,341.887 343.548 C 343.363 343.496,343.873 343.334,343.730 342.962 C 343.622 342.680,343.742 342.123,343.997 341.724 C 344.437 341.037,344.448 341.039,344.222 341.754 C 344.000 342.457,344.045 342.467,344.892 341.896 C 345.391 341.559,345.753 341.019,345.695 340.695 C 345.637 340.372,345.907 339.858,346.295 339.553 C 346.928 339.057,346.947 339.068,346.477 339.669 C 346.020 340.253,346.058 340.310,346.773 340.123 C 347.223 340.005,347.500 339.762,347.389 339.582 C 347.278 339.402,347.378 339.137,347.613 338.992 C 347.847 338.848,348.009 338.430,347.973 338.065 C 347.764 335.937,347.939 335.711,350.000 335.438 L 352.000 335.172 352.000 333.186 C 352.000 331.413,352.097 331.193,352.900 331.132 C 353.395 331.094,354.070 331.023,354.400 330.974 C 354.730 330.925,355.195 330.866,355.433 330.843 C 355.672 330.819,355.900 330.575,355.941 330.300 C 356.019 329.777,356.311 327.599,356.368 327.125 C 356.385 326.974,356.715 326.855,357.100 326.862 C 359.526 326.906,360.045 326.470,360.305 324.167 C 360.460 322.789,360.712 322.244,361.258 322.101 C 361.666 321.994,362.000 321.753,362.000 321.566 C 362.000 321.378,362.300 321.340,362.666 321.481 C 363.130 321.659,363.239 321.586,363.025 321.241 C 362.818 320.906,362.955 320.787,363.449 320.873 C 364.041 320.976,364.197 320.699,364.281 319.400 C 364.431 317.072,364.497 316.812,364.873 317.045 C 365.060 317.161,365.117 317.410,365.000 317.600 C 364.883 317.790,364.960 318.052,365.173 318.183 C 365.562 318.424,365.495 317.665,364.997 316.200 C 364.810 315.652,364.842 315.563,365.098 315.919 C 365.400 316.339,365.562 316.327,365.952 315.858 C 366.217 315.539,366.291 315.200,366.117 315.104 C 365.943 315.009,366.070 315.007,366.400 315.100 C 367.853 315.509,368.405 315.531,368.183 315.173 C 368.052 314.960,367.790 314.883,367.600 315.000 C 367.410 315.117,367.125 315.002,366.966 314.745 C 366.792 314.463,366.849 314.383,367.111 314.545 C 367.349 314.692,367.660 314.627,367.800 314.400 C 367.940 314.173,368.198 314.075,368.372 314.183 C 368.547 314.291,368.694 313.619,368.699 312.689 C 368.715 310.071,368.760 309.899,369.374 310.135 C 369.690 310.256,370.410 309.992,370.974 309.549 C 371.961 308.773,372.264 308.962,372.014 310.200 C 371.970 310.420,372.067 310.466,372.231 310.302 C 372.395 310.138,372.561 309.148,372.599 308.102 C 372.732 304.498,372.736 304.482,373.409 305.371 C 373.729 305.795,374.102 306.032,374.236 305.897 C 374.370 305.763,374.122 305.268,373.684 304.798 C 372.887 303.943,372.887 303.942,373.743 303.071 C 374.215 302.592,374.660 302.335,374.733 302.500 C 374.807 302.665,375.122 302.800,375.433 302.800 C 375.745 302.800,376.000 302.991,376.000 303.224 C 376.000 303.457,376.204 303.521,376.454 303.367 C 376.747 303.185,376.570 302.899,375.954 302.557 C 375.013 302.036,375.012 302.028,375.876 302.014 C 376.801 301.999,377.622 301.204,376.724 301.194 C 376.365 301.190,376.339 301.095,376.643 300.894 C 376.887 300.732,377.031 300.240,376.962 299.800 C 376.785 298.658,377.243 297.022,377.585 297.576 C 377.898 298.082,379.200 297.725,379.200 297.134 C 379.200 296.924,379.380 296.864,379.600 297.000 C 379.820 297.136,380.000 297.057,380.000 296.824 C 380.000 296.591,380.174 296.400,380.387 296.400 C 380.601 296.400,380.660 296.700,380.519 297.066 C 380.348 297.513,380.417 297.636,380.732 297.442 C 381.401 297.029,381.310 296.372,380.500 295.757 C 379.933 295.327,379.914 295.223,380.400 295.211 C 380.864 295.200,381.030 294.542,381.131 292.302 C 381.287 288.833,382.175 287.477,383.294 289.000 C 383.456 289.220,383.591 288.995,383.594 288.500 C 383.597 288.005,383.791 287.600,384.024 287.600 C 384.257 287.600,384.349 287.440,384.228 287.245 C 384.107 287.050,384.302 286.915,384.661 286.945 C 385.020 286.975,385.403 286.746,385.512 286.436 C 385.648 286.047,385.507 285.950,385.055 286.124 C 384.297 286.414,384.191 285.969,384.860 285.300 C 385.247 284.913,385.458 283.701,385.696 280.500 C 385.742 279.888,386.258 279.847,386.617 280.427 C 386.762 280.662,387.178 280.735,387.540 280.589 C 387.903 280.442,388.460 280.279,388.778 280.226 C 389.096 280.173,389.425 279.876,389.509 279.565 C 389.633 279.105,389.591 279.099,389.286 279.534 C 388.986 279.961,388.858 279.928,388.643 279.367 C 388.438 278.833,388.263 278.777,387.907 279.133 C 387.309 279.731,386.800 279.731,386.800 279.133 C 386.800 278.877,386.914 278.781,387.054 278.920 C 388.192 280.059,389.358 277.462,389.496 273.482 C 389.674 268.344,389.625 268.462,391.531 268.566 C 392.703 268.630,393.066 268.515,392.916 268.126 C 392.805 267.837,392.927 267.600,393.188 267.600 C 393.470 267.600,393.633 267.075,393.590 266.300 C 393.551 265.585,393.537 262.996,393.559 260.547 L 393.600 256.093 394.700 255.882 C 395.305 255.766,396.025 255.857,396.300 256.084 C 396.648 256.372,396.815 256.362,396.850 256.049 C 396.878 255.802,396.923 255.413,396.950 255.185 C 396.978 254.957,397.270 254.600,397.600 254.392 C 398.020 254.126,398.046 254.010,397.686 254.006 C 397.327 254.002,397.280 253.788,397.529 253.300 C 397.725 252.915,397.899 251.520,397.916 250.200 C 397.932 248.880,397.958 246.585,397.973 245.100 C 398.000 242.440,398.016 242.399,399.100 242.353 L 400.200 242.305 399.000 242.000 L 397.800 241.695 398.900 241.647 L 400.000 241.600 400.000 199.200 L 400.000 156.800 399.000 156.800 C 398.004 156.800,398.000 156.784,397.965 152.900 C 397.882 143.611,397.783 142.467,396.974 141.520 C 396.342 140.780,396.330 140.715,396.909 141.163 C 397.512 141.631,397.586 141.630,397.402 141.157 C 397.166 140.549,395.200 139.491,395.200 139.971 C 395.200 140.481,394.044 140.293,393.836 139.749 C 393.726 139.464,393.610 137.019,393.577 134.315 C 393.541 131.307,393.340 129.176,393.059 128.823 C 392.700 128.372,392.715 128.316,393.130 128.565 C 393.566 128.828,393.568 128.739,393.143 128.058 C 392.860 127.604,392.531 127.360,392.414 127.516 C 392.073 127.968,391.200 128.038,391.200 127.613 C 391.200 127.399,390.948 127.322,390.640 127.440 C 389.780 127.770,389.592 127.124,389.528 123.628 C 389.493 121.706,389.301 120.400,389.054 120.400 C 388.805 120.400,388.831 120.209,389.120 119.920 C 389.384 119.656,389.600 119.172,389.600 118.844 C 389.600 118.392,389.448 118.435,388.975 119.024 C 388.568 119.529,388.406 119.591,388.510 119.200 C 388.598 118.870,388.384 118.381,388.035 118.113 C 387.582 117.765,387.550 117.622,387.924 117.613 C 388.212 117.606,388.334 117.417,388.196 117.193 C 388.058 116.970,387.749 116.908,387.509 117.056 C 387.225 117.232,387.152 117.026,387.300 116.463 C 387.606 115.293,387.352 115.378,386.598 116.700 C 386.090 117.592,386.016 117.630,386.212 116.900 C 386.349 116.390,386.274 116.000,386.040 116.000 C 385.812 116.000,385.740 115.700,385.881 115.334 C 386.023 114.962,385.970 114.771,385.761 114.901 C 385.543 115.035,385.447 114.481,385.533 113.579 C 385.634 112.524,385.474 111.817,385.037 111.380 C 384.683 111.026,384.495 110.570,384.620 110.368 C 384.745 110.165,384.612 109.997,384.324 109.994 C 383.932 109.989,383.947 109.895,384.381 109.620 C 384.700 109.418,385.150 109.365,385.381 109.503 C 385.611 109.641,385.559 109.456,385.264 109.092 C 384.969 108.729,384.410 108.330,384.021 108.207 C 383.632 108.083,383.121 107.581,382.884 107.091 C 382.548 106.394,382.448 106.350,382.427 106.887 C 382.365 108.455,381.200 107.103,381.195 105.457 C 381.187 103.120,380.803 101.913,380.147 102.165 C 379.846 102.280,379.600 102.285,379.600 102.175 C 379.600 102.064,380.005 101.811,380.500 101.612 C 381.211 101.327,381.250 101.245,380.686 101.225 C 380.076 101.204,380.039 101.069,380.435 100.300 C 380.800 99.591,380.794 99.498,380.407 99.862 C 379.287 100.916,376.671 98.508,377.012 96.736 C 377.266 95.418,375.772 94.000,374.130 94.000 C 373.237 94.000,372.784 93.803,372.750 93.400 C 372.723 93.070,372.655 92.620,372.600 92.400 C 372.545 92.180,372.478 91.839,372.450 91.643 C 372.423 91.446,372.105 91.172,371.743 91.034 C 371.194 90.823,371.170 90.882,371.592 91.391 C 372.019 91.905,371.961 92.000,371.225 92.000 C 370.745 92.000,370.456 91.832,370.583 91.628 C 370.709 91.423,370.602 91.125,370.345 90.966 C 370.063 90.792,369.983 90.849,370.145 91.111 M379.472 98.556 C 379.082 99.574,379.545 100.112,380.226 99.432 C 380.865 98.792,381.003 98.227,380.434 98.579 C 380.233 98.703,379.996 98.588,379.908 98.323 C 379.809 98.027,379.640 98.118,379.472 98.556 M373.966 303.441 C 373.237 304.319,374.076 304.812,374.869 303.971 C 375.403 303.405,375.429 303.220,374.998 303.055 C 374.701 302.941,374.237 303.114,373.966 303.441 M375.169 304.585 C 375.153 304.593,375.076 304.931,375.000 305.335 C 374.865 306.046,374.888 306.046,375.730 305.339 C 376.209 304.937,376.665 304.571,376.745 304.526 C 376.857 304.462,375.302 304.520,375.169 304.585 M366.036 316.157 C 365.697 316.566,365.759 316.883,366.294 317.467 C 366.682 317.891,366.837 317.997,366.637 317.702 C 366.048 316.833,367.014 316.150,367.860 316.837 C 368.304 317.198,368.446 317.221,368.255 316.902 C 367.693 315.967,366.520 315.573,366.036 316.157 M346.996 341.607 C 346.858 341.830,346.590 341.917,346.400 341.800 C 346.210 341.683,345.950 341.757,345.821 341.966 C 345.346 342.735,346.317 342.755,347.009 341.991 C 347.402 341.556,347.617 341.200,347.486 341.200 C 347.354 341.200,347.134 341.383,346.996 341.607 M275.746 386.997 C 275.647 387.255,275.348 387.475,275.083 387.486 C 274.817 387.496,274.240 387.652,273.800 387.832 C 273.204 388.075,273.305 387.846,274.200 386.930 C 275.313 385.791,276.194 385.829,275.746 386.997 M240.661 393.530 C 239.252 393.804,237.997 395.270,238.054 396.572 C 238.101 397.617,238.136 397.656,238.291 396.835 C 238.398 396.266,238.587 396.055,238.750 396.320 C 238.903 396.567,239.713 397.055,240.550 397.405 C 241.388 397.755,241.956 397.852,241.813 397.621 C 241.561 397.213,242.381 397.015,243.592 397.191 C 243.946 397.243,243.786 396.928,243.192 396.408 C 242.646 395.930,242.413 395.646,242.672 395.776 C 242.932 395.906,243.258 395.830,243.396 395.607 C 243.534 395.383,243.446 395.200,243.200 395.200 C 242.954 395.200,242.872 395.008,243.017 394.773 C 243.162 394.538,243.527 394.440,243.828 394.555 C 244.543 394.830,244.959 394.146,244.318 393.750 C 243.780 393.417,241.838 393.300,240.661 393.530 M218.154 398.177 C 218.032 398.494,218.003 399.079,218.089 399.477 C 218.187 399.928,218.324 399.712,218.454 398.900 C 218.671 397.538,218.530 397.196,218.154 398.177 M214.400 399.000 C 214.400 399.733,214.613 400.000,215.200 400.000 C 215.787 400.000,216.000 399.733,216.000 399.000 C 216.000 398.267,215.787 398.000,215.200 398.000 C 214.613 398.000,214.400 398.267,214.400 399.000 M216.800 399.000 C 216.800 399.550,216.980 400.000,217.200 400.000 C 217.420 400.000,217.600 399.550,217.600 399.000 C 217.600 398.450,217.420 398.000,217.200 398.000 C 216.980 398.000,216.800 398.450,216.800 399.000 " stroke="none" fill="#f1a2e4" fill-rule="evenodd"></path></g></svg>