<svg id="svg" version="1.1" xmlns="http://www.w3.org/2000/svg" xmlns:xlink="http://www.w3.org/1999/xlink" width="400" height="400" viewBox="0, 0, 400,400"><g id="svgg"><path id="path0" d="M196.262 83.931 C 195.898 84.334,195.599 84.919,195.599 85.231 C 195.592 87.874,192.607 89.600,188.046 89.600 C 184.063 89.600,183.919 89.660,182.222 92.022 C 180.429 94.518,179.311 95.066,175.294 95.416 C 171.701 95.729,171.365 95.942,170.400 98.516 C 169.401 101.181,168.193 101.778,163.472 101.938 C 159.156 102.085,158.400 102.361,158.400 103.790 C 158.400 105.444,156.726 107.352,154.675 108.036 C 152.409 108.791,152.252 108.932,151.095 111.225 C 149.857 113.680,148.284 114.399,144.149 114.399 C 140.521 114.400,140.228 114.573,139.200 117.316 C 138.221 119.928,136.993 120.494,129.541 121.771 C 128.431 121.961,128.023 122.255,127.836 122.999 C 127.490 124.377,125.681 125.939,123.800 126.484 C 121.534 127.141,120.886 127.663,119.883 129.640 C 118.641 132.091,117.110 132.846,112.886 133.097 C 108.934 133.332,108.582 133.504,108.231 135.374 C 107.898 137.151,106.730 138.578,105.114 139.184 C 101.738 140.448,100.940 140.926,100.126 142.172 C 99.645 142.908,98.716 143.747,98.061 144.037 C 96.326 144.805,95.600 146.667,95.600 150.352 C 95.600 154.044,95.976 154.557,99.000 154.986 C 101.333 155.318,105.433 157.373,106.251 158.621 C 106.865 159.558,108.824 160.523,111.471 161.193 C 113.242 161.640,115.021 163.348,115.435 164.996 C 115.692 166.020,115.935 166.107,120.560 166.833 C 124.185 167.402,126.151 168.728,126.616 170.917 C 127.129 173.331,127.682 173.599,132.162 173.609 C 137.318 173.620,139.321 174.399,140.326 176.781 C 140.953 178.267,141.153 178.407,143.200 178.793 C 148.961 179.880,149.498 180.050,150.511 181.115 C 151.079 181.712,151.670 182.740,151.825 183.400 C 152.365 185.694,152.962 186.000,156.902 186.000 C 161.895 186.000,164.400 187.515,164.400 190.537 C 164.400 191.571,165.225 191.792,169.868 192.000 C 174.816 192.222,176.019 192.895,176.632 195.787 C 177.122 198.098,177.730 198.400,181.902 198.400 C 187.332 198.400,188.157 198.873,189.765 202.907 L 190.365 204.414 200.239 204.307 C 208.545 204.217,210.160 204.105,210.408 203.600 C 210.570 203.270,210.992 202.324,211.346 201.497 C 212.274 199.330,214.022 198.404,217.200 198.397 C 221.179 198.388,222.819 198.017,223.191 197.042 C 225.067 192.127,225.295 191.972,231.139 191.637 L 235.277 191.400 235.822 189.800 C 236.442 187.980,237.933 186.516,239.519 186.169 C 240.114 186.040,240.797 185.875,241.037 185.803 C 241.277 185.732,241.781 184.982,242.156 184.137 C 243.826 180.373,244.497 179.951,249.401 179.580 C 253.594 179.263,254.542 178.792,254.934 176.828 C 255.396 174.521,258.424 173.200,263.249 173.200 C 266.173 173.200,266.233 173.161,267.207 170.611 C 267.865 168.891,269.941 167.200,271.397 167.200 C 272.523 167.200,273.285 166.285,274.181 163.859 C 275.110 161.343,276.342 160.800,281.125 160.800 C 284.997 160.800,285.671 160.471,286.208 158.315 C 286.648 156.553,288.139 155.437,291.290 154.510 C 293.768 153.781,294.617 153.288,296.483 151.496 C 298.596 149.465,300.730 148.400,302.684 148.400 C 304.630 148.400,304.927 147.281,304.619 141.111 C 304.250 133.707,304.304 133.790,299.610 133.486 C 294.423 133.150,293.384 132.422,291.641 127.900 C 291.220 126.807,291.192 126.800,287.435 126.800 C 282.513 126.800,279.600 125.478,279.600 123.244 C 279.600 121.817,278.310 121.228,274.578 120.953 C 269.789 120.600,267.208 118.993,267.201 116.362 C 267.198 114.930,265.881 114.400,262.328 114.400 C 258.185 114.400,256.725 113.620,255.200 110.593 C 254.235 108.677,254.125 108.597,252.073 108.303 C 249.014 107.865,246.160 106.512,244.683 104.799 C 242.769 102.580,241.334 102.001,237.720 101.991 C 233.478 101.979,231.449 101.064,230.397 98.687 C 229.421 96.481,228.597 95.771,226.600 95.419 C 224.216 94.998,221.896 93.866,220.105 92.247 C 217.787 90.153,216.150 89.600,212.272 89.600 C 208.291 89.600,206.688 88.795,205.400 86.150 C 204.005 83.286,203.854 83.200,200.213 83.200 C 197.535 83.200,196.801 83.336,196.262 83.931 M278.619 183.519 C 277.652 183.750,277.309 184.164,276.729 185.801 C 275.986 187.897,274.434 189.600,273.267 189.600 C 272.172 189.600,270.854 190.726,270.008 192.384 C 268.894 194.568,266.596 195.600,262.847 195.600 C 259.454 195.600,258.400 196.035,258.400 197.434 C 258.400 200.628,256.158 202.055,250.642 202.372 C 246.382 202.617,246.513 202.544,245.434 205.291 C 244.771 206.980,242.787 208.396,241.082 208.399 C 239.957 208.400,238.922 209.254,237.447 211.398 C 236.510 212.758,234.081 213.860,231.200 214.231 C 227.835 214.664,227.292 214.974,226.819 216.730 C 225.878 220.223,224.084 221.194,218.560 221.198 C 214.491 221.201,213.062 221.690,212.034 223.432 C 211.590 224.184,210.996 224.801,210.713 224.802 C 210.431 224.804,209.700 225.066,209.090 225.384 C 205.555 227.228,195.066 227.234,191.600 225.394 C 191.050 225.102,190.278 224.762,189.885 224.638 C 189.492 224.515,188.865 223.881,188.491 223.229 C 187.623 221.716,187.153 221.579,181.600 221.217 C 175.224 220.800,175.079 220.706,173.192 215.759 C 172.836 214.827,170.850 214.401,166.844 214.399 C 164.045 214.397,162.234 213.377,161.346 211.303 C 160.992 210.476,160.571 209.530,160.409 209.200 C 160.200 208.772,159.106 208.515,156.601 208.304 C 152.607 207.967,151.044 207.256,149.733 205.178 C 147.933 202.324,147.360 202.000,144.124 202.000 C 139.930 202.000,136.432 200.042,136.387 197.669 C 136.364 196.439,134.725 195.735,131.208 195.445 C 127.273 195.121,125.824 194.429,124.635 192.305 C 123.633 190.516,122.669 189.800,120.800 189.455 C 118.869 189.099,117.272 187.701,116.622 185.800 C 116.321 184.920,115.951 184.200,115.800 184.200 C 115.649 184.200,115.279 184.920,114.978 185.800 C 113.973 188.739,112.452 189.480,106.492 189.934 L 103.004 190.200 102.261 191.800 C 101.209 194.063,100.500 194.741,98.635 195.272 C 95.870 196.060,95.600 196.496,95.601 200.162 C 95.603 203.520,96.503 206.000,97.719 206.000 C 98.274 206.000,98.954 206.586,101.084 208.901 C 101.907 209.796,102.996 210.455,104.115 210.737 C 106.553 211.351,107.916 212.535,108.237 214.317 C 108.650 216.608,108.967 216.800,112.349 216.802 C 117.739 216.806,119.564 217.720,120.726 221.000 L 121.435 223.000 125.418 223.237 C 130.131 223.518,132.126 224.307,132.814 226.163 C 134.039 229.464,133.632 229.199,137.491 229.209 C 142.557 229.221,145.600 230.914,145.600 233.718 C 145.600 234.948,146.992 235.503,150.797 235.789 C 155.947 236.177,157.806 237.245,158.259 240.077 C 158.393 240.915,158.704 241.609,158.951 241.619 C 167.225 241.977,168.721 242.528,170.400 245.832 L 171.400 247.800 175.400 248.028 C 180.627 248.325,183.200 249.877,183.200 252.732 C 183.200 253.914,184.509 254.400,187.729 254.414 C 189.528 254.422,192.440 254.688,194.200 255.006 C 198.329 255.752,202.215 255.750,206.135 255.000 C 207.860 254.670,210.680 254.400,212.402 254.400 C 216.348 254.400,216.701 254.254,217.197 252.412 C 218.025 249.337,220.695 248.000,226.010 248.000 C 228.544 248.000,229.119 247.576,229.806 245.200 C 230.539 242.661,232.079 241.937,237.395 241.630 L 241.389 241.400 241.644 239.823 C 241.948 237.943,243.328 236.612,245.607 235.998 C 247.255 235.554,248.155 234.576,248.607 232.738 C 249.191 230.359,251.814 229.206,256.651 229.202 C 259.823 229.200,260.312 228.894,261.002 226.482 C 261.612 224.348,263.637 223.468,268.389 223.271 C 272.615 223.095,273.365 222.733,273.773 220.674 C 274.140 218.818,274.891 218.032,277.022 217.270 C 278.065 216.897,279.050 216.323,279.211 215.996 C 279.371 215.668,279.792 214.724,280.146 213.897 C 280.972 211.968,282.870 210.804,285.200 210.798 C 290.370 210.784,291.175 210.479,292.207 208.146 C 292.965 206.431,293.452 205.882,294.676 205.361 C 298.084 203.909,298.616 203.516,299.400 201.875 C 299.955 200.713,300.688 199.955,301.795 199.400 C 304.250 198.168,304.403 197.827,304.296 193.818 L 304.200 190.236 302.258 189.542 C 299.786 188.659,298.907 187.850,298.332 185.930 C 298.078 185.083,297.668 184.223,297.421 184.018 C 296.874 183.564,280.273 183.123,278.619 183.519 M283.595 238.600 C 283.045 238.888,281.516 239.320,280.197 239.559 C 277.688 240.016,277.376 240.262,275.623 243.169 C 274.480 245.065,273.515 245.443,269.076 245.736 C 265.530 245.970,264.988 246.278,264.343 248.433 C 263.473 251.336,261.329 252.400,256.350 252.400 C 252.974 252.400,252.521 252.678,251.796 255.200 C 251.348 256.758,250.008 257.965,248.436 258.229 C 245.899 258.655,245.537 258.854,244.970 260.139 C 243.699 263.019,242.231 263.917,238.009 264.399 C 234.243 264.828,233.763 265.110,233.195 267.217 C 232.672 269.160,230.902 270.651,228.714 270.991 C 221.956 272.042,222.008 272.026,221.745 273.142 C 220.863 276.881,219.167 277.200,200.227 277.198 C 181.929 277.195,179.200 276.684,179.200 273.259 C 179.200 271.720,178.148 271.200,175.031 271.200 C 170.541 271.200,167.984 270.013,167.407 267.662 C 166.781 265.115,166.265 264.801,162.691 264.791 C 157.881 264.778,154.826 263.049,154.794 260.320 C 154.777 258.867,154.064 258.602,149.643 258.398 C 144.392 258.157,143.403 257.631,142.250 254.461 L 141.500 252.400 138.250 252.398 C 132.880 252.394,130.296 251.179,129.740 248.398 C 129.360 246.501,128.062 245.756,124.631 245.466 C 120.971 245.157,118.392 244.025,117.132 242.174 C 115.977 240.479,115.750 240.470,115.061 242.100 C 114.306 243.882,113.287 244.697,110.795 245.508 C 108.905 246.124,108.613 246.373,108.132 247.773 C 107.045 250.935,105.832 251.648,100.897 252.025 C 95.792 252.414,96.000 252.094,96.000 259.569 C 96.000 266.954,95.919 266.800,99.807 266.800 C 105.265 266.800,107.750 268.124,108.262 271.305 C 108.545 273.063,108.698 273.120,113.600 273.286 C 117.939 273.433,119.892 274.344,120.667 276.580 C 121.499 278.984,121.702 279.092,125.727 279.268 C 130.476 279.475,131.880 280.207,132.923 283.014 C 133.857 285.531,133.347 285.262,138.232 285.812 C 143.140 286.365,144.263 286.976,145.248 289.625 C 145.880 291.328,145.959 291.384,148.625 292.034 C 151.269 292.678,153.192 294.110,153.198 295.438 C 153.204 296.824,156.387 297.771,163.003 298.355 C 167.427 298.745,168.691 299.372,170.017 301.831 C 171.172 303.974,171.470 304.200,173.958 304.822 C 175.211 305.136,176.335 305.872,177.877 307.389 C 180.199 309.675,180.221 309.682,187.750 310.817 C 191.571 311.393,194.800 313.476,194.800 315.366 C 194.800 316.272,196.773 316.800,200.159 316.800 C 203.422 316.800,206.000 316.259,206.000 315.575 C 206.000 313.800,209.747 311.395,213.436 310.801 C 218.075 310.055,220.073 309.525,220.799 308.848 C 224.031 305.831,225.185 305.018,226.788 304.632 C 228.125 304.309,228.705 303.923,229.088 303.100 C 229.369 302.495,229.825 301.522,230.100 300.939 C 231.112 298.791,232.475 298.218,237.088 298.000 L 241.319 297.800 241.862 295.934 C 242.578 293.471,244.216 292.105,246.876 291.752 C 248.892 291.485,249.515 291.070,250.887 289.080 C 251.753 287.824,254.395 286.532,257.174 286.005 C 259.787 285.509,260.266 285.140,260.857 283.167 C 261.735 280.236,263.865 279.200,269.011 279.200 C 272.611 279.200,272.808 279.092,273.577 276.706 C 274.275 274.537,275.499 273.795,279.688 272.998 C 283.281 272.314,284.800 271.599,284.800 270.592 C 284.800 269.415,286.537 267.983,288.726 267.355 C 291.277 266.624,292.000 266.173,292.000 265.311 C 292.000 262.543,294.223 261.059,299.551 260.270 C 304.312 259.565,304.329 259.533,304.376 251.149 C 304.405 246.093,304.457 246.164,300.165 245.579 C 296.131 245.030,294.544 244.240,292.991 242.008 C 291.842 240.357,291.527 240.167,288.972 239.582 C 287.447 239.233,285.839 238.752,285.397 238.512 C 284.799 238.187,284.339 238.210,283.595 238.600 " stroke="none" fill="#c8fa98" fill-rule="evenodd"></path><path id="path1" d="M178.400 1.795 L 178.400 3.591 162.900 3.695 L 147.400 3.800 147.283 6.693 L 147.165 9.585 137.883 9.693 L 128.600 9.800 128.483 12.900 L 128.366 16.000 122.183 16.000 L 116.000 16.000 116.000 17.219 C 116.000 18.145,115.530 18.908,114.047 20.392 L 112.093 22.345 105.460 22.472 C 97.717 22.621,97.575 22.686,97.286 26.163 L 97.104 28.367 94.252 28.483 L 91.400 28.600 91.284 31.641 L 91.168 34.682 86.884 34.917 C 80.342 35.276,78.800 36.239,78.800 39.970 L 78.800 41.166 75.700 41.283 L 72.600 41.400 72.483 44.283 L 72.366 47.167 69.283 47.283 L 66.200 47.400 66.083 50.483 L 65.967 53.567 62.883 53.683 L 59.800 53.800 59.683 56.683 L 59.566 59.566 56.683 59.683 L 53.800 59.800 53.683 62.883 L 53.567 65.967 50.483 66.083 L 47.400 66.200 47.283 69.283 L 47.167 72.366 44.283 72.483 L 41.400 72.600 41.200 75.784 L 41.000 78.967 39.413 79.296 C 37.337 79.725,36.043 80.989,35.740 82.886 C 35.605 83.728,35.339 84.514,35.147 84.632 C 34.956 84.751,34.800 86.269,34.800 88.007 L 34.800 91.166 31.700 91.283 L 28.600 91.400 28.483 94.252 L 28.367 97.104 26.163 97.286 C 22.600 97.582,22.631 97.497,22.400 107.313 L 22.200 115.800 19.100 115.917 L 16.000 116.034 16.000 122.200 L 16.000 128.366 12.900 128.483 L 9.800 128.600 9.693 137.883 L 9.585 147.165 6.693 147.283 L 3.800 147.400 3.695 162.900 L 3.591 178.400 1.795 178.400 L 0.000 178.400 0.000 200.200 L 0.000 222.000 1.795 222.000 L 3.591 222.000 3.695 237.500 L 3.800 253.000 6.693 253.117 L 9.585 253.235 9.693 262.517 L 9.800 271.800 12.900 271.917 L 16.000 272.034 16.000 278.217 L 16.000 284.400 17.219 284.400 C 18.147 284.400,18.911 284.873,20.419 286.381 L 22.400 288.362 22.400 295.152 C 22.400 303.179,22.410 303.200,26.011 303.200 L 28.365 303.200 28.482 306.100 L 28.600 309.000 31.662 309.116 L 34.724 309.232 34.862 314.802 C 35.025 321.389,35.118 321.560,38.731 321.887 L 41.167 322.108 41.284 324.954 L 41.400 327.800 44.283 327.917 L 47.167 328.034 47.283 331.117 L 47.400 334.200 50.483 334.317 L 53.567 334.433 53.683 337.517 L 53.800 340.600 56.683 340.717 L 59.566 340.834 59.683 343.717 L 59.800 346.600 62.883 346.717 L 65.967 346.833 66.083 349.917 L 66.200 353.000 69.283 353.117 L 72.366 353.233 72.483 356.117 L 72.600 359.000 75.454 359.117 L 78.309 359.233 78.473 361.815 C 78.701 365.389,78.682 365.379,85.403 365.529 L 91.167 365.658 91.284 368.729 L 91.400 371.800 94.300 371.918 L 97.200 372.035 97.200 374.538 C 97.200 378.002,97.197 378.000,103.851 378.000 L 109.542 378.000 109.815 380.184 C 110.307 384.118,110.968 384.356,121.483 384.383 L 128.366 384.400 128.483 387.500 L 128.600 390.600 137.883 390.707 L 147.165 390.815 147.283 393.707 L 147.400 396.600 160.100 396.706 L 172.800 396.811 172.800 398.406 L 172.800 400.000 200.400 400.000 L 228.000 400.000 228.000 398.406 L 228.000 396.811 240.500 396.706 L 253.000 396.600 253.117 393.707 L 253.235 390.815 262.517 390.707 L 271.800 390.600 271.916 387.522 L 272.033 384.444 280.603 384.322 C 290.616 384.179,290.444 384.245,290.721 380.422 L 290.895 378.020 296.947 377.910 L 303.000 377.800 303.117 374.917 L 303.234 372.034 306.117 371.917 L 309.000 371.800 309.117 368.700 L 309.234 365.600 315.137 365.600 C 322.078 365.600,322.000 365.641,322.000 361.938 L 322.000 359.235 324.900 359.118 L 327.800 359.000 327.917 356.117 L 328.034 353.233 331.117 353.117 L 334.200 353.000 334.317 349.917 L 334.433 346.833 337.517 346.717 L 340.600 346.600 340.717 343.717 L 340.834 340.834 343.717 340.717 L 346.600 340.600 346.717 337.517 L 346.833 334.433 349.917 334.317 L 353.000 334.200 353.117 331.117 L 353.233 328.034 356.117 327.917 L 359.000 327.800 359.118 324.900 L 359.235 322.000 361.938 322.000 C 365.641 322.000,365.600 322.078,365.600 315.137 L 365.600 309.234 368.700 309.117 L 371.800 309.000 371.917 306.117 L 372.034 303.234 374.917 303.117 L 377.800 303.000 377.910 296.700 L 378.020 290.400 379.150 290.400 C 383.200 290.400,384.030 288.867,384.311 280.869 C 384.504 275.388,384.552 275.123,385.409 274.797 C 385.902 274.609,386.699 273.903,387.180 273.228 C 387.865 272.266,388.352 272.000,389.427 272.000 L 390.800 272.000 390.805 264.900 L 390.810 257.800 392.217 256.888 C 392.991 256.387,393.922 255.352,394.286 254.588 C 394.760 253.594,395.211 253.200,395.874 253.200 L 396.800 253.200 396.800 240.600 L 396.800 228.000 398.400 228.000 L 400.000 228.000 400.000 200.400 L 400.000 172.800 398.406 172.800 L 396.811 172.800 396.706 160.100 L 396.600 147.400 393.707 147.283 L 390.815 147.165 390.707 137.883 L 390.600 128.600 387.500 128.483 L 384.400 128.366 384.400 122.183 C 384.400 116.038,384.394 116.000,383.500 115.999 C 382.870 115.998,382.360 115.549,381.799 114.499 C 381.344 113.647,380.353 112.656,379.501 112.201 L 378.002 111.400 378.001 104.780 C 378.000 97.094,378.048 97.200,374.538 97.200 L 372.035 97.200 371.918 94.300 L 371.800 91.400 368.729 91.284 L 365.658 91.167 365.529 85.403 C 365.379 78.682,365.389 78.701,361.815 78.473 L 359.233 78.309 359.117 75.454 L 359.000 72.600 356.117 72.483 L 353.233 72.366 353.117 69.283 L 353.000 66.200 349.917 66.083 L 346.833 65.967 346.717 62.883 L 346.600 59.800 343.717 59.683 L 340.834 59.566 340.717 56.683 L 340.600 53.800 337.517 53.683 L 334.433 53.567 334.317 50.483 L 334.200 47.400 331.117 47.283 L 328.034 47.167 327.917 44.283 L 327.800 41.400 324.900 41.282 L 322.000 41.165 321.998 39.882 C 321.990 35.464,320.918 34.806,313.717 34.802 L 309.234 34.800 309.117 31.700 L 309.000 28.600 306.100 28.482 L 303.200 28.365 303.200 26.011 C 303.200 22.475,303.055 22.400,296.179 22.400 L 290.415 22.400 290.183 21.300 C 289.721 19.110,288.871 17.727,287.737 17.320 C 284.506 16.160,283.311 16.000,277.888 16.000 L 272.034 16.000 271.917 12.900 L 271.800 9.800 262.517 9.693 L 253.235 9.585 253.117 6.693 L 253.000 3.800 237.500 3.695 L 222.000 3.591 222.000 1.795 L 222.000 0.000 200.200 0.000 L 178.400 0.000 178.400 1.795 M206.203 80.248 C 207.263 80.797,207.917 81.466,208.149 82.238 C 209.132 85.508,208.230 85.134,217.200 85.996 C 222.624 86.518,224.188 87.170,225.360 89.398 C 226.410 91.393,226.536 91.482,229.104 92.019 C 231.593 92.539,233.376 93.909,233.992 95.774 C 234.510 97.344,234.462 97.328,241.200 98.221 C 247.092 99.003,249.271 99.824,250.361 101.673 C 251.554 103.698,252.413 104.392,254.324 104.873 C 256.327 105.377,258.400 106.947,258.400 107.959 C 258.400 109.586,259.334 110.075,263.180 110.461 C 268.118 110.956,270.792 112.608,270.799 115.169 C 270.802 116.669,272.025 117.200,275.475 117.200 C 280.288 117.200,282.057 118.141,282.990 121.200 C 283.624 123.282,284.270 123.600,287.854 123.600 C 292.798 123.600,295.600 125.090,295.600 127.718 C 295.600 129.028,296.943 129.524,300.872 129.663 C 307.620 129.902,308.406 131.088,308.383 141.000 C 308.363 149.393,308.147 149.970,304.346 151.784 C 302.305 152.759,301.615 153.339,300.866 154.707 C 299.645 156.940,298.168 157.666,293.808 158.178 L 290.216 158.600 289.156 160.814 C 287.835 163.573,286.979 164.010,281.802 164.569 L 277.803 165.000 277.063 166.600 C 276.104 168.671,274.585 170.267,273.256 170.599 C 271.834 170.954,270.915 171.843,270.414 173.348 C 269.658 175.618,267.622 176.580,263.231 176.739 C 259.384 176.879,258.400 177.194,258.400 178.289 C 258.400 181.078,256.323 182.605,251.085 183.666 L 247.000 184.493 246.200 186.147 C 245.435 187.728,244.502 188.409,241.190 189.800 C 240.666 190.020,239.778 190.991,239.217 191.958 C 237.518 194.884,236.530 195.379,232.072 195.537 C 227.823 195.688,227.028 196.052,226.589 198.051 C 225.938 201.013,224.480 201.796,218.642 202.318 C 215.290 202.617,215.394 202.547,214.149 205.351 C 212.908 208.146,211.819 208.381,200.080 208.391 C 188.351 208.401,186.011 207.677,186.001 204.031 C 185.997 202.480,184.797 202.000,180.918 202.000 C 175.700 202.000,175.083 201.629,173.438 197.500 C 173.110 196.675,172.697 195.989,172.520 195.975 C 172.344 195.961,170.265 195.814,167.900 195.650 C 163.194 195.321,161.610 194.497,161.001 192.056 C 160.470 189.928,159.788 189.600,155.898 189.600 C 150.928 189.600,148.400 188.083,148.400 185.102 C 148.400 183.795,147.066 183.279,143.329 183.138 C 139.085 182.978,137.908 182.382,136.600 179.729 C 135.187 176.864,135.054 176.789,131.858 177.055 C 126.930 177.465,124.429 176.280,123.582 173.134 C 123.054 171.173,122.968 171.135,118.337 170.814 C 113.702 170.493,112.682 169.950,111.285 167.061 C 110.258 164.937,109.694 164.633,106.029 164.228 C 102.606 163.850,100.616 162.791,99.604 160.808 C 98.725 159.084,97.782 158.400,96.285 158.400 C 92.865 158.400,91.444 155.335,91.743 148.600 C 92.141 139.636,93.955 137.101,100.740 136.032 C 103.715 135.563,104.199 135.236,104.830 133.268 C 105.706 130.538,106.629 129.927,111.400 128.924 C 114.199 128.335,115.767 127.366,116.218 125.944 C 116.490 125.086,118.298 124.162,121.026 123.485 C 123.031 122.987,123.247 122.754,124.370 119.883 C 125.119 117.966,126.522 117.362,130.978 117.041 C 134.903 116.758,135.757 116.317,136.146 114.369 C 136.661 111.794,138.849 110.660,144.279 110.156 C 147.125 109.892,147.164 109.873,147.739 108.445 C 148.495 106.568,149.824 105.379,151.747 104.858 C 153.467 104.392,154.800 103.370,154.800 102.518 C 154.800 99.797,157.859 98.022,162.569 98.009 C 165.812 98.000,167.200 97.433,167.200 96.118 C 167.200 93.866,169.340 92.253,173.139 91.641 C 175.332 91.288,175.794 91.035,177.600 89.200 C 180.243 86.515,181.693 85.965,186.934 85.656 L 191.283 85.400 192.032 83.424 C 192.937 81.036,193.420 80.518,195.441 79.768 C 197.802 78.893,204.132 79.175,206.203 80.248 M292.410 179.550 C 299.290 179.869,299.927 180.138,301.600 183.432 C 302.383 184.972,303.028 185.617,304.568 186.400 C 307.620 187.951,308.175 188.981,308.338 193.397 C 308.603 200.621,305.108 206.203,299.312 207.813 C 298.040 208.166,296.782 208.524,296.517 208.608 C 296.251 208.693,295.621 209.624,295.117 210.678 C 293.810 213.410,292.308 214.269,288.248 214.607 C 284.297 214.937,284.390 214.887,283.248 217.276 C 282.530 218.778,281.978 219.322,280.476 220.004 C 279.444 220.473,278.330 220.992,278.000 221.158 C 277.670 221.324,277.091 222.076,276.714 222.830 C 275.053 226.146,273.786 226.800,269.023 226.800 C 265.348 226.800,265.205 226.880,263.800 229.729 C 262.492 232.382,261.315 232.978,257.071 233.138 C 253.004 233.291,252.316 233.629,251.588 235.835 C 251.135 237.208,249.143 239.200,248.223 239.200 C 247.328 239.200,245.608 240.817,244.783 242.432 C 243.622 244.709,241.623 245.600,237.678 245.600 C 234.143 245.600,233.889 245.757,232.601 248.730 C 231.711 250.785,229.716 251.985,227.116 252.030 C 222.764 252.105,221.935 252.440,220.826 254.573 C 219.200 257.700,218.254 258.180,213.472 258.312 C 208.133 258.459,207.795 258.555,206.637 260.260 C 203.756 264.499,196.644 264.499,193.763 260.260 C 192.605 258.555,192.267 258.459,186.928 258.312 C 182.143 258.180,181.187 257.692,179.600 254.568 L 178.600 252.600 174.400 252.148 C 168.854 251.552,166.000 250.060,166.000 247.757 C 166.000 247.037,165.856 246.984,161.314 246.019 C 156.879 245.078,155.832 244.450,154.680 242.041 L 153.800 240.200 149.800 239.876 C 144.265 239.427,143.386 238.827,141.641 234.300 C 141.219 233.204,141.202 233.200,137.309 233.199 C 132.312 233.197,129.600 231.608,129.600 228.682 C 129.600 227.355,128.263 226.875,124.183 226.736 C 119.648 226.582,117.919 225.734,117.385 223.400 C 116.862 221.111,116.247 220.800,112.238 220.799 C 107.573 220.797,104.800 219.139,104.800 216.351 C 104.800 215.390,103.471 214.400,102.180 214.400 C 95.066 214.400,91.608 209.691,91.605 200.000 C 91.604 194.982,92.850 192.802,96.202 191.958 C 97.267 191.690,98.152 191.211,98.263 190.844 C 99.422 187.021,100.555 186.273,105.663 185.964 C 109.871 185.710,110.609 185.379,111.006 183.571 C 111.988 179.099,118.104 178.464,120.105 182.626 C 120.522 183.492,121.002 184.470,121.173 184.800 C 121.343 185.130,121.914 185.522,122.441 185.672 C 122.969 185.822,124.192 186.175,125.161 186.456 C 126.321 186.794,127.686 187.700,129.161 189.114 C 131.232 191.099,134.631 192.379,137.886 192.399 C 138.302 192.402,140.800 195.010,140.800 195.441 C 140.800 195.749,140.980 196.000,141.200 196.000 C 141.420 196.000,141.600 196.247,141.600 196.549 C 141.600 196.920,142.737 197.323,145.100 197.792 C 151.728 199.106,152.592 199.449,154.878 201.678 C 156.513 203.271,157.637 203.961,159.773 204.685 C 163.125 205.820,163.454 206.074,164.548 208.386 C 165.199 209.761,165.648 210.219,166.404 210.280 C 174.079 210.899,173.693 210.813,175.084 212.204 C 175.811 212.931,176.515 214.073,176.648 214.742 C 177.079 216.894,177.648 217.087,184.200 217.303 C 190.895 217.524,193.832 218.294,195.911 220.372 C 197.763 222.224,202.803 222.533,204.195 220.879 C 206.279 218.402,210.816 217.200,218.084 217.200 C 222.862 217.200,222.852 217.206,224.185 213.862 C 224.973 211.885,225.107 211.768,227.601 210.879 C 229.368 210.249,230.650 209.467,231.619 208.428 C 233.500 206.411,234.933 205.718,238.407 205.144 L 241.293 204.667 242.402 202.195 C 243.795 199.092,245.193 198.400,250.077 198.400 C 253.267 198.400,254.800 197.848,254.800 196.698 C 254.800 194.217,257.498 192.216,261.600 191.654 C 264.120 191.309,264.728 191.074,265.400 190.184 C 267.105 187.927,268.435 186.895,270.281 186.396 C 272.168 185.887,273.600 185.000,273.600 184.341 C 273.600 180.894,279.713 178.154,285.321 179.086 C 285.938 179.189,289.127 179.397,292.410 179.550 M286.168 231.180 C 286.862 231.609,287.829 232.669,288.315 233.535 C 289.257 235.210,290.772 236.123,293.381 236.586 C 295.656 236.990,297.748 238.165,299.089 239.791 C 299.990 240.885,300.793 241.344,302.627 241.814 C 307.882 243.161,308.502 244.408,308.302 253.233 C 308.092 262.530,307.349 263.606,300.542 264.479 C 296.566 264.989,296.154 265.189,295.805 266.777 C 295.492 268.203,294.324 269.281,291.813 270.464 C 290.403 271.128,289.569 271.857,288.944 272.971 C 287.617 275.337,285.803 276.236,281.720 276.549 C 277.870 276.845,277.406 277.092,276.364 279.394 C 274.869 282.694,273.894 283.200,269.036 283.200 C 265.424 283.200,264.722 283.560,264.192 285.685 C 263.816 287.190,262.180 288.714,260.350 289.262 C 258.990 289.670,256.000 292.097,256.000 292.793 C 256.000 293.457,252.709 294.766,250.000 295.178 C 246.695 295.681,246.219 295.998,245.019 298.492 C 243.703 301.226,242.147 302.000,237.970 302.000 C 234.357 302.000,232.800 302.790,232.800 304.623 C 232.800 305.670,230.714 307.593,229.071 308.063 C 226.884 308.687,226.602 308.930,225.563 311.077 C 224.486 313.300,223.398 313.801,218.800 314.187 C 215.695 314.448,213.200 315.288,213.200 316.072 C 213.200 321.940,190.594 322.452,187.948 316.645 C 187.321 315.270,185.127 314.474,181.135 314.173 C 176.951 313.857,175.784 313.237,174.416 310.601 C 173.456 308.753,173.278 308.620,171.200 308.201 C 168.430 307.642,166.971 306.861,165.200 304.986 C 163.271 302.945,161.690 302.371,156.833 301.949 C 151.897 301.521,150.563 300.898,149.317 298.440 C 148.309 296.453,147.666 295.939,145.354 295.274 C 143.365 294.702,141.602 293.387,141.594 292.471 C 141.582 291.143,140.884 290.778,136.900 290.019 C 131.917 289.070,130.699 288.466,129.835 286.518 C 128.617 283.770,128.680 283.815,125.623 283.538 C 119.820 283.012,118.431 282.348,117.578 279.694 C 116.721 277.024,116.307 276.800,112.232 276.800 C 107.638 276.800,106.226 276.150,104.774 273.367 L 103.747 271.401 99.504 270.967 C 92.239 270.223,91.897 269.662,92.076 258.763 L 92.200 251.213 93.418 249.997 C 94.433 248.982,95.323 248.635,98.784 247.906 C 102.590 247.105,102.986 246.934,103.567 245.842 C 104.648 243.808,105.832 242.871,108.189 242.186 C 110.243 241.589,110.529 241.367,111.178 239.863 C 113.264 235.032,121.908 235.249,124.570 240.200 C 125.133 241.248,125.625 241.586,126.600 241.596 C 129.494 241.626,132.501 243.614,133.033 245.849 C 133.569 248.096,134.176 248.399,138.162 248.409 C 143.501 248.422,145.070 249.271,146.362 252.847 C 146.716 253.827,146.991 253.925,150.670 254.388 C 155.778 255.031,158.400 256.529,158.400 258.805 C 158.400 260.003,159.288 260.334,163.540 260.719 C 168.288 261.149,169.452 261.754,170.400 264.284 C 171.412 266.983,171.640 267.109,175.789 267.262 C 180.123 267.421,181.284 268.002,182.600 270.671 C 184.164 273.843,182.714 273.600,200.063 273.600 C 216.756 273.600,217.600 273.501,217.600 271.548 C 217.600 269.124,221.200 267.228,225.838 267.210 C 228.575 267.199,228.966 266.918,230.198 264.072 C 231.016 262.184,231.718 261.708,235.619 260.394 C 237.038 259.915,238.299 259.364,238.420 259.168 C 239.139 258.005,243.145 255.580,245.053 255.153 C 247.406 254.627,247.804 254.295,249.000 251.871 C 250.308 249.218,251.485 248.622,255.729 248.462 C 259.796 248.309,260.484 247.971,261.212 245.765 C 262.048 243.230,263.887 242.284,269.712 241.391 C 270.897 241.209,271.486 240.799,272.429 239.497 C 273.870 237.507,275.223 236.560,277.138 236.200 C 278.982 235.855,279.896 235.189,280.971 233.407 C 282.598 230.711,284.258 230.000,286.168 231.180 " stroke="none" fill="#0c2c43" fill-rule="evenodd"></path><path id="path2" d="M195.428 82.700 C 194.866 83.305,193.811 84.610,193.084 85.600 L 191.762 87.400 188.181 87.691 C 183.261 88.091,183.114 88.144,180.761 90.400 C 178.676 92.399,177.360 92.997,174.000 93.472 C 171.600 93.811,170.602 94.523,168.988 97.046 C 167.212 99.822,166.023 100.400,162.090 100.400 C 158.595 100.400,158.447 100.489,156.278 103.892 C 155.624 104.918,154.530 105.921,153.500 106.440 C 152.565 106.910,150.789 108.379,149.552 109.704 L 147.305 112.113 144.152 112.310 C 140.434 112.541,139.410 113.120,137.646 115.987 C 136.150 118.418,135.020 119.016,131.288 119.348 C 127.800 119.659,127.135 120.024,125.538 122.503 C 124.753 123.722,123.932 124.496,123.256 124.655 C 121.316 125.111,119.222 126.525,118.109 128.131 C 116.792 130.031,115.506 130.624,111.869 131.010 C 108.852 131.330,108.317 131.701,106.359 134.833 C 105.729 135.842,104.625 136.953,103.907 137.303 C 103.188 137.652,101.610 138.395,100.400 138.953 C 95.704 141.118,93.600 144.664,93.600 150.415 C 93.600 153.724,95.439 156.800,97.416 156.800 C 98.324 156.800,101.216 158.347,102.658 159.605 C 103.350 160.208,104.745 160.994,105.758 161.351 C 106.771 161.708,108.397 162.280,109.370 162.622 C 110.644 163.069,111.767 163.957,113.373 165.786 L 115.605 168.329 119.009 168.612 C 122.825 168.930,124.048 169.584,124.975 171.802 C 126.073 174.430,126.795 174.800,130.826 174.800 C 135.148 174.800,135.509 174.958,138.600 178.208 L 141.000 180.731 144.200 181.021 C 147.694 181.337,147.721 181.356,151.546 185.974 L 152.893 187.600 156.293 187.600 L 159.694 187.600 161.293 189.300 C 165.712 193.997,165.005 193.596,168.869 193.598 C 172.674 193.600,174.425 194.451,174.953 196.554 C 175.514 198.792,177.723 200.000,181.252 200.000 C 185.085 200.000,186.219 200.533,187.839 203.095 C 189.974 206.474,189.698 206.400,200.200 206.400 C 210.716 206.400,210.402 206.485,212.821 202.970 C 214.470 200.573,215.729 200.000,219.349 200.000 C 222.589 200.000,224.800 198.855,224.800 197.178 C 224.800 195.169,227.261 193.740,231.157 193.488 C 235.102 193.232,236.369 192.623,237.774 190.306 C 238.139 189.705,239.284 188.651,240.319 187.965 C 241.354 187.279,243.190 185.656,244.400 184.358 L 246.600 181.999 250.375 181.453 C 254.500 180.857,254.333 180.968,257.339 176.800 L 258.637 175.000 262.418 174.800 C 266.792 174.569,267.076 174.439,268.775 171.909 C 269.539 170.771,270.880 169.519,272.143 168.763 C 273.640 167.868,274.522 166.977,275.221 165.654 C 276.531 163.173,278.125 162.401,281.940 162.401 C 285.088 162.400,285.567 162.122,288.200 158.765 C 289.495 157.113,290.730 156.482,294.085 155.757 C 297.010 155.125,297.360 154.940,298.699 153.305 C 299.546 152.272,301.098 151.057,302.433 150.383 C 306.356 148.403,306.489 148.072,306.333 140.711 L 306.200 134.414 304.912 133.126 C 303.701 131.916,303.409 131.826,300.053 131.619 C 296.090 131.376,295.476 131.046,293.694 128.200 C 291.948 125.412,291.709 125.295,287.427 125.141 L 283.533 125.000 282.379 123.600 C 281.743 122.830,280.657 121.525,279.965 120.700 L 278.707 119.200 275.454 119.198 C 271.678 119.196,270.854 118.733,268.689 115.400 C 267.153 113.035,265.836 112.456,261.917 112.423 C 259.309 112.401,259.203 112.359,258.117 110.935 C 256.206 108.430,255.118 107.583,251.716 105.960 C 249.904 105.095,248.221 104.013,247.977 103.556 C 247.199 102.103,241.458 100.017,238.200 100.003 C 235.113 99.989,233.677 99.309,232.100 97.114 C 230.937 95.496,230.095 94.832,228.018 93.895 C 226.578 93.246,224.680 92.130,223.800 91.416 C 220.660 88.869,216.754 87.617,211.916 87.606 C 209.036 87.600,208.231 87.133,206.980 84.748 C 205.219 81.388,197.859 80.084,195.428 82.700 M204.051 83.853 C 204.353 84.213,204.960 85.246,205.400 86.150 C 206.688 88.795,208.291 89.600,212.272 89.600 C 216.150 89.600,217.787 90.153,220.105 92.247 C 221.896 93.866,224.216 94.998,226.600 95.419 C 228.597 95.771,229.421 96.481,230.397 98.687 C 231.449 101.064,233.478 101.979,237.720 101.991 C 241.334 102.001,242.769 102.580,244.683 104.799 C 246.160 106.512,249.014 107.865,252.073 108.303 C 254.125 108.597,254.235 108.677,255.200 110.593 C 256.725 113.620,258.185 114.400,262.328 114.400 C 265.881 114.400,267.198 114.930,267.201 116.362 C 267.208 118.993,269.789 120.600,274.578 120.953 C 278.310 121.228,279.600 121.817,279.600 123.244 C 279.600 125.478,282.513 126.800,287.435 126.800 C 291.192 126.800,291.220 126.807,291.641 127.900 C 293.384 132.422,294.423 133.150,299.610 133.486 C 304.304 133.790,304.250 133.707,304.619 141.111 C 304.927 147.281,304.630 148.400,302.684 148.400 C 300.730 148.400,298.596 149.465,296.483 151.496 C 294.617 153.288,293.768 153.781,291.290 154.510 C 288.139 155.437,286.648 156.553,286.208 158.315 C 285.671 160.471,284.997 160.800,281.125 160.800 C 276.342 160.800,275.110 161.343,274.181 163.859 C 273.285 166.285,272.523 167.200,271.397 167.200 C 269.941 167.200,267.865 168.891,267.207 170.611 C 266.233 173.161,266.173 173.200,263.249 173.200 C 258.424 173.200,255.396 174.521,254.934 176.828 C 254.542 178.792,253.594 179.263,249.401 179.580 C 244.497 179.951,243.826 180.373,242.156 184.137 C 241.781 184.982,241.277 185.732,241.037 185.803 C 240.797 185.875,240.114 186.040,239.519 186.169 C 237.933 186.516,236.442 187.980,235.822 189.800 L 235.277 191.400 231.139 191.637 C 225.295 191.972,225.067 192.127,223.191 197.042 C 222.819 198.017,221.179 198.388,217.200 198.397 C 214.022 198.404,212.274 199.330,211.346 201.497 C 210.992 202.324,210.570 203.270,210.408 203.600 C 210.160 204.105,208.545 204.217,200.239 204.307 L 190.365 204.414 189.765 202.907 C 188.157 198.873,187.332 198.400,181.902 198.400 C 177.730 198.400,177.122 198.098,176.632 195.787 C 176.019 192.895,174.816 192.222,169.868 192.000 C 165.225 191.792,164.400 191.571,164.400 190.537 C 164.400 187.515,161.895 186.000,156.902 186.000 C 152.962 186.000,152.365 185.694,151.825 183.400 C 151.670 182.740,151.079 181.712,150.511 181.115 C 149.498 180.050,148.961 179.880,143.200 178.793 C 141.153 178.407,140.953 178.267,140.326 176.781 C 139.321 174.399,137.318 173.620,132.162 173.609 C 127.682 173.599,127.129 173.331,126.616 170.917 C 126.151 168.728,124.185 167.402,120.560 166.833 C 115.935 166.107,115.692 166.020,115.435 164.996 C 115.021 163.348,113.242 161.640,111.471 161.193 C 108.824 160.523,106.865 159.558,106.251 158.621 C 105.433 157.373,101.333 155.318,99.000 154.986 C 95.976 154.557,95.600 154.044,95.600 150.352 C 95.600 146.667,96.326 144.805,98.061 144.037 C 98.716 143.747,99.645 142.908,100.126 142.172 C 100.940 140.926,101.738 140.448,105.114 139.184 C 106.730 138.578,107.898 137.151,108.231 135.374 C 108.582 133.504,108.934 133.332,112.886 133.097 C 117.110 132.846,118.641 132.091,119.883 129.640 C 120.886 127.663,121.534 127.141,123.800 126.484 C 125.681 125.939,127.490 124.377,127.836 122.999 C 128.023 122.255,128.431 121.961,129.541 121.771 C 136.993 120.494,138.221 119.928,139.200 117.316 C 140.228 114.573,140.521 114.400,144.149 114.399 C 148.284 114.399,149.857 113.680,151.095 111.225 C 152.252 108.932,152.409 108.791,154.675 108.036 C 156.726 107.352,158.400 105.444,158.400 103.790 C 158.400 102.361,159.156 102.085,163.472 101.938 C 168.193 101.778,169.401 101.181,170.400 98.516 C 171.365 95.942,171.701 95.729,175.294 95.416 C 179.311 95.066,180.429 94.518,182.222 92.022 C 183.919 89.660,184.063 89.600,188.046 89.600 C 192.607 89.600,195.592 87.874,195.599 85.231 C 195.604 83.256,202.592 82.117,204.051 83.853 M280.141 181.563 C 277.297 181.837,276.255 182.570,275.128 185.089 C 274.538 186.407,273.834 187.093,271.919 188.216 C 270.569 189.007,268.673 190.435,267.704 191.390 C 266.049 193.022,265.740 193.156,262.530 193.633 C 258.789 194.190,258.589 194.318,256.605 197.420 C 254.856 200.153,254.336 200.400,250.322 200.400 C 246.617 200.400,245.798 200.846,243.839 203.928 C 242.493 206.046,241.731 206.612,238.672 207.760 C 237.172 208.324,235.240 209.388,234.379 210.125 C 233.518 210.862,231.775 211.805,230.506 212.219 C 227.359 213.246,226.217 214.099,225.214 216.170 C 223.937 218.809,223.588 218.972,218.640 219.242 C 213.721 219.510,210.366 220.517,208.483 222.289 C 204.569 225.973,194.848 225.714,191.634 221.840 C 190.598 220.593,185.055 219.200,181.127 219.200 L 177.494 219.200 176.147 217.772 C 175.406 216.986,174.800 216.012,174.800 215.607 C 174.800 213.867,172.595 212.800,168.998 212.800 C 165.298 212.800,165.881 213.130,161.633 208.631 C 160.676 207.617,159.598 206.999,158.033 206.565 C 154.227 205.512,153.457 205.131,151.600 203.382 C 149.184 201.106,147.941 200.544,144.183 200.031 L 141.000 199.596 138.600 197.047 C 137.280 195.646,135.840 194.395,135.400 194.268 C 134.960 194.141,133.354 193.754,131.830 193.408 C 128.774 192.714,127.198 191.881,125.417 190.019 C 124.766 189.339,123.291 188.351,122.139 187.824 C 120.624 187.130,119.640 186.301,118.578 184.823 C 116.170 181.471,115.371 181.445,113.169 184.645 C 111.309 187.349,109.990 187.997,106.342 187.999 C 103.048 188.000,102.271 188.420,100.200 191.320 C 99.760 191.937,98.500 192.989,97.400 193.660 C 94.238 195.587,94.018 196.026,94.018 200.400 C 94.018 205.715,95.933 209.102,100.048 211.063 C 100.571 211.312,102.026 211.994,103.279 212.577 C 104.895 213.330,105.816 214.070,106.443 215.119 C 108.432 218.450,109.011 218.800,112.528 218.800 C 116.177 218.800,117.709 219.485,118.958 221.672 C 120.635 224.612,120.992 224.800,124.884 224.800 C 129.014 224.800,129.907 225.216,131.455 227.858 C 133.154 230.756,134.003 231.200,137.851 231.200 C 141.625 231.200,142.627 231.729,144.030 234.466 C 145.304 236.950,146.626 237.600,150.409 237.600 L 153.694 237.600 155.147 239.150 C 155.946 240.002,157.181 241.333,157.892 242.107 C 159.110 243.435,159.374 243.531,162.492 243.797 L 165.800 244.079 167.954 246.339 C 171.188 249.734,171.712 249.994,175.314 249.997 C 178.972 250.000,179.948 250.487,181.454 253.056 C 183.114 255.888,184.149 256.398,188.262 256.409 C 191.095 256.417,192.278 256.616,194.200 257.407 C 198.411 259.141,202.207 259.194,205.703 257.569 C 208.232 256.393,209.129 256.195,212.757 256.011 L 216.915 255.800 217.957 254.420 C 221.001 250.390,221.621 250.000,224.994 250.000 C 228.054 250.000,228.095 249.986,229.444 248.500 C 230.192 247.675,231.590 246.145,232.550 245.100 L 234.295 243.200 237.578 243.200 C 241.086 243.200,242.198 242.619,243.560 240.075 C 243.830 239.570,245.021 238.537,246.207 237.778 C 247.393 237.019,248.687 235.920,249.082 235.334 C 249.477 234.748,250.454 233.579,251.253 232.735 L 252.706 231.200 255.967 231.200 C 259.787 231.200,260.733 230.740,262.255 228.142 C 263.987 225.187,264.767 224.800,268.984 224.800 C 273.050 224.800,273.662 224.476,275.130 221.547 C 275.517 220.773,276.762 219.575,278.079 218.707 C 279.332 217.882,280.914 216.398,281.594 215.409 C 283.253 212.998,284.023 212.634,287.969 212.400 L 291.338 212.200 293.191 209.800 C 294.472 208.141,295.754 207.019,297.344 206.167 C 306.399 201.312,309.634 191.282,303.203 188.002 C 302.367 187.575,301.259 186.673,300.741 185.998 C 297.962 182.373,297.578 182.045,295.877 181.840 C 293.015 181.494,282.727 181.313,280.141 181.563 M297.421 184.018 C 297.668 184.223,298.078 185.083,298.332 185.930 C 298.907 187.850,299.786 188.659,302.258 189.542 L 304.200 190.236 304.296 193.818 C 304.403 197.827,304.250 198.168,301.795 199.400 C 300.688 199.955,299.955 200.713,299.400 201.875 C 298.616 203.516,298.084 203.909,294.676 205.361 C 293.452 205.882,292.965 206.431,292.207 208.146 C 291.175 210.479,290.370 210.784,285.200 210.798 C 282.870 210.804,280.972 211.968,280.146 213.897 C 279.792 214.724,279.371 215.668,279.211 215.996 C 279.050 216.323,278.065 216.897,277.022 217.270 C 274.891 218.032,274.140 218.818,273.773 220.674 C 273.365 222.733,272.615 223.095,268.389 223.271 C 263.637 223.468,261.612 224.348,261.002 226.482 C 260.312 228.894,259.823 229.200,256.651 229.202 C 251.814 229.206,249.191 230.359,248.607 232.738 C 248.155 234.576,247.255 235.554,245.607 235.998 C 243.328 236.612,241.948 237.943,241.644 239.823 L 241.389 241.400 237.395 241.630 C 232.079 241.937,230.539 242.661,229.806 245.200 C 229.119 247.576,228.544 248.000,226.010 248.000 C 220.695 248.000,218.025 249.337,217.197 252.412 C 216.701 254.254,216.348 254.400,212.402 254.400 C 210.680 254.400,207.860 254.670,206.135 255.000 C 202.215 255.750,198.329 255.752,194.200 255.006 C 192.440 254.688,189.528 254.422,187.729 254.414 C 184.509 254.400,183.200 253.914,183.200 252.732 C 183.200 249.877,180.627 248.325,175.400 248.028 L 171.400 247.800 170.400 245.832 C 168.721 242.528,167.225 241.977,158.951 241.619 C 158.704 241.609,158.393 240.915,158.259 240.077 C 157.806 237.245,155.947 236.177,150.797 235.789 C 146.992 235.503,145.600 234.948,145.600 233.718 C 145.600 230.914,142.557 229.221,137.491 229.209 C 133.632 229.199,134.039 229.464,132.814 226.163 C 132.126 224.307,130.131 223.518,125.418 223.237 L 121.435 223.000 120.726 221.000 C 119.564 217.720,117.739 216.806,112.349 216.802 C 108.967 216.800,108.650 216.608,108.237 214.317 C 107.916 212.535,106.553 211.351,104.115 210.737 C 102.996 210.455,101.907 209.796,101.084 208.901 C 98.954 206.586,98.274 206.000,97.719 206.000 C 96.503 206.000,95.603 203.520,95.601 200.162 C 95.600 196.496,95.870 196.060,98.635 195.272 C 100.500 194.741,101.209 194.063,102.261 191.800 L 103.004 190.200 106.492 189.934 C 112.452 189.480,113.973 188.739,114.978 185.800 C 115.279 184.920,115.649 184.200,115.800 184.200 C 115.951 184.200,116.321 184.920,116.622 185.800 C 117.272 187.701,118.869 189.099,120.800 189.455 C 122.669 189.800,123.633 190.516,124.635 192.305 C 125.824 194.429,127.273 195.121,131.208 195.445 C 134.725 195.735,136.364 196.439,136.387 197.669 C 136.432 200.042,139.930 202.000,144.124 202.000 C 147.360 202.000,147.933 202.324,149.733 205.178 C 151.044 207.256,152.607 207.967,156.601 208.304 C 159.106 208.515,160.200 208.772,160.409 209.200 C 160.571 209.530,160.992 210.476,161.346 211.303 C 162.234 213.377,164.045 214.397,166.844 214.399 C 170.850 214.401,172.836 214.827,173.192 215.759 C 175.079 220.706,175.224 220.800,181.600 221.217 C 187.153 221.579,187.623 221.716,188.491 223.229 C 188.865 223.881,189.492 224.515,189.885 224.638 C 190.278 224.762,191.050 225.102,191.600 225.394 C 195.066 227.234,205.555 227.228,209.090 225.384 C 209.700 225.066,210.431 224.804,210.713 224.802 C 210.996 224.801,211.590 224.184,212.034 223.432 C 213.062 221.690,214.491 221.201,218.560 221.198 C 224.084 221.194,225.878 220.223,226.819 216.730 C 227.292 214.974,227.835 214.664,231.200 214.231 C 234.081 213.860,236.510 212.758,237.447 211.398 C 238.922 209.254,239.957 208.400,241.082 208.399 C 242.787 208.396,244.771 206.980,245.434 205.291 C 246.513 202.544,246.382 202.617,250.642 202.372 C 256.158 202.055,258.400 200.628,258.400 197.434 C 258.400 196.035,259.454 195.600,262.847 195.600 C 266.596 195.600,268.894 194.568,270.008 192.384 C 270.854 190.726,272.172 189.600,273.267 189.600 C 274.434 189.600,275.986 187.897,276.729 185.801 C 277.309 184.164,277.652 183.750,278.619 183.519 C 280.273 183.123,296.874 183.564,297.421 184.018 M283.282 235.305 C 282.570 236.017,280.506 237.320,278.694 238.200 C 276.882 239.080,275.238 240.160,275.040 240.600 C 274.253 242.349,272.478 243.275,268.898 243.804 C 265.660 244.282,265.355 244.411,264.217 245.782 C 263.548 246.588,262.259 248.047,261.353 249.024 L 259.705 250.800 256.327 250.800 C 252.586 250.800,252.056 251.111,250.048 254.473 C 249.363 255.620,248.438 256.295,245.883 257.515 C 243.709 258.553,242.408 259.439,242.036 260.133 C 241.428 261.268,239.406 262.190,236.276 262.757 C 234.139 263.144,232.784 264.208,231.486 266.517 C 230.276 268.671,228.732 269.462,225.102 269.789 C 222.088 270.060,219.200 271.967,219.200 273.686 C 219.200 275.270,215.929 275.600,200.216 275.600 C 182.600 275.600,182.883 275.647,180.803 272.404 C 179.140 269.814,178.696 269.600,174.974 269.600 L 171.895 269.600 170.247 267.824 C 169.341 266.847,168.051 265.387,167.380 264.578 C 166.168 263.119,166.134 263.107,162.470 262.898 C 158.835 262.691,158.765 262.668,157.690 261.301 C 154.479 257.217,153.994 256.921,150.177 256.721 L 146.677 256.537 143.839 253.456 L 141.000 250.375 137.554 250.388 C 133.591 250.402,132.768 249.980,131.055 247.058 C 129.854 245.008,128.697 244.164,126.558 243.775 C 124.126 243.334,122.016 242.391,119.275 240.522 C 116.074 238.339,115.641 238.362,113.584 240.819 C 112.654 241.929,111.153 243.200,110.247 243.643 C 109.341 244.086,107.510 245.628,106.178 247.071 L 103.756 249.694 100.204 250.134 C 96.954 250.537,96.535 250.692,95.266 251.960 L 93.880 253.346 94.132 259.743 C 94.454 267.922,94.636 268.198,99.944 268.593 C 104.087 268.901,105.006 269.304,106.339 271.400 C 108.488 274.780,108.526 274.800,112.717 274.800 L 116.494 274.800 117.947 276.379 C 118.746 277.247,119.950 278.619,120.622 279.427 C 121.795 280.836,121.965 280.903,124.822 281.066 C 128.521 281.277,129.970 281.973,131.389 284.217 C 132.931 286.657,133.926 287.182,137.849 287.628 C 140.996 287.985,141.349 288.117,142.333 289.304 C 144.173 291.526,145.342 292.486,147.200 293.302 C 148.200 293.741,149.977 295.122,151.200 296.412 L 153.400 298.733 159.517 299.756 C 166.049 300.848,166.335 300.964,168.425 303.358 C 169.214 304.263,170.795 305.373,172.193 306.005 C 173.757 306.711,175.230 307.791,176.400 309.087 C 178.178 311.058,178.241 311.088,181.600 311.560 C 186.728 312.282,189.786 313.408,191.524 315.216 C 195.674 319.531,205.148 319.627,209.491 315.398 C 211.096 313.835,214.473 312.015,215.800 311.997 C 219.047 311.953,222.232 310.783,223.800 309.060 C 224.680 308.092,226.350 306.822,227.511 306.238 C 229.084 305.446,229.934 304.669,230.843 303.192 C 232.738 300.112,233.715 299.600,237.692 299.600 C 241.417 299.600,241.683 299.450,243.581 296.280 C 244.743 294.337,245.476 293.876,249.750 292.395 C 251.887 291.654,253.596 290.792,254.128 290.186 C 254.607 289.639,256.350 288.518,258.000 287.695 C 260.439 286.479,261.238 285.835,262.273 284.246 C 264.173 281.330,265.198 280.806,269.011 280.803 C 272.799 280.800,273.720 280.319,274.809 277.779 C 275.788 275.496,276.712 274.995,281.000 274.425 L 284.600 273.946 287.006 271.373 C 288.330 269.958,289.700 268.800,290.052 268.800 C 290.827 268.800,292.666 267.139,294.155 265.092 C 295.724 262.936,296.635 262.469,300.219 261.981 C 302.860 261.622,303.597 261.354,304.564 260.402 L 305.729 259.256 305.918 253.007 L 306.108 246.757 305.007 245.607 C 304.311 244.881,303.149 244.277,301.852 243.968 C 298.993 243.286,296.808 242.283,295.400 241.005 C 294.740 240.406,292.670 239.200,290.800 238.325 C 288.930 237.450,286.764 236.121,285.988 235.372 L 284.576 234.009 283.282 235.305 M288.972 239.582 C 291.527 240.167,291.842 240.357,292.991 242.008 C 294.544 244.240,296.131 245.030,300.165 245.579 C 304.457 246.164,304.405 246.093,304.376 251.149 C 304.329 259.533,304.312 259.565,299.551 260.270 C 294.223 261.059,292.000 262.543,292.000 265.311 C 292.000 266.173,291.277 266.624,288.726 267.355 C 286.537 267.983,284.800 269.415,284.800 270.592 C 284.800 271.599,283.281 272.314,279.688 272.998 C 275.499 273.795,274.275 274.537,273.577 276.706 C 272.808 279.092,272.611 279.200,269.011 279.200 C 263.865 279.200,261.735 280.236,260.857 283.167 C 260.266 285.140,259.787 285.509,257.174 286.005 C 254.395 286.532,251.753 287.824,250.887 289.080 C 249.515 291.070,248.892 291.485,246.876 291.752 C 244.216 292.105,242.578 293.471,241.862 295.934 L 241.319 297.800 237.088 298.000 C 232.475 298.218,231.112 298.791,230.100 300.939 C 229.825 301.522,229.369 302.495,229.088 303.100 C 228.705 303.923,228.125 304.309,226.788 304.632 C 225.185 305.018,224.031 305.831,220.799 308.848 C 220.073 309.525,218.075 310.055,213.436 310.801 C 209.747 311.395,206.000 313.800,206.000 315.575 C 206.000 316.259,203.422 316.800,200.159 316.800 C 196.773 316.800,194.800 316.272,194.800 315.366 C 194.800 313.476,191.571 311.393,187.750 310.817 C 180.221 309.682,180.199 309.675,177.877 307.389 C 176.335 305.872,175.211 305.136,173.958 304.822 C 171.470 304.200,171.172 303.974,170.017 301.831 C 168.691 299.372,167.427 298.745,163.003 298.355 C 156.387 297.771,153.204 296.824,153.198 295.438 C 153.192 294.110,151.269 292.678,148.625 292.034 C 145.959 291.384,145.880 291.328,145.248 289.625 C 144.263 286.976,143.140 286.365,138.232 285.812 C 133.347 285.262,133.857 285.531,132.923 283.014 C 131.880 280.207,130.476 279.475,125.727 279.268 C 121.702 279.092,121.499 278.984,120.667 276.580 C 119.892 274.344,117.939 273.433,113.600 273.286 C 108.698 273.120,108.545 273.063,108.262 271.305 C 107.750 268.124,105.265 266.800,99.807 266.800 C 95.919 266.800,96.000 266.954,96.000 259.569 C 96.000 252.094,95.792 252.414,100.897 252.025 C 105.832 251.648,107.045 250.935,108.132 247.773 C 108.613 246.373,108.905 246.124,110.795 245.508 C 113.287 244.697,114.306 243.882,115.061 242.100 C 115.750 240.470,115.977 240.479,117.132 242.174 C 118.392 244.025,120.971 245.157,124.631 245.466 C 128.062 245.756,129.360 246.501,129.740 248.398 C 130.296 251.179,132.880 252.394,138.250 252.398 L 141.500 252.400 142.250 254.461 C 143.403 257.631,144.392 258.157,149.643 258.398 C 154.064 258.602,154.777 258.867,154.794 260.320 C 154.826 263.049,157.881 264.778,162.691 264.791 C 166.265 264.801,166.781 265.115,167.407 267.662 C 167.984 270.013,170.541 271.200,175.031 271.200 C 178.148 271.200,179.200 271.720,179.200 273.259 C 179.200 276.684,181.929 277.195,200.227 277.198 C 219.167 277.200,220.863 276.881,221.745 273.142 C 222.008 272.026,221.956 272.042,228.714 270.991 C 230.902 270.651,232.672 269.160,233.195 267.217 C 233.763 265.110,234.243 264.828,238.009 264.399 C 242.231 263.917,243.699 263.019,244.970 260.139 C 245.537 258.854,245.899 258.655,248.436 258.229 C 250.008 257.965,251.348 256.758,251.796 255.200 C 252.521 252.678,252.974 252.400,256.350 252.400 C 261.329 252.400,263.473 251.336,264.343 248.433 C 264.988 246.278,265.530 245.970,269.076 245.736 C 273.515 245.443,274.480 245.065,275.623 243.169 C 277.376 240.262,277.688 240.016,280.197 239.559 C 281.516 239.320,283.045 238.888,283.595 238.600 C 284.339 238.210,284.799 238.187,285.397 238.512 C 285.839 238.752,287.447 239.233,288.972 239.582 " stroke="none" fill="#8cac6c" fill-rule="evenodd"></path><path id="path3" d="M286.112 125.095 C 287.164 125.177,288.784 125.176,289.712 125.092 C 290.640 125.008,289.780 124.941,287.800 124.942 C 285.820 124.943,285.060 125.012,286.112 125.095 M294.000 128.925 C 294.000 128.994,294.585 129.579,295.300 130.225 L 296.600 131.400 295.425 130.100 C 294.330 128.888,294.000 128.616,294.000 128.925 M306.400 143.111 C 306.400 147.430,306.067 148.283,303.853 149.633 C 303.164 150.053,302.846 150.398,303.147 150.399 C 303.448 150.399,304.393 149.701,305.247 148.847 L 306.800 147.294 306.800 143.247 C 306.800 141.021,306.710 139.200,306.600 139.200 C 306.490 139.200,306.400 140.960,306.400 143.111 M299.111 152.900 C 297.768 154.356,296.656 155.151,295.487 155.492 L 293.800 155.984 295.400 155.764 C 296.784 155.573,302.455 150.800,301.297 150.800 C 301.160 150.800,300.177 151.745,299.111 152.900 M286.556 160.709 C 285.342 162.164,285.230 162.206,281.956 162.432 L 278.600 162.665 281.669 162.732 C 284.899 162.804,286.499 162.058,287.623 159.957 C 288.216 158.849,287.952 159.034,286.556 160.709 M276.887 163.424 C 276.397 163.768,275.709 164.623,275.359 165.324 C 274.728 166.590,274.733 166.589,275.985 165.107 C 276.679 164.285,277.552 163.436,277.924 163.219 C 278.296 163.002,278.415 162.819,278.189 162.812 C 277.963 162.805,277.377 163.081,276.887 163.424 M110.800 163.325 C 110.800 163.394,111.385 163.979,112.100 164.625 L 113.400 165.800 112.225 164.500 C 111.130 163.288,110.800 163.016,110.800 163.325 M113.200 166.125 C 113.200 166.194,113.785 166.779,114.500 167.425 L 115.800 168.600 114.625 167.300 C 113.530 166.088,113.200 165.816,113.200 166.125 M274.400 167.040 C 274.400 167.245,273.403 168.009,272.185 168.738 C 270.914 169.498,269.556 170.720,268.997 171.605 C 268.462 172.453,267.624 173.519,267.136 173.974 C 266.648 174.428,266.449 174.800,266.694 174.800 C 266.939 174.800,267.558 174.253,268.070 173.585 C 270.419 170.519,271.430 169.499,272.835 168.782 C 274.410 167.978,275.049 167.315,274.640 166.907 C 274.508 166.775,274.400 166.835,274.400 167.040 M116.705 168.683 C 117.202 168.779,117.922 168.775,118.305 168.675 C 118.687 168.575,118.280 168.496,117.400 168.501 C 116.520 168.505,116.207 168.587,116.705 168.683 M121.309 169.184 C 122.138 169.345,123.227 169.820,123.728 170.238 C 124.229 170.657,124.132 170.505,123.513 169.900 C 122.719 169.124,122.006 168.814,121.094 168.846 L 119.800 168.892 121.309 169.184 M124.800 172.149 C 124.800 172.732,126.441 174.800,126.904 174.800 C 127.151 174.800,127.075 174.575,126.735 174.300 C 126.395 174.025,125.821 173.355,125.459 172.811 C 125.096 172.267,124.800 171.969,124.800 172.149 M131.200 175.171 C 135.523 175.431,136.199 175.719,138.061 178.093 C 140.104 180.698,140.819 181.178,142.600 181.137 L 144.200 181.100 142.430 180.814 C 140.936 180.572,140.314 180.150,138.430 178.096 C 135.560 174.966,135.140 174.786,130.926 174.871 L 127.400 174.943 131.200 175.171 M258.119 175.700 C 257.668 176.195,256.827 177.360,256.251 178.290 C 254.836 180.571,253.975 181.019,250.000 181.541 L 246.600 181.987 244.400 184.352 C 243.190 185.653,241.354 187.279,240.319 187.965 C 239.284 188.651,238.139 189.705,237.774 190.306 C 236.369 192.623,235.102 193.232,231.157 193.488 C 227.310 193.737,224.800 195.166,224.800 197.106 C 224.800 197.533,225.175 197.234,225.808 196.303 C 227.196 194.260,227.858 194.000,231.668 194.000 L 234.988 194.000 237.594 191.260 C 239.027 189.753,240.855 188.131,241.656 187.655 C 242.457 187.179,243.940 185.820,244.951 184.637 L 246.790 182.484 250.293 181.987 C 254.372 181.408,255.162 180.977,256.765 178.461 C 257.416 177.437,258.134 176.330,258.359 176.000 C 258.651 175.571,259.829 175.334,262.484 175.170 L 266.200 174.940 262.570 174.870 C 259.267 174.806,258.865 174.881,258.119 175.700 M279.290 181.075 C 277.429 181.262,274.799 183.395,274.801 184.713 C 274.802 185.161,275.074 184.955,275.582 184.122 C 277.198 181.471,279.651 181.057,290.755 181.557 L 297.310 181.852 298.555 183.301 C 299.240 184.098,300.223 185.307,300.741 185.988 C 301.259 186.669,302.367 187.575,303.203 188.002 C 309.634 191.282,306.399 201.312,297.344 206.167 C 295.754 207.019,294.472 208.141,293.191 209.800 L 291.338 212.200 287.969 212.400 C 284.023 212.634,283.253 212.998,281.594 215.409 C 280.914 216.398,279.332 217.882,278.079 218.707 C 276.762 219.575,275.517 220.773,275.130 221.547 C 273.662 224.476,273.050 224.800,268.984 224.800 C 264.767 224.800,263.987 225.187,262.255 228.142 C 260.733 230.740,259.787 231.200,255.967 231.200 L 252.706 231.200 251.253 232.735 C 250.454 233.579,249.477 234.748,249.082 235.334 C 248.687 235.920,247.393 237.019,246.207 237.778 C 245.021 238.537,243.830 239.570,243.560 240.075 C 242.198 242.619,241.086 243.200,237.578 243.200 L 234.295 243.200 232.550 245.100 C 231.590 246.145,230.192 247.675,229.444 248.500 C 228.095 249.986,228.054 250.000,224.994 250.000 C 221.621 250.000,221.001 250.390,217.957 254.420 L 216.915 255.800 212.757 256.011 C 209.129 256.195,208.232 256.393,205.703 257.569 C 202.207 259.194,198.411 259.141,194.200 257.407 C 192.278 256.616,191.095 256.417,188.262 256.409 C 184.149 256.398,183.114 255.888,181.454 253.056 C 179.948 250.487,178.972 250.000,175.314 249.997 C 171.712 249.994,171.188 249.734,167.954 246.339 L 165.800 244.079 162.492 243.797 C 159.374 243.531,159.110 243.435,157.892 242.107 C 157.181 241.333,155.946 240.002,155.147 239.150 L 153.694 237.600 150.409 237.600 C 146.626 237.600,145.304 236.950,144.030 234.466 C 142.627 231.729,141.625 231.200,137.851 231.200 C 134.003 231.200,133.154 230.756,131.455 227.858 C 129.907 225.216,129.014 224.800,124.884 224.800 C 120.992 224.800,120.635 224.612,118.958 221.672 C 117.709 219.485,116.177 218.800,112.528 218.800 C 109.011 218.800,108.432 218.450,106.443 215.119 C 105.816 214.070,104.895 213.330,103.279 212.577 C 102.026 211.994,100.571 211.312,100.048 211.063 C 95.933 209.102,94.018 205.715,94.018 200.400 C 94.018 196.004,94.231 195.588,97.500 193.605 C 98.655 192.905,99.600 192.135,99.600 191.896 C 99.600 191.656,99.195 191.831,98.700 192.283 C 98.205 192.736,97.231 193.394,96.535 193.745 C 94.048 195.001,93.599 196.047,93.609 200.554 C 93.622 206.579,96.062 210.410,101.011 212.175 C 104.289 213.344,104.875 213.728,105.938 215.400 C 108.220 218.992,108.569 219.199,112.375 219.213 C 116.239 219.228,116.766 219.494,118.558 222.333 C 120.201 224.936,121.598 225.597,125.461 225.599 L 128.721 225.600 129.861 227.037 C 130.487 227.828,131.741 229.268,132.647 230.237 L 134.295 232.000 137.847 232.011 L 141.400 232.022 142.400 233.482 C 142.950 234.285,144.141 235.720,145.047 236.671 L 146.695 238.400 150.047 238.390 L 153.400 238.380 156.007 241.230 L 158.615 244.081 162.207 244.649 L 165.800 245.216 168.000 247.604 C 170.586 250.411,171.481 250.800,175.348 250.800 C 178.466 250.800,179.405 251.382,181.350 254.519 C 182.585 256.512,184.231 257.197,187.787 257.199 C 191.237 257.200,193.743 257.903,195.873 259.466 C 197.760 260.850,202.688 260.830,204.527 259.431 C 205.227 258.898,206.297 258.338,206.904 258.187 C 207.511 258.035,208.106 257.751,208.227 257.556 C 208.348 257.360,210.102 257.199,212.124 257.199 C 216.154 257.197,217.632 256.643,219.057 254.599 C 221.606 250.945,221.836 250.800,225.094 250.800 C 228.647 250.800,230.165 250.068,231.486 247.717 C 233.108 244.831,233.959 244.339,237.733 244.104 C 241.419 243.874,241.949 243.587,244.240 240.583 C 244.842 239.793,245.997 238.810,246.805 238.397 C 247.614 237.985,248.799 237.008,249.438 236.226 C 250.077 235.444,251.113 234.174,251.739 233.402 L 252.879 232.000 256.292 232.000 L 259.705 232.000 261.353 230.229 C 262.259 229.254,263.606 227.724,264.346 226.829 L 265.693 225.200 269.020 225.200 C 272.935 225.200,274.274 224.783,274.799 223.401 C 275.489 221.588,276.857 220.096,278.701 219.148 C 279.778 218.594,281.109 217.406,281.994 216.209 C 284.078 213.387,284.210 213.319,287.965 213.111 C 291.623 212.909,291.649 212.892,294.686 208.878 C 295.174 208.234,296.614 207.215,297.886 206.613 C 307.425 202.105,310.106 191.383,302.790 187.000 C 302.055 186.560,300.899 185.407,300.220 184.438 C 298.018 181.294,297.993 181.286,289.000 181.083 C 284.600 180.984,280.230 180.980,279.290 181.075 M145.886 181.575 C 147.833 181.893,148.980 182.802,150.031 184.862 C 151.354 187.453,152.445 188.000,156.288 188.000 C 159.596 188.000,159.694 188.028,160.836 189.300 C 161.478 190.015,162.701 191.365,163.554 192.300 L 165.106 194.000 168.711 194.000 C 172.137 194.000,172.377 194.058,173.558 195.160 C 174.241 195.799,174.800 196.175,174.800 195.996 C 174.800 194.624,172.268 193.600,168.869 193.598 C 165.005 193.596,165.712 193.997,161.293 189.300 L 159.694 187.600 156.293 187.600 L 152.893 187.600 151.546 185.974 C 148.024 181.721,147.381 181.197,145.747 181.250 L 144.200 181.300 145.886 181.575 M114.671 182.415 C 114.114 182.854,113.275 183.831,112.808 184.586 C 111.410 186.849,109.776 187.600,106.253 187.600 C 103.158 187.600,99.993 189.474,100.003 191.300 C 100.004 191.575,100.357 191.266,100.788 190.613 C 102.220 188.440,103.128 188.019,106.400 188.007 C 109.987 187.995,111.321 187.331,113.175 184.636 C 115.372 181.443,116.170 181.471,118.580 184.825 C 119.611 186.260,120.633 187.130,122.070 187.796 C 123.188 188.314,124.799 189.418,125.651 190.250 C 126.503 191.082,127.200 191.581,127.200 191.360 C 127.200 190.589,124.586 188.480,122.325 187.426 C 120.664 186.652,119.671 185.838,118.643 184.406 C 116.758 181.783,115.975 181.390,114.671 182.415 M273.969 186.237 C 273.670 186.598,272.458 187.351,271.277 187.910 C 270.097 188.469,268.750 189.441,268.285 190.070 C 266.978 191.838,265.771 192.435,262.272 193.046 C 258.719 193.666,257.835 194.245,256.210 197.019 C 254.738 199.531,253.761 200.000,250.000 200.000 C 246.317 200.000,245.307 200.457,243.943 202.741 C 242.800 204.657,241.179 206.400,240.540 206.400 C 239.345 206.400,235.543 208.135,233.938 209.412 C 232.982 210.173,230.989 211.261,229.509 211.829 C 226.910 212.828,224.800 214.599,224.800 215.783 C 224.800 217.597,222.283 218.866,219.200 218.608 C 215.535 218.302,210.642 219.424,208.308 221.106 C 202.760 225.104,197.796 225.255,192.916 221.571 C 190.281 219.583,187.383 218.777,181.887 218.508 L 177.573 218.296 176.187 216.676 C 175.317 215.660,174.800 215.296,174.800 215.700 C 174.800 216.053,175.406 216.986,176.147 217.772 L 177.494 219.200 181.127 219.200 C 185.055 219.200,190.598 220.593,191.634 221.840 C 194.848 225.714,204.569 225.973,208.483 222.289 C 210.366 220.517,213.721 219.510,218.640 219.242 C 223.588 218.972,223.937 218.809,225.214 216.170 C 226.217 214.099,227.359 213.246,230.506 212.219 C 231.775 211.805,233.518 210.862,234.379 210.125 C 235.240 209.388,237.172 208.324,238.672 207.760 C 241.731 206.612,242.493 206.046,243.839 203.928 C 245.798 200.846,246.617 200.400,250.322 200.400 C 254.336 200.400,254.856 200.153,256.605 197.420 C 258.589 194.318,258.789 194.190,262.530 193.633 C 265.740 193.156,266.049 193.022,267.704 191.390 C 268.673 190.435,270.567 189.008,271.914 188.219 C 274.297 186.822,275.072 186.138,274.697 185.764 C 274.596 185.663,274.269 185.876,273.969 186.237 M128.156 192.153 C 128.572 192.492,130.282 193.071,131.956 193.437 C 135.936 194.309,136.214 194.464,138.800 197.246 L 141.000 199.613 144.183 200.040 C 147.937 200.542,149.181 201.103,151.600 203.382 C 153.457 205.131,154.227 205.512,158.033 206.565 C 159.598 206.999,160.676 207.617,161.633 208.631 C 165.881 213.130,165.298 212.800,168.998 212.800 C 172.050 212.800,172.450 212.894,173.632 213.888 C 174.344 214.487,174.841 214.723,174.738 214.413 C 174.257 212.970,172.434 212.239,168.760 212.018 C 165.329 211.811,165.076 211.733,164.152 210.599 C 161.947 207.894,160.711 206.835,159.098 206.271 C 158.164 205.944,156.583 205.389,155.584 205.037 C 154.586 204.686,152.918 203.595,151.879 202.613 C 149.845 200.692,147.767 199.869,143.742 199.389 C 141.595 199.133,141.233 198.938,139.400 197.044 C 136.584 194.135,136.471 194.069,132.536 193.011 C 130.591 192.488,128.640 191.942,128.200 191.798 C 127.421 191.542,127.420 191.551,128.156 192.153 M174.800 197.287 C 174.800 199.024,177.530 200.400,180.974 200.400 C 185.005 200.400,185.915 200.829,187.455 203.458 C 189.445 206.854,189.242 206.800,200.092 206.800 C 211.044 206.800,211.217 206.757,213.208 203.524 C 214.668 201.153,215.062 200.964,219.198 200.660 C 222.599 200.410,224.295 199.714,224.738 198.387 C 224.841 198.077,224.344 198.313,223.632 198.912 C 222.477 199.884,222.019 200.000,219.349 200.000 C 215.729 200.000,214.470 200.573,212.821 202.970 C 210.402 206.485,210.716 206.400,200.200 206.400 C 189.698 206.400,189.974 206.474,187.839 203.095 C 186.212 200.522,185.091 200.000,181.191 200.000 C 177.908 200.000,177.905 199.999,176.353 198.447 C 175.499 197.593,174.800 197.071,174.800 197.287 M282.366 234.546 C 280.924 235.877,279.277 236.926,277.687 237.526 C 275.830 238.227,275.025 238.788,274.381 239.831 C 273.297 241.585,272.724 241.877,268.575 242.783 C 264.659 243.639,263.477 244.292,262.563 246.104 C 261.061 249.079,260.178 249.600,256.625 249.601 C 252.895 249.603,251.260 250.333,250.171 252.482 C 249.102 254.592,248.370 255.223,245.400 256.594 C 243.860 257.305,242.034 258.435,241.342 259.107 C 240.538 259.886,239.021 260.659,237.142 261.246 C 233.407 262.413,232.351 263.140,230.850 265.581 C 229.340 268.034,228.953 268.233,225.000 268.594 L 221.800 268.886 218.973 271.843 L 216.146 274.800 200.327 274.800 C 182.471 274.800,183.445 274.968,181.532 271.564 C 180.170 269.142,178.673 268.400,175.142 268.400 C 171.696 268.400,170.952 268.013,169.440 265.433 C 167.760 262.566,166.650 262.000,162.702 262.000 L 159.328 262.000 157.478 259.618 C 155.168 256.643,154.112 256.095,150.034 255.755 C 146.928 255.496,146.726 255.419,145.688 254.099 C 145.090 253.337,143.895 252.014,143.033 251.157 L 141.467 249.600 137.808 249.600 C 133.788 249.600,132.979 249.162,131.472 246.171 C 130.576 244.392,130.014 244.040,125.781 242.604 C 123.684 241.892,121.571 240.959,121.084 240.529 C 117.386 237.262,113.691 237.363,112.612 240.761 C 112.488 241.152,111.207 242.162,109.765 243.005 C 108.321 243.850,106.344 245.474,105.364 246.622 C 103.600 248.686,103.555 248.709,100.292 249.206 C 93.738 250.206,93.203 250.990,93.204 259.600 C 93.206 268.213,94.174 269.592,100.222 269.597 C 103.470 269.600,106.000 270.954,106.000 272.690 C 106.000 274.261,108.945 275.600,112.402 275.600 C 116.313 275.600,117.176 276.000,118.388 278.376 C 119.762 281.070,121.093 281.853,124.859 282.181 C 128.923 282.536,129.213 282.683,130.747 285.176 C 132.266 287.645,133.368 288.226,137.672 288.828 C 141.056 289.301,141.088 289.316,142.439 291.120 C 143.388 292.386,144.630 293.360,146.539 294.337 C 148.447 295.313,149.561 296.188,150.212 297.219 C 151.767 299.683,152.838 300.274,156.293 300.578 C 161.789 301.062,165.410 302.245,166.810 304.013 C 167.913 305.405,168.747 305.909,173.295 307.934 C 174.118 308.300,174.793 308.825,174.795 309.100 C 174.811 310.805,177.863 312.693,181.048 312.969 C 185.233 313.331,187.745 314.253,189.966 316.242 C 195.049 320.792,205.833 321.081,210.536 316.794 C 213.411 314.172,215.245 313.352,218.999 313.007 C 222.657 312.671,224.101 311.890,224.988 309.767 C 225.302 309.015,225.732 308.400,225.944 308.400 C 227.062 308.400,230.802 305.734,231.550 304.404 C 233.328 301.240,234.113 300.800,237.976 300.800 C 241.809 300.800,242.610 300.322,244.724 296.775 C 245.692 295.150,246.627 294.580,249.247 294.017 C 252.110 293.402,253.014 292.965,255.742 290.874 C 257.136 289.805,259.108 288.529,260.123 288.037 C 261.288 287.473,262.294 286.600,262.849 285.672 C 264.807 282.392,265.283 282.116,269.123 282.032 C 273.247 281.943,274.005 281.553,275.400 278.800 C 276.741 276.153,277.529 275.728,282.000 275.241 C 286.074 274.797,285.742 274.986,288.288 271.662 C 288.776 271.024,289.804 270.205,290.571 269.841 C 292.005 269.160,293.782 267.513,295.683 265.103 C 296.677 263.841,297.030 263.692,300.011 263.270 C 306.136 262.404,306.811 261.449,307.102 253.245 C 307.390 245.127,307.107 244.632,300.951 242.499 C 298.961 241.809,297.095 240.830,296.023 239.912 C 295.074 239.100,293.119 238.022,291.678 237.518 C 289.827 236.869,288.404 235.998,286.826 234.546 L 284.592 232.491 282.366 234.546 M290.800 238.325 C 292.670 239.200,294.740 240.406,295.400 241.005 C 296.808 242.283,298.993 243.286,301.852 243.968 C 303.149 244.277,304.311 244.881,305.007 245.607 L 306.108 246.757 305.918 253.007 L 305.729 259.256 304.564 260.402 C 303.597 261.354,302.860 261.622,300.219 261.981 C 296.635 262.469,295.724 262.936,294.155 265.092 C 292.666 267.139,290.827 268.800,290.052 268.800 C 289.700 268.800,288.330 269.958,287.006 271.373 L 284.600 273.946 281.000 274.425 C 276.712 274.995,275.788 275.496,274.809 277.779 C 273.720 280.319,272.799 280.800,269.011 280.803 C 265.198 280.806,264.173 281.330,262.273 284.246 C 261.238 285.835,260.439 286.479,258.000 287.695 C 256.350 288.518,254.607 289.639,254.128 290.186 C 253.596 290.792,251.887 291.654,249.750 292.395 C 245.476 293.876,244.743 294.337,243.581 296.280 C 241.683 299.450,241.417 299.600,237.692 299.600 C 233.715 299.600,232.738 300.112,230.843 303.192 C 229.934 304.669,229.084 305.446,227.511 306.238 C 226.350 306.822,224.680 308.092,223.800 309.060 C 222.232 310.783,219.047 311.953,215.800 311.997 C 214.473 312.015,211.096 313.835,209.491 315.398 C 205.148 319.627,195.674 319.531,191.524 315.216 C 189.786 313.408,186.728 312.282,181.600 311.560 C 178.241 311.088,178.178 311.058,176.400 309.087 C 175.230 307.791,173.757 306.711,172.193 306.005 C 170.795 305.373,169.214 304.263,168.425 303.358 C 166.335 300.964,166.049 300.848,159.517 299.756 L 153.400 298.733 151.200 296.412 C 149.977 295.122,148.200 293.741,147.200 293.302 C 145.342 292.486,144.173 291.526,142.333 289.304 C 141.349 288.117,140.996 287.985,137.849 287.628 C 133.926 287.182,132.931 286.657,131.389 284.217 C 129.970 281.973,128.521 281.277,124.822 281.066 C 121.965 280.903,121.795 280.836,120.622 279.427 C 119.950 278.619,118.746 277.247,117.947 276.379 L 116.494 274.800 112.717 274.800 C 108.526 274.800,108.488 274.780,106.339 271.400 C 105.006 269.304,104.087 268.901,99.944 268.593 C 94.636 268.198,94.454 267.922,94.132 259.743 L 93.880 253.346 95.266 251.960 C 96.535 250.692,96.954 250.537,100.204 250.134 L 103.756 249.694 106.178 247.071 C 107.510 245.628,109.341 244.086,110.247 243.643 C 111.153 243.200,112.654 241.929,113.584 240.819 C 115.641 238.362,116.074 238.339,119.275 240.522 C 122.016 242.391,124.126 243.334,126.558 243.775 C 128.697 244.164,129.854 245.008,131.055 247.058 C 132.768 249.980,133.591 250.402,137.554 250.388 L 141.000 250.375 143.839 253.456 L 146.677 256.537 150.177 256.721 C 153.994 256.921,154.479 257.217,157.690 261.301 C 158.765 262.668,158.835 262.691,162.470 262.898 C 166.134 263.107,166.168 263.119,167.380 264.578 C 168.051 265.387,169.341 266.847,170.247 267.824 L 171.895 269.600 174.974 269.600 C 178.696 269.600,179.140 269.814,180.803 272.404 C 182.883 275.647,182.600 275.600,200.216 275.600 C 215.929 275.600,219.200 275.270,219.200 273.686 C 219.200 271.967,222.088 270.060,225.102 269.789 C 228.732 269.462,230.276 268.671,231.486 266.517 C 232.784 264.208,234.139 263.144,236.276 262.757 C 239.406 262.190,241.428 261.268,242.036 260.133 C 242.408 259.439,243.709 258.553,245.883 257.515 C 248.438 256.295,249.363 255.620,250.048 254.473 C 252.056 251.111,252.586 250.800,256.327 250.800 L 259.705 250.800 261.353 249.024 C 262.259 248.047,263.548 246.588,264.217 245.782 C 265.355 244.411,265.660 244.282,268.898 243.804 C 272.478 243.275,274.253 242.349,275.040 240.600 C 275.238 240.160,276.882 239.080,278.694 238.200 C 280.506 237.320,282.570 236.017,283.282 235.305 L 284.576 234.009 285.988 235.372 C 286.764 236.121,288.930 237.450,290.800 238.325 " stroke="none" fill="#7c8c54" fill-rule="evenodd"></path><path id="path4" d="M195.441 79.768 C 193.420 80.518,192.937 81.036,192.032 83.424 L 191.283 85.400 186.934 85.656 C 181.693 85.965,180.243 86.515,177.600 89.200 C 175.794 91.035,175.332 91.288,173.139 91.641 C 169.340 92.253,167.200 93.866,167.200 96.118 C 167.200 97.433,165.812 98.000,162.569 98.009 C 157.859 98.022,154.800 99.797,154.800 102.518 C 154.800 103.370,153.467 104.392,151.747 104.858 C 149.824 105.379,148.495 106.568,147.739 108.445 C 147.164 109.873,147.125 109.892,144.279 110.156 C 138.849 110.660,136.661 111.794,136.146 114.369 C 135.757 116.317,134.903 116.758,130.978 117.041 C 126.522 117.362,125.119 117.966,124.370 119.883 C 123.247 122.754,123.031 122.987,121.026 123.485 C 118.298 124.162,116.490 125.086,116.218 125.944 C 115.767 127.366,114.199 128.335,111.400 128.924 C 106.629 129.927,105.706 130.538,104.830 133.268 C 104.199 135.236,103.715 135.563,100.740 136.032 C 93.955 137.101,92.141 139.636,91.743 148.600 C 91.444 155.335,92.865 158.400,96.285 158.400 C 97.782 158.400,98.725 159.084,99.604 160.808 C 100.616 162.791,102.606 163.850,106.029 164.228 C 109.694 164.633,110.258 164.937,111.285 167.061 C 112.682 169.950,113.702 170.493,118.337 170.814 C 122.968 171.135,123.054 171.173,123.582 173.134 C 124.429 176.280,126.930 177.465,131.858 177.055 C 135.054 176.789,135.187 176.864,136.600 179.729 C 137.908 182.382,139.085 182.978,143.329 183.138 C 147.066 183.279,148.400 183.795,148.400 185.102 C 148.400 188.083,150.928 189.600,155.898 189.600 C 159.788 189.600,160.470 189.928,161.001 192.056 C 161.610 194.497,163.194 195.321,167.900 195.650 C 170.265 195.814,172.344 195.961,172.520 195.975 C 172.697 195.989,173.110 196.675,173.438 197.500 C 175.083 201.629,175.700 202.000,180.918 202.000 C 184.797 202.000,185.997 202.480,186.001 204.031 C 186.011 207.677,188.351 208.401,200.080 208.391 C 211.819 208.381,212.908 208.146,214.149 205.351 C 215.394 202.547,215.290 202.617,218.642 202.318 C 224.480 201.796,225.938 201.013,226.589 198.051 C 227.028 196.052,227.823 195.688,232.072 195.537 C 236.530 195.379,237.518 194.884,239.217 191.958 C 239.778 190.991,240.666 190.020,241.190 189.800 C 244.502 188.409,245.435 187.728,246.200 186.147 L 247.000 184.493 251.085 183.666 C 256.323 182.605,258.400 181.078,258.400 178.289 C 258.400 177.194,259.384 176.879,263.231 176.739 C 267.622 176.580,269.658 175.618,270.414 173.348 C 270.915 171.843,271.834 170.954,273.256 170.599 C 274.585 170.267,276.104 168.671,277.063 166.600 L 277.803 165.000 281.802 164.569 C 286.979 164.010,287.835 163.573,289.156 160.814 L 290.216 158.600 293.808 158.178 C 298.168 157.666,299.645 156.940,300.866 154.707 C 301.615 153.339,302.305 152.759,304.346 151.784 C 308.147 149.970,308.363 149.393,308.383 141.000 C 308.406 131.088,307.620 129.902,300.872 129.663 C 296.943 129.524,295.600 129.028,295.600 127.718 C 295.600 125.090,292.798 123.600,287.854 123.600 C 284.270 123.600,283.624 123.282,282.990 121.200 C 282.057 118.141,280.288 117.200,275.475 117.200 C 272.025 117.200,270.802 116.669,270.799 115.169 C 270.792 112.608,268.118 110.956,263.180 110.461 C 259.334 110.075,258.400 109.586,258.400 107.959 C 258.400 106.947,256.327 105.377,254.324 104.873 C 252.413 104.392,251.554 103.698,250.361 101.673 C 249.271 99.824,247.092 99.003,241.200 98.221 C 234.462 97.328,234.510 97.344,233.992 95.774 C 233.376 93.909,231.593 92.539,229.104 92.019 C 226.536 91.482,226.410 91.393,225.360 89.398 C 224.188 87.170,222.624 86.518,217.200 85.996 C 208.230 85.134,209.132 85.508,208.149 82.238 C 207.386 79.699,199.672 78.200,195.441 79.768 M205.184 82.648 C 205.868 83.224,206.677 84.169,206.980 84.748 C 208.231 87.133,209.036 87.600,211.916 87.606 C 216.754 87.617,220.660 88.869,223.800 91.416 C 224.680 92.130,226.578 93.246,228.018 93.895 C 230.095 94.832,230.937 95.496,232.100 97.114 C 233.677 99.309,235.113 99.989,238.200 100.003 C 241.458 100.017,247.199 102.103,247.977 103.556 C 248.221 104.013,249.904 105.095,251.716 105.960 C 255.118 107.583,256.206 108.430,258.117 110.935 C 259.203 112.359,259.309 112.401,261.917 112.423 C 265.940 112.456,267.083 113.003,268.986 115.800 C 270.885 118.592,272.039 119.143,276.053 119.177 C 278.926 119.202,279.074 119.306,282.330 123.579 C 283.256 124.794,283.280 124.800,287.184 124.800 L 291.107 124.800 292.454 126.409 C 296.787 131.587,296.206 131.205,300.165 131.480 C 306.105 131.893,306.684 132.961,306.772 143.669 C 306.805 147.793,306.109 148.957,302.621 150.608 C 301.353 151.207,299.882 152.362,298.893 153.536 C 297.335 155.384,297.105 155.505,293.997 156.129 C 290.574 156.815,288.850 157.848,287.545 159.993 C 286.186 162.229,284.968 162.800,281.560 162.800 C 278.023 162.800,276.375 163.759,275.025 166.604 C 274.618 167.462,273.771 168.304,272.839 168.780 C 272.001 169.207,270.795 170.199,270.158 170.985 C 266.593 175.380,267.340 174.952,262.829 175.188 C 259.851 175.343,258.660 175.560,258.360 176.000 C 258.134 176.330,257.416 177.437,256.765 178.461 C 255.162 180.977,254.372 181.408,250.293 181.987 L 246.790 182.484 244.951 184.637 C 243.940 185.820,242.457 187.179,241.656 187.655 C 240.855 188.131,239.027 189.753,237.594 191.260 L 234.988 194.000 231.548 194.000 C 227.527 194.000,226.606 194.496,225.189 197.422 C 223.995 199.888,223.092 200.374,219.158 200.663 C 215.065 200.964,214.666 201.156,213.208 203.524 C 211.217 206.757,211.044 206.800,200.092 206.800 C 189.242 206.800,189.445 206.854,187.455 203.458 C 185.921 200.840,184.998 200.400,181.045 200.400 C 177.170 200.400,175.648 199.570,174.798 196.994 C 174.034 194.678,172.628 194.000,168.591 194.000 L 165.106 194.000 163.554 192.300 C 162.701 191.365,161.478 190.015,160.836 189.300 C 159.694 188.028,159.596 188.000,156.288 188.000 C 152.425 188.000,151.355 187.455,150.000 184.800 C 148.759 182.368,147.579 181.688,144.068 181.382 C 140.700 181.088,140.190 180.809,138.056 178.088 C 136.163 175.673,135.030 175.201,131.120 175.194 C 126.697 175.186,126.093 174.829,124.409 171.220 C 123.780 169.873,122.176 169.199,119.000 168.949 L 115.800 168.697 113.200 165.938 C 110.957 163.558,110.253 163.070,108.086 162.396 C 104.973 161.427,104.119 160.994,102.600 159.613 C 101.940 159.013,100.166 158.000,98.658 157.361 C 94.422 155.567,93.600 154.393,93.600 150.136 C 93.600 144.132,96.098 140.454,101.595 138.365 C 104.510 137.258,105.111 136.809,106.374 134.800 C 108.323 131.700,108.860 131.329,111.869 131.010 C 115.506 130.624,116.792 130.031,118.109 128.131 C 119.222 126.525,121.316 125.111,123.256 124.655 C 123.932 124.496,124.753 123.722,125.538 122.503 C 127.135 120.024,127.800 119.659,131.288 119.348 C 135.020 119.016,136.150 118.418,137.646 115.987 C 139.410 113.120,140.434 112.541,144.152 112.310 L 147.305 112.113 149.552 109.704 C 150.789 108.379,152.565 106.910,153.500 106.440 C 154.530 105.921,155.624 104.918,156.278 103.892 C 158.447 100.489,158.595 100.400,162.090 100.400 C 166.023 100.400,167.212 99.822,168.988 97.046 C 170.602 94.523,171.600 93.811,174.000 93.472 C 177.360 92.997,178.676 92.399,180.761 90.400 C 183.114 88.144,183.261 88.091,188.181 87.691 L 191.762 87.400 193.084 85.600 C 196.031 81.588,196.009 81.600,200.194 81.600 C 203.650 81.600,204.035 81.681,205.184 82.648 M280.800 179.280 C 275.954 179.821,273.600 181.476,273.600 184.341 C 273.600 185.000,272.168 185.887,270.281 186.396 C 268.435 186.895,267.105 187.927,265.400 190.184 C 264.728 191.074,264.120 191.309,261.600 191.654 C 257.498 192.216,254.800 194.217,254.800 196.698 C 254.800 197.848,253.267 198.400,250.077 198.400 C 245.193 198.400,243.795 199.092,242.402 202.195 L 241.293 204.667 238.407 205.144 C 234.933 205.718,233.500 206.411,231.619 208.428 C 230.650 209.467,229.368 210.249,227.601 210.879 C 225.107 211.768,224.973 211.885,224.185 213.862 C 222.852 217.206,222.862 217.200,218.084 217.200 C 210.816 217.200,206.279 218.402,204.195 220.879 C 202.803 222.533,197.763 222.224,195.911 220.372 C 193.832 218.294,190.895 217.524,184.200 217.303 C 177.648 217.087,177.079 216.894,176.648 214.742 C 176.515 214.073,175.811 212.931,175.084 212.204 C 173.693 210.813,174.079 210.899,166.404 210.280 C 165.648 210.219,165.199 209.761,164.548 208.386 C 163.454 206.074,163.125 205.820,159.773 204.685 C 157.637 203.961,156.513 203.271,154.878 201.678 C 152.592 199.449,151.728 199.106,145.100 197.792 C 142.737 197.323,141.600 196.920,141.600 196.549 C 141.600 196.247,141.420 196.000,141.200 196.000 C 140.980 196.000,140.800 195.749,140.800 195.441 C 140.800 195.010,138.302 192.402,137.886 192.399 C 134.631 192.379,131.232 191.099,129.161 189.114 C 127.686 187.700,126.321 186.794,125.161 186.456 C 124.192 186.175,122.969 185.822,122.441 185.672 C 121.914 185.522,121.343 185.130,121.173 184.800 C 121.002 184.470,120.522 183.492,120.105 182.626 C 118.104 178.464,111.988 179.099,111.006 183.571 C 110.609 185.379,109.871 185.710,105.663 185.964 C 100.555 186.273,99.422 187.021,98.263 190.844 C 98.152 191.211,97.267 191.690,96.202 191.958 C 92.850 192.802,91.604 194.982,91.605 200.000 C 91.608 209.691,95.066 214.400,102.180 214.400 C 103.471 214.400,104.800 215.390,104.800 216.351 C 104.800 219.139,107.573 220.797,112.238 220.799 C 116.247 220.800,116.862 221.111,117.385 223.400 C 117.919 225.734,119.648 226.582,124.183 226.736 C 128.263 226.875,129.600 227.355,129.600 228.682 C 129.600 231.608,132.312 233.197,137.309 233.199 C 141.202 233.200,141.219 233.204,141.641 234.300 C 143.386 238.827,144.265 239.427,149.800 239.876 L 153.800 240.200 154.680 242.041 C 155.832 244.450,156.879 245.078,161.314 246.019 C 165.856 246.984,166.000 247.037,166.000 247.757 C 166.000 250.060,168.854 251.552,174.400 252.148 L 178.600 252.600 179.600 254.568 C 181.187 257.692,182.143 258.180,186.928 258.312 C 192.267 258.459,192.605 258.555,193.763 260.260 C 196.644 264.499,203.756 264.499,206.637 260.260 C 207.795 258.555,208.133 258.459,213.472 258.312 C 218.254 258.180,219.200 257.700,220.826 254.573 C 221.935 252.440,222.764 252.105,227.116 252.030 C 229.716 251.985,231.711 250.785,232.601 248.730 C 233.889 245.757,234.143 245.600,237.678 245.600 C 241.623 245.600,243.622 244.709,244.783 242.432 C 245.608 240.817,247.328 239.200,248.223 239.200 C 249.143 239.200,251.135 237.208,251.588 235.835 C 252.316 233.629,253.004 233.291,257.071 233.138 C 261.315 232.978,262.492 232.382,263.800 229.729 C 265.205 226.880,265.348 226.800,269.023 226.800 C 273.786 226.800,275.053 226.146,276.714 222.830 C 277.091 222.076,277.670 221.324,278.000 221.158 C 278.330 220.992,279.444 220.473,280.476 220.004 C 281.978 219.322,282.530 218.778,283.248 217.276 C 284.390 214.887,284.297 214.937,288.248 214.607 C 292.308 214.269,293.810 213.410,295.117 210.678 C 295.621 209.624,296.251 208.693,296.517 208.608 C 296.782 208.524,298.040 208.166,299.312 207.813 C 308.440 205.278,312.131 190.242,304.568 186.400 C 303.028 185.617,302.383 184.972,301.600 183.432 C 299.927 180.138,299.290 179.869,292.410 179.550 C 289.127 179.397,285.938 179.189,285.321 179.086 C 284.704 178.984,282.670 179.071,280.800 179.280 M297.993 181.970 C 298.539 182.358,299.541 183.469,300.220 184.438 C 300.899 185.407,302.055 186.560,302.790 187.000 C 306.321 189.116,306.800 189.949,306.800 193.980 C 306.800 199.248,303.463 203.977,297.886 206.613 C 296.614 207.215,295.174 208.234,294.686 208.878 C 291.649 212.892,291.623 212.909,287.965 213.111 C 284.210 213.319,284.078 213.387,281.994 216.209 C 281.109 217.406,279.778 218.594,278.701 219.148 C 276.857 220.096,275.489 221.588,274.799 223.401 C 274.274 224.783,272.935 225.200,269.020 225.200 L 265.693 225.200 264.346 226.829 C 263.606 227.724,262.259 229.254,261.353 230.229 L 259.705 232.000 256.292 232.000 L 252.879 232.000 251.739 233.402 C 251.113 234.174,250.077 235.444,249.438 236.226 C 248.799 237.008,247.614 237.985,246.805 238.397 C 245.997 238.810,244.842 239.793,244.240 240.583 C 241.949 243.587,241.419 243.874,237.733 244.104 C 233.959 244.339,233.108 244.831,231.486 247.717 C 230.165 250.068,228.647 250.800,225.094 250.800 C 221.836 250.800,221.606 250.945,219.057 254.599 C 217.632 256.643,216.154 257.197,212.124 257.199 C 210.102 257.199,208.348 257.360,208.227 257.556 C 208.106 257.751,207.511 258.035,206.904 258.187 C 206.297 258.338,205.227 258.898,204.527 259.431 C 202.688 260.830,197.760 260.850,195.873 259.466 C 193.743 257.903,191.237 257.200,187.787 257.199 C 184.231 257.197,182.585 256.512,181.350 254.519 C 179.405 251.382,178.466 250.800,175.348 250.800 C 171.481 250.800,170.586 250.411,168.000 247.604 L 165.800 245.216 162.207 244.649 L 158.615 244.081 156.007 241.230 L 153.400 238.380 150.047 238.390 L 146.695 238.400 145.047 236.671 C 144.141 235.720,142.950 234.285,142.400 233.482 L 141.400 232.022 137.847 232.011 L 134.295 232.000 132.647 230.237 C 131.741 229.268,130.487 227.828,129.861 227.037 L 128.721 225.600 125.461 225.599 C 121.598 225.597,120.201 224.936,118.558 222.333 C 116.766 219.494,116.239 219.228,112.375 219.213 C 108.569 219.199,108.220 218.992,105.938 215.400 C 104.875 213.728,104.289 213.344,101.011 212.175 C 93.254 209.409,90.370 196.893,96.738 193.628 C 97.542 193.216,98.740 192.294,99.400 191.580 C 103.193 187.475,102.977 187.600,106.281 187.600 C 109.773 187.600,111.414 186.843,112.808 184.586 C 114.943 181.132,116.261 181.091,118.643 184.406 C 119.703 185.882,120.669 186.658,122.554 187.549 C 123.930 188.199,125.615 189.367,126.298 190.145 C 127.521 191.538,129.012 192.150,134.725 193.605 C 136.015 193.934,137.074 194.680,138.925 196.565 C 141.254 198.937,141.538 199.103,143.742 199.377 C 147.797 199.881,149.851 200.698,151.879 202.613 C 152.918 203.595,154.541 204.669,155.484 204.999 C 156.428 205.330,158.009 205.885,158.998 206.232 C 159.987 206.580,161.382 207.499,162.098 208.274 C 162.814 209.050,163.881 210.205,164.469 210.842 C 165.461 211.917,165.750 212.000,168.469 212.001 C 172.001 212.001,173.824 212.793,174.914 214.800 C 176.638 217.977,177.207 218.278,181.927 218.509 C 187.384 218.778,190.286 219.586,192.916 221.571 C 195.724 223.691,196.699 224.001,200.526 223.993 C 203.984 223.986,204.659 223.736,208.308 221.106 C 210.642 219.424,215.535 218.302,219.200 218.608 C 222.283 218.866,224.800 217.597,224.800 215.783 C 224.800 214.599,226.910 212.828,229.509 211.829 C 230.989 211.261,232.982 210.173,233.938 209.412 C 235.543 208.135,239.345 206.400,240.540 206.400 C 241.179 206.400,242.800 204.657,243.943 202.741 C 245.307 200.457,246.317 200.000,250.000 200.000 C 253.761 200.000,254.738 199.531,256.210 197.019 C 257.835 194.245,258.719 193.666,262.272 193.046 C 265.773 192.435,266.978 191.838,268.289 190.065 C 268.755 189.434,270.006 188.514,271.068 188.020 C 273.407 186.932,274.800 185.709,274.800 184.744 C 274.800 183.398,277.411 181.264,279.290 181.075 C 283.786 180.622,296.985 181.253,297.993 181.970 M283.023 231.181 C 282.376 231.608,281.452 232.610,280.971 233.407 C 279.896 235.189,278.982 235.855,277.138 236.200 C 275.223 236.560,273.870 237.507,272.429 239.497 C 271.486 240.799,270.897 241.209,269.712 241.391 C 263.887 242.284,262.048 243.230,261.212 245.765 C 260.484 247.971,259.796 248.309,255.729 248.462 C 251.485 248.622,250.308 249.218,249.000 251.871 C 247.804 254.295,247.406 254.627,245.053 255.153 C 243.145 255.580,239.139 258.005,238.420 259.168 C 238.299 259.364,237.038 259.915,235.619 260.394 C 231.718 261.708,231.016 262.184,230.198 264.072 C 228.966 266.918,228.575 267.199,225.838 267.210 C 221.200 267.228,217.600 269.124,217.600 271.548 C 217.600 273.501,216.756 273.600,200.063 273.600 C 182.714 273.600,184.164 273.843,182.600 270.671 C 181.284 268.002,180.123 267.421,175.789 267.262 C 171.640 267.109,171.412 266.983,170.400 264.284 C 169.452 261.754,168.288 261.149,163.540 260.719 C 159.288 260.334,158.400 260.003,158.400 258.805 C 158.400 256.529,155.778 255.031,150.670 254.388 C 146.991 253.925,146.716 253.827,146.362 252.847 C 145.070 249.271,143.501 248.422,138.162 248.409 C 134.176 248.399,133.569 248.096,133.033 245.849 C 132.501 243.614,129.494 241.626,126.600 241.596 C 125.625 241.586,125.133 241.248,124.570 240.200 C 121.908 235.249,113.264 235.032,111.178 239.863 C 110.529 241.367,110.243 241.589,108.189 242.186 C 105.832 242.871,104.648 243.808,103.567 245.842 C 102.986 246.934,102.590 247.105,98.784 247.906 C 95.323 248.635,94.433 248.982,93.418 249.997 L 92.200 251.213 92.076 258.763 C 91.897 269.662,92.239 270.223,99.504 270.967 L 103.747 271.401 104.774 273.367 C 106.226 276.150,107.638 276.800,112.232 276.800 C 116.307 276.800,116.721 277.024,117.578 279.694 C 118.431 282.348,119.820 283.012,125.623 283.538 C 128.680 283.815,128.617 283.770,129.835 286.518 C 130.699 288.466,131.917 289.070,136.900 290.019 C 140.884 290.778,141.582 291.143,141.594 292.471 C 141.602 293.387,143.365 294.702,145.354 295.274 C 147.666 295.939,148.309 296.453,149.317 298.440 C 150.563 300.898,151.897 301.521,156.833 301.949 C 161.690 302.371,163.271 302.945,165.200 304.986 C 166.971 306.861,168.430 307.642,171.200 308.201 C 173.278 308.620,173.456 308.753,174.416 310.601 C 175.784 313.237,176.951 313.857,181.135 314.173 C 185.127 314.474,187.321 315.270,187.948 316.645 C 190.594 322.452,213.200 321.940,213.200 316.072 C 213.200 315.288,215.695 314.448,218.800 314.187 C 223.398 313.801,224.486 313.300,225.563 311.077 C 226.602 308.930,226.884 308.687,229.071 308.063 C 230.714 307.593,232.800 305.670,232.800 304.623 C 232.800 302.790,234.357 302.000,237.970 302.000 C 242.147 302.000,243.703 301.226,245.019 298.492 C 246.219 295.998,246.695 295.681,250.000 295.178 C 252.709 294.766,256.000 293.457,256.000 292.793 C 256.000 292.097,258.990 289.670,260.350 289.262 C 262.180 288.714,263.816 287.190,264.192 285.685 C 264.722 283.560,265.424 283.200,269.036 283.200 C 273.894 283.200,274.869 282.694,276.364 279.394 C 277.406 277.092,277.870 276.845,281.720 276.549 C 285.803 276.236,287.617 275.337,288.944 272.971 C 289.569 271.857,290.403 271.128,291.813 270.464 C 294.324 269.281,295.492 268.203,295.805 266.777 C 296.154 265.189,296.566 264.989,300.542 264.479 C 307.349 263.606,308.092 262.530,308.302 253.233 C 308.502 244.408,307.882 243.161,302.627 241.814 C 300.793 241.344,299.990 240.885,299.089 239.791 C 297.748 238.165,295.656 236.990,293.381 236.586 C 290.772 236.123,289.257 235.210,288.315 233.535 C 286.784 230.810,284.874 229.961,283.023 231.181 M291.678 237.518 C 293.119 238.022,295.074 239.100,296.023 239.912 C 297.095 240.830,298.961 241.809,300.951 242.499 C 307.107 244.632,307.390 245.127,307.102 253.245 C 306.811 261.449,306.136 262.404,300.011 263.270 C 297.030 263.692,296.677 263.841,295.683 265.103 C 293.782 267.513,292.005 269.160,290.571 269.841 C 289.804 270.205,288.776 271.024,288.288 271.662 C 285.742 274.986,286.074 274.797,282.000 275.241 C 277.529 275.728,276.741 276.153,275.400 278.800 C 274.005 281.553,273.247 281.943,269.123 282.032 C 265.283 282.116,264.807 282.392,262.849 285.672 C 262.294 286.600,261.288 287.473,260.123 288.037 C 259.108 288.529,257.136 289.805,255.742 290.874 C 253.014 292.965,252.110 293.402,249.247 294.017 C 246.627 294.580,245.692 295.150,244.724 296.775 C 242.610 300.322,241.809 300.800,237.976 300.800 C 234.113 300.800,233.328 301.240,231.550 304.404 C 230.802 305.734,227.062 308.400,225.944 308.400 C 225.732 308.400,225.302 309.015,224.988 309.767 C 224.101 311.890,222.657 312.671,218.999 313.007 C 215.245 313.352,213.411 314.172,210.536 316.794 C 205.833 321.081,195.049 320.792,189.966 316.242 C 187.745 314.253,185.233 313.331,181.048 312.969 C 177.863 312.693,174.811 310.805,174.795 309.100 C 174.793 308.825,174.118 308.300,173.295 307.934 C 168.747 305.909,167.913 305.405,166.810 304.013 C 165.410 302.245,161.789 301.062,156.293 300.578 C 152.838 300.274,151.767 299.683,150.212 297.219 C 149.561 296.188,148.447 295.313,146.539 294.337 C 144.630 293.360,143.388 292.386,142.439 291.120 C 141.088 289.316,141.056 289.301,137.672 288.828 C 133.368 288.226,132.266 287.645,130.747 285.176 C 129.213 282.683,128.923 282.536,124.859 282.181 C 121.093 281.853,119.762 281.070,118.388 278.376 C 117.176 276.000,116.313 275.600,112.402 275.600 C 108.945 275.600,106.000 274.261,106.000 272.690 C 106.000 270.954,103.470 269.600,100.222 269.597 C 94.174 269.592,93.206 268.213,93.204 259.600 C 93.203 250.990,93.738 250.206,100.292 249.206 C 103.555 248.709,103.600 248.686,105.364 246.622 C 106.344 245.474,108.321 243.850,109.765 243.005 C 111.207 242.162,112.488 241.152,112.612 240.761 C 113.691 237.363,117.386 237.262,121.084 240.529 C 121.571 240.959,123.684 241.892,125.781 242.604 C 130.014 244.040,130.576 244.392,131.472 246.171 C 132.979 249.162,133.788 249.600,137.808 249.600 L 141.467 249.600 143.033 251.157 C 143.895 252.014,145.090 253.337,145.688 254.099 C 146.726 255.419,146.928 255.496,150.034 255.755 C 154.112 256.095,155.168 256.643,157.478 259.618 L 159.328 262.000 162.702 262.000 C 166.650 262.000,167.760 262.566,169.440 265.433 C 170.952 268.013,171.696 268.400,175.142 268.400 C 178.673 268.400,180.170 269.142,181.532 271.564 C 183.445 274.968,182.471 274.800,200.327 274.800 L 216.146 274.800 218.973 271.843 L 221.800 268.886 225.000 268.594 C 228.953 268.233,229.340 268.034,230.850 265.581 C 232.351 263.140,233.407 262.413,237.142 261.246 C 239.021 260.659,240.538 259.886,241.342 259.107 C 242.034 258.435,243.860 257.305,245.400 256.594 C 248.370 255.223,249.102 254.592,250.171 252.482 C 251.260 250.333,252.895 249.603,256.625 249.601 C 260.178 249.600,261.061 249.079,262.563 246.104 C 263.477 244.292,264.659 243.639,268.575 242.783 C 272.724 241.877,273.297 241.585,274.381 239.831 C 275.025 238.788,275.830 238.227,277.687 237.526 C 279.277 236.926,280.924 235.877,282.366 234.546 L 284.592 232.491 286.826 234.546 C 288.404 235.998,289.827 236.869,291.678 237.518 " stroke="none" fill="#4c6c5c" fill-rule="evenodd"></path></g></svg>