<?xml version="1.0" standalone="no"?>
<!DOCTYPE svg PUBLIC "-//W3C//DTD SVG 20010904//EN"
 "http://www.w3.org/TR/2001/REC-SVG-20010904/DTD/svg10.dtd">
<svg version="1.0" xmlns="http://www.w3.org/2000/svg"
 width="64.000000pt" height="64.000000pt" viewBox="0 0 64.000000 64.000000"
 preserveAspectRatio="xMidYMid meet">

<g transform="translate(0.000000,64.000000) scale(0.100000,-0.100000)"
fill="#000000" stroke="none">
<path d="M192 571 c-68 -37 -123 -72 -123 -77 1 -5 58 -42 126 -82 l125 -72
50 28 c38 22 47 31 38 40 -16 16 -34 15 -63 -4 -22 -15 -27 -13 -104 31 -45
26 -83 50 -86 55 -3 5 33 29 80 55 l85 46 111 -60 c92 -50 115 -59 131 -50 11
6 16 14 12 19 -10 8 -251 140 -256 140 -2 -1 -59 -32 -126 -69z"/>
<path d="M32 319 l3 -152 100 -61 c55 -34 117 -72 138 -85 l37 -23 0 160 0
159 -49 26 c-59 32 -61 33 -61 7 0 -13 12 -28 30 -38 l30 -17 0 -108 c0 -100
-1 -107 -17 -98 -10 6 -49 30 -88 54 l-70 44 -3 129 c-2 107 -5 131 -19 142
-9 6 -21 12 -25 12 -5 0 -7 -68 -6 -151z"/>
<path d="M463 392 l-133 -76 0 -58 c0 -62 1 -64 31 -48 13 8 19 21 19 48 0 36
3 38 91 89 l90 52 -3 -106 -3 -106 -112 -69 c-95 -59 -113 -74 -113 -95 l0
-25 38 23 c20 13 82 51 137 85 l100 61 3 152 c1 83 -1 151 -5 150 -5 0 -68
-35 -140 -77z"/>
</g>
</svg>
