<svg xmlns="http://www.w3.org/2000/svg" width="32" height="32" viewBox="0 0 400 400"><g fill-rule="evenodd"><path d="M0 200v200h400V0H0v200m125.056-55.399c.455 1.185-.213 2.599-1.228 2.599-1.026 0-3.201-2.196-2.807-2.834.392-.634 3.777-.437 4.035.235m63.269.499c-.202 1.061-1.925 1.176-1.925.128 0-.623.255-.828 1.029-.828.765 0 .995.18.896.7m94.167.9c.472.44 1.083.8 1.356.8.274 0 .612.36.752.8.186.585.605.8 1.56.8 1.558 0 1.993.333 1.388 1.063-.518.624-1.948.725-1.948.137 0-.22-.135-.379-.3-.353-.86.136-1.72-.09-1.528-.402.351-.568-.803-1.285-1.587-.984-.492.189-.626.128-.427-.193.159-.257.099-.468-.134-.468s-.424-.45-.424-1c0-1.209.179-1.237 1.292-.2m-165.418.861c.263.218.534.787.602 1.264.172 1.203 1.988 1.962 4.617 1.93 2.404-.028 3.43.358 4.788 1.806 1.008 1.074 1.929 1.212 2.264.339.126-.33.551-.606.942-.614.562-.012.466-.217-.455-.97-2.668-2.181-1.409-3.743 2.253-2.794 1.326.344 3.424.718 4.661.833 2.683.247 2.689.253 2.823 2.445.068 1.098 8.926.117 10.211-1.131.209-.203.682-.369 1.051-.369.369 0 .906-.283 1.192-.628.287-.345.849-.542 1.249-.437.4.104.828.027.951-.173.408-.66 1.847-.382 2.05.396.329 1.257 3.741 1.541 12.327 1.027 5.714-.342 5.692-.342 7.816.004 1.875.306 2.784-.48 2.784-2.408 0-.69 1.818-.799 2.229-.134.152.246.412 1.011.578 1.7.165.689.431 1.568.59 1.953.208.504.1.7-.384.7-.412 0-.622.258-.542.667.196 1.011 1.152 1.13 1.402.175.309-1.18 2.127-.507 2.127.787 0 .204.27.371.6.371.4 0 .6.4.6 1.2 0 1.348 2.179 1.841 2.655.6.145-.378.771-.605 1.688-.613 1.297-.011 1.38-.071.757-.544-1.283-.974-.786-1.399 1.6-1.369 1.265.016 2.93-.23 3.7-.547 5.078-2.088 20.693-3.248 26.141-1.941 2.245.538 2.376.523 4.494-.516 3.09-1.515 4.595-1.431 5.941.334.897 1.176.97 1.442.449 1.642-.341.131-.515.408-.387.615.137.222.495.163.867-.142.551-.451.603-.402.402.381-.314 1.216-.216 1.17 1.914-.9 1.019-.99 2.054-1.8 2.301-1.8.246 0 .843-.495 1.325-1.1.822-1.032 1.103-1.109 4.515-1.24 2.657-.102 3.638-.281 3.638-.662 0-.326.301-.444.8-.314.44.115.8.368.8.563 0 .194 1.35.353 3 .353s3 .167 3 .371c0 1.429 1.197 1.661 8.299 1.61 7.537-.055 8.049-.19 7.776-2.051-.152-1.036-.061-1.13 1.092-1.13 1.266 0 2.288 1.182 1.305 1.509-.809.27-.517 1.266.428 1.462.495.103 1.98.304 3.3.447 3.221.349 5 1.118 5 2.162 0 .451.18.82.4.82.22 0 .4-.27.4-.6 0-.71.633-.795 1.038-.139.156.253-.01.676-.371.939-.827.605-.449 1 .957 1 .6 0 1.189.256 1.309.569.129.337.539.485 1.006.363.774-.203.775-.218.024-.969-.795-.795-1.031-1.963-.396-1.963.201 0 .442.225.535.5.126.376.308.388.733.049.762-.609 5.061-1.041 5.371-.54.133.216-.222.569-.79.785-.914.347-.974.484-.528 1.199.647 1.035 1.926 1.041 2.195.011.16-.612.43-.741 1.166-.556.868.218.925.152.611-.704-.222-.606-.725-.989-1.403-1.071-.581-.069-1.057-.275-1.057-.457 0-.939 3.651-1.119 4.4-.216.598.721 3.757.788 6.4.137 1.704-.421 24.505-.535 28.736-.144 3.658.337 28.862 1.056 29.223.833.419-.26 13.204.462 16.009.904 2.102.33 2.498 1.007.95 1.626-.615.246-2.288 1.075-3.718 1.843-1.43.768-2.896 1.397-3.257 1.398-.362.002-.769.293-.905.648-.157.408-.539.57-1.038.439-.435-.114-1.198.109-1.695.494-1.608 1.244-10.595 1.908-28.041 2.073-4.879.046-7.459.251-9.354.745-1.97.512-3.075.592-4.464.321-2.183-.425-4.701-.119-5.486.665-.72.721-.709 1.018.04 1.018.33 0 .6.159.6.353 0 .195.327.439.728.544.4.105 1.029.826 1.398 1.603.655 1.381 2.222 2.227 3.11 1.678.219-.136.66-.03.979.235.319.264 1.036.394 1.592.288.557-.107 1.108-.038 1.226.153.118.19.567.346.999.346.449 0 .98.428 1.241 1 .455.999 1.127 1.356 1.127.6 0-.22.202-.4.449-.4.301 0 .276.208-.074.63-.434.523-.425.692.049.985.48.296.454.44-.16.889-.479.35-.762 1.125-.819 2.243-.049.94-.259 1.831-.469 1.981-.492.352-1.376 2.89-1.376 3.954 0 .488-.326.91-.8 1.034-.44.115-.8.496-.8.847 0 .35-.152.637-.337.637-.5 0-1.31 3.012-1.016 3.778.151.394-.07 1.019-.546 1.542-1.241 1.363-1.622 2.369-1.415 3.733.105.689-.006 1.374-.248 1.523-.241.149-.438.578-.438.953s-.405.866-.9 1.091c-.495.225-.851.641-.79.924.06.284-.055.413-.257.288-.203-.124-1.148.049-2.102.385-1.253.442-3.842.651-9.342.753-7.223.134-9.397.44-9.994 1.405-.144.234-1.116.425-2.159.425-1.734 0-2.856.495-2.856 1.261 0 .165.953.275 2.118.245 1.164-.03 2.379.111 2.7.314.961.609-2.353.918-10.185.95-3.941.017-7.088.108-6.993.203.165.165 8.577.281 59.96.828 12.21.13 22.605.321 23.1.425 1.457.306 1.077 1.309-.6 1.585-.825.135-1.86.4-2.3.588-.44.187-1.25.434-1.8.547-1.566.323-4.519 1.129-5.4 1.473-1.135.444-4.168 1.222-5.704 1.464-.717.113-1.402.366-1.523.561-.121.196-.638.356-1.148.356-.51 0-1.574.27-2.363.6-1.888.789-70.183.919-70.967.135-.354-.354-.181-.983.72-2.625.652-1.188 1.185-2.675 1.185-3.305 0-.746.244-1.219.7-1.354 1.264-.374-2.85.068-5.072.545-1.571.337-2.435.347-3.119.035-1.321-.601-2.127-.539-2.978.231-.811.734-.953 1.338-.315 1.338.602 0 3.584 3.135 3.584 3.767 0 .294.27.759.6 1.033.33.274.6.825.6 1.225 0 .4.18.839.4.975.683.422.486 7.575-.255 9.286a86.73 86.73 0 0 0-1.043 2.514c-.212.55-.612 1.54-.888 2.2-.276.66-.679 1.65-.896 2.2-1.815 4.603-4.51 8.818-7.173 11.223-2.189 1.976-5.166 3.977-5.917 3.977-.345 0-.628.172-.628.381 0 .424-1.702.985-5.6 1.845-2.063.456-6.663.574-22.3.574h-19.7l.002-1.1c.002-.605.272-1.616.6-2.246.329-.63.598-1.397.598-1.705 0-.565.123-.868 1.332-3.281.368-.733.668-1.591.668-1.906 0-.578.121-.876 1.332-3.294.368-.733.668-1.591.668-1.906 0-.578.121-.876 1.332-3.294.368-.733.668-1.591.668-1.906 0-.315.162-.885.359-1.267.197-.382.669-1.505 1.048-2.495 1.286-3.361 1.467-3.799 2.03-4.932.31-.623.563-1.391.563-1.706 0-.575.116-.863 1.314-3.262l.649-1.3h-5.559c-5.831 0-6.804.328-6.804 2.291 0 .282-.45 1.446-1 2.586s-1 2.294-1 2.565c0 .271-.3 1.093-.668 1.826-1.173 2.341-1.332 2.713-1.332 3.116 0 .217-.426 1.344-.946 2.505-.832 1.854-1.601 3.741-2.654 6.511-1.785 4.694-3.207 8.159-4.059 9.895-.187.382-.341.894-.341 1.139s-.291 1.057-.646 1.806l-.645 1.36H189.6v-1.124c0-.617.264-1.472.587-1.9.323-.427.593-1.093.6-1.481.007-.388.175-1.018.372-1.4.197-.382.669-1.505 1.048-2.495 1.286-3.361 1.467-3.799 2.03-4.932.31-.623.563-1.468.563-1.877 0-.409.18-.855.4-.991 2.036-1.258.504-1.4-15.1-1.395l-15.5.004-.751 1.696c-.8 1.807-.802 1.812-2.446 6.095-1.123 2.926-2.045 5.118-2.647 6.295-.196.382-.356.997-.356 1.368 0 1.627-1.15 2.137-4.815 2.137-4.421 0-4.656-.489-2.349-4.895.2-.382.364-.894.364-1.139s.291-1.102.647-1.906c.357-.803.905-2.09 1.22-2.86.314-.77.743-1.713.952-2.095.21-.382.381-.969.381-1.305 0-.616.115-.903 1.332-3.332.368-.733.668-1.591.668-1.906 0-.578.121-.876 1.332-3.294.368-.733.668-1.592.668-1.908 0-.317.45-1.289 1-2.16.55-.871 1-1.768 1-1.992 0-.224.147-.408.326-.408.18 0 .711-.675 1.181-1.5 1.405-2.465 6.867-7.7 8.034-7.7.253 0 .459-.137.459-.305 0-.316.229-.45 3.471-2.043a326.905 326.905 0 0 0 2.624-1.3c.382-.193 1.147-.352 1.7-.352.553 0 1.005-.18 1.005-.4 0-.22.801-.4 1.78-.4s2.671-.191 3.759-.424c1.696-.364 23.957-.844 29.861-.644 13.514.458 21.114-.067 20.923-1.445-.1-.718.099-.912 1.04-1.02 2.755-.314 5.308 1.009 3.795 1.967-.333.211 2.669.34 7.442.32 4.623-.019 7.578-.169 7-.354-.55-.176-2.504-.338-4.343-.36-2.874-.034-3.309-.129-3.1-.673.134-.348.243-.79.243-.984 0-.193 1.485-.411 3.3-.485 1.815-.075.42-.17-3.1-.213l-6.4-.078-1.065-1.296c-1.009-1.227-1.137-1.272-2.4-.83-.734.256-2.415.576-3.735.711-1.32.135-3.158.438-4.084.674-1.842.469-4.687.134-4.292-.505.136-.22.546-.37.911-.334a7.868 7.868 0 0 0 1.465-.038c.44-.056-.416-.227-1.903-.378-3.328-.339-5.618-1.896-5.823-3.959-.183-1.841-.874-1.11-.874.925 0 1.393-.156 1.77-.8 1.939-.44.115-.8.503-.8.862 0 .555.132.53.875-.162 1.104-1.028 1.525-1.032 1.525-.016 0 .44-.18.8-.4.8-.22 0-.4.27-.4.6 0 .373-.378.6-1 .6-.55 0-1-.228-1-.506 0-.789-6.552-.913-7.649-.145-.933.654-2.736-.721-2.764-2.107-.029-1.471-.889-1.88-3.787-1.802-1.824.05-3.109-.118-3.686-.482-1.04-.655-7.527-.784-7.914-.158-.136.22-.597.4-1.024.4-.427 0-.776-.18-.776-.4 0-.22.18-.4.4-.4.22 0 .4-.27.4-.6 0-.33.166-.6.369-.6.203 0 .558-.585.79-1.3.467-1.441.443-3.1-.044-3.1-.173 0-.315-.343-.315-.763 0-2.731-2.03.366-2.204 3.363-.118 2.03-.178 2.2-.769 2.2-.315 0-.688.363-.829.806-.141.443-.44.692-.665.553-.225-.14-.854-.015-1.397.275-.657.352-1.08.391-1.262.118-.151-.226-.589-.527-.974-.669-.754-.278-.955-1.678-.3-2.083.496-.306.532-1.8.043-1.8-.196 0-.478-.486-.627-1.079-.2-.797-.359-.937-.608-.534-.186.301-.174.977.027 1.506.545 1.432.445 2.024-.331 1.963-.488-.039-.758.319-.9 1.198-.413 2.54-3.152 4.811-5.853 4.852-1.293.019-2.884.312-3.535.651-1.065.554-1.252.554-1.864 0-.614-.556-.718-.546-1.083.105-.469.839-2.069-.219-2.069-1.367 0-.329-.239-.489-.551-.369-.303.116-.753.01-1-.237-.332-.332-.574-.324-.929.031-.264.264-.894.48-1.4.48-.506 0-.92.173-.92.385 0 .219-1.024.325-2.378.246-2.148-.126-2.39-.06-2.5.683-.173 1.167-.963 1.288-1.328.202-.3-.894-.311-.89-.477.184-.163 1.055-.293 1.167-1.417 1.226-1.132.06-3.9-.622-3.9-.961 0-.201-.324-.365-.72-.365-.396 0-.962-.225-1.259-.5-.433-.402-.48-.396-.238.03.249.437.156.439-.534.008-.459-.287-1.009-1.02-1.221-1.63-.45-1.29-1.441-1.465-1.744-.308-.115.44-.018.8.215.8.234 0 .082.384-.337.853-.753.843-.752.85.082.591 1.262-.392 2.743.936 2.367 2.122-.268.844-.453.897-2.351.673-3.98-.469-14.655-.404-15.152.093-.54.54-4.308.643-4.308.117 0-.479.833-1.118 1.8-1.38.647-.176.608-.214-.2-.199-1.754.033-1.942-.053-2.072-.939-.172-1.169-1.127-1.423-1.401-.373-.278 1.064-.771 1.082-1.044.038-.176-.674-.371-.743-1.204-.426-.546.208-1.37.279-1.831.158-.54-.141-.923.002-1.076.401-.142.369-.495.522-.871.378-.39-.15-.531-.08-.369.183.145.234-.031.539-.392.678-.592.227-.469.779.193.868 2.164.288 1.942.917-.333.945-1.43.017-2.87.206-3.2.419-.543.351 20.236.649 40.256.579 6.659-.024 9.344-.553 9.344-1.843 0-.778.593-.994.986-.359.128.207-.312.933-.977 1.614-1.358 1.389-1.448 1.609-.656 1.609.305 0 .637.434.738.963.124.648.024.903-.304.777-.275-.106-.6.259-.745.836-.142.563-.434 1.024-.65 1.024-.215 0-.392.54-.392 1.2 0 .66-.16 1.2-.357 1.2-.196 0-.469.45-.607 1s-.428 1-.644 1c-.215 0-.392.262-.392.582 0 2.518-8.839 11.335-13.4 13.368-2.709 1.206-3.676 1.574-5.2 1.976-6.325 1.67-6.365 1.674-16.297 1.674h-9.844l-.63 1.261c-.346.694-.629 1.521-.629 1.839 0 .317-.248 1.054-.551 1.638-.63 1.212-1.247 2.723-3.049 7.462-2.154 5.665-1.857 5.4-6.062 5.4-4.517 0-4.741-.474-2.319-4.895.21-.382.381-.969.381-1.305 0-.616.115-.903 1.332-3.332.368-.733.668-1.591.668-1.906 0-.578.121-.876 1.332-3.294.368-.733.668-1.591.668-1.906 0-.578.121-.876 1.332-3.294.368-.733.668-1.591.668-1.906 0-.578.121-.876 1.332-3.294.368-.733.668-1.642.668-2.02 0-.379.149-.859.33-1.068.182-.209.571-1.19.864-2.18.293-.99.744-2.16 1.003-2.6.26-.44.574-1.205.7-1.7l.228-.9-44.862-.004c-24.675-.003-45.538-.116-46.363-.253-1.689-.279-1.944-.765-.6-1.141.495-.139 1.26-.41 1.7-.604 1.014-.445 4.317-1.209 6.4-1.48.88-.114 1.798-.368 2.04-.562.243-.195 1.282-.47 2.311-.611 1.029-.141 1.967-.412 2.084-.601.117-.189.911-.344 1.765-.344.854 0 1.658-.17 1.786-.377.128-.207 1.083-.5 2.123-.65 1.04-.151 2.086-.429 2.325-.618.812-.643 28.777-1.355 53.231-1.355 13.155 0 15.784-.15 13.786-.784-.446-.141-.918-.599-1.051-1.016-.133-.417-.605-.875-1.049-1.016-.472-.149-.721-.486-.597-.807.116-.303.039-.658-.171-.788-.211-.13-.383.134-.383.587 0 .601-.258.824-.951.824-.529 0-1.204.381-1.52.857-.482.725-.701.786-1.431.395-.474-.253-2.04-.479-3.48-.5-2.275-.034-2.618-.137-2.618-.787 0-1.66-1.71-2.123-8.964-2.427A1519.01 1519.01 0 0 1 73 197.646c-4.693-.251-8.136-.266-9-.038-1.603.421-4.234-.293-5.015-1.361-.26-.356-.653-.647-.872-.647-.597 0-.322-2.836.413-4.257.353-.683.533-1.35.401-1.483-.133-.133.684-2.105 1.815-4.382 1.132-2.277 2.058-4.444 2.058-4.815 0-1.087.963-3.863 1.34-3.863.19 0 .247-.257.127-.571-.121-.314.04-.786.357-1.049.317-.263.576-.875.576-1.361s.449-1.769.998-2.851c.549-1.082.999-2.379 1-2.881.001-.501.262-1.012.581-1.134.633-.243 1.631-4.29 1.221-4.953-.139-.226-1.052-.336-2.028-.245-.975.091-1.874.004-1.996-.195-.123-.198-1.671-.36-3.439-.36-3.703 0-16.499-.733-17.837-1.021-1.19-.257-1.143-.906.1-1.379.55-.209 1-.525 1-.702 0-.609 2.537-1.49 6.7-2.327.715-.144 1.3-.4 1.3-.57 0-.169.315-.406.7-.526.385-.121 2.5-.885 4.7-1.699l4-1.48 14.4-.514c7.92-.283 18.27-.727 23-.987 4.73-.261 9.883-.36 11.45-.222 2.973.262 3.867-.289 2.929-1.807-.964-1.56 1.491-2.436 3.095-1.105m26.668.133c.262.682-1.116 1.578-1.94 1.262-.295-.113-.635.053-.756.369-.314.817-1.105.715-.964-.125.22-1.305 3.258-2.555 3.66-1.506m58.258.541c0 .748-1.095 1.265-2.68 1.265-1.422 0-1.72-.131-1.72-.759 0-.649.316-.762 2.2-.785 1.21-.014 2.2.111 2.2.279M244.4 149c0 .472.556.6 2.6.6s2.6-.128 2.6-.6-.556-.6-2.6-.6-2.6.128-2.6.6m-52.8 1.806c0 .875-1.005 1.316-1.525.67-.644-.8.191-2.485.929-1.873.328.272.596.814.596 1.203m-59.232 1.894c-.019.422-.112.501-.234.198-.258-.642-.934-.242-.934.553 0 .408.243.526.753.364.776-.246 1.465.709 1.025 1.421-.124.2.241.364.811.364.57 0 1.137-.262 1.26-.583.138-.36.63-.533 1.287-.454.585.071.793.057.463-.032-.331-.088-.908-.694-1.282-1.346-.802-1.398-3.091-1.751-3.149-.485m3.832-.3c-.141.228.204.4.8.4.596 0 .941-.172.8-.4-.136-.22-.496-.4-.8-.4-.304 0-.664.18-.8.4m46 2c-.141.228.204.4.8.4.596 0 .941-.172.8-.4-.136-.22-.496-.4-.8-.4-.304 0-.664.18-.8.4m-1.122 1.856c-.32.319.041.944.546.944.207 0 .376-.27.376-.6 0-.619-.472-.795-.922-.344m107.6.824c-.397.103-.652.397-.567.654.243.729 1.663.546 1.813-.234.137-.713.027-.75-1.246-.42m-107.958 1.535c-.38.836-.344 1.133.209 1.685.628.628.671.628.671 0 0-.37.392-.882.872-1.139.843-.451.847-.485.124-1.014-1.049-.766-1.347-.692-1.876.468m102.723-.324c-.336.335.552 1.309 1.193 1.309.302 0 .443-.251.321-.569-.249-.647-1.161-1.093-1.514-.74m-49.265.944c-.147.239-.068.635.177.88.327.327.445.211.445-.435 0-.966-.208-1.115-.622-.445m-105.899 1.322c-.164.417-.204.852-.088.967.364.365.685-.233.533-.993-.141-.696-.162-.695-.445.026m51.863 1.635c.142.37.258.749.258.841 0 .092.283.167.629.167.89 0 .544-1.356-.392-1.536-.567-.109-.69.021-.495.528m-87.449.895c-1.594.241-.927.913.907.913 1.641 0 2.426-.551 1.365-.958-.347-.133-.751-.215-.898-.182-.147.033-.765.135-1.374.227m221.428.951c1.002.529 1.821.703 2.4.51.868-.29 1.217-.346 2.979-.48 2.728-.207.405-.866-3-.85l-3.9.017 1.521.803m-232.713 1.129c-.112.348-.654 1.156-1.206 1.795-.551.639-1.002 1.652-1.002 2.25 0 .599-.45 2.106-1 3.35-.55 1.243-1 2.695-1 3.226 0 .531-.175 1.073-.389 1.205-.214.133-.575.929-.801 1.771-.227.842-.965 2.139-1.641 2.883-3.186 3.509-2.059 6.627 1.409 3.899.961-.756 1.259-.802 2.6-.4 3.895 1.167 10.547.331 8.776-1.103-.483-.391-.925-1.145-.983-1.677-.057-.531-.119-1.101-.138-1.266-.018-.165-.303-.3-.633-.3-.723 0-.773-.467-.12-1.12.373-.373.329-.48-.2-.48-.614 0-.976 1.502-.711 2.95.035.192-.406.26-.981.15-.849-.162-1.124-.002-1.46.85l-.415 1.05-.411-.886c-.261-.561-.721-.854-1.257-.8-.679.069-.842-.13-.829-1.014.016-1.115-.362-1.435-.82-.693-.401.649-.996.034-.996-1.031 0-1.046.377-1.239 1.069-.547.306.306.506.127.694-.622.203-.812.44-.997 1.033-.808 3.073.975 5.371-1.398 5.308-5.481-.026-1.642.122-2.718.373-2.718.229 0 .322-.36.207-.8-.115-.439-.043-.902.16-1.027.203-.126.232-.441.065-.701-.167-.259-.311-.909-.32-1.443-.01-.535-.261-1.053-.559-1.152-.371-.124-.437-.007-.209.371.261.433.208.456-.244.107-.876-.677-3.129-.535-3.369.212m131.652 1.726c-.129.491-.06 1.067.153 1.28.249.249.387-.069.387-.893 0-1.496-.211-1.647-.54-.387M82.494 169c.182.248.296.21.3-.1.01-.84.698-.556.945.389.152.58-.039 1.179-.548 1.721-1.304 1.388-2.032 4.377-1.255 5.154.581.581.528.636-.617.636-.689 0-1.337-.225-1.44-.5-.129-.345-.378-.253-.805.3-.583.756-.632.76-.897.078-.249-.643-.025-1.305 1.482-4.373.187-.382.341-1.228.341-1.88 0-1.594 1.669-2.548 2.494-1.425m93.306.6c-.292.472.087 1.2.624 1.2.207 0 .376-.36.376-.8 0-.844-.582-1.076-1-.4m34.334 7.027c-.355.926.431 1.538 1.037.807.513-.617.281-1.434-.407-1.434-.214 0-.497.282-.63.627M232.2 180.4c-.153.247.537.4 1.8.4s1.953-.153 1.8-.4c-.136-.22-.946-.4-1.8-.4-.854 0-1.664.18-1.8.4m-138.502.5c.253.769 1.902.88 1.902.128 0-.409-.361-.628-1.033-.628-.648 0-.972.187-.869.5m-6.631.167c-.461.46-.292.933.333.933.33 0 .6-.27.6-.6 0-.625-.473-.794-.933-.333m-9.867.853c0 .396.216.936.48 1.2.373.373.373.587 0 .96s-.48.284-.48-.4c0-.486-.25-.88-.557-.88-.604 0-1.138-.972-.749-1.361.503-.503 1.306-.207 1.306.481m110.88 1.618c-1.007.761-.862 2.062.229 2.062.344 0 .504-.12.357-.268-.147-.147.034-.601.404-1.009.953-1.053.179-1.668-.99-.785m126.32.862c-.455.294-.286.389.7.394.715.003 1.3-.174 1.3-.394 0-.508-1.214-.508-2 0M186 185c0 .33-.18.6-.4.6-.22 0-.4.486-.4 1.08 0 .652.142.929.358.7.431-.458 1.002-2.98.674-2.98-.128 0-.232.27-.232.6m48.145 1.6c-.127.33-.661.6-1.188.6-.526 0-.957.18-.957.4 0 .22.232.4.515.4.799 0 3.485-1.467 3.203-1.749-.457-.457-1.339-.261-1.573.349m-11.967 2.635c-.147.239-.068.635.177.88.327.327.445.211.445-.435 0-.966-.208-1.115-.622-.445m-71.044 3.034c-.366.097-.766.439-.889.759-.276.718 1.956 3.313 2.422 2.817.183-.195.108-.435-.167-.533-.62-.221-.658-1.567-.055-1.94.244-.151.602-.026.794.277.491.775.448.061-.053-.875-.409-.765-.752-.849-2.052-.505m15.186 2.533c-1.068 1.094-1.085 1.598-.053 1.598.293 0 .533-.345.533-.767 0-.421.207-.835.46-.92a.455.455 0 0 0 .3-.584c-.088-.238-.646.065-1.24.673m-39.12 1.811c0 .886-.223 1.498-.6 1.642-.33.127-.6.661-.6 1.188 0 .584.234.957.6.957.37 0 .6-.376.6-.98 0-.539.248-1.124.551-1.3.361-.21.483-.766.354-1.62-.262-1.74-.905-1.66-.905.113m-16-.013c-.274.33-.746.6-1.049.6-.724 0-.702.577.047 1.198.482.4.793.369 1.6-.16.939-.615 1.002-.612 1.008.053.013 1.436.697 1.991 1.365 1.107.813-1.075.779-1.297-.246-1.622-.806-.256-.821-.317-.19-.778.627-.459.609-.52-.226-.743-1.375-.369-1.765-.311-2.309.345m53.994 2.9c-.008.383-.78 1.591-.788 1.233-.003-.147-.115-.552-.249-.9-.159-.415-.022-.633.4-.633.354 0 .64.135.637.3m99.82 1.535c-.373.569-.574 1.139-.446 1.266.128.128.232.012.232-.258s.148-.399.329-.287c.401.248 1.7-1.194 1.371-1.522-.436-.436-.806-.237-1.486.801M284 200.4c0 .22.27.4.6.4.33 0 .6-.18.6-.4 0-.22-.27-.4-.6-.4-.33 0-.6.18-.6.4m3.364.55c-.339.883.112 1.334.723.723.36-.36.362-.584.006-.94s-.529-.304-.729.217m-19.091.11c-.426.426-.321 1.74.14 1.74.591 0 .963-1.184.513-1.634-.208-.208-.502-.256-.653-.106m14.766.078c-.139.223-.057.527.181.674.615.381 1.012-.14.498-.654-.287-.287-.511-.294-.679-.02M166 202.176c0 .537-.18 1.088-.4 1.224-.22.136-.4-.019-.4-.344 0-.325-.109-.875-.243-1.223-.159-.415-.022-.633.4-.633.415 0 .643.346.643.976m15.9.124c.105.314-.218.5-.867.5-1.009 0-1.315-.385-.753-.947.412-.412 1.428-.131 1.62.447m61.3.124c0 .207-.382.376-.849.376-.706 0-.766-.1-.355-.596.5-.602 1.204-.473 1.204.22m2 0c0 .207-.382.376-.849.376-.706 0-.766-.1-.355-.596.5-.602 1.204-.473 1.204.22m2 0c0 .207-.382.376-.849.376-.706 0-.766-.1-.355-.596.5-.602 1.204-.473 1.204.22m38 0c0 .453.18.712.4.576.22-.136.4-.507.4-.824 0-.317-.18-.576-.4-.576-.22 0-.4.371-.4.824m-160.8-.024c0 .22-.675.376-1.5.347l-1.5-.052 1.4-.295c.77-.162 1.445-.318 1.5-.347.055-.029.1.127.1.347m156.8.776c0 .453.18.824.4.824.22 0 .4-.259.4-.576 0-.317-.18-.688-.4-.824-.22-.136-.4.123-.4.576m-17.968.519c-.024.51.394.764 1.568.951.88.141 1.6.413 1.6.605s.371.349.824.349c.453 0 .72-.166.595-.37-.126-.203.088-.452.476-.553.44-.115.291-.202-.395-.231-.702-.029-1.1-.268-1.1-.66 0-.483-.165-.526-.774-.2-1.053.564-2.316.521-2.561-.086-.121-.3-.214-.223-.233.195m-98.432.505c0 .391-.383.595-1.1.586l-1.1-.014 1-.572c1.252-.715 1.2-.715 1.2 0m-44.4 9.002c0 .441-.45 1.735-1 2.875s-1 2.377-1 2.749c0 .372-.27.9-.6 1.174-.33.274-.6.858-.6 1.298 0 .973 19.582.956 19.906-.017.088-.264.609-.481 1.156-.481.547 0 1.265-.27 1.595-.6.33-.33.947-.6 1.372-.6.424 0 .771-.18.771-.4 0-.22.206-.4.459-.4.705 0 5.108-3.766 6.69-5.721.514-.636-.375-.679-14.1-.679-14.394 0-14.649.014-14.649.802m62-.169c-.55.306-1.317.558-1.704.561-2.383.02-11.496 6.394-11.496 8.04 0 .212 5.091.385 12.1.412 18.198.069 18.3.06 18.3-1.663 0-.395.253-1.228.563-1.851.601-1.208 1.043-2.234 1.999-4.632l.597-1.5-9.679.039c-7.449.03-9.911.167-10.68.594m48.7-.076c-.385.292-.7.996-.7 1.563 0 .568-.166 1.135-.369 1.261-.203.125-.488.766-.632 1.424-.144.657-.428 1.195-.631 1.195-.202 0-.368.345-.368.768 0 .422-.253 1.277-.563 1.9-.31.622-.735 1.582-.945 2.132-.209.55-.676 1.681-1.037 2.514-.36.832-.655 1.777-.655 2.1 0 .322-.18.586-.4.586-.22 0-.4.345-.4.768 0 .422-.253 1.277-.563 1.9-.563 1.133-.744 1.571-2.03 4.932-.379.99-.851 2.113-1.048 2.495-.197.382-.359.886-.359 1.121 0 .613 30.703.353 31.8-.269.44-.25 1.34-.694 2-.988 3.081-1.372 6.806-5.043 7.569-7.459.157-.495.453-.9.658-.9.205 0 .373-.439.373-.976 0-.537.18-1.088.4-1.224.22-.136.4-.665.4-1.175s.27-1.151.6-1.425c.33-.274.6-.838.6-1.254 0-.759.098-1.015 1.332-3.478.821-1.638.833-2.342.066-3.814-.329-.63-.598-1.351-.598-1.603 0-.251-.817-.951-1.816-1.554l-1.817-1.097-15.083.013c-11.909.01-15.231.124-15.784.544" fill="#1a1f2a"/><path d="M58.6 154.456c-1.76.648-3.74 1.328-4.4 1.51-.66.182-1.74.556-2.4.832-2.301.962-2.806 1.153-3.7 1.404-.956.267-1.167.786-.491 1.204.226.139 5.761.335 12.3.436 14.17.218 13.044-.029 12.035 2.635-2.353 6.215-3.808 9.983-4.528 11.723-.273.66-.724 1.83-1.003 2.6-.279.77-.729 1.94-1 2.6-.271.66-.718 1.83-.993 2.6-.276.77-.657 1.76-.848 2.2-3.173 7.314-4.077 10.721-2.959 11.15.338.129 11.25.246 24.25.26 25.099.026 25.137.023 25.137-1.797 0-.254.357-1.202.794-2.106.437-.904 1.084-2.512 1.44-3.575.355-1.063.88-2.472 1.166-3.132 1.521-3.505 4.53-11.365 4.768-12.451l.274-1.252-2.152-.268c-3.704-.463-25.691-.093-26.336.443-.744.618-2.127 4.701-1.843 5.441.328.853 3.222 1.105 12.281 1.069 4.45-.017 8.181.058 8.291.168.215.214-2.34 7.216-3.412 9.35l-.653 1.3H86.909c-19.155 0-18.226.112-17.336-2.081.205-.506 1.745-4.429 3.422-8.719 3.886-9.939 4.977-12.712 5.59-14.2.272-.66.724-1.785 1.004-2.5l.508-1.3h20.307c23.732 0 22.34.338 23.479-5.7l.208-1.1-31.146.039-31.145.038-3.2 1.179m88.301-.61c-6.167 1.34-12.651 5.21-16.555 9.883-.952 1.139-1.869 2.131-2.038 2.204a.568.568 0 0 0-.308.483c0 .191-.424.974-.943 1.738-.519.764-1.44 2.617-2.047 4.118-.607 1.5-1.253 3.088-1.437 3.528-1.554 3.728-3.349 8.296-3.848 9.79-.332.995-.835 2.35-1.117 3.01-3.019 7.069-3.034 7 1.562 7 2.769 0 2.662.101 4.427-4.2.362-.88.807-1.96.99-2.4.183-.44.557-1.43.833-2.2.275-.77.723-1.94.994-2.6.272-.66.903-2.251 1.402-3.536 1.212-3.124-.834-2.848 20.284-2.734 14.627.079 13.513-.272 11.86 3.744a196.716 196.716 0 0 0-1.648 4.126c-.334.88-.753 1.96-.931 2.4-2.953 7.307-2.943 7.4.833 7.4 2.948 0 3.552-.319 4.291-2.266.689-1.814 3.703-9.457 4.075-10.334.187-.44.564-1.43.84-2.2.275-.77.722-1.94.993-2.6.271-.66.721-1.83 1-2.6s.739-1.94 1.022-2.6c.283-.66 1.699-4.26 3.147-8 1.448-3.74 2.809-7.113 3.025-7.495.216-.382.393-1.021.393-1.42s.204-.929.453-1.178c.249-.249.345-.735.213-1.08-.33-.858-27.801-.842-31.765.019m54.899-.168c-11.37 2.68-20.1 10.354-24.256 21.322-.793 2.092-3.677 9.334-4.141 10.4-.288.66-.796 2.01-1.129 3-.334.99-.986 2.68-1.45 3.755-1.275 2.958-.94 3.445 2.374 3.445 2.962 0 3.557-.312 4.319-2.266.244-.624 1.629-4.194 3.078-7.934 1.449-3.74 2.776-7.16 2.948-7.6 3.442-8.796 10.198-15.28 17.672-16.959 2.039-.458 2.151-1.074-1.496 8.159-2.502 6.335-2.534 7.088-.26 6.1 4.622-2.009 6.705-3.935 7.896-7.3.389-1.1.868-2.36 1.066-2.8.197-.44.701-1.7 1.121-2.8l.763-2 6.248-.11c6.577-.116 6.569-.119 5.791 1.791-1.084 2.658-1.453 3.6-1.928 4.919-.926 2.572-3.007 7.86-4.015 10.2-.189.44-.723 1.859-1.187 3.154-.464 1.294-1.173 3.094-1.575 4-4.421 9.937-4.478 11.246-.483 11.246 3.205 0 3.076.085 4.266-2.8 1.015-2.462 1.218-2.967 2.565-6.4.69-1.76 1.405-3.56 1.587-4 .506-1.217 2.274-5.823 2.842-7.4.277-.77.727-1.94.999-2.6.271-.66.986-2.46 1.586-4 .601-1.54 1.248-3.16 1.438-3.6 1.608-3.728 3.561-9.364 3.561-10.277V153.2l-14.3.051c-7.865.027-15.02.22-15.9.427m37.79 1.418a87.007 87.007 0 0 1-1.301 2.844c-.679 1.366.463 2.06 3.387 2.06 2.353 0 3.25 1.18 1.992 2.62-.182.209-.934 2-1.671 3.98-.736 1.98-1.461 3.78-1.61 4-.149.22-.372.76-.495 1.2-.124.44-.577 1.726-1.008 2.857-1.266 3.322-2.237 3.128 16.302 3.26l16.417.117.936-.936c1.01-1.011 2.562-5.33 2.086-5.807-.231-.231-11.228-.443-25.125-.486-1.859-.006-1.919-.535-.46-4.079a410.226 410.226 0 0 0 1.676-4.126c1.1-2.769.182-2.6 14.107-2.6 13.234 0 14.533-.145 14.975-1.677.146-.508.533-1.515.86-2.239 1.292-2.859 2.625-2.672-19.952-2.788l-20.283-.103-.833 1.903m66.01-1.429c-7.247 1.495-14.117 5.758-18.416 11.427-2.018 2.661-5.184 8.682-5.184 9.859 0 .33-.18.711-.4.847-.74.457-.42 1.701.5 1.943.495.13 9.93.196 20.967.147 11.036-.05 20.203.047 20.371.215.272.271-.505 2.583-2.049 6.095-.29.66-.765 1.965-1.055 2.9l-.529 1.7h-75.788l-4.908 1.627c-10.775 3.573-12.556 4.399-10.609 4.921 1.941.52 94.98.278 95.414-.248.226-.275 1.067-2.12 1.869-4.1.801-1.98 1.607-3.96 1.79-4.4.184-.44.787-1.97 1.341-3.4.553-1.43 1.654-4.193 2.446-6.14 1.88-4.621 1.909-5.855.14-5.873-.715-.007-3.55-.072-6.3-.145-2.75-.074-11.429-.158-19.287-.188-16.242-.061-15.364.187-11.957-3.389 3.082-3.235 7.752-6.035 11.644-6.981 1.174-.286 11.84-.512 30.678-.649 27.394-.2 28.967-.25 30.6-.981.947-.424 3.162-1.348 4.922-2.055 3.995-1.603 6.23-2.827 5.96-3.264-.285-.461-69.902-.333-72.16.132m-136.7 6.566c.213.213-.369 1.987-2.283 6.967-.38.99-.885 2.205-1.122 2.7l-.43.9h-15.533c-17.817 0-16.994.222-13.226-3.569 6.043-6.081 9.455-7.173 22.527-7.206 5.409-.014 9.939.08 10.067.208" fill="#e9b01d"/><path d="M44.707 205.427c-.125.124-1.46.501-2.967.836-1.507.335-3.37.76-4.14.944l-4.2 1c-1.54.366-3.43.821-4.2 1.012-.77.191-2.331.555-3.469.811-1.483.332-2.01.621-1.858 1.017.179.466 7.184.553 44.57.553 49.688 0 45.098-.28 43.907 2.681-.247.616-.59 1.479-.762 1.919-.171.44-1.064 2.69-1.984 5-.92 2.31-2.125 5.37-2.677 6.8-.553 1.43-1.146 2.96-1.318 3.4a894.185 894.185 0 0 0-2.009 5.2c-.167.44-.617 1.61-1 2.6s-.829 2.16-.992 2.6c-.164.44-.592 1.481-.953 2.314-1.258 2.906-1.074 3.136 2.403 3.003 3.452-.132 3.1.19 4.936-4.517.687-1.76 1.395-3.56 1.574-4 .93-2.287 1.193-2.947 1.838-4.6 2.046-5.243.794-4.739 11.856-4.77 9.533-.027 14.628-.328 14.973-.886.117-.189.637-.344 1.156-.344.519 0 1.454-.253 2.077-.562a487.268 487.268 0 0 0 5.649-2.867c3.484-1.795 9.345-8.516 11.485-13.171.865-1.882 2.198-5.457 2.198-5.894 0-.349-115.745-.427-116.093-.079m135.493.638c-1.54.428-3.323 1.039-3.961 1.357-.639.318-1.339.578-1.556.578-.855 0-7.131 4.574-9.026 6.578-3.331 3.521-5.369 7.169-8.618 15.422-1.688 4.29-3.229 8.16-3.423 8.6-.195.44-.669 1.7-1.054 2.8-.385 1.1-.833 2.18-.995 2.4-.163.22-.423 1.083-.579 1.918l-.284 1.517 3.134-.117c3.629-.137 3.117.409 5.562-5.918.383-.99.841-2.16 1.018-2.6.177-.44.916-2.33 1.643-4.2s1.571-3.805 1.876-4.3l.555-.9h15.505c16.935 0 16.714-.031 16.165 2.262-.15.626-.397 1.318-.55 1.538-.153.22-.515 1.03-.805 1.8-.29.77-.749 1.94-1.02 2.6-.271.66-.721 1.83-1 2.6-.478 1.321-.856 2.283-1.931 4.919-.879 2.156-.732 2.281 2.683 2.281h3.14l.708-1.7c.39-.935.846-2.06 1.013-2.5 1.329-3.495 2.377-6.149 2.999-7.6.284-.66.734-1.83 1.001-2.6.267-.77.72-1.94 1.007-2.6.287-.66 1.005-2.46 1.596-4 .591-1.54 1.216-3.16 1.388-3.6.172-.44.626-1.61 1.009-2.6 1.189-3.076 1.293-3.341 2.209-5.6 1.167-2.881.915-2.787 7.504-2.794 6.964-.007 6.803-.205 4.519 5.541a509.625 509.625 0 0 0-2.52 6.453c-.456 1.21-1.048 2.74-1.316 3.4-.268.66-.803 2.01-1.19 3-.386.99-.849 2.16-1.029 2.6-.18.44-.988 2.51-1.797 4.6-.808 2.09-1.7 4.34-1.981 5-1.583 3.715-1.816 4.619-1.244 4.838 1.147.44 41.615-.033 42.645-.498.55-.249 1.81-.779 2.8-1.177 6.009-2.419 14-11.169 14-15.329 0-.31.917-2.413 1.626-3.729.206-.382.374-1.021.374-1.42s.172-.897.382-1.107c.21-.21.625-1.461.923-2.78 1.36-6.024-1.834-12.307-7.537-14.829l-2.191-.969-40.288.043c-38.621.042-40.405.076-43.089.822m99.994 1.714c-.603 1.418-.988 2.86-.856 3.204.359.935 65.584.905 69.262-.032 1.32-.336 3.03-.768 3.8-.96.77-.193 2.39-.646 3.6-1.009 1.21-.362 2.83-.812 3.6-1 .77-.187 2.39-.642 3.6-1.01s2.787-.758 3.504-.865c4.952-.742-2.645-.907-41.835-.907H281.29l-1.096 2.579M150.4 212.415c0 1.031-3.956 5.041-6.605 6.695-5.026 3.138-7.67 3.705-18.489 3.969-9.814.239-10.037.183-8.903-2.206.57-1.2 1.32-2.969 1.896-4.473.211-.55.768-1.855 1.237-2.9l.854-1.9h15.005c14.829 0 15.005.01 15.005.815m52.917-.288c.111.291-.118 1.326-.51 2.3-.391.975-1.184 2.943-1.761 4.373-.576 1.43-1.048 2.819-1.047 3.086.003 1.173-1.778 1.314-16.473 1.308-15.465-.006-16.031-.057-15.519-1.394.757-1.977 7.757-7.8 9.377-7.8.313 0 .67-.163.793-.363 1.064-1.721 24.518-3.129 25.14-1.51m62.128 1.612c1.768 1.953 2.556 5.989 1.421 7.281-.184.209-.649 1.28-1.033 2.38-.385 1.1-.936 2.54-1.224 3.2-.289.66-.749 1.74-1.023 2.4-1.334 3.214-1.963 4.178-4.186 6.415-5.107 5.14-7.877 5.769-25.467 5.778-16.301.009-15.164.419-13.098-4.721 1.722-4.285 2.431-6.09 3.565-9.072.364-.958 1.57-4.08 2.009-5.2.172-.44.8-2.06 1.394-3.6.595-1.54 1.332-3.278 1.639-3.862.307-.584.558-1.313.558-1.62 0-1.513.502-1.555 17.342-1.435l16.348.117 1.755 1.939" fill="#f1f0f0"/><path d="M121.021 144.366c-.394.638 1.781 2.834 2.807 2.834 1.015 0 1.683-1.414 1.228-2.599-.258-.672-3.643-.869-4.035-.235m65.379.862c0 .629.215.797.896.7 1.329-.19 1.446-1.528.133-1.528-.774 0-1.029.205-1.029.828m94.8.972c0 .55.191 1 .424 1 .233 0 .293.211.134.468-.199.321-.065.382.427.193.784-.301 1.938.416 1.587.984-.192.312.668.538 1.528.402.165-.026.3.133.3.353 0 .588 1.43.487 1.948-.137.605-.73.17-1.063-1.388-1.063-.955 0-1.374-.215-1.56-.8-.14-.44-.478-.8-.752-.8-.273 0-.884-.36-1.356-.8-1.113-1.037-1.292-1.009-1.292.2m-167.139.486c-.223.417-.26.992-.082 1.28.938 1.518.044 2.069-2.929 1.807-1.567-.138-6.72-.039-11.45.222-4.73.26-15.08.704-23 .987l-14.4.514-4 1.48c-2.2.814-4.315 1.578-4.7 1.699-.385.12-.7.357-.7.526 0 .17-.585.426-1.3.57-4.163.837-6.7 1.718-6.7 2.327 0 .177-.45.493-1 .702-1.243.473-1.29 1.122-.1 1.379 1.338.288 14.134 1.021 17.837 1.021 1.768 0 3.316.162 3.439.36.122.199 1.021.286 1.996.195.976-.091 1.889.019 2.028.245.41.663-.588 4.71-1.221 4.953-.319.122-.58.633-.581 1.134-.001.502-.451 1.799-1 2.881-.549 1.082-.998 2.365-.998 2.851 0 .486-.259 1.098-.576 1.361-.317.263-.478.735-.357 1.049.12.314.063.571-.127.571-.377 0-1.34 2.776-1.34 3.863 0 .371-.926 2.538-2.058 4.815-1.131 2.277-1.948 4.249-1.815 4.382.132.133-.048.8-.401 1.483-.735 1.421-1.01 4.257-.413 4.257.219 0 .612.291.872.647.781 1.068 3.412 1.782 5.015 1.361.864-.228 4.307-.213 9 .038 4.18.223 10.676.535 14.436.692 7.254.304 8.964.767 8.964 2.427 0 .65.343.753 2.618.787 1.44.021 3.006.247 3.48.5.73.391.949.33 1.431-.395.316-.476.991-.857 1.52-.857.693 0 .951-.223.951-.824 0-.453.172-.717.383-.587.21.13.287.485.171.788-.124.321.125.658.597.807.444.141.916.599 1.049 1.016.133.417.637.885 1.12 1.039 2.198.698-1.358.905-12.92.749-6.71-.09-15.08-.018-18.6.16-4.109.208 9.514.347 38.051.388 35.96.052 44.534.163 44.883.585.455.548.221 2.134-.441 2.979-.261.334-.245.5.05.5.243 0 .557-.461.699-1.024.145-.577.47-.942.745-.836.328.126.428-.129.304-.777-.101-.529-.433-.963-.738-.963-.792 0-.702-.22.656-1.609.665-.681 1.105-1.407.977-1.614-.393-.635-.986-.419-.986.359 0 1.29-2.685 1.819-9.344 1.843-20.02.07-40.799-.228-40.256-.579.33-.213 1.77-.402 3.2-.419 2.275-.028 2.497-.657.333-.945-.662-.089-.785-.641-.193-.868.361-.139.537-.444.392-.678-.162-.263-.021-.333.369-.183.376.144.729-.009.871-.378.153-.399.536-.542 1.076-.401.461.121 1.285.05 1.831-.158.833-.317 1.028-.248 1.204.426.273 1.044.766 1.026 1.044-.038.274-1.05 1.229-.796 1.401.373.13.886.318.972 2.072.939.808-.015.847.023.2.199-.967.262-1.8.901-1.8 1.38 0 .526 3.768.423 4.308-.117.497-.497 11.172-.562 15.152-.093 1.898.224 2.083.171 2.351-.673.376-1.186-1.105-2.514-2.367-2.122-.834.259-.835.252-.082-.591.419-.469.571-.853.337-.853-.233 0-.33-.36-.215-.8.303-1.157 1.294-.982 1.744.308.212.61.762 1.343 1.221 1.63.69.431.783.429.534-.008-.242-.426-.195-.432.238-.03.297.275.863.5 1.259.5.396 0 .72.164.72.365 0 .339 2.768 1.021 3.9.961 1.124-.059 1.254-.171 1.417-1.226.166-1.074.177-1.078.477-.184.365 1.086 1.155.965 1.328-.202.11-.743.352-.809 2.5-.683 1.354.079 2.378-.027 2.378-.246 0-.212.414-.385.92-.385s1.136-.216 1.4-.48c.355-.355.597-.363.929-.031.247.247.697.353 1 .237.312-.12.551.04.551.369 0 1.148 1.6 2.206 2.069 1.367.365-.651.469-.661 1.083-.105.612.554.799.554 1.864 0 .651-.339 2.242-.632 3.535-.651 2.701-.041 5.44-2.312 5.853-4.852.142-.879.412-1.237.9-1.198.776.061.876-.531.331-1.963-.201-.529-.213-1.205-.027-1.506.249-.403.408-.263.608.534.149.593.431 1.079.627 1.079.489 0 .453 1.494-.043 1.8-.655.405-.454 1.805.3 2.083.385.142.823.443.974.669.182.273.605.234 1.262-.118.543-.29 1.172-.415 1.397-.275.225.139.524-.11.665-.553.141-.443.514-.806.829-.806.591 0 .651-.17.769-2.2.174-2.997 2.204-6.094 2.204-3.363 0 .42.142.763.315.763.487 0 .511 1.659.044 3.1-.232.715-.587 1.3-.79 1.3-.203 0-.369.27-.369.6 0 .33-.18.6-.4.6-.22 0-.4.18-.4.4 0 .22.349.4.776.4.427 0 .888-.18 1.024-.4.387-.626 6.874-.497 7.914.158.577.364 1.862.532 3.686.482 2.898-.078 3.758.331 3.787 1.802.028 1.386 1.831 2.761 2.764 2.107 1.097-.768 7.649-.644 7.649.145 0 .278.45.506 1 .506.622 0 1-.227 1-.6 0-.33.18-.6.4-.6.22 0 .4-.36.4-.8 0-1.016-.421-1.012-1.525.016-.743.692-.875.717-.875.162 0-.359.36-.747.8-.862.644-.169.8-.546.8-1.939 0-2.035.691-2.766.874-.925.205 2.063 2.495 3.62 5.823 3.959 1.487.151 2.343.322 1.903.378a7.868 7.868 0 0 1-1.465.038c-.365-.036-.775.114-.911.334-.395.639 2.45.974 4.292.505.926-.236 2.764-.539 4.084-.674 1.32-.135 3.001-.455 3.735-.711 1.263-.442 1.391-.397 2.4.83l1.065 1.296 6.4.078c3.52.043 4.915.138 3.1.213-1.815.074-3.3.292-3.3.485 0 .194-.109.636-.243.984-.209.544.226.639 3.1.673 1.839.022 3.793.184 4.343.36.578.185-2.377.335-7 .354-4.773.02-7.775-.109-7.442-.32 1.513-.958-1.04-2.281-3.795-1.967-.941.108-1.14.302-1.04 1.02.191 1.378-7.429 1.904-20.923 1.445-4.957-.169-28.155.263-29.514.549-.833.176 16.614.319 38.771.319 22.156 0 39.983-.058 39.614-.129a.807.807 0 0 1-.639-.8c.019-.416.108-.481.233-.171.245.607 1.508.65 2.561.086.609-.326.774-.283.774.2 0 .396.39.624 1.1.642.975.025 1.009.067.3.372-.44.189-.62.369-.4.4.22.031.04.211-.4.4-.684.294-.699.348-.1.372.385.015.7.232.7.482 0 .25.373-.02.829-.6.893-1.135 1.784-1.304 3.28-.623.689.314 1.538.299 3.119-.055 3.046-.682 3.264-.688 31.772-.808 19.038-.081 23.601-.183 17.8-.397-4.29-.159-14.617-.299-22.949-.312-8.331-.012-15.246-.121-15.366-.241-.12-.12 3.007-.231 6.948-.248 7.832-.032 11.146-.341 10.185-.95-.321-.203-1.536-.344-2.7-.314-1.165.03-2.118-.08-2.118-.245 0-.766 1.122-1.261 2.856-1.261 1.043 0 2.015-.191 2.159-.425.597-.965 2.771-1.271 9.994-1.405 5.5-.102 8.089-.311 9.342-.753.954-.336 1.899-.509 2.102-.385.202.125.317-.004.257-.288-.061-.283.295-.699.79-.924.495-.225.9-.716.9-1.091s.197-.804.438-.953c.242-.149.353-.834.248-1.523-.207-1.364.174-2.37 1.415-3.733.476-.523.697-1.148.546-1.542-.294-.766.516-3.778 1.016-3.778.185 0 .337-.287.337-.637 0-.351.36-.732.8-.847.474-.124.8-.546.8-1.034 0-1.064.884-3.602 1.376-3.954.21-.15.42-1.041.469-1.981.057-1.118.34-1.893.819-2.243.614-.449.64-.593.16-.889-.474-.293-.483-.462-.049-.985.35-.422.375-.63.074-.63-.247 0-.449.18-.449.4 0 .756-.672.399-1.127-.6-.261-.572-.792-1-1.241-1-.432 0-.881-.156-.999-.346-.118-.191-.669-.26-1.226-.153-.556.106-1.273-.024-1.592-.288-.319-.265-.76-.371-.979-.235-.888.549-2.455-.297-3.11-1.678-.369-.777-.998-1.498-1.398-1.603-.401-.105-.728-.349-.728-.544 0-.194-.27-.353-.6-.353-.749 0-.76-.297-.04-1.018.785-.784 3.303-1.09 5.486-.665 1.389.271 2.494.191 4.464-.321 1.895-.494 4.475-.699 9.354-.745 17.446-.165 26.433-.829 28.041-2.073.497-.385 1.26-.608 1.695-.494.499.131.881-.031 1.038-.439.136-.355.543-.646.905-.648.361-.001 1.827-.63 3.257-1.398 1.43-.768 3.103-1.597 3.718-1.843 1.149-.459 1.277-1.186.257-1.461-.481-.131-.479-.089.014.253.518.36.518.431 0 .596-3.121.992-8.07 2.872-9.721 3.693-.623.31-1.354.563-1.625.563-.271 0-1.249.365-2.174.812-1.628.787-2.581.819-30.575 1.02-28.883.208-30.119.27-33.694 1.689-3.81 1.512-9.991 6.454-10.731 8.579-.241.691 24.842 1.204 37.59.77 4.568-.156 4.51-.286 2.302 5.187a789.186 789.186 0 0 0-2.843 7.143c-.556 1.43-1.161 2.96-1.344 3.4-.182.44-.897 2.24-1.587 4-.691 1.76-1.448 3.6-1.683 4.088l-.426.888-49.039.112c-26.972.062-49.264.048-49.539-.031-.63-.18 2.215-1.657 3.19-1.657.396 0 1.033-.177 1.415-.394.382-.216 3.695-1.386 7.363-2.6l6.667-2.206h75.87l.529-1.7c.29-.935.765-2.24 1.055-2.9 1.544-3.512 2.321-5.824 2.049-6.095-.168-.168-9.656-.262-21.086-.21-22.565.103-21.88.169-20.846-2.022.226-.48.807-1.863 1.291-3.073 2.9-7.252 8.179-13.023 14.947-16.339 7.4-3.626 7.208-3.611 43.056-3.464 16.83.069 32.22 0 34.2-.154l3.6-.279-5.6-.348c-3.08-.192-6.59-.347-7.8-.345-3.894.006-29.468-.712-31.264-.878-4.231-.391-27.032-.277-28.736.144-2.643.651-5.802.584-6.4-.137-.749-.903-4.4-.723-4.4.216 0 .182.476.388 1.057.457.678.082 1.181.465 1.403 1.071.314.856.257.922-.611.704-.736-.185-1.006-.056-1.166.556-.269 1.03-1.548 1.024-2.195-.011-.446-.715-.386-.852.528-1.199.568-.216.923-.569.79-.785-.31-.501-4.609-.069-5.371.54-.425.339-.607.327-.733-.049-.093-.275-.334-.5-.535-.5-.635 0-.399 1.168.396 1.963.751.751.75.766-.024.969-.467.122-.877-.026-1.006-.363-.12-.313-.709-.569-1.309-.569-1.406 0-1.784-.395-.957-1 .361-.263.527-.686.371-.939-.405-.656-1.038-.571-1.038.139 0 .33-.18.6-.4.6-.22 0-.4-.369-.4-.82 0-1.044-1.779-1.813-5-2.162-1.32-.143-2.805-.344-3.3-.447-.945-.196-1.237-1.192-.428-1.462.983-.327-.039-1.509-1.305-1.509-1.153 0-1.244.094-1.092 1.13.273 1.861-.239 1.996-7.776 2.051-7.102.051-8.299-.181-8.299-1.61 0-.204-1.35-.371-3-.371s-3-.159-3-.353c0-.195-.36-.448-.8-.563-.499-.13-.8-.012-.8.314 0 .381-.981.56-3.638.662-3.412.131-3.693.208-4.515 1.24-.482.605-1.079 1.1-1.325 1.1-.247 0-1.282.81-2.301 1.8-2.13 2.07-2.228 2.116-1.914.9.201-.783.149-.832-.402-.381-.372.305-.73.364-.867.142-.128-.207.046-.484.387-.615.521-.2.448-.466-.449-1.642-1.346-1.765-2.851-1.849-5.941-.334-2.118 1.039-2.249 1.054-4.494.516-5.448-1.307-21.063-.147-26.141 1.941-.77.317-2.435.563-3.7.547-2.386-.03-2.883.395-1.6 1.369.623.473.54.533-.757.544-.917.008-1.543.235-1.688.613-.476 1.241-2.655.748-2.655-.6 0-.8-.2-1.2-.6-1.2-.33 0-.6-.167-.6-.371 0-1.294-1.818-1.967-2.127-.787-.25.955-1.206.836-1.402-.175-.08-.409.13-.667.542-.667.484 0 .592-.196.384-.7-.159-.385-.425-1.264-.59-1.953-.166-.689-.426-1.454-.578-1.7-.411-.665-2.229-.556-2.229.134 0 1.928-.909 2.714-2.784 2.408-2.124-.346-2.102-.346-7.816-.004-8.586.514-11.998.23-12.327-1.027-.203-.778-1.642-1.056-2.05-.396-.123.2-.551.277-.951.173-.4-.105-.962.092-1.249.437-.286.345-.823.628-1.192.628s-.842.166-1.051.369c-1.285 1.248-10.143 2.229-10.211 1.131-.134-2.192-.14-2.198-2.823-2.445-1.237-.115-3.335-.489-4.661-.833-3.662-.949-4.921.613-2.253 2.794.921.753 1.017.958.455.97-.391.008-.816.284-.942.614-.335.873-1.256.735-2.264-.339-1.358-1.448-2.384-1.834-4.788-1.806-2.629.032-4.445-.727-4.617-1.93-.243-1.697-2.909-2.758-3.615-1.439m27.339.457c-.66.361-1.253.972-1.318 1.357-.141.84.65.942.964.125.121-.316.461-.482.756-.369.824.316 2.202-.58 1.94-1.262-.28-.731-.793-.698-2.342.149m56.2.898c0 .897 3.083 1.116 3.92.279.868-.868.508-1.09-1.72-1.064-1.884.023-2.2.136-2.2.785m52 .959c0 .472-.556.6-2.6.6s-2.6-.128-2.6-.6.556-.6 2.6-.6 2.6.128 2.6.6m-59.55 1.054c-.415 1.097.118 2.01.979 1.679.746-.286.732-1.502-.025-2.13-.493-.409-.658-.331-.954.451m-54.533 3.131c.374.652.951 1.258 1.282 1.346.33.089.122.103-.463.032-.657-.079-1.149.094-1.287.454-.123.321-.69.583-1.26.583-.57 0-.935-.164-.811-.364.44-.712-.249-1.667-1.025-1.421-.51.162-.753.044-.753-.364 0-.795.676-1.195.934-.553.122.303.215.224.234-.198.058-1.266 2.347-.913 3.149.485m2.283-.785c.141.228-.204.4-.8.4-.596 0-.941-.172-.8-.4.136-.22.496-.4.8-.4.304 0 .664.18.8.4m-13.865.749c.537.342-.245 2.876-1.744 5.651l-.54 1-20.779.104-20.778.103-.507 1.297c-.279.713-.73 1.836-1.002 2.496-1.19 2.89-7.605 19.217-8.641 21.994-.409 1.097-.744 2.222-.744 2.5 0 .4 3.703.506 17.709.506h17.709l.653-1.3c1.006-2.002 3.633-9.13 3.437-9.325-.095-.096-4.839-.219-10.541-.274L87.8 177.8l.094-1.242c.051-.683.365-1.763.697-2.4.332-.637.605-1.37.607-1.629.008-1.668.635-1.739 15.221-1.718 7.674.011 14.047.172 14.162.358.173.28-3.226 9.36-5.178 13.831-.288.66-.814 2.069-1.169 3.132-.356 1.063-1.003 2.671-1.44 3.575-.437.904-.794 1.929-.794 2.279 0 1.827.109 1.819-25.953 1.728-13.504-.047-24.641-.175-24.75-.284-.157-.156 2.077-6.013 4.284-11.23.186-.44.563-1.43.839-2.2.275-.77.722-1.94.993-2.6.271-.66.721-1.83 1-2.6s.726-1.94.994-2.6c.881-2.171 3.497-8.92 4.612-11.898.942-2.517 1.865-2.36-14.031-2.395-7.693-.017-13.987-.138-13.987-.269.003-.361 3.295-1.638 4.223-1.638.449 0 .987-.157 1.196-.349.209-.191 1.46-.664 2.78-1.05a75.35 75.35 0 0 0 4.868-1.651c1.358-.523 2.717-.95 3.02-.95.304 0 .723-.163.932-.361.209-.199.727-.424 1.152-.5 1.745-.314 61.27-.304 61.763.01m55.128.27c.129.336-.058.933-.414 1.327-.357.395-.649 1.02-.649 1.391s-.177.986-.393 1.368c-.216.382-1.577 3.755-3.025 7.495s-2.864 7.34-3.147 8c-.283.66-.743 1.83-1.022 2.6s-.729 1.94-1 2.6c-.271.66-.718 1.83-.993 2.6-.276.77-.657 1.76-.848 2.2-.191.44-.899 2.24-1.572 4-.673 1.76-1.383 3.56-1.576 4a87.39 87.39 0 0 0-1.088 2.699l-.736 1.898-2.05.002c-1.127 0-2.612.114-3.3.251-1.629.326-1.681-.754-.207-4.324a156.866 156.866 0 0 0 2.269-5.726c.334-.88 1.075-2.737 1.648-4.126.572-1.39 1.04-2.785 1.04-3.1 0-.547-5.609-.688-27.4-.688-4.977 0-4.65-.206-6.215 3.914-.167.44-.565 1.43-.884 2.2-.32.77-.806 2.03-1.081 2.8-.276.77-.65 1.76-.833 2.2-.183.44-.628 1.52-.99 2.4-1.767 4.307-1.556 4.125-4.944 4.281-4.322.2-4.283.463-1.047-7.081a48.27 48.27 0 0 0 1.119-3.01c.499-1.494 2.294-6.062 3.848-9.79.184-.44.83-2.028 1.437-3.528.607-1.501 1.528-3.354 2.047-4.118.519-.764.943-1.547.943-1.738 0-.192.138-.409.308-.483.169-.073 1.086-1.065 2.038-2.204 4.852-5.807 12.3-9.569 21.054-10.634 4.295-.522 27.442-.252 27.663.324m53.555-.133c.158.157.01.877-.329 1.6-.339.723-1.195 2.844-1.901 4.714a230.81 230.81 0 0 1-1.784 4.6c-.274.66-.992 2.46-1.596 4-.605 1.54-1.322 3.34-1.593 4-.272.66-.722 1.83-.999 2.6-.568 1.577-2.336 6.183-2.842 7.4-.182.44-.897 2.24-1.587 4-1.582 4.03-1.763 4.474-2.546 6.26-.353.804-.641 1.637-.641 1.851 0 1.017-5.889 2.099-7.158 1.315-.375-.232 2.25-7.722 4.144-11.826.304-.66.94-2.28 1.412-3.6.472-1.32 1.014-2.76 1.203-3.2 1.008-2.34 3.089-7.628 4.015-10.2.475-1.319.844-2.261 1.928-4.919.778-1.91.786-1.907-5.791-1.791l-6.248.11-.763 2c-.42 1.1-.92 2.36-1.112 2.8-.192.44-.576 1.43-.853 2.2-1.013 2.818-2.007 4.8-2.406 4.8-.225 0-1.394.63-2.598 1.4-1.204.77-2.282 1.4-2.397 1.4-.115 0-.742.395-1.395.877-1.692 1.252-2.279.529-1.233-1.52.997-1.954 5.252-12.818 5.252-13.409 0-.444-3.045.392-5.472 1.502-6.144 2.81-10.899 8.174-13.785 15.55-.172.44-1.494 3.86-2.937 7.6-1.444 3.74-2.978 7.565-3.41 8.5l-.786 1.7h-3.205c-3.704 0-3.803-.146-2.371-3.467a59.668 59.668 0 0 0 1.44-3.733c.333-.99.841-2.34 1.129-3 .287-.66 1.268-3.09 2.18-5.4 2.256-5.716 2.186-5.546 3.196-7.8 4.088-9.121 13.496-16.782 22.621-18.421 4.326-.777 30.517-1.191 31.218-.493m48.673.69c-.06.537-.375 1.51-.7 2.162-.325.652-.591 1.458-.591 1.792 0 2.016-.379 2.07-14.613 2.07-10.166 0-13.377.118-13.662.5-.205.275-.659 1.22-1.009 2.1-.349.88-1.103 2.737-1.676 4.126-1.839 4.467-3.034 4.074 12.373 4.074 14.664 0 14.485-.031 13.265 2.279-.325.617-.901 1.87-1.28 2.786-.419 1.014-1.022 1.755-1.543 1.895-2.246.602-33.476.25-33.719-.381-.207-.542.3-2.023 2.457-7.179.276-.66 1.008-2.55 1.627-4.2.618-1.65 1.272-3.171 1.452-3.38.181-.209.328-.884.328-1.5V160h-2.813c-3.144 0-3.67-.437-2.798-2.327.841-1.823 1.523-3.44 1.77-4.199.224-.691 1.224-.72 20.738-.6L281.4 153l-.109.976m-97.491.424c.141.228-.204.4-.8.4-.596 0-.941-.172-.8-.4.136-.22.496-.4.8-.4.304 0 .664.18.8.4m-1.8 2.2c0 .33-.169.6-.376.6-.505 0-.866-.625-.546-.944.45-.451.922-.275.922.344m107.924.9c-.15.78-1.57.963-1.813.234-.135-.405.445-.722 1.618-.888.181-.025.269.269.195.654m-107.328.647c.723.529.719.563-.124 1.014-.48.257-.872.769-.872 1.139 0 .628-.043.628-.671 0-1.313-1.313.179-3.241 1.667-2.153m102.361.884c.122.318-.019.569-.321.569-.641 0-1.529-.974-1.193-1.309.353-.353 1.265.093 1.514.74m-50.157.649c0 .646-.118.762-.445.435-.245-.245-.324-.641-.177-.88.414-.67.622-.521.622.445m-106.165 1.818c-.43.43-.658-.172-.356-.941.283-.721.304-.722.445-.026.08.403.041.838-.089.967m17.444-.472c-3.662 1.224-6.809 3.221-9.773 6.205-3.768 3.791-4.591 3.569 13.226 3.569h15.533l.43-.9c.237-.495.742-1.71 1.122-2.7 1.914-4.98 2.496-6.754 2.283-6.967-.82-.82-19.986-.154-22.821.793m35.446 1.479c.081.422-.113.695-.496.695-.346 0-.629-.075-.629-.167 0-.092-.116-.471-.258-.841-.195-.507-.072-.637.495-.528.415.08.814.458.888.841m-86.56.537c1.061.407.276.958-1.365.958-1.834 0-2.501-.672-.907-.913a35.442 35.442 0 0 0 1.374-.227c.147-.033.551.049.898.182m225.435.558c0 .22-.405.431-.9.468-1.762.134-2.111.19-2.979.48-.579.193-1.398.019-2.4-.51l-1.521-.803 3.9-.017c2.345-.011 3.9.141 3.9.382m-235.623 1.355c.452.349.505.326.244-.107-.228-.378-.162-.495.209-.371.298.099.549.617.559 1.152.009.534.153 1.184.32 1.443.167.26.138.575-.065.701-.203.125-.275.588-.16 1.027.115.44.022.8-.207.8-.251 0-.399 1.076-.373 2.718.063 4.083-2.235 6.456-5.308 5.481-.593-.189-.83-.004-1.033.808-.188.749-.388.928-.694.622-.692-.692-1.069-.499-1.069.547 0 1.065.595 1.68.996 1.031.458-.742.836-.422.82.693-.013.884.15 1.083.829 1.014.536-.054.996.239 1.257.8l.411.886.415-1.05c.336-.852.611-1.012 1.46-.85.575.11 1.016.042.981-.15-.265-1.448.097-2.95.711-2.95.529 0 .573.107.2.48-.653.653-.603 1.12.12 1.12.33 0 .615.135.633.3.019.165.081.735.138 1.266.058.532.5 1.286.983 1.677 1.771 1.434-4.881 2.27-8.776 1.103-1.341-.402-1.639-.356-2.6.4-3.468 2.728-4.595-.39-1.409-3.899.676-.744 1.414-2.041 1.641-2.883.226-.842.587-1.638.801-1.771.214-.132.389-.674.389-1.205s.45-1.983 1-3.226c.55-1.244 1-2.751 1-3.35 0-.598.451-1.611 1.002-2.25.552-.639 1.094-1.447 1.206-1.795.24-.747 2.493-.889 3.369-.212M213.6 167.28c0 .824-.138 1.142-.387.893-.213-.213-.282-.789-.153-1.28.329-1.26.54-1.109.54.387m-132.906 1.571c-.415.233-.694.865-.694 1.574 0 .652-.154 1.498-.341 1.88-1.507 3.068-1.731 3.73-1.482 4.373.265.682.314.678.897-.078.427-.553.676-.645.805-.3.103.275.751.5 1.44.5 1.145 0 1.198-.055.617-.636-.777-.777-.049-3.766 1.255-5.154.509-.542.7-1.141.548-1.721-.247-.945-.935-1.229-.945-.389-.004.31-.118.348-.3.1-.409-.556-.986-.604-1.8-.149M176.8 170c0 .44-.169.8-.376.8-.537 0-.916-.728-.624-1.2.418-.676 1-.444 1 .4m34.611 6.418c.375.606-.641 1.712-1.127 1.226-.449-.449-.1-1.644.48-1.644.214 0 .505.188.647.418M235.8 180.4c.153.247-.537.4-1.8.4s-1.953-.153-1.8-.4c.136-.22.946-.4 1.8-.4.854 0 1.664.18 1.8.4m-140.2.628c0 .417-.292.585-.869.5-1.28-.189-1.417-1.128-.164-1.128.672 0 1.033.219 1.033.628m-7.6.372c0 .33-.27.6-.6.6-.625 0-.794-.473-.333-.933.46-.461.933-.292.933.333m-12.106.039c-.389.389.145 1.361.749 1.361.307 0 .557.394.557.88 0 .684.107.773.48.4s.373-.587 0-.96c-.264-.264-.48-.804-.48-1.2 0-.688-.803-.984-1.306-.481m113.176 2.884c-.37.408-.551.862-.404 1.009.147.148-.013.268-.357.268-1.091 0-1.236-1.301-.229-2.062 1.169-.883 1.943-.268.99.785m127.33.077c0 .22-.585.397-1.3.394-.986-.005-1.155-.1-.7-.394.786-.508 2-.508 2 0m-130.21 1.3c-.368 1.744-.99 2.36-.99.98 0-.594.18-1.08.4-1.08.22 0 .4-.27.4-.6 0-.33.104-.6.232-.6.127 0 .108.585-.042 1.3m49.528.551c.282.282-2.404 1.749-3.203 1.749-.283 0-.515-.18-.515-.4 0-.22.431-.4.957-.4.527 0 1.061-.27 1.188-.6.234-.61 1.116-.806 1.573-.349M222.8 189.68c0 .646-.118.762-.445.435-.245-.245-.324-.641-.177-.88.414-.67.622-.521.622.445m-69.614 3.094c.501.936.544 1.65.053.875-.192-.303-.55-.428-.794-.277-.603.373-.565 1.719.055 1.94.275.098.35.338.167.533-.466.496-2.698-2.099-2.422-2.817.208-.544.89-.872 2.041-.982.267-.025.672.302.9.728m14.074 1.939c-.253.085-.46.499-.46.92 0 .422-.24.767-.533.767-1.032 0-1.015-.504.053-1.598.594-.608 1.152-.911 1.24-.673a.455.455 0 0 1-.3.584m-39.155 1.787c.129.854.007 1.41-.354 1.62-.303.176-.551.761-.551 1.3 0 .604-.23.98-.6.98-.366 0-.6-.373-.6-.957 0-.527.27-1.061.6-1.188.377-.144.6-.756.6-1.642 0-1.773.643-1.853.905-.113m-14.596-.245c.835.223.853.284.226.743-.631.461-.616.522.19.778 1.025.325 1.059.547.246 1.622-.668.884-1.352.329-1.365-1.107-.006-.665-.069-.668-1.008-.053-.807.529-1.118.56-1.6.16-.749-.621-.771-1.198-.047-1.198.303 0 .775-.27 1.049-.6.544-.656.934-.714 2.309-.345m50.648 3.578c.134.348.246.753.249.9.008.358.78-.85.788-1.233.003-.165-.283-.3-.637-.3-.422 0-.559.218-.4.633m102.343.401c.329.328-.97 1.77-1.371 1.522-.181-.112-.329.017-.329.287 0 .27-.104.386-.232.258-.267-.267.98-2.301 1.411-2.301.158 0 .393.105.521.234m18.7.166c0 .22-.27.4-.6.4-.33 0-.6-.18-.6-.4 0-.22.27-.4.6-.4.33 0 .6.18.6.4m2.887 1.273c-.611.611-1.062.16-.723-.723.2-.521.373-.573.729-.217s.354.58-.006.94m-19.021.5c-.133.345-.427.627-.653.627-.461 0-.566-1.314-.14-1.74.439-.439 1.056.427.793 1.113m14.834-.34c-.381.382-1.145-.236-.861-.695.168-.274.392-.267.679.02.236.236.318.54.182.675m-118.943 0c.134.348.243.898.243 1.223 0 .325.18.48.4.344.673-.416.476-2.2-.243-2.2-.422 0-.559.218-.4.633m15.323.02c-.562.562-.256.947.753.947.649 0 .972-.186.867-.5-.192-.578-1.208-.859-1.62-.447m61.716.351c-.411.496-.351.596.355.596.467 0 .849-.169.849-.376 0-.693-.704-.822-1.204-.22m2 0c-.411.496-.351.596.355.596.467 0 .849-.169.849-.376 0-.693-.704-.822-1.204-.22m2 0c-.411.496-.351.596.355.596.467 0 .849-.169.849-.376 0-.693-.704-.822-1.204-.22m40.004-.028c0 .317-.18.688-.4.824-.22.136-.4-.123-.4-.576 0-.453.18-.824.4-.824.22 0 .4.259.4.576m-163.2.224-1.4.295 1.5.052c.825.029 1.5-.127 1.5-.347 0-.22-.045-.376-.1-.347-.055.029-.73.185-1.5.347m159.2 1.024c0 .317-.18.576-.4.576-.22 0-.4-.371-.4-.824 0-.453.18-.712.4-.576.22.136.4.507.4.824m-118.4.776-1 .572 1.1.014c.717.009 1.1-.195 1.1-.586 0-.715.052-.715-1.2 0m-116.1.489c.715.089 1.885.089 2.6 0 .715-.088.13-.161-1.3-.161-1.43 0-2.015.073-1.3.161m232.1.978c0 .476.051.791.113.7.062-.092.354-.482.649-.867.459-.599.442-.7-.113-.7-.399 0-.649.334-.649.867M177 206c-.136.22-.642.421-1.124.446-.552.03-.645.109-.251.215.344.093 1.154-.107 1.8-.444.731-.38.919-.613.499-.615-.372-.001-.788.178-.924.398m100.85 4.303c-.656 1.27-.282 2.109.93 2.085.518-.01.508-.078-.066-.412-.551-.322-.608-.603-.288-1.443.561-1.476.153-1.639-.576-.23m-5.15 1.497c.235.44.71 1.43 1.055 2.2.345.77.631 1.096.636.724.005-.372-.171-.788-.391-.924s-.4-.575-.4-.975-.299-.974-.664-1.276c-.595-.491-.62-.465-.236.251m-10.3.76c0 .089.675.542 1.5 1.008l1.5.848-1.2-1.006c-1.101-.923-1.8-1.253-1.8-.85m3.2 2.718c0 .127.269.746.598 1.376.328.63.592.876.587.546-.006-.33-.275-.949-.598-1.376-.323-.428-.587-.673-.587-.546m-96.454 6.828c.168.168 5.694.258 12.28.2l11.974-.107-12.28-.199c-6.755-.11-12.143-.062-11.974.106m-48.246.192a111.9 111.9 0 0 0 7 0c1.925-.073.35-.133-3.5-.133s-5.425.06-3.5.133m74.207-.008c.719.089 1.799.087 2.4-.004s.013-.164-1.307-.162c-1.32.002-1.812.077-1.093.166m28.793 18.007a73.8 73.8 0 0 0 5.8 0c1.595-.076.29-.138-2.9-.138s-4.495.062-2.9.138m15.6-.015a5.661 5.661 0 0 0 1.8 0c.495-.095.09-.173-.9-.173s-1.395.078-.9.173" fill="#5c400e"/><path d="M73.7 153.096c1.265.079 3.335.079 4.6 0 1.265-.08.23-.145-2.3-.145s-3.565.065-2.3.145m19.827.004c4.69.064 12.25.064 16.8-.001 4.55-.064.713-.116-8.527-.116-9.24 0-12.963.053-8.273.117m27.978-.017c.497.096 1.217.092 1.6-.008.382-.1-.025-.179-.905-.174-.88.004-1.193.086-.695.182m31.6 0c.497.096 1.217.092 1.6-.008.382-.1-.025-.179-.905-.174-.88.004-1.193.086-.695.182m5.795.014a85.45 85.45 0 0 0 6.2 0c1.705-.075.31-.136-3.1-.136s-4.805.061-3.1.136m14.5-.009c3.977.106 4.892.247 5.336.82.497.642.526.635.395-.108-.132-.75-.463-.801-5.336-.82l-5.195-.021 4.8.129m49.1.003c.825.087 2.175.087 3 0 .825-.086.15-.157-1.5-.157s-2.325.071-1.5.157m8 0c1.217.128 1.5.319 1.5 1.013 0 .638.116.74.453.403.911-.911.063-1.711-1.74-1.64l-1.713.067 1.5.157m9.761.009c-.169.273 12.703.267 28.539-.012 3.41-.061-1.574-.15-11.076-.199-9.502-.049-17.36.046-17.463.211m39.139-.02c.66.105 1.454.4 1.765.655.447.368.524.34.369-.135-.125-.384-.761-.62-1.765-.655-1.185-.042-1.275-.009-.369.135m31.105.007c.609.092 1.509.09 2-.005.492-.095-.005-.171-1.105-.168-1.1.003-1.503.081-.895.173m12.195.012c2.475.07 6.525.07 9 0 2.475-.071.45-.128-4.5-.128s-6.975.057-4.5.128m34.6-.023c.385.1 1.015.1 1.4 0 .385-.101.07-.183-.7-.183s-1.085.082-.7.183m17.5.009c3.237.201 3.578.41 2.181 1.331-1.401.924-1.143.987.911.223a86.91 86.91 0 0 1 2.297-.821c1.627-.538-.365-1.006-3.989-.938-2.402.045-2.868.114-1.4.205m-329.298 5.653c-2.252.995-1.841 1.269 1.798 1.198 1.815-.035 2.67-.138 1.9-.229-1.719-.202-2.432-.79-1.597-1.318 1.018-.643-.38-.41-2.101.349m45.603 12.345c.497.096 1.217.092 1.6-.008.382-.1-.025-.179-.905-.174-.88.004-1.193.086-.695.182m25.894-.003c.659.106 1.348.401 1.53.656.224.313.28.269.171-.136-.1-.369-.688-.622-1.531-.656-1.254-.052-1.268-.041-.17.136m156.876.006c.482.089.958.425 1.06.746.116.37.161.325.121-.124-.041-.459-.413-.722-1.059-.747-.821-.031-.843-.01-.122.125m49.03.001c.609.092 1.509.09 2-.005.492-.095-.005-.171-1.105-.168-1.1.003-1.503.081-.895.173m8.395.004c1.224.128 1.502.318 1.512 1.033.011.79.053.807.422.173.623-1.07.09-1.504-1.758-1.43l-1.676.067 1.5.157m-134.104 3.717c-.762 1.423.08 2.019 1.428 1.012.744-.556.737-.57-.17-.342-.824.208-.91.129-.673-.619.345-1.085-.015-1.116-.585-.051M87.668 177c.09.516.494.832 1.136.89.548.049.726-.017.396-.147-.33-.129-.841-.529-1.136-.889-.485-.592-.523-.578-.396.146m150.433.2c.089.33.598.633 1.13.674.764.058.8.027.169-.146-.44-.121-.949-.425-1.13-.674-.219-.3-.276-.25-.169.146M59.459 194.296c-.171.493-.198 1.078-.061 1.3.322.522 1.402.525 1.402.004 0-.22-.167-.4-.372-.4s-.436-.405-.515-.9l-.142-.9-.312.896m150.001.292c-.3.782.274 1.395 1.316 1.406.473.005.463-.084-.054-.494-.346-.275-.708-.761-.803-1.08-.132-.444-.239-.405-.459.168m16.631.215c-1.016.547-1.165.76-.667.951 1.022.392 3.376.285 3.376-.154 0-.22-.27-.4-.6-.4-.727 0-.796-.654-.1-.935.329-.133.295-.196-.1-.184-.33.009-1.189.334-1.909.722M116 194.948c0 .658.718 1.267 1.074.911.122-.121-.07-.512-.426-.869-.56-.559-.648-.565-.648-.042m40.006.352c-.004.47.289.69.894.668.601-.021.701-.107.3-.26-.33-.125-.732-.426-.894-.668-.181-.271-.296-.172-.3.26M47.6 204.69c-2.09.068-4.07.241-4.4.386-.936.409-4.83 1.349-6.6 1.593-.88.122-1.78.356-2 .521-.22.166-1.201.423-2.18.573-.979.15-1.969.424-2.2.61-.231.185-1.14.431-2.02.545-2.083.271-5.386 1.035-6.4 1.48-.44.194-1.205.465-1.7.604-1.344.376-1.089.862.6 1.141.825.137 21.705.25 46.4.253 35.652.003 44.899.107 44.898.504-.002.275-.272 1.016-.6 1.646-.329.63-.598 1.367-.598 1.638 0 .463-.783 2.347-1.626 3.911-.206.382-.374.939-.374 1.238 0 .506-.754 2.344-1.626 3.962-.206.382-.374.939-.374 1.238 0 .506-.754 2.344-1.626 3.962-.206.382-.374 1.057-.374 1.5 0 .443-.18.805-.4.805-.22 0-.401.315-.402.7-.002.385-.272 1.216-.6 1.846-.329.63-.598 1.485-.598 1.9 0 .415-.143.754-.317.754-.175 0-.661 1.035-1.081 2.3-.421 1.265-.899 2.57-1.064 2.9-2.298 4.606-2.162 4.862 2.513 4.715 2.768-.087 3.74-.262 3.973-.715.409-.794 1.334-3.06 1.959-4.8.276-.77.734-1.94 1.018-2.6.527-1.229.784-1.87 2.005-5 1.773-4.545 1.651-4.399 3.713-4.414 17.209-.132 21.424-.42 23.776-1.629.382-.196.984-.357 1.338-.357.354 0 1.121-.254 1.705-.564.584-.31 1.692-.864 2.462-1.229 2.243-1.066 2.894-1.49 5.62-3.662 2.633-2.098 5.98-5.745 5.98-6.517 0-.235.135-.429.3-.431.402-.003 1.7-2.316 1.7-3.029 0-.313.135-.569.3-.569.165-.001.631-.856 1.036-1.9a205.25 205.25 0 0 1 1.063-2.699c.725-1.767.795-2.325.359-2.851-.418-.503-99.126-.729-113.558-.259m136.601.002c-1.759.08-3.37.317-3.58.527-.209.209-.75.382-1.201.383-.451.002-1.336.272-1.966.6-.63.329-1.398.598-1.708.598-.309 0-1.275.45-2.146 1s-1.706 1-1.856 1c-1.534 0-10.944 9.41-10.944 10.944 0 .15-.45.985-1 1.856-.55.871-1 1.948-1 2.392 0 .444-.166.808-.368.808-.203 0-.487.538-.631 1.195-.144.658-.429 1.299-.632 1.424-.203.126-.369.557-.369.959 0 .402-.269 1.246-.598 1.876-.328.63-.598 1.461-.6 1.846-.001.385-.182.7-.402.7-.22 0-.4.332-.4.739 0 .673-.665 2.372-1.626 4.156-.206.382-.374.969-.374 1.305 0 .336-.171.923-.381 1.305-.209.382-.674 1.415-1.033 2.295l-1.143 2.8c-.944 2.307-.579 2.6 3.239 2.6 3.528 0 4.918-.64 4.918-2.267 0-.299.166-.856.369-1.238.427-.804 3.311-8.029 4.03-10.095a27.44 27.44 0 0 1 1.135-2.7l.648-1.3 13.609-.042c7.485-.023 14.276-.083 15.091-.135 2.029-.127 2.671.305 2.018 1.359-.275.444-.5 1.052-.5 1.351 0 .506-.754 2.344-1.626 3.962-.206.382-.374.939-.374 1.238 0 .506-.754 2.344-1.626 3.962-.206.382-.38 1.012-.387 1.4-.007.388-.277 1.054-.6 1.481-.323.428-.587 1.289-.587 1.915v1.139l3.686-.115c3.478-.109 3.714-.171 4.188-1.115.562-1.119.934-2.036 3.333-8.2.753-1.936 1.662-4.054 2.012-4.695.21-.382.381-.952.381-1.267 0-.315.253-1.083.563-1.706.31-.622.738-1.582.952-2.132l1.085-2.8c1.188-3.075 1.48-3.766 2.049-4.862.303-.584.551-1.409.551-1.833 0-.424.135-.906.3-1.069.165-.164.758-1.499 1.318-2.967l1.018-2.669 5.881-.111 5.88-.11-.647 1.51a52.056 52.056 0 0 1-.999 2.206c-.193.382-.353.922-.355 1.2-.002.278-.446 1.405-.987 2.505-.541 1.1-.991 2.27-1 2.6-.009.33-.459 1.5-1 2.6-.541 1.1-.99 2.405-.996 2.9-.007.495-.185.9-.395.9-.21 0-.5.63-.644 1.4-.145.77-.423 1.4-.619 1.4-.195 0-.355.332-.355.739 0 .673-.665 2.372-1.626 4.156-.206.382-.374.939-.374 1.238 0 .506-.754 2.344-1.626 3.962-.206.382-.374.946-.374 1.254 0 .308-.269 1.075-.598 1.705-.328.63-.598 1.646-.6 2.257l-.002 1.11 20.5-.147c23.187-.167 22.073-.066 27.3-2.481 5.665-2.617 12.987-10.785 12.998-14.498.001-.278.167-.818.368-1.2.202-.382.664-1.415 1.027-2.295.364-.88.82-1.96 1.014-2.4 2.707-6.138 1.851-11.955-2.446-16.634-.791-.861-1.631-1.566-1.866-1.566-.236 0-.488-.135-.562-.3-.846-1.905-.69-1.898-41.933-1.927-21.23-.015-40.039.039-41.799.119m96.67.403c-1.446 1.227-3.001 6.407-2.073 6.904 1.349.722 67.714.532 69.464-.199.789-.33 1.853-.6 2.363-.6s1.039-.18 1.175-.4c.136-.22.655-.4 1.152-.4.498 0 1.703-.249 2.677-.553.974-.304 2.581-.769 3.571-1.033 2.319-.619 5.922-1.64 7.2-2.04.55-.172 1.675-.425 2.5-.562.855-.141 1.5-.477 1.5-.779 0-.953-2.479-1.009-45.849-1.026-40.368-.017-42.897.023-43.68.688m-120.071.411c0 .437-1.333 4.012-2.198 5.894-2.14 4.655-8.001 11.376-11.485 13.171a487.268 487.268 0 0 1-5.649 2.867c-.623.309-1.558.562-2.077.562-.519 0-1.039.155-1.156.344-.345.558-5.44.859-14.973.886-11.062.031-9.81-.473-11.856 4.77a275.005 275.005 0 0 1-1.838 4.6c-.179.44-.887 2.24-1.574 4-1.836 4.707-1.484 4.385-4.936 4.517-3.477.133-3.661-.097-2.403-3.003.361-.833.789-1.874.953-2.314.163-.44.609-1.61.992-2.6s.833-2.16 1-2.6c.364-.958 1.57-4.08 2.009-5.2.172-.44.765-1.97 1.318-3.4.552-1.43 1.757-4.49 2.677-6.8.92-2.31 1.813-4.56 1.984-5 .172-.44.515-1.303.762-1.919 1.191-2.961 5.781-2.681-43.907-2.681-37.386 0-44.391-.087-44.57-.553-.152-.396.375-.685 1.858-1.017 1.138-.256 2.699-.62 3.469-.811.77-.191 2.66-.646 4.2-1.012l4.2-1c.77-.184 2.633-.609 4.14-.944 1.507-.335 2.842-.712 2.967-.836.348-.348 116.093-.27 116.093.079m104.968.663c5.703 2.522 8.897 8.805 7.537 14.829-.298 1.319-.713 2.57-.923 2.78-.21.21-.382.708-.382 1.107s-.168 1.038-.374 1.42c-.709 1.316-1.626 3.419-1.626 3.729 0 4.16-7.991 12.91-14 15.329-.99.398-2.25.928-2.8 1.177-1.03.465-41.498.938-42.645.498-.572-.219-.339-1.123 1.244-4.838.281-.66 1.173-2.91 1.981-5 .809-2.09 1.617-4.16 1.797-4.6.18-.44.643-1.61 1.029-2.6.387-.99.922-2.34 1.19-3 .268-.66.86-2.19 1.316-3.4.456-1.21 1.59-4.114 2.52-6.453 2.284-5.746 2.445-5.548-4.519-5.541-6.589.007-6.337-.087-7.504 2.794-.916 2.259-1.02 2.524-2.209 5.6-.383.99-.837 2.16-1.009 2.6-.172.44-.797 2.06-1.388 3.6-.591 1.54-1.309 3.34-1.596 4-.287.66-.74 1.83-1.007 2.6-.267.77-.717 1.94-1.001 2.6-.622 1.451-1.67 4.105-2.999 7.6-.167.44-.623 1.565-1.013 2.5l-.708 1.7h-3.14c-3.415 0-3.562-.125-2.683-2.281 1.075-2.636 1.453-3.598 1.931-4.919.279-.77.729-1.94 1-2.6.271-.66.73-1.83 1.02-2.6.29-.77.652-1.58.805-1.8.153-.22.4-.912.55-1.538.549-2.293.77-2.262-16.165-2.262h-15.505l-.555.9c-.305.495-1.149 2.43-1.876 4.3-.727 1.87-1.466 3.76-1.643 4.2-.177.44-.635 1.61-1.018 2.6-2.445 6.327-1.933 5.781-5.562 5.918l-3.134.117.284-1.517c.156-.835.416-1.698.579-1.918.162-.22.61-1.3.995-2.4.385-1.1.859-2.36 1.054-2.8.194-.44 1.735-4.31 3.423-8.6 3.249-8.253 5.287-11.901 8.618-15.422 1.895-2.004 8.171-6.578 9.026-6.578.217 0 .917-.26 1.556-.578 4.365-2.174 3.466-2.132 47.05-2.179l40.288-.043 2.191.969m102.459-.613c-.121.195-.806.444-1.523.551-.717.107-2.294.497-3.504.865s-2.83.823-3.6 1.01c-.77.188-2.39.638-3.6 1-1.21.363-2.83.816-3.6 1.009-.77.192-2.48.624-3.8.96-3.678.937-68.903.967-69.262.032-.132-.344.253-1.786.856-3.204l1.096-2.579h43.579c25.341 0 43.486.149 43.358.356M119.536 213.5a75.538 75.538 0 0 0-1.237 2.9 69.442 69.442 0 0 1-1.896 4.473c-1.134 2.389-.911 2.445 8.903 2.206 12.882-.314 16.956-1.661 22.794-7.535 4.105-4.131 4.707-3.944-12.705-3.944H120.39l-.854 1.9m64.264-1.632c-1.764.217-5.364 1.35-5.623 1.769-.123.2-.48.363-.793.363-1.62 0-8.62 5.823-9.377 7.8-.512 1.337.054 1.388 15.519 1.394 14.695.006 16.476-.135 16.473-1.308-.001-.267.471-1.656 1.047-3.086 3.25-8.056 4.075-7.213-6.989-7.14-4.981.033-9.597.126-10.257.208m46.697.195c-.274.274-.497.748-.497 1.055 0 .307-.251 1.036-.558 1.62-.307.584-1.044 2.322-1.639 3.862-.594 1.54-1.222 3.16-1.394 3.6a894.185 894.185 0 0 0-2.009 5.2c-1.134 2.982-1.843 4.787-3.565 9.072-2.066 5.14-3.203 4.73 13.098 4.721 17.59-.009 20.36-.638 25.467-5.778 2.223-2.237 2.852-3.201 4.186-6.415.274-.66.734-1.74 1.023-2.4.288-.66.839-2.1 1.224-3.2.384-1.1.849-2.171 1.033-2.38 1.135-1.292.347-5.328-1.421-7.281l-1.755-1.939-16.348-.117c-12.614-.089-16.462-.003-16.845.38m-80.9.637c-.006.444-2.552 3.051-4.497 4.602-1.533 1.224-4.15 2.619-7.212 3.846-1.821.73-7.683 1.245-14.201 1.249-6.947.003-7.08-.062-5.89-2.919.384-.923.879-2.128 1.1-2.678.22-.55.649-1.478.952-2.062.303-.584.551-1.349.551-1.7 0-.572 1.5-.638 14.6-.638 8.03 0 14.598.135 14.597.3m53.203.105c0 .223-.171.718-.381 1.1-.209.382-.68 1.415-1.047 2.295-.367.88-.916 2.167-1.219 2.86-.304.694-.553 1.4-.553 1.569 0 1.697-.661 1.771-15.838 1.771-8.629 0-14.609-.152-14.747-.376-.884-1.43 9.219-8.805 12.096-8.83.379-.003.959-.181 1.289-.394.829-.535 20.4-.53 20.4.005m61.055.268c2.302 1.508 3.637 5.275 2.564 7.232-.393.718-1.006 2.189-2.206 5.295-.382.99-.857 2.113-1.054 2.495-.197.382-.359.885-.359 1.119 0 1.407-3.779 6.082-6.4 7.917-3.89 2.723-5.036 2.9-20.283 3.136-16.291.251-16.581.21-15.361-2.172.651-1.272 1.533-3.387 3.044-7.295l1.007-2.6c.171-.44.6-1.457.952-2.26.353-.804.641-1.661.641-1.906 0-.245.165-.757.366-1.139.333-.63 1.176-2.606 2.006-4.695a103 103 0 0 1 .973-2.314c.36-.832.655-1.741.655-2.02 0-1.403.715-1.466 16.694-1.466 14.069 0 15.843.071 16.761.673" fill="#6d6c6e"/></g></svg>