<?xml version="1.0" standalone="no"?>
<!DOCTYPE svg PUBLIC "-//W3C//DTD SVG 20010904//EN"
 "http://www.w3.org/TR/2001/REC-SVG-20010904/DTD/svg10.dtd">
<svg version="1.0" xmlns="http://www.w3.org/2000/svg"
 width="116.000000pt" height="129.000000pt" viewBox="0 0 116.000000 129.000000"
 preserveAspectRatio="xMidYMid meet">

<g transform="translate(0.000000,129.000000) scale(0.100000,-0.100000)"
fill="#000000" stroke="none">
<path d="M325 1094 c-132 -80 -244 -149 -248 -153 -5 -5 49 -40 120 -78 70
-39 181 -100 246 -137 65 -36 124 -66 130 -66 7 0 62 31 123 69 61 37 130 79
152 91 23 13 42 27 42 30 0 4 -28 22 -62 40 -35 18 -90 48 -123 66 l-61 33
-63 -38 -62 -39 61 -37 61 -37 -30 -19 -31 -19 -112 62 c-62 34 -121 67 -131
74 -16 10 -4 20 107 87 l126 76 192 -108 192 -108 64 40 c43 27 59 43 50 47
-7 4 -119 66 -249 139 -130 72 -241 131 -245 131 -5 -1 -117 -66 -249 -146z"/>
<path d="M856 747 l-249 -151 8 -291 c4 -159 8 -291 10 -293 3 -4 485 284 498
297 4 4 7 40 5 79 l-3 71 -187 -114 -188 -114 0 39 0 39 190 113 190 113 0 68
c0 37 -3 67 -6 67 -8 0 -80 -41 -242 -137 -67 -40 -127 -73 -133 -73 -6 0 -9
16 -7 37 3 37 5 39 191 151 l187 114 0 69 c0 38 -3 69 -7 68 -5 0 -120 -69
-257 -152z"/>
<path d="M30 591 l0 -301 60 -30 c33 -16 61 -30 62 -30 2 0 2 95 1 212 -1 116
0 215 3 220 3 4 18 -2 35 -14 l29 -22 0 -220 0 -221 53 -30 c28 -16 55 -31 60
-33 4 -2 7 88 7 200 0 112 4 209 9 217 7 11 14 10 40 -5 l31 -18 0 -226 0
-225 60 -32 60 -33 -2 303 -3 302 -200 113 c-110 62 -224 127 -252 143 l-53
30 0 -300z"/>
</g>
</svg>
