<svg xmlns="http://www.w3.org/2000/svg" width="32" height="32" viewBox="0 0 400 400"><g fill-rule="evenodd"><path d="M254.4 62.717c-1.368.161-10.229 1.692-12.2 2.108-.88.187-2.86.597-4.4.912a72.37 72.37 0 0 0-5.6 1.437c-3.268 1.008-4.813 1.419-7.721 2.053-1.818.397-2.304.715-3.4 2.227-2.58 3.559-6.051 7.993-7.644 9.767-1.766 1.967-5.102 5.899-5.448 6.422-.117.177-.749.555-1.405.84-.656.284-3.89 2.373-7.187 4.641-3.297 2.267-7.435 5.11-9.195 6.317-1.76 1.206-3.517 2.456-3.905 2.776-.387.321-.8.583-.917.583-.117 0-1.236.765-2.487 1.7-2.495 1.865-3.223 2.384-5.537 3.954-3.307 2.242-10.81 10.406-10.659 11.597.053.412-.093.749-.323.749-.231 0-.294-.203-.14-.452.154-.248.105-.383-.109-.3-.517.202-5.323 5.377-5.323 5.731 0 .153.623-.382 1.384-1.189 2.046-2.17 2.441-1.517.549.907-.9 1.153-2.082 3.313-2.626 4.8-2.76 7.538-3.79 10.41-4.126 11.503a21.26 21.26 0 0 1-.73 2c-1.011 2.239-3.235 8.308-3.885 10.6-.405 1.43-.967 3.05-1.249 3.6-1.991 3.887 2.513 1.277 6.001-3.477 3.283-4.475 4.179-5.5 5.578-6.384 1.061-.669 1.84-1.602 2.394-2.866.832-1.896 3.134-4.98 5.187-6.95.618-.593 1.123-1.324 1.123-1.626 0-.787 2.02-2.595 3.233-2.895.569-.14 1.034-.472 1.034-.736 0-2.242 4.124-5.066 7.397-5.066.337 0 .929-.35 1.315-.777.387-.428 1.27-.893 1.962-1.033.693-.141 2.699-.937 4.459-1.77 1.76-.832 4.19-1.834 5.4-2.226 1.21-.391 2.56-.901 3-1.132 1.58-.83 6.029-2.336 7.503-2.539.826-.114 1.602-.368 1.723-.565.122-.197.549-.358.949-.358.4 0 .974-.299 1.276-.665.302-.365 1.531-1.099 2.731-1.631s2.668-1.313 3.262-1.735c1.222-.871 2.757-1.02 2.755-.269-.002.813-2.788 5.2-4.145 6.526a29.615 29.615 0 0 0-2.38 2.708 41.898 41.898 0 0 1-2.1 2.532c-.536.578-.974 1.284-.974 1.57 0 .285-.319.754-.708 1.041-.389.288-1.334 1.332-2.1 2.322-.766.989-1.752 2.234-2.192 2.766-4.634 5.603-4.946 5.966-8.873 10.318-1.5 1.662-2.889 3.313-3.088 3.67-.198.356-1.098 1.468-2 2.471a293.482 293.482 0 0 0-3.639 4.159 123.328 123.328 0 0 1-4.239 4.644c-3.702 3.817-4.177 5.538-2.766 10.037.817 2.606 1.065 5.536.469 5.536-.589 0-1.334-2.129-1.539-4.4-.11-1.21-.453-2.767-.762-3.46-.31-.694-.563-1.425-.563-1.625 0-1.288-1.752-2.207-3.76-1.973-2.068.242-11.978 1.047-15.64 1.27-9.964.61-9.2.259-10.794 4.956a639.535 639.535 0 0 1-2.095 6.032c-1.599 4.527-3.311 9.881-3.311 10.352 0 .677 3.703 2.472 6.79 3.291 1.656.439 5.382 1.689 8.281 2.778 2.9 1.088 5.383 1.979 5.519 1.979.135 0 2.173.697 4.528 1.55 2.355.852 5.902 2.042 7.882 2.643 1.98.601 4.613 1.524 5.85 2.05 1.238.526 2.534.957 2.881.957s1.055.193 1.573.429c1.253.571 3.255-.467 12.091-6.269 1.977-1.298 3.842-2.592 4.144-2.876.302-.283 1.385-.946 2.405-1.472 1.021-.526 2.751-1.706 3.844-2.621 1.094-.916 2.695-2.025 3.558-2.466.863-.44 2.759-1.657 4.212-2.704 1.453-1.046 3.452-2.393 4.442-2.991 1.943-1.176 4.303-2.766 5.089-3.429.27-.227.945-.586 1.5-.797 1.575-.598 1.293.557-.389 1.596-.77.476-1.4 1.009-1.4 1.184 0 .175-.522.535-1.16.8-.639.264-1.584.936-2.1 1.492-.946 1.018-4.072 3.172-6.823 4.7-1.904 1.057-7.59 4.635-9.917 6.239-.99.682-2.7 1.808-3.8 2.502-1.1.694-2.18 1.494-2.4 1.778-.22.283-1.558 1.278-2.973 2.21-1.415.932-2.642 1.91-2.726 2.172-.376 1.174 5.144 1.137 6.042-.041.599-.787 2.39-1.435 3.983-1.441.701-.003 2.415-.363 3.81-.8 1.394-.437 3.228-.795 4.075-.795 2.354 0 10.157-1.989 14.189-3.617.44-.178 1.79-.431 3-.563 1.21-.132 3.28-.583 4.6-1.001 2.993-.949 7.975-2.009 11.439-2.434 1.451-.178 3.341-.619 4.2-.98.859-.362 3.271-1.087 5.361-1.612 2.09-.525 4.547-1.226 5.46-1.558 3.004-1.092 5.834-1.017 6.173.165.158.55.305.775.327.5.022-.275.31-.5.64-.5s.6-.266.6-.592c0-.325.765-.976 1.7-1.446.935-.469 2.06-1.259 2.5-1.755.44-.496 1.97-1.316 3.4-1.823 1.43-.507 3.57-1.431 4.756-2.053 1.186-.622 2.367-1.131 2.625-1.131s1.178-.338 2.044-.751c2.902-1.384 7.305-3.249 7.671-3.249.199 0 1.462-.533 2.807-1.184 1.344-.651 4.571-2.007 7.17-3.012 2.6-1.006 5.627-2.255 6.727-2.776 1.1-.521 3.17-1.347 4.6-1.836 3.674-1.254 5.105-1.924 5.336-2.496.111-.273.215-.012.232.58.018.592-.148 1.188-.368 1.324-.22.136-.393.642-.385 1.124.01.635.256.381.893-.924.859-1.759.883-2.215 1.02-19.888l.141-18.088-1.046-2.212c-1.173-2.48-1.545-2.833-1.007-.955.403 1.405.17 2.113-.544 1.65-.259-.169-1.822-.779-3.472-1.356-5.838-2.043-6.088-2.14-12.8-4.968-1.21-.51-4.81-1.94-8-3.179-10.575-4.107-9.303-3.073-13.31-10.804-.456-.88-1.396-2.595-2.089-3.811-.693-1.216-1.463-2.79-1.71-3.499-.247-.708-.886-1.873-1.42-2.589-.534-.716-2.645-4.541-4.69-8.501-4.189-8.11-4.597-8.878-6.044-11.4-2.693-4.693-4.676-8.791-4.35-8.992.197-.122 1.384.231 2.636.785 1.252.554 2.469 1.007 2.703 1.007.664 0-1.049-1.173-1.733-1.187-.334-.007-1.285-.473-2.112-1.036-1.43-.971-3.243-1.322-5.481-1.06m12.546 4.685c1.459.761 1.829.766.83.011-.427-.323-1.046-.592-1.376-.598-.33-.005-.084.259.546.587m14.8 6c.63.329 1.35.592 1.6.584.654-.021-1.429-1.155-2.146-1.169-.33-.007-.084.257.546.585M284.8 74.6c.55.314 1.27.572 1.6.572.347 0 .178-.242-.4-.572-.55-.314-1.27-.572-1.6-.572-.347 0-.178.242.4.572m13.2 6.725c0 .283 1.96 4.054 1.979 3.808.035-.439-1.533-3.933-1.765-3.933-.118 0-.214.056-.214.125m2 4.4c0 .283 1.96 4.054 1.979 3.808.035-.439-1.533-3.933-1.765-3.933-.118 0-.214.056-.214.125m2 4.4c0 .399 1.685 3.523 1.825 3.383.196-.195-1.348-3.508-1.634-3.508-.105 0-.191.056-.191.125m2.828 6.075c0 .22.258.85.572 1.4.314.55.572.82.572.6 0-.22-.258-.85-.572-1.4-.314-.55-.572-.82-.572-.6m1.972 4.349c0 .432 1.589 3.451 1.816 3.451.11 0-.186-.765-.657-1.7-.927-1.839-1.159-2.189-1.159-1.751m2.015 4.251c.006.33.275.949.598 1.376.755.999.75.629-.011-.83-.328-.63-.592-.876-.587-.546m1.206 2.504c-.031.455 1.658 3.95 1.828 3.781.08-.081-.294-1.033-.831-2.116-.537-1.083-.985-1.832-.997-1.665m-30.921 4.213c.275.35.5.874.5 1.164 0 .717-4.83 10.685-5.259 10.852-.188.074-.341.348-.341.611 0 .262-.534 1.552-1.187 2.866-.654 1.315-1.194 2.542-1.2 2.728-.007.186-.338.816-.735 1.4-.397.584-1.067 1.872-1.489 2.862-.422.99-.862 1.89-.978 2-.427.405-3.611 7.018-3.611 7.501 0 .274-.18.499-.4.499-.22 0-.4.204-.4.453 0 .768-5.339 10.105-6.194 10.833-.443.377-1.383.967-2.089 1.311-.706.343-1.398.811-1.539 1.039-.141.228-1.634 1.289-3.317 2.358-4.34 2.757-5.982 3.836-8.261 5.43-1.1.77-2.27 1.572-2.6 1.783-.33.211-1.621 1.106-2.869 1.989-1.248.882-2.407 1.604-2.575 1.604-.167 0-1.161.723-2.209 1.606-3.106 2.619-5.656 2.474-3.804-.217 1.086-1.578 1.546-3.676 1.02-4.658-.267-.499-.531-2.533-.587-4.519-.165-5.918-.814-14.426-1.139-14.952-.167-.271-.46-2.33-.651-4.576A745.89 745.89 0 0 0 226.177 133c-2.068-20.045-2.135-21.626-.931-21.915.525-.126 12.284-.247 26.132-.269 13.848-.021 25.265-.126 25.371-.232.329-.329 1.825.264 2.351.933m32.9.212c0 .373 2.428 5.071 2.621 5.071.124 0 .147-.135.051-.3-.096-.165-.644-1.335-1.218-2.6-.869-1.915-1.454-2.789-1.454-2.171m3.265 56.088c-.67 1.471-.542 1.785.182.448.339-.625.541-1.211.449-1.302-.091-.092-.375.293-.631.854m-134.582 9.478c-.096.498-.178.185-.182-.695-.005-.88.074-1.287.174-.905.1.383.104 1.103.008 1.6m130.582 1.322c-.256.561-.458 1.237-.449 1.502.008.264.281-.131.606-.88.683-1.574.539-2.149-.157-.622M270.9 184.5c-.219.275-.787 1.31-1.262 2.3-1.147 2.39-2 4.067-2.441 4.8-.198.33-1.991 3.93-3.983 8-1.993 4.07-3.794 7.67-4.003 8-.582.916-3.406 6.82-4.019 8.4-.299.77-.821 1.779-1.161 2.243l-.617.844-1.207-.844c-.664-.464-1.297-.947-1.407-1.074-.275-.317-5.599-1.571-6.667-1.57-.477.001-1.647-.331-2.6-.736-.953-.405-2.584-.851-3.624-.991-1.816-.244-3.021-.732-4.309-1.743-.33-.259-2.22-.68-4.2-.936-1.98-.255-3.96-.615-4.4-.8-.44-.184-1.52-.446-2.4-.58-1.536-.236-3.095-.703-4.8-1.439-1.184-.512-9.065-2.373-10.048-2.374-.899 0-4.616-1.134-6.952-2.12-.77-.326-2.517-.718-3.882-.873-1.365-.155-2.692-.535-2.949-.844-.257-.31-1.075-.563-1.818-.563-.743 0-1.351-.182-1.351-.403 0-.253-.336-.23-.9.062-.495.256-1.168.591-1.495.744-.762.356-.602 2.477.431 5.709.42 1.316.766 2.864.769 3.44.002.576.375 2.488.828 4.248 2.694 10.475 2.788 9.976-2.661 14.096-6.588 4.982-11.255 8.571-12.358 9.503-.652.55-1.344 1.001-1.536 1.001-.193 0-1.279.781-2.414 1.736-1.135.954-4.134 3.246-6.664 5.092-2.53 1.847-4.66 3.496-4.733 3.665-.074.169-.344.309-.6.311-.257.002-1.257.632-2.223 1.4-2.411 1.916-2.565 1.864-7.951-2.711-1.701-1.446-3.507-2.958-4.013-3.361-1.045-.832-1.299-1.74-2.665-9.532-.54-3.08-1.245-6.59-1.567-7.8-.322-1.21-.705-3.37-.851-4.8-.146-1.43-.545-3.95-.886-5.6-.341-1.65-.745-3.81-.898-4.8-.36-2.335-2.388-9.706-2.784-10.119-.441-.459-1.553 2.744-1.847 5.319-.138 1.21-.43 2.784-.647 3.499-.648 2.125-2.768 12.103-3.157 14.858-.198 1.406-.704 3.836-1.124 5.4-.42 1.564-.887 3.743-1.036 4.843-.15 1.1-.465 2.663-.7 3.472-.628 2.161.298 4.806 4.106 11.728 3.623 6.586 3.641 6.713 1.304 9.2-.621.66-1.784 2.19-2.587 3.4-.802 1.21-2.242 3.037-3.2 4.059-.957 1.022-2.191 2.451-2.741 3.174-1.987 2.614-2.336 2.962-2.654 2.645-.178-.177-.148-.447.066-.6.213-.153 1.011-1.178 1.772-2.278.761-1.1 1.526-2.06 1.7-2.133.174-.074.316-.311.316-.527 0-.216.471-1.011 1.047-1.767.577-.755.95-1.373.83-1.373-.248 0-5.85 7.774-9.08 12.6-1.812 2.707-12.424 16.389-13.185 17-.137.11-1.106 1.325-2.154 2.7-2.135 2.802-1.975 2.74-4.702 1.848-9.712-3.177-19.914 6.612-16.795 16.114 1.799 5.478 6.96 9.541 11.79 9.282l2.049-.11.221 2.783c.932 11.753 14.557 16.21 22.54 7.373 3.378-3.738 4.27-9.864 2.102-14.429-1.425-3.001-1.361-3.437.847-5.761 1.045-1.1 2.924-3.26 4.175-4.8a199.66 199.66 0 0 1 3.668-4.393c.766-.877 1.301-1.687 1.188-1.8-.114-.113-.437.109-.718.494-.281.384-.626.699-.767.699-.548 0-.202-.694 1.044-2.096.715-.805 2.2-2.671 3.3-4.147 1.1-1.476 2.315-3.015 2.7-3.42.385-.406.7-.886.7-1.069 0-.466 4.458-5.343 4.681-5.12.28.279-1.093 2.298-2.564 3.771-.724.726-1.317 1.413-1.317 1.527 0 .215-1.895 2.826-2.6 3.584-.22.236-.85 1.019-1.4 1.74a32.77 32.77 0 0 1-1.942 2.295c-.519.541-.856 1.071-.749 1.177.186.187 3.962-4.251 8.085-9.502 1.097-1.397 2.088-2.63 2.202-2.74.835-.801 2.367-3.2 2.044-3.2-.22 0-.564.293-.765.651-.2.359-.463.492-.584.296-.358-.579.815-1.869 1.47-1.617.421.161 1.438-.931 3.399-3.65 1.54-2.134 2.951-4.06 3.136-4.28.185-.22 1.116-1.435 2.069-2.7 2.034-2.702 2.157-2.724 5.008-.9 1.204.77 2.296 1.4 2.427 1.4.131 0 1.223.63 2.427 1.4 1.204.77 2.32 1.396 2.481 1.391.602-.018-1.796-1.642-4.21-2.85-1.376-.689-2.94-1.659-3.476-2.155-.536-.497-1.189-.975-1.452-1.063-.328-.109-.26-.376.219-.854.382-.383.991-.603 1.353-.489.612.192 2.458-1.88 2.458-2.76 0-.748 5.293-6.173 6.652-6.818 1.227-.582 2.098-.652 5.308-.425 2.112.149 5.37.345 7.24.435 1.87.089 5.587.494 8.26.899s5.193.617 5.6.471c.407-.147 2.408-.389 4.447-.539 3.655-.269 5.08-.753 8.116-2.758.562-.372 2.62-1.229 4.573-1.906 1.953-.677 4.872-1.849 6.486-2.605 1.615-.756 3.163-1.374 3.441-1.374.742 0 4.634-1.433 6.462-2.38.871-.451 1.818-.82 2.104-.82.286 0 1.283-.332 2.215-.737.933-.406 3.226-1.32 5.096-2.032 1.87-.711 4.12-1.64 5-2.063.88-.423 2.583-1.058 3.785-1.41 1.202-.352 3.362-1.181 4.8-1.843 2.476-1.14 5.088-2.31 6.415-2.873.33-.14 1.337-.747 2.237-1.348.901-.602 2.251-1.486 3-1.965.75-.48 1.723-1.23 2.163-1.668.44-.439 2.42-1.896 4.4-3.24l5.698-3.869c3.642-2.477 4.373-3.357 4.687-5.646.264-1.917-.406-10.678-.875-11.448-.115-.187-.368-2.887-.563-6-.195-3.112-.624-7.818-.954-10.458-.329-2.64-.659-5.79-.732-7-.212-3.509-1.552-5.968-2.561-4.7M240 220.4c.422.273-.15.39-1.934.394-1.394.003-3.644.271-5 .596-2.725.651-14.801 1.636-16.066 1.309-.44-.113.427-.227 1.926-.253 1.5-.025 3.12-.256 3.6-.514.481-.257 2.854-.629 5.274-.826 6.034-.492 11.16-.955 11.4-1.031.11-.034.47.112.8.325m13.6.957c0 .307-.27.661-.6.788-.408.156-.6-.022-.6-.558 0-.433.27-.787.6-.787.33 0 .6.251.6.557m-128.171 13.672c-.148.586-.191 1.143-.097 1.237.095.094.292-.308.439-.895.148-.586.191-1.143.097-1.237-.095-.094-.292.308-.439.895m134.771 6.806-1.2 1.031 1.3-.86c.715-.473 1.3-.938 1.3-1.033 0-.3-.169-.195-1.4.862m-56.4 22.779c-.66.303-.93.552-.6.554.33.002 1.05-.254 1.6-.568 1.265-.723.589-.713-1 .014m-7.719 4.358c-1.756 1.242-2.184 1.773-.681.846 2.078-1.283 2.791-1.819 2.389-1.798-.214.01-.982.439-1.708.952m-31.729 12.371c.3.361.713.657.916.657.204 0 1.355.63 2.559 1.4 2.688 1.719 3.457 1.86.973.177-2.725-1.845-5.126-3.052-4.448-2.234M145.6 284.4c0 .22-.18.4-.4.4-.22 0-.4.27-.4.6 0 .33-.27.6-.6.6-.729 0-.744-.18-.104-1.205.518-.829 1.504-1.088 1.504-.395m-50.228 21.955c.272.44-1.609 1.868-4.772 3.622-1.32.732-2.49 1.457-2.6 1.612-.582.816-2.8 1.166-2.8.442 0-2.781 8.895-7.743 10.172-5.676m30.671 2.491c-1.025.954-1.095.642-.143-.634.385-.516.764-.761.843-.545.079.216-.236.746-.7 1.179" fill="#f9dd4d"/><path d="M0 200v200h400v-91c0-79.224-.075-91-.58-91-1.529 0-7.511-5.189-9.684-8.4-.521-.77-1.601-1.85-2.4-2.4-.799-.55-1.952-1.467-2.564-2.039-.611-.571-2.025-1.625-3.141-2.341-1.117-.717-2.031-1.426-2.031-1.576 0-.351-3.865-3.244-4.332-3.244-.195 0-1.234-.872-2.311-1.937-1.076-1.066-3.322-2.861-4.99-3.989-1.668-1.129-3.712-2.694-4.543-3.477-.831-.784-2.256-1.803-3.167-2.265-.911-.462-2.042-1.22-2.512-1.686-.47-.465-1.697-1.094-2.726-1.398-1.18-.348-2.185-.975-2.717-1.695a3.48 3.48 0 0 0-2.274-1.38c-.785-.129-1.698-.344-2.028-.476-1.246-.5-2.206-.369-3.338.454l-1.169.849.285 8.4c.38 11.223.274 10.379 1.314 10.527.49.069 1.268.654 1.727 1.3.46.645 1.062 1.173 1.339 1.173.276 0 .925.45 1.442 1 .517.55 1.163 1 1.436 1 .831 0 .634 7.191-.198 7.228-.475.021-.434.116.162.372.684.294.699.348.1.372-.385.015-.7.278-.7.585 0 1.778-5.159 1.702-8.029-.118-1.414-.897-2.774-1.633-3.022-1.635-.248-.002-.675-.274-.949-.604-.274-.33-.832-.6-1.241-.6-.46 0-.84-.382-.995-1-.138-.55-.497-1-.797-1-.301 0-.846-.585-1.212-1.3-.366-.715-1.178-1.888-1.805-2.607-.626-.719-1.228-1.709-1.337-2.2l-.821-3.684c-.624-2.798-2.282-6.209-3.019-6.209-.216 0-.572-.495-.791-1.1-.564-1.556-1.271-3-1.811-3.7-.255-.33-.583-1.101-.728-1.714-.154-.645-.694-1.309-1.286-1.578-.658-.3-1.381-1.273-2.034-2.737-1.214-2.721-2.819-3.074-2.339-.515.218 1.16.118 1.406-.722 1.788-2.432 1.109-2.927 6.392-.99 10.578.209.452.339.992.288 1.2-.147.609.498 2.578.844 2.578.175 0 .505.537.733 1.192.229.656 1.642 2.469 3.14 4.029 2.924 3.046 3.253 3.491 3.429 4.636.062.409.622 1.643 1.245 2.743 1.919 3.393 2.685 16.2.968 16.2-1.259 0-1.867 1.758-.819 2.368.667.388.667.408 0 .42-.549.009-.7.36-.7 1.622 0 1.349-.162 1.671-1 1.99-.55.209-1 .642-1 .961 0 .414-.873.722-3.034 1.07-1.668.269-3.686.823-4.484 1.229-1.464.746-3.317.972-3.823.466-.643-.643-3.421-1.314-5.462-1.32-1.211-.003-2.82-.183-3.575-.4-1.536-.44-4.392.18-4.942 1.074-.176.286-.66.52-1.076.52-.416 0-.868.18-1.004.4-.136.22-1.047.4-2.024.4-1.603 0-1.776.092-1.776.951 0 1.314.996 2.116 1.8 1.449.551-.457.774-.28.644.511-.028.171.219.415.55.542.331.127.51.38.397.561-.112.182-.021.444.202.582.788.487.418 1.404-.565 1.404-.704 0-1.008.249-1.1.9-.212 1.492-5.525 1.6-6.313.128-.599-1.12-2.68-1.213-6.269-.283-.85.221-2.581.524-3.846.674-1.265.15-2.3.427-2.3.615s-.585.328-1.3.311c-1.665-.039-4.263 1.078-4.578 1.968a5.233 5.233 0 0 1-.731 1.287c-.268.33-.612 1.586-.765 2.79-.153 1.205-.472 2.424-.709 2.71-.237.285-.322.629-.188.762.491.491-.556 1.68-1.701 1.932-.802.176-1.219.537-1.304 1.128-.071.497-.467.932-.924 1.014-.44.079-1.16.456-1.6.838-.786.682-2.506 1.554-4.745 2.405-.623.237-1.218.758-1.323 1.158-.124.477-.867.9-2.161 1.232-1.189.304-1.971.728-1.971 1.068 0 .31-.27.563-.6.563-.33 0-.6.18-.6.4 0 .22-.428.4-.951.4-.523 0-1.175.27-1.449.6-.274.33-.718.6-.988.6-.786 0-2.821 1.126-3.609 1.997-.4.442-.969.803-1.265.803-.296 0-.538.27-.538.6 0 .432-.442.6-1.576.6-.867 0-1.688.18-1.824.4-.136.22-.597.4-1.024.4-.427 0-.776.226-.776.502 0 .501-1.028 1.066-3.5 1.925-.714.248-1.19.627-1.058.842.133.214-.092.782-.5 1.261-.408.478-.93 1.23-1.16 1.67-.797 1.525-.097 10.359.91 11.491.45.505.65 1.825.746 4.912.072 2.322.266 4.441.431 4.709.166.268.251.971.189 1.563-.062.591.078 1.432.311 1.868.314.586.295.845-.072.993-.312.126-.253.213.156.232.632.031 1.13 1.122 1.142 2.497.008 1.084-3.022 1.421-4.126.459-1.127-.982-3.825-2.198-4.269-1.924-.19.117-.452.04-.583-.172-.349-.566-3.784-2.828-4.293-2.828-.24 0-1.176-.344-2.08-.764-.904-.42-2.224-.98-2.934-1.244-.709-.264-1.682-.821-2.161-1.236-.479-.416-1.193-.756-1.587-.756-.393 0-.826-.18-.962-.4-.136-.22-.538-.4-.894-.4s-1.561-.628-2.677-1.397c-1.116-.768-3.084-1.671-4.375-2.006-1.29-.336-2.799-.967-3.353-1.404-.555-.436-1.32-.793-1.701-.793s-1.121-.335-1.646-.745c-.525-.41-1.404-.874-1.954-1.032-2.184-.626-3.621-1.486-3.512-2.1.078-.438-.597-.895-2.235-1.511-1.525-.574-2.574-1.257-2.993-1.948-.736-1.214-1.185-1.308-2.284-.477-.822.622-2.18.818-2.17.313.015-.752.779-1.383 1.741-1.439 1.337-.077 1.345-.545.021-1.148-.777-.354-.988-.697-.855-1.392.105-.55-.018-.921-.307-.921-.635 0-2.928 1.15-3.213 1.612-.194.313-2.185 1.423-5.29 2.948-.493.242-.898.665-.9.94-.004.587-3.427.709-3.782.135-.124-.201-1.034-.757-2.023-1.236-.989-.479-1.798-1.034-1.798-1.235 0-.2-.292-.364-.649-.364-.474 0-.537.135-.233.501 1.036 1.248-1.76 3.211-4.15 2.912-1.993-.249-2.168-.206-2.168.531 0 .49-.35.901-.9 1.056-2.075.585-3.1 1.13-3.1 1.649 0 .399-.585.551-2.122.551-1.911 0-2.258.142-3.5 1.434-.758.789-1.873 1.694-2.478 2.01-.748.392-1.1.893-1.1 1.566 0 .545-.315 1.333-.7 1.752a20.622 20.622 0 0 0-1.425 1.808c-.884 1.276-1.613.95-1.383-.617.194-1.32.187-1.324-.95-.653-.685.405-.883.399-1.037-.027-.161-.447-3.36 2.554-5.117 4.801-.939 1.201-4.7 5.695-5.127 6.127-.253.257-1.058 1.203-1.787 2.102-.73.899-1.765 2.143-2.3 2.766-1.115 1.297-1.234 2.056-.374 2.386.68.261.809 1.568.193 1.949-.223.138-.286.446-.138.684.174.283.441.196.768-.251.648-.886 2.577 1.435 2.577 3.101 0 .584.176 1.062.392 1.062.215 0 .776.765 1.246 1.7.469.935 1.284 2.274 1.809 2.975.57.76.793 1.376.554 1.525-.233.143-.296.914-.151 1.824.207 1.292.135 1.576-.399 1.576-.358 0-.654.225-.657.5-.005.385-.082.381-.335-.019-.263-.414-.433-.394-.843.1-.815.981-1.944.769-2.089-.393-.07-.557-.307-.962-.527-.9-.439.123-.436.883.01 3.312.243 1.323.202 1.513-.238 1.1-.742-.697-1.046-.627-1.288.3-.115.44-.406.8-.647.8-.547 0-.578-1.466-.037-1.8.22-.136.378-1.542.351-3.124l-.049-2.876-.348 2.4c-.454 3.13-.576 3.4-1.541 3.4-.641 0-.813.26-.813 1.233 0 .81-.172 1.176-.5 1.065-.275-.093-.5-.541-.5-.997 0-.456-.135-.965-.3-1.132-.165-.166-.3-.042-.3.276 0 .899-4.305 5.09-6.147 5.984-3.506 1.701-11.11 1.897-12.089.312-.117-.189-.652-.234-1.189-.099-.735.184-.975.084-.975-.407 0-.359-.435-.85-.966-1.092-.531-.242-1.055-.779-1.163-1.192-.206-.79-1.071-1.055-1.071-.327 0 .233-.199.3-.443.15-.316-.196-.304-.359.042-.574.365-.225.308-.571-.231-1.392-.634-.968-.77-1.02-1.186-.451-.765 1.046-.982.756-.982-1.307 0-2.703-.419-4.663-.85-3.982-.186.292-.341 1.027-.344 1.632-.003.605-.2 1.1-.438 1.1-.258 0-.342-.442-.21-1.1.284-1.409-.233-3.792-.868-4.003-.316-.106-.49.275-.49 1.07 0 1.397-.568 1.614-1.189.454-.323-.604-.27-.86.239-1.145.534-.299.296-.545-1.279-1.322-11.723-5.782-12.003-20.816-.51-27.344 1.354-.769 1.566-1.025 1.024-1.233-.377-.144-.685-.513-.685-.82 0-.696 2.863-.766 4.106-.1.72.385.943.322 1.423-.4.742-1.118 2.001-1.095 2.459.043.262.652.368.714.387.224.032-.853.672-1.267 1.325-.858.275.173.826.26 1.225.195.399-.066 1.158.163 1.686.51 1.193.781 1.637.809 1.019.065-.632-.761.194-1.28.988-.621.463.384.582.367.582-.084 0-.311.72-1.339 1.6-2.282.88-.944 1.6-1.804 1.6-1.911 0-.107.225-.446.5-.753 1.086-1.211 1.5-1.762 1.5-1.997 0-.135.225-.471.5-.746.275-.276.95-1.088 1.5-1.806s1.242-1.564 1.539-1.881c.296-.316.44-.832.32-1.145-.128-.334-.02-.499.261-.399.264.094.93-.473 1.48-1.26.55-.788 1.315-1.774 1.7-2.191.385-.418.7-.964.7-1.214s.45-.871 1-1.381 1-1.14 1-1.4.45-.89 1-1.4c.55-.51 1-1.115 1-1.346 0-.23.18-.419.4-.419.22 0 .4-.354.4-.786 0-.433.54-1.339 1.2-2.014 1.386-1.418 1.55-2.4.4-2.4-.44 0-.8.18-.8.4 0 .22-.284.4-.63.4-.46 0-.597.321-.505 1.19.138 1.322.036 1.384-1.672 1.009-1.988-.437-1.73-5.799.279-5.799.731 0 .947.181.834.7-.085.385-.368.655-.63.6-.284-.06-.476.383-.476 1.1 0 1.384.997 1.669 1.4.4.14-.44.495-.8.79-.8.358 0 .457-.298.3-.9-.299-1.147-1.05-1.9-1.895-1.9-.887 0-.529-.961.428-1.147 1.035-.2 1.749-1.234 1.764-2.553.013-1.08-.865-1.545-1.37-.727-.702 1.135-2.617.306-2.62-1.134-.009-3.608-.462-5.547-1.247-5.342-.669.175-.75-.052-.75-2.106 0-2.41.854-3.776 1.846-2.953.288.239.627.157.95-.233.276-.333.75-.605 1.053-.605.812 0 .872-2.751.071-3.248-.22-.137-.543-.857-.719-1.6-.27-1.144-.325-.949-.36 1.268-.036 2.289-.479 3.589-1.221 3.576-.121-.002-.267-1.262-.325-2.8-.064-1.691.055-2.796.3-2.796.604 0 .489-.773-.221-1.483-.442-.442-.501-.75-.2-1.051.234-.234.428-.975.431-1.646.009-1.91.416-2.973 1.238-3.234.416-.132.757-.588.757-1.013 0-.425.18-.773.4-.773.773 0 .413-1.965-.443-2.423-.616-.33-.724-.57-.4-.894.244-.244.443-1.466.443-2.717 0-1.251.269-2.79.598-3.42.905-1.737.753-2.559-.569-3.057-1.231-.465-1.994-1.687-2.303-3.689-.102-.66-.694-2.91-1.316-5-.621-2.09-1.361-4.692-1.645-5.782-.551-2.122-2.797-5.009-3.912-5.03-.575-.011-.57-.061.047-.42.385-.224.706-.714.713-1.088.046-2.492 7.734-6.758 8.514-4.725.3.78 7.244 1.333 8.076.643.323-.269.49-.648.369-.843-.121-.195.067-.355.417-.355s.74-.27.866-.6c.365-.951.88-.7 1.018.497.134 1.154 1.408 1.786 1.681.833l.67-2.33c.285-.99.756-2.084 1.047-2.431.7-.836.674-2.228-.045-2.504-.459-.176-.494-.511-.174-1.67.281-1.016.269-1.609-.041-1.981-.698-.842-.937-2.154-1.097-6.014-.161-3.883-.535-4.95-2.726-7.8-.762-.99-1.577-2.25-1.812-2.8-.235-.55-.864-1.459-1.399-2.02-1.183-1.24-1.279-2.188-.576-5.672.546-2.706.249-4.295-.964-5.171-1.025-.74-.013-5.746 1.257-6.222 1.065-.4 1.616-1.333 1.899-3.215.141-.935.425-1.7.632-1.7.206 0 .375-.21.375-.466 0-.746 1.323-3.534 1.677-3.534.178 0 .323-.99.323-2.2 0-1.21.18-2.2.4-2.2.22 0 .4-.428.4-.951 0-.523.27-1.175.6-1.449.33-.274.6-.746.6-1.049 0-.308.405-.551.917-.551.988 0 1.883-2.285 1.883-4.806 0-1.041.143-1.194 1.12-1.194 1.385 0 2.08-.654 2.08-1.958 0-.549.482-1.501 1.07-2.115.997-1.041 1.031-1.191.5-2.188-.445-.835-.46-1.107-.07-1.238.275-.092.5-.423.5-.734 0-.312.18-.567.4-.567.22 0 .4-.45.4-1 0-.622.227-1 .6-1 .33 0 .6-.27.6-.6 0-.33.193-.6.429-.6.235 0 .395-.405.355-.9-.146-1.807-.042-2.046.641-1.48.642.533 2.575-.97 2.575-2.003 0-.229.193-.417.429-.417.937 0 1.571-1.21 1.571-3 0-1.797.634-3 1.581-3 .241 0 .61-.45.819-1 .209-.55.621-1 .915-1 .659 0 2.685-2.062 2.685-2.732 0-.268.463-.664 1.029-.879.673-.256.979-.633.886-1.09-.079-.385.132-.918.47-1.186.553-.438.552-.489-.005-.5-.341-.007-.82.187-1.065.432-.587.587-1.315.107-1.315-.869 0-.777-.696-.993-2.67-.828-.478.04-.984-.112-1.124-.338-.139-.225-.558-.412-.93-.414-.372-.002-1.576-.446-2.676-.987-1.1-.541-2.386-.99-2.857-.996-.472-.007-.951-.257-1.066-.556-.114-.298-.957-.643-1.874-.766-.916-.123-1.978-.506-2.36-.852-.383-.346-1.314-.746-2.069-.889-.756-.143-1.644-.477-1.974-.742-1.06-.853-11.996-3.642-16-4.08-.99-.109-1.98-.34-2.2-.514-.22-.173-1.426-.439-2.679-.591-1.283-.155-2.71-.614-3.263-1.049-.542-.426-1.136-.78-1.321-.787-1.348-.052-13.102-10.458-15.056-13.331-.395-.581-1.068-1.056-1.495-1.056-.461 0-1.162-.608-1.727-1.5-.523-.825-2.088-2.58-3.479-3.9-1.391-1.32-3.455-3.3-4.587-4.4-1.132-1.1-2.538-2.323-3.125-2.719-.588-.395-1.068-.935-1.068-1.2C80 49.718 73.852 44 73.247 44c-.945 0-7.884-5.011-8.967-6.476-.453-.614-1.117-1.209-1.475-1.322-.358-.114-1.45-1.01-2.428-1.991-.977-.981-2.266-1.99-2.864-2.241-.597-.251-1.192-.788-1.321-1.194-.253-.798-5.717-5.976-6.306-5.976-.467 0-1.856-1.67-1.873-2.253C48 22.109 45.508 20 45.002 20c-.138 0-1.815-1.636-3.726-3.635-3.378-3.534-4.288-5.053-3.852-6.436.116-.368-.067-1.335-.406-2.148-.34-.814-.618-2.047-.618-2.742 0-1.005-.417-1.651-2.031-3.152L32.339 0H0v200M192 1.327c0 2.552.862 6.068 1.713 6.983.818.881 2.269 4.797 2.281 6.158.003.367.258 1.177.565 1.8.308.622.878 2.17 1.268 3.439.389 1.269.925 2.487 1.19 2.707.266.221.717 1.253 1.003 2.294.286 1.04.738 2.252 1.005 2.692.267.44.708 1.52.98 2.4.271.88.805 1.96 1.185 2.4.38.44.829 1.16.997 1.6.194.507.374.617.493.3.27-.722.831-.614 1.044.2.129.491.197.411.23-.267.025-.531.165-.847.31-.702 1.206 1.206 1.514-1.617 1.413-12.937-.107-11.99.278-16.006 1.669-17.397.36-.36.654-.897.654-1.193 0-.296.109-.823.243-1.171.217-.566-.736-.633-9-.633H192v1.327m138.139 6.888c-.267.696.907 2.185 1.723 2.185.348 0 .538-.494.538-1.4 0-1.521-1.746-2.127-2.261-.785m29.741.038c-.752.753-.268 2.147.747 2.147.883 0 1.008-.153.9-1.097-.121-1.048-1.054-1.643-1.647-1.05m-25.64 8.817c.365 1.526.508 1.73 1.209 1.73 1.075 0 .543-2.573-.564-2.73-.818-.116-.887-.01-.645 1m-203.36 7.01c-.667.667-.6 1.52.12 1.52.33 0 .6.18.6.4 0 .22.63.4 1.4.4.77 0 1.4-.18 1.4-.4 0-.22.27-.4.6-.4.373 0 .6-.378.6-1 0-1.124-3.707-1.533-4.72-.52m13.387 2.587c-.147.146-.267.596-.267 1 0 .664-.394.733-4.2.733-3.883 0-4.2.058-4.2.772 0 .495-.322.818-.896.9-2.44.348-.832 1.911 1.978 1.923l1.283.005.117 2.9c.106 2.613.203 2.912.972 3.022.583.083.93.497 1.09 1.3.168.839.469 1.178 1.046 1.178.528 0 .81.264.81.757 0 .417.261.857.579.98.765.293 1.536 3.241 1.318 5.036-.198 1.632.379 3.227 1.167 3.227.295 0 .536.193.536.429 0 .553 1.018 1.571 1.571 1.571.236 0 .429.45.429 1s.18 1 .4 1c.22 0 .4.35.4.778 0 .645.326.799 1.9.9l1.9.122.121 2.1c.122 2.123.606 2.613 1.599 1.62.373-.373.48-.334.48.176 0 .361-.18.768-.4.904-.658.407-.487 2.6.203 2.6.331 0 .994.45 1.472 1 .961 1.106 2.725 1.364 2.725.4 0-.373.378-.6 1-.6.8 0 1-.2 1-1 0-1.202 1.014-1.356 1.316-.2.233.891 1.795 1.115 2.09.3 1.138-3.15.83-9.9-.451-9.9-.752 0-.955-.213-.955-1s-.203-1-.953-1c-.651 0-1.03-.286-1.195-.9-.561-2.092-.392-2.3 1.872-2.3 3.448 0 4.922-2.823 3.865-7.4-.203-.88-.374-2.232-.379-3.004-.007-.963-.261-1.56-.81-1.903-.44-.275-.8-.846-.8-1.27 0-.533-.339-.821-1.1-.936-.885-.135-.807-.179.4-.227 2.777-.111 1.833-1.14-1.295-1.411-1.486-.129-1.832-.316-2.014-1.088-.268-1.134-1.329-1.468-4.827-1.521l-2.636-.04L152 28l-.528-1.6h-3.469c-1.908 0-3.59.12-3.736.267M159.6 54.6c0 .8-.2 1-1 1-1.093 0-1.278-.518-.5-1.402.782-.888 1.5-.696 1.5.402m207.914 46.1c-1.27 2.845-1.231 6.799.086 8.584.44.596.8 1.554.8 2.129 0 .574.438 1.797.974 2.716.535.919 1.453 3.111 2.04 4.871.586 1.76 1.204 3.38 1.374 3.6.17.22.545 1.39.834 2.6.289 1.21.848 2.568 1.243 3.017.396.45.92 1.395 1.166 2.1 1.457 4.18 2.825-3.045 1.537-8.117-.224-.88-.484-2.466-.578-3.524-.095-1.058-.34-2.588-.544-3.4-.205-.812-.487-2.376-.626-3.476-.224-1.77-1.335-5.73-2.244-8a36.29 36.29 0 0 1-.758-2.235c-1.184-3.886-3.768-4.307-5.304-.865M35.072 152.08c.808.293 1.328.752 1.328 1.173 0 .832 1.573 1.438 1.988.767.431-.697 2.301-.087 3.187 1.039.716.91.925.953 3.416.698 2.466-.253 2.669-.213 2.871.559.12.457.829 1.121 1.578 1.476.902.428 1.36.925 1.36 1.476 0 .675-.107.741-.573.354-.448-.371-.776-.345-1.5.122-.792.511-1.189.522-2.727.074-3.272-.95-3.6-1.106-3.6-1.71 0-.438-.323-.551-1.2-.423-1.04.153-1.2.052-1.2-.754 0-.908-.091-.931-3.753-.931-4.106 0-4.227-.081-4.242-2.833-.009-1.698.69-1.946 3.067-1.087M44.4 155c0 .373-.378.6-1 .6s-1-.227-1-.6.378-.6 1-.6 1 .227 1 .6m272 21.933c0 .294.27.534.6.534.33 0 .6-.24.6-.534 0-.293-.27-.533-.6-.533-.33 0-.6.24-.6.533M132 185.376c0 .757-.18 1.488-.4 1.624-.242.149-.4-.396-.4-1.376 0-.893.18-1.624.4-1.624.22 0 .4.619.4 1.376m-98 3.6c.55.055 1.411.127 1.913.162.535.036 1.062.434 1.275.962.277.69.367.736.387.2.047-1.318 2.825-.04 2.825 1.3 0 .22.585.414 1.3.432 4.028.1 6.204 1.72 6.271 4.668.016.715.164 1.3.329 1.3.357 0 .277 5.513-.094 6.456-.142.361-.291 2.295-.332 4.298l-.074 3.642-3.851.002-3.851.002.203-1.797c.127-1.13.017-2.02-.298-2.4-.613-.738-4.417-.829-5.123-.123-.373.373-.587.373-.96 0-.938-.938-1.92-.569-1.92.72 0 1.775-.691 1.457-.869-.4-.083-.88-.012-1.6.158-1.6.171 0 .311-1.62.311-3.6 0-2.933-.111-3.6-.6-3.6-.488 0-.6-.661-.6-3.551 0-2.669.149-3.675.6-4.049.821-.682.786-2.4-.049-2.4-.544 0-.565-.101-.128-.628.334-.402.818-.532 1.349-.361.455.146 1.278.311 1.828.365m91.067 39.291c-.415.415-.314 1.733.133 1.733.22 0 .4-.45.4-1 0-1.047-.092-1.174-.533-.733m-1.567 4.398c.308.124.502.994.506 2.268.005 1.482.116 1.897.394 1.467.852-1.318.346-4.021-.743-3.968-.415.02-.473.106-.157.233m-1.101 2.935c-.052.55-.047 1.18.011 1.4l.613 2.4.509 2 .034-2.22c.019-1.221-.129-2.391-.327-2.6-.199-.209-.448-.74-.554-1.18-.163-.679-.206-.649-.286.2m-.399 7.976c0 .427.18.888.4 1.024.227.14.4-.196.4-.776 0-.563-.18-1.024-.4-1.024-.22 0-.4.349-.4.776m.661 3.09c-.773 1.034-.595 1.828.226 1.007.698-.698 1.113-.577 1.113.327 0 .44.261.8.579.8.467 0 .5-.227.169-1.177-.635-1.822-1.234-2.097-2.087-.957m-1.076 2.316c.646.779.191 1.418-1.009 1.418-.747 0-.975.211-.97.9.005.709.085.775.377.314.297-.47.455-.366.793.524.459 1.206 1.224 1.097 1.224-.174 0-.434.27-.893.6-1.019.33-.127.6-.571.6-.988 0-.416-.27-.757-.6-.757-.33 0-.6-.18-.6-.4 0-.22-.202-.4-.449-.4-.316 0-.306.172.034.582M124 252.2c0 .33.18.6.4.6.22 0 .4-.27.4-.6 0-.33-.18-.6-.4-.6-.22 0-.4.27-.4.6m-1.387 1.379c-.352.569.097 1.221.84 1.221.35 0 .551-.281.476-.667-.155-.803-.954-1.14-1.316-.554M120.8 255.6c0 .444.267.8.6.8.333 0 .6-.356.6-.8 0-.444-.267-.8-.6-.8-.333 0-.6.356-.6.8m8.028 5.366c-.632.762-.443 1.138.332.659.296-.183.464-.553.374-.823-.116-.348-.32-.301-.706.164M118.4 264c0 .66-.149 1.2-.331 1.2-.182 0-.251-.54-.154-1.2.097-.66.245-1.2.33-1.2.085 0 .155.54.155 1.2m4.813.038c-.007.351.347.964.787 1.362.719.651.8.657.8.062 0-.364.27-.662.6-.662.33 0 .6-.18.6-.4 0-.542-.536-.504-1.119.079-.371.371-.61.304-1.067-.3-.483-.639-.591-.664-.601-.141M161.2 283.6c0 .22.461.4 1.024.4.58 0 .916-.173.776-.4-.136-.22-.597-.4-1.024-.4-.427 0-.776.18-.776.4m4.967 1.443c.965.37.754.957-.343.957-1.004 0-1.6-.491-1.146-.944.319-.32.682-.323 1.489-.013m13.198-.001c.953.366.342.958-.989.958-1.189 0-1.597-.564-.676-.935.72-.291.959-.294 1.665-.023m-5.511.756c.127.328.355.52.507.426.152-.094.539-.006.858.196.465.294.421.366-.219.361-.804-.006-2.2-.848-2.2-1.325 0-.51.831-.241 1.054.342m-23.682.33c-.32.835.08 1.38.618.842.227-.227.233-.609.015-.962-.307-.497-.403-.478-.633.12m-2.501.94c.071.366.354.741.629.832.735.245.61-.972-.129-1.256-.439-.168-.59-.04-.5.424m13.529.532c0 .22-.27.4-.6.4-.33 0-.6-.18-.6-.4 0-.22.27-.4.6-.4.33 0 .6.18.6.4m-90.066 3.223c-.169 1.156-1.134 1.533-1.134.443 0-.44.114-1.097.253-1.46.356-.928 1.048-.129.881 1.017m66.866 8.39c0 .515-1.14.981-1.506.615-.149-.149-.006-.439.318-.644.774-.489 1.188-.479 1.188.029m-10.8 29.163c0 .453.18.824.4.824.22 0 .4-.259.4-.576 0-.317-.18-.688-.4-.824-.22-.136-.4.123-.4.576m-4.74 1.5c-.033.482-.219.975-.414 1.095-.402.249-.832 2.629-.474 2.629.497 0 1.275-2.431 1.116-3.487-.127-.84-.183-.898-.228-.237m-2.06 7.724c0 .22-.27.4-.6.4-.33 0-.6-.18-.6-.4 0-.22.27-.4.6-.4.33 0 .6.18.6.4m-22.092 4.075c-.247.742-1.108.865-1.108.158 0-.348.285-.633.633-.633.349 0 .562.214.475.475m56.316 7.01c.977.816 1.776 1.806 1.776 2.2 0 .393.27.715.6.715.373 0 .6.378.6 1s-.227 1-.6 1c-.33 0-.6.18-.6.4 0 .22-.45.4-1 .4s-1 .193-1 .429c0 .553-1.018 1.571-1.571 1.571-.236 0-.429-.72-.429-1.6 0-1.403-.113-1.6-.92-1.6-.506 0-1.136-.216-1.4-.48-.373-.373-.48-.329-.48.2 0 .459.325.68 1 .68.55 0 1 .18 1 .4 0 .22-.45.4-1 .4-.8 0-1 .2-1 1 0 .622-.227 1-.6 1-.33 0-.6.27-.6.6 0 .33-.18.6-.4.6-.22 0-.4.45-.4 1 0 .8-.2 1-1 1s-1-.2-1-1c0-.55.18-1 .4-1 .22 0 .4-.45.4-1 0-.622.227-1 .6-1 .368 0 .6-.374.6-.967 0-.531.192-1.03.426-1.108.234-.078.529-.948.655-1.934.408-3.191 1.153-4.078 3.643-4.337.288-.029 1.323.614 2.3 1.431m-5.024 10.309c0 .279-.27.732-.6 1.006-.33.274-.6.926-.6 1.449 0 .82-.193.951-1.4.951-.978 0-1.4.181-1.4.6 0 .33-.315.602-.7.605-.385.003-1.105.114-1.6.247-.726.195-.9.077-.9-.605 0-.61.252-.849.9-.853.522-.004.713-.13.455-.3-.271-.179-.322-.607-.129-1.094.178-.447.33-.552.346-.238.023.464.15.454.728-.055.454-.4 1.156-.546 2-.416 1.167.179 1.3.1 1.3-.779 0-.538.108-1.086.239-1.218.374-.373 1.361.134 1.361.7m4.8 2.006c0 .373-.378.6-1 .6s-1-.227-1-.6.378-.6 1-.6 1 .227 1 .6" fill="#692723"/><path d="M32.805.3c.003.165.813.997 1.8 1.85C36.046 3.394 36.4 3.956 36.4 5.001c0 .716.278 1.966.618 2.78.339.813.522 1.78.406 2.148-.436 1.383.474 2.902 3.852 6.436C43.187 18.364 44.864 20 45.002 20c.506 0 2.998 2.109 3.011 2.547.017.583 1.406 2.253 1.873 2.253.589 0 6.053 5.178 6.306 5.976.129.406.724.943 1.321 1.194.598.251 1.887 1.26 2.864 2.241.978.981 2.07 1.877 2.428 1.991.358.113 1.022.708 1.475 1.322C65.363 38.989 72.302 44 73.247 44 73.852 44 80 49.718 80 50.281c0 .265.48.805 1.068 1.2.587.396 1.993 1.619 3.125 2.719 1.132 1.1 3.196 3.08 4.587 4.4 1.391 1.32 2.956 3.075 3.479 3.9.565.892 1.266 1.5 1.727 1.5.427 0 1.1.475 1.495 1.056 1.954 2.873 13.708 13.279 15.056 13.331.185.007.779.361 1.321.787.553.435 1.98.894 3.263 1.049 1.253.152 2.459.418 2.679.591.22.174 1.21.405 2.2.514 4.004.438 14.94 3.227 16 4.08.33.265 1.218.599 1.974.742.755.143 1.686.543 2.069.889.382.346 1.444.729 2.36.852.917.123 1.76.468 1.874.766.115.299.594.549 1.066.556.471.006 1.757.455 2.857.996 1.1.541 2.304.985 2.676.987.372.002.791.189.93.414.14.226.646.378 1.124.338 1.974-.165 2.67.051 2.67.828 0 .976.728 1.456 1.315.869.245-.245.724-.439 1.065-.432.557.011.558.062.005.5-.338.268-.549.801-.47 1.186.093.457-.213.834-.886 1.09-.566.215-1.029.632-1.029.926 0 .659-2.062 2.685-2.732 2.685-.268 0-.659.45-.868 1-.209.55-.578 1-.819 1-.947 0-1.581 1.203-1.581 3 0 1.79-.634 3-1.571 3a.425.425 0 0 0-.429.417c0 1.033-1.933 2.536-2.575 2.003-.683-.566-.787-.327-.641 1.48.04.495-.12.9-.355.9-.236 0-.429.27-.429.6 0 .33-.27.6-.6.6-.373 0-.6.378-.6 1 0 .55-.18 1-.4 1-.22 0-.4.255-.4.567 0 .311-.225.642-.5.734-.39.131-.375.403.07 1.238.531.997.497 1.147-.5 2.188-.588.614-1.07 1.566-1.07 2.115 0 1.304-.695 1.958-2.08 1.958-.977 0-1.12.153-1.12 1.194 0 2.521-.895 4.806-1.883 4.806-.512 0-.917.243-.917.551 0 .303-.27.775-.6 1.049-.33.274-.6.926-.6 1.449s-.18.951-.4.951c-.22 0-.4.99-.4 2.2 0 1.21-.145 2.2-.323 2.2-.354 0-1.677 2.788-1.677 3.534 0 .256-.169.466-.375.466-.207 0-.491.765-.632 1.7-.283 1.882-.834 2.815-1.899 3.215-1.27.476-2.282 5.482-1.257 6.222 1.213.876 1.51 2.465.964 5.171-.703 3.484-.607 4.432.576 5.672.535.561 1.164 1.47 1.399 2.02.235.55 1.05 1.81 1.812 2.8 2.191 2.85 2.565 3.917 2.726 7.8.16 3.86.399 5.172 1.097 6.014.307.37.322.965.048 1.957-.299 1.084-.268 1.498.129 1.727.288.166.597.662.688 1.102.123.598.293.395.672-.8.279-.88.651-1.96.825-2.4.175-.44.628-1.79 1.006-3 .379-1.21.829-2.56 1-3 .172-.44.631-1.79 1.022-3s.866-2.371 1.055-2.58c.189-.209.344-.783.344-1.276s.18-1.008.4-1.144c.22-.136.4-.847.4-1.581 0-.816.233-1.423.6-1.564.33-.126.6-.652.6-1.168 0-.515.45-1.87 1-3.01.55-1.14 1-2.237 1-2.438 0-.201.43-1.237.955-2.302a73.51 73.51 0 0 0 1.619-3.537c.366-.88.836-1.913 1.045-2.295.21-.382.381-.962.381-1.289 0-.327.472-1.634 1.048-2.905 1.667-3.675 2.152-4.816 2.152-5.06 0-.125.45-1.211 1-2.414.55-1.202 1-2.289 1-2.416 0-.126.373-1.083.829-2.125a1318.51 1318.51 0 0 0 1.349-3.096c.287-.66.994-2.162 1.572-3.337.577-1.175 1.056-2.435 1.063-2.8.017-.925 3.377-4.932 8.882-10.591a77.357 77.357 0 0 0 3.586-4.01c.93-1.134 2.398-2.733 3.262-3.553 1.27-1.206 1.447-1.538.923-1.739-1.045-.401-1.93-2.46-1.181-2.747.388-.149.497-.474.312-.926-.646-1.573-.18-10.562.629-12.148.426-.835.774-2.05.774-2.7 0-1.586.367-2.449 1.043-2.449.306 0 .557-.347.557-.771 0-1.099 2.642-3.13 4.62-3.552 2.115-.451 5.155-2.784 4.561-3.5-.544-.656 1.16-2.007 3.364-2.668.899-.269 1.955-.809 2.345-1.199.391-.391 1.025-.717 1.41-.726.731-.018 4.096-2.836 4.105-3.438.009-.603 2.942-2.304 3.109-1.803.179.535 1.286.623 1.286.102 0-.195.822-.477 1.827-.628 2.665-.4 5.344 1.505 5.364 3.813.008.936.998 2.191 2.32 2.941.6.341 2.056-1.235 2.076-2.247.007-.372.216-.803.465-.956.843-.521-.064-19.832-1.905-40.568-1.063-11.977-.986-22.265.18-23.899 1.425-1.998 2.339-2.011 6.35-.085 1.938.931 4.481 2.022 5.651 2.426 1.171.404 2.653 1.176 3.294 1.715.641.54 2.193 1.365 3.448 1.835 1.256.47 4.07 1.744 6.254 2.831 2.184 1.087 4.195 1.977 4.468 1.977.274 0 1.147.516 1.941 1.147.794.63 2.573 1.566 3.955 2.078 1.382.513 3.375 1.437 4.43 2.053 1.054.617 2.073 1.122 2.263 1.122 1.645 0 8.127 4.852 9.314 6.973 1.331 2.377 4.344 6.627 4.697 6.627.219 0 .834.675 1.366 1.5.533.825 1.39 1.895 1.905 2.378 2.791 2.614 4.688 4.121 5.182 4.116.985-.011 3.5-1.02 4.264-1.712 2.776-2.512 5.764-.108 5.986 4.817.223 4.947.832 8.745 1.63 10.175 1.022 1.831 2.008 4.654 2.21 6.326.225 1.861 1.403 4.813 2.303 5.77.68.723.682.802.043 1.293-.627.482-.61.544.219.777 1.924.541.065 1.553-2.7 1.469-.77-.023-1.008.044-.529.148.479.105 1.086.45 1.349.767.263.317.996.576 1.629.576s1.151.157 1.151.35c0 .193.568.464 1.262.602 1.581.317 2.338.931 2.338 1.897 0 .413.168.751.373.751s.499.405.653.9c.154.495.886 2.218 1.627 3.829.741 1.611 1.347 3.096 1.347 3.3 0 .204.194.371.432.371.591 0 .091-2.251-.871-3.923-.866-1.506-.964-2.514-.308-3.17.254-.254.324-.773.16-1.18-.263-.652-.331-.628-.665.241-.535 1.389-1.309.476-.957-1.128.176-.801.516-1.24.961-1.24 1.483 0 1.613-.843.309-2.008-1.218-1.088-1.242-1.172-.712-2.459.302-.733.677-2.233.834-3.333.157-1.1.511-2.467.787-3.038.381-.787.396-1.415.066-2.6-.54-1.934-.224-13.54.402-14.769.301-.591.16-8.928-.156-9.245-.151-.151-.077-.513.164-.804.242-.291.359-1.297.262-2.236-.098-.94-.016-2.968.181-4.508.532-4.142.389-8.96-.306-10.354-1.391-2.79 2.565-4.395 5.024-2.039.57.546 1.311.993 1.645.993.955 0 2.348 1.741 2.348 2.936 0 .781.273 1.187.976 1.455.536.204 1.173.739 1.414 1.19.241.45.792.819 1.224.819.432 0 .786.27.786.6 0 .33.27.6.6.6.33 0 .6.18.6.4 0 .22.63.4 1.4.4.978 0 1.4.181 1.4.6 0 .456-.503.601-2.1.606-1.503.005-1.93.116-1.5.394.33.213 1.095.391 1.7.394.925.005 1.104.181 1.128 1.106.039 1.516.703 3.123.744 1.8.041-1.307 1.228-1.168 1.228.144 0 .959.115 1.03 1.413.879l1.412-.165-.157 1.621c-.087.891-.08 1.216.014.721.166-.871 1.318-1.308 1.318-.5 0 .22.437.4.971.4.883 0 .997.209 1.254 2.3.27 2.189 2.575 6.052 2.575 4.314 0-.338.27-.614.6-.614.33 0 .6.272.6.605 0 .333.223.963.496 1.4.395.633.395.957 0 1.59-.596.954-.654 2.405-.096 2.405.22 0 .4.27.4.6 0 .33.27.6.6.6.33 0 .6-.191.6-.424 0-.233.165-.321.366-.197.201.124.437.012.524-.248.428-1.286 1.554.1 1.433 1.765-.115 1.599-.191 1.696-1.223 1.575-1.926-.225-1.463 1.338.59 1.991 1.474.469 1.746.742 2.128 2.138.269.979.777 1.753 1.31 1.995.48.217.872.622.872.9s.241.505.536.505c.778 0 1.52 1.784.97 2.334-.309.309-.287.607.08 1.049.282.339.415.617.297.617s.13.942.551 2.094c.422 1.152.766 2.508.766 3.013 0 .505.282 1.026.627 1.159.467.179.611.758.565 2.287-.159 5.39-.086 5.783 1.108 5.92.864.1 1.127.363 1.227 1.227.072.63.371 1.1.7 1.1.315 0 .573.354.573.787 0 .499.199.712.542.58.309-.119 1.043.413 1.7 1.231a58.396 58.396 0 0 0 2.158 2.52c.55.595 1.376 1.801 1.836 2.681 3.072 5.884 3.243 6.282 3.508 8.201.343 2.484 3.125 10.728 5.998 17.778.802 1.967 1.458 3.897 1.458 4.288 0 .391.442 1.71.982 2.931.539 1.22 1.276 3.341 1.637 4.711.361 1.371.845 2.888 1.076 3.372.23.485.308 1.689.173 2.677-.213 1.556-.141 1.829.543 2.046.434.138.816.554.85.924.106 1.173.182 1.441.827 2.924.347.798.812 1.564 1.034 1.701.515.318 1.562 3.864 1.889 6.394.18 1.394.453 1.998.963 2.131.604.158.754.837.988 4.449.202 3.129.456 4.476.957 5.068 1.972 2.334 2.211 4.368.681 5.806-1.108 1.041-1.36 2.8-.4 2.8.373 0 .6.378.6 1s-.227 1-.6 1c-.33 0-.6.193-.6.429 0 .553-1.018 1.571-1.571 1.571-.236 0-.429.27-.429.6 0 .373-.378.6-1 .6-.921 0-1 .144-1 1.836 0 3.183-3.386 6.445-4.315 4.156-.064-.156-.834-.201-1.713-.099-1.867.216-3.054-.471-2.328-1.346.333-.402.335-.547.005-.547-.247 0-.449-.45-.449-1 0-1.083-.173-1.125-2.643-.647-1.127.219-1.856.164-2.319-.175-.371-.271-1.027-.401-1.457-.289-.597.156-.781 0-.781-.663 0-.886-1.954-2.023-3.487-2.029-.392-.001-1.02-.541-1.394-1.2-.375-.658-1.005-1.198-1.4-1.199-.396-.001-1.529-.54-2.519-1.198-.99-.658-2.044-1.197-2.342-1.198-.298-.001-1.077-.452-1.731-1.002-.654-.55-1.4-1.004-1.658-1.008-.258-.004-1.639-.187-3.069-.405-8.205-1.252-10.343-1.471-10.886-1.115-1.404.919-7.914-1.955-7.914-3.493 0-.319-.18-.579-.4-.579-.22 0-.4.36-.4.8 0 .44-.168.8-.373.8s-.499.405-.652.9c-.154.495-.587 1.62-.964 2.5-1.875 4.382-5.37 13.608-5.91 15.6-.119.44-.371.999-.56 1.243-.189.243-.25 1.053-.135 1.8.162 1.052.124 1.177-.17.557-.368-.776-.381-.774-.408.076-.015.482-.208.988-.428 1.124-.22.136-.4.651-.4 1.144 0 .493-.157 1.067-.349 1.276-.192.209-.661 1.685-1.043 3.28-.382 1.595-.878 2.9-1.103 2.9-.367 0-.263 2.688.148 3.8a.398.398 0 0 1-.253.524c-.22.068-.517-.292-.66-.8-.297-1.056-.497-.17-.356 1.576.048.582-.149.9-.555.9-.346 0-.629.2-.629.445 0 .268.48.375 1.2.27.96-.141 1.2-.03 1.2.554 0 .838-.431.94-1.107.264-.356-.356-.528-.308-.723.2-.14.367-.411.667-.6.667-.19 0-.241-.27-.115-.6.146-.38-.005-.6-.412-.6-.354 0-.643.18-.643.4 0 .22-.495.406-1.1.414l-1.1.014.967.536.966.535-1.463.695c-.924.438-1.871.6-2.567.438-.8-.186-.939-.148-.506.139.443.294.48.512.145.847-.323.323-.528.328-.72.017-.338-.546-1.822-.574-1.822-.035 0 .22.27.4.6.4.33 0 .6.27.6.6 0 .747-1.15.795-1.433.059-.257-.67-2.229-.377-2.687.399-.176.298-.66.542-1.076.542-.416 0-.868.18-1.004.4-.136.22-.711.4-1.278.4-.585 0-1.431.432-1.957 1-.51.55-1.205 1-1.546 1-.34 0-.641.27-.669.6-.1 1.201-.159 1.369-.65 1.86-.275.275-.506.959-.513 1.52-.007.561-.277 1.369-.6 1.796-.323.428-.587 1.103-.587 1.5 0 .398-.18.724-.4.724-.22 0-.401.315-.402.7-.002.385-.235 1.15-.519 1.7-.284.55-.846 2.08-1.249 3.4-.403 1.32-.89 2.571-1.081 2.78-.192.209-.349.679-.349 1.044s-.444.997-.986 1.405c-.724.543-.857.835-.5 1.093.314.229.215.265-.282.102-.422-.138-.872-.097-1 .091s-1.852 1.535-3.832 2.994c-1.98 1.459-3.817 2.841-4.083 3.072-.266.23-.594.419-.729.419-.474 0-1.347 1.108-1.081 1.374.148.147-.002.164-.333.037s-.972.114-1.425.536c-1.426 1.329-10.718 7.897-11.552 8.166-.438.142-2.057.724-3.597 1.294-1.54.57-3.113 1.137-3.496 1.26-.382.123-.584.403-.449.621.153.248-.094.29-.655.112-.495-.157-1.012-.13-1.15.06-.137.191-1.24.675-2.45 1.077-1.21.402-2.56.874-3 1.049a233.509 233.509 0 0 1-7 2.638c-1.65.596-3.745 1.411-4.656 1.811-.911.4-2.171.84-2.8.977-.629.138-1.504.398-1.944.578-3.204 1.314-4.083 1.694-4.695 2.029-.382.21-1.062.381-1.512.381-.45 0-.922.27-1.048.6-.143.372-.784.612-1.688.632l-1.457.031 1.135.414c.805.293 1.264.284 1.58-.032.873-.873 1.513-.491 1.433.855-.043.715.055 1.882.218 2.593.278 1.223-1.868 4.097-3.066 4.105-.165.001-.3.251-.3.555 0 .925-1.581 1.066-2.43.217-1.26-1.26-1.892-.963-2.191 1.03-.18 1.2-.467 1.8-.861 1.8-.326 0-1.051.361-1.611.802-.674.53-1.175.673-1.477.423-.282-.234-.681-.237-1.043-.008-.323.204-1.136.374-1.807.377-.671.003-1.401.187-1.621.407-.221.221-1.393.486-2.604.589-2.508.213-5.305 1.244-4.948 1.822.132.213-.03.388-.36.388-.959 0-1.118-.688-.213-.925.699-.182.757-.344.382-1.045-.461-.861-2.816-1.22-2.816-.43 0 .22-.315.4-.7.399-.511-.001-.323-.324.7-1.199.965-.826 1.193-1.198.733-1.199-.366-.001-.726.134-.8.299-.073.165-1.301.84-2.728 1.5-1.427.66-5.506 2.955-9.064 5.1-3.558 2.145-6.715 3.9-7.015 3.9-.3 0-4-2.061-8.222-4.579-4.222-2.519-7.946-4.634-8.276-4.7-.619-.125-3.088 2.796-7.028 8.312-1.21 1.694-2.74 3.753-3.4 4.577-.66.823-1.56 2.005-2 2.627-1.789 2.529-15.686 19.495-18.318 22.363-2.667 2.907-4.022 5.087-3.564 5.735 3.587 5.076 2.67 12.997-2.05 17.717-8.047 8.047-22.668 2.762-22.668-8.195v-2.592l-2.377-.012c-11.201-.053-16.462-14.835-8.215-23.082 3.744-3.744 12.18-5.309 15.32-2.842.835.657 4.122-3.439 3.366-4.195-.651-.651-1.449-.003-.864.702.618.744.174.716-1.019-.065-.528-.347-1.287-.576-1.686-.51-.399.065-.95-.022-1.225-.195-.653-.409-1.293.005-1.325.858-.019.49-.125.428-.387-.224-.458-1.138-1.717-1.161-2.459-.043-.48.722-.703.785-1.423.4-1.243-.666-4.106-.596-4.106.1 0 .307.308.676.685.82.542.208.33.464-1.024 1.233-11.493 6.528-11.213 21.562.51 27.344 1.575.777 1.813 1.023 1.279 1.322-.509.285-.562.541-.239 1.145.621 1.16 1.189.943 1.189-.454 0-.795.174-1.176.49-1.07.635.211 1.152 2.594.868 4.003-.132.658-.048 1.1.21 1.1.238 0 .435-.495.438-1.1.003-.605.158-1.34.344-1.632.431-.681.85 1.279.85 3.982 0 2.063.217 2.353.982 1.307.416-.569.552-.517 1.186.451.539.821.596 1.167.231 1.392-.346.215-.358.378-.042.574.244.15.443.083.443-.15 0-.728.865-.463 1.071.327.108.413.632.95 1.163 1.192s.966.733.966 1.092c0 .491.24.591.975.407.537-.135 1.072-.09 1.189.099.979 1.585 8.583 1.389 12.089-.312 1.842-.894 6.147-5.085 6.147-5.984 0-.318.135-.442.3-.276.165.167.3.676.3 1.132 0 .456.225.904.5.997.328.111.5-.255.5-1.065 0-.973.172-1.233.813-1.233.965 0 1.087-.27 1.541-3.4l.348-2.4.049 2.876c.027 1.582-.131 2.988-.351 3.124-.541.334-.51 1.8.037 1.8.241 0 .532-.36.647-.8.242-.927.546-.997 1.288-.3.44.413.481.223.238-1.1-.446-2.429-.449-3.189-.01-3.312.22-.062.457.343.527.9.145 1.162 1.274 1.374 2.089.393.41-.494.58-.514.843-.1.253.4.33.404.335.019.003-.275.299-.5.657-.5.534 0 .606-.284.399-1.576-.145-.91-.082-1.681.151-1.824.239-.149.016-.765-.554-1.525-.525-.701-1.34-2.04-1.809-2.975-.47-.935-1.031-1.7-1.246-1.7-.216 0-.392-.478-.392-1.062 0-1.666-1.929-3.987-2.577-3.101-.327.447-.594.534-.768.251-.148-.238-.085-.546.138-.684.616-.381.487-1.688-.193-1.949-.86-.33-.741-1.089.374-2.386.535-.623 1.57-1.867 2.3-2.766.729-.899 1.534-1.845 1.787-2.102.382-.385 3.882-4.558 5.035-6.001 2.012-2.518 2.329-2.784 2.671-2.242.387.614 1.633.329 1.633-.372 0-.258-.331-.335-.8-.186-1.15.365-.985-.303.374-1.513.76-.678 1.234-.877 1.347-.566.134.369.369.364 1.021-.021 1.137-.671 1.144-.667.95.653-.23 1.567.499 1.893 1.383.617a20.622 20.622 0 0 1 1.425-1.808c.385-.419.7-1.207.7-1.752 0-.673.352-1.174 1.1-1.566.605-.316 1.72-1.221 2.478-2.01 1.242-1.292 1.589-1.434 3.5-1.434 1.537 0 2.122-.152 2.122-.551 0-.519 1.025-1.064 3.1-1.649.55-.155.9-.566.9-1.056 0-.737.175-.78 2.168-.531 2.39.299 5.186-1.664 4.15-2.912-.304-.366-.241-.501.233-.501.357 0 .649.164.649.364 0 .201.809.756 1.798 1.235.989.479 1.899 1.035 2.023 1.236.355.574 3.778.452 3.782-.135.002-.275.407-.698.9-.94 3.105-1.525 5.096-2.635 5.29-2.948.285-.462 2.578-1.612 3.213-1.612.289 0 .412.371.307.921-.133.695.078 1.038.855 1.392 1.324.603 1.316 1.071-.021 1.148-.962.056-1.726.687-1.741 1.439-.01.505 1.348.309 2.17-.313 1.099-.831 1.548-.737 2.284.477.419.691 1.468 1.374 2.993 1.948 1.638.616 2.313 1.073 2.235 1.511-.109.614 1.328 1.474 3.512 2.1.55.158 1.429.622 1.954 1.032.525.41 1.265.745 1.646.745s1.146.357 1.701.793c.554.437 2.063 1.068 3.353 1.404 1.291.335 3.259 1.238 4.375 2.006 1.116.769 2.321 1.397 2.677 1.397.356 0 .758.18.894.4.136.22.569.4.962.4.394 0 1.108.34 1.587.756.479.415 1.452.972 2.161 1.236.71.264 2.03.824 2.934 1.244.904.42 1.84.764 2.08.764.509 0 3.944 2.262 4.293 2.828.131.212.393.289.583.172.444-.274 3.142.942 4.269 1.924 1.104.962 4.134.625 4.126-.459-.012-1.375-.51-2.466-1.142-2.497-.409-.019-.468-.106-.156-.232.367-.148.386-.407.072-.993-.233-.436-.373-1.277-.311-1.868.062-.592-.023-1.295-.189-1.563-.165-.268-.359-2.387-.431-4.709-.096-3.087-.296-4.407-.746-4.912-1.007-1.132-1.707-9.966-.91-11.491.23-.44.752-1.192 1.16-1.67.408-.479.633-1.047.5-1.261-.132-.215.344-.594 1.058-.842 2.472-.859 3.5-1.424 3.5-1.925 0-.276.349-.502.776-.502.427 0 .888-.18 1.024-.4.136-.22.957-.4 1.824-.4 1.134 0 1.576-.168 1.576-.6 0-.33.242-.6.538-.6.296 0 .865-.361 1.265-.803.788-.871 2.823-1.997 3.609-1.997.27 0 .714-.27.988-.6.274-.33.926-.6 1.449-.6s.951-.18.951-.4c0-.22.27-.4.6-.4.33 0 .6-.253.6-.563 0-.34.782-.764 1.971-1.068 1.294-.332 2.037-.755 2.161-1.232.105-.4.7-.921 1.323-1.158 2.239-.851 3.959-1.723 4.745-2.405.44-.382 1.16-.759 1.6-.838.457-.082.853-.517.924-1.014.085-.591.502-.952 1.304-1.128 1.145-.252 2.192-1.441 1.701-1.932-.134-.133-.049-.477.188-.762.237-.286.556-1.505.709-2.71.153-1.204.497-2.46.765-2.79.268-.33.597-.909.731-1.287.315-.89 2.913-2.007 4.578-1.968.715.017 1.3-.123 1.3-.311s1.035-.465 2.3-.615c1.265-.15 2.996-.453 3.846-.674 3.589-.93 5.67-.837 6.269.283.788 1.472 6.101 1.364 6.313-.128.092-.651.396-.9 1.1-.9.983 0 1.353-.917.565-1.404-.223-.138-.314-.4-.202-.582.113-.181-.066-.434-.397-.561-.331-.127-.578-.371-.55-.542.13-.791-.093-.968-.644-.511-.804.667-1.8-.135-1.8-1.449 0-.859.173-.951 1.776-.951.977 0 1.888-.18 2.024-.4.136-.22.588-.4 1.004-.4.416 0 .9-.234 1.076-.52.55-.894 3.406-1.514 4.942-1.074.755.217 2.364.397 3.575.4 2.041.006 4.819.677 5.462 1.32.506.506 2.359.28 3.823-.466.798-.406 2.816-.96 4.484-1.229 2.161-.348 3.034-.656 3.034-1.07 0-.319.45-.752 1-.961.838-.319 1-.641 1-1.99 0-1.262.151-1.613.7-1.622.667-.012.667-.032 0-.42-1.048-.61-.44-2.368.819-2.368 1.717 0 .951-12.807-.968-16.2-.623-1.1-1.183-2.334-1.245-2.743-.176-1.145-.505-1.59-3.429-4.636-1.498-1.56-2.911-3.373-3.14-4.029-.228-.655-.558-1.192-.733-1.192-.346 0-.991-1.969-.844-2.578.051-.208-.079-.748-.288-1.2-1.937-4.186-1.442-9.469.99-10.578.84-.382.94-.628.722-1.788-.48-2.559 1.125-2.206 2.339.515.653 1.464 1.376 2.437 2.034 2.737.592.269 1.132.933 1.286 1.578.145.613.473 1.384.728 1.714.54.7 1.247 2.144 1.811 3.7.219.605.575 1.1.791 1.1.737 0 2.395 3.411 3.019 6.209l.821 3.684c.109.491.711 1.481 1.337 2.2.627.719 1.439 1.892 1.805 2.607.366.715.911 1.3 1.212 1.3.3 0 .659.45.797 1 .155.618.535 1 .995 1 .409 0 .967.27 1.241.6.274.33.701.602.949.604.248.002 1.608.738 3.022 1.635 2.87 1.82 8.029 1.896 8.029.118 0-.307.315-.57.7-.585.599-.024.584-.078-.1-.372-.596-.256-.637-.351-.162-.372.832-.037 1.029-7.228.198-7.228-.273 0-.919-.45-1.436-1-.517-.55-1.166-1-1.442-1-.277 0-.879-.528-1.339-1.173-.459-.646-1.237-1.231-1.727-1.3-1.04-.148-.934.696-1.314-10.527l-.285-8.4 1.169-.849c1.132-.823 2.092-.954 3.338-.454.33.132 1.243.347 2.028.476a3.48 3.48 0 0 1 2.274 1.38c.532.72 1.537 1.347 2.717 1.695 1.029.304 2.256.933 2.726 1.398.47.466 1.601 1.224 2.512 1.686.911.462 2.336 1.481 3.167 2.265.831.783 2.875 2.348 4.543 3.477 1.668 1.128 3.914 2.923 4.99 3.989 1.077 1.065 2.116 1.937 2.311 1.937.467 0 4.332 2.893 4.332 3.244 0 .15.914.859 2.031 1.576 1.116.716 2.53 1.77 3.141 2.341.612.572 1.765 1.489 2.564 2.039.799.55 1.879 1.63 2.4 2.4 2.173 3.211 8.155 8.4 9.684 8.4.505 0 .58-14.053.58-109V0h-4l-.003 2.1c-.002 1.155-.185 3.63-.408 5.5-.562 4.721-1.902 23.519-2.181 30.6-.232 5.882-.591 9.703-1.009 10.744-.189.471-.442 1.32-.562 1.887-.768 3.636-7.15 1.78-9.555-2.778-.421-.799-1.107-1.825-1.524-2.279-.417-.454-.764-1.084-.77-1.4-.007-.316-.456-1.294-.998-2.174-.542-.88-.987-1.91-.988-2.289-.002-.64-.981-3.046-2.811-6.911-.417-.88-.879-2.14-1.027-2.8-.149-.66-.598-1.936-.998-2.836-1.558-3.503-2.442-8.021-3.045-15.564-.334-4.18-.695-8.545-.801-9.7l-.194-2.1h-27.163c-31.281 0-28.171-.562-25.569 4.623.877 1.747 1.597 3.499 1.6 3.893.003.394.379 1.221.836 1.839.768 1.039 1.643 5.148.902 4.237-.183-.225-.782-.638-1.332-.92-2.551-1.304-3.253-1.799-4.659-3.282-.88-.93-1.877-1.59-2.4-1.59-.491 0-1.005-.18-1.141-.4-.136-.22-.584-.4-.995-.4-.411 0-1.023-.275-1.36-.612-.617-.617-3.652-1.847-3.914-1.586-.572.572-4.98-2.579-5.712-4.083L297.4.037 253.915.019 210.431 0l-.423 1.569c-.232.863-.612 1.632-.845 1.71-1.132.377-1.589 5.641-1.486 17.115.101 11.32-.207 14.143-1.413 12.937-.145-.145-.285.171-.31.702-.033.678-.101.758-.23.267-.213-.814-.774-.922-1.044-.2-.119.317-.299.207-.493-.3-.168-.44-.617-1.16-.997-1.6-.38-.44-.914-1.52-1.185-2.4-.272-.88-.713-1.96-.98-2.4-.267-.44-.719-1.652-1.005-2.692-.286-1.041-.737-2.073-1.003-2.294-.265-.22-.801-1.438-1.19-2.707-.39-1.269-.96-2.817-1.268-3.439-.307-.623-.562-1.433-.565-1.8-.012-1.361-1.463-5.277-2.281-6.158-.851-.915-1.713-4.431-1.713-6.983V0h-79.6C68.62 0 32.802.135 32.805.3M332.4 9c0 1.601-.682 1.835-1.787.615-.912-1.008-.525-2.015.774-2.015.891 0 1.013.169 1.013 1.4m29.127.303c.108.944-.017 1.097-.9 1.097-.809 0-1.027-.198-1.027-.933 0-1.847 1.716-1.992 1.927-.164M335.925 17.5c.211 2.18-1.143 1.835-1.685-.43-.242-1.01-.173-1.116.645-1 .706.1.944.426 1.04 1.43M135.6 24.6c0 .622-.227 1-.6 1-.33 0-.6.18-.6.4 0 .22-.63.4-1.4.4-.77 0-1.4-.18-1.4-.4 0-.22-.27-.4-.6-.4-.72 0-.787-.853-.12-1.52 1.013-1.013 4.72-.604 4.72.52m144.683.7c1.993 2.179 2.434 4.318 1.817 8.818-.534 3.895-5.318 2.749-7-1.676-1.931-5.083 2.05-10.569 5.183-7.142M152 28l.528 1.6 2.636.04c3.498.053 4.559.387 4.827 1.521.182.772.528.959 2.014 1.088 3.128.271 4.072 1.3 1.295 1.411-1.207.048-1.285.092-.4.227.761.115 1.1.403 1.1.936 0 .424.36.995.8 1.27.549.343.803.94.81 1.903.005.772.176 2.124.379 3.004 1.057 4.577-.417 7.4-3.865 7.4-2.264 0-2.433.208-1.872 2.3.165.614.544.9 1.195.9.75 0 .953.213.953 1s.203 1 .955 1c1.281 0 1.589 6.75.451 9.9-.295.815-1.857.591-2.09-.3-.302-1.156-1.316-1.002-1.316.2 0 .8-.2 1-1 1-.622 0-1 .227-1 .6 0 .964-1.764.706-2.725-.4-.478-.55-1.141-1-1.472-1-.69 0-.861-2.193-.203-2.6.22-.136.4-.543.4-.904 0-.51-.107-.549-.48-.176-.993.993-1.477.503-1.599-1.62l-.121-2.1-1.9-.122c-1.574-.101-1.9-.255-1.9-.9 0-.428-.18-.778-.4-.778-.22 0-.4-.45-.4-1s-.193-1-.429-1c-.553 0-1.571-1.018-1.571-1.571 0-.236-.241-.429-.536-.429-.788 0-1.365-1.595-1.167-3.227.218-1.795-.553-4.743-1.318-5.036-.318-.123-.579-.563-.579-.98 0-.493-.282-.757-.81-.757-.577 0-.878-.339-1.046-1.178-.16-.803-.507-1.217-1.09-1.3-.769-.11-.866-.409-.972-3.022l-.117-2.9-1.283-.005c-2.81-.012-4.418-1.575-1.978-1.923.574-.082.896-.405.896-.9 0-.714.317-.772 4.2-.772 3.806 0 4.2-.069 4.2-.733 0-1.163.329-1.267 4.003-1.267h3.469L152 28m173.6 6c0 1.156-.167 1.6-.6 1.6-.373 0-.6-.378-.6-1 0-.55-.18-1-.4-1-.22 0-.4-.27-.4-.6 0-.373.378-.6 1-.6.9 0 1 .16 1 1.6M158.1 54.198c-.778.884-.593 1.402.5 1.402.8 0 1-.2 1-1 0-1.098-.718-1.29-1.5-.402m54.3 23.239c0 .589.233.963.6.963.33 0 .6-.075.6-.167 0-.092.1-.429.223-.748.139-.362-.086-.661-.6-.795-.662-.173-.823-.027-.823.747m90.806 12.439c.003.398.181.994.394 1.324.303.469.389.366.394-.476.003-.592-.174-1.188-.394-1.324-.22-.136-.397.078-.394.476m1.194 2.63c0 .602.159 1.094.353 1.094.195 0 .477.405.627.9.151.495.361.692.468.437.106-.254-.176-1.151-.627-1.994-.788-1.469-.821-1.487-.821-.437m67.175 6.759c.443.476 1.003 1.511 1.243 2.3.241.789.582 1.795.758 2.235.909 2.27 2.02 6.23 2.244 8 .139 1.1.421 2.664.626 3.476.204.812.449 2.342.544 3.4.094 1.058.354 2.644.578 3.524 1.288 5.072-.08 12.297-1.537 8.117-.246-.705-.77-1.65-1.166-2.1-.395-.449-.954-1.807-1.243-3.017-.289-1.21-.664-2.38-.834-2.6-.17-.22-.788-1.84-1.374-3.6-.587-1.76-1.505-3.952-2.04-4.871-.536-.919-.974-2.142-.974-2.716 0-.575-.36-1.533-.8-2.129-3.047-4.13.689-13.546 3.975-10.019M174.8 105.6c0 .22.36.4.8.4.44 0 .8-.18.8-.4 0-.22-.36-.4-.8-.4-.44 0-.8.18-.8.4m-.8 2.8c0 .22-.405.397-.9.394-.728-.005-.785-.08-.3-.394.776-.501 1.2-.501 1.2 0M32.267 151.867c-.33.329-.338 2.028-.015 3.233.229.852.44.9 3.995.9 3.662 0 3.753.023 3.753.931 0 .806.16.907 1.2.754.877-.128 1.2-.015 1.2.423 0 .604.328.76 3.6 1.71 1.538.448 1.935.437 2.727-.074.724-.467 1.052-.493 1.5-.122.466.387.573.321.573-.354 0-.551-.458-1.048-1.36-1.476-.749-.355-1.458-1.019-1.578-1.476-.202-.772-.405-.812-2.871-.559-2.491.255-2.7.212-3.416-.698-.886-1.126-2.756-1.736-3.187-1.039-.415.671-1.988.065-1.988-.767 0-1.007-3.379-2.14-4.133-1.386M42.4 155c0 .373.378.6 1 .6s1-.227 1-.6-.378-.6-1-.6-1 .227-1 .6m325.255 15.3c-.041 1.575-.205 2.1-.655 2.1-.33 0-.6.27-.6.6 0 .33-.18.6-.4.6-.22 0-.4.63-.4 1.4 0 1.187.137 1.399.9 1.394 1.855-.013 1.99-.389 1.585-4.436-.29-2.908-.387-3.283-.43-1.658m-50.055 6.633c0 .294-.27.534-.6.534-.33 0-.6-.24-.6-.534 0-.293.27-.533.6-.533.33 0 .6.24.6.533m-186.4 8.691c0 .98.158 1.525.4 1.376.22-.136.4-.867.4-1.624 0-.757-.18-1.376-.4-1.376-.22 0-.4.731-.4 1.624m-100.377 3.348c-.437.527-.416.628.128.628.835 0 .87 1.718.049 2.4-.451.374-.6 1.38-.6 4.049 0 2.89.112 3.551.6 3.551.489 0 .6.667.6 3.6 0 1.98-.14 3.6-.311 3.6-.17 0-.241.72-.158 1.6.178 1.857.869 2.175.869.4 0-1.289.982-1.658 1.92-.72.373.373.587.373.96 0 .706-.706 4.51-.615 5.123.123.315.38.425 1.27.298 2.4l-.203 1.797 3.851-.002 3.851-.002.074-3.642c.041-2.003.19-3.937.332-4.298.371-.943.451-6.456.094-6.456-.165 0-.313-.585-.329-1.3-.067-2.948-2.243-4.568-6.271-4.668-.715-.018-1.3-.212-1.3-.432 0-1.34-2.778-2.618-2.825-1.3-.02.536-.11.49-.387-.2-.213-.528-.74-.926-1.275-.962-1.984-.136-2.948-.272-3.741-.527-.531-.171-1.015-.041-1.349.361m103.32.701c-.975 1.526-1.673 4.578-.943 4.127.22-.136.4-.524.4-.863 0-.339.294-1.235.652-1.991.639-1.346.556-2.312-.109-1.273M129.855 193c-.126.33-.516.6-.866.6s-.538.16-.417.355c.121.195-.046.574-.369.843-.832.69-7.776.137-8.076-.643-.78-2.033-8.468 2.233-8.514 4.725-.007.374-.328.864-.713 1.088-.617.359-.622.409-.047.42 1.115.021 3.361 2.908 3.912 5.03.284 1.09 1.024 3.692 1.645 5.782.622 2.09 1.214 4.34 1.316 5 .309 2.002 1.072 3.224 2.303 3.689 1.322.498 1.474 1.32.569 3.057-.329.63-.598 2.169-.598 3.42s-.199 2.473-.443 2.717c-.324.324-.216.564.4.894.856.458 1.216 2.423.443 2.423-.22 0-.4.348-.4.773 0 .425-.341.881-.757 1.013-.822.261-1.229 1.324-1.238 3.234-.003.671-.197 1.412-.431 1.646-.301.301-.242.609.2 1.051.71.71.825 1.483.221 1.483-.245 0-.364 1.105-.3 2.796.058 1.538.204 2.798.325 2.8.742.013 1.185-1.287 1.221-3.576.035-2.217.09-2.412.36-1.268.176.743.499 1.463.719 1.6.801.497.741 3.248-.071 3.248-.303 0-.777.272-1.053.605-.323.39-.662.472-.95.233-.992-.823-1.846.543-1.846 2.953 0 2.054.081 2.281.75 2.106.785-.205 1.238 1.734 1.247 5.342.003 1.44 1.918 2.269 2.62 1.134.505-.818 1.383-.353 1.37.727-.015 1.319-.729 2.353-1.764 2.553-.957.186-1.315 1.147-.428 1.147.845 0 1.596.753 1.895 1.9.157.602.058.9-.3.9-.295 0-.65.36-.79.8-.403 1.269-1.4.984-1.4-.4 0-.717.192-1.16.476-1.1.262.055.545-.215.63-.6.2-.917-1.713-.979-2.063-.067-1.147 2.988.339 6.032 2.657 5.443.52-.132.325 1.848-.2 2.036-.275.098-.388.3-.25.449.137.15 1.511-1.491 3.052-3.645 1.849-2.583 2.649-4.016 2.351-4.21-.292-.189-.218-.296.209-.3.365-.003 1.355-.933 2.2-2.066 3.492-4.679 3.364-4.445 2.797-5.117-.289-.343-.83-1.253-1.203-2.023-.373-.77-.846-1.67-1.052-2-5.699-9.153-5.798-9.398-5.228-12.838.269-1.629.578-3.502.685-4.162.15-.921.097-1.06-.227-.6-.319.454-.423.097-.428-1.467-.004-1.274-.198-2.144-.506-2.268-.295-.119-.209-.215.21-.233.482-.022.788.358.953 1.182.327 1.634.375 1.523 1.145-2.617 1.325-7.126 2.061-15.023 1.233-13.224-.595 1.291-.682 1.169-1.253-1.773-.15-.77-.782-2.39-1.405-3.6-1.273-2.474-1.742-3.652-1.641-4.116.038-.174-.108-.648-.325-1.052-.471-.881.661-2.432 1.775-2.432 1.116 0 3.808 1.686 3.808 2.385 0 .35.303 1.07.674 1.599l.674.962.539-2.373c.965-4.241 1.27-5.532 1.931-8.173 1.169-4.673 1.169-4.676.118-4.636-.735.028-.963-.201-1.063-1.064-.138-1.199-.652-1.452-1.018-.5m171.459 13.808c.675.788.664.802-.411.545-1.477-.353-1.759-.539-1.486-.981.375-.607 1.158-.427 1.897.436m-11.15 3.232c-.827.913-1.516.591-.959-.449.244-.456.653-.667 1.018-.527.539.207.532.323-.059.976M125.6 229c0 .55-.18 1-.4 1-.447 0-.548-1.318-.133-1.733.441-.441.533-.314.533.733m-2.361 7.58c.198.209.346 1.379.327 2.6l-.034 2.22-.509-2-.613-2.4c-.058-.22-.063-.85-.011-1.4.08-.849.123-.879.286-.2.106.44.355.971.554 1.18m-.439 7.244c0 .58-.173.916-.4.776-.22-.136-.4-.597-.4-1.024 0-.427.18-.776.4-.776.22 0 .4.461.4 1.024m1.948 3.799c.331.95.298 1.177-.169 1.177-.318 0-.579-.36-.579-.8 0-.904-.415-1.025-1.113-.327-.821.821-.999.027-.226-1.007.853-1.14 1.452-.865 2.087.957M122 248.8c0 .22.27.4.6.4.33 0 .6.341.6.757 0 .417-.27.861-.6.988-.33.126-.6.585-.6 1.019 0 1.271-.765 1.38-1.224.174-.338-.89-.496-.994-.793-.524-.292.461-.372.395-.377-.314-.005-.689.223-.9.97-.9 1.2 0 1.655-.639 1.009-1.418-.34-.41-.35-.582-.034-.582.247 0 .449.18.449.4m2.8 3.4c0 .33-.18.6-.4.6-.22 0-.4-.27-.4-.6 0-.33.18-.6.4-.6.22 0 .4.27.4.6m-.871 1.933c.075.386-.126.667-.476.667-.743 0-1.192-.652-.84-1.221.362-.586 1.161-.249 1.316.554M122 255.6c0 .444-.267.8-.6.8-.333 0-.6-.356-.6-.8 0-.444.267-.8.6-.8.333 0 .6.356.6.8m7.16 6.025c-.775.479-.964.103-.332-.659.386-.465.59-.512.706-.164.09.27-.078.64-.374.823M117.915 264c-.097.66-.028 1.2.154 1.2s.331-.54.331-1.2c0-.66-.07-1.2-.155-1.2-.085 0-.233.54-.33 1.2m6.966.479c.583-.583 1.119-.621 1.119-.079 0 .22-.27.4-.6.4-.33 0-.6.298-.6.662 0 .595-.081.589-.8-.062-.44-.398-.794-1.011-.787-1.362.01-.523.118-.498.601.141.457.604.696.671 1.067.3m-.881 3.659c0 .833-1.859 2.797-2.356 2.489-.676-.418-.549-2.227.156-2.227.33 0 .6-.18.6-.4 0-.22.36-.4.8-.4.44 0 .8.242.8.538m-4.511 6.667c-.379.442-.689.991-.689 1.219 0 .228-.45.831-1 1.341s-1 1.131-1 1.381-.315.796-.7 1.214c-.385.417-1.15 1.403-1.7 2.191-.55.787-1.216 1.354-1.48 1.26-.281-.1-.389.065-.261.399.12.313-.024.829-.32 1.145-.297.317-.989 1.163-1.539 1.881-.55.718-1.225 1.53-1.5 1.806-.275.275-.5.617-.5.758 0 .141-.225.508-.5.815-1.234 1.375-1.57 1.849-1.42 1.999.255.254 8.648-10.422 11.411-14.514 2.278-3.374 2.905-4.889 1.198-2.895M163 283.6c.14.227-.196.4-.776.4-.563 0-1.024-.18-1.024-.4 0-.22.349-.4.776-.4.427 0 .888.18 1.024.4m1.678 1.456c-.454.453.142.944 1.146.944 1.097 0 1.308-.587.343-.957-.807-.31-1.17-.307-1.489.013m13.022.009c-.921.371-.513.935.676.935 1.331 0 1.942-.592.989-.958-.706-.271-.945-.268-1.665.023m-4.9.391c0 .477 1.396 1.319 2.2 1.325.64.005.684-.067.219-.361-.319-.202-.706-.29-.858-.196-.152.094-.38-.098-.507-.426-.223-.583-1.054-.852-1.054-.342m-22.01 1.514c-.538.538-.938-.007-.618-.842.23-.598.326-.617.633-.12.218.353.212.735-.015.962m-1.99.506c0 .787-.965.439-1.129-.408-.09-.464.061-.592.5-.424.346.133.629.507.629.832m11.2.124c0 .22.27.4.6.4.33 0 .6-.18.6-.4 0-.22-.27-.4-.6-.4-.33 0-.6.18-.6.4m-89.747 2.206c-.139.363-.253 1.02-.253 1.46 0 1.09.965.713 1.134-.443.167-1.146-.525-1.945-.881-1.017m34.652 4.494c-.704.825-1.285 1.765-1.292 2.089-.008.352.259.192.664-.4.372-.544.777-1.079.9-1.189.804-.721 1.685-2 1.377-2-.203 0-.945.675-1.649 1.5M128 328.624c0 .317-.18.576-.4.576-.22 0-.4-.371-.4-.824 0-.453.18-.712.4-.576.22.136.4.507.4.824m-5.67 3.789c-.289.653-.63 1.187-.758 1.187-.358 0 .072-2.38.474-2.629.195-.12.381-.613.414-1.095.045-.661.101-.603.228.237.092.612-.069 1.647-.358 2.3m-3.13 5.187c0 .22.27.4.6.4.33 0 .6-.18.6-.4 0-.22-.27-.4-.6-.4-.33 0-.6.18-.6.4m-22 4.233c0 .707.861.584 1.108-.158.087-.261-.126-.475-.475-.475a.635.635 0 0 0-.633.633m53.696 5.65c-1.1.211-1.908 1.711-2.215 4.108-.126.986-.421 1.856-.655 1.934-.234.078-.426.577-.426 1.108 0 .593-.232.967-.6.967-.373 0-.6.378-.6 1 0 .55-.18 1-.4 1-.22 0-.4.45-.4 1 0 .8.2 1 1 1s1-.2 1-1c0-.55.18-1 .4-1 .22 0 .4-.27.4-.6 0-.33.27-.6.6-.6.373 0 .6-.378.6-1 0-.8.2-1 1-1 .55 0 1-.18 1-.4 0-.22-.45-.4-1-.4-.675 0-1-.221-1-.68 0-.529.107-.573.48-.2.264.264.894.48 1.4.48.807 0 .92.197.92 1.6 0 .88.193 1.6.429 1.6.553 0 1.571-1.018 1.571-1.571 0-.236.45-.429 1-.429s1-.18 1-.4c0-.22.27-.4.6-.4.373 0 .6-.378.6-1s-.227-1-.6-1c-.33 0-.6-.322-.6-.715 0-.805-3.267-3.715-4.076-3.631-.288.03-.931.133-1.428.229m-2.657 10.811c-.131.132-.239.68-.239 1.218 0 .879-.133.958-1.3.779-.844-.13-1.546.016-2 .416-.578.509-.705.519-.728.055-.016-.314-.168-.209-.346.238-.193.487-.142.915.129 1.094.258.17.067.296-.455.3-.648.004-.9.243-.9.853 0 .682.174.8.9.605.495-.133 1.215-.244 1.6-.247.385-.003.7-.275.7-.605 0-.419.422-.6 1.4-.6 1.207 0 1.4-.131 1.4-.951 0-.523.27-1.175.6-1.449.33-.274.6-.727.6-1.006 0-.566-.987-1.073-1.361-.7M152.4 361c0 .373.378.6 1 .6s1-.227 1-.6-.378-.6-1-.6-1 .227-1 .6" fill="#a74033"/><path d="M297.6.453c0 1.265 1.846 3.26 4.042 4.368 1.297.655 2.358 1.106 2.358 1.003 0-.361 3.238.957 3.845 1.564.337.337.949.612 1.36.612.411 0 .859.18.995.4.136.22.65.4 1.141.4.523 0 1.52.66 2.4 1.59 1.406 1.483 2.108 1.978 4.659 3.282.55.282 1.149.695 1.332.92.741.911-.134-3.198-.902-4.237-.457-.618-.833-1.445-.836-1.839-.003-.394-.723-2.146-1.6-3.893-.877-1.747-1.594-3.502-1.594-3.9 0-.675-.571-.723-8.6-.723-6.135 0-8.6.13-8.6.453M369.32 2.1c.106 1.155.467 5.52.801 9.7.603 7.543 1.487 12.061 3.045 15.564.4.9.849 2.176.998 2.836.148.66.61 1.92 1.027 2.8 1.83 3.865 2.809 6.271 2.811 6.911.001.379.446 1.409.988 2.289.542.88.991 1.858.998 2.174.006.316.353.946.77 1.4.417.454 1.103 1.48 1.524 2.279 2.405 4.558 8.787 6.414 9.555 2.778.12-.567.373-1.416.562-1.887.418-1.041.777-4.862 1.009-10.744.279-7.081 1.619-25.879 2.181-30.6.223-1.87.406-4.345.408-5.5L396 0h-26.874l.194 2.1M213.191 7.209c-1.794 1.921-2.02 8.448-.775 22.391 1.823 20.415 2.858 42.06 2.036 42.568-.249.153-.458.584-.465.956-.02 1.012-1.476 2.588-2.076 2.247-1.322-.75-2.312-2.005-2.32-2.941-.02-2.308-2.699-4.213-5.364-3.813-1.005.151-1.827.433-1.827.628 0 .521-1.107.433-1.286-.102-.167-.501-3.1 1.2-3.109 1.803-.009.602-3.374 3.42-4.105 3.438-.385.009-1.019.335-1.41.726-.39.39-1.446.93-2.345 1.199-2.204.661-3.908 2.012-3.364 2.668.594.716-2.446 3.049-4.561 3.5-1.978.422-4.62 2.453-4.62 3.552 0 .424-.251.771-.557.771-.676 0-1.043.863-1.043 2.449 0 .65-.348 1.865-.774 2.7-.809 1.586-1.275 10.575-.629 12.148.185.452.076.777-.312.926-.749.287.136 2.346 1.181 2.747.524.201.347.533-.923 1.739-.864.82-2.332 2.419-3.262 3.553a77.357 77.357 0 0 1-3.586 4.01c-5.505 5.659-8.865 9.666-8.882 10.591-.007.365-.486 1.625-1.063 2.8a102.121 102.121 0 0 0-1.572 3.337c-.286.66-.893 2.053-1.349 3.096-.456 1.042-.829 1.999-.829 2.125 0 .127-.45 1.214-1 2.416-.55 1.203-1 2.289-1 2.414 0 .244-.485 1.385-2.152 5.06-.576 1.271-1.048 2.578-1.048 2.905 0 .327-.171.907-.381 1.289-.209.382-.679 1.415-1.045 2.295a73.51 73.51 0 0 1-1.619 3.537c-.525 1.065-.955 2.101-.955 2.302 0 .201-.45 1.298-1 2.438-.55 1.14-1 2.495-1 3.01 0 .516-.27 1.042-.6 1.168-.367.141-.6.748-.6 1.564 0 .734-.18 1.445-.4 1.581-.22.136-.4.651-.4 1.144 0 .493-.155 1.067-.344 1.276-.189.209-.664 1.37-1.055 2.58a97.15 97.15 0 0 1-1.013 3c-1.157 3.054-1.633 4.664-1.499 5.066.085.256 1.022-2.039 2.082-5.1 1.06-3.061 2.165-6.106 2.455-6.766.29-.66.875-2.28 1.3-3.6.823-2.561 3.76-9.939 5.844-14.682.358-.816 1.547-3.744 2.641-6.507 1.095-2.763 2.151-5.336 2.348-5.718.196-.381 1.126-2.583 2.066-4.893.94-2.31 2.309-5.518 3.042-7.129.733-1.611 1.333-3.023 1.333-3.138 0-.115.962-1.227 2.137-2.471 3.033-3.211 4.075-4.346 7.454-8.121 3.736-4.173 5.775-6.139 7.763-7.487 2.314-1.57 3.042-2.089 5.537-3.954 1.251-.935 2.37-1.7 2.487-1.7.117 0 .53-.262.917-.583.388-.32 2.145-1.57 3.905-2.776 1.76-1.207 5.898-4.05 9.195-6.317 3.297-2.268 6.531-4.357 7.187-4.641.656-.285 1.288-.663 1.405-.84.346-.523 3.682-4.455 5.448-6.422 1.593-1.774 5.064-6.208 7.644-9.767 1.096-1.512 1.582-1.83 3.4-2.227 2.908-.634 4.453-1.045 7.721-2.053a72.37 72.37 0 0 1 5.6-1.437c1.54-.315 3.52-.725 4.4-.911 11.13-2.346 15.383-2.61 17.618-1.091.862.586 1.748 1.065 1.969 1.065.221 0 1.394.474 2.607 1.054 3.158 1.51 6.043 2.733 8.806 3.733.77.279 2.03.768 2.8 1.087 1.346.558 1.801.742 4 1.617.55.219 1.681.693 2.514 1.054.832.36 1.688.655 1.902.655.213 0 1.321.45 2.461 1s2.363 1 2.718 1 .816.15 1.025.334c.209.184 1.28.652 2.38 1.042 4.676 1.654 3.958.805 7.798 9.224.402.88 1.466 3.164 2.366 5.076.9 1.912 1.636 3.57 1.636 3.685 0 .115.828 1.97 1.84 4.124a574.593 574.593 0 0 1 2.836 6.115c.548 1.21 2.885 6.036 5.194 10.725l4.199 8.525-.138 18.075-.139 18.075-1.296 2.728c-.713 1.5-1.296 2.832-1.296 2.959 0 .127-.746 2.14-1.657 4.472-.911 2.333-1.796 4.601-1.966 5.041-.171.44-.397 1.16-.503 1.6-.106.44-.943 2.87-1.86 5.4-.917 2.53-2.268 6.31-3.001 8.4a586.965 586.965 0 0 1-2.273 6.361l-.94 2.561-3.648 1.839a1025.642 1025.642 0 0 1-8.951 4.431c-6.263 3.061-6.219 3.003-9.21 12.008-.183.55-.885 2.529-1.562 4.397-1.275 3.523-1.49 4.448-.88 3.783.191-.209.678-1.46 1.081-2.78.403-1.32.965-2.85 1.249-3.4.284-.55.517-1.315.519-1.7.001-.385.182-.7.402-.7.22 0 .4-.326.4-.724 0-.397.264-1.072.587-1.5.323-.427.593-1.235.6-1.796.007-.561.238-1.245.513-1.52.491-.491.55-.659.65-1.86.028-.33.329-.6.669-.6.341 0 1.036-.45 1.546-1 .526-.568 1.372-1 1.957-1 .567 0 1.142-.18 1.278-.4.136-.22.588-.4 1.004-.4.416 0 .9-.244 1.076-.542.458-.776 2.43-1.069 2.687-.399.283.736 1.433.688 1.433-.059 0-.33-.27-.6-.6-.6-.33 0-.6-.18-.6-.4 0-.536 1.329-.511 1.875.035.313.313.518.3.731-.045.163-.264.048-.645-.255-.847-.366-.244-.18-.281.552-.111.696.162 1.643 0 2.567-.438l1.463-.695-.966-.535-.967-.536 1.1-.014c.605-.008 1.1-.194 1.1-.414 0-.22.289-.4.643-.4.407 0 .558.22.412.6-.126.33-.075.6.115.6.189 0 .46-.3.6-.667.195-.508.367-.556.723-.2.676.676 1.107.574 1.107-.264 0-.584-.24-.695-1.2-.554-.72.105-1.2-.002-1.2-.27 0-.245.283-.445.629-.445.406 0 .603-.318.555-.9-.141-1.746.059-2.632.356-1.576.143.508.44.868.66.8a.398.398 0 0 0 .253-.524c-.411-1.112-.515-3.8-.148-3.8.225 0 .721-1.305 1.103-2.9s.851-3.071 1.043-3.28c.192-.209.349-.783.349-1.276s.16-.995.355-1.116c.195-.121.481-.896.635-1.724.155-.827.419-1.684.588-1.904.169-.22.404-.76.523-1.2.54-1.992 4.035-11.218 5.91-15.6.377-.88.81-2.005.964-2.5.153-.495.447-.9.652-.9.205 0 .373-.36.373-.8 0-.44.18-.8.4-.8.22 0 .4.26.4.579 0 1.538 6.51 4.412 7.914 3.493.543-.356 2.681-.137 10.886 1.115 1.43.218 2.811.401 3.069.405.258.004 1.004.458 1.658 1.008.654.55 1.433 1.001 1.731 1.002.298.001 1.352.54 2.342 1.198.99.658 2.123 1.197 2.519 1.198.395.001 1.025.541 1.4 1.199.374.659 1.002 1.199 1.394 1.2 1.533.006 3.487 1.143 3.487 2.029 0 .663.184.819.781.663.43-.112 1.086.018 1.457.289.463.339 1.192.394 2.319.175 2.47-.478 2.643-.436 2.643.647 0 .55.202 1 .449 1 .33 0 .328.145-.005.547-.726.875.461 1.562 2.328 1.346.879-.102 1.649-.057 1.713.099.929 2.289 4.315-.973 4.315-4.156 0-1.692.079-1.836 1-1.836.622 0 1-.227 1-.6 0-.33.193-.6.429-.6.553 0 1.571-1.018 1.571-1.571 0-.236.27-.429.6-.429.373 0 .6-.378.6-1s-.227-1-.6-1c-.96 0-.708-1.759.4-2.8 1.53-1.438 1.291-3.472-.681-5.806-.501-.592-.755-1.939-.957-5.068-.234-3.612-.384-4.291-.988-4.449-.51-.133-.783-.737-.963-2.131-.327-2.53-1.374-6.076-1.889-6.394-.222-.137-.687-.903-1.034-1.701-.645-1.483-.721-1.751-.827-2.924-.034-.37-.416-.786-.85-.924-.684-.217-.756-.49-.543-2.046.135-.988.057-2.192-.173-2.677-.231-.484-.715-2.001-1.076-3.372-.361-1.37-1.098-3.491-1.637-4.711-.54-1.221-.982-2.54-.982-2.931s-.656-2.321-1.458-4.288c-2.873-7.05-5.655-15.294-5.998-17.778-.265-1.919-.436-2.317-3.508-8.201-.46-.88-1.286-2.086-1.836-2.681a58.396 58.396 0 0 1-2.158-2.52c-.657-.818-1.391-1.35-1.7-1.231-.343.132-.542-.081-.542-.58 0-.433-.258-.787-.573-.787-.329 0-.628-.47-.7-1.1-.1-.864-.363-1.127-1.227-1.227-1.194-.137-1.267-.53-1.108-5.92.046-1.529-.098-2.108-.565-2.287-.345-.133-.627-.654-.627-1.159s-.344-1.861-.766-3.013c-.421-1.152-.669-2.094-.551-2.094s-.015-.278-.297-.617c-.367-.442-.389-.74-.08-1.049.55-.55-.192-2.334-.97-2.334-.295 0-.536-.227-.536-.505s-.392-.683-.872-.9c-.533-.242-1.041-1.016-1.31-1.995-.382-1.396-.654-1.669-2.128-2.138-2.053-.653-2.516-2.216-.59-1.991 1.032.121 1.108.024 1.223-1.575.121-1.665-1.005-3.051-1.433-1.765-.087.26-.323.372-.524.248s-.366-.036-.366.197-.27.424-.6.424c-.33 0-.6-.27-.6-.6 0-.33-.18-.6-.4-.6-.558 0-.5-1.451.096-2.405.395-.633.395-.957 0-1.59-.273-.437-.496-1.067-.496-1.4a.604.604 0 0 0-.6-.605c-.33 0-.6.276-.6.614 0 1.738-2.305-2.125-2.575-4.314-.257-2.091-.371-2.3-1.254-2.3-.534 0-.971-.18-.971-.4 0-.808-1.152-.371-1.318.5-.094.495-.101.17-.014-.721l.157-1.621-1.412.165c-1.298.151-1.413.08-1.413-.879 0-1.312-1.187-1.451-1.228-.144-.041 1.323-.705-.284-.744-1.8-.024-.925-.203-1.101-1.128-1.106-.605-.003-1.37-.181-1.7-.394-.43-.278-.003-.389 1.5-.394 1.597-.005 2.1-.15 2.1-.606 0-.419-.422-.6-1.4-.6-.77 0-1.4-.18-1.4-.4 0-.22-.27-.4-.6-.4-.33 0-.6-.27-.6-.6 0-.33-.354-.6-.786-.6-.432 0-.983-.369-1.224-.819-.241-.451-.878-.986-1.414-1.19-.72-.274-.976-.671-.976-1.511 0-1.19-1.411-2.88-2.404-2.88-.304 0-1.019-.447-1.589-.993-2.459-2.356-6.415-.751-5.024 2.039.695 1.394.838 6.212.306 10.354-.197 1.54-.279 3.568-.181 4.508.097.939-.02 1.945-.262 2.236-.241.291-.315.653-.164.804.316.317.457 8.654.156 9.245-.626 1.229-.942 12.835-.402 14.769.33 1.185.315 1.813-.066 2.6-.276.571-.63 1.938-.787 3.038-.157 1.1-.532 2.6-.834 3.333-.53 1.287-.506 1.371.712 2.459 1.304 1.165 1.174 2.008-.309 2.008-.445 0-.785.439-.961 1.24-.352 1.604.422 2.517.957 1.128.334-.869.402-.893.665-.241.164.407.094.926-.16 1.18-.656.656-.558 1.664.308 3.17.962 1.672 1.462 3.923.871 3.923-.238 0-.432-.167-.432-.371s-.606-1.689-1.347-3.3c-.741-1.611-1.473-3.334-1.627-3.829-.154-.495-.448-.9-.653-.9-.205 0-.373-.338-.373-.751 0-.966-.757-1.58-2.338-1.897-.694-.138-1.262-.409-1.262-.602 0-.192-.518-.35-1.151-.35s-1.366-.259-1.629-.576c-.263-.317-.87-.662-1.349-.767-.479-.104-.241-.171.529-.148 2.765.084 4.624-.928 2.7-1.469-.829-.233-.846-.295-.219-.777.639-.491.637-.57-.043-1.293-.9-.957-2.078-3.909-2.303-5.77-.202-1.672-1.188-4.495-2.21-6.326-.798-1.43-1.407-5.228-1.63-10.175-.222-4.925-3.21-7.329-5.986-4.817-.764.692-3.279 1.701-4.264 1.712-.494.005-2.391-1.502-5.182-4.116-.515-.483-1.372-1.553-1.905-2.378-.532-.825-1.147-1.5-1.366-1.5-.353 0-3.366-4.25-4.697-6.627-1.187-2.121-7.669-6.973-9.314-6.973-.19 0-1.209-.505-2.263-1.122-1.055-.616-3.048-1.54-4.43-2.053-1.382-.512-3.161-1.448-3.955-2.078-.794-.631-1.667-1.147-1.941-1.147-.273 0-2.284-.89-4.468-1.977-2.184-1.087-4.998-2.361-6.254-2.831-1.255-.47-2.807-1.295-3.448-1.835-.641-.539-2.123-1.311-3.294-1.715-1.17-.404-3.678-1.478-5.573-2.388-4.115-1.976-4.506-2.005-5.964-.445m62.221 19.33c-1.535 3.244-.918 6.646 1.588 8.754 3.371 2.837 5.173 1.301 5.372-4.579.189-5.611-4.851-8.634-6.96-4.175M323.6 33c0 .33.18.6.4.6.22 0 .4.45.4 1 0 .622.227 1 .6 1 .433 0 .6-.444.6-1.6 0-1.44-.1-1.6-1-1.6-.622 0-1 .227-1 .6M213.823 77.485c-.123.319-.223.656-.223.748 0 .092-.27.167-.6.167-.367 0-.6-.374-.6-.963 0-.774.161-.92.823-.747.514.134.739.433.6.795m90.171 13.239c-.005.842-.091.945-.394.476-.511-.79-.511-2.116 0-1.8.22.136.397.732.394 1.324m1.854 4.213c-.107.255-.317.058-.468-.437-.15-.495-.432-.9-.627-.9-.194 0-.353-.492-.353-1.094 0-1.05.033-1.032.821.437.451.843.733 1.74.627 1.994M176.4 105.6c0 .22-.36.4-.8.4-.44 0-.8-.18-.8-.4 0-.22.36-.4.8-.4.44 0 .8.18.8.4m-3.6 2.8c-.485.314-.428.389.3.394.495.003.9-.174.9-.394 0-.501-.424-.501-1.2 0m195.13 67.652c-1.34.849-2.33.402-2.33-1.052 0-.77.18-1.4.4-1.4.22 0 .4-.27.4-.6 0-.33.27-.6.6-.6.45 0 .614-.525.655-2.1.043-1.625.14-1.25.43 1.658.3 3 .269 3.825-.155 4.094m-231.676 9.191a78.318 78.318 0 0 1-.81 2.37c-1.011 2.846-.699 2.873.398.035.543-1.404.894-2.645.782-2.758-.113-.112-.28.046-.37.353m-2.243 6.128c-.226.594-.411 1.303-.411 1.575s-.195.689-.434.928c-.238.238-.373.859-.3 1.38.106.75.247.574.68-.854.3-.99.735-2.205.967-2.699.232-.495.306-1.015.165-1.156-.14-.141-.441.231-.667.826m-1.723 5.562c-.158.403-.277 1.123-.263 1.6.024.823.046.817.415-.108.214-.536.333-1.256.263-1.6-.104-.514-.178-.495-.415.108m-.829 3.667c-.293 1.164-.427 1.74-1.572 6.773l-.539 2.373-.674-.962c-.371-.529-.674-1.249-.674-1.599 0-.699-2.692-2.385-3.808-2.385-1.114 0-2.246 1.551-1.775 2.432.217.404.363.878.325 1.052-.101.464.368 1.642 1.641 4.116.623 1.21 1.255 2.83 1.405 3.6.571 2.942.658 3.064 1.253 1.773.841-1.827.056 6.485-1.232 13.027-.368 1.87-.739 4.21-.824 5.2l-.156 1.8.384-1.6c.212-.88.557-2.59.767-3.8.21-1.21.861-4.81 1.447-8 .585-3.19 1.138-6.34 1.228-7 .221-1.617 1.322-7.264 1.754-9 1.031-4.134 1.658-7.546 1.514-8.229-.126-.599-.23-.503-.464.429m167.958 5.772c-.273.442.009.628 1.486.981 1.075.257 1.086.243.411-.545-.739-.863-1.522-1.043-1.897-.436m-10.212 3.219c-.557 1.04.132 1.362.959.449.591-.653.598-.769.059-.976-.365-.14-.774.071-1.018.527M235.6 220.443c-1.87.167-5.38.466-7.8.663s-4.793.569-5.274.826c-.48.258-2.1.489-3.6.514-1.499.026-2.366.14-1.926.253 1.265.327 13.341-.658 16.066-1.309 1.356-.325 3.606-.593 5-.596 1.784-.004 2.356-.121 1.934-.394-.33-.213-.69-.359-.8-.325-.11.035-1.73.2-3.6.368M277.786 229c-1.212 1.199-11.174 8.657-11.967 8.96-.23.088-.509.286-.619.44-.11.153-2.52 1.944-5.357 3.978-5.003 3.589-6.881 4.629-10.643 5.896-.99.333-2.34.84-3 1.127-1.122.488-2.588 1.026-9.9 3.633-1.595.569-3.71 1.364-4.7 1.767-.99.403-2.97 1.121-4.4 1.595-1.43.473-2.96 1.014-3.4 1.201-1.436.61-10.469 3.959-13.065 4.845-1.394.475-2.715.996-2.935 1.157-.22.162-.85.39-1.4.507-2.142.456-4.03 1.429-10.2 5.257a785.759 785.759 0 0 1-13.2 7.966c-3.74 2.199-6.89 4.104-7 4.234-.229.271-2.811 1.775-4.629 2.695-1.306.662-1.327.653-6.381-2.561a14.15 14.15 0 0 0-1.39-.775c-.33-.15-1.536-.869-2.681-1.598-1.144-.728-2.188-1.324-2.319-1.324-.131 0-1.223-.63-2.427-1.4-2.851-1.824-2.974-1.802-5.008.9a161.916 161.916 0 0 1-2.063 2.7c-.182.22-2.162 2.92-4.4 6-2.238 3.08-4.169 5.69-4.291 5.8-.123.11-1.12 1.343-2.217 2.74-2.138 2.723-7.602 9.409-10.32 12.628a313.848 313.848 0 0 0-3.465 4.2 85.392 85.392 0 0 1-3.701 4.232c-2.206 2.324-2.27 2.761-.845 5.761 2.168 4.565 1.276 10.691-2.102 14.429-7.983 8.837-21.608 4.38-22.54-7.373L95 325.834l-2.049.11c-4.83.259-9.991-3.804-11.79-9.282-3.119-9.502 7.083-19.291 16.795-16.114 2.727.892 2.567.954 4.702-1.848 1.048-1.375 2.017-2.59 2.154-2.7.764-.613 11.374-14.295 13.183-17 3.924-5.867 13.23-18.732 13.696-18.933.17-.074.309-.415.309-.76 0-.358-.507.041-1.185.934-1.796 2.362-13.347 18.589-14.208 19.959-.414.66-2.214 3-3.999 5.2-1.784 2.2-4.131 5.17-5.214 6.6-1.083 1.43-2.155 2.805-2.382 3.055-.95 1.047-4.047 4.713-4.469 5.29-.336.46-.6.512-1 .197-3.151-2.48-11.581-.925-15.335 2.829-8.247 8.247-2.986 23.029 8.215 23.082l2.377.012v2.592c0 10.957 14.621 16.242 22.668 8.195 4.72-4.72 5.637-12.641 2.05-17.717-.458-.648.897-2.828 3.564-5.735 2.632-2.868 16.529-19.834 18.318-22.363.44-.622 1.34-1.804 2-2.627.66-.824 2.19-2.883 3.4-4.577 3.94-5.516 6.409-8.437 7.028-8.312.33.066 4.054 2.181 8.276 4.7 4.222 2.518 7.922 4.579 8.222 4.579.3 0 3.457-1.755 7.015-3.9s7.637-4.44 9.064-5.1c1.427-.66 2.655-1.335 2.728-1.5.074-.165.434-.3.8-.299.46.001.232.373-.733 1.199-1.023.875-1.211 1.198-.7 1.199.385.001.7-.179.7-.399 0-.79 2.355-.431 2.816.43.375.701.317.863-.382 1.045-.905.237-.746.925.213.925.33 0 .492-.175.36-.388-.357-.578 2.44-1.609 4.948-1.822 1.211-.103 2.383-.368 2.604-.589.22-.22.95-.404 1.621-.407.671-.003 1.484-.173 1.807-.377.362-.229.761-.226 1.043.008.302.25.803.107 1.477-.423.56-.441 1.285-.802 1.611-.802.394 0 .681-.6.861-1.8.299-1.993.931-2.29 2.191-1.03.849.849 2.43.708 2.43-.217 0-.304.135-.554.3-.555 1.198-.008 3.344-2.882 3.066-4.105-.163-.711-.261-1.878-.218-2.593.08-1.346-.56-1.728-1.433-.855-.316.316-.775.325-1.58.032l-1.135-.414 1.457-.031c.904-.02 1.545-.26 1.688-.632.126-.33.598-.6 1.048-.6.45 0 1.13-.171 1.512-.381.612-.335 1.491-.715 4.695-2.029.44-.18 1.315-.44 1.944-.578.629-.137 1.889-.577 2.8-.977.911-.4 3.006-1.215 4.656-1.811 3.627-1.311 5.994-2.211 6.8-2.584.33-.153 1.725-.629 3.1-1.059 1.375-.429 2.5-.916 2.5-1.081 0-.165.258-.3.574-.3.316 0 1.081-.207 1.7-.459 1.344-.548 5.998-2.265 7.123-2.628.829-.267 10.122-6.834 11.536-8.151.445-.414 1.136-.857 1.538-.984.401-.128.729-.4.729-.605 0-.205.188-.373.417-.373.229 0 .634-.19.9-.423.266-.232 1.775-1.371 3.353-2.531 5.883-4.321 7.471-5.653 7.279-6.1-.082-.19-.695.194-1.363.854m-153.508 9.881c-1.202 5.056-1.051 5.524 4.815 14.929.271.434.856 1.544 1.299 2.466.792 1.647 1.608 2.55 1.608 1.779 0-.215-.9-1.843-2-3.616-1.1-1.774-2-3.32-2-3.436 0-.117-.92-1.68-2.045-3.475l-2.045-3.263.503-2.941c.465-2.718.364-4.542-.135-2.443" fill="#cc5f3f"/><path d="M258.293 64.24c-.221.222 2.001 4.702 4.444 8.96 1.447 2.522 1.855 3.29 6.044 11.4 2.045 3.96 4.156 7.785 4.69 8.501.534.716 1.173 1.881 1.42 2.589.247.709 1.017 2.283 1.71 3.499A135.257 135.257 0 0 1 278.69 103c4.007 7.731 2.735 6.697 13.31 10.804 3.19 1.239 6.79 2.669 8 3.179 6.712 2.828 6.962 2.925 12.8 4.968 1.65.577 3.213 1.187 3.472 1.356 1.646 1.067 1.167-.421-2.672-8.307-1.714-3.52-3.478-7.21-3.922-8.2-.444-.99-1.733-3.78-2.865-6.2a400.242 400.242 0 0 1-2.404-5.2c-.19-.44-.969-2.15-1.732-3.8-1.59-3.442-3.273-7.17-4.152-9.2-.334-.77-.79-1.789-1.014-2.264-.384-.813-4.967-2.886-10.311-4.662-1.895-.63-3.119-1.113-5.888-2.327-.928-.407-4.258-1.743-7.4-2.97-3.141-1.227-6.662-2.669-7.823-3.204-1.161-.535-2.264-.973-2.45-.973-.187 0-1.357-.45-2.601-1-2.531-1.119-2.417-1.088-2.745-.76m18.456 46.344c-.106.106-11.523.211-25.371.232-13.848.022-25.607.143-26.132.269-1.204.289-1.137 1.87.931 21.915.364 3.52.817 8.238 1.009 10.484.191 2.246.484 4.305.651 4.576.325.526.974 9.034 1.139 14.952.056 1.986.32 4.02.587 4.519.526.982.066 3.08-1.02 4.658-1.852 2.691.698 2.836 3.804.217 1.048-.883 2.042-1.606 2.209-1.606.168 0 1.327-.722 2.575-1.604 1.248-.883 2.539-1.778 2.869-1.989.33-.211 1.5-1.013 2.6-1.783 2.279-1.594 3.921-2.673 8.261-5.43 1.683-1.069 3.176-2.13 3.317-2.358.141-.228.833-.696 1.539-1.039.706-.344 1.646-.934 2.089-1.311.855-.728 6.194-10.065 6.194-10.833 0-.249.18-.453.4-.453.22 0 .4-.225.4-.499 0-.483 3.184-7.096 3.611-7.501.116-.11.556-1.01.978-2 .422-.99 1.092-2.278 1.489-2.862.397-.584.728-1.214.735-1.4.006-.186.546-1.413 1.2-2.728.653-1.314 1.187-2.604 1.187-2.866 0-.263.153-.537.341-.611.429-.167 5.259-10.135 5.259-10.852 0-1.115-2.208-2.739-2.851-2.097m-60.949 2.871c-.44.346-1.88 1.123-3.2 1.726-1.32.603-2.647 1.394-2.949 1.757-.302.364-.876.662-1.276.662s-.827.161-.949.358c-.121.197-.897.451-1.723.565-1.474.203-5.923 1.709-7.503 2.539-.44.231-1.79.741-3 1.132-1.21.392-3.64 1.394-5.4 2.226-1.76.833-3.766 1.629-4.459 1.77-.692.14-1.575.605-1.962 1.033-.386.427-.978.777-1.315.777-3.273 0-7.397 2.824-7.397 5.066 0 .264-.465.596-1.034.736-1.213.3-3.233 2.108-3.233 2.895 0 .302-.505 1.033-1.123 1.626-2.053 1.97-4.355 5.054-5.187 6.95-.554 1.264-1.333 2.197-2.394 2.866-1.399.884-2.295 1.909-5.578 6.384-3.488 4.754-7.992 7.364-6.001 3.477.282-.55.844-2.17 1.249-3.6.65-2.292 2.874-8.361 3.885-10.6.198-.44.527-1.34.73-2 .336-1.093 1.366-3.965 4.126-11.503.544-1.487 1.726-3.647 2.626-4.8.9-1.153 1.458-2.159 1.24-2.234-.526-.182-3.973 3.433-3.973 4.166 0 .314-.144.571-.32.571-.175 0-.557.675-.848 1.5-.291.825-.979 2.49-1.529 3.7a99.262 99.262 0 0 0-1.985 4.8 94.67 94.67 0 0 1-1.952 4.712c-.531 1.161-.966 2.214-.966 2.339 0 .126-.257.795-.57 1.489-1.858 4.108-2.782 6.241-3.316 7.66-.331.88-.832 2.14-1.114 2.8-.893 2.092-3.286 8.289-4.401 11.4-2.46 6.858-3.111 8.64-3.432 9.4-.186.44-.904 2.42-1.596 4.4-2.71 7.763-3.475 9.837-3.718 10.08-.139.14-.253.663-.253 1.163s-.156 1.006-.346 1.124c-.19.117-.451.803-.579 1.523-.128.721-.517 2.57-.863 4.11-.862 3.829-3.132 15.743-4.193 22-.187 1.1-.63 3.53-.986 5.4-.356 1.87-.823 4.48-1.038 5.8-1.237 7.609-1.534 9.259-1.763 9.816-.152.372.515 1.883 1.678 3.8 1.062 1.751 2.051 3.499 2.198 3.883.146.384.902 1.693 1.679 2.908.777 1.215 1.413 2.37 1.413 2.567 0 .198.167.419.37.493 1.473.53.826 2.239-2.747 7.257-1.993 2.799-3.623 5.25-3.623 5.449 0 .198-.142.42-.316.494-.174.073-.939 1.033-1.7 2.133s-1.559 2.125-1.772 2.278c-.214.153-.244.423-.066.6.318.317.667-.031 2.654-2.645.55-.723 1.784-2.152 2.741-3.174.958-1.022 2.398-2.849 3.2-4.059.803-1.21 1.966-2.74 2.587-3.4 2.337-2.487 2.319-2.614-1.304-9.2-3.808-6.922-4.734-9.567-4.106-11.728.235-.809.55-2.372.7-3.472.149-1.1.616-3.279 1.036-4.843.42-1.564.926-3.994 1.124-5.4.389-2.755 2.509-12.733 3.157-14.858.217-.715.509-2.289.647-3.499.294-2.575 1.406-5.778 1.847-5.319.396.413 2.424 7.784 2.784 10.119.153.99.557 3.15.898 4.8.341 1.65.74 4.17.886 5.6.146 1.43.529 3.59.851 4.8.322 1.21 1.027 4.72 1.567 7.8 1.366 7.792 1.62 8.7 2.665 9.532.506.403 2.312 1.915 4.013 3.361 5.386 4.575 5.54 4.627 7.951 2.711.966-.768 1.966-1.398 2.223-1.4.256-.002.526-.142.6-.311.073-.169 2.203-1.818 4.733-3.665 2.53-1.846 5.529-4.138 6.664-5.092 1.135-.955 2.221-1.736 2.414-1.736.192 0 .884-.451 1.536-1.001 1.103-.932 5.77-4.521 12.358-9.503 5.449-4.12 5.355-3.621 2.661-14.096-.453-1.76-.826-3.672-.828-4.248-.003-.576-.349-2.124-.769-3.44-1.033-3.232-1.193-5.353-.431-5.709.327-.153 1-.488 1.495-.744.564-.292.9-.315.9-.062 0 .221.608.403 1.351.403s1.561.253 1.818.563c.257.309 1.584.689 2.949.844 1.365.155 3.112.547 3.882.873 2.336.986 6.053 2.12 6.952 2.12.983.001 8.864 1.862 10.048 2.374 1.705.736 3.264 1.203 4.8 1.439.88.134 1.96.396 2.4.58.44.185 2.42.545 4.4.8 1.98.256 3.87.677 4.2.936 1.288 1.011 2.493 1.499 4.309 1.743 1.04.14 2.671.586 3.624.991.953.405 2.123.737 2.6.736 1.068-.001 6.392 1.253 6.667 1.57.11.127.743.61 1.407 1.074l1.207.844.617-.844c.34-.464.862-1.473 1.161-2.243.613-1.58 3.437-7.484 4.019-8.4.209-.33 2.01-3.93 4.003-8 1.992-4.07 3.794-7.67 4.004-8 .21-.33.577-1.05.814-1.6 1.021-2.365 3.006-5.759 3.451-5.901.726-.232 1.828 2.61 1.978 5.101.073 1.21.403 4.36.732 7 .33 2.64.759 7.346.954 10.458.195 3.113.448 5.813.563 6 .469.77 1.139 9.531.875 11.448-.314 2.289-1.045 3.169-4.687 5.646l-5.698 3.869c-1.98 1.344-3.96 2.801-4.4 3.24-.44.438-1.413 1.188-2.163 1.668-.749.479-2.099 1.363-3 1.965-.9.601-1.907 1.208-2.237 1.348-1.327.563-3.939 1.733-6.415 2.873-1.438.662-3.598 1.491-4.8 1.843-1.202.352-2.905.987-3.785 1.41-.88.423-3.13 1.352-5 2.063-1.87.712-4.163 1.626-5.096 2.032-.932.405-1.929.737-2.215.737-.286 0-1.233.369-2.104.82-1.828.947-5.72 2.38-6.462 2.38-.278 0-1.826.618-3.441 1.374-1.614.756-4.533 1.928-6.486 2.605-1.953.677-4.011 1.534-4.573 1.906-3.036 2.005-4.461 2.489-8.116 2.758-2.039.15-4.04.392-4.447.539-.407.146-2.927-.066-5.6-.471-2.673-.405-6.39-.81-8.26-.899a394.88 394.88 0 0 1-7.24-.435c-3.21-.227-4.081-.157-5.308.425-1.359.645-6.652 6.07-6.652 6.818 0 .88-1.846 2.952-2.458 2.76-.362-.114-.971.106-1.353.489-.479.478-.547.745-.219.854.263.088.913.563 1.446 1.056.532.494 2.006 1.427 3.276 2.075 2.259 1.153 3.389 1.822 8.82 5.222l2.676 1.675 1.28-.975c.703-.537 1.387-.976 1.52-.976.132 0 1.938-1.08 4.012-2.4 2.074-1.32 3.87-2.4 3.99-2.4.12 0 1.655-.9 3.41-2 1.755-1.1 3.311-2 3.458-2 .147 0 .856-.45 1.578-1 .721-.55 1.436-1 1.589-1 .153 0 1.599-.9 3.213-2s3.059-2 3.211-2c.151 0 .832-.42 1.513-.933 1.418-1.068 5.532-3.067 6.313-3.067.65-.001 4.184-1.326 4.573-1.715.157-.157.609-.285 1.005-.285.396 0 1.401-.295 2.233-.655 2.457-1.064 2.85-1.212 8.914-3.35 5.2-1.834 7.209-2.574 9.8-3.611.44-.176 2.15-.8 3.8-1.388 1.65-.587 4.08-1.482 5.4-1.989 1.32-.506 3.75-1.405 5.4-1.997 5.771-2.071 7.811-3.086 11.193-5.57a1117.13 1117.13 0 0 1 9.007-6.505c11.885-8.496 11.285-7.947 12.371-11.335.529-1.65 1.31-3.81 1.735-4.8.425-.99 1.451-3.78 2.28-6.2.829-2.42 1.653-4.58 1.831-4.8.368-.454.62-.586 9.383-4.924 10.205-5.052 9.033-3.85 11.774-12.076a197.43 197.43 0 0 1 2.011-5.6c.703-1.87 1.429-3.94 1.613-4.6.724-2.59 2.163-6.494 2.528-6.859.151-.151.274-.585.274-.965 0-.667 2.837-8.249 3.618-9.671.21-.382.382-1.046.382-1.476 0-.43.18-.893.4-1.029.22-.136.386-.732.368-1.324-.017-.592-.121-.853-.232-.58-.231.572-1.662 1.242-5.336 2.496-1.43.489-3.5 1.315-4.6 1.836-1.1.521-4.127 1.77-6.727 2.776-2.599 1.005-5.826 2.361-7.17 3.012-1.345.651-2.608 1.184-2.807 1.184-.366 0-4.769 1.865-7.671 3.249-.866.413-1.786.751-2.044.751s-1.439.509-2.625 1.131-3.326 1.546-4.756 2.053c-1.43.507-2.96 1.327-3.4 1.823-.44.496-1.565 1.286-2.5 1.755-.935.47-1.7 1.121-1.7 1.446 0 .326-.27.592-.6.592-.33 0-.618.225-.64.5-.022.275-.169.05-.327-.5-.339-1.182-3.169-1.257-6.173-.165-.913.332-3.37 1.033-5.46 1.558-2.09.525-4.502 1.25-5.361 1.612-.859.361-2.749.802-4.2.98-3.464.425-8.446 1.485-11.439 2.434-1.32.418-3.39.869-4.6 1.001-1.21.132-2.56.385-3 .563-4.032 1.628-11.835 3.617-14.189 3.617-.847 0-2.681.358-4.075.795-1.395.437-3.109.797-3.81.8-1.593.006-3.384.654-3.983 1.441-.898 1.178-6.418 1.215-6.042.041.084-.262 1.311-1.24 2.726-2.172 1.415-.932 2.753-1.927 2.973-2.21.22-.284 1.3-1.084 2.4-1.778 1.1-.694 2.81-1.82 3.8-2.502 2.327-1.604 8.013-5.182 9.917-6.239 2.751-1.528 5.877-3.682 6.823-4.7.516-.556 1.461-1.228 2.1-1.492.638-.265 1.16-.625 1.16-.8 0-.175.63-.708 1.4-1.184 1.682-1.039 1.964-2.194.389-1.596-.555.211-1.23.57-1.5.797-.786.663-3.146 2.253-5.089 3.429-.99.598-2.989 1.945-4.442 2.991-1.453 1.047-3.349 2.264-4.212 2.704-.863.441-2.464 1.55-3.558 2.466-1.093.915-2.823 2.095-3.844 2.621-1.02.526-2.103 1.189-2.405 1.472-.302.284-2.167 1.578-4.144 2.876-8.836 5.802-10.838 6.84-12.091 6.269-.518-.236-1.226-.429-1.573-.429s-1.643-.431-2.881-.957c-1.237-.526-3.87-1.449-5.85-2.05-1.98-.601-5.527-1.791-7.882-2.643-2.355-.853-4.393-1.55-4.528-1.55-.136 0-2.619-.891-5.519-1.979-2.899-1.089-6.625-2.339-8.281-2.778-3.087-.819-6.79-2.614-6.79-3.291 0-.471 1.712-5.825 3.311-10.352.661-1.87 1.603-4.584 2.095-6.032 1.594-4.697.83-4.346 10.794-4.956 3.662-.223 13.572-1.028 15.64-1.27 2.008-.234 3.76.685 3.76 1.973 0 .2.253.931.563 1.625.309.693.652 2.25.762 3.46.205 2.271.95 4.4 1.539 4.4.596 0 .348-2.93-.469-5.536-1.411-4.499-.936-6.22 2.766-10.037a123.328 123.328 0 0 0 4.239-4.644c1.1-1.284 2.738-3.155 3.639-4.159.902-1.003 1.802-2.115 2-2.471.199-.357 1.588-2.008 3.088-3.67 3.927-4.352 4.239-4.715 8.873-10.318.44-.532 1.426-1.777 2.192-2.766.766-.99 1.711-2.034 2.1-2.322.389-.287.708-.756.708-1.041 0-.286.438-.992.974-1.57a41.898 41.898 0 0 0 2.1-2.532 29.615 29.615 0 0 1 2.38-2.708c1.357-1.326 4.143-5.713 4.145-6.526.001-.699-1.638-.601-2.599.155M180.501 176.6c.004.88.086 1.193.182.695.096-.497.092-1.217-.008-1.6-.1-.382-.179.025-.174.905m71.899 44.987c0 .536.192.714.6.558.33-.127.6-.481.6-.788 0-.306-.27-.557-.6-.557-.33 0-.6.354-.6.787m-108.304 63.208c-.64 1.025-.625 1.205.104 1.205.33 0 .6-.27.6-.6 0-.33.18-.6.4-.6.22 0 .4-.18.4-.4 0-.693-.986-.434-1.504.395m-2.776 3.962c-.665 1.064-.205 1.328.713.41.896-.896.957-1.167.263-1.167-.277 0-.716.341-.976.757m-3.071 3.694c-1.237 1.367-2.249 2.635-2.249 2.817 0 .183-.315.663-.7 1.069-.385.405-1.6 1.944-2.7 3.42s-2.585 3.342-3.3 4.147c-1.201 1.352-1.592 2.096-1.1 2.096.271 0 1.8-1.545 1.8-1.818 0-.12.405-.642.9-1.16a32.504 32.504 0 0 0 1.9-2.252c.55-.721 1.18-1.504 1.4-1.74.705-.758 2.6-3.369 2.6-3.584 0-.114.593-.801 1.317-1.527 1.471-1.473 2.844-3.492 2.564-3.771-.1-.101-1.195.936-2.432 2.303M90.16 307.013c-3.693 1.908-6.769 6.364-3.66 5.301.715-.245 1.39-.571 1.5-.725.11-.155 1.28-.88 2.6-1.612 3.163-1.754 5.044-3.182 4.772-3.622-.432-.699-3.283-.339-5.212.658m35.74 1.199c-.952 1.276-.882 1.588.143.634.464-.433.779-.963.7-1.179-.079-.216-.458.029-.843.545" fill="#fbf5b8"/></g></svg>