<svg xmlns="http://www.w3.org/2000/svg" width="32" height="32" viewBox="0 0 400 400"><g fill-rule="evenodd"><path d="M0 200v200h400V0H0v200M272.153 72.375c1.805 1.122 4.247 3.83 4.247 4.709 0 .416.184.94.41 1.166.455.455.292 28.241-.184 31.35-.262 1.707-.465 2.271-2.021 5.6-3.139 6.716-10.192 12.696-18.405 15.607-1.138.404-4.52 1.424-6.4 1.931-3.557.959-17.619 1.38-23.535.704-3.201-.366-5.448-.042-11.393 1.646-2.701.767-6.176 3.09-7.471 4.996l-1.001 1.474v13.375c0 15.625-.129 16.397-3.263 19.567-1.033 1.045-2.241 1.9-2.684 1.9-.443 0-.917.18-1.053.4-1.181 1.911-9.444-.876-10.723-3.616a19.99 19.99 0 0 0-.612-1.184 54.124 54.124 0 0 1-.803-1.495c-1.408-2.726-.382-32.646 1.177-34.285.198-.209.361-.767.361-1.24 0-1.094 2.442-5.742 3.795-7.224l1.643-1.8c2.497-2.736 8.501-7.156 9.72-7.156.207 0 .887-.253 1.51-.563 2.083-1.036 4.254-1.749 9.178-3.014 1-.257 6.983-.423 15.22-.423 8.428 0 13.724-.15 13.97-.396.218-.218 1.289-.502 2.38-.632s2.344-.383 2.784-.563c8.703-3.562 8.73-3.622 9.048-20.409.14-7.37.384-14.064.544-14.875.958-4.875 9.211-8.253 13.561-5.55m-127.679 72.877c.37.191 1.27.349 2 .35.729.002 1.842.272 2.472.6.63.329 1.547.598 2.038.598.807 0 2.429.612 4.311 1.626.382.206.97.374 1.308.374.337 0 1.326.45 2.197 1s1.768 1 1.992 1c.224 0 .408.16.408.357 0 .196.45.469 1 .607s1 .428 1 .644c0 .215.192.392.427.392 1.559 0 12.956 10.375 15.268 13.898 4.957 7.557-.536 17.18-9.867 17.284-2.909.033-7.219-2.331-11.428-6.268-3.955-3.7-8.508-6.554-14.2-8.9-5.062-2.086-16.587-1.921-21.926.314-.619.26-1.2.472-1.29.472-.266 0-5.071 2.334-6.477 3.145-4.506 2.602-10.158 8.397-12.743 13.067-1.972 3.563-2.524 4.808-3.45 7.788-3.889 12.501-1.08 26.924 7.086 36.385 2.765 3.204 6.01 5.994 8.494 7.303.828.437 1.677.955 1.886 1.153.209.197.689.359 1.067.359.377 0 .746.135.82.3.308.694 4.457 2.239 8.024 2.988 2.867.602 11.686.585 13.909-.026 2.328-.641 6.4-2.507 6.4-2.932 0-.182.36-.33.8-.33.44 0 .8-.141.8-.314 0-.172.538-.631 1.195-1.019 1.649-.975 6.805-6.2 6.805-6.897 0-.314.135-.576.3-.583 1.392-.058 1.735-2.035.725-4.171-2.667-5.637-.072-12.798 5.575-15.384 7.107-3.256 18.737-1.626 21.156 2.964 1.43 2.713 2.167 36.086.971 43.945-1.807 11.87-18.727 9.589-18.727-2.525 0-2.506-2.592-3.209-4.852-1.316a70.488 70.488 0 0 0-2.33 2.051c-.56.523-1.738 1.421-2.618 1.996-.88.575-1.69 1.137-1.8 1.249-.868.884-8.049 4.404-8.985 4.404-.47 0-1.039.184-1.264.409-1.761 1.761-20.405 1.867-23.831.137-.594-.3-1.481-.546-1.972-.546-3.988 0-17.988-7.171-22.966-11.763-4.451-4.106-6.282-5.979-8.295-8.482-1.258-1.564-2.287-3.049-2.287-3.3 0-.25-.159-.455-.354-.455-.195 0-.653-.585-1.017-1.3a57.183 57.183 0 0 0-1.497-2.7c-1.91-3.206-3.93-7.459-3.931-8.276-.001-.482-.164-.978-.364-1.101-.2-.124-.66-1.259-1.022-2.524a135.323 135.323 0 0 0-1.116-3.699c-1.734-5.307-1.643-27.616.119-29.378.21-.21.385-.751.388-1.202.005-.799.853-3.611 1.574-5.22.197-.44.669-1.661 1.048-2.713.38-1.052.844-2.008 1.031-2.124.188-.115.341-.472.341-.791 0-.523 3.765-6.887 4.362-7.372.135-.11.713-.92 1.285-1.8 2.483-3.82 8.044-9.429 12.553-12.661 3.366-2.412 8.557-5.539 9.196-5.539.332 0 .605-.135.605-.3.001-.165.856-.631 1.9-1.036 1.045-.405 2.946-1.17 4.225-1.7 1.28-.53 2.819-.964 3.42-.964.602 0 1.265-.165 1.474-.368 1.637-1.583 23.96-2.572 26.654-1.18m128.8-.005c.37.194 1.27.359 2 .367.729.008 1.776.272 2.326.586.55.314 1.574.578 2.276.586.702.008 1.388.194 1.524.414.136.22.524.4.863.4.339 0 1.183.25 1.877.555.693.304 2.476 1.052 3.961 1.66 1.486.608 2.903 1.349 3.149 1.646.246.296.608.539.803.539.54 0 6.712 4.076 8.747 5.777 5.139 4.295 12.386 12.298 12.396 13.69.002.256.159.526.348.6.295.114 3.656 5.76 3.656 6.141 0 .075.519 1.274 1.153 2.664.635 1.39 1.38 3.248 1.657 4.128.277.88.599 1.87.716 2.2.349.985 1.283 4.846 1.743 7.2.236 1.21.51 5.53.608 9.6.173 7.107.029 8.798-1.153 13.6-.244.99-.528 2.43-.631 3.2-.103.77-.314 1.58-.467 1.8-.154.22-.627 1.525-1.053 2.9-.425 1.375-.908 2.5-1.073 2.5-.165 0-.3.247-.3.55 0 .71-3.757 8.118-4.575 9.023-.344.379-.625.901-.625 1.158 0 .258-.141.469-.314.469-.172 0-.657.585-1.077 1.3-.42.715-.954 1.501-1.187 1.748-.232.246-1.167 1.326-2.078 2.4-5.441 6.416-10.739 10.524-18.544 14.377-1.65.815-3.45 1.654-4 1.865-.55.211-1.51.637-2.132.947-.623.31-1.468.563-1.877.563-.409 0-.855.18-.991.4-.136.22-.878.4-1.65.4-.771 0-1.769.196-2.216.435-3.603 1.929-19.886 2.018-23.666.131-.623-.312-1.477-.566-1.897-.566-.89 0-8.507-3.874-8.704-4.426-.074-.206-.36-.374-.638-.374-.277 0-1.117-.531-1.866-1.179-4.728-4.09-5.769-4.821-6.868-4.821-1.346 0-2.295.807-2.295 1.952 0 7.28-6.008 12.246-12.554 10.378-1.873-.534-5.046-2.897-5.046-3.757 0-.315-.136-.573-.303-.573-1.342 0-2.07-41.171-.791-44.803 1.814-5.154 5.685-7.032 13.769-6.68 7.741.336 13.139 3.251 14.001 7.561.125.626.384 1.236.576 1.354.45.278.454 5.564.005 6.473-.188.382-.655 1.291-1.037 2.019-.682 1.302-.676 1.352.343 2.892.57.862 1.037 1.662 1.037 1.778 0 .266 5.536 5.806 5.802 5.806.108 0 1.052.613 2.097 1.361 6.578 4.711 18.276 6.11 25.501 3.049.44-.186 1.654-.67 2.699-1.074 1.044-.405 1.899-.871 1.9-1.036 0-.165.296-.3.656-.3 1.847 0 12.945-9.19 12.945-10.719 0-.228.135-.474.3-.548.407-.18 2.5-3.426 2.5-3.875 0-.198.27-.584.6-.858.33-.274.6-.826.6-1.228 0-.401.43-1.539.956-2.527.525-.989 1.056-2.483 1.179-3.321.124-.838.4-2.514.615-3.724.49-2.752.52-11.2.049-13.6-.983-5.015-1.792-7.501-3.253-10a14.18 14.18 0 0 1-.614-1.2c-1.504-3.437-5.754-8.575-9.658-11.676-2.609-2.072-3.409-2.603-5.874-3.895-.66-.346-1.29-.728-1.4-.85-.11-.121-1.1-.54-2.2-.931-1.1-.39-2.36-.853-2.8-1.029-10.576-4.209-25.522-.487-35.441 8.826-2.16 2.028-6.976 5.554-7.595 5.561-.31.003-1.319.269-2.241.59-1.474.513-1.881.513-3.351-.006-.92-.324-2.055-.596-2.522-.603-.468-.007-1.144-.237-1.504-.51-9.521-7.246-7.511-16.112 5.922-26.13.843-.628 1.622-1.239 1.732-1.358.607-.654 4.526-3.257 6.6-4.383 1.32-.717 2.571-1.462 2.78-1.655.209-.193.659-.353 1-.355.341-.002 1.52-.446 2.62-.987 1.1-.541 2.549-.99 3.22-.996.671-.007 1.406-.199 1.634-.427 1.547-1.547 24.005-2.508 26.62-1.139m-7.737 37.422c4.967 1.243 7.192 6.834 4.476 11.247-4.081 6.634-14.013 3.836-14.013-3.947 0-2.298 1.368-5.569 2.33-5.569.175 0 .668-.32 1.095-.711.849-.78 3.659-1.673 4.512-1.435a86.36 86.36 0 0 0 1.6.415m-130.561 3.952c1.216.797 1.468 1.814 1.774 7.162.296 5.189-.065 4.91 6.45 4.986 4.969.058 5.905.522 6.389 3.169.7 3.833-1.302 5.33-7.108 5.314-6.026-.017-5.681-.29-5.683 4.491-.004 6.442-1.013 8.622-3.998 8.638-3.965.022-4.8-1.324-4.8-7.738 0-5.59.164-5.443-6.052-5.443-5.354 0-7.611-1.607-6.98-4.97.534-2.847 1.734-3.43 7.058-3.43 6.12 0 5.974.142 5.974-5.786 0-6.333 2.947-9.033 6.976-6.393m119.661 9.802c6.347 3.923 3.348 13.98-4.168 13.976-4.897-.003-7.669-2.753-7.669-7.609 0-6.08 6.577-9.618 11.837-6.367m26.971.579c6.26 5.969.824 15.416-7.498 13.03-3.415-.98-6.821-8.404-4.51-9.832.22-.136.4-.495.4-.799 0-3.42 8.661-5.21 11.608-2.399m-13.941 13.117c5.086 3.879 4.616 9.88-1.007 12.87-1.932 1.027-4.41 1.338-4.86.611-.136-.22-.583-.4-.993-.4-1.106 0-3.125-1.869-4.02-3.722-3.246-6.719 5.019-13.829 10.88-9.359" fill="#262426"/><path d="M264.563 72.644c-.9.319-2.2 1.131-2.889 1.805-2.478 2.423-2.474 2.397-2.474 16.818 0 7.697-.16 13.432-.386 13.838-.212.382-.738 1.508-1.168 2.502-1.252 2.896-5.325 5.611-10.246 6.83-1.256.312-7.133.602-15.8.782-17.379.359-19.636.728-27.6 4.507-7.479 3.548-11.707 8.287-15.235 17.074-1.09 2.714-1.011 33.296.091 35.138 1.122 1.877 3.068 3.623 4.344 3.896.55.118 1.313.383 1.695.59 2.66 1.44 9.35-2.551 10.038-5.988.147-.735.267-6.654.267-13.153 0-14.212.254-16.15 2.439-18.632 1.648-1.873 6.512-4.651 8.143-4.651.504 0 1.705-.288 2.668-.64 1.485-.543 3.085-.606 10.55-.415 8.377.215 16.035-.122 20.4-.897 2.085-.371 3.199-.727 7.2-2.304 1.32-.521 2.61-.946 2.867-.945.256 0 .526-.134.6-.299.073-.165.943-.696 1.933-1.18 3.824-1.869 9.453-7.367 11.258-10.997 1.716-3.453 2.416-5.41 2.811-7.861.573-3.557.892-27.478.385-28.827a18.125 18.125 0 0 1-.62-2.1c-.844-3.885-6.81-6.474-11.271-4.891M125.6 145.582c-.55.186-1.81.355-2.8.376-.99.021-2.61.305-3.6.632-.99.327-3.24 1.065-5 1.642-13.883 4.545-25.928 14.534-33.291 27.607C79.07 179.104 76 186.393 76 187.495c0 .41-.151.916-.336 1.125-.394.446-1.117 3.639-1.717 7.58-2.12 13.935 1.026 28.748 8.67 40.825 3.914 6.182 9.808 12.442 15.509 16.47 3.582 2.53 3.422 2.436 8.274 4.878 1.87.941 3.713 1.872 4.095 2.069.382.197 1.012.364 1.4.371.388.007 1.054.277 1.481.6.428.323 1.272.587 1.877.587s1.211.18 1.347.4c.136.22.732.403 1.324.406.592.003 1.886.292 2.876.642 2.825.999 17.331.991 20.6-.012 4.9-1.502 10.296-4.194 13.599-6.783 2.656-2.082 3.042-2.408 4.253-3.592 3.062-2.995 6.509-1.261 6.82 3.431.568 8.578 11.831 10.788 16.228 3.184.639-1.106.736-44.283.1-44.676-.22-.136-.4-.567-.4-.957 0-4.532-16.788-5.859-22.254-1.759-2.821 2.116-5.197 7.769-4.192 9.975.245.538.446 1.386.446 1.883 0 .498.264 1.254.587 1.682 2.428 3.209-6.251 12.51-14.954 16.025-5.183 2.094-16.976 1.978-21.128-.207-.388-.204-1.525-.659-2.527-1.01-5.217-1.829-17.178-11.855-17.178-14.398 0-.138-.429-.922-.953-1.743-.524-.82-1.411-2.751-1.971-4.291-.56-1.54-1.151-3.16-1.312-3.6-2.129-5.8-2.067-14.865.162-23.488 1.647-6.372 11.044-18.726 15.421-20.272.249-.088.543-.268.653-.4.722-.866 5.483-3.096 9.2-4.309 6.618-2.159 19.592-1.965 22.18.332.209.185.672.337 1.029.337.879 0 7.153 3.505 8.266 4.618.32.32.704.587.854.593.149.006 1.081.753 2.071 1.661 2.149 1.971 6.525 5.448 8.2 6.515 2.968 1.892 9.624.74 12.334-2.135 2.804-2.974 4.096-8.537 2.479-10.676-.323-.427-.593-.999-.6-1.271-.039-1.5-8.794-10.061-14.213-13.898-5.745-4.069-13.841-7.325-20.6-8.286-3.558-.506-17.167-.757-18.4-.339m130.377-.225c-.12.119-1.867.404-3.884.632-2.016.229-4.077.576-4.579.772-.503.195-1.724.57-2.714.832-.99.263-2.34.72-3 1.016-.66.297-2.28 1.029-3.6 1.628-6.862 3.113-18.804 13.298-21.164 18.05-4.843 9.753 7.775 19.545 16.228 12.593a99.4 99.4 0 0 0 2.482-2.169c.91-.819 1.765-1.494 1.9-1.5.135-.006.855-.56 1.6-1.23 8.142-7.332 17.295-10.345 27.954-9.204 3.462.371 9.482 1.943 10.561 2.758.242.182 1.056.576 1.81.876 7.952 3.161 17.469 14.492 19.813 23.589 1.996 7.75 2.222 11.817.989 17.8-.454 2.2-.917 4.45-1.029 5-.472 2.313-3.468 8.331-5.631 11.309-4.171 5.747-13.86 13.091-17.27 13.091-.376 0-.854.162-1.063.361-1.877 1.781-14.499 2.399-19.18.938-8.854-2.762-20.727-14.396-17.026-16.683 2.658-1.643 1.303-9.433-2.232-12.825-4.102-3.937-17.794-4.438-21.57-.791-2.5 2.415-2.372 1.07-2.372 25V259l.953 1.336c4.803 6.735 16.029 4.042 16.044-3.849.009-5.018 3.307-6.447 7.037-3.048 3.888 3.541 9.916 7.298 14.366 8.954 4.725 1.758 5.011 1.795 13.64 1.756 6.509-.029 8.843-.179 10.2-.655.968-.34 2.84-.842 4.16-1.115 1.32-.273 2.799-.74 3.286-1.038.487-.297 1.165-.541 1.505-.541.341 0 .932-.171 1.314-.38.382-.208 2.203-1.118 4.047-2.021 8.321-4.074 22.448-16.298 22.448-19.423 0-.139.405-.82.9-1.513 1.279-1.791 2.125-3.29 3.532-6.263a395.57 395.57 0 0 1 1.799-3.761c.313-.639.569-1.332.569-1.54 0-.208.247-.945.548-1.639.302-.693.734-1.98.96-2.86.226-.88.625-2.41.885-3.4 1.275-4.84 1.565-22.236.408-24.398-.252-.47-.612-1.698-.801-2.729-1.811-9.888-8.249-20.971-17.183-29.581-2.732-2.633-10.8-8.465-12.664-9.155-.414-.153-.843-.392-.953-.53-.286-.359-7.861-3.381-10-3.989-.99-.281-2.34-.688-3-.904-2.911-.952-20.305-2.075-21.023-1.357" fill="#f7f8f9"/><path d="M130.201 186.656c-1.585 1.585-1.888 2.562-2.103 6.77-.278 5.441-.208 5.374-5.565 5.374-4.994 0-6.302.537-7.002 2.873-1.083 3.614.917 5.174 7.064 5.512 5.522.303 5.398.218 5.434 3.739.067 6.613 1.027 8.843 4.015 9.328 3.136.509 5.002-3.407 4.502-9.452-.255-3.09.054-3.391 3.539-3.446 6.736-.107 8.406-.723 9.116-3.359.998-3.706-.593-4.907-6.901-5.209-5.809-.279-5.627-.103-5.908-5.697-.231-4.598-.634-5.962-1.975-6.68-1.165-.624-3.481-.488-4.216.247m142.305 9.951c-3.164 2.229-3.851 8.474-1.239 11.27 6.448 6.904 16.786-2.006 10.995-9.477l-1.705-2.2-3.578-.111c-2.748-.086-3.787.035-4.473.518" fill="#e60d7b"/><path d="M259.746 183.799c-3.001 1.799-4.357 6.055-2.856 8.965 4.707 9.126 17.347 2.826 12.939-6.448-1.577-3.318-6.639-4.582-10.083-2.517m1.066 26.034c-6.383 2.769-5.538 11.61 1.284 13.426 2.39.636 4.263.064 6.364-1.946 5.603-5.361-.53-14.567-7.648-11.48" fill="#add827"/><path d="M263.4 72.264c-4.732 2.49-5.032 3.641-5.352 20.536-.318 16.787-.345 16.847-9.048 20.409-.44.18-1.693.433-2.784.563-1.091.13-2.162.414-2.38.632-.246.246-5.542.396-13.97.396-8.237 0-14.22.166-15.22.423-4.924 1.265-7.095 1.978-9.178 3.014-.623.31-1.303.563-1.51.563-1.219 0-7.223 4.42-9.72 7.156l-1.643 1.8c-1.353 1.482-3.795 6.13-3.795 7.224 0 .473-.163 1.031-.361 1.24-1.559 1.639-2.585 31.559-1.177 34.285.254.492.616 1.165.803 1.495.187.33.463.863.612 1.184 1.279 2.74 9.542 5.527 10.723 3.616.136-.22.61-.4 1.053-.4.443 0 1.651-.855 2.684-1.9 3.134-3.17 3.263-3.942 3.263-19.567v-13.375l1.001-1.474c1.295-1.906 4.77-4.229 7.471-4.996 5.945-1.688 8.192-2.012 11.393-1.646 5.916.676 19.978.255 23.535-.704 9.446-2.548 14.793-5.391 20.059-10.664 2.635-2.64 3.376-3.819 5.946-9.474 1.125-2.476 2.028-33.327 1.005-34.35-.226-.226-.41-.75-.41-1.166 0-.879-2.442-3.587-4.247-4.709-1.613-1.002-6.932-1.07-8.753-.111m7.492.399c2.001.777 4.611 3.35 4.942 4.872.127.586.406 1.531.62 2.1.507 1.349.188 25.27-.385 28.827-.395 2.451-1.095 4.408-2.811 7.861-1.805 3.63-7.434 9.128-11.258 10.997-.99.484-1.86 1.015-1.933 1.18-.074.165-.344.299-.6.299-.257-.001-1.547.424-2.867.945-4.001 1.577-5.115 1.933-7.2 2.304-4.365.775-12.023 1.112-20.4.897-7.465-.191-9.065-.128-10.55.415-.963.352-2.164.64-2.668.64-1.631 0-6.495 2.778-8.143 4.651-2.185 2.482-2.439 4.42-2.439 18.632 0 6.499-.12 12.418-.267 13.153-.688 3.437-7.378 7.428-10.038 5.988-.382-.207-1.145-.472-1.695-.59-1.276-.273-3.222-2.019-4.344-3.896-1.102-1.842-1.181-32.424-.091-35.138 3.528-8.787 7.756-13.526 15.235-17.074 7.964-3.779 10.221-4.148 27.6-4.507 8.667-.18 14.544-.47 15.8-.782 4.921-1.219 8.994-3.934 10.246-6.83.43-.994.956-2.12 1.168-2.502.226-.406.386-6.141.386-13.838 0-14.421-.004-14.395 2.474-16.818 2.329-2.277 6.081-3.004 9.218-1.786M126.8 144.791c-4.176.298-8.387 1.068-8.98 1.641-.209.203-.872.368-1.474.368-.601 0-2.14.434-3.42.964-1.279.53-3.18 1.295-4.225 1.7-1.044.405-1.899.871-1.9 1.036 0 .165-.273.3-.605.3-.639 0-5.83 3.127-9.196 5.539-4.509 3.232-10.07 8.841-12.553 12.661-.572.88-1.15 1.69-1.285 1.8-.597.485-4.362 6.849-4.362 7.372 0 .319-.153.676-.341.791-.187.116-.651 1.072-1.031 2.124-.379 1.052-.851 2.273-1.048 2.713-.721 1.609-1.569 4.421-1.574 5.22-.003.451-.178.992-.388 1.202-1.762 1.762-1.853 24.071-.119 29.378.251.77.754 2.435 1.116 3.699.362 1.265.822 2.4 1.022 2.524.2.123.363.619.364 1.101.001.817 2.021 5.07 3.931 8.276.459.77 1.132 1.985 1.497 2.7.364.715.822 1.3 1.017 1.3.195 0 .354.205.354.455 0 .251 1.029 1.736 2.287 3.3 2.013 2.503 3.844 4.376 8.295 8.482 4.978 4.592 18.978 11.763 22.966 11.763.491 0 1.378.246 1.972.546 3.426 1.73 22.07 1.624 23.831-.137.225-.225.794-.409 1.264-.409.936 0 8.117-3.52 8.985-4.404.11-.112.92-.674 1.8-1.249.88-.575 2.058-1.473 2.618-1.996a70.488 70.488 0 0 1 2.33-2.051c2.26-1.893 4.852-1.19 4.852 1.316 0 12.114 16.92 14.395 18.727 2.525 1.196-7.859.459-41.232-.971-43.945-2.419-4.59-14.049-6.22-21.156-2.964-5.647 2.586-8.242 9.747-5.575 15.384 1.01 2.136.667 4.113-.725 4.171-.165.007-.3.269-.3.583 0 .697-5.156 5.922-6.805 6.897-.657.388-1.195.847-1.195 1.019 0 .173-.36.314-.8.314-.44 0-.8.148-.8.33 0 .425-4.072 2.291-6.4 2.932-2.223.611-11.042.628-13.909.026-3.567-.749-7.716-2.294-8.024-2.988-.074-.165-.443-.3-.82-.3-.378 0-.858-.162-1.067-.359-.209-.198-1.058-.716-1.886-1.153-2.484-1.309-5.729-4.099-8.494-7.303-8.166-9.461-10.975-23.884-7.086-36.385.926-2.98 1.478-4.225 3.45-7.788 2.585-4.67 8.237-10.465 12.743-13.067 1.406-.811 6.211-3.145 6.477-3.145.09 0 .671-.212 1.29-.472 5.339-2.235 16.864-2.4 21.926-.314 5.692 2.346 10.245 5.2 14.2 8.9 4.209 3.937 8.519 6.301 11.428 6.268 9.331-.104 14.824-9.727 9.867-17.284-2.312-3.523-13.709-13.898-15.268-13.898-.235 0-.427-.177-.427-.392 0-.216-.45-.506-1-.644s-1-.411-1-.607c0-.197-.184-.357-.408-.357-.224 0-1.121-.45-1.992-1s-1.86-1-2.197-1c-.338 0-.926-.168-1.308-.374-1.882-1.014-3.504-1.626-4.311-1.626-.491 0-1.408-.269-2.038-.598-.63-.328-1.743-.598-2.472-.6-.73-.001-1.63-.159-2-.35-.925-.478-13.021-.793-17.674-.461m129 .025c-5.004.357-8.541.965-9.146 1.57-.228.228-.963.42-1.634.427-.671.006-2.12.455-3.22.996-1.1.541-2.279.985-2.62.987-.341.002-.791.162-1 .355-.209.193-1.46.938-2.78 1.655-2.074 1.126-5.993 3.729-6.6 4.383-.11.119-.889.73-1.732 1.358-13.433 10.018-15.443 18.884-5.922 26.13.36.273 1.036.503 1.504.51.467.007 1.602.279 2.522.603 1.47.519 1.877.519 3.351.006.922-.321 1.931-.587 2.241-.59.619-.007 5.435-3.533 7.595-5.561 3.321-3.118 10.279-7.453 14.241-8.873 5.552-1.989 16.143-1.965 21.2.047.44.176 1.7.639 2.8 1.029 1.1.391 2.09.81 2.2.931.11.122.74.504 1.4.85 2.465 1.292 3.265 1.823 5.874 3.895 3.904 3.101 8.154 8.239 9.658 11.676.145.33.421.87.614 1.2 1.461 2.499 2.27 4.985 3.253 10 .471 2.4.441 10.848-.049 13.6a161.86 161.86 0 0 0-.615 3.724c-.123.838-.654 2.332-1.179 3.321-.526.988-.956 2.126-.956 2.527 0 .402-.27.954-.6 1.228-.33.274-.6.66-.6.858 0 .449-2.093 3.695-2.5 3.875-.165.074-.3.32-.3.548 0 1.529-11.098 10.719-12.945 10.719-.36 0-.656.135-.656.3-.001.165-.856.631-1.9 1.036-1.045.404-2.259.888-2.699 1.074-7.225 3.061-18.923 1.662-25.501-3.049-1.045-.748-1.989-1.361-2.097-1.361-.266 0-5.802-5.54-5.802-5.806 0-.116-.467-.916-1.037-1.778-1.019-1.54-1.025-1.59-.343-2.892.382-.728.849-1.637 1.037-2.019.449-.909.445-6.195-.005-6.473-.192-.118-.451-.728-.576-1.354-.862-4.31-6.26-7.225-14.001-7.561-8.084-.352-11.955 1.526-13.769 6.68-1.279 3.632-.551 44.803.791 44.803.167 0 .303.258.303.573 0 .86 3.173 3.223 5.046 3.757 6.546 1.868 12.554-3.098 12.554-10.378 0-1.145.949-1.952 2.295-1.952 1.099 0 2.14.731 6.868 4.821.749.648 1.589 1.179 1.866 1.179.278 0 .564.168.638.374.197.552 7.814 4.426 8.704 4.426.42 0 1.274.254 1.897.566 3.78 1.887 20.063 1.798 23.666-.131.447-.239 1.445-.435 2.216-.435.772 0 1.514-.18 1.65-.4.136-.22.582-.4.991-.4.409 0 1.254-.253 1.877-.563.622-.31 1.582-.736 2.132-.947.55-.211 2.35-1.05 4-1.865 7.805-3.853 13.103-7.961 18.544-14.377.911-1.074 1.846-2.154 2.078-2.4.233-.247.767-1.033 1.187-1.748.42-.715.905-1.3 1.077-1.3.173 0 .314-.211.314-.469 0-.257.281-.779.625-1.158.818-.905 4.575-8.313 4.575-9.023 0-.303.135-.55.3-.55.165 0 .648-1.125 1.073-2.5.426-1.375.899-2.68 1.053-2.9.153-.22.364-1.03.467-1.8.103-.77.387-2.21.631-3.2 1.182-4.802 1.326-6.493 1.153-13.6-.098-4.07-.372-8.39-.608-9.6-.46-2.354-1.394-6.215-1.743-7.2-.117-.33-.439-1.32-.716-2.2-.277-.88-1.022-2.738-1.657-4.128-.634-1.39-1.153-2.589-1.153-2.664 0-.381-3.361-6.027-3.656-6.141-.189-.074-.346-.344-.348-.6-.01-1.392-7.257-9.395-12.396-13.69-2.035-1.701-8.207-5.777-8.747-5.777-.195 0-.557-.243-.803-.539-.246-.297-1.663-1.038-3.149-1.646a233.572 233.572 0 0 1-3.961-1.66c-.694-.305-1.538-.555-1.877-.555-.339 0-.727-.18-.863-.4-.136-.22-.822-.406-1.524-.414-.702-.008-1.726-.272-2.276-.586-.55-.314-1.597-.578-2.326-.586-.73-.008-1.63-.173-2-.367-.985-.516-12.364-.797-17.474-.431M144 145.921c6.759.961 14.855 4.217 20.6 8.286 5.419 3.837 14.174 12.398 14.213 13.898.007.272.277.844.6 1.271 1.617 2.139.325 7.702-2.479 10.676-2.71 2.875-9.366 4.027-12.334 2.135-1.675-1.067-6.051-4.544-8.2-6.515-.99-.908-1.922-1.655-2.071-1.661-.15-.006-.534-.273-.854-.593-1.113-1.113-7.387-4.618-8.266-4.618-.357 0-.82-.152-1.029-.337-2.588-2.297-15.562-2.491-22.18-.332-3.717 1.213-8.478 3.443-9.2 4.309-.11.132-.404.312-.653.4-4.377 1.546-13.774 13.9-15.421 20.272-2.229 8.623-2.291 17.688-.162 23.488.161.44.752 2.06 1.312 3.6s1.447 3.471 1.971 4.291c.524.821.953 1.605.953 1.743 0 2.543 11.961 12.569 17.178 14.398 1.002.351 2.139.806 2.527 1.01 4.152 2.185 15.945 2.301 21.128.207 8.703-3.515 17.382-12.816 14.954-16.025-.323-.428-.587-1.184-.587-1.682 0-.497-.201-1.345-.446-1.883-1.005-2.206 1.371-7.859 4.192-9.975 5.466-4.1 22.254-2.773 22.254 1.759 0 .39.18.821.4.957.636.393.539 43.57-.1 44.676-1.93 3.338-3.731 4.324-7.9 4.324-5.268 0-7.994-2.458-8.328-7.508-.311-4.692-3.758-6.426-6.82-3.431-1.211 1.184-1.597 1.51-4.253 3.592-3.303 2.589-8.699 5.281-13.599 6.783-3.269 1.003-17.775 1.011-20.6.012-.99-.35-2.284-.639-2.876-.642-.592-.003-1.188-.186-1.324-.406-.136-.22-.742-.4-1.347-.4s-1.449-.264-1.877-.587c-.427-.323-1.093-.593-1.481-.6-.388-.007-1.018-.174-1.4-.371a931.838 931.838 0 0 0-4.095-2.069c-4.852-2.442-4.692-2.348-8.274-4.878-17.835-12.6-27.496-35.494-24.179-57.295.6-3.941 1.323-7.134 1.717-7.58.185-.209.336-.715.336-1.125 0-1.102 3.07-8.391 4.909-11.656 7.363-13.073 19.408-23.062 33.291-27.607 1.76-.577 4.01-1.315 5-1.642.99-.327 2.61-.611 3.6-.632.99-.021 2.25-.19 2.8-.376 1.233-.418 14.842-.167 18.4.339m129.2.008c1.43.216 3.14.569 3.8.785.66.216 2.01.623 3 .904 2.139.608 9.714 3.63 10 3.989.11.138.539.377.953.53 1.864.69 9.932 6.522 12.664 9.155 8.934 8.61 15.372 19.693 17.183 29.581.189 1.031.549 2.259.801 2.729 1.157 2.162.867 19.558-.408 24.398-.26.99-.659 2.52-.885 3.4-.226.88-.658 2.167-.96 2.86-.301.694-.548 1.431-.548 1.639 0 .208-.256.901-.569 1.54a395.57 395.57 0 0 0-1.799 3.761c-1.407 2.973-2.253 4.472-3.532 6.263-.495.693-.9 1.374-.9 1.513 0 3.125-14.127 15.349-22.448 19.423-1.844.903-3.665 1.813-4.047 2.021-.382.209-.973.38-1.314.38-.34 0-1.018.244-1.505.541-.487.298-1.966.765-3.286 1.038s-3.192.775-4.16 1.115c-1.357.476-3.691.626-10.2.655-8.629.039-8.915.002-13.64-1.756-4.45-1.656-10.478-5.413-14.366-8.954-3.73-3.399-7.028-1.97-7.037 3.048-.015 7.891-11.241 10.584-16.044 3.849L213 259v-21.8c0-23.93-.128-22.585 2.372-25 3.776-3.647 17.468-3.146 21.57.791 3.535 3.392 4.89 11.182 2.232 12.825-3.701 2.287 8.172 13.921 17.026 16.683 4.681 1.461 17.303.843 19.18-.938.209-.199.687-.361 1.063-.361 3.41 0 13.099-7.344 17.27-13.091 2.163-2.978 5.159-8.996 5.631-11.309.112-.55.575-2.8 1.029-5 1.233-5.983 1.007-10.05-.989-17.8-2.344-9.097-11.861-20.428-19.813-23.589-.754-.3-1.568-.694-1.81-.876-1.079-.815-7.099-2.387-10.561-2.758-10.659-1.141-19.812 1.872-27.954 9.204-.745.67-1.465 1.224-1.6 1.23-.135.006-.99.681-1.9 1.5-4.326 3.894-5.131 4.265-9.166 4.23-3.46-.03-4.272-.313-6.837-2.385-3.828-3.093-4.885-7.883-2.707-12.269 2.36-4.752 14.302-14.937 21.164-18.05 1.32-.599 2.94-1.331 3.6-1.628.66-.296 2.01-.753 3-1.016.99-.262 2.211-.637 2.714-.832.502-.196 2.563-.543 4.579-.772 2.017-.228 3.764-.513 3.884-.632.334-.335 14.286.129 17.223.572M262.6 182.4c-.603.259-.358.344 1 .344s1.603-.085 1-.344c-.44-.189-.89-.344-1-.344-.11 0-.56.155-1 .344m3.8.821c1.042.709 2.8 1.607 2.8 1.429 0-.222-2.761-1.852-3.123-1.844-.152.003-.007.19.323.415m-9.395 2.771c-.553.876-.996 2.091-.986 2.7.016.942.112.842.641-.668.342-.977.894-2.192 1.227-2.7.333-.508.497-.924.364-.924s-.693.716-1.246 1.592m12.923.508c.716 1.397.897 5.159.313 6.5l-.349.8.641-.8c1.242-1.549.363-7.8-1.096-7.8-.097 0 .124.585.491 1.3m-141.084 1.039c-.494.693-.825 1.74-.798 2.523l.046 1.338.291-1.499c.16-.824.618-1.86 1.018-2.302.4-.442.628-.903.507-1.024-.121-.122-.6.312-1.064.964m7.693 6.261c.002 1.76.072 2.43.156 1.489.085-.94.084-2.38-.002-3.2-.086-.819-.155-.049-.154 1.711m119.478-2.123c-.038 1.741 3.583 5.529 5.276 5.521.28-.002-.031-.284-.691-.627-1.77-.921-2.973-2.172-3.819-3.971-.413-.88-.758-1.295-.766-.923m13.108 3.069c-.874 1.246-3.573 2.453-5.517 2.466-1.413.01-1.655.101-1.111.417 1.342.782 5.675-.951 6.958-2.783.326-.465.502-.846.392-.846-.11 0-.435.336-.722.746m-22.752 1.566c-3.387 2.186-4.678 6.744-2.871 10.137 3.793 7.121 14.409 4.471 14.481-3.614.052-5.917-6.683-9.702-11.61-6.523m28.929-.421c.825.087 2.175.087 3 0 .825-.086.15-.157-1.5-.157s-2.325.071-1.5.157m6.711 2.209c.937 1.265 1.754 2.3 1.816 2.3.393 0-1.212-2.425-2.259-3.41-1.086-1.024-1.024-.869.443 1.11m-134.314 1.401c.603.375 1.264 1.135 1.468 1.69.266.721.381.804.403.29.034-.765-1.786-2.688-2.526-2.67-.243.005.052.316.655.69m121.77.766c-.381.38-.319 4.631.075 5.253.189.298.315-.772.294-2.497-.02-1.659-.051-3.019-.069-3.02-.019-.002-.154.117-.3.264m-154.277 1.159c-.546 1.435-.487 2.296.217 3.198.562.719.571.695.134-.328-.347-.81-.359-1.474-.044-2.5.495-1.615.27-1.887-.307-.37m168.911 1.174c.004.88.086 1.193.182.695.096-.497.092-1.217-.008-1.6-.1-.382-.179.025-.174.905M149.2 203.946c0 .41-.396 1.265-.88 1.9-.865 1.135-.866 1.142-.026.415.955-.825 1.893-3.061 1.285-3.061-.208 0-.379.336-.379.746m-32.456 2.411c.52.463 1.33.822 1.8.797.79-.043.796-.062.073-.246-.431-.109-1.241-.468-1.8-.797l-1.017-.598.944.844m164.856 2.092c-1.394 1.222-1.395 1.223-.112.37.708-.471 1.394-1.028 1.524-1.238.385-.624.065-.427-1.412.868M136.514 210.2c.003 1.1.081 1.503.173.895.092-.609.09-1.509-.005-2-.095-.492-.171.005-.168 1.105m123.196-.294c-3.298 2.135-4.545 6.216-2.923 9.572.881 1.825 2.926 3.738 3.944 3.69.547-.025.559-.071.069-.249-5.719-2.073-5.652-10.7.102-13.104 7.189-3.004 12.929 5.773 7.563 11.566-1.358 1.466-.715 1.285.813-.228 5.838-5.784-2.629-15.737-9.568-11.247m-123.455 5.949c-.142 1.031-.181 1.953-.086 2.047.094.094.296-.663.449-1.684.153-1.02.192-1.942.086-2.047-.106-.106-.308.652-.449 1.684m-8.202-.102c-.055 1.601 1.222 4.247 2.049 4.247.241 0 .009-.456-.515-1.014-.587-.625-1.055-1.739-1.217-2.9-.261-1.874-.263-1.876-.317-.333m6.625 3.681c-.618.531-.978.96-.8.953.443-.019 2.273-1.57 2.079-1.763-.087-.086-.662.279-1.279.81m127.183 4.264c.242.392 3.236.394 3.476.002.101-.165-.682-.301-1.74-.302-1.058-.001-1.839.134-1.736.3" fill="#6c6e6c"/></g></svg>