<svg xmlns="http://www.w3.org/2000/svg" width="32" height="32" viewBox="0 0 400 400"><g fill-rule="evenodd"><path d="M0 200v200h79.2c63.096 0 79.199-.102 79.194-.5-.003-.275.552-2.3 1.234-4.5.681-2.2 1.516-4.99 1.855-6.2.339-1.21.774-2.513.967-2.895.192-.382.35-1.135.35-1.674 0-.538.193-1.486.43-2.105 1.069-2.804 2.544-11.181 4.036-22.926.855-6.728.72-36.739-.186-41.2-.379-1.87-.877-4.39-1.105-5.6-.461-2.441-1.868-7.461-2.358-8.413-.173-.337-.448-1.237-.609-2-.162-.763-.905-2.529-1.651-3.924S160 295.334 160 295.099c0-.235-.9-1.754-2-3.375s-2-3.046-2-3.167c0-.12-.495-.719-1.1-1.331-.605-.611-1.92-1.993-2.923-3.069-2.999-3.221-6.768-6.616-16.377-14.755-10.174-8.618-20.361-19.419-25.277-26.802-1.703-2.557-5.519-10.321-5.521-11.233-.001-.459-.134-.966-.295-1.127-.161-.161-.53-1.046-.818-1.967-1.22-3.89-1.701-6.065-1.942-8.787-.141-1.587-.439-3.117-.662-3.4-.58-.733-.014-12.417.769-15.886.347-1.54.78-3.61.962-4.6.586-3.194 1.429-6.695 2.603-10.8.346-1.21.82-2.92 1.054-3.8.943-3.548 1.589-5.635 1.948-6.295.209-.382.379-1.05.379-1.485 0-1.046 1.364-1.735 3.045-1.539.745.087 1.219.034 1.055-.118-.165-.152-1.449-.354-2.854-.449-3.317-.225-3.646-.667-3.646-4.914 0-4.395-.979-5.357-5.486-5.39-1.95-.015-2.114-.722-2.114-9.107 0-10.03-1.007-9.1 9.868-9.116 12.303-.019 15.014-.147 13.661-.642-1.381-.506-1.362-.559 3.659-10.452 4.447-8.76 4.515-8.885 6.527-11.974.817-1.254 1.485-2.376 1.485-2.492 0-.552 7.291-11.174 8.393-12.227.115-.11 1.288-1.536 2.608-3.169 4.229-5.235 9.312-9.997 19.682-18.438.266-.216.656-.393.867-.393.211 0 .443-.135.517-.3.202-.456 4.233-3.088 6.933-4.527 1.32-.704 2.85-1.525 3.4-1.824.55-.299 1.304-.545 1.676-.547.372-.001.788-.182.924-.402.136-.22.599-.4 1.029-.4.43 0 1.094-.164 1.476-.365 3.078-1.615 10.12-2.273 17.095-1.597 8.065.781 8.2.805 8.2 1.442 0 .445.263.541.983.36.552-.138 1.695.038 2.604.401 1.136.455 2.157.568 3.417.379 1.169-.175 1.796-.121 1.796.155 0 .234-.371.425-.824.425-.453 0-.712.18-.576.4.136.22.957.4 1.824.4.867 0 1.576.158 1.576.351 0 .565 2.269 1.345 3.123 1.073.507-.16.865-.032 1.017.364.129.337.59.612 1.024.612.433 0 1.828.54 3.1 1.199 1.271.66 2.62 1.101 2.998.981.379-.12 1.014-.033 1.413.193s1.757.697 3.018 1.045c1.261.349 2.396.803 2.523 1.008.309.501 2.872.479 3.184-.026.322-.521 3-.521 3 0 0 .22-.63.4-1.4.4-.77 0-1.4.18-1.4.4 0 .522 3.078.522 3.4 0 .136-.22 1.337-.4 2.67-.4 2.28 0 2.501-.086 3.771-1.472.741-.81 1.459-1.362 1.594-1.227.135.136-.131.65-.591 1.143-1.064 1.143-.883 1.314.609.57 2.465-1.23 4.547-5.135 4.547-8.528 0-4.957 1.616-5.715 5.749-2.696 4.214 3.078 6.298 5.551 8.432 10.01.632 1.32 1.299 2.713 1.484 3.095.184.382.335 1.124.335 1.649 0 .526.27 1.721.6 2.656 1.199 3.4.364 13.502-1.226 14.821-.316.263-.574.645-.574.849 0 .205-1.035 1.668-2.3 3.251L265.4 111l.025 4c.035 5.521 1.458 11.738 2.795 12.207.704.247.706.282.039.656-.608.34-.64.559-.233 1.566.943 2.333 1.113 2.805 1.738 4.846.35 1.141.636 2.356.636 2.7 0 .344.139.625.309.625.17 0 .514.855.765 1.9.643 2.675.239 2.9-5.217 2.9-2.415 0-4.293.097-4.175.216.242.241 15.45.229 20.718-.016 7.069-.33 7.2-.157 7.2 9.497 0 8.782.034 8.698-3.617 8.927-3.45.217-3.528.372-4.522 8.976-.053.458-.744.628-2.93.717-2.132.087-2.992.291-3.377.8-.437.579-.43.607.045.183 1.568-1.398 7.598-.332 7.603 1.344.002.416.272 1.272.6 1.902.329.63.598 1.474.598 1.876 0 .402.18.842.4.978.22.136.4.698.4 1.25 0 .551.212 1.396.47 1.876.259.481.609 1.504.778 2.274.17.77.606 2.48.971 3.8.364 1.32.755 3.03.869 3.8.114.77.353 1.583.531 1.807 2.02 2.534 2.707 25.904.861 29.267-.264.48-.48 1.245-.48 1.7 0 .454-.157.826-.349.826-.192 0-.437.855-.545 1.9-.172 1.681-1.479 5.193-2.791 7.5-.25.44-1.132 2.15-1.96 3.8-.829 1.65-1.834 3.36-2.234 3.8-.4.44-1.072 1.335-1.492 1.99-.421.654-.916 1.374-1.102 1.6-.185.225-.887 1.13-1.559 2.01-4.098 5.362-13.701 15.346-22.538 23.431-3.625 3.317-10.767 10.73-12.495 12.969-1.689 2.189-3.735 5.257-3.735 5.6 0 .119-.431.888-.958 1.709-.527.82-1.18 2.211-1.451 3.091-.271.88-.717 1.87-.993 2.2-.275.33-.6 1.14-.722 1.8-.122.66-.504 2.145-.849 3.3l-1.254 4.2c-.654 2.187-.894 3.315-1.982 9.3-1.597 8.783-2.442 32.006-1.209 33.239.42.42.635 1.472.672 3.29.03 1.469.133 2.266.228 1.771.355-1.84 1.201-.626.955 1.37-.032.258.127.584.352.723.641.396.482 1.12-.189.862-.458-.175-.597.075-.587 1.058.011 1.169.062 1.222.555.571.707-.931 1.533 1.112 1.174 2.905-.206 1.032-.113 1.163.911 1.28 1.384.159 1.689 1.189.656 2.222-.712.712-.713.77-.025 1.495.394.415.723 1.037.732 1.384.009.346.549 1.253 1.2 2.015.78.912 1.184 1.824 1.184 2.671 0 .708.262 1.549.582 1.869.399.399.515 1.07.367 2.129-.119.857-.067 1.355.118 1.117.754-.972 1.72-.962 1.967.02.324 1.294-.121 2.001-.87 1.379-.457-.379-.564-.299-.564.424 0 .628.177.824.6.661.333-.127.6-.011.6.262 0 .27.552.94 1.226 1.487.675.548 1.476 1.581 1.78 2.296.394.926.818 1.302 1.474 1.306.535.004.732.129.47.3-.609.398-1.197 3.094-.593 2.72.792-.489 1.259.157.735 1.017-.608.996.662 2.259 1.54 1.531.635-.528 1.031.082.548.845-.202.32-.356.941-.342 1.381.014.44.116.575.227.3.379-.939 1.449-.58 1.193.4-.241.918.492 3.1 1.04 3.1.166 0 .305-.405.308-.9.005-.709.085-.775.377-.313.236.373.214.776-.061 1.107-.317.382-.266.706.192 1.214.343.38.747 1.187.898 1.792l.275 1.1H400V0H0v200m141.9-57.702c1.815.074 4.785.074 6.6 0 1.815-.075.33-.135-3.3-.135s-5.115.06-3.3.135m34 .4c2.255.072 5.945.072 8.2 0 2.255-.071.41-.129-4.1-.129s-6.355.058-4.1.129m20.6.401c2.585.069 6.815.069 9.4 0 2.585-.07.47-.127-4.7-.127s-7.285.057-4.7.127m40.425 0c3.699.067 9.639.066 13.2 0s.535-.12-6.725-.12-10.174.054-6.475.12m-20.382.488c3.049.141 6.289.133 7.2-.016.911-.149-1.583-.264-5.543-.255l-7.2.016 5.543.255m10.362-.1c.609.092 1.509.09 2-.005.492-.095-.005-.171-1.105-.168-1.1.003-1.503.081-.895.173m-15.605 8.404c.825.087 2.175.087 3 0 .825-.086.15-.157-1.5-.157s-2.325.071-1.5.157m12.78.189c-.264.264-.462.849-.44 1.3.033.686.085.657.316-.18.258-.933.49-1.015 3.46-1.227l3.184-.226-3.02-.074c-1.908-.046-3.197.104-3.5.407m-104.213.193c.258.184.55.962.651 1.73.176 1.338.182 1.331.133-.172-.033-1.024-.259-1.625-.651-1.731-.409-.11-.451-.055-.133.173m14.393-.003c.252.181.551.78.663 1.33.176.861.195.838.14-.169-.035-.66-.325-1.24-.663-1.331-.401-.107-.448-.051-.14.17m82.137 3.848.198 4.082.118-3.764c.065-2.07-.023-3.907-.197-4.082-.174-.175-.227 1.519-.119 3.764m14.793-2.199.193 1.881.136-1.553c.074-.854-.012-1.7-.193-1.881-.181-.181-.242.518-.136 1.553m-22.676 1.881c.003 1.1.081 1.503.173.895.092-.609.09-1.509-.005-2-.095-.492-.171.005-.168 1.105m-73.714 2.767c0 1.999-.163 3.032-.5 3.168-.299.121-.218.215.2.233.611.028.7-.375.7-3.168 0-1.76-.09-3.2-.2-3.2-.11 0-.2 1.335-.2 2.967m96.047 1.5c-.034.777-.345 1.175-1.147 1.468l-1.1.402 1.1.031c.843.025 1.1.23 1.1.876v.845l.7-.864c.623-.77 1.029-.851 3.7-.745l3 .12v4.388c0 4.279-.025 4.401-1 4.894l-1 .506 1.071.006c.68.004 1.137.261 1.253.706.163.622.188.625.23.029.025-.369.361-.753.746-.853.667-.174.667-.185 0-.23-.625-.041-.7-.559-.7-4.838 0-5.522.343-5.127-4.597-5.306-2.755-.1-2.802-.12-3.053-1.302-.25-1.176-.256-1.179-.303-.133m-14.554 1.236c-.2.521-.923.692-3.374.799l-3.119.137 3.1.081c3.083.08 3.1.086 3.146 1.18.036.838.094.91.243.3.353-1.436.896-1.709 3.716-1.868 1.529-.087 3.009-.388 3.288-.67.412-.416.296-.433-.619-.087-1.561.589-5.765.551-5.967-.055-.102-.304-.253-.238-.414.183m-96.131.22c-.275.185-.239.609.107 1.277.355.683.521.789.525.333.003-.366.206-.733.45-.814.294-.098.256-.304-.114-.611-.306-.254-.742-.338-.968-.185m18.743.364c.609.092 1.509.09 2-.005.492-.095-.005-.171-1.105-.168-1.1.003-1.503.081-.895.173m3.888 4.71-.193 4.397-1.2.255-1.2.256 1.3.048c.951.034 1.302.235 1.306.747.004.468.106.543.308.226.166-.261 1.198-.544 2.294-.628l1.992-.154-2.087-.072-2.088-.072-.119-4.7-.119-4.7-.194 4.397m-15.265 1.004c-.07 1.98.007 3.6.172 3.6.165-.001.3-1.621.3-3.601 0-4.652-.306-4.652-.472.001m7.403-1.001c.002 1.54.074 2.121.161 1.291.087-.83.085-2.09-.003-2.8-.089-.71-.16-.031-.158 1.509m88.77-1.2c.004.88.086 1.193.182.695.096-.497.092-1.217-.008-1.6-.1-.382-.179.025-.174.905m6.813 1.6c.003 1.1.081 1.503.173.895.092-.609.09-1.509-.005-2-.095-.492-.171.005-.168 1.105m-6.805 1.8c0 .99.078 1.395.173.9a5.661 5.661 0 0 0 0-1.8c-.095-.495-.173-.09-.173.9m6.593 1.532c-.229.877-.383.908-4.067.82-2.106-.05-3.965.055-4.132.234-.167.18.197.207.807.06 1.043-.25 1.097-.199.891.844-.199 1.008-.183 1.027.177.21.356-.808.678-.9 3.16-.9 2.8 0 3.949-.54 3.57-1.676-.092-.277-.275-.093-.406.408M125 171.6c-1.107.282-1.123.309-.2.347.55.022 1.27-.134 1.6-.347.681-.44.329-.44-1.4 0m3.267-.133c-.147.146-.267.541-.267.876 0 .519.075.511.5-.051.341-.452 1.261-.706 2.9-.801l2.4-.14-2.633-.075c-1.449-.042-2.754.044-2.9.191m115.133.097c.88.145 1.87.406 2.2.58.33.173.251.032-.176-.314-.428-.347-1.418-.607-2.2-.58l-1.424.05 1.6.264M113.293 173.6c0 .77.082 1.085.183.7.1-.385.1-1.015 0-1.4-.101-.385-.183-.07-.183.7m22.457 3c.001 2.42.066 3.358.146 2.085.08-1.273.079-3.253-.002-4.4-.08-1.147-.145-.105-.144 2.315m139.131-.58c-.049 2.334-.268 4.007-.561 4.3-.365.365-.367.48-.008.48.718 0 .938-1.455.787-5.2l-.136-3.4-.082 3.82m-124.372-1.62c0 .99.078 1.395.173.9a5.661 5.661 0 0 0 0-1.8c-.095-.495-.173-.09-.173.9m-22.808.6c.004.88.086 1.193.182.695.096-.497.092-1.217-.008-1.6-.1-.382-.179.025-.174.905m.019 3.8c0 1.21.075 1.705.167 1.1a8.899 8.899 0 0 0 0-2.2c-.092-.605-.167-.11-.167 1.1m14.781-.2c.004.88.086 1.193.182.695.096-.497.092-1.217-.008-1.6-.1-.382-.179.025-.174.905m-29.175 1.369c.041.532.344 1.041.674 1.13.396.107.446.05.146-.169-.249-.181-.553-.69-.674-1.13-.173-.631-.204-.595-.146.169M267.74 185.2c0 1.87.069 2.635.153 1.7.084-.935.084-2.465 0-3.4s-.153-.17-.153 1.7m-146.837 5.2c.142.521 2.414.601 17.33.607l17.167.006-16.979-.111c-12.943-.084-17.063-.229-17.331-.606-.257-.364-.307-.336-.187.104m140.797.291c.825.087 2.175.087 3 0 .825-.086.15-.157-1.5-.157s-2.325.071-1.5.157" fill="#7145a5"/><path d="M256.509 74.7c.022 6.24-3.091 9.969-9.845 11.797-6.264 1.695-9.087 1.172-20.173-3.739-2.244-.994-2.549-1.119-6.691-2.745-1.76-.69-3.56-1.419-4-1.62-4.507-2.055-17.751-4.98-22.4-4.947-6.313.045-17.924 3.289-19.208 5.367-.132.213-.502.387-.824.387-.321 0-1.255.44-2.076.979-3.734 2.449-7.224 4.999-8.692 6.35-.88.81-1.915 1.575-2.3 1.699-.385.124-.7.484-.7.799 0 .315-.23.573-.512.573-.825 0-5.778 4.939-5.571 5.556.11.328.008.445-.251.285-.579-.358-1.885.982-2.206 2.264-.188.748-.456.969-1.003.826-.909-.238-1.485 1.296-.613 1.631.839.322.668 1.438-.22 1.438-.427 0-.89-.183-1.028-.407a.471.471 0 0 0-.643-.164c-.253.157-.247.417.018.736.81.976.561 4.338-.492 6.635-.555 1.21-1.131 3.145-1.281 4.299-.157 1.208-.701 2.731-1.281 3.585-.616.909-.835 1.543-.563 1.634.63.21.553 1.351-.16 2.369-.95 1.357-1.452 4.646-1.629 10.693-.09 3.068-.344 5.759-.565 5.98-.603.603-.487.924.423 1.162.719.188.759.318.315 1.028-1.461 2.341.192 2.407 66.262 2.652 32.34.12 59.55.102 60.467-.04l1.667-.258-1.4-3.852-2.925-8.052c-6.026-16.584-5.994-15.858-.929-21.14 8.978-9.362 6.609-26.797-4.841-35.63-3.493-2.694-4.144-2.399-4.13 1.87M114.08 154.48c-.637.637-.637 6.003 0 6.64.609.609 2.382.617 3.701.016.953-.435 1.019-.648 1.019-3.32 0-3.328-.333-3.816-2.6-3.816-.902 0-1.856.216-2.12.48m14.8 0c-.291.291-.48 1.703-.48 3.582v3.102l1.431.268c2.83.531 3.752-.728 3.765-5.142.005-2.009-3.262-3.264-4.716-1.81m81.134.294c-.574 1.072-.525 5.755.066 6.346.638.638 3.141.59 4.02-.077 1.179-.895 1.015-6.465-.2-6.791-1.836-.492-3.46-.274-3.886.522m14.866-.294c-.286.286-.48 1.662-.48 3.4v2.92H229.101l.058-2.982c.05-2.583-.047-3.037-.725-3.4-1.051-.562-2.963-.529-3.554.062m-98.62 9.022c-.12.196-1.243.383-2.495.415-2.762.073-2.453-.336-2.623 3.483l-.142 3.2 2.5.119 2.5.119v-2.845c0-1.565.195-3.209.432-3.654.422-.787.266-1.545-.172-.837m9.946.826c-.113.296-.206 1.873-.206 3.505v2.967h2.373c2.733 0 2.711.033 2.66-4l-.033-2.6-2.294-.204c-1.698-.152-2.347-.065-2.5.332m82.294-.447c-1.091.142-1.305.342-1.333 1.244-.018.591-.11 2.119-.205 3.394l-.172 2.319 2.505-.119 2.505-.119v-3.4c0-3.785.031-3.753-3.3-3.319m13.539.979c-1.496 4.291-.408 6.624 2.86 6.134l1.71-.256.115-3.172c.112-3.096.09-3.181-.931-3.569-2.075-.789-3.274-.513-3.754.863m44.186 7.499c-.122.197-.178 2.163-.125 4.369.113 4.729.205 4.591-3.215 4.8-3.435.21-3.679.434-3.715 3.421-.016 1.348-.151 3.261-.3 4.251l-.27 1.8-2.5.356c-1.667.237-2.5.537-2.5.9 0 .299-.23.544-.511.544-.542 0-1.272.753-2.343 2.417-1.293 2.006-10.235 10.567-11.437 10.948-.477.152-.979.627-1.115 1.055-.479 1.509-4.544-.371-5.187-2.398-.143-.452-.429-.822-.634-.822-.205 0-.373-.266-.373-.591 0-.325-.45-.885-1-1.246-.55-.36-1-.874-1-1.142 0-.576-3.648-3.021-4.507-3.021-2.1 0-1.485 2.346.903 3.447.772.356 2.034 1.241 2.804 1.966.77.725 2.165 1.712 3.1 2.193.935.481 1.7 1.062 1.7 1.29 0 .229.28.62.622.871.74.541 1.355 2.957 1.368 5.373.01 1.763-3.871 9.26-4.793 9.26-.207 0-.656.54-.997 1.2-.341.66-.877 1.2-1.19 1.2-.314 0-.714.242-.89.537-.176.295-.834.869-1.463 1.274-1.054.68-1.119.863-.841 2.363.522 2.821.365 4.77-.529 6.58-.878 1.778-.858 2.446.075 2.446.283 0 .812.329 1.176.731.73.807.89 2.069.262 2.069-.22 0-.4.18-.4.4 0 .22.27.4.6.4.33 0 .6.18.6.4 0 .22.376.4.836.4.46 0 1.144.381 1.521.847.563.694 1.33.903 4.265 1.158 1.968.172 4.298.506 5.178.744.88.237 2.41.442 3.4.454 1.791.022 3.2.691 3.2 1.52 0 .578 3.226.478 4-.125.33-.256 1.23-.706 2-.998.77-.292 1.694-.781 2.053-1.086 1.068-.905 9.147-1.235 9.147-.374 0 1.047.723.769 1.4-.54.587-1.135 2.2-1.722 2.2-.8 0 1.93 4.566-4.354 7.407-10.193 1.941-3.993 2.613-5.873 3.858-10.807.622-2.461 1.558-12.603 1.329-14.4-.112-.88-.377-3.45-.59-5.71-.213-2.261-.758-5.681-1.212-7.6-.454-1.92-1.098-4.75-1.432-6.29-.533-2.461-1.587-6.306-2.576-9.4-.176-.55-.634-2.08-1.018-3.4-.383-1.32-.87-2.625-1.081-2.9-.442-.577-4.916-.697-5.26-.141M110.4 173.624c0 1.414.613 1.265.897-.218.129-.676.014-1.006-.352-1.006-.341 0-.545.458-.545 1.224m22.009-.378c-.544.217-1.419.288-1.942.156-1.505-.377-2.04.742-2.054 4.298l-.013 3.1h5.2v-2.75c0-1.512.113-3.312.25-4 .267-1.335.11-1.423-1.441-.804m12.391.249c-1.417.263-1.587.714-1.594 4.224l-.006 3.119 2.5-.119 2.5-.119.108-3.072c.108-3.1-.567-4.476-2.097-4.274-.226.03-.861.139-1.411.241m80.7.17c-1.082.395-1.1.458-1.1 3.788v3.387l2.3-.12 2.3-.12v-3.315c0-4.091-.577-4.688-3.5-3.62m15.3-.112-1.4.247-.22 3c-.296 4.022-.309 4 2.463 4H244v-3.386c0-3.171-.582-4.617-1.674-4.161-.069.029-.756.164-1.526.3m-131.333 1.914c-.147.146-.267.74-.267 1.32 0 .579-.154 1.224-.342 1.433-.188.209-.645 1.37-1.016 2.58-.37 1.21-.818 2.56-.995 3-1.122 2.786-1.925 6.089-3.891 16-1.485 7.484-1.051 19.319.913 24.903.629 1.788 1.331 1.932 1.331.273 0-.537.162-.976.361-.976.553 0 1.921-5.061 2.216-8.2.145-1.54.436-3.52.646-4.4.21-.88.557-4.12.771-7.2.214-3.08.578-7.13.81-9 .232-1.87.485-5.553.564-8.185.09-3.038.305-4.839.587-4.933.245-.082.439-.809.432-1.615-.012-1.377-.049-1.419-.6-.691-.554.733-.59.699-.633-.6-.103-3.122-.368-4.229-.887-3.709m95.196 15.374c-3.988.276-4.95.634-4.545 1.69.327.852 4.387 2.597 7.604 3.268 1.533.319 3.22.864 3.748 1.21.895.586 5.924 1.381 8.783 1.388 2.29.006 1.973-2.69-.404-3.445-.465-.148-1.027-.503-1.247-.789-.444-.575-2.929-1.549-6.002-2.352-1.1-.287-2.45-.684-3-.882-.55-.198-2.772-.237-4.937-.088M207.8 225.6c-.44.189-1.43.36-2.2.38-4.731.121-7.326 2.237-3.6 2.935 4.089.767 14.452-.275 17.927-1.802l1.327-.584-1.74-.664c-1.899-.726-10.205-.913-11.714-.265m68.002 19.198c-.614.678-.63.802-.107.802.341 0 .733-.296.872-.657.378-.985.051-1.047-.765-.145M224.4 279.256c0 .471-.315 1.103-.7 1.406-.448.351-.502.511-.15.444.303-.058.631.164.73.494.133.442.088.468-.173.1-.279-.394-.518-.376-1.131.087-.427.323-1.124.593-1.55.6-.426.007-1.146.356-1.6.775-.454.419-1.456.948-2.226 1.175-3.894 1.152-6 2.361-6 3.445 0 .507-2.7 1.638-3.524 1.475-.98-.193-3.471.862-5.272 2.234-.987.752-2.282 1.465-2.877 1.584-.594.118-1.622.81-2.283 1.537-.661.726-1.562 1.435-2.003 1.575-.44.14-.912.607-1.049 1.038-.137.431-.749 1.043-1.361 1.359-1.287.666-3.449 3.013-3.803 4.129-.134.421-.645.949-1.136 1.172-.496.226-1.134 1.097-1.437 1.961-.299.855-.884 1.825-1.3 2.156-.731.583-2.194 6.487-1.776 7.165.1.16.009 1.503-.2 2.983-.21 1.48-.467 7.407-.572 13.171-.275 15.077-.584 25.719-.828 28.479-.553 6.271-2.246 14.997-3.133 16.147-.511.662-1.821 5.492-1.835 6.766-.006.501-.281 1.016-.611 1.142-.33.127-.6.647-.6 1.155 0 1.237-.407 2.233-.811 1.983-.454-.28-1.887 3.691-2.344 6.492-.208 1.273-.573 2.822-.811 3.441-.239.619-.434 1.564-.434 2.1V400h39c36.29 0 40.061-.097 38.61-.994-.574-.354-7.21-10.723-7.21-11.264 0-.108-.45-.785-1-1.506-.55-.722-1-1.438-1-1.593 0-.155-.617-1.246-1.371-2.425-1.575-2.462-2.648-4.735-5.237-11.09-1.014-2.49-2.164-5.248-2.555-6.128-.672-1.51-2.095-7.865-3.437-15.344-1.478-8.239-.412-27.486 2.196-39.656 1.595-7.441 5.865-20.62 6.886-21.251.407-.251.41-.417.015-.812-.274-.274-.497-.911-.497-1.417 0-1.196-.449-1.162-1.745.135l-1.055 1.054v-5.589l-2.993.192c-2.836.182-4.95-.798-3.072-1.424.264-.088.733-.413 1.044-.724.31-.31 1.207-.564 1.992-.564 1.004 0 1.429-.179 1.429-.6 0-.489-.667-.6-3.6-.6-3.412 0-3.6.045-3.6.856M164.406 383.5c.005.801.103.947.363.536.196-.31.264-.805.151-1.1-.324-.846-.521-.63-.514.564m-.963 3.533c-.365.95-.292 2.967.107 2.967.331 0 .85-1.861.85-3.05 0-.752-.659-.695-.957.083m-1.043 4.663c0 1.021-.166 1.959-.369 2.085-.203.125-.488.766-.632 1.424-.144.657-.407 1.195-.584 1.195s-.418.405-.536.9a34.4 34.4 0 0 1-.493 1.8c-.221.712-.123.899.467.896 1.359-.007 3.683-8.62 2.615-9.688-.357-.357-.468-.029-.468 1.388" fill="#dcdcdf"/><path d="M123.089 142.244c-.158.158-5.445.32-11.748.359-13.998.087-12.541-.97-12.541 9.1 0 8.385.164 9.092 2.114 9.107 4.507.033 5.486.995 5.486 5.39 0 4.247.329 4.689 3.646 4.914 3.343.226 3.354.244 3.354 5.072 0 4.936-.147 4.738 3.62 4.873 3.924.14 3.779-.038 3.786 4.665.003 2.242.139 4.285.302 4.541.216.34 5.342.502 18.974.6 14.261.103 18.797.253 19.178.635.359.359.369.5.035.5-.255 0-.738.921-1.072 2.047-.334 1.126-1.21 2.971-1.946 4.1-.735 1.129-1.553 2.593-1.818 3.253-.296.741-1.557 1.966-3.296 3.2-3.336 2.37-4.539 3.832-4.934 6-.16.88-.707 2.05-1.215 2.6-2.019 2.185-1.636 5.056 1.05 7.89 3.425 3.615 4.802 4.904 5.976 5.597 1.406.831 1.746 1.881 1.385 4.284-.644 4.294 2.866 7.938 10.268 10.661 3.334 1.226 4.03 1.43 9.531 2.788 7.808 1.927 31.991 2.053 37.376.194.88-.304 2.554-.746 3.72-.983 1.166-.237 2.611-.685 3.211-.995.6-.311 2.138-.838 3.417-1.172 1.28-.334 2.639-.89 3.021-1.236.382-.345 1.154-.628 1.717-.628.862 0 3.888-1.762 6.353-3.698 1.457-1.146 2.474-4.338 1.561-4.902-.22-.136-.4-.77-.4-1.41 0-1.897-3.486-2.573-4.843-.939-.297.359-1.329.549-2.981.549-1.39 0-3.678.267-5.086.594-6.928 1.606-17.149 1.586-25.484-.052-5.339-1.049-6.386-3.578-1.706-4.124.567-.066.586-.125.1-.309-3.056-1.162-2.491-1.625 2.296-1.883 2.587-.14 6.191-.446 8.008-.682 4.486-.581 18.982.852 20.696 2.046.863.602 5.051 1.676 5.644 1.448.346-.132 1.235.047 1.975.398l1.346.639 2.042-1.738c5.478-4.66 9.555-12.172 7.836-14.437-.774-1.019-.905-.888-.978.986-.08 2.051-.869 3.073-1.647 2.136-.663-.799-.622-3.842.058-4.292.98-.648-1.196-1.994-3.052-1.888-2.974.171-3.341.045-3.624-1.242-.145-.66-.384-1.223-.532-1.251-.147-.029-1.263-.088-2.479-.133-1.284-.047-2.646-.366-3.251-.762-1.222-.801-2.951-.274-3.363 1.026-.293.922-3.061.672-5.375-.485-1.594-.797-6.201-1.441-6.527-.913-.514.832-3.01.57-3.144-.329-.096-.647-.64-1.034-2.129-1.519-1.1-.357-2.63-1.002-3.4-1.433a74.91 74.91 0 0 0-2.4-1.285c-.55-.275-1.27-.67-1.6-.876-.33-.206-2.13-.965-4-1.687-1.87-.722-3.772-1.637-4.226-2.033-.454-.396-1.109-.72-1.455-.72-.347 0-1.033-.326-1.525-.725-1.684-1.363.927-3.314 5.079-3.797 3.156-.367 3.682-1.194 1.553-2.441-1.563-.917-2.626-2.049-2.626-2.8 0-.363 4.836-2.637 5.61-2.637 1.025 0 3.04 2.134 3.591 3.803.586 1.775 1.352 2.174 4.701 2.449 3.962.324 11.225 2.654 16.711 5.36 6.965 3.435 8.245 3.558 6.73.65-1.821-3.496-3.199-3.226 17.857-3.489 21.689-.271 20 .136 20-4.813 0-4.915.168-5.16 3.534-5.16 3.53 0 3.666-.171 3.666-4.636 0-4.849.351-5.305 4.196-5.455 2.132-.083 2.812-.251 2.865-.709.992-8.599 1.072-8.759 4.522-8.976 3.651-.229 3.617-.145 3.617-8.927 0-9.727-.074-9.82-7.6-9.509-2.09.086-13.52.264-25.4.394-11.88.13-24.48.353-28 .495-7.915.319-3.693.362-37.8-.39-37.769-.834-67.749-1.205-68.111-.843m92.937 9.77c.696.372.774.875.774 5v4.586h2.374c4.328 0 4.426-.108 4.426-4.91 0-4.994.073-5.092 3.78-5.084 4.051.009 4.02-.032 4.02 5.283v4.511l2.8.102c4.944.179 4.6-.219 4.6 5.322v4.809l2.784-.239c4.307-.371 4.416-.247 4.416 5.006 0 5.076.019 5.051-3.986 5.386-4.028.337-4.144.183-3.937-5.226l.174-4.56h-2.893c-4.322 0-4.158-.184-4.158 4.653s-.097 4.947-4.377 4.947c-3.114 0-3.33-.324-3.314-4.965.019-5.518-.034-5.435 3.494-5.435 3.55 0 3.376.24 3.597-4.979l.178-4.221h-3.143c-3.725 0-3.621-.156-3.63 5.481l-.005 3.681-1.5.417c-1.655.459-4.879.557-5.867.178-.526-.201-.633-1.01-.633-4.759v-4.516l-3.367-.141c-1.852-.078-3.476-.251-3.61-.385-.723-.723-.415-9.222.353-9.786.916-.672 5.486-.779 6.65-.156M120.8 157l.2 4.8 1.999.126c1.099.069 2.584.016 3.3-.118l1.301-.244.047-3.482c.026-1.915.163-4.022.304-4.682l.257-1.2H135l.112 4.9.113 4.9h-2.839c-4.331 0-4.386.062-4.386 4.934v4.105l-1.328.481c-1.908.689-5.657.621-6.267-.114-.345-.415-.45-1.888-.349-4.9l.144-4.306-2.8-.043c-5.15-.079-4.6.462-4.6-4.524 0-5.987-.226-5.684 4.148-5.547l3.652.114.2 4.8m21.374 4.99c1.019.388 1.026.42 1.026 5v4.61h3.386c4.254 0 4.335.111 3.961 5.423-.311 4.432-.474 4.599-4.595 4.704-3.53.091-3.713-.21-3.422-5.638l.242-4.521-3.286.116-3.286.116-.113 4.465-.113 4.466-1.246.434c-5.55 1.935-7.349.569-7.039-5.345.243-4.652.22-4.62 3.302-4.62 3.828 0 3.803.025 3.849-3.743.055-4.541.293-5.203 1.977-5.504 2.217-.397 4.253-.383 5.357.037m86.626 44.586c0 .822-.714 1.157-2.333 1.096-1.36-.051-2.224-.694-1.817-1.353.375-.606 4.15-.372 4.15.257" fill="#716024"/><path d="M256.713 70.9c-.485.379-.676 1.425-.791 4.319-.198 4.991-1.518 7.03-6.122 9.457-5.514 2.907-11.219 2.83-17.931-.245-1.479-.677-2.782-1.231-2.896-1.231-.113 0-1.361-.54-2.773-1.2-1.412-.66-2.757-1.2-2.989-1.2-.232 0-.734-.172-1.116-.381-.984-.541-7.947-3.202-10.095-3.86-3.237-.99-3.08-.513.2.605 1.76.601 3.56 1.239 4 1.42.44.18 2.15.858 3.8 1.506 3.94 1.548 4.27 1.684 6.491 2.668 11.086 4.911 13.909 5.434 20.173 3.739 6.754-1.828 9.867-5.557 9.845-11.797-.014-4.269.637-4.564 4.13-1.87 11.45 8.833 13.819 26.268 4.841 35.63-5.065 5.282-5.097 4.556.929 21.14l2.934 8.076 1.408 3.877-1.275.159-1.276.16 1.313.064c1.984.097 1.929-.385-.932-8.156a3362.437 3362.437 0 0 1-4.973-13.58c-2.065-5.558-1.883-6.198 3.687-12.959 8.249-10.013 4.051-28.552-8.142-35.962-1.698-1.031-1.62-1.019-2.44-.379M189.4 73.255c-3.958.501-4.206.802-.4.487 4.062-.337 4.973-.341 8.4-.031l2.8.254-3-.558c-3.404-.632-3.923-.642-7.8-.152m-6.8 1.238c-2.979 1.013-4.513 1.622-6 2.382-.88.45-2.652 1.35-3.937 2.001-13.082 6.623-33.782 28.315-40.39 42.324-.156.33-.744 1.41-1.306 2.4-.563.99-1.928 3.6-3.034 5.8-1.107 2.2-2.209 4.36-2.45 4.8-3.59 6.544-3.695 7.153-1.183 6.854 4.328-.515 5.597-.514 7.5.004 1.57.428 7.891.576 29.4.689 27.275.143 27.304.142 6.4-.156-24.275-.345-26.44-.555-25.262-2.441.444-.71.404-.84-.315-1.028-.91-.238-1.026-.559-.423-1.162.221-.221.475-2.912.565-5.98.177-6.047.679-9.336 1.629-10.693.713-1.018.79-2.159.16-2.369-.272-.091-.053-.725.563-1.634.58-.854 1.124-2.377 1.281-3.585.15-1.154.726-3.089 1.281-4.299 1.053-2.297 1.302-5.659.492-6.635-.265-.319-.271-.579-.018-.736a.471.471 0 0 1 .643.164c.138.224.601.407 1.028.407.888 0 1.059-1.116.22-1.438-.872-.335-.296-1.869.613-1.631.547.143.815-.078 1.003-.826.321-1.282 1.627-2.622 2.206-2.264.259.16.361.043.251-.285-.207-.617 4.746-5.556 5.571-5.556.282 0 .512-.258.512-.573 0-.315.315-.675.7-.799.385-.124 1.42-.889 2.3-1.699 1.468-1.351 4.958-3.901 8.692-6.35.821-.539 1.755-.979 2.076-.979.322 0 .692-.174.824-.387.375-.607 4.924-2.66 8.008-3.614 1.54-.476 2.98-.927 3.2-1.001.22-.074-.05-.13-.6-.124-.55.006-1.54.195-2.2.419m18.6-.21c.55.096 2.344.513 3.986.927 2.527.637 4.527.8 2.771.227-2.562-.837-5.305-1.428-6.419-1.383-1.081.044-1.146.088-.338.229m63.905 67.6c.497.096 1.217.092 1.6-.008.382-.1-.025-.179-.905-.174-.88.004-1.193.086-.695.182m-51.805.416c4.125.065 10.875.065 15 0s.75-.118-7.5-.118-11.625.053-7.5.118m-.992 10.395c-2.632.208-3.108 1.001-3.108 5.181 0 3.709.445 4.322 2.918 4.013l1.282-.16-1.42-.064c-2.004-.09-2.38-.655-2.38-3.57 0-3.911.933-4.744 4.3-3.842 1.215.326 1.379 5.896.2 6.791-.589.447-.602.534-.08.544 1.209.025 1.58-.911 1.58-3.987 0-2.674-.621-5.325-1.2-5.125-.11.038-1.052.136-2.092.219m-98.554 1.095c-.881 1.255-.775 7.811.126 7.811.529 0 .573-.107.2-.48-.637-.637-.637-6.003 0-6.64.264-.264 1.218-.48 2.12-.48 2.268 0 2.6.488 2.6 3.819 0 2.569-.091 2.903-.9 3.293-.751.362-.78.438-.174.461 1.863.069 2.155-.529 1.972-4.052-.146-2.802-.304-3.415-1.014-3.921-1.262-.901-4.245-.787-4.93.189m15.346-.559c-.385.225-.7.707-.7 1.07 0 .513.107.553.48.18.589-.589 2.3-.62 3.751-.068 1.331.506 1.26 5.694-.092 6.682-.637.466-.625.506.161.506 1.483 0 2.351-5.063 1.302-7.595-.49-1.183-3.415-1.646-4.902-.775m95.492.527c-.466.711-.597 1.763-.51 4.1L224.2 161l1.973.125c3.545.224 3.712.087 3.912-3.221.27-4.446-.08-5.104-2.715-5.104-1.828 0-2.246.144-2.778.957m3.842.661c.678.363.775.817.725 3.4l-.058 2.982H224.4v-2.92c0-3.742 1.349-4.899 4.034-3.462m-100.261 3.876c.021 2.454.152 3.106.627 3.14.33.024.382-.031.116-.122-.301-.102-.537-1.284-.627-3.139l-.143-2.976.027 3.097m-3.973 4.503c-1.1.159-2.126.22-2.28.135-.638-.352-1.174 1.71-1.244 4.787L120.6 171l2.6.044 2.6.043-2.4-.243-2.4-.244.142-3.2c.169-3.812-.142-3.378 2.488-3.467 1.194-.04 2.429-.266 2.745-.503.472-.353.511-.287.217.37-.518 1.156-.736 7-.262 7 .215 0 .467-1.575.56-3.5.093-1.925.31-3.815.482-4.2.349-.78.208-.793-3.172-.303m13.099-.115c-1.301.251-1.657 1.212-1.738 4.686-.084 3.644.12 3.928 2.683 3.728l1.956-.152-2.1-.072-2.1-.072v-2.967c0-4.097-.013-4.079 2.706-3.837l2.294.204-.042 3.3c-.032 2.507.087 3.3.493 3.3.752 0 1.027-1.445.802-4.219-.329-4.065-1.068-4.647-4.954-3.899m82.003.011c-1.962.177-2.639 1.034-2.39 3.025l.16 1.282.064-1.448c.063-1.426.095-1.453 2.077-1.716 2.78-.369 2.875-.246 2.719 3.508l-.135 3.256-2.554.121-2.554.12.229-1.413c.126-.777.106-1.489-.044-1.582-.48-.295-.501 2.64-.023 3.216.299.36.93.481 1.804.346l2.72-.421 1.374-.214.126-4.187.125-4.188-1 .071c-.55.039-1.764.14-2.698.224m12.86.548c-.609.673-.79 1.595-.901 4.6l-.138 3.759h1.979c1.088 0 2.545-.198 3.238-.439l1.26-.439v-3.681c0-2.33-.176-3.857-.48-4.161-.834-.834-4.09-.597-4.958.361m3.631.756c1.021.388 1.043.473.931 3.569l-.115 3.172-1.71.256c-2.882.432-3.299.109-3.299-2.561 0-4.477 1.08-5.619 4.193-4.436M133.8 172.026c-.44.175-1.619.33-2.62.346-1.893.029-2.789.55-2.767 1.608.011.552.066.55.5-.016.291-.379 1.051-.624 1.887-.607.77.016 1.778-.106 2.24-.272.825-.295.836-.231.644 3.759-.162 3.348-.099 4.028.36 3.876.408-.135.609-1.275.756-4.293.222-4.554.153-4.858-1-4.401m142.28.054c-.264.264-.456 1.029-.427 1.7.052 1.211.054 1.209.3-.18l.247-1.4 2.437-.117c2.839-.137 2.953-.04 3.929 3.317.384 1.32.842 2.85 1.018 3.4.989 3.094 2.043 6.939 2.576 9.4.334 1.54.978 4.37 1.432 6.29.454 1.919.999 5.339 1.212 7.6.213 2.26.478 4.83.59 5.71.229 1.797-.707 11.939-1.329 14.4-1.245 4.934-1.917 6.814-3.858 10.807-2.841 5.839-7.407 12.123-7.407 10.193 0-.922-1.613-.335-2.2.8-.677 1.309-1.4 1.587-1.4.54 0-.861-8.079-.531-9.147.374-.359.305-1.283.794-2.053 1.086-.77.292-1.67.742-2 .998-.774.603-4 .703-4 .125 0-.829-1.409-1.498-3.2-1.52-.99-.012-2.52-.217-3.4-.454-.88-.238-3.21-.572-5.178-.744-2.935-.255-3.702-.464-4.265-1.158-.377-.466-1.061-.847-1.521-.847-.46 0-.836-.18-.836-.4 0-.22-.27-.4-.6-.4-.33 0-.6-.18-.6-.4 0-.22.18-.4.4-.4.22 0 .4-.332.4-.738 0-.791-1.176-2.062-1.908-2.062-.862 0-.863-.709-.005-2.446.894-1.81 1.051-3.759.529-6.58-.278-1.5-.213-1.683.841-2.363.629-.405 1.287-.979 1.463-1.274.176-.295.576-.537.89-.537.313 0 .849-.54 1.19-1.2.341-.66.79-1.2.997-1.2.922 0 4.803-7.497 4.793-9.26-.013-2.416-.628-4.832-1.368-5.373-.342-.251-.622-.642-.622-.871 0-.228-.765-.809-1.7-1.29-.935-.481-2.33-1.468-3.1-2.193-.77-.725-2.032-1.61-2.804-1.966-2.388-1.101-3.003-3.447-.903-3.447.859 0 4.507 2.445 4.507 3.021 0 .268.45.782 1 1.142.55.361 1 .921 1 1.246 0 .325.168.591.373.591s.491.37.634.822c.643 2.027 4.708 3.907 5.187 2.398.136-.428.638-.903 1.115-1.055 1.202-.381 10.144-8.942 11.437-10.948 1.071-1.664 1.801-2.417 2.343-2.417.281 0 .511-.259.511-.575 0-.342.526-.652 1.3-.766.715-.105-2.12-.097-6.3.019s-12.124.186-17.654.154l-10.053-.057-.259 1.033c-.182.726-.018 1.341.553 2.067 2.064 2.624-.034 2.826-5.064.487-1.938-.902-4.625-2.162-5.972-2.8-1.347-.639-2.712-1.162-3.033-1.162-.322 0-.713-.129-.871-.286-.157-.157-1.042-.497-1.966-.754l-4.001-1.114c-1.275-.355-2.895-.647-3.6-.648-2.531-.005-4.248-.764-5.24-2.319-1.976-3.097-3.271-3.728-6.052-2.948-3.613 1.014-3.724 2.335-.362 4.306 2.129 1.247 1.603 2.074-1.553 2.441-4.152.483-6.763 2.434-5.079 3.797.492.399 1.178.725 1.525.725.346 0 1.001.324 1.455.72.454.396 2.356 1.311 4.226 2.033s3.67 1.481 4 1.687c.33.206 1.05.601 1.6.876.55.276 1.63.854 2.4 1.285.77.431 2.3 1.076 3.4 1.433 1.489.485 2.033.872 2.129 1.519.134.899 2.63 1.161 3.144.329.326-.528 4.933.116 6.527.913 2.314 1.157 5.082 1.407 5.375.485.412-1.3 2.141-1.827 3.363-1.026.605.396 1.967.715 3.251.762 1.216.045 2.332.104 2.479.133.148.028.387.591.532 1.251.283 1.287.65 1.413 3.624 1.242 1.856-.106 4.032 1.24 3.052 1.888-.63.417-.744 3.562-.15 4.156 1.085 1.085 2.029-.679 1.704-3.186-.093-.713.393-.618 1.013.2 1.24 1.634.026 5.697-3.096 10.361-1.979 2.957-6.456 6.113-7.631 5.38-.388-.243-1.331-.441-2.097-.441-.765 0-2.162-.244-3.105-.542-7.196-2.277-10.952-2.796-20.114-2.781-9.17.016-15.68.704-14.953 1.58.248.299.729.543 1.069.543.874 0 .449.316-.725.54-3.928.748-2.553 3.026 2.415 4.002 8.335 1.638 18.556 1.658 25.484.052 1.408-.327 3.696-.594 5.086-.594 1.652 0 2.684-.19 2.981-.549 1.385-1.668 4.843-.954 4.843 1.001 0 .886.22 1.28.8 1.432 1.544.404.326 3.959-1.976 5.766-3.117 2.446-3.68 2.805-5.277 3.369-.939.331-1.986.847-2.327 1.147-.341.3-1.25.677-2.02.838-.77.162-2.03.609-2.8.996-.77.386-2.354.904-3.52 1.151s-2.628.712-3.249 1.033c-.714.369-2.8.65-5.68.764-2.783.11-5.784.505-7.726 1.016-3.591.945-15.591 1.214-18.228.409-1.353-.413-7.231-.836-10.691-.769-1.372.026-1.65-.086-1.458-.586.135-.35.025-.618-.252-.618-.297 0-.419.367-.31.935.154.81-.044.995-1.487 1.381-1.558.417-1.655.524-1.487 1.665.151 1.031.048 1.219-.667 1.219-1.013 0-1.044-.144-.205-.983.925-.924.105-1.712-1.727-1.659-1.368.039-1.486.136-1.499 1.235-.02 1.722-1.334 1.909-1.668.237-.327-1.636-2.146-1.831-2.146-.23 0 .622-.227 1-.6 1-.33 0-.6.234-.6.52 0 1.928-2.277 3.836-2.691 2.254-.246-.94-2.109-1.094-2.109-.174 0 .33-.27.6-.6.6-1.024 0-.753 1.915.3 2.118l.9.173-.9.055c-1.082.065-1.374 2.454-.3 2.454.33 0 .6.255.6.567 0 .311.16.626.355.7.853.319-.017 4.333-.939 4.333-1.221 0-1.394.283-.869 1.417.283.61.791.978 1.353.98.841.003.9.174.9 2.616 0 1.741.167 2.663.5 2.766.275.085.972.257 1.549.382.742.162 1.114.552 1.27 1.334.122.608.698 1.808 1.281 2.667.587.866.975 1.892.868 2.3-.106.406-.03.738.169.738.2 0 .363.306.363.68 0 .503.117.563.449.231.621-.621 1.551-.183 1.551.732 0 .617.297.757 1.6.757 1.062 0 1.6.178 1.6.53 0 .292.45.953 1 1.47s1 1.178 1 1.47c0 .295.432.53.976.53.537 0 1.088.18 1.224.4.136.22.597.4 1.024.4.427 0 .776.27.776.6 0 .33.27.6.6.6.333 0 .6.356.6.8 0 .566.267.8.911.8 1.84 0 3.153 3.508 2.132 5.694-.247.529-.089.784.66 1.069.645.245 1.069.795 1.229 1.595.383 1.919-.118 13.739-.626 14.756-.337.676-.341 1.25-.013 2.2.722 2.092 1.066 9.992.509 11.681-.42 1.272-.392 1.524.216 1.969.639.467.674 1.155.412 8.273-.157 4.27-.256 9.532-.221 11.693l.063 3.93-1.112-.13-1.112-.13.095-4c.183-7.637-.002-19.589-.306-19.794-.392-.264-1.637-5.258-1.637-6.565 0-.546-.166-1.096-.369-1.222-.203-.125-.488-.811-.633-1.524-.437-2.143-1.461-5.547-2.458-8.163-.517-1.358-.94-2.821-.94-3.251 0-.431-.25-.991-.557-1.245-.306-.254-.677-1.267-.824-2.251-.148-.984-.526-2.283-.841-2.887-.315-.604-.574-1.301-.576-1.549-.001-.248-.25-.657-.554-.909-.303-.252-.659-.994-.79-1.649-.139-.697-.491-1.191-.848-1.191-.738 0-.806 1.337-.106 2.071.475.499.746 1.298 2.079 6.129.303 1.1.828 2.72 1.167 3.6.338.88.623 2.174.632 2.876.01.702.198 1.388.418 1.524.22.136.4 1.125.4 2.198 0 1.072.195 2.457.433 3.076 2.073 5.386 1.708 35.073-.617 50.126-.357 2.31-.754 5.1-.883 6.2-.129 1.1-.368 2.18-.531 2.4-.164.22-.422 1.12-.575 2-.153.88-.606 2.77-1.007 4.2-.401 1.43-1.301 4.76-2 7.4-.699 2.64-1.633 5.79-2.077 7-1.197 3.267-1.274 3.6-.834 3.6.222 0 .642-.81.934-1.8.292-.99.658-1.8.813-1.8.154 0 .399-.538.543-1.195.144-.658.429-1.299.632-1.424.203-.126.369-1.038.369-2.028 0-1.222.143-1.712.446-1.525.631.39.1 4.566-.868 6.823-1.299 3.031-1.422 2.949 4.422 2.949h5.2v-.974c0-.536.195-1.481.434-2.1.238-.619.603-2.168.811-3.441.457-2.801 1.89-6.772 2.344-6.492.404.25.811-.746.811-1.983 0-.508.27-1.028.6-1.155.33-.126.605-.641.611-1.142.014-1.274 1.324-6.104 1.835-6.766.887-1.15 2.58-9.876 3.133-16.147.244-2.76.553-13.402.828-28.479.105-5.764.362-11.691.572-13.171.209-1.48.3-2.823.2-2.983-.418-.678 1.045-6.582 1.776-7.165.416-.331 1.001-1.301 1.3-2.156.303-.864.941-1.735 1.437-1.961.491-.223 1.002-.751 1.136-1.172.354-1.116 2.516-3.463 3.803-4.129.612-.316 1.224-.928 1.361-1.359.137-.431.609-.898 1.049-1.038.441-.14 1.342-.849 2.003-1.575.661-.727 1.689-1.419 2.283-1.537.595-.119 1.89-.832 2.877-1.584 1.801-1.372 4.292-2.427 5.272-2.234.824.163 3.524-.968 3.524-1.475 0-1.084 2.106-2.293 6-3.445.77-.227 1.772-.756 2.226-1.175.454-.419 1.174-.768 1.6-.775.426-.007 1.123-.277 1.55-.6.613-.463.852-.481 1.131-.087.261.368.306.342.173-.1-.099-.33-.428-.552-.73-.494-.352.067-.298-.093.15-.444.385-.303.7-.935.7-1.406 0-.811.188-.856 3.6-.856 2.933 0 3.6.111 3.6.6 0 .421-.425.6-1.429.6-.785 0-1.682.254-1.992.564-.311.311-.78.636-1.044.724-1.878.626.236 1.606 3.072 1.424l2.993-.192v5.589l1.055-1.054c1.296-1.297 1.745-1.331 1.745-.135 0 .506.223 1.143.497 1.417.395.395.392.561-.015.812-1.021.631-5.291 13.81-6.886 21.251-2.608 12.17-3.674 31.417-2.196 39.656 1.342 7.479 2.765 13.834 3.437 15.344.391.88 1.541 3.638 2.555 6.128 2.589 6.355 3.662 8.628 5.237 11.09.754 1.179 1.371 2.27 1.371 2.425 0 .155.45.871 1 1.593.55.721 1 1.398 1 1.506 0 .107.919 1.694 2.041 3.526 4.049 6.607 5.959 9.231 5.959 8.186 0-.334-.176-.715-.39-.848-.491-.303-2.228-2.974-6.253-9.612a14342.72 14342.72 0 0 0-3.883-6.4c-1.079-1.773-5.474-11.041-5.474-11.543 0-.125-.45-1.211-1-2.414-.55-1.202-1-2.35-1-2.55 0-.2-.286-.937-.636-1.638-2.165-4.34-4.637-24.118-4.006-32.049 1.56-19.62 4.32-31.861 9.513-42.2 3.652-7.27 7.135-11.429 17.925-21.4 9.658-8.926 18.892-18.484 22.22-23 .649-.88 1.286-1.69 1.416-1.8 1.742-1.476 7.576-12.386 8.875-16.6 3.376-10.946 3.466-23.024.268-35.8-.193-.77-.697-2.84-1.121-4.6-1.106-4.592-4.073-14.311-4.548-14.9-.525-.65-5.18-.666-5.826-.02m-166.423.795c-.902 2.433-2.04 6.022-2.832 8.925-.48 1.76-1.118 4.01-1.419 5-.3.99-.734 2.7-.964 3.8-.23 1.1-.693 3.207-1.03 4.682-.337 1.475-.591 3.095-.566 3.6.051 1.011.121.733 1.534-6.082.801-3.865 1.657-6.989 2.467-9 .177-.44.625-1.79.995-3 .371-1.21.828-2.371 1.016-2.58.188-.209.342-.873.342-1.476 0-1.219.773-2.012.846-.868.026.398.088.904.139 1.124.051.22.121 1.109.154 1.976.057 1.477.098 1.528.648.8.551-.728.588-.686.6.691.007.806-.187 1.533-.432 1.615-.282.094-.497 1.895-.587 4.933-.079 2.632-.332 6.315-.564 8.185-.232 1.87-.596 5.92-.81 9-.214 3.08-.561 6.32-.771 7.2-.21.88-.501 2.86-.646 4.4-.295 3.139-1.663 8.2-2.216 8.2-.199 0-.361.439-.361.976 0 3.311-1.525.185-2.525-5.176-.328-1.76-.614-2.678-.636-2.04-.046 1.362 1.052 7.283 1.566 8.44.195.44.901 2.406 1.569 4.369.669 1.964 1.848 4.632 2.621 5.929.773 1.298 1.405 2.601 1.405 2.897 0 .296.143.598.317.672.174.073.757.853 1.294 1.733 1.77 2.897 5.653 7.82 8.746 11.085 5.424 5.728 6.629 6.89 8.753 8.449 1.149.844 2.09 1.789 2.09 2.1 0 .311.151.566.335.566.185 0 1.31.894 2.5 1.986 1.191 1.092 2.3 1.992 2.465 2 .72.034.182-.809-1.294-2.03-.877-.725-1.961-2.099-2.41-3.053-.448-.955-1.126-1.835-1.506-1.956a15.25 15.25 0 0 1-1.528-.617c-1.156-.55-4.562-3.768-4.562-4.311 0-.244-.254-.541-.564-.66-.31-.12-.673-.652-.806-1.183-.134-.531-.69-1.259-1.236-1.617-.593-.388-.994-1.031-.994-1.592 0-.676-.171-.876-.605-.71-.897.344-1.921-.623-1.367-1.291.465-.56.152-2.166-.422-2.166-.186 0-.414.223-.505.496-.172.516-1.501-.5-1.501-1.147 0-.17.216-.093.48.171 1.998 1.998 1.1-1.144-1.053-3.684-1.443-1.702-1.772-2.413-2.005-4.336-.194-1.596-.454-2.3-.851-2.3-.314 0-.574-.225-.577-.5-.004-.333-.136-.3-.394.1-.315.488-.389.436-.394-.276-.003-.482.174-.988.394-1.124.22-.136.4-1.232.4-2.436 0-1.577.168-2.254.6-2.419.501-.192.601-1.366.607-7.088.006-7.168.355-12.277 1.41-20.657.346-2.75.757-7.162.913-9.804.289-4.919 1.459-7.796 3.17-7.796.275 0 .5-.346.5-.768 0-.657-.391-.805-2.7-1.019-3.99-.37-3.87-.211-4.1-5.455l-.2-4.558-1.3-.125c-1.054-.102-1.365.05-1.643.8m117.425-.579c-2.858.179-3.165.74-2.997 5.47L224.2 181l2 .031 2 .031-1.9-.152-1.9-.152v-6.696l1.394-.46c2.816-.929 3.684.38 3.296 4.97-.144 1.713-.061 2.228.361 2.228.42 0 .549-.759.549-3.226 0-1.775.199-3.598.441-4.051.408-.763-.132-1.688-.841-1.441-.11.038-1.243.134-2.518.214m-115.785 1.11c-.284 1.483-.897 1.632-.897.218 0-.766.204-1.224.545-1.224.366 0 .481.33.352 1.006m32.399-.542c-.273.273-.493.775-.49 1.116.004.4.111.463.3.178.54-.813 3.035-1.015 4.02-.325.835.585.897.89.781 3.813-.107 2.676-.03 3.159.483 3.06.498-.095.61-.85.61-4.111V172.6l-2.604-.116c-1.681-.075-2.78.06-3.1.38m95.65.023c-.392.634-.845 6.772-.472 6.398.156-.157.338-1.453.405-2.88l.121-2.594 1.6-.262c2.68-.439 3-.026 3 3.865 0 1.862.165 3.386.367 3.386.391 0 .716-4.401.509-6.9l-.124-1.5h-2.553c-1.574 0-2.667.187-2.853.487M128.137 177.8c.002 1.76.072 2.43.156 1.489.085-.94.084-2.38-.002-3.2-.086-.819-.155-.049-.154 1.711m14.794.4c.002 1.54.074 2.121.161 1.291.087-.83.085-2.09-.003-2.8-.089-.71-.16-.031-.158 1.509m132.715 1.857c-.062.881-.875 1.142-3.579 1.149-3.1.009-3.133.053-3.458 4.633-.313 4.411-.425 4.764-1.609 5.086-.496.136-.344.191.4.147 1.36-.082 1.712-1.3 1.77-6.123.036-2.987.28-3.211 3.715-3.421 2.962-.181 3.273-.326 2.997-1.397-.154-.593-.198-.607-.236-.074m-36.745.343c.117.433.766.611 2.33.64l2.169.04-1.992-.166c-1.096-.091-2.145-.379-2.331-.64-.235-.329-.289-.291-.176.126m-109.201.687a8.899 8.899 0 0 0 2.2 0c.605-.092.11-.167-1.1-.167-1.21 0-1.705.075-1.1.167m14.8 0a8.899 8.899 0 0 0 2.2 0c.605-.092.11-.167-1.1-.167-1.21 0-1.705.075-1.1.167m68.1 10.724c3.073.803 5.558 1.777 6.002 2.352.22.286.782.641 1.247.789 2.377.755 2.694 3.451.404 3.445-2.859-.007-7.888-.802-8.783-1.388-.528-.346-2.215-.891-3.748-1.21-4.975-1.038-8.572-3.109-7.412-4.269.566-.566 8.044-1.05 9.29-.601.55.198 1.9.595 3 .882m-57.612 3.409c-.381.615.14 1.012.654.498.287-.287.294-.511.02-.679-.223-.139-.527-.057-.674.181m-3.514 3.057c-.619.325-1.223.846-1.342 1.157-.12.311-.728.566-1.351.566-1.624 0-1.877.761-.354 1.065.767.154 1.357.553 1.473.996.253.968 1.515.942 2.584-.054.704-.655.777-.954.425-1.728-.338-.742-.296-1.017.202-1.332 1.511-.953.044-1.554-1.637-.67m-49.201 2.276c-.15.392-.25 1.733-.222 2.98l.05 2.267.343-2.6c.36-2.736.289-3.844-.171-2.647m45.384 3.41c-.402.25-.421.412-.073.627.549.339.961.039.758-.552-.084-.242-.366-.273-.685-.075m76.993 2.356c-.407.659.457 1.302 1.817 1.353 1.619.061 2.333-.274 2.333-1.096 0-.629-3.775-.863-4.15-.257m-122.9 5.481c.001 2.42.066 3.358.146 2.085.08-1.273.079-3.253-.002-4.4-.08-1.147-.145-.105-.144 2.315m117.764 14.065 1.74.664-1.327.584c-3.475 1.527-13.838 2.569-17.927 1.802-3.726-.698-1.131-2.814 3.6-2.935.77-.02 1.76-.191 2.2-.38 1.509-.648 9.815-.461 11.714.265m57.053 19.078c-.139.361-.531.657-.872.657-.523 0-.507-.124.107-.802.816-.902 1.143-.84.765.145M138.3 269.033c-.224.224 1.087 1.767 1.5 1.767.508 0 .128-1.542-.433-1.757-.775-.298-.779-.298-1.067-.01m3.3 4.124c0 .197.27.461.6.588.365.14.6 0 .6-.358a.595.595 0 0 0-.6-.587c-.33 0-.6.161-.6.357m4.557 3.476c.134.348.243.708.243.8 0 .092.276.167.614.167.49 0 .528-.161.186-.8-.505-.944-1.396-1.087-1.043-.167m2.523 2.42c-.139.139.201.61.755 1.046 1.237.973 1.683.681.705-.461-.756-.883-1.046-.999-1.46-.585m3.157 3.147c.631.963 1.363 1.333 1.363.689 0-.327-1.462-1.689-1.814-1.689-.112 0 .09.45.451 1m2.163 2.124c0 .729 1.099 1.753 1.737 1.619.63-.132.635-.215.051-1.043-.609-.866-1.788-1.246-1.788-.576m2.4 2.724c0 .152.45.866 1 1.588.55.721 1 1.488 1 1.704 0 .216.158.453.352.527.193.073.727.839 1.186 1.701.669 1.258.887 1.432 1.1.878.171-.447-.048-.982-.621-1.516-.488-.454-1.219-1.602-1.626-2.55-.627-1.464-2.391-3.184-2.391-2.332m8.52 95.888c.113.295.045.79-.151 1.1-.26.411-.358.265-.363-.536-.007-1.194.19-1.41.514-.564m-.52 4.014c0 1.189-.519 3.05-.85 3.05-.399 0-.472-2.017-.107-2.967.298-.778.957-.835.957-.083" fill="#a9aebd"/><path d="M255.639 71.26c-.241.693-.439 2.144-.439 3.226 0 3.393-2.082 7.298-4.547 8.528-1.492.744-1.673.573-.609-.57.46-.493.726-1.007.591-1.143-.135-.135-.853.417-1.594 1.227-1.27 1.386-1.491 1.472-3.771 1.472-1.333 0-2.534.18-2.67.4-.136.22-.957.4-1.824.4-.867 0-1.576-.18-1.576-.4 0-.22.63-.4 1.4-.4.77 0 1.4-.18 1.4-.4 0-.22-.619-.4-1.376-.4-.757 0-1.488.18-1.624.4-.312.505-2.875.527-3.184.026-.127-.205-1.262-.659-2.523-1.008-1.261-.348-2.619-.819-3.018-1.045-.399-.226-1.034-.313-1.413-.193-.378.12-1.727-.321-2.998-.981-1.272-.659-2.667-1.199-3.1-1.199-.434 0-.895-.275-1.024-.612-.152-.396-.51-.524-1.017-.364-.854.272-3.123-.508-3.123-1.073 0-.193-.709-.351-1.576-.351-.867 0-1.688-.18-1.824-.4-.136-.22.123-.4.576-.4.453 0 .824-.186.824-.414 0-.261-.7-.324-1.9-.169-1.314.169-2.363.047-3.403-.393-.86-.365-1.93-.53-2.5-.387-.734.184-.997.09-.997-.357 0-.637-.135-.661-8.2-1.442-5.128-.497-12.19-.141-14.907.751-2.356.773-3.345 1.468-1.493 1.049 7.693-1.742 10.442-1.953 15.8-1.213 4.476.618 8.577 1.479 10.2 2.142.44.179 1.7.535 2.8.791 1.93.449 9.673 3.283 11.095 4.062.382.209.884.38 1.116.38.232 0 1.577.54 2.989 1.2 1.412.66 2.66 1.2 2.773 1.2.114 0 1.417.554 2.896 1.231 6.712 3.075 12.417 3.152 17.931.245 4.636-2.444 5.931-4.465 6.136-9.574.191-4.738.7-5.353 3.18-3.845 12.232 7.436 16.441 25.955 8.179 35.984-5.57 6.761-5.752 7.401-3.687 12.959a4760.376 4760.376 0 0 0 5.021 13.72c2.008 5.463 2.575 7.436 2.236 7.775-.335.335-16.093.456-59.96.461-50.818.007-56.147.058-36.505.35 47.824.71 95.623.39 96.949-.65.615-.482.047-4.256-.64-4.256-.17 0-.309-.281-.309-.625s-.286-1.559-.636-2.7c-.625-2.041-.795-2.513-1.738-4.846-.407-1.007-.375-1.226.233-1.566.667-.374.665-.409-.039-.656-1.337-.469-2.76-6.686-2.795-12.207l-.025-4 2.3-2.879c1.265-1.583 2.3-3.046 2.3-3.251 0-.204.258-.586.574-.849 1.59-1.319 2.425-11.421 1.226-14.821-.33-.935-.6-2.13-.6-2.656 0-.525-.151-1.267-.335-1.649-.185-.382-.852-1.775-1.484-3.095-2.134-4.459-4.218-6.932-8.432-10.01-3.079-2.249-4.656-2.407-5.31-.53M179 75.2c-.136.22-.552.401-.924.402-.372.002-1.126.248-1.676.547-.55.299-2.08 1.12-3.4 1.824-2.7 1.439-6.731 4.071-6.933 4.527-.074.165-.306.3-.517.3-.211 0-.601.177-.867.393-10.37 8.441-15.453 13.203-19.682 18.438-1.32 1.633-2.493 3.059-2.608 3.169-1.102 1.053-8.393 11.675-8.393 12.227 0 .116-.668 1.238-1.485 2.492-2.269 3.483-9.914 18.18-10.842 20.844-.583 1.671-.791 1.647 13.66 1.557 12.43-.077 12.602-.088 5.067-.336-4.29-.141-8.43-.436-9.201-.656-1.349-.384-2.836-.357-6.899.126-2.512.299-2.407-.31 1.183-6.854.241-.44 1.343-2.6 2.45-4.8 1.106-2.2 2.471-4.81 3.034-5.8.562-.99 1.15-2.07 1.306-2.4 6.608-14.009 27.308-35.701 40.39-42.324l3.937-1.995c.88-.446 2.23-1.085 3-1.42 1.108-.483 1.217-.615.524-.635-.482-.014-.988.154-1.124.374m-65.4 77.191c-.476.301-.6 1.316-.6 4.894v4.515l1.4.052 1.4.052-1.3-.177-1.3-.178v-3.498c0-4.252.357-4.882 2.856-5.039 2.865-.18 3.423.51 3.636 4.505.189 3.526.143 3.628-1.857 4.106l-1.235.295 1.424.041c2.657.077 2.939-.472 2.653-5.169-.164-2.68-.432-4.241-.764-4.453-.711-.45-5.58-.409-6.313.054m15.1.041c-.459.267-.681.848-.646 1.688.041.942.101 1.042.228.379.234-1.211 1.315-1.721 3.477-1.639 2.271.086 2.722.985 2.557 5.096-.14 3.509-.348 3.717-3.581 3.564l-2.535-.12-.183-3-.183-3-.217 3.2-.217 3.2-2.4.103c-4.448.191-5 .902-5 6.446 0 3.628 1.158 4.273 5.6 3.119l1.8-.468.22-4.008c.277-5.048.236-4.991 3.504-4.998 1.472-.003 2.896-.146 3.165-.317.761-.483.837-8.826.085-9.302-.776-.49-4.803-.45-5.674.057m80.483.614c-.779 2.048-.314 8.725.617 8.864.731.109.74.082.1-.315-.576-.358-.7-1.026-.7-3.771 0-4.147.484-4.871 3.422-5.12 2.548-.216 2.978.495 2.978 4.927 0 3.159-.237 3.695-1.8 4.08-.465.114-.178.216.686.243 1.995.062 2.181-.476 1.925-5.554l-.211-4.2-3.304-.116c-3.264-.115-3.308-.103-3.713.962m14.96-.562c-.178.284-.394 2.373-.48 4.644-.179 4.747-.288 4.872-4.24 4.872-2.863 0-3.153.436-3.354 5.043-.225 5.15.998 6.043 5.96 4.354l1.771-.603-.099-2.297c-.054-1.263.004-3.242.129-4.397l.228-2.1h2.111c4.59 0 5.298-1.056 4.959-7.4l-.128-2.4-3.267-.116c-2.337-.082-3.359.031-3.59.4m5.749 1.416c.203.605.29 2.407.193 4.004-.2 3.308-.367 3.445-3.912 3.221L224.2 161l-.118-3.143c-.16-4.277.348-5.057 3.288-5.057 1.991 0 2.179.082 2.522 1.1m-94.235 9.2c-.242.605-.478 2.603-.526 4.439-.098 3.86-.304 4.061-4.143 4.061-2.335 0-3.036.589-2.942 2.474.041.819.07.833.243.126.343-1.393.961-1.8 2.734-1.8.949 0 2.187-.176 2.751-.39.754-.287 1.033-.26 1.052.1.142 2.736-.158 8.176-.47 8.49-.218.22-1.719.4-3.337.4s-2.843.159-2.723.353c.233.38 5.444.093 6.604-.363.602-.237.701-.844.706-4.333.008-4.978-.056-4.883 3.495-5.174 3.855-.315 3.699-.099 3.699-5.107V162h-3.351c-3.283 0-3.361.023-3.792 1.1m95.777-.227c-.459.655-.634 1.852-.634 4.336 0 4.198-.163 4.391-3.69 4.391-3.326 0-3.51.291-3.51 5.546 0 4.495 1.745 5.617 6.28 4.036l1.2-.418-.118-2.882c-.065-1.585.014-3.512.175-4.282l.293-1.4 2.852-.223c4.076-.319 4.167-.443 4.031-5.537l-.113-4.24-3.066-.116c-2.8-.106-3.121-.038-3.7.789m-104.062.227c-.172.385-.389 2.27-.482 4.189l-.169 3.49-1.269.238c-.699.131-2.076.181-3.061.11L120.6 171l.076-3.281c.07-3.077.606-5.139 1.244-4.787.154.085 1.18.024 2.28-.135 3.38-.49 3.521-.477 3.172.303m13.3-.455c1.304.35 2.376 6.212 1.403 7.673-.488.734-5.861 1.152-6.272.487-.425-.688-.259-6.353.213-7.234.508-.95 2.84-1.413 4.656-.926m82.203 3.941-.126 4.187-1.474.23-2.632.415c-1.96.313-2.27-.305-1.992-3.965.36-4.758.214-4.621 5.349-4.984l1-.071-.125 4.188m14.245-3.706c.304.304.48 1.831.48 4.161v3.681l-1.26.439c-.693.241-2.15.439-3.238.439h-1.979l.138-3.759c.171-4.637.692-5.441 3.521-5.441 1.022 0 2.074.216 2.338.48m38.56 8.8c-.304.304-.48 1.833-.48 4.167 0 5.029.048 4.953-3.166 4.953-3.754 0-3.929.208-4.116 4.898-.214 5.386 1.791 4.87-19.837 5.102-21.582.231-20.16-.037-18.338 3.462.835 1.603.827 2.035-.043 2.262-.385.101-.025.204.8.23 1.74.053 1.925-.506.687-2.079-.565-.72-.735-1.343-.557-2.052l.255-1.017 12.058.001c14.941.001 24.596-.462 25.053-1.201.18-.29.455-2.345.613-4.567.326-4.604.341-4.622 3.591-4.639 3.529-.018 3.6-.11 3.6-4.687 0-4.863.032-4.913 3.175-4.913 1.54 0 2.685.195 2.931.5.475.589 3.442 10.308 4.548 14.9.424 1.76.928 3.83 1.121 4.6 3.198 12.776 3.108 24.854-.268 35.8-1.299 4.214-7.133 15.124-8.875 16.6-.13.11-.767.92-1.416 1.8-3.328 4.516-12.562 14.074-22.22 23-10.79 9.971-14.273 14.13-17.925 21.4-5.193 10.339-7.953 22.58-9.513 42.2-.631 7.931 1.841 27.709 4.006 32.049.35.701.636 1.438.636 1.638 0 .2.45 1.348 1 2.55.55 1.203 1 2.289 1 2.414 0 .502 4.395 9.77 5.474 11.543l3.883 6.4c1.736 2.863 3.806 6.168 4.6 7.345.794 1.176 1.621 2.481 1.838 2.9.217.418.552.761.743.761.503 0-.089-2.077-.824-2.892-.458-.508-.509-.832-.192-1.214.275-.331.297-.734.061-1.107-.292-.462-.372-.396-.377.313-.003.495-.142.9-.308.9-.548 0-1.281-2.182-1.04-3.1.256-.98-.814-1.339-1.193-.4-.111.275-.213.14-.227-.3-.014-.44.14-1.061.342-1.381.483-.763.087-1.373-.548-.845-.878.728-2.148-.535-1.54-1.531.524-.86.057-1.506-.735-1.017-.604.374-.016-2.322.593-2.72.262-.171.065-.296-.47-.3-.656-.004-1.08-.38-1.474-1.306-.304-.715-1.105-1.748-1.78-2.296-.674-.547-1.226-1.217-1.226-1.487 0-.273-.267-.389-.6-.262-.423.163-.6-.033-.6-.661 0-.723.107-.803.564-.424.749.622 1.194-.085.87-1.379-.247-.982-1.213-.992-1.967-.02-.185.238-.237-.26-.118-1.117.148-1.059.032-1.73-.367-2.129-.32-.32-.582-1.161-.582-1.869 0-.847-.404-1.759-1.184-2.671-.651-.762-1.191-1.669-1.2-2.015-.009-.347-.338-.969-.732-1.384-.688-.725-.687-.783.025-1.495 1.033-1.033.728-2.063-.656-2.222-1.024-.117-1.117-.248-.911-1.28.359-1.793-.467-3.836-1.174-2.905-.493.651-.544.598-.555-.571-.01-.983.129-1.233.587-1.058.671.258.83-.466.189-.862-.225-.139-.384-.465-.352-.723.139-1.129-.067-2.27-.409-2.27-.205 0-.45.405-.546.9-.095.495-.198-.302-.228-1.771-.037-1.818-.252-2.87-.672-3.29-1.233-1.233-.388-24.456 1.209-33.239 1.088-5.985 1.328-7.113 1.982-9.3l1.254-4.2c.345-1.155.727-2.64.849-3.3.122-.66.447-1.47.722-1.8.276-.33.722-1.32.993-2.2.271-.88.924-2.271 1.451-3.091.527-.821.958-1.59.958-1.709 0-.343 2.046-3.411 3.735-5.6 1.728-2.239 8.87-9.652 12.495-12.969 8.837-8.085 18.44-18.069 22.538-23.431.672-.88 1.374-1.785 1.559-2.01.186-.226.681-.946 1.102-1.6.42-.655 1.092-1.55 1.492-1.99.4-.44 1.405-2.15 2.234-3.8.828-1.65 1.71-3.36 1.96-3.8 1.312-2.307 2.619-5.819 2.791-7.5.108-1.045.353-1.9.545-1.9.192 0 .349-.372.349-.826 0-.455.216-1.22.48-1.7 1.846-3.363 1.159-26.733-.861-29.267-.178-.224-.417-1.037-.531-1.807-.114-.77-.505-2.48-.869-3.8a95.988 95.988 0 0 1-.971-3.8c-.169-.77-.519-1.793-.778-2.274-.258-.48-.47-1.325-.47-1.876 0-.552-.18-1.114-.4-1.25-.22-.136-.4-.576-.4-.978s-.269-1.246-.598-1.876c-.328-.63-.598-1.486-.6-1.902-.005-1.652-6.124-2.762-7.522-1.364m-166.18.342c-.385.23-.7.771-.7 1.203 0 .432-.17 1.098-.379 1.48-.356.654-.96 2.6-1.953 6.295-1.287 4.788-1.776 6.49-2.104 7.319-.2.505-.35 1.405-.332 2l.031 1.081.378-1.2c.387-1.232.691-2.299 2.622-9.2 2.188-7.817 2.656-8.8 4.193-8.8h1.344l.2 4.558c.23 5.244.11 5.085 4.1 5.455 2.309.214 2.7.362 2.7 1.019 0 .422-.225.768-.5.768-1.711 0-2.881 2.877-3.17 7.796-.156 2.642-.567 7.054-.913 9.804-1.055 8.38-1.404 13.489-1.41 20.657-.006 5.722-.106 6.896-.607 7.088-.432.165-.6.842-.6 2.419 0 1.204-.18 2.3-.4 2.436-.22.136-.397.642-.394 1.124.005.712.079.764.394.276.258-.4.39-.433.394-.1.003.275.263.5.577.5.397 0 .657.704.851 2.3.233 1.923.562 2.634 2.005 4.336 2.153 2.54 3.051 5.682 1.053 3.684-.264-.264-.48-.341-.48-.171 0 .647 1.329 1.663 1.501 1.147.091-.273.319-.496.505-.496.574 0 .887 1.606.422 2.166-.554.668.47 1.635 1.367 1.291.434-.166.605.034.605.71 0 .561.401 1.204.994 1.592.546.358 1.102 1.086 1.236 1.617.133.531.496 1.063.806 1.183.31.119.564.416.564.66 0 .543 3.406 3.761 4.562 4.311a15.25 15.25 0 0 0 1.528.617c.38.121 1.058 1.001 1.506 1.956.449.954 1.533 2.328 2.41 3.053 1.476 1.221 2.014 2.064 1.294 2.03-.165-.008-1.274-.908-2.465-2-1.19-1.092-2.315-1.986-2.5-1.986-.184 0-.335-.255-.335-.566 0-.311-.941-1.256-2.09-2.1-4.66-3.42-14.079-13.935-17.499-19.534-.537-.88-1.12-1.66-1.294-1.733-.174-.074-.317-.376-.317-.672 0-.296-.632-1.599-1.405-2.897-.773-1.297-1.952-3.965-2.621-5.929-.668-1.963-1.374-3.929-1.569-4.369-1.62-3.651-2.513-21.456-1.291-25.737 1.237-4.336 2.259-10.962 1.212-7.863-.223.66-.548 2.01-.723 3-.174.99-.602 3.06-.949 4.6-.783 3.469-1.349 15.153-.769 15.886.223.283.521 1.813.662 3.4.241 2.722.722 4.897 1.942 8.787.288.921.657 1.806.818 1.967.161.161.294.668.295 1.127.002.912 3.818 8.676 5.521 11.233 4.916 7.383 15.103 18.184 25.277 26.802 9.609 8.139 13.378 11.534 16.377 14.755a182.097 182.097 0 0 0 2.923 3.069c.605.612 1.1 1.211 1.1 1.331 0 .121.9 1.546 2 3.167 1.1 1.621 2 3.14 2 3.375 0 .235.611 1.569 1.357 2.964s1.489 3.161 1.651 3.924c.161.763.436 1.663.609 2 .49.952 1.897 5.972 2.358 8.413.228 1.21.726 3.73 1.105 5.6.906 4.461 1.041 34.472.186 41.2-1.492 11.745-2.967 20.122-4.036 22.926-.237.619-.43 1.567-.43 2.105 0 .539-.158 1.292-.35 1.674-.193.382-.628 1.685-.967 2.895-.339 1.21-1.174 4-1.855 6.2-1.316 4.246-1.603 6.125-.581 3.8.931-2.119 1.567-4.135 2.967-9.4.702-2.64 1.605-5.97 2.006-7.4.401-1.43.854-3.32 1.007-4.2.153-.88.411-1.78.575-2 .163-.22.402-1.3.531-2.4.129-1.1.526-3.89.883-6.2 2.325-15.053 2.69-44.74.617-50.126-.238-.619-.433-2.004-.433-3.076 0-1.073-.18-2.062-.4-2.198-.22-.136-.408-.822-.418-1.524-.009-.702-.294-1.996-.632-2.876-.339-.88-.864-2.5-1.167-3.6-1.333-4.831-1.604-5.63-2.079-6.129-.7-.734-.632-2.071.106-2.071.357 0 .709.494.848 1.191.131.655.487 1.397.79 1.649.304.252.553.661.554.909.002.248.261.945.576 1.549.315.604.693 1.903.841 2.887.147.984.518 1.997.824 2.251.307.254.557.814.557 1.245 0 .43.423 1.893.94 3.251.997 2.616 2.021 6.02 2.458 8.163.145.713.43 1.399.633 1.524.203.126.369.676.369 1.222 0 1.307 1.245 6.301 1.637 6.565.304.205.489 12.157.306 19.794l-.095 4 1.112.13 1.112.13-.063-3.93c-.035-2.161.064-7.423.221-11.693.262-7.118.227-7.806-.412-8.273-.608-.445-.636-.697-.216-1.969.557-1.689.213-9.589-.509-11.681-.328-.95-.324-1.524.013-2.2.508-1.017 1.009-12.837.626-14.756-.16-.8-.584-1.35-1.229-1.595-.749-.285-.907-.54-.66-1.069 1.021-2.186-.292-5.694-2.132-5.694-.644 0-.911-.234-.911-.8 0-.444-.267-.8-.6-.8-.33 0-.6-.27-.6-.6 0-.33-.349-.6-.776-.6-.427 0-.888-.18-1.024-.4-.136-.22-.687-.4-1.224-.4-.544 0-.976-.235-.976-.53 0-.292-.45-.953-1-1.47s-1-1.178-1-1.47c0-.352-.538-.53-1.6-.53-1.303 0-1.6-.14-1.6-.757 0-.915-.93-1.353-1.551-.732-.332.332-.449.272-.449-.231 0-.374-.163-.68-.363-.68-.199 0-.275-.332-.169-.738.107-.408-.281-1.434-.868-2.3-.583-.859-1.159-2.059-1.281-2.667-.156-.782-.528-1.172-1.27-1.334a24.84 24.84 0 0 1-1.549-.382c-.333-.103-.5-1.025-.5-2.766 0-2.442-.059-2.613-.9-2.616-.562-.002-1.07-.37-1.353-.98-.525-1.134-.352-1.417.869-1.417.922 0 1.792-4.014.939-4.333-.195-.074-.355-.389-.355-.7 0-.312-.27-.567-.6-.567-1.052 0-.776-2.31.3-2.518l.9-.173-.9-.055c-1.061-.064-1.351-2.054-.3-2.054.33 0 .6-.27.6-.6 0-.92 1.863-.766 2.109.174.414 1.582 2.691-.326 2.691-2.254 0-.286.27-.52.6-.52.373 0 .6-.378.6-1 0-1.601 1.819-1.406 2.146.23.334 1.672 1.648 1.485 1.668-.237.013-1.099.131-1.196 1.499-1.235 1.832-.053 2.652.735 1.727 1.659-.839.839-.808.983.205.983.715 0 .818-.188.667-1.219-.168-1.141-.071-1.248 1.487-1.665 1.443-.386 1.641-.571 1.487-1.381-.109-.568.013-.935.31-.935.277 0 .387.268.252.618-.192.5.086.612 1.458.586 3.46-.067 9.338.356 10.691.769 2.637.805 14.637.536 18.228-.409 1.942-.511 4.943-.906 7.726-1.016 2.88-.114 4.966-.395 5.68-.764.621-.321 2.083-.786 3.249-1.033 1.166-.247 2.75-.765 3.52-1.151.77-.387 2.03-.834 2.8-.996.77-.161 1.679-.538 2.02-.838.341-.3 1.392-.817 2.336-1.151.944-.333 2.238-1.012 2.874-1.51.636-.498 1.706-1.328 2.376-1.846 1.917-1.479 3.685-5.659 2.394-5.659-.22 0-.4.369-.4.82 0 1.018-1.108 3.211-1.961 3.882-2.465 1.936-5.491 3.698-6.353 3.698-.563 0-1.335.283-1.717.628-.382.346-1.741.902-3.021 1.236-1.279.334-2.817.861-3.417 1.172-.6.31-2.045.758-3.211.995s-2.84.679-3.72.983c-5.385 1.859-29.568 1.733-37.376-.194-5.501-1.358-6.197-1.562-9.531-2.788-7.402-2.723-10.912-6.367-10.268-10.661.361-2.403.021-3.453-1.385-4.284-1.174-.693-2.551-1.982-5.976-5.597-2.686-2.834-3.069-5.705-1.05-7.89.508-.55 1.055-1.72 1.215-2.6.395-2.168 1.598-3.63 4.934-6 1.739-1.234 3-2.459 3.296-3.2.265-.66 1.083-2.124 1.818-3.253.736-1.129 1.612-2.974 1.946-4.1.334-1.126.792-2.047 1.016-2.047.225 0 .297-.18.161-.4-.159-.258-6.996-.4-19.2-.4-13.265 0-19.034-.131-19.223-.437-.148-.24-.25-2.289-.226-4.553.053-4.946.062-4.934-4.17-5.092L113.4 181l-.2-4.6-.2-4.6-1.4-.098c-.77-.054-1.715.09-2.1.32m35.802-.127c-2.259.158-2.796.824-2.39 2.964.144.758.19.698.234-.31.078-1.804.803-2.207 3.719-2.069l2.535.12.116 3.764c.064 2.07-.055 3.935-.263 4.143-.766.766-5.438.851-6.176.113-.372-.372-.677-.506-.677-.298 0 1.008 1.284 1.379 4.075 1.18 3.706-.265 3.925-.561 3.925-5.298 0-3.953-.305-4.651-1.98-4.53-.561.041-1.964.14-3.118.221m94.256-.03c-1.351.361-2.251 8.082-1.078 9.255.85.85 5.785.615 6.72-.32 1.181-1.181 1.202-8.157.026-8.786-.75-.402-4.368-.497-5.668-.149m-9.217.49c.416.264.439.535.1 1.168-.242.453-.441 2.265-.441 4.026v3.202l-1.724.258c-.947.143-2.252.199-2.9.125L224.2 181l-.115-3.234c-.168-4.73.139-5.291 2.997-5.47 1.275-.08 2.408-.176 2.518-.214.11-.038.444.085.741.273m14.491 1.545c.149 7.138.231 6.939-2.955 7.195-3.126.251-3.206.154-3.115-3.758.108-4.652.306-4.937 3.428-4.937h2.61l.032 1.5m-48.656 8.702c-.737.573-.726.585.224.258 1.344-.464 1.934-.214 3.7 1.565 1.583 1.595 1.782 1.649 1.052.285-1.271-2.374-3.445-3.295-4.976-2.108m-40.534 13.116c-.514.514-1.035.117-.654-.498.147-.238.451-.32.674-.181.274.168.267.392-.02.679m-2.195 2.357c.164.266.016.651-.336.872-.498.315-.54.59-.202 1.332.352.774.279 1.073-.425 1.728-1.069.996-2.331 1.022-2.584.054-.116-.443-.706-.842-1.473-.996-1.523-.304-1.27-1.065.354-1.065.623 0 1.231-.255 1.351-.566.191-.499 1.995-1.677 2.744-1.792.152-.023.409.172.571.433m-5.179 6.59c-.118.118-.426.085-.684-.075-.348-.215-.329-.377.073-.627.534-.332 1.051.263.611.702m93.821 12.238c-.622 1.721-3.593 5.631-5.797 7.632-1.526 1.384-1.572 1.475-.462.926 2.436-1.206 7.368-8.066 6.871-9.557-.066-.198-.341.251-.612.999m-36.189 5.786c.715.089 1.885.089 2.6 0 .715-.088.13-.161-1.3-.161-1.43 0-2.015.073-1.3.161m-3.4.387c.385.1 1.015.1 1.4 0 .385-.101.07-.183-.7-.183s-1.085.082-.7.183m9.2 0c.385.1 1.015.1 1.4 0 .385-.101.07-.183-.7-.183s-1.085.082-.7.183m-20.2.806a5.661 5.661 0 0 0 1.8 0c.495-.095.09-.173-.9-.173s-1.395.078-.9.173m-52.133 45.161c.561.215.941 1.757.433 1.757-.413 0-1.724-1.543-1.5-1.767.288-.288.292-.288 1.067.01m3.433 4.344c0 .358-.235.498-.6.358-.33-.127-.6-.391-.6-.588 0-.196.27-.357.6-.357.33 0 .6.264.6.587m4.4 3.413c.342.639.304.8-.186.8-.338 0-.614-.075-.614-.167 0-.092-.109-.452-.243-.8-.353-.92.538-.777 1.043.167m2.94 2.838c.978 1.142.532 1.434-.705.461-.554-.436-.894-.907-.755-1.046.414-.414.704-.298 1.46.585m2.255 2.251c.846.724 1.048 1.311.451 1.311-.195 0-.649-.45-1.009-1-.766-1.169-.57-1.278.558-.311m3.393 3.011c.584.828.579.911-.051 1.043-.638.134-1.737-.89-1.737-1.619 0-.67 1.179-.29 1.788.576m3.003 4.48c.407.948 1.138 2.096 1.626 2.55.573.534.792 1.069.621 1.516-.213.554-.431.38-1.1-.878-.459-.862-.993-1.628-1.186-1.701a.602.602 0 0 1-.352-.527c0-.216-.45-.983-1-1.704-1.216-1.595-1.267-2.007-.174-1.422.455.243 1.159 1.218 1.565 2.166" fill="#9395ac"/></g></svg>