<?xml version="1.0" encoding="utf-8"?>
<!-- Generator: Adobe Illustrator 24.2.3, SVG Export Plug-In . SVG Version: 6.00 Build 0)  -->
<svg version="1.1" xmlns="http://www.w3.org/2000/svg" xmlns:xlink="http://www.w3.org/1999/xlink" x="0px" y="0px"
	 viewBox="0 0 500 500" style="enable-background:new 0 0 500 500;" xml:space="preserve">
<style type="text/css">
	.st0{fill:#FFE600;stroke:#000000;stroke-miterlimit:10;}
</style>
<g id="Ebene_2">
	<path class="st0" d="M163.4,227.8c20.9-43.5,87.1-48.2,103.6-49.3c64.2-4.5,127.3,27.5,126.7,50.2c-0.4,14.1-18.1,32.2-29.3,47.1
		c-6,8,1.4,11.4,0.9,24c-1,22-10.4,30.4-19.1,52c-15.7,39.3-1.5,54.2-17.8,69.3c-11.7,11-28.2,11.7-44.9,12.4
		c-7.9,0.4-29.3,1.3-47.8-8.4c-18.9-9.9-28.2-27.6-43.3-70.2C166.9,283,154.2,247.1,163.4,227.8z"/>
</g>
<g id="Ebene_1">
	<g transform="translate(0.000000,500.000000) scale(0.100000,-0.100000)">
		<path d="M2860,4510c-282-16-442-43-628-105c-279-93-508-255-637-450l-53-81l-78-18c-270-63-545-201-692-345
			c-400-393-113-879,640-1085c106-29,123-37,129-57c4-13,33-172,65-354l57-330l189-395l190-396l200-124l201-123l340,6l340,6l111,72
			c61,40,117,78,124,84c17,15,111,328,233,775l101,375l-5,143l-6,142l157,1c86,0,211,4,277,8c110,6,126,9,197,43
			c143,68,223,170,222,284c-1,78-14,111-83,204c-180,244-442,420-1051,703c-316,148-553,226-807,267c-121,20-90,34,55,26
			c284-16,539-61,747-132c72-25,137-47,146-50c20-7,24,7,40,136c31,257-51,570-184,698C3326,4506,3170,4527,2860,4510z M3130,3025
			c304-50,532-181,613-353c27-58,29-70,25-145c-5-88-28-148-74-194c-37-37-38-23-4,42c82,156,0,316-219,429
			c-272,140-790,171-1191,71c-177-44-341-114-463-197c-33-22-62-37-65-34c-9,9,66,83,133,131c173,123,461,220,755,254
			C2769,3044,3027,3041,3130,3025z M1939,2456c76-35,174-88,216-116c42-29,107-66,144-83c61-29,75-32,198-35c116-4,139-2,199,18
			c47,16,79,34,105,61c45,46,90,57,144,35c20-9,46-16,56-16c47,0,122,24,155,50c44,36,93,46,143,31c46-13,79-47,111-114
			c17-35,35-57,55-66c65-30,105-88,105-151c0-17-20-122-46-232c-35-155-61-241-112-372c-37-94-72-171-77-171s-21,38-35,84
			c-18,58-32,87-46,93c-23,9-412,87-452,90c-22,2-48-14-114-68c-47-38-84-71-83-72c9-10,160,42,197,68l43,30l169-48l169-47l53-136
			l53-136l-10-109c-12-132-17-149-67-216c-95-126-76-116-265-139l-169-20l-131,22l-132,22l-135,105c-74,57-139,108-144,113
			s6,49,28,105c20,53,35,98,34,99c-2,0-44,31-94,68l-91,67l78,151l77,151l-85,142c-47,77-122,197-168,266c-104,158-96,143-159,323
			c-54,153-72,217-62,217C1797,2520,1862,2491,1939,2456z"/>
		<path d="M2729,2174c-50-76-69-121-69-166c0-37,25-85,47-92c10-2,52-14,93-26c53-16,85-32,110-55c46-45,98-65,182-72l70-6l81,85
			l82,86l-44,38c-129,112-175,130-255,100c-25-9-50-24-56-32c-7-7-27-14-44-14c-71,0-132,73-145,174l-6,49L2729,2174z"/>
		<path d="M2841,1265c33-18,231-97,234-93c6,8,15,58,10,58c-3,0-57,11-121,25C2832,1284,2802,1286,2841,1265z"/>
	</g>
</g>
</svg>
