<?xml version="1.0" standalone="no"?>
<!DOCTYPE svg PUBLIC "-//W3C//DTD SVG 20010904//EN"
 "http://www.w3.org/TR/2001/REC-SVG-20010904/DTD/svg10.dtd">
<svg version="1.0" xmlns="http://www.w3.org/2000/svg"
 width="32px" height="32px" viewBox="0 0 174.000000 174.000000"
 preserveAspectRatio="xMidYMid meet">

<g transform="translate(0.000000,174.000000) scale(0.100000,-0.100000)"
fill="hsl(214deg 100% 65%)" stroke="none">
<path d="M789 1729 c-322 -33 -598 -239 -720 -539 -79 -196 -79 -444 0 -639
53 -130 136 -246 239 -334 100 -85 92 -98 92 148 l0 215 -95 0 -95 0 0 50 0
50 95 0 95 0 0 65 0 65 -155 0 -155 0 0 55 0 55 155 0 155 0 0 70 0 70 -95 0
-95 0 0 50 0 50 95 0 95 0 0 140 0 140 185 0 185 0 0 -195 0 -195 145 0 145 0
0 195 0 195 55 0 55 0 0 -250 0 -250 -250 0 -250 0 0 200 0 200 -80 0 -80 0 0
-629 0 -630 53 -20 c184 -68 429 -69 611 0 28 10 85 39 126 63 192 113 323
277 393 489 39 120 49 299 23 425 -32 157 -115 316 -223 427 l-58 59 -3 -612
-2 -612 -185 0 -185 0 0 195 0 195 -145 0 -145 0 0 -195 0 -195 -50 0 -50 0 0
250 0 250 250 0 250 0 0 -200 0 -200 75 0 75 0 0 605 0 604 -82 40 c-92 44
-172 67 -263 76 -33 3 -71 7 -85 9 -14 1 -59 -1 -101 -5z"/>
</g>
</svg>
