<svg id="svg" version="1.1" xmlns="http://www.w3.org/2000/svg" xmlns:xlink="http://www.w3.org/1999/xlink" width="400" height="400" viewBox="0, 0, 400,400"><g id="svgg"><path id="path0" d="M0.000 200.000 L 0.000 400.000 200.000 400.000 L 400.000 400.000 400.000 200.000 L 400.000 0.000 200.000 0.000 L 0.000 0.000 0.000 200.000 M187.071 101.010 C 188.414 101.680,189.704 102.794,190.892 104.310 C 194.046 108.337,193.971 107.996,193.984 118.473 C 193.999 130.191,194.536 132.536,197.998 135.998 C 198.920 136.920,199.754 138.256,200.045 139.277 C 200.655 141.416,201.627 142.535,203.751 143.539 C 205.655 144.440,206.786 145.575,207.922 147.727 C 208.379 148.592,209.514 149.752,210.542 150.404 C 211.540 151.037,212.639 152.101,212.984 152.769 C 213.329 153.437,214.594 154.709,215.794 155.596 C 218.369 157.498,218.679 157.996,219.907 162.200 C 220.425 163.972,221.343 166.028,221.966 166.808 C 224.439 169.906,224.727 170.961,225.038 178.034 C 225.404 186.347,225.563 186.582,231.088 186.902 C 234.524 187.102,234.625 187.082,235.772 185.973 L 236.944 184.841 237.206 175.320 C 237.512 164.205,236.351 158.400,233.823 158.400 C 233.128 158.400,231.443 155.657,230.576 153.113 C 229.647 150.386,225.489 145.766,222.686 144.346 C 219.776 142.873,218.820 141.773,217.931 138.874 C 217.422 137.218,216.556 135.798,214.857 133.833 C 212.630 131.257,209.213 126.009,208.100 123.456 C 207.439 121.939,207.408 109.910,208.062 108.674 C 208.316 108.193,209.216 107.010,210.062 106.044 C 210.908 105.078,211.600 104.064,211.600 103.790 C 211.600 103.092,214.591 100.468,215.706 100.188 C 216.215 100.060,223.568 100.011,232.046 100.078 L 247.460 100.200 249.120 101.299 C 250.033 101.904,251.093 102.894,251.474 103.499 C 251.855 104.105,252.976 105.647,253.964 106.927 L 255.761 109.254 255.923 116.327 C 256.051 121.936,255.951 123.909,255.442 125.858 C 255.089 127.209,254.800 129.662,254.800 131.307 C 254.800 134.805,254.027 137.310,252.428 138.999 C 249.678 141.901,248.815 145.480,249.971 149.189 C 250.418 150.625,250.956 153.763,251.165 156.162 C 251.504 160.048,251.724 160.886,253.173 163.839 C 255.687 168.959,255.999 170.923,255.984 181.521 C 255.956 201.265,256.391 200.929,231.124 200.709 C 207.006 200.498,207.620 200.919,207.585 184.600 C 207.555 170.295,206.343 167.630,194.957 156.828 C 194.274 156.180,193.397 154.981,193.009 154.163 C 192.621 153.346,191.546 151.940,190.619 151.038 C 189.693 150.137,188.468 148.660,187.897 147.755 C 187.326 146.850,186.293 145.680,185.600 145.155 C 184.907 144.630,183.625 143.570,182.750 142.800 L 181.160 141.400 180.846 137.400 C 180.537 133.461,179.707 130.940,178.128 129.141 C 177.810 128.778,177.213 126.875,176.802 124.912 C 175.110 116.826,171.888 114.237,166.205 116.398 C 162.603 117.768,161.387 138.164,164.736 141.043 C 165.101 141.357,166.101 142.192,166.958 142.899 C 167.930 143.701,168.929 145.105,169.613 146.629 C 170.368 148.313,171.284 149.543,172.560 150.589 C 173.578 151.423,174.524 152.577,174.662 153.153 C 175.203 155.409,176.506 157.176,180.889 161.600 C 183.396 164.130,186.584 167.640,187.974 169.400 C 189.363 171.160,190.748 172.744,191.050 172.920 C 191.353 173.096,191.600 173.492,191.600 173.800 C 191.600 174.108,191.851 174.504,192.157 174.680 C 193.709 175.572,194.025 177.809,193.986 187.636 L 193.948 197.117 192.543 198.759 L 191.138 200.400 172.149 200.400 C 151.405 200.400,152.149 200.480,149.800 198.010 L 148.600 196.748 148.601 184.674 C 148.602 171.064,149.109 167.883,152.208 162.048 C 153.977 158.716,154.266 153.526,152.757 152.162 C 149.972 149.643,148.615 138.612,148.605 118.400 C 148.596 99.443,147.916 100.038,169.621 100.016 L 185.043 100.000 187.071 101.010 M229.891 116.285 C 225.298 116.668,223.582 124.800,228.095 124.800 C 228.873 124.800,230.623 126.450,232.939 129.366 C 234.317 131.100,234.807 131.140,236.476 129.649 L 237.764 128.498 237.345 124.749 C 236.466 116.868,235.538 115.815,229.891 116.285 M164.100 170.633 C 161.992 172.295,162.419 183.201,164.688 185.655 C 167.689 188.900,176.658 186.905,175.364 183.281 C 175.073 182.466,174.827 181.116,174.818 180.280 C 174.792 178.077,173.887 176.645,171.649 175.268 C 170.563 174.600,169.112 173.234,168.423 172.233 C 167.385 170.724,166.127 169.583,165.526 169.604 C 165.457 169.607,164.815 170.070,164.100 170.633 M141.496 224.563 C 141.627 224.693,142.054 224.800,142.446 224.800 C 143.106 224.800,144.408 226.284,145.428 228.200 C 145.663 228.640,146.957 229.540,148.304 230.200 C 154.197 233.087,157.090 237.277,158.117 244.416 C 159.085 251.145,159.920 251.021,161.188 243.960 C 162.443 236.976,163.271 236.404,172.116 236.401 C 179.950 236.400,182.800 237.651,182.800 241.091 C 182.800 242.352,187.300 244.000,190.746 244.000 C 190.961 244.000,191.775 242.657,192.554 241.016 C 194.607 236.691,195.297 236.400,203.499 236.400 C 210.925 236.400,212.540 236.913,214.527 239.905 C 215.939 242.030,216.092 241.928,217.405 237.986 C 218.422 234.930,218.451 234.621,218.022 231.397 C 217.071 224.249,222.952 221.687,228.807 226.699 L 230.455 228.110 229.074 229.555 C 228.315 230.350,227.214 231.775,226.628 232.722 L 225.562 234.444 226.758 238.322 C 228.178 242.925,228.735 246.551,228.312 248.433 C 228.144 249.185,228.003 252.179,228.000 255.086 C 227.995 260.906,227.824 261.567,225.531 264.629 C 223.336 267.561,222.266 268.046,221.141 266.616 C 220.661 266.005,219.293 264.882,218.101 264.120 L 215.935 262.734 212.342 264.065 C 209.661 265.059,208.629 265.646,208.275 266.379 C 208.014 266.920,206.834 267.865,205.654 268.481 L 203.509 269.600 202.054 268.769 C 201.254 268.313,200.105 267.230,199.500 266.364 C 198.770 265.319,197.695 264.475,196.300 263.853 C 194.008 262.830,193.053 261.939,192.600 260.400 C 192.004 258.378,191.248 257.940,188.821 258.206 C 184.454 258.685,184.511 258.654,183.224 261.330 C 180.667 266.651,177.175 269.206,172.373 269.273 C 170.600 269.297,167.365 267.856,166.793 266.786 C 166.576 266.382,165.661 265.636,164.758 265.128 C 162.984 264.131,161.887 262.385,161.420 259.814 C 160.801 256.410,160.041 255.652,158.161 256.562 C 157.523 256.871,156.190 257.253,155.200 257.411 C 153.173 257.734,151.200 258.945,151.200 259.867 C 151.200 261.203,148.623 263.100,145.581 264.003 C 143.941 264.490,141.880 265.304,141.000 265.810 C 138.440 267.284,135.356 268.000,131.561 268.000 L 128.068 268.000 126.607 266.009 C 125.581 264.611,124.921 263.079,124.392 260.867 C 122.727 253.894,122.250 253.499,120.781 257.878 C 119.643 261.268,118.796 262.201,115.382 263.821 C 113.485 264.722,112.122 265.674,111.536 266.508 C 109.966 268.745,109.697 268.849,106.215 268.578 L 103.030 268.330 100.970 266.187 C 98.178 263.281,93.894 262.830,91.679 265.208 C 91.298 265.617,89.574 266.339,87.849 266.812 L 84.713 267.672 83.355 266.357 C 81.449 264.509,80.452 261.538,80.140 256.768 C 79.815 251.807,79.611 251.600,75.058 251.600 C 72.551 251.600,71.615 251.773,70.547 252.433 L 69.200 253.265 69.196 256.733 C 69.190 262.213,67.496 265.130,63.400 266.713 C 59.396 268.260,59.378 268.257,57.822 265.906 C 55.253 262.024,55.080 260.513,55.271 243.597 C 55.490 224.167,55.562 223.992,63.070 224.617 C 68.257 225.049,68.984 225.862,69.313 231.600 C 69.809 240.262,70.775 241.737,75.808 241.520 L 78.599 241.400 79.136 239.800 C 79.432 238.920,79.875 235.717,80.122 232.683 C 80.717 225.347,81.128 224.764,85.896 224.488 C 92.606 224.100,93.961 225.208,94.362 231.410 C 94.589 234.930,94.689 235.272,95.803 236.364 L 97.000 237.537 99.800 236.983 C 105.334 235.889,114.887 236.592,117.095 238.257 C 118.857 239.585,119.031 239.994,120.379 245.971 C 122.684 256.195,124.114 252.889,124.174 237.200 C 124.216 226.157,124.371 225.418,126.800 224.645 C 128.235 224.189,141.050 224.117,141.496 224.563 M266.751 237.526 C 270.030 239.228,271.425 247.320,268.917 250.091 C 267.185 252.005,263.544 251.141,261.926 248.432 C 261.455 247.644,260.716 246.603,260.283 246.119 L 259.495 245.237 257.848 246.077 C 254.897 247.581,251.674 251.944,252.227 253.686 C 252.632 254.963,254.340 255.303,260.824 255.399 C 267.280 255.494,268.274 255.714,269.379 257.292 C 270.910 259.478,269.232 262.445,265.741 263.723 C 263.563 264.520,262.343 265.412,261.645 266.717 C 260.240 269.342,255.105 268.970,251.710 265.996 C 249.996 264.496,248.218 263.706,244.600 262.839 C 243.500 262.575,242.260 262.024,241.845 261.614 C 241.109 260.886,241.069 260.894,240.178 261.953 C 235.952 266.975,228.407 265.048,228.401 258.944 C 228.398 254.709,235.706 253.659,239.852 257.299 L 241.170 258.457 241.403 257.328 C 241.532 256.708,241.808 255.549,242.018 254.754 C 242.228 253.958,242.400 251.786,242.400 249.926 C 242.400 242.744,245.339 238.483,251.363 236.933 C 254.416 236.147,264.870 236.550,266.751 237.526 M292.323 237.210 C 293.051 237.654,293.951 238.578,294.323 239.263 C 296.316 242.933,298.034 243.181,300.051 240.089 C 302.170 236.843,307.332 236.187,328.463 236.479 L 340.726 236.649 342.171 237.751 C 344.806 239.761,344.820 239.819,345.076 249.863 C 345.341 260.252,344.981 262.696,342.684 266.085 C 341.130 268.378,340.951 268.399,339.101 266.500 C 336.588 263.921,335.787 261.610,335.878 257.200 C 335.952 253.659,335.745 251.993,334.782 248.358 C 334.419 246.986,334.256 246.874,331.370 246.017 L 328.340 245.117 327.402 245.999 C 326.500 246.846,326.458 247.151,326.306 253.940 C 326.131 261.752,325.548 264.412,323.429 267.067 L 322.310 268.470 320.982 267.182 C 318.315 264.598,317.825 262.704,317.674 254.400 C 317.496 244.609,317.471 244.575,311.736 246.302 C 310.238 246.753,309.541 247.208,309.193 247.962 C 308.190 250.137,307.600 253.365,307.591 256.720 C 307.581 260.638,306.956 262.484,304.809 264.929 L 303.512 266.406 302.193 265.247 C 301.467 264.610,300.033 263.511,299.006 262.804 L 297.138 261.519 296.159 262.438 C 295.621 262.944,294.261 264.568,293.136 266.047 L 291.091 268.737 287.698 269.020 C 283.887 269.337,282.597 268.951,280.292 266.799 C 279.581 266.136,278.157 265.066,277.126 264.422 C 274.516 262.790,274.294 261.866,274.100 251.800 C 273.881 240.462,274.340 238.114,277.000 236.954 C 279.146 236.019,290.686 236.211,292.323 237.210 M133.730 239.088 C 133.021 240.378,132.866 241.538,132.677 247.000 L 132.454 253.400 133.458 254.454 C 135.486 256.583,143.600 255.081,143.600 252.576 C 143.600 252.315,144.602 250.978,145.826 249.606 C 148.334 246.796,148.332 246.950,145.875 243.340 C 143.645 240.064,141.350 238.557,138.073 238.217 C 136.683 238.072,135.324 237.869,135.053 237.765 C 134.782 237.661,134.188 238.255,133.730 239.088 M170.719 245.900 C 170.152 246.505,169.402 248.007,169.051 249.239 C 168.700 250.470,167.963 251.928,167.413 252.478 L 166.412 253.478 169.219 254.580 C 171.790 255.588,172.303 255.657,175.313 255.398 C 180.166 254.980,180.741 254.093,179.356 249.156 L 178.711 246.860 175.933 245.830 C 172.448 244.538,171.989 244.544,170.719 245.900 M202.248 245.861 C 201.493 246.617,201.200 247.325,201.200 248.399 C 201.200 249.218,201.090 250.690,200.956 251.669 C 200.733 253.295,200.824 253.563,202.000 254.738 C 203.426 256.165,203.600 256.158,207.055 254.545 L 209.109 253.585 207.755 250.940 C 207.010 249.485,206.400 247.970,206.400 247.574 C 206.400 246.955,205.425 246.034,203.748 245.072 C 203.500 244.929,202.825 245.284,202.248 245.861 M283.682 245.918 C 283.190 246.410,282.758 247.520,282.609 248.671 C 282.473 249.732,282.214 251.255,282.034 252.056 C 281.407 254.850,290.166 257.038,291.827 254.503 C 292.672 253.213,292.484 247.111,291.571 246.202 C 290.511 245.146,284.664 244.936,283.682 245.918 M104.680 246.293 C 102.920 246.476,102.666 246.887,101.853 250.877 L 101.307 253.553 102.427 254.626 C 103.511 255.665,103.647 255.690,106.674 255.413 C 111.238 254.995,111.614 254.550,110.947 250.356 C 110.220 245.789,110.123 245.726,104.680 246.293 " stroke="none" fill="#0b0c54" fill-rule="evenodd"></path><path id="path1" d="M153.378 100.794 C 148.480 102.718,147.250 113.901,149.352 137.400 C 150.263 147.580,150.942 150.519,152.763 152.166 C 154.265 153.526,153.973 158.723,152.208 162.048 C 149.109 167.883,148.602 171.064,148.601 184.674 L 148.600 196.748 149.800 198.010 C 152.114 200.443,151.788 200.400,168.096 200.400 C 184.046 200.400,185.414 200.266,189.503 198.302 L 191.380 197.400 191.890 194.000 C 192.999 186.598,192.327 176.270,190.626 174.568 C 190.310 174.253,189.925 173.594,189.769 173.104 C 189.185 171.261,185.029 166.371,177.465 158.625 C 176.401 157.535,175.187 155.913,174.767 155.021 C 174.347 154.130,173.289 152.619,172.416 151.665 C 171.543 150.711,170.147 148.568,169.314 146.902 C 167.928 144.130,167.047 142.991,164.856 141.136 C 162.666 139.282,162.103 123.314,164.079 119.098 C 167.016 112.831,177.275 116.253,178.195 123.806 C 178.587 127.029,178.820 128.077,179.650 130.363 C 180.083 131.553,180.772 134.495,181.182 136.900 C 182.018 141.795,182.519 142.624,185.600 144.200 C 187.778 145.315,193.169 150.775,194.314 153.026 C 195.607 155.568,201.014 160.632,204.197 162.282 C 206.600 163.527,207.903 165.229,208.195 167.502 C 208.836 172.497,209.294 173.633,211.061 174.618 C 211.975 175.128,212.830 175.437,212.961 175.305 C 213.093 175.174,213.201 175.322,213.202 175.633 C 213.204 175.945,213.453 176.676,213.757 177.258 C 214.177 178.062,214.274 179.785,214.164 184.458 C 214.038 189.797,214.131 191.001,214.876 193.670 C 215.839 197.125,216.012 197.104,218.003 193.283 C 218.487 192.355,219.047 191.494,219.248 191.370 C 219.449 191.246,219.516 190.988,219.397 190.795 C 219.279 190.603,219.108 189.761,219.018 188.923 C 218.928 188.085,218.654 186.410,218.411 185.200 C 217.296 179.664,217.150 178.172,217.077 171.579 L 217.000 164.557 215.640 161.879 C 214.892 160.405,214.152 159.200,213.995 159.200 C 213.378 159.200,211.591 157.032,210.749 155.263 C 210.261 154.239,209.224 152.732,208.444 151.915 C 207.665 151.098,206.550 149.568,205.966 148.515 C 205.383 147.462,204.306 146.240,203.573 145.800 C 201.463 144.533,198.903 141.778,198.614 140.464 C 198.469 139.803,197.640 138.247,196.772 137.008 C 193.785 132.745,192.468 126.493,192.231 115.456 C 192.155 111.905,192.072 108.849,192.046 108.665 C 191.958 108.028,186.994 103.117,185.800 102.486 C 182.474 100.729,156.935 99.396,153.378 100.794 M215.295 108.900 C 212.754 112.050,214.023 127.738,216.643 125.565 C 216.949 125.310,217.200 125.227,217.200 125.380 C 217.200 125.532,217.479 125.378,217.819 125.038 C 218.363 124.494,218.860 122.524,219.425 118.673 C 219.516 118.053,219.755 117.252,219.955 116.894 C 220.160 116.528,220.173 115.855,219.986 115.362 C 219.802 114.878,219.755 114.378,219.883 114.251 C 220.010 114.123,219.929 113.790,219.702 113.510 C 219.476 113.229,219.164 112.234,219.010 111.298 C 218.621 108.940,216.412 107.514,215.295 108.900 M166.382 169.990 C 166.783 170.205,167.751 171.272,168.534 172.361 C 169.317 173.451,170.552 174.626,171.279 174.972 C 173.991 176.266,174.794 177.247,175.554 180.200 C 175.951 181.740,176.400 183.388,176.553 183.862 C 177.497 186.801,167.188 188.359,164.688 185.655 C 162.419 183.201,161.992 172.295,164.100 170.633 C 165.608 169.445,165.448 169.490,166.382 169.990 " stroke="none" fill="#47acf6" fill-rule="evenodd"></path><path id="path2" d="M221.436 227.561 C 220.845 228.213,220.850 228.453,221.497 230.535 L 222.200 232.800 223.428 230.440 L 224.656 228.080 223.367 227.465 C 222.180 226.899,222.028 226.907,221.436 227.561 M127.557 227.852 C 127.058 228.453,126.401 244.169,126.413 255.200 C 126.421 262.236,127.951 263.013,138.635 261.402 C 140.816 261.074,143.607 260.804,144.838 260.802 C 147.833 260.799,148.645 259.996,148.015 257.657 C 147.495 255.724,147.080 255.380,146.345 256.268 C 144.529 258.463,135.763 259.316,132.439 257.620 C 129.916 256.333,129.599 255.162,129.605 247.140 C 129.614 233.273,133.835 227.841,140.074 233.669 C 140.709 234.262,141.807 234.941,142.514 235.178 C 143.221 235.414,144.591 236.061,145.558 236.614 C 147.172 237.537,147.373 237.567,148.016 236.986 C 150.031 235.162,148.766 233.348,145.185 232.924 C 142.824 232.644,142.327 232.133,141.800 229.442 L 141.400 227.400 134.757 227.291 C 128.943 227.195,128.044 227.265,127.557 227.852 M58.807 228.583 C 58.557 229.239,58.400 235.555,58.400 244.950 C 58.400 262.851,58.302 262.357,61.521 260.604 L 63.567 259.491 63.330 256.422 L 63.093 253.354 64.847 251.828 C 67.641 249.395,69.620 248.693,74.268 248.482 C 81.319 248.163,83.763 250.235,83.315 256.154 C 83.118 258.759,83.780 261.600,84.584 261.600 C 85.269 261.600,89.603 259.401,89.614 259.048 C 89.622 258.801,89.888 257.160,90.206 255.400 C 90.524 253.640,90.814 251.030,90.850 249.600 C 90.895 247.778,91.013 248.497,91.242 252.000 C 91.781 260.234,91.546 259.895,97.200 260.613 C 98.410 260.766,100.300 261.231,101.400 261.646 C 103.691 262.509,108.741 262.675,110.126 261.931 C 110.607 261.673,112.168 261.178,113.596 260.831 C 116.930 260.021,117.177 259.521,117.487 252.967 C 117.746 247.487,116.638 242.000,115.274 242.000 C 114.952 242.000,114.487 241.725,114.242 241.390 C 113.042 239.748,104.355 238.984,101.208 240.243 C 97.652 241.666,99.741 242.400,107.347 242.400 C 114.615 242.400,113.832 241.641,114.213 249.051 C 114.633 257.207,113.655 258.400,106.547 258.400 C 99.580 258.400,98.320 256.958,98.692 249.415 C 98.960 243.965,98.677 243.200,96.394 243.200 C 93.847 243.200,91.768 244.232,91.312 245.723 L 90.921 247.000 90.602 245.400 C 90.427 244.520,90.052 243.138,89.769 242.328 C 89.352 241.134,89.351 240.259,89.762 237.694 C 90.247 234.663,90.225 234.399,89.234 231.370 L 88.200 228.208 86.453 227.871 C 85.492 227.686,84.554 227.686,84.368 227.872 C 83.908 228.332,83.207 234.708,83.203 238.469 C 83.200 241.166,83.077 241.684,82.189 242.741 C 79.161 246.339,70.286 246.015,65.415 242.129 L 64.000 241.000 64.000 237.342 C 64.000 234.353,62.974 228.932,62.258 228.136 C 61.547 227.346,59.159 227.655,58.807 228.583 M221.231 238.836 C 219.529 243.566,217.267 245.476,213.986 244.951 C 212.179 244.662,211.200 243.610,211.200 241.957 C 211.200 239.960,209.959 239.600,203.076 239.600 C 196.068 239.600,195.902 239.669,195.396 242.800 C 195.236 243.790,194.872 245.056,194.587 245.614 C 194.302 246.171,193.941 247.309,193.784 248.142 C 192.966 252.504,190.061 252.887,185.849 249.189 L 184.476 247.984 183.970 250.810 C 183.277 254.689,183.490 254.872,188.007 254.299 C 193.248 253.634,194.912 254.409,195.413 257.747 C 195.768 260.115,196.475 260.652,199.592 260.919 C 201.496 261.082,202.353 261.348,202.816 261.921 C 203.356 262.588,203.552 262.624,204.169 262.173 C 204.565 261.884,205.904 261.533,207.145 261.395 C 210.256 261.047,213.674 259.680,213.515 258.846 C 213.335 257.903,210.754 257.370,208.911 257.896 C 202.357 259.767,198.529 258.626,197.769 254.574 C 197.452 252.886,198.237 246.248,198.921 244.826 C 200.684 241.161,206.963 241.200,208.844 244.886 C 209.273 245.727,210.143 246.878,210.778 247.444 C 212.288 248.789,213.492 251.652,213.884 254.832 C 214.144 256.939,214.341 257.415,215.000 257.535 C 215.440 257.616,216.340 258.078,217.000 258.564 C 217.660 259.049,219.137 260.014,220.283 260.709 L 222.366 261.972 223.246 260.735 C 224.943 258.353,224.705 242.202,222.913 238.036 L 222.154 236.272 221.231 238.836 M151.723 239.278 C 150.454 239.891,150.321 240.605,151.024 243.023 C 152.091 246.692,151.692 250.358,149.992 252.520 C 149.056 253.709,149.306 253.980,151.741 254.426 C 153.688 254.782,156.123 253.824,155.812 252.824 C 155.363 251.382,154.815 246.393,154.808 243.686 C 154.797 239.556,153.874 238.238,151.723 239.278 M165.050 240.345 C 164.464 240.992,164.401 241.575,164.634 244.151 C 164.946 247.597,165.724 248.836,166.387 246.943 C 167.794 242.926,170.102 241.667,174.949 242.276 C 178.616 242.737,180.328 242.044,179.351 240.494 C 178.647 239.377,166.045 239.245,165.050 240.345 M251.900 240.229 C 250.612 240.928,250.558 241.214,251.500 242.374 C 252.337 243.405,252.940 243.447,256.600 242.729 C 261.958 241.678,263.927 242.257,264.447 245.039 C 265.101 248.538,267.169 248.900,266.622 245.419 C 265.942 241.090,265.874 240.997,262.845 240.266 C 259.351 239.423,253.423 239.403,251.900 240.229 M277.462 240.331 C 276.512 241.382,276.562 246.825,277.542 249.000 L 278.263 250.600 279.127 248.200 C 281.012 242.967,282.403 242.000,288.051 242.000 C 291.679 242.000,292.260 241.716,291.532 240.300 C 290.974 239.216,278.446 239.244,277.462 240.331 M311.600 239.864 C 304.428 240.563,304.367 241.608,311.475 241.974 C 320.234 242.425,320.800 243.086,320.800 252.879 C 320.800 259.203,321.229 262.000,322.200 262.000 C 323.165 262.000,323.600 259.202,323.600 253.004 C 323.600 243.664,324.449 242.235,329.920 242.367 C 338.242 242.569,339.171 243.814,339.193 254.800 C 339.204 259.735,340.161 262.802,341.327 261.632 C 342.017 260.938,341.991 241.953,341.298 241.118 C 340.246 239.850,320.364 239.011,311.600 239.864 M246.215 245.571 C 245.757 246.457,245.597 248.279,245.558 253.042 C 245.502 259.865,245.667 260.400,247.834 260.400 C 248.319 260.400,249.924 260.773,251.400 261.229 C 256.648 262.850,268.525 261.078,266.750 258.939 C 266.408 258.527,264.760 258.400,259.759 258.400 C 249.357 258.400,247.708 257.013,249.244 249.555 C 250.143 245.187,247.923 242.268,246.215 245.571 M296.502 246.477 C 295.658 247.494,295.404 253.261,296.141 254.686 C 296.880 256.115,298.830 255.906,300.333 254.236 C 301.122 253.360,302.207 247.258,301.671 246.715 C 301.046 246.081,296.986 245.894,296.502 246.477 M277.476 257.687 C 276.193 259.922,277.008 260.957,280.400 261.404 C 281.610 261.563,283.050 261.919,283.600 262.195 C 285.274 263.034,291.059 261.692,291.783 260.298 C 292.636 258.653,291.922 258.393,286.733 258.458 C 282.571 258.510,281.962 258.423,280.149 257.513 L 278.152 256.509 277.476 257.687 M164.992 258.533 C 163.964 260.000,165.019 260.917,168.304 261.411 C 169.852 261.644,171.362 262.025,171.659 262.259 C 173.586 263.771,180.611 260.970,179.852 258.992 C 179.610 258.361,175.819 258.225,173.400 258.760 C 172.277 259.008,170.742 258.832,167.086 258.034 C 165.791 257.752,165.489 257.824,164.992 258.533 M232.883 258.877 C 232.390 259.370,233.674 261.200,234.512 261.200 C 235.635 261.200,237.109 259.336,236.357 258.866 C 235.390 258.262,233.492 258.268,232.883 258.877 " stroke="none" fill="#dcdeed" fill-rule="evenodd"></path><path id="path3" d="M152.966 100.569 C 152.287 100.864,151.342 101.601,150.866 102.207 C 149.429 104.033,149.892 104.084,151.571 102.285 L 153.142 100.600 165.271 100.515 C 178.001 100.427,182.767 100.884,185.800 102.486 C 186.994 103.117,191.958 108.028,192.046 108.665 C 192.072 108.849,192.155 111.905,192.231 115.456 C 192.468 126.493,193.785 132.745,196.772 137.008 C 197.640 138.247,198.469 139.803,198.614 140.464 C 198.903 141.778,201.463 144.533,203.573 145.800 C 204.306 146.240,205.383 147.462,205.966 148.515 C 206.550 149.568,207.665 151.098,208.444 151.915 C 209.224 152.732,210.261 154.239,210.749 155.263 C 211.591 157.032,213.378 159.200,213.995 159.200 C 214.152 159.200,214.892 160.405,215.640 161.879 L 217.000 164.557 217.077 171.579 C 217.150 178.172,217.296 179.664,218.411 185.200 C 218.654 186.410,218.928 188.085,219.018 188.923 C 219.108 189.761,219.279 190.603,219.397 190.795 C 219.516 190.988,219.449 191.246,219.248 191.370 C 219.047 191.494,218.487 192.355,218.003 193.283 C 216.012 197.104,215.839 197.125,214.876 193.670 C 214.131 191.001,214.038 189.797,214.164 184.458 C 214.274 179.785,214.177 178.062,213.757 177.258 C 213.453 176.676,213.204 175.945,213.202 175.633 C 213.201 175.322,213.093 175.174,212.961 175.305 C 212.830 175.437,211.975 175.128,211.061 174.618 C 209.294 173.633,208.836 172.497,208.195 167.502 C 207.903 165.229,206.600 163.527,204.197 162.282 C 201.014 160.632,195.607 155.568,194.314 153.026 C 193.169 150.775,187.778 145.315,185.600 144.200 C 182.765 142.749,181.941 141.606,181.352 138.305 L 180.834 135.400 180.999 138.400 C 181.178 141.642,181.403 141.972,185.600 145.155 C 186.293 145.680,187.326 146.850,187.897 147.755 C 188.468 148.660,189.693 150.137,190.619 151.038 C 191.546 151.940,192.621 153.346,193.009 154.163 C 193.397 154.981,194.274 156.180,194.957 156.828 C 206.343 167.630,207.555 170.295,207.585 184.600 C 207.620 200.919,207.006 200.498,231.124 200.709 C 256.391 200.929,255.956 201.265,255.984 181.521 C 255.999 170.923,255.687 168.959,253.173 163.839 C 251.724 160.886,251.504 160.048,251.165 156.162 C 250.956 153.763,250.418 150.625,249.971 149.189 C 248.815 145.480,249.678 141.901,252.428 138.999 C 254.027 137.310,254.800 134.805,254.800 131.307 C 254.800 129.662,255.089 127.209,255.442 125.858 C 255.951 123.909,256.051 121.936,255.923 116.327 L 255.761 109.254 253.964 106.927 C 252.976 105.647,251.855 104.105,251.474 103.499 C 251.093 102.894,250.033 101.904,249.120 101.299 L 247.460 100.200 232.046 100.078 C 223.568 100.011,216.215 100.060,215.706 100.188 C 214.591 100.468,211.600 103.092,211.600 103.790 C 211.600 104.064,210.908 105.078,210.062 106.044 C 209.216 107.010,208.316 108.193,208.062 108.674 C 207.408 109.910,207.439 121.939,208.100 123.456 C 209.213 126.009,212.630 131.257,214.857 133.833 C 216.556 135.798,217.422 137.218,217.931 138.874 C 218.820 141.773,219.776 142.873,222.686 144.346 C 225.489 145.766,229.647 150.386,230.576 153.113 C 231.443 155.657,233.128 158.400,233.823 158.400 C 236.351 158.400,237.512 164.205,237.206 175.320 L 236.944 184.841 235.772 185.973 C 234.625 187.082,234.524 187.102,231.088 186.902 C 225.563 186.582,225.404 186.347,225.038 178.034 C 224.727 170.961,224.439 169.906,221.966 166.808 C 221.343 166.028,220.425 163.972,219.907 162.200 C 218.679 157.996,218.369 157.498,215.794 155.596 C 214.594 154.709,213.329 153.437,212.984 152.769 C 212.639 152.101,211.540 151.037,210.542 150.404 C 209.514 149.752,208.379 148.592,207.922 147.727 C 206.786 145.575,205.655 144.440,203.751 143.539 C 201.627 142.535,200.655 141.416,200.045 139.277 C 199.754 138.256,198.920 136.920,197.998 135.998 C 194.536 132.536,193.999 130.191,193.984 118.473 C 193.971 107.996,194.046 108.337,190.892 104.310 C 189.704 102.794,188.414 101.680,187.071 101.010 L 185.043 100.000 169.621 100.016 C 157.621 100.028,153.926 100.150,152.966 100.569 M217.875 108.998 C 218.405 109.369,218.835 110.241,219.010 111.298 C 219.164 112.234,219.476 113.229,219.702 113.510 C 219.929 113.790,220.010 114.123,219.883 114.251 C 219.755 114.378,219.802 114.878,219.986 115.362 C 220.173 115.855,220.160 116.528,219.955 116.894 C 219.755 117.252,219.516 118.053,219.425 118.673 C 218.860 122.524,218.363 124.494,217.819 125.038 C 217.479 125.378,217.200 125.532,217.200 125.380 C 217.200 125.227,216.949 125.310,216.643 125.565 C 215.410 126.587,213.785 122.672,213.834 118.800 C 213.940 110.404,215.272 107.174,217.875 108.998 M235.964 118.600 C 236.507 119.952,237.110 122.636,237.345 124.749 L 237.764 128.498 236.476 129.649 C 234.807 131.140,234.317 131.100,232.939 129.366 C 230.623 126.450,228.873 124.800,228.095 124.800 C 223.582 124.800,225.298 116.668,229.891 116.285 C 234.751 115.880,234.894 115.935,235.964 118.600 M174.800 118.620 C 174.800 118.741,175.076 119.374,175.414 120.028 C 175.752 120.681,176.371 122.851,176.789 124.849 C 177.207 126.847,177.809 128.778,178.127 129.141 C 178.445 129.503,179.078 130.520,179.535 131.400 C 180.583 133.420,180.618 133.029,179.632 130.315 C 178.821 128.081,178.585 127.013,178.199 123.838 C 177.921 121.546,174.800 116.755,174.800 118.620 M167.466 143.600 C 167.722 143.930,168.590 145.497,169.395 147.081 C 170.200 148.666,171.566 150.736,172.431 151.681 C 173.296 152.627,174.356 154.120,174.787 155.000 C 175.217 155.880,175.946 157.050,176.407 157.600 C 177.008 158.317,176.912 157.978,176.068 156.400 C 175.421 155.190,174.784 153.729,174.652 153.153 C 174.519 152.577,173.578 151.423,172.560 150.589 C 171.286 149.545,170.368 148.313,169.616 146.636 C 169.015 145.296,168.180 143.930,167.762 143.600 C 167.085 143.067,167.052 143.067,167.466 143.600 M150.087 146.000 C 150.083 146.550,150.224 147.450,150.400 148.000 C 150.831 149.344,150.831 147.892,150.400 146.200 C 150.126 145.122,150.094 145.102,150.087 146.000 M178.610 159.600 C 179.214 160.370,181.240 162.620,183.112 164.600 C 186.848 168.552,189.332 171.725,189.769 173.104 C 189.925 173.594,190.310 174.253,190.626 174.568 C 192.327 176.270,192.999 186.598,191.890 194.000 L 191.380 197.400 189.488 198.309 C 188.447 198.809,186.651 199.472,185.498 199.782 L 183.400 200.347 187.269 200.374 L 191.138 200.400 192.543 198.759 L 193.948 197.117 193.986 187.636 C 194.025 177.809,193.709 175.572,192.157 174.680 C 191.851 174.504,191.600 174.108,191.600 173.800 C 191.600 173.492,191.353 173.096,191.050 172.920 C 190.748 172.744,189.392 171.200,188.036 169.489 C 186.681 167.778,183.759 164.538,181.542 162.289 C 179.325 160.040,178.006 158.830,178.610 159.600 M174.157 177.480 C 174.510 178.184,174.808 179.444,174.818 180.280 C 174.827 181.116,175.072 182.464,175.362 183.276 C 175.749 184.360,175.771 184.877,175.444 185.225 C 175.102 185.589,175.211 185.589,175.919 185.225 C 176.626 184.861,176.773 184.549,176.557 183.876 C 176.402 183.394,175.954 181.757,175.562 180.238 C 175.169 178.719,174.548 177.189,174.181 176.838 C 173.558 176.243,173.556 176.286,174.157 177.480 M126.800 224.645 C 124.371 225.418,124.216 226.157,124.174 237.200 C 124.114 252.889,122.684 256.195,120.379 245.971 C 119.031 239.994,118.857 239.585,117.095 238.257 C 114.887 236.592,105.334 235.889,99.800 236.983 L 97.000 237.537 95.803 236.364 C 94.689 235.272,94.589 234.930,94.362 231.410 C 93.961 225.208,92.606 224.100,85.896 224.488 C 81.128 224.764,80.717 225.347,80.122 232.683 C 79.875 235.717,79.432 238.920,79.136 239.800 L 78.599 241.400 75.808 241.520 C 70.775 241.737,69.809 240.262,69.313 231.600 C 68.984 225.862,68.257 225.049,63.070 224.617 C 55.562 223.992,55.490 224.167,55.271 243.597 C 55.080 260.513,55.253 262.024,57.822 265.906 C 59.378 268.257,59.396 268.260,63.400 266.713 C 67.496 265.130,69.190 262.213,69.196 256.733 L 69.200 253.265 70.547 252.433 C 71.615 251.773,72.551 251.600,75.058 251.600 C 79.611 251.600,79.815 251.807,80.140 256.768 C 80.452 261.538,81.449 264.509,83.355 266.357 L 84.713 267.672 87.849 266.812 C 89.574 266.339,91.298 265.617,91.679 265.208 C 93.894 262.830,98.178 263.281,100.970 266.187 L 103.030 268.330 106.215 268.578 C 109.697 268.849,109.966 268.745,111.536 266.508 C 112.122 265.674,113.485 264.722,115.382 263.821 C 118.796 262.201,119.643 261.268,120.781 257.878 C 122.250 253.499,122.727 253.894,124.392 260.867 C 124.921 263.079,125.581 264.611,126.607 266.009 L 128.068 268.000 131.561 268.000 C 135.356 268.000,138.440 267.284,141.000 265.810 C 141.880 265.304,143.941 264.490,145.581 264.003 C 148.623 263.100,151.200 261.203,151.200 259.867 C 151.200 258.945,153.173 257.734,155.200 257.411 C 156.190 257.253,157.523 256.871,158.161 256.562 C 160.041 255.652,160.801 256.410,161.420 259.814 C 161.887 262.385,162.984 264.131,164.758 265.128 C 165.661 265.636,166.576 266.382,166.793 266.786 C 167.365 267.856,170.600 269.297,172.373 269.273 C 177.175 269.206,180.667 266.651,183.224 261.330 C 184.511 258.654,184.454 258.685,188.821 258.206 C 191.248 257.940,192.004 258.378,192.600 260.400 C 193.053 261.939,194.008 262.830,196.300 263.853 C 197.695 264.475,198.770 265.319,199.500 266.364 C 200.105 267.230,201.254 268.313,202.054 268.769 L 203.509 269.600 205.654 268.481 C 206.834 267.865,208.014 266.920,208.275 266.379 C 208.629 265.646,209.661 265.059,212.342 264.065 L 215.935 262.734 218.101 264.120 C 219.293 264.882,220.661 266.005,221.141 266.616 C 222.266 268.046,223.336 267.561,225.531 264.629 C 227.824 261.567,227.995 260.906,228.000 255.086 C 228.003 252.179,228.144 249.185,228.312 248.433 C 228.735 246.551,228.178 242.925,226.758 238.322 L 225.562 234.444 226.628 232.722 C 227.214 231.775,228.315 230.350,229.074 229.555 L 230.455 228.110 228.807 226.699 C 222.952 221.687,217.071 224.249,218.022 231.397 C 218.451 234.621,218.422 234.930,217.405 237.986 C 216.092 241.928,215.939 242.030,214.527 239.905 C 212.540 236.913,210.925 236.400,203.499 236.400 C 195.297 236.400,194.607 236.691,192.554 241.016 C 191.775 242.657,190.961 244.000,190.746 244.000 C 187.300 244.000,182.800 242.352,182.800 241.091 C 182.800 237.651,179.950 236.400,172.116 236.401 C 163.271 236.404,162.443 236.976,161.188 243.960 C 159.920 251.021,159.085 251.145,158.117 244.416 C 157.090 237.277,154.197 233.087,148.304 230.200 C 146.957 229.540,145.663 228.640,145.428 228.200 C 144.408 226.284,143.106 224.800,142.446 224.800 C 142.054 224.800,141.627 224.693,141.496 224.563 C 141.050 224.117,128.235 224.189,126.800 224.645 M143.436 227.789 C 144.879 229.422,146.237 230.548,147.115 230.838 C 150.814 232.059,156.548 239.120,156.992 243.000 C 157.727 249.433,158.915 252.800,160.449 252.800 C 161.082 252.800,161.600 252.980,161.600 253.200 C 161.600 253.420,161.131 253.600,160.558 253.600 C 159.985 253.600,159.001 254.033,158.371 254.563 C 157.742 255.093,156.096 255.909,154.713 256.377 C 151.911 257.326,150.877 258.064,150.014 259.734 C 149.230 261.251,147.701 262.284,145.512 262.775 C 144.518 262.998,143.186 263.387,142.553 263.641 C 137.150 265.802,128.646 265.478,126.517 263.031 C 124.420 260.621,122.917 254.042,123.880 251.491 C 124.378 250.173,124.579 247.379,124.795 238.837 L 125.071 227.874 126.530 226.537 L 127.988 225.200 134.568 225.200 L 141.148 225.200 143.436 227.789 M225.657 226.845 C 226.525 227.533,227.173 228.209,227.097 228.347 C 227.022 228.486,226.318 229.928,225.534 231.552 C 223.988 234.752,223.983 234.350,225.642 239.131 C 226.439 241.427,226.526 242.509,226.576 250.812 L 226.632 259.963 225.301 261.797 C 223.193 264.701,222.613 264.795,219.015 262.808 L 215.957 261.120 212.079 262.779 C 209.945 263.692,207.480 264.943,206.600 265.561 C 203.388 267.815,203.404 267.814,201.579 265.909 C 200.678 264.969,198.741 263.570,197.276 262.800 C 195.783 262.016,194.257 260.868,193.806 260.190 C 193.363 259.524,192.592 258.461,192.093 257.827 L 191.186 256.674 188.302 257.190 C 184.022 257.955,183.492 258.223,182.473 260.146 C 179.524 265.705,173.202 268.420,169.310 265.800 C 168.167 265.030,167.051 264.400,166.830 264.400 C 163.975 264.400,160.536 255.201,163.033 254.243 C 164.260 253.772,165.904 254.009,166.913 254.803 C 167.475 255.245,168.854 256.033,169.979 256.554 L 172.024 257.501 175.712 256.716 C 180.623 255.672,181.405 254.895,181.014 251.444 C 180.554 247.380,180.058 246.632,177.142 245.614 C 171.191 243.535,170.288 243.894,167.629 249.387 C 166.038 252.675,165.927 252.800,164.621 252.800 C 162.126 252.800,161.997 252.624,162.025 249.257 C 162.080 242.449,162.487 240.442,164.114 238.951 L 165.588 237.600 171.993 237.600 L 178.398 237.600 179.967 239.017 C 181.088 240.031,181.611 240.880,181.799 241.994 C 182.154 244.094,182.530 244.327,187.053 245.251 L 190.960 246.049 191.626 245.165 C 191.993 244.679,192.777 243.326,193.368 242.158 C 193.959 240.990,194.987 239.577,195.652 239.017 C 198.310 236.781,212.800 237.947,212.800 240.397 C 212.800 240.596,213.427 241.238,214.194 241.823 L 215.588 242.886 216.825 242.103 C 217.753 241.515,218.395 240.493,219.398 238.004 L 220.736 234.688 219.875 231.359 L 219.014 228.030 220.407 226.587 C 222.079 224.857,223.217 224.913,225.657 226.845 M62.880 226.795 C 66.463 227.788,66.164 227.386,67.208 232.600 C 68.961 241.360,69.806 242.400,75.169 242.400 C 80.008 242.400,80.210 242.142,81.601 234.200 C 82.956 226.468,83.008 226.400,87.606 226.400 C 91.515 226.400,91.750 226.665,92.358 231.748 C 92.830 235.690,93.597 237.362,95.531 238.665 L 96.819 239.533 99.109 238.676 C 101.876 237.642,108.084 237.497,112.800 238.357 C 117.543 239.222,118.029 239.951,120.215 249.488 L 121.153 253.577 120.129 256.621 C 118.820 260.516,118.050 261.357,114.466 262.807 C 112.852 263.460,111.042 264.343,110.444 264.769 C 108.990 265.804,103.555 266.036,102.499 265.108 C 99.334 262.325,94.170 261.696,88.646 263.419 C 84.532 264.703,84.303 264.639,82.709 261.766 C 81.785 260.100,81.615 259.312,81.597 256.600 C 81.564 251.802,80.143 250.407,75.284 250.403 C 70.123 250.398,68.327 251.846,67.644 256.564 C 66.999 261.018,66.245 262.057,62.535 263.601 C 59.039 265.057,59.034 265.055,57.665 261.647 C 55.864 257.164,56.514 229.942,58.490 227.100 C 59.402 225.787,59.274 225.796,62.880 226.795 M133.453 237.295 C 131.860 239.384,131.641 240.414,131.351 247.196 L 131.077 253.607 132.755 255.203 L 134.434 256.800 137.957 256.800 C 142.029 256.800,144.101 255.737,145.547 252.905 C 145.971 252.077,146.956 250.451,147.737 249.291 L 149.158 247.183 148.150 244.491 C 146.303 239.560,142.636 236.664,137.726 236.257 L 134.452 235.986 133.453 237.295 M251.363 236.933 C 245.339 238.483,242.400 242.744,242.400 249.926 C 242.400 251.786,242.228 253.958,242.018 254.754 C 241.808 255.549,241.532 256.708,241.403 257.328 L 241.170 258.457 239.852 257.299 C 235.706 253.659,228.398 254.709,228.401 258.944 C 228.407 265.048,235.952 266.975,240.178 261.953 C 241.069 260.894,241.109 260.886,241.845 261.614 C 242.260 262.024,243.500 262.575,244.600 262.839 C 248.218 263.706,249.996 264.496,251.710 265.996 C 255.105 268.970,260.240 269.342,261.645 266.717 C 262.343 265.412,263.563 264.520,265.741 263.723 C 269.232 262.445,270.910 259.478,269.379 257.292 C 268.274 255.714,267.280 255.494,260.824 255.399 C 254.340 255.303,252.632 254.963,252.227 253.686 C 251.674 251.944,254.897 247.581,257.848 246.077 L 259.495 245.237 260.283 246.119 C 260.716 246.603,261.455 247.644,261.926 248.432 C 263.544 251.141,267.185 252.005,268.917 250.091 C 271.425 247.320,270.030 239.228,266.751 237.526 C 264.870 236.550,254.416 236.147,251.363 236.933 M277.000 236.954 C 274.340 238.114,273.881 240.462,274.100 251.800 C 274.294 261.866,274.516 262.790,277.126 264.422 C 278.157 265.066,279.581 266.136,280.292 266.799 C 282.597 268.951,283.887 269.337,287.698 269.020 L 291.091 268.737 293.136 266.047 C 294.261 264.568,295.621 262.944,296.159 262.438 L 297.138 261.519 299.006 262.804 C 300.033 263.511,301.467 264.610,302.193 265.247 L 303.512 266.406 304.809 264.929 C 306.956 262.484,307.581 260.638,307.591 256.720 C 307.600 253.365,308.190 250.137,309.193 247.962 C 309.541 247.208,310.238 246.753,311.736 246.302 C 317.471 244.575,317.496 244.609,317.674 254.400 C 317.825 262.704,318.315 264.598,320.982 267.182 L 322.310 268.470 323.429 267.067 C 325.548 264.412,326.131 261.752,326.306 253.940 C 326.458 247.151,326.500 246.846,327.402 245.999 L 328.340 245.117 331.370 246.017 C 334.256 246.874,334.419 246.986,334.782 248.358 C 335.745 251.993,335.952 253.659,335.878 257.200 C 335.787 261.610,336.588 263.921,339.101 266.500 C 340.951 268.399,341.130 268.378,342.684 266.085 C 344.981 262.696,345.341 260.252,345.076 249.863 C 344.820 239.819,344.806 239.761,342.171 237.751 L 340.726 236.649 328.463 236.479 C 307.332 236.187,302.170 236.843,300.051 240.089 C 298.034 243.181,296.316 242.933,294.323 239.263 C 292.835 236.521,281.470 235.006,277.000 236.954 M138.073 238.217 C 141.350 238.557,143.645 240.064,145.875 243.340 C 148.332 246.950,148.334 246.796,145.826 249.606 C 144.602 250.978,143.600 252.315,143.600 252.576 C 143.600 255.081,135.486 256.583,133.458 254.454 L 132.454 253.400 132.677 247.000 C 132.906 240.397,133.715 237.252,135.053 237.765 C 135.324 237.869,136.683 238.072,138.073 238.217 M262.874 238.444 C 268.663 240.006,271.435 247.506,266.976 249.538 C 265.550 250.188,265.729 250.288,262.731 247.156 C 259.665 243.953,259.777 243.973,255.527 245.870 C 253.226 246.898,252.147 248.520,251.004 252.673 C 250.208 255.565,255.944 257.539,262.697 256.699 C 270.506 255.727,271.769 260.702,264.336 263.160 C 262.871 263.645,261.184 264.494,260.586 265.048 C 259.243 266.293,255.332 265.828,251.600 263.981 C 250.390 263.382,248.097 262.504,246.504 262.030 C 242.234 260.760,241.418 259.911,242.246 257.600 C 242.611 256.582,243.009 253.714,243.162 251.000 C 243.776 240.090,251.274 235.314,262.874 238.444 M292.609 239.200 C 293.409 239.970,294.307 241.179,294.605 241.886 C 295.557 244.143,298.077 243.939,300.436 241.414 C 303.216 238.438,307.590 237.800,325.200 237.800 C 342.283 237.800,342.753 237.979,343.612 244.800 C 345.056 256.269,342.896 267.425,339.864 264.156 C 337.892 262.029,337.316 260.167,337.095 255.200 C 336.729 247.019,336.122 246.005,331.088 245.161 L 327.976 244.640 326.797 245.820 L 325.618 247.000 325.369 253.400 C 325.088 260.632,324.816 262.097,323.440 263.800 L 322.471 265.000 321.468 264.061 C 319.741 262.444,318.689 259.417,318.957 256.838 C 319.780 248.909,317.981 244.080,314.400 244.607 C 311.700 245.004,308.893 246.344,308.241 247.547 C 305.010 253.502,305.109 253.200,305.344 256.436 C 305.555 259.327,305.512 259.536,304.448 260.810 L 303.331 262.148 302.166 261.344 C 301.525 260.902,300.119 260.135,299.042 259.641 L 297.084 258.742 294.902 260.871 C 293.702 262.042,292.306 263.643,291.799 264.430 C 290.969 265.719,290.577 265.926,287.817 266.532 C 284.531 267.254,284.251 267.201,281.800 265.387 C 281.140 264.899,279.937 264.287,279.126 264.027 C 274.710 262.613,273.346 256.557,276.917 254.218 C 277.860 253.600,278.023 253.640,280.850 255.181 C 283.707 256.738,283.920 256.789,287.625 256.794 C 293.268 256.803,293.999 255.893,293.284 249.754 C 292.753 245.201,292.440 244.905,288.000 244.746 C 283.734 244.593,283.147 244.936,281.394 248.605 C 278.001 255.706,274.804 254.073,274.801 245.238 L 274.800 240.676 276.459 239.098 L 278.118 237.520 284.637 237.660 L 291.156 237.800 292.609 239.200 M201.850 245.280 C 200.749 246.389,200.428 247.164,199.844 250.128 L 199.148 253.656 200.127 254.928 C 202.401 257.880,205.689 257.725,209.565 254.484 L 210.861 253.400 209.712 251.800 C 209.080 250.920,208.314 249.591,208.011 248.847 C 206.428 244.966,203.719 243.397,201.850 245.280 M104.800 245.200 C 102.009 245.542,101.340 246.627,100.585 252.034 C 99.984 256.335,108.066 258.563,111.410 255.017 L 112.714 253.635 112.157 250.717 C 111.851 249.113,111.601 247.600,111.600 247.355 C 111.600 247.110,111.120 246.429,110.533 245.842 C 109.420 244.729,109.017 244.684,104.800 245.200 M175.933 245.830 L 178.711 246.860 179.356 249.156 C 180.741 254.093,180.166 254.980,175.313 255.398 C 172.303 255.657,171.790 255.588,169.219 254.580 L 166.412 253.478 167.413 252.478 C 167.963 251.928,168.700 250.470,169.051 249.239 C 170.293 244.880,171.609 244.227,175.933 245.830 M205.300 246.093 C 205.905 246.512,206.400 247.178,206.400 247.574 C 206.400 247.970,207.010 249.485,207.755 250.940 L 209.109 253.585 207.055 254.545 C 203.600 256.158,203.426 256.165,202.000 254.738 C 200.824 253.563,200.733 253.295,200.956 251.669 C 201.090 250.690,201.200 249.218,201.200 248.399 C 201.200 247.325,201.493 246.617,202.248 245.861 C 203.324 244.785,203.422 244.792,205.300 246.093 M291.571 246.202 C 292.484 247.111,292.672 253.213,291.827 254.503 C 290.166 257.038,281.407 254.850,282.034 252.056 C 282.214 251.255,282.473 249.732,282.609 248.671 C 283.010 245.563,283.826 245.037,287.753 245.363 C 289.700 245.525,291.229 245.861,291.571 246.202 M109.967 246.560 C 111.055 247.872,111.536 253.522,110.631 254.359 C 109.086 255.787,103.818 255.959,102.427 254.626 L 101.307 253.553 101.853 250.877 C 102.666 246.887,102.920 246.476,104.680 246.293 C 108.068 245.940,109.513 246.013,109.967 246.560 M239.165 258.375 C 240.679 259.453,240.213 260.454,237.294 262.387 C 234.619 264.159,232.424 263.643,230.370 260.758 C 227.836 257.200,234.847 255.301,239.165 258.375 " stroke="none" fill="#7571e5" fill-rule="evenodd"></path><path id="path4" d="M126.530 226.537 L 125.071 227.874 124.795 238.837 C 124.579 247.379,124.378 250.173,123.880 251.491 C 122.917 254.042,124.420 260.621,126.517 263.031 C 128.646 265.478,137.150 265.802,142.553 263.641 C 143.186 263.387,144.518 262.998,145.512 262.775 C 147.701 262.284,149.230 261.251,150.014 259.734 C 150.877 258.064,151.911 257.326,154.713 256.377 C 156.096 255.909,157.742 255.093,158.371 254.563 C 159.001 254.033,159.985 253.600,160.558 253.600 C 161.131 253.600,161.600 253.420,161.600 253.200 C 161.600 252.980,161.082 252.800,160.449 252.800 C 158.915 252.800,157.727 249.433,156.992 243.000 C 156.548 239.120,150.814 232.059,147.115 230.838 C 146.237 230.548,144.879 229.422,143.436 227.789 L 141.148 225.200 134.568 225.200 L 127.988 225.200 126.530 226.537 M220.407 226.587 L 219.014 228.030 219.875 231.359 L 220.736 234.688 219.398 238.004 C 218.395 240.493,217.753 241.515,216.825 242.103 L 215.588 242.886 214.194 241.823 C 213.427 241.238,212.800 240.596,212.800 240.397 C 212.800 237.947,198.310 236.781,195.652 239.017 C 194.987 239.577,193.959 240.990,193.368 242.158 C 192.777 243.326,191.993 244.679,191.626 245.165 L 190.960 246.049 187.053 245.251 C 182.530 244.327,182.154 244.094,181.799 241.994 C 181.611 240.880,181.088 240.031,179.967 239.017 L 178.398 237.600 171.993 237.600 L 165.588 237.600 164.114 238.951 C 162.487 240.442,162.080 242.449,162.025 249.257 C 161.997 252.624,162.126 252.800,164.621 252.800 C 165.927 252.800,166.038 252.675,167.629 249.387 C 170.288 243.894,171.191 243.535,177.142 245.614 C 180.058 246.632,180.554 247.380,181.014 251.444 C 181.405 254.895,180.623 255.672,175.712 256.716 L 172.024 257.501 169.979 256.554 C 168.854 256.033,167.475 255.245,166.913 254.803 C 165.904 254.009,164.260 253.772,163.033 254.243 C 160.536 255.201,163.975 264.400,166.830 264.400 C 167.051 264.400,168.167 265.030,169.310 265.800 C 173.202 268.420,179.524 265.705,182.473 260.146 C 183.492 258.223,184.022 257.955,188.302 257.190 L 191.186 256.674 192.093 257.827 C 192.592 258.461,193.363 259.524,193.806 260.190 C 194.257 260.868,195.783 262.016,197.276 262.800 C 198.741 263.570,200.678 264.969,201.579 265.909 C 203.404 267.814,203.388 267.815,206.600 265.561 C 207.480 264.943,209.945 263.692,212.079 262.779 L 215.957 261.120 219.015 262.808 C 222.613 264.795,223.193 264.701,225.301 261.797 L 226.632 259.963 226.576 250.812 C 226.526 242.509,226.439 241.427,225.642 239.131 C 223.983 234.350,223.988 234.752,225.534 231.552 C 226.318 229.928,227.022 228.486,227.097 228.347 C 227.338 227.906,224.125 225.605,222.940 225.371 C 222.002 225.185,221.553 225.401,220.407 226.587 M58.490 227.100 C 56.514 229.942,55.864 257.164,57.665 261.647 C 59.034 265.055,59.039 265.057,62.535 263.601 C 66.245 262.057,66.999 261.018,67.644 256.564 C 68.327 251.846,70.123 250.398,75.284 250.403 C 80.143 250.407,81.564 251.802,81.597 256.600 C 81.615 259.312,81.785 260.100,82.709 261.766 C 84.303 264.639,84.532 264.703,88.646 263.419 C 94.170 261.696,99.334 262.325,102.499 265.108 C 103.555 266.036,108.990 265.804,110.444 264.769 C 111.042 264.343,112.852 263.460,114.466 262.807 C 118.050 261.357,118.820 260.516,120.129 256.621 L 121.153 253.577 120.215 249.488 C 118.029 239.951,117.543 239.222,112.800 238.357 C 108.084 237.497,101.876 237.642,99.109 238.676 L 96.819 239.533 95.531 238.665 C 93.597 237.362,92.830 235.690,92.358 231.748 C 91.750 226.665,91.515 226.400,87.606 226.400 C 83.008 226.400,82.956 226.468,81.601 234.200 C 80.210 242.142,80.008 242.400,75.169 242.400 C 69.806 242.400,68.961 241.360,67.208 232.600 C 66.164 227.386,66.463 227.788,62.880 226.795 C 59.274 225.796,59.402 225.787,58.490 227.100 M223.428 230.440 L 222.200 232.800 221.497 230.535 C 220.565 227.536,221.229 226.445,223.367 227.465 L 224.656 228.080 223.428 230.440 M141.800 229.442 C 142.327 232.133,142.824 232.644,145.185 232.924 C 148.766 233.348,150.031 235.162,148.016 236.986 C 147.373 237.567,147.172 237.537,145.558 236.614 C 144.591 236.061,143.221 235.414,142.514 235.178 C 141.807 234.941,140.709 234.262,140.074 233.669 C 133.835 227.841,129.614 233.273,129.605 247.140 C 129.599 255.162,129.916 256.333,132.439 257.620 C 135.763 259.316,144.529 258.463,146.345 256.268 C 147.080 255.380,147.495 255.724,148.015 257.657 C 148.645 259.996,147.833 260.799,144.838 260.802 C 143.607 260.804,140.816 261.074,138.635 261.402 C 127.951 263.013,126.421 262.236,126.413 255.200 C 126.401 244.169,127.058 228.453,127.557 227.852 C 128.044 227.265,128.943 227.195,134.757 227.291 L 141.400 227.400 141.800 229.442 M62.258 228.136 C 62.974 228.932,64.000 234.353,64.000 237.342 L 64.000 241.000 65.415 242.129 C 70.286 246.015,79.161 246.339,82.189 242.741 C 83.077 241.684,83.200 241.166,83.203 238.469 C 83.207 234.708,83.908 228.332,84.368 227.872 C 84.554 227.686,85.492 227.686,86.453 227.871 L 88.200 228.208 89.234 231.370 C 90.225 234.399,90.247 234.663,89.762 237.694 C 89.351 240.259,89.352 241.134,89.769 242.328 C 90.052 243.138,90.427 244.520,90.602 245.400 L 90.921 247.000 91.312 245.723 C 91.768 244.232,93.847 243.200,96.394 243.200 C 98.677 243.200,98.960 243.965,98.692 249.415 C 98.320 256.958,99.580 258.400,106.547 258.400 C 113.655 258.400,114.633 257.207,114.213 249.051 C 113.832 241.641,114.615 242.400,107.347 242.400 C 99.741 242.400,97.652 241.666,101.208 240.243 C 104.355 238.984,113.042 239.748,114.242 241.390 C 114.487 241.725,114.952 242.000,115.274 242.000 C 116.638 242.000,117.746 247.487,117.487 252.967 C 117.177 259.521,116.930 260.021,113.596 260.831 C 112.168 261.178,110.607 261.673,110.126 261.931 C 108.741 262.675,103.691 262.509,101.400 261.646 C 100.300 261.231,98.410 260.766,97.200 260.613 C 91.546 259.895,91.781 260.234,91.242 252.000 C 91.013 248.497,90.895 247.778,90.850 249.600 C 90.814 251.030,90.524 253.640,90.206 255.400 C 89.888 257.160,89.622 258.801,89.614 259.048 C 89.603 259.401,85.269 261.600,84.584 261.600 C 83.780 261.600,83.118 258.759,83.315 256.154 C 83.763 250.235,81.319 248.163,74.268 248.482 C 69.620 248.693,67.641 249.395,64.847 251.828 L 63.093 253.354 63.330 256.422 L 63.567 259.491 61.521 260.604 C 58.302 262.357,58.400 262.851,58.400 244.950 C 58.400 227.654,58.438 227.369,60.707 227.792 C 61.528 227.946,62.226 228.100,62.258 228.136 M143.000 238.018 C 146.038 240.280,147.048 241.550,148.150 244.491 L 149.158 247.183 147.737 249.291 C 146.956 250.451,145.971 252.077,145.547 252.905 C 144.101 255.737,142.029 256.800,137.957 256.800 L 134.434 256.800 132.755 255.203 L 131.077 253.607 131.351 247.196 C 131.641 240.414,131.860 239.384,133.453 237.295 L 134.452 235.986 137.726 236.257 C 140.674 236.501,141.199 236.676,143.000 238.018 M224.033 242.289 C 224.761 247.311,224.249 259.327,223.246 260.735 L 222.366 261.972 220.283 260.709 C 219.137 260.014,217.660 259.049,217.000 258.564 C 216.340 258.078,215.440 257.616,215.000 257.535 C 214.341 257.415,214.144 256.939,213.884 254.832 C 213.492 251.652,212.288 248.789,210.778 247.444 C 210.143 246.878,209.273 245.727,208.844 244.886 C 206.963 241.200,200.684 241.161,198.921 244.826 C 198.237 246.248,197.452 252.886,197.769 254.574 C 198.529 258.626,202.357 259.767,208.911 257.896 C 210.754 257.370,213.335 257.903,213.515 258.846 C 213.674 259.680,210.256 261.047,207.145 261.395 C 205.904 261.533,204.565 261.884,204.169 262.173 C 203.552 262.624,203.356 262.588,202.816 261.921 C 202.353 261.348,201.496 261.082,199.592 260.919 C 196.475 260.652,195.768 260.115,195.413 257.747 C 194.912 254.409,193.248 253.634,188.007 254.299 C 183.490 254.872,183.277 254.689,183.970 250.810 L 184.476 247.984 185.849 249.189 C 190.061 252.887,192.966 252.504,193.784 248.142 C 193.941 247.309,194.302 246.171,194.587 245.614 C 194.872 245.056,195.236 243.790,195.396 242.800 C 195.902 239.669,196.068 239.600,203.076 239.600 C 209.959 239.600,211.200 239.960,211.200 241.957 C 211.200 243.610,212.179 244.662,213.986 244.951 C 217.267 245.476,219.529 243.566,221.231 238.836 L 222.154 236.272 222.913 238.036 C 223.330 239.006,223.834 240.920,224.033 242.289 M251.291 238.322 C 245.898 240.462,243.549 244.126,243.162 251.000 C 243.009 253.714,242.611 256.582,242.246 257.600 C 241.418 259.911,242.234 260.760,246.504 262.030 C 248.097 262.504,250.390 263.382,251.600 263.981 C 255.332 265.828,259.243 266.293,260.586 265.048 C 261.184 264.494,262.871 263.645,264.336 263.160 C 271.769 260.702,270.506 255.727,262.697 256.699 C 255.944 257.539,250.208 255.565,251.004 252.673 C 252.147 248.520,253.226 246.898,255.527 245.870 C 259.777 243.973,259.665 243.953,262.731 247.156 C 265.729 250.288,265.550 250.188,266.976 249.538 C 269.514 248.382,269.501 243.445,266.952 240.415 C 264.915 237.995,255.339 236.715,251.291 238.322 M276.459 239.098 L 274.800 240.676 274.801 245.238 C 274.804 254.073,278.001 255.706,281.394 248.605 C 283.147 244.936,283.734 244.593,288.000 244.746 C 292.440 244.905,292.753 245.201,293.284 249.754 C 293.999 255.893,293.268 256.803,287.625 256.794 C 283.920 256.789,283.707 256.738,280.850 255.181 C 278.023 253.640,277.860 253.600,276.917 254.218 C 273.346 256.557,274.710 262.613,279.126 264.027 C 279.937 264.287,281.140 264.899,281.800 265.387 C 284.251 267.201,284.531 267.254,287.817 266.532 C 290.577 265.926,290.969 265.719,291.799 264.430 C 292.306 263.643,293.702 262.042,294.902 260.871 L 297.084 258.742 299.042 259.641 C 300.119 260.135,301.525 260.902,302.166 261.344 L 303.331 262.148 304.448 260.810 C 305.512 259.536,305.555 259.327,305.344 256.436 C 305.109 253.200,305.010 253.502,308.241 247.547 C 308.893 246.344,311.700 245.004,314.400 244.607 C 317.981 244.080,319.780 248.909,318.957 256.838 C 318.689 259.417,319.741 262.444,321.468 264.061 L 322.471 265.000 323.440 263.800 C 324.816 262.097,325.088 260.632,325.369 253.400 L 325.618 247.000 326.797 245.820 L 327.976 244.640 331.088 245.161 C 336.122 246.005,336.729 247.019,337.095 255.200 C 337.316 260.167,337.892 262.029,339.864 264.156 C 342.896 267.425,345.056 256.269,343.612 244.800 C 342.753 237.979,342.283 237.800,325.200 237.800 C 307.590 237.800,303.216 238.438,300.436 241.414 C 298.077 243.939,295.557 244.143,294.605 241.886 C 294.307 241.179,293.409 239.970,292.609 239.200 L 291.156 237.800 284.637 237.660 L 278.118 237.520 276.459 239.098 M154.154 239.786 C 154.597 240.462,154.802 241.688,154.808 243.686 C 154.815 246.393,155.363 251.382,155.812 252.824 C 156.123 253.824,153.688 254.782,151.741 254.426 C 149.306 253.980,149.056 253.709,149.992 252.520 C 151.692 250.358,152.091 246.692,151.024 243.023 C 150.321 240.605,150.454 239.891,151.723 239.278 C 153.060 238.632,153.452 238.714,154.154 239.786 M179.351 240.494 C 180.328 242.044,178.616 242.737,174.949 242.276 C 170.102 241.667,167.794 242.926,166.387 246.943 C 165.724 248.836,164.946 247.597,164.634 244.151 C 164.215 239.529,164.170 239.555,172.327 239.691 C 178.072 239.786,178.970 239.889,179.351 240.494 M262.845 240.266 C 265.874 240.997,265.942 241.090,266.622 245.419 C 267.169 248.900,265.101 248.538,264.447 245.039 C 263.927 242.257,261.958 241.678,256.600 242.729 C 252.619 243.509,250.800 243.020,250.800 241.168 C 250.800 239.611,257.921 239.078,262.845 240.266 M291.532 240.300 C 292.260 241.716,291.679 242.000,288.051 242.000 C 282.403 242.000,281.012 242.967,279.127 248.200 L 278.263 250.600 277.542 249.000 C 276.562 246.825,276.512 241.382,277.462 240.331 C 278.446 239.244,290.974 239.216,291.532 240.300 M338.023 240.059 C 341.964 240.709,341.796 240.204,341.798 251.437 C 341.800 262.050,341.567 263.278,340.028 260.753 C 339.323 259.597,339.202 258.732,339.193 254.800 C 339.171 243.814,338.242 242.569,329.920 242.367 C 324.449 242.235,323.600 243.664,323.600 253.004 C 323.600 259.202,323.165 262.000,322.200 262.000 C 321.229 262.000,320.800 259.203,320.800 252.879 C 320.800 243.086,320.234 242.425,311.475 241.974 C 304.367 241.608,304.428 240.563,311.600 239.864 C 315.385 239.496,335.511 239.644,338.023 240.059 M206.482 246.332 C 207.019 246.971,207.707 248.103,208.011 248.847 C 208.314 249.591,209.080 250.920,209.712 251.800 L 210.861 253.400 209.565 254.484 C 205.689 257.725,202.401 257.880,200.127 254.928 L 199.148 253.656 199.844 250.128 C 201.037 244.074,203.430 242.706,206.482 246.332 M248.959 245.155 C 249.781 246.063,249.824 246.735,249.244 249.555 C 247.708 257.013,249.357 258.400,259.759 258.400 C 264.760 258.400,266.408 258.527,266.750 258.939 C 268.525 261.078,256.648 262.850,251.400 261.229 C 249.924 260.773,248.319 260.400,247.834 260.400 C 245.667 260.400,245.502 259.865,245.558 253.042 C 245.623 245.055,246.671 242.626,248.959 245.155 M110.533 245.842 C 111.120 246.429,111.600 247.110,111.600 247.355 C 111.601 247.600,111.851 249.113,112.157 250.717 L 112.714 253.635 111.410 255.017 C 108.066 258.563,99.984 256.335,100.585 252.034 C 101.340 246.627,102.009 245.542,104.800 245.200 C 109.017 244.684,109.420 244.729,110.533 245.842 M301.671 246.715 C 302.207 247.258,301.122 253.360,300.333 254.236 C 298.830 255.906,296.880 256.115,296.141 254.686 C 295.404 253.261,295.658 247.494,296.502 246.477 C 296.986 245.894,301.046 246.081,301.671 246.715 M233.310 256.814 C 229.084 257.733,228.744 260.417,232.554 262.772 C 234.700 264.098,237.972 262.934,239.756 260.210 C 240.836 258.563,236.288 256.166,233.310 256.814 M286.733 258.458 C 291.922 258.393,292.636 258.653,291.783 260.298 C 291.059 261.692,285.274 263.034,283.600 262.195 C 283.050 261.919,281.610 261.563,280.400 261.404 C 277.008 260.957,276.193 259.922,277.476 257.687 L 278.152 256.509 280.149 257.513 C 281.962 258.423,282.571 258.510,286.733 258.458 M170.400 258.695 C 171.390 258.877,172.740 258.906,173.400 258.760 C 175.819 258.225,179.610 258.361,179.852 258.992 C 180.611 260.970,173.586 263.771,171.659 262.259 C 171.362 262.025,169.852 261.644,168.304 261.411 C 165.019 260.917,163.964 260.000,164.992 258.533 C 165.489 257.824,165.791 257.752,167.086 258.034 C 167.919 258.216,169.410 258.513,170.400 258.695 M236.357 258.866 C 237.064 259.307,237.044 259.383,235.994 260.266 C 234.616 261.426,234.353 261.427,233.273 260.277 C 231.827 258.739,234.325 257.597,236.357 258.866 " stroke="none" fill="#acacb4" fill-rule="evenodd"></path></g></svg>