<svg xmlns="http://www.w3.org/2000/svg" width="32" height="32" viewBox="0 0 400 400"><g fill-rule="evenodd"><path d="M0 200v200h400V0H0v200M201.2 64.644c.99.135 1.98.385 2.2.555.22.17 1.03.44 1.8.601.77.161 1.58.419 1.8.573.22.154 1.48.621 2.8 1.036 1.32.415 2.571.898 2.78 1.073.209.175.706.318 1.105.318s1.038.158 1.42.352c.382.193 1.685.67 2.895 1.059 1.21.389 2.38.837 2.6.995.22.157.85.381 1.4.496 1.722.361 6.419 2.157 6.9 2.638.253.253.863.46 1.356.46.493 0 .995.16 1.116.355.121.195.896.481 1.724.635.827.155 1.684.408 1.904.563.22.155 1.39.604 2.6.998 1.21.395 2.56.863 3 1.043.44.179 1.43.55 2.2.826 1.85.661 4.033 1.559 4.895 2.014.382.201.984.366 1.339.366s1.212.248 1.906.55c.693.303 2.16.828 3.26 1.167 1.1.339 3.53 1.185 5.4 1.88 1.87.695 3.76 1.355 4.2 1.467.925.235 1.803.567 3.914 1.481.832.36 1.831.655 2.22.655.388 0 .877.15 1.086.334.209.184 2 .844 3.98 1.466 1.98.623 3.955 1.372 4.389 1.666.434.294 1.188.534 1.676.534s.999.18 1.135.4c.136.22.614.4 1.062.4.448 0 1.382.296 2.076.657 2.343 1.22 2.649 1.343 3.357 1.345.388.002 1.221.272 1.851.6.63.329 1.449.598 1.82.598s.845.15 1.054.334c.209.184 1.28.65 2.38 1.037 4.888 1.719 7.658 2.717 8.4 3.027.44.184 1.79.656 3 1.049 1.21.393 2.371.858 2.58 1.034.209.175.772.319 1.251.319.479 0 1.095.27 1.369.6.274.33.725.6 1.002.6.573 0 3.076 2.653 3.835 4.065 1.007 1.871 1.089 4.442.693 21.535l-.404 17.4-1.357 1.3-1.357 1.3h-8.246c-12.478 0-11.713 1.032-11.278-15.2.325-12.172.26-12.695-1.708-13.607a49.338 49.338 0 0 1-1.475-.731c-.492-.254-1.212-.464-1.6-.466-.388-.002-1.605-.446-2.705-.987-1.1-.541-2.332-.99-2.738-.996-.406-.007-1.216-.261-1.8-.564-1.555-.807-3.691-1.624-10.662-4.077-1.1-.388-2.171-.854-2.38-1.038-.209-.184-.779-.334-1.268-.334-.488 0-1.487-.3-2.22-.668-2.424-1.214-2.716-1.332-3.313-1.332-.544 0-2.628-.796-4.314-1.649-.382-.193-1.107-.351-1.611-.351s-1.271-.239-1.705-.53c-.434-.292-1.869-.858-3.189-1.258s-3.12-1.032-4-1.404c-1.486-.629-3.095-1.222-6.6-2.432-.77-.266-1.676-.616-2.013-.779-.337-.162-1.237-.429-2-.593-.763-.164-1.567-.41-1.787-.548-.51-.318-2.55-1.078-5.6-2.085-2.442-.806-12.012-4.387-16-5.988-.44-.176-1.7-.621-2.8-.987-1.1-.367-2.313-.831-2.695-1.031-.382-.201-1.052-.365-1.489-.365-.437 0-1.744-.425-2.905-.944-4.888-2.188-7.783-3.182-8.311-2.856-.212.131-2.143.854-4.292 1.606a602.73 602.73 0 0 0-7.308 2.62c-1.87.688-3.897 1.344-4.505 1.459-.608.114-1.203.366-1.324.561-.12.195-.553.354-.962.354-.409 0-1.254.256-1.877.569-1.688.849-6.27 2.633-6.757 2.632-.234 0-1.199.373-2.145.83-.945.457-2.76 1.163-4.031 1.569-1.272.407-2.647.909-3.056 1.116-.825.418-2.532 1.021-5.543 1.956-2.067.643-5.17 1.795-9.5 3.529-1.375.551-2.779 1.001-3.12 1-.341 0-.791.151-1 .336-.209.186-1.46.65-2.78 1.031-1.32.381-2.76.838-3.2 1.015-2.423.974-4.173 1.623-5.6 2.079-.88.281-1.955.742-2.389 1.025-.434.282-1.154.515-1.6.517-.446.002-1.711.446-2.811.987-1.1.541-2.317.99-2.705.996-.388.007-1.018.183-1.4.392-1.256.684-6.019 2.421-6.64 2.421-.334 0-.71.166-.836.369-.125.203-.808.497-1.518.653-.709.155-1.652.505-2.095.776-.443.272-1.706.72-2.806.997-1.1.276-2.72.827-3.6 1.223-.88.397-2.275.996-3.1 1.331l-1.5.61.002 7.121c.002 6.285.353 19.179.986 36.139.182 4.884.609 8.458 1.257 10.518.569 1.806 1.422 1.863 27.882 1.863 16.729 0 25.359-.141 26.184-.429 1.944-.678 2.089-1.692 2.089-14.607 0-11.897.07-12.45 1.511-11.992.879.279 1.463 1.459 4.07 8.228 1.144 2.97 2.494 6.3 3.002 7.4 1.999 4.337 2.59 5.757 2.853 6.856.151.629.392 1.324.536 1.544.144.22.498 1.12.788 2 .289.88.891 2.41 1.337 3.4.447.99.949 2.16 1.116 2.6.167.44.744 1.79 1.282 3 .537 1.21 1.494 3.55 2.126 5.2.631 1.65 1.56 3.792 2.063 4.76.504.967.916 1.976.916 2.24 0 .264.45 1.327 1 2.362.55 1.034 1 2.22 1 2.636 0 .415.158.853.352.972.194.12.651 1.166 1.015 2.324.365 1.158.815 2.466 1.001 2.906 2.276 5.409 2.359 6.201 2.387 22.674.029 18.041.208 17.226-3.847 17.526-6.489.479-23.744-.159-24.284-.898-.402-.551-.468-4.484-.315-18.626.108-9.86.064-20.379-.096-23.376l-.292-5.449-1.22-.426c-.823-.287-12.108-.43-34.661-.439-38.87-.017-38.119.046-39.88-3.328-.958-1.837-1.334-3.856-1.759-9.458-.209-2.75-.554-5.9-.767-7-.212-1.1-.397-4.071-.41-6.603-.013-2.531-.218-5.231-.456-6-.488-1.577-1.244-56.331-.787-56.997.15-.22.304-.891.341-1.491.078-1.262 1.464-3.073 3.832-5.009.337-.275.944-.5 1.349-.5s.908-.143 1.117-.318c.209-.175 1.46-.659 2.78-1.077 1.32-.417 2.755-.994 3.189-1.282.434-.288 1.111-.523 1.505-.523.693 0 1.094-.152 3.001-1.138.492-.254 1.212-.463 1.6-.464.388-.002 1.17-.246 1.739-.542.569-.297 2.099-.851 3.4-1.231 1.301-.38 2.636-.825 2.966-.988.33-.163 1.723-.643 3.097-1.067 1.373-.423 2.498-.905 2.5-1.07.001-.165.408-.306.903-.313.495-.007 1.249-.277 1.676-.6.428-.323 1.247-.587 1.82-.587.574 0 1.215-.143 1.424-.318.209-.175 1.46-.658 2.78-1.073 1.32-.415 2.58-.879 2.8-1.03.22-.151 1.12-.499 2-.774.88-.275 2.14-.737 2.8-1.027 2.051-.903 11.936-4.255 13.2-4.477.66-.116 1.555-.456 1.989-.756.434-.3 1.111-.545 1.505-.545.394 0 1.029-.154 1.411-.341 1.937-.951 3.67-1.671 5.295-2.199.99-.321 2.25-.763 2.8-.982 4.067-1.619 8.545-3.281 10.4-3.86 1.21-.377 2.56-.829 3-1.004.868-.345 3.912-1.524 5.2-2.014.44-.167 1.52-.582 2.4-.922 5.208-2.012 13.238-4.678 14.089-4.678.281 0 .511-.18.511-.4 0-.22.428-.4.951-.4.523 0 1.175-.27 1.449-.6.274-.33.868-.6 1.321-.6.452 0 1.375-.168 2.051-.372 3.971-1.204 5.483-1.287 10.628-.584m-13.86 75.542c.864.655 3.056 4.893 3.058 5.914.001.385.137.701.302.701.165.001.647.856 1.071 1.9.423 1.045 1.148 2.529 1.609 3.299 3.393 5.662 3.137 5.862-7.893 6.172-18.608.523-23.887.072-23.887-2.039 0-.299-.168-.856-.373-1.238s-1.258-2.585-2.34-4.895a9404.98 9404.98 0 0 0-2.827-6.026c-.961-2.042-1.116-3.804-.36-4.109 1.322-.533 30.908-.233 31.64.321m51.998.327 1.062.912V178.8h37.014c33.399 0 37.11.063 38 .646 1.102.722 1.486 10.769.549 14.354-.231.88-.579 3.4-.774 5.6-.61 6.876-1.12 10.765-1.562 11.93-.235.617-.427 1.91-.427 2.872 0 .963-.18 1.862-.4 1.998-.22.136-.4.834-.4 1.551s-.244 2.191-.542 3.276a95.206 95.206 0 0 0-1.017 4.173c-.6 2.782-1.635 6.39-2.091 7.295-.192.382-.35 1.112-.35 1.623 0 .511-.264 1.278-.587 1.706-.323.427-.593 1.26-.6 1.852-.007.592-.193 1.188-.413 1.324-.22.136-.4.742-.4 1.347s-.264 1.449-.587 1.877c-.323.427-.593 1.145-.6 1.596-.007.451-.163.991-.347 1.2-.184.209-.648 1.28-1.031 2.38-.928 2.662-.974 2.765-4.005 9.067-1.447 3.007-2.63 5.647-2.63 5.867 0 .219-.135.459-.3.533-.263.117-2.247 3.677-3.47 6.23-.237.493-.565.898-.73.9-.165.002-.3.209-.3.46 0 .565-3.194 5.693-3.661 5.876-.186.074-.339.281-.339.46 0 .883-7.844 11.632-12.324 16.89-2.519 2.955-14.96 15.229-17.476 17.24a222.424 222.424 0 0 0-3.2 2.598c-.44.373-1.52 1.203-2.4 1.844-.88.641-1.66 1.316-1.733 1.5-.074.184-.346.335-.604.335-.259 0-.919.408-1.467.907-1.489 1.356-8.949 6.293-9.509 6.293-.268 0-.487.152-.487.337 0 .185-.675.68-1.5 1.1-.825.42-1.59.853-1.7.963-.336.336-1.718 1.145-3.4 1.989-.88.442-2.5 1.337-3.6 1.989-2.402 1.424-6.909 3.622-7.428 3.622-.205 0-.372.18-.372.4 0 .22-.222.4-.494.4s-1.397.436-2.5.969c-4.981 2.406-8.094 3.788-9.108 4.042-.604.152-1.098.391-1.098.532 0 .142-1.09.605-2.422 1.031-1.332.426-2.513.921-2.624 1.1-.111.179-.72.326-1.354.326-.634 0-1.254.163-1.377.363-.46.744-4.008.907-5.841.269-.98-.341-2.187-.623-2.682-.626-.495-.003-.9-.186-.9-.406 0-.22-.288-.4-.64-.4-.351 0-1.296-.288-2.1-.641-.803-.352-1.82-.788-2.26-.968-.44-.179-1.79-.765-3-1.3a148.259 148.259 0 0 0-4.099-1.732c-1.044-.418-1.899-.894-1.9-1.059 0-.165-.244-.3-.541-.3-.298 0-1.387-.45-2.422-1-1.034-.55-2.128-1-2.431-1-.302 0-.788-.229-1.078-.508-.291-.28-1.699-1.091-3.129-1.802-2.966-1.475-5.894-3.108-8.316-4.637-.917-.579-1.774-1.053-1.903-1.053s-.807-.405-1.508-.901c-1.468-1.039-2.406-1.629-4.034-2.536-1.351-.752-8.19-5.661-8.968-6.436-.29-.29-.65-.527-.8-.527-.149-.001-.811-.466-1.471-1.034a69.435 69.435 0 0 0-2.322-1.9c-1.847-1.425-2.726-2.176-6.078-5.189-5.193-4.669-13.889-13.7-16.456-17.09-.91-1.203-1.999-2.547-2.42-2.987-.42-.44-1.109-1.385-1.53-2.1-.422-.715-.892-1.3-1.046-1.3-.241 0-1.22-1.389-3.242-4.6a58.43 58.43 0 0 0-1.405-2.073c-.496-.701-.901-1.393-.901-1.539 0-.145-.405-.83-.9-1.521-.495-.69-1.098-1.618-1.339-2.061a239.15 239.15 0 0 0-2.916-5.206c-.628-1.074-2.472-4.626-3.219-6.2-.157-.33-.571-1.14-.92-1.8-.974-1.841-1.906-4.072-1.906-4.56 0-.242-.18-.44-.4-.44-.22 0-.4-.345-.4-.768 0-.422-.253-1.277-.563-1.9a33.481 33.481 0 0 1-.959-2.132c-.948-2.391-1.744-4.249-2.097-4.895-.21-.382-.381-1.046-.381-1.476 0-.43-.18-.893-.4-1.029-.22-.136-.401-.552-.402-.924-.002-.372-.272-1.192-.6-1.822-.329-.63-.604-1.62-.611-2.2-.007-.58-.277-1.403-.6-1.83-.772-1.021-.741-2.039.103-3.469l.69-1.168 10.207.106 10.207.107.871 1.6c.479.88.885 1.909.903 2.286.029.631.823 2.712 1.681 4.409.193.382.351.952.351 1.267 0 .315.259 1.083.576 1.706.316.622.875 1.852 1.241 2.732.833 2 5.509 11.529 5.791 11.8.115.11.426.65.691 1.2.266.55.94 1.72 1.498 2.6.559.88 1.124 1.915 1.256 2.3.132.385.399.7.594.7.194 0 .353.178.353.395 0 .421 6.801 10.063 7.808 11.07.328.329.794.964 1.034 1.413.583 1.09 3.171 3.893 8.96 9.702 4.67 4.688 6.223 6.116 9.803 9.02.95.77 1.943 1.613 2.206 1.874.705.696 7.727 5.726 7.995 5.726.219 0 .786.43 1.979 1.5.307.275.751.5.986.5.236 0 .429.159.429.353 0 .195.315.459.7.589.701.235 1.258.564 3.493 2.058 1.493.999 1.818 1.179 7.207 3.99 2.42 1.263 4.571 2.456 4.78 2.653.209.196.704.357 1.1.357.396 0 .72.16.72.357 0 .196.45.469 1 .607s1 .428 1 .644c0 .215.35.392.779.392.428 0 1.625.45 2.659 1 1.035.55 2.214 1 2.622 1 .407 0 .74.18.74.4 0 .22.288.4.64.4.576 0 2.585.761 4.16 1.577.729.378 3.992-.625 6.495-1.996.382-.21 1.057-.381 1.5-.381.443 0 .805-.145.805-.323 0-.178.765-.646 1.7-1.04 2.685-1.133 9.951-4.721 11.592-5.724.821-.502 1.766-.913 2.1-.913.334 0 .608-.177.608-.392 0-.216.45-.506 1-.644s1.002-.366 1.005-.507c.002-.142.722-.601 1.6-1.021.877-.421 1.595-.872 1.595-1.003 0-.131.529-.472 1.176-.758 1.345-.595 9.647-6.331 11.374-7.858.633-.559 1.308-1.017 1.5-1.017.193 0 1.047-.675 1.899-1.5a64.07 64.07 0 0 1 3.256-2.9c5.026-4.12 10.426-9.505 13.995-13.957.77-.96 1.677-2.038 2.015-2.394.338-.357 1.139-1.369 1.779-2.249.64-.88 1.264-1.69 1.387-1.8.123-.11 1.022-1.28 1.998-2.6s1.92-2.46 2.097-2.533a.574.574 0 0 0 .324-.49c0-.196 1.141-2.206 2.536-4.466 2.076-3.366 5.73-9.922 7.083-12.711 1.446-2.98 2.381-5.059 2.381-5.295 0-.156.426-1.233.946-2.394a103.375 103.375 0 0 0 1.648-3.911c.386-.99.848-2.16 1.027-2.6.18-.44.536-1.52.793-2.4.256-.88.718-2.11 1.026-2.732.308-.623.56-1.558.56-2.077 0-.519.18-1.055.4-1.191.22-.136.4-.845.4-1.575s.252-1.537.561-1.793c.309-.256.648-1.223.755-2.149.107-.925.493-2.853.859-4.283.366-1.43.834-3.59 1.041-4.8.207-1.21.547-3.1.756-4.2.209-1.1.391-3.207.404-4.682l.024-2.682-1.3-.232c-.715-.128-12.28-.181-25.7-.118l-24.4.114-.103 24.1c-.095 22.167-.157 24.1-.769 24.1-.829 0-2.128-1.14-2.128-1.867 0-.299-.166-.856-.368-1.238-.203-.382-.853-1.955-1.446-3.495-.592-1.54-1.507-3.703-2.032-4.806-.525-1.103-.954-2.23-.954-2.505 0-.275-.171-.812-.381-1.194-.209-.382-.659-1.37-1-2.195-.34-.825-.889-2.112-1.219-2.86-.33-.749-.6-1.649-.6-2 0-.352-.18-.64-.4-.64-.22 0-.4-.333-.4-.74 0-.408-.45-1.587-1-2.622-.55-1.034-1-2.052-1-2.261 0-.21-.45-1.314-1-2.454-.55-1.14-1-2.388-1-2.774 0-.386-.153-.797-.341-.912-.187-.116-.652-1.072-1.033-2.124a57.577 57.577 0 0 0-2.285-5.408c-.187-.382-.347-1.012-.354-1.4-.007-.388-.277-1.054-.6-1.481-.323-.428-.587-1.103-.587-1.5 0-.398-.18-.724-.4-.724-.22 0-.4-.345-.4-.768 0-.422-.253-1.277-.563-1.9a42.671 42.671 0 0 1-1.056-2.332c-.271-.66-.719-1.74-.995-2.4-.276-.66-.682-1.65-.903-2.2-1.068-2.66-1.756-4.262-2.102-4.895-.229-.416-.381-9.836-.381-23.535v-22.842l.9-.751c1.54-1.284 24.124-1.165 25.638.136M198.195 163.9c.217.495.532.9.7.9.168 0 .305.45.305 1s.168 1 .373 1 .486.405.624.9c.139.495.688 1.847 1.22 3.004 2.095 4.548 3.082 6.73 3.394 7.496.179.44.947 2.15 1.707 3.8.761 1.65 1.688 3.72 2.062 4.6.374.88.911 2.14 1.194 2.8a151.7 151.7 0 0 1 1.587 3.8c.129.33.4.87.603 1.2.203.33.637 1.23.964 2a338.257 338.257 0 0 0 3.374 7.6 134.261 134.261 0 0 1 3.059 7.2c.129.33.4.87.603 1.2.203.33.639 1.23.968 2 .329.77 1.17 2.66 1.868 4.2 2.015 4.443 3.573 8.064 4.561 10.6.129.33.394.87.59 1.2.485.817 1.146 2.411 1.451 3.5.138.495.42.9.625.9.205 0 .373.45.373 1s.18 1 .4 1c.22 0 .4.222.4.494s.436 1.397.969 2.5c1.983 4.106 3.031 6.573 3.031 7.132 0 .317.274.803.609 1.081.746.62.437 1.92-.688 2.893-.853.738-29.536 1.108-30.53.394-.731-.525-1.791-2.446-1.791-3.247 0-.429-.135-.84-.3-.914-.483-.214-1.7-2.732-1.7-3.516 0-.396-.27-.943-.6-1.217-.33-.274-.6-.748-.6-1.054 0-.306-.164-.869-.364-1.251-.466-.889-2.143-4.56-5.524-12.095-.543-1.21-1.241-2.678-1.55-3.262-.309-.584-.562-1.349-.562-1.7s-.18-.638-.4-.638c-.22 0-.4-.312-.4-.694 0-.382-.477-1.687-1.059-2.9a251.254 251.254 0 0 1-2.055-4.406c-2.001-4.425-2.292-5.003-2.586-5.133-.165-.074-.3-.431-.3-.795 0-.363-.432-1.563-.96-2.666-1.536-3.209-2.24-4.895-2.24-5.366 0-.242-.18-.44-.4-.44-.22 0-.4-.312-.4-.694 0-.382-.431-1.597-.958-2.7a249.773 249.773 0 0 1-1.95-4.206c-.545-1.21-1.442-3.19-1.993-4.4-1.949-4.28-2.299-5.126-2.299-5.56 0-.242-.18-.44-.4-.44-.22 0-.4-.272-.4-.605 0-.333-.171-.918-.381-1.3-.209-.382-.681-1.415-1.048-2.295-.367-.88-1.099-2.543-1.627-3.696a2196.35 2196.35 0 0 1-2.003-4.4 987.505 987.505 0 0 0-1.435-3.156c-.444-.971-.136-2.261.754-3.15.525-.526 2.64-.593 15.673-.503L197.8 163l.395.9" fill="#241b14"/><path d="m214.089 141.023-.889.622v43.358l1.009 2.799c.554 1.539 1.287 3.428 1.627 4.198.34.77.762 1.76.938 2.2 1.059 2.654 2.388 5.752 2.87 6.695.196.382.356.894.356 1.139 0 .421.194.91 1.753 4.426.356.804.647 1.563.647 1.689 0 .125.46 1.268 1.023 2.539a335.403 335.403 0 0 1 1.446 3.312c.234.55.583 1.313.778 1.695.194.382.353.872.353 1.089 0 .217.426 1.344.946 2.505a109.206 109.206 0 0 1 1.654 3.911c.389.99 1.133 2.75 1.654 3.911.52 1.161.946 2.365.946 2.676 0 .311.16.665.356.786.195.121.47.676.61 1.234.14.558.7 1.988 1.244 3.178.545 1.19.99 2.267.99 2.394 0 .126.343.993.762 1.925.42.933 1.358 3.226 2.085 5.096 1.399 3.598 1.836 4.4 2.399 4.4.192 0 .394-10.87.451-24.3l.103-24.3 25.628-.103 25.627-.103.942 1.003.942 1.002-.712 4.701c-.391 2.585-.873 5.113-1.069 5.619-.197.505-.368 1.405-.381 2-.027 1.278-1.307 6.344-1.702 6.74-.151.151-.275.864-.275 1.584 0 .72-.17 1.415-.377 1.543-.207.128-.498 1.041-.646 2.028-.148.988-.429 1.894-.623 2.015-.195.12-.354.712-.354 1.315s-.157 1.267-.349 1.476c-.191.209-.66 1.46-1.042 2.78-.382 1.32-.926 2.94-1.209 3.6-.284.66-.715 1.695-.958 2.3a193.848 193.848 0 0 1-3.455 8.1 94.574 94.574 0 0 0-1.156 2.6c-.132.33-.585 1.14-1.006 1.8-.422.66-.78 1.515-.796 1.9-.016.385-.197.7-.402.7-.205 0-.5.405-.656.9-.244.778-.899 1.931-3.253 5.723-.265.428-1.03 1.677-1.7 2.777-1.735 2.848-2.106 3.386-3.118 4.514-.495.551-.9 1.177-.9 1.39 0 .212-.456.951-1.013 1.641-.558.69-1.943 2.425-3.079 3.855-1.136 1.43-2.171 2.69-2.301 2.8-.129.11-.648.74-1.153 1.4-2.347 3.067-12.847 13.268-17.118 16.63-5.287 4.162-5.712 4.48-8.691 6.494-1.565 1.058-3.129 2.138-3.477 2.4-.979.738-2.109 1.454-2.768 1.754-.33.15-1.5.842-2.6 1.538-2.65 1.675-5.586 3.281-10.2 5.581-2.09 1.041-4.07 2.054-4.4 2.251-.33.196-.87.465-1.2.597-1.15.461-3.021 1.29-6.129 2.718-1.721.79-3.376 1.437-3.677 1.437-.301 0-.658.18-.794.4-.302.489-3.093.533-3.62.057-.209-.188-1.82-.925-3.58-1.637-3.822-1.545-16.562-7.739-18.74-9.11a85.243 85.243 0 0 0-3.4-2c-2.197-1.215-10.971-6.915-11.26-7.314-.11-.152-.92-.743-1.8-1.313-.88-.571-2.318-1.678-3.196-2.46-.877-.783-1.719-1.423-1.871-1.423-.152 0-.518-.225-.814-.5a635.426 635.426 0 0 0-4.329-3.863c-4.207-3.734-5.518-5.023-9.006-8.858-3.69-4.057-4.712-5.252-5.972-6.979-.641-.88-1.361-1.78-1.6-2-.729-.673-4.612-6.166-4.612-6.524 0-.185-.45-.759-1-1.276s-1-1.268-1-1.67c0-.401-.143-.73-.317-.73-.288 0-2.061-2.838-4.371-7-.747-1.345-3.329-6.533-5.554-11.161-.307-.639-.558-1.472-.558-1.851 0-.38-.27-.914-.6-1.188-.33-.274-.6-.838-.6-1.254 0-.416-.162-1.069-.359-1.451-.197-.382-.669-1.505-1.048-2.495-1.183-3.092-1.459-3.762-2.102-5.107l-.624-1.307-9.619.107-9.618.107-.595 1.061c-.553.986 1.017 7.247 2.793 11.139 1.099 2.407 1.572 3.735 1.572 4.414 0 .432.18.786.4.786.22 0 .4.248.4.55 0 .303.465 1.608 1.034 2.9.569 1.293 1.308 2.98 1.643 3.75.336.77 1.024 2.21 1.531 3.2l3.276 6.4c3.654 7.138 11.794 19.58 15.602 23.848.613.686 1.834 2.158 2.714 3.27 3.885 4.91 17.841 18.079 23.586 22.255.888.646 1.852 1.411 2.143 1.7.29.29.661.527.824.527.163 0 .645.322 1.072.717.967.894 10.611 7.285 12.775 8.466.88.48 2.5 1.395 3.6 2.033 1.1.638 4.07 2.201 6.6 3.472 2.53 1.272 4.66 2.447 4.733 2.612.074.165.457.3.851.3.395 0 .942.27 1.216.6.274.33.748.6 1.054.6.306 0 .869.162 1.251.359 2.591 1.34 5.038 2.441 5.426 2.441.252 0 1.36.429 2.463.953a62.139 62.139 0 0 0 3.606 1.566c.88.337 1.96.753 2.4.924 3.615 1.403 8.252 1.176 12.6-.618 2.677-1.104 3.833-1.584 5.4-2.239.66-.276 1.74-.722 2.4-.99.66-.269 1.47-.649 1.8-.845.33-.196.87-.461 1.2-.59 1.631-.635 2.655-1.087 3.2-1.41.33-.196.87-.462 1.2-.592.715-.281 6.566-3.2 8.863-4.421.891-.474 1.818-1.059 2.059-1.3.241-.241.762-.438 1.158-.438.396 0 .72-.159.72-.353 0-.195.315-.466.7-.603.385-.138 1.6-.787 2.7-1.444 1.1-.657 2.315-1.306 2.7-1.444.385-.137.7-.408.7-.603 0-.194.159-.353.354-.353 1.057 0 17.199-11.641 18.846-13.591.11-.13.74-.645 1.4-1.144 3.903-2.953 10.873-10.077 18.26-18.665 2.869-3.334 8.34-10.809 8.34-11.394 0-.223.139-.406.309-.406.17 0 .648-.63 1.063-1.4.415-.77.885-1.4 1.044-1.4.16 0 .396-.315.526-.7.129-.385.465-1.053.746-1.485 2.206-3.384 6.312-10.695 6.312-11.239 0-.28.135-.569.3-.643.556-.247 5.7-11.185 5.7-12.12 0-.311.16-.665.356-.786.195-.121.474-.691.618-1.267.145-.577.585-1.793.978-2.704 1.072-2.483 1.716-4.329 1.94-5.561.11-.608.359-1.203.554-1.324.195-.12.354-.726.354-1.346 0-.62.27-1.351.6-1.625.33-.274.6-1.095.6-1.825s.18-1.439.4-1.575c.22-.136.4-.788.4-1.45 0-.661.213-1.596.474-2.076.26-.481.62-1.639.8-2.574.572-2.982 1.009-5.051 1.457-6.9.602-2.485 1.124-5.438 1.874-10.6.351-2.42.803-5.3 1.004-6.4.201-1.1.465-3.53.587-5.4.121-1.87.382-4.48.579-5.8.196-1.32.373-4.147.391-6.281l.034-3.881-1.3-.617c-1.137-.54-5.896-.63-37.9-.719L240.2 179l-.104-18.692-.104-18.692-1.176-.608c-1.767-.913-23.42-.901-24.727.015m-46.25 22.779c-1.041.788-.924 2.667.329 5.283l2.025 4.224c.554 1.157 1.007 2.415 1.007 2.797 0 .382.18.694.4.694.22 0 .4.169.4.376s.72 1.928 1.6 3.824c.88 1.896 1.6 3.522 1.6 3.613 0 .155.874 2.137 2.992 6.787.501 1.1 1.186 2.63 1.523 3.4.337.77 1.455 3.29 2.485 5.6a764.79 764.79 0 0 1 2.476 5.6c.332.77 1.014 2.3 1.516 3.4a451.443 451.443 0 0 1 3.29 7.4 349.101 349.101 0 0 0 2.647 6 333.54 333.54 0 0 1 1.597 3.6c.718 1.661 2.266 5.087 4.126 9.129.742 1.611 1.348 3.049 1.348 3.194 0 .146.473 1.258 1.051 2.471 1.418 2.979 2.724 5.855 3.587 7.906l.716 1.7h30.231l.243-.971c.339-1.349.105-2.018-3.302-9.429-.556-1.21-1.193-2.65-1.415-3.2-.222-.55-.564-1.27-.76-1.6a9.922 9.922 0 0 1-.59-1.2 137.11 137.11 0 0 0-3.148-7.4 922.16 922.16 0 0 1-1.995-4.4c-.495-1.1-1.395-3.08-2.001-4.4-.607-1.32-1.285-2.85-1.509-3.4a29.568 29.568 0 0 0-.957-2.062c-.303-.584-.551-1.349-.551-1.7s-.18-.638-.4-.638c-.22 0-.4-.287-.4-.638 0-.351-.249-1.116-.553-1.7-.304-.584-.997-2.052-1.541-3.262a716.02 716.02 0 0 0-2.089-4.6c-.607-1.32-1.285-2.85-1.509-3.4a29.568 29.568 0 0 0-.957-2.062c-.303-.584-.551-1.349-.551-1.7s-.18-.638-.4-.638c-.22 0-.4-.428-.4-.951 0-.523-.27-1.175-.6-1.449-.33-.274-.6-.729-.6-1.012 0-.283-.425-1.386-.944-2.451-1.355-2.78-2.724-5.78-5.263-11.537-.291-.66-.646-1.605-.788-2.1-.142-.495-.427-.9-.632-.9-.205 0-.373-.45-.373-1s-.18-1-.4-1c-.22 0-.4-.326-.4-.724 0-.397-.264-1.072-.587-1.5-.323-.427-.593-1.077-.6-1.445-.007-.368-.567-1.223-1.244-1.9l-1.231-1.231-13.869.013c-11.439.01-14.002.113-14.63.589" fill="#fafaf9"/><path d="M191.8 65.654c-2.39.778-8.128 2.885-10.8 3.965-.44.178-1.79.616-3 .974-1.21.357-2.513.82-2.895 1.028-.382.209-.894.379-1.139.379s-1.012.258-1.706.573c-.693.315-2.07.838-3.06 1.162-.99.324-2.34.812-3 1.083-.66.272-1.74.714-2.4.983-.66.269-2.91 1.073-5 1.788-2.09.714-4.34 1.519-5 1.789-.66.27-1.83.715-2.6.99-.77.274-2.84 1.032-4.6 1.683-1.76.652-5.18 1.874-7.6 2.716-2.42.843-6.47 2.281-9 3.196-2.53.916-5.68 2.024-7 2.465-1.32.44-2.76.959-3.2 1.153-.44.194-2.24.843-4 1.442-1.76.598-4.99 1.783-7.177 2.633-2.188.849-4.267 1.544-4.62 1.544-.354 0-.814.159-1.023.354-.209.195-3.44 1.375-7.18 2.623-3.74 1.248-7.16 2.424-7.6 2.614-.44.19-2.15.819-3.8 1.398-5.317 1.867-7.259 3.174-8.593 5.783-.653 1.276-.687 3.055-.496 25.6.222 26.109.926 41.642 2.294 50.628.201 1.32.443 3.771.538 5.447.218 3.834 1.265 6.322 3.153 7.489l1.398.864h36.03c28.384 0 36.097.106 36.352.5.178.275.414 11.27.524 24.432.193 23.052.228 23.954.971 24.497 1.366.998 24.107.627 24.862-.405.826-1.131.839-32.883.014-34.764a52.83 52.83 0 0 1-1.06-2.66c-.279-.77-.771-2.03-1.094-2.8-.324-.77-.849-2.03-1.168-2.8l-.911-2.2c-.182-.44-.8-1.84-1.373-3.111-.572-1.271-1.041-2.488-1.041-2.705 0-.217-.171-.707-.381-1.089-.209-.382-.674-1.415-1.033-2.295-.359-.88-.818-1.913-1.02-2.295-.201-.382-.366-.952-.366-1.267 0-.315-.254-1.083-.565-1.706-.551-1.103-1.339-2.908-2.153-4.932-.221-.55-.785-1.863-1.252-2.917a76.131 76.131 0 0 1-1.475-3.6c-1.197-3.224-1.868-4.897-2.809-6.994-.52-1.161-.946-2.288-.946-2.505 0-.217-.154-.707-.341-1.089-.361-.735-1.216-2.698-2.045-4.695l-1-2.4c-.276-.66-.681-1.65-.901-2.2-2.685-6.731-2.953-5.953-2.926 8.509.02 10.524-.049 11.844-.644 12.338-.709.589-46.941 1.044-53.241.524-5.456-.45-5.204 1.124-5.541-34.598l-.214-22.628 1.527-.638c1.688-.707 1.446-.617 7.326-2.721 2.31-.827 5.46-1.987 7-2.578 1.54-.591 3.16-1.167 3.6-1.281.44-.113 1.367-.459 2.06-.767.694-.308 1.538-.56 1.877-.56.339 0 .727-.18.863-.4.136-.22.651-.4 1.144-.4.493 0 1.067-.158 1.276-.35.209-.193 2.72-1.168 5.58-2.168 2.86-.999 7.27-2.566 9.8-3.482 2.53-.916 5.677-2.017 6.993-2.446 1.316-.429 2.567-.954 2.78-1.167.213-.213.662-.387.999-.387.643 0 5.735-1.783 6.923-2.425.382-.206.894-.375 1.139-.375s1.012-.254 1.706-.565c1.206-.541 3.312-1.322 7.66-2.841 1.1-.385 2.313-.856 2.695-1.047.736-.368 4.994-1.898 8.78-3.154 1.252-.416 2.602-.922 3-1.126.399-.203 1.895-.771 3.325-1.261 4.4-1.509 6.964-2.419 7.8-2.77 2.538-1.066 3.209-1.236 4.89-1.236 1.806 0 3.468.398 5.91 1.416 3.231 1.346 6.295 2.503 8 3.021.88.267 2.167.728 2.86 1.024.694.297 1.538.539 1.877.539.339 0 .727.18.863.4.136.22.642.406 1.124.413.482.007 1.225.277 1.652.6.428.323 1.105.587 1.506.587s1.041.16 1.423.356c1.411.722 3.539 1.567 5.095 2.024 1.414.414 2.87.944 5.6 2.036.737.295 3.323 1.223 8.4 3.016 1.1.388 2.18.831 2.4.983.22.153.85.374 1.4.491.55.117 1.63.438 2.4.713l2.2.785c.44.157 1.481.58 2.314.941.832.36 1.779.655 2.105.655.326 0 .904.169 1.286.375s2 .836 3.595 1.4l5.8 2.05c1.595.564 3.17 1.165 3.5 1.335.33.171 1.68.638 3 1.038s2.571.879 2.78 1.065c.209.185.659.338 1 .339.341.002 1.136.272 1.766.6.63.329 1.45.598 1.823.598s1.027.264 1.455.587c.427.323 1.093.593 1.481.6.388.007 1.018.182 1.4.388.382.206 2 .836 3.595 1.4 11.09 3.919 9.9 1.8 9.9 17.634 0 7.106.15 13.071.333 13.255.891.898 18.202.378 19.156-.575l.911-.911.111-18.811c.11-18.545.1-18.828-.726-19.988-.961-1.349-3.918-3.488-5.507-3.983-.593-.185-2.068-.725-3.278-1.2s-2.56-.956-3-1.069c-.785-.203-5.626-1.912-7.2-2.542-.44-.177-2.105-.785-3.7-1.353l-5.6-1.995c-1.485-.529-3.6-1.279-4.7-1.666s-2.171-.853-2.38-1.037c-.209-.184-.683-.334-1.054-.334s-1.19-.269-1.82-.598c-.63-.328-1.45-.598-1.822-.6-.372-.001-.788-.182-.924-.402-.136-.22-.548-.4-.915-.4s-1.842-.437-3.277-.97a472.7 472.7 0 0 0-7.408-2.639c-7.082-2.462-10.353-3.695-10.78-4.063-.209-.181-.796-.328-1.305-.328-.509 0-1.238-.164-1.62-.365-.382-.2-1.595-.667-2.695-1.037-1.1-.371-2.567-.926-3.26-1.236-.694-.309-1.461-.562-1.706-.562-.245 0-.757-.169-1.139-.375s-2-.836-3.595-1.4l-5.8-2.05c-1.595-.564-3.213-1.194-3.595-1.4-.382-.206-.894-.375-1.139-.375s-1.012-.262-1.706-.583c-.693-.32-2.88-1.12-4.86-1.778-1.98-.657-5.67-1.938-8.2-2.845-10.95-3.928-11.133-3.975-15.2-3.952-2.09.011-4.34.197-5 .412m-34.51 75.548-.861.803 1.424 3.297a342.088 342.088 0 0 1 2.075 4.898c.358.88.876 1.833 1.151 2.118.275.285.714 1.232.975 2.105.807 2.695-.557 2.51 18.003 2.433 14.754-.061 14.616-.037 13.393-2.392-.507-.977-1.008-2.115-1.611-3.664a9.795 9.795 0 0 0-.592-1.2c-.198-.33-.638-1.23-.979-2-2.729-6.158-2.868-6.391-4.025-6.795-2.484-.866-27.973-.516-28.953.397" fill="#e7690a"/><path d="M193.4 64.457c-.88.219-2.153.566-2.828.771-.676.204-1.599.372-2.051.372-.453 0-1.047.27-1.321.6-.274.33-.926.6-1.449.6s-.951.18-.951.4c0 .22-.23.4-.511.4-.851 0-8.881 2.666-14.089 4.678-.88.34-1.96.755-2.4.922-1.288.49-4.332 1.669-5.2 2.014-.44.175-1.79.627-3 1.004-1.855.579-6.333 2.241-10.4 3.86-.55.219-1.81.661-2.8.982-1.625.528-3.358 1.248-5.295 2.199-.382.187-1.017.341-1.411.341-.394 0-1.071.245-1.505.545-.434.3-1.329.64-1.989.756-1.264.222-11.149 3.574-13.2 4.477-.66.29-1.92.752-2.8 1.027-.88.275-1.78.623-2 .774-.22.151-1.48.615-2.8 1.03-1.32.415-2.571.898-2.78 1.073-.209.175-.85.318-1.424.318-.573 0-1.392.264-1.82.587-.427.323-1.181.593-1.676.6-.495.007-.902.148-.903.313-.002.165-1.127.647-2.5 1.07-1.374.424-2.767.904-3.097 1.067-.33.163-1.665.608-2.966.988-1.301.38-2.831.934-3.4 1.231-.569.296-1.351.54-1.739.542-.388.001-1.108.21-1.6.464-1.907.986-2.308 1.138-3.001 1.138-.394 0-1.071.235-1.505.523-.434.288-1.869.865-3.189 1.282-1.32.418-2.571.902-2.78 1.077-.209.175-.712.318-1.117.318s-1.012.225-1.349.5c-2.368 1.936-3.754 3.747-3.832 5.009-.037.6-.191 1.271-.341 1.491-.457.666.299 55.42.787 56.997.238.769.443 3.469.456 6 .013 2.532.198 5.503.41 6.603.213 1.1.558 4.25.767 7 .425 5.602.801 7.621 1.759 9.458 1.761 3.374 1.01 3.311 39.88 3.328 22.553.009 33.838.152 34.661.439l1.22.426.292 5.449c.16 2.997.204 13.516.096 23.376-.153 14.142-.087 18.075.315 18.626.54.739 17.795 1.377 24.284.898 4.055-.3 3.876.515 3.847-17.526-.028-16.473-.111-17.265-2.387-22.674-.186-.44-.636-1.748-1.001-2.906-.364-1.158-.821-2.204-1.015-2.324-.194-.119-.352-.557-.352-.972 0-.416-.45-1.602-1-2.636-.55-1.035-1-2.098-1-2.362 0-.264-.412-1.273-.916-2.24-.503-.968-1.432-3.11-2.063-4.76-.632-1.65-1.589-3.99-2.126-5.2-.538-1.21-1.115-2.56-1.282-3a64.36 64.36 0 0 0-1.116-2.6 42.006 42.006 0 0 1-1.337-3.4c-.29-.88-.644-1.78-.788-2-.144-.22-.385-.915-.536-1.544-.263-1.099-.854-2.519-2.853-6.856-.508-1.1-1.858-4.43-3.002-7.4-2.607-6.769-3.191-7.949-4.07-8.228-1.441-.458-1.511.095-1.511 11.992 0 12.915-.145 13.929-2.089 14.607-2.037.71-50.763.585-52.485-.134-2.475-1.035-2.514-1.364-3.431-29.037-.215-6.49-.392-15.004-.393-18.92l-.002-7.121 1.5-.61c.825-.335 2.22-.934 3.1-1.331.88-.396 2.5-.947 3.6-1.223 1.1-.277 2.363-.725 2.806-.997.443-.271 1.386-.621 2.095-.776.71-.156 1.393-.45 1.518-.653.126-.203.502-.369.836-.369.621 0 5.384-1.737 6.64-2.421.382-.209 1.012-.385 1.4-.392.388-.006 1.605-.455 2.705-.996 1.1-.541 2.365-.985 2.811-.987.446-.002 1.166-.235 1.6-.517.434-.283 1.509-.744 2.389-1.025 1.427-.456 3.177-1.105 5.6-2.079.44-.177 1.88-.634 3.2-1.015 1.32-.381 2.571-.845 2.78-1.031.209-.185.659-.336 1-.336.341.001 1.745-.449 3.12-1 4.33-1.734 7.433-2.886 9.5-3.529 3.011-.935 4.718-1.538 5.543-1.956.409-.207 1.784-.709 3.056-1.116 1.271-.406 3.086-1.112 4.031-1.569.946-.457 1.911-.83 2.145-.83.487.001 5.069-1.783 6.757-2.632.623-.313 1.468-.569 1.877-.569.409 0 .842-.159.962-.354.121-.195.716-.447 1.324-.561.608-.115 2.635-.771 4.505-1.459a602.73 602.73 0 0 1 7.308-2.62c2.149-.752 4.08-1.475 4.292-1.606.528-.326 3.423.668 8.311 2.856 1.161.519 2.468.944 2.905.944.437 0 1.107.164 1.489.365.382.2 1.595.664 2.695 1.031 1.1.366 2.36.811 2.8.987 3.988 1.601 13.558 5.182 16 5.988 3.05 1.007 5.09 1.767 5.6 2.085.22.138 1.024.384 1.787.548.763.164 1.663.431 2 .593.337.163 1.243.513 2.013.779 3.505 1.21 5.114 1.803 6.6 2.432.88.372 2.68 1.004 4 1.404 1.32.4 2.755.966 3.189 1.258.434.291 1.201.53 1.705.53s1.229.158 1.611.351c1.686.853 3.77 1.649 4.314 1.649.597 0 .889.118 3.313 1.332.733.368 1.732.668 2.22.668.489 0 1.059.15 1.268.334.209.184 1.28.65 2.38 1.038 6.971 2.453 9.107 3.27 10.662 4.077.584.303 1.394.557 1.8.564.406.006 1.638.455 2.738.996 1.1.541 2.317.985 2.705.987.388.002 1.108.212 1.6.466s1.156.583 1.475.731c1.968.912 2.033 1.435 1.708 13.607-.435 16.232-1.2 15.2 11.278 15.2h8.246l1.357-1.3 1.357-1.3.404-17.4c.396-17.093.314-19.664-.693-21.535-.759-1.412-3.262-4.065-3.835-4.065-.277 0-.728-.27-1.002-.6-.274-.33-.89-.6-1.369-.6s-1.042-.144-1.251-.319c-.209-.176-1.37-.641-2.58-1.034s-2.56-.865-3-1.049c-.742-.31-3.512-1.308-8.4-3.027-1.1-.387-2.171-.853-2.38-1.037-.209-.184-.683-.334-1.054-.334s-1.19-.269-1.82-.598c-.63-.328-1.463-.598-1.851-.6-.708-.002-1.014-.125-3.357-1.345-.694-.361-1.628-.657-2.076-.657-.448 0-.926-.18-1.062-.4-.136-.22-.647-.4-1.135-.4s-1.242-.24-1.676-.534c-.434-.294-2.409-1.043-4.389-1.666-1.98-.622-3.771-1.282-3.98-1.466-.209-.184-.698-.334-1.086-.334-.389 0-1.388-.295-2.22-.655-2.111-.914-2.989-1.246-3.914-1.481-.44-.112-2.33-.772-4.2-1.467-1.87-.695-4.3-1.541-5.4-1.88-1.1-.339-2.567-.864-3.26-1.167-.694-.302-1.551-.55-1.906-.55s-.957-.165-1.339-.366c-.862-.455-3.045-1.353-4.895-2.014-.77-.276-1.76-.647-2.2-.826-.44-.18-1.79-.648-3-1.043-1.21-.394-2.38-.843-2.6-.998-.22-.155-1.077-.408-1.904-.563-.828-.154-1.603-.44-1.724-.635s-.623-.355-1.116-.355c-.493 0-1.103-.207-1.356-.46-.481-.481-5.178-2.277-6.9-2.638-.55-.115-1.18-.339-1.4-.496-.22-.158-1.39-.606-2.6-.995-1.21-.389-2.513-.866-2.895-1.059-.382-.194-1.021-.352-1.42-.352s-.896-.143-1.105-.318c-.209-.175-1.46-.658-2.78-1.073-1.32-.415-2.58-.882-2.8-1.036-.22-.154-1.03-.412-1.8-.573-.77-.161-1.58-.431-1.8-.601-.964-.744-7.916-1.26-10-.742m10.6 1.925c1.87.639 5.47 1.904 8 2.812 2.53.907 6.22 2.188 8.2 2.845 1.98.658 4.167 1.458 4.86 1.778.694.321 1.461.583 1.706.583.245 0 .757.169 1.139.375s2 .836 3.595 1.4l5.8 2.05c1.595.564 3.176 1.171 3.513 1.349.337.178 1.19.451 1.896.606.705.155 1.385.448 1.51.651.126.203.758.369 1.405.369s1.176.172 1.176.382c0 .21.632.5 1.404.645.773.145 1.503.423 1.624.618.121.195.713.355 1.316.355.603 0 1.267.147 1.476.328.427.368 3.698 1.601 10.78 4.063a472.7 472.7 0 0 1 7.408 2.639c1.435.533 2.91.97 3.277.97s.779.18.915.4c.136.22.552.401.924.402.372.002 1.192.272 1.822.6.63.329 1.449.598 1.82.598s.845.15 1.054.334c.209.184 1.28.65 2.38 1.037 1.1.387 3.215 1.137 4.7 1.666l5.6 1.995c1.595.568 3.26 1.176 3.7 1.353 1.574.63 6.415 2.339 7.2 2.542.44.113 1.79.594 3 1.069s2.685 1.015 3.278 1.2c1.589.495 4.546 2.634 5.507 3.983.826 1.16.836 1.443.726 19.988l-.111 18.811-.911.911c-.954.953-18.265 1.473-19.156.575-.183-.184-.333-6.149-.333-13.255 0-15.834 1.19-13.715-9.9-17.634-1.595-.564-3.213-1.194-3.595-1.4-.382-.206-1.012-.381-1.4-.388-.388-.007-1.054-.277-1.481-.6-.428-.323-1.082-.587-1.455-.587s-1.193-.269-1.823-.598c-.63-.328-1.45-.598-1.822-.6-.372-.001-.788-.182-.924-.402-.136-.22-.777-.4-1.424-.4-.647 0-1.176-.18-1.176-.4 0-.22-.288-.4-.64-.4-.351 0-1.206-.253-1.9-.561-1.201-.535-3.502-1.382-9.96-3.664-1.595-.564-3.213-1.194-3.595-1.4-.382-.206-.96-.375-1.286-.375-.326 0-1.273-.295-2.105-.655a49.937 49.937 0 0 0-2.314-.941l-2.2-.785c-.77-.275-1.85-.596-2.4-.713-.55-.117-1.18-.338-1.4-.491-.22-.152-1.3-.595-2.4-.983-5.077-1.793-7.663-2.721-8.4-3.016-2.73-1.092-4.186-1.622-5.6-2.036-1.556-.457-3.684-1.302-5.095-2.024-.382-.196-1.022-.356-1.423-.356s-1.078-.264-1.506-.587c-.427-.323-1.17-.593-1.652-.6-.482-.007-.988-.193-1.124-.413-.136-.22-.524-.4-.863-.4-.339 0-1.183-.242-1.877-.539a34.01 34.01 0 0 0-2.86-1.024c-1.705-.518-4.769-1.675-8-3.021-2.442-1.018-4.104-1.416-5.91-1.416-1.681 0-2.352.17-4.89 1.236-.793.333-2.786 1.043-7.8 2.779-1.43.495-3.14 1.125-3.8 1.4-2.327.971-4.125 1.62-8.257 2.981-1.241.408-2.591.913-3 1.121-.408.208-1.643.692-2.743 1.077-4.348 1.519-6.454 2.3-7.66 2.841-.694.311-1.461.565-1.706.565-.245 0-.757.169-1.139.375-1.188.642-6.28 2.425-6.923 2.425-.337 0-.786.174-.999.387-.213.213-1.464.738-2.78 1.167-1.316.429-4.463 1.53-6.993 2.446-2.53.916-6.94 2.483-9.8 3.482-2.86 1-5.371 1.975-5.58 2.168-.209.192-.783.35-1.276.35s-1.008.18-1.144.4c-.136.22-.524.4-.863.4-.339 0-1.183.252-1.877.56-.693.308-1.62.654-2.06.767-.44.114-2.06.69-3.6 1.281s-4.69 1.751-7 2.578c-5.88 2.104-5.638 2.014-7.326 2.721l-1.527.638.214 22.628c.269 28.49.487 32.614 1.783 33.663 1.256 1.016 56.383 1.215 57.22.207.323-.388.454-3.384.436-9.9-.049-17.133-.073-16.502.6-15.943.33.274.6.731.6 1.017 0 .285.253 1.028.563 1.651.31.622.785 1.672 1.056 2.332.271.66.719 1.74.995 2.4l1 2.4c.829 1.997 1.684 3.96 2.045 4.695.187.382.341.872.341 1.089 0 .217.426 1.344.946 2.505.941 2.097 1.612 3.77 2.809 6.994a76.131 76.131 0 0 0 1.475 3.6 121.002 121.002 0 0 1 1.252 2.917c.814 2.024 1.602 3.829 2.153 4.932.311.623.565 1.391.565 1.706 0 .315.165.885.366 1.267.202.382.661 1.415 1.02 2.295.359.88.824 1.913 1.033 2.295.21.382.381.872.381 1.089 0 .217.469 1.434 1.041 2.705a166.628 166.628 0 0 1 1.373 3.111l.911 2.2c.319.77.844 2.03 1.168 2.8.323.77.815 2.03 1.094 2.8.279.77.756 1.967 1.06 2.66.825 1.881.812 33.633-.014 34.764-.755 1.032-23.496 1.403-24.862.405-.743-.543-.778-1.445-.971-24.497-.11-13.162-.346-24.157-.524-24.432-.255-.394-7.968-.5-36.352-.5h-36.03l-1.398-.864c-1.888-1.167-2.935-3.655-3.153-7.489-.095-1.676-.337-4.127-.538-5.447-1.373-9.016-2.073-24.537-2.294-50.842-.195-23.183-.168-24.502.526-25.6 1.7-2.694 3.823-4.014 9.563-5.947 1.1-.37 2.36-.829 2.8-1.019.44-.191 3.86-1.367 7.6-2.615 3.74-1.248 6.971-2.428 7.18-2.623.209-.195.669-.354 1.023-.354.353 0 2.432-.695 4.62-1.544 2.187-.85 5.417-2.035 7.177-2.633 1.76-.599 3.56-1.248 4-1.442.44-.194 1.88-.713 3.2-1.153 1.32-.441 4.47-1.548 7-2.462a710.26 710.26 0 0 1 8.2-2.899c1.98-.681 3.66-1.38 3.733-1.553.074-.173.434-.318.8-.322.367-.004 2.107-.529 3.867-1.166 1.76-.638 3.83-1.384 4.6-1.658.77-.275 1.94-.72 2.6-.99.66-.27 2.91-1.075 5-1.789 2.09-.715 4.34-1.519 5-1.788.66-.269 1.74-.711 2.4-.983.66-.271 2.01-.759 3-1.083.99-.324 2.367-.847 3.06-1.162.694-.315 1.461-.573 1.706-.573.245 0 .757-.17 1.139-.379.382-.208 1.685-.671 2.895-1.028 1.21-.358 2.56-.796 3-.974 2.672-1.08 8.41-3.187 10.8-3.965 2.66-.866 8.567-.513 12.2.728m-48.3 73.483c-.756.305-.601 2.067.36 4.109a9404.98 9404.98 0 0 1 2.827 6.026c1.082 2.31 2.135 4.513 2.34 4.895.205.382.373.939.373 1.238 0 2.111 5.279 2.562 23.887 2.039 11.03-.31 11.286-.51 7.893-6.172-.461-.77-1.186-2.254-1.609-3.299-.424-1.044-.906-1.899-1.071-1.9-.165 0-.301-.316-.302-.701-.002-1.021-2.194-5.259-3.058-5.914-.732-.554-30.318-.854-31.64-.321m30.543.94c1.111.387 2.711 3.047 3.547 5.895.145.495.432.9.637.9.205 0 .373.428.373.951 0 .523.27 1.175.6 1.449.33.274.6.748.6 1.054 0 .561.145.908 1.343 3.208 1.38 2.65 2.105 2.506-13.243 2.628-16.102.127-16.897.072-17.542-1.224-.256-.513-.666-1.134-.912-1.38-.245-.245-.446-.86-.446-1.366 0-.506-.18-.92-.4-.92-.22 0-.4-.192-.4-.426 0-.234-.469-1.449-1.043-2.7a107.621 107.621 0 0 1-1.833-4.273c-.435-1.099-.927-2.179-1.095-2.4-1.411-1.857-1.845-1.801 13.924-1.801 8.917 0 15.186.16 15.89.405" fill="#6d2f0c"/><path d="m213.7 140.384-.9.744v22.842c0 13.699.152 23.119.381 23.535.346.633 1.034 2.235 2.102 4.895.221.55.627 1.54.903 2.2.276.66.724 1.74.995 2.4.271.66.746 1.71 1.056 2.332.31.623.563 1.478.563 1.9 0 .423.18.768.4.768.22 0 .4.326.4.724 0 .397.264 1.072.587 1.5.323.427.593 1.093.6 1.481.007.388.167 1.018.354 1.4.378.769 1.282 2.849 2.04 4.695.271.66.746 1.71 1.056 2.332.31.623.563 1.355.563 1.626 0 .271.45 1.425 1 2.565s1 2.244 1 2.454c0 .209.45 1.227 1 2.261.55 1.035 1 2.214 1 2.622 0 .407.18.74.4.74.22 0 .4.288.4.64 0 .351.27 1.251.6 2 .33.748.879 2.035 1.219 2.86.341.825.791 1.813 1 2.195.21.382.381.919.381 1.194 0 .275.429 1.402.954 2.505.525 1.103 1.44 3.266 2.032 4.806.593 1.54 1.243 3.113 1.446 3.495.202.382.368.939.368 1.238 0 .819 1.486 1.996 2.182 1.729.538-.206.624-3.119.715-24.148L240.6 201l24.4-.114c13.42-.063 24.985-.01 25.7.118l1.3.232-.029 2.682c-.016 1.475-.203 3.672-.416 4.882-.9 5.124-1.144 6.331-1.778 8.8-.367 1.43-.754 3.358-.861 4.283-.107.926-.446 1.893-.755 2.149s-.561 1.063-.561 1.793-.18 1.439-.4 1.575c-.22.136-.4.672-.4 1.191s-.252 1.454-.56 2.077c-.308.622-.77 1.852-1.026 2.732-.257.88-.613 1.96-.793 2.4-.179.44-.641 1.61-1.027 2.6-.386.99-1.127 2.75-1.648 3.911-.52 1.161-.946 2.238-.946 2.394 0 .156-.437 1.186-.97 2.289-2.944 6.088-3.52 7.26-3.839 7.806-.192.33-1.889 3.185-3.77 6.344-1.882 3.16-3.421 5.89-3.421 6.067 0 .177-.146.382-.324.456-.177.073-1.121 1.213-2.097 2.533-.976 1.32-1.882 2.49-2.013 2.6-.131.11-.781.956-1.444 1.88-4.073 5.673-11.443 13.377-17.717 18.52a64.07 64.07 0 0 0-3.256 2.9c-.852.825-1.706 1.5-1.899 1.5-.192 0-.867.458-1.5 1.017-1.727 1.527-10.029 7.263-11.374 7.858-.647.286-1.176.627-1.176.758s-.718.582-1.595 1.003c-.878.42-1.598.879-1.6 1.021-.003.141-.455.369-1.005.507-.55.138-1 .428-1 .644 0 .215-.274.392-.608.392-.334 0-1.279.411-2.1.913-1.277.781-6.865 3.568-11.692 5.831-.77.361-1.46.791-1.533.956-.074.165-.481.3-.906.3-.424 0-1.084.171-1.466.381-2.503 1.371-5.766 2.374-6.495 1.996-1.575-.816-3.584-1.577-4.16-1.577-.352 0-.64-.18-.64-.4 0-.22-.35-.4-.779-.4-.428 0-1.625-.45-2.659-1-1.035-.55-2.199-1-2.588-1-.389 0-.767-.141-.841-.314-.073-.172-1.213-.865-2.533-1.54-2.549-1.303-9.856-5.149-11.206-5.899a36.091 36.091 0 0 1-2.001-1.247c-2.235-1.494-2.792-1.823-3.493-2.058-.385-.13-.7-.394-.7-.589 0-.194-.188-.353-.417-.353-.229 0-.634-.183-.9-.407-.266-.223-2.515-1.837-4.998-3.586-2.483-1.749-4.749-3.411-5.034-3.693-.286-.283-1.296-1.144-2.246-1.914-3.58-2.904-5.133-4.332-9.803-9.02-5.789-5.809-8.377-8.612-8.96-9.702a7.226 7.226 0 0 0-1.034-1.413c-1.007-1.007-7.808-10.649-7.808-11.07 0-.217-.159-.395-.353-.395-.195 0-.462-.315-.594-.7-.132-.385-.697-1.42-1.256-2.3-.558-.88-1.232-2.05-1.498-2.6-.265-.55-.576-1.09-.691-1.2-.282-.271-4.958-9.8-5.791-11.8-.366-.88-.925-2.11-1.241-2.732-.317-.623-.576-1.391-.576-1.706 0-.315-.158-.885-.351-1.267-.938-1.855-1.649-3.799-1.649-4.509 0-.432-.18-.786-.4-.786-.22 0-.4-.32-.4-.711 0-2.41-.358-2.489-11.336-2.489H86.972l-.686 1.162c-.841 1.423-.87 2.442-.099 3.462.323.427.593 1.25.6 1.83.007.58.282 1.57.611 2.2.328.63.598 1.45.6 1.822.001.372.182.788.402.924.22.136.4.599.4 1.029 0 .43.171 1.094.381 1.476.353.646 1.149 2.504 2.097 4.895.218.55.649 1.51.959 2.132.31.623.563 1.478.563 1.9 0 .423.135.769.3.769.165.001.629.856 1.031 1.9.402 1.045 1.018 2.439 1.37 3.099.352.66.768 1.47.925 1.8.747 1.574 2.591 5.126 3.219 6.2a239.15 239.15 0 0 1 2.916 5.206c.241.443.844 1.371 1.339 2.061.495.691.9 1.376.9 1.521 0 .146.405.838.901 1.539a58.43 58.43 0 0 1 1.405 2.073c2.022 3.211 3.001 4.6 3.242 4.6.154 0 .624.585 1.046 1.3.421.715 1.11 1.66 1.53 2.1.421.44 1.51 1.784 2.42 2.987 2.567 3.39 11.263 12.421 16.456 17.09 3.352 3.013 4.231 3.764 6.078 5.189a69.435 69.435 0 0 1 2.322 1.9c.66.568 1.322 1.033 1.471 1.034.15 0 .51.237.8.527.778.775 7.617 5.684 8.968 6.436 1.628.907 2.566 1.497 4.034 2.536.701.496 1.379.901 1.508.901s.986.474 1.903 1.053c2.422 1.529 5.35 3.162 8.316 4.637 1.43.711 2.838 1.522 3.129 1.802.29.279.776.508 1.078.508.303 0 1.397.45 2.431 1 1.035.55 2.124 1 2.422 1 .297 0 .541.135.541.3.001.165.856.641 1.9 1.059 1.045.417 2.889 1.197 4.099 1.732 1.21.535 2.56 1.121 3 1.3.44.18 1.457.616 2.26.968.804.353 1.661.641 1.906.641.245 0 .757.165 1.139.367 2.796 1.476 8.399 1.959 9.124.787.12-.195.737-.354 1.371-.354s1.243-.147 1.354-.326c.111-.179 1.292-.674 2.624-1.1 1.332-.426 2.422-.889 2.422-1.031 0-.141.494-.38 1.098-.532 1.014-.254 4.127-1.636 9.108-4.042 1.103-.533 2.228-.969 2.5-.969.272 0 .494-.18.494-.4 0-.22.167-.4.372-.4.519 0 5.026-2.198 7.428-3.622 1.1-.652 2.72-1.547 3.6-1.989 1.682-.844 3.064-1.653 3.4-1.989.11-.11.875-.543 1.7-.963.825-.42 1.5-.915 1.5-1.1 0-.185.219-.337.487-.337.56 0 8.02-4.937 9.509-6.293.548-.499 1.208-.907 1.467-.907.258 0 .53-.151.604-.335.073-.184.853-.859 1.733-1.5.88-.641 1.96-1.471 2.4-1.844.44-.373 1.88-1.542 3.2-2.598 2.516-2.011 14.957-14.285 17.476-17.24 4.48-5.258 12.324-16.007 12.324-16.89 0-.179.153-.386.339-.46.467-.183 3.661-5.311 3.661-5.876 0-.251.135-.458.3-.46.165-.002.493-.407.73-.9 1.223-2.553 3.207-6.113 3.47-6.23.165-.074.3-.314.3-.533 0-.22 1.183-2.86 2.63-5.867 2.807-5.835 3.015-6.301 3.79-8.467.275-.77.713-1.94.974-2.6 1.013-2.564 1.505-4.043 1.698-5.105.11-.608.359-1.203.554-1.324.195-.12.36-.703.367-1.295.007-.592.277-1.425.6-1.852.323-.428.587-1.195.587-1.706 0-.511.155-1.241.344-1.623.579-1.172 1.656-4.76 1.656-5.52 0-.395.171-1.271.38-1.947.896-2.894 1.62-6.17 1.62-7.331 0-.687.18-1.361.4-1.497.22-.136.4-1.035.4-1.998 0-.962.192-2.255.427-2.872.438-1.154.933-4.91 1.57-11.93.2-2.2.545-4.81.766-5.8.911-4.079.549-13.435-.549-14.154-.89-.583-4.601-.646-38-.646H240.4v-37.422l-.9-.789c-1.361-1.193-24.384-1.377-25.8-.205m-57.816.816c.115.44.286.8.379.8.094 0 .557-.36 1.029-.8l.859-.8h-1.238c-1.041 0-1.205.127-1.029.8m82.932-.192 1.176.608.104 18.692L240.2 179l36.6.102c32.004.089 36.763.179 37.9.719l1.3.617-.034 3.881c-.018 2.134-.195 4.961-.391 6.281-.197 1.32-.458 3.93-.579 5.8-.122 1.87-.386 4.3-.587 5.4-.201 1.1-.653 3.98-1.004 6.4-.75 5.162-1.272 8.115-1.874 10.6-.448 1.849-.885 3.918-1.457 6.9-.18.935-.54 2.093-.8 2.574-.261.48-.474 1.415-.474 2.076 0 .662-.18 1.314-.4 1.45-.22.136-.4.845-.4 1.575s-.27 1.551-.6 1.825c-.33.274-.6 1.005-.6 1.625 0 .62-.159 1.226-.354 1.346-.195.121-.444.716-.554 1.324-.224 1.232-.868 3.078-1.94 5.561-.393.911-.833 2.127-.978 2.704-.144.576-.423 1.146-.618 1.267-.196.121-.356.475-.356.786 0 .935-5.144 11.873-5.7 12.12-.165.074-.3.363-.3.643 0 .544-4.106 7.855-6.312 11.239-.281.432-.617 1.1-.746 1.485-.13.385-.366.7-.526.7-.159 0-.629.63-1.044 1.4-.415.77-.893 1.4-1.063 1.4-.17 0-.309.183-.309.406 0 .585-5.471 8.06-8.34 11.394-7.387 8.588-14.357 15.712-18.26 18.665-.66.499-1.29 1.014-1.4 1.144-1.647 1.95-17.789 13.591-18.846 13.591a.354.354 0 0 0-.354.353c0 .195-.315.466-.7.603-.385.138-1.6.787-2.7 1.444-1.1.657-2.315 1.306-2.7 1.444-.385.137-.7.408-.7.603 0 .194-.324.353-.72.353-.396 0-.917.197-1.158.438-.241.241-1.168.826-2.059 1.3-2.297 1.221-8.148 4.14-8.863 4.421-.33.13-.87.396-1.2.592-.545.323-1.569.775-3.2 1.41-.33.129-.87.394-1.2.59-.33.196-1.14.576-1.8.845-.66.268-1.74.714-2.4.99-1.567.655-2.723 1.135-5.4 2.239-4.348 1.794-8.985 2.021-12.6.618-.44-.171-1.52-.587-2.4-.924a62.139 62.139 0 0 1-3.606-1.566c-1.103-.524-2.211-.953-2.463-.953-.388 0-2.835-1.101-5.426-2.441-.382-.197-.945-.359-1.251-.359-.306 0-.78-.27-1.054-.6-.274-.33-.821-.6-1.216-.6-.394 0-.777-.135-.851-.3-.073-.165-2.203-1.34-4.733-2.612-2.53-1.271-5.5-2.834-6.6-3.472a193.36 193.36 0 0 0-3.6-2.033c-2.164-1.181-11.808-7.572-12.775-8.466-.427-.395-.909-.717-1.072-.717-.163 0-.534-.237-.824-.527-.291-.289-1.255-1.054-2.143-1.7-5.745-4.176-19.701-17.345-23.586-22.255-.88-1.112-2.101-2.584-2.714-3.27-3.808-4.268-11.948-16.71-15.602-23.848l-3.276-6.4a70.506 70.506 0 0 1-1.531-3.2c-.335-.77-1.074-2.457-1.643-3.75-.569-1.292-1.034-2.597-1.034-2.9 0-.302-.18-.55-.4-.55-.22 0-.4-.354-.4-.786 0-.679-.473-2.007-1.572-4.414-1.776-3.892-3.346-10.153-2.793-11.139l.595-1.061 9.618-.107 9.619-.107.624 1.307c.643 1.345.919 2.015 2.102 5.107.379.99.851 2.113 1.048 2.495.197.382.359 1.035.359 1.451 0 .416.27.98.6 1.254.33.274.6.808.6 1.188 0 .379.251 1.212.558 1.851 2.225 4.628 4.807 9.816 5.554 11.161 2.31 4.162 4.083 7 4.371 7 .174 0 .317.329.317.73 0 .402.45 1.153 1 1.67.55.517 1 1.091 1 1.276 0 .358 3.883 5.851 4.612 6.524.239.22.959 1.12 1.6 2 1.26 1.727 2.282 2.922 5.972 6.979 3.488 3.835 4.799 5.124 9.006 8.858a635.426 635.426 0 0 1 4.329 3.863c.296.275.662.5.814.5.152 0 .994.64 1.871 1.423.878.782 2.316 1.889 3.196 2.46.88.57 1.69 1.161 1.8 1.313.289.399 9.063 6.099 11.26 7.314a85.243 85.243 0 0 1 3.4 2c2.178 1.371 14.918 7.565 18.74 9.11 1.76.712 3.371 1.449 3.58 1.637.527.476 3.318.432 3.62-.057.136-.22.493-.4.794-.4.301 0 1.956-.647 3.677-1.437 3.108-1.428 4.979-2.257 6.129-2.718.33-.132.87-.401 1.2-.597.33-.197 2.31-1.21 4.4-2.251 4.614-2.3 7.55-3.906 10.2-5.581 1.1-.696 2.27-1.388 2.6-1.538.659-.3 1.789-1.016 2.768-1.754.348-.262 1.912-1.342 3.477-2.4 2.979-2.014 3.404-2.332 8.691-6.494 4.271-3.362 14.771-13.563 17.118-16.63.505-.66 1.024-1.29 1.153-1.4.13-.11 1.165-1.37 2.301-2.8a780.094 780.094 0 0 1 3.079-3.855c.557-.69 1.013-1.429 1.013-1.641 0-.213.405-.839.9-1.39 1.012-1.128 1.383-1.666 3.118-4.514.67-1.1 1.435-2.349 1.7-2.777 2.354-3.792 3.009-4.945 3.253-5.723.156-.495.451-.9.656-.9.205 0 .386-.315.402-.7.016-.385.374-1.24.796-1.9.421-.66.874-1.47 1.006-1.8.132-.33.652-1.5 1.156-2.6a193.848 193.848 0 0 0 3.455-8.1c.243-.605.674-1.64.958-2.3.283-.66.827-2.28 1.209-3.6.382-1.32.851-2.571 1.042-2.78.192-.209.349-.873.349-1.476s.159-1.195.354-1.315c.194-.121.475-1.027.623-2.015.148-.987.439-1.9.646-2.028.207-.128.377-.823.377-1.543s.124-1.433.275-1.584c.395-.396 1.675-5.462 1.702-6.74.013-.595.184-1.495.381-2 .196-.506.678-3.034 1.069-5.619l.712-4.701-.942-1.002-.942-1.003-25.627.103-25.628.103-.103 24.3c-.057 13.43-.259 24.3-.451 24.3-.563 0-1-.802-2.399-4.4-.727-1.87-1.665-4.163-2.085-5.096-.419-.932-.762-1.799-.762-1.925 0-.127-.445-1.204-.99-2.394-.544-1.19-1.104-2.62-1.244-3.178-.14-.558-.415-1.113-.61-1.234-.196-.121-.356-.475-.356-.786 0-.311-.426-1.515-.946-2.676a109.206 109.206 0 0 1-1.654-3.911c-.389-.99-1.133-2.75-1.654-3.911-.52-1.161-.946-2.288-.946-2.505 0-.217-.159-.707-.353-1.089a33.326 33.326 0 0 1-.778-1.695c-.233-.55-.884-2.04-1.446-3.312-.563-1.271-1.023-2.414-1.023-2.539 0-.126-.291-.885-.647-1.689-1.559-3.516-1.753-4.005-1.753-4.426 0-.245-.16-.757-.356-1.139-.482-.943-1.811-4.041-2.87-6.695-.176-.44-.598-1.43-.938-2.2-.34-.77-1.073-2.659-1.627-4.198l-1.009-2.799v-43.358l.889-.622c1.307-.916 22.96-.928 24.727-.015M155.6 153.449c0 .891.091.973.605.547.46-.382.496-.633.151-1.049-.639-.77-.756-.692-.756.502m11.233 10.4c-.968 1.23-.983 1.346-.377 2.832 1.135 2.783 1.592 3.702 1.955 3.926.214.132.389.529.389.882 0 .881 1.279 3.711 1.677 3.711.178 0 .323.333.323.74 0 .408.45 1.587 1 2.622.55 1.034 1 2.231 1 2.659 0 .429.18.779.4.779.22 0 .4.198.4.44 0 .241.292 1.096.649 1.9a410.525 410.525 0 0 0 3.602 7.866c.522 1.103.949 2.228.949 2.5 0 .272.18.494.4.494.22 0 .4.326.4.724 0 .397.264 1.072.587 1.5.323.427.593 1.181.6 1.676.007.495.179.9.381.9.203 0 .487.54.632 1.2.145.66.429 1.2.632 1.2.202 0 .368.312.368.694 0 .382.431 1.597.958 2.7.94 1.967 2.108 4.521 3.983 8.706a212.073 212.073 0 0 0 2 4.306c.582 1.213 1.059 2.518 1.059 2.9 0 .382.18.694.4.694.22 0 .4.287.4.638 0 .351.253 1.116.562 1.7.309.584 1.007 2.052 1.55 3.262 3.381 7.535 5.058 11.206 5.524 12.095.2.382.364.945.364 1.251 0 .306.27.78.6 1.054.33.274.6.821.6 1.217 0 .784 1.217 3.302 1.7 3.516.165.074.3.485.3.914 0 .801 1.06 2.722 1.791 3.247.994.714 29.677.344 30.53-.394 1.125-.973 1.434-2.273.688-2.893-.335-.278-.609-.764-.609-1.081 0-.559-1.048-3.026-3.031-7.132-.533-1.103-.969-2.228-.969-2.5 0-.272-.18-.494-.4-.494-.22 0-.4-.45-.4-1s-.168-1-.373-1-.487-.405-.625-.9c-.305-1.089-.966-2.683-1.451-3.5a9.922 9.922 0 0 1-.59-1.2c-.988-2.536-2.546-6.157-4.561-10.6-.698-1.54-1.539-3.43-1.868-4.2-.329-.77-.765-1.67-.968-2a9.102 9.102 0 0 1-.603-1.2 134.261 134.261 0 0 0-3.059-7.2 338.257 338.257 0 0 1-3.374-7.6c-.327-.77-.761-1.67-.964-2a9.102 9.102 0 0 1-.603-1.2 151.7 151.7 0 0 0-1.587-3.8c-.283-.66-.82-1.92-1.194-2.8-.374-.88-1.301-2.95-2.062-4.6-.76-1.65-1.528-3.36-1.707-3.8-.312-.766-1.299-2.948-3.394-7.496-.532-1.157-1.081-2.509-1.22-3.004-.138-.495-.419-.9-.624-.9-.205 0-.373-.45-.373-1s-.137-1-.305-1c-.168 0-.483-.405-.7-.9l-.395-.9-15.067-.105-15.067-.105-.833 1.059m30.736.582c.677.677 1.237 1.532 1.244 1.9.007.368.277 1.018.6 1.445.323.428.587 1.103.587 1.5 0 .398.18.724.4.724.22 0 .4.45.4 1s.168 1 .373 1 .49.405.632.9c.142.495.497 1.44.788 2.1 2.539 5.757 3.908 8.757 5.263 11.537.519 1.065.944 2.168.944 2.451 0 .283.27.738.6 1.012.33.274.6.926.6 1.449s.18.951.4.951c.22 0 .4.287.4.638 0 .351.248 1.116.551 1.7.303.584.734 1.512.957 2.062.224.55.902 2.08 1.509 3.4a716.02 716.02 0 0 1 2.089 4.6c.544 1.21 1.237 2.678 1.541 3.262.304.584.553 1.349.553 1.7s.18.638.4.638c.22 0 .4.287.4.638 0 .351.248 1.116.551 1.7.303.584.734 1.512.957 2.062.224.55.902 2.08 1.509 3.4.606 1.32 1.506 3.3 2.001 4.4.494 1.1 1.392 3.08 1.995 4.4a137.11 137.11 0 0 1 3.148 7.4c.129.33.394.87.59 1.2.196.33.538 1.05.76 1.6.222.55.859 1.99 1.415 3.2 3.407 7.411 3.641 8.08 3.302 9.429l-.243.971h-30.231l-.716-1.7c-.863-2.051-2.169-4.927-3.587-7.906-.578-1.213-1.051-2.325-1.051-2.471 0-.145-.606-1.583-1.348-3.194-1.86-4.042-3.408-7.468-4.126-9.129a333.54 333.54 0 0 0-1.597-3.6 349.101 349.101 0 0 1-2.647-6 451.443 451.443 0 0 0-3.29-7.4c-.502-1.1-1.184-2.63-1.516-3.4a764.79 764.79 0 0 0-2.476-5.6c-1.03-2.31-2.148-4.83-2.485-5.6-.337-.77-1.022-2.3-1.523-3.4-2.118-4.65-2.992-6.632-2.992-6.787 0-.091-.72-1.717-1.6-3.613-.88-1.896-1.6-3.617-1.6-3.824 0-.207-.18-.376-.4-.376-.22 0-.4-.312-.4-.694 0-.382-.453-1.64-1.007-2.797l-2.025-4.224c-2.776-5.794-2.623-5.857 14.301-5.872l13.869-.013 1.231 1.231M102.5 179.487a8.899 8.899 0 0 0 2.2 0c.605-.092.11-.167-1.1-.167-1.21 0-1.705.075-1.1.167m15.427.013c4.69.064 12.25.064 16.8-.001 4.55-.064.713-.116-8.527-.116-9.24 0-12.963.053-8.273.117m30.373-.011c.715.089 1.885.089 2.6 0 .715-.088.13-.161-1.3-.161-1.43 0-2.015.073-1.3.161" fill="#6b6566"/></g></svg>