<svg xmlns="http://www.w3.org/2000/svg" width="32" height="32" viewBox="0 0 400 400"><g fill-rule="evenodd"><path d="M238.1 84.665c-.275.111-.5.457-.5.768 0 .312-.18.567-.4.567-.22 0-.4.358-.4.797 0 .438-.36 1.021-.8 1.296-.44.275-.8.726-.8 1.003 0 .277-.191.504-.424.504-.233 0-.327-.156-.209-.347.224-.363-2.533-.853-4.799-.853-.727 0-1.432-.18-1.568-.4-.136-.22-1.461-.4-2.944-.4-1.623 0-2.895-.199-3.196-.5-.346-.346-2.429-.537-6.78-.619-3.454-.066-6.648-.302-7.098-.524-1.587-.785-28.614.315-29.499 1.2-.244.244-1.667.443-3.163.443-1.547 0-2.72.173-2.72.4 0 .22-.99.4-2.2.4-1.282 0-2.2.177-2.2.424 0 .233-.188.307-.418.165-.229-.142-.634-.081-.9.135-.265.217-1.382.497-2.482.624-4.72.544-5.8.755-5.8 1.135 0 .221-.27.299-.6.172-.33-.126-.6-.056-.6.158 0 .213-.799.387-1.776.387s-1.875.16-1.996.355c-.121.195-.851.473-1.624.618-.772.145-1.404.435-1.404.645 0 .21-.192.382-.427.382-.84 0-3.211 2.123-2.997 2.683.12.31.037.449-.185.311-.22-.136-.511.305-.646.979-.135.675-.402 1.227-.595 1.227-.192 0-.332 1.305-.31 2.9.026 1.867.14 2.544.322 1.9.269-.949.295-.957.508-.159.308 1.155-.091 4.959-.521 4.959-.192 0-.325.855-.296 1.9.051 1.856.059 1.867.347.5.2-.951.303-.054.319 2.8.016 2.675-.1 3.91-.319 3.4-.2-.465-.356 6.128-.372 15.724-.015 9.088.108 16.439.274 16.336.53-.327.561 4.246.047 6.84l-.496 2.5H139.6v-4.771c0-3.708-.134-4.906-.6-5.372-.447-.447-.607-1.599-.628-4.528-.018-2.568-.147-3.652-.372-3.129-.244.567-.352.619-.372.18-.015-.341.188-.836.452-1.1.373-.373.373-.48 0-.48-.339 0-.48-1.105-.48-3.771 0-2.819-.152-3.923-.6-4.372-.358-.358-.6-1.336-.6-2.428 0-1.006-.18-1.829-.4-1.829-.22 0-.4-.353-.4-.785 0-.828-3.221-4.415-3.964-4.415-.24 0-.436-.172-.436-.382 0-.21-.632-.5-1.404-.645-.773-.145-1.503-.423-1.624-.618-.121-.195-1.514-.358-3.096-.361-1.842-.004-2.673-.135-2.312-.363.31-.196.85-.267 1.2-.156.554.175.559.145.036-.231-.33-.238-1.264-.435-2.076-.438-.812-.003-1.588-.186-1.724-.406-.305-.493-9.4-.543-9.4-.052 0 .192-.9.468-2 .614-1.1.146-2 .439-2 .652 0 .212-.45.386-1 .386s-1 .16-1 .357c0 .196-.45.469-1 .607s-1 .428-1 .644c0 .215-.45.392-1 .392s-1 .16-1 .355c0 .196-.63.474-1.4.619-.77.144-1.4.434-1.4.644 0 .21-.349.382-.776.382-.427 0-.879.166-1.005.369-.125.203-.766.488-1.424.632-.657.144-1.195.398-1.195.563 0 .166-.436.534-.968.819-.556.298-.878.752-.757 1.068.154.402-.168.549-1.201.549-1.142 0-1.818.381-3.543 1.997-1.172 1.098-2.331 1.998-2.575 2-.244.002-.782.453-1.195 1.003-.413.55-.882 1-1.042 1-.467 0-3.787 3.603-4.378 4.751-.297.577-.63 1.139-.74 1.249-.432.432-1.601 2.893-1.601 3.371 0 .278-.294 1.096-.654 1.816-.785 1.576-.648 25.525.152 26.492.396.478.563 2.674 1.119 14.721.223 4.822.447 6.131.995 5.793.213-.132.388.13.388.583 0 .453-.18.824-.4.824-.22 0-.4.191-.4.424 0 .233.18.312.4.176.22-.136.4-.057.4.176 0 .233-.18.424-.4.424-.521 0-.521 1.878 0 2.2.232.143.4 2.33.4 5.2s.168 5.057.4 5.2c.22.136.4 1.654.4 3.374 0 3.402.333 5.715.782 5.437.157-.097.285.078.285.389s-.15.472-.334.359c-.183-.114-.333.715-.333 1.841 0 1.263.153 1.953.4 1.8.258-.16.4 1.503.4 4.696 0 2.719.173 5.117.384 5.328.212.212.437 2.183.5 4.38.096 3.304.22 3.974.716 3.867.481-.103.501-.027.1.38-.582.593-.68 3.149-.121 3.149.213 0 .462 2.504.567 5.7.26 7.906 1.022 16.825 1.475 17.28.209.209.379 2.673.379 5.476s.154 5.192.342 5.308c.188.116.439 2.124.559 4.463.119 2.338.415 4.449.658 4.692.243.243.441.917.441 1.5 0 1.198 1.004 3.402 2.074 4.552.394.423.821 1.098.948 1.5.128.401.4.729.605.729.205 0 .373.27.373.6 0 .33.27.6.6.6.33 0 .605.225.61.5.006.275.897 1.101 1.981 1.836 1.084.736 2.367 1.681 2.851 2.1.484.42 1.123.764 1.419.764.297 0 .539.18.539.4 0 .22.431.4.957.4.527 0 1.061.27 1.188.6.126.33.585.6 1.019.6.434 0 .9.18 1.036.4.136.22.782.4 1.436.4.688 0 1.286.253 1.419.6.127.33.661.6 1.188.6.526 0 .957.18.957.4 0 .22.611.4 1.357.4.838 0 1.446.23 1.588.6.143.374.753.6 1.619.6.764 0 1.5.18 1.636.4.136.22.789.4 1.452.4.663 0 1.475.27 1.805.6.33.33 1.207.6 1.948.6.741 0 1.459.18 1.595.4.136.22.969.4 1.852.4.893 0 1.871.266 2.205.6.35.35 1.328.6 2.348.6.961 0 1.859.18 1.995.4.136.22 1.182.406 2.324.413 1.187.007 2.408.264 2.852.6.476.36 1.677.587 3.1.587 1.283 0 2.324.179 2.324.4 0 .231 1.256.4 2.967.4 2.018 0 3.02.16 3.133.5.113.339 1.377.544 3.933.636 2.072.074 3.938.299 4.147.5.209.2 2.468.364 5.02.364 3.179 0 4.797.157 5.139.5.349.349 2.545.54 7.28.634 4.334.085 6.781.283 6.781.549 0 .234.295.176.677-.134.46-.373.58-.389.376-.049-.239.397 3.856.5 19.947.5 13.396 0 20.164-.135 20-.4-.154-.25.552-.382 1.876-.353 1.807.041 1.945.093.924.353-.89.226-.419.318 1.82.353 1.661.026 3.191-.118 3.4-.319.209-.201 2.885-.426 5.947-.5 3.999-.096 5.614-.275 5.733-.634.121-.364 1.511-.5 5.11-.5 2.864 0 5.047-.168 5.19-.4.136-.22 1.844-.4 3.795-.4 2.62 0 3.705-.157 4.148-.6.427-.427 1.467-.6 3.605-.6 1.653 0 3.116-.18 3.252-.4.136-.22 1.214-.4 2.395-.4 1.301 0 2.367-.219 2.704-.557.306-.306 1.444-.654 2.529-.773 3.921-.432 6.334-.956 6.485-1.408.085-.255.935-.462 1.897-.462.958 0 1.854-.18 1.99-.4.136-.22.872-.4 1.636-.4.866 0 1.476-.226 1.619-.6.142-.37.75-.6 1.588-.6.746 0 1.357-.18 1.357-.4 0-.22.527-.4 1.171-.4.645 0 1.442-.27 1.772-.6.33-.33 1.142-.6 1.805-.6s1.316-.18 1.452-.4c.136-.22.602-.4 1.036-.4.434 0 .893-.27 1.019-.6.127-.33.601-.6 1.053-.6 1.02 0 3.892-1.238 3.892-1.677 0-.178.315-.336.7-.352.385-.016 1.24-.374 1.9-.796.66-.421 1.47-.891 1.8-1.043.33-.152.966-.694 1.413-1.204.447-.511.997-.928 1.221-.928.688 0 4.966-4.511 4.966-5.235 0-.374.27-.783.6-.91.33-.126.6-.596.6-1.042 0-.447.18-.813.4-.813.22 0 .406-.405.413-.9.007-.495.277-1.249.6-1.676.406-.537.587-1.795.587-4.077 0-1.87.182-3.412.419-3.559.282-.174.25-.469-.1-.9-.389-.481-.394-.566-.019-.341.389.234.5-.804.5-4.69 0-3.637.136-5.035.5-5.156.353-.118.539-1.594.633-5.034.074-2.677.299-4.867.5-4.867.202 0 .346-.765.32-1.7-.045-1.595-.066-1.626-.353-.5-.302 1.185-.306 1.182-.353-.324-.034-1.111.088-1.447.453-1.241.4.226.4.175 0-.256-.275-.297-.474-1.268-.443-2.159l.057-1.62.286 1.6c.221 1.232.3.757.343-2.067.039-2.535.211-3.718.557-3.832.534-.178.948-6.785 1.333-21.288.134-5.056.354-7.681.659-7.87.334-.207.315-.453-.074-.922-.454-.547-.436-.603.125-.387.584.223.657-.22.657-3.968 0-2.381.174-4.326.4-4.466.239-.148.4-2.747.4-6.452 0-4.982.118-6.323.6-6.805.456-.456.6-1.594.6-4.748 0-2.334.175-4.256.4-4.395.234-.145.4-2.456.4-5.578 0-3.951.155-5.627.598-6.476.89-1.708.892-25.799.002-26.689-.33-.33-.6-1.052-.6-1.605 0-.553-.18-1.116-.4-1.252-.22-.136-.4-.692-.4-1.236s-.27-1.093-.6-1.219c-.33-.127-.6-.554-.6-.949 0-.885-6.496-7.55-8.4-8.619-.762-.427-1.627-1.002-1.921-1.277-.295-.275-.793-.5-1.108-.5-.314 0-.573-.135-.576-.3-.002-.165-.722-.644-1.6-1.064-.877-.421-1.595-.916-1.595-1.1 0-.185-.36-.336-.8-.336-.44 0-.8-.145-.8-.323 0-.354-2.788-1.677-3.534-1.677-.256 0-.466-.166-.466-.368 0-.203-.54-.487-1.2-.632-.66-.145-1.2-.429-1.2-.632 0-.202-.518-.368-1.151-.368s-1.375-.27-1.649-.6c-.274-.33-.836-.6-1.249-.6-.413 0-.751-.18-.751-.4 0-.22-.435-.4-.967-.4-.531 0-1.032-.198-1.113-.439-.08-.242-.995-.535-2.033-.652-1.038-.117-1.887-.37-1.887-.561 0-.489-7.897-.439-8.2.052-.136.22-.764.4-1.395.4s-1.418.27-1.748.6c-.33.33-1.142.6-1.805.6s-1.316.18-1.452.4c-.136.22-.867.4-1.624.4-.757 0-1.376.174-1.376.387 0 .214-.27.284-.6.158-.33-.127-.6-.031-.6.212 0 .244-.45.443-1 .443s-1 .177-1 .392c0 .216-.405.496-.9.621-1.602.407-3.101 4.22-3.101 7.887.001 1.776-.168 3.1-.394 3.1-.218 0-.511.72-.651 1.6-.141.88-.458 1.605-.705 1.612-.247.007-.134.196.251.42.416.243.7.886.7 1.588 0 .649.18 1.18.4 1.18a.4.4 0 0 0 .4-.397c0-3.7 2.95-4.571 4.07-1.203 2.375 7.144 4.82 6.093 5.544-2.383.462-5.416.141-4.983 4.605-6.211 3.998-1.1 4.407-.968 3.845 1.243-.217.853-.508 2.991-.647 4.751a137.18 137.18 0 0 1-.623 6c-.205 1.54-.664 6.04-1.022 10-.357 3.96-.812 8.064-1.011 9.12-.198 1.056-.361 2.781-.361 3.833 0 2.39-.006 2.395-2.303 1.961a132.705 132.705 0 0 0-3.697-.637c-2.229-.343-2.347-.938-1.427-7.21.345-2.353.627-5.209.627-6.347 0-1.137.176-2.53.39-3.094.331-.871.279-1.026-.345-1.026-1.189 0-2.743 1.894-3.556 4.332-1.032 3.096-2.183 3.178-3.429.244-1.963-4.619-2.163-4.518-2.899 1.463-.659 5.352-.351 4.954-3.413 4.414-3.432-.604-3.333-.376-3.458-7.972-.06-3.675-.294-7.046-.52-7.492-.259-.513-.326-3.228-.182-7.4.126-3.624.32-11.494.433-17.489.161-8.633.313-10.9.729-10.9.289 0 .84-.347 1.225-.772.67-.741.665-.764-.138-.554-.46.121-.837.378-.837.573 0 .54-1.511.42-1.696-.134-.677-2.031-7.538 3.497-8.807 7.095-.742 2.105-1.414 41.53-.827 48.521.341 4.063-.665 3.634 14.604 6.225 2.791.473 5.206.992 5.367 1.153.161.161.757.295 1.326.297.568.002 2.743.364 4.833.804 13.768 2.899 12.297 4.371 13.996-14.008.194-2.09.529-5.24.745-7 .217-1.76.598-5.27.849-7.8 1.409-14.265 1.292-13.73 2.925-13.386 1.468.309 9.801 4.301 13.085 6.269 8.294 4.97 11.201 7.613 12.89 11.717 1.795 4.362 1.803 4.645.537 18.8-.354 3.96-.815 9.36-1.025 12-.209 2.64-.663 7.95-1.008 11.8-.701 7.807-1.087 12.564-1.846 22.689-.54 7.224-.732 7.776-2.388 6.89-1.363-.73-12.883-4.747-20.56-7.17-4.322-1.364-11.492-3.356-13.049-3.625-1.017-.176-3.087-.671-4.6-1.1-2.899-.822-6.753-1.712-10.751-2.481-1.32-.253-3.03-.623-3.8-.821-.77-.197-3.02-.641-5-.985-1.98-.345-4.59-.799-5.8-1.011-5.944-1.037-19.241-2.543-30.486-3.453l-3.086-.249-2.404-3.042a1386.514 1386.514 0 0 1-5.051-6.442c-4.331-5.561-4.466-5.521-10.763 3.198-.875 1.211-1.979 2.652-2.455 3.202-.475.55-1.29 1.498-1.81 2.107-.932 1.092-1.051 1.115-8.545 1.691-4.18.321-8.32.69-9.2.821-.88.13-3.04.4-4.8.599-1.76.199-5 .643-7.2.985-2.2.343-5.08.789-6.4.992-2.195.338-6.411 1.101-11 1.99-.99.192-3.15.65-4.8 1.018l-4.4.979c-10.391 2.303-31.515 8.711-39.775 12.065-3.612 1.467-3.653 1.419-3.98-4.549-.148-2.694-.44-6.698-.648-8.898-.209-2.2-.657-7.24-.994-11.2-.338-3.96-.71-8.19-.827-9.4-.117-1.21-.383-4.45-.592-7.2-.328-4.325-.919-11.116-1.851-21.279-.731-7.968 1.978-12.581 10.826-18.438 3.722-2.464 6.415-3.922 13.936-7.548.382-.185 1.412-.583 2.289-.885 1.899-.654 1.752-.945 2.399 4.75.249 2.2.623 5.44.83 7.2.516 4.39 1.153 10.741 1.604 16 1.483 17.279 1.227 16.784 7.983 15.46 2.065-.405 9.216-1.858 11-2.235.66-.14 3.63-.701 6.6-1.247l9.318-1.718c5.911-1.093 5.265 2.881 5.386-33.145.057-17.081.185-31.137.284-31.236.099-.099.862-.328 1.696-.509.834-.18 2.686-.586 4.116-.9 4.789-1.055 10.971-2.218 14.2-2.671 1.76-.248 4.072-.619 5.139-.826 3.394-.659 17.459-1.254 23.261-.984 6.356.296 8.287.494 21 2.153 5.466.714 10.8-3.383 10.8-8.296 0-1.125.18-2.046.4-2.046.22 0 .4-.456.4-1.014s.291-1.458.646-2c.355-.542.58-.972.5-.954-.08.017-.371.122-.646.233m4.871.364c.346.345.629 1.065.629 1.6 0 .534.18.971.4.971.22 0 .4.611.4 1.358 0 1.197.118 1.351 1 1.3.922-.054 1.396-.815.7-1.125-.165-.073-.66-.852-1.1-1.73-.914-1.825-1.823-3.003-2.317-3.003-.187 0-.057.283.288.629M200.3 86.276c-.385.1-1.015.1-1.4 0-.385-.101-.07-.183.7-.183s1.085.082.7.183m19.1.924c.144.232-.224.388-.876.372-1.073-.027-.952-.19.552-.744.042-.015.188.152.324.372m26.009 4.371c-.329 1.037 2.344 5.229 3.335 5.229.251 0 .457.135.459.3.004.554 2.45 1.7 3.629 1.7.643 0 1.168.18 1.168.4 0 .574 1.089.494 1.367-.1.186-.4.28-.4.466 0 .249.533 1.769.705 1.764.2-.004-.509-2.407-1.7-3.429-1.7-.533 0-.968-.18-.968-.4 0-.22-.232-.4-.515-.4-.629 0-4.285-3.397-4.285-3.981 0-.23-.18-.419-.4-.419-.22 0-.4-.36-.4-.8 0-.44-.183-.8-.408-.8-.235 0-.301.423-.156 1 .154.616.081 1-.193 1-.243 0-.443-.349-.443-.776 0-1.084-.691-1.399-.991-.453M258 99.786c0 .102.356.376.791.609.645.346.748.311.557-.186-.207-.54-1.348-.898-1.348-.423m1.701 2.742c-.136 1.821-.517 2.551-1.591 3.056-.69.324-.911.593-.583.711.726.262 2.873-2.236 2.873-3.343 0-1.184-.615-1.556-.699-.424M127.2 120.4c0 .22-.259.4-.576.4-.317 0-.688-.18-.824-.4-.136-.22.123-.4.576-.4.453 0 .824.18.824.4m-1.757 10.406c.969.373 1.352 1.818 1.367 5.144.005 1.238.181 2.993.391 3.901.21.909.56 3.339.778 5.4.218 2.062.697 6.269 1.064 9.349.367 3.08.687 6.86.712 8.4l.045 2.8-1.595.13c-.877.071-1.777.278-2 .459-.223.182-1.215.393-2.205.471l-1.8.14-.255-2.8c-.141-1.54-.452-4.6-.693-6.8a2350.327 2350.327 0 0 1-2.067-20c-.215-2.2-.566-4.849-.781-5.886-.658-3.184.346-3.285 7.039-.708M253.889 151.7c-.088.715-.161.13-.161-1.3 0-1.43.073-2.015.161-1.3.089.715.089 1.885 0 2.6m-114.912-1.074c-.181 1.649-.577 1.661-.577.017 0-.82.156-1.394.346-1.276.19.117.295.684.231 1.259m62.663 41.448a510.9 510.9 0 0 0 4.128 5.3c1.743 2.214 3.993 5.085 5 6.379 1.008 1.295 2.102 2.652 2.432 3.017 1.166 1.288 6.4 8.294 6.4 8.567 0 .151-1.053 1.578-2.339 3.169a913.584 913.584 0 0 0-6.263 7.894c-2.158 2.75-4.935 6.26-6.171 7.8-1.236 1.54-2.693 3.474-3.237 4.297-1.35 2.042-1.534 1.967-4.422-1.797-1.393-1.815-3.44-4.4-4.55-5.745a207.847 207.847 0 0 1-4.218-5.335c-2.984-3.921-5.881-7.588-7.057-8.934-.561-.641-.848-1.319-.678-1.6.828-1.363 5.645-7.664 7.135-9.333.22-.246 2.92-3.711 6-7.7 5.943-7.696 6.326-7.989 7.84-5.979m21.16 11.735c3.753.262 16.622 1.992 24 3.226 2.09.35 4.79.784 6 .965 2.376.355 6.486 1.232 10 2.134 1.21.31 3.64.875 5.4 1.255 1.76.379 3.56.826 4 .993.44.166 2.51.717 4.6 1.224 2.09.508 4.88 1.252 6.2 1.655 1.32.403 3.39 1.029 4.6 1.39 1.21.362 3.46 1.063 5 1.558 1.54.495 3.7 1.176 4.8 1.512 2.421.741 9.018 3.144 11.128 4.054 1.351.583 1.502.785 1.3 1.742-.125.596-.5 4.593-.834 8.883-.626 8.058-.812 10.259-2.179 25.8-.445 5.06-.811 9.956-.812 10.88-.004 2.106-.976 2.865-2.203 1.721-2.722-2.539-17.931-8.845-24.6-10.199-.77-.156-2.03-.43-2.8-.608-6.432-1.485-16.819-3.453-20-3.788-1.43-.151-4.13-.519-6-.818-3.493-.559-7.781-.965-21-1.991-15.906-1.233-46.239-1.146-61.2.176-2.42.214-6.83.588-9.8.83-2.97.243-7.11.698-9.2 1.011-2.09.314-5.69.844-8 1.179-2.31.335-5.01.78-6 .989-.99.209-2.88.589-4.2.846-2.44.474-6.148 1.272-9.4 2.022-2.625.606-8.409 2.341-9.8 2.939-.66.284-1.92.737-2.8 1.007-2.469.757-11.183 5.073-12.529 6.206-1.557 1.31-2.471.593-2.471-1.937 0-.923-.365-5.815-.811-10.871A3868.98 3868.98 0 0 1 91.995 246c-.211-2.53-.557-6.49-.768-8.8-.212-2.31-.502-6.18-.645-8.6l-.26-4.4 2.339-.95c2.588-1.05 13.252-4.764 15.139-5.272 2.014-.542 7.809-2.255 11.4-3.371 1.87-.58 4.57-1.3 6-1.599 1.43-.299 3.68-.821 5-1.161 4.343-1.118 12.356-2.978 14.8-3.435 1.32-.247 3.21-.62 4.2-.83.99-.209 2.97-.553 4.4-.763 1.43-.211 3.23-.479 4-.596 10.157-1.543 19.87-2.609 23.863-2.619 2.005-.005 2 .661-.024 3.071-6.647 7.912-6.795 8.435-3.565 12.604 1.059 1.366 2.196 2.879 2.526 3.36.33.482 1.806 2.38 3.28 4.218a826.922 826.922 0 0 1 6.1 7.743c1.882 2.42 3.803 4.845 4.27 5.389.467.545 1.14 1.445 1.496 2 3.51 5.484 5.001 5.297 9.975-1.25a652.787 652.787 0 0 1 10.389-13.272c9.232-11.462 9.517-12.114 6.774-15.53a106.668 106.668 0 0 1-3.267-4.337c-.853-1.21-1.814-2.416-2.135-2.681-.866-.715-.279-1.853.822-1.589.493.118 2.606.333 4.696.479m96.247 35.593c.027 1.209-.108 2.198-.3 2.198-.404 0-.477-3.737-.08-4.133.146-.147.281-.266.3-.265.018.001.054.991.08 2.2M215.2 260c9.376.324 15.967.754 28 1.827 8.867.791 23.383 3.158 31 5.055 1.76.438 3.83.94 4.6 1.115 4.678 1.064 12.92 4.03 16.909 6.083 15.646 8.056 11.06 14.885-15.509 23.094-3.982 1.231-19.146 4.207-26.4 5.182-1.76.236-5.18.694-7.6 1.016-23.79 3.17-72.598 3.111-93.4-.112a293.57 293.57 0 0 0-6.2-.865c-7.115-.911-20.644-3.527-25.8-4.987-.99-.28-2.61-.736-3.6-1.011-14.395-4.011-23.109-10.162-21.42-15.12 1.052-3.086 7.945-7.777 14.22-9.676.99-.3 1.98-.669 2.2-.821.533-.368 8.042-2.531 11.8-3.399 1.65-.381 3.36-.836 3.8-1.01.44-.174 1.34-.401 2-.504.66-.103 3-.496 5.2-.872 2.2-.377 4.9-.839 6-1.026 3.96-.676 11.274-1.647 15-1.992 2.09-.194 6.95-.641 10.8-.993 12.716-1.166 31.876-1.555 48.4-.984m-30.6 2.807c-7.377.267-10.721.552-21.6 1.841-22.145 2.624-36.888 7.463-41.619 13.658-3.948 5.172.832 12.649 9.912 15.505.939.295 2.62.881 3.736 1.302 1.115.421 3.365 1.077 5 1.457 1.634.38 3.331.837 3.771 1.015.44.179 2.06.543 3.6.81s4.06.718 5.6 1.002c7.524 1.387 12.17 1.91 25 2.81 9.613.675 33.052.778 41.541.182 8.514-.598 19.122-1.573 21.659-1.991 6.798-1.121 14.304-2.525 15-2.806.44-.178 2.06-.62 3.6-.981 19.967-4.688 26.233-14.243 14.47-22.067-3.158-2.101-4.046-2.483-10.67-4.596-5.706-1.819-5.793-1.841-11.6-2.941-7.884-1.493-9.28-1.718-14.8-2.378-17.016-2.035-32.191-2.561-52.6-1.822" fill="#121929"/><path d="M190.8 96.823c-13.879.901-33.782 4.695-34.205 6.521-.109.471-.243 14.485-.297 31.142-.09 27.925-.151 30.339-.78 30.968-.661.66-1.569.865-12.918 2.917-2.64.478-5.43 1.036-6.2 1.24-2.275.604-15.857 3.189-16.756 3.189-1.863 0-2.558-3.078-3.611-16-.308-3.772-1.609-15.943-2.566-24l-.499-4.2-1.337.109c-.735.06-1.808.343-2.384.629l-5.822 2.892c-18.058 8.963-20.318 12.92-18.494 32.37.392 4.18.873 9.67 1.068 12.2.196 2.53.644 7.84.997 11.8.657 7.371.983 11.238 1.805 21.4.489 6.043.984 8.8 1.581 8.8.193 0 2.391-.74 4.885-1.644 6.83-2.477 20.121-6.764 22.933-7.396.66-.149 1.38-.41 1.6-.58.22-.17 1.57-.529 3-.797s3.41-.716 4.4-.994c.99-.279 2.61-.699 3.6-.934.99-.235 3.409-.814 5.375-1.286 1.966-.472 4.486-1.012 5.6-1.2 1.114-.187 3.555-.627 5.425-.977 1.87-.351 4.48-.801 5.8-1.002 1.32-.2 4.2-.645 6.4-.988 5.542-.864 9.304-1.301 17.2-1.996 13.051-1.148 11.55-.816 13.269-2.935.834-1.029 1.655-1.931 1.824-2.004.169-.074.307-.32.307-.548 0-.227.495-.995 1.1-1.706.605-.711 2-2.473 3.1-3.916 3.494-4.583 4.021-4.55 8.007.503 1.475 1.87 2.931 3.544 3.237 3.72.306.176.557.536.558.8.001.264.821 1.489 1.822 2.722l1.82 2.243 3.078.249c11.878.961 23.871 2.322 30.478 3.458 7.331 1.261 9.549 1.669 10.8 1.99.77.198 2.48.566 3.8.818 2.822.538 6.645 1.403 10 2.263 1.32.338 3.21.792 4.2 1.009 4.328.949 12.122 3.083 14.2 3.888.44.17 3.77 1.27 7.4 2.443 3.63 1.174 7.86 2.629 9.4 3.235 5.946 2.34 5.449 3.492 6.996-16.238.224-2.86.682-8.26 1.016-12 .335-3.74.779-8.96.987-11.6.208-2.64.668-8.04 1.022-12 1.215-13.576 1.215-13.828-.014-17.289-2.247-6.331-7.253-10.473-20.407-16.886-7.866-3.835-7.476-3.968-8.181 2.775-.242 2.31-.813 7.62-1.268 11.8-.456 4.18-.976 9.22-1.154 11.2-1.547 17.131-1.169 16.433-8.145 15.022a802.114 802.114 0 0 0-6.352-1.261 363.878 363.878 0 0 1-3.8-.746c-2.099-.426-10.204-1.939-16.098-3.004-6.621-1.198-6.078 1.117-5.957-25.416.072-15.869-.026-22.024-.361-22.602-.451-.778-.46-.776-.472.06-.009.608-.327.914-1.108 1.063-1.746.334-2.284-.254-3.47-3.79-2.283-6.806-5.348-9.705-11.847-11.205-4.004-.924-3.222-5.121.954-5.121 1.742 0-.054-.765-3.141-1.337-10.677-1.98-21.797-2.593-33.4-1.84m-7.911 6.925c2.913 1.309 5.891 4.915 8.135 9.852 2.11 4.64 2.11 21.161 0 25.793-.502 1.104-1.052 2.457-1.221 3.007-2.601 8.455-12.705 11.037-17.803 4.549-.77-.98-1.805-2.167-2.3-2.638-.495-.47-.9-1.057-.9-1.305 0-.247-.647-2.419-1.439-4.827-2.863-8.713-1.084-26.018 3.02-29.379.135-.11.828-1.007 1.542-1.993 2.617-3.616 7.002-4.839 10.966-3.059m45.375 21.752c1.474 3.393 2.001 4.227 3.336 5.281.77.607 2.329 1.409 3.465 1.782 2.951.969 3.002 3.437.071 3.437-2.11 0-5.705 3.331-6.5 6.023-1.001 3.39-2.714 3.15-4.052-.567-.88-2.446-2.051-3.517-5.966-5.456-2.572-1.274-2.799-2.2-.749-3.05 2.511-1.042 6.131-3.422 6.131-4.032 0-.312.463-1.546 1.029-2.743 1.27-2.684 2.272-2.893 3.235-.675m-109.291 4.664c-.325 1.296.161 7.364 1.67 20.836 1.924 17.179 1.501 16.019 5.526 15.168 3.998-.844 4.248-1.495 3.071-7.985-.201-1.109-.663-5.339-1.027-9.4-.364-4.061-.826-8.103-1.027-8.983-.202-.88-.371-2.389-.376-3.354-.02-3.525-.726-4.853-3.153-5.926-3.495-1.546-4.368-1.612-4.684-.356m158.989-.378c-3.935 1.448-4.739 2.642-4.777 7.091-.008.948-.248 2.93-.534 4.406l-.519 2.682 1.106.243c2.318.51 2.462 1.936.252 2.509l-1.27.329-.691 4.777c-.379 2.627-.814 6.672-.966 8.987l-.275 4.211 1.098.5c1.533.698 5.639 1.086 5.962.563.439-.71 1.437-6.974 1.447-9.084.005-1.1.192-3.08.415-4.4.223-1.32.579-4.38.793-6.8.213-2.42.56-5.84.771-7.6 1.031-8.611.668-9.696-2.812-8.414m-79.514 62.691c-.669.728-3.204 3.843-5.634 6.923-2.429 3.08-4.924 6.23-5.545 7-3.282 4.074-6.469 8.486-6.469 8.959 0 .525 1.522 2.537 10 13.22 2.31 2.91 5.19 6.577 6.4 8.147 2.774 3.601 2.798 3.597 6.4-.991 1.65-2.101 4.17-5.282 5.6-7.068 6.27-7.831 10-12.867 10-13.501 0-.597-2.254-3.759-5.575-7.819-.564-.69-2.141-2.67-3.506-4.4-10.367-13.15-9.732-12.579-11.671-10.47m5.753 14.536c1.944 2.097 4.072 4.544 4.73 5.439l1.195 1.626-.728 1.261c-.401.694-1.285 1.909-1.964 2.702-.678.792-2.488 2.997-4.02 4.9-2.829 3.513-3.841 4.104-4.597 2.69-.227-.423-.725-1.082-1.108-1.465-2.123-2.123-6.559-7.626-6.745-8.367-.294-1.17.986-3.361 4.329-7.413.279-.338 1.294-1.643 2.256-2.9 2.29-2.994 2.51-2.943 6.652 1.527" fill="#f4af20"/><path d="M239.391 83.906c-.752.54-1.791 2.456-1.791 3.304 0 1.26.674.589.965-.962.261-1.393.963-1.831 2.959-1.843.512-.003.813-.183.676-.405-.286-.463-2.206-.527-2.809-.094M242.4 85.2c0 .22.18.4.4.4.22 0 .4.3.4.667 0 .366.106.56.237.43.333-.334-.214-1.897-.664-1.897-.205 0-.373.18-.373.4m-43.5 1.076c.385.1 1.015.1 1.4 0 .385-.101.07-.183-.7-.183s-1.085.082-.7.183m19.3.924c-.704.302-.665.347.324.372.652.016 1.02-.14.876-.372-.136-.22-.282-.387-.324-.372-.042.016-.436.183-.876.372m25.4.976c0 .317.18.688.4.824.22.136.4-.123.4-.576 0-.453-.18-.824-.4-.824-.22 0-.4.259-.4.576m-6.76 2.324c.031 1.652.108 1.887.36 1.1.464-1.45.464-3.2 0-3.2-.221 0-.382.94-.36 2.1m8.017-.144c-.358.227-.443.657-.251 1.263l.292.919.472-.881c.514-.961 1.03-.755 1.03.41 0 .403.18.733.4.733.591 0 .486-.899-.223-1.911-.683-.975-.911-1.046-1.72-.533m.367 2.677c-.013.239.623 1.139 1.414 2 .943 1.028 1.115 1.138.5.321a39.2 39.2 0 0 1-1.414-2c-.263-.415-.488-.559-.5-.321m-10.649 2.435c-.616.808-.916 1.343-.666 1.188.512-.316 2.244-2.656 1.966-2.656-.099 0-.684.661-1.3 1.468m-2.934 2.366c-.748.531-1.163.966-.922.966.24 0 .941-.444 1.559-.987 1.413-1.244 1.13-1.234-.637.021M252.6 99.2c.136.22.507.4.824.4.317 0 .576-.18.576-.4 0-.22-.371-.4-.824-.4-.453 0-.712.18-.576.4m2.6-.08c0 .436 3.458 2.089 3.752 1.794.375-.374-1.065-1.287-2.052-1.301-.495-.007-.9-.193-.9-.413 0-.22-.18-.4-.4-.4-.22 0-.4.144-.4.32m-109.336 4.858c-.376 1.88-.327 4.422.085 4.422.46 0 .833-3.978.466-4.971-.238-.643-.331-.55-.551.549m112.544.674c-.545.521-1.391.948-1.881.948-1.077 0-2.927.799-2.927 1.264 0 .47 1.504.422 1.667-.052.073-.214.493-.454.933-.534 1.326-.242 2.941-1.148 3.187-1.789.352-.918.11-.877-.979.163M251.2 106.6c-1.306.747-.849.755.854.016.74-.322 1.076-.585.746-.586-.33-.001-1.05.256-1.6.57m-3.798 2.746c-1.998 1.998-3.589 4.693-3.293 5.58.07.21.387-.405.705-1.367.374-1.135 1.387-2.56 2.882-4.055 1.267-1.267 2.202-2.304 2.078-2.304-.124 0-1.192.966-2.372 2.146m-101.552 2.747c-.188 1.481-.189 3.371-.002 4.2l.339 1.507.127-2.1c.07-1.155.071-3.045.002-4.2l-.125-2.1-.341 2.693m97.887 6.507c.002 1.76.072 2.43.156 1.489.085-.94.084-2.38-.002-3.2-.086-.819-.155-.049-.154 1.711m-120.973.631c-.411.26-.265.358.536.363 1.194.007 1.41-.19.564-.514-.295-.113-.79-.045-1.1.151m3.036 1.169c.136.22.507.4.824.4.317 0 .576-.18.576-.4 0-.22-.371-.4-.824-.4-.453 0-.712.18-.576.4m-35 6.8c0 .22.27.4.6.4.33 0 .6-.18.6-.4 0-.22-.27-.4-.6-.4-.33 0-.6.18-.6.4m27.438 1.92c-.111.374-.049 1.31.139 2.08.32 1.312.344 1.329.382.274.023-.62.218-1.457.434-1.86.289-.541.242-.792-.18-.954-.328-.126-.659.071-.775.46m125.51 3.28c0 2.31.066 3.255.147 2.1a36.327 36.327 0 0 0 0-4.2c-.081-1.155-.147-.21-.147 2.1m37.403-1.9c.169 1.68.175 1.686.508.5.351-1.25.197-2.2-.357-2.2-.178 0-.246.765-.151 1.7m-156.367.473c.542.3 1.215 1.149 1.497 1.886l.512 1.341-.234-1.4c-.246-1.47-1.086-2.41-2.135-2.386-.4.009-.27.211.36.559m149.516-.141c-.385.224-.687.804-.672 1.288.025.788.059.802.321.137.16-.409.733-.988 1.271-1.286.569-.315.728-.543.38-.545-.33-.001-.915.182-1.3.406m-12.463 6.919c.13.34-.05 1.193-.4 1.895-.35.702-.637 1.509-.637 1.792 0 .283-.208.643-.462.8-.309.191-.356.1-.141-.276.257-.451.216-.465-.212-.069-.671.623-.276 1.054.685.746 1.733-.556 4.709-4.594 3.946-5.356-.2-.2-1.016 1.68-1.016 2.343 0 .996-.765.213-.875-.895-.069-.698-.35-1.343-.625-1.434-.313-.102-.412.067-.263.454m9.002 5.481c.689.436 1.561.474 1.561.068 0-.165-.478-.328-1.062-.362-.759-.044-.901.04-.499.294m-13.239 4.226c0 .324.154.494.342.378.188-.117.252.26.142.836-.152.793-.073.968.326.722.397-.246.449-.138.21.44-.173.421-.324.991-.334 1.266-.011.275-.169.5-.353.5-.183 0-.333.27-.333.6 0 .33-.137.6-.304.6-.457 0-1.343 1.567-1.555 2.752-.104.576-.357 1.108-.565 1.181-1.662.589.218 1.803 3.483 2.249l2.06.282.224-1.532c.123-.843.331-2.522.461-3.732.333-3.077.614-4.4.935-4.4.152 0 .583.495.958 1.1.375.605.687.889.692.631.02-.85-2.224-2.716-4.325-3.597-1.693-.709-2.064-.759-2.064-.276M243.72 150c0 1.21.075 1.705.167 1.1a8.899 8.899 0 0 0 0-2.2c-.092-.605-.167-.11-.167 1.1m10.008.4c0 1.43.073 2.015.161 1.3.089-.715.089-1.885 0-2.6-.088-.715-.161-.13-.161 1.3m16.096-1.787c-.428.323-.599.587-.38.587.218 0 .567-.163.776-.361.209-.199.74-.448 1.18-.554l.8-.192-.8-.034c-.44-.018-1.149.231-1.576.554m1.652.997c-.146.545-.248 1.53-.227 2.19.031.957.11.836.393-.6.387-1.967.26-3.183-.166-1.59M138.4 150.643c0 1.644.396 1.632.577-.017.064-.575-.041-1.142-.231-1.259-.19-.118-.346.456-.346 1.276m-9.891.957c0 .99.078 1.395.173.9a5.661 5.661 0 0 0 0-1.8c-.095-.495-.173-.09-.173.9m136.454 2.89c.057.28.524.51 1.037.51.513 0 .98-.23 1.037-.51.057-.28.012-.325-.1-.1s-.534.41-.937.41-.825-.185-.937-.41c-.111-.225-.157-.18-.1.1m-135.27 7.91c0 .77.082 1.085.183.7.1-.385.1-1.015 0-1.4-.101-.385-.183-.07-.183.7m114 .4c0 .77.082 1.085.183.7.1-.385.1-1.015 0-1.4-.101-.385-.183-.07-.183.7m26.467.8c.037 2.042.112 2.207 1.04 2.295.987.093.989.089.12-.352-.67-.341-.919-.888-1.04-2.295-.141-1.626-.155-1.584-.12.352m-148.114 1.876c-.025.702.146 1.395.381 1.54.623.385.956-.112.473-.706-.228-.281-.502-.87-.611-1.31-.131-.534-.212-.376-.243.476m6.754-.015c-.959.506-.964.527-.124.533.482.003.995-.186 1.14-.421.405-.655.082-.69-1.016-.112m148.729.039c-.203.718-.565.911-1.792.957l-1.537.057 1.6.26c1.883.307 2.318.056 2.126-1.228l-.142-.946-.255.9M125 166.4l-1.2.305 1.076.048c.592.026 1.188-.133 1.324-.353.136-.22.192-.379.124-.353-.068.026-.664.185-1.324.353m73.984 24.827c-.145.234-.156.534-.024.666s.24.009.24-.273c0-.33.352-.446.988-.324.543.103.893.034.776-.154-.299-.484-1.665-.425-1.98.085m-121.815.473c-.253.828-.223 1.5.066 1.5.201 0 .365-.36.365-.8 0-.643-.299-1.129-.431-.7m139.785 12.077c-.143.371.002.873.328 1.142.321.265 1.282 1.471 2.135 2.681.854 1.21 2.324 3.162 3.267 4.337 2.743 3.416 2.458 4.068-6.774 15.53a652.787 652.787 0 0 0-10.389 13.272c-4.974 6.547-6.465 6.734-9.975 1.25a21.928 21.928 0 0 0-1.496-2c-.467-.544-2.388-2.969-4.27-5.389a826.922 826.922 0 0 0-6.1-7.743c-1.474-1.838-2.95-3.736-3.28-4.218-.33-.481-1.467-1.994-2.526-3.36-3.23-4.169-3.082-4.692 3.565-12.604 2.024-2.41 2.029-3.076.024-3.071-3.993.01-13.706 1.076-23.863 2.619-.77.117-2.57.385-4 .596-1.43.21-3.41.554-4.4.763-.99.21-2.88.583-4.2.83-2.444.457-10.457 2.317-14.8 3.435-1.32.34-3.57.862-5 1.161-1.43.299-4.13 1.019-6 1.599-3.591 1.116-9.386 2.829-11.4 3.371-1.887.508-12.551 4.222-15.139 5.272l-2.339.95.26 4.4c.143 2.42.433 6.29.645 8.6.211 2.31.557 6.27.768 8.8.211 2.53.748 8.737 1.194 13.794.446 5.056.811 9.948.811 10.871 0 2.53.914 3.247 2.471 1.937 1.346-1.133 10.06-5.449 12.529-6.206.88-.27 2.14-.723 2.8-1.007 1.391-.598 7.175-2.333 9.8-2.939 3.252-.75 6.96-1.548 9.4-2.022 1.32-.257 3.21-.637 4.2-.846.99-.209 3.69-.654 6-.989 2.31-.335 5.91-.865 8-1.179 2.09-.313 6.23-.768 9.2-1.011 2.97-.242 7.38-.616 9.8-.83 22.168-1.959 64.436-1.026 82.2 1.815 1.87.299 4.57.667 6 .818 3.181.335 13.568 2.303 20 3.788.77.178 2.03.452 2.8.608 6.669 1.354 21.878 7.66 24.6 10.199 1.227 1.144 2.199.385 2.203-1.721.001-.924.367-5.82.812-10.88 1.367-15.541 1.553-17.742 2.179-25.8.334-4.29.709-8.287.834-8.883.202-.957.051-1.159-1.3-1.742-2.11-.91-8.707-3.313-11.128-4.054a431.77 431.77 0 0 1-4.8-1.512c-1.54-.495-3.79-1.196-5-1.558-1.21-.361-3.28-.987-4.6-1.39-1.32-.403-4.11-1.147-6.2-1.655-2.09-.507-4.16-1.058-4.6-1.224-.44-.167-2.24-.614-4-.993-1.76-.38-4.19-.945-5.4-1.255-3.514-.902-7.624-1.779-10-2.134-1.21-.181-3.91-.615-6-.965-7.378-1.234-20.247-2.964-24-3.226-2.09-.146-4.203-.361-4.696-.479-.606-.145-.979 0-1.15.447M127.28 215.68c-.373.373-.587.373-.96 0s-.267-.48.48-.48.853.107.48.48m-38.044 1.571c-.036 1.05.954 2.292 1.44 1.806.142-.141.052-.257-.198-.257s-.624-.585-.83-1.3c-.351-1.215-.378-1.231-.412-.249m221.218.02c-.029.37-.337.955-.683 1.3-.67.671-.324.841.564.278.302-.192.456-.755.354-1.294-.099-.525-.205-.653-.235-.284m-202.117 3.104c-.085.807.175 1.493.829 2.188.747.796.852 1.134.488 1.572-.345.415-.361 1.78-.063 5.312.221 2.614.602 7.813.847 11.553.245 3.74.613 8.51.817 10.6.205 2.09.471 5.915.592 8.5l.22 4.7h-1.01c-.555 0-1.121.18-1.257.4-.136.22-.524.4-.863.4-.63 0-2.698.826-4.599 1.836-.584.31-1.263.564-1.508.564-.246 0-1.118.419-1.939.932-6.593 4.118-5.898 4.603-6.501-4.532-.226-3.41-.585-6.955-.8-7.877-.214-.923-.389-2.813-.388-4.2.002-1.388-.181-4.323-.406-6.523-.737-7.203-1.596-17.705-1.596-19.506v-1.764l2.3-.749c1.265-.412 2.48-.861 2.7-.999.22-.138 1.48-.573 2.8-.968 1.32-.394 2.571-.874 2.78-1.065.209-.192.848-.349 1.42-.349s1.211-.163 1.42-.361c1.33-1.265 3.861-1.036 3.717.336m191.063.852c1.515.382 3.546 1.115 5.6 2.021.88.388 2.106.828 2.723.978l1.124.272-.183 4.451c-.101 2.448-.484 7.601-.852 11.451-.367 3.85-.815 8.89-.995 11.2-1.6 20.565-1.711 21.301-3.036 20.105-.429-.388-1.591-1.11-2.581-1.606-.99-.495-2.25-1.139-2.8-1.432-2.424-1.288-3.697-1.868-4.132-1.88-1.613-.046-2.163-1.349-1.775-4.205.208-1.53.294-3.55.191-4.488-.103-.939-.052-1.79.112-1.892.165-.101.419-1.854.565-3.893.293-4.101 1.229-13.548 1.833-18.509.214-1.76.498-5.27.631-7.8.296-5.639.322-5.735 1.473-5.366a43.05 43.05 0 0 0 2.102.593m19.267 16.24c-.397.396-.324 4.133.08 4.133.25 0 .468-4.384.22-4.398-.019-.001-.154.118-.3.265m-.984 15.275c-.018 1.838.026 3.278.1 3.2.345-.367.471-3.125.217-4.742-.237-1.513-.288-1.267-.317 1.542M182.6 260.059c-4.84.156-11.95.572-15.8.925-3.85.352-8.71.799-10.8.993-3.726.345-11.04 1.316-15 1.992-1.1.187-3.8.649-6 1.026-2.2.376-4.54.769-5.2.872-.66.103-1.56.33-2 .504-.44.174-2.15.629-3.8 1.01-3.758.868-11.267 3.031-11.8 3.399-.22.152-1.21.521-2.2.821-6.275 1.899-13.168 6.59-14.22 9.676-1.689 4.958 7.025 11.109 21.42 15.12.99.275 2.61.731 3.6 1.011 5.156 1.46 18.685 4.076 25.8 4.987 1.98.254 4.77.643 6.2.865 20.802 3.223 69.61 3.282 93.4.112 2.42-.322 5.84-.78 7.6-1.016 7.254-.975 22.418-3.951 26.4-5.182 26.569-8.209 31.155-15.038 15.509-23.094-3.989-2.053-12.231-5.019-16.909-6.083-.77-.175-2.84-.677-4.6-1.115-7.617-1.897-22.133-4.264-31-5.055-23.335-2.081-37.807-2.503-60.6-1.768m31.6 2.736c14.648.572 24.208 1.637 37.8 4.212 5.807 1.1 5.894 1.122 11.6 2.941 6.624 2.113 7.512 2.495 10.67 4.596 11.763 7.824 5.497 17.379-14.47 22.067-1.54.361-3.16.803-3.6.981-.696.281-8.202 1.685-15 2.806-2.537.418-13.145 1.393-21.659 1.991-8.489.596-31.928.493-41.541-.182-12.83-.9-17.476-1.423-25-2.81a644.67 644.67 0 0 0-5.6-1.002c-1.54-.267-3.16-.631-3.6-.81-.44-.178-2.137-.635-3.771-1.015-1.635-.38-3.885-1.036-5-1.457a85.788 85.788 0 0 0-3.736-1.302c-1.964-.618-6.973-3.647-8.751-5.292-6.591-6.1-1.431-13.63 12.458-18.182 9.172-3.006 18.921-4.764 37.6-6.78 9.225-.996 27.196-1.325 41.6-.762m4.073 53.238c.3.3.97.313 2.18.043l1.747-.39-2.18-.043c-1.564-.031-2.058.079-1.747.39" fill="#435ea2"/><path d="M239.5 85.589c-.385.451-.7 1.257-.7 1.792 0 .534-.18 1.083-.4 1.219-.22.136-.4.678-.4 1.205 0 3.673-4.94 8.971-9.14 9.802-5.883 1.165-7.331 4.393-2.473 5.514 6.499 1.5 9.564 4.399 11.847 11.205 1.181 3.52 1.727 4.123 3.436 3.797.959-.184 1.106-.457 1.52-2.833 1.085-6.234 4.904-10.604 10.21-11.687 4.274-.872 5.798-2.13 4.689-3.872-.331-.522-3.503-1.716-4.58-1.725-3.543-.03-8.332-4.88-9.881-10.006-1.477-4.888-1.53-4.999-2.485-5.116-.567-.069-1.222.212-1.643.705m-64.19 18.351c-1.304.671-2.577 1.748-3.387 2.867-.714.986-1.407 1.883-1.542 1.993-4.104 3.361-5.883 20.666-3.02 29.379.792 2.408 1.439 4.58 1.439 4.827 0 .248.405.835.9 1.305.495.471 1.53 1.658 2.3 2.638 5.098 6.488 15.202 3.906 17.803-4.549.169-.55.719-1.903 1.221-3.007 2.11-4.632 2.11-21.153 0-25.793-4.141-9.109-9.9-12.649-15.714-9.66m49.719 22.235c-.566 1.197-1.029 2.431-1.029 2.743 0 .61-3.62 2.99-6.131 4.032-2.05.85-1.823 1.776.749 3.05 3.915 1.939 5.086 3.01 5.966 5.456 1.338 3.717 3.051 3.957 4.052.567.795-2.692 4.39-6.023 6.5-6.023 2.931 0 2.88-2.468-.071-3.437-1.136-.373-2.695-1.175-3.465-1.782-1.335-1.054-1.862-1.888-3.336-5.281-.963-2.218-1.965-2.009-3.235.675m40.322 10.932c-.965 3.058-2.801 5.693-3.967 5.693-.321 0-.584.18-.584.4 0 .22-.45.4-1 .4-.583 0-1 .23-1 .551 0 .303-.275.779-.61 1.057-.673.559.198 1.992 1.211 1.992 1.871 0 4.235 2.221 5.323 5 .992 2.537 1.571 2.522 2.537-.068 1.008-2.703 2.798-4.411 5.423-5.174 3.063-.89 3.246-2.193.388-2.758-3.076-.607-5.545-3.052-6.107-6.046-.275-1.464-1.277-2.115-1.614-1.047m-67.802 68.379a168.866 168.866 0 0 1-2.256 2.9c-3.343 4.052-4.623 6.243-4.329 7.413.186.741 4.622 6.244 6.745 8.367.383.383.881 1.042 1.108 1.465.756 1.414 1.768.823 4.597-2.69 1.532-1.903 3.342-4.108 4.02-4.9.679-.793 1.563-2.008 1.964-2.702l.728-1.261-1.195-1.626c-2.201-2.993-8.255-9.252-8.948-9.252-.377 0-1.473 1.029-2.434 2.286" fill="#f8f8eb"/><path d="M239.526 84.671c-.37.097-.796.752-.946 1.453-.15.702-.407 1.456-.571 1.676-.164.22-.412 1.3-.551 2.4-.173 1.366-.129 1.81.139 1.4.215-.33.394-1.084.397-1.676.003-.592.186-1.188.406-1.324.22-.136.4-.694.4-1.24 0-1.443 1.321-2.707 2.577-2.466.563.107 1.023.04 1.023-.149 0-.352-1.66-.395-2.874-.074m2.874 1.31c0 .21.157.795.349 1.3.192.506.567 1.639.833 2.519 1.149 3.791 3.103 6.89 4.961 7.869.473.249.015-.454-1.02-1.567-1.947-2.094-3.123-4.326-3.123-5.927 0-.51-.156-1.024-.347-1.143-.192-.118-.464-.938-.605-1.823-.22-1.376-1.048-2.346-1.048-1.228m-6.308 7.848c-.495.754-.82 1.371-.723 1.371.278 0 1.935-2.429 1.77-2.594-.082-.082-.553.468-1.047 1.223m-3.024 3.373c-1.112.906-2.555 1.678-3.4 1.819-2.091.348-2.434.511-1.155.547 1.53.044 3.388-.843 5.287-2.523 2.153-1.904 1.672-1.801-.732.157m18.678 2.2c.63.329 1.44.601 1.8.604 5.897.052 6.3 4.523.487 5.416-1.449.222-1.639.343-1.057.669.482.269 1.026.254 1.686-.047.537-.244 1.374-.444 1.861-.444 1.46 0 3.077-1.812 3.077-3.45 0-.961-.161-1.36-.5-1.239-.275.098-1.168-.157-1.984-.567-.816-.409-2.111-.744-2.876-.744-.766 0-1.504-.18-1.64-.4-.136-.22-.642-.399-1.124-.398-.782.003-.753.067.27.6m-1.946 7.608-1.2 1.006 1.6-.88c2.02-1.111 2.05-1.136 1.367-1.134-.312.001-1.107.455-1.767 1.008m-2.825 2.29-1.175 1.3 1.3-1.175c.715-.646 1.3-1.231 1.3-1.3 0-.309-.33-.037-1.425 1.175m-3.666 8.3c0 .99.078 1.395.173.9a5.661 5.661 0 0 0 0-1.8c-.095-.495-.173-.09-.173.9m21.136 20.662c-.893 2.335-2.376 3.985-3.945 4.392-1.009.261-1.226.946-.3.946.33 0 .6-.16.6-.357 0-.196.405-.461.9-.589 1.035-.268 2.546-2.34 3.312-4.541.383-1.1.726-1.481 1.257-1.396.615.098.636.051.131-.294-.943-.646-1.038-.557-1.955 1.839m4.236 3.521c.396.541.989 1.092 1.318 1.226.33.133.071-.309-.575-.983-1.416-1.479-1.719-1.578-.743-.243m-11.081 4.556c0 .254 1.152 1.006 2.561 1.672 2.74 1.294 3.304 1.918 4.429 4.889.92 2.432 2.714 2.548 2.585.167-.014-.257-.194-.047-.4.466-.536 1.337-1.17.921-2.058-1.351-1.063-2.716-3.449-4.982-5.247-4.982-.224 0-.736-.298-1.139-.662-.438-.397-.731-.477-.731-.199m12.936 1.561c-.414.385-.578.565-.364.4.213-.165.712-.3 1.108-.3.396 0 .72-.18.72-.4 0-.608-.626-.48-1.464.3M126.32 215.68c.373.373.587.373.96 0s.267-.48-.48-.48-.853.107-.48.48m-20.52 3.805c-.44.106-.971.355-1.18.554-.209.198-.848.361-1.42.361s-1.211.157-1.42.349c-.209.191-1.46.671-2.78 1.065-1.32.395-2.58.83-2.8.968-.22.138-1.435.587-2.7.999l-2.3.749v1.764c0 1.801.859 12.303 1.596 19.506.225 2.2.408 5.135.406 6.523-.001 1.387.174 3.277.388 4.2.215.922.574 4.467.8 7.877.603 9.135-.092 8.65 6.501 4.532.821-.513 1.693-.932 1.939-.932.245 0 .924-.254 1.508-.564 1.901-1.01 3.969-1.836 4.599-1.836.339 0 .727-.18.863-.4.136-.22.702-.4 1.257-.4h1.01l-.22-4.7c-.121-2.585-.387-6.41-.592-8.5-.204-2.09-.572-6.86-.817-10.6-.245-3.74-.626-8.939-.847-11.553-.298-3.532-.282-4.897.063-5.312.364-.438.259-.776-.488-1.572-.654-.695-.914-1.381-.829-2.188.129-1.23-.381-1.408-2.537-.89m190.431 1.387c-.09.291-.273 2.598-.406 5.128-.133 2.53-.417 6.04-.631 7.8-.604 4.961-1.54 14.408-1.833 18.509-.146 2.039-.4 3.792-.565 3.893-.164.102-.215.953-.112 1.892.103.938.017 2.958-.191 4.488-.388 2.856.162 4.159 1.775 4.205.435.012 1.708.592 4.132 1.88.55.293 1.81.937 2.8 1.432.99.496 2.152 1.218 2.581 1.606 1.325 1.196 1.436.46 3.036-20.105.18-2.31.628-7.35.995-11.2.368-3.85.751-9.003.852-11.451l.183-4.451-1.124-.272c-.617-.15-1.843-.59-2.723-.978-2.054-.906-4.085-1.639-5.6-2.021a43.05 43.05 0 0 1-2.102-.593c-.603-.193-.957-.114-1.067.238" fill="#4f6fb8"/></g></svg>