<svg xmlns="http://www.w3.org/2000/svg" width="32" height="32" viewBox="0 0 400 400"><g fill-rule="evenodd"><path d="M.012 44.5C.023 85.014.29 96.11.939 83c.206-4.159.499-6.583 1.667-13.8.125-.77.479-2.3.786-3.4.308-1.1.763-2.81 1.011-3.8.661-2.637 1.223-4.445 1.802-5.8.282-.66 1.062-2.55 1.734-4.2 1.664-4.088 2.209-5.193 2.561-5.197.165-.002.3-.277.3-.611 0-.334.45-1.321 1-2.192.55-.871 1-1.69 1-1.819s.45-.824 1-1.545c.55-.722 1-1.424 1-1.562 0-.235 2.363-3.84 2.802-4.274.112-.11.979-1.244 1.929-2.521 2.211-2.972 9.104-9.909 12.485-12.565 2.782-2.185 6.717-4.914 7.086-4.914.123 0 .812-.45 1.534-1 .721-.55 1.416-1 1.545-1s.948-.45 1.819-1 1.843-1 2.159-1c.316 0 .634-.149.708-.332C46.995 10.148 51.29 8 51.801 8c.138 0 1.184-.421 2.325-.936C56.361 6.055 59.131 5.121 62 4.408c.99-.246 2.634-.709 3.654-1.028 1.019-.319 2.266-.58 2.771-.58.505 0 1.471-.173 2.147-.384C72.592 1.785 81.169.79 84.6.789 86.36.788 88.07.613 88.4.4 88.789.148 73.378.01 44.5.006L0 0l.012 44.5M311.8.4c.136.22 1.779.4 3.651.4 4.758 0 13.808 1.258 18.749 2.606 1.1.3 2.81.749 3.8.997 4.543 1.14 15.2 5.373 15.2 6.038 0 .197.253.359.562.359.628 0 5.291 2.552 6.269 3.432.348.312.754.568.903.568 3.054 0 20.881 17.56 23.926 23.567.288.568.923 1.578 1.412 2.244 1.184 1.616 5.337 9.782 6.504 12.789 2.13 5.492 2.174 5.628 3.46 10.8 1.671 6.721 2.534 12.282 2.824 18.2.652 13.292.917 2.424.928-38.1L400 0h-44.224c-29.38 0-44.14.134-43.976.4M139.542 128.366c-16.813 5.437-14.402 29.648 3.024 30.371 17.036.706 22.838-21.125 7.741-29.125-2.665-1.411-8.253-2.058-10.765-1.246m113.258-.082c-13.983 5.141-15.997 23.099-3.248 28.962 1.017.467 2.161 1.008 2.543 1.202 1.082.549 7.105.405 9.105-.217 10.774-3.354 14.351-16.558 6.808-25.128-3.399-3.86-11.142-6.314-15.208-4.819m-140.2 28.067c-18.176 3.254-15.895 30.53 2.558 30.571 10.215.023 18.615-10.419 15.286-19.003-1.292-3.332-1.94-4.638-2.738-5.515-.498-.548-.906-1.126-.906-1.285 0-.461-4.864-3.663-6.365-4.19-1.812-.637-5.846-.934-7.835-.578m57-.09c-2.023.308-4.24 1.125-5.749 2.119-.851.561-1.947 1.274-2.434 1.585-.488.311-1.141.964-1.452 1.452-.311.487-1.019 1.583-1.575 2.434-1.964 3.014-3.006 10.893-1.623 12.276.238.238.433.684.433.99 0 2.263 4.904 7.153 9.329 9.301 2.139 1.039 8.878.715 11.526-.553 5.849-2.802 8.934-7.741 8.905-14.26-.019-4.309-.111-4.687-1.927-7.908-1.321-2.342-6.394-6.497-7.934-6.497-.296 0-.71-.157-.919-.35-.435-.4-5.084-.817-6.58-.589m56.2.013c-.88.099-1.771.347-1.98.553-.209.205-.631.373-.937.373-4.232 0-9.868 8.244-9.837 14.39.064 12.912 13.163 19.8 24.074 12.659 2.429-1.589 5.68-5.687 5.68-7.159 0-.292.202-.732.449-.979.67-.67.65-6.804-.029-8.911-2.409-7.48-9.345-11.83-17.42-10.926m56.4.147c-2.869.588-3.997.894-4.2 1.139-.11.132-1.145.87-2.299 1.64-1.155.77-2.1 1.507-2.1 1.638-.001.131-.456.761-1.012 1.4-10.373 11.919 4.783 30.778 18.83 23.431 15.663-8.193 7.918-32.765-9.219-29.248m-143 28.54c-10.387 3.541-14.28 14.244-8.506 23.386 8.05 12.746 28.106 6.95 28.106-8.122 0-3.283-.977-7.825-1.682-7.825-.175 0-.32-.225-.323-.5-.017-1.672-6.03-6.236-9.272-7.036-2.347-.58-6.478-.532-8.323.097m113-.021c-6.537 1.888-11 8.01-11 15.091 0 3.081.163 3.779 1.627 6.975 4.556 9.947 19.393 11.196 25.995 2.188 4.961-6.77 3.709-17.435-2.514-21.4-5.258-3.35-9.451-4.198-14.108-2.854m-169.496 4.239c-7.47 3.732-9.444 14.386-3.544 19.135 3.883 3.127 11.038 4.29 12.84 2.088.11-.134.832-.628 1.605-1.097 11.416-6.929 1.037-26.09-10.901-20.126m112.641.064c-11.531 5.597-7.111 24.032 5.328 22.224 2.859-.415 4.127-.757 4.127-1.112 0-.195.192-.355.427-.355.787 0 3.152-2.071 4.046-3.543.486-.801 1.002-1.547 1.146-1.657.279-.213.701-1.776 1.052-3.889 1.31-7.894-8.812-15.218-16.126-11.668m112.91.135c-10.181 4.987-8.858 18.228 2.173 21.764 3.313 1.062 6.979.02 10.638-3.022 1.932-1.606 4.125-7.841 3.301-9.382-.202-.377-.367-1.059-.367-1.515 0-5.966-9.707-10.803-15.745-7.845M112.4 216.863c-8.821 2.062-11.353 14.437-4.117 20.117 4.959 3.893 11.041 3.427 15.458-1.183 7.777-8.117-.254-21.526-11.341-18.934m56.317.098c-13.093 3.524-10.262 22.597 3.359 22.633 1.252.003 2.388-.174 2.524-.394.136-.22.617-.4 1.07-.4 1.188 0 4.536-2.588 5.588-4.319.495-.814 1.08-1.604 1.301-1.754 1.054-.718.479-8.439-.769-10.324-3.203-4.836-7.963-6.818-13.073-5.442m56.683-.021c-8.443 2.438-11.543 13.296-5.446 19.072 1.596 1.512 3.591 2.788 4.36 2.788.461 0 .95.18 1.086.4.716 1.159 6.079.266 9.2-1.532 4.164-2.398 7.111-10.917 4.634-13.394-.239-.239-.434-.758-.434-1.154 0-.396-.159-.72-.353-.72-.195 0-.443-.34-.551-.756-.842-3.219-8.133-5.963-12.496-4.704m57.038-.088c-8.871 1.473-12.242 12.986-5.688 19.433 9.138 8.989 23.733-1.61 18.223-13.234-1.742-3.676-7.156-7.202-10.14-6.604-.128.025-1.206.208-2.395.405M56.15 221.013c-5.975 2.62-6.183 10.787-.351 13.786 7.129 3.667 14.107-5.674 8.705-11.653-2.353-2.604-5.467-3.399-8.354-2.133m282.05.05c-5.931 3.117-6.079 10.758-.267 13.792 4.119 2.15 8.915-.222 10.47-5.179 1.698-5.413-5.204-11.241-10.203-8.613M84.6 249.14c-5.781 1.88-6.578 10.349-1.265 13.434 3.289 1.909 6.343 1.569 9.133-1.017 5.74-5.32-.314-14.873-7.868-12.417m112.8-.07c-7.821 2.188-5.576 14.93 2.63 14.93 2.18 0 6.77-3.366 6.77-4.966 0-.323.18-.698.4-.834.22-.136.4-1.036.4-2s-.18-1.864-.4-2c-.22-.136-.408-.552-.418-.924-.072-2.67-5.759-5.22-9.382-4.206m113.147-.017c-2.427.541-5.59 4.99-5.137 7.225.08.397.25 1.373.376 2.169.623 3.912 5.823 6.432 9.768 4.735 8.857-3.811 4.452-16.239-5.007-14.129M0 355.776V400l44.3-.047c24.365-.026 43.76-.185 43.1-.353-.66-.168-2.55-.333-4.2-.366-4.466-.09-14.235-1.612-19.4-3.022-1.32-.361-3.03-.797-3.8-.969-.77-.173-2.57-.801-4-1.397-1.43-.596-3.59-1.463-4.8-1.927-1.21-.464-2.83-1.231-3.6-1.705a33.654 33.654 0 0 0-3-1.591c-11.905-5.438-26.063-19.691-33.403-33.628a781.75 781.75 0 0 0-1.918-3.627c-.226-.423-.706-1.488-1.065-2.368-.359-.88-.824-1.913-1.033-2.295-.21-.382-.381-.973-.381-1.314 0-.34-.261-1.018-.58-1.505-.694-1.061-2.188-6.404-3.434-12.286-.988-4.661-1.972-12.555-1.978-15.876C.803 313.702.62 311.936.4 311.8c-.266-.164-.4 14.596-.4 43.976M399.452 312.5c-.133.495-.247 2.25-.253 3.9-.03 7.263-3.169 22.65-5.948 29.153a132.926 132.926 0 0 0-1.658 4.047c-.29.77-.659 1.58-.821 1.8-.162.22-1.019 1.779-1.904 3.464-8.189 15.585-20.773 27.682-36.868 35.442-6.459 3.114-9.294 4.276-12 4.918-.77.183-2.48.627-3.8.988-5.275 1.44-15.307 2.948-20 3.005-1.76.022-3.56.194-4 .383-.453.195 18.415.356 43.5.372L400 400v-44.2c0-24.31-.069-44.2-.153-44.2-.085 0-.262.405-.395.9" fill="#f7f7f8"/><path d="M101.724.436c-.261.261-3.696.572-8.58.776-4.479.187-10.484.612-13.344.945-2.86.332-6.19.712-7.4.843-2.374.257-7.635 1.506-11.8 2.801-.88.274-2.32.718-3.2.987-.88.269-2.32.816-3.2 1.217-.88.4-2.86 1.288-4.4 1.974-1.54.686-3.07 1.412-3.4 1.613-.33.202-1.68.94-3 1.642C30 20.356 16.162 35.629 9.634 50.5c-.459 1.045-1.17 2.665-1.582 3.6-.843 1.918-1.236 3.059-2.238 6.5-.384 1.32-.86 2.813-1.056 3.319-.197.505-.358 1.372-.358 1.926 0 .554-.197 1.376-.438 1.826-.241.451-.596 2.284-.789 4.074-.193 1.79-.629 5.685-.969 8.655-.339 2.97-.783 8.996-.986 13.392-.229 4.958-.53 8.045-.794 8.133-.569.19-.6 198.024-.032 199.356.216.506.574 4.159.795 8.119.863 15.442 1.973 22.416 5.221 32.8.482 1.54 1.01 2.98 1.173 3.2.164.22.876 1.81 1.584 3.533.707 1.723 1.605 3.703 1.995 4.4.39.697 1.303 2.347 2.029 3.667.726 1.32 1.926 3.234 2.666 4.254.74 1.019 1.345 1.977 1.345 2.128 0 .151.225.526.5.833.275.306.681.788.903 1.071 5.33 6.798 11.453 12.925 15.903 15.914.819.55 1.49 1.135 1.491 1.3.002.165.183.3.402.3.22 0 1.255.606 2.3 1.347a50.754 50.754 0 0 0 3.901 2.456c4.177 2.314 7.851 4.197 8.19 4.197.193 0 1.712.629 3.376 1.397 1.663.768 3.701 1.562 4.529 1.764.828.203 3.215.85 5.305 1.44 3.849 1.085 5.48 1.391 11.6 2.173 7.213.923 10.39 1.211 15.75 1.427 3.052.123 5.876.399 6.274.612 1.042.558 202.966.527 204.009-.031.43-.23 3.253-.504 6.274-.609 3.021-.105 6.933-.361 8.693-.568l7.2-.846c6.529-.766 8.284-1.058 10.6-1.764 1.21-.369 2.83-.822 3.6-1.007 3.856-.924 4.951-1.265 7.085-2.21a215.698 215.698 0 0 1 3.115-1.355c3.806-1.575 10.279-5.07 13.101-7.074 1.045-.742 2.065-1.349 2.267-1.349.201 0 .425-.141.499-.313.073-.173 1.279-1.19 2.681-2.26 4.042-3.089 10.437-9.564 14.051-14.227.767-.99 1.531-1.86 1.698-1.933.167-.074.303-.298.303-.499 0-.202.607-1.222 1.348-2.267 1.917-2.704 4.625-7.694 6.46-11.901.383-.88.992-2.23 1.352-3 .361-.77.992-2.48 1.404-3.8.411-1.32.889-2.76 1.062-3.2.173-.44.407-1.25.52-1.8.639-3.099 1.18-5.044 1.496-5.38.197-.209.358-1.145.358-2.08s.181-2.564.403-3.62c.597-2.849 1.19-9.428 1.562-17.349.182-3.866.534-7.409.783-7.874.611-1.142.651-200.177.04-201.319-.226-.423-.5-3.426-.609-6.673-.109-3.248-.372-7.345-.585-9.105-.212-1.76-.594-5-.848-7.2-1.016-8.813-1.39-10.913-2.35-13.2a11.29 11.29 0 0 1-.533-1.8c-.392-1.987-1.362-5.041-2.226-7-.484-1.1-1.028-2.36-1.207-2.8-.18-.44-.8-1.793-1.378-3.006-.579-1.213-1.052-2.413-1.052-2.666 0-.254-.153-.521-.34-.595-.291-.114-1.062-1.405-3.423-5.733-.241-.44-.545-.89-.677-1-.132-.11-.737-1.01-1.344-2-.606-.99-1.318-1.98-1.582-2.2-.264-.22-1.209-1.39-2.1-2.6-1.836-2.492-7.468-8.298-10.088-10.4-.96-.77-2.487-2.008-3.394-2.751-1.926-1.577-4.969-3.569-8.728-5.711-4.529-2.581-5.221-2.932-8.524-4.328-1.76-.744-3.38-1.468-3.6-1.609-.22-.141-1.21-.49-2.2-.776-3.992-1.151-5.834-1.739-6.495-2.073-.382-.194-1.135-.352-1.674-.352-.538 0-1.486-.2-2.105-.444-2.231-.879-15.481-2.306-25.474-2.743-4.689-.205-8.124-.525-8.38-.781-.616-.616-196.332-.612-196.948.004m45.133 126.936c2.539.771 6.343 2.604 6.343 3.057 0 .204.207.371.461.371 2.272 0 6.294 8.029 6.312 12.6.019 4.863-3.851 13-6.182 13-.325 0-.591.147-.591.326 0 1.223-6.045 3.27-9.6 3.252-5.802-.03-12.214-3.716-14.384-8.269-1.718-3.605-2.416-5.939-2.416-8.076 0-9.919 11.155-18.962 20.057-16.261m113.207.002c5.201 1.579 9.208 4.807 11.203 9.026 2.727 5.769 2.638 8.734-.462 15.268-3.886 8.194-16.4 10.795-24.005 4.99-10.114-7.72-8.408-23.359 3.057-28.016a424.786 424.786 0 0 0 3.543-1.451c1.257-.529 4.62-.437 6.664.183m-141.258 28.092c1.317.366 2.394.816 2.394 1 0 .184.242.334.539.334 6.218 0 12.104 13.478 9.083 20.8-3.935 9.538-15.149 13.351-23.956 8.145-2.25-1.329-6.066-5.457-6.066-6.561 0-.358-.126-.777-.28-.931-1.226-1.225-2.305-9.444-1.32-10.053.22-.136.401-.552.402-.924.002-.372.272-1.192.6-1.822.329-.63.598-1.383.598-1.674 0-.929 4.516-5.192 6.971-6.579 3.924-2.219 7.355-2.758 11.035-1.735m55.4-.05c1.461.339 2.957.763 3.325.943 2.171 1.061 3.561 1.886 4.244 2.521.427.396.916.72 1.088.72.382 0 3.178 3.823 3.803 5.2 2.159 4.76 2.159 9.187 0 13.652-2.244 4.641-4.111 6.277-10.583 9.276-2.001.928-9.917.283-10.883-.886-.11-.133-.92-.602-1.8-1.042-6.696-3.348-10.235-13.506-7.024-20.159 1.303-2.699 1.969-3.687 3.67-5.446 2.188-2.263 4.461-3.557 8.354-4.76 2.386-.737 2.707-.738 5.806-.019m59.71.816c4.907 2.164 7.17 4.262 9.241 8.568 2.143 4.455 1.921 12.601-.392 14.4-.141.11-.377.585-.524 1.056-.689 2.21-5.25 5.64-9.841 7.401-1.746.669-7.82.683-8.484.019-.262-.262-.7-.476-.975-.476-.832 0-5.334-2.8-6.554-4.076-1.007-1.054-1.538-1.905-3.116-4.995-1.993-3.899-1.721-9.888.629-13.855.495-.836.9-1.649.9-1.808 0-.71 4.663-4.866 5.461-4.866.297 0 .539-.18.539-.4 0-.22.324-.4.72-.4.396 0 .894-.174 1.107-.387 1.285-1.285 8.522-1.401 11.289-.181m57.563.623c4.511 2.242 8.921 7.37 8.921 10.372 0 .399.18.837.4.973.22.136.4 1.666.4 3.4s-.18 3.264-.4 3.4c-.22.136-.4.592-.4 1.013 0 5.618-8.325 12.001-15.658 12.006-4.194.003-6.144-.652-9.788-3.286-9.306-6.726-8.343-22.599 1.655-27.277.875-.41 1.951-.936 2.391-1.169 2.969-1.575 8.692-1.315 12.479.568M148.8 184.286c8.213 2.916 12.803 11.309 10.722 19.608-1.002 3.997-6.349 10.506-8.63 10.506-.271 0-.492.135-.492.3 0 .788-4.675 1.766-7.6 1.59-2.937-.177-6-.988-6-1.588 0-.166-.315-.304-.7-.306-1.645-.01-5.659-4.021-7.202-7.196-2.886-5.941-2.763-9.135.606-15.8 3.108-6.148 12.385-9.568 19.296-7.114m112.9.031c1.265.376 2.3.809 2.3.964 0 .155.612.572 1.36.927 4.044 1.919 8.251 9.666 7.729 14.234-1.096 9.597-8.464 16.339-17.361 15.886-11.805-.601-19.592-13.921-13.828-23.654.495-.836.907-1.644.917-1.797.064-1.072 6.076-6.077 7.299-6.077.288 0 .706-.182.929-.405 1.146-1.146 6.913-1.188 10.655-.078m-169.534 4.068c7.964 3.628 9.931 14.118 3.811 20.325-5.766 5.848-16.259 4.268-19.754-2.975-.408-.844-.894-1.848-1.082-2.23-.558-1.135-.377-5.968.296-7.905 2.328-6.704 10.302-10.143 16.729-7.215m112.12-.159c.487.316 1.08.574 1.317.574.454 0 .561.074 2.821 1.961 8.127 6.784 2.98 20.816-7.909 21.56-2.449.168-6.515-.831-6.515-1.6 0-.177-.264-.321-.586-.321-2.415 0-5.997-6.348-5.981-10.6.03-8.462 10.526-15.67 16.853-11.574m111.226-.556c6.845 1.724 12.057 10.363 9.312 15.435-.207.382-.476 1.174-.599 1.76-.777 3.714-6.402 7.335-11.393 7.335-14.884 0-16.714-21.766-2.07-24.627 2.174-.425 2.722-.414 4.75.097M121.2 217.004c7.456 4.801 8.912 12.864 3.469 19.211-5.338 6.224-16.638 4.982-20.158-2.215-1.533-3.134-2.276-8.004-1.311-8.6.22-.136.406-.552.414-.924.059-2.954 4.016-7.03 8.386-8.638 1.863-.686 7.417.018 9.2 1.166m55.854-.169c8.281 4.834 9.604 14.503 2.819 20.603-1.078.969-2.189 1.762-2.471 1.762-.281 0-1.026.269-1.656.598-1.919 1-6.521.794-9.035-.405-7.982-3.807-9.865-12.387-4.311-19.642 2.964-3.872 10.461-5.364 14.654-2.916m56.862-.01c11.551 6.331 7.526 23.575-5.502 23.575-14.552 0-17.094-19.424-3.214-24.562 1.53-.566 7.016.055 8.716.987m54.985-.484c.253.253.775.459 1.161.459 1.278 0 5.397 4.428 5.962 6.409.281.985.661 1.962.843 2.171.442.504.429 4.913-.014 5.188-.192.118-.461.893-.599 1.723-.361 2.17-2.982 5.369-5.291 6.458-.639.302-1.641.797-2.225 1.1-2.736 1.42-8.499.38-11.873-2.144-5.526-4.135-6.028-13.308-.999-18.265 1.026-1.012 2.106-1.84 2.4-1.84.294 0 .534-.154.534-.342 0-1.324 8.887-2.131 10.101-.917m-226.379 4.027c8.101 3.707 5.531 16.032-3.344 16.032-9.303 0-11.956-11.902-3.623-16.25 1.52-.793 4.996-.684 6.967.218m281.654-.204c8.439 3.526 6.107 16.236-2.978 16.236-11.219 0-11.302-16.45-.085-16.754.942-.025 2.32.208 3.063.518M90.828 248.466c1.773 1.023 3.853 3.36 4.361 4.902.564 1.707.287 6.337-.393 6.565-.218.074-.396.355-.396.625 0 1.627-4.019 3.842-6.972 3.842-10.308 0-12.034-12.83-2.228-16.556.96-.365 4.617.039 5.628.622m112.295-.096c.079.237.354.436.61.444 1.84.057 4.667 4.588 4.667 7.481 0 2.583-1.945 5.912-4.2 7.187-3.803 2.15-11.302.186-11.387-2.982-.007-.275-.179-.5-.381-.5-.203 0-.499-.585-.658-1.3-1.361-6.116 2.891-11.393 8.816-10.942 1.315.101 2.455.376 2.533.612m113.368.121c7.964 4.459 5.517 15.909-3.4 15.909-5.408 0-8.452-2.962-8.463-8.235-.013-6.19 6.727-10.55 11.863-7.674" fill="#242b31"/><path d="M94.635.3c-.164.165-1.679.419-3.367.565-1.885.163-.545.216 3.476.136C101.929.86 105.193 0 98.547 0c-1.988 0-3.748.135-3.912.3m204.041.136c.268.268 2.881.479 6.78.547 3.489.06 5.084.035 3.544-.056-1.539-.091-2.97-.337-3.18-.547-.209-.209-2-.38-3.98-.38-2.599 0-3.479.121-3.164.436M76.71 2.014c-5.741.695-8.913 1.353-4.91 1.019 4.922-.41 13.955-1.455 14.135-1.635.351-.35-3.182-.114-9.225.616m237.364-.607c.114.114 2.799.475 5.966.803 3.168.329 6.75.708 7.96.845 1.21.136 2.098.137 1.972.002-.236-.255-13.228-1.857-15.062-1.857-.574 0-.95.093-.836.207M66.6 3.593c-.44.186-1.66.559-2.711.828-1.052.269-1.818.584-1.702.699.115.115.885.016 1.711-.22 4.571-1.306 5.447-1.624 4.502-1.635-.55-.006-1.36.142-1.8.328m265.4.176c.77.314 1.94.565 2.6.56l1.2-.011-1.4-.386c-2.684-.742-4.048-.834-2.4-.163m4.2 1.031c.136.22.642.387 1.124.372.845-.027.847-.041.076-.372-1.101-.473-1.492-.473-1.2 0M57.695 6.188c-1.598.507-3.128 1.1-3.4 1.318-.272.218-.906.522-1.409.676-1.728.531-6.172 2.665-5.969 2.868.111.112 1.346-.329 2.743-.98 5.55-2.586 8.175-3.643 9.14-3.682.821-.033 3.15-1.123 2.4-1.123-.33 0-1.907.415-3.505.923M339.4 5.814c.66.303 1.47.561 1.8.574.767.031 3.499.978 3.859 1.338.41.41 1.023.331.758-.098-.255-.413-6.281-2.447-7.099-2.396-.285.018.022.28.682.582m8.4 2.994c.88.409 2.453 1.128 3.496 1.598 3.855 1.739 11.707 6.509 14.556 8.843.907.743 2.434 1.981 3.394 2.751 2.581 2.071 8.237 7.889 10.059 10.348.875 1.182 1.904 2.461 2.285 2.842.381.381 1.113 1.439 1.625 2.352.513.912 1.091 1.658 1.286 1.658 1.038 0-5.628-8.351-10.695-13.4-7.432-7.405-23.62-18.006-27.13-17.768-.262.018.244.367 1.124.776M44 12.3c-9.413 5.331-18.963 13.532-24.841 21.333-2.814 3.736-7.959 11.899-7.959 12.629 0 .625.895-.601 2.013-2.76 5.564-10.737 19.552-24.725 30.289-30.289 1.376-.713 2.602-1.458 2.724-1.655.351-.569-.29-.355-2.226.742m340.8 27.484c0 .128.41.903.911 1.724a59.312 59.312 0 0 1 1.691 2.992c.429.825.916 1.5 1.082 1.5.166 0-.079-.675-.545-1.5a132.171 132.171 0 0 1-1.634-3.002c-.725-1.381-1.505-2.27-1.505-1.714m4.019 6.79c-.029.566 1.646 3.894 1.854 3.686.1-.1-.272-1.054-.827-2.121-.555-1.066-1.017-1.771-1.027-1.565M9.88 48.851A87.51 87.51 0 0 0 8.395 52.4c-.291.77-.705 1.629-.919 1.91-.215.28-.277.623-.138.761.138.139.538-.451.887-1.31.875-2.149 2.152-5.012 2.631-5.9.22-.406.305-.834.189-.949-.116-.116-.64.756-1.165 1.939m380.95 2.254c-.017.278.143.818.355 1.2.89 1.605 2.331 5.195 2.608 6.495.314 1.47.974 2.908.995 2.166.036-1.297-3.887-11.071-3.958-9.861M5.849 58.868c-1.144 3.737-1.707 6.261-1.101 4.932.201-.44.68-1.88 1.065-3.2.385-1.32.879-2.901 1.097-3.513.219-.612.299-1.211.178-1.332s-.678 1.28-1.239 3.113m388.979 3.608c-.015.592.152 1.188.372 1.324.22.136.425.732.454 1.324.04.781.099.857.215.276.088-.44-.104-1.52-.427-2.4-.518-1.415-.589-1.476-.614-.524M3.885 65.9c-.713 3.25-.737 3.976-.073 2.173.35-.95.574-2.12.497-2.6-.112-.703-.195-.619-.424.427m392.127.9c0 .33.175.87.388 1.2.345.533.388.533.388 0 0-.33-.175-.87-.388-1.2-.345-.533-.388-.533-.388 0m.965 4.6c.089 1.1.361 3.71.604 5.8s.542 4.76.664 5.934c.121 1.173.321 2.033.443 1.911.299-.299-.678-9.785-1.343-13.045-.493-2.416-.519-2.459-.368-.6M2.69 71.6C2.027 75.58.982 87.499 1.323 87.189c.128-.117.426-2.277.662-4.8.236-2.524.624-5.759.861-7.189.238-1.43.367-3.23.288-4l-.145-1.4-.299 1.8m396.335 21.924c.089 3.148.351 6.028.582 6.4.467.751.279-3.804-.375-9.124-.315-2.558-.345-2.157-.207 2.724M.689 91.8C.07 98.309-.059 102 .334 102c.486 0 .971-6.369.793-10.4l-.133-3-.305 3.2M140.2 127.411c-1.831.604-1.27.684 1.543.222 2.634-.433 6.329.313 9.165 1.848 1.26.683 2.292 1.092 2.292.91 0-.183-1.009-.81-2.243-1.394-4.658-2.203-7.577-2.634-10.757-1.586m113.2-.221c-.44.184-1.391.556-2.113.827-.722.27-1.232.571-1.134.669.098.098.528-.008.955-.237 4.064-2.175 12.521-.502 16.132 3.192.638.652 1.16 1.034 1.16.848 0-2.771-11.414-6.804-15-5.299m-118.654 2.537c-1.909 1.295-3.146 2.391-3.146 2.787 0 .185.675-.303 1.5-1.085s1.68-1.429 1.9-1.438c.551-.023 2.055-1.191 1.532-1.191-.231 0-1.035.417-1.786.927m112.61.119c-2.8 1.883-6.609 7.063-6.524 8.874.025.549.073.564.249.08 1.309-3.612 3.564-6.518 6.714-8.65 1.097-.742 1.797-1.35 1.555-1.35-.241 0-1.138.471-1.994 1.046m-92.534 2.446c.758.82 1.499 1.587 1.646 1.704.812.642 2.37 4.647 2.691 6.918 2.443 17.246-19.303 25.713-29.012 11.297-.741-1.1-1.347-1.75-1.347-1.443 0 2.289 6.383 7.638 10.4 8.714 4.535 1.215 14-.648 14-2.756 0-.179.266-.326.591-.326 2.331 0 6.201-8.137 6.182-13-.018-4.433-4.03-12.6-6.191-12.6-.186 0 .281.671 1.04 1.492m114.759 1.908c1.557 2.63 2.193 3.074 1.011.704-.335-.671-.912-1.464-1.283-1.762-.476-.383-.396-.072.272 1.058m-140.545 1.5c-2.134 4.382-2.73 8.08-1.785 11.072.794 2.514 1.173 3.337 1.421 3.089.133-.133.055-.471-.173-.751-1.735-2.129-1.189-9.199 1.02-13.226.69-1.256 1.093-2.284.897-2.284-.196 0-.817.945-1.38 2.1m142.364 1.7c1.409 3.552 1.463 10.016.097 11.71-.226.28-.302.618-.169.751.264.264.722-.761 1.471-3.291.745-2.514-.015-8.403-1.227-9.519-.379-.349-.418-.271-.172.349m-31.157 2.833c-.347.903-.248 5.816.136 6.767.196.486.33-.808.342-3.3.019-4.156-.042-4.603-.478-3.467m.576 8.367c.001.44.853 2.055 1.892 3.589 6.897 10.184 19.883 10.455 27.396.573.601-.791 1.086-1.691 1.077-2-.009-.309-.308-.022-.664.638-5.975 11.057-22.681 10.455-28.416-1.023-.708-1.417-1.286-2.217-1.285-1.777m-128.493 6.78c-2.512.55-7.224 3.164-8.623 4.782-1.298 1.501-.541 1.252 1.047-.344 3.409-3.427 12.199-5.406 15.55-3.501.495.281.9.354.9.163 0-1.164-5.48-1.843-8.874-1.1m55.798.159c-1.142.364-2.222.825-2.4 1.025-.192.215.002.236.476.051 1.862-.729 4.581-1.057 7.2-.871l2.8.2-2.2-.555c-2.729-.689-3.286-.674-5.876.15m56.876-.007c-.741.178.408.294 3 .302 2.619.008 4.552.205 5.134.522.514.28 1.034.409 1.156.288.797-.798-6.814-1.709-9.29-1.112m55.863.041c-1.308.334-2.635 1.227-1.823 1.227.22 0 .625-.225.9-.5.691-.691 8.331-.654 9.594.047.514.285 1.034.418 1.156.297.867-.868-7.188-1.746-9.827-1.071m-156.607 2.889c4.906 3.366 7.082 7.795 6.86 13.956-.552 15.306-20.392 20.929-28.958 8.209-.747-1.109-1.358-1.741-1.358-1.404 0 .336.884 1.658 1.966 2.936 7.145 8.452 19.362 7.946 25.954-1.073 5.458-7.467 2.83-19.66-5.089-23.611-2.15-1.072-1.977-.799.625.987m38.944-.968c-2.772 1.807-6.648 6.361-6.301 7.403.08.241.463-.231.851-1.048.745-1.571 4.82-5.84 5.594-5.862.251-.007.805-.277 1.232-.6 1.095-.828-.082-.737-1.376.107m14.833-.537c.534.503 3.167 1.781 3.164 1.536-.003-.356-2.29-1.693-2.896-1.693-.239 0-.359.071-.268.157m42.767.243c0 .22-.242.4-.539.4-.814 0-5.461 4.16-5.461 4.889 0 .171 1.08-.769 2.4-2.089 1.32-1.32 2.625-2.406 2.9-2.413.855-.021 2.206-1.187 1.376-1.187-.372 0-.676.18-.676.4m14.624.187c.427.323.997.593 1.267.6 1.054.028 4.923 4.475 6.189 7.115 3.649 7.61.154 17.091-7.75 21.027-1.172.583-1.914 1.063-1.65 1.066 1.805.019 8.159-5.008 8.758-6.931.149-.475.386-.954.527-1.064 4.729-3.679 1.196-17.075-5.657-21.448-1.619-1.033-2.949-1.321-1.684-.365m40.201.605c-3.378 2.171-6.306 6.388-6.655 9.583-.15 1.369-.143 1.378.177.225 1.097-3.949 3.301-7.057 6.636-9.357 2.688-1.854 2.567-2.202-.158-.451m17.828.372c1.35.856 2.551 1.759 2.67 2.006.134.278.181.255.122-.06-.101-.544-4.173-3.48-4.845-3.494-.22-.005.704.692 2.053 1.548m-110.398 2.085c.91.963 2.214 2.741 2.896 3.951.683 1.21 1.243 1.996 1.245 1.746.01-1.207-3.161-5.777-4.673-6.736-.9-.57-.794-.364.532 1.039m114.26 1.151c2.389 3.47 3.76 8.216 3.358 11.616-.147 1.238-.091 1.919.144 1.773.51-.315.494-6.473-.017-6.789-.22-.136-.4-.592-.4-1.013 0-1.132-1.931-5.007-2.917-5.853l-.856-.734.688 1m-195.894 1.024c-.369.564-.615 1.187-.546 1.384.069.198.532-.263 1.029-1.024.497-.761.742-1.384.546-1.384-.197 0-.66.461-1.029 1.024m111.864 2.589c-.267.427-.478 1.004-.469 1.282.009.278.293-.006.631-.63.703-1.297.571-1.827-.162-.652m-57.004.66c-3.366 5.534.614 16.674 7.119 19.927.88.44 1.69.909 1.8 1.042.985 1.192 9.859 1.859 10.899.819.587-.587-.042-.593-2.499-.026-5.753 1.329-13.033-2.768-16.275-9.158-1.667-3.285-2.171-9.365-.963-11.611.458-.851.384-1.756-.081-.993M99.6 167.11c0 .463-.18.954-.4 1.09-.595.368-.426 5.389.236 7 .34.828.487.992.359.4-.586-2.714-.65-4.902-.2-6.777.272-1.137.385-2.176.25-2.311-.135-.135-.245.134-.245.598m87.612-.03c-.007.264.179 1.372.413 2.461 1.252 5.84-3.03 13.879-8.778 16.477-1.122.507-1.952 1.01-1.845 1.118.427.426 4.68-2.124 6.383-3.826 3.905-3.905 6.287-12.669 4.324-15.91-.267-.44-.49-.584-.497-.32m25.031.753c-.343.892-.291 7.072.063 7.629.162.254.294-1.501.294-3.9s-.026-4.362-.057-4.362c-.032 0-.167.285-.3.633m56.281 3.967c.002 1.32.077 1.812.166 1.093.089-.719.087-1.799-.004-2.4s-.164-.013-.162 1.307m.302 3.451c-.094 3.749 7.149 12.008 10.469 11.938.278-.006-.571-.591-1.886-1.3-3.999-2.156-6.94-5.687-7.993-9.597-.373-1.384-.572-1.736-.59-1.041m31.22.862c-.285 4.39-7.393 10.719-12.746 11.351-1.155.136-2.1.371-2.1.522 0 .862 5.128-.55 7.8-2.148 3.639-2.176 7.801-7.783 7.266-9.79-.145-.544-.181-.533-.22.065m-87.246.831c0 .37.45 1.385 1 2.256.55.871 1 1.73 1 1.909 0 1.144 6.638 6.113 8.121 6.08.264-.006-.601-.591-1.921-1.3-3.163-1.699-5.368-3.949-6.927-7.069-.7-1.401-1.273-2.245-1.273-1.876m-72.39 6.708c-1.204.202-2.374.567-2.6.812-.298.323-.136.353.59.109 1.218-.409 9.012-.447 10.4-.05.739.211.687.141-.2-.267-1.647-.757-5.553-1.045-8.19-.604m113.415.026c-1.306.172-2.566.514-2.8.762-.313.331-.161.359.575.105 1.192-.411 8.576-.427 10-.021.743.211.691.142-.2-.269-1.583-.73-4.637-.962-7.575-.577M134.6 186.164c-2.752 1.82-5.82 5.383-5.788 6.722.007.283.208.154.447-.286 1.359-2.499 2.824-4.118 5.296-5.854 3.107-2.182 3.142-2.631.045-.582m15.593-.975c.133.214.849.678 1.592 1.03 4.863 2.308 8.207 9.188 7.613 15.666-.148 1.618-.098 2.074.167 1.515 1.64-3.463-.373-10.789-4.109-14.954-1.374-1.532-5.945-4.36-5.263-3.257m98.607.211c-.634.763-.039.756.976-.013.622-.47.652-.587.149-.587-.345 0-.851.27-1.125.6m-2.254 1.5c-1.523 1.134-3.921 3.858-3.642 4.137.115.116.724-.518 1.353-1.408.629-.89 1.434-1.715 1.79-1.834.61-.203 2.288-1.795 1.893-1.795-.102 0-.729.405-1.394.9m19.054-.194c1.602 1.063 3.931 3.601 4.78 5.209.432.817.793 1.254.802.971.044-1.26-4.964-6.912-6.082-6.865-.275.012-.05.32.5.685m-181.393.924c-.876.218-1.767.57-1.98.783-.519.519.033.49 1.051-.055 4.784-2.56 13.494 1.844 15.343 7.759.449 1.438.529 1.522.552.575.125-5.179-8.815-10.592-14.966-9.062m113.053-.052c-6.443 1.62-11.105 8.439-9.723 14.222.345 1.443.387 1.27.423-1.762.064-5.358 2.286-8.697 7.6-11.423 1.613-.827 7.353-.951 8.284-.179.316.263.676.377.8.253.822-.822-5.03-1.703-7.384-1.111m26.646.087c.663.665 7.195.678 8.294.017.665-.399.496-.431-1-.187-2.304.375-3.76.37-6-.022-1.452-.253-1.702-.216-1.294.192m56.494-.081c.538.362 4.37.623 3.967.27-.092-.08-1.157-.264-2.367-.409-1.533-.184-2.018-.142-1.6.139m30.029.051c-.975.191-1.965.558-2.2.815-.322.351-.229.383.371.13.44-.186 2.33-.437 4.2-.559 2.765-.18 3.148-.277 2.05-.521-1.568-.348-2.028-.334-4.421.135m8.195 1.773c4.396 2.605 6.37 6.183 6.101 11.061-.081 1.468-.008 2.582.164 2.476.593-.367.322-5.515-.389-7.378-1.287-3.372-2.917-5.157-6.446-7.057-2.1-1.132-1.646-.414.57.898m-239.058.488c-2.566 1.907-4.794 5.914-4.73 8.504.015.571.348-.095.779-1.556.918-3.115 2.339-5.242 4.417-6.618.863-.571 1.568-1.125 1.568-1.232 0-.413-.656-.122-2.034.902m126.445-.436c4.855 3.242 6.957 8.724 5.422 14.14l-.283 1 .611-1c1.793-2.935-.073-10.115-3.337-12.839-2.28-1.903-2.365-1.961-2.896-1.961-.278 0-.061.297.483.66m99.978.023c-2.759 1.905-5.207 5.604-5.163 7.801.023 1.123.113.993.615-.884.663-2.476 2.036-4.388 4.528-6.3 1.752-1.345 1.767-1.824.02-.617m-64.672 4.218c-1.11 2.391-1.315 3.349-1.289 6.018.016 1.584.173 3.241.349 3.681.194.483.324-.79.328-3.209.006-2.777.207-4.485.657-5.561.692-1.658.655-2.437-.045-.929m29.896.119c-.007.231.15.591.348.8.199.209.448.74.554 1.18.188.78.193.78.239-.024.025-.452-.218-1.172-.541-1.6-.323-.427-.593-.587-.6-.356m-143.923 2.997c-1.559 4.997 1.155 11.981 6.25 16.079 1.023.822 2.116 1.497 2.429 1.5.312.002-.264-.547-1.28-1.22-4.983-3.301-8.176-10.333-7.058-15.544.539-2.515.339-2.993-.341-.815m145.243 2.983c0 1.725.141 2.809.328 2.516.18-.284.327-1.416.327-2.516s-.147-2.232-.327-2.516c-.187-.293-.328.791-.328 2.516m-173.333.196c0 3.879-2.289 8.002-5.481 9.872-1.964 1.151-2.123 1.672-.221.723 3.358-1.675 5.753-5.509 6.017-9.633.105-1.627.077-2.958-.062-2.958s-.253.898-.253 1.996m-24.367 1.709c-.018.608.121 1.418.308 1.8.188.382.674 1.386 1.082 2.23 2.385 4.943 10.354 8.326 14.423 6.122.759-.411.922-.63.478-.641-.372-.009-.788.164-.924.384s-1.418.4-2.848.4c-5.544 0-10.159-3.575-11.819-9.157-.487-1.635-.677-1.943-.7-1.138m226.003.895c-.098 4.353 6.149 9.473 11.764 9.641l2.8.084-2.6-.267c-5.41-.556-9.987-3.984-11.412-8.547-.294-.941-.543-1.351-.552-.911m-28.904 1.4c-.126.55-.354 1.36-.506 1.8-.152.44.016.295.373-.323.358-.618.586-1.428.506-1.8-.103-.483-.21-.39-.373.323m52.114.138c-.025.406-.418 1.261-.873 1.9s-.64 1.162-.411 1.162c.597 0 1.72-2.327 1.509-3.127-.153-.578-.185-.569-.225.065m-166.191 2.737c-1.342 2.876-4.066 5.725-6.799 7.11-1.069.542-1.723 1.059-1.454 1.149.27.09.605.007.744-.185.14-.192.899-.676 1.687-1.076 2.64-1.339 7.433-7.334 7.094-8.874-.07-.317-.642.527-1.272 1.876m82.965-1.945c-.072 2.664 8.491 11.492 9.839 10.144.08-.08-.7-.58-1.735-1.11-2.645-1.356-5.305-4.164-6.804-7.185-.705-1.418-1.29-2.251-1.3-1.849m-30.579.99c-.34.657-1.182 1.759-1.872 2.449-.69.69-1.792 1.532-2.449 1.872-.657.34-1.105.708-.995.817.191.191 2.597-1.259 3.889-2.343.777-.652 2.48-3.554 2.232-3.803-.103-.102-.465.351-.805 1.008m-21.417-.612c-.092 1.201 3.446 5.092 4.63 5.092.3 0 .546.144.546.321 0 .728 3.933 1.72 6.248 1.576l2.352-.146-2.525-.075c-4.072-.122-8.652-2.799-10.751-6.285-.263-.435-.488-.652-.5-.483m81.059 3.174c-1.348 2.282-3.207 4.017-5.883 5.492-1.21.666-1.98 1.215-1.712 1.219.605.009 3.095-1.359 4.761-2.614 1.281-.966 4.381-5.282 4.039-5.624-.105-.105-.647.582-1.205 1.527m51.092.373c-1.17 1.25-1.17 1.252-.109.576.587-.373 1.166-.938 1.288-1.255.319-.832.137-.727-1.179.679m-2.751 1.758c-.428.323-.597.587-.377.587.22 0 .749-.264 1.177-.587.427-.323.596-.588.376-.588-.22 0-.749.265-1.176.588M139.2 215.761c1.334.815 6.944.826 8.6.017.948-.464.99-.527.2-.304-1.332.376-7.539.361-8.8-.021l-1-.303 1 .611m113 .017c.729.356 2.377.586 4.2.586 1.823 0 3.471-.23 4.2-.586.948-.464.99-.527.2-.304-.55.155-2.53.282-4.4.282-1.87 0-3.85-.127-4.4-.282-.79-.223-.748-.16.2.304m-140.2.06c-2.291.843-4.786 2.497-6.278 4.162-1.611 1.797-.966 1.719.798-.096 5.044-5.191 12.233-5.228 17.493-.091 6.011 5.869 3.517 16.455-4.568 19.39-.636.231-1.057.518-.937.638.475.475 4.854-2.103 6.161-3.626 5.443-6.347 3.987-14.41-3.469-19.211-1.783-1.148-7.337-1.852-9.2-1.166m55.4.46c-3.112 1.365-7.267 5.168-6.493 5.943.107.106.557-.423 1.002-1.176 2.311-3.917 9.495-6.228 13.891-4.468.652.261.709.223.309-.209-.812-.876-6.776-.937-8.709-.09m57.6-.436c-.44.119-.98.405-1.2.636-.277.291-.154.321.4.099 4.396-1.76 11.58.551 13.891 4.468.445.753.901 1.276 1.014 1.163.598-.597-2.472-3.738-5.272-5.393-1.636-.968-6.756-1.531-8.833-.973m58.5.027c.715.089 1.885.089 2.6 0 .715-.088.13-.161-1.3-.161-1.43 0-2.015.073-1.3.161m-3.1.511c-.533.345-.533.388 0 .388.33 0 .87-.175 1.2-.388.533-.345.533-.388 0-.388-.33 0-.87.175-1.2.388m-103.038.924c1.722 1.077 3.615 2.962 4.686 4.666.625.995 1.14 1.68 1.144 1.522.013-.494-1.645-3.282-2.335-3.924-1.258-1.172-3.535-2.788-3.895-2.764-.199.012-.019.237.4.5m43.505.81c-1.526 1.157-4.08 4.533-4.059 5.365.004.165.519-.514 1.144-1.509 1.071-1.704 2.964-3.589 4.686-4.666.419-.263.582-.483.362-.49-.22-.008-1.18.577-2.133 1.3m57.933-.934c0 .22-.24.4-.534.4-2.69 0-5.667 5.572-5.663 10.6.007 7.358 4.917 12.2 12.371 12.2 2.344 0 6.102-1.13 3.95-1.187a.914.914 0 0 0-.724.387c-.511.826-5.971.458-8.25-.557-7.88-3.506-9.755-14.728-3.297-19.736 2.859-2.218 3.138-2.481 2.647-2.494-.275-.007-.5.167-.5.387m12.605.951c3.436 2.327 5.671 6.836 5.301 10.691-.102 1.062-.033 1.836.154 1.721.438-.271.445-4.683.007-5.183-.182-.209-.562-1.186-.843-2.171-.559-1.962-4.679-6.409-5.936-6.409-.376 0 .21.601 1.317 1.351m-235.85 1.999c-2.452 1.28-4.755 4.044-4.755 5.709 0 .384.459-.222 1.019-1.347 1.457-2.924 3.935-4.512 7.043-4.512 3.485 0 6.711 2.356 7.739 5.651.455 1.459.55 1.566.572.644.107-4.405-7.372-8.361-11.618-6.145m284.545-.263a8.899 8.899 0 0 0 2.2 0c.605-.092.11-.167-1.1-.167-1.21 0-1.705.075-1.1.167m-4.062 1.469c-4.924 3.733-4.351 11.107 1.101 14.172 1.748.982 1.31.177-.471-.867-5.156-3.022-4.509-11.022 1.132-13.996.66-.348.93-.636.6-.639-.33-.003-1.393.595-2.362 1.33m7.762-.956c.136.22.462.406.724.414 1.159.035 3.329 2.511 4.104 4.682.403 1.128.541 1.274.554.584.025-1.261-.869-2.873-2.294-4.14-1.731-1.54-3.692-2.518-3.088-1.54m-183.604 2.806c-2.271 3.675-.7 10.662 3.169 14.087 3.248 2.875 10.909 4.29 12.715 2.348.437-.47.393-.504-.28-.217-4.942 2.113-11.972-.708-14.835-5.953-1.306-2.391-1.672-8.337-.594-9.636.299-.36.445-.752.326-.871-.119-.12-.345-.011-.501.242m79.004-.166c0 .22.225.625.5.9 1.782 1.782.254 9.062-2.579 12.289-2.551 2.906-10.963 5.245-12.121 3.371-.136-.22-.552-.394-.924-.386-2.289.048 1.739 1.16 4.246 1.172 7.842.038 14.142-7.493 12.273-14.671-.538-2.065-1.395-3.708-1.395-2.675m-135.6 1.27c0 .463-.18.954-.4 1.09-.604.373-.468 3.789.222 5.6.471 1.236.559 1.327.386.4-.652-3.489-.682-4.365-.199-5.826.286-.868.401-1.697.256-1.843-.146-.145-.265.115-.265.579m79.634.09c.012.33.177.96.366 1.4l.344.8.022-.8c.012-.44-.153-1.07-.366-1.4-.345-.533-.385-.533-.366 0m33.015.215c-.137.358-.233 1.041-.213 1.518.026.614.149.475.423-.477.398-1.384.235-2.198-.21-1.041m-32.563 5.345c-.275 1.188-.418 2.241-.319 2.34.272.273 1.099-3.062.95-3.83-.072-.369-.356.302-.631 1.49m-116.826-.338c-.44 7.504-12.389 8.577-15.359 1.378-.57-1.382-.663-1.46-.68-.572-.027 1.325 2.372 4.148 4.406 5.186 4.892 2.495 12.56-1.349 11.857-5.944l-.164-1.07-.06 1.022m149.186.378c-.019.55.141 1.27.354 1.6.494.764.494-.058 0-1.6l-.32-1-.034 1m132.575.681c-.73 2.969-3.527 4.985-7.421 5.35l-2.6.243 2.316.063c3.995.109 10.02-4.734 8.18-6.574-.11-.11-.324.303-.475.918m-52.745 1.64c-.324 1.618-3.199 5.113-4.979 6.053-.823.435-1.259.799-.969.808.637.022 4.072-2.289 4.072-2.739 0-.175.444-.836.987-1.468.937-1.089 1.704-3.218 1.304-3.617-.102-.102-.289.331-.415.963m-79.076.449c0 .938 2.876 4.468 4.449 5.461 2.087 1.317 2.529 1.233.544-.104-.876-.59-1.822-1.391-2.102-1.78-.28-.389-.775-.974-1.1-1.299-.325-.325-.597-.739-.604-.919-.022-.583-1.187-1.916-1.187-1.359m-112.8.235c0 .981 3.339 4.837 4.88 5.635 1.936 1.003 1.755.591-.368-.839-1.22-.822-2.512-2.141-3.132-3.2-.97-1.653-1.38-2.128-1.38-1.596m77.831 1.578c-.631 1.077-1.914 2.39-3.143 3.218-1.143.77-1.797 1.399-1.455 1.399 1.341 0 6.538-5.563 5.844-6.256-.099-.099-.66.639-1.246 1.639m-67.94 5.706c.71.088 1.97.09 2.8.003.83-.087.249-.159-1.291-.161-1.54-.002-2.219.069-1.509.158M85 247.862c-.44.119-.98.405-1.2.636-.277.29-.153.328.4.121 5.619-2.095 11.58 2.625 10.871 8.608-.476 4.022-3.187 6.438-7.639 6.808l-2.832.236 2.52.064c3.233.083 7.28-2.016 7.28-3.777 0-.27.178-.551.396-.625.68-.228.957-4.858.393-6.565-1.252-3.796-6.336-6.542-10.189-5.506m112.242.172c-.527.211-.857.484-.734.607s.625.009 1.116-.254c.878-.47 3.491-.356 4.876.212.386.158.7.111.7-.106 0-.831-4.216-1.156-5.958-.459m115.958-.091c.77.175 1.85.46 2.4.633.723.227.885.192.584-.127-.229-.243-1.309-.528-2.4-.633-1.611-.155-1.721-.132-.584.127m-4.596 1.08c-2.401 1.629-3.81 3.399-3.795 4.766.005.526.271.232.757-.838.825-1.816 2.911-3.685 4.93-4.417.975-.354 1.091-.481.46-.504-.464-.016-1.523.43-2.352.993M81.323 250.1c-1.805 1.902-2.523 3.595-2.523 5.946 0 1.967 1.014 5.154 1.641 5.154.157 0-.057-.711-.477-1.581-1.517-3.138-.71-7.062 1.954-9.502.791-.724 1.258-1.317 1.039-1.317-.22 0-.955.585-1.634 1.3m112.8 0c-1.698 1.789-2.503 3.531-2.576 5.572-.076 2.118.383 4.328.899 4.328.232 0 .219-.304-.032-.774-1.381-2.58-.063-7.174 2.728-9.512.582-.487.868-.892.636-.9-.231-.008-.976.571-1.655 1.286m9.953-.881c.372.217 1.227 1.062 1.9 1.879.673.816 1.224 1.272 1.224 1.012 0-.594-2.772-3.314-3.361-3.298-.242.007-.135.19.237.407m114.048.937c7.091 6.495-1.567 18.218-9.486 12.844-1.584-1.075-2.032-1.238-1.634-.594 2.456 3.975 11.443 2.155 13.603-2.755 1.576-3.584-.811-10.851-3.566-10.851-.219 0 .269.61 1.083 1.356m-110.911 2.92a.914.914 0 0 0 .387.724c1.429.883-.409 7.052-2.563 8.6-3.669 2.636-8.301 2.233-11.126-.966-1.171-1.326-1.542-.974-.398.377 4.802 5.671 14.887 1.866 14.887-5.617 0-1.691-1.145-4.698-1.187-3.118m97.288 3.124c.004.88.086 1.193.182.695.096-.497.092-1.217-.008-1.6-.1-.382-.179.025-.174.905m.345 2.268c-.054.782 1.205 3.126 1.681 3.129.18.002-.024-.492-.453-1.097s-.871-1.46-.981-1.9c-.148-.593-.212-.627-.247-.132m-223.65 3.727c.563.679 2.785 1.964 2.999 1.734.066-.071-.704-.638-1.712-1.26s-1.587-.836-1.287-.474M.012 303.62c-.007 1.661.159 3.191.368 3.4.21.21.454 1.641.544 3.18.09 1.54.084.283-.013-2.794-.192-6.059-.878-8.951-.899-3.786m399.437-2.22c-.18.44-.384 3.14-.454 6-.107 4.382-.073 4.76.215 2.4.961-7.876 1.031-10.336.239-8.4M1.281 316.6c-.006.88.129 2.5.301 3.6l.311 2 .031-2c.016-1.1-.119-2.72-.301-3.6l-.331-1.6-.011 1.6m397.022 0c-.162.88-.274 2.5-.25 3.6l.045 2 .359-2.4c.449-3.001.317-5.757-.154-3.2M2.077 323.8c-.015.88.225 2.86.535 4.4.512 2.55.542 2.603.33.6-.519-4.908-.835-6.735-.865-5m395.424.6c-.681 5.003-.712 6.391-.076 3.4.328-1.54.546-3.43.485-4.2-.093-1.184-.156-1.061-.409.8M4.033 334.6c-.011.44.234 1.61.546 2.6.733 2.324.756 1.215.03-1.4-.305-1.1-.564-1.64-.576-1.2m391.476.4c-.712 3.276-.729 3.624-.1 2 .341-.88.561-1.96.49-2.4-.097-.603-.193-.505-.39.4M5.212 339.6c0 .33.175.87.388 1.2.345.533.388.533.388 0 0-.33-.175-.87-.388-1.2-.345-.533-.388-.533-.388 0m389.08-.158c-.161.16-.287.666-.28 1.125.011.769.044.778.428.118.448-.769.333-1.725-.148-1.243M6.048 342c-.006.33.235 1.14.538 1.8.707 1.545.717.826.014-1-.297-.77-.545-1.13-.552-.8m387.206 1.002c-.29.802-.445 1.54-.345 1.641.272.271 1.196-2.128 1.022-2.651-.083-.247-.387.208-.677 1.01M8.15 347.2c.351 1.299 1.559 4.024 1.715 3.868.091-.09-.295-1.133-.856-2.316-.562-1.184-.948-1.882-.859-1.552m382.677 1.627c-.503 1.111-.83 2.104-.727 2.206.102.102.573-.747 1.047-1.886 1.118-2.693.866-2.945-.32-.32m-1.595 3.512c-.653 1.221-.518 1.561.209.524.352-.503.547-1.009.432-1.123-.114-.115-.403.155-.641.599m-377.212 3.3c.46.901.921 1.554 1.024 1.45.194-.194-1.391-3.089-1.692-3.089-.092 0 .208.737.668 1.639m375.613-.206c-.476.807-.791 1.543-.699 1.634.092.092.556-.493 1.033-1.3.476-.807.791-1.543.699-1.634-.092-.092-.556.493-1.033 1.3M13.389 358c.8 1.511 3.572 5.573 3.709 5.436.084-.085-.688-1.387-1.716-2.895-1.882-2.76-2.579-3.649-1.993-2.541m371.305 2.466c-1.042 1.577-1.819 2.942-1.728 3.034.159.158 2.376-3.123 3.387-5.013.896-1.674.234-.884-1.659 1.979M17.492 364.5c4.131 5.303 8.908 10.692 8.908 10.05 0-.213-.735-1.099-1.634-1.969-.898-.869-2.561-2.751-3.695-4.181-1.133-1.43-2.288-2.838-2.566-3.129-.278-.29-.505-.695-.505-.9 0-.204-.202-.371-.449-.371-.3 0-.32.166-.059.5m363.652 1.009c-2.857 4.035-10.152 11.485-14.396 14.702a1067.14 1067.14 0 0 0-2.715 2.06c-.091.071-.086.209.011.307.321.32 5.674-4.157 9.756-8.159 3.768-3.693 9.407-10.429 8.716-10.41-.174.004-.791.679-1.372 1.5m-354.169 9.642c.373.614 2.751 2.813 4.49 4.153.77.593.956.65.578.175-.796-.998-5.47-4.991-5.068-4.328m6.189 5.384c.752.936 2.838 2.406 2.827 1.992-.004-.18-.769-.86-1.7-1.511-.93-.651-1.437-.868-1.127-.481m3.236 2.408c0 .186 3.903 2.772 5.2 3.446 1.497.778.903.295-2.153-1.748-2.678-1.791-3.047-1.996-3.047-1.698m325.4.907c-.66.562-.84.838-.4.615 1.196-.607 2.457-1.64 2-1.638-.22.001-.94.461-1.6 1.023m-2.703 1.716c-1.644 1.053-1.872 1.425-.422.688.701-.357 1.386-.83 1.523-1.051.321-.519.225-.488-1.101.363M42.8 386.96c0 .275 2.891 1.882 3.067 1.706.092-.092-.481-.549-1.273-1.016-1.445-.853-1.794-.987-1.794-.69m312.481.721c-.725.448-1.243.89-1.15.983.177.178 3.069-1.428 3.069-1.704 0-.314-.619-.082-1.919.721m-303.935 3.721c.63.329 1.35.592 1.6.584.654-.021-1.429-1.155-2.146-1.169-.33-.007-.084.257.546.585m296.254.031c-.556.309-.733.552-.4.547.33-.005 1.05-.266 1.6-.58.55-.314.73-.56.4-.547-.33.014-1.05.275-1.6.58M56 393.4c.55.314 1.27.571 1.6.57.33-.001-.006-.264-.746-.586-1.703-.739-2.16-.731-.854.016m287 .014c-.66.303-.93.552-.6.554.33.002 1.05-.254 1.6-.568 1.265-.723.589-.713-1 .014m-283.8.986c.33.213.87.388 1.2.388.533 0 .533-.043 0-.388-.33-.213-.87-.388-1.2-.388-.533 0-.533.043 0 .388m280.4 0c-.795.514.204.514 1.4 0l.8-.344-.8-.022c-.44-.012-1.07.153-1.4.366m-276.8 1.021c.99.312 2.07.558 2.4.546.33-.011-.21-.276-1.2-.588-.99-.312-2.07-.558-2.4-.546-.33.011.21.276 1.2.588m273.4-.235c-.44.183-1.583.543-2.539.801-.956.258-1.645.562-1.53.677.115.115.808.013 1.539-.228.732-.24 2.23-.694 3.33-1.009 1.204-.344 1.602-.572 1-.572-.55-.001-1.36.149-1.8.331M66.4 396.4c.33.213.87.388 1.2.388.533 0 .533-.043 0-.388-.33-.213-.87-.388-1.2-.388-.533 0-.533.043 0 .388m5 .975c1.32.316 3.12.561 4 .546l1.6-.028-1.8-.286c-.99-.158-2.79-.404-4-.546l-2.2-.259 2.4.573m256.391-.34c-.225.094-1.485.328-2.8.519-1.982.289-2.117.353-.791.373.88.013 2.77-.218 4.2-.512 1.897-.392 2.222-.539 1.2-.544-.77-.004-1.584.069-1.809.164M79.2 398.42c.99.177 2.43.313 3.2.304l1.4-.016-1.6-.331c-.88-.182-2.32-.319-3.2-.304l-1.6.027 1.8.32m237.4-.02c-1.75.445 1.319.462 3.8.02l1.8-.32-2.2-.003c-1.21-.001-2.74.135-3.4.303m-227.4.824c6.128.684 9.025.825 8.359.406-.353-.222-3.053-.48-6-.573-4.346-.137-4.792-.105-2.359.167m214.525-.059c-1.142.139-2.222.403-2.4.587-.316.326 2.977.144 9.075-.502l3-.318-3.8-.009c-2.09-.006-4.734.103-5.875.242" fill="#6e7377"/><path d="M88.4.4c-.426.275.059.39 1.676.394C91.328.797 92.464.62 92.6.4c.323-.522-3.392-.522-4.2 0m219.2 0c.808.522 4.523.522 4.2 0-.136-.22-1.272-.397-2.524-.394-1.617.004-2.102.119-1.676.394m-229.8.843c-5.553.799-3.033.784 5.4-.032l3-.29-3-.012c-1.65-.006-4.08.144-5.4.334m239-.076c6.374.664 9.088.823 7.4.433-.88-.203-3.58-.454-6-.558-3.659-.156-3.895-.135-1.4.125M70.4 2.423c-.426.291-.02.332 1.4.142 1.1-.147 2.075-.334 2.167-.416.401-.359-3.028-.095-3.567.274m257 0c.88.182 1.96.329 2.4.326l.8-.005-.8-.344c-.44-.189-1.52-.336-2.4-.326l-1.6.018 1.6.331M65.8 3.452c-.995.486-1.029.543-.2.332.55-.139 1.63-.397 2.4-.573 1.372-.313 1.376-.319.2-.333-.66-.007-1.74.251-2.4.574M332 3.211c.77.176 1.85.435 2.4.576.647.166.525.037-.346-.365-.74-.342-1.82-.601-2.4-.576-.907.04-.858.091.346.365M62 4.4c-.795.514.204.514 1.4 0l.8-.344-.8-.022c-.44-.012-1.07.153-1.4.366m274.6 0c1.196.514 2.195.514 1.4 0-.33-.213-.96-.378-1.4-.366l-.8.022.8.344M58.2 5.414c-1.593.73-.427.728 1.6-.002 1.236-.446 1.373-.573.6-.562-.55.008-1.54.262-2.2.564m282-.002c2.082.75 3.197.729 1.454-.028-.74-.321-1.73-.576-2.2-.566-.552.011-.289.221.746.594M53.827 7.156c-.121.195-.654.465-1.186.598-1.502.377-4.776 1.845-4.571 2.05.191.191 4.737-1.662 6.13-2.499.44-.264.586-.486.324-.493-.262-.007-.576.148-.697.344m291.973.117c.44.314 2.06 1.085 3.6 1.714s3.025 1.317 3.3 1.527c.324.249.5.24.5-.025 0-.225-1.575-1.074-3.5-1.887-4.461-1.884-4.875-2.025-3.9-1.329M44 11.8c-.77.525-1.603.964-1.851.977-.248.013-.698.329-1 .703-.416.516 4.35-1.803 5.218-2.539.723-.613-1.266.109-2.367.859m311.403.061A79.02 79.02 0 0 1 359 13.907c.88.542 1.33.706 1 .366-.751-.776-5.517-3.473-6.135-3.473-.252 0 .44.477 1.538 1.061M36.646 16.247c-5.942 4.15-13.641 11.362-17.115 16.032-.95 1.277-1.819 2.411-1.932 2.521-.316.306-2.521 3.686-3.067 4.7-.998 1.854-.065.804 1.617-1.82 2.468-3.851 7.111-9.304 11.333-13.311 3.078-2.922 4.994-4.464 11.118-8.948 1.663-1.217-.087-.478-1.954.826M365 17.797c.66.584 2.1 1.747 3.2 2.586 2.571 1.96 8.362 7.642 10.41 10.213.875 1.098 1.911 2.353 2.304 2.791.393.437 1.461 1.921 2.373 3.298.912 1.377 1.732 2.429 1.824 2.337.352-.351-3.935-6.133-7.853-10.592-2.639-3.003-8.686-8.454-11.497-10.362-1.496-1.016-1.676-1.08-.761-.271m21.399 23.734c2.336 4.091 4.275 7.889 5.396 10.574 1.182 2.831 1.868 3.565.8.856-1.171-2.97-5.456-11.224-6.433-12.39-.837-.999-.802-.858.237.96M13.28 41.28c-.264.264-.48.628-.48.808 0 .18-.461 1.058-1.024 1.949-.563.892-.968 1.777-.9 1.967.068.19.802-.903 1.631-2.429 1.523-2.803 1.646-3.168.773-2.295m-4.311 8.159c-.353.858-.985 2.349-1.405 3.312-.882 2.021-1.028 3.242-.174 1.449 1.483-3.113 2.601-5.942 2.42-6.123-.11-.11-.488.503-.841 1.362M393.412 55.8c.15.44.73 2.378 1.289 4.308.559 1.929 1.109 3.415 1.223 3.302.113-.113-.03-.972-.317-1.908-1.268-4.13-1.67-5.279-2.056-5.871-.334-.512-.36-.48-.139.169M5.291 58.5c-.27.746-.482 1.704-.472 2.128.011.425.292-.005.624-.955.333-.95.545-1.908.472-2.129-.074-.22-.355.21-.624.956m-1.018 3.653c-.15.392-.262 1.013-.248 1.38.017.442.156.341.412-.299.212-.531.324-1.152.248-1.38-.076-.227-.261-.093-.412.299M396.161 65.2c.41 2.113.958 3.772.992 3 .019-.44-.24-1.52-.575-2.4-.336-.88-.523-1.15-.417-.6m-392.884.938c-.262.726-.463 1.756-.445 2.29.017.535.085.792.151.572l.633-2.102c.613-2.033.341-2.641-.339-.76M397.268 70.2c.006.44.156 1.25.332 1.8l.32 1 .012-1c.006-.55-.143-1.36-.332-1.8l-.344-.8.012.8m-394.995.353c-.15.392-.253 1.373-.229 2.18l.044 1.467.354-1.8c.38-1.93.28-3.017-.169-1.847M398.268 76.4c.544 6.94.862 9.249.661 4.8-.104-2.31-.348-5.01-.542-6-.276-1.405-.302-1.142-.119 1.2M1.28 77.885c-.264 1.983-.453 4.755-.42 6.16.033 1.405.119 2.015.191 1.355.782-7.13 1.034-10.144.886-10.59-.097-.291-.393 1.092-.657 3.075M399.234 89.2c.033 2.672.704 3.956.732 1.4.012-1.1-.153-2.27-.366-2.6-.281-.434-.382-.102-.366 1.2M.3 88.533c-.481 1.174-.378 4.905.122 4.405.232-.232.367-1.483.3-2.78-.079-1.528-.228-2.1-.422-1.625m142.007 39.357c.719.089 1.799.087 2.4-.004s.013-.164-1.307-.162c-1.32.002-1.812.077-1.093.166m112.793-.001c.715.089 1.885.089 2.6 0 .715-.088.13-.161-1.3-.161-1.43 0-2.015.073-1.3.161m-118.818 1.584c-3.994 2.13-8.385 7.687-8.248 10.438.02.401.168.247.355-.369 1.561-5.165 5.979-9.566 11.211-11.167.806-.247.845-.311.2-.329-.44-.013-2.023.63-3.518 1.427m11.079-1.186c.418.108 1.385.545 2.147.974.762.428 1.472.692 1.578.587.275-.275-3.115-1.857-3.861-1.802-.433.033-.391.107.136.241m102.896.58c-2.008 1.015-1.676 1.355.374.384.863-.409 1.839-.844 2.169-.966.415-.153.353-.218-.2-.21-.44.007-1.494.363-2.343.792m12.88.75c2.31 1.156 3.747 2.207 5.046 3.693 1 1.142 1.817 1.891 1.817 1.665 0-1.455-7.628-6.975-9.638-6.975-.25 0 .999.727 2.775 1.617m-110.937.999c.44.325 1.693 1.444 2.784 2.487 1.091 1.044 1.735 1.537 1.432 1.097-.799-1.16-4.146-4.194-4.616-4.184-.22.005-.04.275.4.6m93.767 1.088c-1.008.933-2.08 2.056-2.383 2.496-.303.44.341-.053 1.432-1.097 1.091-1.043 2.344-2.162 2.784-2.487.44-.325.62-.595.4-.6-.22-.005-1.225.755-2.233 1.688m-4.015 5.381c-1.427 2.874-1.405 10.198.038 13.112 1.821 3.676 8.369 9.141 10.149 8.47.254-.096.101-.299-.339-.453-8.965-3.124-13.987-15.629-8.886-22.124.22-.28.307-.602.194-.715-.113-.113-.633.656-1.156 1.71M270 135.933c0 .184.135.469.3.634.165.164.605 1.049.978 1.966.372.917.687 1.386.7 1.042.012-.344-.342-1.379-.787-2.3-.772-1.596-1.191-2.069-1.191-1.342M158.012 138c0 .33.175.87.388 1.2.345.533.388.533.388 0 0-.33-.175-.87-.388-1.2-.345-.533-.388-.533-.388 0m.932 5.6c0 2.09.068 2.945.15 1.9a29.38 29.38 0 0 0 0-3.8c-.082-1.045-.15-.19-.15 1.9m113.19 0c0 1.65.071 2.325.157 1.5.087-.825.087-2.175 0-3-.086-.825-.157-.15-.157 1.5m-144.406 0c0 1.43.073 2.015.161 1.3.089-.715.089-1.885 0-2.6-.088-.715-.161-.13-.161 1.3m.294 3.629c-.068 1.919 3.37 7.233 5.71 8.824.937.638.773.375-.63-1.007-1.853-1.826-2.989-3.604-4.374-6.846-.376-.88-.693-1.317-.706-.971m142.418 2.892c-.848 1.764-2.129 3.577-3.4 4.81-1.36 1.32-1.617 1.693-.772 1.12 2.157-1.463 6.427-7.932 5.688-8.617-.086-.079-.768 1.13-1.516 2.687M158.2 148.4c-.15.473-.183.95-.073 1.06.11.11.323-.187.473-.66.15-.473.183-.95.073-1.06-.11-.11-.323.187-.473.66m-1.03 2.466c-.992 1.874-3.322 4.375-5.222 5.607-1.071.694-1.874 1.334-1.785 1.423.264.264 3.131-1.704 4.593-3.152 1.516-1.502 3.408-4.314 3.105-4.616-.108-.108-.419.224-.691.738M117 156.189c1.54.297 3.25.656 3.8.797.761.196.705.12-.234-.317-.679-.316-2.389-.675-3.8-.797l-2.566-.222 2.8.539m52-.206c-.88.167-2.05.514-2.6.771l-1 .469 1-.246c3.771-.928 9.295-.994 9.836-.118.116.188.479.341.807.341.901 0 4.611 2.493 6.32 4.247 1.201 1.232 1.369 1.321.814.429-2.456-3.943-10.004-6.874-15.177-5.893m-59.3.806c-2.096.952-2.275 1.418-.2.522.825-.356 2.22-.774 3.1-.929l1.6-.282-1.4-.041c-.77-.023-2.165.306-3.1.73m113.109-.118c-3.463 1.508-9.68 7.419-8.748 8.318.076.074.847-.912 1.711-2.19 1.526-2.255 5.772-5.599 7.111-5.599.306 0 .728-.168.937-.373.209-.206 1.1-.445 1.98-.533l1.6-.16-1.6-.034c-.88-.019-2.226.238-2.991.571m8.391-.26c.77.176 1.85.435 2.4.576.647.166.525.037-.346-.365-.74-.342-1.82-.601-2.4-.576-.907.04-.858.091.346.365m48.2.238-1.2.584 1.2-.242 2.8-.567 1.6-.324-1.6-.017c-.88-.01-2.14.245-2.8.566m7.8-.267c.99.151 2.475.568 3.3.926.825.358 1.5.564 1.5.457 0-.486-3.818-1.759-5.133-1.712-1.438.053-1.431.059.333.329m-150.6 1.428c.88.542 1.96.974 2.4.96.478-.016.161-.26-.79-.609-.875-.32-1.766-.757-1.98-.971-.215-.215-.579-.384-.81-.378-.231.007.3.456 1.18.998m127.209-.625c-.439.71-3.177 1.318-7.209 1.601l-4 .28 3.436.067c3.546.069 6.354-.52 8.012-1.681.511-.359.721-.652.465-.652-.256 0-.573.173-.704.385M122 157.382c0 .103 1.035.899 2.3 1.768s2.66 2.135 3.1 2.814c.44.679.947 1.234 1.127 1.235.605.002-1.351-2.365-3.047-3.688-1.809-1.412-3.48-2.434-3.48-2.129m40.654 1.318c-2.247 1.514-3.834 3.299-4.89 5.5-.317.66-.348.866-.07.458 2.427-3.562 3.727-4.857 6.964-6.934.408-.263.625-.488.482-.5-.142-.013-1.261.651-2.486 1.476m72.146-1.336c0 .119.495.473 1.1.788.981.51 2.549 1.677 3.41 2.538.861.861 2.028 2.429 2.538 3.41.315.605.669 1.1.788 1.1.476 0-1.728-3.394-3.085-4.751-1.357-1.357-4.751-3.561-4.751-3.085m41.8.576c-3.031 1.511-6.861 6.791-7.218 9.951l-.17 1.509.431-1.4c.683-2.223 1.849-4.504 2.945-5.762.557-.639 1.012-1.269 1.013-1.4 0-.131.945-.863 2.1-1.628l2.266-1.5c.648-.429-.396-.253-1.367.23m-171 1.132c-2.491 1.854-5.978 7.347-5.469 8.615.141.351.216.314.237-.119.035-.698 1.436-3.55 2.591-5.273.407-.608 1.641-1.823 2.743-2.7 2.208-1.759 2.126-2.182-.102-.523m42.235-.772c-.164.165-1.949.411-3.966.546l-3.669.246 4-.06c3.405-.051 7.73-.977 4.767-1.02-.459-.007-.968.123-1.132.288m146.227 1.057c2.117 1.617 3.416 3.277 4.865 6.222.59 1.198 1.073 1.943 1.073 1.656 0-2.196-5.637-9.235-7.395-9.235-.176 0 .48.611 1.457 1.357M184.8 163.502c0 .22.27.624.6.898.335.278.6.321.6.098 0-.22-.27-.624-.6-.898-.335-.278-.6-.321-.6-.098m-55.792.698c.169.44.574 1.572.902 2.514.327.943.679 1.631.782 1.527.274-.273-.707-3.107-1.398-4.041l-.592-.8.306.8m27.439 2.858c-.284.861-.438 2.101-.342 2.754.154 1.047.182 1.007.235-.338.033-.84.252-1.885.486-2.322.234-.438.361-.991.282-1.228-.079-.238-.377.272-.661 1.134m56.71-.413c-.743 1.846-.628 8.491.175 10.155.462.956.601 1.083.439.4-1.028-4.334-1.066-8.685-.093-10.534.213-.404.287-.834.166-.956-.122-.121-.431.299-.687.935m29.853-.245c.143.55.403 1.63.579 2.4l.319 1.4.032-1.4c.017-.77-.243-1.85-.579-2.4l-.611-1 .26 1m-56.037 5.4c0 2.64.12 4.26.266 3.6.147-.66.266-2.28.266-3.6 0-1.32-.119-2.94-.266-3.6-.146-.66-.266.96-.266 3.6m-87.544-1.5c-.135 1.045-.083 2.44.117 3.1.291.965.367.593.386-1.9.027-3.539-.147-3.953-.503-1.2m200.711 1.26c.004 1.895.138 3.028.306 2.6.376-.959.366-3.649-.019-4.96-.18-.612-.291.302-.287 2.36m-169.212.04c0 1.43.073 2.015.161 1.3.089-.715.089-1.885 0-2.6-.088-.715-.161-.13-.161 1.3m113.165 0c0 .77.082 1.085.183.7.1-.385.1-1.015 0-1.4-.101-.385-.183-.07-.183.7m24.808.2c.004.88.086 1.193.182.695.096-.497.092-1.217-.008-1.6-.1-.382-.179.025-.174.905m-113.036 1.4c.404 4.421 3.219 9.296 6.53 11.305.773.469 1.495.956 1.605 1.082.372.427 2.502 1.244 2.707 1.039.112-.112-.291-.392-.896-.622-3.317-1.261-8.611-6.759-8.611-8.943 0-.338-.18-.725-.4-.861-.22-.136-.413-1.002-.428-1.924-.016-.922-.181-2.036-.368-2.476-.216-.507-.267.005-.139 1.4m87.799 1.276c-.035.812-.244 1.588-.464 1.724-.22.136-.4.511-.4.833 0 2.374-5.803 8.201-9.13 9.169-.512.149-.832.369-.713.488 2.098 2.098 11.419-8.467 10.932-12.39-.161-1.299-.161-1.299-.225.176m25.7.747c.194 1.715 1.347 4.6 1.698 4.248.139-.138.061-.482-.173-.764-.234-.282-.709-1.501-1.055-2.71-.456-1.588-.586-1.803-.47-.774m-139.182.861c-.749 3.409-4.544 7.874-8.182 9.627-1.21.583-1.93 1.066-1.6 1.073.948.022 5.158-2.673 6.304-4.035.573-.68 1.271-1.466 1.551-1.747.796-.795 2.1-3.479 2.386-4.907.337-1.683-.09-1.693-.459-.011m-30.15-.373c-.079 1.776 5.422 9.768 6.192 8.998.092-.091-.704-1.069-1.768-2.173-1.642-1.704-3.393-4.604-4.188-6.936-.158-.462-.212-.436-.236.111m199.6.214c-.08 1.33-2.422 5.207-4.232 7.006-1.483 1.475-1.664 1.759-.699 1.101 2.171-1.481 5.64-6.96 5.159-8.147-.144-.354-.205-.344-.228.04m-114.6 3.728c-.949 1.607-2.806 3.494-4.992 5.075-2.063 1.491-1.887 1.698.268.314 2.247-1.442 6.137-5.93 5.603-6.464-.084-.085-.48.399-.879 1.075M214 178.578c0 1.035 3.601 5.125 5.692 6.466 2.144 1.374 2.335 1.178.293-.301-2.182-1.581-3.147-2.546-4.728-4.728-.691-.954-1.257-1.601-1.257-1.437m57.633 2.022c1.003 1.527 2.975 3.492 4.459 4.444 2.151 1.379 2.341 1.177.268-.285-.968-.683-2.546-2.078-3.506-3.1-.961-1.022-1.51-1.499-1.221-1.059M139.2 184.466c-5.856 2.412-11.2 7.978-11.2 11.666 0 .257.726-1.008 1.613-2.812 5.055-10.28 17.567-12.039 25.663-3.607 1.335 1.391 1.47 1.464.764.415-3.13-4.656-12.023-7.646-16.84-5.662m112.8.152c-.799.338-.971.493-.4.359 3.799-.891 9.493-.51 11.11.742.28.217.623.282.761.143 1.286-1.286-8.795-2.38-11.471-1.244m-145.2.374c0 .235 3.044 1.81 3.484 1.803.174-.002-.467-.452-1.425-1-1.798-1.028-2.059-1.13-2.059-.803m184.2.839c-.88.526-1.458.959-1.284.962.438.01 3.484-1.565 3.484-1.801 0-.349-.582-.128-2.2.839m-43.254.947c-1.888 1.27-5.048 4.422-4.434 4.422.081 0 1.142-.972 2.358-2.159 1.216-1.188 2.778-2.452 3.471-2.81.692-.359 1.259-.737 1.259-.841 0-.353-.303-.194-2.654 1.388m17.654.422c.831.66 1.627 1.2 1.77 1.2.404 0 3.426 4.812 4.145 6.6.354.88.653 1.39.664 1.133.078-1.767-3.388-7.091-5.81-8.924-2.056-1.555-2.725-1.563-.769-.009m-152.299.14c1.527.227 3.319.229 4.6.005 1.852-.324 1.557-.367-2.501-.372-4.353-.005-4.466.015-2.099.367m55.099-.105c1.524.343 5.237.349 6.8.011.66-.143-.87-.265-3.4-.27-2.53-.006-4.06.111-3.4.259m56.8.007c.66.145 2.1.263 3.2.263s2.54-.118 3.2-.263c.66-.144-.78-.263-3.2-.263s-3.86.119-3.2.263m56.4-.005c.66.147 2.19.268 3.4.268s2.74-.121 3.4-.268c.66-.148-.87-.269-3.4-.269s-4.06.121-3.4.269m-199.145 1.741c-3.061 1.499-6.255 5.117-6.255 7.085 0 .272.469-.448 1.043-1.599 4.482-8.994 18.084-7.666 21.151 2.064.304.963.544 1.324.566.851.299-6.209-10.137-11.521-16.505-8.401m112.795.002c-7.304 3.578-9.255 11.814-4.363 18.42 1.012 1.366 4.513 3.876 4.513 3.236 0-.119-.546-.498-1.213-.842-4.891-2.53-7.05-9.656-4.502-14.861 4.045-8.261 16.21-8.759 20.36-.833.316.605.672 1.1.791 1.1.118 0-.201-.749-.71-1.664-2.678-4.812-9.861-7.012-14.876-4.556m112.691.247c-3.761 1.972-5.839 4.601-6.334 8.013-.186 1.281-.166 1.265.353-.274 3.375-10.012 16.416-11.757 21.016-2.812.524 1.018 1.026 1.777 1.116 1.687.387-.387-1.569-3.417-3.095-4.796-3.718-3.359-8.774-4.063-13.056-1.818M156.8 191.914c0 .267.143.486.318.486.705 0 1.682 4.542 1.682 7.825 0 9.139-8.606 16.605-17.251 14.965-2.907-.551-3.67-.438-1.549.231 11.187 3.525 22.467-9.18 18.563-20.907-.637-1.913-1.763-3.574-1.763-2.6m85.133 1.529c-2.977 6.563-.279 15.803 5.718 19.589 2.337 1.475 2.414 1.154.098-.406-6.19-4.169-8.809-15.076-4.835-20.136.22-.28.289-.62.153-.756-.136-.136-.646.633-1.134 1.709m-30.829 3.357c.348 1.655.316 4.912-.065 6.6-.183.808-.072.677.339-.4.762-1.998.766-4.826.009-6.4l-.577-1.2.294 1.4m112.93.4c-.012.55.153 1.27.366 1.6.509.787.509-.616 0-1.8-.315-.733-.346-.716-.366.2m-248.582.5c-.334 1.246-.301 4.004.054 4.561.162.254.301-.871.31-2.5.018-3.24-.008-3.389-.364-2.061m196.679 2.1c.002 1.54.074 2.121.161 1.291.087-.83.085-2.09-.003-2.8-.089-.71-.16-.031-.158 1.509m-144.407 0c.002 1.32.077 1.812.166 1.093.089-.719.087-1.799-.004-2.4s-.164-.013-.162 1.307m-28.815.2c0 .99.078 1.395.173.9a5.661 5.661 0 0 0 0-1.8c-.095-.495-.173-.09-.173.9m225.54.4c-.033.33-.16 1.05-.282 1.6-.192.864-.16.903.232.288.249-.391.376-1.111.282-1.6-.095-.488-.199-.618-.232-.288m-23.222 1.429c-.362 5.739 9.119 11.858 14.773 9.535.784-.322.96-.476.4-.349-3.638.824-5.461.624-8.753-.963-1.921-.926-4.142-3.222-4.905-5.071-1.37-3.322-1.489-3.569-1.515-3.152m-203.062 1.224c-.599 2.509-3.501 6.156-5.372 6.749-.436.139-.793.406-.793.594 0 .726 2.441-.924 4.105-2.775 1.577-1.753 3.067-4.982 2.542-5.507-.114-.115-.331.308-.482.939m29.856.583c-.031.946 2.252 5.326 3.232 6.202.59.528.427.087-.532-1.438-.761-1.21-1.675-2.92-2.032-3.8-.356-.88-.657-1.314-.668-.964m-52.012.203c-.034 1.608 3.003 5.263 5.297 6.373 1.386.671 1.333.621-1.565-1.493-.693-.506-1.814-1.909-2.491-3.119-.677-1.21-1.235-2.003-1.241-1.761m194.897 1.674c-.492 1.008-.817 1.909-.723 2.004.094.094.565-.666 1.046-1.688.48-1.023.805-1.925.722-2.004-.083-.079-.553.68-1.045 1.688m52.037-.077c-.471.966-.695 1.658-.497 1.535.507-.313 1.628-2.557 1.478-2.959-.068-.184-.509.457-.981 1.424m-113.162.223c-.15.473-1.107 1.68-2.127 2.683-1.19 1.17-1.424 1.522-.654.983 1.795-1.255 4.278-4.525 3.436-4.525-.21 0-.505.387-.655.859m110.516 3.041a56.664 56.664 0 0 1-2.155 1.606c-.408.278-.202.242.458-.079 1.242-.605 3.787-2.587 3.355-2.613-.135-.008-.881.481-1.658 1.086m-51.513.577-.904 1.323 1.139-1.088c.626-.598 1.033-1.194.903-1.323-.129-.129-.641.36-1.138 1.088M84 211.373c1.884.762 4.81.765 6.454.006l1.346-.621-1.4.296c-1.845.391-4.66.412-6.4.047l-1.4-.294 1.4.566m48.471-.059c1.808 1.76 4.655 3.442 3.529 2.086-.274-.33-.715-.6-.979-.6-.265 0-.904-.45-1.421-1s-1.101-1-1.298-1c-.198 0-.121.232.169.514m64.275.066c1.702.784 4.194.783 6.254-.002 1.069-.408 1.201-.52.4-.337-1.687.383-5.375.4-6.8.031-1.152-.299-1.147-.287.146.308m69.654.42c-.517.55-1.156 1-1.421 1-.264 0-.705.27-.979.6-.274.33-.365.6-.203.6.343 0 4.203-2.787 4.203-3.034 0-.456-.761-.059-1.6.834m-16.159 2.572c1.302 1.388 6.806 1.979 9.759 1.049 2.013-.635 1.142-.768-1.58-.243-1.866.36-6.384-.143-7.82-.871-.608-.308-.694-.292-.359.065m-138.716 2.286c-3.307 1.013-7.928 6.057-7.395 8.072.16.606.182.604.224-.024.386-5.781 10.287-10.069 16.194-7.013.496.256.665.251.5-.016-.9-1.455-6.235-2.027-9.523-1.019m57.075-.119c-4.095 1.179-8.679 6.037-8.55 9.061.034.799.078.84.217.2 2.201-10.122 15.851-12.496 21.273-3.7 1.275 2.067 1.573 1.897.351-.2-2.581-4.431-8.388-6.773-13.291-5.361m56.336.035c-2.579.806-6.936 4.288-6.936 5.542 0 .204.585-.347 1.3-1.224 4.188-5.135 11.03-5.811 16.384-1.619l2.516 1.971-2.149-2.008c-3.181-2.972-7.113-3.914-11.115-2.662m56.579-.007c-5.064 1.457-8.231 5.481-8.523 10.833l-.153 2.8.339-2.614c1.547-11.926 16.903-15.314 21.663-4.78.514 1.137.996 1.884 1.07 1.66.524-1.572-4.358-6.891-7.043-7.674-2.433-.709-5.358-.799-7.353-.225m-158.191 3.364c2.378 2.578 3.129 4.276 3.483 7.869l.276 2.8.058-2.286c.101-3.939-1.588-7.579-4.44-9.564-1.091-.759-.99-.568.623 1.181m-67.124.625c-2.787 1.217-5.046 4.122-4.972 6.393.015.468.287.008.604-1.023 1.796-5.834 8.57-7.32 12.672-2.78 3.931 4.351 1.72 10.533-4.504 12.592-.454.151-.425.207.12.23 1.799.079 4.723-2.12 5.919-4.452 3.183-6.208-3.549-13.708-9.839-10.96m281.932.161c-3.911 2.107-6.232 7.07-4.529 9.683.269.413.315.022.147-1.25-1.139-8.604 10.222-12.072 13.995-4.271 1.099 2.272 1.44 2.14.47-.182-1.55-3.709-6.765-5.768-10.083-3.98m-120.933 2.885c-.62 1.159-.946 5.568-.528 7.153.279 1.061.355.538.35-2.4-.004-2.304.189-4.103.5-4.655.279-.495.417-.9.307-.9-.11 0-.393.361-.629.802m21.601-.358c0 .328.163.767.361.976.199.209.448.74.554 1.18.157.652.198.615.226-.2.018-.55-.231-1.349-.554-1.776-.44-.582-.587-.627-.587-.18M182.991 228c0 2.246.119 3.66.265 3.142.145-.518.264-1.932.264-3.142s-.119-2.624-.264-3.142c-.146-.518-.265.896-.265 3.142m-79.582-1.1c-.125.715-.059 1.84.147 2.5.326 1.041.38.869.41-1.3.037-2.73-.2-3.241-.557-1.2m192.696 1.357c.002 1.762.118 2.457.321 1.943.43-1.084.44-3.476.018-4.143-.211-.333-.342.518-.339 2.2M240.093 228c0 .77.082 1.085.183.7.1-.385.1-1.015 0-1.4-.101-.385-.183-.07-.183.7m-188.88 1.051c-.043 2.834 3.971 7.027 6.622 6.917.548-.022.595-.087.165-.23-3.501-1.158-5.052-2.552-6.048-5.437-.399-1.156-.732-1.718-.739-1.25m296.954 1.202c-.55 2.32-2.89 4.401-6.167 5.485-.456.151-.429.206.116.23 2.594.115 7.907-5.278 6.543-6.642-.121-.121-.342.296-.492.927m-188.126.063c-.039.876 1.357 4.084 1.777 4.084.112 0-.102-.585-.475-1.3-.372-.715-.808-1.84-.969-2.5-.238-.976-.3-1.029-.333-.284m79.488.684c-.131.44-.371 1.16-.533 1.6-.252.686-.198.67.383-.107.372-.5.612-1.22.533-1.6-.125-.601-.176-.587-.383.107m33.699-.149c-.155 3.583 6.368 9.256 10.463 9.099 1.261-.048 1.25-.061-.291-.332-4.516-.795-8.048-3.715-9.6-7.938-.299-.814-.556-1.187-.572-.829m-169.196.465c-.084 1.901 2.836 5.693 5.368 6.97 1.349.681 1.173.486-1.415-1.563-1.566-1.24-3.019-3.395-3.723-5.523-.151-.456-.206-.429-.23.116m22.256.017c-.446 1.133-.373 1.712.15 1.189.24-.24.37-.771.288-1.18-.144-.716-.16-.716-.438-.009m207.712.222c0 .608 2.402 3.247 2.941 3.232.271-.007.212-.212-.143-.5-.332-.268-1.097-1.086-1.7-1.818-.604-.732-1.098-1.143-1.098-.914m-38.981 1.603c-.89 1.974-2.523 3.765-4.244 4.655-.687.355-1.155.74-1.04.855.854.854 6.606-5.446 6.169-6.757-.076-.226-.474.335-.885 1.247m-77.222.437c.909 1.758 2.74 3.705 4.264 4.533 1.351.735 1.134.499-1.219-1.328-.708-.55-1.745-1.765-2.303-2.7-1.163-1.947-1.664-2.289-.742-.505m-36.384.633c-.423.786-1.499 1.988-2.391 2.672-2.323 1.78-2.583 2.073-1.222 1.381 1.695-.861 5.672-5.481 4.718-5.481-.185 0-.682.643-1.105 1.428m-55.813-.749c0 .227-.945 1.377-2.1 2.557-1.353 1.382-1.658 1.833-.858 1.269 1.446-1.021 3.548-3.648 3.198-3.998-.132-.132-.24-.055-.24.172m111.777 1.698c-.647.867-1.864 1.965-2.703 2.44-.84.475-1.432.958-1.317 1.073.384.385 4.011-2.512 4.769-3.809 1.02-1.747.673-1.61-.749.296m-75.159.119c.784 2.062 6.056 4.704 9.385 4.704 2.193 0 6.185-1.147 4.121-1.184-.482-.009-.988.164-1.124.384-1.075 1.74-8.075-.241-11.123-3.147-.838-.799-1.405-1.14-1.259-.757m175.958.117c.428.323 1.148.566 1.6.541.804-.046.804-.051.024-.239-.44-.106-.971-.355-1.18-.554-.209-.198-.569-.355-.8-.348-.231.007-.071.277.356.6m-226.43 3.989c.63.329 1.53.59 2 .58.552-.011.289-.221-.746-.594-2.081-.749-2.705-.742-1.254.014m6.904-.319c-.156.156-1.131.402-2.167.547l-1.883.263 1.6.039c.88.022 2.05-.218 2.6-.532.55-.314.805-.578.567-.586-.239-.008-.561.114-.717.269m106.096.333c1.768.767 5.959.736 7.254-.055l1-.611-1 .283c-1.85.524-6.071.656-6.524.203-.24-.24-.805-.429-1.256-.42-.601.011-.461.171.526.6m62.054.009c-1.22.462-1.271.531-.4.538.55.005 1.45-.249 2-.563 1.233-.705.291-.69-1.6.025m24.106 9.187c-7.189 2.122-8.084 11.377-1.426 14.741.704.356 1.604.633 2 .615.549-.024.577-.08.12-.235-5.391-1.836-7.603-6.235-5.382-10.707 3.641-7.333 13.947-4.754 13.947 3.49 0 2.75.553 2.607.607-.156.102-5.212-4.969-9.194-9.866-7.748m-227.113.32c-1.318.602-3.795 3.204-3.79 3.982.001.267.346-.035.766-.672 3.376-5.121 12.266-4.166 13.387 1.438.137.686.356 1.141.487 1.011.589-.59-.831-3.192-2.48-4.543-2.068-1.694-6.054-2.273-8.37-1.216m112.808.098c-3.882 2.024-6.043 7.63-3.988 10.346.323.428.587.573.587.324 0-.249-.18-.564-.4-.7-.836-.516-.45-4.645.602-6.439 1.644-2.805 3.062-3.561 6.683-3.561 1.697 0 2.777-.122 2.4-.272-1.268-.503-4.675-.328-5.884.302m8.199 1.667c.77.9 1.539 1.651 1.709 1.669.58.064-.961-1.908-2.037-2.607-.964-.626-.931-.532.328.938m2.014 2.579c-.008.372.166.788.386.924s.4 1.036.4 2-.18 1.864-.4 2c-.22.136-.394.552-.386.924.031 1.476 1.158-1.369 1.158-2.924s-1.127-4.4-1.158-2.924M79.452 254.5c-.339 1.265-.299 3.207.079 3.802.177.28.319-.653.319-2.1 0-2.856-.041-3.033-.398-1.702m15.441 1.9c0 .77.082 1.085.183.7.1-.385.1-1.015 0-1.4-.101-.385-.183-.07-.183.7m-.844 2.831c-.548 1.573-2.104 3.05-4.23 4.016-.89.404-1.3.739-.911.744 1.634.02 5.1-2.925 5.712-4.854.428-1.347-.099-1.26-.571.094m-14.042.107c-.031 1.544 3.975 4.714 5.847 4.628.495-.023.377-.146-.348-.364-1.816-.547-3.796-1.953-4.669-3.316-.453-.707-.827-1.134-.83-.948m238.776 1.485c-.497.698-1.821 1.697-2.943 2.219-1.122.523-1.732.952-1.356.954 1.526.009 6.076-3.57 5.399-4.246-.108-.108-.602.375-1.1 1.073m-113.517.403c-.513.65-1.683 1.533-2.6 1.963-.916.43-1.347.788-.958.796 1.01.021 3.625-1.717 4.428-2.944.928-1.416.288-1.28-.87.185m-11.463.093c.721 1.13 3.42 2.7 4.572 2.659.344-.013-.13-.33-1.053-.705-.923-.375-2.253-1.22-2.955-1.877l-1.277-1.196.713 1.119M399.505 308.4c-.48 1.633-.357 4.857.139 3.615.216-.541.34-1.801.274-2.8-.098-1.51-.168-1.647-.413-.815M0 309.753c0 .99.18 1.911.4 2.047.244.151.4-.455.4-1.553 0-.99-.18-1.911-.4-2.047-.244-.151-.4.455-.4 1.553M398.71 318c-.16 2.09-.377 4.88-.483 6.2-.123 1.528.022 1.019.399-1.4.326-2.09.543-4.88.483-6.2-.098-2.164-.138-2.026-.399 1.4M1.046 319c.108 2.2.36 4.72.562 5.6.397 1.737.206-1.247-.434-6.8-.277-2.403-.295-2.233-.128 1.2m1.022 9c-.006.55.143 1.36.332 1.8l.344.8-.012-.8c-.006-.44-.156-1.25-.332-1.8l-.32-1-.012 1m395.332.8c-.152.691-.186 1.347-.076 1.457.11.11.324-.366.476-1.057.152-.691.186-1.347.076-1.457-.11-.11-.324.366-.476 1.057m-.737 3.5c-.384 1.896-.686 3.963-.511 3.5.639-1.694 1.114-3.8.96-4.254-.102-.3-.304.039-.449.754M2.824 332c-.007.33.247 1.32.564 2.2.317.88.582 1.33.588 1 .007-.33-.247-1.32-.564-2.2-.317-.88-.582-1.33-.588-1m1.21 5c-.012.44.153 1.07.366 1.4.514.795.514-.204 0-1.4l-.344-.8-.022.8m391.395.429c-.148.586-.178 1.155-.068 1.265.11.11.32-.279.468-.865.147-.587.177-1.156.067-1.266-.11-.11-.32.279-.467.866M4.848 339.8c.016.977 1.081 3.842 1.116 3 .013-.33-.235-1.32-.552-2.2-.317-.88-.571-1.24-.564-.8m389.585 1.233c-.292.991-.444 1.889-.337 1.996.106.107.423-.626.704-1.629.281-1.003.433-1.901.338-1.996-.095-.094-.412.639-.705 1.629m-1.188 3.412c-1.408 3.559-2.971 7.088-3.494 7.886-.338.516-.533 1.02-.433 1.121.284.284 1.682-2.271 2.633-4.814.474-1.267 1.142-2.845 1.485-3.508.343-.662.525-1.303.405-1.423-.12-.12-.389.212-.596.738m-386.412 1.06c-.018.278.147.818.367 1.2s.585 1.215.811 1.85c.226.636.503 1.064.615.952.112-.112-.238-1.172-.778-2.355-.54-1.184-.997-1.925-1.015-1.647m1.972 4.772c-.006.59 1.634 3.418 1.854 3.197.088-.087-.292-.95-.845-1.917-.552-.966-1.007-1.542-1.009-1.28m2.002 3.763c-.024.86 5.111 9.198 7.878 12.791 2.877 3.736 11.117 11.93 14.515 14.434 5.688 4.191 12.23 8.238 12.646 7.823.084-.085-.342-.404-.947-.711-11.713-5.935-24.027-17.577-30.865-29.18-2.724-4.624-3.22-5.416-3.227-5.157m375.147 5.246c-7.112 11.808-19.156 23.164-30.853 29.091-.605.307-1.028.63-.939.718.339.339 8.285-4.552 12.438-7.655 4.114-3.075 11.771-10.734 14.837-14.84 2.782-3.726 6.68-9.817 6.437-10.059-.091-.092-.956 1.143-1.92 2.745M46.4 389.382c0 .311 2.317 1.481 5.8 2.927 4.622 1.92 4.45 1.859 4 1.407-.22-.221-1.84-.989-3.6-1.707-1.76-.718-3.875-1.647-4.7-2.065-.825-.418-1.5-.671-1.5-.562m302.8 1.843a208.27 208.27 0 0 1-4.15 1.776c-.852.348-1.46.723-1.349.833.198.199 3.044-.965 6.899-2.822 2.769-1.334 1.768-1.182-1.4.213m-291.254 3.391c.74.321 1.73.576 2.2.566.552-.011.289-.221-.746-.594-2.082-.75-3.197-.729-1.454.028m282.654-.005c-1.02.336-1.29.539-.746.558.47.017 1.46-.232 2.2-.553 1.656-.719.723-.722-1.454-.005m-279.285.837c.299.299 4.406 1.364 6.085 1.577l1.2.153-1.2-.351c-5.001-1.463-6.511-1.805-6.085-1.379m275.885.152c-.533.345-.533.388 0 .388.33 0 .87-.175 1.2-.388.533-.345.533-.388 0-.388-.33 0-.87.175-1.2.388m-4.4 1.048c-1.597.482-1.642.525-.4.38 2.068-.243 4.488-.949 3.2-.935-.55.006-1.81.256-2.8.555m-263 .952c.44.189 1.25.338 1.8.332l1-.012-1-.32c-.55-.176-1.36-.326-1.8-.332l-.8-.012.8.344m258.4 0c-.729.313-.712.344.2.344.55 0 1.36-.155 1.8-.344.729-.313.712-.344-.2-.344-.55 0-1.36.155-1.8.344m-251.8.981c1.87.302 4.48.538 5.8.525l2.4-.023-2.8-.284c-1.54-.156-4.15-.392-5.8-.526l-3-.242 3.4.55m246.4-.326c-.33.09-2.31.314-4.4.499-3.433.304-3.549.338-1.2.361 1.43.014 4.13-.208 6-.493 2.051-.312 2.765-.519 1.8-.523-.88-.003-1.87.067-2.2.156M87.4 399.6c1.747.444 5.034.444 4 0-.44-.189-1.79-.335-3-.325-1.815.016-1.99.073-1 .325m221 0c-.773.499 2.638.499 3.8 0 .593-.255.282-.349-1.2-.366-1.1-.012-2.27.153-2.6.366" fill="#949499"/><path d="M92.6.4c-.316.511 1.01.511 1.8 0 .469-.303.366-.389-.476-.394C93.332.003 92.736.18 92.6.4m213.2 0c.136.22.732.397 1.324.394.842-.005.945-.091.476-.394-.79-.511-2.116-.511-1.8 0m-219.3.676c.385.1 1.015.1 1.4 0 .385-.101.07-.183-.7-.183s-1.085.082-.7.183m282.3 19.849c0 .069.585.654 1.3 1.3l1.3 1.175-1.175-1.3c-1.095-1.212-1.425-1.484-1.425-1.175M398.893 86.8c0 .77.082 1.085.183.7.1-.385.1-1.015 0-1.4-.101-.385-.183-.07-.183.7m-398 .8c0 .77.082 1.085.183.7.1-.385.1-1.015 0-1.4-.101-.385-.183-.07-.183.7M399.256 92c0 .55.155 1.36.344 1.8.313.729.344.712.344-.2 0-.55-.155-1.36-.344-1.8-.313-.729-.344-.712-.344.2M.3 93.031c-.165.166-.295.767-.288 1.336.011.906.063.946.427.32.456-.782.342-2.141-.139-1.656m142.405 66.452c.497.096 1.217.092 1.6-.008.382-.1-.025-.179-.905-.174-.88.004-1.193.086-.695.182m112.995-.007c.385.1 1.015.1 1.4 0 .385-.101.07-.183-.7-.183s-1.085.082-.7.183M187.693 171.6c0 .77.082 1.085.183.7.1-.385.1-1.015 0-1.4-.101-.385-.183-.07-.183.7M170.9 187.876c.385.1 1.015.1 1.4 0 .385-.101.07-.183-.7-.183s-1.085.082-.7.183M159.301 199.8c.004.88.086 1.193.182.695.096-.497.092-1.217-.008-1.6-.1-.382-.179.025-.174.905m141.613.4c.003 1.1.081 1.503.173.895.092-.609.09-1.509-.005-2-.095-.492-.171.005-.168 1.105M50.909 228c0 .99.078 1.395.173.9a5.661 5.661 0 0 0 0-1.8c-.095-.495-.173-.09-.173.9m132.8 0c0 .99.078 1.395.173.9a5.661 5.661 0 0 0 0-1.8c-.095-.495-.173-.09-.173.9m32.384 0c0 .77.082 1.085.183.7.1-.385.1-1.015 0-1.4-.101-.385-.183-.07-.183.7m132.808.2c.004.88.086 1.193.182.695.096-.497.092-1.217-.008-1.6-.1-.382-.179.025-.174.905M86.3 248.282a5.661 5.661 0 0 0 1.8 0c.495-.095.09-.173-.9-.173s-1.395.078-.9.173m112.4 0a5.661 5.661 0 0 0 1.8 0c.495-.095.09-.173-.9-.173s-1.395.078-.9.173M399.4 307.2c-.152.691-.186 1.347-.076 1.457.11.11.324-.366.476-1.057.152-.691.186-1.347.076-1.457-.11-.11-.324.366-.476 1.057M0 307.353c0 .33.18.711.4.847.22.136.4-.023.4-.353 0-.33-.18-.711-.4-.847-.22-.136-.4.023-.4.353M91.4 399.6c.44.189 1.07.344 1.4.344.378 0 .304-.127-.2-.344-.44-.189-1.07-.344-1.4-.344-.378 0-.304.127.2.344m215.6 0-.8.344.8.022c.44.012 1.07-.153 1.4-.366.795-.514-.204-.514-1.4 0" fill="#878c94"/></g></svg>