<svg xmlns="http://www.w3.org/2000/svg" width="32" height="32" version="1.1" viewBox="0 0 400 400"><g fill-rule="evenodd" stroke="none"><path d="M181.8 25.196c-7.48.179-15.623.45-18.096.604l-4.496.278-3.67 2.224C151.004 31.048 148.072 32 144.144 32c-3.421 0-4.752.526-7.144 2.825-1.887 1.813-3.48 2.537-6.986 3.172-2.615.475-4.523 1.254-5.529 2.261-1.912 1.912-4.375 3.131-8.352 4.134-1.121.283-2.527 1.2-4.293 2.801-2.549 2.31-3.666 2.844-7.871 3.762-1.136.249-2.374 1.335-4.106 3.605-.767 1.005-2.117 1.955-4.15 2.92-2.013.955-3.229 1.808-3.663 2.567-.382.669-2.095 1.993-4.161 3.217-2.082 1.234-4.094 2.791-4.944 3.83-.789.962-2.394 2.291-3.566 2.953-1.458.822-2.459 1.761-3.166 2.967-.617 1.052-1.733 2.174-2.765 2.779-2 1.172-2.835 2.019-3.823 3.875-.39.733-1.645 2.052-2.789 2.932-1.453 1.118-2.492 2.383-3.45 4.2-.754 1.43-2.088 3.249-2.966 4.043-.877.794-2.25 2.684-3.05 4.2-.867 1.642-2.399 3.662-3.79 4.996-1.329 1.275-2.452 2.74-2.608 3.4-.401 1.702-2.224 4.961-2.774 4.961-.957 0-1.865 1.597-3.174 5.586-1.259 3.833-2.318 5.588-4.283 7.096-.363.279-1.044 1.814-1.514 3.412-1.504 5.116-1.984 6.085-3.973 8.014-1.284 1.245-2.024 2.335-2.169 3.192-1.831 10.814-2.535 13.189-4.272 14.406-1.931 1.353-2.408 3.648-2.818 13.574-.39 9.418-.641 11.034-2.411 15.52a241.706 241.706 0 0 0-1.423 3.697c-.973 2.626-1.34 12.615-.918 24.978.462 13.497.584 14.444 2.087 16.122 2.179 2.435 3.095 8.083 3.246 20.003.128 10.121.172 10.316 2.945 13.049 1.691 1.667 2.051 2.301 2.469 4.351 1.339 6.562 2.434 10.423 3.064 10.8 2.453 1.466 3.362 2.736 4.396 6.141 1.457 4.801 2.175 6.337 3.223 6.898 1.227.657 2.703 2.919 3.591 5.503.505 1.469 1.464 2.915 3.051 4.6 2.778 2.949 3.32 3.884 3.691 6.36.271 1.805.359 1.911 1.939 2.33 2.188.581 3.455 1.794 3.455 3.309 0 2.684.798 3.859 2.621 3.859 2.606 0 4.089.678 4.38 2.003.396 1.806 3.584 3.357 5.966 2.901.978-.187 1.033-.107 1.033 1.476 0 2.334 1.459 4.82 2.829 4.82 1.261 0 3.141.875 3.359 1.562.337 1.063 2.86 2.292 6.657 3.245 2.58.647 3.957 1.258 5.544 2.459 1.486 1.124 2.714 1.693 4.141 1.919 2.154.34 3.704 1.646 5.147 4.337 1.216 2.269 2.864 2.962 6.368 2.679 3.31-.268 3.398-.221 5.555 2.977 1.45 2.149 3.479 2.791 7.107 2.25 3.942-.589 4.537-.328 5.753 2.519.435 1.019 1.261 2.345 1.835 2.947l1.044 1.094 5.846-.253c8.486-.367 12.595.573 15.081 3.449 2.097 2.424 3.953 3.033 7.431 2.436 1.596-.274 4.163-.468 5.703-.43 8.61.209 33.109.174 48.6-.07 20.523-.323 21.394-.453 24.8-3.7 2.269-2.163 3.439-2.543 8.729-2.833 8.071-.443 9.463-.799 11.146-2.852 1.947-2.376 3.675-3.189 7.525-3.541 3.742-.341 4.253-.565 6.455-2.83 1.768-1.819 3.255-2.414 7.059-2.829 2.222-.242 3.886-1.443 3.886-2.806 0-2.398 4.213-4.683 8.021-4.351l3.085.269.911-1.524c1.44-2.408 2.832-3.723 3.943-3.723.723 0 1.698-.727 3.425-2.552 1.41-1.489 3.414-3.078 4.815-3.816 1.472-.776 2.897-1.924 3.686-2.969 1.051-1.393 1.672-1.803 3.4-2.241 5.024-1.274 5.939-1.685 8.206-3.683 1.269-1.12 2.959-2.472 3.756-3.006 1.85-1.24 2.757-3.278 3.088-6.941l.264-2.916 1.6-.762 2.6-1.241c.55-.264 1.404-1.325 1.899-2.357.86-1.797 2.312-2.704 4.347-2.714 1.038-.005 2.576-1.76 3.091-3.527.532-1.824.598-1.882 2.43-2.145 2.325-.334 3.741-1.223 4.076-2.559.141-.56.458-.944.706-.853.248.091 1.649.56 3.113 1.043l2.662.879 1.02-1.02c.848-.848 1.394-1.02 3.238-1.02h2.218v-3.269c0-2.452-.162-3.447-.649-3.985-1.316-1.454-.463-1.946 3.377-1.946h3.552l.234-4.3c.33-6.067 2.799-11.229 5.815-12.157.399-.122.609-2.066.856-7.953.504-11.963 2.169-19.595 4.714-21.597 1.301-1.023 1.912-12.768 1.53-29.393-.309-13.418-.546-15.314-2.402-19.224-1.609-3.39-1.931-5.652-2.419-16.976-.391-9.084-1.113-12.429-3.011-13.955-1.881-1.511-2.977-4.246-3.376-8.427-.313-3.272-.923-4.797-2.646-6.618-1.205-1.274-3.574-6.101-3.577-7.291-.003-1.036-1.6-3.454-3.112-4.711-1.525-1.268-2.202-2.471-3.701-6.58-.97-2.657-1.235-3.03-2.437-3.425-1.411-.465-1.962-1.311-4.144-6.362-.562-1.303-1.398-2.631-1.856-2.952-1.031-.722-4.559-6.071-4.899-7.428-.138-.549-.596-1.107-1.019-1.241-1.117-.355-3.546-3.183-4.255-4.955-.402-1.004-1.12-1.814-2.096-2.363-1.91-1.073-3.091-2.344-3.837-4.129-.686-1.643-1.101-2.038-3.448-3.279-.981-.518-2.016-1.474-2.427-2.242-.885-1.649-2.347-3.242-2.977-3.242-.845 0-3.747-2.357-4.359-3.54-.347-.672-1.848-1.936-3.578-3.014-1.639-1.022-3.569-2.53-4.289-3.352-.792-.905-2.508-2.06-4.354-2.931-2.589-1.221-3.241-1.742-4.349-3.468-1.597-2.488-2.386-3.025-5.68-3.866-1.591-.406-3.118-1.119-3.981-1.857-2.511-2.15-4.882-3.539-7.162-4.196-2.281-.658-4.971-2.097-7.838-4.194-.88-.643-2.32-1.374-3.2-1.623-4.943-1.401-6.76-2.156-8.302-3.451-2.528-2.123-4.503-2.888-7.498-2.904-3.315-.017-6.26-.805-8.908-2.382-1.151-.685-3.262-1.805-4.692-2.489l-2.6-1.243-13-.315c-26.599-.646-32.517-.695-45.8-.379m55.819 2.433c3.11.421 3.477.565 4.067 1.592 1.255 2.186 5.916 3.751 12.543 4.211 4.337.301 6.571.821 6.571 1.529 0 1.988 3.676 4.181 7.517 4.484 3.948.311 5.727 1.062 6.683 2.821.998 1.837 2.903 2.84 6.683 3.519 3.799.683 4.152.85 4.732 2.252 1.034 2.496 3.375 3.706 8.046 4.16 3.139.305 3.651.65 4.283 2.882.539 1.905 2.066 3.315 3.61 3.334 1.366.016 2.088.615 3.247 2.691.921 1.651 1.749 2.391 4.144 3.704.63.345 1.62 1.328 2.202 2.184 1.009 1.487 4.666 4.359 6.16 4.839.388.125 1.051.889 1.473 1.698.891 1.711 2.407 3.391 3.939 4.365.595.378 1.22.907 1.389 1.175.17.269 1.025.892 1.9 1.384.876.492 1.592 1.197 1.592 1.567 0 .37.336 1.101.746 1.626.41.525 1.041 1.977 1.403 3.228.682 2.358 2.082 3.926 3.505 3.926.63 0 .746.316.746 2.026 0 3.085.324 3.424 3.586 3.745l2.814.277v1.45c0 .797-.381 2.236-.846 3.196-1.525 3.152-1.003 8.521 1.295 13.306 2.304 4.8 3.02 7.086 3.321 10.6.503 5.891 1.139 8.797 2.585 11.8l1.445 3-.047 6.2c-.027 3.41-.352 8.54-.723 11.4-.371 2.86-.78 7.315-.907 9.9l-.233 4.7H309.3l-.277-1.3c-.153-.715-.432-2.337-.621-3.605-.435-2.925-1.622-4.849-3.562-5.77l-1.526-.725-.476-7.8c-.261-4.29-.638-10.32-.836-13.4-.212-3.286-.214-6.84-.006-8.6.6-5.057-.424-15.316-2.016-20.2-.989-3.035-4.051-6.356-6.528-7.079-.908-.265-1.742-.601-1.852-.746-1.332-1.756-6.073-2.708-16.797-3.373-5.608-.348-11.368-.802-12.8-1.009-11.064-1.602-18.394.003-20.158 4.412-.351.877-.806 1.595-1.011 1.595-.785 0-2.888 2.163-4.446 4.573-.894 1.381-2.076 2.753-2.628 3.048-1.009.54-4.136 4.61-5.002 6.511-.256.561-1.612 2.232-3.014 3.712-1.612 1.701-2.697 3.238-2.949 4.176-.292 1.084-.724 1.619-1.599 1.982-1.665.689-3.478 2.875-4.003 4.825-.317 1.175-.789 1.827-1.672 2.305-2.08 1.129-3.175 2.229-4.066 4.085-.597 1.245-1.496 2.204-2.981 3.182-1.169.771-2.699 2.182-3.4 3.138-.834 1.137-2.034 2.103-3.474 2.8-1.749.845-2.364 1.407-3 2.743-.896 1.881-1.725 2.456-2.04 1.413-1.068-3.528-1.59-4.279-3.714-5.341-1.626-.812-2.305-1.436-2.843-2.609-.908-1.981-2.093-3.203-3.799-3.915-.985-.412-1.646-1.133-2.396-2.612-1.731-3.417-3.726-6.303-4.966-7.186-.675-.48-1.802-2.103-2.642-3.804-1.228-2.484-1.703-3.061-2.933-3.553-1.681-.673-2.645-1.639-3.066-3.073-.435-1.482-2.084-3.519-3.397-4.198-.712-.368-1.655-1.536-2.46-3.047-.917-1.719-1.935-2.914-3.419-4.011-1.317-.972-2.215-1.973-2.381-2.653-1.361-5.551-8.377-9.58-15.544-8.924-2.42.221-8.81.498-14.2.615-8.378.182-22.564 1.106-25.493 1.661-2.042.386-3.625 2.423-4.26 5.479-1.225 5.903-1.451 19.877-.395 24.378.737 3.139.543 3.043 2.99 1.473 2.911-1.868 3.89-5.532 4.246-15.894l.24-6.974 1.568-1.553 1.567-1.552h18.789c21.195 0 19.918-.18 22.756 3.209.939 1.122 2.657 2.648 3.817 3.39 1.725 1.103 2.331 1.814 3.326 3.898.669 1.403 1.603 2.899 2.074 3.326.472.427 1.326 1.586 1.897 2.577.572.99 2.196 3.137 3.609 4.77 1.413 1.634 3.072 4.034 3.687 5.333 1.281 2.71 2.118 3.74 3.704 4.56.618.32 1.625 1.371 2.237 2.337.613.966 2.136 2.589 3.385 3.606 1.361 1.108 2.658 2.613 3.235 3.754.531 1.046 1.951 2.853 3.156 4.013 1.832 1.764 2.342 2.58 3.108 4.969.767 2.392 1.243 3.152 2.918 4.658 1.101.99 2.943 2.749 4.093 3.908l2.093 2.108 1.081-1.417c1.055-1.383 7.075-6.599 7.617-6.599.55 0 4.399-3.852 5.845-5.851.82-1.133 2.41-2.72 3.533-3.528 1.655-1.188 2.297-2.015 3.372-4.344.73-1.582 2.251-3.957 3.38-5.276 1.257-1.47 2.273-3.141 2.621-4.313.643-2.165 8.313-10.288 9.714-10.288.991 0 2.568-1.768 3.677-4.122.498-1.058 1.443-2.318 2.099-2.8 1.585-1.167 2.176-2.402 2.733-5.714.551-3.274 1.051-4.171 2.996-5.373l1.455-.9 15.665.206 15.665.206 3.2 1.076c1.76.591 3.65 1.473 4.2 1.96.55.486 1.443 1.239 1.984 1.673l.985.788-.701-1.111c-1.253-1.987 1.672-3.756 3.756-2.272 1.232.877 1.215 1.361-.113 3.278-.756 1.092-.755 1.101.261 2.432 1.497 1.964 2.377 7.012 1.913 10.991-.389 3.344-.093 8.96 1.121 21.282.423 4.29.874 9.78 1.003 12.2.8 14.972.644 13.972 2.891 18.6 2.941 6.056 3.079 6.199 3.754 3.911l.546-1.851 1.988.67c3.152 1.062 3.821 4.511 1.792 9.229-1.102 2.561-3.225 3.879-4.169 2.588-.613-.837-.649-.75-1.628 3.853-2.148 10.098-1.488 20.893 1.657 27.095l2.337 4.611.475 7.647c.563 9.068 1.81 14.447 3.348 14.447 2.448 0 2.875 8.162.548 10.488-4.331 4.331-4.3 24.17.046 29.869l1.023 1.34-1.109.725c-.609.399-1.338.954-1.62 1.235-2.36 2.351-5.826 1.937-7.939-.949-2.649-3.62-2.796-3.708-6.17-3.708-3.635 0-4.656-.595-6.179-3.6-1.562-3.082-2.504-3.6-6.554-3.602-3.859-.002-4.91-.527-6.339-3.168-1.28-2.362-2.247-2.794-6.907-3.082-4.915-.303-7.803-1.227-9.382-2.998-.607-.682-2.231-1.75-3.609-2.375-4.031-1.828-4.753-2.989-4.452-7.159.135-1.879.426-11.246.647-20.816.22-9.57.574-21.27.787-26 1.083-24.169 1.118-23.2-.836-23.2-.817 0-1.614.432-2.583 1.401l-1.401 1.401-1.194-.882c-.657-.486-1.539-1.468-1.961-2.182l-.766-1.299 1.389-1.22c1.575-1.382 2.116-1.47 3.777-.611.646.335 1.268.605 1.38.6 2.16-.086 2.488.051 3.106 1.292.643 1.291.647 1.275.672-2.52.036-5.248.713-13.801 1.461-18.439.823-5.097-.354-7.352-2.812-5.392l-1.102.878.499 3.809c.787 6.016.199 7.551-3.184 8.311-.964.217-1.861.549-1.994.739-.133.189-1.277 1.704-2.542 3.365-1.265 1.661-2.3 3.399-2.3 3.861 0 .462-.166.944-.369 1.069-.204.126-.676 1.149-1.049 2.274-.974 2.932-4.262 8.101-7.047 11.078-1.317 1.408-2.606 3.034-2.864 3.613-.258.58-1.287 1.88-2.287 2.89-1.41 1.424-1.983 2.413-2.55 4.4-.401 1.41-.913 3.179-1.135 3.931-.233.786-1.392 2.342-2.723 3.657-1.678 1.657-2.445 2.77-2.78 4.032-.674 2.538-1.611 4.295-2.429 4.555-.981.311-2.873 3.264-3.97 6.196-.676 1.809-1.357 2.799-2.66 3.866-1.245 1.021-2.166 2.317-3.182 4.481-.788 1.678-2.213 3.855-3.173 4.846-.958.99-2.216 2.88-2.794 4.2-1.725 3.937-1.939 4.286-2.891 4.72-1.678.764-3.089-1.151-3.834-5.204-.632-3.444-1.979-6.122-3.484-6.927-.374-.2-1.257-1.263-1.962-2.362-.705-1.1-2.159-2.629-3.231-3.399-2.541-1.826-2.982-2.605-3.597-6.361-.597-3.641-1.604-5.377-3.693-6.365-1.362-.645-3.096-3.156-3.096-4.484 0-.237-.821-1.371-1.825-2.518-1.591-1.819-3.775-6.05-3.775-7.314 0-2.188-2.791-6.05-7.087-9.805-3.844-3.361-4.438-4.364-6.489-10.966-1.148-3.695-1.498-4.351-3.189-5.983-1.044-1.007-2.658-3.035-3.586-4.505-3.759-5.958-7.567.985-5.454 9.946.679 2.88 1.969 63.886 1.532 72.452-.289 5.649-.716 6.572-3.372 7.287-1.086.292-2.459 1.256-4.265 2.992-2.982 2.867-2.525 2.734-11.09 3.228l-4.4.254-1.4 1.601c-.77.88-2.03 2.242-2.8 3.025l-1.4 1.424-3.462-.092c-3.906-.103-4.159.039-6.374 3.583-1.605 2.566-2.498 2.947-6.181 2.635-3.519-.297-4.164-.055-5.409 2.033-2.678 4.488-4.927 5.209-8.28 2.651l-1.322-1.008.246-3.069c.269-3.37 1.184-10.331 1.77-13.469.206-1.1.566-4.88.8-8.4.529-7.925 1.275-11.434 3.287-15.453 1.972-3.94 2.413-6.57 2.404-14.347-.009-8.66-1.437-20.044-2.437-19.426-2.205 1.363-3.337-12.144-1.208-14.41 1.228-1.307 1.336-1.075 1.566 3.355.353 6.802 3.256-.734 4.047-10.506.304-3.766.854-6.823 1.979-11.013 2.898-10.794 3.15-28.467.526-36.934-.216-.696-.274-.691-1.116.1-.488.459-1.086.834-1.328.834-.622 0-2.8 2.844-3.547 4.632-.464 1.109-.622 2.821-.603 6.536.014 2.767-.081 7.379-.21 10.248l-.236 5.217-2.151-.237c-1.586-.175-2.447-.521-3.278-1.317l-1.127-1.079H65.897l-1.563-1.412c-.86-.777-2.377-1.808-3.371-2.291l-1.808-.878-1.677 1.93c-5.242 6.032-5.991 6.656-8.305 6.915-4.517.508-4.937 1.887-3.565 11.698.628 4.49-2.115 6.756-7.578 6.261-7.423-.673-10.03-4.33-10.03-14.069v-4.89l1.1-.216c.605-.119 2.154-.336 3.442-.483 2.178-.249 2.381-.361 2.9-1.603 1.158-2.773.387-10.162-1.061-10.162-1.08 0-3.175 1.359-4.351 2.822C28.165 168.343 28 168.097 28 163c0-3.531.122-4.6.525-4.6 2.523 0 5.14-6.021 5.607-12.9.339-4.995.499-5.9 1.045-5.9 2.198 0 5.557-7.677 5.62-12.847.002-.136.706-.712 1.565-1.28 1.959-1.297 3.488-4.393 4.019-8.137.212-1.499.564-2.784.783-2.857 2.521-.841 4.565-3.947 5.264-8 .708-4.101.624-3.953 2.394-4.236 2.227-.356 3.578-1.767 3.578-3.736 0-1.732.915-3.306 1.923-3.308 1.619-.004 3.109-1.486 4.264-4.242.636-1.516 1.562-3.251 2.057-3.855.495-.604 1.009-1.414 1.141-1.8.133-.386.806-1.062 1.496-1.502.69-.44 1.599-1.52 2.018-2.4 1.234-2.586 1.327-2.733 1.928-3.027.315-.154 1.098-.526 1.74-.827.641-.3 1.991-1.585 3-2.854 1.081-1.362 2.701-2.802 3.951-3.513 1.164-.663 2.219-1.47 2.342-1.792.124-.323.509-.587.855-.587s1.362-.785 2.257-1.745c.895-.96 2.728-2.3 4.072-2.978 2.311-1.165 3.756-2.876 3.756-4.446 0-.54 1.279-1.096 3.255-1.415 1.71-.277 3.505-1.916 3.819-3.488.319-1.595.801-1.855 4.701-2.535 4.814-.839 6.511-1.822 7.236-4.191.41-1.34 1.325-1.974 2.869-1.989 3.969-.04 7.294-1.43 8.258-3.453.934-1.959 2.054-2.473 6.325-2.908 4.846-.493 7.937-2.193 7.937-4.365 0-.946 1.461-1.358 6.043-1.706 7.73-.587 11.717-1.851 13.15-4.169.994-1.609 2.056-1.818 11.007-2.164 11.074-.429 64.032-.131 67.819.381m-89.939 75.214c1.992 1.066-2.27 1.438-9.08.792l-2.8-.265 3-.291c1.65-.16 3.9-.345 5-.413 1.1-.067 2.237-.154 2.526-.194.29-.04.899.127 1.354.371m110.12.209 2.8.3-3 .324c-1.65.179-3.99.211-5.2.072l-2.2-.253 1.4-.521c.77-.287 1.85-.454 2.4-.372.55.082 2.26.284 3.8.45m-154.042 8.731c-.143 1.389-.035 4.353.238 6.586.41 3.347.402 4.493-.049 6.529l-.547 2.469-.406-2.584c-.223-1.42-.277-3.753-.12-5.183.157-1.43.294-4.456.305-6.724.014-2.697.162-4.036.429-3.871.254.157.31 1.209.15 2.778m131.367 10.907c-.883 1.064-2.03-.158-1.257-1.338l.668-1.019.499.932c.344.643.372 1.086.09 1.425m124.464 5.61-.011 2.7-1.146-1.383-1.146-1.383 1.004-1.317c1.321-1.732 1.312-1.742 1.299 1.383m6.383 13.2c-.025.96-.069.998-.35.3-.177-.44-.244-.935-.148-1.1.338-.586.526-.285.498.8M53 159.2c-.561.908.253 4.054.909 3.51.593-.492 1.866-3.092 1.614-3.297-.472-.385-2.32-.541-2.523-.213m87.515 6.083c-.284.357-.257.949.087 1.917l.498 1.4.3-1.53c.326-1.659-.178-2.676-.885-1.787m20.725 41.959c1.685 1.804 1.385 4.144-.783 6.106-2.626 2.377-7.378-2.756-5.011-5.412 1.877-2.105 4.214-2.385 5.794-.694m75.648-.824c3.661 1.016 3.587 5.065-.12 6.548-2.053.822-2.088.818-3.552-.414-2.507-2.109-2.695-3.167-.886-4.976 1.676-1.676 2.207-1.811 4.558-1.158m-63.717 18.767c1.887 1.009 1.981 3.86.198 5.979-1.336 1.587-4.143.251-5.079-2.418-.609-1.735 3.159-4.483 4.881-3.561m50.428 2.333.887.719-1.121 1.331-1.12 1.332-1.172-1.311-1.171-1.312.949-.729c1.196-.92 1.642-.925 2.748-.03M91.565 239.676c.035 1.866-.446 2.764-.999 1.868-.346-.559-.243-5.805.136-6.944.308-.927.805 1.998.863 5.076m126.779.856c.467.564-1.488 2.268-2.602 2.268-.4 0-1.742-1.448-1.742-1.879 0-1.908 2.87-2.165 4.344-.389m-32.186 5.091c1.921 2.284-.782 4.817-3.184 2.984-1.692-1.29-1.717-1.847-.143-3.171 1.582-1.332 2.072-1.304 3.327.187m12.915 18.57 1.392 1.392-.855 1.2c-1.897 2.665-3.214 2.726-5.289.245-1.005-1.201-.895-1.628.77-3.001 1.889-1.556 2.277-1.541 3.982.164m-50.703 11.345c.658 3.444-.745 5.278-2.53 3.306-.627-.692-.635-.955-.104-3.1.319-1.289.705-2.884.857-3.544l.276-1.2.508 1c.28.55.727 2.142.993 3.538m161.549 4.173c-.434 1.45-.511 1.514-1.011.83a30.568 30.568 0 0 0-1.321-1.641c-.43-.495-.636-.9-.458-.9s.754-.765 1.279-1.7l.956-1.7.513 1.77c.402 1.386.411 2.112.042 3.341m-186.379-2.072c1.913.667 1.591 2.721-.608 3.893-.816.434-.893.348-1.272-1.428-.56-2.627-.145-3.171 1.88-2.465m148.86 1.205v1.245l-.768-.945c-.765-.941-.679-1.137.668-1.516.055-.015.1.532.1 1.216m-135.569 5.22c.557 1.032-1.724 3.328-2.757 2.776-1.914-1.025-2.183-2.288-.818-3.843l1.257-1.431.98.917c.539.504 1.141 1.216 1.338 1.581m-23.263.588c.45.405-3.18 3.348-4.13 3.348-.37 0-.729-2.781-.485-3.754l.241-.96 2.103.607c1.157.334 2.179.676 2.271.759m153.383-.706c.638.704.622.78-.294 1.38-1.371.898-2.689-.323-1.563-1.448.854-.854 1.028-.848 1.857.068m17.849.897c0 .641-.167.776-.7.566-.385-.152-1.33-.389-2.1-.525l-1.4-.249 1.2-.27c2.342-.528 3-.423 3 .478m-161.122 4.232c1.549 1.484.523 4.525-1.528 4.525-.571 0-2.95-2.181-2.95-2.705 0-.571 2.335-2.895 2.909-2.895.246 0 .952.484 1.569 1.075M101 290.616l1.6.481-1.4.643c-.77.354-2.064 1.093-2.876 1.643-1.635 1.106-1.817.961-1.983-1.583-.159-2.452.328-3.089 1.785-2.33.701.366 1.994.881 2.874 1.146m179.143-.661 1.454 1.155-1.672 1.51-1.671 1.51-1.127-1.35c-1.355-1.623-1.375-1.864-.257-3.054 1.122-1.195 1.516-1.167 3.273.229m13.011 5.088c1.838 2.087 1.744 2.791-.675 5.09-1.153 1.096-1.231 1.112-2.404.506-3.289-1.701-3.58-5.18-.57-6.813 1.622-.88 1.878-.795 3.649 1.217m-201.136 7.046 1.076 1.289-.991 1.497-.991 1.497-1.456-.744c-3.027-1.545-3.217-2.217-1.022-3.609 2.34-1.484 2.082-1.489 3.384.07M123 315.2c.703.776.699.8-.138.8-.595 0-.862-.247-.862-.8 0-.44.062-.8.138-.8.076 0 .464.36.862.8m105.185.73c-1.399.172-1.708-.202-.756-.916.681-.509.832-.497 1.292.104.458.599.392.698-.536.812m-16.959 1.211c.723.585.951 1.25 1.091 3.177.327 4.523-3.868 5.18-14.256 2.235-1.768-.502-.478-3.503 2.072-4.822 2.519-1.302 9.739-1.687 11.093-.59m-55.546.103c1.166.244 2.492.784 2.946 1.2.454.416 1.084.758 1.4.76.895.006 4.512 1.794 5.123 2.532.502.608.31.664-2.268.664-1.549 0-3.889.275-5.201.611-7.575 1.941-16.08.946-16.08-1.88 0-3.8 6.251-5.526 14.08-3.887m24.201 1.54c1.305.796 2.791 3.077 2.315 3.553-.36.359-15.657.335-16.017-.025-.581-.58 1.139-2.404 3.152-3.341 2.783-1.296 8.563-1.399 10.55-.187m13.919 1.356c3.943 1.839 3.692 2.26-1.351 2.26-4.886 0-5.148-.163-3.28-2.031 1.41-1.409 2.033-1.44 4.631-.229" fill="#8d3399"/><path d="m107.696 107.552-1.568 1.553-.24 6.974c-.363 10.56-1.319 14.023-4.411 15.985-4.094 2.598-4.856 7.788-2.666 18.179 1.939 9.203 1.408 24.498-1.185 34.157-1.125 4.19-1.675 7.247-1.979 11.013-.45 5.558-1.887 11.477-3.251 13.392-1.01 1.418-1.15 7.136-.26 10.595 2.513 9.766 2.082 25.467-.861 31.347-2.012 4.019-2.758 7.528-3.287 15.453-.234 3.52-.594 7.3-.8 8.4-.586 3.138-1.501 10.099-1.77 13.469l-.246 3.069 1.322 1.008c3.353 2.558 5.602 1.837 8.28-2.651 1.245-2.088 1.89-2.33 5.409-2.033 3.683.312 4.576-.069 6.181-2.635 2.215-3.544 2.468-3.686 6.374-3.583l3.462.092 1.4-1.424c.77-.783 2.03-2.145 2.8-3.025l1.4-1.601 4.4-.254c8.565-.494 8.108-.361 11.09-3.228 1.806-1.736 3.179-2.7 4.265-2.992 2.656-.715 3.083-1.638 3.372-7.287.437-8.566-.853-69.572-1.532-72.452-2.113-8.961 1.695-15.904 5.454-9.946.928 1.47 2.542 3.498 3.586 4.505 1.691 1.632 2.041 2.288 3.189 5.983 2.051 6.602 2.645 7.605 6.489 10.966 4.296 3.755 7.087 7.617 7.087 9.805 0 1.264 2.184 5.495 3.775 7.314 1.004 1.147 1.825 2.281 1.825 2.518 0 1.328 1.734 3.839 3.096 4.484 2.089.988 3.096 2.724 3.693 6.365.615 3.756 1.056 4.535 3.597 6.361 1.072.77 2.526 2.299 3.231 3.399.705 1.099 1.588 2.162 1.962 2.362 1.505.805 2.852 3.483 3.484 6.927.745 4.053 2.156 5.968 3.834 5.204.952-.434 1.166-.783 2.891-4.72.578-1.32 1.836-3.21 2.794-4.2.96-.991 2.385-3.168 3.173-4.846 1.016-2.164 1.937-3.46 3.182-4.481 1.303-1.067 1.984-2.057 2.66-3.866 1.097-2.932 2.989-5.885 3.97-6.196.818-.26 1.755-2.017 2.429-4.555.335-1.262 1.102-2.375 2.78-4.032 1.331-1.315 2.49-2.871 2.723-3.657.222-.752.734-2.521 1.135-3.931.567-1.987 1.14-2.976 2.55-4.4 1-1.01 2.029-2.31 2.287-2.89.258-.579 1.547-2.205 2.864-3.613 2.785-2.977 6.073-8.146 7.047-11.078.373-1.125.845-2.148 1.049-2.274.203-.125.369-.607.369-1.069 0-.462 1.035-2.2 2.3-3.861a330.705 330.705 0 0 0 2.542-3.365c.133-.19 1.03-.522 1.994-.739 3.383-.76 3.971-2.295 3.184-8.311l-.499-3.809 1.102-.878c2.458-1.96 3.635.295 2.812 5.392-.748 4.638-1.425 13.191-1.461 18.439-.025 3.795-.029 3.811-.672 2.52-.635-1.277-.734-1.318-3.402-1.419-1.674-.064-5.806 1.146-5.378 1.574.124.125 1.362.396 2.752.604l4.003.6c2.283.341 2.212-1.146 1.114 23.341-.213 4.73-.567 16.43-.787 26-.221 9.57-.512 18.937-.647 20.816-.301 4.17.421 5.331 4.452 7.159 1.378.625 3.002 1.693 3.609 2.375 1.579 1.771 4.467 2.695 9.382 2.998 4.66.288 5.627.72 6.907 3.082 1.429 2.641 2.48 3.166 6.339 3.168 4.05.002 4.992.52 6.554 3.602 1.523 3.005 2.544 3.6 6.179 3.6 3.374 0 3.521.088 6.17 3.708 2.113 2.886 5.579 3.3 7.939.949.282-.281 1.011-.836 1.62-1.235l1.109-.725-1.023-1.34c-3.598-4.718-4.459-19.58-1.574-27.157 2.069-5.432 2.153-8.126.401-12.8-1.91-5.097-2.29-7.13-2.769-14.847l-.475-7.647-2.337-4.611c-3.259-6.427-3.844-18.125-1.395-27.895.469-1.87.934-4.893 1.033-6.717l.182-3.318-2.911-5.882-2.91-5.883-.297-5c-.164-2.75-.403-6.98-.533-9.4-.129-2.42-.58-7.91-1.003-12.2-1.214-12.322-1.51-17.938-1.121-21.282.692-5.938-.857-10.882-3.992-12.752-.821-.489-2.329-1.577-3.352-2.417-3.999-3.285-5.994-3.614-23.396-3.851-19.234-.261-19.484-.189-20.491 5.906-.564 3.417-1.166 4.694-2.768 5.874-.656.482-1.601 1.742-2.099 2.8-1.109 2.354-2.686 4.122-3.677 4.122-1.401 0-9.071 8.123-9.714 10.288-.348 1.172-1.364 2.843-2.621 4.313-1.129 1.319-2.65 3.694-3.38 5.276-1.075 2.329-1.717 3.156-3.372 4.344-1.123.808-2.713 2.395-3.533 3.528-1.446 1.999-5.295 5.851-5.845 5.851-.542 0-6.562 5.216-7.617 6.599l-1.081 1.417-2.093-2.108a120.735 120.735 0 0 0-4.093-3.908c-1.675-1.506-2.151-2.266-2.918-4.658-.766-2.389-1.276-3.205-3.108-4.969-1.205-1.16-2.625-2.967-3.156-4.013-.577-1.141-1.874-2.646-3.235-3.754-1.249-1.017-2.772-2.64-3.385-3.606-.612-.966-1.619-2.017-2.237-2.337-1.586-.82-2.423-1.85-3.704-4.56-.615-1.299-2.274-3.699-3.687-5.333-1.413-1.633-3.037-3.78-3.609-4.77-.571-.991-1.425-2.15-1.897-2.577-.471-.427-1.405-1.923-2.074-3.326-.995-2.084-1.601-2.795-3.326-3.898-1.16-.742-2.878-2.268-3.817-3.39-2.838-3.389-1.561-3.209-22.756-3.209h-18.789l-1.567 1.552M141.4 167.07l-.3 1.53-.498-1.4c-.344-.968-.371-1.56-.087-1.917.707-.889 1.211.128.885 1.787m92.2 41.737c-.533.349-.533.437 0 .786.749.492 1.4.309 1.4-.393s-.651-.885-1.4-.393m-99.448 75.375c-.359.935.392 1.609.99.888.363-.438.334-.675-.132-1.062-.49-.406-.648-.374-.858.174m-12.72 6.183c-.666.736-.662.791.08 1.188 1.283.687 2.403-.344 1.379-1.27-.722-.654-.797-.65-1.459.082m168.228 4.968c-1.552 1.607-1.472 2.577.319 3.852l1.133.806 1.044-1.369c1.293-1.695 1.292-1.756-.056-3.364l-1.1-1.312-1.34 1.387m-199.408 7.58c-.669.488-.664.552.085 1.23.763.691.8.685 1.067-.154.366-1.154-.254-1.733-1.152-1.076" fill="#a0e2f9"/><path d="M169.8 27.248c-8.951.346-10.013.555-11.007 2.164-1.433 2.318-5.42 3.582-13.15 4.169-4.582.348-6.043.76-6.043 1.706 0 2.172-3.091 3.872-7.937 4.365-4.271.435-5.391.949-6.325 2.908-.964 2.023-4.289 3.413-8.258 3.453-1.544.015-2.459.649-2.869 1.989-.725 2.369-2.422 3.352-7.236 4.191-3.9.68-4.382.94-4.701 2.535-.314 1.572-2.109 3.211-3.819 3.488-1.976.319-3.255.875-3.255 1.415 0 1.57-1.445 3.281-3.756 4.446-1.344.678-3.177 2.018-4.072 2.978-.895.96-1.911 1.745-2.257 1.745-.346 0-.731.264-.855.587-.123.322-1.178 1.129-2.342 1.792-1.25.711-2.87 2.151-3.951 3.513-1.009 1.269-2.359 2.554-3 2.854-2.6 1.218-2.22.819-3.668 3.854-.419.88-1.328 1.96-2.018 2.4-.69.44-1.363 1.116-1.496 1.502-.132.386-.646 1.196-1.141 1.8-.495.604-1.421 2.339-2.057 3.855-1.155 2.756-2.645 4.238-4.264 4.242-1.008.002-1.923 1.576-1.923 3.308 0 1.969-1.351 3.38-3.578 3.736-1.77.283-1.686.135-2.394 4.236-.699 4.053-2.743 7.159-5.264 8-.219.073-.571 1.358-.783 2.857-.531 3.744-2.06 6.84-4.019 8.137-.859.568-1.563 1.144-1.565 1.28-.063 5.17-3.422 12.847-5.62 12.847-.546 0-.706.905-1.045 5.9-.467 6.879-3.084 12.9-5.607 12.9-.403 0-.525 1.069-.525 4.6 0 5.097.165 5.343 2.03 3.022 1.176-1.463 3.271-2.822 4.351-2.822 1.448 0 2.219 7.389 1.061 10.162-.519 1.242-.722 1.354-2.9 1.603-1.288.147-2.837.364-3.442.483l-1.1.216v4.89c0 9.739 2.607 13.396 10.03 14.069 5.463.495 8.206-1.771 7.578-6.261-1.372-9.811-.952-11.19 3.565-11.698 2.314-.259 3.063-.883 8.305-6.915l1.677-1.93 1.808.878c.994.483 2.511 1.514 3.371 2.291l1.563 1.412h18.659l1.127 1.079c.831.796 1.692 1.142 3.278 1.317l2.151.237.236-5.217c.129-2.869.224-7.481.21-10.248-.019-3.715.139-5.427.603-6.536.776-1.859 2.934-4.632 3.603-4.632 1.504 0 2.301-1.835 2.022-4.659-.283-2.873.363-8.551 1.109-9.745.304-.487.241-1.44-.228-3.435-1.071-4.557-.854-18.492.38-24.439.635-3.056 2.218-5.093 4.26-5.479 2.929-.555 17.115-1.479 25.493-1.661 5.39-.117 11.78-.394 14.2-.615 7.167-.656 14.183 3.373 15.544 8.924.166.68 1.064 1.681 2.381 2.653 1.484 1.097 2.502 2.292 3.419 4.011.805 1.511 1.748 2.679 2.46 3.047 1.313.679 2.962 2.716 3.397 4.198.421 1.434 1.385 2.4 3.066 3.073 1.23.492 1.705 1.069 2.933 3.553.84 1.701 1.967 3.324 2.642 3.804 1.24.883 3.235 3.769 4.966 7.186.75 1.479 1.411 2.2 2.396 2.612 1.706.712 2.891 1.934 3.799 3.915.538 1.173 1.217 1.797 2.843 2.609 2.124 1.062 2.646 1.813 3.714 5.341.315 1.043 1.144.468 2.04-1.413.636-1.336 1.251-1.898 3-2.743 1.44-.697 2.64-1.663 3.474-2.8.701-.956 2.231-2.367 3.4-3.138 1.485-.978 2.384-1.937 2.981-3.182.891-1.856 1.986-2.956 4.066-4.085.883-.478 1.355-1.13 1.672-2.305.525-1.95 2.338-4.136 4.003-4.825.875-.363 1.307-.898 1.599-1.982.252-.938 1.337-2.475 2.949-4.176 1.402-1.48 2.758-3.151 3.014-3.712.866-1.901 3.993-5.971 5.002-6.511.552-.295 1.734-1.667 2.628-3.048 1.558-2.41 3.661-4.573 4.446-4.573.205 0 .66-.718 1.011-1.595 1.764-4.409 9.094-6.014 20.158-4.412 1.432.207 7.192.661 12.8 1.009 10.724.665 15.465 1.617 16.797 3.373.11.145.944.481 1.852.746 2.477.723 5.539 4.044 6.528 7.079 1.592 4.884 2.616 15.143 2.016 20.2-.208 1.76-.206 5.314.006 8.6.198 3.08.575 9.11.836 13.4l.476 7.8 1.526.725c1.94.921 3.127 2.845 3.562 5.77.189 1.268.468 2.89.621 3.605l.277 1.3h37.79l.233-4.7c.127-2.585.536-7.04.907-9.9.371-2.86.696-7.99.723-11.4l.047-6.2-1.445-3c-1.446-3.003-2.082-5.909-2.585-11.8-.301-3.514-1.017-5.8-3.321-10.6-2.298-4.785-2.82-10.154-1.295-13.306.465-.96.846-2.399.846-3.196v-1.45l-2.814-.277c-3.262-.321-3.586-.66-3.586-3.745 0-1.71-.116-2.026-.746-2.026-1.423 0-2.823-1.568-3.505-3.926-.362-1.251-.993-2.703-1.403-3.228-.41-.525-.746-1.256-.746-1.626 0-.37-.716-1.075-1.592-1.567-.875-.492-1.73-1.115-1.9-1.384-.169-.268-.794-.797-1.389-1.175-1.532-.974-3.048-2.654-3.939-4.365-.422-.809-1.085-1.573-1.473-1.698-1.494-.48-5.151-3.352-6.16-4.839-.582-.856-1.572-1.839-2.202-2.184-2.395-1.313-3.223-2.053-4.144-3.704-1.159-2.076-1.881-2.675-3.247-2.691-1.544-.019-3.071-1.429-3.61-3.334-.632-2.232-1.144-2.577-4.283-2.882-4.671-.454-7.012-1.664-8.046-4.16-.58-1.402-.933-1.569-4.732-2.252-3.78-.679-5.685-1.682-6.683-3.519-.956-1.759-2.735-2.51-6.683-2.821-3.841-.303-7.517-2.496-7.517-4.484 0-.708-2.234-1.228-6.571-1.529-6.627-.46-11.288-2.025-12.543-4.211-.59-1.027-.957-1.171-4.067-1.592-3.787-.512-56.745-.81-67.819-.381m188.49 99.669-1.004 1.317 1.146 1.383 1.146 1.383.011-2.7c.013-3.125.022-3.115-1.299-1.383m7.184 13.783c-.096.165-.029.66.148 1.1.281.698.325.66.35-.3.028-1.085-.16-1.386-.498-.8M55.523 159.413c.252.205-1.021 2.805-1.614 3.297-.656.544-1.47-2.602-.909-3.51.203-.328 2.051-.172 2.523.213m247.223 21.797c-.322 1.049-.454 2.241-.294 2.649.161.408.307 2.271.326 4.141.043 4.276.246 4.651 2.093 3.88 2.375-.993 3.965-5.594 3.133-9.065-.51-2.122-.874-2.474-3.238-3.121l-1.434-.393-.586 1.909m-58.121 8.421c-1.375 1.208-1.39 1.252-.747 2.3 1.37 2.235 2.969 3.257 4.019 2.568 2.378-1.558 1.978-2.859-.897-2.921-3.781-.081-3.546-1.143.395-1.788 1.49-.245 1.544-.299.823-.826-1.165-.852-2.048-.688-3.593.667M90.039 202.558c-1.429 1.522-1.43 12.793-.001 13.871 1.442 1.087 1.496.851 1.531-6.733.037-7.83-.133-8.624-1.53-7.138m67.361 4.003c-1.988.877-2.743 2.005-2.47 3.687.468 2.881 3.74 4.717 5.527 3.1 3.684-3.333 1.268-8.696-3.057-6.787m74.93 1.015c-2.785 2.785.618 6.919 4.438 5.39 3.707-1.483 3.781-5.532.12-6.548-2.351-.653-2.882-.518-4.558 1.158M235 209.2c0 .702-.651.885-1.4.393-.533-.349-.533-.437 0-.786.749-.492 1.4-.309 1.4.393m-64.453 16.367c-3.113 1.899-2.823 4.421.722 6.265 1.931 1.005 4.146-2.582 3.121-5.055-.834-2.016-1.947-2.366-3.843-1.21m50.304 1.981-.949.729 1.171 1.312 1.172 1.311 1.12-1.332 1.121-1.331-.887-.719c-1.106-.895-1.552-.89-2.748.03m-5.998 12.195c-1.063 1.132-.504 3.057.889 3.057 1.114 0 3.069-1.704 2.602-2.268-1.203-1.449-2.578-1.76-3.491-.789m-32.022 5.693c-1.574 1.324-1.549 1.881.143 3.171 2.402 1.833 5.105-.7 3.184-2.984-1.255-1.491-1.745-1.519-3.327-.187m125.833 4.061c-.115.186.154 1.14.597 2.121.782 1.726.825 5.29.098 8.182-.186.741-.143.733.584-.1 1.479-1.695 1.904-6.177.795-8.392-.921-1.838-1.659-2.483-2.074-1.811m-113.573 14.532c-1.665 1.373-1.775 1.8-.77 3.001 2.075 2.481 3.392 2.42 5.289-.245l.855-1.2-1.392-1.392c-1.705-1.705-2.093-1.72-3.982-.164m-48.498 8.171c-.152.66-.538 2.255-.857 3.544-.531 2.145-.523 2.408.104 3.1 2.509 2.772 3.709-2.571 1.537-6.844l-.508-1-.276 1.2m-13.337 10.797c-2.158 2.458.529 5.374 2.756 2.99 1.292-1.383 1.219-1.879-.519-3.504l-.98-.917-1.257 1.431m131.838.881c-1.126 1.125.192 2.346 1.563 1.448.916-.6.932-.676.294-1.38-.829-.916-1.003-.922-1.857-.068m-129.952 1.192c-.598.721-1.349.047-.99-.888.21-.548.368-.58.858-.174.466.387.495.624.132 1.062m-14.711 4.161c-1.537 1.537-1.534 1.827.041 3.233 1.568 1.4 1.804 1.404 3.206.061 1.566-1.5.517-4.525-1.569-4.525-.246 0-1.001.554-1.678 1.231m156.439.495c-1.118 1.19-1.098 1.431.257 3.054l1.127 1.35 1.671-1.51 1.672-1.51-1.454-1.155c-1.757-1.396-2.151-1.424-3.273-.229m-153.899 1.744c-1.163.851-2.464-.084-1.539-1.105.662-.732.737-.736 1.459-.082.713.644.718.721.08 1.187m166.534 2.356c-3.01 1.633-2.719 5.112.57 6.813 1.173.606 1.251.59 2.404-.506 2.419-2.299 2.513-3.003.675-5.09-1.771-2.012-2.027-2.097-3.649-1.217m3.695 3.086c0 .188-.47.957-1.044 1.71l-1.044 1.369-1.133-.806c-1.791-1.275-1.871-2.245-.319-3.852l1.34-1.387 1.1 1.312c.605.721 1.1 1.466 1.1 1.654m-204.566 5.107c-2.195 1.392-2.005 2.064 1.022 3.609l1.456.744.991-1.497.991-1.497-1.076-1.289c-1.302-1.559-1.044-1.554-3.384-.07m2.77 1.97c-.267.839-.304.845-1.067.154-.749-.678-.754-.742-.085-1.23.898-.657 1.518-.078 1.152 1.076" fill="#cc339b"/><path d="M188.8 24.388c-2.53.169-10.128.33-16.885.359-13.413.058-14.95.288-18.22 2.728-2.547 1.9-5.542 2.917-9.616 3.266-4.203.359-6.626 1.285-8.469 3.236-1.164 1.232-2.904 1.981-7.445 3.204-2.461.663-3.724 1.273-5.281 2.55-1.417 1.162-3.247 2.1-5.954 3.052-3.046 1.071-4.266 1.731-5.532 2.995-2.133 2.13-3.187 2.773-5.598 3.415-3.217.857-4.874 1.879-6.223 3.841-.986 1.432-1.84 2.097-3.861 3.004-1.428.64-3.365 1.839-4.305 2.663-.94.825-3.145 2.35-4.9 3.39-2.053 1.217-3.586 2.463-4.301 3.495-.612.882-2.034 2.218-3.161 2.969-2.467 1.643-3.654 2.87-4.217 4.357-.28.738-.995 1.361-2.127 1.852-1.76.764-2.677 1.628-4.282 4.036-.513.77-1.8 2.072-2.861 2.893-1.06.821-2.589 2.531-3.397 3.8-.809 1.269-2.031 2.96-2.717 3.758-2.107 2.449-2.669 3.266-3.874 5.625-.645 1.264-1.885 2.857-2.788 3.584-1.138.914-2.088 2.274-3.159 4.524-1.019 2.141-2.126 3.756-3.312 4.831-1.516 1.376-1.886 2.029-2.489 4.4-1.088 4.271-1.42 4.941-3.463 6.984-1.856 1.855-2.621 3.601-3.734 8.519-.14.616-1.032 1.876-1.984 2.8-2.488 2.419-2.914 3.265-3.657 7.256-.898 4.829-2.329 8.912-3.582 10.22-2.019 2.107-2.605 4.6-2.614 11.11-.011 8.866-.72 13.067-2.78 16.477-2.705 4.476-2.96 6.867-2.942 27.619.016 19.565.101 20.362 2.978 27.926 2.336 6.142 2.752 8.671 2.752 16.713 0 7.672.276 8.959 2.395 11.161 1.533 1.592 2.588 4.165 3.384 8.246.941 4.824 1.659 6.536 3.25 7.749 1.989 1.517 2.534 2.528 3.581 6.645.676 2.658 1.272 4.058 2.174 5.11 2.4 2.8 3.449 4.76 4.16 7.778.688 2.918.821 3.136 3.151 5.154 1.698 1.472 2.717 2.751 3.374 4.236 1.143 2.585 2.499 4.482 3.203 4.482.286 0 1.424 1.8 2.528 4 1.141 2.274 2.868 4.95 4.003 6.204 1.099 1.212 1.997 2.382 1.997 2.599 0 .656 2.85 3.597 3.485 3.597.976 0 2.836 1.541 4.132 3.424.67.974 1.885 2.213 2.7 2.754.93.616 1.931 1.848 2.683 3.302.873 1.688 1.72 2.659 3.11 3.564 1.05.684 2.743 2.09 3.763 3.124 1.02 1.034 2.531 2.226 3.359 2.648.828.423 2.555 1.736 3.837 2.919 2.586 2.387 3.876 3.151 6.515 3.861 1.348.363 2.425 1.13 4.411 3.142 1.715 1.738 3.554 3.12 5.295 3.982 1.468.726 2.775 1.653 2.904 2.061.291.916 2.009 1.748 5.406 2.62 3.325.853 5.266 1.95 6.775 3.828.982 1.222 1.74 1.655 4.114 2.351 1.601.47 3.572 1.05 4.379 1.29.807.24 2.426 1.223 3.597 2.184 2.848 2.336 4.786 2.903 11.282 3.3 5.254.322 5.607.399 8.369 1.833 7.911 4.108 6.563 3.743 15.552 4.213 8.731.456 13.189.858 20.132 1.815 6.515.898 18.871.788 26.4-.236 3.3-.448 10.643-1.075 16.318-1.393l10.318-.578 2.882-1.435a332.091 332.091 0 0 0 5.642-2.889c2.7-1.422 2.888-1.46 8.6-1.724 6.744-.311 7.933-.609 10.046-2.518 2.031-1.835 3.148-2.382 7.037-3.448 2.896-.793 3.505-1.138 5.689-3.223 1.737-1.658 2.941-2.457 4.157-2.758 4.998-1.236 6.259-1.746 7.088-2.867.467-.632 2.132-1.795 3.701-2.585 1.88-.947 3.68-2.29 5.286-3.944 2.28-2.348 2.628-2.553 5.436-3.213 2.81-.66 3.152-.863 5.4-3.195 1.32-1.369 3.25-2.971 4.29-3.56 1.039-.589 2.474-1.797 3.187-2.685.713-.888 2.16-2.234 3.214-2.991 1.274-.915 2.136-1.923 2.568-3.003.443-1.108 1.334-2.131 2.801-3.214 1.183-.874 2.592-2.288 3.13-3.141 1.086-1.719 3.345-3.615 4.308-3.615.343 0 1.136-.637 1.763-1.415.626-.778 2.162-2.561 3.413-3.962 1.251-1.401 2.73-3.447 3.288-4.548.558-1.101 1.912-3.027 3.009-4.281 1.098-1.255 2.298-3.116 2.667-4.137 1.323-3.663 2.239-5.239 3.497-6.017 2.08-1.285 2.956-2.472 4.318-5.847.709-1.756 1.941-4.019 2.739-5.029 1.512-1.915 2.158-3.406 3.584-8.271.675-2.304 1.229-3.3 2.674-4.8 2.433-2.528 2.811-3.352 3.352-7.316.458-3.361 1.219-5.148 2.798-6.577 2.174-1.968 2.361-2.756 2.808-11.837.482-9.803.609-10.447 2.754-14.004 3.076-5.1 3.642-9.886 3.628-30.701-.016-24.212-.603-30.913-3.036-34.665-1.696-2.613-2.425-6.466-2.96-15.645-.565-9.679-.697-10.216-3.107-12.613-1.805-1.796-2.027-2.215-2.262-4.263-.682-5.965-1.646-8.8-3.973-11.672l-1.821-2.247c-.2-.246-.649-1.289-.999-2.32-.998-2.938-2.11-4.877-3.38-5.895-.734-.588-1.736-2.249-2.684-4.452-1.246-2.892-1.885-3.831-3.614-5.307-1.798-1.537-2.28-2.273-3.358-5.13-.813-2.153-1.861-4.029-2.957-5.292-.933-1.076-2.452-3.076-3.373-4.443-.922-1.367-2.345-3.135-3.162-3.929-.817-.793-2.123-2.361-2.902-3.485-.779-1.123-2.202-2.596-3.163-3.272-.96-.677-2.397-2.219-3.193-3.429-1.051-1.598-1.957-2.443-3.314-3.092-1.707-.816-2.567-1.708-3.768-3.909-.239-.439-1.456-1.479-2.703-2.311-1.247-.832-2.722-2.234-3.278-3.114-.556-.88-2.013-2.242-3.239-3.026-1.226-.785-2.885-1.999-3.687-2.699-2.133-1.862-4.397-3.259-6.609-4.076-1.414-.522-2.352-1.239-3.4-2.6-1.742-2.262-2.697-2.876-6.435-4.141-2.03-.687-3.409-1.477-4.738-2.715-1.031-.96-2.415-1.954-3.075-2.208l-4-1.535c-1.54-.59-3.25-1.487-3.8-1.994-1.394-1.285-4.478-2.764-8.237-3.952-1.965-.62-4.021-1.626-5.346-2.614-2.874-2.144-5.497-3.049-9.755-3.363-3.867-.285-6.81-1.305-8.279-2.868-2.249-2.394-5.613-2.894-21.183-3.15L203 24.24c-5.28-.087-11.67-.02-14.2.148m38.8 1.187 13 .315 2.6 1.243c1.43.684 3.541 1.804 4.692 2.489 2.648 1.577 5.593 2.365 8.908 2.382 2.995.016 4.97.781 7.498 2.904 1.542 1.295 3.359 2.05 8.302 3.451.88.249 2.32.98 3.2 1.623 2.867 2.097 5.557 3.536 7.838 4.194 2.28.657 4.651 2.046 7.162 4.196.863.738 2.39 1.451 3.981 1.857 3.294.841 4.083 1.378 5.68 3.866 1.108 1.726 1.76 2.247 4.349 3.468 1.846.871 3.562 2.026 4.354 2.931.72.822 2.65 2.33 4.289 3.352 1.73 1.078 3.231 2.342 3.578 3.014.612 1.183 3.514 3.54 4.359 3.54.63 0 2.092 1.593 2.977 3.242.411.768 1.446 1.724 2.427 2.242 2.347 1.241 2.762 1.636 3.448 3.279.746 1.785 1.927 3.056 3.837 4.129.976.549 1.694 1.359 2.096 2.363.709 1.772 3.138 4.6 4.255 4.955.423.134.881.692 1.019 1.241.34 1.357 3.868 6.706 4.899 7.428.458.321 1.294 1.649 1.856 2.952 2.182 5.051 2.733 5.897 4.144 6.362 1.202.395 1.467.768 2.437 3.425 1.499 4.109 2.176 5.312 3.701 6.58 1.512 1.257 3.109 3.675 3.112 4.711.003 1.19 2.372 6.017 3.577 7.291 1.723 1.821 2.333 3.346 2.646 6.618.399 4.181 1.495 6.916 3.376 8.427 1.898 1.526 2.62 4.871 3.011 13.955.488 11.324.81 13.586 2.419 16.976 1.856 3.91 2.093 5.806 2.402 19.224.382 16.625-.229 28.37-1.53 29.393-2.545 2.002-4.21 9.634-4.714 21.597-.247 5.887-.457 7.831-.856 7.953-3.016.928-5.485 6.09-5.815 12.157l-.234 4.3h-3.552c-3.84 0-4.693.492-3.377 1.946.487.538.649 1.533.649 3.985v3.269h-2.218c-1.844 0-2.39.172-3.238 1.02l-1.02 1.02-2.662-.879a224.853 224.853 0 0 1-3.113-1.043c-.248-.091-.565.293-.706.853-.335 1.336-1.751 2.225-4.076 2.559-1.832.263-1.898.321-2.43 2.145-.515 1.767-2.053 3.522-3.091 3.527-2.035.01-3.487.917-4.347 2.714-.495 1.032-1.349 2.093-1.899 2.357l-2.6 1.241-1.6.762-.264 2.916c-.331 3.663-1.238 5.701-3.088 6.941-.797.534-2.487 1.886-3.756 3.006-2.267 1.998-3.182 2.409-8.206 3.683-1.728.438-2.349.848-3.4 2.241-.789 1.045-2.214 2.193-3.686 2.969-1.401.738-3.405 2.327-4.815 3.816-1.727 1.825-2.702 2.552-3.425 2.552-1.111 0-2.503 1.315-3.943 3.723l-.911 1.524-3.085-.269c-3.808-.332-8.021 1.953-8.021 4.351 0 1.363-1.664 2.564-3.886 2.806-3.804.415-5.291 1.01-7.059 2.829-2.202 2.265-2.713 2.489-6.455 2.83-3.85.352-5.578 1.165-7.525 3.541-1.683 2.053-3.075 2.409-11.146 2.852-5.29.29-6.46.67-8.729 2.833-3.406 3.247-4.277 3.377-24.8 3.7-15.491.244-39.99.279-48.6.07-1.54-.038-4.107.156-5.703.43-3.478.597-5.334-.012-7.431-2.436-2.486-2.876-6.595-3.816-15.081-3.449l-5.846.253-1.044-1.094c-.574-.602-1.4-1.928-1.835-2.947-1.216-2.847-1.811-3.108-5.753-2.519-3.628.541-5.657-.101-7.107-2.25-2.157-3.198-2.245-3.245-5.555-2.977-3.504.283-5.152-.41-6.368-2.679-1.443-2.691-2.993-3.997-5.147-4.337-1.427-.226-2.655-.795-4.141-1.919-1.587-1.201-2.964-1.812-5.544-2.459-3.797-.953-6.32-2.182-6.657-3.245-.218-.687-2.098-1.562-3.359-1.562-1.37 0-2.829-2.486-2.829-4.82 0-1.583-.055-1.663-1.033-1.476-2.382.456-5.57-1.095-5.966-2.901-.291-1.325-1.774-2.003-4.38-2.003-1.823 0-2.621-1.175-2.621-3.859 0-1.515-1.267-2.728-3.455-3.309-1.58-.419-1.668-.525-1.939-2.33-.371-2.476-.913-3.411-3.691-6.36-1.587-1.685-2.546-3.131-3.051-4.6-.888-2.584-2.364-4.846-3.591-5.503-1.048-.561-1.766-2.097-3.223-6.898-1.034-3.405-1.943-4.675-4.396-6.141-.63-.377-1.725-4.238-3.064-10.8-.418-2.05-.778-2.684-2.469-4.351-2.773-2.733-2.817-2.928-2.945-13.049-.151-11.92-1.067-17.568-3.246-20.003-1.503-1.678-1.625-2.625-2.087-16.122-.422-12.363-.055-22.352.918-24.978.305-.823.946-2.487 1.423-3.697 1.77-4.486 2.021-6.102 2.411-15.52.41-9.926.887-12.221 2.818-13.574 1.737-1.217 2.441-3.592 4.272-14.406.145-.857.885-1.947 2.169-3.192 1.989-1.929 2.469-2.898 3.973-8.014.47-1.598 1.151-3.133 1.514-3.412 1.965-1.508 3.024-3.263 4.283-7.096 1.309-3.989 2.217-5.586 3.174-5.586.55 0 2.373-3.259 2.774-4.961.156-.66 1.279-2.125 2.608-3.4 1.391-1.334 2.923-3.354 3.79-4.996.8-1.516 2.173-3.406 3.05-4.2.878-.794 2.212-2.613 2.966-4.043.958-1.817 1.997-3.082 3.45-4.2 1.144-.88 2.399-2.199 2.789-2.932.988-1.856 1.823-2.703 3.823-3.875 1.032-.605 2.148-1.727 2.765-2.779.707-1.206 1.708-2.145 3.166-2.967 1.172-.662 2.777-1.991 3.566-2.953.85-1.039 2.862-2.596 4.944-3.83 2.066-1.224 3.779-2.548 4.161-3.217.434-.759 1.65-1.612 3.663-2.567 2.033-.965 3.383-1.915 4.15-2.92 1.732-2.27 2.97-3.356 4.106-3.605 4.205-.918 5.322-1.452 7.871-3.762 1.766-1.601 3.172-2.518 4.293-2.801 3.977-1.003 6.44-2.222 8.352-4.134 1.006-1.007 2.914-1.786 5.529-2.261 3.506-.635 5.099-1.359 6.986-3.172 2.392-2.299 3.723-2.825 7.144-2.825 3.928 0 6.86-.952 11.394-3.698l3.67-2.224 4.496-.278c8.301-.515 31.607-.93 41.296-.734 5.28.106 15.45.335 22.6.509m-83.8 77.091c-1.1.068-3.35.253-5 .413l-3 .291 2.8.265c6.81.646 11.072.274 9.08-.792-.455-.244-1.064-.411-1.354-.371-.289.04-1.426.127-2.526.194m107.8.308-1.4.521 2.2.253c1.21.139 3.55.107 5.2-.072l3-.324-2.8-.3c-1.54-.166-3.25-.368-3.8-.45-.55-.082-1.63.085-2.4.372m37.731 5.247c-1.685.738-1.889 1.166-1.12 2.34 1.749 2.669 3.937 2.376 4.723-.632.159-.608-1.592-2.439-2.196-2.296-.076.018-.709.282-1.407.588m-186.152 4.655c-.011 2.268-.148 5.294-.305 6.724-.157 1.43-.103 3.763.12 5.183l.406 2.584.547-2.469c.451-2.036.459-3.182.049-6.529-.273-2.233-.381-5.197-.238-6.586.16-1.569.104-2.621-.15-2.778-.267-.165-.415 1.174-.429 3.871m130.689 8.476c-.632.965-.627 1.042.09 1.426 1.105.591 1.732-.289 1.077-1.513l-.499-.932-.668 1.019M90.702 234.6c-.379 1.139-.482 6.385-.136 6.944.932 1.509 1.285-1.457.683-5.744-.201-1.436-.356-1.774-.547-1.2m217.706 41.7c-.525.935-1.101 1.7-1.279 1.7-.178 0 .028.405.458.9a30.568 30.568 0 0 1 1.321 1.641c.918 1.258 1.641-1.852.969-4.171l-.513-1.77-.956 1.7m-186.73 1.407c-.861 1.036.232 4.369 1.254 3.825 2.199-1.172 2.521-3.226.608-3.893-1.533-.535-1.357-.541-1.862.068m149.854.221c-.611.249-.602.352.1 1.216l.768.945v-1.245c0-.684-.045-1.231-.1-1.216-.055.016-.401.151-.768.3m-162.579 6.318c-.244.973.115 3.754.485 3.754.95 0 4.58-2.943 4.13-3.348-.092-.083-1.114-.425-2.271-.759l-2.103-.607-.241.96m172.847.119-1.2.27 1.4.249c.77.136 1.715.373 2.1.525.533.21.7.075.7-.566 0-.901-.658-1.006-3-.478m-185.243 5.338c-.313.955-.277 2.849.077 3.988.193.622.36.592 1.69-.308.812-.55 2.106-1.289 2.876-1.643l1.4-.643-1.6-.481c-.88-.265-2.173-.78-2.874-1.146-1.241-.647-1.282-.641-1.569.233M122 315.2c0 .553.267.8.862.8.837 0 .841-.024.138-.8-.398-.44-.786-.8-.862-.8-.076 0-.138.36-.138.8m105.429-.186c-.952.714-.643 1.088.756.916.928-.114.994-.213.536-.812-.46-.601-.611-.613-1.292-.104m-23.695 1.809c-3.856.502-5.89 1.859-6.368 4.246-.28 1.403-.498 1.3 5.378 2.54 7.487 1.581 9.866.764 9.573-3.291-.283-3.903-1.536-4.413-8.583-3.495m-59.829.603c-1.847 1.002-2.946 3.969-1.805 4.872 2.507 1.984 9.389 2.299 15.58.713 1.312-.336 3.652-.611 5.201-.611 2.578 0 2.77-.056 2.268-.664-.611-.738-4.228-2.526-5.123-2.532-.316-.002-.946-.344-1.4-.76-1.759-1.611-12.287-2.339-14.721-1.018m25.426 1.545c-2.013.937-3.733 2.761-3.152 3.341.36.36 15.657.384 16.017.025.476-.476-1.01-2.757-2.315-3.553-1.987-1.212-7.767-1.109-10.55.187m19.838 1.398c-1.868 1.868-1.606 2.031 3.28 2.031 5.043 0 5.294-.421 1.351-2.26-2.598-1.211-3.221-1.18-4.631.229" fill="#542c94"/><path d="M0 200v200h400V0H0v200M226.8 24.632c15.57.256 18.934.756 21.183 3.15 1.469 1.563 4.412 2.583 8.279 2.868 4.258.314 6.881 1.219 9.755 3.363 1.325.988 3.381 1.994 5.346 2.614 3.759 1.188 6.843 2.667 8.237 3.952.55.507 2.26 1.404 3.8 1.994l4 1.535c.66.254 2.044 1.248 3.075 2.208 1.329 1.238 2.708 2.028 4.738 2.715 3.738 1.265 4.693 1.879 6.435 4.141 1.048 1.361 1.986 2.078 3.4 2.6 2.212.817 4.476 2.214 6.609 4.076.802.7 2.461 1.914 3.687 2.699 1.226.784 2.683 2.146 3.239 3.026.556.88 2.031 2.282 3.278 3.114 1.247.832 2.464 1.872 2.703 2.311 1.201 2.201 2.061 3.093 3.768 3.909 1.357.649 2.263 1.494 3.314 3.092.796 1.21 2.233 2.752 3.193 3.429.961.676 2.384 2.149 3.163 3.272.779 1.124 2.085 2.692 2.902 3.485.817.794 2.24 2.562 3.162 3.929.921 1.367 2.44 3.367 3.373 4.443 1.096 1.263 2.144 3.139 2.957 5.292 1.078 2.857 1.56 3.593 3.358 5.13 1.729 1.476 2.368 2.415 3.614 5.307.948 2.203 1.95 3.864 2.684 4.452 1.27 1.018 2.382 2.957 3.38 5.895.35 1.031.799 2.074.999 2.32l1.821 2.247c2.327 2.872 3.291 5.707 3.973 11.672.235 2.048.457 2.467 2.262 4.263 2.41 2.397 2.542 2.934 3.107 12.613.535 9.179 1.264 13.032 2.96 15.645 2.433 3.752 3.02 10.453 3.036 34.665.014 20.815-.552 25.601-3.628 30.701-2.145 3.557-2.272 4.201-2.754 14.004-.447 9.081-.634 9.869-2.808 11.837-1.579 1.429-2.34 3.216-2.798 6.577-.541 3.964-.919 4.788-3.352 7.316-1.445 1.5-1.999 2.496-2.674 4.8-1.426 4.865-2.072 6.356-3.584 8.271-.798 1.01-2.03 3.273-2.739 5.029-1.362 3.375-2.238 4.562-4.318 5.847-1.258.778-2.174 2.354-3.497 6.017-.369 1.021-1.569 2.882-2.667 4.137-1.097 1.254-2.451 3.18-3.009 4.281-.558 1.101-2.037 3.147-3.288 4.548-1.251 1.401-2.787 3.184-3.413 3.962-.627.778-1.42 1.415-1.763 1.415-.963 0-3.222 1.896-4.308 3.615-.538.853-1.947 2.267-3.13 3.141-1.467 1.083-2.358 2.106-2.801 3.214-.432 1.08-1.294 2.088-2.568 3.003-1.054.757-2.501 2.103-3.214 2.991-.713.888-2.148 2.096-3.187 2.685-1.04.589-2.97 2.191-4.29 3.56-2.248 2.332-2.59 2.535-5.4 3.195-2.808.66-3.156.865-5.436 3.213-1.606 1.654-3.406 2.997-5.286 3.944-1.569.79-3.234 1.953-3.701 2.585-.829 1.121-2.09 1.631-7.088 2.867-1.216.301-2.42 1.1-4.157 2.758-2.184 2.085-2.793 2.43-5.689 3.223-3.889 1.066-5.006 1.613-7.037 3.448-2.113 1.909-3.302 2.207-10.046 2.518-5.712.264-5.9.302-8.6 1.724-1.518.8-4.057 2.1-5.642 2.889l-2.882 1.435-10.318.578c-5.675.318-13.018.945-16.318 1.393-7.529 1.024-19.885 1.134-26.4.236-6.943-.957-11.401-1.359-20.132-1.815-8.989-.47-7.641-.105-15.552-4.213-2.762-1.434-3.115-1.511-8.369-1.833-6.496-.397-8.434-.964-11.282-3.3-1.171-.961-2.79-1.944-3.597-2.184-.807-.24-2.778-.82-4.379-1.29-2.374-.696-3.132-1.129-4.114-2.351-1.509-1.878-3.45-2.975-6.775-3.828-3.397-.872-5.115-1.704-5.406-2.62-.129-.408-1.436-1.335-2.904-2.061-1.741-.862-3.58-2.244-5.295-3.982-1.986-2.012-3.063-2.779-4.411-3.142-2.639-.71-3.929-1.474-6.515-3.861-1.282-1.183-3.009-2.496-3.837-2.919-.828-.422-2.339-1.614-3.359-2.648s-2.713-2.44-3.763-3.124c-1.39-.905-2.237-1.876-3.11-3.564-.752-1.454-1.753-2.686-2.683-3.302-.815-.541-2.03-1.78-2.7-2.754-1.296-1.883-3.156-3.424-4.132-3.424-.635 0-3.485-2.941-3.485-3.597 0-.217-.898-1.387-1.997-2.599-1.135-1.254-2.862-3.93-4.003-6.204-1.104-2.2-2.242-4-2.528-4-.704 0-2.06-1.897-3.203-4.482-.657-1.485-1.676-2.764-3.374-4.236-2.33-2.018-2.463-2.236-3.151-5.154-.711-3.018-1.76-4.978-4.16-7.778-.902-1.052-1.498-2.452-2.174-5.11-1.047-4.117-1.592-5.128-3.581-6.645-1.591-1.213-2.309-2.925-3.25-7.749-.796-4.081-1.851-6.654-3.384-8.246-2.119-2.202-2.395-3.489-2.395-11.161 0-8.042-.416-10.571-2.752-16.713-2.877-7.564-2.962-8.361-2.978-27.926-.018-20.752.237-23.143 2.942-27.619 2.06-3.41 2.769-7.611 2.78-16.477.009-6.51.595-9.003 2.614-11.11 1.253-1.308 2.684-5.391 3.582-10.22.743-3.991 1.169-4.837 3.657-7.256.952-.924 1.844-2.184 1.984-2.8 1.113-4.918 1.878-6.664 3.734-8.519 2.043-2.043 2.375-2.713 3.463-6.984.603-2.371.973-3.024 2.489-4.4 1.186-1.075 2.293-2.69 3.312-4.831 1.071-2.25 2.021-3.61 3.159-4.524.903-.727 2.143-2.32 2.788-3.584 1.205-2.359 1.767-3.176 3.874-5.625.686-.798 1.908-2.489 2.717-3.758.808-1.269 2.337-2.979 3.397-3.8 1.061-.821 2.348-2.123 2.861-2.893 1.605-2.408 2.522-3.272 4.282-4.036 1.132-.491 1.847-1.114 2.127-1.852.563-1.487 1.75-2.714 4.217-4.357 1.127-.751 2.549-2.087 3.161-2.969.715-1.032 2.248-2.278 4.301-3.495 1.755-1.04 3.96-2.565 4.9-3.39.94-.824 2.877-2.023 4.305-2.663 2.021-.907 2.875-1.572 3.861-3.004 1.349-1.962 3.006-2.984 6.223-3.841 2.411-.642 3.465-1.285 5.598-3.415 1.266-1.264 2.486-1.924 5.532-2.995 2.707-.952 4.537-1.89 5.954-3.052 1.557-1.277 2.82-1.887 5.281-2.55 4.541-1.223 6.281-1.972 7.445-3.204 1.843-1.951 4.266-2.877 8.469-3.236 4.074-.349 7.069-1.366 9.616-3.266 3.27-2.44 4.807-2.67 18.22-2.728 6.757-.029 14.355-.19 16.885-.359 2.53-.168 8.92-.235 14.2-.148l23.8.392" fill="#040404"/></g></svg>