<svg xmlns="http://www.w3.org/2000/svg" width="32" height="32" viewBox="0 0 400 400"><g fill-rule="evenodd"><path d="m186.7 77.156-7.1.244-1.2 1.134c-.918.868-1.2 1.486-1.2 2.633 0 .825-.135 1.634-.3 1.798-.165.165-.507 1.32-.761 2.567-.823 4.05-2.09 8.579-2.52 9.009-.23.23-.419.822-.419 1.315s-.18 1.008-.4 1.144c-.22.136-.4.755-.4 1.375s-.27 1.351-.6 1.625c-.33.274-.6.748-.6 1.054 0 .306-.156.869-.347 1.251-1.557 3.12-3.653 7.605-3.653 7.818 0 .144-.63 1.246-1.4 2.45-.77 1.204-1.4 2.271-1.4 2.371 0 .24-4.843 7.479-5.973 8.929-.483.62-1.786 2.297-2.895 3.727-5.645 7.277-13.956 15.674-22.427 22.661-.938.773-2.076 1.72-2.529 2.104-1.511 1.279-5.338 4.035-5.604 4.035-.144 0-.827.46-1.517 1.023-1.765 1.439-5.363 3.777-5.812 3.777-.207 0-.436.142-.51.316-.312.74-16.716 8.884-17.893 8.884-.242 0-.44.18-.44.4 0 .22-.495.406-1.1.413-.605.007-1.449.277-1.876.6-.428.323-1.182.587-1.677.587-.495 0-1.011.18-1.147.4-.136.22-.666.4-1.178.4-.512 0-1.446.269-2.076.598-.63.328-1.63.598-2.222.6-.592.001-1.176.162-1.297.358-.121.195-.806.451-1.523.567-1.759.286-5.943 1.311-6.783 1.663-.373.156-1.138.886-1.7 1.622l-1.021 1.339.013 19.726.014 19.727 1.103 1.6c.679.984 1.482 1.653 2.087 1.738.541.076 1.175.296 1.409.488.235.192 1.455.471 2.712.618 1.256.148 2.38.423 2.497.612.117.189.663.344 1.213.344 1.225 0 4.882 1.163 5.182 1.648.119.194.736.352 1.37.352.634 0 1.251.16 1.372.355.121.195.851.473 1.624.618.772.145 1.404.435 1.404.645 0 .21.345.382.768.382.422 0 1.277.253 1.9.563.622.31 1.582.74 2.132.956 2.059.809 8.205 3.892 8.333 4.181.074.165.468.3.877.3.408 0 .851.175.983.389.133.214.908.699 1.724 1.077s2.04 1.103 2.721 1.611 1.384.923 1.562.923c.178 0 .914.45 1.636 1 .721.55 1.425 1 1.564 1s.843.45 1.564 1c.722.55 1.437 1 1.591 1 .154 0 .765.45 1.358 1 .594.55 1.306 1 1.583 1 .277 0 .504.152.504.337 0 .186.9.951 1.999 1.7 1.1.75 2 1.498 2 1.663.001.165.19.3.42.3.231 0 .836.45 1.346 1 .51.55 1.098 1 1.308 1 .536 0 12.719 12.055 15.352 15.19 1.196 1.425 2.407 2.84 2.691 3.145 2.091 2.246 10.179 13.626 11.133 15.665.155.33.586 1.05.959 1.6.62.913 2.902 4.954 3.615 6.4 1.924 3.902 2.377 5.015 2.377 5.837 0 .53.168.963.373.963s.487.405.625.9c.139.495.394 1.26.567 1.7 1.046 2.655 1.422 3.898 2.787 9.2 1.398 5.433 1.648 6.578 1.648 7.561 0 3.528 2.244 3.916 22 3.812 9.13-.049 17.32-.063 18.2-.032 2.87.1 5.4-1.522 5.4-3.464 0-.648.27-1.826.6-2.615.33-.79.6-2.061.6-2.826 0-.764.18-1.5.4-1.636.22-.136.4-.719.4-1.295 0-1.203.625-3.39 1.44-5.037.308-.623.56-1.568.56-2.1 0-.533.18-.968.4-.968.22 0 .4-.518.4-1.151s.27-1.375.6-1.649c.33-.274.6-.765.6-1.09 0-.834 5.24-11.31 5.657-11.31.189 0 .343-.341.343-.757 0-.417.27-.861.6-.988.33-.126.6-.596.6-1.042 0-.447.18-.813.4-.813.22 0 .4-.27.4-.6 0-.33.177-.6.392-.6.216 0 .506-.45.644-1s.383-1 .544-1c.162 0 .633-.63 1.048-1.4.415-.77.893-1.4 1.063-1.4.17 0 .309-.239.309-.53 0-.292.45-.953 1-1.47s1-1.108 1-1.314c0-.402 3.2-4.397 3.7-4.619.165-.074.3-.299.3-.5 0-.202.315-.697.7-1.099.385-.403 1.51-1.697 2.5-2.875 2.11-2.512 13.197-13.593 13.6-13.593.152 0 .799-.465 1.438-1.032.639-.568 2.152-1.783 3.362-2.7 1.21-.918 2.648-2.073 3.196-2.568.548-.495 1.141-.9 1.317-.9.177 0 .807-.45 1.4-1 .594-.55 1.215-1 1.382-1 .167 0 1.159-.606 2.204-1.347a47.927 47.927 0 0 1 3.901-2.44c1.1-.601 2.284-1.345 2.631-1.653.348-.308.828-.56 1.067-.56.24 0 .495-.135.569-.3.073-.165 1.09-.792 2.259-1.393a857.395 857.395 0 0 0 3.2-1.653 83.044 83.044 0 0 1 2.674-1.308c.88-.41 1.66-.881 1.733-1.046.074-.165.468-.3.877-.3.408 0 .854-.18.99-.4.136-.22.575-.4.975-.4s.951-.27 1.225-.6c.274-.33 1.016-.6 1.649-.6s1.151-.166 1.151-.368c0-.203.585-.494 1.3-.646.715-.153 1.48-.413 1.7-.579.22-.165.85-.396 1.4-.513.926-.197 2.657-.771 4.6-1.524.866-.335 2.015-.594 5.352-1.204 1.183-.216 2.477-.567 2.874-.78.397-.212 1.153-.386 1.682-.386.562 0 1.402-.496 2.026-1.197l1.066-1.196v-20.604c0-11.798-.152-20.603-.357-20.603-.196 0-.459-.405-.584-.9-.27-1.069-1.722-1.753-4.459-2.103-1.1-.14-2.45-.401-3-.58-.55-.178-1.81-.546-2.8-.817-3.072-.842-5.773-1.683-6.413-1.997-.337-.166-1.192-.428-1.9-.584-.708-.155-1.287-.448-1.287-.651 0-.202-.362-.368-.805-.368-.443 0-1.118-.154-1.5-.341-.727-.357-2.399-1.1-5.095-2.263-3.183-1.373-7.603-3.599-7.733-3.894-.074-.166-.484-.302-.913-.302-.428 0-.883-.27-1.009-.6-.127-.33-.484-.6-.795-.6-.619 0-8.682-4.946-9.925-6.088-.427-.391-.909-.712-1.072-.712-.163 0-.534-.228-.824-.507-.291-.279-1.519-1.208-2.729-2.064-1.21-.856-2.56-1.875-3-2.264-.44-.389-2.15-1.844-3.8-3.235-5.221-4.399-15.831-15.278-19.279-19.767-.492-.64-1.007-1.253-1.146-1.363-.668-.528-6.95-9.696-7.538-11-.198-.44-.737-1.197-1.199-1.683-.461-.486-.838-1.075-.838-1.308 0-.234-.45-1.138-1-2.009s-1-1.681-1-1.8-.45-.929-1-1.8-1-1.948-1-2.392c0-.444-.18-.808-.4-.808-.22 0-.4-.347-.4-.771 0-.425-.27-1.042-.6-1.372-.33-.33-.6-.946-.6-1.369 0-.423-.45-1.615-1-2.65-.55-1.034-1-2.146-1-2.472 0-.325-.385-1.711-.856-3.079-.47-1.368-.998-3.117-1.172-3.887-.174-.77-.611-2.57-.971-4-.361-1.43-.752-3.275-.87-4.1-.437-3.052-1.596-3.5-9.062-3.501a772.036 772.036 0 0 1-13.269-.144c-3.74-.078-9.995-.032-13.9.101m21.626 14.79c.856.543 1.635 2.368 1.916 4.489.145 1.091.42 2.08.611 2.198.191.118.347 1.089.347 2.157 0 1.069.198 2.009.439 2.09.242.08.535.995.652 2.033.117 1.038.37 1.887.561 1.887.191 0 .348.366.348.813 0 1.039 2.013 7.01 3.57 10.587.192.44.646 1.52 1.009 2.4.363.88.831 1.913 1.04 2.295.21.382.381.967.381 1.3 0 .333.146.605.325.605.179 0 .714.855 1.19 1.9s1.429 2.89 2.119 4.1c.689 1.21 1.702 3.01 2.251 4 1.412 2.548 4.636 7.762 4.947 8 .144.11.949 1.28 1.789 2.6s1.764 2.638 2.053 2.929c.289.29.526.671.526.845 0 .174.417.746.926 1.271.51.525 1.987 2.305 3.284 3.955 3.204 4.077 16.735 17.577 17.654 17.613.185.008 1.222.816 2.305 1.795 1.084.98 2.299 1.887 2.7 2.014.402.128.731.4.731.605 0 .205.255.373.567.373.311 0 .626.139.7.31.183.425 5.037 3.69 5.486 3.69.199 0 .465.27.592.6.126.33.596.6 1.042.6.447 0 .813.159.813.353 0 .195.315.455.7.578.385.124 1.69.793 2.9 1.487 4.45 2.554 8.46 4.382 9.611 4.382.434 0 .789.172.789.382 0 .21.675.503 1.5.652.825.149 1.68.406 1.9.571.22.165 1.03.401 1.8.525 1.542.248 4.861.908 7.506 1.493.938.207 2.761.377 4.051.377 5.028 0 6.443 1.571 6.443 7.154 0 3.978-1.35 6.37-3.667 6.497a22.46 22.46 0 0 0-1.733.171c-.44.066-2.24.299-4 .518-1.76.219-4.46.695-6 1.058-1.54.362-3.475.755-4.3.872-.825.118-1.5.359-1.5.537 0 .177-.72.444-1.6.593-.88.149-1.6.434-1.6.635s-.518.365-1.151.365-1.375.27-1.649.6c-.274.33-.722.6-.996.6-1.279 0-13.466 6.954-15.579 8.89-.427.39-.907.71-1.067.71-.161 0-1.465.945-2.898 2.1a297.15 297.15 0 0 1-3.427 2.729c-4.321 3.313-14.494 13.292-17.87 17.528-.42.527-1.348 1.577-2.063 2.335-.715.757-1.3 1.516-1.3 1.686 0 .171-.63.978-1.4 1.795-.77.816-1.4 1.559-1.4 1.651 0 .092-1.035 1.657-2.3 3.479s-2.516 3.669-2.781 4.104c-2.965 4.892-5.092 8.729-6.868 12.393-3.785 7.809-4.051 8.402-4.051 9.026 0 .338-.147.785-.328.994-.395.458-2.328 5.535-2.697 7.084-.145.607-.424 1.202-.619 1.323-.196.121-.356.739-.356 1.373s-.18 1.264-.4 1.4c-.22.136-.4.832-.4 1.547s-.264 1.649-.587 2.077c-.323.427-.593 1.53-.6 2.452-.007.922-.169 1.773-.36 1.891-.191.119-.469 1.254-.618 2.524-.528 4.505-1.374 4.909-10.262 4.909-7.514 0-9.173-.45-9.173-2.489 0-.365-.18-.775-.4-.911-.22-.136-.401-.912-.402-1.724-.002-.812-.272-1.992-.6-2.622-.329-.63-.598-1.845-.598-2.7 0-.855-.169-1.554-.375-1.554-.207 0-.498-.812-.647-1.805-.149-.993-.43-1.903-.624-2.024-.195-.12-.354-.637-.354-1.149s-.269-1.446-.598-2.076c-.328-.63-.598-1.45-.6-1.822-.001-.372-.182-.788-.402-.924-.22-.136-.4-.597-.4-1.026 0-.428-.45-1.711-1-2.851s-1-2.3-1-2.577c0-.277-.45-1.35-1-2.384-.55-1.035-1-2.128-1-2.43 0-.301-.45-1.261-1-2.132-.55-.871-1-1.858-1-2.192 0-.334-.177-.608-.392-.608-.216 0-.506-.45-.644-1s-.411-1-.607-1c-.197 0-.357-.274-.357-.608 0-.334-.45-1.321-1-2.192-.55-.871-1-1.686-1-1.811s-.596-1.164-1.324-2.308c-.729-1.145-1.443-2.396-1.588-2.781-.144-.385-.449-.7-.675-.7a.421.421 0 0 1-.413-.427c0-.465-2.014-3.291-2.5-3.506-.165-.074-.3-.332-.3-.575 0-.242-.72-1.294-1.6-2.338-.88-1.044-1.6-2.014-1.6-2.157 0-.142-.495-.776-1.1-1.409-.605-.632-2.09-2.339-3.3-3.792-2.212-2.657-9.486-10.132-11.252-11.564a231.764 231.764 0 0 1-3.544-3c-3.501-3.011-3.338-2.878-5.177-4.209-.895-.647-1.627-1.322-1.627-1.5 0-.178-.192-.323-.427-.323-.465 0-3.291-2.014-3.506-2.5-.074-.165-.38-.3-.682-.3-.302 0-.999-.45-1.549-1-.55-.55-1.104-1-1.231-1-.128 0-1.981-1.053-4.118-2.34-3.908-2.353-5.921-3.376-7.587-3.855-.495-.142-.9-.427-.9-.632 0-.205-.429-.373-.954-.373-.525 0-1.47-.269-2.1-.598-.63-.328-1.45-.598-1.822-.6-.372-.001-.776-.162-.897-.358-.121-.195-.806-.454-1.523-.575-.717-.121-2.564-.516-4.104-.877-1.54-.362-5.123-.911-7.962-1.219-5.164-.562-6.638-1.102-6.638-2.435 0-.296-.193-.538-.428-.538-.45 0-.296-5.662.23-8.444.353-1.869 2.093-2.756 5.406-2.756 1.309 0 3.148-.172 4.086-.382.938-.211 2.606-.586 3.706-.835s2.72-.547 3.6-.663c.88-.115 1.78-.346 2-.513.22-.166 1.075-.424 1.9-.573.825-.149 1.5-.442 1.5-.652 0-.21.63-.382 1.4-.382.77 0 1.4-.18 1.4-.4 0-.22.198-.4.44-.4 1.212 0 11.617-5.235 13.191-6.638.348-.309.76-.562.917-.562.157 0 .503-.178.769-.395.929-.759 4.093-3.019 5.283-3.774.66-.418 1.918-1.451 2.796-2.296.878-.844 1.793-1.535 2.034-1.535.241 0 .884-.495 1.43-1.1.545-.605 1.79-1.789 2.766-2.631 2.809-2.425 8.25-7.819 10.923-10.83 1.348-1.518 2.727-3.048 3.064-3.4.337-.351 1.32-1.539 2.186-2.639.865-1.1 1.804-2.144 2.087-2.32.283-.176.514-.537.514-.803 0-.265.812-1.471 1.804-2.68.992-1.208 1.904-2.512 2.027-2.897.122-.385.37-.7.55-.7.18 0 .631-.585 1.003-1.3 1.028-1.98 1.603-2.961 2.089-3.557.243-.299.792-1.173 1.219-1.943l2.113-3.8c1.723-3.094 2.589-4.819 3.415-6.8 1.162-2.789 1.97-4.396 2.28-4.533.165-.074.3-.488.3-.92 0-.433.275-1.319.611-1.969.897-1.733 3.055-7.97 3.282-9.482.107-.717.356-1.402.551-1.523.196-.121.357-.705.358-1.297.002-.592.272-1.592.6-2.222.329-.63.598-1.734.598-2.454 0-.72.269-1.824.598-2.454.328-.63.598-1.81.6-2.622.001-.812.182-1.588.402-1.724.22-.136.4-.588.4-1.004 0-.416.315-.94.7-1.164.845-.492 16.063-.57 16.826-.086" fill="#f9f9f9"/><path d="M0 200v200h400V0H0v200M217.577 76.624c4.501.251 4.693.345 5.798 2.849.309.7.749 2.32.978 3.6.891 4.986 1.116 5.957 1.573 6.801.261.48.474 1.325.474 1.876 0 .552.18 1.114.4 1.25.22.136.406.732.413 1.324.007.592.277 1.425.6 1.852.323.428.587 1.193.587 1.7 0 .508.18.924.4.924.22 0 .4.331.4.737 0 .66 2.009 5.122 3.991 8.863.408.77 1.327 2.525 2.043 3.9.717 1.375 1.432 2.5 1.591 2.5.159 0 .401.45.539 1s.428 1 .644 1c.215 0 .392.255.392.567 0 .311.135.626.3.7.399.177 2.5 3.422 2.5 3.861 0 .189.72 1.079 1.6 1.977.88.898 1.6 1.817 1.6 2.043 0 .226.915 1.366 2.034 2.532 1.119 1.166 2.446 2.75 2.95 3.52 1.363 2.082 15.424 16 16.165 16 .175 0 1.141.81 2.145 1.8s2.008 1.8 2.232 1.8c.223 0 1.186.715 2.14 1.589.954.874 1.914 1.597 2.134 1.607.22.009 1.03.574 1.8 1.255.77.681 1.76 1.398 2.2 1.593.903.4 1.622.838 4.2 2.556 2.62 1.747 3.214 2.097 5.1 3.003.935.449 1.7.992 1.7 1.207 0 .214.435.39.967.39.531 0 1.026.135 1.1.3.199.448 5.52 2.9 6.293 2.9.242 0 .44.18.44.4 0 .22.272.4.605.4.611 0 .9.116 3.327 1.332.733.368 1.591.668 1.906.668.578 0 .876.121 3.294 1.332.733.368 1.848.668 2.477.668.629 0 1.255.18 1.391.4.136.22.845.4 1.575.4s1.551.27 1.825.6c.317.381 1.2.6 2.425.6 1.06 0 2.039.18 2.175.4.136.22.822.401 1.524.403 1.567.003 3.346 1.126 4.106 2.591.66 1.27.87 43.006.217 43.006-.195 0-.441.335-.548.745-.276 1.054-2.492 2.046-5.205 2.329-1.275.133-2.414.396-2.53.584-.116.188-.886.342-1.711.342-.825 0-1.849.264-2.277.587-.427.323-1.361.593-2.076.6-.715.007-1.3.193-1.3.413 0 .22-.608.4-1.351.4s-1.575.27-1.849.6c-.274.33-1.016.6-1.649.6s-1.152.135-1.152.3c-.001.165-.856.634-1.9 1.042-2.231.872-11.808 5.538-12.099 5.895-.11.134-.92.576-1.8.981-.88.404-2.14 1.124-2.8 1.6-.66.475-1.47.982-1.8 1.126-.33.144-1.32.714-2.2 1.268-.88.553-2.005 1.211-2.5 1.461-.495.251-.9.607-.9.791 0 .185-.192.336-.427.336-.361 0-2.94 1.738-3.573 2.407-.11.116-.74.555-1.4.974-1.656 1.053-7.221 5.602-9.4 7.684-.99.946-2.223 2.016-2.741 2.379-1.071.75-3.512 3.171-5.859 5.812-6.34 7.134-7.078 8.003-8.777 10.331-.647.887-1.322 1.613-1.5 1.613-.178 0-.323.338-.323.751s-.3.998-.666 1.3c-.367.302-1.296 1.539-2.066 2.749-.769 1.21-1.518 2.29-1.663 2.4-.145.11-.384.47-.532.8-.147.33-.494.949-.77 1.377-1.996 3.083-3.103 5.068-3.103 5.561 0 .317-.27.68-.6.807-.33.126-.6.596-.6 1.042 0 .447-.18.813-.4.813-.22 0-.4.349-.4.776 0 .427-.175.885-.389 1.017-.214.133-.679.908-1.032 1.724a105.5 105.5 0 0 1-1.617 3.483c-.536 1.1-.972 2.383-.968 2.851.003.468-.264 1.075-.594 1.349-.33.274-.6 1.005-.6 1.625 0 .62-.18 1.239-.4 1.375-.22.136-.401.732-.402 1.324-.002.592-.272 1.592-.6 2.222-.329.63-.598 1.834-.598 2.676 0 .842-.155 1.626-.344 1.743-.189.117-.457 1.182-.596 2.367-.759 6.453-1.225 6.668-14.447 6.668-8.558 0-11.038.123-12.562.621-1.717.562-2.185.562-4.875.001-1.706-.356-4.972-.621-7.652-.622-2.686 0-4.782-.17-4.924-.4-.136-.22-.557-.4-.935-.4-.807 0-2.065-1.347-2.065-2.21 0-.33-.172-.913-.382-1.295-.21-.382-.579-1.775-.821-3.095-.937-5.124-1.14-6.055-1.666-7.673-.3-.921-.677-1.806-.838-1.967-.161-.161-.293-.789-.293-1.394 0-.606-.3-1.701-.668-2.434-1.193-2.382-1.332-2.714-1.332-3.197 0-.646-3.173-7.071-3.633-7.355-.202-.125-.367-.577-.367-1.004 0-.427-.135-.778-.3-.78-.165-.002-.655-.812-1.09-1.8-.434-.988-.917-1.796-1.073-1.796-.156 0-.409-.396-.563-.881-.309-.973-4.197-6.84-4.674-7.052-.165-.074-.3-.307-.3-.518 0-.211-.45-.869-1-1.462-.55-.594-1-1.306-1-1.583 0-.277-.145-.504-.323-.504-.178 0-.853-.728-1.5-1.618-1.331-1.83-3.492-4.424-4.977-5.977a34.249 34.249 0 0 1-2.051-2.425c-1.538-2.021-6.927-7.429-10.149-10.184-1.54-1.318-3.25-2.816-3.8-3.33-.55-.515-1.63-1.356-2.4-1.87a32.576 32.576 0 0 1-2.8-2.164c-.77-.677-1.529-1.231-1.686-1.231-.158-.001-.839-.541-1.514-1.201s-1.499-1.2-1.831-1.2c-.332 0-1.089-.45-1.682-1-.594-.55-1.306-1-1.583-1-.277 0-.504-.139-.504-.309 0-.17-.675-.663-1.5-1.096-.825-.433-1.59-.902-1.7-1.042-.169-.216-1.555-.982-7.13-3.939-.368-.196-.94-.458-1.27-.582a9.18 9.18 0 0 1-1.2-.584c-1.414-.84-6.638-3.251-7.04-3.25-.243.001-1.287-.448-2.322-.998-1.034-.55-2.209-1-2.61-1-.402 0-.954-.27-1.228-.6-.274-.33-1.106-.6-1.849-.6-.743 0-1.351-.18-1.351-.4 0-.22-.585-.406-1.3-.413-.715-.007-1.649-.277-2.076-.6-.428-.323-1.542-.587-2.477-.587-.935 0-1.795-.154-1.912-.343-.116-.188-1.089-.447-2.162-.574-2.434-.288-4.426-1.375-5.324-2.906-.81-1.381-1.148-42.577-.349-42.577.22 0 .4-.263.4-.584 0-1.01 1.648-2.174 3.463-2.446.961-.144 1.845-.422 1.966-.616.12-.195.907-.354 1.749-.354.842 0 2.046-.269 2.676-.598.63-.328 1.63-.598 2.222-.6.592-.001 1.188-.182 1.324-.402.136-.22.822-.406 1.524-.413.702-.007 1.625-.277 2.052-.6.428-.323 1.182-.587 1.677-.587.495 0 1.011-.18 1.147-.4.136-.22.599-.4 1.029-.4.43 0 1.094-.174 1.476-.386.382-.212 1.595-.774 2.695-1.247 1.1-.474 2.709-1.2 3.575-1.614.866-.414 1.811-.753 2.1-.753.289 0 .525-.145.525-.323 0-.354 2.788-1.677 3.534-1.677.256 0 .466-.177.466-.392 0-.216.45-.506 1-.644s1-.411 1-.607c0-.197.338-.357.751-.357s.975-.27 1.249-.6c.274-.33.677-.6.895-.6.219 0 1.256-.63 2.305-1.4 1.049-.77 2.108-1.4 2.354-1.4.245 0 .446-.168.446-.373s.392-.497.871-.649c.479-.152 1.332-.705 1.896-1.227.563-.523 1.207-.952 1.429-.953.222-.001 1.089-.631 1.926-1.4.838-.769 1.648-1.401 1.8-1.404.257-.006 1.126-.723 4.278-3.529.66-.588 1.715-1.4 2.345-1.806 1.527-.982 14.99-14.428 16.481-16.459 1.404-1.913 2.397-3.109 3.874-4.667.605-.638 1.1-1.343 1.1-1.566 0-.223.45-.822 1-1.332.55-.51 1-1.05 1-1.2 0-.32 3.144-4.939 3.947-5.8.301-.323.724-1.092.939-1.711.216-.618.555-1.124.753-1.124.199 0 .361-.36.361-.8 0-.44.135-.804.3-.808.165-.005.929-1.355 1.699-3 .769-1.646 1.534-2.992 1.7-2.992.165 0 .301-.45.301-1s.18-1 .4-1c.22 0 .4-.326.4-.724 0-.397.264-1.072.587-1.5.323-.427.593-1.091.6-1.476.007-.385.193-.7.413-.7.22 0 .4-.518.4-1.151s.27-1.375.6-1.649c.33-.274.6-1.005.6-1.625 0-.62.18-1.239.4-1.375.22-.136.401-.732.402-1.324.002-.592.272-1.592.6-2.222.329-.63.598-1.834.598-2.676 0-.842.162-1.631.361-1.754.198-.122.486-1.303.639-2.624.153-1.321.441-2.502.639-2.624.199-.123.361-.543.361-.933 0-1.749 2.167-2.841 5.697-2.871 1.816-.016 3.663-.189 4.103-.385.813-.362 23.316-.19 30.977.237M191.661 93.3c-.26.495-.736 2.07-1.056 3.5-1.063 4.741-1.602 6.731-1.905 7.034-.165.164-.3.955-.3 1.756s-.264 1.806-.587 2.234c-.323.427-.593 1.26-.6 1.852-.007.592-.193 1.188-.413 1.324-.22.136-.4.755-.4 1.375s-.27 1.351-.6 1.625c-.33.274-.6.928-.6 1.454 0 .526-.167 1.269-.371 1.651-.205.382-.745 1.55-1.2 2.595a212.787 212.787 0 0 1-1.629 3.626c-.44.95-.8 1.94-.8 2.2 0 .261-.18.474-.4.474-.22 0-.4.338-.4.751s-.27.975-.6 1.249c-.33.274-.6.825-.6 1.225 0 .4-.18.839-.4.975-.22.136-.4.577-.4.981 0 .403-.27.837-.6.964-.33.126-.6.596-.6 1.042 0 .447-.139.813-.309.813-.17 0-.655.675-1.077 1.5a25.725 25.725 0 0 1-1.691 2.773c-.508.701-.923 1.466-.923 1.7 0 .235-.18.427-.4.427-.22 0-.4.351-.4.78 0 .429-.242.924-.537 1.1-.295.176-.876.86-1.291 1.52-.414.66-.866 1.29-1.003 1.4-.137.11-.704.92-1.259 1.8-.556.88-1.483 2.104-2.06 2.721-.578.616-1.05 1.248-1.05 1.404 0 .156-.406.731-.902 1.279-.496.548-2.062 2.346-3.48 3.996-3.665 4.262-10.266 11.002-12.618 12.882-1.1.879-2.72 2.259-3.6 3.065-.88.806-2.41 2.091-3.4 2.855-.99.764-2.248 1.797-2.796 2.294-.548.497-1.141.904-1.317.904-.177 0-.807.45-1.4 1-.594.55-1.244 1-1.445 1-.202 0-.956.45-1.678 1-.721.55-1.503 1-1.737 1-.235 0-.427.159-.427.353 0 .195-.315.455-.7.579-.385.124-1.6.773-2.7 1.441-1.1.669-2.27 1.325-2.6 1.458-1.861.749-5.207 2.192-6.095 2.628-.382.187-1.022.341-1.423.341s-1.078.264-1.506.587c-.427.323-1.093.593-1.481.6-.388.007-1.018.173-1.4.37-1.262.647-5.144 1.643-6.407 1.643-.682 0-1.352.18-1.488.4-.136.22-1.722.411-3.524.424-1.914.015-4.191.311-5.476.714l-2.2.689-.338 3.186c-.83 7.827-.814 7.839 11.138 8.823 1.32.108 2.76.354 3.2.546.796.348 3.493 1.089 5.4 1.484.55.114 1.63.473 2.4.798 2.013.849 3.051 1.277 4.3 1.773.605.24 1.61.69 2.232 1 .623.31 1.388.563 1.7.563.313 0 .568.145.568.323 0 .178.765.66 1.7 1.073.935.412 2.51 1.319 3.5 2.016.99.696 2.115 1.378 2.5 1.514.385.137.7.435.7.661 0 .227.27.413.6.413.33 0 .6.18.6.4 0 .22.276.4.613.4.336 0 .716.27.842.6.127.33.526.605.888.611.361.006 1.437.726 2.391 1.6.954.874 1.856 1.589 2.005 1.589.148 0 .988.64 1.865 1.421.878.782 2.046 1.727 2.596 2.099 2.63 1.78 16.662 15.697 18.23 18.08.506.77 1.649 2.21 2.539 3.2.89.99 1.621 2.016 1.625 2.28.003.264.249.624.545.8.297.176 1.062 1.13 1.7 2.12.639.99 1.296 1.86 1.461 1.933.165.074.3.367.3.651 0 .285.253.728.563.985.31.257.859 1.045 1.22 1.749.362.705 1.179 2.092 1.817 3.082.638.99 1.454 2.43 1.813 3.2.36.77.815 1.67 1.013 2 .198.33.726 1.32 1.174 2.2.448.88.97 1.87 1.162 2.2.452.782 2.476 5.17 2.859 6.2.579 1.557 1.623 4.009 1.998 4.695.21.382.381 1.125.381 1.651s.27 1.18.6 1.454c.33.274.6 1.016.6 1.649s.18 1.151.4 1.151c.22 0 .406.585.413 1.3.007.715.277 1.649.6 2.076.323.428.587 1.362.587 2.077 0 .715.18 1.411.4 1.547.22.136.4.683.4 1.216 0 .532.254 1.646.564 2.476.31.829.801 2.65 1.091 4.045.81 3.901 1.177 4.063 9.227 4.063 7.153 0 8.51-.305 8.869-1.995.117-.553.368-1.815.557-2.805.19-.99.558-2.193.818-2.674.261-.48.474-1.605.474-2.5 0-.894.157-1.626.348-1.626.191 0 .444-.849.561-1.887.117-1.038.41-1.953.652-2.033.241-.081.439-.751.439-1.49 0-.738.18-1.454.4-1.59.22-.136.401-.552.402-.924.002-.372.272-1.192.6-1.822.329-.63.598-1.47.598-1.867 0-.787 1.216-3.305 1.7-3.52.165-.074.3-.481.3-.906 0-.702.311-1.48 1.265-3.161.187-.33.442-.87.567-1.2.124-.33.393-.913.597-1.295.204-.382.371-.945.371-1.251 0-.306.27-.78.6-1.054.33-.274.6-.836.6-1.249 0-.413.18-.751.4-.751.22 0 .4-.338.4-.751s.27-.975.6-1.249c.33-.274.6-.836.6-1.249 0-.413.141-.751.313-.751.172 0 .931-1.17 1.687-2.6.756-1.43 1.495-2.6 1.642-2.6.147 0 .57-.585.942-1.3 1.238-2.385 1.708-3.141 2.565-4.127.468-.539.851-1.158.851-1.376 0-.218.315-.73.7-1.137.989-1.046 1.781-2.074 2.665-3.46.42-.66 1.163-1.576 1.65-2.035.487-.459 1.403-1.539 2.035-2.4 2.16-2.94 13.86-14.823 16.404-16.659.69-.498 3.076-2.391 5.303-4.206 2.227-1.815 4.318-3.3 4.646-3.3.328 0 .597-.164.597-.364 0-.497 8.489-5.797 11.6-7.243.33-.153 1.168-.574 1.862-.936.694-.361 1.549-.657 1.9-.657s.638-.18.638-.4c0-.22.288-.4.64-.4.351 0 1.206-.245 1.9-.544 2.853-1.231 3.542-1.456 4.455-1.456.527 0 1.063-.17 1.191-.377.128-.207 1.041-.498 2.028-.646.988-.148 1.894-.429 2.015-.623.12-.195 1.389-.354 2.821-.354 1.431 0 2.949-.185 3.372-.412.692-.37 3.145-.718 5.423-.769 2.068-.046 2.955-1.81 2.955-5.874 0-2.23-.162-3.745-.4-3.745-.22 0-.4-.36-.4-.8 0-.576-.267-.8-.954-.8-.525 0-1.47-.269-2.1-.598-.773-.402-2.343-.598-4.822-.6-2.022-.001-3.788-.182-3.924-.402-.136-.22-.716-.4-1.288-.4-1.101 0-5.034-1.041-6.207-1.643-.382-.197-1.012-.363-1.4-.37-.388-.007-1.054-.277-1.481-.6-.428-.323-1.105-.587-1.506-.587-.664 0-1.452-.32-3.118-1.265-.33-.187-.87-.448-1.2-.58-1.477-.592-3.149-1.444-5-2.548-1.1-.656-2.36-1.362-2.8-1.568-.44-.206-2.042-1.199-3.559-2.207-1.518-1.008-2.898-1.832-3.067-1.832-.169 0-.367-.153-.441-.339-.073-.187-.785-.772-1.582-1.3-2.327-1.544-6.084-4.432-6.953-5.347-.442-.465-1.792-1.58-3-2.479-2.24-1.666-9.559-9.028-11.879-11.949a73.145 73.145 0 0 0-2.9-3.366c-.891-.964-1.619-1.89-1.619-2.058 0-.168-.234-.543-.52-.833-.286-.291-1.313-1.609-2.283-2.929-.969-1.32-2.083-2.747-2.475-3.171-.392-.423-.817-1.098-.944-1.5-.128-.401-.4-.729-.605-.729-.205 0-.373-.317-.373-.704 0-.387-.45-1.189-1-1.783-.55-.593-1-1.356-1-1.696 0-.339-.139-.617-.309-.617-.17 0-.66-.675-1.089-1.5a59.312 59.312 0 0 0-1.691-2.992c-.501-.821-.911-1.766-.911-2.1 0-.334-.164-.608-.365-.608-.298 0-2.821-4.779-3.801-7.2-.133-.33-.588-1.14-1.009-1.8-.422-.66-.78-1.605-.796-2.1-.016-.495-.195-.9-.397-.9-.203 0-.487-.538-.631-1.195-.144-.658-.429-1.299-.632-1.424-.203-.126-.369-.657-.369-1.181s-.18-1.064-.4-1.2c-.22-.136-.401-.552-.402-.924-.002-.372-.272-1.192-.6-1.822-.329-.63-.598-1.733-.598-2.451s-.27-1.529-.6-1.803c-.33-.274-.6-1.095-.6-1.825s-.18-1.439-.4-1.575c-.22-.136-.4-.765-.4-1.398 0-.632-.18-1.624-.4-2.203-.22-.578-.665-2.32-.988-3.87-.867-4.157-.322-3.929-9.393-3.929-7.769 0-7.891.013-8.358.9" fill="#040404"/><path d="M187.8 76.777c-2.2.123 3.29.227 12.2.233 11.788.007 14.293-.061 9.2-.251-8.126-.304-15.733-.297-21.4.018m32.633.523c.092.055.702.55 1.355 1.1.885.745 1.038.796.6.2-.694-.944-1.249-1.385-1.755-1.394-.201-.003-.291.039-.2.094m2.4 3.1c-.012.55.238 1.72.555 2.6.735 2.039.748 1.019.021-1.6-.349-1.259-.563-1.63-.576-1m-46.376 1.87c-.299 1.359-.448 2.709-.332 3 .117.292.226-.019.243-.69.018-.671.225-1.413.461-1.649.236-.236.371-1.037.3-1.78-.113-1.188-.194-1.053-.672 1.119M224.012 86c0 .33.175.87.388 1.2.345.533.388.533.388 0 0-.33-.175-.87-.388-1.2-.345-.533-.388-.533-.388 0m-48.524.533c-.478 1.216-.364 2.24.151 1.354.228-.391.352-1.021.276-1.4-.127-.627-.164-.623-.427.046m49.364 2.267c-.022.33.219 1.32.536 2.2.476 1.32.58 1.422.594.58.01-.561-.145-1.191-.343-1.4-.199-.209-.448-.74-.554-1.18-.106-.442-.21-.531-.233-.2m-50.462 2.461c-.256.956-.628 2.052-.827 2.434-.482.922-.461 1.363.04.862.426-.426 1.629-4.658 1.392-4.895-.077-.077-.349.643-.605 1.599m17.11.771c-.385.224-.7.709-.7 1.077 0 .531.128.486.623-.22.823-1.176 16.002-1.407 17.148-.26.346.345.629.442.629.214 0-1.21-15.774-1.933-17.7-.811m35.3 3.846c0 .237.269.946.598 1.576.477.917.595.986.587.346-.006-.44-.275-1.149-.598-1.576-.323-.428-.587-.583-.587-.346m-54.315.935c-.267.427-.485 1.207-.485 1.733s-.27 1.18-.6 1.454c-.33.274-.6.806-.6 1.182 0 .377-.123.808-.274.959-.151.151-.501.946-.779 1.766-.448 1.324-.44 1.405.074.717.318-.428.579-1.092.579-1.477s.18-.811.4-.947c.22-.136.4-.575.4-.975s.27-.951.6-1.225c.33-.274.6-.98.6-1.569s.213-1.284.473-1.544c.261-.261.389-.558.285-.662-.103-.104-.406.161-.673.588m37.569.263c-.029.702.126 1.388.346 1.524.22.136.427.912.46 1.724.053 1.309.079 1.344.233.311.095-.641-.015-1.541-.244-2-.228-.459-.489-1.285-.578-1.835-.135-.83-.171-.784-.217.276m-20.782 1.705c-.289.653-.452 1.779-.363 2.503.151 1.219.168 1.196.227-.304.035-.891.264-1.82.509-2.065.245-.245.379-.642.299-.883-.08-.241-.383.096-.672.749m22.795 6.273c-.037.69.202 1.77.531 2.4.547 1.05.597 1.071.6.246.001-.495-.167-.9-.374-.9s-.446-.675-.533-1.5c-.143-1.369-.162-1.39-.224-.246m-24.403.422c-.035.702-.244 1.388-.464 1.524-.22.136-.4.547-.4.913 0 .523.133.475.625-.227.37-.529.559-1.422.464-2.189l-.161-1.297-.064 1.276m43.163.124c-.001.33.263.949.586 1.376.747.988.739.339-.013-.976-.332-.58-.572-.748-.573-.4m-62.628 1.486a48.68 48.68 0 0 1-.876 1.814c-.093.165-.073.3.045.3.312 0 1.921-3.244 1.712-3.453-.096-.097-.493.506-.881 1.339m-1.902 3.782c-1.155 2.258-2.456 4.477-3.397 5.795-.495.693-.9 1.395-.9 1.559 0 .164.54-.447 1.2-1.359.66-.911 1.2-1.756 1.2-1.879 0-.122.639-1.221 1.42-2.443.781-1.221 1.362-2.396 1.29-2.612-.072-.216-.438.206-.813.939m47.735.932c-.002.44.254 1.25.568 1.8.73 1.278.734 1.004.012-1-.317-.88-.578-1.24-.58-.8m-28.725 1.032c-.271.724-.421 1.388-.332 1.476.285.285 1.08-1.53.95-2.17-.074-.366-.327-.081-.618.694m49.493.319c0 .266.475.971 1.056 1.566l1.056 1.083-.926-1.4c-1.219-1.841-1.186-1.807-1.186-1.249m-51.102 4.176c-1.215 2.789-1.14 3.357.115.882.556-1.095.96-2.208.899-2.473-.062-.265-.518.451-1.014 1.591m32.319-.127c.014.717 1.148 2.8 1.169 2.146.008-.25-.255-.97-.584-1.6-.328-.63-.592-.876-.585-.546m22.007.935c-.034.475 2.473 3.901 2.693 3.681.1-.1-.245-.706-.767-1.346-.523-.639-1.164-1.502-1.426-1.916-.263-.415-.488-.603-.5-.419m-76.824 1.044c0 .208-.9 1.568-2 3.021-2.187 2.89-2.753 4.052-.757 1.555 2.182-2.729 3.608-4.955 3.176-4.955-.23 0-.419.17-.419.379m56.802 2.675c-.001.25.267.97.596 1.6.328.63.598.942.6.692.001-.25-.267-.97-.596-1.6-.328-.63-.598-.942-.6-.692m-36.717.959c-.267.427-.478 1.004-.469 1.282.009.278.293-.006.631-.63.703-1.297.571-1.827-.162-.652m61.531 2.41c.479.673.959 1.135 1.067 1.027.248-.248-1.172-2.221-1.61-2.237-.18-.007.064.537.543 1.21m-88.397 3.251c-1.33 1.581-2.419 3.051-2.419 3.267 0 .216.056.317.125.226.068-.092 1.24-1.562 2.603-3.267 3.118-3.9 2.911-4.051-.309-.226M220.015 126c.006.33.275.949.598 1.376.755.999.75.629-.011-.83-.328-.63-.592-.876-.587-.546m25.446 2.425c1.286 1.784 2.966 3.681 3.121 3.525.082-.082-.753-1.14-1.856-2.35-1.103-1.21-1.672-1.739-1.265-1.175m-68.19 2.81c-.29.464-.45.92-.356 1.014.278.277 1.173-.985 1.022-1.439-.077-.23-.377-.039-.666.425m-1.621 2.971c-1.183 2.004-1.064 2.295.186.456.569-.838.951-1.608.849-1.71-.102-.102-.568.462-1.035 1.254m-25.65-.691c0 .246-2.565 3.011-5.7 6.144-3.135 3.132-4.98 5.134-4.1 4.447 1.459-1.138 6.306-5.997 9.18-9.202.639-.713 1.04-1.418.891-1.566-.149-.149-.271-.07-.271.177m74.001-.082c.002.456 1.514 2.967 1.786 2.967.11 0-.177-.675-.637-1.5-.968-1.738-1.151-1.97-1.149-1.467m2.034 3.567c.02.551 6.646 10.6 6.99 10.6.209 0-2.364-4.136-3.072-4.937-.225-.255-1.202-1.723-2.171-3.263-.969-1.54-1.755-2.62-1.747-2.4m-52.724 1.1c-.213.275-.506.77-.652 1.1-.146.33-.628 1.198-1.07 1.928-.443.731-.61 1.209-.372 1.062.238-.147.603-.655.813-1.129.209-.473.734-1.446 1.167-2.161.784-1.296.849-1.75.114-.8m83.175 2.501c1.037 1.078 1.947 1.879 2.021 1.78.074-.1-.774-.982-1.886-1.961l-2.021-1.78 1.886 1.961m-86.967 3.402c-.877 1.54-.617 1.539.481-.003.47-.66.707-1.199.527-1.197-.18.001-.634.541-1.008 1.2m90.114-.574c.195.502 6.062 5.887 7.667 7.037 1.924 1.379 1.183.418-1-1.297-1.155-.907-3.165-2.666-4.467-3.909-1.301-1.243-2.291-2.067-2.2-1.831m-91.882 3.071c-1.517 1.731-2.062 2.588-1.232 1.936.729-.573 2.467-2.836 2.178-2.836-.087 0-.512.405-.946.9m-33.351 2.214c-.55.37-1.09.766-1.2.88-.11.114-.881.792-1.714 1.507-2.433 2.087-1.228 1.494 1.563-.771 2.22-1.801 2.847-2.392 2.451-2.309-.055.012-.55.323-1.1.693m28.741 3.786c-.729.935-1.006 1.446-.615 1.136.777-.617 2.447-2.836 2.135-2.836-.107 0-.79.765-1.52 1.7m73.042-.678c.721 1.264 3.758 4.844 3.204 3.778-.318-.613-2.811-3.878-3.512-4.6-.214-.22-.075.15.308.822m32.617-.309c0 .204 1.125 1.137 2.5 2.073 2.412 1.641 2.444 1.651.9.273-.88-.786-1.722-1.436-1.871-1.444-.15-.008-.555-.298-.9-.644-.346-.345-.629-.461-.629-.258m-141.045 2.522c-1.94 1.54-2.168 1.787-1.155 1.248 1.356-.721 3.58-2.483 3.133-2.483-.233 0-1.123.556-1.978 1.235m32.685 1.665c-.649.715-1.567 1.75-2.041 2.3-2.369 2.75-9.514 9.77-12.218 12.005-.669.552-1.378 1.272-1.576 1.6-.428.709 4.771-3.946 9.014-8.071 3.149-3.061 8.619-9.134 8.227-9.134-.125 0-.757.585-1.406 1.3m113.563-.227c.001.18.541.634 1.2 1.008 1.54.877 1.539.617-.003-.481-.66-.47-1.199-.707-1.197-.527M123.6 157c-.517.55-1.156 1-1.421 1-.264 0-.728.298-1.03.662-.509.614-.46.616.68.026.676-.349 1.48-.937 1.786-1.306.307-.369.923-.82 1.371-1.001.574-.233.628-.338.184-.356-.347-.014-1.053.425-1.57.975m154.611 1.543c2.567 1.768 7.455 4.657 7.879 4.657.274 0-.166-.356-.978-.791-.812-.436-2.747-1.606-4.299-2.6-2.54-1.629-4.545-2.604-2.602-1.266m-35.573 1.129c1.289 1.475 9.144 9.079 9.26 8.964.128-.129-9.59-9.836-9.846-9.836-.097 0 .167.392.586.872m-123.827.548c-.764.539-1.214.979-1 .978.214-.001.929-.445 1.589-.986 1.541-1.263 1.205-1.259-.589.008m-3.751 2.08c-.103.165-1.194.825-2.424 1.467-1.23.641-2.154 1.248-2.054 1.348.1.1 1.045-.324 2.1-.942a91.418 91.418 0 0 1 2.918-1.646c.697-.364.795-.523.324-.525-.372-.001-.761.133-.864.298m171.901 1.39c.056.281.493.568.97.638.478.07.869.295.869.5 0 .205.202.372.449.372.31 0 .295-.185-.049-.6-.274-.33-.821-.6-1.216-.6-.394 0-.809-.184-.921-.41-.111-.225-.157-.18-.102.1m3.039 1.663c0 .084 1.035.651 2.3 1.259a149.43 149.43 0 0 1 2.6 1.271c.165.09.3.062.3-.062 0-.193-4.698-2.621-5.071-2.621-.071 0-.129.069-.129.153m-182.976 1.26c-.999.755-.629.75.83-.011.63-.328.876-.592.546-.587-.33.006-.949.275-1.376.598m-3.224 1.596c-1.1.529-1.768.969-1.484.977.579.016 3.684-1.496 3.684-1.794 0-.252.094-.287-2.2.817m192.746.393c.63.329 1.35.597 1.6.596.25-.002-.062-.272-.692-.6-.63-.329-1.35-.597-1.6-.596-.25.002.062.272.692.6M98.6 170.4c-.136.22-.665.4-1.175.4s-1.165.315-1.457.7c-.45.596-.446.625.031.2.309-.275 1.065-.5 1.681-.5.616 0 1.12-.167 1.12-.371s.315-.453.7-.553c.631-.165.633-.188.024-.23-.372-.025-.788.134-.924.354m201.8-.139c.33.109.987.385 1.461.615.473.229 1.103.32 1.4.202.31-.124.167-.228-.337-.246-.482-.018-.988-.212-1.124-.432-.136-.22-.642-.386-1.124-.368-.553.02-.655.104-.276.229m-208 2.372c-.616.342-.762.557-.38.561.341.003.791-.159 1-.36.209-.202.83-.447 1.38-.546l1-.179-1-.015c-.55-.009-1.45.234-2 .539m163.6-.508c0 .068.585.547 1.3 1.063l1.3.939-.97-1.064c-.828-.908-1.63-1.37-1.63-.938m49.8.16c.44.106.971.355 1.18.554.209.198.659.36 1 .359.341-.002.104-.272-.526-.6-.63-.329-1.44-.577-1.8-.552-.461.033-.417.104.146.239m-164.7 1.944c-2.062 1.954-1.886 2.133.3.306.99-.827 1.8-1.556 1.8-1.62 0-.416-.808.089-2.1 1.314m-54.9.171c-.136.22-.642.414-1.124.432-.504.018-.647.122-.337.246.297.118.927.022 1.4-.215a7.823 7.823 0 0 1 1.861-.592c.83-.135.784-.171-.276-.217-.702-.029-1.388.126-1.524.346m226.2.063c.77.21 1.85.455 2.4.545.591.097.673.072.2-.061-.44-.124-.971-.387-1.18-.586-.209-.198-.929-.343-1.6-.32l-1.22.041 1.4.381m-52.8.528c0 .085.54.539 1.2 1.009.66.47 1.199.707 1.197.527-.001-.18-.541-.634-1.2-1.008-.658-.375-1.197-.612-1.197-.528m-177.8.609-.8.344.8.022c.44.012 1.07-.153 1.4-.366.795-.514-.204-.514-1.4 0m234.6 0c.33.213 1.14.373 1.8.354 1.176-.033 1.18-.04.2-.354-1.53-.49-2.758-.49-2 0m-238.61 1.055c-.665.333-1.534 1.176-1.931 1.875-.717 1.263-.714 1.262.641-.205.749-.811 1.888-1.592 2.531-1.735 1.83-.407 2.047-.526.969-.533-.55-.003-1.544.266-2.21.598m242.81-.364c.66.094 1.371.337 1.58.54.209.203.558.369.776.369.219 0 .048-.264-.38-.587-.427-.323-1.316-.566-1.976-.54l-1.2.047 1.2.171m-184.078 1.546-1.122 1.036 1.3-.864c1.191-.791 1.579-1.209 1.122-1.209-.097 0-.682.467-1.3 1.037m125.878-.843c0 .107.765.691 1.7 1.297.935.606 1.825 1.278 1.978 1.494.153.215.395.275.538.132.143-.142-.522-.749-1.478-1.348-.956-.599-1.798-1.242-1.871-1.429-.141-.358-.867-.48-.867-.146m9.776 6.419c.428.323.957.587 1.177.587.22 0 .051-.264-.377-.587-.427-.323-.956-.588-1.176-.588-.22 0-.051.265.376.588m-147.952 2c-.436.329-.555.587-.272.587.278 0 .775-.27 1.105-.6.767-.767.185-.758-.833.013m-4.624 2.02c-.558.31-.735.552-.4.548.33-.003.949-.271 1.376-.594.963-.728.369-.7-.976.046m160.143-.033c.33.33.928.599 1.328.598.521-.002.402-.174-.417-.6-1.447-.755-1.668-.755-.911.002M114.8 189.2c0 .22-.315.414-.7.432-.385.017-.505.112-.267.211.238.098.958-.095 1.6-.43 1.06-.552 1.084-.608.267-.611-.495-.001-.9.178-.9.398m169.767.213c.642.335 1.362.528 1.6.43.238-.099.118-.194-.267-.211-.385-.018-.7-.212-.7-.432s-.405-.399-.9-.398c-.817.003-.793.059.267.611M106.8 191.456c-1.645.659-.279.552 2.4-.188 1.39-.383 1.392-.386.2-.379-.66.003-1.83.259-2.6.567m184-.193c2.573.701 3.417.776 1.8.159-.88-.335-1.96-.594-2.4-.575-.454.02-.195.2.6.416m-189 1.137c-.682.293-.623.344.4.344.66 0 1.56-.155 2-.344.682-.293.623-.344-.4-.344-.66 0-1.56.155-2 .344m194 0c.44.189 1.34.344 2 .344 1.023 0 1.082-.051.4-.344-.44-.189-1.34-.344-2-.344-1.023 0-1.082.051-.4.344m-201.4 1.042c-.64.393-.712.509-.2.324.44-.159 1.61-.417 2.6-.574l1.8-.285-1.6-.039c-.88-.022-2.05.236-2.6.574m208.8-.218c.77.183 1.862.447 2.427.587 1.612.399 2.344 2.281 2.485 6.389l.123 3.6.083-3.738c.116-5.274-1.405-7.358-5.267-7.216l-1.251.046 1.4.332m-210.927 3.729c-.15.392-.255 1.283-.233 1.98.039 1.234.05 1.226.409-.306.396-1.69.275-2.848-.176-1.674m.527 7.724c0 1.303 9.24 3.417 10.3 2.356.128-.128-.112-.236-.533-.24-3.8-.034-8.338-.868-9.022-1.657-.41-.472-.745-.679-.745-.459m207.2 1.997-2.2.514 2.2-.231c3.966-.415 5.389-.613 5.549-.773.334-.333-3.455.001-5.549.49m-195.2.926c.33.213 1.05.378 1.6.366.916-.02.933-.051.2-.366-1.184-.509-2.587-.509-1.8 0m189 0c-.733.315-.716.346.2.366.55.012 1.27-.153 1.6-.366.787-.509-.616-.509-1.8 0m-185 .839c.77.229 1.94.489 2.6.577 1.068.144 1.046.116-.2-.255-.77-.229-1.94-.489-2.6-.577-1.068-.144-1.046-.116.2.255m180.6.203c-1.282.447-1.362.523-.4.385 2.113-.303 4.153-.945 3-.944-.55 0-1.72.252-2.6.559m-173.621 1.978c.649.338 1.549.542 2 .452.624-.124.563-.176-.255-.218-.592-.029-1.188-.234-1.324-.454-.136-.22-.552-.399-.924-.398-.419.002-.228.237.503.618m165.021.957c-.33.182-1.095.561-1.699.844-.605.282-1.007.606-.894.72.114.113.419-.007.68-.268.26-.26.775-.473 1.144-.473.369 0 .895-.27 1.169-.6.554-.667.481-.708-.4-.223m-160.6.708c.44.106.971.355 1.18.554.209.198.558.361.776.361.219 0 .048-.264-.38-.587-.427-.323-1.136-.572-1.576-.554l-.8.034.8.192m2.633 1.062c.612.538 7.526 4.511 7.347 4.22-.245-.395-6.846-4.367-7.259-4.367-.14 0-.179.066-.088.147m146.267 4.478c-1.485.973-2.7 1.859-2.7 1.97 0 .163 5.402-3.136 5.967-3.645.8-.721-1.087.247-3.267 1.675M132.8 219.6c.507.44 1.15.8 1.428.8s.565.135.639.3c.206.465 3.165 2.601 3.349 2.418.207-.208-3.673-3.118-4.157-3.118-.198 0-.585-.27-.859-.6-.274-.33-.683-.6-.91-.6-.227 0 .003.36.51.8m-57.117 1.094c.248.659.774 1.399 1.167 1.645.541.337.47.084-.29-1.036-1.332-1.963-1.409-2.016-.877-.609m187.217 1.28c-.891.645-1.759 1.41-1.929 1.7-.17.289.087.179.571-.246.484-.424 1.549-1.183 2.369-1.687.819-.504 1.291-.922 1.049-.929-.242-.006-1.169.516-2.06 1.162m-184.5 1.087c.33.109.981.382 1.447.608.467.225 1.187.323 1.6.217.538-.138.446-.206-.323-.24-.592-.025-1.188-.226-1.324-.446-.136-.22-.642-.386-1.124-.368-.553.02-.655.104-.276.229m240.8.364c-1.88.712-.661.708 1.6-.004 1.179-.372 1.455-.56.8-.547-.55.012-1.63.26-2.4.551m-179.185 1.359c.762.651 1.507 1.191 1.656 1.2.15.009.512.241.805.516.293.275 1.79 1.577 3.328 2.894 1.538 1.317 2.886 2.487 2.996 2.6.11.113.56.455 1 .76 2.517 1.742-5.307-5.078-9.155-7.981-2.015-1.52-2.412-1.513-.63.011M83.4 224.4c1.111.478 1.895.478 1.6 0-.136-.22-.732-.387-1.324-.372-.961.025-.99.065-.276.372m176.38.032c-.147.238-.833.778-1.524 1.199-.691.421-1.034.767-.762.768.512.001 3.319-2.367 2.83-2.387-.152-.007-.397.183-.544.42m55.02-.032c-.795.514.204.514 1.4 0l.8-.344-.8-.022c-.44-.012-1.07.153-1.4.366m-227.054 1.002c.63.329 1.53.59 2 .58.552-.011.289-.221-.746-.594-2.081-.749-2.705-.742-1.254.014M311.8 225.2c-.136.22-.732.425-1.324.454-.818.042-.879.094-.255.218.451.09 1.351-.114 2-.452.731-.381.922-.616.503-.618-.372-.001-.788.178-.924.398m-217.851 2.1c.302.385.932.679 1.4.654.808-.044.811-.057.051-.243-.44-.109-1.07-.403-1.4-.654-.522-.397-.528-.366-.051.243m211.831-.139c-.209.199-.74.448-1.18.554-.759.182-.756.195.051.239.468.025 1.075-.224 1.349-.554.543-.654.391-.819-.22-.239m-55.5 5.405c-2.725 2.511-6.529 6.336-8.453 8.5a3893.068 3893.068 0 0 1-4.262 4.79c-.421.471-.765.993-.765 1.159 0 .338 1.114-.858 3.2-3.437 1.942-2.402 9.626-10.161 12.994-13.121 1.537-1.352 2.67-2.457 2.518-2.457-.153 0-2.507 2.055-5.232 4.566M98.2 229.085c.44.106.971.355 1.18.554.209.198.558.361.776.361.219 0 .048-.264-.38-.587-.427-.323-1.136-.572-1.576-.554l-.8.034.8.192m201.749.415c-.477.609-.471.64.051.243.33-.251.96-.545 1.4-.654.76-.186.757-.199-.051-.243-.468-.025-1.098.269-1.4.654m-196.525 1.887c.427.323 1.035.593 1.352.6.407.009.348-.16-.2-.574-.427-.323-1.035-.593-1.352-.6-.407-.009-.348.16.2.574M296 231.2c0 .22-.315.414-.7.432-.401.018-.491.116-.21.229.269.11.894-.085 1.389-.431.735-.515.773-.63.21-.63-.379 0-.689.18-.689.4m-4.14 1.9c-.103.165-1.194.825-2.424 1.467-1.23.641-2.175 1.228-2.099 1.303.125.125 5.445-2.526 5.83-2.906.091-.09-.123-.164-.477-.164-.353 0-.727.135-.83.3m-180.56 1.976c.385.1.7.349.7.553 0 .204.202.371.449.371.31 0 .295-.185-.049-.6-.274-.33-.791-.579-1.149-.554-.549.04-.542.075.049.23m173.1 2.324c-.278.335-.321.6-.098.6.22 0 .624-.27.898-.6.278-.335.321-.6.098-.6-.22 0-.624.27-.898.6m-166.367 1.53c.092.071.797.536 1.567 1.033l1.4.903-1.2-1.031c-.66-.567-1.365-1.032-1.567-1.033-.201-.001-.291.056-.2.128m161.067 1.681c-1.485.977-2.7 1.868-2.7 1.98 0 .166 5.395-3.126 5.967-3.641.825-.744-1.099.235-3.267 1.661M122.327 241.8c.654.55 1.343.999 1.531.998.427-.002-1.935-1.964-2.389-1.984-.182-.008.204.436.858.986m36.101-.4c.307.44 1.417 1.76 2.465 2.932 1.049 1.173 1.907 2.279 1.907 2.457 0 .179.277.432.615.561.376.145.182-.334-.5-1.229-1.257-1.653-5.352-5.962-4.487-4.721m-34.028 1.573c0 .095.585.57 1.3 1.056l1.3.883-1.083-1.056c-1.016-.992-1.517-1.283-1.517-.883m150.043.65c-.526.438-.886.867-.8.953.087.086.662-.279 1.279-.81.618-.531.978-.96.8-.953-.177.008-.752.372-1.279.81M272 245.4c-.278.335-.321.6-.098.6.22 0 .624-.27.898-.6.278-.335.321-.6.098-.6-.22 0-.624.27-.898.6m-141.23 2.332c1.019 1.122 1.238 1.261 1.217.768-.006-.165-.501-.646-1.1-1.068l-1.087-.768.97 1.068m137.83.3c-2.268 1.714-2.637 2.177-.956 1.197 1.249-.728 3.184-2.45 2.718-2.418-.089.006-.882.556-1.762 1.221m-33.405.691c-1.532 2.257-1.775 2.751-.917 1.867 1.025-1.057 2.274-2.971 2.071-3.174-.087-.087-.606.501-1.154 1.307m-70.395.341c0 .218.495.833 1.1 1.366l1.1.97-1-1.2c-.55-.66-1.045-1.275-1.1-1.367-.055-.091-.1.012-.1.231m99.961 2.106c-3.352 2.684-4.72 3.893-4.922 4.351-.126.287.713-.289 1.865-1.279 1.153-.99 2.636-2.254 3.296-2.809 1.396-1.173 1.186-1.404-.239-.263m-129.161.481c.55.453 1.855 1.629 2.9 2.614 1.045.984 1.9 1.668 1.9 1.519 0-.415-4.946-4.954-5.4-4.956-.22-.001.05.369.6.823m32.4 1.744c0 .108.26.513.579.9 1.88 2.29 2.143 2.496 1.032.805-1.139-1.732-1.611-2.232-1.611-1.705M230 256c-.47.66-.764 1.2-.654 1.2.11 0 .584-.54 1.054-1.2.47-.66.764-1.2.654-1.2-.11 0-.584.54-1.054 1.2m27.462 1.531c-.364.403-.662.88-.662 1.062 0 .181.36-.086.8-.593.44-.507.8-.985.8-1.061 0-.3-.305-.107-.938.592M226.6 261.2c-.341.66-.531 1.2-.421 1.2.11 0 .48-.54.821-1.2.341-.66.531-1.2.421-1.2-.11 0-.48.54-.821 1.2m-79.8 1.02c0 .139.44.731.978 1.316 2.328 2.532 7.422 8.682 7.422 8.96 0 .167.202.304.448.304.351 0-1.791-3.023-2.834-4-.118-.11-1.194-1.37-2.391-2.8-2.455-2.931-3.623-4.15-3.623-3.78m105.191 1.081a37.883 37.883 0 0 1-1.791 2.093c-1.563 1.645-2.468 2.845-1.69 2.242 1.037-.804 4.822-5.237 4.633-5.426-.089-.089-.607.402-1.152 1.091m-27.531 1.526c-1.215 1.953-1.634 2.943-.913 2.153.529-.579 2.554-4.18 2.351-4.18-.098 0-.745.912-1.438 2.027m-47.66 3.149c0 .233.16.424.357.424.196 0 .469.45.607 1s.414 1 .613 1 .094-.536-.233-1.192c-.637-1.277-1.344-1.925-1.344-1.232m45.262 1.286c-.485.908-.82 1.714-.744 1.79.077.076.536-.605 1.02-1.514.485-.908.82-1.714.744-1.79-.077-.076-.536.605-1.02 1.514m22.162 3.335c-.81.988-1.236 1.699-.948 1.58.484-.201 2.9-3.377 2.568-3.377-.081 0-.81.809-1.62 1.797m-23.792-.258c-.237.445-.431 1.045-.43 1.335.002.289.275.004.608-.634.332-.637.526-1.238.43-1.334-.097-.096-.37.189-.608.633m-61.44 5.061c1.058 1.54 2.198 3.07 2.533 3.4.335.33-.258-.66-1.317-2.2-1.058-1.54-2.198-3.07-2.533-3.4-.335-.33.258.66 1.317 2.2m21.836-2c-.001.44.262 1.149.585 1.576.743.983.744.677.003-1.03-.405-.932-.586-1.1-.588-.546m60.84.727c-1.233 1.313-1.081 1.722.174.467.574-.573.964-1.121.869-1.217-.096-.095-.565.242-1.043.75m-23.168.566c-.712 1.518-.616 2.14.113.74.335-.642.559-1.311.498-1.487-.061-.176-.336.16-.611.747m21.322 2.036c-.127.402-.607 1.134-1.067 1.627-.459.493-.745.988-.634 1.099.111.11.768-.621 1.46-1.627.691-1.005 1.081-1.828.865-1.828-.216 0-.496.328-.624.729m-57.005 1.296c-.016.581 1.915 4.856 1.962 4.343.012-.128-.421-1.298-.962-2.6-.541-1.302-.991-2.087-1-1.743m33.241 2.38c-.518 1.344-.851 2.535-.74 2.646.111.112.424-.484.694-1.324.271-.84.664-1.743.873-2.008.21-.264.321-.768.248-1.119-.073-.352-.557.461-1.075 1.805m-31.258 3.482c0 .256.18.577.4.713.22.136.421.642.446 1.124.036.665.091.709.228.183.1-.38-.101-1.096-.446-1.589-.345-.493-.628-.687-.628-.431m29.665.73c-.256.561-.457 1.327-.447 1.702.009.374.271-.032.582-.904.645-1.811.559-2.321-.135-.798m18.806 2.618c-.29.464-.45.92-.356 1.014.278.277 1.173-.985 1.022-1.439-.077-.23-.377-.039-.666.425m-65.174 2.99c.488 1.003.943 1.656 1.011 1.45.121-.362-1.429-3.275-1.742-3.275-.086 0 .243.821.731 1.825m18.703-.338c0 .256.18.577.4.713.22.136.425.732.454 1.324.048.933.078.957.227.182.095-.491-.109-1.296-.454-1.789-.345-.492-.627-.686-.627-.43m25.7.806c-.275.586-.5 1.492-.5 2.013 0 .521-.19 1.34-.422 1.82-.408.844-.401.848.2.098.342-.428.622-1.337.622-2.02 0-.684.2-1.444.445-1.689.245-.245.38-.635.3-.867-.08-.232-.37.058-.645.645m-42.798 2.807c.897 2.036 1.493 3.103 1.496 2.675.003-.523-1.547-3.775-1.799-3.775-.1 0 .036.495.303 1.1m59.583 1.873c-.267.586-.485 1.304-.485 1.597 0 .293-.27.756-.6 1.03-.333.276-.571 1.055-.536 1.749l.064 1.251.159-1.27c.088-.699.419-1.486.736-1.749.317-.264.577-.781.577-1.15 0-.369.2-.871.445-1.116.245-.245.373-.661.285-.925-.088-.265-.378-.002-.645.583m-40.421.881c-.035.69.205 1.77.534 2.4.328.63.598.867.6.526.001-.341-.165-.791-.369-1-.205-.209-.446-1.01-.536-1.78-.164-1.395-.165-1.395-.229-.146m22 .822c-.035.922-.244 1.788-.464 1.924-.22.136-.373.912-.34 1.724.054 1.323.076 1.352.214.276.085-.66.342-1.574.571-2.031.229-.457.341-1.447.25-2.2-.157-1.29-.171-1.273-.231.307m-38.818 1.778c-.025.36.223 1.17.552 1.8.328.63.598.867.6.526.001-.341-.161-.791-.359-1-.199-.209-.448-.74-.554-1.18-.135-.563-.206-.607-.239-.146m1.166 3.851c-.007.278.152.818.353 1.2.2.382.654 1.595 1.008 2.695.649 2.013.6 1.228-.088-1.433-.418-1.615-1.254-3.233-1.273-2.462m36.42.164c-.018.368-.518 1.248-1.113 1.954-.904 1.074-.94 1.197-.224.75 1.059-.662 1.87-2.113 1.583-2.834-.152-.382-.224-.345-.246.13m15.89 2.531c-.136.66-.356 1.65-.489 2.2-.164.68-.041.569.384-.349.344-.743.564-1.733.489-2.2-.11-.69-.183-.624-.384.349m-33.522.112c0 .785 1.491.922 8.6.792l6.8-.125-7.22-.089c-4.975-.062-7.369-.239-7.7-.57-.365-.365-.48-.367-.48-.008m-16.766 3.888c-.012.44.153 1.07.366 1.4.514.795.514-.204 0-1.4l-.344-.8-.022.8m49.058.842c-.161.16-.287.666-.28 1.125.011.769.044.778.428.118.448-.769.333-1.725-.148-1.243m-48.228 2.358c-.016.66.236 2.1.56 3.2.555 1.883.577 1.907.385.4-.377-2.958-.912-4.997-.945-3.6m47.227 2.3c-.27.746-.475 1.794-.455 2.328.022.61.243.226.592-1.028.657-2.365.565-3.242-.137-1.3m-46.091 3.394c0 .836 2.763 2.515 4.095 2.487.579-.012.257-.238-.895-.628-.99-.335-2.115-.976-2.5-1.425-.385-.449-.7-.645-.7-.434m15.112 2.997c1.602.189 3.942.193 5.2.01 1.92-.28 1.451-.335-2.912-.344-4.864-.009-5.012.013-2.288.334" fill="#848484"/><path d="M198.1 76.276c.385.1 1.015.1 1.4 0 .385-.101.07-.183-.7-.183s-1.085.082-.7.183m-8.595.407c.497.096 1.217.092 1.6-.008.382-.1-.025-.179-.905-.174-.88.004-1.193.086-.695.182m15.395.004a8.899 8.899 0 0 0 2.2 0c.605-.092.11-.167-1.1-.167-1.21 0-1.705.075-1.1.167m-24.193.403c.719.089 1.799.087 2.4-.004s.013-.164-1.307-.162c-1.32.002-1.812.077-1.093.166m37.593-.008a5.661 5.661 0 0 0 1.8 0c.495-.095.09-.173-.9-.173s-1.395.078-.9.173M144.981 138.9l-1.581 1.7 1.7-1.581c1.581-1.471 1.884-1.819 1.581-1.819-.065 0-.83.765-1.7 1.7m180.002 59.7c0 9.46.053 13.273.117 8.473.064-4.8.063-12.54-.001-17.2-.063-4.66-.116-.733-.116 8.727m-249.999 1c0 9.57.052 13.485.116 8.7.063-4.785.063-12.615 0-17.4-.064-4.785-.116-.87-.116 8.7m23.916-6.524c.385.1 1.015.1 1.4 0 .385-.101.07-.183-.7-.183s-1.085.082-.7.183m200.6.006a5.661 5.661 0 0 0 1.8 0c.495-.095.09-.173-.9-.173s-1.395.078-.9.173M92.101 201.4c.004.88.086 1.193.182.695.096-.497.092-1.217-.008-1.6-.1-.382-.179.025-.174.905m4.799 4.887a8.899 8.899 0 0 0 2.2 0c.605-.092.11-.167-1.1-.167-1.21 0-1.705.075-1.1.167m227.97 12.533c-.039 1.001-.294 2.081-.567 2.4-.288.336-.193.31.226-.06.547-.485.685-1.068.567-2.4l-.156-1.76-.07 1.82m-250.07.156c0 .537.147 1.068.328 1.179.18.112.249-.328.154-.976-.21-1.43-.482-1.544-.482-.203M251.6 231c-.972.99-1.677 1.8-1.567 1.8.11 0 .995-.81 1.967-1.8.972-.99 1.677-1.8 1.567-1.8-.11 0-.995.81-1.967 1.8m-67.687 92.095c1.163.081 2.963.081 4-.002 1.038-.082.087-.148-2.113-.147-2.2.001-3.049.068-1.887.149m21.387.003a111.9 111.9 0 0 0 7 0c1.925-.073.35-.133-3.5-.133s-5.425.06-3.5.133" fill="#7c7c7c"/><path d="M186.6 76.382c-.44.179 1.81.233 5 .119 3.19-.114 5.875-.274 5.967-.354.344-.303-10.201-.077-10.967.235m13.433-.233c.092.082 3.317.249 7.167.371 3.85.122 6.46.077 5.8-.102-1.167-.315-13.299-.567-12.967-.269m21.913 1.81c.58.637 1.117 1.1 1.193 1.027.254-.24-1.331-2.161-1.793-2.173-.25-.007.02.508.6 1.146m-44.548.443c-1.023 1.13-.588 1.235.488.118.487-.506.74-.92.562-.92-.178 0-.651.361-1.05.802M223.38 80.6c.161.66.446 2.01.633 3 .477 2.523 1.229 5.075 1.002 3.4-.397-2.923-1.29-7.006-1.594-7.29-.184-.17-.202.23-.041.89m-47.088.042c-.161.16-.281.756-.267 1.325l.026 1.033.386-.966c.416-1.04.33-1.867-.145-1.392m-.638 3.634c-.029.702-.234 1.388-.454 1.524-.22.136-.391.732-.381 1.324.016.9.118.794.624-.651.333-.95.529-2.12.436-2.6-.119-.611-.186-.49-.225.403m49.56 5c-.008.372.166.788.386.924s.4.666.4 1.178c0 .512.269 1.446.598 2.076.378.725.598.898.6.47.001-.372-.178-.788-.398-.924-.22-.136-.406-.732-.414-1.324-.016-1.22-1.148-3.538-1.172-2.4m-51.554 3c-.033.702-.24 1.388-.46 1.524a.936.936 0 0 0-.4.713c0 .256.282.063.626-.429.345-.492.552-1.386.46-1.989-.157-1.032-.17-1.021-.226.181m17.932.334c-.278.335-.395.721-.258.857.136.136.361-.048.499-.41.33-.859 15.618-1.004 16.568-.157.477.425.481.396.031-.2-.749-.989-16.026-1.071-16.84-.09m17.377 1.648c.142.473.428 1.643.635 2.6l.376 1.742-.179-2.169c-.099-1.194-.385-2.364-.635-2.6-.336-.318-.388-.206-.197.427m-18.568 2.011c-.258 1.282-.634 2.644-.835 3.026-.202.382-.351 1.102-.332 1.6.03.767.094.722.425-.295.608-1.869 1.547-6.327 1.371-6.503-.087-.088-.37.89-.629 2.172m36.812-.393a.914.914 0 0 0 .387.724c.22.136.406.642.413 1.124.007.482.277 1.225.6 1.652.512.678.587.69.587.1 0-.372-.18-.676-.4-.676-.22 0-.4-.416-.4-.924 0-.929-1.164-2.889-1.187-2M172.08 96.88c-.264.264-.48.984-.48 1.6 0 .616-.18 1.12-.4 1.12-.22 0-.4.202-.4.449 0 .31.185.295.6-.049.33-.274.6-.98.6-1.569s.216-1.287.48-1.551.39-.48.28-.48c-.11 0-.416.216-.68.48m37.948 2.196c.09 1.039.716 1.92.744 1.048.015-.482-.152-.988-.372-1.124-.22-.136-.387-.102-.372.076m19.172 1.849c0 .126.831 1.914 2.692 5.788.558 1.163 1.08 2.049 1.159 1.97.137-.138-.256-1.034-2.537-5.783-.863-1.798-1.314-2.476-1.314-1.975m-59.168 1.014c-.237.445-.432 1.075-.432 1.401 0 .326-.207.662-.46.747-.253.084-.382.386-.288.67.101.303.395.045.707-.62.294-.625.706-1.47.915-1.876.21-.406.294-.827.186-.934-.107-.108-.39.168-.628.612m40.768 1.188c0 .234.18.537.4.673.22.136.4.845.4 1.575 0 .795.28 1.539.7 1.857.596.45.625.446.2-.031-.275-.309-.5-1.223-.5-2.032 0-.82-.266-1.692-.6-1.969-.378-.314-.6-.341-.6-.073m-22.736 2.493c-.035.781-.277 1.633-.537 1.893-.261.261-.365.582-.233.715.457.456 1.154-1.468.994-2.746l-.16-1.282-.064 1.42m-20.568 1.859c-.91 2.009-.639 2.085.412.116.469-.877.718-1.595.555-1.595-.163 0-.598.666-.967 1.479m65.704 2.097c0 .233.141.424.312.424.172 0 .529.573.793 1.274.265.7.575 1.179.69 1.065.251-.252-.891-2.627-1.42-2.955-.206-.127-.375-.041-.375.192m-67.168.763c-.237.445-.431 1.045-.43 1.335.002.289.275.004.608-.634.332-.637.526-1.238.43-1.334-.097-.096-.37.189-.608.633m20.468.354c-.275.586-.5 1.445-.5 1.907 0 .462-.225 1.092-.5 1.401-.425.477-.396.481.2.031.385-.292.7-1.012.7-1.601s.2-1.271.445-1.516c.245-.245.38-.635.3-.867-.08-.232-.37.058-.645.645m26.314-.839c-.008.25.255.97.584 1.6.328.63.592.876.585.546-.014-.717-1.148-2.8-1.169-2.146m22.399 3.084c-.019.507 1.644 2.739 1.871 2.511.108-.108-.008-.433-.257-.723a23.14 23.14 0 0 1-1.028-1.326c-.315-.44-.579-.648-.586-.462m-20.397 2.316c-.009.36.253 1.17.582 1.8.768 1.474.782.652.018-1.108-.322-.74-.592-1.052-.6-.692m-30.354 1.667c-.283.704-.695 1.612-.916 2.018-.221.406-.329.811-.241.899.088.089.371-.289.628-.839l.934-1.998c.257-.55.387-1.08.288-1.179-.098-.098-.41.396-.693 1.099m52.738-.735c0 .134.9 1.525 2 3.092 1.1 1.566 2 2.725 2 2.576 0-.386-2.14-3.627-2.5-3.787-.165-.074-.3-.312-.3-.529 0-.217-.27-.665-.6-.995-.33-.33-.6-.491-.6-.357m-77.573 4.576c-.881 1.237-1.066 1.833-.452 1.454.384-.238 1.677-2.616 1.422-2.616-.079 0-.515.523-.97 1.162m57.173-.49c0 .559 1.175 2.865 1.59 3.122.186.115-.027-.556-.474-1.492-.917-1.921-1.116-2.211-1.116-1.63m-34.791 2.203c-.884 1.83-1.004 2.289-.446 1.705.435-.456 1.669-3.38 1.426-3.38-.094 0-.535.754-.98 1.675m37.655 3.962c.435.902.87 1.562.966 1.467.216-.217-.958-2.612-1.42-2.898-.186-.115.018.529.454 1.431m24.074-.65c.254.543.524.807.6.587.196-.569-.243-1.574-.688-1.574-.209 0-.171.435.088.987m-88.511.977a52.136 52.136 0 0 1-2.057 2.47c-.641.717-1.066 1.403-.946 1.524.121.12.345.03.498-.201.575-.869 3.494-4.369 3.878-4.651.258-.189.244-.296-.04-.3-.242-.003-.842.518-1.333 1.158m90.202 1.106c.236.181 1.271 1.372 2.3 2.646 1.029 1.273 1.871 2.134 1.871 1.913 0-.5-3.571-4.581-4.165-4.759-.308-.093-.31-.034-.006.2m-24.629.592c0 .653 1.329 2.733 1.729 2.706.33-.022.321-.091-.029-.233-.275-.111-.506-.412-.513-.668-.012-.452-1.187-2.238-1.187-1.805m-42.695 2.317c-.603 1.131-.679 1.509-.271 1.353.311-.12.566-.522.566-.895 0-.372.213-.89.473-1.15.261-.261.383-.564.272-.675-.111-.111-.579.504-1.04 1.367m-1.606 2.812c-.687 1.099-.625 1.392.133.634.348-.348.572-.812.499-1.033-.074-.22-.358-.041-.632.399m-32.817 6.025c-2.245 2.21-4.082 4.141-4.082 4.293 0 .152 1.89-1.607 4.2-3.909 2.31-2.302 4.2-4.234 4.2-4.293 0-.297-.547.198-4.318 3.909m30.381-1.833c-.46.779-.764 1.417-.677 1.417.313 0 1.897-2.45 1.707-2.64-.107-.107-.57.444-1.03 1.223m52.737 1.368c0 .266.475.971 1.056 1.566l1.056 1.083-.926-1.4c-1.219-1.841-1.186-1.807-1.186-1.249m29.2.449c.507.44 1.013.8 1.123.8.111 0-.125-.36-.523-.8-.398-.44-.904-.8-1.123-.8-.22 0 .016.36.523.8m-83.527.487c-.26.26-.473.782-.473 1.16 0 .377-.184.778-.41.89-.225.112-.18.157.1.1.281-.057.576-.448.656-.87.081-.422.346-.892.589-1.045.243-.153.345-.375.227-.494-.119-.118-.428-.002-.689.259m56.327 2.627c0 .267.168.486.373.486s.473.315.596.7c.122.385.875 1.42 1.674 2.3l1.452 1.6-1.515-2.2c-1.919-2.789-2.58-3.528-2.58-2.886M170 144c-.47.66-.707 1.199-.527 1.197.18-.001.634-.541 1.008-1.2.877-1.54.617-1.539-.481.003m91.385.725c1.092 1.141 2.045 2.075 2.119 2.075.332 0-1.39-1.913-2.679-2.975-1.013-.836-.852-.576.56.9m-93.887 2.775c-1.792 2.484-2.254 3.411-.948 1.9 1.076-1.245 2.737-3.8 2.471-3.8-.084 0-.77.855-1.523 1.9m-32.397.037c-.605.364-1.1.81-1.1.99-.001.18.539-.057 1.199-.527 1.777-1.266 1.715-1.558-.099-.463m128.905-.451c-.003.267.399.694.894.948s1.513 1.025 2.263 1.714c1.244 1.143 1.296 1.159.6.186-.42-.587-1.303-1.383-1.963-1.77-.66-.387-1.332-.897-1.494-1.134-.2-.293-.296-.275-.3.056M233.6 149.2c.47.66.944 1.2 1.054 1.2.11 0-.184-.54-.654-1.2-.47-.66-.944-1.2-1.054-1.2-.11 0 .184.54.654 1.2m-102.4 1.666c-1.21 1.122-1.66 1.672-1 1.223 1.14-.775 3.746-3.304 3.375-3.275-.096.007-1.165.931-2.375 2.052m32.586 1.467c-3.543 4.58-11.456 12.825-18.039 18.796l-2.347 2.129 2.376-1.929c3.839-3.118 10.035-9.214 13.954-13.729 2.005-2.31 4.056-4.648 4.558-5.196.793-.866 1.16-1.604.798-1.604-.063 0-.648.69-1.3 1.533m106.014-.347c.44.184 1.162.668 1.605 1.074 1.728 1.587 2.297 1.754.661.194-.954-.91-2.034-1.643-2.4-1.629-.527.02-.499.096.134.361m-33.393 1.009c.326.437.93 1.157 1.342 1.6l.75.805-.413-.804c-.226-.443-.83-1.163-1.342-1.6-.927-.793-.928-.793-.337-.001m-110.044 1.65c-.294.354-.901.793-1.349.974-.574.233-.628.338-.184.356.347.014 1.053-.425 1.57-.975.517-.55.84-1 .719-1-.122 0-.462.29-.756.645m148.037.755c.274.33.678.6.898.6.223 0 .18-.265-.098-.6-.274-.33-.678-.6-.898-.6-.223 0-.18.265.098.6m-34.919 1.187c.396.544.885.994 1.089 1 .203.007-.053-.437-.57-.987-1.199-1.277-1.443-1.282-.519-.013m37.52.615c.118.191.754.616 1.414.945.659.329 1.102.442.984.251-.118-.191-.754-.616-1.414-.945-.659-.329-1.102-.442-.984-.251m-155.789.782c-.953.603-.303.73.788.155.551-.291.731-.527.4-.527-.33 0-.865.168-1.188.372m120.269 1.003c.396.544.885.994 1.089 1 .203.007-.053-.437-.57-.987-1.199-1.277-1.443-1.282-.519-.013m-122.881.809-1.2.993 1.292-.62c.711-.341 1.396-.788 1.524-.994.432-.7-.411-.375-1.616.621m161.584-.621c.128.206.813.653 1.524.994l1.292.62-1.2-.993c-1.205-.996-2.048-1.321-1.616-.621m-32.487 6.177c2.603 2.614 4.849 4.635 4.993 4.491.144-.144-.177-.567-.714-.939-.537-.373-1.786-1.464-2.776-2.424-4.871-4.725-5.711-5.355-1.503-1.128m-131.631-3.959c-1.502.827-1.987 1.506-.572.8.709-.354 1.394-.812 1.522-1.018.276-.448.245-.441-.95.218m167.335-.191c.118.191.754.616 1.414.945.659.329 1.102.442.984.251-.118-.191-.754-.616-1.414-.945-.659-.329-1.102-.442-.984-.251M112.8 163.157c0 .196-.45.469-1 .607s-1 .414-1 .613.536.094 1.192-.233c1.277-.637 1.925-1.344 1.232-1.344-.233 0-.424.16-.424.357m174.257.247c.108.282.635.597 1.17.699 1.279.244 1.228.083-.197-.628-.888-.443-1.123-.46-.973-.071M108.4 165.433c-.558.31-.735.552-.4.548.33-.003.949-.271 1.376-.594.963-.728.369-.7-.976.046m182.4-.033c.274.33.791.579 1.149.554.549-.04.542-.075-.049-.23-.385-.1-.7-.349-.7-.553 0-.204-.202-.371-.449-.371-.31 0-.295.185.049.6m-187.2 2.419c-.99.514-1.663.944-1.496.957.385.03 3.896-1.61 3.896-1.82 0-.288-.59-.076-2.4.863m191.424-.432c.427.323 1.046.592 1.376.598.33.005.084-.259-.546-.587-1.459-.761-1.829-.766-.83-.011M100 169.433c-.558.31-.735.552-.4.548.33-.003.949-.271 1.376-.594.963-.728.369-.7-.976.046m199.376-.02c.428.323 1.148.566 1.6.541.804-.046.804-.051.024-.239-.44-.106-.971-.355-1.18-.554-.209-.198-.569-.355-.8-.348-.231.007-.071.277.356.6M95.4 171.2c-.136.22-.652.4-1.147.4-.914 0-2.851 1.164-1.977 1.187A.914.914 0 0 0 93 172.4c.136-.22.642-.406 1.124-.413.482-.007 1.225-.277 1.652-.6.428-.323.573-.587.324-.587-.249 0-.564.18-.7.4m209.176.213c.428.323 1.148.566 1.6.541.804-.046.804-.051.024-.239-.44-.106-.971-.355-1.18-.554-.209-.198-.569-.355-.8-.348-.231.007-.071.277.356.6m-49.176.85c.44.419 1.52 1.276 2.4 1.906l1.6 1.144-1.6-1.462c-.88-.803-1.96-1.661-2.4-1.905l-.8-.445.8.762M89 173.2c-.136.22-.822.427-1.524.46-1.177.055-1.192.073-.198.224.593.091 1.583-.109 2.2-.444.75-.406.898-.613.446-.624-.372-.009-.788.164-.924.384m221.4.2c.55.314 1.484.578 2.076.586.592.008 1.188.194 1.324.414.136.22.439.4.673.4.268 0 .241-.222-.073-.6-.274-.33-1.095-.6-1.825-.6s-1.439-.18-1.575-.4c-.136-.22-.552-.394-.924-.386-.492.01-.404.17.324.586m-169.209 1.352c-.995.797-2.435 1.941-3.2 2.544-.765.602-1.209 1.097-.987 1.1.222.002.852-.403 1.4-.9.777-.705 3.135-2.573 4.763-3.773.091-.068.091-.189 0-.271-.092-.081-.981.504-1.976 1.3m-60.211.414c-.209.202-.74.448-1.18.547-.44.1-.35.127.2.062.55-.066 1.63-.294 2.4-.507l1.4-.386-1.22-.041c-.671-.023-1.391.124-1.6.325m236.42-.075c.66.094 1.371.337 1.58.54.209.203.963.369 1.676.369s1.408.18 1.544.4c.136.22.462.394.724.387 1.119-.03-1.198-1.187-2.377-1.187-.715 0-1.411-.18-1.547-.4-.136-.22-.822-.373-1.524-.34l-1.276.06 1.2.171m-57.201.899c.44.491 1.277 1.139 1.862 1.442.585.302 1.359.845 1.72 1.206.361.362.748.566.859.455.111-.111-1.022-1.055-2.519-2.098s-2.361-1.495-1.922-1.005m-183.724.826c-.481.448-.864 1.123-.85 1.5.02.518.111.471.379-.192.194-.481.857-1.149 1.474-1.484.653-.353.861-.615.497-.624-.343-.009-1.018.351-1.5.8m247.406.771c.113.433.451.991.752 1.24.412.343.395.151-.073-.787-.707-1.418-.979-1.599-.679-.453m-188.593 1.617c-.47.438-1.02.796-1.222.796-.203 0-.593.271-.868.603-.439.529-.384.541.451.1 1.573-.831 2.916-1.871 2.698-2.09-.113-.112-.59.154-1.059.591m129.912.199c0 .319 5.664 3.866 5.86 3.67.097-.097-1.002-.865-2.442-1.708-1.44-.842-2.618-1.674-2.618-1.848 0-.174-.18-.317-.4-.317-.22 0-.4.091-.4.203m-137.989 4.817c-.764.539-1.269.98-1.123.98.351 0 3.112-1.632 3.112-1.84 0-.36-.675-.068-1.989.86m144.557-.671c.126.202.904.722 1.73 1.156.826.433 2.198 1.18 3.049 1.661.851.48 1.63.791 1.73.69.101-.101-.685-.624-1.747-1.161a101.97 101.97 0 0 1-3.46-1.847c-.841-.477-1.427-.702-1.302-.499M124.8 185.577c-.33.182-1.095.561-1.699.844-.605.282-1.007.606-.894.72.114.113.419-.007.68-.268.26-.26.775-.473 1.144-.473.369 0 .895-.27 1.169-.6.554-.667.481-.708-.4-.223m-4.8 2c-.33.182-1.095.561-1.699.844-.605.282-1.007.606-.894.72.114.113.419-.007.68-.268.26-.26.763-.473 1.117-.473.353 0 .992-.264 1.42-.587.824-.624.384-.791-.624-.236m159.6.223c.274.33.825.6 1.225.6.4 0 .839.18.975.4.136.22.552.399.924.398.428-.002.255-.222-.47-.6-.63-.329-1.395-.598-1.7-.598-.305 0-.554-.18-.554-.4 0-.22-.202-.4-.449-.4-.31 0-.295.185.049.6M115 189.6c-.136.22-.642.421-1.124.446-.665.036-.709.091-.183.228.38.1 1.096-.101 1.589-.446.493-.345.687-.628.431-.628a.936.936 0 0 0-.713.4m169.624.187c.427.323 1.145.593 1.596.6.451.007 1.017.21 1.258.451.24.24.769.373 1.175.295.458-.088.057-.345-1.058-.677-.987-.293-2.108-.696-2.49-.895-1.071-.557-1.346-.428-.481.226M111.4 190.8c-.771.331-.769.345.076.372.482.015.988-.152 1.124-.372.292-.473-.099-.473-1.2 0m-2.741.674c-.151.151-1.036.398-1.966.55-1.624.265-1.636.277-.293.296 1.546.021 4.816-1.037 3.367-1.09-.459-.016-.957.093-1.108.244m182.141.293c.77.314 1.974.586 2.676.603.702.016 1.388.21 1.524.43.136.22 1.092.377 2.124.35l1.876-.05-1.6-.311c-.88-.171-2.5-.499-3.6-.73-4.344-.911-4.564-.932-3-.292M102.4 192.8l-1.8.28 1.876.06c1.032.033 1.988-.12 2.124-.34.136-.22.102-.373-.076-.34-.178.033-1.134.186-2.124.34m-7.9 1.034c-2.655 1.161-1.361.983 2.7-.371.33-.11.15-.199-.4-.199-.55.001-1.585.257-2.3.57m209.246-.032c.63.329 1.62.573 2.2.544l1.054-.055-1-.179c-.55-.099-1.171-.344-1.38-.546-.209-.201-.749-.365-1.2-.364-.683.003-.628.103.326.6m3.054 1.522c0 .372.18.676.4.676.606 0 .514 7.312-.1 8.001-.425.477-.396.481.2.031.936-.708 1.003-7.397.087-8.608-.512-.678-.587-.69-.587-.1m-214.184 3.001c-.165 1.388-.206 2.618-.091 2.733.281.281.81-4.061.576-4.73-.101-.29-.319.608-.485 1.997m-.182 4.075c.012.33.177.96.366 1.4l.344.8.022-.8c.012-.44-.153-1.07-.366-1.4-.345-.533-.385-.533-.366 0m1.515 2.9c.302.385.932.679 1.4.654.808-.044.811-.057.051-.243-.44-.109-1.07-.403-1.4-.654-.522-.397-.528-.366-.051.243m211.831-.134c-.209.202-.83.447-1.38.546l-1 .179 1.051.055c.578.029 1.275-.216 1.549-.546.544-.656.389-.821-.22-.234M100.4 206.4c.33.213.87.388 1.2.388.533 0 .533-.043 0-.388-.33-.213-.87-.388-1.2-.388-.533 0-.533.043 0 .388m198.8 0c-.795.514.204.514 1.4 0l.8-.344-.8-.022c-.44-.012-1.07.153-1.4.366m-193.2.868c.77.213 1.85.441 2.4.507.55.065.64.038.2-.062-.44-.099-.971-.345-1.18-.547-.209-.201-.929-.348-1.6-.325l-1.22.041 1.4.386m186.98-.102c-.209.202-.74.448-1.18.547-.44.1-.35.124.2.053.55-.071 1.72-.296 2.6-.501l1.6-.373-1.42-.046c-.781-.025-1.591.119-1.8.32M110.4 208.4c.33.213.87.388 1.2.388.533 0 .533-.043 0-.388-.33-.213-.87-.388-1.2-.388-.533 0-.533.043 0 .388m3.546 1.016c1.76.764 2.582.75 1.108-.018-.63-.329-1.44-.591-1.8-.582-.36.008-.048.278.692.6m171.454-.037c-2.692 1.085-3.208 1.37-2.524 1.396.372.014.775-.135.896-.33s.845-.472 1.61-.615c.764-.144 1.497-.434 1.628-.645.292-.473-.06-.431-1.61.194M119.149 211.3c.302.385.932.679 1.4.654.808-.044.811-.057.051-.243-.44-.109-1.07-.403-1.4-.654-.522-.397-.528-.366-.051.243m161.651-.1c0 .22-.326.4-.724.4-.797 0-2.566 1.167-1.8 1.187a.914.914 0 0 0 .724-.387c.136-.22.575-.4.975-.4s.951-.27 1.225-.6c.344-.415.359-.6.049-.6-.247 0-.449.18-.449.4m-5.303 2.366c-1.812 1.162-1.811 1.39.003.475.935-.471 1.7-.944 1.7-1.049 0-.343-.577-.148-1.703.574M126.486 215c1.541 1.047 2.12 1.256 1.73.625-.229-.37-2.523-1.625-2.97-1.625-.128 0 .431.45 1.24 1m3.923 2.411c.269.324.722.589 1.007.589.284 0 .608.225.719.5.142.35.211.359.233.029.018-.259-.526-.749-1.208-1.089-1.051-.524-1.166-.529-.751-.029m136.072 1.561c-1.858 1.313-2.119 1.689-.55.79.732-.419 1.519-.987 1.749-1.262.591-.707.313-.598-1.199.472m-133.317.385c.517.623 2.164 1.173 1.813.606-.123-.2-.484-.363-.801-.363-.317 0-.576-.18-.576-.4 0-.22-.202-.4-.449-.4-.326 0-.322.153.013.557M75.236 220.8c.848 1.504 1.638 2.4 2.115 2.4.235 0 .027-.28-.462-.623-.489-.342-.889-.86-.889-1.151 0-.29-.299-.775-.664-1.077-.611-.504-.619-.468-.1.451m60.764.173c0 .095.585.577 1.3 1.071l1.3.898-.97-1.071c-.864-.955-1.63-1.377-1.63-.898m124.043 2.629c-1.846 1.504-3.736 3.129-4.2 3.611-.464.483.608-.268 2.382-1.668s3.844-3.032 4.6-3.626c.756-.595 1.195-1.074.975-1.066-.22.009-1.911 1.246-3.757 2.749m63.359-1.204c-.399.441-.54.802-.313.802.503 0 1.501-1.143 1.232-1.412-.106-.106-.519.168-.919.61m-245.258 1.111c.151.245 1.125.554 2.165.688 1.04.134 2.204.415 2.586.623.382.209 1.192.362 1.8.339 1.283-.047-.09-.499-3.495-1.149-.99-.189-2.145-.479-2.566-.645-.518-.204-.676-.157-.49.144m243.397-.116c-.106.106-1.171.369-2.367.586l-2.174.394 2.395-.201c1.964-.165 4.249-.972 2.752-.972-.228 0-.5.087-.606.193m-181.741.678c.44.246 1.7 1.188 2.8 2.094 3.157 2.601 3.4 2.766 3.4 2.311 0-.232-.315-.525-.7-.65-.385-.125-1.33-.82-2.1-1.544-1.71-1.609-3.239-2.686-3.789-2.67-.226.007-.051.213.389.459m175.4.729-1 .32 1.076.04c.592.022 1.188-.14 1.324-.36.281-.455.02-.455-1.4 0m-227.8.933c.44.353 1.385.647 2.1.654.715.007 1.3.193 1.3.413 0 .22.202.4.449.4 1 0-.526-1.123-1.763-1.297-.707-.1-1.646-.323-2.086-.496l-.8-.315.8.641m224.8-.133c-.136.22-.822.406-1.524.413-.702.007-1.625.277-2.052.6-.678.512-.69.587-.1.587.372 0 .676-.18.676-.4 0-.22.585-.406 1.3-.413.715-.007 1.649-.277 2.076-.6.428-.323.573-.587.324-.587-.249 0-.564.18-.7.4m-6.42 1.966c-.209.202-.83.447-1.38.546l-1 .179 1.051.055c.578.029 1.275-.216 1.549-.546.544-.656.389-.821-.22-.234m-54.05 2.917c-1.524 1.384-3.107 2.967-3.517 3.517-.411.55.678-.367 2.42-2.038 1.742-1.672 3.437-3.132 3.767-3.246.33-.113.487-.329.35-.478-.138-.149-1.497.861-3.02 2.245m-103.949-.16c.87.922 1.629 1.677 1.688 1.677.409 0-.582-1.195-1.804-2.177l-1.465-1.177 1.581 1.677m-49.063-.495c.493.345 1.209.546 1.589.446.526-.137.482-.192-.183-.228-.482-.025-.988-.226-1.124-.446a.936.936 0 0 0-.713-.4c-.256 0-.062.283.431.628m201.282.005c-.556.309-.733.552-.4.547.33-.005 1.05-.266 1.6-.58.55-.314.73-.56.4-.547-.33.014-1.05.275-1.6.58m-197.2 1.558c0 .269 3.261 1.813 3.775 1.788.234-.012-.464-.462-1.55-1-2.1-1.041-2.225-1.086-2.225-.788m192.302.713c-.823.459-1.439.892-1.369.962.168.168 3.467-1.427 3.467-1.675 0-.333-.558-.143-2.098.713M107.6 233.8c.274.33.8.6 1.169.6s.913.225 1.21.5c.369.343.454.351.272.025-.237-.421-2.475-1.725-2.961-1.725-.104 0 .036.27.31.6m184.224.013c-.428.323-.597.587-.377.587.22 0 .749-.264 1.177-.587.427-.323.596-.588.376-.588-.22 0-.749.265-1.176.588m-180.991 1.544c.45.424 3.28 1.863 3.409 1.734.082-.081-.587-.54-1.485-1.019-1.487-.795-2.347-1.114-1.924-.715m176.624.71c-.849.429-1.47.854-1.38.944.247.246 3.123-1.13 3.123-1.494 0-.175-.045-.297-.1-.273-.055.024-.794.394-1.643.823m-44.004 2.633c-4.324 4.521-5.467 5.819-5.286 6 .101.101.778-.51 1.504-1.358.726-.848 2.477-2.757 3.89-4.242 1.414-1.485 2.462-2.7 2.331-2.7-.132 0-1.23 1.035-2.439 2.3m-128.077-.887c.428.323.957.587 1.177.587.22 0 .051-.264-.377-.587-.427-.323-.956-.588-1.176-.588-.22 0-.051.265.376.588m168.921.153c-1.372.879-1.737 1.235-1.264 1.232.202-.001.907-.445 1.567-.986 1.399-1.146 1.267-1.253-.303-.246m-4.584 2.719c-1.368.811-2.407 1.555-2.308 1.653.098.099.899-.297 1.778-.879.88-.583 1.762-1.059 1.959-1.059.198 0 .584-.27.858-.6.703-.847.509-.772-2.287.885m-120.913.359c0 .232 2.44 3.112 5.15 6.078l1.349 1.478-1.149-1.511c-1.578-2.074-5.35-6.336-5.35-6.045m-36.713 1.156c.593.55 1.311.995 1.596.989.284-.005.022-.317-.583-.692-.605-.375-1.1-.821-1.1-.99 0-.169-.223-.307-.496-.307s-.011.45.583 1m152.313 2.082-1 1.034 1.3-.885c1.276-.869 1.596-1.255 1-1.207-.165.013-.75.49-1.3 1.058m-147.268 1.333c.733.447 1.813 1.268 2.4 1.824 1.296 1.227 2.712 2.079 2.272 1.368-.431-.697-5.016-4.007-5.548-4.006-.251.001.144.368.876.814m144.668.591-1.2 1.003 1.297-.705c.714-.387 1.299-.839 1.3-1.004.004-.437-.078-.396-1.397.706m-36.22 1.294c-1.042 1.22-1.98 2.665-1.98 3.049 0 .324 1.696-1.84 2.546-3.249.435-.722.129-.614-.566.2m31.493 2.294c-3.814 3.113-8.852 7.72-7.473 6.834.55-.354 1.81-1.419 2.8-2.369.99-.949 3.195-2.848 4.9-4.221 2.639-2.125 3.484-2.918 3-2.817-.055.011-1.507 1.169-3.227 2.573m-101.013.201c.486.657.959 1.12 1.051 1.027.223-.223-1.224-2.193-1.623-2.209-.172-.007.086.525.572 1.182m-31.233 1.43c.028.398 5.317 4.975 5.747 4.975.14 0-.427-.585-1.26-1.299a90.965 90.965 0 0 1-1.72-1.5c-1.516-1.474-2.789-2.475-2.767-2.176m96.868 1.238c-.492.553-.895 1.183-.895 1.402 0 .218.472-.165 1.05-.851 1.26-1.497 1.123-1.986-.155-.551M168 252.172c0 .54 1.361 2.628 1.713 2.628.188 0-.062-.585-.556-1.3-1.177-1.704-1.157-1.681-1.157-1.328m4.037 6.228c1.159 1.796 1.163 1.801 1.161 1.367-.001-.202-.466-.907-1.033-1.567l-1.031-1.2.903 1.4m2.002 3.376c.462.783.917 1.424 1.011 1.424.284 0-1.014-2.331-1.448-2.599-.222-.137-.025.392.437 1.175m51.449.281c-.978 1.717-.683 1.797.42.114.495-.754.763-1.37.596-1.368-.167.001-.625.565-1.016 1.254m26.284 2.243c-3.861 4.322-5.045 5.834-2.372 3.028 2.581-2.709 5.9-6.528 5.674-6.528-.097 0-1.583 1.575-3.302 3.5M145.6 261.438c0 .258.379.714 4.669 5.604 2.67 3.044 3.283 3.792 4.708 5.745.647.887 1.367 1.61 1.6 1.607.286-.004.282-.101-.013-.3-.24-.162-1.011-1.094-1.713-2.072-1.161-1.616-2.187-2.828-7.551-8.918-.935-1.062-1.7-1.812-1.7-1.666m30.483 3.74c.473.887.919 1.554.99 1.482.191-.191-1.061-2.605-1.487-2.869-.2-.123.024.501.497 1.387m47.217.645c-.275.299-.5.771-.5 1.049 0 .278.288.094.641-.409.721-1.03.624-1.47-.141-.64m-45.447 2.962c.329.66.754 1.296.945 1.414.191.118.078-.325-.251-.984-.329-.66-.754-1.296-.945-1.414-.191-.118-.078.325.251.984m44.227-.705c-.264.264-.459.849-.434 1.3.046.803.051.804.243.02.109-.44.38-1.025.603-1.3.518-.638.22-.652-.412-.02m23.408 3.62c-.332.495-.99 1.305-1.462 1.8-.471.495-.715.9-.542.9.295 0 1.993-1.976 2.665-3.1.521-.873-.031-.538-.661.4m-66.288-.149c0 .247.18.449.4.449.22 0 .4.338.4.751s.315.989.7 1.281c.596.45.625.446.2-.031-.275-.309-.5-.863-.5-1.232s-.27-.895-.6-1.169c-.415-.344-.6-.359-.6-.049m40.88.529c-.264.264-.48.768-.48 1.12 0 .352-.213.853-.473 1.113-.261.261-.381.566-.268.68.114.113.438-.289.72-.894.283-.604.675-1.414.871-1.799.417-.819.299-.889-.37-.22m-38.867 3.225c-.007.168.148.618.344 1 .196.382.563 1.213.815 1.847.252.633.574 1.035.716.893.142-.142.046-.471-.215-.732-.26-.26-.473-.763-.473-1.117 0-.633-1.163-2.485-1.187-1.891m61.387.441c-1.181 1.372-1.404 1.915-.397.966.635-.598 1.074-1.165.976-1.26-.099-.094-.359.038-.579.294m-24.527.741c-.26.26-.473.786-.473 1.169s-.18.808-.4.944c-.22.136-.4.451-.4.7 0 .72 1.173-1.026 1.187-1.767.007-.366.238-.747.513-.845.275-.098.398-.29.273-.427-.124-.136-.439-.035-.7.226M239.6 279.8c-.681.99-1.093 1.8-.916 1.8.177 0 .811-.81 1.409-1.8s1.01-1.8.916-1.8c-.094 0-.728.81-1.409 1.8m-78.4 1.6c.681.99 1.328 1.8 1.438 1.8.11 0-.357-.81-1.038-1.8s-1.328-1.8-1.438-1.8c-.11 0 .357.81 1.038 1.8m22.802.454c-.001.25.267.97.596 1.6.328.63.598.942.6.692.001-.25-.267-.97-.596-1.6-.328-.63-.598-.942-.6-.692m31.297.937c-.275.439-.498 1.116-.497 1.504.002.473.203.322.611-.462.712-1.364.618-2.215-.114-1.042m20.751 2.615c-1.183 2.004-1.064 2.295.186.456.569-.838.951-1.608.849-1.71-.102-.102-.568.462-1.035 1.254m-50.55.593c.275.309.506 1.02.513 1.581.007.561.277 1.369.6 1.796.512.678.587.69.587.1 0-.372-.18-.676-.4-.676-.22 0-.4-.518-.4-1.151s-.315-1.389-.7-1.681c-.596-.45-.625-.446-.2.031m28.146 1.877c-.025.482-.226.988-.446 1.124-.22.136-.399.552-.398.924.002.42.235.232.615-.499.337-.646.537-1.456.444-1.8-.106-.394-.185-.301-.215.251m20.88.224c-1.029 1.601-1.248 2.245-.688 2.03.309-.119.562-.52.562-.893 0-.372.216-.893.48-1.157s.365-.48.224-.48-.401.225-.578.5m-67.726 2.775c0 .345.27.851.6 1.125.763.634.756.039-.013-.976-.47-.622-.587-.652-.587-.149m20.778 1.399c.232.48.428 1.38.435 2 .007.619.277 1.475.6 1.902.323.428.587.573.587.324 0-.249-.18-.564-.4-.7-.22-.136-.4-.832-.4-1.547s-.28-1.649-.622-2.077c-.601-.75-.608-.746-.2.098m44.078 1.181c-.48 1.072-.47 1.103.162.484.371-.363.602-.879.513-1.145-.089-.267-.392.031-.675.661m-19.992 1.045c-.035.825-.244 1.5-.464 1.5-.22 0-.4.31-.4.689 0 .565.112.529.625-.203.37-.529.559-1.422.464-2.189-.158-1.273-.162-1.269-.225.203m-42.864-.022c0 .127.269.746.598 1.376.328.63.592.876.587.546-.006-.33-.275-.949-.598-1.376-.323-.428-.587-.673-.587-.546m60.904 3.006c-.273.582-.422 1.131-.332 1.221.24.241 1.101-1.487.954-1.914-.069-.201-.349.111-.622.693M171.057 300c.251.33.545.96.654 1.4.186.76.199.757.243-.051.025-.468-.269-1.098-.654-1.4-.609-.477-.64-.471-.243.051m39.163.22c-.18.429-.468 1.5-.639 2.38-.172.88-.419 2.05-.551 2.6-.202.846-.148.815.348-.2.322-.66.594-1.749.604-2.42.01-.671.218-1.42.463-1.665.245-.245.368-.677.273-.96-.113-.339-.283-.249-.498.265m18.26-.14c-.264.264-.48.948-.48 1.52 0 .572-.225 1.292-.5 1.601-.425.477-.396.481.2.031.385-.292.7-1.012.7-1.601s.216-1.287.48-1.551.39-.48.28-.48c-.11 0-.416.216-.68.48m-38.271 2.049c.101 1.061.377 2.231.613 2.6.334.523.366.407.147-.529-.979-4.171-.954-4.104-.76-2.071m-17.407 2.891c-.001.451.161.991.359 1.2.199.209.448.74.554 1.18.182.756.195.753.239-.054.025-.47-.223-1.37-.552-2-.497-.954-.597-1.009-.6-.326m53.668.967c-.291.656-.45 1.603-.354 2.103.138.715.187.649.23-.31.029-.671.254-1.42.499-1.665.245-.245.379-.642.299-.883-.08-.241-.384.099-.674.755m-35.27.3c0 1.682 14.582 2.67 16.624 1.126.427-.323.562-.593.3-.6a.914.914 0 0 0-.724.387c-.538.87-13.743.495-15.038-.427-.639-.455-1.162-.674-1.162-.486m-16.232 5.913c.488 3.005.938 4.474.98 3.2.022-.66-.233-1.92-.568-2.8-.494-1.302-.571-1.377-.412-.4m49.694.6c-.169.77-.372 2.12-.45 3-.079.88-.062 1.06.037.4.098-.66.369-1.578.601-2.04.232-.462.354-1.272.271-1.8-.13-.826-.194-.764-.459.44M176 317.71c0 .573.187 1.158.416 1.3.273.169.322-.133.144-.876-.368-1.533-.56-1.678-.56-.424m47.429.919c-.148.586-.178 1.155-.068 1.265.11.11.32-.279.468-.865.147-.587.177-1.156.067-1.266-.11-.11-.32.279-.467.866m-46.616 1.866c-.025.572 1.372 1.905 1.996 1.905.347 0 .826.195 1.065.434.238.238.859.353 1.38.254.886-.168.878-.183-.13-.234-.592-.029-1.188-.234-1.324-.454-.136-.22-.523-.4-.859-.4-.337 0-.951-.405-1.364-.9-.413-.495-.756-.767-.764-.605m45.987.229c0 .907-2.2 1.88-4.78 2.113l-2.62.237 2.615.063c2.615.063 5.992-1.64 5.085-2.565-.165-.168-.3-.099-.3.152m-31.6 2.876c.55.176 1.45.32 2 .32h1l-1-.32c-.55-.176-1.45-.32-2-.32h-1l1 .32m4.6.243-1.6.559 1.6-.238c1.665-.247 3.413-.97 2.2-.91-.33.016-1.32.281-2.2.589" fill="#5a5a5a"/></g></svg>