<?xml version="1.0" encoding="utf-8"?>
<svg width="32px" height="32px" viewBox="0 0 32 32" version="1.1" xmlns:xlink="http://www.w3.org/1999/xlink" xmlns="http://www.w3.org/2000/svg">
  <g id="Group">
    <path d="M16 32C24.8366 32 32 24.8366 32 16C32 7.16344 24.8366 0 16 0C7.16344 0 0 7.16344 0 16C0 24.8366 7.16344 32 16 32Z" id="Oval" fill="#E64E63" fill-rule="evenodd" stroke="none" />
    <g id="₺" fill="#FFFFFF" transform="translate(6.5238094 0.5)">
      <path d="M7.161 16.356L5.313 17.238L5.313 15.348L7.161 14.466L7.161 13.038L5.313 13.92L5.313 12.051L7.161 11.169L7.161 6.171L10.353 6.171L10.353 9.657L13.524 8.145L13.524 10.035L10.353 11.526L10.353 12.954L13.524 11.463L13.524 13.332L10.353 14.844L10.353 18.246L11.382 18.246Q12.096 18.246 12.621 18.078Q13.146 17.91 13.4925 17.469Q13.839 17.028 14.0175 16.293Q14.196 15.558 14.196 14.424L17.241 14.424Q17.241 15.768 16.926 16.9335Q16.611 18.099 15.9495 18.9705Q15.288 19.842 14.2485 20.3355Q13.209 20.829 11.781 20.829L7.161 20.829L7.161 16.356Z" />
    </g>
  </g>
</svg>