<svg id="svg" version="1.1" xmlns="http://www.w3.org/2000/svg" xmlns:xlink="http://www.w3.org/1999/xlink" width="32" height="32" viewBox="0, 0, 400,400"><g id="svgg"><path id="path0" d="M339.604 224.757 C 339.057 224.909,338.215 225.656,337.733 226.417 C 337.251 227.178,336.376 228.385,335.789 229.100 L 334.721 230.400 325.061 230.401 C 314.256 230.403,313.547 230.562,312.174 233.282 C 311.808 234.007,311.051 235.090,310.491 235.688 L 309.473 236.776 308.936 235.743 C 308.641 235.174,308.400 234.270,308.400 233.734 C 308.400 231.897,307.324 230.513,305.309 229.757 C 302.576 228.732,302.063 227.606,304.324 227.595 C 306.160 227.585,307.085 227.171,307.551 226.147 C 308.208 224.706,308.108 224.561,307.100 225.492 C 306.605 225.950,305.433 226.550,304.495 226.827 C 301.518 227.705,301.554 230.071,304.586 232.868 C 305.957 234.134,307.181 237.160,307.195 239.322 C 307.204 240.648,308.756 243.479,309.877 244.213 C 311.554 245.313,312.306 246.409,312.815 248.495 C 313.252 250.285,313.774 250.996,315.894 252.687 C 318.213 254.537,316.315 256.693,310.600 258.698 C 307.027 259.951,292.838 265.758,291.806 266.388 C 291.143 266.794,288.710 267.934,286.400 268.923 C 282.682 270.515,279.345 271.997,275.421 273.798 C 274.750 274.106,273.061 274.734,271.669 275.194 C 270.277 275.654,265.631 277.643,261.346 279.615 C 252.185 283.830,253.430 283.524,252.858 281.700 C 251.337 276.838,250.357 271.964,249.755 266.261 C 248.997 259.079,248.851 258.742,246.169 257.991 C 245.104 257.693,243.978 257.014,243.389 256.314 C 242.256 254.967,242.175 255.088,242.958 256.962 C 243.441 258.117,243.777 258.346,245.437 258.649 C 246.494 258.842,247.322 259.135,247.279 259.300 C 247.236 259.465,247.200 260.050,247.200 260.600 C 247.200 261.585,247.152 261.600,243.920 261.600 L 240.639 261.600 237.420 264.900 C 235.649 266.715,233.626 268.500,232.925 268.867 C 232.221 269.236,231.288 270.243,230.842 271.117 C 229.921 272.923,227.877 274.800,226.831 274.800 C 225.978 274.800,224.800 276.018,224.800 276.901 C 224.800 277.885,222.874 279.946,221.117 280.842 C 220.246 281.287,219.234 282.205,218.867 282.884 C 217.682 285.077,216.004 286.736,214.683 287.021 C 211.282 287.755,207.411 291.214,205.400 295.315 C 204.531 297.087,203.703 298.104,202.400 298.998 C 201.337 299.728,200.239 300.943,199.718 301.966 C 198.574 304.211,197.732 305.116,195.931 306.035 C 195.073 306.473,193.779 307.758,192.822 309.123 C 191.843 310.519,190.613 311.732,189.771 312.134 C 188.994 312.504,188.053 313.368,187.679 314.054 C 186.531 316.161,185.170 317.599,183.534 318.434 C 181.125 319.663,180.403 321.189,180.401 325.061 C 180.400 328.646,180.226 328.920,176.417 331.333 C 174.745 332.392,174.491 333.199,174.440 337.625 C 174.396 341.385,174.254 341.614,170.882 343.357 C 168.342 344.671,168.003 345.808,168.001 353.025 L 168.000 359.450 166.900 360.479 C 166.295 361.046,165.207 361.808,164.482 362.174 C 161.562 363.648,161.603 363.357,161.601 382.700 L 161.600 400.000 280.800 400.000 L 400.000 400.000 400.000 312.200 L 400.000 224.400 370.300 224.440 C 353.965 224.462,340.152 224.604,339.604 224.757 " stroke="none" fill="#12ccec" fill-rule="evenodd"></path><path id="path1" d="M251.000 151.009 C 249.900 151.292,247.225 151.540,245.054 151.562 C 240.591 151.605,238.826 152.285,237.400 154.512 C 236.272 156.273,234.651 157.088,231.197 157.632 C 226.602 158.355,226.400 158.562,226.400 162.539 C 226.400 167.176,227.069 167.831,231.400 167.438 C 235.320 167.083,235.324 167.081,236.445 164.889 C 238.168 161.518,239.060 161.200,246.789 161.200 C 253.760 161.200,255.200 160.802,255.200 158.874 C 255.200 158.613,255.920 157.680,256.800 156.800 L 258.400 155.200 265.330 155.200 C 272.062 155.200,272.285 155.173,273.133 154.272 L 274.004 153.344 273.076 152.472 C 272.201 151.650,271.773 151.600,265.574 151.593 C 261.316 151.589,258.014 151.377,256.200 150.993 C 254.660 150.667,253.310 150.421,253.200 150.448 C 253.090 150.474,252.100 150.726,251.000 151.009 M58.623 152.489 C 57.782 153.690,57.663 227.793,58.500 228.921 C 58.775 229.291,59.810 230.000,60.800 230.497 C 62.111 231.155,62.840 231.875,63.482 233.149 C 65.055 236.265,65.293 236.400,69.243 236.400 C 73.625 236.400,74.530 236.802,75.777 239.305 C 77.399 242.558,76.320 242.375,93.800 242.375 C 111.133 242.375,110.348 242.496,111.635 239.622 C 112.759 237.112,114.299 236.403,118.638 236.401 C 122.759 236.400,123.271 236.105,124.435 233.060 C 124.919 231.794,125.476 231.191,126.784 230.518 C 130.358 228.678,130.000 233.099,130.000 190.808 L 130.000 153.339 129.074 152.470 C 127.607 151.092,116.175 151.137,114.870 152.526 L 114.000 153.452 114.000 188.107 C 114.000 225.814,114.107 224.143,111.604 225.549 C 109.266 226.864,78.757 226.877,76.422 225.564 C 73.915 224.155,74.000 225.477,74.000 187.741 L 74.000 153.339 73.074 152.470 C 71.630 151.113,59.575 151.129,58.623 152.489 M146.070 152.526 L 145.200 153.452 145.200 197.280 L 145.200 241.108 146.186 241.754 C 147.655 242.717,165.145 242.717,166.614 241.754 L 167.600 241.108 167.600 224.916 C 167.600 204.915,167.494 205.200,174.918 205.200 C 178.688 205.200,178.956 205.044,180.518 201.949 C 181.157 200.682,181.892 199.952,183.187 199.299 C 185.410 198.178,185.778 197.810,186.899 195.587 C 187.547 194.301,188.283 193.556,189.521 192.931 C 192.282 191.538,192.479 191.292,191.739 190.163 L 191.108 189.200 181.334 189.200 C 167.399 189.200,167.603 189.360,167.603 178.400 C 167.603 166.822,165.952 167.600,190.510 167.600 L 209.461 167.600 210.330 166.674 C 211.088 165.868,211.200 165.292,211.200 162.212 C 211.200 158.181,211.995 156.574,214.476 155.594 C 215.204 155.306,216.206 154.707,216.702 154.263 L 217.604 153.456 216.733 152.528 L 215.861 151.600 181.400 151.600 L 146.939 151.600 146.070 152.526 M283.745 164.741 C 283.275 165.134,282.507 166.205,282.040 167.122 C 280.423 170.291,279.877 170.400,265.686 170.400 C 251.863 170.400,252.490 170.268,251.241 173.440 C 250.272 175.899,248.560 176.400,241.115 176.400 C 233.741 176.400,233.786 176.383,232.288 179.703 C 231.224 182.062,229.629 182.797,225.570 182.799 C 221.748 182.800,221.248 183.090,219.899 186.080 C 218.845 188.419,217.630 188.971,213.033 189.200 L 209.025 189.400 207.810 191.600 C 206.888 193.268,206.163 194.018,204.810 194.701 C 202.589 195.823,202.222 196.191,201.101 198.413 C 200.442 199.720,199.720 200.442,198.413 201.101 C 196.191 202.222,195.823 202.589,194.701 204.810 C 194.018 206.162,193.267 206.889,191.600 207.811 L 189.400 209.028 189.293 218.673 L 189.186 228.317 190.343 229.259 C 190.979 229.776,192.060 230.506,192.746 230.879 C 193.448 231.262,194.294 232.224,194.680 233.079 C 196.051 236.116,196.538 236.400,200.376 236.400 C 204.551 236.400,206.193 237.122,207.389 239.485 C 208.978 242.623,207.865 242.401,221.949 242.391 C 233.526 242.383,234.680 242.321,235.539 241.660 L 236.479 240.937 235.290 239.969 C 234.636 239.436,233.542 238.696,232.859 238.323 C 228.684 236.049,228.791 225.984,233.005 224.525 C 234.993 223.837,235.840 223.046,236.929 220.862 C 237.592 219.532,238.312 218.825,239.807 218.037 C 241.353 217.222,242.053 216.515,242.929 214.887 C 244.699 211.595,245.811 211.200,253.314 211.200 C 260.171 211.200,259.943 211.286,261.942 207.943 C 263.539 205.269,263.960 205.200,278.460 205.203 C 293.182 205.206,292.602 205.085,294.927 208.636 C 295.780 209.940,296.849 210.924,298.169 211.622 C 300.931 213.082,301.600 214.491,301.600 218.849 C 301.600 221.658,301.744 222.489,302.362 223.252 L 303.124 224.193 304.004 223.397 C 304.489 222.958,305.224 221.935,305.639 221.123 C 307.033 218.392,308.576 217.600,312.502 217.600 C 316.258 217.600,316.685 217.346,318.488 214.039 C 318.867 213.344,319.744 212.467,320.439 212.088 C 322.634 210.891,323.893 209.651,324.530 208.058 C 324.997 206.892,325.573 206.313,326.874 205.700 C 329.288 204.564,329.868 203.767,330.392 200.861 C 331.070 197.101,331.423 196.421,334.025 193.886 L 336.400 191.571 336.400 188.048 C 336.400 184.101,336.205 183.756,333.087 182.186 C 331.979 181.628,331.174 180.829,330.621 179.736 C 329.454 177.432,328.921 176.891,326.953 176.020 C 325.663 175.450,325.032 174.854,324.522 173.725 C 323.006 170.368,323.094 170.400,315.468 170.400 C 307.840 170.400,306.745 170.037,305.594 167.124 C 304.331 163.929,304.588 163.998,294.030 164.013 C 285.575 164.025,284.512 164.100,283.745 164.741 M271.369 214.834 C 270.954 215.293,270.246 216.399,269.796 217.292 C 268.590 219.689,266.971 220.400,262.722 220.400 C 258.937 220.400,258.310 220.715,256.958 223.296 C 256.123 224.890,253.860 225.858,250.200 226.186 C 244.978 226.655,244.060 229.173,245.800 238.265 C 246.130 239.989,246.401 243.200,246.403 245.400 C 246.405 247.600,246.520 250.345,246.659 251.500 L 246.911 253.600 248.506 253.600 C 250.164 253.600,254.707 251.930,261.026 248.998 C 263.020 248.073,265.630 247.090,266.826 246.813 C 268.021 246.537,269.630 245.947,270.400 245.502 C 274.875 242.913,277.788 241.551,280.383 240.831 C 281.992 240.386,283.689 239.778,284.154 239.481 C 284.619 239.184,286.260 238.443,287.800 237.834 C 289.340 237.225,290.811 236.553,291.070 236.339 C 291.328 236.126,292.768 235.558,294.270 235.076 L 297.000 234.200 297.355 231.307 C 297.720 228.326,297.395 227.200,296.170 227.200 C 295.434 227.200,292.801 224.420,292.797 223.639 C 292.793 222.466,291.285 220.691,289.554 219.820 C 288.368 219.222,287.588 218.453,287.014 217.313 C 285.321 213.951,285.449 214.000,278.400 214.000 C 272.546 214.000,272.073 214.056,271.369 214.834 " stroke="none" fill="#fafbfb" fill-rule="evenodd"></path><path id="path2" d="M251.631 145.231 C 250.954 145.908,250.400 146.608,250.400 146.787 C 250.400 147.572,247.050 148.400,243.876 148.400 C 238.426 148.400,234.820 149.678,232.400 152.466 C 231.777 153.183,230.271 154.034,228.406 154.721 C 223.700 156.456,221.893 162.400,224.396 167.915 C 226.429 172.395,236.705 171.983,239.000 167.329 C 240.496 164.295,240.200 164.400,247.262 164.400 C 255.482 164.400,256.859 163.865,258.135 160.173 L 258.679 158.600 266.039 158.387 C 274.241 158.150,274.211 158.157,275.580 156.152 C 277.349 153.561,276.199 149.698,273.400 148.832 C 272.740 148.627,269.320 148.387,265.800 148.297 C 259.230 148.130,257.099 147.644,256.540 146.187 C 256.302 145.568,253.968 144.000,253.284 144.000 C 253.051 144.000,252.308 144.554,251.631 145.231 M265.952 149.889 C 274.017 150.166,274.960 150.534,274.960 153.400 C 274.960 156.387,273.876 156.800,266.036 156.800 C 258.582 156.800,258.187 156.931,256.647 159.910 C 255.256 162.599,254.606 162.800,247.282 162.800 L 240.672 162.800 239.236 164.435 C 238.446 165.334,237.146 166.774,236.347 167.635 L 234.894 169.200 231.207 169.200 C 225.835 169.200,224.800 168.160,224.800 162.762 C 224.800 158.035,225.349 157.333,230.273 155.765 C 232.784 154.966,234.103 154.272,235.514 153.010 C 238.336 150.486,238.971 150.255,243.800 150.006 C 247.581 149.811,248.564 149.609,250.786 148.568 L 253.372 147.357 256.186 148.503 C 258.790 149.564,259.518 149.667,265.952 149.889 M57.559 149.308 C 54.609 151.279,54.783 148.541,54.897 191.271 C 55.014 234.756,54.661 230.621,58.442 232.818 C 59.669 233.531,60.502 234.428,61.200 235.788 C 62.769 238.846,63.775 239.376,68.328 239.539 C 72.687 239.696,72.878 239.791,74.253 242.504 C 75.844 245.643,75.568 245.600,93.887 245.599 C 111.672 245.599,111.694 245.596,113.477 242.800 C 115.637 239.415,115.318 239.600,118.993 239.600 C 123.940 239.600,124.749 239.155,126.600 235.416 C 127.184 234.236,127.931 233.530,129.368 232.800 C 133.357 230.774,132.986 234.903,133.103 191.271 C 133.230 143.803,134.478 148.600,122.000 148.600 C 109.597 148.600,110.801 144.402,110.801 187.638 C 110.800 221.020,110.773 222.301,110.049 222.956 C 108.878 224.016,78.792 223.764,77.714 222.686 C 77.043 222.015,76.988 219.880,76.800 187.056 L 76.600 152.141 75.600 150.676 C 74.204 148.632,73.184 148.400,65.599 148.400 C 59.319 148.400,58.837 148.454,57.559 149.308 M145.228 149.101 C 141.916 150.789,142.200 146.271,142.200 197.347 C 142.200 248.072,141.968 244.159,145.049 245.446 C 146.182 245.920,155.896 246.576,164.951 246.792 C 165.144 246.796,165.214 247.715,165.106 248.833 C 164.851 251.495,163.937 252.397,161.153 252.737 L 159.003 253.000 158.707 255.375 C 158.341 258.299,158.299 258.341,155.375 258.707 L 153.000 259.003 152.741 261.125 C 152.436 263.621,151.596 264.706,149.745 264.992 C 149.005 265.106,147.770 265.298,147.000 265.418 C 146.034 265.569,145.600 265.847,145.599 266.318 C 145.596 267.653,143.977 269.669,142.373 270.337 C 141.258 270.800,140.716 271.301,140.571 272.000 C 139.529 277.025,137.906 277.936,129.900 277.988 L 128.000 278.000 127.987 280.500 C 127.948 287.849,127.088 289.853,123.769 290.328 L 121.809 290.609 121.528 292.569 C 121.161 295.135,120.238 296.010,117.551 296.337 L 115.400 296.600 115.137 298.751 C 114.798 301.530,113.931 302.398,111.153 302.737 L 109.003 303.000 108.707 305.375 C 108.341 308.299,108.299 308.341,105.375 308.707 L 103.000 309.003 102.737 311.153 C 102.398 313.931,101.530 314.798,98.751 315.137 L 96.600 315.400 96.400 320.490 C 96.166 326.450,95.833 327.061,92.565 327.529 L 90.600 327.810 90.337 329.956 C 89.998 332.731,89.129 333.598,86.351 333.937 L 84.200 334.200 84.000 339.290 C 83.762 345.352,83.440 345.912,79.951 346.337 L 77.800 346.600 77.600 351.887 C 77.368 358.016,77.257 358.226,73.996 358.694 L 71.800 359.009 71.600 364.294 C 71.362 370.576,71.064 371.109,67.551 371.537 L 65.400 371.800 65.200 376.890 C 64.962 382.952,64.640 383.512,61.151 383.937 L 59.000 384.200 58.892 392.100 L 58.783 400.000 110.192 400.000 L 161.600 400.000 161.601 382.700 C 161.603 363.357,161.562 363.648,164.482 362.174 C 165.207 361.808,166.295 361.046,166.900 360.479 L 168.000 359.450 168.001 353.025 C 168.003 345.808,168.342 344.671,170.882 343.357 C 174.254 341.614,174.396 341.385,174.440 337.625 C 174.491 333.199,174.745 332.392,176.417 331.333 C 180.226 328.920,180.400 328.646,180.401 325.061 C 180.403 321.189,181.125 319.663,183.534 318.434 C 185.170 317.599,186.531 316.161,187.679 314.054 C 188.053 313.368,188.994 312.504,189.771 312.134 C 190.613 311.732,191.843 310.519,192.822 309.123 C 193.779 307.758,195.073 306.473,195.931 306.035 C 197.732 305.116,198.574 304.211,199.718 301.966 C 200.239 300.943,201.337 299.728,202.400 298.998 C 203.703 298.104,204.531 297.087,205.400 295.315 C 207.411 291.214,211.282 287.755,214.683 287.021 C 216.004 286.736,217.682 285.077,218.867 282.884 C 219.234 282.205,220.246 281.287,221.117 280.842 C 222.923 279.921,224.800 277.877,224.800 276.831 C 224.800 275.978,226.018 274.800,226.901 274.800 C 227.885 274.800,229.946 272.874,230.842 271.117 C 231.288 270.243,232.221 269.236,232.925 268.867 C 233.626 268.500,235.649 266.715,237.420 264.900 L 240.639 261.600 243.920 261.600 C 247.152 261.600,247.200 261.585,247.200 260.600 C 247.200 260.050,247.236 259.465,247.279 259.300 C 247.322 259.135,246.494 258.842,245.437 258.649 C 242.104 258.040,242.060 257.734,242.300 236.559 C 242.428 225.204,242.255 225.553,248.600 223.912 C 252.169 222.990,253.151 222.573,253.800 221.709 C 256.056 218.702,258.587 217.600,263.237 217.600 C 266.154 217.600,266.777 217.181,268.465 214.079 C 269.750 211.718,270.985 211.400,278.870 211.400 C 286.739 211.400,287.462 211.612,288.847 214.324 C 289.805 216.200,290.312 216.702,292.380 217.828 C 294.192 218.814,295.600 220.507,295.600 221.700 C 295.600 222.929,296.992 223.693,297.735 222.872 C 299.865 220.519,298.372 214.829,295.307 213.619 C 294.354 213.243,293.739 212.547,292.968 210.971 C 291.500 207.969,292.253 208.129,278.447 207.879 C 264.267 207.621,264.584 207.564,263.233 210.619 C 262.132 213.108,261.169 213.448,254.289 213.771 C 247.116 214.109,246.495 214.301,245.091 216.627 C 244.489 217.624,243.434 218.746,242.747 219.120 C 240.558 220.313,239.164 221.673,238.545 223.221 C 238.070 224.407,237.543 224.898,236.056 225.538 C 231.430 227.528,231.117 234.785,235.577 236.648 C 238.801 237.995,240.052 240.347,238.824 242.752 C 237.402 245.540,236.722 245.644,221.886 245.345 C 207.593 245.056,207.550 245.048,206.148 242.268 C 204.634 239.266,203.803 238.800,199.956 238.800 C 196.056 238.800,194.468 237.984,193.370 235.419 C 192.857 234.221,192.356 233.666,188.838 230.404 L 187.077 228.771 187.310 218.889 L 187.544 209.007 188.947 207.803 C 189.719 207.142,190.907 206.177,191.588 205.659 C 192.269 205.141,193.179 204.026,193.611 203.179 C 194.381 201.668,194.820 201.260,197.574 199.485 C 198.330 198.998,199.420 197.790,199.997 196.800 C 200.573 195.810,201.650 194.640,202.389 194.200 C 203.837 193.339,205.913 191.334,207.739 189.034 L 208.879 187.600 212.385 187.600 C 216.388 187.600,217.434 187.078,218.800 184.400 C 220.146 181.761,221.234 181.200,225.000 181.200 C 228.766 181.200,229.854 180.639,231.200 178.000 C 232.753 174.957,233.232 174.800,240.984 174.800 C 248.623 174.800,248.592 174.810,250.145 171.735 C 251.567 168.920,252.005 168.801,260.954 168.793 C 276.072 168.781,278.570 168.372,280.578 165.578 C 282.813 162.467,283.140 162.381,293.784 162.113 C 304.603 161.840,304.902 161.920,307.229 165.718 C 308.940 168.511,308.534 168.387,316.011 168.394 C 323.306 168.401,323.853 168.554,325.047 170.924 C 325.994 172.804,328.034 174.800,329.009 174.800 C 329.960 174.800,331.107 175.903,332.337 178.000 C 332.808 178.802,334.047 179.912,335.241 180.600 C 340.540 183.654,340.761 192.640,335.681 198.507 C 334.530 199.837,333.780 201.252,333.206 203.179 C 332.307 206.200,330.968 207.724,328.796 208.201 C 327.490 208.488,326.622 209.518,326.183 211.301 C 325.874 212.560,323.883 214.400,322.831 214.400 C 322.035 214.400,320.800 215.598,320.800 216.371 C 320.800 219.330,318.240 220.800,313.089 220.800 C 308.843 220.800,308.645 220.910,308.252 223.487 C 307.748 226.791,306.992 227.581,304.324 227.595 C 302.063 227.606,302.576 228.732,305.309 229.757 C 307.324 230.513,308.400 231.897,308.400 233.734 C 308.400 234.270,308.641 235.174,308.936 235.743 L 309.473 236.776 310.491 235.688 C 311.051 235.090,311.808 234.007,312.174 233.282 C 313.547 230.562,314.256 230.403,325.061 230.401 L 334.721 230.400 335.789 229.100 C 336.376 228.385,337.251 227.178,337.733 226.417 C 338.998 224.420,337.962 224.483,370.300 224.440 L 400.000 224.400 400.000 188.577 L 400.000 152.754 398.307 152.877 C 396.818 152.985,396.572 153.144,396.254 154.200 C 394.834 158.915,396.356 158.566,376.200 158.800 L 359.000 159.000 358.596 161.354 C 357.950 165.125,358.577 164.980,342.263 165.120 C 330.833 165.217,328.128 165.345,327.451 165.820 C 326.323 166.609,309.270 166.684,309.007 165.900 C 308.915 165.625,308.644 164.636,308.405 163.703 C 307.642 160.723,307.095 160.597,295.000 160.620 C 282.243 160.644,280.313 161.146,278.785 164.837 C 278.430 165.693,277.970 166.033,276.956 166.190 C 276.210 166.306,274.925 166.515,274.100 166.655 C 273.275 166.795,267.978 167.020,262.328 167.155 C 250.736 167.431,250.576 167.474,249.000 170.671 C 247.503 173.707,247.809 173.599,240.651 173.609 C 232.780 173.620,231.246 174.094,230.047 176.889 C 229.005 179.321,228.643 179.503,224.529 179.660 C 220.286 179.822,219.108 180.419,217.800 183.071 C 216.386 185.937,216.271 186.000,212.410 186.000 C 208.194 186.000,206.694 186.774,205.309 189.666 C 204.578 191.194,204.099 191.649,202.629 192.210 C 200.563 192.999,199.715 193.826,198.600 196.140 C 198.030 197.324,197.324 198.030,196.140 198.600 C 193.826 199.715,192.999 200.563,192.210 202.629 C 191.652 204.090,191.189 204.582,189.687 205.309 C 186.000 207.094,185.820 207.848,185.380 223.400 C 185.196 229.877,184.947 233.260,184.614 233.800 C 184.343 234.240,184.023 235.475,183.904 236.545 C 183.541 239.809,182.876 240.176,177.029 240.332 L 172.078 240.464 171.884 238.132 C 171.216 230.103,170.700 209.603,171.151 209.059 C 171.501 208.637,172.741 208.436,175.590 208.337 C 180.242 208.176,181.229 207.660,182.800 204.568 C 183.542 203.108,184.225 202.393,185.447 201.800 C 187.770 200.671,188.407 200.049,189.246 198.092 C 189.708 197.016,190.455 196.115,191.242 195.686 C 194.943 193.669,196.098 191.682,194.941 189.323 C 193.390 186.159,192.762 186.000,181.803 186.000 C 169.754 186.000,170.800 186.729,170.800 178.330 C 170.800 169.879,168.325 170.800,191.031 170.799 C 214.680 170.799,214.009 171.020,214.400 163.075 C 214.600 159.010,214.601 159.007,215.800 158.490 C 218.234 157.440,218.941 156.975,219.741 155.897 C 221.410 153.650,220.422 150.554,217.572 149.101 C 215.456 148.022,147.344 148.022,145.228 149.101 M73.878 150.965 L 75.000 151.930 75.200 187.139 L 75.400 222.348 76.575 223.574 L 77.750 224.800 94.039 224.800 L 110.329 224.800 111.364 223.569 L 112.400 222.339 112.400 187.529 L 112.400 152.720 113.760 151.360 L 115.120 150.000 122.000 150.000 L 128.880 150.000 130.240 151.360 L 131.600 152.720 131.600 190.800 L 131.600 228.880 130.262 230.140 C 129.527 230.833,128.312 231.760,127.562 232.200 C 126.765 232.669,125.828 233.746,125.302 234.800 C 123.862 237.684,123.251 238.000,119.121 238.000 C 115.577 238.000,115.517 238.017,114.364 239.300 C 113.722 240.015,112.499 241.365,111.646 242.300 L 110.094 244.000 93.861 244.000 L 77.628 244.000 76.214 242.759 C 75.436 242.076,74.800 241.192,74.800 240.794 C 74.800 239.031,72.594 238.000,68.823 238.000 C 64.806 238.000,63.768 237.481,62.391 234.783 C 61.958 233.935,61.124 232.917,60.537 232.520 C 59.950 232.124,58.779 231.146,57.935 230.347 L 56.400 228.894 56.400 190.861 L 56.400 152.828 57.641 151.414 L 58.883 150.000 65.819 150.000 C 72.574 150.000,72.785 150.025,73.878 150.965 M217.840 151.360 C 219.840 153.360,219.260 155.127,216.062 156.776 C 213.071 158.319,212.800 158.824,212.800 162.856 C 212.800 166.444,212.787 166.493,211.440 167.840 L 210.080 169.200 191.000 169.200 L 171.920 169.200 170.560 170.560 L 169.200 171.920 169.200 178.400 L 169.200 184.880 170.560 186.240 L 171.920 187.600 181.719 187.600 L 191.517 187.600 192.759 189.014 C 194.365 190.844,194.327 191.236,192.378 192.854 C 189.749 195.036,188.252 196.588,187.400 198.015 C 186.960 198.752,185.790 199.825,184.800 200.400 C 183.810 200.975,182.640 202.048,182.200 202.785 C 180.129 206.253,179.216 206.800,175.494 206.800 C 172.127 206.800,170.701 207.321,169.502 208.986 C 169.339 209.214,169.322 216.611,169.466 225.423 L 169.727 241.447 168.250 242.923 L 166.773 244.400 156.788 244.400 L 146.802 244.400 145.201 242.953 L 143.600 241.507 143.600 197.113 L 143.600 152.720 144.960 151.360 L 146.320 150.000 181.400 150.000 L 216.480 150.000 217.840 151.360 " stroke="none" fill="#364bbb" fill-rule="evenodd"></path><path id="path3" d="M0.000 200.000 L 0.000 400.000 29.392 400.000 L 58.783 400.000 58.892 392.100 L 59.000 384.200 61.151 383.937 C 64.640 383.512,64.962 382.952,65.200 376.890 L 65.400 371.800 67.551 371.537 C 71.064 371.109,71.362 370.576,71.600 364.294 L 71.800 359.009 73.996 358.694 C 77.257 358.226,77.368 358.016,77.600 351.887 L 77.800 346.600 79.951 346.337 C 83.440 345.912,83.762 345.352,84.000 339.290 L 84.200 334.200 86.351 333.937 C 89.129 333.598,89.998 332.731,90.337 329.956 L 90.600 327.810 92.565 327.529 C 95.833 327.061,96.166 326.450,96.400 320.490 L 96.600 315.400 98.751 315.137 C 101.530 314.798,102.398 313.931,102.737 311.153 L 103.000 309.003 105.375 308.707 C 108.299 308.341,108.341 308.299,108.707 305.375 L 109.003 303.000 111.153 302.737 C 113.931 302.398,114.798 301.530,115.137 298.751 L 115.400 296.600 117.551 296.337 C 120.238 296.010,121.161 295.135,121.528 292.569 L 121.809 290.609 123.769 290.328 C 127.088 289.853,127.948 287.849,127.987 280.500 L 128.000 278.000 129.900 277.988 C 137.906 277.936,139.529 277.025,140.571 272.000 C 140.716 271.301,141.258 270.800,142.373 270.337 C 143.977 269.669,145.596 267.653,145.599 266.318 C 145.600 265.857,146.021 265.572,146.900 265.437 C 147.615 265.327,148.850 265.136,149.645 265.011 C 151.596 264.705,152.432 263.656,152.741 261.125 L 153.000 259.003 155.375 258.707 C 158.299 258.341,158.341 258.299,158.707 255.375 L 159.003 253.000 161.153 252.737 C 163.937 252.397,164.851 251.495,165.106 248.833 C 165.214 247.715,165.144 246.796,164.951 246.792 C 155.896 246.576,146.182 245.920,145.049 245.446 C 141.968 244.159,142.200 248.072,142.200 197.347 C 142.200 146.271,141.916 150.789,145.228 149.101 C 147.344 148.022,215.456 148.022,217.572 149.101 C 220.422 150.554,221.410 153.650,219.741 155.897 C 218.941 156.975,218.234 157.440,215.800 158.490 C 214.601 159.007,214.600 159.010,214.400 163.075 C 214.009 171.023,214.690 170.799,190.962 170.799 C 168.294 170.800,170.800 169.847,170.800 178.470 C 170.800 186.705,169.763 186.000,181.872 186.000 C 192.753 186.000,193.392 186.162,194.941 189.323 C 196.098 191.682,194.943 193.669,191.242 195.686 C 190.455 196.115,189.708 197.016,189.246 198.092 C 188.407 200.049,187.770 200.671,185.447 201.800 C 184.225 202.393,183.542 203.108,182.800 204.568 C 181.229 207.660,180.242 208.176,175.590 208.337 C 172.741 208.436,171.501 208.637,171.151 209.059 C 170.700 209.603,171.216 230.103,171.884 238.132 L 172.078 240.464 177.029 240.332 C 182.876 240.176,183.541 239.809,183.904 236.545 C 184.023 235.475,184.343 234.240,184.614 233.800 C 184.947 233.260,185.196 229.877,185.380 223.400 C 185.820 207.848,186.000 207.094,189.687 205.309 C 191.189 204.582,191.652 204.090,192.210 202.629 C 192.999 200.563,193.826 199.715,196.140 198.600 C 197.324 198.030,198.030 197.324,198.600 196.140 C 199.715 193.826,200.563 192.999,202.629 192.210 C 204.099 191.649,204.578 191.194,205.309 189.666 C 206.694 186.774,208.194 186.000,212.410 186.000 C 216.271 186.000,216.386 185.937,217.800 183.071 C 219.108 180.419,220.286 179.822,224.529 179.660 C 228.643 179.503,229.005 179.321,230.047 176.889 C 231.246 174.094,232.780 173.620,240.651 173.609 C 247.809 173.599,247.503 173.707,249.000 170.671 C 250.576 167.474,250.736 167.431,262.328 167.155 C 267.978 167.020,273.275 166.795,274.100 166.655 C 274.925 166.515,276.210 166.306,276.956 166.190 C 277.970 166.033,278.430 165.693,278.785 164.837 C 280.313 161.146,282.243 160.644,295.000 160.620 C 307.095 160.597,307.642 160.723,308.405 163.703 C 308.644 164.636,308.915 165.625,309.007 165.900 C 309.270 166.684,326.323 166.609,327.451 165.820 C 328.128 165.345,330.833 165.217,342.263 165.120 C 358.577 164.980,357.950 165.125,358.596 161.354 L 359.000 159.000 376.200 158.800 C 396.356 158.566,394.834 158.915,396.254 154.200 C 396.572 153.144,396.818 152.985,398.307 152.877 L 400.000 152.754 400.000 76.377 L 400.000 0.000 200.000 0.000 L 0.000 0.000 0.000 200.000 M255.013 144.808 C 255.732 145.253,256.419 145.873,256.540 146.187 C 257.099 147.644,259.230 148.130,265.800 148.297 C 273.302 148.488,274.272 148.721,275.580 150.643 C 277.157 152.960,276.331 156.741,274.000 157.881 C 273.670 158.042,270.088 158.270,266.039 158.387 L 258.679 158.600 258.135 160.173 C 256.859 163.865,255.482 164.400,247.262 164.400 C 240.200 164.400,240.496 164.295,239.000 167.329 C 236.705 171.983,226.429 172.395,224.396 167.915 C 221.893 162.400,223.700 156.456,228.406 154.721 C 230.271 154.034,231.777 153.183,232.400 152.466 C 234.820 149.678,238.426 148.400,243.876 148.400 C 247.050 148.400,250.400 147.572,250.400 146.787 C 250.400 146.310,252.789 144.000,253.284 144.000 C 253.516 144.000,254.294 144.364,255.013 144.808 M73.440 148.806 C 74.078 149.029,75.050 149.871,75.600 150.676 L 76.600 152.141 76.800 187.056 C 76.988 219.880,77.043 222.015,77.714 222.686 C 78.792 223.764,108.878 224.016,110.049 222.956 C 110.773 222.301,110.800 221.020,110.801 187.638 C 110.801 144.402,109.597 148.600,122.000 148.600 C 134.478 148.600,133.230 143.803,133.103 191.271 C 132.986 234.903,133.357 230.774,129.368 232.800 C 127.931 233.530,127.184 234.236,126.600 235.416 C 124.749 239.155,123.940 239.600,118.993 239.600 C 115.318 239.600,115.637 239.415,113.477 242.800 C 111.694 245.596,111.672 245.599,93.887 245.599 C 75.568 245.600,75.844 245.643,74.253 242.504 C 72.878 239.791,72.687 239.696,68.328 239.539 C 63.775 239.376,62.769 238.846,61.200 235.788 C 60.502 234.428,59.669 233.531,58.442 232.818 C 54.661 230.621,55.014 234.756,54.897 191.271 C 54.783 148.541,54.609 151.279,57.559 149.308 C 59.070 148.299,70.922 147.924,73.440 148.806 " stroke="none" fill="#4c0ca4" fill-rule="evenodd"></path><path id="path4" d="M250.786 148.568 C 248.564 149.609,247.581 149.811,243.800 150.006 C 238.971 150.255,238.336 150.486,235.514 153.010 C 234.103 154.272,232.784 154.966,230.273 155.765 C 225.349 157.333,224.800 158.035,224.800 162.762 C 224.800 168.160,225.835 169.200,231.207 169.200 L 234.894 169.200 236.347 167.635 C 237.146 166.774,238.446 165.334,239.236 164.435 L 240.672 162.800 247.282 162.800 C 254.606 162.800,255.256 162.599,256.647 159.910 C 258.187 156.931,258.582 156.800,266.036 156.800 C 273.876 156.800,274.960 156.387,274.960 153.400 C 274.960 150.534,274.017 150.166,265.952 149.889 C 259.518 149.667,258.790 149.564,256.186 148.503 L 253.372 147.357 250.786 148.568 M57.641 151.414 L 56.400 152.828 56.400 190.861 L 56.400 228.894 57.935 230.347 C 58.779 231.146,59.950 232.124,60.537 232.520 C 61.124 232.917,61.958 233.935,62.391 234.783 C 63.768 237.481,64.806 238.000,68.823 238.000 C 72.594 238.000,74.800 239.031,74.800 240.794 C 74.800 241.192,75.436 242.076,76.214 242.759 L 77.628 244.000 93.861 244.000 L 110.094 244.000 111.646 242.300 C 112.499 241.365,113.722 240.015,114.364 239.300 C 115.517 238.017,115.577 238.000,119.121 238.000 C 123.251 238.000,123.862 237.684,125.302 234.800 C 125.828 233.746,126.765 232.669,127.562 232.200 C 128.312 231.760,129.527 230.833,130.262 230.140 L 131.600 228.880 131.600 190.800 L 131.600 152.720 130.240 151.360 L 128.880 150.000 122.000 150.000 L 115.120 150.000 113.760 151.360 L 112.400 152.720 112.400 187.529 L 112.400 222.339 111.364 223.569 L 110.329 224.800 94.039 224.800 L 77.750 224.800 76.575 223.574 L 75.400 222.348 75.200 187.139 L 75.000 151.930 73.878 150.965 C 72.785 150.025,72.574 150.000,65.819 150.000 L 58.883 150.000 57.641 151.414 M144.960 151.360 L 143.600 152.720 143.600 197.113 L 143.600 241.507 145.201 242.953 L 146.802 244.400 156.788 244.400 L 166.773 244.400 168.250 242.923 L 169.727 241.447 169.466 225.423 C 169.322 216.611,169.339 209.214,169.502 208.986 C 170.701 207.321,172.127 206.800,175.494 206.800 C 179.216 206.800,180.129 206.253,182.200 202.785 C 182.640 202.048,183.810 200.975,184.800 200.400 C 185.790 199.825,186.960 198.752,187.400 198.015 C 188.252 196.588,189.749 195.036,192.378 192.854 C 194.327 191.236,194.365 190.844,192.759 189.014 L 191.517 187.600 181.719 187.600 L 171.920 187.600 170.560 186.240 L 169.200 184.880 169.200 178.400 L 169.200 171.920 170.560 170.560 L 171.920 169.200 191.000 169.200 L 210.080 169.200 211.440 167.840 C 212.787 166.493,212.800 166.444,212.800 162.856 C 212.800 158.824,213.071 158.319,216.062 156.776 C 219.260 155.127,219.840 153.360,217.840 151.360 L 216.480 150.000 181.400 150.000 L 146.320 150.000 144.960 151.360 M256.200 150.993 C 258.014 151.377,261.316 151.589,265.574 151.593 C 271.773 151.600,272.201 151.650,273.076 152.472 L 274.004 153.344 273.133 154.272 C 272.285 155.173,272.062 155.200,265.330 155.200 L 258.400 155.200 256.800 156.800 C 255.920 157.680,255.200 158.613,255.200 158.874 C 255.200 160.802,253.760 161.200,246.789 161.200 C 239.060 161.200,238.168 161.518,236.445 164.889 C 235.324 167.081,235.320 167.083,231.400 167.438 C 227.069 167.831,226.400 167.176,226.400 162.539 C 226.400 158.562,226.602 158.355,231.197 157.632 C 234.651 157.088,236.272 156.273,237.400 154.512 C 238.826 152.285,240.591 151.605,245.054 151.562 C 247.225 151.540,249.900 151.292,251.000 151.009 C 252.100 150.726,253.090 150.474,253.200 150.448 C 253.310 150.421,254.660 150.667,256.200 150.993 M73.074 152.470 L 74.000 153.339 74.000 187.741 C 74.000 225.477,73.915 224.155,76.422 225.564 C 78.757 226.877,109.266 226.864,111.604 225.549 C 114.107 224.143,114.000 225.814,114.000 188.107 L 114.000 153.452 114.870 152.526 C 116.175 151.137,127.607 151.092,129.074 152.470 L 130.000 153.339 130.000 190.808 C 130.000 233.099,130.358 228.678,126.784 230.518 C 125.476 231.191,124.919 231.794,124.435 233.060 C 123.271 236.105,122.759 236.400,118.638 236.401 C 114.299 236.403,112.759 237.112,111.635 239.622 C 110.348 242.496,111.133 242.375,93.800 242.375 C 76.320 242.375,77.399 242.558,75.777 239.305 C 74.530 236.802,73.625 236.400,69.243 236.400 C 65.293 236.400,65.055 236.265,63.482 233.149 C 62.840 231.875,62.111 231.155,60.800 230.497 C 59.810 230.000,58.775 229.291,58.500 228.921 C 57.663 227.793,57.782 153.690,58.623 152.489 C 59.575 151.129,71.630 151.113,73.074 152.470 M216.733 152.528 L 217.604 153.456 216.702 154.263 C 216.206 154.707,215.204 155.306,214.476 155.594 C 211.995 156.574,211.200 158.181,211.200 162.212 C 211.200 165.292,211.088 165.868,210.330 166.674 L 209.461 167.600 190.510 167.600 C 165.952 167.600,167.603 166.822,167.603 178.400 C 167.603 189.360,167.399 189.200,181.334 189.200 L 191.108 189.200 191.739 190.163 C 192.479 191.292,192.282 191.538,189.521 192.931 C 188.283 193.556,187.547 194.301,186.899 195.587 C 185.778 197.810,185.410 198.178,183.187 199.299 C 181.892 199.952,181.157 200.682,180.518 201.949 C 178.956 205.044,178.688 205.200,174.918 205.200 C 167.494 205.200,167.600 204.915,167.600 224.916 L 167.600 241.108 166.614 241.754 C 165.145 242.717,147.655 242.717,146.186 241.754 L 145.200 241.108 145.200 197.280 L 145.200 153.452 146.070 152.526 L 146.939 151.600 181.400 151.600 L 215.861 151.600 216.733 152.528 M286.779 162.366 C 283.283 162.637,282.167 163.232,280.437 165.746 C 278.651 168.341,275.838 168.781,260.954 168.793 C 252.005 168.801,251.567 168.920,250.145 171.735 C 248.592 174.810,248.623 174.800,240.984 174.800 C 233.232 174.800,232.753 174.957,231.200 178.000 C 229.854 180.639,228.766 181.200,225.000 181.200 C 221.234 181.200,220.146 181.761,218.800 184.400 C 217.434 187.078,216.388 187.600,212.385 187.600 L 208.879 187.600 207.739 189.034 C 205.913 191.334,203.837 193.339,202.389 194.200 C 201.650 194.640,200.573 195.810,199.997 196.800 C 199.420 197.790,198.330 198.998,197.574 199.485 C 194.820 201.260,194.381 201.668,193.611 203.179 C 193.179 204.026,192.269 205.141,191.588 205.659 C 190.907 206.177,189.719 207.142,188.947 207.803 L 187.544 209.007 187.310 218.889 L 187.077 228.771 188.838 230.404 C 192.356 233.666,192.857 234.221,193.370 235.419 C 194.468 237.984,196.056 238.800,199.956 238.800 C 203.803 238.800,204.634 239.266,206.148 242.268 C 207.550 245.048,207.593 245.056,221.886 245.345 C 236.722 245.644,237.402 245.540,238.824 242.752 C 240.052 240.347,238.801 237.995,235.577 236.648 C 233.231 235.668,232.866 234.973,232.769 231.296 C 232.667 227.455,233.015 226.846,236.056 225.538 C 237.543 224.898,238.070 224.407,238.545 223.221 C 239.164 221.673,240.558 220.313,242.747 219.120 C 243.434 218.746,244.489 217.624,245.091 216.627 C 246.495 214.301,247.116 214.109,254.289 213.771 C 261.169 213.448,262.132 213.108,263.233 210.619 C 264.584 207.564,264.267 207.621,278.447 207.879 C 292.253 208.129,291.500 207.969,292.968 210.971 C 293.739 212.547,294.354 213.243,295.307 213.619 C 298.411 214.844,299.939 220.884,297.665 222.941 C 296.874 223.657,295.600 222.848,295.600 221.630 C 295.600 220.503,294.151 218.792,292.380 217.828 C 290.312 216.702,289.805 216.200,288.847 214.324 C 287.462 211.612,286.739 211.400,278.870 211.400 C 270.985 211.400,269.750 211.718,268.465 214.079 C 266.777 217.181,266.154 217.600,263.237 217.600 C 258.587 217.600,256.056 218.702,253.800 221.709 C 253.151 222.573,252.169 222.990,248.600 223.912 C 242.175 225.573,242.591 224.497,242.276 240.303 C 241.963 256.017,242.152 256.867,246.208 258.002 C 248.847 258.741,248.999 259.095,249.755 266.261 C 250.357 271.964,251.337 276.838,252.858 281.700 C 253.430 283.524,252.185 283.830,261.346 279.615 C 265.631 277.643,270.277 275.654,271.669 275.194 C 273.061 274.734,274.750 274.106,275.421 273.798 C 279.345 271.997,282.682 270.515,286.400 268.923 C 288.710 267.934,291.143 266.794,291.806 266.388 C 292.838 265.758,307.027 259.951,310.600 258.698 C 316.315 256.693,318.213 254.537,315.894 252.687 C 313.774 250.996,313.252 250.285,312.815 248.495 C 312.306 246.409,311.554 245.313,309.877 244.213 C 308.756 243.479,307.204 240.648,307.195 239.322 C 307.181 237.160,305.957 234.134,304.586 232.868 C 301.501 230.022,301.514 227.664,304.618 226.795 C 306.718 226.207,308.400 224.452,308.400 222.849 C 308.400 221.073,309.030 220.800,313.120 220.800 C 318.282 220.800,320.800 219.325,320.800 216.302 C 320.800 215.557,322.078 214.400,322.901 214.400 C 323.894 214.400,325.883 212.522,326.183 211.301 C 326.622 209.518,327.490 208.488,328.796 208.201 C 330.968 207.724,332.307 206.200,333.206 203.179 C 333.780 201.252,334.530 199.837,335.681 198.507 C 338.462 195.296,339.000 193.677,339.000 188.529 C 339.000 183.297,338.654 182.567,335.241 180.600 C 334.047 179.912,332.808 178.802,332.337 178.000 C 331.107 175.903,329.960 174.800,329.009 174.800 C 328.034 174.800,325.994 172.804,325.047 170.924 C 323.853 168.554,323.306 168.401,316.011 168.394 C 308.534 168.387,308.940 168.511,307.229 165.718 C 304.906 161.926,300.918 161.272,286.779 162.366 M304.266 164.900 C 304.708 165.395,305.306 166.396,305.594 167.124 C 306.745 170.037,307.840 170.400,315.468 170.400 C 323.094 170.400,323.006 170.368,324.522 173.725 C 325.032 174.854,325.663 175.450,326.953 176.020 C 328.921 176.891,329.454 177.432,330.621 179.736 C 331.174 180.829,331.979 181.628,333.087 182.186 C 336.205 183.756,336.400 184.101,336.400 188.048 L 336.400 191.571 334.025 193.886 C 331.423 196.421,331.070 197.101,330.392 200.861 C 329.868 203.767,329.288 204.564,326.874 205.700 C 325.573 206.313,324.997 206.892,324.530 208.058 C 323.893 209.651,322.634 210.891,320.439 212.088 C 319.744 212.467,318.867 213.344,318.488 214.039 C 316.685 217.346,316.258 217.600,312.502 217.600 C 308.576 217.600,307.033 218.392,305.639 221.123 C 305.224 221.935,304.489 222.958,304.004 223.397 L 303.124 224.193 302.362 223.252 C 301.744 222.489,301.600 221.658,301.600 218.849 C 301.600 214.491,300.931 213.082,298.169 211.622 C 296.849 210.924,295.780 209.940,294.927 208.636 C 292.602 205.085,293.182 205.206,278.460 205.203 C 263.960 205.200,263.539 205.269,261.942 207.943 C 259.943 211.286,260.171 211.200,253.314 211.200 C 245.811 211.200,244.699 211.595,242.929 214.887 C 242.053 216.515,241.353 217.222,239.807 218.037 C 238.312 218.825,237.592 219.532,236.929 220.862 C 235.840 223.046,234.993 223.837,233.005 224.525 C 228.791 225.984,228.684 236.049,232.859 238.323 C 233.542 238.696,234.636 239.436,235.290 239.969 L 236.479 240.937 235.539 241.660 C 234.680 242.321,233.526 242.383,221.949 242.391 C 207.865 242.401,208.978 242.623,207.389 239.485 C 206.193 237.122,204.551 236.400,200.376 236.400 C 196.538 236.400,196.051 236.116,194.680 233.079 C 194.294 232.224,193.448 231.262,192.746 230.879 C 192.060 230.506,190.979 229.776,190.343 229.259 L 189.186 228.317 189.293 218.673 L 189.400 209.028 191.600 207.811 C 193.267 206.889,194.018 206.162,194.701 204.810 C 195.823 202.589,196.191 202.222,198.413 201.101 C 199.720 200.442,200.442 199.720,201.101 198.413 C 202.222 196.191,202.589 195.823,204.810 194.701 C 206.163 194.018,206.888 193.268,207.810 191.600 L 209.025 189.400 213.033 189.200 C 217.630 188.971,218.845 188.419,219.899 186.080 C 221.248 183.090,221.748 182.800,225.570 182.799 C 229.629 182.797,231.224 182.062,232.288 179.703 C 233.786 176.383,233.741 176.400,241.115 176.400 C 248.560 176.400,250.272 175.899,251.241 173.440 C 252.490 170.268,251.863 170.400,265.686 170.400 C 279.877 170.400,280.423 170.291,282.040 167.122 C 283.648 163.970,283.425 164.028,294.030 164.013 C 303.313 164.000,303.473 164.014,304.266 164.900 M285.431 214.834 C 285.846 215.293,286.559 216.409,287.014 217.313 C 287.588 218.453,288.368 219.222,289.554 219.820 C 291.285 220.691,292.793 222.466,292.797 223.639 C 292.801 224.420,295.434 227.200,296.170 227.200 C 297.395 227.200,297.720 228.326,297.355 231.307 L 297.000 234.200 294.270 235.076 C 292.768 235.558,291.328 236.126,291.070 236.339 C 290.811 236.553,289.340 237.225,287.800 237.834 C 286.260 238.443,284.619 239.184,284.154 239.481 C 283.689 239.778,281.992 240.386,280.383 240.831 C 277.788 241.551,274.875 242.913,270.400 245.502 C 269.630 245.947,268.021 246.537,266.826 246.813 C 265.630 247.090,263.020 248.073,261.026 248.998 C 254.707 251.930,250.164 253.600,248.506 253.600 L 246.911 253.600 246.659 251.500 C 246.520 250.345,246.405 247.600,246.403 245.400 C 246.401 243.200,246.130 239.989,245.800 238.265 C 244.060 229.173,244.978 226.655,250.200 226.186 C 253.860 225.858,256.123 224.890,256.958 223.296 C 258.310 220.715,258.937 220.400,262.722 220.400 C 266.971 220.400,268.590 219.689,269.796 217.292 C 271.478 213.953,271.356 214.000,278.400 214.000 C 284.254 214.000,284.727 214.056,285.431 214.834 " stroke="none" fill="#7dd0ed" fill-rule="evenodd"></path></g></svg>