<svg id="svg" version="1.1" xmlns="http://www.w3.org/2000/svg" xmlns:xlink="http://www.w3.org/1999/xlink" width="400" height="400" viewBox="0, 0, 400,400"><g id="svgg"><path id="path0" d="M95.875 64.722 L 94.800 65.844 94.800 94.000 L 94.800 122.156 95.875 123.278 L 96.950 124.400 203.153 124.400 L 309.356 124.400 310.478 123.325 L 311.600 122.250 311.600 94.000 L 311.600 65.750 310.478 64.675 L 309.356 63.600 203.153 63.600 L 96.950 63.600 95.875 64.722 M95.875 277.122 L 94.800 278.244 94.800 306.400 L 94.800 334.556 95.875 335.678 L 96.950 336.800 203.153 336.800 L 309.356 336.800 310.478 335.725 L 311.600 334.650 311.600 306.400 L 311.600 278.150 310.478 277.075 L 309.356 276.000 203.153 276.000 L 96.950 276.000 95.875 277.122 " stroke="none" fill="#fcfcfc" fill-rule="evenodd"></path><path id="path1" d="M95.413 170.613 L 94.000 172.027 94.000 200.200 L 94.000 228.373 95.413 229.787 L 96.827 231.200 203.200 231.200 L 309.573 231.200 310.987 229.787 L 312.400 228.373 312.400 200.200 L 312.400 172.027 310.987 170.613 L 309.573 169.200 203.200 169.200 L 96.827 169.200 95.413 170.613 " stroke="none" fill="#e43c7c" fill-rule="evenodd"></path><path id="path2" d="M0.000 200.000 L 0.000 400.000 200.000 400.000 L 400.000 400.000 400.000 200.000 L 400.000 0.000 200.000 0.000 L 0.000 0.000 0.000 200.000 M311.600 61.501 C 314.541 62.970,314.419 61.488,314.304 94.458 C 314.187 127.479,314.427 124.937,311.313 126.255 C 309.391 127.069,97.009 127.069,95.087 126.255 C 91.973 124.937,92.213 127.479,92.096 94.458 C 91.981 61.488,91.859 62.970,94.800 61.501 C 96.975 60.414,309.425 60.414,311.600 61.501 M311.453 170.147 L 313.200 171.895 313.200 200.200 L 313.200 228.505 311.453 230.253 L 309.705 232.000 203.200 232.000 L 96.695 232.000 94.947 230.253 L 93.200 228.505 93.200 200.200 L 93.200 171.895 94.947 170.147 L 96.695 168.400 203.200 168.400 L 309.705 168.400 311.453 170.147 M311.638 274.262 C 314.517 275.414,314.400 274.048,314.399 306.487 C 314.399 338.816,314.517 337.442,311.600 338.899 C 309.425 339.986,96.975 339.986,94.800 338.899 C 91.883 337.442,92.001 338.807,92.001 306.560 C 92.000 274.535,91.918 275.562,94.554 274.365 C 96.968 273.269,308.905 273.168,311.638 274.262 " stroke="none" fill="#14144c" fill-rule="evenodd"></path><path id="path3" d="M93.953 62.753 L 92.400 64.306 92.406 93.853 C 92.409 110.104,92.556 123.626,92.731 123.902 C 92.906 124.178,93.658 124.853,94.402 125.402 L 95.755 126.400 203.200 126.400 L 310.645 126.400 311.998 125.402 C 312.742 124.853,313.494 124.178,313.669 123.902 C 313.844 123.626,313.991 110.104,313.994 93.853 L 314.000 64.306 312.447 62.753 L 310.894 61.200 203.200 61.200 L 95.506 61.200 93.953 62.753 M310.478 64.675 L 311.600 65.750 311.600 94.000 L 311.600 122.250 310.478 123.325 L 309.356 124.400 203.153 124.400 L 96.950 124.400 95.875 123.278 L 94.800 122.156 94.800 94.000 L 94.800 65.844 95.875 64.722 L 96.950 63.600 203.153 63.600 L 309.356 63.600 310.478 64.675 M94.526 274.780 C 92.331 276.118,92.400 275.083,92.400 306.621 L 92.400 336.094 93.953 337.647 L 95.506 339.200 203.200 339.200 L 310.894 339.200 312.447 337.647 L 314.000 336.094 314.000 306.536 C 314.000 274.073,314.138 275.913,311.596 274.598 C 309.539 273.534,96.275 273.713,94.526 274.780 M310.478 277.075 L 311.600 278.150 311.600 306.400 L 311.600 334.650 310.478 335.725 L 309.356 336.800 203.153 336.800 L 96.950 336.800 95.875 335.678 L 94.800 334.556 94.800 306.400 L 94.800 278.244 95.875 277.122 L 96.950 276.000 203.153 276.000 L 309.356 276.000 310.478 277.075 " stroke="none" fill="#4c8ca4" fill-rule="evenodd"></path><path id="path4" d="M149.500 61.100 C 179.035 61.157,227.365 61.157,256.900 61.100 C 286.435 61.043,262.270 60.997,203.200 60.997 C 144.130 60.997,119.965 61.043,149.500 61.100 M93.569 62.369 C 92.926 63.012,92.400 63.757,92.400 64.023 C 92.400 64.290,92.771 64.036,93.225 63.459 C 93.679 62.882,94.439 62.138,94.914 61.805 C 95.389 61.472,95.544 61.200,95.258 61.200 C 94.972 61.200,94.212 61.726,93.569 62.369 M311.741 62.025 C 312.318 62.479,313.062 63.239,313.395 63.714 C 313.728 64.189,314.000 64.344,314.000 64.058 C 314.000 63.402,311.825 61.200,311.177 61.200 C 310.910 61.200,311.164 61.571,311.741 62.025 M92.190 94.000 C 92.190 110.170,92.239 116.785,92.300 108.700 C 92.360 100.615,92.360 87.385,92.300 79.300 C 92.239 71.215,92.190 77.830,92.190 94.000 M314.190 94.000 C 314.190 110.170,314.239 116.785,314.300 108.700 C 314.360 100.615,314.360 87.385,314.300 79.300 C 314.239 71.215,314.190 77.830,314.190 94.000 M92.406 123.864 C 92.399 124.417,94.668 126.400,95.308 126.400 C 95.554 126.400,95.147 125.951,94.402 125.402 C 93.658 124.853,92.906 124.178,92.731 123.902 C 92.510 123.553,92.410 123.542,92.406 123.864 M313.600 123.869 C 313.600 124.091,312.927 124.751,312.105 125.336 C 311.282 125.921,310.830 126.400,311.098 126.400 C 311.820 126.400,314.249 124.116,313.900 123.766 C 313.735 123.602,313.600 123.648,313.600 123.869 M149.500 126.700 C 179.035 126.757,227.365 126.757,256.900 126.700 C 286.435 126.643,262.270 126.597,203.200 126.597 C 144.130 126.597,119.965 126.643,149.500 126.700 M94.947 170.147 L 93.200 171.895 93.200 200.200 L 93.200 228.505 94.947 230.253 L 96.695 232.000 203.200 232.000 L 309.705 232.000 311.453 230.253 L 313.200 228.505 313.200 200.200 L 313.200 171.895 311.453 170.147 L 309.705 168.400 203.200 168.400 L 96.695 168.400 94.947 170.147 M310.987 170.613 L 312.400 172.027 312.400 200.200 L 312.400 228.373 310.987 229.787 L 309.573 231.200 203.200 231.200 L 96.827 231.200 95.413 229.787 L 94.000 228.373 94.000 200.200 L 94.000 172.027 95.413 170.613 L 96.827 169.200 203.200 169.200 L 309.573 169.200 310.987 170.613 M149.500 273.900 C 179.035 273.957,227.365 273.957,256.900 273.900 C 286.435 273.843,262.270 273.797,203.200 273.797 C 144.130 273.797,119.965 273.843,149.500 273.900 M94.200 274.462 C 93.245 274.984,92.395 275.989,92.412 276.576 C 92.419 276.809,92.615 276.673,92.847 276.273 C 93.080 275.873,93.839 275.198,94.535 274.774 C 95.861 273.966,95.583 273.706,94.200 274.462 M311.865 274.774 C 312.561 275.198,313.339 275.873,313.595 276.273 C 314.043 276.974,314.052 276.973,313.830 276.267 C 313.704 275.864,313.600 275.464,313.600 275.378 C 313.600 275.167,311.325 274.000,310.920 274.001 C 310.744 274.002,311.169 274.350,311.865 274.774 M92.190 306.400 C 92.190 322.570,92.239 329.185,92.300 321.100 C 92.360 313.015,92.360 299.785,92.300 291.700 C 92.239 283.615,92.190 290.230,92.190 306.400 M314.190 306.400 C 314.190 322.570,314.239 329.185,314.300 321.100 C 314.360 313.015,314.360 299.785,314.300 291.700 C 314.239 283.615,314.190 290.230,314.190 306.400 M92.400 336.377 C 92.400 337.025,94.602 339.200,95.258 339.200 C 95.544 339.200,95.389 338.928,94.914 338.595 C 94.439 338.262,93.679 337.518,93.225 336.941 C 92.771 336.364,92.400 336.110,92.400 336.377 M312.341 337.653 C 311.539 338.504,311.058 339.200,311.272 339.200 C 311.801 339.200,314.000 336.968,314.000 336.431 C 314.000 335.878,314.051 335.840,312.341 337.653 M149.500 339.500 C 179.035 339.557,227.365 339.557,256.900 339.500 C 286.435 339.443,262.270 339.397,203.200 339.397 C 144.130 339.397,119.965 339.443,149.500 339.500 " stroke="none" fill="#4c14a8" fill-rule="evenodd"></path></g></svg>