<svg xmlns="http://www.w3.org/2000/svg" viewBox="0 0 2697.43 2025"><defs><style>.cls-1{isolation:isolate;}.cls-2,.cls-29,.cls-31{fill:#fff;}.cls-3{fill:#dae6fe;}.cls-4{fill:#a3adbf;}.cls-5{fill:#0d3b81;}.cls-6{fill:#f2b694;}.cls-7{fill:#e0a990;}.cls-8{fill:#ed1c24;}.cls-28,.cls-9{fill:#e6e6e6;}.cls-13,.cls-9{mix-blend-mode:multiply;}.cls-10{fill:#0e408b;}.cls-11{fill:#a7c8fb;}.cls-12{fill:#54647e;}.cls-13{fill:#c4def0;}.cls-14{fill:#3660a1;}.cls-15{fill:#ebecf2;}.cls-16{fill:#f14950;}.cls-17{fill:#1e355a;}.cls-18{fill:#194281;}.cls-19{fill:#eb0000;}.cls-20{fill:#1a4583;}.cls-21{fill:#e2aa8a;}.cls-22{fill:#fcee21;}.cls-23{fill:#c9181e;}.cls-24{fill:red;}.cls-25{fill:#ff4949;}.cls-26{fill:#fcf7f3;}.cls-27{fill:#105f9a;}.cls-29{opacity:0.24;}.cls-30{fill:#2a4179;}.cls-31{opacity:0.29;}.cls-32{fill:#ef4136;}.cls-33{fill:#2f4a89;}.cls-34{fill:#dca587;}</style></defs><g class="cls-1"><g id="Layer_1" data-name="Layer 1"><rect class="cls-2" width="2697.43" height="2025"/><path class="cls-3" d="M2610.2,1327.3a502.29,502.29,0,0,1-32.43,65.42q-9.64,16.38-20.53,32.12a537,537,0,0,1-37.51,48.17q-5.88,6.75-12,13.3a1506,1506,0,0,1-166.3,153.09h0c-.68.54-1.36,1.08-2,1.6q-16.2,12.81-32.79,25.2-57.24,42.8-118.87,80.8-23.22,14.33-47,27.92c-52.58,30-111,59.52-173.41,69.66-4.51.72-9,1.36-13.59,1.88q-6.48.77-13,1.19h0l-.71.06q-5.84.38-11.69.5c-3.21.07-6.43.09-9.64.07q-8.67,0-17.33-.49h-.23q-9.69-.48-19.37-1.41c-21.35-2-42.69-5.43-64-9.49q-13.48-2.58-27-5.47c-15.48-3.27-30.92-6.73-46.32-10.06l-.16,0-1.35-.3c-11.23-2.42-22.43-4.78-33.59-7q-8.66-1.69-17.27-3.22-9.81-1.71-19.59-3.18-6.23-.92-12.44-1.74h0q-8.65-1.17-17.32-2.14-2.94-.35-5.88-.66-6.51-.71-13-1.32-14-1.33-28-2.25t-27.93-1.49q-29-1.17-57.9-.88c-26.33.22-52.68,1.27-79,3q-32.54,2.08-65,5.37-20.68,2-41.34,4.5c-40.29,4.74-80.51,10.45-120.57,16.48q-35.38,5.32-70.6,10.87-6.17,1-12.33,1.92l-5.79.91-28.31,4.37-5.56.84-2,.31q-12.46,1.9-24.91,3.74l-1.89.29c-3.09.46-6.18.91-9.29,1.35q-10.44,1.5-20.93,2.84l-1.81.23c-3.51.46-7,.89-10.52,1.3-15.53,1.85-31.12,3.42-46.72,4.59-40.94,3.06-82,3.4-122.39-1q-11.31-1.24-22.54-3-14.68-2.29-29.22-5.55-11.5-2.6-22.86-5.21-21.23-4.87-41.92-9.89l-2.9-.7q-7.07-1.73-14.06-3.48c-44.12-11.07-86-23-124.3-37q-11.31-4.11-22.19-8.47c-70-28.09-126.29-64.23-159.55-116.17a200.83,200.83,0,0,1-15.18-28.44,1.12,1.12,0,0,1-.05-.13,216.26,216.26,0,0,1-16-59.36c-3.74-29.43-14.48-75.82-29.82-118.94-7.68-21.56-16.49-42.3-26.16-59.69h0c-2-3.58-4-7-6.08-10.3a133.77,133.77,0,0,0-15.85-20.9c-52.85-55.61-100.17-112.38-138.35-173q-7.55-12-14.6-24.2c-57.68-99.79-90.18-210.63-82.13-343.94q.7-12.06,1.89-24.37C75.64,633.38,221.36,440.69,443.78,461.87,561.27,473,652.62,451.32,740.21,382.45,840.56,303.55,918,205.17,1049.72,162.07c34.25-11.2,69.82-17.95,106-21.36,61.55-5.82,124.9-2,186.61,6,5,.65,10,1.32,15,2,66.22,9.31,131.79,24,198,33.93,13.77,2.09,27.59,4,41.46,5.55,6.12.71,12.23,1.35,18.37,1.93,38.81,3.65,75.51,2.72,111.53,1.66,65.58-1.94,128.94-4.32,198.93,19.77,1.39.48,2.8,1,4.2,1.48a492.71,492.71,0,0,1,100.54,49.34c51.28,33,94.62,75.26,124.51,124.57C2216,487.78,2194.28,566.15,2248,665.12c2.54,4.68,5.24,9.42,8.15,14.19,47.11,77.74,150.07,108,229.85,161.86,9.07,6.12,17.83,12.55,26.18,19.37a256.71,256.71,0,0,1,28,26.47q4.2,4.63,8.14,9.53C2657.67,1032.6,2665.82,1190.72,2610.2,1327.3Z" transform="translate(-1.28)"/><ellipse class="cls-4" cx="1362.58" cy="1820.49" rx="1100.94" ry="81.7"/><polygon class="cls-5" points="855.6 1805.95 861.17 1814.94 883.84 1824.44 881.83 1830.53 857.01 1828.66 846.76 1814.64 846.16 1827.85 835.31 1827.03 836.03 1812.27 839.47 1802.78 855.6 1805.95"/><polygon class="cls-5" points="986.64 1786.43 992.21 1795.42 1014.88 1804.92 1012.87 1811.01 988.06 1809.14 977.8 1795.12 977.2 1808.33 966.35 1807.51 967.07 1792.75 970.51 1783.27 986.64 1786.43"/><path class="cls-5" d="M915.32,1490l.4.4,0-.25,0-.35Z" transform="translate(-1.28)"/><path class="cls-5" d="M936.76,1333.7l36.65,241.92,16.7,214.67H963.68s-50.86-137.23-37.13-190.89l-46.79-158.73Z" transform="translate(-1.28)"/><path class="cls-6" d="M966,1048.66l8.53,28.63,7.76,15.88-6.17,3s-6,25.87-26.48,12.94l-7.51,9.86-7.83,21.89-32.75-5-6.82-18.49,22.54-23.06S948.81,1053.77,966,1048.66Z" transform="translate(-1.28)"/><path class="cls-5" d="M970.3,1057.48s-13.89-4.06-18.26-.28.66,29.14.66,29.14l-4.41,2.16L940.72,1073s-10.56.74-8.87,8.69l3.46,7.07-18.06,5.55-4.43-44.85L925.23,1038S987.9,1028.62,970.3,1057.48Z" transform="translate(-1.28)"/><path class="cls-7" d="M949.62,1109.13l-10-10.78,1.24-26.19s-10.07-5-9.91,18l-8.27,2.54-5.43,1.67,7.33,15,17.53,9.65Z" transform="translate(-1.28)"/><polygon class="cls-8" points="929.69 1124.77 959.28 1138.59 968.28 1164.68 960.96 1286.11 992.67 1355.57 942.27 1369.89 920.86 1265.06 897.35 1191.56 929.69 1124.77"/><path class="cls-8" d="M969.56,1164.68l13.84,93.89,70.54-5.72,8.23,15.3-110.9,28.69-43.82-20.93,11-60.85S944.5,1158.6,969.56,1164.68Z" transform="translate(-1.28)"/><path class="cls-2" d="M905.79,1100.77l32.7,31.18,20.66,51.16a45.8,45.8,0,0,1,2.43,26.16L934.93,1341.9,839.37,1371l5.82-199,47.93-50.46Z" transform="translate(-1.28)"/><path class="cls-8" d="M905.79,1100.77s25.8,112.4,19.88,131.08-52.26,112.86-52.26,112.86l-11.47,87.45-85.75-1.62,38.42-126.36,17.18-142.83a34.3,34.3,0,0,1,16.15-25.17Z" transform="translate(-1.28)"/><polygon class="cls-6" points="1057.59 1262.8 1077.03 1268.21 1098.34 1263.15 1102.17 1260.68 1089.15 1257.06 1076.48 1260.8 1066.94 1251.79 1052.66 1254.17 1057.59 1262.8"/><polygon class="cls-9" points="890.53 1306.8 875.6 1337.63 860.66 1432.16 874.12 1424.39 883.84 1333.7 890.53 1306.8"/><polygon class="cls-9" points="933.65 1341.9 979.99 1327.79 969.8 1305.48 942.27 1303.1 933.65 1341.9"/><path class="cls-9" d="M848.63,1212.06s-26.46,99.24,38.26,105l4.93-10.24-23-38.09Z" transform="translate(-1.28)"/><polygon class="cls-2" points="911.64 1096.53 929.69 1124.77 918.72 1147.43 904.5 1100.77 911.64 1096.53"/><polygon class="cls-9" points="937.21 1131.95 922.65 1160.33 904.5 1100.77 924.51 1145.66 937.21 1131.95"/><path class="cls-10" d="M837.68,1341.9s-31.56,71.8-13.77,99.66,17.73,136.29,17.73,136.29-39,15-13.29,231.49h26.74l79.84-467.44Z" transform="translate(-1.28)"/><polygon class="cls-9" points="875.42 1341.9 860.66 1428.06 817.19 1431.34 821.05 1438.72 872.13 1432.16 875.42 1341.9"/><polygon class="cls-9" points="933.65 1341.9 942.27 1369.89 992.67 1355.57 956.82 1350.41 976.13 1328.96 933.65 1341.9"/><polygon class="cls-8" points="878.48 1331.73 860.66 1428.06 817.19 1431.34 810.99 1385.45 825.83 1328.96 878.48 1331.73"/><polygon class="cls-9" points="902.73 1522.94 926.05 1386.4 910.81 1500.66 910.81 1550.36 902.73 1522.94"/><rect class="cls-11" x="784.84" y="1446.01" width="192.4" height="252.67"/><path class="cls-12" d="M980.23,1700.39H784.41V1444.3H980.23ZM787.84,1697h189V1447.72h-189Z" transform="translate(-1.28)"/><rect class="cls-13" x="805.94" y="1461.62" width="90.52" height="104.88" transform="translate(1686.27 3036.37) rotate(-179.44)"/><path class="cls-14" d="M819.72,1558.48v-1.67a31.48,31.48,0,0,1,31.79-31.17h0a31.48,31.48,0,0,1,31.17,31.78l0,1.68Z" transform="translate(-1.28)"/><path class="cls-15" d="M830.81,1498.45c.64,11,10.24,23,21.2,22.32s19.1-13.67,18.47-24.62a19.87,19.87,0,0,0-39.67,2.3Z" transform="translate(-1.28)"/><path class="cls-15" d="M850.55,1538.22h0a8.81,8.81,0,0,0,8.9-8.73l.13-12.73-17.63-.17-.12,12.73A8.81,8.81,0,0,0,850.55,1538.22Z" transform="translate(-1.28)"/><path class="cls-15" d="M869.52,1499.77s1.42-3.44,3.26-.66-1.14,11.64-4.4,8.2Z" transform="translate(-1.28)"/><path class="cls-15" d="M832.12,1499.77s-1.42-3.44-3.26-.66,1.14,11.64,4.4,8.2Z" transform="translate(-1.28)"/><path class="cls-14" d="M863.14,1486.31s-17.86,10.9-28.78,4.38l-1.1,7.33.82,7.27s-2-6.72-3.27-6.84a2.1,2.1,0,0,0-2.52,2.24s-7.11-35.08,32.86-27.29Z" transform="translate(-1.28)"/><path class="cls-14" d="M861.15,1473.4s15.46,6.8,11.63,25.71c0,0-.47-1.42-2.29-.74l-1.68,6.07s1-16.85-5.67-18.13Z" transform="translate(-1.28)"/><rect class="cls-2" x="840.54" y="1576.24" width="120.95" height="8.75"/><rect class="cls-2" x="802.14" y="1603.35" width="159.36" height="8.75"/><rect class="cls-2" x="802.14" y="1627.55" width="159.36" height="8.75"/><rect class="cls-2" x="802.14" y="1651.74" width="159.36" height="8.75"/><path class="cls-16" d="M902.32,1177.68A25.92,25.92,0,0,0,886,1151c-14.51-5.71-33.9-8.87-42.75,9.29-15.09,30.92,9.46,136.51,9.46,136.51l32.38,141.88,15.8-6.56-9.1-146.67Z" transform="translate(-1.28)"/><path class="cls-6" d="M888.37,1437.38v17.15l7.47,7,8.17-2.33v-7.78l3.44,1.95s1.24-3.89-3.44-8.94l-6-11Z" transform="translate(-1.28)"/><path class="cls-9" d="M840.33,1224l21.61,204.07,8.92-52.35S842.28,1258.06,840.33,1224Z" transform="translate(-1.28)"/><path class="cls-17" d="M1041.54,555.54s-58,53.8-59.09,79c-1.25,29.25,32,824.65,44.52,1065.66a152.58,152.58,0,0,0,55.77,110.23l34.59,28.3Z" transform="translate(-1.28)"/><path class="cls-18" d="M1735.27,1796.65l-567,49.15c-64.62,5.61-119.56-42.47-122.29-107.49l-45.72-1087.6c-2.8-66.56,48.53-121.39,114.22-122.37l576.11-8.6c61.22-.91,112.29,50,114.45,113.72l35.28,1041.06C1842.41,1736.8,1795.55,1791.43,1735.27,1796.65Z" transform="translate(-1.28)"/><path class="cls-11" d="M1812.35,1664,1777.14,633.46c-1.61-47.2-39.63-85-85-84.27l-577.09,9.57c-48.56.8-86.58,41.5-84.53,90.68l44.78,1073.18Z" transform="translate(-1.28)"/><polygon class="cls-13" points="1248.55 1262.26 1603.9 1224.29 1585.17 799.12 1234.04 810.46 1248.55 1262.26"/><path class="cls-14" d="M1307.37,1222.63l-.25-7.24c-2.55-74.89,52.21-139.73,120.83-145.05h0c67.06-5.2,122.77,48.6,125.81,120.36l.29,6.94Z" transform="translate(-1.28)"/><path class="cls-15" d="M1340.91,962.57c4.62,46,45.12,93.53,88,87.22,42.24-6.22,70.7-62.49,66-107.29s-42.17-77-84.36-72.08C1367.75,875.39,1336.3,916.63,1340.91,962.57Z" transform="translate(-1.28)"/><path class="cls-15" d="M1426.69,1123.46h0c19-1.64,33.63-19.46,32.83-39.78l-2.08-53-68.8,4.89,2,53.64C1391.39,1109.77,1407.59,1125.11,1426.69,1123.46Z" transform="translate(-1.28)"/><path class="cls-15" d="M1492,957.6s4.68-14.47,12.23-3.55-1.94,48.09-15,34.9Z" transform="translate(-1.28)"/><path class="cls-15" d="M1346.39,967.73s-6.31-14.08-13.16-1.85,6.77,48.83,19.14,33.33Z" transform="translate(-1.28)"/><path class="cls-14" d="M1465,903.88S1398,953.46,1353.6,929l-3,31.09,4.65,30.37s-9.19-27.77-14.34-27.89-10.17,2.82-9.65,10.14c0,0-35.16-146.18,123.54-121.42Z" transform="translate(-1.28)"/><path class="cls-14" d="M1454.8,851.29s60,24.67,49.46,102.76c0,0-2.09-5.72-8.84-2.43L1490.3,977s.33-69.4-25.31-73.14Z" transform="translate(-1.28)"/><path class="cls-18" d="M1365.44,1392.05q.63,15.95-7.8,27a31.4,31.4,0,0,1-21.72,12.72q-14.19,1.79-26.84-7.82l4.31-15.34q10.65,9.84,22.67,8.34,8.78-1.1,13.57-7.26t4.42-15.43q-.61-15.42-18.07-21.29-25.68-8.51-26.58-32.38-.54-14.36,7.07-24.62a28.25,28.25,0,0,1,20.24-11.73q12.63-1.47,22.19,5.59l-4.28,13.32q-9.15-5.32-17.52-4.35a17.77,17.77,0,0,0-12.2,6.45,18.28,18.28,0,0,0-4.27,12.71q.52,14.1,18,20,14.16,4.72,20.2,12.5T1365.44,1392.05Z" transform="translate(-1.28)"/><path class="cls-18" d="M1443.93,1409.39q-12.54,9.83-30.44,12.07-16.86,2.13-27.82-14t-12.09-44q-1.14-27.63,8.1-45.61,10.21-19.61,29.79-21.88a50.14,50.14,0,0,1,27.58,4.16l-3,13.08a42.78,42.78,0,0,0-23.69-3.58q-16.23,1.9-23.11,20.11-5.15,13.42-4.34,32.85.75,17.92,7.52,30.49,8.54,16,22.72,14.21a46.21,46.21,0,0,0,25.13-10.86Z" transform="translate(-1.28)"/><path class="cls-18" d="M1527.43,1405.34l-12,1.52-13-39.1-33.45,4.11-9,42-12,1.5,29.47-127,9.42-1.1Zm-29.87-50.77-14.6-48.66-10.6,51.72Z" transform="translate(-1.28)"/><path class="cls-18" d="M1600.52,1396.16l-10.37,1.31L1542,1305.26l4.92,97.63-11,1.38-6-120.35,10.91-1.28,47.4,89.58-5-94.53,10.82-1.27Z" transform="translate(-1.28)"/><polygon class="cls-19" points="673 1195.88 683.23 1296.74 698.19 1362.62 688.86 1369.53 661.41 1294.99 673 1195.88"/><path class="cls-20" d="M655,1078l-6.75-3.33-7.6,4s5.91-5.87,7.18-6.5c.76-.37,4.09,1.81,6.63,3.61,1.71,1.22,3.06,2.26,3.06,2.26S654.88,1079.79,655,1078Z" transform="translate(-1.28)"/><path class="cls-20" d="M650.64,1082.56c0,1.8.66,3.27,1.47,3.27s1.48-1.47,1.48-3.27-.66-3.27-1.48-3.27S650.64,1080.75,650.64,1082.56Z" transform="translate(-1.28)"/><polygon class="cls-6" points="584.36 1789.04 593.86 1820.45 588.15 1817.13 578.82 1803.81 584.36 1789.04"/><polygon class="cls-21" points="635.34 1784.45 648.73 1812.6 653.92 1817.13 647.01 1814.92 632.55 1795.04 635.34 1784.45"/><polygon class="cls-19" points="673 1170.1 669.9 1299.18 683.23 1366.09 657.51 1381.27 647.68 1281.9 642.58 1209.2 649.08 1189.64 673 1170.1"/><path class="cls-22" d="M578.73,1447.41l-5.86-17.5a60.06,60.06,0,0,1,3.58-46.61l13.77-17.21Z" transform="translate(-1.28)"/><path class="cls-21" d="M655.2,1371.28l-14.65,437.16-7.65-5s-41.31-145.84-6.44-243.31l-6-187.56Z" transform="translate(-1.28)"/><path class="cls-6" d="M581.79,1344.25l-3.9,459.4,8.23-.54s24.93-121.75,40.32-205l42.18-230.46Z" transform="translate(-1.28)"/><path class="cls-20" d="M668.62,1366.09l-9.28,180.17H574.47l4.26-98.85s-26.68-41.2,4.59-81.32Z" transform="translate(-1.28)"/><path class="cls-23" d="M575.61,1780.57l5.56,9.46,11.36,26.42,11.41,5.21a6.7,6.7,0,0,1,3.78,6.41h0l-19.91-.88-7.71-23.38-1.79,18.35-.72,4.57-3.76-.16-.65-23.07-2-15.06Z" transform="translate(-1.28)"/><path class="cls-8" d="M627,1780.17l6.74,9,14.55,25.72,12.29,3.93a6.82,6.82,0,0,1,4.58,6.11h0l-20.56,1.58-10.46-23.06.16,19.08-.24,4.79-3.88.29L627,1804l-3.75-15.22Z" transform="translate(-1.28)"/><polygon class="cls-24" points="565.76 1392.51 584.02 1400.9 597.32 1366.09 593.43 1350.16 588.93 1348 565.76 1392.51"/><path class="cls-6" d="M577.89,1755.89s-12.82-100.26,1.36-131.37v-78.26l47.21-.1Z" transform="translate(-1.28)"/><polygon class="cls-9" points="632.55 1546.16 652.19 1409.79 642.37 1546.26 632.55 1546.16"/><path class="cls-6" d="M613.72,1123.09l22.18,27.61-1.27-20.23-.75-3.27,2.81-5.35a49,49,0,0,0-6.06-1.53c-1.06,0-14.69-1.18-14.69-1.18Z" transform="translate(-1.28)"/><polygon class="cls-9" points="633.35 1130.47 657.37 1173.84 664.12 1180.13 652.19 1156.98 633.35 1130.47"/><polygon class="cls-25" points="612.43 1123.09 606.97 1125.79 622.52 1153.44 623.92 1215.67 630.48 1225.31 628 1150.7 612.43 1123.09"/><path class="cls-25" d="M625.2,1269.88l6.72,21.5,1.62-23.5S629,1270.07,625.2,1269.88Z" transform="translate(-1.28)"/><polygon class="cls-19" points="633.35 1130.47 656.67 1146.2 673 1170.1 649.08 1189.64 643.24 1155.3 633.35 1130.47"/><path class="cls-20" d="M655.16,1052s22.94,40.94-11.26,83.42l-10.36,19.85-15.33-19.85,1.8-21.88Z" transform="translate(-1.28)"/><path class="cls-20" d="M656.12,1065.4s5.42-23.14-21.08-28.9-47.81.5-47.24,35.1-9.79,25.67-25.35,37.77-22.17,15.27-20.45,29.09-3.45,12.1-15.26,25.06-13.54,49.58-2,55.9,18.5-1.46,23.51,20.72,54.92-16.71,54.92-16.71l23.46-123,14.47-12.36Z" transform="translate(-1.28)"/><path class="cls-6" d="M615.3,1120.88l-1.76,4.85,22.05,9.72a79.51,79.51,0,0,1-1.42-8.23l-.29,0c1.62-3.52,3.28-6.36,4.19-7.14,2.18-1.92,10.07-3.63,17.21-.84s5.62-4.85,5.07-6.71.18-2.49,1.59-3.11,2.15-1.43.38-2-2.09-3.1-.49-2.76,4.14-1.07,2.4-1.68c-1.24-.41-1.11-6.71.51-7s7.1-3.38,1.25-4.72-8.67-9.56-8.67-9.56c1.63-7.65.44-12.87-1.2-16.21,0,0-18-.22-23.39,7.68l-6.12,16s-4.93-17.55-8.83-10.36-1.37,18.13,3.57,18.49l.79,12.24-6.2,9.66Z" transform="translate(-1.28)"/><polygon class="cls-8" points="620.35 1093.67 611.65 1106.87 623.88 1113.57 620.35 1093.67"/><path class="cls-26" d="M668.62,1366.09l-8.81-58.55,8.37-83.7c25.77-30.62-2.81-41-9.52-50l-24-43.37H624.31l-10.59-7.38-37.23,17.35-2,99.35,9.09,129.74Z" transform="translate(-1.28)"/><path class="cls-24" d="M629.85,1164.1,633.54,1282c-.16,6.72-5.88,25.45-9.49,31.11l-33.83,90-58.87-27.07,40.52-86.34-18.2-87.35c-5.8-20.65-10.37-28.56-.85-46.69l1.1-1.53a20.45,20.45,0,0,1,7.67-6.47l33.12-16.16,19-8.46,14.07,27.55h0Z" transform="translate(-1.28)"/><path class="cls-9" d="M625.17,1089.85l-4.53-9.28s-4.17,5.46-1.59,9.28l1.3-4.86Z" transform="translate(-1.28)"/><path class="cls-27" d="M651.22,1045.21s13,11.93,11.47,26.39l-33.07-3.27S628.14,1042,651.22,1045.21Z" transform="translate(-1.28)"/><polygon class="cls-9" points="657.71 1071.23 655.95 1072.09 632.26 1072.05 625.84 1087.77 628.34 1068.33 657.71 1071.23"/><rect class="cls-11" x="529.75" y="1404.87" width="192.4" height="252.67"/><path class="cls-12" d="M725.14,1659.25H529.32V1403.16H725.14Zm-192.39-3.42h189V1406.59h-189Z" transform="translate(-1.28)"/><rect class="cls-2" x="585.46" y="1535.11" width="120.95" height="8.75"/><rect class="cls-2" x="547.05" y="1562.22" width="159.36" height="8.75"/><rect class="cls-2" x="547.05" y="1586.41" width="159.36" height="8.75"/><rect class="cls-2" x="547.05" y="1610.61" width="159.36" height="8.75"/><rect class="cls-13" x="548.82" y="1423.36" width="86.54" height="100.28" transform="translate(1168.46 2952.72) rotate(-179.44)"/><path class="cls-14" d="M573.34,1478.81h47.35l-7.91-8.9-9.55-7.62s-7.57-1-8.27-1.53-24,3.4-24,3.4l.41,7Z" transform="translate(-1.28)"/><path class="cls-15" d="M605.21,1468.74s11.35,1.72,11-4.14a36.66,36.66,0,0,0-1.92-10l-4.08,3.52Z" transform="translate(-1.28)"/><path class="cls-15" d="M578,1466.57s-7.94,1.8-9.48-1.59,1.65-20.73,3.89-17.65S578,1466.57,578,1466.57Z" transform="translate(-1.28)"/><path class="cls-14" d="M562,1516v-1.6a30.1,30.1,0,0,1,30.39-29.8h0a30.09,30.09,0,0,1,29.8,30.39v1.6Z" transform="translate(-1.28)"/><path class="cls-15" d="M572.59,1458.58c.61,10.47,9.8,21.94,20.27,21.33s18.27-13.06,17.66-23.54a19,19,0,0,0-37.93,2.21Z" transform="translate(-1.28)"/><path class="cls-14" d="M609,1450.47l1.46,9.3s3-2.4,3.09-.17-.11,8.1-5,7.33L607,1470.1l13.22,8.71h1.2c0-5.3-.19-36.08-8.18-43-8.74-7.53-17.36-10.72-32.42-4.55l-2.1,12.21S593.08,1456.41,609,1450.47Z" transform="translate(-1.28)"/><path class="cls-14" d="M578.56,1478.81,574.9,1466s-5.49,0-5-4.84.5-7,3.76-3.65c0,0,4.84-12.67,5-13.72s2.09-12.5,2.09-12.5-21.14,7.44-15.47,47.51Z" transform="translate(-1.28)"/><path class="cls-15" d="M591.47,1496.6h0a8.42,8.42,0,0,0,8.51-8.34l.12-12.18-16.85-.16-.12,12.17A8.43,8.43,0,0,0,591.47,1496.6Z" transform="translate(-1.28)"/><polygon class="cls-9" points="559.06 1201.3 581.54 1331.72 588.93 1403.16 606.97 1395.27 585.47 1318.31 559.06 1201.3"/><path class="cls-6" d="M617.69,1392.53l7.67,14.37,4.37,8.18s-2.31,1.84-9.6-9.36l-5.74,17.56-6-11.28,3-12.77-.21-7.77Z" transform="translate(-1.28)"/><path class="cls-6" d="M689,1367.93l-2.8,16-1.59,9.14s2.77,1,6.19-11.9l11,14.88,2.19-12.59-6.88-11.18-2.24-7.45Z" transform="translate(-1.28)"/><path class="cls-25" d="M608.25,1178.94c0-15.73-12.55-28.92-28.27-28.92-6.87,0-13.55,2.51-18.1,10-13.68,22.57,18.11,124.4,18.11,124.4l28.26,110.81,16.92-2.91-16.92-124.48Z" transform="translate(-1.28)"/><polygon class="cls-9" points="645.93 1659.25 571.75 1696.95 571.75 1659.25 645.93 1659.25"/><polygon class="cls-9" points="1630.73 579.63 1630.73 1197.14 1809.28 1195.85 1811.07 1046.48 1630.73 579.63"/><polygon class="cls-2" points="2050.79 1080.84 1659.08 1095.22 1627.31 576.61 2003.49 576.53 2050.79 1080.84"/><path class="cls-28" d="M2055.56,1083.92l-398.37,14.71-32-525h382.4Zm-392,7.88,385-14L2002,579.47l-370,.16Z" transform="translate(-1.28)"/><polygon class="cls-13" points="1975.05 657.04 1834.69 657.88 1833.53 643.13 1973.73 642.43 1975.05 657.04"/><polygon class="cls-13" points="1978.21 691.89 1837.46 693.09 1836.29 678.24 1976.88 677.19 1978.21 691.89"/><polygon class="cls-13" points="1986.96 788.33 1679.23 793.09 1678.25 777.81 1985.61 773.39 1986.96 788.33"/><polygon class="cls-13" points="1990.19 823.97 1681.58 829.53 1680.59 814.16 1988.83 808.93 1990.19 823.97"/><polygon class="cls-13" points="1993.62 861.71 1684.08 868.13 1683.08 852.66 1992.24 846.58 1993.62 861.71"/><polygon class="cls-13" points="1996.89 897.79 1686.46 905.04 1685.45 889.48 1995.51 882.57 1996.89 897.79"/><polygon class="cls-13" points="2000.35 936.01 1688.98 944.15 1687.97 928.48 1998.96 920.7 2000.35 936.01"/><polygon class="cls-13" points="2008.71 1028.1 1877.93 1032.39 1876.67 1016.68 2007.3 1012.55 2008.71 1028.1"/><polygon class="cls-13" points="1686.52 741.54 1800.8 741.25 1792.73 617 1679.61 616.31 1686.52 741.54"/><path class="cls-14" d="M1705.33,732.2l-.11-2c-1.19-20.88,15.66-37.74,37.55-37.72h0c21.83,0,40.54,16.81,41.86,37.58l.12,2Z" transform="translate(-1.28)"/><path class="cls-15" d="M1714.49,660.32c1.69,13,14.77,27.21,28.49,26.34s22.78-16.41,21-29.38-14.17-22.75-27.81-21.94S1712.81,647.33,1714.49,660.32Z" transform="translate(-1.28)"/><path class="cls-15" d="M1742.61,707.5h0c6.13,0,10.81-4.71,10.45-10.52l-.92-15.16-22.15,0,.9,15.18C1731.23,702.78,1736.48,707.5,1742.61,707.5Z" transform="translate(-1.28)"/><path class="cls-15" d="M1763.13,661.57s1.48-4.07,4-.8-.43,13.8-4.79,9.75Z" transform="translate(-1.28)"/><path class="cls-15" d="M1716.25,661.86s-2.07-4.06-4.16-.75,2.38,13.83,6.2,9.71Z" transform="translate(-1.28)"/><path class="cls-14" d="M1754,645.7s-21.46,13-35.69,5.38l-.79,8.71,1.62,8.63s-3.05-8-4.67-8.1-3.18.61-3,2.67c0,0-11.76-41.51,38.94-32.51Z" transform="translate(-1.28)"/><path class="cls-14" d="M1750.45,630.48s19.85,7.94,16.7,30.29c0,0-.71-1.68-2.93-.86l-1.57,7.21s-.2-19.94-8.63-21.42Z" transform="translate(-1.28)"/><circle class="cls-29" cx="1536.19" cy="962.23" r="213.83" transform="translate(-231.74 1368.08) rotate(-45)"/><path class="cls-30" d="M1765.54,996a232.58,232.58,0,1,1-5-91.9A231.13,231.13,0,0,1,1765.54,996Zm-177.88,164.86c109.52-28.38,175.54-140.57,147.16-250.1s-140.58-175.54-250.1-147.16-175.54,140.57-147.16,250.1S1478.13,1189.24,1587.66,1160.86Z" transform="translate(-1.28)"/><path class="cls-30" d="M2063.88,1346.33a15,15,0,0,0-5.3-8.07l-334.94-261.48a15,15,0,0,0-18.51,23.72L2040.06,1362a15,15,0,0,0,23.82-15.64Z" transform="translate(-1.28)"/><rect class="cls-31" x="1541.42" y="781.22" width="26.27" height="306.27" transform="translate(3247.45 286.71) rotate(128.07)"/><rect class="cls-31" x="1500.61" y="822.03" width="26.27" height="306.27" transform="translate(3213.6 384.81) rotate(128.07)"/><polygon class="cls-32" points="2029.23 1152.17 1955.15 1118.98 1949.36 1109.65 1904.31 1109.65 1894.29 1126.56 1826.15 1146.29 1849.9 1337.59 1823.03 1434.17 1832.55 1432.57 1840.12 1429.75 2009.53 1449.62 1990.82 1309.9 2029.23 1152.17"/><path class="cls-10" d="M2010.81,1449.62l-15.2,121.53c-2,.13-4.06.23-6.1.27q-2.34,0-4.68,0c-16.32-.09-32.68-2.39-49-5.46-.31-.06-.61-.11-.91-.18l-11.16-80.09h0l-4.38-31.42-2.18-15.65a102.82,102.82,0,0,1,12.4-5.84c.09,0,.18-.12.27-.1,19,4.19,41,4.19,73.12,7.43C2006.86,1440.51,2008.39,1446,2010.81,1449.62Z" transform="translate(-1.28)"/><path class="cls-10" d="M1929.9,1440.13h0c0,4.28-.13,8.46-.44,12.46a178,178,0,0,1-5.66,33.12h0l-8,85.43c-10-2.16-14.74,14.07-24.66,12.16-2.79-.54-12.08,5.75-14.87,5.27-3.17-.55-9.38-13.09-12.54-13.55-6.87-1-1.71-2.89-8.58-3.58l-23.41-124.84-2-15.48-.17-1.38h29.54l31.29,2.82c15.9,0,15.9,0,33.38,2.74,9.19,1.45,5.22-11.89,5.84-2.51C1929.8,1435.26,1929.88,1437.7,1929.9,1440.13Z" transform="translate(-1.28)"/><polygon class="cls-9" points="1928.63 1440.13 1928.63 1373.09 1915.96 1438.64 1928.63 1440.13"/><path class="cls-6" d="M1947.73,1085.43l-1.45,26.33-39.06-1.44-3.34-20.26,4-4.63S1936.16,1064.89,1947.73,1085.43Z" transform="translate(-1.28)"/><polygon class="cls-9" points="2001.74 1440.13 1928.63 1440.13 1915.96 1438.64 1828.3 1429.75 1829.31 1437.28 1915.96 1444.02 2001.74 1440.13"/><polygon class="cls-9" points="1824.71 1430.81 1841.5 1369.51 1849.06 1340.95 1845.28 1432.57 1824.71 1430.81"/><polygon class="cls-2" points="1959.9 1121.11 1926.13 1123.89 1894.29 1126.56 1904.31 1109.65 1950.66 1108.83 1959.9 1121.11"/><polygon class="cls-9" points="2005.78 1248.45 2015.29 1194.77 1975.01 1306.51 1999.28 1373.09 1990.82 1309.9 2005.78 1248.45"/><path class="cls-32" d="M1827.44,1146.29s-52.63,120-38.12,130.31,58.29,28.71,58.29,28.71Z" transform="translate(-1.28)"/><path class="cls-9" d="M1842.25,1241.56c0-1-10.13,11.29-13.23,22.19-1.46,5.15,17.35,9.32,17.35,9.32Z" transform="translate(-1.28)"/><path class="cls-6" d="M1894.51,1047.78s-1.29,9.19-1.13,12.09-2.26,18.21-2.26,18.21l3.39.81s3.7,18.21,5.8,18.85,7.89-.76,7.89-.76l17.61-24.13-21.93-21.36Z" transform="translate(-1.28)"/><path class="cls-33" d="M1944.73,1105.78l7.59-26s24.6-40.51-8.14-44.85c0,0-33.23-33.2-53.76,14.18l8.18,4.45s20.64,3.77,16.12,15.93l4,33.62Z" transform="translate(-1.28)"/><path class="cls-34" d="M1905.18,1097.91s4.15-1.3,4.64-1.3,3.68-6.9,3.68-6.9l-1.26,8.2-5.77,7.87Z" transform="translate(-1.28)"/><path class="cls-6" d="M1912.1,1064.69s4.13-7.17,7.14-3.4,2.09,19.71-2.53,16.63S1912.1,1064.69,1912.1,1064.69Z" transform="translate(-1.28)"/><path class="cls-32" d="M2030.51,1152.17s38.13,106.95,29.85,131.76-68.26,26-68.26,26Z" transform="translate(-1.28)"/><path class="cls-9" d="M2006.67,1241.56s21.83,26.39,13.55,30.13-18.49-1.32-18.49-1.32Z" transform="translate(-1.28)"/><path class="cls-9" d="M1849.28,1374.76l3.22-38.65-14.33-147.36,21,135.72A178.93,178.93,0,0,1,1849.28,1374.76Z" transform="translate(-1.28)"/><path class="cls-10" d="M1995.61,1571.15s35.57,63.34-19.31,263.54h-21.77L1935,1565.81Z" transform="translate(-1.28)"/><path class="cls-10" d="M1915.78,1571.15s35.57,63.34-19.31,263.54H1874.7l-19.57-268.88Z" transform="translate(-1.28)"/><polygon class="cls-5" points="1975.67 1832.28 1982.35 1841.22 1979.01 1860.79 1966.79 1860.79 1966.79 1849.25 1958.26 1858.28 1925.83 1850.25 1922.13 1841.22 1953.07 1832.28 1975.67 1832.28"/><polygon class="cls-5" points="1895.31 1830.78 1901.99 1839.71 1898.65 1859.28 1886.43 1859.28 1886.43 1847.74 1877.9 1856.77 1845.48 1848.74 1841.78 1839.71 1872.71 1830.78 1895.31 1830.78"/><path class="cls-9" d="M1923.8,1485.72s16.21-25,11.16-42.5c0,0,8.47,16.15-5,46.76l2,54.33Z" transform="translate(-1.28)"/><polygon class="cls-2" points="1940.2 1434.73 1929.41 1365.16 1922.52 1435.32 1940.2 1434.73"/><polygon class="cls-18" points="1425.48 1507.32 1299.09 1635.38 1233.9 1598.72 1270.64 1567.37 1289.22 1600.58 1370.83 1480.94 1425.48 1507.32"/><polygon class="cls-8" points="1521.75 1610.33 1626.97 1466.27 1680.49 1485.39 1552.77 1622.35 1521.75 1610.33"/><polygon class="cls-8" points="1681.56 1606.77 1520.27 1530.52 1528.98 1474.36 1687.52 1574.04 1681.56 1606.77"/></g></g></svg>