<svg xmlns="http://www.w3.org/2000/svg" xmlns:xlink="http://www.w3.org/1999/xlink" width="183.005" height="196.005" viewBox="0 0 183.005 196.005">
    <defs>
        <linearGradient id="linear-gradient" x1=".5" x2=".5" y1="1" gradientUnits="objectBoundingBox">
            <stop offset="0" stop-color="#ebfffa"/>
            <stop offset="1" stop-color="#c3faec" stop-opacity=".969"/>
        </linearGradient>
        <linearGradient id="linear-gradient-2" y1="0" y2="1" xlink:href="#linear-gradient"/>
        <filter id="Ellipse_911" width="169.005" height="169.005" x="7" y="27" filterUnits="userSpaceOnUse">
            <feOffset dy="20"/>
            <feGaussianBlur result="blur" stdDeviation="10"/>
            <feFlood flood-color="#00c896" flood-opacity=".059"/>
            <feComposite in2="blur" operator="in"/>
            <feComposite in="SourceGraphic"/>
        </filter>
        <style>
            .cls-4{fill:#42b2c0}
        </style>
    </defs>
    <g id="Group_6138" transform="translate(-977.457 -2721)">
        <g id="Group_6049" transform="translate(1014.457 2758)">
            <circle id="Ellipse_2556" cx="91.502" cy="91.502" r="91.502" fill="url(#linear-gradient)" opacity="0.24" transform="rotate(180 73.002 73.002)"/>
            <g filter="url(#Ellipse_911)" transform="translate(-37 -37)">
                <circle id="Ellipse_911-2" cx="54.502" cy="54.502" r="54.502" fill="url(#linear-gradient-2)" transform="translate(37 37)"/>
            </g>
            <g id="Group_17781" transform="translate(-648.66 -308.135)">
                <path id="Path_41496" d="M687.121 370.949v-19.488h27.7v1.815a14.25 14.25 0 0 1 3.958.745v-2.56a3.968 3.968 0 0 0-3.956-3.958h-27.7a3.969 3.969 0 0 0-3.958 3.958v19.488a3.969 3.969 0 0 0 3.958 3.954h13.064a15.224 15.224 0 0 1-1.172-3.954z" class="cls-4"/>
                <circle id="Ellipse_2574" cx="2.968" cy="2.968" r="2.968" class="cls-4" transform="translate(692.067 355.418)"/>
                <path id="Path_41497" d="M699.151 363.689a10.376 10.376 0 0 0-8.232 0 2.981 2.981 0 0 0-1.82 2.751v.849h9.779a15.3 15.3 0 0 1 .671-3.395 2.931 2.931 0 0 0-.398-.205z" class="cls-4"/>
                <path id="Union_145" d="M721.542 378.616a12.414 12.414 0 0 1-19.57-10.148 12.422 12.422 0 0 1 12.421-12.422 12.413 12.413 0 0 1 10.036 19.732l7.333 7.349-2.849 2.849zm-15.747-10.152a8.589 8.589 0 0 0 8.576 8.6h.024a8.589 8.589 0 0 0 8.6-8.577v-.023a8.587 8.587 0 0 0-8.575-8.6h-.024a8.587 8.587 0 0 0-8.6 8.578v.021zm7.268 4.54v-3.129h-3.144v-2.685h3.144v-3.131h2.687v3.131h3.144v2.685h-3.144V373z" class="cls-4" transform="translate(-.198)"/>
            </g>
        </g>
    </g>
</svg>
