<svg xmlns="http://www.w3.org/2000/svg" width="35" height="32.425" viewBox="0 0 35 32.425">
    <defs>
        <style>
            .cls-1{fill:#42b2c0}
        </style>
    </defs>
    <g id="Group_17721" transform="translate(-647.729 -365.268)">
        <path id="Path_41269" d="M673.729 376.268a6.007 6.007 0 0 0-6-6h-.044a6.009 6.009 0 0 0-5.925 5.385c-.02.2-.031.406-.031.613s.011.411.031.613a6.008 6.008 0 0 0 5.925 5.385h.044a6.006 6.006 0 0 0 6-5.996zm-6 4a4 4 0 1 1 4-4 4 4 0 0 1-4 4z" class="cls-1"/>
        <path id="Path_41270" d="M667.729 365.268a15.017 15.017 0 0 0-15 15 6.593 6.593 0 0 0 .086 1h2.024a4.949 4.949 0 0 1-.11-1 13 13 0 1 1 22.564 8.776 12.059 12.059 0 0 0-9.563-4.776v2a10.057 10.057 0 0 1 8.106 4.145l.011.013a12.9 12.9 0 0 1-2.992 1.789l-.023.009c-.355.152-.717.286-1.084.4-.075.024-.15.045-.225.068q-.46.141-.929.246c-.105.024-.211.047-.317.068-.3.059-.6.106-.9.144-.114.014-.226.031-.341.043-.331.033-.665.051-1 .058-.071 0-.139.012-.21.012H667.727v2c.506 0 1.005-.027 1.5-.076.088-.008.174-.026.262-.036.4-.048.8-.1 1.193-.183.108-.021.213-.052.32-.075.37-.083.738-.174 1.1-.283.1-.031.2-.069.3-.1.362-.119.72-.247 1.069-.392.088-.037.175-.078.263-.117.356-.156.706-.322 1.047-.505.077-.041.153-.085.23-.128.342-.191.677-.393 1-.61.074-.049.146-.1.219-.15q.474-.327.922-.69c.078-.063.156-.129.233-.194q.54-.456 1.036-.96a14.987 14.987 0 0 0-10.7-25.5z" class="cls-1"/>
        <g id="badge-24px">
            <g id="Group_17649">
                <g id="Group_17648">
                    <path id="Rectangle_5120" d="M0 0H4V1.5H0z" class="cls-1" transform="translate(657.729 387.844)"/>
                    <path id="Rectangle_5121" d="M0 0H4V1.5H0z" class="cls-1" transform="translate(657.729 390.844)"/>
                    <path id="Path_41250" d="M663.729 383.844h-14a2.006 2.006 0 0 0-2 2v9.849a2.006 2.006 0 0 0 2 2h14a2.006 2.006 0 0 0 2-2v-9.849a2.006 2.006 0 0 0-2-2zm0 11.849h-14v-9.849h14z" class="cls-1"/>
                    <circle id="Ellipse_2543" cx="1.5" cy="1.5" r="1.5" class="cls-1" transform="translate(652.229 387.844)"/>
                    <path id="Path_41251" d="M655.809 392.024a5.249 5.249 0 0 0-4.16 0 1.507 1.507 0 0 0-.92 1.39v.43h6v-.43a1.506 1.506 0 0 0-.92-1.39z" class="cls-1"/>
                </g>
            </g>
        </g>
    </g>
</svg>
