<svg id="Layer_1" data-name="Layer 1" xmlns="http://www.w3.org/2000/svg" viewBox="0 0 593.96 127.67"><defs><style>.cls-1{fill:#42b2c0;}</style></defs><path class="cls-1" d="M138,56.33l31.31,43.29H153.41l-25-34.51L110.12,81.74V99.62H97.21V27.3h12.91v37l10.64-9.72,9.61-8.78L150.51,27.3h19.12Z" transform="translate(0.27 0.32)"/><path class="cls-1" d="M266,99.62H251.55L244.93,86.7l-15.8-31-15.81,31-6.61,12.92H192.25l6.61-12.92,30.27-59.4L259.4,86.7Z" transform="translate(0.27 0.32)"/><path class="cls-1" d="M363.22,27.3V40.21H310.43a6.67,6.67,0,0,0-6.62,6.62v6.71H350.3V66.45H303.71V99.62H290.9V46.83A19.49,19.49,0,0,1,310.32,27.3Z" transform="translate(0.27 0.32)"/><path class="cls-1" d="M451.64,86.81V99.72H415a22.47,22.47,0,0,1-10.13-2.37,23,23,0,0,1-10.43-10.54A22.48,22.48,0,0,1,392,76.68V27.4H405V77.92a10.29,10.29,0,0,0,8.78,8.78Z" transform="translate(0.27 0.32)"/><path class="cls-1" d="M480.56,99.62V27.3h12.92V99.62Z" transform="translate(0.27 0.32)"/><path class="cls-1" d="M534.28,63.46A23.28,23.28,0,0,0,557.53,86.7h36.16V99.62H557.53a36.16,36.16,0,1,1,0-72.32h36.16V40.21H557.53A23.29,23.29,0,0,0,534.28,63.46Z" transform="translate(0.27 0.32)"/><polygon class="cls-1" points="49.41 43.37 59.07 53.03 77.09 35 42.09 0 42.09 19.32 57.78 35 49.41 43.37"/><polygon class="cls-1" points="60.62 76.2 48.26 63.84 48.26 63.84 38.6 54.18 38.6 54.18 38.52 54.11 38.49 54.14 19.35 35 35.04 19.32 35.04 0 0.04 35 28.83 63.8 28.82 63.81 38.48 73.47 38.49 73.45 38.56 73.53 38.6 73.49 57.74 92.63 42.09 108.27 42.09 127.59 77.05 92.63 60.63 76.2 60.62 76.2"/><polygon class="cls-1" points="27.67 84.28 18.01 74.62 0 92.63 35.04 127.67 35.04 108.35 19.32 92.63 27.67 84.28"/></svg>