<svg id="Layer_1" data-name="Layer 1" xmlns="http://www.w3.org/2000/svg" viewBox="0 0 649.83 315.47"><defs><style>.cls-1{fill:#42b2c0;}</style></defs><path class="cls-1" d="M246.3,150.07,274,188.35H259.91L237.8,157.83l-16.17,14.71v15.81H210.21v-64h11.42V157.1l9.41-8.59,8.5-7.76,17.81-16.36h16.91Z" transform="translate(0.53 0.2)"/><path class="cls-1" d="M359.5,188.35H346.71l-5.85-11.42-14-27.41-14,27.41-5.85,11.42H294.26l5.85-11.42,26.77-52.54,26.77,52.54Z" transform="translate(0.53 0.2)"/><path class="cls-1" d="M445.47,124.39v11.42H398.78a5.89,5.89,0,0,0-5.85,5.85v5.94h41.12V159H392.84v29.33H381.51V141.66a17.24,17.24,0,0,1,17.18-17.27Z" transform="translate(0.53 0.2)"/><path class="cls-1" d="M523.67,177v11.42H491.24a19.92,19.92,0,0,1-9-2.1,20.26,20.26,0,0,1-9.22-9.32,19.85,19.85,0,0,1-2.1-9V124.48h11.42v44.68a9.1,9.1,0,0,0,7.76,7.77Z" transform="translate(0.53 0.2)"/><path class="cls-1" d="M549.25,188.35v-64h11.42v64Z" transform="translate(0.53 0.2)"/><path class="cls-1" d="M596.76,156.37a20.59,20.59,0,0,0,20.56,20.56h32v11.42h-32a32,32,0,0,1,0-64h32v11.42h-32A20.59,20.59,0,0,0,596.76,156.37Z" transform="translate(0.53 0.2)"/><polygon class="cls-1" points="281.67 245.44 284.65 245.44 284.65 233.55 296.27 233.55 296.27 230.49 284.65 230.49 284.65 221.58 299.51 221.58 299.51 218.56 281.67 218.56 281.67 245.44"/><rect class="cls-1" x="328.29" y="218.55" width="2.98" height="26.89"/><polygon class="cls-1" points="378.87 238.44 361.09 217.18 361.09 245.44 364.07 245.44 364.07 225.64 381.85 246.94 381.85 218.56 378.87 218.56 378.87 238.44"/><polygon class="cls-1" points="408.61 246.75 411.91 246.75 421.24 225.93 430.57 246.75 433.82 246.75 421.24 218.56 408.61 246.75"/><polygon class="cls-1" points="478.6 238.44 460.82 217.18 460.82 245.44 463.8 245.44 463.8 225.64 481.58 246.94 481.58 218.56 478.6 218.56 478.6 238.44"/><path class="cls-1" d="M530.56,238.53a11,11,0,0,1-3.69,2.92,10.41,10.41,0,0,1-9.84-.39,10.73,10.73,0,0,1-3.88-3.92,10.79,10.79,0,0,1,0-10.77,10.78,10.78,0,0,1,3.88-3.91,10.19,10.19,0,0,1,5.3-1.44,10.32,10.32,0,0,1,4.27.93,10.78,10.78,0,0,1,3.54,2.62l.4.45,2.29-2-.42-.45a13.92,13.92,0,0,0-4.6-3.32,13.4,13.4,0,0,0-12.31.68,13.72,13.72,0,0,0-4.95,5,13.88,13.88,0,0,0,0,13.74,13.77,13.77,0,0,0,4.95,5,13.45,13.45,0,0,0,12.7.51,13.51,13.51,0,0,0,4.72-3.78l.38-.47-2.37-1.85Z" transform="translate(0.53 0.2)"/><polygon class="cls-1" points="578.9 221.58 578.9 218.56 561.06 218.56 561.06 245.44 578.9 245.44 578.9 242.38 564.05 242.38 564.05 233.51 575.62 233.51 575.62 230.49 564.05 230.49 564.05 221.58 578.9 221.58"/><polygon class="cls-1" points="122.1 107.16 145.96 131.03 190.5 86.49 104 0 104 47.73 142.76 86.49 122.1 107.16"/><polygon class="cls-1" points="149.8 188.29 119.24 157.74 119.24 157.73 95.38 133.88 95.38 133.87 95.19 133.69 95.11 133.77 47.82 86.49 86.58 47.73 86.58 0 0.09 86.49 71.24 157.63 71.22 157.67 95.08 181.53 95.11 181.5 95.29 181.69 95.38 181.6 142.66 228.88 104 267.54 104 315.27 190.4 228.88 149.81 188.29 149.8 188.29"/><polygon class="cls-1" points="68.36 208.25 44.5 184.39 0 228.88 86.58 315.47 86.58 267.73 47.73 228.88 68.36 208.25"/></svg>